<?xml version="1.0" encoding="UTF-8"?>
<svg xmlns="http://www.w3.org/2000/svg" xmlns:xlink="http://www.w3.org/1999/xlink"
     width="1200" height="2842" viewBox="0 0 1200 2842">
<defs>
</defs>
<path d="M1087.6363636363635,708.3636363636364 L1087.6363636363635,627.0909090909091" stroke="yellow" stroke-width="2" fill="none" />
<path d="M1087.6363636363635,627.0909090909091 L1060.5454545454545,545.8181818181819" stroke="yellow" stroke-width="2" fill="none" />
<path d="M1060.5454545454545,545.8181818181819 L979.2727272727273,464.5454545454546" stroke="yellow" stroke-width="2" fill="none" />
<path d="M979.2727272727273,464.5454545454546 L898.0,437.4545454545455" stroke="yellow" stroke-width="2" fill="none" />
<path d="M898.0,437.4545454545455 L843.8181818181819,437.4545454545455" stroke="yellow" stroke-width="2" fill="none" />
<path d="M843.8181818181819,437.4545454545455 L762.5454545454546,464.5454545454546" stroke="yellow" stroke-width="2" fill="none" />
<path d="M762.5454545454546,464.5454545454546 L681.2727272727273,545.8181818181819" stroke="yellow" stroke-width="2" fill="none" />
<path d="M681.2727272727273,545.8181818181819 L654.1818181818182,627.0909090909091" stroke="yellow" stroke-width="2" fill="none" />
<path d="M654.1818181818182,627.0909090909091 L545.8181818181819,627.0909090909091" stroke="yellow" stroke-width="2" fill="none" />
<path d="M545.8181818181819,627.0909090909091 L518.7272727272727,545.8181818181819" stroke="yellow" stroke-width="2" fill="none" />
<path d="M518.7272727272727,545.8181818181819 L437.4545454545455,464.5454545454546" stroke="yellow" stroke-width="2" fill="none" />
<path d="M437.4545454545455,464.5454545454546 L356.18181818181824,437.4545454545455" stroke="yellow" stroke-width="2" fill="none" />
<path d="M356.18181818181824,437.4545454545455 L302.0,437.4545454545455" stroke="yellow" stroke-width="2" fill="none" />
<path d="M302.0,437.4545454545455 L220.72727272727275,464.5454545454546" stroke="yellow" stroke-width="2" fill="none" />
<path d="M220.72727272727275,464.5454545454546 L139.4545454545455,545.8181818181819" stroke="yellow" stroke-width="2" fill="none" />
<path d="M139.4545454545455,545.8181818181819 L112.36363636363637,627.0909090909091" stroke="yellow" stroke-width="2" fill="none" />
<path d="M112.36363636363637,627.0909090909091 L112.36363636363637,708.3636363636364" stroke="yellow" stroke-width="2" fill="none" />
<path d="M112.36363636363637,1196.0 L139.4545454545455,1277.2727272727273" stroke="yellow" stroke-width="2" fill="none" />
<path d="M139.4545454545455,1277.2727272727273 L220.72727272727275,1358.5454545454545" stroke="yellow" stroke-width="2" fill="none" />
<path d="M220.72727272727275,1358.5454545454545 L302.0,1385.6363636363635" stroke="yellow" stroke-width="2" fill="none" />
<path d="M302.0,1385.6363636363635 L356.18181818181824,1385.6363636363635" stroke="yellow" stroke-width="2" fill="none" />
<path d="M356.18181818181824,1385.6363636363635 L437.4545454545455,1358.5454545454545" stroke="yellow" stroke-width="2" fill="none" />
<path d="M437.4545454545455,1358.5454545454545 L518.7272727272727,1277.2727272727273" stroke="yellow" stroke-width="2" fill="none" />
<path d="M518.7272727272727,1277.2727272727273 L545.8181818181819,1196.0" stroke="yellow" stroke-width="2" fill="none" />
<path d="M437.4545454545455,85.27272727272725 L498.40909090909093,139.4545454545455" stroke="yellow" stroke-width="2" fill="none" />
<path d="M498.40909090909093,139.4545454545455 L586.4545454545455,176.7045454545455" stroke="yellow" stroke-width="2" fill="none" />
<path d="M613.5454545454545,176.7045454545455 L701.5909090909091,139.4545454545455" stroke="yellow" stroke-width="2" fill="none" />
<path d="M701.5909090909091,139.4545454545455 L762.5454545454546,85.27272727272725" stroke="yellow" stroke-width="2" fill="none" />
<path d="M762.5454545454546,85.27272727272725 L762.5454545454546,4.0" stroke="yellow" stroke-width="2" fill="none" />
<path d="M437.4545454545455,58.181818181818244 L437.4545454545455,85.27272727272725" stroke="lavender" stroke-width="2" fill="none" />
<path d="M464.54545454545456,58.181818181818244 L437.4545454545455,58.181818181818244" stroke="lavender" stroke-width="2" fill="none" />
<path d="M464.54545454545456,31.090909090909236 L464.54545454545456,58.181818181818244" stroke="yellow" stroke-width="2" fill="none" />
<path d="M437.4545454545455,31.090909090909236 L464.54545454545456,31.090909090909236" stroke="yellow" stroke-width="2" fill="none" />
<path d="M437.4545454545455,4.0 L437.4545454545455,31.090909090909236" stroke="yellow" stroke-width="2" fill="none" />
<path d="M437.4545454545455,31.090909090909236 L437.4545454545455,58.181818181818244" stroke="yellow" stroke-width="2" fill="none" />
<path d="M491.6363636363637,58.181818181818244 L464.54545454545456,58.181818181818244" stroke="yellow" stroke-width="2" fill="none" />
<path d="M491.6363636363637,31.090909090909236 L491.6363636363637,58.181818181818244" stroke="yellow" stroke-width="2" fill="none" />
<path d="M464.54545454545456,31.090909090909236 L491.6363636363637,31.090909090909236" stroke="yellow" stroke-width="2" fill="none" />
<path d="M518.7272727272727,58.181818181818244 L491.6363636363637,58.181818181818244" stroke="yellow" stroke-width="2" fill="none" />
<path d="M518.7272727272727,31.090909090909236 L518.7272727272727,58.181818181818244" stroke="yellow" stroke-width="2" fill="none" />
<path d="M491.6363636363637,31.090909090909236 L518.7272727272727,31.090909090909236" stroke="yellow" stroke-width="2" fill="none" />
<path d="M545.8181818181819,58.181818181818244 L518.7272727272727,58.181818181818244" stroke="yellow" stroke-width="2" fill="none" />
<path d="M545.8181818181819,31.090909090909236 L545.8181818181819,58.181818181818244" stroke="yellow" stroke-width="2" fill="none" />
<path d="M518.7272727272727,31.090909090909236 L545.8181818181819,31.090909090909236" stroke="yellow" stroke-width="2" fill="none" />
<path d="M572.909090909091,58.181818181818244 L545.8181818181819,58.181818181818244" stroke="yellow" stroke-width="2" fill="none" />
<path d="M572.909090909091,31.090909090909236 L572.909090909091,58.181818181818244" stroke="yellow" stroke-width="2" fill="none" />
<path d="M545.8181818181819,31.090909090909236 L572.909090909091,31.090909090909236" stroke="yellow" stroke-width="2" fill="none" />
<path d="M600.0,58.181818181818244 L572.909090909091,58.181818181818244" stroke="yellow" stroke-width="2" fill="none" />
<path d="M600.0,31.090909090909236 L600.0,58.181818181818244" stroke="yellow" stroke-width="2" fill="none" />
<path d="M572.909090909091,31.090909090909236 L600.0,31.090909090909236" stroke="yellow" stroke-width="2" fill="none" />
<path d="M627.0909090909091,58.181818181818244 L600.0,58.181818181818244" stroke="yellow" stroke-width="2" fill="none" />
<path d="M627.0909090909091,31.090909090909236 L627.0909090909091,58.181818181818244" stroke="yellow" stroke-width="2" fill="none" />
<path d="M600.0,31.090909090909236 L627.0909090909091,31.090909090909236" stroke="yellow" stroke-width="2" fill="none" />
<path d="M654.1818181818182,58.181818181818244 L627.0909090909091,58.181818181818244" stroke="yellow" stroke-width="2" fill="none" />
<path d="M654.1818181818182,31.090909090909236 L654.1818181818182,58.181818181818244" stroke="yellow" stroke-width="2" fill="none" />
<path d="M627.0909090909091,31.090909090909236 L654.1818181818182,31.090909090909236" stroke="yellow" stroke-width="2" fill="none" />
<path d="M681.2727272727273,58.181818181818244 L654.1818181818182,58.181818181818244" stroke="yellow" stroke-width="2" fill="none" />
<path d="M681.2727272727273,31.090909090909236 L681.2727272727273,58.181818181818244" stroke="yellow" stroke-width="2" fill="none" />
<path d="M654.1818181818182,31.090909090909236 L681.2727272727273,31.090909090909236" stroke="yellow" stroke-width="2" fill="none" />
<path d="M464.54545454545456,816.7272727272727 L464.54545454545456,898.0" stroke="yellow" stroke-width="2" fill="none" />
<path d="M654.1818181818182,735.4545454545455 L545.8181818181819,735.4545454545455" stroke="yellow" stroke-width="2" fill="none" />
<path d="M545.8181818181819,762.5454545454545 L654.1818181818182,762.5454545454545" stroke="yellow" stroke-width="2" fill="none" />
<path d="M708.3636363636364,58.181818181818244 L681.2727272727273,58.181818181818244" stroke="yellow" stroke-width="2" fill="none" />
<path d="M681.2727272727273,31.090909090909236 L708.3636363636364,31.090909090909236" stroke="yellow" stroke-width="2" fill="none" />
<path d="M708.3636363636364,31.090909090909236 L708.3636363636364,58.181818181818244" stroke="yellow" stroke-width="2" fill="none" />
<path d="M708.3636363636364,58.181818181818244 L708.3636363636364,85.27272727272725" stroke="yellow" stroke-width="2" fill="none" />
<path d="M708.3636363636364,85.27272727272725 L681.2727272727273,85.27272727272725" stroke="yellow" stroke-width="2" fill="none" />
<path d="M681.2727272727273,85.27272727272725 L681.2727272727273,58.181818181818244" stroke="yellow" stroke-width="2" fill="none" />
<path d="M491.6363636363637,898.0 L491.6363636363637,816.7272727272727" stroke="yellow" stroke-width="2" fill="none" />
<path d="M735.4545454545455,898.0 L735.4545454545455,816.7272727272727" stroke="yellow" stroke-width="2" fill="none" />
<path d="M708.3636363636364,816.7272727272727 L708.3636363636364,898.0" stroke="yellow" stroke-width="2" fill="none" />
<path d="M464.54545454545456,925.0909090909091 L464.54545454545456,1006.3636363636364" stroke="yellow" stroke-width="2" fill="none" />
<path d="M491.6363636363637,1006.3636363636364 L491.6363636363637,925.0909090909091" stroke="yellow" stroke-width="2" fill="none" />
<path d="M735.4545454545455,1006.3636363636364 L735.4545454545455,925.0909090909091" stroke="yellow" stroke-width="2" fill="none" />
<path d="M708.3636363636364,925.0909090909091 L708.3636363636364,1006.3636363636364" stroke="yellow" stroke-width="2" fill="none" />
<path d="M545.8181818181819,789.6363636363636 L654.1818181818182,789.6363636363636" stroke="yellow" stroke-width="2" fill="none" />
<path d="M545.8181818181819,1087.6363636363637 L654.1818181818182,1087.6363636363637" stroke="yellow" stroke-width="2" fill="none" />
<path d="M654.1818181818182,1060.5454545454545 L545.8181818181819,1060.5454545454545" stroke="lavender" stroke-width="2" fill="none" />
<path d="M654.1818181818182,1033.4545454545455 L545.8181818181819,1033.4545454545455" stroke="yellow" stroke-width="2" fill="none" />
<path d="M545.8181818181819,1196.0 L654.1818181818182,1196.0" stroke="yellow" stroke-width="2" fill="none" />
<path d="M654.1818181818182,1196.0 L681.2727272727273,1277.2727272727273" stroke="yellow" stroke-width="2" fill="none" />
<path d="M681.2727272727273,1277.2727272727273 L762.5454545454546,1358.5454545454545" stroke="yellow" stroke-width="2" fill="none" />
<path d="M762.5454545454546,1358.5454545454545 L843.8181818181819,1385.6363636363635" stroke="yellow" stroke-width="2" fill="none" />
<path d="M843.8181818181819,1385.6363636363635 L898.0,1385.6363636363635" stroke="yellow" stroke-width="2" fill="none" />
<path d="M898.0,1385.6363636363635 L979.2727272727273,1358.5454545454545" stroke="yellow" stroke-width="2" fill="none" />
<path d="M979.2727272727273,1358.5454545454545 L1060.5454545454545,1277.2727272727273" stroke="yellow" stroke-width="2" fill="none" />
<path d="M1060.5454545454545,1277.2727272727273 L1087.6363636363635,1196.0" stroke="yellow" stroke-width="2" fill="none" />
<path d="M437.4545454545455,85.27272727272725 L464.54545454545456,85.27272727272725" stroke="lavender" stroke-width="2" fill="none" />
<path d="M464.54545454545456,85.27272727272725 L464.54545454545456,58.181818181818244" stroke="lavender" stroke-width="2" fill="none" />
<path d="M627.0909090909091,2035.8181818181818 L572.909090909091,2035.8181818181818" stroke="yellow" stroke-width="2" fill="none" />
<path d="M572.909090909091,2117.090909090909 L627.0909090909091,2117.090909090909" stroke="yellow" stroke-width="2" fill="none" />
<path d="M654.1818181818182,1954.5454545454545 L545.8181818181819,1954.5454545454545" stroke="yellow" stroke-width="2" fill="none" />
<path d="M1060.5454545454545,1981.6363636363635 L1060.5454545454545,2008.7272727272727" stroke="lavender" stroke-width="2" fill="none" />
<path d="M1060.5454545454545,2008.7272727272727 L1087.6363636363635,2008.7272727272727" stroke="lavender" stroke-width="2" fill="none" />
<path d="M1087.6363636363635,2008.7272727272727 L1087.6363636363635,1981.6363636363635" stroke="lavender" stroke-width="2" fill="none" />
<path d="M1087.6363636363635,1981.6363636363635 L1060.5454545454545,1981.6363636363635" stroke="lavender" stroke-width="2" fill="none" />
<path d="M112.36363636363637,1981.6363636363635 L112.36363636363637,2008.7272727272727" stroke="lavender" stroke-width="2" fill="none" />
<path d="M112.36363636363637,2008.7272727272727 L139.4545454545455,2008.7272727272727" stroke="lavender" stroke-width="2" fill="none" />
<path d="M139.4545454545455,2008.7272727272727 L139.4545454545455,1981.6363636363635" stroke="lavender" stroke-width="2" fill="none" />
<path d="M139.4545454545455,1981.6363636363635 L112.36363636363637,1981.6363636363635" stroke="lavender" stroke-width="2" fill="none" />
<path d="M654.1818181818182,708.3636363636364 L545.8181818181819,708.3636363636364" stroke="yellow" stroke-width="2" fill="none" />
<path d="M545.8181818181819,1114.7272727272727 L654.1818181818182,1114.7272727272727" stroke="lavender" stroke-width="2" fill="none" />
<path d="M383.2727272727273,159.77272727272725 L329.0909090909091,220.72727272727275" stroke="yellow" stroke-width="2" fill="none" />
<path d="M329.0909090909091,220.72727272727275 L383.2727272727273,281.68181818181824" stroke="yellow" stroke-width="2" fill="none" />
<path d="M383.2727272727273,281.68181818181824 L437.4545454545455,220.72727272727275" stroke="yellow" stroke-width="2" fill="none" />
<path d="M437.4545454545455,220.72727272727275 L383.2727272727273,159.77272727272725" stroke="yellow" stroke-width="2" fill="none" />
<path d="M816.7272727272727,281.68181818181824 L870.9090909090909,220.72727272727275" stroke="yellow" stroke-width="2" fill="none" />
<path d="M870.9090909090909,220.72727272727275 L816.7272727272727,159.77272727272725" stroke="yellow" stroke-width="2" fill="none" />
<path d="M816.7272727272727,159.77272727272725 L762.5454545454546,220.72727272727275" stroke="yellow" stroke-width="2" fill="none" />
<path d="M762.5454545454546,220.72727272727275 L816.7272727272727,281.68181818181824" stroke="yellow" stroke-width="2" fill="none" />
<path d="M600.0,268.1363636363636 L545.8181818181819,329.0909090909091" stroke="yellow" stroke-width="2" fill="none" />
<path d="M545.8181818181819,329.0909090909091 L600.0,390.0454545454546" stroke="yellow" stroke-width="2" fill="none" />
<path d="M600.0,390.0454545454546 L654.1818181818182,329.0909090909091" stroke="yellow" stroke-width="2" fill="none" />
<path d="M654.1818181818182,329.0909090909091 L600.0,268.1363636363636" stroke="yellow" stroke-width="2" fill="none" />
<path d="M1006.3636363636364,268.1363636363636 L952.1818181818182,329.0909090909091" stroke="yellow" stroke-width="2" fill="none" />
<path d="M952.1818181818182,329.0909090909091 L1006.3636363636364,390.0454545454546" stroke="yellow" stroke-width="2" fill="none" />
<path d="M1006.3636363636364,390.0454545454546 L1060.5454545454545,329.0909090909091" stroke="yellow" stroke-width="2" fill="none" />
<path d="M1060.5454545454545,329.0909090909091 L1006.3636363636364,268.1363636363636" stroke="yellow" stroke-width="2" fill="none" />
<path d="M193.63636363636363,268.1363636363636 L139.4545454545455,329.0909090909091" stroke="yellow" stroke-width="2" fill="none" />
<path d="M139.4545454545455,329.0909090909091 L193.63636363636363,390.0454545454546" stroke="yellow" stroke-width="2" fill="none" />
<path d="M193.63636363636363,390.0454545454546 L247.81818181818187,329.0909090909091" stroke="yellow" stroke-width="2" fill="none" />
<path d="M247.81818181818187,329.0909090909091 L193.63636363636363,268.1363636363636" stroke="yellow" stroke-width="2" fill="none" />
<path d="M491.6363636363637,789.6363636363636 L518.7272727272727,789.6363636363636" stroke="lavender" stroke-width="2" fill="none" />
<path d="M518.7272727272727,782.8636363636364 L491.6363636363637,782.8636363636364" stroke="yellow" stroke-width="2" fill="none" />
<path d="M491.6363636363637,816.7272727272727 L518.7272727272727,789.6363636363636" stroke="yellow" stroke-width="2" fill="none" />
<path d="M681.2727272727273,789.6363636363636 L708.3636363636364,789.6363636363636" stroke="lavender" stroke-width="2" fill="none" />
<path d="M708.3636363636364,782.8636363636364 L681.2727272727273,782.8636363636364" stroke="yellow" stroke-width="2" fill="none" />
<path d="M681.2727272727273,789.6363636363636 L708.3636363636364,816.7272727272727" stroke="yellow" stroke-width="2" fill="none" />
<path d="M518.7272727272727,1033.4545454545455 L491.6363636363637,1006.3636363636364" stroke="yellow" stroke-width="2" fill="none" />
<path d="M708.3636363636364,1006.3636363636364 L681.2727272727273,1033.4545454545455" stroke="yellow" stroke-width="2" fill="none" />
<path d="M518.7272727272727,1033.4545454545455 L491.6363636363637,1033.4545454545455" stroke="lavender" stroke-width="2" fill="none" />
<path d="M708.3636363636364,1033.4545454545455 L681.2727272727273,1033.4545454545455" stroke="lavender" stroke-width="2" fill="none" />
<path d="M491.6363636363637,1040.2272727272727 L518.7272727272727,1040.2272727272727" stroke="yellow" stroke-width="2" fill="none" />
<path d="M681.2727272727273,1040.2272727272727 L708.3636363636364,1040.2272727272727" stroke="yellow" stroke-width="2" fill="none" />
<path d="M58.181818181818244,1196.0 L112.36363636363637,1196.0" stroke="yellow" stroke-width="2" fill="none" />
<path d="M58.181818181818244,1819.090909090909 L58.181818181818244,1196.0" stroke="yellow" stroke-width="2" fill="none" />
<path d="M139.4545454545455,1900.3636363636365 L58.181818181818244,1819.090909090909" stroke="yellow" stroke-width="2" fill="none" />
<path d="M139.4545454545455,1927.4545454545455 L139.4545454545455,1900.3636363636365" stroke="yellow" stroke-width="2" fill="none" />
<path d="M220.72727272727275,1927.4545454545455 L139.4545454545455,1927.4545454545455" stroke="yellow" stroke-width="2" fill="none" />
<path d="M247.81818181818187,1900.3636363636365 L220.72727272727275,1927.4545454545455" stroke="yellow" stroke-width="2" fill="none" />
<path d="M491.6363636363637,1900.3636363636365 L247.81818181818187,1900.3636363636365" stroke="yellow" stroke-width="2" fill="none" />
<path d="M545.8181818181819,1954.5454545454545 L491.6363636363637,1900.3636363636365" stroke="yellow" stroke-width="2" fill="none" />
<path d="M708.3636363636364,1900.3636363636365 L654.1818181818182,1954.5454545454545" stroke="yellow" stroke-width="2" fill="none" />
<path d="M952.1818181818182,1900.3636363636365 L708.3636363636364,1900.3636363636365" stroke="yellow" stroke-width="2" fill="none" />
<path d="M979.2727272727273,1927.4545454545455 L952.1818181818182,1900.3636363636365" stroke="yellow" stroke-width="2" fill="none" />
<path d="M1060.5454545454545,1927.4545454545455 L979.2727272727273,1927.4545454545455" stroke="yellow" stroke-width="2" fill="none" />
<path d="M1060.5454545454545,1900.3636363636365 L1060.5454545454545,1927.4545454545455" stroke="yellow" stroke-width="2" fill="none" />
<path d="M1141.8181818181818,1819.090909090909 L1060.5454545454545,1900.3636363636365" stroke="yellow" stroke-width="2" fill="none" />
<path d="M1141.8181818181818,1196.0 L1141.8181818181818,1819.090909090909" stroke="yellow" stroke-width="2" fill="none" />
<path d="M1087.6363636363635,1196.0 L1141.8181818181818,1196.0" stroke="yellow" stroke-width="2" fill="none" />
<path d="M600.0,1456.75 L491.6363636363637,1548.1818181818182" stroke="yellow" stroke-width="2" fill="none" />
<path d="M491.6363636363637,1548.1818181818182 L528.8863636363637,1683.6363636363635" stroke="yellow" stroke-width="2" fill="none" />
<path d="M528.8863636363637,1683.6363636363635 L671.1136363636364,1683.6363636363635" stroke="yellow" stroke-width="2" fill="none" />
<path d="M671.1136363636364,1683.6363636363635 L708.3636363636364,1548.1818181818182" stroke="yellow" stroke-width="2" fill="none" />
<path d="M708.3636363636364,1548.1818181818182 L600.0,1456.75" stroke="yellow" stroke-width="2" fill="none" />
<path d="M545.8181818181819,1053.7727272727273 L545.8181818181819,1040.2272727272727" stroke="yellow" stroke-width="2" fill="none" />
<path d="M606.7727272727273,149.6136363636365 L593.2272727272727,149.6136363636365" stroke="yellow" stroke-width="2" fill="none" />
<path d="M545.8181818181819,1114.7272727272727 L545.8181818181819,1196.0" stroke="yellow" stroke-width="2" fill="none" />
<path d="M654.1818181818182,1196.0 L654.1818181818182,1114.7272727272727" stroke="yellow" stroke-width="2" fill="none" />
<path d="M627.0909090909091,2784.2045454545455 L572.909090909091,2784.2045454545455" stroke="lavender" stroke-width="2" fill="none" />
<path d="M606.7727272727273,2831.613636363636 L593.2272727272727,2831.613636363636" stroke="yellow" stroke-width="2" fill="none" />
<path d="M613.5454545454545,2807.909090909091 L586.4545454545455,2807.909090909091" stroke="yellow" stroke-width="2" fill="none" />
<path d="M627.0909090909091,2784.2045454545455 L613.5454545454545,2760.5" stroke="lavender" stroke-width="2" fill="none" />
<path d="M613.5454545454545,2760.5 L586.4545454545455,2760.5" stroke="lavender" stroke-width="2" fill="none" />
<path d="M586.4545454545455,2760.5 L572.909090909091,2784.2045454545455" stroke="lavender" stroke-width="2" fill="none" />
<path d="M735.4545454545455,600.0 L708.3636363636364,654.1818181818182" stroke="red" stroke-width="2" fill="none" />
<path d="M789.6363636363636,545.8181818181819 L735.4545454545455,600.0" stroke="red" stroke-width="2" fill="none" />
<path d="M843.8181818181819,518.7272727272727 L789.6363636363636,545.8181818181819" stroke="red" stroke-width="2" fill="none" />
<path d="M898.0,518.7272727272727 L843.8181818181819,518.7272727272727" stroke="red" stroke-width="2" fill="none" />
<path d="M952.1818181818182,545.8181818181819 L898.0,518.7272727272727" stroke="red" stroke-width="2" fill="none" />
<path d="M1006.3636363636364,600.0 L952.1818181818182,545.8181818181819" stroke="red" stroke-width="2" fill="none" />
<path d="M1033.4545454545455,654.1818181818182 L1006.3636363636364,600.0" stroke="red" stroke-width="2" fill="none" />
<path d="M1033.4545454545455,708.3636363636364 L1033.4545454545455,654.1818181818182" stroke="red" stroke-width="2" fill="none" />
<path d="M708.3636363636364,654.1818181818182 L708.3636363636364,708.3636363636364" stroke="red" stroke-width="2" fill="none" />
<path d="M193.63636363636363,600.0 L166.54545454545462,654.1818181818182" stroke="red" stroke-width="2" fill="none" />
<path d="M247.81818181818187,545.8181818181819 L193.63636363636363,600.0" stroke="red" stroke-width="2" fill="none" />
<path d="M302.0,518.7272727272727 L247.81818181818187,545.8181818181819" stroke="red" stroke-width="2" fill="none" />
<path d="M356.18181818181824,518.7272727272727 L302.0,518.7272727272727" stroke="red" stroke-width="2" fill="none" />
<path d="M410.3636363636364,545.8181818181819 L356.18181818181824,518.7272727272727" stroke="red" stroke-width="2" fill="none" />
<path d="M464.54545454545456,600.0 L410.3636363636364,545.8181818181819" stroke="red" stroke-width="2" fill="none" />
<path d="M491.6363636363637,654.1818181818182 L464.54545454545456,600.0" stroke="red" stroke-width="2" fill="none" />
<path d="M491.6363636363637,708.3636363636364 L491.6363636363637,654.1818181818182" stroke="red" stroke-width="2" fill="none" />
<path d="M166.54545454545462,654.1818181818182 L166.54545454545462,708.3636363636364" stroke="red" stroke-width="2" fill="none" />
<path d="M166.54545454545462,708.3636363636364 L112.36363636363637,708.3636363636364" stroke="red" stroke-width="2" fill="none" />
<path d="M545.8181818181819,708.3636363636364 L491.6363636363637,708.3636363636364" stroke="red" stroke-width="2" fill="none" />
<path d="M708.3636363636364,708.3636363636364 L654.1818181818182,708.3636363636364" stroke="red" stroke-width="2" fill="none" />
<path d="M1087.6363636363635,708.3636363636364 L1033.4545454545455,708.3636363636364" stroke="red" stroke-width="2" fill="none" />
<path d="M112.36363636363637,708.3636363636364 L31.090909090909122,704.9772727272727" stroke="red" stroke-width="2" fill="none" />
<path d="M31.090909090909122,704.9772727272727 L31.090909090909122,406.97727272727275" stroke="red" stroke-width="2" fill="none" />
<path d="M31.090909090909122,406.97727272727275 L166.54545454545462,98.81818181818176" stroke="red" stroke-width="2" fill="none" />
<path d="M166.54545454545462,98.81818181818176 L437.4545454545455,4.0" stroke="red" stroke-width="2" fill="none" />
<path d="M437.4545454545455,4.0 L762.5454545454546,4.0" stroke="red" stroke-width="2" fill="none" />
<path d="M762.5454545454546,4.0 L1033.4545454545455,98.81818181818176" stroke="red" stroke-width="2" fill="none" />
<path d="M1033.4545454545455,98.81818181818176 L1168.909090909091,410.3636363636364" stroke="red" stroke-width="2" fill="none" />
<path d="M1168.909090909091,410.3636363636364 L1168.909090909091,708.3636363636364" stroke="red" stroke-width="2" fill="none" />
<path d="M1168.909090909091,708.3636363636364 L1087.6363636363635,708.3636363636364" stroke="red" stroke-width="2" fill="none" />
<path d="M654.1818181818182,708.3636363636364 L654.1818181818182,735.4545454545455" stroke="red" stroke-width="2" fill="none" />
<path d="M654.1818181818182,735.4545454545455 L654.1818181818182,762.5454545454545" stroke="red" stroke-width="2" fill="none" />
<path d="M654.1818181818182,762.5454545454545 L654.1818181818182,789.6363636363636" stroke="red" stroke-width="2" fill="none" />
<path d="M545.8181818181819,789.6363636363636 L545.8181818181819,762.5454545454545" stroke="red" stroke-width="2" fill="none" />
<path d="M545.8181818181819,762.5454545454545 L545.8181818181819,735.4545454545455" stroke="red" stroke-width="2" fill="none" />
<path d="M545.8181818181819,735.4545454545455 L545.8181818181819,708.3636363636364" stroke="red" stroke-width="2" fill="none" />
<path d="M166.54545454545462,1114.7272727272727 L166.54545454545462,1168.909090909091" stroke="red" stroke-width="2" fill="none" />
<path d="M166.54545454545462,1168.909090909091 L193.63636363636363,1223.090909090909" stroke="red" stroke-width="2" fill="none" />
<path d="M193.63636363636363,1223.090909090909 L247.81818181818187,1277.2727272727273" stroke="red" stroke-width="2" fill="none" />
<path d="M247.81818181818187,1277.2727272727273 L302.0,1304.3636363636363" stroke="red" stroke-width="2" fill="none" />
<path d="M302.0,1304.3636363636363 L356.18181818181824,1304.3636363636363" stroke="red" stroke-width="2" fill="none" />
<path d="M356.18181818181824,1304.3636363636363 L410.3636363636364,1277.2727272727273" stroke="red" stroke-width="2" fill="none" />
<path d="M410.3636363636364,1277.2727272727273 L464.54545454545456,1223.090909090909" stroke="red" stroke-width="2" fill="none" />
<path d="M464.54545454545456,1223.090909090909 L491.6363636363637,1168.909090909091" stroke="red" stroke-width="2" fill="none" />
<path d="M491.6363636363637,1168.909090909091 L491.6363636363637,1114.7272727272727" stroke="red" stroke-width="2" fill="none" />
<path d="M491.6363636363637,1114.7272727272727 L545.8181818181819,1114.7272727272727" stroke="red" stroke-width="2" fill="none" />
<path d="M464.54545454545456,816.7272727272727 L491.6363636363637,816.7272727272727" stroke="red" stroke-width="2" fill="none" />
<path d="M491.6363636363637,816.7272727272727 L491.6363636363637,789.6363636363636" stroke="red" stroke-width="2" fill="none" />
<path d="M518.7272727272727,789.6363636363636 L545.8181818181819,789.6363636363636" stroke="red" stroke-width="2" fill="none" />
<path d="M491.6363636363637,898.0 L464.54545454545456,898.0" stroke="red" stroke-width="2" fill="none" />
<path d="M654.1818181818182,789.6363636363636 L681.2727272727273,789.6363636363636" stroke="red" stroke-width="2" fill="none" />
<path d="M708.3636363636364,789.6363636363636 L708.3636363636364,816.7272727272727" stroke="red" stroke-width="2" fill="none" />
<path d="M708.3636363636364,816.7272727272727 L735.4545454545455,816.7272727272727" stroke="red" stroke-width="2" fill="none" />
<path d="M735.4545454545455,898.0 L708.3636363636364,898.0" stroke="red" stroke-width="2" fill="none" />
<path d="M464.54545454545456,925.0909090909091 L491.6363636363637,925.0909090909091" stroke="red" stroke-width="2" fill="none" />
<path d="M491.6363636363637,925.0909090909091 L491.6363636363637,898.0" stroke="red" stroke-width="2" fill="none" />
<path d="M491.6363636363637,1006.3636363636364 L464.54545454545456,1006.3636363636364" stroke="red" stroke-width="2" fill="none" />
<path d="M708.3636363636364,898.0 L708.3636363636364,925.0909090909091" stroke="red" stroke-width="2" fill="none" />
<path d="M708.3636363636364,925.0909090909091 L735.4545454545455,925.0909090909091" stroke="red" stroke-width="2" fill="none" />
<path d="M735.4545454545455,1006.3636363636364 L708.3636363636364,1006.3636363636364" stroke="red" stroke-width="2" fill="none" />
<path d="M491.6363636363637,1033.4545454545455 L491.6363636363637,1006.3636363636364" stroke="red" stroke-width="2" fill="none" />
<path d="M708.3636363636364,1006.3636363636364 L708.3636363636364,1033.4545454545455" stroke="red" stroke-width="2" fill="none" />
<path d="M545.8181818181819,1114.7272727272727 L545.8181818181819,1087.6363636363637" stroke="red" stroke-width="2" fill="none" />
<path d="M545.8181818181819,1087.6363636363637 L545.8181818181819,1060.5454545454545" stroke="red" stroke-width="2" fill="none" />
<path d="M545.8181818181819,1033.4545454545455 L518.7272727272727,1033.4545454545455" stroke="red" stroke-width="2" fill="none" />
<path d="M681.2727272727273,1033.4545454545455 L654.1818181818182,1033.4545454545455" stroke="red" stroke-width="2" fill="none" />
<path d="M654.1818181818182,1033.4545454545455 L654.1818181818182,1060.5454545454545" stroke="red" stroke-width="2" fill="none" />
<path d="M654.1818181818182,1060.5454545454545 L654.1818181818182,1087.6363636363637" stroke="red" stroke-width="2" fill="none" />
<path d="M654.1818181818182,1087.6363636363637 L654.1818181818182,1114.7272727272727" stroke="red" stroke-width="2" fill="none" />
<path d="M464.54545454545456,1006.3636363636364 L464.54545454545456,1033.4545454545455" stroke="red" stroke-width="2" fill="none" />
<path d="M464.54545454545456,1033.4545454545455 L437.4545454545455,1080.8636363636365" stroke="red" stroke-width="2" fill="none" />
<path d="M437.4545454545455,1080.8636363636365 L383.2727272727273,1087.6363636363637" stroke="red" stroke-width="2" fill="none" />
<path d="M383.2727272727273,1087.6363636363637 L274.909090909091,1087.6363636363637" stroke="red" stroke-width="2" fill="none" />
<path d="M274.909090909091,1087.6363636363637 L220.72727272727275,1080.8636363636365" stroke="red" stroke-width="2" fill="none" />
<path d="M220.72727272727275,1080.8636363636365 L193.63636363636363,1033.4545454545455" stroke="red" stroke-width="2" fill="none" />
<path d="M193.63636363636363,1033.4545454545455 L193.63636363636363,1006.3636363636364" stroke="red" stroke-width="2" fill="none" />
<path d="M193.63636363636363,1006.3636363636364 L247.81818181818187,1006.3636363636364" stroke="red" stroke-width="2" fill="none" />
<path d="M247.81818181818187,1006.3636363636364 L247.81818181818187,816.7272727272727" stroke="red" stroke-width="2" fill="none" />
<path d="M247.81818181818187,816.7272727272727 L193.63636363636363,816.7272727272727" stroke="red" stroke-width="2" fill="none" />
<path d="M193.63636363636363,816.7272727272727 L193.63636363636363,789.6363636363636" stroke="red" stroke-width="2" fill="none" />
<path d="M193.63636363636363,789.6363636363636 L220.72727272727275,742.2272727272727" stroke="red" stroke-width="2" fill="none" />
<path d="M220.72727272727275,742.2272727272727 L274.909090909091,735.4545454545455" stroke="red" stroke-width="2" fill="none" />
<path d="M274.909090909091,735.4545454545455 L383.2727272727273,735.4545454545455" stroke="red" stroke-width="2" fill="none" />
<path d="M383.2727272727273,735.4545454545455 L437.4545454545455,742.2272727272727" stroke="red" stroke-width="2" fill="none" />
<path d="M437.4545454545455,742.2272727272727 L464.54545454545456,789.6363636363636" stroke="red" stroke-width="2" fill="none" />
<path d="M464.54545454545456,789.6363636363636 L464.54545454545456,816.7272727272727" stroke="red" stroke-width="2" fill="none" />
<path d="M735.4545454545455,816.7272727272727 L735.4545454545455,789.6363636363636" stroke="red" stroke-width="2" fill="none" />
<path d="M735.4545454545455,789.6363636363636 L762.5454545454546,742.2272727272727" stroke="red" stroke-width="2" fill="none" />
<path d="M762.5454545454546,742.2272727272727 L816.7272727272727,735.4545454545455" stroke="red" stroke-width="2" fill="none" />
<path d="M816.7272727272727,735.4545454545455 L925.0909090909091,735.4545454545455" stroke="red" stroke-width="2" fill="none" />
<path d="M925.0909090909091,735.4545454545455 L979.2727272727273,742.2272727272727" stroke="red" stroke-width="2" fill="none" />
<path d="M979.2727272727273,742.2272727272727 L1006.3636363636364,789.6363636363636" stroke="red" stroke-width="2" fill="none" />
<path d="M1006.3636363636364,789.6363636363636 L1006.3636363636364,816.7272727272727" stroke="red" stroke-width="2" fill="none" />
<path d="M1006.3636363636364,816.7272727272727 L952.1818181818182,816.7272727272727" stroke="red" stroke-width="2" fill="none" />
<path d="M952.1818181818182,816.7272727272727 L952.1818181818182,1006.3636363636364" stroke="red" stroke-width="2" fill="none" />
<path d="M952.1818181818182,1006.3636363636364 L1006.3636363636364,1006.3636363636364" stroke="red" stroke-width="2" fill="none" />
<path d="M1006.3636363636364,1006.3636363636364 L1006.3636363636364,1033.4545454545455" stroke="red" stroke-width="2" fill="none" />
<path d="M1006.3636363636364,1033.4545454545455 L979.2727272727273,1080.8636363636365" stroke="red" stroke-width="2" fill="none" />
<path d="M979.2727272727273,1080.8636363636365 L928.4772727272727,1087.6363636363637" stroke="red" stroke-width="2" fill="none" />
<path d="M928.4772727272727,1087.6363636363637 L820.1136363636364,1087.6363636363637" stroke="red" stroke-width="2" fill="none" />
<path d="M820.1136363636364,1087.6363636363637 L762.5454545454546,1080.8636363636365" stroke="red" stroke-width="2" fill="none" />
<path d="M762.5454545454546,1080.8636363636365 L735.4545454545455,1033.4545454545455" stroke="red" stroke-width="2" fill="none" />
<path d="M735.4545454545455,1033.4545454545455 L735.4545454545455,1006.3636363636364" stroke="red" stroke-width="2" fill="none" />
<path d="M708.3636363636364,1114.7272727272727 L708.3636363636364,1168.909090909091" stroke="red" stroke-width="2" fill="none" />
<path d="M708.3636363636364,1168.909090909091 L735.4545454545455,1223.090909090909" stroke="red" stroke-width="2" fill="none" />
<path d="M735.4545454545455,1223.090909090909 L789.6363636363636,1277.2727272727273" stroke="red" stroke-width="2" fill="none" />
<path d="M789.6363636363636,1277.2727272727273 L843.8181818181819,1304.3636363636363" stroke="red" stroke-width="2" fill="none" />
<path d="M843.8181818181819,1304.3636363636363 L898.0,1304.3636363636363" stroke="red" stroke-width="2" fill="none" />
<path d="M898.0,1304.3636363636363 L952.1818181818182,1277.2727272727273" stroke="red" stroke-width="2" fill="none" />
<path d="M952.1818181818182,1277.2727272727273 L1006.3636363636364,1223.090909090909" stroke="red" stroke-width="2" fill="none" />
<path d="M1006.3636363636364,1223.090909090909 L1033.4545454545455,1168.909090909091" stroke="red" stroke-width="2" fill="none" />
<path d="M1033.4545454545455,1168.909090909091 L1033.4545454545455,1114.7272727272727" stroke="red" stroke-width="2" fill="none" />
<path d="M654.1818181818182,1114.7272727272727 L708.3636363636364,1114.7272727272727" stroke="red" stroke-width="2" fill="none" />
<path d="M4.0,1114.7272727272727 L166.54545454545462,1114.7272727272727" stroke="red" stroke-width="2" fill="none" />
<path d="M4.0,1873.2727272727273 L4.0,1114.7272727272727" stroke="red" stroke-width="2" fill="none" />
<path d="M85.27272727272737,1954.5454545454545 L4.0,1873.2727272727273" stroke="red" stroke-width="2" fill="none" />
<path d="M85.27272727272737,2035.8181818181818 L85.27272727272737,1954.5454545454545" stroke="red" stroke-width="2" fill="none" />
<path d="M193.63636363636363,2035.8181818181818 L85.27272727272737,2035.8181818181818" stroke="red" stroke-width="2" fill="none" />
<path d="M274.909090909091,1954.5454545454545 L193.63636363636363,2035.8181818181818" stroke="red" stroke-width="2" fill="none" />
<path d="M545.8181818181819,1954.5454545454545 L274.909090909091,1954.5454545454545" stroke="red" stroke-width="2" fill="none" />
<path d="M572.909090909091,2035.8181818181818 L545.8181818181819,1954.5454545454545" stroke="red" stroke-width="2" fill="none" />
<path d="M654.1818181818182,1954.5454545454545 L627.0909090909091,2035.8181818181818" stroke="red" stroke-width="2" fill="none" />
<path d="M925.0909090909091,1954.5454545454545 L654.1818181818182,1954.5454545454545" stroke="red" stroke-width="2" fill="none" />
<path d="M1006.3636363636364,2035.8181818181818 L925.0909090909091,1954.5454545454545" stroke="red" stroke-width="2" fill="none" />
<path d="M1114.7272727272727,2035.8181818181818 L1006.3636363636364,2035.8181818181818" stroke="red" stroke-width="2" fill="none" />
<path d="M1114.7272727272727,1954.5454545454545 L1114.7272727272727,2035.8181818181818" stroke="red" stroke-width="2" fill="none" />
<path d="M1196.0,1873.2727272727273 L1114.7272727272727,1954.5454545454545" stroke="red" stroke-width="2" fill="none" />
<path d="M1196.0,1114.7272727272727 L1196.0,1873.2727272727273" stroke="red" stroke-width="2" fill="none" />
<path d="M1033.4545454545455,1114.7272727272727 L1196.0,1114.7272727272727" stroke="red" stroke-width="2" fill="none" />
<path d="M572.909090909091,2117.090909090909 L572.909090909091,2035.8181818181818" stroke="red" stroke-width="2" fill="none" />
<path d="M495.0227272727273,2191.590909090909 L572.909090909091,2117.090909090909" stroke="red" stroke-width="2" fill="none" />
<path d="M274.909090909091,2567.477272727273 L495.0227272727273,2191.590909090909" stroke="red" stroke-width="2" fill="none" />
<path d="M572.909090909091,2784.2045454545455 L274.909090909091,2567.477272727273" stroke="red" stroke-width="2" fill="none" />
<path d="M925.0909090909091,2567.477272727273 L627.0909090909091,2784.2045454545455" stroke="red" stroke-width="2" fill="none" />
<path d="M704.9772727272727,2191.590909090909 L925.0909090909091,2567.477272727273" stroke="red" stroke-width="2" fill="none" />
<path d="M627.0909090909091,2117.090909090909 L704.9772727272727,2191.590909090909" stroke="red" stroke-width="2" fill="none" />
<path d="M627.0909090909091,2035.8181818181818 L627.0909090909091,2117.090909090909" stroke="red" stroke-width="2" fill="none" />
<path d="M491.6363636363637,789.6363636363636 L491.6363636363637,782.8636363636364" stroke="red" stroke-width="2" fill="none" />
<path d="M518.7272727272727,782.8636363636364 L518.7272727272727,789.6363636363636" stroke="red" stroke-width="2" fill="none" />
<path d="M491.6363636363637,782.8636363636364 L471.31818181818187,782.8636363636364" stroke="red" stroke-width="2" fill="none" />
<path d="M471.31818181818187,782.8636363636364 L471.31818181818187,715.1363636363636" stroke="red" stroke-width="2" fill="none" />
<path d="M471.31818181818187,715.1363636363636 L539.0454545454545,715.1363636363636" stroke="red" stroke-width="2" fill="none" />
<path d="M539.0454545454545,715.1363636363636 L539.0454545454545,782.8636363636364" stroke="red" stroke-width="2" fill="none" />
<path d="M539.0454545454545,782.8636363636364 L518.7272727272727,782.8636363636364" stroke="red" stroke-width="2" fill="none" />
<path d="M681.2727272727273,789.6363636363636 L681.2727272727273,782.8636363636364" stroke="red" stroke-width="2" fill="none" />
<path d="M708.3636363636364,782.8636363636364 L708.3636363636364,789.6363636363636" stroke="red" stroke-width="2" fill="none" />
<path d="M681.2727272727273,782.8636363636364 L660.9545454545455,782.8636363636364" stroke="red" stroke-width="2" fill="none" />
<path d="M660.9545454545455,782.8636363636364 L660.9545454545455,715.1363636363636" stroke="red" stroke-width="2" fill="none" />
<path d="M660.9545454545455,715.1363636363636 L728.6818181818182,715.1363636363636" stroke="red" stroke-width="2" fill="none" />
<path d="M728.6818181818182,715.1363636363636 L728.6818181818182,782.8636363636364" stroke="red" stroke-width="2" fill="none" />
<path d="M728.6818181818182,782.8636363636364 L708.3636363636364,782.8636363636364" stroke="red" stroke-width="2" fill="none" />
<path d="M708.3636363636364,1033.4545454545455 L708.3636363636364,1040.2272727272727" stroke="red" stroke-width="2" fill="none" />
<path d="M708.3636363636364,1040.2272727272727 L728.6818181818182,1040.2272727272727" stroke="red" stroke-width="2" fill="none" />
<path d="M728.6818181818182,1040.2272727272727 L728.6818181818182,1107.9545454545455" stroke="red" stroke-width="2" fill="none" />
<path d="M728.6818181818182,1107.9545454545455 L660.9545454545455,1107.9545454545455" stroke="red" stroke-width="2" fill="none" />
<path d="M660.9545454545455,1107.9545454545455 L660.9545454545455,1040.2272727272727" stroke="red" stroke-width="2" fill="none" />
<path d="M660.9545454545455,1040.2272727272727 L681.2727272727273,1040.2272727272727" stroke="red" stroke-width="2" fill="none" />
<path d="M681.2727272727273,1040.2272727272727 L681.2727272727273,1033.4545454545455" stroke="red" stroke-width="2" fill="none" />
<path d="M518.7272727272727,1033.4545454545455 L518.7272727272727,1040.2272727272727" stroke="red" stroke-width="2" fill="none" />
<path d="M518.7272727272727,1040.2272727272727 L539.0454545454545,1040.2272727272727" stroke="red" stroke-width="2" fill="none" />
<path d="M539.0454545454545,1040.2272727272727 L539.0454545454545,1107.9545454545455" stroke="red" stroke-width="2" fill="none" />
<path d="M539.0454545454545,1107.9545454545455 L471.31818181818187,1107.9545454545455" stroke="red" stroke-width="2" fill="none" />
<path d="M471.31818181818187,1107.9545454545455 L471.31818181818187,1040.2272727272727" stroke="red" stroke-width="2" fill="none" />
<path d="M471.31818181818187,1040.2272727272727 L491.6363636363637,1040.2272727272727" stroke="red" stroke-width="2" fill="none" />
<path d="M491.6363636363637,1040.2272727272727 L491.6363636363637,1033.4545454545455" stroke="red" stroke-width="2" fill="none" />
<path d="M735.4545454545455,925.0909090909091 L735.4545454545455,898.0" stroke="red" stroke-width="2" fill="none" />
<path d="M464.54545454545456,898.0 L464.54545454545456,925.0909090909091" stroke="red" stroke-width="2" fill="none" />
<path d="M542.4318181818182,1053.7727272727273 L542.4318181818182,1040.2272727272727" stroke="lavender" stroke-width="2" fill="none" />
<path d="M545.8181818181819,1060.5454545454545 L545.8181818181819,1053.7727272727273" stroke="red" stroke-width="2" fill="none" />
<path d="M545.8181818181819,1053.7727272727273 L542.4318181818182,1053.7727272727273" stroke="red" stroke-width="2" fill="none" />
<path d="M542.4318181818182,1040.2272727272727 L545.8181818181819,1040.2272727272727" stroke="red" stroke-width="2" fill="none" />
<path d="M545.8181818181819,1040.2272727272727 L545.8181818181819,1033.4545454545455" stroke="red" stroke-width="2" fill="none" />
<path d="M593.2272727272727,156.38636363636374 L593.2272727272727,149.6136363636365" stroke="red" stroke-width="2" fill="none" />
<path d="M586.4545454545455,149.6136363636365 L586.4545454545455,176.7045454545455" stroke="red" stroke-width="2" fill="none" />
<path d="M613.5454545454545,176.7045454545455 L613.5454545454545,149.6136363636365" stroke="red" stroke-width="2" fill="none" />
<path d="M586.4545454545455,176.7045454545455 L613.5454545454545,176.7045454545455" stroke="red" stroke-width="2" fill="none" />
<path d="M606.7727272727273,156.38636363636374 L593.2272727272727,156.38636363636374" stroke="lavender" stroke-width="2" fill="none" />
<path d="M613.5454545454545,149.6136363636365 L606.7727272727273,149.6136363636365" stroke="red" stroke-width="2" fill="none" />
<path d="M606.7727272727273,149.6136363636365 L606.7727272727273,156.38636363636374" stroke="red" stroke-width="2" fill="none" />
<path d="M593.2272727272727,149.6136363636365 L586.4545454545455,149.6136363636365" stroke="red" stroke-width="2" fill="none" />
<path d="M627.0909090909091,2784.2045454545455 L613.5454545454545,2807.909090909091" stroke="red" stroke-width="2" fill="none" />
<path d="M586.4545454545455,2807.909090909091 L572.909090909091,2784.2045454545455" stroke="red" stroke-width="2" fill="none" />
<path d="M613.5454545454545,2807.909090909091 L613.5454545454545,2831.613636363636" stroke="red" stroke-width="2" fill="none" />
<path d="M613.5454545454545,2831.613636363636 L606.7727272727273,2831.613636363636" stroke="red" stroke-width="2" fill="none" />
<path d="M606.7727272727273,2831.613636363636 L606.7727272727273,2838.3863636363635" stroke="red" stroke-width="2" fill="none" />
<path d="M606.7727272727273,2838.3863636363635 L593.2272727272727,2838.3863636363635" stroke="lavender" stroke-width="2" fill="none" />
<path d="M593.2272727272727,2838.3863636363635 L593.2272727272727,2831.613636363636" stroke="red" stroke-width="2" fill="none" />
<path d="M593.2272727272727,2831.613636363636 L586.4545454545455,2831.613636363636" stroke="red" stroke-width="2" fill="none" />
<path d="M586.4545454545455,2831.613636363636 L586.4545454545455,2807.909090909091" stroke="red" stroke-width="2" fill="none" />
</svg>