<?xml version="1.0" encoding="UTF-8"?>
<svg xmlns="http://www.w3.org/2000/svg" xmlns:xlink="http://www.w3.org/1999/xlink"
     width="1200" height="1006" viewBox="0 0 1200 1006">
<defs>
</defs>
<path d="M841.4177215189874,89.50210970464127 L879.1392405063291,49.2658227848101" stroke="yellow" stroke-width="2" fill="none" />
<path d="M783.57805907173,127.2236286919831 L841.4177215189874,89.50210970464127" stroke="yellow" stroke-width="2" fill="none" />
<path d="M713.1645569620254,149.85654008438814 L783.57805907173,127.2236286919831" stroke="yellow" stroke-width="2" fill="none" />
<path d="M645.2658227848101,149.85654008438814 L713.1645569620254,149.85654008438814" stroke="yellow" stroke-width="2" fill="none" />
<path d="M582.3966244725739,124.70886075949363 L645.2658227848101,149.85654008438814" stroke="yellow" stroke-width="2" fill="none" />
<path d="M605.0295358649789,250.4472573839662 L655.324894514768,230.3291139240506" stroke="yellow" stroke-width="2" fill="none" />
<path d="M655.324894514768,230.3291139240506 L723.2236286919831,230.3291139240506" stroke="yellow" stroke-width="2" fill="none" />
<path d="M723.2236286919831,230.3291139240506 L776.0337552742616,250.4472573839662" stroke="yellow" stroke-width="2" fill="none" />
<path d="M776.0337552742616,250.4472573839662 L851.4767932489451,265.53586497890285" stroke="yellow" stroke-width="2" fill="none" />
<path d="M851.4767932489451,265.53586497890285 L899.2573839662448,242.9029535864978" stroke="yellow" stroke-width="2" fill="none" />
<path d="M899.2573839662448,242.9029535864978 L926.9198312236286,197.6371308016877" stroke="yellow" stroke-width="2" fill="none" />
<path d="M605.0295358649789,305.77215189873414 L662.8691983122363,335.9493670886076" stroke="yellow" stroke-width="2" fill="none" />
<path d="M662.8691983122363,335.9493670886076 L771.0042194092827,338.46413502109704" stroke="yellow" stroke-width="2" fill="none" />
<path d="M771.0042194092827,338.46413502109704 L831.3586497890295,315.831223628692" stroke="yellow" stroke-width="2" fill="none" />
<path d="M831.3586497890295,315.831223628692 L921.8902953586498,305.77215189873414" stroke="yellow" stroke-width="2" fill="none" />
<path d="M921.8902953586498,305.77215189873414 L939.493670886076,273.08016877637124" stroke="yellow" stroke-width="2" fill="none" />
<path d="M939.493670886076,273.08016877637124 L974.7004219409282,242.9029535864978" stroke="yellow" stroke-width="2" fill="none" />
<path d="M969.6708860759494,408.87763713080165 L909.3164556962025,408.87763713080165" stroke="lavender" stroke-width="2" fill="none" />
<path d="M909.3164556962025,418.9367088607595 L969.6708860759494,418.9367088607595" stroke="lavender" stroke-width="2" fill="none" />
<path d="M798.6666666666666,413.90717299578057 L788.6075949367089,423.9662447257383" stroke="yellow" stroke-width="2" fill="none" />
<path d="M831.3586497890295,423.9662447257383 L821.2995780590717,413.90717299578057" stroke="yellow" stroke-width="2" fill="none" />
<path d="M592.4556962025317,549.704641350211 L584.9113924050633,537.1308016877637" stroke="yellow" stroke-width="2" fill="none" />
<path d="M602.5147679324895,562.2784810126582 L592.4556962025317,549.704641350211" stroke="yellow" stroke-width="2" fill="none" />
<path d="M637.7215189873418,564.7932489451476 L620.1181434599156,567.3080168776371" stroke="yellow" stroke-width="2" fill="none" />
<path d="M647.7805907172996,554.7341772151899 L637.7215189873418,564.7932489451476" stroke="yellow" stroke-width="2" fill="none" />
<path d="M821.2995780590717,413.90717299578057 L798.6666666666666,413.90717299578057" stroke="yellow" stroke-width="2" fill="none" />
<path d="M615.0886075949368,620.1181434599155 L615.0886075949368,610.0590717299577" stroke="yellow" stroke-width="2" fill="none" />
<path d="M615.0886075949368,610.0590717299577 L605.0295358649789,602.5147679324893" stroke="yellow" stroke-width="2" fill="none" />
<path d="M605.0295358649789,602.5147679324893 L594.9704641350211,610.0590717299577" stroke="yellow" stroke-width="2" fill="none" />
<path d="M594.9704641350211,610.0590717299577 L594.9704641350211,620.1181434599155" stroke="yellow" stroke-width="2" fill="none" />
<path d="M620.1181434599156,567.3080168776371 L602.5147679324895,562.2784810126582" stroke="yellow" stroke-width="2" fill="none" />
<path d="M610.0590717299579,431.5105485232067 L670.4135021097046,469.2320675105485" stroke="yellow" stroke-width="2" fill="none" />
<path d="M589.9409282700421,446.59915611814336 L650.295358649789,491.86497890295357" stroke="lavender" stroke-width="2" fill="none" />
<path d="M567.3080168776371,454.14345991561174 L620.1181434599156,511.98312236286915" stroke="yellow" stroke-width="2" fill="none" />
<path d="M547.1898734177215,464.2025316455696 L577.367088607595,524.5569620253164" stroke="yellow" stroke-width="2" fill="none" />
<path d="M517.0126582278481,464.2025316455696 L537.1308016877638,529.5864978902953" stroke="yellow" stroke-width="2" fill="none" />
<path d="M517.0126582278481,340.9789029535865 L517.0126582278481,381.21518987341767" stroke="lavender" stroke-width="2" fill="none" />
<path d="M247.93248945147684,803.6962025316454 L278.1097046413503,904.2869198312236" stroke="yellow" stroke-width="2" fill="none" />
<path d="M247.93248945147684,690.5316455696202 L247.93248945147684,803.6962025316454" stroke="yellow" stroke-width="2" fill="none" />
<path d="M230.3291139240506,594.9704641350211 L247.93248945147684,690.5316455696202" stroke="yellow" stroke-width="2" fill="none" />
<path d="M157.40084388185653,522.042194092827 L230.3291139240506,594.9704641350211" stroke="yellow" stroke-width="2" fill="none" />
<path d="M81.957805907173,471.74683544303787 L157.40084388185653,522.042194092827" stroke="yellow" stroke-width="2" fill="none" />
<path d="M36.6919831223629,715.6793248945147 L29.14767932489451,743.3417721518987" stroke="yellow" stroke-width="2" fill="none" />
<path d="M61.83966244725741,708.1350210970463 L36.6919831223629,715.6793248945147" stroke="yellow" stroke-width="2" fill="none" />
<path d="M81.957805907173,718.1940928270042 L61.83966244725741,708.1350210970463" stroke="yellow" stroke-width="2" fill="none" />
<path d="M86.98734177215192,735.7974683544303 L81.957805907173,718.1940928270042" stroke="yellow" stroke-width="2" fill="none" />
<path d="M81.957805907173,753.4008438818564 L86.98734177215192,735.7974683544303" stroke="yellow" stroke-width="2" fill="none" />
<path d="M59.32489451476795,763.4599156118143 L81.957805907173,753.4008438818564" stroke="yellow" stroke-width="2" fill="none" />
<path d="M29.14767932489451,763.4599156118143 L59.32489451476795,763.4599156118143" stroke="yellow" stroke-width="2" fill="none" />
<path d="M19.088607594936775,456.6582278481012 L81.957805907173,471.74683544303787" stroke="yellow" stroke-width="2" fill="none" />
<path d="M29.14767932489451,763.4599156118143 L29.14767932489451,743.3417721518987" stroke="lavender" stroke-width="2" fill="none" />
<path d="M524.5569620253165,381.21518987341767 L524.5569620253165,340.9789029535865" stroke="yellow" stroke-width="2" fill="none" />
<path d="M517.0126582278481,340.9789029535865 L509.46835443037975,340.9789029535865" stroke="yellow" stroke-width="2" fill="none" />
<path d="M509.46835443037975,340.9789029535865 L509.46835443037975,381.21518987341767" stroke="yellow" stroke-width="2" fill="none" />
<path d="M509.46835443037975,381.21518987341767 L517.0126582278481,381.21518987341767" stroke="yellow" stroke-width="2" fill="none" />
<path d="M567.3080168776371,682.9873417721519 L567.3080168776371,652.8101265822784" stroke="yellow" stroke-width="2" fill="none" />
<path d="M615.0886075949368,738.3122362869198 L647.7805907172996,743.3417721518987" stroke="yellow" stroke-width="2" fill="none" />
<path d="M647.7805907172996,743.3417721518987 L675.4430379746835,733.282700421941" stroke="yellow" stroke-width="2" fill="none" />
<path d="M713.1645569620254,710.6497890295358 L723.2236286919831,703.1054852320674" stroke="yellow" stroke-width="2" fill="none" />
<path d="M723.2236286919831,703.1054852320674 L750.8860759493671,670.4135021097046" stroke="yellow" stroke-width="2" fill="none" />
<path d="M891.7130801687764,441.56962025316454 L919.3755274261604,454.14345991561174" stroke="yellow" stroke-width="2" fill="none" />
<path d="M919.3755274261604,454.14345991561174 L949.5527426160338,476.7763713080168" stroke="yellow" stroke-width="2" fill="none" />
<path d="M949.5527426160338,476.7763713080168 L964.6413502109705,499.40928270042184" stroke="yellow" stroke-width="2" fill="none" />
<path d="M964.6413502109705,499.40928270042184 L974.7004219409282,524.5569620253164" stroke="yellow" stroke-width="2" fill="none" />
<path d="M796.1518987341772,489.3502109704641 L818.7848101265823,501.9240506329113" stroke="yellow" stroke-width="2" fill="none" />
<path d="M818.7848101265823,501.9240506329113 L836.3881856540085,519.5274261603374" stroke="yellow" stroke-width="2" fill="none" />
<path d="M836.3881856540085,519.5274261603374 L838.9029535864979,539.6455696202531" stroke="yellow" stroke-width="2" fill="none" />
<path d="M838.9029535864979,539.6455696202531 L838.9029535864979,562.2784810126582" stroke="yellow" stroke-width="2" fill="none" />
<path d="M695.5611814345991,542.1603375527426 L715.6793248945148,552.2194092827003" stroke="yellow" stroke-width="2" fill="none" />
<path d="M715.6793248945148,552.2194092827003 L735.7974683544304,567.3080168776371" stroke="yellow" stroke-width="2" fill="none" />
<path d="M735.7974683544304,567.3080168776371 L748.3713080168776,584.9113924050632" stroke="yellow" stroke-width="2" fill="none" />
<path d="M748.3713080168776,584.9113924050632 L755.915611814346,610.0590717299577" stroke="yellow" stroke-width="2" fill="none" />
<path d="M677.957805907173,612.5738396624472 L700.590717299578,615.0886075949367" stroke="yellow" stroke-width="2" fill="none" />
<path d="M700.590717299578,615.0886075949367 L728.253164556962,627.662447257384" stroke="yellow" stroke-width="2" fill="none" />
<path d="M728.253164556962,627.662447257384 L738.3122362869199,640.2362869198312" stroke="yellow" stroke-width="2" fill="none" />
<path d="M1115.5274261603377,753.4008438818564 L1115.5274261603377,793.6371308016877" stroke="lavender" stroke-width="2" fill="none" />
<path d="M740.8270042194093,728.253164556962 L713.1645569620254,710.6497890295358" stroke="yellow" stroke-width="2" fill="none" />
<path d="M823.8143459915611,718.1940928270042 L740.8270042194093,728.253164556962" stroke="yellow" stroke-width="2" fill="none" />
<path d="M675.4430379746835,733.282700421941 L723.2236286919831,753.4008438818564" stroke="yellow" stroke-width="2" fill="none" />
<path d="M723.2236286919831,753.4008438818564 L745.8565400843881,816.2700421940928" stroke="yellow" stroke-width="2" fill="none" />
<path d="M745.8565400843881,816.2700421940928 L793.6371308016878,816.2700421940928" stroke="yellow" stroke-width="2" fill="none" />
<path d="M793.6371308016878,816.2700421940928 L818.7848101265823,864.0506329113923" stroke="yellow" stroke-width="2" fill="none" />
<path d="M818.7848101265823,864.0506329113923 L896.7426160337553,833.873417721519" stroke="yellow" stroke-width="2" fill="none" />
<path d="M881.6540084388186,806.210970464135 L833.873417721519,823.8143459915611" stroke="yellow" stroke-width="2" fill="none" />
<path d="M833.873417721519,823.8143459915611 L816.2700421940929,791.1223628691982" stroke="yellow" stroke-width="2" fill="none" />
<path d="M816.2700421940929,791.1223628691982 L763.4599156118144,791.1223628691982" stroke="yellow" stroke-width="2" fill="none" />
<path d="M763.4599156118144,791.1223628691982 L758.4303797468355,753.4008438818564" stroke="yellow" stroke-width="2" fill="none" />
<path d="M758.4303797468355,753.4008438818564 L813.7552742616034,748.3713080168775" stroke="yellow" stroke-width="2" fill="none" />
<path d="M813.7552742616034,748.3713080168775 L823.8143459915611,768.4894514767932" stroke="yellow" stroke-width="2" fill="none" />
<path d="M823.8143459915611,768.4894514767932 L869.0801687763714,763.4599156118143" stroke="yellow" stroke-width="2" fill="none" />
<path d="M869.0801687763714,763.4599156118143 L881.6540084388186,806.210970464135" stroke="yellow" stroke-width="2" fill="none" />
<path d="M675.4430379746835,733.282700421941 L713.1645569620254,710.6497890295358" stroke="yellow" stroke-width="2" fill="none" />
<path d="M911.831223628692,798.6666666666666 L896.7426160337553,735.7974683544303" stroke="yellow" stroke-width="2" fill="none" />
<path d="M896.7426160337553,735.7974683544303 L843.9324894514768,745.8565400843881" stroke="yellow" stroke-width="2" fill="none" />
<path d="M843.9324894514768,745.8565400843881 L823.8143459915611,718.1940928270042" stroke="yellow" stroke-width="2" fill="none" />
<path d="M896.7426160337553,833.873417721519 L972.1856540084389,899.2573839662447" stroke="yellow" stroke-width="2" fill="none" />
<path d="M972.1856540084389,899.2573839662447 L1042.5991561181436,808.7257383966244" stroke="yellow" stroke-width="2" fill="none" />
<path d="M1042.5991561181436,808.7257383966244 L1070.2616033755273,879.1392405063291" stroke="yellow" stroke-width="2" fill="none" />
<path d="M1087.8649789029537,642.7510548523206 L1040.084388185654,748.3713080168775" stroke="yellow" stroke-width="2" fill="none" />
<path d="M1040.084388185654,748.3713080168775 L992.3037974683544,703.1054852320674" stroke="yellow" stroke-width="2" fill="none" />
<path d="M992.3037974683544,703.1054852320674 L911.831223628692,798.6666666666666" stroke="yellow" stroke-width="2" fill="none" />
<path d="M617.6033755274261,773.5189873417721 L647.7805907172996,743.3417721518987" stroke="yellow" stroke-width="2" fill="none" />
<path d="M597.4852320675105,811.2405063291138 L617.6033755274261,773.5189873417721" stroke="yellow" stroke-width="2" fill="none" />
<path d="M602.5147679324895,848.9620253164557 L597.4852320675105,811.2405063291138" stroke="yellow" stroke-width="2" fill="none" />
<path d="M630.1772151898734,886.6835443037974 L602.5147679324895,848.9620253164557" stroke="yellow" stroke-width="2" fill="none" />
<path d="M607.5443037974684,904.2869198312236 L630.1772151898734,886.6835443037974" stroke="yellow" stroke-width="2" fill="none" />
<path d="M577.367088607595,859.0210970464134 L602.5147679324895,848.9620253164557" stroke="yellow" stroke-width="2" fill="none" />
<path d="M569.8227848101267,811.2405063291138 L597.4852320675105,811.2405063291138" stroke="yellow" stroke-width="2" fill="none" />
<path d="M589.9409282700421,765.9746835443037 L617.6033755274261,773.5189873417721" stroke="yellow" stroke-width="2" fill="none" />
<path d="M723.2236286919831,703.1054852320674 L748.3713080168776,718.1940928270042" stroke="yellow" stroke-width="2" fill="none" />
<path d="M748.3713080168776,718.1940928270042 L776.0337552742616,682.9873417721519" stroke="yellow" stroke-width="2" fill="none" />
<path d="M776.0337552742616,682.9873417721519 L750.8860759493671,670.4135021097046" stroke="yellow" stroke-width="2" fill="none" />
<path d="M776.0337552742616,682.9873417721519 L788.6075949367089,655.324894514768" stroke="yellow" stroke-width="2" fill="none" />
<path d="M788.6075949367089,655.324894514768 L758.4303797468355,642.7510548523206" stroke="yellow" stroke-width="2" fill="none" />
<path d="M788.6075949367089,655.324894514768 L798.6666666666666,640.2362869198312" stroke="yellow" stroke-width="2" fill="none" />
<path d="M798.6666666666666,640.2362869198312 L776.0337552742616,620.1181434599155" stroke="yellow" stroke-width="2" fill="none" />
<path d="M798.6666666666666,640.2362869198312 L813.7552742616034,627.662447257384" stroke="yellow" stroke-width="2" fill="none" />
<path d="M813.7552742616034,627.662447257384 L796.1518987341772,602.5147679324893" stroke="yellow" stroke-width="2" fill="none" />
<path d="M786.0928270042194,987.2742616033754 L776.0337552742616,1002.3628691983122" stroke="yellow" stroke-width="2" fill="none" />
<path d="M806.210970464135,977.2151898734177 L786.0928270042194,987.2742616033754" stroke="yellow" stroke-width="2" fill="none" />
<path d="M836.3881856540085,974.7004219409282 L806.210970464135,977.2151898734177" stroke="yellow" stroke-width="2" fill="none" />
<path d="M856.506329113924,984.7594936708861 L836.3881856540085,974.7004219409282" stroke="yellow" stroke-width="2" fill="none" />
<path d="M866.5654008438819,1002.3628691983122 L856.506329113924,984.7594936708861" stroke="yellow" stroke-width="2" fill="none" />
<path d="M926.9198312236286,559.7637130801687 L931.9493670886076,574.8523206751054" stroke="yellow" stroke-width="2" fill="none" />
<path d="M931.9493670886076,574.8523206751054 L952.0675105485232,582.3966244725738" stroke="yellow" stroke-width="2" fill="none" />
<path d="M952.0675105485232,582.3966244725738 L977.2151898734178,584.9113924050632" stroke="yellow" stroke-width="2" fill="none" />
<path d="M977.2151898734178,584.9113924050632 L994.8185654008439,577.367088607595" stroke="yellow" stroke-width="2" fill="none" />
<path d="M994.8185654008439,577.367088607595 L1002.3628691983122,562.2784810126582" stroke="yellow" stroke-width="2" fill="none" />
<path d="M911.831223628692,798.6666666666666 L896.7426160337553,833.873417721519" stroke="lavender" stroke-width="2" fill="none" />
<path d="M532.1012658227849,723.2236286919831 L511.9831223628692,758.4303797468353" stroke="yellow" stroke-width="2" fill="none" />
<path d="M522.042194092827,758.4303797468353 L542.1603375527427,723.2236286919831" stroke="yellow" stroke-width="2" fill="none" />
<path d="M1125.5864978902953,793.6371308016877 L1125.5864978902953,753.4008438818564" stroke="lavender" stroke-width="2" fill="none" />
<path d="M1115.5274261603377,753.4008438818564 L1095.409282700422,753.4008438818564" stroke="yellow" stroke-width="2" fill="none" />
<path d="M1095.409282700422,753.4008438818564 L1085.350210970464,765.9746835443037" stroke="yellow" stroke-width="2" fill="none" />
<path d="M1085.350210970464,765.9746835443037 L1085.350210970464,781.0632911392404" stroke="yellow" stroke-width="2" fill="none" />
<path d="M1085.350210970464,781.0632911392404 L1095.409282700422,793.6371308016877" stroke="yellow" stroke-width="2" fill="none" />
<path d="M1095.409282700422,793.6371308016877 L1115.5274261603377,793.6371308016877" stroke="yellow" stroke-width="2" fill="none" />
<path d="M1196.0,763.4599156118143 L1175.8818565400843,763.4599156118143" stroke="lavender" stroke-width="2" fill="none" />
<path d="M1175.8818565400843,763.4599156118143 L1175.8818565400843,783.57805907173" stroke="lavender" stroke-width="2" fill="none" />
<path d="M1175.8818565400843,783.57805907173 L1196.0,783.57805907173" stroke="lavender" stroke-width="2" fill="none" />
<path d="M969.6708860759494,408.87763713080165 L969.6708860759494,398.8185654008438" stroke="yellow" stroke-width="2" fill="none" />
<path d="M969.6708860759494,398.8185654008438 L954.5822784810126,386.2447257383966" stroke="yellow" stroke-width="2" fill="none" />
<path d="M954.5822784810126,386.2447257383966 L924.4050632911392,386.2447257383966" stroke="yellow" stroke-width="2" fill="none" />
<path d="M924.4050632911392,386.2447257383966 L909.3164556962025,398.8185654008438" stroke="yellow" stroke-width="2" fill="none" />
<path d="M909.3164556962025,398.8185654008438 L909.3164556962025,408.87763713080165" stroke="yellow" stroke-width="2" fill="none" />
<path d="M557.2489451476793,652.8101265822784 L557.2489451476793,682.9873417721519" stroke="yellow" stroke-width="2" fill="none" />
<path d="M823.8143459915611,768.4894514767932 L816.2700421940929,791.1223628691982" stroke="lavender" stroke-width="2" fill="none" />
<path d="M610.0590717299579,620.1181434599155 L600.0,620.1181434599155" stroke="yellow" stroke-width="2" fill="none" />
<path d="M632.6919831223629,418.9367088607595 L672.9282700421941,418.9367088607595" stroke="yellow" stroke-width="2" fill="none" />
<path d="M672.9282700421941,408.87763713080165 L632.6919831223629,408.87763713080165" stroke="yellow" stroke-width="2" fill="none" />
<path d="M672.9282700421941,408.87763713080165 L672.9282700421941,401.33333333333326" stroke="yellow" stroke-width="2" fill="none" />
<path d="M672.9282700421941,401.33333333333326 L665.3839662447258,391.2742616033755" stroke="yellow" stroke-width="2" fill="none" />
<path d="M665.3839662447258,391.2742616033755 L640.2362869198312,391.2742616033755" stroke="yellow" stroke-width="2" fill="none" />
<path d="M640.2362869198312,391.2742616033755 L632.6919831223629,401.33333333333326" stroke="yellow" stroke-width="2" fill="none" />
<path d="M632.6919831223629,401.33333333333326 L632.6919831223629,408.87763713080165" stroke="yellow" stroke-width="2" fill="none" />
<path d="M1035.054852320675,582.3966244725738 L1055.1729957805908,597.4852320675104" stroke="lavender" stroke-width="2" fill="none" />
<path d="M1060.2025316455697,592.4556962025316 L1040.084388185654,577.367088607595" stroke="lavender" stroke-width="2" fill="none" />
<path d="M582.3966244725739,124.70886075949363 L617.6033755274261,56.810126582278485" stroke="red" stroke-width="2" fill="none" />
<path d="M617.6033755274261,56.810126582278485 L685.5021097046414,19.08860759493666" stroke="red" stroke-width="2" fill="none" />
<path d="M685.5021097046414,19.08860759493666 L763.4599156118144,4.0" stroke="red" stroke-width="2" fill="none" />
<path d="M763.4599156118144,4.0 L828.8438818565401,16.5738396624472" stroke="red" stroke-width="2" fill="none" />
<path d="M828.8438818565401,16.5738396624472 L879.1392405063291,49.2658227848101" stroke="red" stroke-width="2" fill="none" />
<path d="M605.0295358649789,250.4472573839662 L569.8227848101267,210.21097046413502" stroke="red" stroke-width="2" fill="none" />
<path d="M569.8227848101267,210.21097046413502 L564.7932489451478,167.45991561181427" stroke="red" stroke-width="2" fill="none" />
<path d="M564.7932489451478,167.45991561181427 L582.3966244725739,124.70886075949363" stroke="red" stroke-width="2" fill="none" />
<path d="M879.1392405063291,49.2658227848101 L916.8607594936709,92.01687763713073" stroke="red" stroke-width="2" fill="none" />
<path d="M916.8607594936709,92.01687763713073 L931.9493670886076,149.85654008438814" stroke="red" stroke-width="2" fill="none" />
<path d="M605.0295358649789,305.77215189873414 L605.0295358649789,250.4472573839662" stroke="red" stroke-width="2" fill="none" />
<path d="M926.9198312236286,197.6371308016877 L974.7004219409282,242.9029535864978" stroke="red" stroke-width="2" fill="none" />
<path d="M589.9409282700421,346.0084388185653 L605.0295358649789,305.77215189873414" stroke="red" stroke-width="2" fill="none" />
<path d="M600.0,396.30379746835433 L589.9409282700421,346.0084388185653" stroke="red" stroke-width="2" fill="none" />
<path d="M620.1181434599156,408.87763713080165 L600.0,396.30379746835433" stroke="red" stroke-width="2" fill="none" />
<path d="M974.7004219409282,242.9029535864978 L999.8481012658228,298.22784810126575" stroke="red" stroke-width="2" fill="none" />
<path d="M999.8481012658228,298.22784810126575 L994.8185654008439,408.87763713080165" stroke="red" stroke-width="2" fill="none" />
<path d="M994.8185654008439,408.87763713080165 L969.6708860759494,408.87763713080165" stroke="red" stroke-width="2" fill="none" />
<path d="M788.6075949367089,423.9662447257383 L745.8565400843881,431.5105485232067" stroke="red" stroke-width="2" fill="none" />
<path d="M788.6075949367089,439.0548523206751 L788.6075949367089,423.9662447257383" stroke="red" stroke-width="2" fill="none" />
<path d="M750.8860759493671,446.59915611814336 L788.6075949367089,439.0548523206751" stroke="red" stroke-width="2" fill="none" />
<path d="M693.0464135021098,446.59915611814336 L750.8860759493671,446.59915611814336" stroke="red" stroke-width="2" fill="none" />
<path d="M693.0464135021098,469.2320675105485 L693.0464135021098,446.59915611814336" stroke="red" stroke-width="2" fill="none" />
<path d="M680.4725738396625,494.37974683544303 L693.0464135021098,469.2320675105485" stroke="red" stroke-width="2" fill="none" />
<path d="M758.4303797468355,479.29113924050625 L725.7383966244726,491.86497890295357" stroke="red" stroke-width="2" fill="none" />
<path d="M778.548523206751,479.29113924050625 L758.4303797468355,479.29113924050625" stroke="red" stroke-width="2" fill="none" />
<path d="M806.210970464135,474.26160337552733 L778.548523206751,479.29113924050625" stroke="red" stroke-width="2" fill="none" />
<path d="M831.3586497890295,459.17299578059067 L806.210970464135,474.26160337552733" stroke="red" stroke-width="2" fill="none" />
<path d="M831.3586497890295,423.9662447257383 L831.3586497890295,459.17299578059067" stroke="red" stroke-width="2" fill="none" />
<path d="M851.4767932489451,423.9662447257383 L831.3586497890295,423.9662447257383" stroke="red" stroke-width="2" fill="none" />
<path d="M866.5654008438819,408.87763713080165 L851.4767932489451,423.9662447257383" stroke="red" stroke-width="2" fill="none" />
<path d="M909.3164556962025,408.87763713080165 L866.5654008438819,408.87763713080165" stroke="red" stroke-width="2" fill="none" />
<path d="M909.3164556962025,418.9367088607595 L909.3164556962025,408.87763713080165" stroke="red" stroke-width="2" fill="none" />
<path d="M969.6708860759494,408.87763713080165 L969.6708860759494,418.9367088607595" stroke="red" stroke-width="2" fill="none" />
<path d="M675.4430379746835,441.56962025316454 L670.4135021097046,469.2320675105485" stroke="red" stroke-width="2" fill="none" />
<path d="M670.4135021097046,469.2320675105485 L650.295358649789,491.86497890295357" stroke="red" stroke-width="2" fill="none" />
<path d="M650.295358649789,491.86497890295357 L620.1181434599156,511.98312236286915" stroke="red" stroke-width="2" fill="none" />
<path d="M620.1181434599156,511.98312236286915 L577.367088607595,524.5569620253164" stroke="red" stroke-width="2" fill="none" />
<path d="M577.367088607595,524.5569620253164 L537.1308016877638,529.5864978902953" stroke="red" stroke-width="2" fill="none" />
<path d="M517.0126582278481,464.2025316455696 L547.1898734177215,464.2025316455696" stroke="red" stroke-width="2" fill="none" />
<path d="M547.1898734177215,464.2025316455696 L567.3080168776371,454.14345991561174" stroke="red" stroke-width="2" fill="none" />
<path d="M567.3080168776371,454.14345991561174 L589.9409282700421,446.59915611814336" stroke="red" stroke-width="2" fill="none" />
<path d="M589.9409282700421,446.59915611814336 L610.0590717299579,431.5105485232067" stroke="red" stroke-width="2" fill="none" />
<path d="M610.0590717299579,431.5105485232067 L620.1181434599156,418.9367088607595" stroke="red" stroke-width="2" fill="none" />
<path d="M969.6708860759494,418.9367088607595 L989.789029535865,421.45147679324884" stroke="red" stroke-width="2" fill="none" />
<path d="M677.957805907173,612.5738396624472 L688.0168776371308,579.8818565400843" stroke="red" stroke-width="2" fill="none" />
<path d="M688.0168776371308,579.8818565400843 L670.4135021097046,554.7341772151899" stroke="red" stroke-width="2" fill="none" />
<path d="M670.4135021097046,554.7341772151899 L695.5611814345991,542.1603375527426" stroke="red" stroke-width="2" fill="none" />
<path d="M695.5611814345991,542.1603375527426 L723.2236286919831,509.4683544303797" stroke="red" stroke-width="2" fill="none" />
<path d="M723.2236286919831,509.4683544303797 L750.8860759493671,496.8945147679325" stroke="red" stroke-width="2" fill="none" />
<path d="M750.8860759493671,496.8945147679325 L796.1518987341772,489.3502109704641" stroke="red" stroke-width="2" fill="none" />
<path d="M796.1518987341772,489.3502109704641 L836.3881856540085,469.2320675105485" stroke="red" stroke-width="2" fill="none" />
<path d="M836.3881856540085,469.2320675105485 L848.9620253164557,441.56962025316454" stroke="red" stroke-width="2" fill="none" />
<path d="M848.9620253164557,441.56962025316454 L871.5949367088608,444.084388185654" stroke="red" stroke-width="2" fill="none" />
<path d="M871.5949367088608,444.084388185654 L891.7130801687764,441.56962025316454" stroke="red" stroke-width="2" fill="none" />
<path d="M891.7130801687764,441.56962025316454 L894.2278481012659,426.48101265822777" stroke="red" stroke-width="2" fill="none" />
<path d="M894.2278481012659,426.48101265822777 L909.3164556962025,418.9367088607595" stroke="red" stroke-width="2" fill="none" />
<path d="M931.9493670886076,149.85654008438814 L926.9198312236286,197.6371308016877" stroke="red" stroke-width="2" fill="none" />
<path d="M725.7383966244726,491.86497890295357 L688.0168776371308,532.1012658227847" stroke="red" stroke-width="2" fill="none" />
<path d="M688.0168776371308,532.1012658227847 L647.7805907172996,544.675105485232" stroke="red" stroke-width="2" fill="none" />
<path d="M647.7805907172996,544.675105485232 L647.7805907172996,554.7341772151899" stroke="red" stroke-width="2" fill="none" />
<path d="M647.7805907172996,554.7341772151899 L660.3544303797469,562.2784810126582" stroke="red" stroke-width="2" fill="none" />
<path d="M660.3544303797469,562.2784810126582 L667.8987341772151,574.8523206751054" stroke="red" stroke-width="2" fill="none" />
<path d="M667.8987341772151,574.8523206751054 L670.4135021097046,592.4556962025316" stroke="red" stroke-width="2" fill="none" />
<path d="M670.4135021097046,592.4556962025316 L662.8691983122363,605.0295358649789" stroke="red" stroke-width="2" fill="none" />
<path d="M662.8691983122363,605.0295358649789 L650.295358649789,615.0886075949367" stroke="red" stroke-width="2" fill="none" />
<path d="M650.295358649789,615.0886075949367 L635.2067510548524,620.1181434599155" stroke="red" stroke-width="2" fill="none" />
<path d="M635.2067510548524,620.1181434599155 L615.0886075949368,620.1181434599155" stroke="red" stroke-width="2" fill="none" />
<path d="M594.9704641350211,620.1181434599155 L582.3966244725739,617.6033755274261" stroke="red" stroke-width="2" fill="none" />
<path d="M582.3966244725739,617.6033755274261 L569.8227848101267,605.0295358649789" stroke="red" stroke-width="2" fill="none" />
<path d="M569.8227848101267,605.0295358649789 L559.7637130801688,567.3080168776371" stroke="red" stroke-width="2" fill="none" />
<path d="M559.7637130801688,567.3080168776371 L567.3080168776371,544.675105485232" stroke="red" stroke-width="2" fill="none" />
<path d="M567.3080168776371,544.675105485232 L584.9113924050633,537.1308016877637" stroke="red" stroke-width="2" fill="none" />
<path d="M584.9113924050633,537.1308016877637 L680.4725738396625,494.37974683544303" stroke="red" stroke-width="2" fill="none" />
<path d="M537.1308016877638,529.5864978902953 L562.2784810126582,602.5147679324893" stroke="red" stroke-width="2" fill="none" />
<path d="M562.2784810126582,602.5147679324893 L557.2489451476793,652.8101265822784" stroke="red" stroke-width="2" fill="none" />
<path d="M557.2489451476793,682.9873417721519 L532.1012658227849,723.2236286919831" stroke="red" stroke-width="2" fill="none" />
<path d="M511.9831223628692,758.4303797468353 L454.1434599156118,838.9029535864978" stroke="red" stroke-width="2" fill="none" />
<path d="M454.1434599156118,838.9029535864978 L358.5822784810127,889.1983122362868" stroke="red" stroke-width="2" fill="none" />
<path d="M358.5822784810127,889.1983122362868 L278.1097046413503,904.2869198312236" stroke="red" stroke-width="2" fill="none" />
<path d="M19.088607594936775,456.6582278481012 L41.721518987341824,371.1561181434598" stroke="red" stroke-width="2" fill="none" />
<path d="M41.721518987341824,371.1561181434598 L104.59071729957805,285.65400843881855" stroke="red" stroke-width="2" fill="none" />
<path d="M104.59071729957805,285.65400843881855 L210.21097046413502,217.7552742616033" stroke="red" stroke-width="2" fill="none" />
<path d="M210.21097046413502,217.7552742616033 L348.5232067510549,210.21097046413502" stroke="red" stroke-width="2" fill="none" />
<path d="M348.5232067510549,210.21097046413502 L449.11392405063293,240.38818565400834" stroke="red" stroke-width="2" fill="none" />
<path d="M449.11392405063293,240.38818565400834 L517.0126582278481,340.9789029535865" stroke="red" stroke-width="2" fill="none" />
<path d="M517.0126582278481,381.21518987341767 L517.0126582278481,464.2025316455696" stroke="red" stroke-width="2" fill="none" />
<path d="M278.1097046413503,904.2869198312236 L200.15189873417728,904.2869198312236" stroke="red" stroke-width="2" fill="none" />
<path d="M200.15189873417728,904.2869198312236 L127.2236286919831,889.1983122362868" stroke="red" stroke-width="2" fill="none" />
<path d="M127.2236286919831,889.1983122362868 L84.47257383966246,861.5358649789029" stroke="red" stroke-width="2" fill="none" />
<path d="M84.47257383966246,861.5358649789029 L56.810126582278485,816.2700421940928" stroke="red" stroke-width="2" fill="none" />
<path d="M56.810126582278485,816.2700421940928 L29.14767932489451,763.4599156118143" stroke="red" stroke-width="2" fill="none" />
<path d="M29.14767932489451,763.4599156118143 L9.029535864978925,763.4599156118143" stroke="red" stroke-width="2" fill="none" />
<path d="M9.029535864978925,763.4599156118143 L9.029535864978925,743.3417721518987" stroke="red" stroke-width="2" fill="none" />
<path d="M9.029535864978925,743.3417721518987 L29.14767932489451,743.3417721518987" stroke="red" stroke-width="2" fill="none" />
<path d="M29.14767932489451,743.3417721518987 L4.0,635.2067510548522" stroke="red" stroke-width="2" fill="none" />
<path d="M4.0,635.2067510548522 L4.0,574.8523206751054" stroke="red" stroke-width="2" fill="none" />
<path d="M4.0,574.8523206751054 L9.029535864978925,519.5274261603374" stroke="red" stroke-width="2" fill="none" />
<path d="M9.029535864978925,519.5274261603374 L19.088607594936775,456.6582278481012" stroke="red" stroke-width="2" fill="none" />
<path d="M471.746835443038,444.084388185654 L449.11392405063293,464.2025316455696" stroke="red" stroke-width="2" fill="none" />
<path d="M449.11392405063293,464.2025316455696 L436.5400843881857,494.37974683544303" stroke="red" stroke-width="2" fill="none" />
<path d="M436.5400843881857,494.37974683544303 L436.5400843881857,519.5274261603374" stroke="red" stroke-width="2" fill="none" />
<path d="M436.5400843881857,519.5274261603374 L456.65822784810126,557.2489451476793" stroke="red" stroke-width="2" fill="none" />
<path d="M456.65822784810126,557.2489451476793 L486.8354430379747,582.3966244725738" stroke="red" stroke-width="2" fill="none" />
<path d="M486.8354430379747,582.3966244725738 L494.37974683544303,574.8523206751054" stroke="red" stroke-width="2" fill="none" />
<path d="M494.37974683544303,574.8523206751054 L469.2320675105485,552.2194092827003" stroke="red" stroke-width="2" fill="none" />
<path d="M469.2320675105485,552.2194092827003 L451.6286919831224,517.0126582278481" stroke="red" stroke-width="2" fill="none" />
<path d="M451.6286919831224,517.0126582278481 L451.6286919831224,496.8945147679325" stroke="red" stroke-width="2" fill="none" />
<path d="M451.6286919831224,496.8945147679325 L459.1729957805907,474.26160337552733" stroke="red" stroke-width="2" fill="none" />
<path d="M459.1729957805907,474.26160337552733 L476.7763713080169,456.6582278481012" stroke="red" stroke-width="2" fill="none" />
<path d="M476.7763713080169,456.6582278481012 L471.746835443038,444.084388185654" stroke="red" stroke-width="2" fill="none" />
<path d="M210.21097046413502,517.0126582278481 L210.21097046413502,481.8059071729957" stroke="red" stroke-width="2" fill="none" />
<path d="M210.21097046413502,481.8059071729957 L227.81434599156125,449.1139240506328" stroke="red" stroke-width="2" fill="none" />
<path d="M227.81434599156125,449.1139240506328 L263.0210970464135,421.45147679324884" stroke="red" stroke-width="2" fill="none" />
<path d="M263.0210970464135,421.45147679324884 L305.77215189873425,413.90717299578057" stroke="red" stroke-width="2" fill="none" />
<path d="M305.77215189873425,413.90717299578057 L338.46413502109704,396.30379746835433" stroke="red" stroke-width="2" fill="none" />
<path d="M338.46413502109704,396.30379746835433 L346.0084388185654,371.1561181434598" stroke="red" stroke-width="2" fill="none" />
<path d="M346.0084388185654,371.1561181434598 L343.49367088607596,338.46413502109704" stroke="red" stroke-width="2" fill="none" />
<path d="M343.49367088607596,338.46413502109704 L325.8902953586498,338.46413502109704" stroke="red" stroke-width="2" fill="none" />
<path d="M325.8902953586498,338.46413502109704 L328.40506329113924,361.0970464135021" stroke="red" stroke-width="2" fill="none" />
<path d="M328.40506329113924,361.0970464135021 L323.3755274261604,383.72995780590713" stroke="red" stroke-width="2" fill="none" />
<path d="M323.3755274261604,383.72995780590713 L300.7426160337553,396.30379746835433" stroke="red" stroke-width="2" fill="none" />
<path d="M300.7426160337553,396.30379746835433 L260.50632911392404,403.8481012658227" stroke="red" stroke-width="2" fill="none" />
<path d="M260.50632911392404,403.8481012658227 L225.2995780590718,426.48101265822777" stroke="red" stroke-width="2" fill="none" />
<path d="M225.2995780590718,426.48101265822777 L207.69620253164555,451.6286919831223" stroke="red" stroke-width="2" fill="none" />
<path d="M207.69620253164555,451.6286919831223 L192.6075949367089,481.8059071729957" stroke="red" stroke-width="2" fill="none" />
<path d="M192.6075949367089,481.8059071729957 L195.12236286919835,517.0126582278481" stroke="red" stroke-width="2" fill="none" />
<path d="M195.12236286919835,517.0126582278481 L210.21097046413502,517.0126582278481" stroke="red" stroke-width="2" fill="none" />
<path d="M288.168776371308,715.6793248945147 L295.7130801687764,690.5316455696202" stroke="red" stroke-width="2" fill="none" />
<path d="M295.7130801687764,690.5316455696202 L320.8607594936709,677.957805907173" stroke="red" stroke-width="2" fill="none" />
<path d="M320.8607594936709,677.957805907173 L346.0084388185654,680.4725738396623" stroke="red" stroke-width="2" fill="none" />
<path d="M346.0084388185654,680.4725738396623 L366.126582278481,693.0464135021097" stroke="red" stroke-width="2" fill="none" />
<path d="M366.126582278481,693.0464135021097 L391.2742616033755,695.5611814345991" stroke="red" stroke-width="2" fill="none" />
<path d="M391.2742616033755,695.5611814345991 L413.9071729957806,685.5021097046413" stroke="red" stroke-width="2" fill="none" />
<path d="M413.9071729957806,685.5021097046413 L403.8481012658228,670.4135021097046" stroke="red" stroke-width="2" fill="none" />
<path d="M403.8481012658228,670.4135021097046 L381.2151898734177,675.4430379746834" stroke="red" stroke-width="2" fill="none" />
<path d="M381.2151898734177,675.4430379746834 L353.55274261603375,662.8691983122362" stroke="red" stroke-width="2" fill="none" />
<path d="M353.55274261603375,662.8691983122362 L320.8607594936709,657.8396624472573" stroke="red" stroke-width="2" fill="none" />
<path d="M320.8607594936709,657.8396624472573 L293.19831223628694,665.3839662447257" stroke="red" stroke-width="2" fill="none" />
<path d="M293.19831223628694,665.3839662447257 L280.6244725738396,682.9873417721519" stroke="red" stroke-width="2" fill="none" />
<path d="M280.6244725738396,682.9873417721519 L273.08016877637135,708.1350210970463" stroke="red" stroke-width="2" fill="none" />
<path d="M273.08016877637135,708.1350210970463 L288.168776371308,715.6793248945147" stroke="red" stroke-width="2" fill="none" />
<path d="M49.2658227848101,685.5021097046413 L76.92827004219407,685.5021097046413" stroke="red" stroke-width="2" fill="none" />
<path d="M76.92827004219407,685.5021097046413 L102.07594936708858,698.0759493670885" stroke="red" stroke-width="2" fill="none" />
<path d="M102.07594936708858,698.0759493670885 L117.16455696202536,720.7088607594936" stroke="red" stroke-width="2" fill="none" />
<path d="M117.16455696202536,720.7088607594936 L122.19409282700428,748.3713080168775" stroke="red" stroke-width="2" fill="none" />
<path d="M122.19409282700428,748.3713080168775 L114.6497890295359,771.0042194092827" stroke="red" stroke-width="2" fill="none" />
<path d="M114.6497890295359,771.0042194092827 L102.07594936708858,783.57805907173" stroke="red" stroke-width="2" fill="none" />
<path d="M102.07594936708858,783.57805907173 L109.62025316455697,791.1223628691982" stroke="red" stroke-width="2" fill="none" />
<path d="M109.62025316455697,791.1223628691982 L124.70886075949375,778.548523206751" stroke="red" stroke-width="2" fill="none" />
<path d="M124.70886075949375,778.548523206751 L132.25316455696202,753.4008438818564" stroke="red" stroke-width="2" fill="none" />
<path d="M132.25316455696202,753.4008438818564 L127.2236286919831,715.6793248945147" stroke="red" stroke-width="2" fill="none" />
<path d="M127.2236286919831,715.6793248945147 L114.6497890295359,690.5316455696202" stroke="red" stroke-width="2" fill="none" />
<path d="M114.6497890295359,690.5316455696202 L86.98734177215192,672.9282700421941" stroke="red" stroke-width="2" fill="none" />
<path d="M86.98734177215192,672.9282700421941 L59.32489451476795,670.4135021097046" stroke="red" stroke-width="2" fill="none" />
<path d="M59.32489451476795,670.4135021097046 L39.20675105485236,670.4135021097046" stroke="red" stroke-width="2" fill="none" />
<path d="M39.20675105485236,670.4135021097046 L49.2658227848101,685.5021097046413" stroke="red" stroke-width="2" fill="none" />
<path d="M517.0126582278481,340.9789029535865 L524.5569620253165,340.9789029535865" stroke="red" stroke-width="2" fill="none" />
<path d="M524.5569620253165,381.21518987341767 L517.0126582278481,381.21518987341767" stroke="red" stroke-width="2" fill="none" />
<path d="M524.5569620253165,454.14345991561174 L524.5569620253165,381.21518987341767" stroke="red" stroke-width="2" fill="none" />
<path d="M547.1898734177215,456.6582278481012 L524.5569620253165,454.14345991561174" stroke="red" stroke-width="2" fill="none" />
<path d="M577.367088607595,434.02531645569616 L547.1898734177215,456.6582278481012" stroke="red" stroke-width="2" fill="none" />
<path d="M584.9113924050633,383.72995780590713 L577.367088607595,434.02531645569616" stroke="red" stroke-width="2" fill="none" />
<path d="M579.8818565400844,361.0970464135021 L584.9113924050633,383.72995780590713" stroke="red" stroke-width="2" fill="none" />
<path d="M579.8818565400844,325.8902953586497 L579.8818565400844,361.0970464135021" stroke="red" stroke-width="2" fill="none" />
<path d="M567.3080168776371,325.8902953586497 L579.8818565400844,325.8902953586497" stroke="red" stroke-width="2" fill="none" />
<path d="M567.3080168776371,320.8607594936708 L567.3080168776371,325.8902953586497" stroke="red" stroke-width="2" fill="none" />
<path d="M579.8818565400844,320.8607594936708 L567.3080168776371,320.8607594936708" stroke="red" stroke-width="2" fill="none" />
<path d="M524.5569620253165,340.9789029535865 L519.5274261603375,325.8902953586497" stroke="red" stroke-width="2" fill="none" />
<path d="M519.5274261603375,325.8902953586497 L537.1308016877638,325.8902953586497" stroke="red" stroke-width="2" fill="none" />
<path d="M537.1308016877638,325.8902953586497 L537.1308016877638,320.8607594936708" stroke="red" stroke-width="2" fill="none" />
<path d="M537.1308016877638,320.8607594936708 L517.0126582278481,320.8607594936708" stroke="red" stroke-width="2" fill="none" />
<path d="M517.0126582278481,320.8607594936708 L469.2320675105485,250.4472573839662" stroke="red" stroke-width="2" fill="none" />
<path d="M469.2320675105485,250.4472573839662 L539.6455696202531,195.12236286919824" stroke="red" stroke-width="2" fill="none" />
<path d="M539.6455696202531,195.12236286919824 L594.9704641350211,252.96202531645565" stroke="red" stroke-width="2" fill="none" />
<path d="M594.9704641350211,252.96202531645565 L579.8818565400844,320.8607594936708" stroke="red" stroke-width="2" fill="none" />
<path d="M989.789029535865,421.45147679324884 L1014.9367088607595,434.02531645569616" stroke="red" stroke-width="2" fill="none" />
<path d="M1014.9367088607595,434.02531645569616 L1024.9957805907172,459.17299578059067" stroke="red" stroke-width="2" fill="none" />
<path d="M1024.9957805907172,459.17299578059067 L1019.9662447257384,491.86497890295357" stroke="red" stroke-width="2" fill="none" />
<path d="M1019.9662447257384,491.86497890295357 L1002.3628691983122,514.4978902953586" stroke="red" stroke-width="2" fill="none" />
<path d="M1002.3628691983122,514.4978902953586 L974.7004219409282,524.5569620253164" stroke="red" stroke-width="2" fill="none" />
<path d="M974.7004219409282,524.5569620253164 L931.9493670886076,542.1603375527426" stroke="red" stroke-width="2" fill="none" />
<path d="M931.9493670886076,542.1603375527426 L894.2278481012659,557.2489451476793" stroke="red" stroke-width="2" fill="none" />
<path d="M894.2278481012659,557.2489451476793 L838.9029535864979,562.2784810126582" stroke="red" stroke-width="2" fill="none" />
<path d="M838.9029535864979,562.2784810126582 L793.6371308016878,579.8818565400843" stroke="red" stroke-width="2" fill="none" />
<path d="M793.6371308016878,579.8818565400843 L755.915611814346,610.0590717299577" stroke="red" stroke-width="2" fill="none" />
<path d="M755.915611814346,610.0590717299577 L738.3122362869199,640.2362869198312" stroke="red" stroke-width="2" fill="none" />
<path d="M738.3122362869199,640.2362869198312 L735.7974683544304,655.324894514768" stroke="red" stroke-width="2" fill="none" />
<path d="M735.7974683544304,655.324894514768 L750.8860759493671,670.4135021097046" stroke="red" stroke-width="2" fill="none" />
<path d="M750.8860759493671,670.4135021097046 L758.4303797468355,642.7510548523206" stroke="red" stroke-width="2" fill="none" />
<path d="M615.0886075949368,738.3122362869198 L572.337552742616,720.7088607594936" stroke="red" stroke-width="2" fill="none" />
<path d="M572.337552742616,720.7088607594936 L567.3080168776371,682.9873417721519" stroke="red" stroke-width="2" fill="none" />
<path d="M567.3080168776371,652.8101265822784 L574.8523206751055,625.1476793248944" stroke="red" stroke-width="2" fill="none" />
<path d="M574.8523206751055,625.1476793248944 L612.5738396624472,635.2067510548522" stroke="red" stroke-width="2" fill="none" />
<path d="M612.5738396624472,635.2067510548522 L647.7805907172996,635.2067510548522" stroke="red" stroke-width="2" fill="none" />
<path d="M647.7805907172996,635.2067510548522 L677.957805907173,612.5738396624472" stroke="red" stroke-width="2" fill="none" />
<path d="M589.9409282700421,765.9746835443037 L615.0886075949368,738.3122362869198" stroke="red" stroke-width="2" fill="none" />
<path d="M569.8227848101267,811.2405063291138 L589.9409282700421,765.9746835443037" stroke="red" stroke-width="2" fill="none" />
<path d="M577.367088607595,859.0210970464134 L569.8227848101267,811.2405063291138" stroke="red" stroke-width="2" fill="none" />
<path d="M607.5443037974684,904.2869198312236 L577.367088607595,859.0210970464134" stroke="red" stroke-width="2" fill="none" />
<path d="M647.7805907172996,949.5527426160337 L607.5443037974684,904.2869198312236" stroke="red" stroke-width="2" fill="none" />
<path d="M715.6793248945148,989.7890295358649 L647.7805907172996,949.5527426160337" stroke="red" stroke-width="2" fill="none" />
<path d="M776.0337552742616,1002.3628691983122 L715.6793248945148,989.7890295358649" stroke="red" stroke-width="2" fill="none" />
<path d="M866.5654008438819,1002.3628691983122 L776.0337552742616,1002.3628691983122" stroke="red" stroke-width="2" fill="none" />
<path d="M944.5232067510549,992.3037974683543 L866.5654008438819,1002.3628691983122" stroke="red" stroke-width="2" fill="none" />
<path d="M1012.42194092827,949.5527426160337 L944.5232067510549,992.3037974683543" stroke="red" stroke-width="2" fill="none" />
<path d="M1070.2616033755273,879.1392405063291 L1012.42194092827,949.5527426160337" stroke="red" stroke-width="2" fill="none" />
<path d="M1115.5274261603377,793.6371308016877 L1070.2616033755273,879.1392405063291" stroke="red" stroke-width="2" fill="none" />
<path d="M1087.8649789029537,642.7510548523206 L1115.5274261603377,753.4008438818564" stroke="red" stroke-width="2" fill="none" />
<path d="M1055.1729957805908,597.4852320675104 L1087.8649789029537,642.7510548523206" stroke="red" stroke-width="2" fill="none" />
<path d="M1002.3628691983122,562.2784810126582 L1035.054852320675,582.3966244725738" stroke="red" stroke-width="2" fill="none" />
<path d="M962.126582278481,554.7341772151899 L1002.3628691983122,562.2784810126582" stroke="red" stroke-width="2" fill="none" />
<path d="M926.9198312236286,559.7637130801687 L962.126582278481,554.7341772151899" stroke="red" stroke-width="2" fill="none" />
<path d="M891.7130801687764,579.8818565400843 L926.9198312236286,559.7637130801687" stroke="red" stroke-width="2" fill="none" />
<path d="M864.0506329113924,579.8818565400843 L891.7130801687764,579.8818565400843" stroke="red" stroke-width="2" fill="none" />
<path d="M823.8143459915611,589.9409282700421 L864.0506329113924,579.8818565400843" stroke="red" stroke-width="2" fill="none" />
<path d="M796.1518987341772,602.5147679324893 L823.8143459915611,589.9409282700421" stroke="red" stroke-width="2" fill="none" />
<path d="M776.0337552742616,620.1181434599155 L796.1518987341772,602.5147679324893" stroke="red" stroke-width="2" fill="none" />
<path d="M758.4303797468355,642.7510548523206 L776.0337552742616,620.1181434599155" stroke="red" stroke-width="2" fill="none" />
<path d="M984.7594936708861,765.9746835443037 L944.5232067510549,816.2700421940928" stroke="red" stroke-width="2" fill="none" />
<path d="M944.5232067510549,816.2700421940928 L972.1856540084389,841.4177215189873" stroke="red" stroke-width="2" fill="none" />
<path d="M972.1856540084389,841.4177215189873 L1014.9367088607595,793.6371308016877" stroke="red" stroke-width="2" fill="none" />
<path d="M1014.9367088607595,793.6371308016877 L984.7594936708861,765.9746835443037" stroke="red" stroke-width="2" fill="none" />
<path d="M557.2489451476793,652.8101265822784 L567.3080168776371,652.8101265822784" stroke="red" stroke-width="2" fill="none" />
<path d="M567.3080168776371,682.9873417721519 L557.2489451476793,682.9873417721519" stroke="red" stroke-width="2" fill="none" />
<path d="M532.1012658227849,723.2236286919831 L542.1603375527427,723.2236286919831" stroke="red" stroke-width="2" fill="none" />
<path d="M522.042194092827,758.4303797468353 L511.9831223628692,758.4303797468353" stroke="red" stroke-width="2" fill="none" />
<path d="M542.1603375527427,723.2236286919831 L584.9113924050633,745.8565400843881" stroke="red" stroke-width="2" fill="none" />
<path d="M584.9113924050633,745.8565400843881 L554.7341772151899,806.210970464135" stroke="red" stroke-width="2" fill="none" />
<path d="M554.7341772151899,806.210970464135 L559.7637130801688,861.5358649789029" stroke="red" stroke-width="2" fill="none" />
<path d="M559.7637130801688,861.5358649789029 L584.9113924050633,906.8016877637131" stroke="red" stroke-width="2" fill="none" />
<path d="M584.9113924050633,906.8016877637131 L519.5274261603375,934.464135021097" stroke="red" stroke-width="2" fill="none" />
<path d="M519.5274261603375,934.464135021097 L469.2320675105485,843.9324894514767" stroke="red" stroke-width="2" fill="none" />
<path d="M469.2320675105485,843.9324894514767 L522.042194092827,758.4303797468353" stroke="red" stroke-width="2" fill="none" />
<path d="M1125.5864978902953,793.6371308016877 L1115.5274261603377,793.6371308016877" stroke="red" stroke-width="2" fill="none" />
<path d="M1115.5274261603377,753.4008438818564 L1125.5864978902953,753.4008438818564" stroke="red" stroke-width="2" fill="none" />
<path d="M1125.5864978902953,753.4008438818564 L1135.6455696202531,733.282700421941" stroke="red" stroke-width="2" fill="none" />
<path d="M1135.6455696202531,733.282700421941 L1196.0,733.282700421941" stroke="red" stroke-width="2" fill="none" />
<path d="M1196.0,733.282700421941 L1196.0,763.4599156118143" stroke="red" stroke-width="2" fill="none" />
<path d="M1196.0,783.57805907173 L1196.0,813.7552742616033" stroke="red" stroke-width="2" fill="none" />
<path d="M1196.0,813.7552742616033 L1138.1603375527425,813.7552742616033" stroke="red" stroke-width="2" fill="none" />
<path d="M1138.1603375527425,813.7552742616033 L1125.5864978902953,793.6371308016877" stroke="red" stroke-width="2" fill="none" />
<path d="M1196.0,763.4599156118143 L1196.0,783.57805907173" stroke="red" stroke-width="2" fill="none" />
<path d="M620.1181434599156,665.3839662447257 L610.0590717299579,667.8987341772151" stroke="red" stroke-width="2" fill="none" />
<path d="M630.1772151898734,667.8987341772151 L620.1181434599156,665.3839662447257" stroke="red" stroke-width="2" fill="none" />
<path d="M635.2067510548524,675.4430379746834 L630.1772151898734,667.8987341772151" stroke="red" stroke-width="2" fill="none" />
<path d="M635.2067510548524,685.5021097046413 L635.2067510548524,675.4430379746834" stroke="red" stroke-width="2" fill="none" />
<path d="M632.6919831223629,693.0464135021097 L635.2067510548524,685.5021097046413" stroke="red" stroke-width="2" fill="none" />
<path d="M625.1476793248945,698.0759493670885 L632.6919831223629,693.0464135021097" stroke="red" stroke-width="2" fill="none" />
<path d="M615.0886075949368,698.0759493670885 L625.1476793248945,698.0759493670885" stroke="red" stroke-width="2" fill="none" />
<path d="M607.5443037974684,695.5611814345991 L615.0886075949368,698.0759493670885" stroke="red" stroke-width="2" fill="none" />
<path d="M602.5147679324895,688.0168776371307 L607.5443037974684,695.5611814345991" stroke="red" stroke-width="2" fill="none" />
<path d="M602.5147679324895,680.4725738396623 L602.5147679324895,688.0168776371307" stroke="red" stroke-width="2" fill="none" />
<path d="M605.0295358649789,672.9282700421941 L602.5147679324895,680.4725738396623" stroke="red" stroke-width="2" fill="none" />
<path d="M610.0590717299579,667.8987341772151 L605.0295358649789,672.9282700421941" stroke="red" stroke-width="2" fill="none" />
<path d="M496.8945147679325,667.8987341772151 L486.8354430379747,670.4135021097046" stroke="red" stroke-width="2" fill="none" />
<path d="M506.9535864978903,670.4135021097046 L496.8945147679325,667.8987341772151" stroke="red" stroke-width="2" fill="none" />
<path d="M511.9831223628692,677.957805907173 L506.9535864978903,670.4135021097046" stroke="red" stroke-width="2" fill="none" />
<path d="M511.9831223628692,688.0168776371307 L511.9831223628692,677.957805907173" stroke="red" stroke-width="2" fill="none" />
<path d="M509.46835443037975,695.5611814345991 L511.9831223628692,688.0168776371307" stroke="red" stroke-width="2" fill="none" />
<path d="M501.9240506329114,700.590717299578 L509.46835443037975,695.5611814345991" stroke="red" stroke-width="2" fill="none" />
<path d="M491.8649789029536,700.590717299578 L501.9240506329114,700.590717299578" stroke="red" stroke-width="2" fill="none" />
<path d="M484.32067510548524,698.0759493670885 L491.8649789029536,700.590717299578" stroke="red" stroke-width="2" fill="none" />
<path d="M479.29113924050637,690.5316455696202 L484.32067510548524,698.0759493670885" stroke="red" stroke-width="2" fill="none" />
<path d="M479.29113924050637,682.9873417721519 L479.29113924050637,690.5316455696202" stroke="red" stroke-width="2" fill="none" />
<path d="M481.8059071729958,675.4430379746834 L479.29113924050637,682.9873417721519" stroke="red" stroke-width="2" fill="none" />
<path d="M486.8354430379747,670.4135021097046 L481.8059071729958,675.4430379746834" stroke="red" stroke-width="2" fill="none" />
<path d="M610.0590717299579,625.1476793248944 L600.0,625.1476793248944" stroke="lavender" stroke-width="2" fill="none" />
<path d="M600.0,620.1181434599155 L594.9704641350211,620.1181434599155" stroke="red" stroke-width="2" fill="none" />
<path d="M600.0,625.1476793248944 L600.0,620.1181434599155" stroke="red" stroke-width="2" fill="none" />
<path d="M610.0590717299579,620.1181434599155 L610.0590717299579,625.1476793248944" stroke="red" stroke-width="2" fill="none" />
<path d="M615.0886075949368,620.1181434599155 L610.0590717299579,620.1181434599155" stroke="red" stroke-width="2" fill="none" />
<path d="M620.1181434599156,418.9367088607595 L632.6919831223629,418.9367088607595" stroke="red" stroke-width="2" fill="none" />
<path d="M632.6919831223629,418.9367088607595 L632.6919831223629,408.87763713080165" stroke="red" stroke-width="2" fill="none" />
<path d="M632.6919831223629,408.87763713080165 L620.1181434599156,408.87763713080165" stroke="red" stroke-width="2" fill="none" />
<path d="M745.8565400843881,431.5105485232067 L705.620253164557,421.45147679324884" stroke="red" stroke-width="2" fill="none" />
<path d="M705.620253164557,421.45147679324884 L693.0464135021098,408.87763713080165" stroke="red" stroke-width="2" fill="none" />
<path d="M693.0464135021098,408.87763713080165 L672.9282700421941,408.87763713080165" stroke="red" stroke-width="2" fill="none" />
<path d="M672.9282700421941,408.87763713080165 L672.9282700421941,418.9367088607595" stroke="red" stroke-width="2" fill="none" />
<path d="M672.9282700421941,418.9367088607595 L675.4430379746835,441.56962025316454" stroke="red" stroke-width="2" fill="none" />
<path d="M677.957805907173,79.44303797468353 L672.9282700421941,86.98734177215181" stroke="red" stroke-width="2" fill="none" />
<path d="M672.9282700421941,86.98734177215181 L693.0464135021098,94.5316455696202" stroke="red" stroke-width="2" fill="none" />
<path d="M693.0464135021098,94.5316455696202 L720.7088607594936,102.07594936708858" stroke="red" stroke-width="2" fill="none" />
<path d="M720.7088607594936,102.07594936708858 L753.4008438818565,102.07594936708858" stroke="red" stroke-width="2" fill="none" />
<path d="M753.4008438818565,102.07594936708858 L788.6075949367089,94.5316455696202" stroke="red" stroke-width="2" fill="none" />
<path d="M788.6075949367089,94.5316455696202 L806.210970464135,79.44303797468353" stroke="red" stroke-width="2" fill="none" />
<path d="M806.210970464135,79.44303797468353 L798.6666666666666,71.89873417721515" stroke="red" stroke-width="2" fill="none" />
<path d="M798.6666666666666,71.89873417721515 L788.6075949367089,81.957805907173" stroke="red" stroke-width="2" fill="none" />
<path d="M788.6075949367089,81.957805907173 L768.4894514767932,89.50210970464127" stroke="red" stroke-width="2" fill="none" />
<path d="M768.4894514767932,89.50210970464127 L743.3417721518988,92.01687763713073" stroke="red" stroke-width="2" fill="none" />
<path d="M743.3417721518988,92.01687763713073 L720.7088607594936,92.01687763713073" stroke="red" stroke-width="2" fill="none" />
<path d="M720.7088607594936,92.01687763713073 L698.0759493670886,86.98734177215181" stroke="red" stroke-width="2" fill="none" />
<path d="M698.0759493670886,86.98734177215181 L677.957805907173,79.44303797468353" stroke="red" stroke-width="2" fill="none" />
<path d="M1035.054852320675,582.3966244725738 L1040.084388185654,577.367088607595" stroke="red" stroke-width="2" fill="none" />
<path d="M1060.2025316455697,592.4556962025316 L1055.1729957805908,597.4852320675104" stroke="red" stroke-width="2" fill="none" />
<path d="M1040.084388185654,577.367088607595 L1032.5400843881857,562.2784810126582" stroke="red" stroke-width="2" fill="none" />
<path d="M1032.5400843881857,562.2784810126582 L1040.084388185654,544.675105485232" stroke="red" stroke-width="2" fill="none" />
<path d="M1040.084388185654,544.675105485232 L1065.2320675105484,544.675105485232" stroke="red" stroke-width="2" fill="none" />
<path d="M1065.2320675105484,544.675105485232 L1085.350210970464,562.2784810126582" stroke="red" stroke-width="2" fill="none" />
<path d="M1085.350210970464,562.2784810126582 L1097.9240506329113,592.4556962025316" stroke="red" stroke-width="2" fill="none" />
<path d="M1097.9240506329113,592.4556962025316 L1090.379746835443,607.5443037974683" stroke="red" stroke-width="2" fill="none" />
<path d="M1090.379746835443,607.5443037974683 L1070.2616033755273,602.5147679324893" stroke="red" stroke-width="2" fill="none" />
<path d="M1070.2616033755273,602.5147679324893 L1060.2025316455697,592.4556962025316" stroke="red" stroke-width="2" fill="none" />
</svg>