<?xml version="1.0" encoding="UTF-8"?>
<svg xmlns="http://www.w3.org/2000/svg" xmlns:xlink="http://www.w3.org/1999/xlink"
     width="1200" height="982" viewBox="0 0 1200 982">
<defs>
</defs>
<path d="M1121.9818887451488,411.0996119016817 L1121.9818887451488,423.43596377749026" stroke="yellow" stroke-width="2" fill="none" />
<path d="M579.1824062095731,16.336351875808532 L579.1824062095731,53.345407503234185" stroke="yellow" stroke-width="2" fill="none" />
<path d="M579.1824062095731,53.345407503234185 L640.8641655886157,53.345407503234185" stroke="yellow" stroke-width="2" fill="none" />
<path d="M640.8641655886157,53.345407503234185 L640.8641655886157,16.336351875808532" stroke="yellow" stroke-width="2" fill="none" />
<path d="M640.8641655886157,16.336351875808532 L579.1824062095731,16.336351875808532" stroke="yellow" stroke-width="2" fill="none" />
<path d="M625.4437257438551,324.74514877102195 L594.6028460543337,324.74514877102195" stroke="lavender" stroke-width="2" fill="none" />
<path d="M594.6028460543337,337.0815006468305 L625.4437257438551,337.0815006468305" stroke="lavender" stroke-width="2" fill="none" />
<path d="M582.2664941785251,324.74514877102195 L576.0983182406209,324.74514877102195" stroke="yellow" stroke-width="2" fill="none" />
<path d="M576.0983182406209,324.74514877102195 L576.0983182406209,337.0815006468305" stroke="yellow" stroke-width="2" fill="none" />
<path d="M576.0983182406209,337.0815006468305 L582.2664941785251,337.0815006468305" stroke="yellow" stroke-width="2" fill="none" />
<path d="M637.7800776196636,337.0815006468305 L643.9482535575679,337.0815006468305" stroke="yellow" stroke-width="2" fill="none" />
<path d="M643.9482535575679,337.0815006468305 L643.9482535575679,324.74514877102195" stroke="yellow" stroke-width="2" fill="none" />
<path d="M643.9482535575679,324.74514877102195 L637.7800776196636,324.74514877102195" stroke="yellow" stroke-width="2" fill="none" />
<path d="M506.7063389391979,366.3803363518758 L485.117723156533,387.9689521345407" stroke="lavender" stroke-width="2" fill="none" />
<path d="M494.3699870633893,397.22121604139716 L515.9586028460543,375.63260025873217" stroke="lavender" stroke-width="2" fill="none" />
<path d="M477.4075032341526,395.67917205692106 L472.78137128072444,400.3053040103493" stroke="yellow" stroke-width="2" fill="none" />
<path d="M472.78137128072444,400.3053040103493 L482.0336351875808,409.5575679172057" stroke="yellow" stroke-width="2" fill="none" />
<path d="M482.0336351875808,409.5575679172057 L486.659767141009,404.93143596377746" stroke="yellow" stroke-width="2" fill="none" />
<path d="M525.2108667529106,366.3803363518758 L529.8369987063389,361.7542043984476" stroke="yellow" stroke-width="2" fill="none" />
<path d="M529.8369987063389,361.7542043984476 L520.5847347994825,352.5019404915912" stroke="yellow" stroke-width="2" fill="none" />
<path d="M520.5847347994825,352.5019404915912 L515.9586028460543,357.12807244501937" stroke="yellow" stroke-width="2" fill="none" />
<path d="M455.8188874514877,506.7063389391979 L455.8188874514877,475.8654592496766" stroke="lavender" stroke-width="2" fill="none" />
<path d="M443.4825355756791,475.8654592496766 L443.4825355756791,506.7063389391979" stroke="lavender" stroke-width="2" fill="none" />
<path d="M455.8188874514877,463.52910737386804 L455.8188874514877,457.3609314359638" stroke="yellow" stroke-width="2" fill="none" />
<path d="M455.8188874514877,457.3609314359638 L443.4825355756791,457.3609314359638" stroke="yellow" stroke-width="2" fill="none" />
<path d="M443.4825355756791,457.3609314359638 L443.4825355756791,463.52910737386804" stroke="yellow" stroke-width="2" fill="none" />
<path d="M443.4825355756791,519.0426908150065 L443.4825355756791,525.2108667529108" stroke="yellow" stroke-width="2" fill="none" />
<path d="M443.4825355756791,525.2108667529108 L455.8188874514877,525.2108667529108" stroke="yellow" stroke-width="2" fill="none" />
<path d="M455.8188874514877,525.2108667529108 L455.8188874514877,519.0426908150065" stroke="yellow" stroke-width="2" fill="none" />
<path d="M776.5640362225097,506.7063389391979 L776.5640362225097,475.8654592496766" stroke="lavender" stroke-width="2" fill="none" />
<path d="M764.2276843467012,475.8654592496766 L764.2276843467012,506.7063389391979" stroke="lavender" stroke-width="2" fill="none" />
<path d="M776.5640362225097,463.52910737386804 L776.5640362225097,457.3609314359638" stroke="yellow" stroke-width="2" fill="none" />
<path d="M776.5640362225097,457.3609314359638 L764.2276843467012,457.3609314359638" stroke="yellow" stroke-width="2" fill="none" />
<path d="M764.2276843467012,457.3609314359638 L764.2276843467012,463.52910737386804" stroke="yellow" stroke-width="2" fill="none" />
<path d="M764.2276843467012,519.0426908150065 L764.2276843467012,525.2108667529108" stroke="yellow" stroke-width="2" fill="none" />
<path d="M764.2276843467012,525.2108667529108 L776.5640362225097,525.2108667529108" stroke="yellow" stroke-width="2" fill="none" />
<path d="M776.5640362225097,525.2108667529108 L776.5640362225097,519.0426908150065" stroke="yellow" stroke-width="2" fill="none" />
<path d="M734.9288486416558,387.9689521345407 L713.3402328589909,366.3803363518758" stroke="lavender" stroke-width="2" fill="none" />
<path d="M704.0879689521345,375.63260025873217 L725.6765847347995,397.22121604139716" stroke="lavender" stroke-width="2" fill="none" />
<path d="M704.0879689521345,357.12807244501937 L699.4618369987063,352.5019404915912" stroke="yellow" stroke-width="2" fill="none" />
<path d="M699.4618369987063,352.5019404915912 L690.2095730918498,361.7542043984476" stroke="yellow" stroke-width="2" fill="none" />
<path d="M690.2095730918498,361.7542043984476 L694.835705045278,366.3803363518758" stroke="yellow" stroke-width="2" fill="none" />
<path d="M733.3868046571797,404.93143596377746 L738.012936610608,409.5575679172057" stroke="yellow" stroke-width="2" fill="none" />
<path d="M738.012936610608,409.5575679172057 L747.2652005174643,400.3053040103493" stroke="yellow" stroke-width="2" fill="none" />
<path d="M747.2652005174643,400.3053040103493 L742.6390685640362,395.67917205692106" stroke="yellow" stroke-width="2" fill="none" />
<path d="M515.9586028460543,606.9391979301423 L494.3699870633893,585.3505821474773" stroke="lavender" stroke-width="2" fill="none" />
<path d="M485.117723156533,594.6028460543338 L506.7063389391979,616.1914618369987" stroke="lavender" stroke-width="2" fill="none" />
<path d="M485.117723156533,576.098318240621 L480.49159120310475,571.4721862871927" stroke="yellow" stroke-width="2" fill="none" />
<path d="M480.49159120310475,571.4721862871927 L471.23932729624835,580.7244501940492" stroke="yellow" stroke-width="2" fill="none" />
<path d="M471.23932729624835,580.7244501940492 L475.8654592496765,585.3505821474773" stroke="yellow" stroke-width="2" fill="none" />
<path d="M514.4165588615782,623.901681759379 L519.0426908150064,628.5278137128072" stroke="yellow" stroke-width="2" fill="none" />
<path d="M519.0426908150064,628.5278137128072 L528.2949547218628,619.2755498059508" stroke="yellow" stroke-width="2" fill="none" />
<path d="M528.2949547218628,619.2755498059508 L523.6688227684347,614.6494178525226" stroke="yellow" stroke-width="2" fill="none" />
<path d="M725.6765847347995,585.3505821474773 L704.0879689521345,606.9391979301423" stroke="lavender" stroke-width="2" fill="none" />
<path d="M713.3402328589909,616.1914618369987 L734.9288486416558,594.6028460543338" stroke="lavender" stroke-width="2" fill="none" />
<path d="M696.3777490297541,614.6494178525226 L691.7516170763259,619.2755498059508" stroke="yellow" stroke-width="2" fill="none" />
<path d="M691.7516170763259,619.2755498059508 L701.0038809831824,628.5278137128072" stroke="yellow" stroke-width="2" fill="none" />
<path d="M701.0038809831824,628.5278137128072 L705.6300129366106,623.901681759379" stroke="yellow" stroke-width="2" fill="none" />
<path d="M744.1811125485123,585.3505821474773 L748.8072445019404,580.7244501940492" stroke="yellow" stroke-width="2" fill="none" />
<path d="M748.8072445019404,580.7244501940492 L739.5549805950841,571.4721862871927" stroke="yellow" stroke-width="2" fill="none" />
<path d="M739.5549805950841,571.4721862871927 L734.9288486416558,576.098318240621" stroke="yellow" stroke-width="2" fill="none" />
<path d="M625.4437257438551,645.4902975420439 L594.6028460543337,645.4902975420439" stroke="lavender" stroke-width="2" fill="none" />
<path d="M594.6028460543337,657.8266494178524 L625.4437257438551,657.8266494178524" stroke="lavender" stroke-width="2" fill="none" />
<path d="M582.2664941785251,645.4902975420439 L576.0983182406209,645.4902975420439" stroke="yellow" stroke-width="2" fill="none" />
<path d="M576.0983182406209,645.4902975420439 L576.0983182406209,657.8266494178524" stroke="yellow" stroke-width="2" fill="none" />
<path d="M576.0983182406209,657.8266494178524 L582.2664941785251,657.8266494178524" stroke="yellow" stroke-width="2" fill="none" />
<path d="M637.7800776196636,657.8266494178524 L643.9482535575679,657.8266494178524" stroke="yellow" stroke-width="2" fill="none" />
<path d="M643.9482535575679,657.8266494178524 L643.9482535575679,645.4902975420439" stroke="yellow" stroke-width="2" fill="none" />
<path d="M643.9482535575679,645.4902975420439 L637.7800776196636,645.4902975420439" stroke="yellow" stroke-width="2" fill="none" />
<path d="M1126.6080206985769,423.43596377749026 L1126.6080206985769,411.0996119016817" stroke="lavender" stroke-width="2" fill="none" />
<path d="M264.6054333764553,474.3234152652005 L246.10090556274253,480.49159120310475" stroke="lavender" stroke-width="2" fill="none" />
<path d="M278.48382923673995,478.9495472186287 L264.6054333764553,474.3234152652005" stroke="lavender" stroke-width="2" fill="none" />
<path d="M286.19404915912025,494.3699870633894 L278.48382923673995,478.9495472186287" stroke="lavender" stroke-width="2" fill="none" />
<path d="M280.025873221216,508.24838292367394 L286.19404915912025,494.3699870633894" stroke="lavender" stroke-width="2" fill="none" />
<path d="M263.0633893919793,515.9586028460543 L280.025873221216,508.24838292367394" stroke="lavender" stroke-width="2" fill="none" />
<path d="M244.5588615782665,509.79042690815004 L263.0633893919793,515.9586028460543" stroke="lavender" stroke-width="2" fill="none" />
<path d="M241.47477360931435,494.3699870633894 L244.5588615782665,509.79042690815004" stroke="lavender" stroke-width="2" fill="none" />
<path d="M246.10090556274253,480.49159120310475 L241.47477360931435,494.3699870633894" stroke="lavender" stroke-width="2" fill="none" />
<path d="M264.6054333764553,529.8369987063389 L283.1099611901681,525.2108667529108" stroke="yellow" stroke-width="2" fill="none" />
<path d="M246.10090556274253,525.2108667529108 L264.6054333764553,529.8369987063389" stroke="yellow" stroke-width="2" fill="none" />
<path d="M227.59637774902973,515.9586028460543 L246.10090556274253,525.2108667529108" stroke="yellow" stroke-width="2" fill="none" />
<path d="M224.5122897800776,497.4540750323415 L227.59637774902973,515.9586028460543" stroke="yellow" stroke-width="2" fill="none" />
<path d="M232.22250970245796,472.78137128072444 L224.5122897800776,497.4540750323415" stroke="yellow" stroke-width="2" fill="none" />
<path d="M246.10090556274253,455.8188874514877 L232.22250970245796,472.78137128072444" stroke="yellow" stroke-width="2" fill="none" />
<path d="M267.68952134540746,454.27684346701164 L246.10090556274253,455.8188874514877" stroke="yellow" stroke-width="2" fill="none" />
<path d="M286.19404915912025,458.9029754204398 L267.68952134540746,454.27684346701164" stroke="yellow" stroke-width="2" fill="none" />
<path d="M303.156532988357,472.78137128072444 L286.19404915912025,458.9029754204398" stroke="yellow" stroke-width="2" fill="none" />
<path d="M304.6985769728331,492.8279430789133 L303.156532988357,472.78137128072444" stroke="yellow" stroke-width="2" fill="none" />
<path d="M303.156532988357,515.9586028460543 L304.6985769728331,492.8279430789133" stroke="yellow" stroke-width="2" fill="none" />
<path d="M283.1099611901681,525.2108667529108 L303.156532988357,515.9586028460543" stroke="yellow" stroke-width="2" fill="none" />
<path d="M303.156532988357,537.5472186287193 L303.156532988357,515.9586028460543" stroke="yellow" stroke-width="2" fill="none" />
<path d="M272.3156532988357,551.4256144890038 L303.156532988357,537.5472186287193" stroke="yellow" stroke-width="2" fill="none" />
<path d="M252.2690815006468,551.4256144890038 L272.3156532988357,551.4256144890038" stroke="yellow" stroke-width="2" fill="none" />
<path d="M226.0543337645537,543.7153945666236 L252.2690815006468,551.4256144890038" stroke="yellow" stroke-width="2" fill="none" />
<path d="M210.63389391979297,537.5472186287193 L226.0543337645537,543.7153945666236" stroke="yellow" stroke-width="2" fill="none" />
<path d="M199.83958602846053,508.24838292367394 L210.63389391979297,537.5472186287193" stroke="yellow" stroke-width="2" fill="none" />
<path d="M199.83958602846053,486.659767141009 L199.83958602846053,508.24838292367394" stroke="yellow" stroke-width="2" fill="none" />
<path d="M204.4657179818887,458.9029754204398 L199.83958602846053,486.659767141009" stroke="yellow" stroke-width="2" fill="none" />
<path d="M218.34411384217333,441.9404915912031 L204.4657179818887,458.9029754204398" stroke="yellow" stroke-width="2" fill="none" />
<path d="M246.10090556274253,434.23027166882275 L218.34411384217333,441.9404915912031" stroke="yellow" stroke-width="2" fill="none" />
<path d="M284.6520051746442,440.398447606727 L246.10090556274253,434.23027166882275" stroke="yellow" stroke-width="2" fill="none" />
<path d="M303.156532988357,455.8188874514877 L284.6520051746442,440.398447606727" stroke="yellow" stroke-width="2" fill="none" />
<path d="M303.156532988357,472.78137128072444 L303.156532988357,455.8188874514877" stroke="yellow" stroke-width="2" fill="none" />
<path d="M199.83958602846053,508.24838292367394 L192.12936610608017,529.8369987063389" stroke="yellow" stroke-width="2" fill="none" />
<path d="M192.12936610608017,529.8369987063389 L193.67141009055626,552.9676584734799" stroke="yellow" stroke-width="2" fill="none" />
<path d="M193.67141009055626,552.9676584734799 L210.63389391979297,576.098318240621" stroke="yellow" stroke-width="2" fill="none" />
<path d="M210.63389391979297,576.098318240621 L226.0543337645537,582.2664941785251" stroke="yellow" stroke-width="2" fill="none" />
<path d="M226.0543337645537,582.2664941785251 L246.10090556274253,585.3505821474773" stroke="yellow" stroke-width="2" fill="none" />
<path d="M246.10090556274253,585.3505821474773 L266.1474773609314,586.8926261319534" stroke="yellow" stroke-width="2" fill="none" />
<path d="M266.1474773609314,586.8926261319534 L280.025873221216,582.2664941785251" stroke="yellow" stroke-width="2" fill="none" />
<path d="M280.025873221216,582.2664941785251 L280.025873221216,562.2199223803364" stroke="yellow" stroke-width="2" fill="none" />
<path d="M280.025873221216,562.2199223803364 L272.3156532988357,551.4256144890038" stroke="yellow" stroke-width="2" fill="none" />
<path d="M210.63389391979297,576.098318240621 L210.63389391979297,599.228978007762" stroke="yellow" stroke-width="2" fill="none" />
<path d="M210.63389391979297,599.228978007762 L239.93272962483826,608.4812419146183" stroke="yellow" stroke-width="2" fill="none" />
<path d="M239.93272962483826,608.4812419146183 L270.7736093143596,611.5653298835705" stroke="yellow" stroke-width="2" fill="none" />
<path d="M270.7736093143596,611.5653298835705 L283.1099611901681,599.228978007762" stroke="yellow" stroke-width="2" fill="none" />
<path d="M283.1099611901681,599.228978007762 L280.025873221216,582.2664941785251" stroke="yellow" stroke-width="2" fill="none" />
<path d="M566.8460543337645,855.2082794307892 L556.051746442432,862.9184993531694" stroke="lavender" stroke-width="2" fill="none" />
<path d="M582.2664941785251,855.2082794307892 L566.8460543337645,855.2082794307892" stroke="lavender" stroke-width="2" fill="none" />
<path d="M596.1448900388098,864.4605433376455 L582.2664941785251,855.2082794307892" stroke="lavender" stroke-width="2" fill="none" />
<path d="M596.1448900388098,879.8809831824062 L596.1448900388098,864.4605433376455" stroke="lavender" stroke-width="2" fill="none" />
<path d="M586.8926261319534,892.2173350582148 L596.1448900388098,879.8809831824062" stroke="lavender" stroke-width="2" fill="none" />
<path d="M568.3880983182406,890.6752910737387 L586.8926261319534,892.2173350582148" stroke="lavender" stroke-width="2" fill="none" />
<path d="M556.051746442432,876.796895213454 L568.3880983182406,890.6752910737387" stroke="lavender" stroke-width="2" fill="none" />
<path d="M556.051746442432,862.9184993531694 L556.051746442432,876.796895213454" stroke="lavender" stroke-width="2" fill="none" />
<path d="M563.7619663648123,833.6196636481241 L543.7153945666234,839.7878395860284" stroke="yellow" stroke-width="2" fill="none" />
<path d="M543.7153945666234,839.7878395860284 L531.3790426908149,855.2082794307892" stroke="yellow" stroke-width="2" fill="none" />
<path d="M531.3790426908149,855.2082794307892 L532.921086675291,872.1707632600258" stroke="yellow" stroke-width="2" fill="none" />
<path d="M532.921086675291,872.1707632600258 L539.0892626131953,892.2173350582148" stroke="yellow" stroke-width="2" fill="none" />
<path d="M539.0892626131953,892.2173350582148 L556.051746442432,904.5536869340233" stroke="yellow" stroke-width="2" fill="none" />
<path d="M556.051746442432,904.5536869340233 L580.7244501940492,910.7218628719274" stroke="yellow" stroke-width="2" fill="none" />
<path d="M580.7244501940492,910.7218628719274 L602.313065976714,906.0957309184994" stroke="yellow" stroke-width="2" fill="none" />
<path d="M602.313065976714,906.0957309184994 L616.1914618369987,898.3855109961189" stroke="yellow" stroke-width="2" fill="none" />
<path d="M616.1914618369987,898.3855109961189 L622.3596377749029,884.5071151358343" stroke="yellow" stroke-width="2" fill="none" />
<path d="M622.3596377749029,884.5071151358343 L620.8175937904268,869.0866752910737" stroke="yellow" stroke-width="2" fill="none" />
<path d="M620.8175937904268,869.0866752910737 L619.2755498059508,853.6662354463131" stroke="yellow" stroke-width="2" fill="none" />
<path d="M619.2755498059508,853.6662354463131 L606.9391979301422,839.7878395860284" stroke="yellow" stroke-width="2" fill="none" />
<path d="M606.9391979301422,839.7878395860284 L583.8085381630012,833.6196636481241" stroke="yellow" stroke-width="2" fill="none" />
<path d="M583.8085381630012,833.6196636481241 L563.7619663648123,833.6196636481241" stroke="yellow" stroke-width="2" fill="none" />
<path d="M579.1824062095731,813.5730918499353 L605.3971539456662,816.6571798188875" stroke="yellow" stroke-width="2" fill="none" />
<path d="M605.3971539456662,816.6571798188875 L628.5278137128072,833.6196636481241" stroke="yellow" stroke-width="2" fill="none" />
<path d="M628.5278137128072,833.6196636481241 L643.9482535575679,859.8344113842172" stroke="yellow" stroke-width="2" fill="none" />
<path d="M643.9482535575679,859.8344113842172 L645.4902975420439,892.2173350582148" stroke="yellow" stroke-width="2" fill="none" />
<path d="M645.4902975420439,892.2173350582148 L614.6494178525226,927.6843467011643" stroke="yellow" stroke-width="2" fill="none" />
<path d="M614.6494178525226,927.6843467011643 L596.1448900388098,930.7684346701164" stroke="yellow" stroke-width="2" fill="none" />
<path d="M596.1448900388098,930.7684346701164 L569.9301423027166,932.3104786545924" stroke="yellow" stroke-width="2" fill="none" />
<path d="M569.9301423027166,932.3104786545924 L546.7994825355756,927.6843467011643" stroke="yellow" stroke-width="2" fill="none" />
<path d="M546.7994825355756,927.6843467011643 L529.8369987063389,913.8059508408796" stroke="yellow" stroke-width="2" fill="none" />
<path d="M529.8369987063389,913.8059508408796 L511.3324708926261,889.1332470892626" stroke="yellow" stroke-width="2" fill="none" />
<path d="M511.3324708926261,889.1332470892626 L511.3324708926261,861.3764553686933" stroke="yellow" stroke-width="2" fill="none" />
<path d="M511.3324708926261,861.3764553686933 L520.5847347994825,841.3298835705045" stroke="yellow" stroke-width="2" fill="none" />
<path d="M520.5847347994825,841.3298835705045 L536.0051746442432,824.3673997412677" stroke="yellow" stroke-width="2" fill="none" />
<path d="M536.0051746442432,824.3673997412677 L549.8835705045278,815.1151358344114" stroke="yellow" stroke-width="2" fill="none" />
<path d="M549.8835705045278,815.1151358344114 L579.1824062095731,813.5730918499353" stroke="yellow" stroke-width="2" fill="none" />
<path d="M628.5278137128072,833.6196636481241 L650.1164294954722,833.6196636481241" stroke="yellow" stroke-width="2" fill="none" />
<path d="M650.1164294954722,833.6196636481241 L663.9948253557567,856.7503234152651" stroke="yellow" stroke-width="2" fill="none" />
<path d="M663.9948253557567,856.7503234152651 L668.620957309185,876.796895213454" stroke="yellow" stroke-width="2" fill="none" />
<path d="M668.620957309185,876.796895213454 L667.0789133247089,903.0116429495472" stroke="yellow" stroke-width="2" fill="none" />
<path d="M667.0789133247089,903.0116429495472 L654.7425614489003,926.1423027166882" stroke="yellow" stroke-width="2" fill="none" />
<path d="M654.7425614489003,926.1423027166882 L639.3221216041396,944.646830530401" stroke="yellow" stroke-width="2" fill="none" />
<path d="M639.3221216041396,944.646830530401 L610.0232858990944,956.9831824062095" stroke="yellow" stroke-width="2" fill="none" />
<path d="M610.0232858990944,956.9831824062095 L588.4346701164294,956.9831824062095" stroke="yellow" stroke-width="2" fill="none" />
<path d="M588.4346701164294,956.9831824062095 L574.5562742561449,949.2729624838291" stroke="yellow" stroke-width="2" fill="none" />
<path d="M574.5562742561449,949.2729624838291 L569.9301423027166,932.3104786545924" stroke="yellow" stroke-width="2" fill="none" />
<path d="M605.3971539456662,816.6571798188875 L636.2380336351875,808.946959896507" stroke="yellow" stroke-width="2" fill="none" />
<path d="M636.2380336351875,808.946959896507 L662.4527813712807,815.1151358344114" stroke="yellow" stroke-width="2" fill="none" />
<path d="M662.4527813712807,815.1151358344114 L682.4993531694695,835.1617076326002" stroke="yellow" stroke-width="2" fill="none" />
<path d="M682.4993531694695,835.1617076326002 L696.3777490297541,855.2082794307892" stroke="yellow" stroke-width="2" fill="none" />
<path d="M696.3777490297541,855.2082794307892 L702.5459249676584,879.8809831824062" stroke="yellow" stroke-width="2" fill="none" />
<path d="M702.5459249676584,879.8809831824062 L697.9197930142302,903.0116429495472" stroke="yellow" stroke-width="2" fill="none" />
<path d="M697.9197930142302,903.0116429495472 L688.6675291073739,919.9741267787839" stroke="yellow" stroke-width="2" fill="none" />
<path d="M688.6675291073739,919.9741267787839 L674.7891332470892,929.2263906856404" stroke="yellow" stroke-width="2" fill="none" />
<path d="M674.7891332470892,929.2263906856404 L654.7425614489003,926.1423027166882" stroke="yellow" stroke-width="2" fill="none" />
<path d="M579.1824062095731,813.5730918499353 L583.8085381630012,795.0685640362225" stroke="yellow" stroke-width="2" fill="none" />
<path d="M583.8085381630012,795.0685640362225 L603.8551099611901,779.6481241914619" stroke="yellow" stroke-width="2" fill="none" />
<path d="M603.8551099611901,779.6481241914619 L631.6119016817594,776.5640362225097" stroke="yellow" stroke-width="2" fill="none" />
<path d="M631.6119016817594,776.5640362225097 L660.9107373868046,784.2742561448899" stroke="yellow" stroke-width="2" fill="none" />
<path d="M660.9107373868046,784.2742561448899 L679.4152652005174,799.6946959896507" stroke="yellow" stroke-width="2" fill="none" />
<path d="M679.4152652005174,799.6946959896507 L685.5834411384217,816.6571798188875" stroke="yellow" stroke-width="2" fill="none" />
<path d="M685.5834411384217,816.6571798188875 L682.4993531694695,835.1617076326002" stroke="yellow" stroke-width="2" fill="none" />
<path d="M924.6002587322121,497.4540750323415 L924.6002587322121,485.117723156533" stroke="yellow" stroke-width="2" fill="none" />
<path d="M924.6002587322121,485.117723156533 L924.6002587322121,472.78137128072444" stroke="yellow" stroke-width="2" fill="none" />
<path d="M924.6002587322121,472.78137128072444 L924.6002587322121,460.4450194049159" stroke="yellow" stroke-width="2" fill="none" />
<path d="M924.6002587322121,460.4450194049159 L924.6002587322121,448.1086675291074" stroke="yellow" stroke-width="2" fill="none" />
<path d="M924.6002587322121,448.1086675291074 L924.6002587322121,435.77231565329885" stroke="yellow" stroke-width="2" fill="none" />
<path d="M924.6002587322121,435.77231565329885 L949.2729624838291,435.77231565329885" stroke="yellow" stroke-width="2" fill="none" />
<path d="M924.6002587322121,497.4540750323415 L949.2729624838291,497.4540750323415" stroke="yellow" stroke-width="2" fill="none" />
<path d="M924.6002587322121,485.117723156533 L949.2729624838291,485.117723156533" stroke="yellow" stroke-width="2" fill="none" />
<path d="M924.6002587322121,472.78137128072444 L949.2729624838291,472.78137128072444" stroke="yellow" stroke-width="2" fill="none" />
<path d="M924.6002587322121,460.4450194049159 L949.2729624838291,460.4450194049159" stroke="yellow" stroke-width="2" fill="none" />
<path d="M924.6002587322121,448.1086675291074 L949.2729624838291,448.1086675291074" stroke="yellow" stroke-width="2" fill="none" />
<path d="M924.6002587322121,534.4631306597671 L924.6002587322121,522.1267787839586" stroke="yellow" stroke-width="2" fill="none" />
<path d="M924.6002587322121,522.1267787839586 L924.6002587322121,509.79042690815004" stroke="yellow" stroke-width="2" fill="none" />
<path d="M924.6002587322121,509.79042690815004 L924.6002587322121,497.4540750323415" stroke="yellow" stroke-width="2" fill="none" />
<path d="M924.6002587322121,534.4631306597671 L949.2729624838291,534.4631306597671" stroke="yellow" stroke-width="2" fill="none" />
<path d="M924.6002587322121,522.1267787839586 L949.2729624838291,522.1267787839586" stroke="yellow" stroke-width="2" fill="none" />
<path d="M924.6002587322121,509.79042690815004 L949.2729624838291,509.79042690815004" stroke="yellow" stroke-width="2" fill="none" />
<path d="M924.6002587322121,546.7994825355756 L924.6002587322121,534.4631306597671" stroke="yellow" stroke-width="2" fill="none" />
<path d="M912.2639068564035,546.7994825355756 L924.6002587322121,546.7994825355756" stroke="yellow" stroke-width="2" fill="none" />
<path d="M637.7800776196636,50.26131953428205 L616.1914618369987,50.26131953428205" stroke="yellow" stroke-width="2" fill="none" />
<path d="M582.2664941785251,50.26131953428205 L582.2664941785251,19.420439844760665" stroke="yellow" stroke-width="2" fill="none" />
<path d="M603.8551099611901,50.26131953428205 L582.2664941785251,50.26131953428205" stroke="yellow" stroke-width="2" fill="none" />
<path d="M616.1914618369987,50.26131953428205 L603.8551099611901,50.26131953428205" stroke="lavender" stroke-width="2" fill="none" />
<path d="M637.7800776196636,19.420439844760665 L637.7800776196636,50.26131953428205" stroke="yellow" stroke-width="2" fill="none" />
<path d="M582.2664941785251,19.420439844760665 L637.7800776196636,19.420439844760665" stroke="yellow" stroke-width="2" fill="none" />
<path d="M471.23932729624835,179.79301423027164 L458.9029754204398,192.12936610608023" stroke="yellow" stroke-width="2" fill="none" />
<path d="M458.9029754204398,192.12936610608023 L505.1642949547218,238.39068564036222" stroke="yellow" stroke-width="2" fill="none" />
<path d="M505.1642949547218,238.39068564036222 L714.8822768434669,238.39068564036222" stroke="yellow" stroke-width="2" fill="none" />
<path d="M714.8822768434669,238.39068564036222 L761.143596377749,192.12936610608023" stroke="yellow" stroke-width="2" fill="none" />
<path d="M761.143596377749,192.12936610608023 L748.8072445019404,179.79301423027164" stroke="yellow" stroke-width="2" fill="none" />
<path d="M748.8072445019404,179.79301423027164 L702.5459249676584,226.0543337645537" stroke="yellow" stroke-width="2" fill="none" />
<path d="M702.5459249676584,226.0543337645537 L517.5006468305304,226.0543337645537" stroke="yellow" stroke-width="2" fill="none" />
<path d="M517.5006468305304,226.0543337645537 L471.23932729624835,179.79301423027164" stroke="yellow" stroke-width="2" fill="none" />
<path d="M517.5006468305304,756.5174644243208 L702.5459249676584,756.5174644243208" stroke="yellow" stroke-width="2" fill="none" />
<path d="M702.5459249676584,756.5174644243208 L714.8822768434669,744.1811125485123" stroke="yellow" stroke-width="2" fill="none" />
<path d="M714.8822768434669,744.1811125485123 L505.1642949547218,744.1811125485123" stroke="yellow" stroke-width="2" fill="none" />
<path d="M505.1642949547218,744.1811125485123 L517.5006468305304,756.5174644243208" stroke="yellow" stroke-width="2" fill="none" />
<path d="M98.06468305304008,571.4721862871927 L98.06468305304008,546.7994825355756" stroke="yellow" stroke-width="2" fill="none" />
<path d="M94.98059508408801,546.7994825355756 L94.98059508408801,571.4721862871927" stroke="yellow" stroke-width="2" fill="none" />
<path d="M887.5912031047865,460.4450194049159 L887.5912031047865,472.78137128072444" stroke="lavender" stroke-width="2" fill="none" />
<path d="M887.5912031047865,472.78137128072444 L887.5912031047865,485.117723156533" stroke="lavender" stroke-width="2" fill="none" />
<path d="M887.5912031047865,485.117723156533 L887.5912031047865,497.4540750323415" stroke="lavender" stroke-width="2" fill="none" />
<path d="M887.5912031047865,497.4540750323415 L887.5912031047865,509.79042690815004" stroke="lavender" stroke-width="2" fill="none" />
<path d="M887.5912031047865,509.79042690815004 L887.5912031047865,522.1267787839586" stroke="lavender" stroke-width="2" fill="none" />
<path d="M887.5912031047865,522.1267787839586 L887.5912031047865,534.4631306597671" stroke="lavender" stroke-width="2" fill="none" />
<path d="M887.5912031047865,534.4631306597671 L887.5912031047865,546.7994825355756" stroke="lavender" stroke-width="2" fill="none" />
<path d="M887.5912031047865,546.7994825355756 L899.927554980595,546.7994825355756" stroke="lavender" stroke-width="2" fill="none" />
<path d="M887.5912031047865,435.77231565329885 L887.5912031047865,448.1086675291074" stroke="lavender" stroke-width="2" fill="none" />
<path d="M862.9184993531694,435.77231565329885 L887.5912031047865,435.77231565329885" stroke="lavender" stroke-width="2" fill="none" />
<path d="M862.9184993531694,534.4631306597671 L887.5912031047865,534.4631306597671" stroke="yellow" stroke-width="2" fill="none" />
<path d="M862.9184993531694,522.1267787839586 L887.5912031047865,522.1267787839586" stroke="yellow" stroke-width="2" fill="none" />
<path d="M862.9184993531694,509.79042690815004 L887.5912031047865,509.79042690815004" stroke="yellow" stroke-width="2" fill="none" />
<path d="M862.9184993531694,497.4540750323415 L887.5912031047865,497.4540750323415" stroke="yellow" stroke-width="2" fill="none" />
<path d="M862.9184993531694,485.117723156533 L887.5912031047865,485.117723156533" stroke="yellow" stroke-width="2" fill="none" />
<path d="M862.9184993531694,472.78137128072444 L887.5912031047865,472.78137128072444" stroke="yellow" stroke-width="2" fill="none" />
<path d="M862.9184993531694,460.4450194049159 L887.5912031047865,460.4450194049159" stroke="yellow" stroke-width="2" fill="none" />
<path d="M862.9184993531694,448.1086675291074 L887.5912031047865,448.1086675291074" stroke="yellow" stroke-width="2" fill="none" />
<path d="M887.5912031047865,448.1086675291074 L887.5912031047865,460.4450194049159" stroke="lavender" stroke-width="2" fill="none" />
<path d="M1171.327296248383,586.8926261319534 L1146.6545924967659,586.8926261319534" stroke="lavender" stroke-width="2" fill="none" />
<path d="M1158.9909443725742,435.77231565329885 L1134.318240620957,435.77231565329885" stroke="yellow" stroke-width="2" fill="none" />
<path d="M1183.6636481241912,435.77231565329885 L1158.9909443725742,435.77231565329885" stroke="yellow" stroke-width="2" fill="none" />
<path d="M1158.9909443725742,448.1086675291074 L1134.318240620957,448.1086675291074" stroke="yellow" stroke-width="2" fill="none" />
<path d="M1183.6636481241912,448.1086675291074 L1158.9909443725742,448.1086675291074" stroke="yellow" stroke-width="2" fill="none" />
<path d="M1158.9909443725742,460.4450194049159 L1134.318240620957,460.4450194049159" stroke="yellow" stroke-width="2" fill="none" />
<path d="M1183.6636481241912,460.4450194049159 L1158.9909443725742,460.4450194049159" stroke="yellow" stroke-width="2" fill="none" />
<path d="M1158.9909443725742,472.78137128072444 L1134.318240620957,472.78137128072444" stroke="lavender" stroke-width="2" fill="none" />
<path d="M1183.6636481241912,472.78137128072444 L1158.9909443725742,472.78137128072444" stroke="lavender" stroke-width="2" fill="none" />
<path d="M1158.9909443725742,485.117723156533 L1134.318240620957,485.117723156533" stroke="yellow" stroke-width="2" fill="none" />
<path d="M1183.6636481241912,485.117723156533 L1158.9909443725742,485.117723156533" stroke="yellow" stroke-width="2" fill="none" />
<path d="M1158.9909443725742,497.4540750323415 L1134.318240620957,497.4540750323415" stroke="yellow" stroke-width="2" fill="none" />
<path d="M1183.6636481241912,497.4540750323415 L1158.9909443725742,497.4540750323415" stroke="yellow" stroke-width="2" fill="none" />
<path d="M1158.9909443725742,509.79042690815004 L1134.318240620957,509.79042690815004" stroke="yellow" stroke-width="2" fill="none" />
<path d="M1183.6636481241912,509.79042690815004 L1158.9909443725742,509.79042690815004" stroke="yellow" stroke-width="2" fill="none" />
<path d="M1158.9909443725742,522.1267787839586 L1134.318240620957,522.1267787839586" stroke="lavender" stroke-width="2" fill="none" />
<path d="M1183.6636481241912,522.1267787839586 L1158.9909443725742,522.1267787839586" stroke="lavender" stroke-width="2" fill="none" />
<path d="M1158.9909443725742,522.1267787839586 L1158.9909443725742,509.79042690815004" stroke="yellow" stroke-width="2" fill="none" />
<path d="M1158.9909443725742,509.79042690815004 L1158.9909443725742,497.4540750323415" stroke="yellow" stroke-width="2" fill="none" />
<path d="M1158.9909443725742,497.4540750323415 L1158.9909443725742,485.117723156533" stroke="yellow" stroke-width="2" fill="none" />
<path d="M1158.9909443725742,485.117723156533 L1158.9909443725742,472.78137128072444" stroke="yellow" stroke-width="2" fill="none" />
<path d="M1158.9909443725742,472.78137128072444 L1158.9909443725742,460.4450194049159" stroke="yellow" stroke-width="2" fill="none" />
<path d="M1158.9909443725742,460.4450194049159 L1158.9909443725742,448.1086675291074" stroke="yellow" stroke-width="2" fill="none" />
<path d="M1158.9909443725742,448.1086675291074 L1158.9909443725742,435.77231565329885" stroke="yellow" stroke-width="2" fill="none" />
<path d="M1140.4864165588615,534.4631306597671 L1128.150064683053,534.4631306597671" stroke="lavender" stroke-width="2" fill="none" />
<path d="M1140.4864165588615,546.7994825355756 L1140.4864165588615,534.4631306597671" stroke="yellow" stroke-width="2" fill="none" />
<path d="M1140.4864165588615,559.1358344113842 L1140.4864165588615,546.7994825355756" stroke="yellow" stroke-width="2" fill="none" />
<path d="M1177.495472186287,559.1358344113842 L1140.4864165588615,559.1358344113842" stroke="yellow" stroke-width="2" fill="none" />
<path d="M1177.495472186287,546.7994825355756 L1177.495472186287,559.1358344113842" stroke="yellow" stroke-width="2" fill="none" />
<path d="M1177.495472186287,534.4631306597671 L1177.495472186287,546.7994825355756" stroke="yellow" stroke-width="2" fill="none" />
<path d="M1189.8318240620956,534.4631306597671 L1177.495472186287,534.4631306597671" stroke="lavender" stroke-width="2" fill="none" />
<path d="M1177.495472186287,534.4631306597671 L1140.4864165588615,534.4631306597671" stroke="lavender" stroke-width="2" fill="none" />
<path d="M1177.495472186287,546.7994825355756 L1140.4864165588615,546.7994825355756" stroke="yellow" stroke-width="2" fill="none" />
<path d="M48.71927554980596,525.2108667529108 L61.05562742561449,546.7994825355756" stroke="lavender" stroke-width="2" fill="none" />
<path d="M61.05562742561449,546.7994825355756 L61.05562742561449,571.4721862871927" stroke="lavender" stroke-width="2" fill="none" />
<path d="M61.05562742561449,571.4721862871927 L48.71927554980596,593.0608020698577" stroke="lavender" stroke-width="2" fill="none" />
<path d="M85.72833117723155,546.7994825355756 L85.72833117723155,571.4721862871927" stroke="yellow" stroke-width="2" fill="none" />
<path d="M25.588615782664988,583.8085381630012 L25.588615782664988,534.4631306597671" stroke="lavender" stroke-width="2" fill="none" />
<path d="M529.8369987063389,571.4721862871927 L529.8369987063389,411.0996119016817" stroke="yellow" stroke-width="2" fill="none" />
<path d="M690.2095730918498,411.0996119016817 L690.2095730918498,571.4721862871927" stroke="yellow" stroke-width="2" fill="none" />
<path d="M690.2095730918498,571.4721862871927 L529.8369987063389,571.4721862871927" stroke="yellow" stroke-width="2" fill="none" />
<path d="M542.1733505821475,559.1358344113842 L542.1733505821475,423.43596377749026" stroke="yellow" stroke-width="2" fill="none" />
<path d="M542.1733505821475,423.43596377749026 L677.8732212160413,423.43596377749026" stroke="yellow" stroke-width="2" fill="none" />
<path d="M677.8732212160413,423.43596377749026 L677.8732212160413,559.1358344113842" stroke="yellow" stroke-width="2" fill="none" />
<path d="M677.8732212160413,559.1358344113842 L542.1733505821475,559.1358344113842" stroke="yellow" stroke-width="2" fill="none" />
<path d="M554.509702457956,435.77231565329885 L665.5368693402328,435.77231565329885" stroke="yellow" stroke-width="2" fill="none" />
<path d="M665.5368693402328,435.77231565329885 L665.5368693402328,546.7994825355756" stroke="yellow" stroke-width="2" fill="none" />
<path d="M665.5368693402328,546.7994825355756 L554.509702457956,546.7994825355756" stroke="yellow" stroke-width="2" fill="none" />
<path d="M554.509702457956,546.7994825355756 L554.509702457956,435.77231565329885" stroke="yellow" stroke-width="2" fill="none" />
<path d="M529.8369987063389,411.0996119016817 L690.2095730918498,411.0996119016817" stroke="yellow" stroke-width="2" fill="none" />
<path d="M640.8641655886157,460.4450194049159 L579.1824062095731,460.4450194049159" stroke="yellow" stroke-width="2" fill="none" />
<path d="M640.8641655886157,522.1267787839586 L640.8641655886157,460.4450194049159" stroke="yellow" stroke-width="2" fill="none" />
<path d="M579.1824062095731,522.1267787839586 L640.8641655886157,522.1267787839586" stroke="yellow" stroke-width="2" fill="none" />
<path d="M579.1824062095731,460.4450194049159 L579.1824062095731,522.1267787839586" stroke="yellow" stroke-width="2" fill="none" />
<path d="M628.5278137128072,472.78137128072444 L591.5187580853816,472.78137128072444" stroke="yellow" stroke-width="2" fill="none" />
<path d="M591.5187580853816,472.78137128072444 L591.5187580853816,509.79042690815004" stroke="yellow" stroke-width="2" fill="none" />
<path d="M591.5187580853816,509.79042690815004 L628.5278137128072,509.79042690815004" stroke="yellow" stroke-width="2" fill="none" />
<path d="M628.5278137128072,509.79042690815004 L628.5278137128072,472.78137128072444" stroke="yellow" stroke-width="2" fill="none" />
<path d="M616.1914618369987,485.117723156533 L603.8551099611901,485.117723156533" stroke="yellow" stroke-width="2" fill="none" />
<path d="M603.8551099611901,485.117723156533 L603.8551099611901,497.4540750323415" stroke="yellow" stroke-width="2" fill="none" />
<path d="M603.8551099611901,497.4540750323415 L616.1914618369987,497.4540750323415" stroke="yellow" stroke-width="2" fill="none" />
<path d="M616.1914618369987,497.4540750323415 L616.1914618369987,485.117723156533" stroke="yellow" stroke-width="2" fill="none" />
<path d="M1146.6545924967659,589.9767141009055 L1171.327296248383,589.9767141009055" stroke="lavender" stroke-width="2" fill="none" />
<path d="M1183.6636481241912,608.4812419146183 L1183.6636481241912,620.8175937904268" stroke="lavender" stroke-width="2" fill="none" />
<path d="M246.10090556274253,731.8447606727037 L98.06468305304008,583.8085381630012" stroke="red" stroke-width="2" fill="none" />
<path d="M1121.9818887451488,423.43596377749026 L1121.9818887451488,583.8085381630012" stroke="red" stroke-width="2" fill="none" />
<path d="M1121.9818887451488,398.7632600258732 L1121.9818887451488,411.0996119016817" stroke="red" stroke-width="2" fill="none" />
<path d="M973.9456662354462,250.72703751617075 L1121.9818887451488,398.7632600258732" stroke="red" stroke-width="2" fill="none" />
<path d="M492.8279430789133,4.0 L727.2186287192754,4.0" stroke="red" stroke-width="2" fill="none" />
<path d="M98.06468305304008,398.7632600258732 L246.10090556274253,250.72703751617075" stroke="red" stroke-width="2" fill="none" />
<path d="M98.06468305304008,546.7994825355756 L98.06468305304008,398.7632600258732" stroke="red" stroke-width="2" fill="none" />
<path d="M594.6028460543337,324.74514877102195 L582.2664941785251,324.74514877102195" stroke="red" stroke-width="2" fill="none" />
<path d="M594.6028460543337,337.0815006468305 L594.6028460543337,324.74514877102195" stroke="red" stroke-width="2" fill="none" />
<path d="M582.2664941785251,337.0815006468305 L594.6028460543337,337.0815006468305" stroke="red" stroke-width="2" fill="none" />
<path d="M582.2664941785251,324.74514877102195 L582.2664941785251,337.0815006468305" stroke="red" stroke-width="2" fill="none" />
<path d="M637.7800776196636,324.74514877102195 L625.4437257438551,324.74514877102195" stroke="red" stroke-width="2" fill="none" />
<path d="M637.7800776196636,337.0815006468305 L637.7800776196636,324.74514877102195" stroke="red" stroke-width="2" fill="none" />
<path d="M625.4437257438551,337.0815006468305 L637.7800776196636,337.0815006468305" stroke="red" stroke-width="2" fill="none" />
<path d="M625.4437257438551,324.74514877102195 L625.4437257438551,337.0815006468305" stroke="red" stroke-width="2" fill="none" />
<path d="M485.117723156533,387.9689521345407 L477.4075032341526,395.67917205692106" stroke="red" stroke-width="2" fill="none" />
<path d="M494.3699870633893,397.22121604139716 L485.117723156533,387.9689521345407" stroke="red" stroke-width="2" fill="none" />
<path d="M486.659767141009,404.93143596377746 L494.3699870633893,397.22121604139716" stroke="red" stroke-width="2" fill="none" />
<path d="M477.4075032341526,395.67917205692106 L486.659767141009,404.93143596377746" stroke="red" stroke-width="2" fill="none" />
<path d="M515.9586028460543,357.12807244501937 L506.7063389391979,366.3803363518758" stroke="red" stroke-width="2" fill="none" />
<path d="M525.2108667529106,366.3803363518758 L515.9586028460543,357.12807244501937" stroke="red" stroke-width="2" fill="none" />
<path d="M515.9586028460543,375.63260025873217 L525.2108667529106,366.3803363518758" stroke="red" stroke-width="2" fill="none" />
<path d="M506.7063389391979,366.3803363518758 L515.9586028460543,375.63260025873217" stroke="red" stroke-width="2" fill="none" />
<path d="M455.8188874514877,475.8654592496766 L455.8188874514877,463.52910737386804" stroke="red" stroke-width="2" fill="none" />
<path d="M443.4825355756791,475.8654592496766 L455.8188874514877,475.8654592496766" stroke="red" stroke-width="2" fill="none" />
<path d="M443.4825355756791,463.52910737386804 L443.4825355756791,475.8654592496766" stroke="red" stroke-width="2" fill="none" />
<path d="M455.8188874514877,463.52910737386804 L443.4825355756791,463.52910737386804" stroke="red" stroke-width="2" fill="none" />
<path d="M455.8188874514877,519.0426908150065 L455.8188874514877,506.7063389391979" stroke="red" stroke-width="2" fill="none" />
<path d="M443.4825355756791,519.0426908150065 L455.8188874514877,519.0426908150065" stroke="red" stroke-width="2" fill="none" />
<path d="M443.4825355756791,506.7063389391979 L443.4825355756791,519.0426908150065" stroke="red" stroke-width="2" fill="none" />
<path d="M455.8188874514877,506.7063389391979 L443.4825355756791,506.7063389391979" stroke="red" stroke-width="2" fill="none" />
<path d="M776.5640362225097,475.8654592496766 L776.5640362225097,463.52910737386804" stroke="red" stroke-width="2" fill="none" />
<path d="M764.2276843467012,475.8654592496766 L776.5640362225097,475.8654592496766" stroke="red" stroke-width="2" fill="none" />
<path d="M764.2276843467012,463.52910737386804 L764.2276843467012,475.8654592496766" stroke="red" stroke-width="2" fill="none" />
<path d="M776.5640362225097,463.52910737386804 L764.2276843467012,463.52910737386804" stroke="red" stroke-width="2" fill="none" />
<path d="M776.5640362225097,519.0426908150065 L776.5640362225097,506.7063389391979" stroke="red" stroke-width="2" fill="none" />
<path d="M764.2276843467012,519.0426908150065 L776.5640362225097,519.0426908150065" stroke="red" stroke-width="2" fill="none" />
<path d="M764.2276843467012,506.7063389391979 L764.2276843467012,519.0426908150065" stroke="red" stroke-width="2" fill="none" />
<path d="M776.5640362225097,506.7063389391979 L764.2276843467012,506.7063389391979" stroke="red" stroke-width="2" fill="none" />
<path d="M713.3402328589909,366.3803363518758 L704.0879689521345,357.12807244501937" stroke="red" stroke-width="2" fill="none" />
<path d="M704.0879689521345,375.63260025873217 L713.3402328589909,366.3803363518758" stroke="red" stroke-width="2" fill="none" />
<path d="M694.835705045278,366.3803363518758 L704.0879689521345,375.63260025873217" stroke="red" stroke-width="2" fill="none" />
<path d="M704.0879689521345,357.12807244501937 L694.835705045278,366.3803363518758" stroke="red" stroke-width="2" fill="none" />
<path d="M742.6390685640362,395.67917205692106 L734.9288486416558,387.9689521345407" stroke="red" stroke-width="2" fill="none" />
<path d="M733.3868046571797,404.93143596377746 L742.6390685640362,395.67917205692106" stroke="red" stroke-width="2" fill="none" />
<path d="M725.6765847347995,397.22121604139716 L733.3868046571797,404.93143596377746" stroke="red" stroke-width="2" fill="none" />
<path d="M734.9288486416558,387.9689521345407 L725.6765847347995,397.22121604139716" stroke="red" stroke-width="2" fill="none" />
<path d="M468.1552393272962,645.4902975420439 L455.8188874514877,657.8266494178524" stroke="red" stroke-width="2" fill="none" />
<path d="M764.2276843467012,656.2846054333764 L751.8913324708926,645.4902975420439" stroke="red" stroke-width="2" fill="none" />
<path d="M455.8188874514877,324.74514877102195 L468.1552393272962,337.0815006468305" stroke="red" stroke-width="2" fill="none" />
<path d="M751.8913324708926,337.0815006468305 L764.2276843467012,324.74514877102195" stroke="red" stroke-width="2" fill="none" />
<path d="M751.8913324708926,645.4902975420439 L702.5459249676584,694.8357050452781" stroke="red" stroke-width="2" fill="none" />
<path d="M714.8822768434669,707.1720569210867 L764.2276843467012,656.2846054333764" stroke="red" stroke-width="2" fill="none" />
<path d="M702.5459249676584,694.8357050452781 L517.5006468305304,694.8357050452781" stroke="red" stroke-width="2" fill="none" />
<path d="M505.1642949547218,707.1720569210867 L714.8822768434669,707.1720569210867" stroke="red" stroke-width="2" fill="none" />
<path d="M517.5006468305304,694.8357050452781 L468.1552393272962,645.4902975420439" stroke="red" stroke-width="2" fill="none" />
<path d="M455.8188874514877,657.8266494178524 L505.1642949547218,707.1720569210867" stroke="red" stroke-width="2" fill="none" />
<path d="M505.1642949547218,275.3997412677878 L455.8188874514877,324.74514877102195" stroke="red" stroke-width="2" fill="none" />
<path d="M714.8822768434669,275.3997412677878 L505.1642949547218,275.3997412677878" stroke="red" stroke-width="2" fill="none" />
<path d="M764.2276843467012,324.74514877102195 L714.8822768434669,275.3997412677878" stroke="red" stroke-width="2" fill="none" />
<path d="M702.5459249676584,287.73609314359635 L751.8913324708926,337.0815006468305" stroke="red" stroke-width="2" fill="none" />
<path d="M517.5006468305304,287.73609314359635 L702.5459249676584,287.73609314359635" stroke="red" stroke-width="2" fill="none" />
<path d="M468.1552393272962,337.0815006468305 L517.5006468305304,287.73609314359635" stroke="red" stroke-width="2" fill="none" />
<path d="M455.8188874514877,793.5265200517464 L320.1190168175938,657.8266494178524" stroke="red" stroke-width="2" fill="none" />
<path d="M320.1190168175938,657.8266494178524 L320.1190168175938,324.74514877102195" stroke="red" stroke-width="2" fill="none" />
<path d="M320.1190168175938,324.74514877102195 L468.1552393272962,176.7089262613195" stroke="red" stroke-width="2" fill="none" />
<path d="M468.1552393272962,176.7089262613195 L418.80983182406203,127.36351875808538" stroke="red" stroke-width="2" fill="none" />
<path d="M443.4825355756791,176.7089262613195 L307.78266494178524,312.4087968952134" stroke="red" stroke-width="2" fill="none" />
<path d="M307.78266494178524,312.4087968952134 L307.78266494178524,670.163001293661" stroke="red" stroke-width="2" fill="none" />
<path d="M307.78266494178524,670.163001293661 L455.8188874514877,818.1992238033635" stroke="red" stroke-width="2" fill="none" />
<path d="M502.0802069857697,747.2652005174643 L455.8188874514877,793.5265200517464" stroke="red" stroke-width="2" fill="none" />
<path d="M801.2367399741267,127.36351875808538 L751.8913324708926,176.7089262613195" stroke="red" stroke-width="2" fill="none" />
<path d="M751.8913324708926,176.7089262613195 L899.927554980595,324.74514877102195" stroke="red" stroke-width="2" fill="none" />
<path d="M899.927554980595,546.7994825355756 L899.927554980595,657.8266494178524" stroke="red" stroke-width="2" fill="none" />
<path d="M899.927554980595,657.8266494178524 L764.2276843467012,793.5265200517464" stroke="red" stroke-width="2" fill="none" />
<path d="M764.2276843467012,818.1992238033635 L912.2639068564035,670.163001293661" stroke="red" stroke-width="2" fill="none" />
<path d="M912.2639068564035,670.163001293661 L912.2639068564035,546.7994825355756" stroke="red" stroke-width="2" fill="none" />
<path d="M912.2639068564035,312.4087968952134 L776.5640362225097,176.7089262613195" stroke="red" stroke-width="2" fill="none" />
<path d="M494.3699870633893,585.3505821474773 L485.117723156533,576.098318240621" stroke="red" stroke-width="2" fill="none" />
<path d="M485.117723156533,594.6028460543338 L494.3699870633893,585.3505821474773" stroke="red" stroke-width="2" fill="none" />
<path d="M475.8654592496765,585.3505821474773 L485.117723156533,594.6028460543338" stroke="red" stroke-width="2" fill="none" />
<path d="M485.117723156533,576.098318240621 L475.8654592496765,585.3505821474773" stroke="red" stroke-width="2" fill="none" />
<path d="M523.6688227684347,614.6494178525226 L515.9586028460543,606.9391979301423" stroke="red" stroke-width="2" fill="none" />
<path d="M514.4165588615782,623.901681759379 L523.6688227684347,614.6494178525226" stroke="red" stroke-width="2" fill="none" />
<path d="M506.7063389391979,616.1914618369987 L514.4165588615782,623.901681759379" stroke="red" stroke-width="2" fill="none" />
<path d="M515.9586028460543,606.9391979301423 L506.7063389391979,616.1914618369987" stroke="red" stroke-width="2" fill="none" />
<path d="M704.0879689521345,606.9391979301423 L696.3777490297541,614.6494178525226" stroke="red" stroke-width="2" fill="none" />
<path d="M713.3402328589909,616.1914618369987 L704.0879689521345,606.9391979301423" stroke="red" stroke-width="2" fill="none" />
<path d="M705.6300129366106,623.901681759379 L713.3402328589909,616.1914618369987" stroke="red" stroke-width="2" fill="none" />
<path d="M696.3777490297541,614.6494178525226 L705.6300129366106,623.901681759379" stroke="red" stroke-width="2" fill="none" />
<path d="M734.9288486416558,576.098318240621 L725.6765847347995,585.3505821474773" stroke="red" stroke-width="2" fill="none" />
<path d="M744.1811125485123,585.3505821474773 L734.9288486416558,576.098318240621" stroke="red" stroke-width="2" fill="none" />
<path d="M734.9288486416558,594.6028460543338 L744.1811125485123,585.3505821474773" stroke="red" stroke-width="2" fill="none" />
<path d="M725.6765847347995,585.3505821474773 L734.9288486416558,594.6028460543338" stroke="red" stroke-width="2" fill="none" />
<path d="M594.6028460543337,645.4902975420439 L582.2664941785251,645.4902975420439" stroke="red" stroke-width="2" fill="none" />
<path d="M594.6028460543337,657.8266494178524 L594.6028460543337,645.4902975420439" stroke="red" stroke-width="2" fill="none" />
<path d="M582.2664941785251,657.8266494178524 L594.6028460543337,657.8266494178524" stroke="red" stroke-width="2" fill="none" />
<path d="M582.2664941785251,645.4902975420439 L582.2664941785251,657.8266494178524" stroke="red" stroke-width="2" fill="none" />
<path d="M637.7800776196636,645.4902975420439 L625.4437257438551,645.4902975420439" stroke="red" stroke-width="2" fill="none" />
<path d="M637.7800776196636,657.8266494178524 L637.7800776196636,645.4902975420439" stroke="red" stroke-width="2" fill="none" />
<path d="M625.4437257438551,657.8266494178524 L637.7800776196636,657.8266494178524" stroke="red" stroke-width="2" fill="none" />
<path d="M625.4437257438551,645.4902975420439 L625.4437257438551,657.8266494178524" stroke="red" stroke-width="2" fill="none" />
<path d="M1121.9818887451488,411.0996119016817 L1126.6080206985769,411.0996119016817" stroke="red" stroke-width="2" fill="none" />
<path d="M1126.6080206985769,411.0996119016817 L1140.4864165588615,398.7632600258732" stroke="red" stroke-width="2" fill="none" />
<path d="M1140.4864165588615,398.7632600258732 L1177.495472186287,398.7632600258732" stroke="red" stroke-width="2" fill="none" />
<path d="M1177.495472186287,398.7632600258732 L1191.3738680465717,411.0996119016817" stroke="red" stroke-width="2" fill="none" />
<path d="M1191.3738680465717,411.0996119016817 L1191.3738680465717,423.43596377749026" stroke="red" stroke-width="2" fill="none" />
<path d="M1191.3738680465717,423.43596377749026 L1183.6636481241912,435.77231565329885" stroke="red" stroke-width="2" fill="none" />
<path d="M1134.318240620957,435.77231565329885 L1126.6080206985769,423.43596377749026" stroke="red" stroke-width="2" fill="none" />
<path d="M1126.6080206985769,423.43596377749026 L1121.9818887451488,423.43596377749026" stroke="red" stroke-width="2" fill="none" />
<path d="M912.2639068564035,546.7994825355756 L899.927554980595,546.7994825355756" stroke="red" stroke-width="2" fill="none" />
<path d="M862.9184993531694,411.0996119016817 L949.2729624838291,411.0996119016817" stroke="red" stroke-width="2" fill="none" />
<path d="M899.927554980595,324.74514877102195 L899.927554980595,408.0155239327296" stroke="red" stroke-width="2" fill="none" />
<path d="M912.2639068564035,408.0155239327296 L912.2639068564035,312.4087968952134" stroke="red" stroke-width="2" fill="none" />
<path d="M98.06468305304008,583.8085381630012 L98.06468305304008,571.4721862871927" stroke="red" stroke-width="2" fill="none" />
<path d="M94.98059508408801,546.7994825355756 L98.06468305304008,546.7994825355756" stroke="red" stroke-width="2" fill="none" />
<path d="M85.72833117723155,546.7994825355756 L94.98059508408801,546.7994825355756" stroke="red" stroke-width="2" fill="none" />
<path d="M94.98059508408801,571.4721862871927 L85.72833117723155,571.4721862871927" stroke="red" stroke-width="2" fill="none" />
<path d="M98.06468305304008,571.4721862871927 L94.98059508408801,571.4721862871927" stroke="red" stroke-width="2" fill="none" />
<path d="M1101.9353169469598,400.3053040103493 L1095.7671410090556,397.22121604139716" stroke="red" stroke-width="2" fill="none" />
<path d="M1095.7671410090556,397.22121604139716 L1089.5989650711513,409.5575679172057" stroke="red" stroke-width="2" fill="none" />
<path d="M1089.5989650711513,409.5575679172057 L1089.5989650711513,424.97800776196635" stroke="red" stroke-width="2" fill="none" />
<path d="M1089.5989650711513,424.97800776196635 L1095.7671410090556,437.3143596377749" stroke="red" stroke-width="2" fill="none" />
<path d="M1095.7671410090556,437.3143596377749 L1101.9353169469598,434.23027166882275" stroke="red" stroke-width="2" fill="none" />
<path d="M1101.9353169469598,434.23027166882275 L1097.3091849935317,424.97800776196635" stroke="red" stroke-width="2" fill="none" />
<path d="M1097.3091849935317,424.97800776196635 L1097.3091849935317,409.5575679172057" stroke="red" stroke-width="2" fill="none" />
<path d="M1097.3091849935317,409.5575679172057 L1101.9353169469598,400.3053040103493" stroke="red" stroke-width="2" fill="none" />
<path d="M124.27943078913324,537.5472186287193 L118.11125485122898,540.6313065976714" stroke="red" stroke-width="2" fill="none" />
<path d="M118.11125485122898,540.6313065976714 L122.73738680465715,549.8835705045278" stroke="red" stroke-width="2" fill="none" />
<path d="M122.73738680465715,549.8835705045278 L122.73738680465715,565.3040103492884" stroke="red" stroke-width="2" fill="none" />
<path d="M122.73738680465715,565.3040103492884 L118.11125485122898,574.5562742561449" stroke="red" stroke-width="2" fill="none" />
<path d="M118.11125485122898,574.5562742561449 L124.27943078913324,577.640362225097" stroke="red" stroke-width="2" fill="none" />
<path d="M124.27943078913324,577.640362225097 L130.4476067270375,565.3040103492884" stroke="red" stroke-width="2" fill="none" />
<path d="M130.4476067270375,565.3040103492884 L130.4476067270375,549.8835705045278" stroke="red" stroke-width="2" fill="none" />
<path d="M130.4476067270375,549.8835705045278 L124.27943078913324,537.5472186287193" stroke="red" stroke-width="2" fill="none" />
<path d="M776.5640362225097,176.7089262613195 L813.5730918499353,139.6998706338939" stroke="red" stroke-width="2" fill="none" />
<path d="M813.5730918499353,139.6998706338939 L801.2367399741267,127.36351875808538" stroke="red" stroke-width="2" fill="none" />
<path d="M406.4734799482535,139.6998706338939 L443.4825355756791,176.7089262613195" stroke="red" stroke-width="2" fill="none" />
<path d="M418.80983182406203,127.36351875808538 L406.4734799482535,139.6998706338939" stroke="red" stroke-width="2" fill="none" />
<path d="M455.8188874514877,818.1992238033635 L514.4165588615782,759.6015523932729" stroke="red" stroke-width="2" fill="none" />
<path d="M514.4165588615782,759.6015523932729 L502.0802069857697,747.2652005174643" stroke="red" stroke-width="2" fill="none" />
<path d="M283.1099611901681,694.8357050452781 L246.10090556274253,731.8447606727037" stroke="red" stroke-width="2" fill="none" />
<path d="M295.4463130659767,707.1720569210867 L283.1099611901681,694.8357050452781" stroke="red" stroke-width="2" fill="none" />
<path d="M258.43725743855106,744.1811125485123 L295.4463130659767,707.1720569210867" stroke="red" stroke-width="2" fill="none" />
<path d="M258.43725743855106,238.39068564036222 L492.8279430789133,4.0" stroke="red" stroke-width="2" fill="none" />
<path d="M246.10090556274253,250.72703751617075 L283.1099611901681,287.73609314359635" stroke="red" stroke-width="2" fill="none" />
<path d="M283.1099611901681,287.73609314359635 L295.4463130659767,275.3997412677878" stroke="red" stroke-width="2" fill="none" />
<path d="M295.4463130659767,275.3997412677878 L258.43725743855106,238.39068564036222" stroke="red" stroke-width="2" fill="none" />
<path d="M727.2186287192754,4.0 L961.6093143596377,238.39068564036222" stroke="red" stroke-width="2" fill="none" />
<path d="M961.6093143596377,238.39068564036222 L924.6002587322121,275.3997412677878" stroke="red" stroke-width="2" fill="none" />
<path d="M924.6002587322121,275.3997412677878 L936.9366106080206,287.73609314359635" stroke="red" stroke-width="2" fill="none" />
<path d="M936.9366106080206,287.73609314359635 L973.9456662354462,250.72703751617075" stroke="red" stroke-width="2" fill="none" />
<path d="M492.8279430789133,978.5717981888745 L258.43725743855106,744.1811125485123" stroke="red" stroke-width="2" fill="none" />
<path d="M764.2276843467012,793.5265200517464 L717.9663648124191,747.2652005174643" stroke="red" stroke-width="2" fill="none" />
<path d="M961.6093143596377,744.1811125485123 L727.2186287192754,978.5717981888745" stroke="red" stroke-width="2" fill="none" />
<path d="M705.6300129366106,759.6015523932729 L764.2276843467012,818.1992238033635" stroke="red" stroke-width="2" fill="none" />
<path d="M717.9663648124191,747.2652005174643 L705.6300129366106,759.6015523932729" stroke="red" stroke-width="2" fill="none" />
<path d="M727.2186287192754,978.5717981888745 L492.8279430789133,978.5717981888745" stroke="red" stroke-width="2" fill="none" />
<path d="M1121.9818887451488,583.8085381630012 L973.9456662354462,731.8447606727037" stroke="red" stroke-width="2" fill="none" />
<path d="M973.9456662354462,731.8447606727037 L936.9366106080206,694.8357050452781" stroke="red" stroke-width="2" fill="none" />
<path d="M936.9366106080206,694.8357050452781 L924.6002587322121,707.1720569210867" stroke="red" stroke-width="2" fill="none" />
<path d="M924.6002587322121,707.1720569210867 L961.6093143596377,744.1811125485123" stroke="red" stroke-width="2" fill="none" />
<path d="M899.927554980595,408.0155239327296 L859.8344113842172,408.0155239327296" stroke="red" stroke-width="2" fill="none" />
<path d="M859.8344113842172,408.0155239327296 L859.8344113842172,534.4631306597671" stroke="red" stroke-width="2" fill="none" />
<path d="M859.8344113842172,534.4631306597671 L862.9184993531694,534.4631306597671" stroke="red" stroke-width="2" fill="none" />
<path d="M862.9184993531694,435.77231565329885 L862.9184993531694,411.0996119016817" stroke="red" stroke-width="2" fill="none" />
<path d="M862.9184993531694,448.1086675291074 L862.9184993531694,435.77231565329885" stroke="red" stroke-width="2" fill="none" />
<path d="M862.9184993531694,460.4450194049159 L862.9184993531694,448.1086675291074" stroke="red" stroke-width="2" fill="none" />
<path d="M862.9184993531694,472.78137128072444 L862.9184993531694,460.4450194049159" stroke="red" stroke-width="2" fill="none" />
<path d="M862.9184993531694,485.117723156533 L862.9184993531694,472.78137128072444" stroke="red" stroke-width="2" fill="none" />
<path d="M862.9184993531694,497.4540750323415 L862.9184993531694,485.117723156533" stroke="red" stroke-width="2" fill="none" />
<path d="M862.9184993531694,509.79042690815004 L862.9184993531694,497.4540750323415" stroke="red" stroke-width="2" fill="none" />
<path d="M862.9184993531694,522.1267787839586 L862.9184993531694,509.79042690815004" stroke="red" stroke-width="2" fill="none" />
<path d="M862.9184993531694,534.4631306597671 L862.9184993531694,522.1267787839586" stroke="red" stroke-width="2" fill="none" />
<path d="M949.2729624838291,411.0996119016817 L949.2729624838291,435.77231565329885" stroke="red" stroke-width="2" fill="none" />
<path d="M949.2729624838291,485.117723156533 L949.2729624838291,497.4540750323415" stroke="red" stroke-width="2" fill="none" />
<path d="M949.2729624838291,472.78137128072444 L949.2729624838291,485.117723156533" stroke="red" stroke-width="2" fill="none" />
<path d="M949.2729624838291,460.4450194049159 L949.2729624838291,472.78137128072444" stroke="red" stroke-width="2" fill="none" />
<path d="M949.2729624838291,448.1086675291074 L949.2729624838291,460.4450194049159" stroke="red" stroke-width="2" fill="none" />
<path d="M949.2729624838291,435.77231565329885 L949.2729624838291,448.1086675291074" stroke="red" stroke-width="2" fill="none" />
<path d="M949.2729624838291,522.1267787839586 L949.2729624838291,534.4631306597671" stroke="red" stroke-width="2" fill="none" />
<path d="M949.2729624838291,509.79042690815004 L949.2729624838291,522.1267787839586" stroke="red" stroke-width="2" fill="none" />
<path d="M949.2729624838291,497.4540750323415 L949.2729624838291,509.79042690815004" stroke="red" stroke-width="2" fill="none" />
<path d="M949.2729624838291,534.4631306597671 L949.2729624838291,546.7994825355756" stroke="red" stroke-width="2" fill="none" />
<path d="M952.3570504527813,408.0155239327296 L912.2639068564035,408.0155239327296" stroke="red" stroke-width="2" fill="none" />
<path d="M952.3570504527813,546.7994825355756 L952.3570504527813,408.0155239327296" stroke="red" stroke-width="2" fill="none" />
<path d="M949.2729624838291,546.7994825355756 L952.3570504527813,546.7994825355756" stroke="red" stroke-width="2" fill="none" />
<path d="M1183.6636481241912,435.77231565329885 L1183.6636481241912,448.1086675291074" stroke="red" stroke-width="2" fill="none" />
<path d="M1183.6636481241912,448.1086675291074 L1183.6636481241912,460.4450194049159" stroke="red" stroke-width="2" fill="none" />
<path d="M1183.6636481241912,460.4450194049159 L1183.6636481241912,472.78137128072444" stroke="red" stroke-width="2" fill="none" />
<path d="M1183.6636481241912,472.78137128072444 L1183.6636481241912,485.117723156533" stroke="red" stroke-width="2" fill="none" />
<path d="M1183.6636481241912,485.117723156533 L1183.6636481241912,497.4540750323415" stroke="red" stroke-width="2" fill="none" />
<path d="M1183.6636481241912,497.4540750323415 L1183.6636481241912,509.79042690815004" stroke="red" stroke-width="2" fill="none" />
<path d="M1183.6636481241912,509.79042690815004 L1183.6636481241912,522.1267787839586" stroke="red" stroke-width="2" fill="none" />
<path d="M1183.6636481241912,522.1267787839586 L1189.8318240620956,534.4631306597671" stroke="red" stroke-width="2" fill="none" />
<path d="M1189.8318240620956,571.4721862871927 L1171.327296248383,586.8926261319534" stroke="red" stroke-width="2" fill="none" />
<path d="M1146.6545924967659,586.8926261319534 L1128.150064683053,571.4721862871927" stroke="red" stroke-width="2" fill="none" />
<path d="M1128.150064683053,534.4631306597671 L1134.318240620957,522.1267787839586" stroke="red" stroke-width="2" fill="none" />
<path d="M1134.318240620957,522.1267787839586 L1134.318240620957,509.79042690815004" stroke="red" stroke-width="2" fill="none" />
<path d="M1134.318240620957,509.79042690815004 L1134.318240620957,497.4540750323415" stroke="red" stroke-width="2" fill="none" />
<path d="M1134.318240620957,497.4540750323415 L1134.318240620957,485.117723156533" stroke="red" stroke-width="2" fill="none" />
<path d="M1134.318240620957,485.117723156533 L1134.318240620957,472.78137128072444" stroke="red" stroke-width="2" fill="none" />
<path d="M1134.318240620957,472.78137128072444 L1134.318240620957,460.4450194049159" stroke="red" stroke-width="2" fill="none" />
<path d="M1134.318240620957,460.4450194049159 L1134.318240620957,448.1086675291074" stroke="red" stroke-width="2" fill="none" />
<path d="M1134.318240620957,448.1086675291074 L1134.318240620957,435.77231565329885" stroke="red" stroke-width="2" fill="none" />
<path d="M1189.8318240620956,534.4631306597671 L1189.8318240620956,571.4721862871927" stroke="red" stroke-width="2" fill="none" />
<path d="M1128.150064683053,571.4721862871927 L1128.150064683053,534.4631306597671" stroke="red" stroke-width="2" fill="none" />
<path d="M85.72833117723155,571.4721862871927 L73.39197930142302,593.0608020698577" stroke="red" stroke-width="2" fill="none" />
<path d="M73.39197930142302,593.0608020698577 L48.71927554980596,593.0608020698577" stroke="red" stroke-width="2" fill="none" />
<path d="M48.71927554980596,593.0608020698577 L25.588615782664988,583.8085381630012" stroke="red" stroke-width="2" fill="none" />
<path d="M25.588615782664988,583.8085381630012 L4.0,571.4721862871927" stroke="red" stroke-width="2" fill="none" />
<path d="M4.0,546.7994825355756 L25.588615782664988,534.4631306597671" stroke="red" stroke-width="2" fill="none" />
<path d="M25.588615782664988,534.4631306597671 L48.71927554980596,525.2108667529108" stroke="red" stroke-width="2" fill="none" />
<path d="M48.71927554980596,525.2108667529108 L73.39197930142302,525.2108667529108" stroke="red" stroke-width="2" fill="none" />
<path d="M73.39197930142302,525.2108667529108 L85.72833117723155,546.7994825355756" stroke="red" stroke-width="2" fill="none" />
<path d="M4.0,571.4721862871927 L4.0,546.7994825355756" stroke="red" stroke-width="2" fill="none" />
<path d="M1146.6545924967659,589.9767141009055 L1146.6545924967659,586.8926261319534" stroke="red" stroke-width="2" fill="none" />
<path d="M1171.327296248383,586.8926261319534 L1171.327296248383,589.9767141009055" stroke="red" stroke-width="2" fill="none" />
<path d="M1171.327296248383,589.9767141009055 L1183.6636481241912,608.4812419146183" stroke="red" stroke-width="2" fill="none" />
<path d="M1183.6636481241912,608.4812419146183 L1196.0,608.4812419146183" stroke="red" stroke-width="2" fill="none" />
<path d="M1196.0,608.4812419146183 L1196.0,620.8175937904268" stroke="red" stroke-width="2" fill="none" />
<path d="M1196.0,620.8175937904268 L1183.6636481241912,620.8175937904268" stroke="red" stroke-width="2" fill="none" />
<path d="M1183.6636481241912,620.8175937904268 L1171.327296248383,633.1539456662354" stroke="red" stroke-width="2" fill="none" />
<path d="M1171.327296248383,633.1539456662354 L1145.1125485122898,633.1539456662354" stroke="red" stroke-width="2" fill="none" />
<path d="M1145.1125485122898,633.1539456662354 L1134.318240620957,620.8175937904268" stroke="red" stroke-width="2" fill="none" />
<path d="M1134.318240620957,620.8175937904268 L1146.6545924967659,589.9767141009055" stroke="red" stroke-width="2" fill="none" />
</svg>