<?xml version="1.0" encoding="UTF-8"?>
<svg xmlns="http://www.w3.org/2000/svg" xmlns:xlink="http://www.w3.org/1999/xlink"
     width="1200" height="1815" viewBox="0 0 1200 1815">
<defs>
</defs>
<path d="M460.51063829787233,1658.851063829787 L409.78723404255317,1570.0851063829787" stroke="yellow" stroke-width="1" fill="none" />
<path d="M409.78723404255317,1570.0851063829787 L460.51063829787233,1481.3191489361702" stroke="yellow" stroke-width="1" fill="none" />
<path d="M460.51063829787233,1430.5957446808509 L511.23404255319144,1430.5957446808509" stroke="yellow" stroke-width="1" fill="none" />
<path d="M460.51063829787233,1481.3191489361702 L460.51063829787233,1430.5957446808509" stroke="yellow" stroke-width="1" fill="none" />
<path d="M511.23404255319144,1430.5957446808509 L600.0,1379.8723404255318" stroke="yellow" stroke-width="1" fill="none" />
<path d="M600.0,1379.8723404255318 L688.7659574468084,1430.5957446808509" stroke="yellow" stroke-width="1" fill="none" />
<path d="M739.4893617021276,1430.5957446808509 L739.4893617021276,1481.3191489361702" stroke="yellow" stroke-width="1" fill="none" />
<path d="M688.7659574468084,1430.5957446808509 L739.4893617021276,1430.5957446808509" stroke="yellow" stroke-width="1" fill="none" />
<path d="M790.2127659574468,1570.0851063829787 L739.4893617021276,1658.851063829787" stroke="yellow" stroke-width="1" fill="none" />
<path d="M739.4893617021276,1481.3191489361702 L790.2127659574468,1570.0851063829787" stroke="yellow" stroke-width="1" fill="none" />
<path d="M739.4893617021276,1658.851063829787 L739.4893617021276,1709.5744680851062" stroke="yellow" stroke-width="1" fill="none" />
<path d="M460.51063829787233,1709.5744680851062 L460.51063829787233,1658.851063829787" stroke="yellow" stroke-width="1" fill="none" />
<path d="M612.6808510638298,1532.0425531914893 L600.0,1509.851063829787" stroke="yellow" stroke-width="1" fill="none" />
<path d="M638.0425531914893,1532.0425531914893 L612.6808510638298,1532.0425531914893" stroke="yellow" stroke-width="1" fill="none" />
<path d="M638.0425531914893,1557.404255319149 L638.0425531914893,1532.0425531914893" stroke="yellow" stroke-width="1" fill="none" />
<path d="M660.2340425531914,1570.0851063829787 L638.0425531914893,1557.404255319149" stroke="yellow" stroke-width="1" fill="none" />
<path d="M638.0425531914893,1582.7659574468084 L660.2340425531914,1570.0851063829787" stroke="yellow" stroke-width="1" fill="none" />
<path d="M638.0425531914893,1608.127659574468 L638.0425531914893,1582.7659574468084" stroke="yellow" stroke-width="1" fill="none" />
<path d="M612.6808510638298,1608.127659574468 L638.0425531914893,1608.127659574468" stroke="yellow" stroke-width="1" fill="none" />
<path d="M600.0,1630.31914893617 L612.6808510638298,1608.127659574468" stroke="yellow" stroke-width="1" fill="none" />
<path d="M587.3191489361702,1608.127659574468 L600.0,1630.31914893617" stroke="yellow" stroke-width="1" fill="none" />
<path d="M561.9574468085107,1608.127659574468 L587.3191489361702,1608.127659574468" stroke="yellow" stroke-width="1" fill="none" />
<path d="M561.9574468085107,1582.7659574468084 L561.9574468085107,1608.127659574468" stroke="yellow" stroke-width="1" fill="none" />
<path d="M539.7659574468084,1570.0851063829787 L561.9574468085107,1582.7659574468084" stroke="yellow" stroke-width="1" fill="none" />
<path d="M561.9574468085107,1557.404255319149 L539.7659574468084,1570.0851063829787" stroke="yellow" stroke-width="1" fill="none" />
<path d="M561.9574468085107,1532.0425531914893 L561.9574468085107,1557.404255319149" stroke="yellow" stroke-width="1" fill="none" />
<path d="M587.3191489361702,1532.0425531914893 L561.9574468085107,1532.0425531914893" stroke="yellow" stroke-width="1" fill="none" />
<path d="M600.0,1509.851063829787 L587.3191489361702,1532.0425531914893" stroke="yellow" stroke-width="1" fill="none" />
<path d="M790.2127659574468,1734.9361702127658 L764.8510638297871,1734.9361702127658" stroke="lavender" stroke-width="1" fill="none" />
<path d="M764.8510638297871,1734.9361702127658 L764.8510638297871,1760.2978723404253" stroke="lavender" stroke-width="1" fill="none" />
<path d="M435.1489361702127,1760.2978723404253 L435.1489361702127,1734.9361702127658" stroke="lavender" stroke-width="1" fill="none" />
<path d="M435.1489361702127,1734.9361702127658 L409.78723404255317,1734.9361702127658" stroke="lavender" stroke-width="1" fill="none" />
<path d="M409.78723404255317,1405.2340425531913 L435.1489361702127,1405.2340425531913" stroke="lavender" stroke-width="1" fill="none" />
<path d="M435.1489361702127,1405.2340425531913 L435.1489361702127,1379.8723404255318" stroke="lavender" stroke-width="1" fill="none" />
<path d="M764.8510638297871,1379.8723404255318 L764.8510638297871,1405.2340425531913" stroke="lavender" stroke-width="1" fill="none" />
<path d="M764.8510638297871,1405.2340425531913 L790.2127659574468,1405.2340425531913" stroke="lavender" stroke-width="1" fill="none" />
<path d="M891.6595744680851,1760.2978723404253 L866.2978723404256,1760.2978723404253" stroke="lavender" stroke-width="1" fill="none" />
<path d="M898.0,1639.8297872340424 L859.9574468085107,1639.8297872340424" stroke="lavender" stroke-width="1" fill="none" />
<path d="M898.0,1665.191489361702 L859.9574468085107,1665.191489361702" stroke="lavender" stroke-width="1" fill="none" />
<path d="M282.97872340425533,1411.5744680851062 L260.78723404255317,1494.0" stroke="lavender" stroke-width="1" fill="none" />
<path d="M359.063829787234,1411.5744680851062 L282.97872340425533,1411.5744680851062" stroke="lavender" stroke-width="1" fill="none" />
<path d="M381.25531914893617,1494.0 L359.063829787234,1411.5744680851062" stroke="lavender" stroke-width="1" fill="none" />
<path d="M308.3404255319149,1506.6808510638298 L302.0,1452.7872340425529" stroke="lavender" stroke-width="1" fill="none" />
<path d="M302.0,1452.7872340425529 L340.04255319148933,1452.7872340425529" stroke="lavender" stroke-width="1" fill="none" />
<path d="M340.04255319148933,1452.7872340425529 L333.70212765957444,1506.6808510638298" stroke="lavender" stroke-width="1" fill="none" />
<path d="M333.70212765957444,1506.6808510638298 L308.3404255319149,1506.6808510638298" stroke="lavender" stroke-width="1" fill="none" />
<path d="M248.1063829787234,1592.2765957446807 L270.29787234042556,1665.191489361702" stroke="lavender" stroke-width="1" fill="none" />
<path d="M270.29787234042556,1665.191489361702 L302.0,1665.191489361702" stroke="lavender" stroke-width="1" fill="none" />
<path d="M302.0,1665.191489361702 L324.1914893617021,1592.2765957446807" stroke="lavender" stroke-width="1" fill="none" />
<path d="M273.468085106383,1592.2765957446807 L279.8085106382979,1620.8085106382978" stroke="yellow" stroke-width="1" fill="none" />
<path d="M279.8085106382979,1620.8085106382978 L292.48936170212767,1620.8085106382978" stroke="yellow" stroke-width="1" fill="none" />
<path d="M292.48936170212767,1620.8085106382978 L298.82978723404256,1592.2765957446807" stroke="yellow" stroke-width="1" fill="none" />
<path d="M279.8085106382979,1772.978723404255 L273.468085106383,1801.5106382978722" stroke="yellow" stroke-width="1" fill="none" />
<path d="M292.48936170212767,1772.978723404255 L279.8085106382979,1772.978723404255" stroke="yellow" stroke-width="1" fill="none" />
<path d="M298.82978723404256,1801.5106382978722 L292.48936170212767,1772.978723404255" stroke="yellow" stroke-width="1" fill="none" />
<path d="M324.1914893617021,1801.5106382978722 L302.0,1728.5957446808509" stroke="lavender" stroke-width="1" fill="none" />
<path d="M302.0,1728.5957446808509 L270.29787234042556,1728.5957446808509" stroke="lavender" stroke-width="1" fill="none" />
<path d="M270.29787234042556,1728.5957446808509 L248.1063829787234,1801.5106382978722" stroke="lavender" stroke-width="1" fill="none" />
<path d="M225.91489361702125,1728.5957446808509 L225.91489361702125,1665.191489361702" stroke="yellow" stroke-width="1" fill="none" />
<path d="M200.5531914893617,1665.191489361702 L200.5531914893617,1728.5957446808509" stroke="yellow" stroke-width="1" fill="none" />
<path d="M149.82978723404256,1728.5957446808509 L149.82978723404256,1665.191489361702" stroke="yellow" stroke-width="1" fill="none" />
<path d="M124.46808510638294,1665.191489361702 L124.46808510638294,1728.5957446808509" stroke="lavender" stroke-width="1" fill="none" />
<path d="M54.72340425531917,1709.5744680851062 L54.72340425531917,1684.2127659574467" stroke="lavender" stroke-width="1" fill="none" />
<path d="M612.6808510638298,289.3191489361702 L587.3191489361702,289.3191489361702" stroke="yellow" stroke-width="1" fill="none" />
<path d="M612.6808510638298,390.76595744680844 L612.6808510638298,289.3191489361702" stroke="yellow" stroke-width="1" fill="none" />
<path d="M638.0425531914893,390.76595744680844 L612.6808510638298,390.76595744680844" stroke="yellow" stroke-width="1" fill="none" />
<path d="M638.0425531914893,314.6808510638298 L638.0425531914893,390.76595744680844" stroke="yellow" stroke-width="1" fill="none" />
<path d="M663.4042553191489,314.6808510638298 L638.0425531914893,314.6808510638298" stroke="yellow" stroke-width="1" fill="none" />
<path d="M663.4042553191489,416.127659574468 L663.4042553191489,314.6808510638298" stroke="yellow" stroke-width="1" fill="none" />
<path d="M612.6808510638298,416.127659574468 L663.4042553191489,416.127659574468" stroke="yellow" stroke-width="1" fill="none" />
<path d="M612.6808510638298,568.2978723404253 L612.6808510638298,416.127659574468" stroke="yellow" stroke-width="1" fill="none" />
<path d="M587.3191489361702,568.2978723404253 L612.6808510638298,568.2978723404253" stroke="yellow" stroke-width="1" fill="none" />
<path d="M587.3191489361702,416.127659574468 L587.3191489361702,568.2978723404253" stroke="yellow" stroke-width="1" fill="none" />
<path d="M536.595744680851,416.127659574468 L587.3191489361702,416.127659574468" stroke="yellow" stroke-width="1" fill="none" />
<path d="M536.595744680851,314.6808510638298 L536.595744680851,416.127659574468" stroke="yellow" stroke-width="1" fill="none" />
<path d="M561.9574468085107,314.6808510638298 L536.595744680851,314.6808510638298" stroke="yellow" stroke-width="1" fill="none" />
<path d="M561.9574468085107,390.76595744680844 L561.9574468085107,314.6808510638298" stroke="yellow" stroke-width="1" fill="none" />
<path d="M587.3191489361702,390.76595744680844 L561.9574468085107,390.76595744680844" stroke="yellow" stroke-width="1" fill="none" />
<path d="M587.3191489361702,289.3191489361702 L587.3191489361702,390.76595744680844" stroke="yellow" stroke-width="1" fill="none" />
<path d="M435.1489361702127,263.95744680851067 L511.23404255319144,187.87234042553177" stroke="yellow" stroke-width="1" fill="none" />
<path d="M511.23404255319144,187.87234042553177 L688.7659574468084,187.87234042553177" stroke="yellow" stroke-width="1" fill="none" />
<path d="M688.7659574468084,187.87234042553177 L764.8510638297871,263.95744680851067" stroke="yellow" stroke-width="1" fill="none" />
<path d="M764.8510638297871,263.95744680851067 L764.8510638297871,593.6595744680851" stroke="yellow" stroke-width="1" fill="none" />
<path d="M764.8510638297871,593.6595744680851 L688.7659574468084,669.7446808510638" stroke="yellow" stroke-width="1" fill="none" />
<path d="M688.7659574468084,669.7446808510638 L511.23404255319144,669.7446808510638" stroke="yellow" stroke-width="1" fill="none" />
<path d="M511.23404255319144,669.7446808510638 L435.1489361702127,593.6595744680851" stroke="yellow" stroke-width="1" fill="none" />
<path d="M435.1489361702127,593.6595744680851 L435.1489361702127,263.95744680851067" stroke="yellow" stroke-width="1" fill="none" />
<path d="M790.2127659574468,1430.5957446808509 L790.2127659574468,1455.9574468085104" stroke="lavender" stroke-width="1" fill="none" />
<path d="M796.5531914893617,1455.9574468085104 L796.5531914893617,1430.5957446808509" stroke="lavender" stroke-width="1" fill="none" />
<path d="M409.78723404255317,1100.8936170212764 L409.78723404255317,1275.255319148936" stroke="yellow" stroke-width="1" fill="none" />
<path d="M435.1489361702127,1056.5106382978722 L409.78723404255317,1100.8936170212764" stroke="yellow" stroke-width="1" fill="none" />
<path d="M764.8510638297871,1056.5106382978722 L714.127659574468,1056.5106382978722" stroke="yellow" stroke-width="1" fill="none" />
<path d="M790.2127659574468,1100.8936170212764 L764.8510638297871,1056.5106382978722" stroke="yellow" stroke-width="1" fill="none" />
<path d="M790.2127659574468,1275.255319148936 L790.2127659574468,1100.8936170212764" stroke="yellow" stroke-width="1" fill="none" />
<path d="M485.8723404255319,1056.5106382978722 L435.1489361702127,1056.5106382978722" stroke="yellow" stroke-width="1" fill="none" />
<path d="M714.127659574468,1056.5106382978722 L485.8723404255319,1056.5106382978722" stroke="yellow" stroke-width="1" fill="none" />
<path d="M460.51063829787233,1138.9361702127658 L460.51063829787233,1253.0638297872338" stroke="yellow" stroke-width="1" fill="none" />
<path d="M435.1489361702127,1138.9361702127658 L460.51063829787233,1138.9361702127658" stroke="yellow" stroke-width="1" fill="none" />
<path d="M435.1489361702127,1075.5319148936169 L435.1489361702127,1138.9361702127658" stroke="yellow" stroke-width="1" fill="none" />
<path d="M498.55319148936167,1075.5319148936169 L435.1489361702127,1075.5319148936169" stroke="yellow" stroke-width="1" fill="none" />
<path d="M498.55319148936167,1100.8936170212764 L498.55319148936167,1075.5319148936169" stroke="yellow" stroke-width="1" fill="none" />
<path d="M701.4468085106382,1100.8936170212764 L498.55319148936167,1100.8936170212764" stroke="yellow" stroke-width="1" fill="none" />
<path d="M701.4468085106382,1075.5319148936169 L701.4468085106382,1100.8936170212764" stroke="yellow" stroke-width="1" fill="none" />
<path d="M764.8510638297871,1075.5319148936169 L701.4468085106382,1075.5319148936169" stroke="yellow" stroke-width="1" fill="none" />
<path d="M764.8510638297871,1138.9361702127658 L764.8510638297871,1075.5319148936169" stroke="yellow" stroke-width="1" fill="none" />
<path d="M739.4893617021276,1138.9361702127658 L764.8510638297871,1138.9361702127658" stroke="yellow" stroke-width="1" fill="none" />
<path d="M663.4042553191489,1113.5744680851062 L536.595744680851,1113.5744680851062" stroke="yellow" stroke-width="1" fill="none" />
<path d="M536.595744680851,1126.255319148936 L663.4042553191489,1126.255319148936" stroke="yellow" stroke-width="1" fill="none" />
<path d="M561.9574468085107,1253.0638297872338 L638.0425531914893,1253.0638297872338" stroke="lavender" stroke-width="1" fill="none" />
<path d="M638.0425531914893,1253.0638297872338 L638.0425531914893,1176.978723404255" stroke="lavender" stroke-width="1" fill="none" />
<path d="M638.0425531914893,1176.978723404255 L561.9574468085107,1176.978723404255" stroke="lavender" stroke-width="1" fill="none" />
<path d="M561.9574468085107,1176.978723404255 L561.9574468085107,1253.0638297872338" stroke="lavender" stroke-width="1" fill="none" />
<path d="M777.531914893617,1275.255319148936 L752.1702127659573,1275.255319148936" stroke="lavender" stroke-width="1" fill="none" />
<path d="M752.1702127659573,1281.5957446808509 L777.531914893617,1281.5957446808509" stroke="lavender" stroke-width="1" fill="none" />
<path d="M764.8510638297871,1329.1489361702127 L739.4893617021276,1329.1489361702127" stroke="lavender" stroke-width="1" fill="none" />
<path d="M447.82978723404256,1275.255319148936 L422.46808510638294,1275.255319148936" stroke="lavender" stroke-width="1" fill="none" />
<path d="M422.46808510638294,1281.5957446808509 L447.82978723404256,1281.5957446808509" stroke="lavender" stroke-width="1" fill="none" />
<path d="M435.1489361702127,1329.1489361702127 L409.78723404255317,1329.1489361702127" stroke="lavender" stroke-width="1" fill="none" />
<path d="M460.51063829787233,1253.0638297872338 L422.46808510638294,1253.0638297872338" stroke="yellow" stroke-width="1" fill="none" />
<path d="M422.46808510638294,1253.0638297872338 L422.46808510638294,1275.255319148936" stroke="yellow" stroke-width="1" fill="none" />
<path d="M739.4893617021276,1253.0638297872338 L739.4893617021276,1138.9361702127658" stroke="yellow" stroke-width="1" fill="none" />
<path d="M777.531914893617,1253.0638297872338 L739.4893617021276,1253.0638297872338" stroke="yellow" stroke-width="1" fill="none" />
<path d="M777.531914893617,1275.255319148936 L777.531914893617,1253.0638297872338" stroke="yellow" stroke-width="1" fill="none" />
<path d="M279.8085106382979,1592.2765957446807 L292.48936170212767,1592.2765957446807" stroke="yellow" stroke-width="1" fill="none" />
<path d="M292.48936170212767,1801.5106382978722 L279.8085106382979,1801.5106382978722" stroke="yellow" stroke-width="1" fill="none" />
<path d="M739.4893617021276,1709.5744680851062 L688.7659574468084,1709.5744680851062" stroke="yellow" stroke-width="1" fill="none" />
<path d="M688.7659574468084,1709.5744680851062 L600.0,1760.2978723404253" stroke="yellow" stroke-width="1" fill="none" />
<path d="M600.0,1760.2978723404253 L511.23404255319144,1709.5744680851062" stroke="yellow" stroke-width="1" fill="none" />
<path d="M511.23404255319144,1709.5744680851062 L460.51063829787233,1709.5744680851062" stroke="yellow" stroke-width="1" fill="none" />
<path d="M587.3191489361702,416.127659574468 L612.6808510638298,416.127659574468" stroke="yellow" stroke-width="1" fill="none" />
<path d="M612.6808510638298,416.127659574468 L612.6808510638298,390.76595744680844" stroke="yellow" stroke-width="1" fill="none" />
<path d="M612.6808510638298,390.76595744680844 L587.3191489361702,390.76595744680844" stroke="yellow" stroke-width="1" fill="none" />
<path d="M587.3191489361702,390.76595744680844 L587.3191489361702,416.127659574468" stroke="yellow" stroke-width="1" fill="none" />
<path d="M54.72340425531917,517.5744680851062 L80.08510638297872,517.5744680851062" stroke="yellow" stroke-width="1" fill="none" />
<path d="M80.08510638297872,517.5744680851062 L80.08510638297872,492.21276595744666" stroke="yellow" stroke-width="1" fill="none" />
<path d="M80.08510638297872,492.21276595744666 L54.72340425531917,492.21276595744666" stroke="yellow" stroke-width="1" fill="none" />
<path d="M54.72340425531917,492.21276595744666 L54.72340425531917,517.5744680851062" stroke="yellow" stroke-width="1" fill="none" />
<path d="M1119.914893617021,517.5744680851062 L1145.276595744681,517.5744680851062" stroke="yellow" stroke-width="1" fill="none" />
<path d="M1145.276595744681,517.5744680851062 L1145.276595744681,492.21276595744666" stroke="yellow" stroke-width="1" fill="none" />
<path d="M1145.276595744681,492.21276595744666 L1119.914893617021,492.21276595744666" stroke="yellow" stroke-width="1" fill="none" />
<path d="M1119.914893617021,492.21276595744666 L1119.914893617021,517.5744680851062" stroke="yellow" stroke-width="1" fill="none" />
<path d="M1043.8297872340424,1075.5319148936169 L1069.191489361702,1075.5319148936169" stroke="yellow" stroke-width="1" fill="none" />
<path d="M1069.191489361702,1075.5319148936169 L1069.191489361702,1050.1702127659573" stroke="yellow" stroke-width="1" fill="none" />
<path d="M1069.191489361702,1050.1702127659573 L1043.8297872340424,1050.1702127659573" stroke="yellow" stroke-width="1" fill="none" />
<path d="M1043.8297872340424,1050.1702127659573 L1043.8297872340424,1075.5319148936169" stroke="yellow" stroke-width="1" fill="none" />
<path d="M587.3191489361702,1088.2127659574467 L612.6808510638298,1088.2127659574467" stroke="yellow" stroke-width="1" fill="none" />
<path d="M612.6808510638298,1088.2127659574467 L612.6808510638298,1062.851063829787" stroke="yellow" stroke-width="1" fill="none" />
<path d="M612.6808510638298,1062.851063829787 L587.3191489361702,1062.851063829787" stroke="yellow" stroke-width="1" fill="none" />
<path d="M587.3191489361702,1062.851063829787 L587.3191489361702,1088.2127659574467" stroke="yellow" stroke-width="1" fill="none" />
<path d="M587.3191489361702,86.42553191489355 L612.6808510638298,86.42553191489355" stroke="yellow" stroke-width="1" fill="none" />
<path d="M612.6808510638298,61.063829787234 L587.3191489361702,61.063829787234" stroke="yellow" stroke-width="1" fill="none" />
<path d="M593.6595744680851,10.340425531914889 L606.3404255319149,10.340425531914889" stroke="yellow" stroke-width="1" fill="none" />
<path d="M714.127659574468,1056.5106382978722 L714.127659574468,1037.4893617021276" stroke="yellow" stroke-width="1" fill="none" />
<path d="M714.127659574468,1037.4893617021276 L485.8723404255319,1037.4893617021276" stroke="yellow" stroke-width="1" fill="none" />
<path d="M485.8723404255319,1037.4893617021276 L485.8723404255319,1056.5106382978722" stroke="yellow" stroke-width="1" fill="none" />
<path d="M714.127659574468,1037.4893617021276 L714.127659574468,1018.4680851063829" stroke="yellow" stroke-width="1" fill="none" />
<path d="M714.127659574468,1018.4680851063829 L485.8723404255319,1018.4680851063829" stroke="yellow" stroke-width="1" fill="none" />
<path d="M485.8723404255319,1018.4680851063829 L485.8723404255319,1037.4893617021276" stroke="yellow" stroke-width="1" fill="none" />
<path d="M714.127659574468,1018.4680851063829 L714.127659574468,999.4468085106382" stroke="yellow" stroke-width="1" fill="none" />
<path d="M714.127659574468,999.4468085106382 L485.8723404255319,999.4468085106382" stroke="yellow" stroke-width="1" fill="none" />
<path d="M485.8723404255319,999.4468085106382 L485.8723404255319,1018.4680851063829" stroke="yellow" stroke-width="1" fill="none" />
<path d="M714.127659574468,999.4468085106382 L714.127659574468,980.4255319148936" stroke="yellow" stroke-width="1" fill="none" />
<path d="M714.127659574468,980.4255319148936 L485.8723404255319,980.4255319148936" stroke="yellow" stroke-width="1" fill="none" />
<path d="M485.8723404255319,980.4255319148936 L485.8723404255319,999.4468085106382" stroke="yellow" stroke-width="1" fill="none" />
<path d="M714.127659574468,980.4255319148936 L714.127659574468,961.4042553191489" stroke="yellow" stroke-width="1" fill="none" />
<path d="M714.127659574468,961.4042553191489 L485.8723404255319,961.4042553191489" stroke="yellow" stroke-width="1" fill="none" />
<path d="M485.8723404255319,961.4042553191489 L485.8723404255319,980.4255319148936" stroke="yellow" stroke-width="1" fill="none" />
<path d="M714.127659574468,961.4042553191489 L714.127659574468,942.3829787234042" stroke="yellow" stroke-width="1" fill="none" />
<path d="M714.127659574468,942.3829787234042 L485.8723404255319,942.3829787234042" stroke="yellow" stroke-width="1" fill="none" />
<path d="M485.8723404255319,942.3829787234042 L485.8723404255319,961.4042553191489" stroke="yellow" stroke-width="1" fill="none" />
<path d="M714.127659574468,942.3829787234042 L714.127659574468,923.3617021276596" stroke="yellow" stroke-width="1" fill="none" />
<path d="M714.127659574468,923.3617021276596 L485.8723404255319,923.3617021276596" stroke="yellow" stroke-width="1" fill="none" />
<path d="M485.8723404255319,923.3617021276596 L485.8723404255319,942.3829787234042" stroke="yellow" stroke-width="1" fill="none" />
<path d="M714.127659574468,923.3617021276596 L714.127659574468,904.3404255319149" stroke="yellow" stroke-width="1" fill="none" />
<path d="M714.127659574468,904.3404255319149 L485.8723404255319,904.3404255319149" stroke="yellow" stroke-width="1" fill="none" />
<path d="M485.8723404255319,904.3404255319149 L485.8723404255319,923.3617021276596" stroke="yellow" stroke-width="1" fill="none" />
<path d="M130.8085106382979,1075.5319148936169 L156.17021276595744,1075.5319148936169" stroke="yellow" stroke-width="1" fill="none" />
<path d="M156.17021276595744,1075.5319148936169 L156.17021276595744,1050.1702127659573" stroke="yellow" stroke-width="1" fill="none" />
<path d="M156.17021276595744,1050.1702127659573 L130.8085106382979,1050.1702127659573" stroke="yellow" stroke-width="1" fill="none" />
<path d="M130.8085106382979,1050.1702127659573 L130.8085106382979,1075.5319148936169" stroke="yellow" stroke-width="1" fill="none" />
<path d="M409.78723404255317,1658.851063829787 L359.063829787234,1570.0851063829787" stroke="lavender" stroke-width="1" fill="none" />
<path d="M359.063829787234,1570.0851063829787 L409.78723404255317,1481.3191489361702" stroke="lavender" stroke-width="1" fill="none" />
<path d="M409.78723404255317,1481.3191489361702 L409.78723404255317,1405.2340425531913" stroke="lavender" stroke-width="1" fill="none" />
<path d="M435.1489361702127,1379.8723404255318 L511.23404255319144,1379.8723404255318" stroke="lavender" stroke-width="1" fill="none" />
<path d="M511.23404255319144,1379.8723404255318 L600.0,1329.1489361702127" stroke="lavender" stroke-width="1" fill="none" />
<path d="M600.0,1329.1489361702127 L688.7659574468084,1379.8723404255318" stroke="lavender" stroke-width="1" fill="none" />
<path d="M688.7659574468084,1379.8723404255318 L764.8510638297871,1379.8723404255318" stroke="lavender" stroke-width="1" fill="none" />
<path d="M790.2127659574468,1405.2340425531913 L790.2127659574468,1430.5957446808509" stroke="lavender" stroke-width="1" fill="none" />
<path d="M840.9361702127659,1570.0851063829787 L790.2127659574468,1658.851063829787" stroke="lavender" stroke-width="1" fill="none" />
<path d="M790.2127659574468,1481.3191489361702 L840.9361702127659,1570.0851063829787" stroke="lavender" stroke-width="1" fill="none" />
<path d="M790.2127659574468,1658.851063829787 L790.2127659574468,1734.9361702127658" stroke="lavender" stroke-width="1" fill="none" />
<path d="M764.8510638297871,1760.2978723404253 L688.7659574468084,1760.2978723404253" stroke="lavender" stroke-width="1" fill="none" />
<path d="M600.0,1811.0212765957444 L511.23404255319144,1760.2978723404253" stroke="lavender" stroke-width="1" fill="none" />
<path d="M688.7659574468084,1760.2978723404253 L600.0,1811.0212765957444" stroke="lavender" stroke-width="1" fill="none" />
<path d="M511.23404255319144,1760.2978723404253 L435.1489361702127,1760.2978723404253" stroke="lavender" stroke-width="1" fill="none" />
<path d="M409.78723404255317,1734.9361702127658 L409.78723404255317,1658.851063829787" stroke="lavender" stroke-width="1" fill="none" />
<path d="M790.2127659574468,1734.9361702127658 L790.2127659574468,1760.2978723404253" stroke="lavender" stroke-width="1" fill="none" />
<path d="M790.2127659574468,1760.2978723404253 L764.8510638297871,1760.2978723404253" stroke="lavender" stroke-width="1" fill="none" />
<path d="M435.1489361702127,1760.2978723404253 L409.78723404255317,1760.2978723404253" stroke="lavender" stroke-width="1" fill="none" />
<path d="M409.78723404255317,1760.2978723404253 L409.78723404255317,1734.9361702127658" stroke="lavender" stroke-width="1" fill="none" />
<path d="M409.78723404255317,1405.2340425531913 L409.78723404255317,1379.8723404255318" stroke="lavender" stroke-width="1" fill="none" />
<path d="M409.78723404255317,1379.8723404255318 L435.1489361702127,1379.8723404255318" stroke="lavender" stroke-width="1" fill="none" />
<path d="M764.8510638297871,1379.8723404255318 L790.2127659574468,1379.8723404255318" stroke="lavender" stroke-width="1" fill="none" />
<path d="M790.2127659574468,1379.8723404255318 L790.2127659574468,1405.2340425531913" stroke="lavender" stroke-width="1" fill="none" />
<path d="M834.595744680851,1611.2978723404253 L878.9787234042553,1585.9361702127658" stroke="red" stroke-width="1" fill="none" />
<path d="M878.9787234042553,1585.9361702127658 L923.3617021276596,1611.2978723404253" stroke="red" stroke-width="1" fill="none" />
<path d="M923.3617021276596,1611.2978723404253 L923.3617021276596,1636.6595744680849" stroke="red" stroke-width="1" fill="none" />
<path d="M923.3617021276596,1636.6595744680849 L898.0,1639.8297872340424" stroke="red" stroke-width="1" fill="none" />
<path d="M859.9574468085107,1639.8297872340424 L834.595744680851,1636.6595744680849" stroke="red" stroke-width="1" fill="none" />
<path d="M834.595744680851,1636.6595744680849 L834.595744680851,1611.2978723404253" stroke="red" stroke-width="1" fill="none" />
<path d="M898.0,1639.8297872340424 L898.0,1665.191489361702" stroke="red" stroke-width="1" fill="none" />
<path d="M859.9574468085107,1665.191489361702 L859.9574468085107,1639.8297872340424" stroke="red" stroke-width="1" fill="none" />
<path d="M898.0,1665.191489361702 L923.3617021276596,1709.5744680851062" stroke="red" stroke-width="1" fill="none" />
<path d="M923.3617021276596,1709.5744680851062 L917.0212765957447,1760.2978723404253" stroke="red" stroke-width="1" fill="none" />
<path d="M866.2978723404256,1760.2978723404253 L840.9361702127659,1760.2978723404253" stroke="red" stroke-width="1" fill="none" />
<path d="M840.9361702127659,1760.2978723404253 L834.595744680851,1709.5744680851062" stroke="red" stroke-width="1" fill="none" />
<path d="M834.595744680851,1709.5744680851062 L859.9574468085107,1665.191489361702" stroke="red" stroke-width="1" fill="none" />
<path d="M891.6595744680851,1760.2978723404253 L891.6595744680851,1785.6595744680849" stroke="red" stroke-width="1" fill="none" />
<path d="M891.6595744680851,1785.6595744680849 L866.2978723404256,1785.6595744680849" stroke="red" stroke-width="1" fill="none" />
<path d="M866.2978723404256,1785.6595744680849 L866.2978723404256,1760.2978723404253" stroke="red" stroke-width="1" fill="none" />
<path d="M917.0212765957447,1760.2978723404253 L891.6595744680851,1760.2978723404253" stroke="red" stroke-width="1" fill="none" />
<path d="M282.97872340425533,1386.2127659574467 L359.063829787234,1386.2127659574467" stroke="red" stroke-width="1" fill="none" />
<path d="M359.063829787234,1386.2127659574467 L381.25531914893617,1398.8936170212764" stroke="red" stroke-width="1" fill="none" />
<path d="M381.25531914893617,1398.8936170212764 L393.93617021276594,1421.0851063829787" stroke="red" stroke-width="1" fill="none" />
<path d="M393.93617021276594,1421.0851063829787 L393.93617021276594,1471.8085106382978" stroke="red" stroke-width="1" fill="none" />
<path d="M393.93617021276594,1471.8085106382978 L381.25531914893617,1494.0" stroke="red" stroke-width="1" fill="none" />
<path d="M381.25531914893617,1494.0 L359.063829787234,1506.6808510638298" stroke="red" stroke-width="1" fill="none" />
<path d="M359.063829787234,1506.6808510638298 L333.70212765957444,1506.6808510638298" stroke="red" stroke-width="1" fill="none" />
<path d="M333.70212765957444,1506.6808510638298 L333.70212765957444,1532.0425531914893" stroke="red" stroke-width="1" fill="none" />
<path d="M333.70212765957444,1532.0425531914893 L308.3404255319149,1532.0425531914893" stroke="red" stroke-width="1" fill="none" />
<path d="M308.3404255319149,1532.0425531914893 L308.3404255319149,1506.6808510638298" stroke="red" stroke-width="1" fill="none" />
<path d="M308.3404255319149,1506.6808510638298 L282.97872340425533,1506.6808510638298" stroke="red" stroke-width="1" fill="none" />
<path d="M282.97872340425533,1506.6808510638298 L260.78723404255317,1494.0" stroke="red" stroke-width="1" fill="none" />
<path d="M260.78723404255317,1494.0 L248.1063829787234,1471.8085106382978" stroke="red" stroke-width="1" fill="none" />
<path d="M248.1063829787234,1471.8085106382978 L248.1063829787234,1421.0851063829787" stroke="red" stroke-width="1" fill="none" />
<path d="M248.1063829787234,1421.0851063829787 L260.78723404255317,1398.8936170212764" stroke="red" stroke-width="1" fill="none" />
<path d="M260.78723404255317,1398.8936170212764 L282.97872340425533,1386.2127659574467" stroke="red" stroke-width="1" fill="none" />
<path d="M346.3829787234042,1665.191489361702 L397.1063829787234,1671.5319148936169" stroke="red" stroke-width="1" fill="none" />
<path d="M397.1063829787234,1671.5319148936169 L397.1063829787234,1722.255319148936" stroke="red" stroke-width="1" fill="none" />
<path d="M397.1063829787234,1722.255319148936 L346.3829787234042,1728.5957446808509" stroke="red" stroke-width="1" fill="none" />
<path d="M324.1914893617021,1592.2765957446807 L346.3829787234042,1665.191489361702" stroke="red" stroke-width="1" fill="none" />
<path d="M225.91489361702125,1665.191489361702 L248.1063829787234,1592.2765957446807" stroke="red" stroke-width="1" fill="none" />
<path d="M298.82978723404256,1592.2765957446807 L324.1914893617021,1592.2765957446807" stroke="red" stroke-width="1" fill="none" />
<path d="M346.3829787234042,1728.5957446808509 L324.1914893617021,1801.5106382978722" stroke="red" stroke-width="1" fill="none" />
<path d="M248.1063829787234,1801.5106382978722 L225.91489361702125,1728.5957446808509" stroke="red" stroke-width="1" fill="none" />
<path d="M324.1914893617021,1801.5106382978722 L298.82978723404256,1801.5106382978722" stroke="red" stroke-width="1" fill="none" />
<path d="M248.1063829787234,1592.2765957446807 L273.468085106383,1592.2765957446807" stroke="red" stroke-width="1" fill="none" />
<path d="M273.468085106383,1801.5106382978722 L248.1063829787234,1801.5106382978722" stroke="red" stroke-width="1" fill="none" />
<path d="M225.91489361702125,1728.5957446808509 L200.5531914893617,1728.5957446808509" stroke="red" stroke-width="1" fill="none" />
<path d="M200.5531914893617,1728.5957446808509 L149.82978723404256,1728.5957446808509" stroke="red" stroke-width="1" fill="none" />
<path d="M149.82978723404256,1728.5957446808509 L124.46808510638294,1728.5957446808509" stroke="red" stroke-width="1" fill="none" />
<path d="M124.46808510638294,1665.191489361702 L149.82978723404256,1665.191489361702" stroke="red" stroke-width="1" fill="none" />
<path d="M149.82978723404256,1665.191489361702 L200.5531914893617,1665.191489361702" stroke="red" stroke-width="1" fill="none" />
<path d="M200.5531914893617,1665.191489361702 L225.91489361702125,1665.191489361702" stroke="red" stroke-width="1" fill="none" />
<path d="M124.46808510638294,1728.5957446808509 L80.08510638297872,1753.9574468085104" stroke="red" stroke-width="1" fill="none" />
<path d="M80.08510638297872,1753.9574468085104 L54.72340425531917,1709.5744680851062" stroke="red" stroke-width="1" fill="none" />
<path d="M54.72340425531917,1684.2127659574467 L80.08510638297872,1639.8297872340424" stroke="red" stroke-width="1" fill="none" />
<path d="M80.08510638297872,1639.8297872340424 L124.46808510638294,1665.191489361702" stroke="red" stroke-width="1" fill="none" />
<path d="M54.72340425531917,1709.5744680851062 L29.361702127659555,1709.5744680851062" stroke="red" stroke-width="1" fill="none" />
<path d="M29.361702127659555,1709.5744680851062 L29.361702127659555,1684.2127659574467" stroke="red" stroke-width="1" fill="none" />
<path d="M29.361702127659555,1684.2127659574467 L54.72340425531917,1684.2127659574467" stroke="red" stroke-width="1" fill="none" />
<path d="M4.0,492.21276595744666 L45.212765957446834,241.76595744680844" stroke="red" stroke-width="1" fill="none" />
<path d="M45.212765957446834,241.76595744680844 L409.78723404255317,86.42553191489355" stroke="red" stroke-width="1" fill="none" />
<path d="M612.6808510638298,86.42553191489355 L790.2127659574468,86.42553191489355" stroke="red" stroke-width="1" fill="none" />
<path d="M790.2127659574468,86.42553191489355 L1154.787234042553,241.76595744680844" stroke="red" stroke-width="1" fill="none" />
<path d="M1154.787234042553,241.76595744680844 L1196.0,492.21276595744666" stroke="red" stroke-width="1" fill="none" />
<path d="M1196.0,492.21276595744666 L1196.0,872.6382978723402" stroke="red" stroke-width="1" fill="none" />
<path d="M4.0,872.6382978723402 L4.0,492.21276595744666" stroke="red" stroke-width="1" fill="none" />
<path d="M45.212765957446834,1123.0851063829787 L4.0,872.6382978723402" stroke="red" stroke-width="1" fill="none" />
<path d="M409.78723404255317,1275.255319148936 L45.212765957446834,1123.0851063829787" stroke="red" stroke-width="1" fill="none" />
<path d="M1154.787234042553,1123.0851063829787 L790.2127659574468,1275.255319148936" stroke="red" stroke-width="1" fill="none" />
<path d="M1196.0,872.6382978723402 L1154.787234042553,1123.0851063829787" stroke="red" stroke-width="1" fill="none" />
<path d="M790.2127659574468,1455.9574468085104 L790.2127659574468,1481.3191489361702" stroke="lavender" stroke-width="1" fill="none" />
<path d="M790.2127659574468,1430.5957446808509 L796.5531914893617,1430.5957446808509" stroke="red" stroke-width="1" fill="none" />
<path d="M796.5531914893617,1455.9574468085104 L790.2127659574468,1455.9574468085104" stroke="red" stroke-width="1" fill="none" />
<path d="M796.5531914893617,1430.5957446808509 L821.9148936170212,1430.5957446808509" stroke="red" stroke-width="1" fill="none" />
<path d="M821.9148936170212,1430.5957446808509 L821.9148936170212,1405.2340425531913" stroke="red" stroke-width="1" fill="none" />
<path d="M821.9148936170212,1405.2340425531913 L844.1063829787233,1392.5531914893616" stroke="red" stroke-width="1" fill="none" />
<path d="M844.1063829787233,1494.0 L821.9148936170212,1481.3191489361702" stroke="red" stroke-width="1" fill="none" />
<path d="M821.9148936170212,1481.3191489361702 L821.9148936170212,1455.9574468085104" stroke="red" stroke-width="1" fill="none" />
<path d="M821.9148936170212,1455.9574468085104 L796.5531914893617,1455.9574468085104" stroke="red" stroke-width="1" fill="none" />
<path d="M844.1063829787233,1392.5531914893616 L901.1702127659573,1443.2765957446807" stroke="red" stroke-width="1" fill="none" />
<path d="M901.1702127659573,1443.2765957446807 L844.1063829787233,1494.0" stroke="red" stroke-width="1" fill="none" />
<path d="M790.2127659574468,1275.255319148936 L777.531914893617,1275.255319148936" stroke="red" stroke-width="1" fill="none" />
<path d="M473.1914893617021,1126.255319148936 L473.1914893617021,1275.255319148936" stroke="red" stroke-width="1" fill="none" />
<path d="M536.595744680851,1113.5744680851062 L485.8723404255319,1113.5744680851062" stroke="red" stroke-width="1" fill="none" />
<path d="M714.127659574468,1113.5744680851062 L663.4042553191489,1113.5744680851062" stroke="red" stroke-width="1" fill="none" />
<path d="M726.8085106382978,1275.255319148936 L726.8085106382978,1126.255319148936" stroke="red" stroke-width="1" fill="none" />
<path d="M447.82978723404256,1126.255319148936 L473.1914893617021,1126.255319148936" stroke="red" stroke-width="1" fill="none" />
<path d="M447.82978723404256,1088.2127659574467 L447.82978723404256,1126.255319148936" stroke="red" stroke-width="1" fill="none" />
<path d="M485.8723404255319,1088.2127659574467 L447.82978723404256,1088.2127659574467" stroke="red" stroke-width="1" fill="none" />
<path d="M485.8723404255319,1113.5744680851062 L485.8723404255319,1088.2127659574467" stroke="red" stroke-width="1" fill="none" />
<path d="M726.8085106382978,1126.255319148936 L752.1702127659573,1126.255319148936" stroke="red" stroke-width="1" fill="none" />
<path d="M752.1702127659573,1126.255319148936 L752.1702127659573,1088.2127659574467" stroke="red" stroke-width="1" fill="none" />
<path d="M752.1702127659573,1088.2127659574467 L714.127659574468,1088.2127659574467" stroke="red" stroke-width="1" fill="none" />
<path d="M714.127659574468,1088.2127659574467 L714.127659574468,1113.5744680851062" stroke="red" stroke-width="1" fill="none" />
<path d="M663.4042553191489,1113.5744680851062 L663.4042553191489,1126.255319148936" stroke="red" stroke-width="1" fill="none" />
<path d="M663.4042553191489,1126.255319148936 L714.127659574468,1126.255319148936" stroke="red" stroke-width="1" fill="none" />
<path d="M714.127659574468,1126.255319148936 L701.4468085106382,1278.4255319148933" stroke="red" stroke-width="1" fill="none" />
<path d="M701.4468085106382,1278.4255319148933 L498.55319148936167,1278.4255319148933" stroke="red" stroke-width="1" fill="none" />
<path d="M498.55319148936167,1278.4255319148933 L485.8723404255319,1126.255319148936" stroke="red" stroke-width="1" fill="none" />
<path d="M485.8723404255319,1126.255319148936 L536.595744680851,1126.255319148936" stroke="red" stroke-width="1" fill="none" />
<path d="M536.595744680851,1126.255319148936 L536.595744680851,1113.5744680851062" stroke="red" stroke-width="1" fill="none" />
<path d="M777.531914893617,1281.5957446808509 L790.2127659574468,1281.5957446808509" stroke="red" stroke-width="1" fill="none" />
<path d="M739.4893617021276,1281.5957446808509 L752.1702127659573,1281.5957446808509" stroke="red" stroke-width="1" fill="none" />
<path d="M777.531914893617,1275.255319148936 L777.531914893617,1281.5957446808509" stroke="red" stroke-width="1" fill="none" />
<path d="M752.1702127659573,1281.5957446808509 L752.1702127659573,1275.255319148936" stroke="red" stroke-width="1" fill="none" />
<path d="M790.2127659574468,1281.5957446808509 L790.2127659574468,1329.1489361702127" stroke="red" stroke-width="1" fill="none" />
<path d="M764.8510638297871,1329.1489361702127 L764.8510638297871,1354.5106382978722" stroke="red" stroke-width="1" fill="none" />
<path d="M764.8510638297871,1354.5106382978722 L739.4893617021276,1354.5106382978722" stroke="red" stroke-width="1" fill="none" />
<path d="M739.4893617021276,1354.5106382978722 L739.4893617021276,1329.1489361702127" stroke="red" stroke-width="1" fill="none" />
<path d="M739.4893617021276,1329.1489361702127 L739.4893617021276,1281.5957446808509" stroke="red" stroke-width="1" fill="none" />
<path d="M790.2127659574468,1329.1489361702127 L764.8510638297871,1329.1489361702127" stroke="red" stroke-width="1" fill="none" />
<path d="M473.1914893617021,1275.255319148936 L447.82978723404256,1275.255319148936" stroke="red" stroke-width="1" fill="none" />
<path d="M422.46808510638294,1275.255319148936 L409.78723404255317,1275.255319148936" stroke="red" stroke-width="1" fill="none" />
<path d="M447.82978723404256,1281.5957446808509 L460.51063829787233,1281.5957446808509" stroke="red" stroke-width="1" fill="none" />
<path d="M409.78723404255317,1281.5957446808509 L422.46808510638294,1281.5957446808509" stroke="red" stroke-width="1" fill="none" />
<path d="M447.82978723404256,1275.255319148936 L447.82978723404256,1281.5957446808509" stroke="red" stroke-width="1" fill="none" />
<path d="M422.46808510638294,1281.5957446808509 L422.46808510638294,1275.255319148936" stroke="red" stroke-width="1" fill="none" />
<path d="M460.51063829787233,1281.5957446808509 L460.51063829787233,1329.1489361702127" stroke="red" stroke-width="1" fill="none" />
<path d="M435.1489361702127,1329.1489361702127 L435.1489361702127,1354.5106382978722" stroke="red" stroke-width="1" fill="none" />
<path d="M435.1489361702127,1354.5106382978722 L409.78723404255317,1354.5106382978722" stroke="red" stroke-width="1" fill="none" />
<path d="M409.78723404255317,1354.5106382978722 L409.78723404255317,1329.1489361702127" stroke="red" stroke-width="1" fill="none" />
<path d="M409.78723404255317,1329.1489361702127 L409.78723404255317,1281.5957446808509" stroke="red" stroke-width="1" fill="none" />
<path d="M460.51063829787233,1329.1489361702127 L435.1489361702127,1329.1489361702127" stroke="red" stroke-width="1" fill="none" />
<path d="M752.1702127659573,1275.255319148936 L726.8085106382978,1275.255319148936" stroke="red" stroke-width="1" fill="none" />
<path d="M279.8085106382979,1585.9361702127658 L292.48936170212767,1585.9361702127658" stroke="lavender" stroke-width="1" fill="none" />
<path d="M273.468085106383,1592.2765957446807 L279.8085106382979,1592.2765957446807" stroke="red" stroke-width="1" fill="none" />
<path d="M279.8085106382979,1592.2765957446807 L279.8085106382979,1585.9361702127658" stroke="red" stroke-width="1" fill="none" />
<path d="M292.48936170212767,1585.9361702127658 L292.48936170212767,1592.2765957446807" stroke="red" stroke-width="1" fill="none" />
<path d="M292.48936170212767,1592.2765957446807 L298.82978723404256,1592.2765957446807" stroke="red" stroke-width="1" fill="none" />
<path d="M292.48936170212767,1807.851063829787 L279.8085106382979,1807.851063829787" stroke="lavender" stroke-width="1" fill="none" />
<path d="M279.8085106382979,1801.5106382978722 L273.468085106383,1801.5106382978722" stroke="red" stroke-width="1" fill="none" />
<path d="M279.8085106382979,1807.851063829787 L279.8085106382979,1801.5106382978722" stroke="red" stroke-width="1" fill="none" />
<path d="M292.48936170212767,1801.5106382978722 L292.48936170212767,1807.851063829787" stroke="red" stroke-width="1" fill="none" />
<path d="M298.82978723404256,1801.5106382978722 L292.48936170212767,1801.5106382978722" stroke="red" stroke-width="1" fill="none" />
<path d="M409.78723404255317,86.42553191489355 L587.3191489361702,86.42553191489355" stroke="red" stroke-width="1" fill="none" />
<path d="M587.3191489361702,86.42553191489355 L587.3191489361702,61.063829787234" stroke="red" stroke-width="1" fill="none" />
<path d="M612.6808510638298,61.063829787234 L612.6808510638298,86.42553191489355" stroke="red" stroke-width="1" fill="none" />
<path d="M587.3191489361702,61.063829787234 L561.9574468085107,61.063829787234" stroke="red" stroke-width="1" fill="none" />
<path d="M561.9574468085107,61.063829787234 L561.9574468085107,10.340425531914889" stroke="red" stroke-width="1" fill="none" />
<path d="M561.9574468085107,10.340425531914889 L593.6595744680851,10.340425531914889" stroke="red" stroke-width="1" fill="none" />
<path d="M606.3404255319149,10.340425531914889 L638.0425531914893,10.340425531914889" stroke="red" stroke-width="1" fill="none" />
<path d="M638.0425531914893,10.340425531914889 L638.0425531914893,61.063829787234" stroke="red" stroke-width="1" fill="none" />
<path d="M638.0425531914893,61.063829787234 L612.6808510638298,61.063829787234" stroke="red" stroke-width="1" fill="none" />
<path d="M593.6595744680851,10.340425531914889 L593.6595744680851,4.0" stroke="red" stroke-width="1" fill="none" />
<path d="M593.6595744680851,4.0 L606.3404255319149,4.0" stroke="lavender" stroke-width="1" fill="none" />
<path d="M606.3404255319149,4.0 L606.3404255319149,10.340425531914889" stroke="red" stroke-width="1" fill="none" />
</svg>