<?xml version="1.0" encoding="UTF-8"?>
<svg xmlns="http://www.w3.org/2000/svg" xmlns:xlink="http://www.w3.org/1999/xlink"
     width="1200" height="963" viewBox="0 0 1200 963">
<defs>
</defs>
<path d="M1016.3835616438357,632.6575342465756 L820.4383561643835,632.6575342465756" stroke="yellow" stroke-width="2" fill="none" />
<path d="M820.4383561643835,632.6575342465756 L820.4383561643835,722.4657534246578" stroke="yellow" stroke-width="2" fill="none" />
<path d="M1016.3835616438357,722.4657534246578 L1016.3835616438357,632.6575342465756" stroke="yellow" stroke-width="2" fill="none" />
<path d="M787.7808219178082,632.6575342465756 L787.7808219178082,722.4657534246578" stroke="yellow" stroke-width="2" fill="none" />
<path d="M755.1232876712329,632.6575342465756 L689.8082191780823,632.6575342465756" stroke="yellow" stroke-width="2" fill="none" />
<path d="M755.1232876712329,632.6575342465756 L755.1232876712329,722.4657534246578" stroke="yellow" stroke-width="2" fill="none" />
<path d="M755.1232876712329,600.0000000000002 L689.8082191780823,567.3424657534249" stroke="yellow" stroke-width="2" fill="none" />
<path d="M771.4520547945206,600.0000000000002 L771.4520547945206,534.6849315068496" stroke="yellow" stroke-width="2" fill="none" />
<path d="M820.4383561643835,632.6575342465756 L787.7808219178082,632.6575342465756" stroke="yellow" stroke-width="2" fill="none" />
<path d="M853.0958904109589,567.3424657534249 L787.7808219178082,534.6849315068496" stroke="yellow" stroke-width="2" fill="none" />
<path d="M1049.041095890411,534.6849315068496 L983.7260273972604,567.3424657534249" stroke="yellow" stroke-width="2" fill="none" />
<path d="M1049.041095890411,632.6575342465756 L1016.3835616438357,632.6575342465756" stroke="yellow" stroke-width="2" fill="none" />
<path d="M1065.3698630136987,534.6849315068496 L1065.3698630136987,600.0000000000002" stroke="yellow" stroke-width="2" fill="none" />
<path d="M1147.013698630137,632.6575342465756 L1081.6986301369864,632.6575342465756" stroke="yellow" stroke-width="2" fill="none" />
<path d="M1049.041095890411,722.4657534246578 L1049.041095890411,632.6575342465756" stroke="yellow" stroke-width="2" fill="none" />
<path d="M1081.6986301369864,722.4657534246578 L1081.6986301369864,632.6575342465756" stroke="yellow" stroke-width="2" fill="none" />
<path d="M853.0958904109589,567.3424657534249 L820.4383561643835,632.6575342465756" stroke="yellow" stroke-width="2" fill="none" />
<path d="M1016.3835616438357,632.6575342465756 L983.7260273972604,567.3424657534249" stroke="yellow" stroke-width="2" fill="none" />
<path d="M951.0684931506851,567.3424657534249 L885.7534246575342,567.3424657534249" stroke="yellow" stroke-width="2" fill="none" />
<path d="M853.0958904109589,534.6849315068496 L853.0958904109589,502.02739726027426" stroke="yellow" stroke-width="2" fill="none" />
<path d="M853.0958904109589,502.02739726027426 L787.7808219178082,502.02739726027426" stroke="yellow" stroke-width="2" fill="none" />
<path d="M1049.041095890411,502.02739726027426 L983.7260273972604,502.02739726027426" stroke="yellow" stroke-width="2" fill="none" />
<path d="M983.7260273972604,502.02739726027426 L983.7260273972604,534.6849315068496" stroke="yellow" stroke-width="2" fill="none" />
<path d="M1147.013698630137,567.3424657534249 L1081.6986301369864,600.0000000000002" stroke="yellow" stroke-width="2" fill="none" />
<path d="M730.6301369863015,534.6849315068496 L763.2876712328768,534.6849315068496" stroke="yellow" stroke-width="2" fill="none" />
<path d="M763.2876712328768,526.5205479452056 L730.6301369863015,526.5205479452056" stroke="yellow" stroke-width="2" fill="none" />
<path d="M722.4657534246576,526.5205479452056 L722.4657534246576,481.6164383561645" stroke="yellow" stroke-width="2" fill="none" />
<path d="M722.4657534246576,481.6164383561645 L771.4520547945206,481.6164383561645" stroke="yellow" stroke-width="2" fill="none" />
<path d="M771.4520547945206,481.6164383561645 L771.4520547945206,526.5205479452056" stroke="yellow" stroke-width="2" fill="none" />
<path d="M1106.191780821918,526.5205479452056 L1073.5342465753426,526.5205479452056" stroke="yellow" stroke-width="2" fill="none" />
<path d="M1065.3698630136987,526.5205479452056 L1065.3698630136987,481.6164383561645" stroke="yellow" stroke-width="2" fill="none" />
<path d="M1065.3698630136987,481.6164383561645 L1114.3561643835617,481.6164383561645" stroke="yellow" stroke-width="2" fill="none" />
<path d="M1114.3561643835617,481.6164383561645 L1114.3561643835617,526.5205479452056" stroke="yellow" stroke-width="2" fill="none" />
<path d="M1073.5342465753426,534.6849315068496 L1106.191780821918,534.6849315068496" stroke="yellow" stroke-width="2" fill="none" />
<path d="M853.0958904109589,436.7123287671236 L885.7534246575342,436.7123287671236" stroke="yellow" stroke-width="2" fill="none" />
<path d="M885.7534246575342,436.7123287671236 L951.0684931506851,436.7123287671236" stroke="yellow" stroke-width="2" fill="none" />
<path d="M951.0684931506851,436.7123287671236 L983.7260273972604,436.7123287671236" stroke="yellow" stroke-width="2" fill="none" />
<path d="M983.7260273972604,420.38356164383595 L951.0684931506851,420.38356164383595" stroke="yellow" stroke-width="2" fill="none" />
<path d="M951.0684931506851,420.38356164383595 L885.7534246575342,420.38356164383595" stroke="yellow" stroke-width="2" fill="none" />
<path d="M885.7534246575342,420.38356164383595 L853.0958904109589,420.38356164383595" stroke="yellow" stroke-width="2" fill="none" />
<path d="M885.7534246575342,142.79452054794547 L951.0684931506851,142.79452054794547" stroke="yellow" stroke-width="2" fill="none" />
<path d="M951.0684931506851,142.79452054794547 L983.7260273972604,175.4520547945208" stroke="yellow" stroke-width="2" fill="none" />
<path d="M983.7260273972604,175.4520547945208 L983.7260273972604,240.76712328767144" stroke="yellow" stroke-width="2" fill="none" />
<path d="M983.7260273972604,240.76712328767144 L1016.3835616438357,240.76712328767144" stroke="yellow" stroke-width="2" fill="none" />
<path d="M1016.3835616438357,240.76712328767144 L1016.3835616438357,273.42465753424676" stroke="yellow" stroke-width="2" fill="none" />
<path d="M1016.3835616438357,273.42465753424676 L983.7260273972604,273.42465753424676" stroke="yellow" stroke-width="2" fill="none" />
<path d="M983.7260273972604,273.42465753424676 L983.7260273972604,338.7397260273974" stroke="yellow" stroke-width="2" fill="none" />
<path d="M983.7260273972604,338.7397260273974 L951.0684931506851,371.39726027397273" stroke="yellow" stroke-width="2" fill="none" />
<path d="M951.0684931506851,371.39726027397273 L885.7534246575342,371.39726027397273" stroke="yellow" stroke-width="2" fill="none" />
<path d="M885.7534246575342,371.39726027397273 L853.0958904109589,338.7397260273974" stroke="yellow" stroke-width="2" fill="none" />
<path d="M853.0958904109589,338.7397260273974 L853.0958904109589,273.42465753424676" stroke="yellow" stroke-width="2" fill="none" />
<path d="M853.0958904109589,273.42465753424676 L820.4383561643835,273.42465753424676" stroke="yellow" stroke-width="2" fill="none" />
<path d="M820.4383561643835,273.42465753424676 L820.4383561643835,240.76712328767144" stroke="yellow" stroke-width="2" fill="none" />
<path d="M820.4383561643835,240.76712328767144 L853.0958904109589,240.76712328767144" stroke="yellow" stroke-width="2" fill="none" />
<path d="M853.0958904109589,240.76712328767144 L853.0958904109589,175.4520547945208" stroke="yellow" stroke-width="2" fill="none" />
<path d="M853.0958904109589,175.4520547945208 L885.7534246575342,142.79452054794547" stroke="yellow" stroke-width="2" fill="none" />
<path d="M1049.041095890411,208.10958904109611 L1049.041095890411,306.0821917808221" stroke="lavender" stroke-width="2" fill="none" />
<path d="M1065.3698630136987,306.0821917808221 L1065.3698630136987,208.10958904109611" stroke="yellow" stroke-width="2" fill="none" />
<path d="M918.4109589041097,240.76712328767144 L902.0821917808221,257.0958904109593" stroke="lavender" stroke-width="2" fill="none" />
<path d="M902.0821917808221,257.0958904109593 L918.4109589041097,273.42465753424676" stroke="lavender" stroke-width="2" fill="none" />
<path d="M918.4109589041097,273.42465753424676 L934.7397260273974,257.0958904109593" stroke="lavender" stroke-width="2" fill="none" />
<path d="M934.7397260273974,257.0958904109593 L918.4109589041097,240.76712328767144" stroke="lavender" stroke-width="2" fill="none" />
<path d="M955.1506849315069,240.76712328767144 L955.1506849315069,273.42465753424676" stroke="yellow" stroke-width="2" fill="none" />
<path d="M881.6712328767123,273.42465753424676 L881.6712328767123,240.76712328767144" stroke="yellow" stroke-width="2" fill="none" />
<path d="M881.6712328767123,240.76712328767144 L902.0821917808221,220.35616438356192" stroke="yellow" stroke-width="2" fill="none" />
<path d="M902.0821917808221,220.35616438356192 L934.7397260273974,220.35616438356192" stroke="yellow" stroke-width="2" fill="none" />
<path d="M934.7397260273974,220.35616438356192 L955.1506849315069,240.76712328767144" stroke="yellow" stroke-width="2" fill="none" />
<path d="M955.1506849315069,273.42465753424676 L934.7397260273974,293.8356164383563" stroke="yellow" stroke-width="2" fill="none" />
<path d="M934.7397260273974,293.8356164383563 L902.0821917808221,293.8356164383563" stroke="yellow" stroke-width="2" fill="none" />
<path d="M902.0821917808221,293.8356164383563 L881.6712328767123,273.42465753424676" stroke="yellow" stroke-width="2" fill="none" />
<path d="M820.4383561643835,93.80821917808225 L1016.3835616438357,93.80821917808225" stroke="yellow" stroke-width="2" fill="none" />
<path d="M1016.3835616438357,77.47945205479482 L820.4383561643835,77.47945205479482" stroke="yellow" stroke-width="2" fill="none" />
<path d="M820.4383561643835,85.64383561643854 L1016.3835616438357,85.64383561643854" stroke="yellow" stroke-width="2" fill="none" />
<path d="M1049.041095890411,338.7397260273974 L1049.041095890411,404.05479452054806" stroke="yellow" stroke-width="2" fill="none" />
<path d="M1147.013698630137,322.41095890410975 L1081.6986301369864,322.41095890410975" stroke="yellow" stroke-width="2" fill="none" />
<path d="M1081.6986301369864,338.7397260273974 L1147.013698630137,338.7397260273974" stroke="yellow" stroke-width="2" fill="none" />
<path d="M1057.2054794520548,338.7397260273974 L1057.2054794520548,404.05479452054806" stroke="lavender" stroke-width="2" fill="none" />
<path d="M951.0684931506851,228.52054794520564 L959.2328767123288,228.52054794520564" stroke="yellow" stroke-width="2" fill="none" />
<path d="M959.2328767123288,228.52054794520564 L959.2328767123288,220.35616438356192" stroke="yellow" stroke-width="2" fill="none" />
<path d="M959.2328767123288,220.35616438356192 L951.0684931506851,220.35616438356192" stroke="yellow" stroke-width="2" fill="none" />
<path d="M951.0684931506851,220.35616438356192 L951.0684931506851,228.52054794520564" stroke="yellow" stroke-width="2" fill="none" />
<path d="M963.3150684931506,244.84931506849352 L963.3150684931506,269.3424657534247" stroke="yellow" stroke-width="2" fill="none" />
<path d="M963.3150684931506,269.3424657534247 L971.4794520547946,269.3424657534247" stroke="yellow" stroke-width="2" fill="none" />
<path d="M971.4794520547946,269.3424657534247 L971.4794520547946,244.84931506849352" stroke="yellow" stroke-width="2" fill="none" />
<path d="M971.4794520547946,244.84931506849352 L963.3150684931506,244.84931506849352" stroke="yellow" stroke-width="2" fill="none" />
<path d="M951.0684931506851,293.8356164383563 L959.2328767123288,293.8356164383563" stroke="yellow" stroke-width="2" fill="none" />
<path d="M959.2328767123288,293.8356164383563 L959.2328767123288,285.67123287671257" stroke="yellow" stroke-width="2" fill="none" />
<path d="M959.2328767123288,285.67123287671257 L951.0684931506851,285.67123287671257" stroke="yellow" stroke-width="2" fill="none" />
<path d="M951.0684931506851,285.67123287671257 L951.0684931506851,293.8356164383563" stroke="yellow" stroke-width="2" fill="none" />
<path d="M865.3424657534247,244.84931506849352 L865.3424657534247,269.3424657534247" stroke="yellow" stroke-width="2" fill="none" />
<path d="M865.3424657534247,269.3424657534247 L873.5068493150686,269.3424657534247" stroke="yellow" stroke-width="2" fill="none" />
<path d="M873.5068493150686,269.3424657534247 L873.5068493150686,244.84931506849352" stroke="yellow" stroke-width="2" fill="none" />
<path d="M873.5068493150686,244.84931506849352 L865.3424657534247,244.84931506849352" stroke="yellow" stroke-width="2" fill="none" />
<path d="M885.7534246575342,228.52054794520564 L885.7534246575342,220.35616438356192" stroke="yellow" stroke-width="2" fill="none" />
<path d="M877.5890410958905,228.52054794520564 L885.7534246575342,228.52054794520564" stroke="yellow" stroke-width="2" fill="none" />
<path d="M885.7534246575342,220.35616438356192 L877.5890410958905,220.35616438356192" stroke="yellow" stroke-width="2" fill="none" />
<path d="M877.5890410958905,220.35616438356192 L877.5890410958905,228.52054794520564" stroke="yellow" stroke-width="2" fill="none" />
<path d="M885.7534246575342,285.67123287671257 L877.5890410958905,285.67123287671257" stroke="yellow" stroke-width="2" fill="none" />
<path d="M877.5890410958905,285.67123287671257 L877.5890410958905,293.8356164383563" stroke="yellow" stroke-width="2" fill="none" />
<path d="M877.5890410958905,293.8356164383563 L885.7534246575342,293.8356164383563" stroke="yellow" stroke-width="2" fill="none" />
<path d="M885.7534246575342,293.8356164383563 L885.7534246575342,285.67123287671257" stroke="yellow" stroke-width="2" fill="none" />
<path d="M902.0821917808221,216.27397260273983 L934.7397260273974,216.27397260273983" stroke="yellow" stroke-width="2" fill="none" />
<path d="M934.7397260273974,216.27397260273983 L934.7397260273974,208.10958904109611" stroke="yellow" stroke-width="2" fill="none" />
<path d="M934.7397260273974,208.10958904109611 L902.0821917808221,208.10958904109611" stroke="yellow" stroke-width="2" fill="none" />
<path d="M902.0821917808221,208.10958904109611 L902.0821917808221,216.27397260273983" stroke="yellow" stroke-width="2" fill="none" />
<path d="M902.0821917808221,306.0821917808221 L934.7397260273974,306.0821917808221" stroke="yellow" stroke-width="2" fill="none" />
<path d="M934.7397260273974,306.0821917808221 L934.7397260273974,297.91780821917837" stroke="yellow" stroke-width="2" fill="none" />
<path d="M934.7397260273974,297.91780821917837 L902.0821917808221,297.91780821917837" stroke="yellow" stroke-width="2" fill="none" />
<path d="M902.0821917808221,297.91780821917837 L902.0821917808221,306.0821917808221" stroke="yellow" stroke-width="2" fill="none" />
<path d="M787.7808219178082,306.0821917808221 L787.7808219178082,273.42465753424676" stroke="yellow" stroke-width="2" fill="none" />
<path d="M787.7808219178082,265.26027397260304 L787.7808219178082,240.76712328767144" stroke="yellow" stroke-width="2" fill="none" />
<path d="M787.7808219178082,240.76712328767144 L787.7808219178082,208.10958904109611" stroke="yellow" stroke-width="2" fill="none" />
<path d="M787.7808219178082,404.05479452054806 L787.7808219178082,346.90410958904135" stroke="yellow" stroke-width="2" fill="none" />
<path d="M722.4657534246576,306.0821917808221 L787.7808219178082,306.0821917808221" stroke="yellow" stroke-width="2" fill="none" />
<path d="M722.4657534246576,273.42465753424676 L779.6164383561645,273.42465753424676" stroke="yellow" stroke-width="2" fill="none" />
<path d="M722.4657534246576,240.76712328767144 L787.7808219178082,240.76712328767144" stroke="yellow" stroke-width="2" fill="none" />
<path d="M722.4657534246576,208.10958904109611 L779.6164383561645,208.10958904109611" stroke="yellow" stroke-width="2" fill="none" />
<path d="M779.6164383561645,346.90410958904135 L779.6164383561645,404.05479452054806" stroke="yellow" stroke-width="2" fill="none" />
<path d="M722.4657534246576,346.90410958904135 L779.6164383561645,346.90410958904135" stroke="yellow" stroke-width="2" fill="none" />
<path d="M779.6164383561645,338.7397260273974 L722.4657534246576,338.7397260273974" stroke="yellow" stroke-width="2" fill="none" />
<path d="M787.7808219178082,338.7397260273974 L787.7808219178082,306.0821917808221" stroke="yellow" stroke-width="2" fill="none" />
<path d="M787.7808219178082,199.9452054794524 L787.7808219178082,142.79452054794547" stroke="yellow" stroke-width="2" fill="none" />
<path d="M722.4657534246576,175.4520547945208 L722.4657534246576,142.79452054794547" stroke="yellow" stroke-width="2" fill="none" />
<path d="M722.4657534246576,142.79452054794547 L755.1232876712329,142.79452054794547" stroke="yellow" stroke-width="2" fill="none" />
<path d="M755.1232876712329,134.63013698630175 L714.3013698630139,134.63013698630175" stroke="yellow" stroke-width="2" fill="none" />
<path d="M714.3013698630139,134.63013698630175 L714.3013698630139,175.4520547945208" stroke="yellow" stroke-width="2" fill="none" />
<path d="M763.2876712328768,28.493150684931607 L763.2876712328768,61.15068493150693" stroke="yellow" stroke-width="2" fill="none" />
<path d="M795.9452054794522,61.15068493150693 L795.9452054794522,28.493150684931607" stroke="yellow" stroke-width="2" fill="none" />
<path d="M787.7808219178082,28.493150684931607 L787.7808219178082,61.15068493150693" stroke="yellow" stroke-width="2" fill="none" />
<path d="M657.1506849315069,12.164383561644172 L722.4657534246576,12.164383561644172" stroke="yellow" stroke-width="2" fill="none" />
<path d="M624.4931506849316,93.80821917808225 L624.4931506849316,28.493150684931607" stroke="yellow" stroke-width="2" fill="none" />
<path d="M616.3287671232877,28.493150684931607 L616.3287671232877,93.80821917808225" stroke="yellow" stroke-width="2" fill="none" />
<path d="M559.1780821917808,77.47945205479482 L559.1780821917808,44.821917808219496" stroke="yellow" stroke-width="2" fill="none" />
<path d="M665.3150684931506,93.80821917808225 L632.6575342465753,93.80821917808225" stroke="yellow" stroke-width="2" fill="none" />
<path d="M665.3150684931506,126.46575342465758 L665.3150684931506,93.80821917808225" stroke="yellow" stroke-width="2" fill="none" />
<path d="M632.6575342465753,126.46575342465758 L665.3150684931506,126.46575342465758" stroke="yellow" stroke-width="2" fill="none" />
<path d="M632.6575342465753,93.80821917808225 L632.6575342465753,126.46575342465758" stroke="yellow" stroke-width="2" fill="none" />
<path d="M632.6575342465753,142.79452054794547 L632.6575342465753,175.4520547945208" stroke="yellow" stroke-width="2" fill="none" />
<path d="M632.6575342465753,175.4520547945208 L665.3150684931506,175.4520547945208" stroke="yellow" stroke-width="2" fill="none" />
<path d="M665.3150684931506,175.4520547945208 L665.3150684931506,142.79452054794547" stroke="yellow" stroke-width="2" fill="none" />
<path d="M665.3150684931506,142.79452054794547 L632.6575342465753,142.79452054794547" stroke="yellow" stroke-width="2" fill="none" />
<path d="M689.8082191780823,697.9726027397262 L689.8082191780823,632.6575342465756" stroke="yellow" stroke-width="2" fill="none" />
<path d="M681.6438356164383,632.6575342465756 L681.6438356164383,697.9726027397262" stroke="yellow" stroke-width="2" fill="none" />
<path d="M591.8356164383563,632.6575342465756 L665.3150684931506,632.6575342465756" stroke="yellow" stroke-width="2" fill="none" />
<path d="M591.8356164383563,600.0000000000002 L665.3150684931506,600.0000000000002" stroke="yellow" stroke-width="2" fill="none" />
<path d="M575.5068493150685,567.3424657534249 L677.5616438356165,567.3424657534249" stroke="yellow" stroke-width="2" fill="none" />
<path d="M677.5616438356165,502.02739726027426 L612.2465753424658,502.02739726027426" stroke="yellow" stroke-width="2" fill="none" />
<path d="M612.2465753424658,502.02739726027426 L567.3424657534247,518.3561643835619" stroke="yellow" stroke-width="2" fill="none" />
<path d="M567.3424657534247,518.3561643835619 L526.5205479452055,567.3424657534249" stroke="yellow" stroke-width="2" fill="none" />
<path d="M677.5616438356165,461.205479452055 L608.164383561644,461.205479452055" stroke="yellow" stroke-width="2" fill="none" />
<path d="M608.164383561644,461.205479452055 L522.4383561643835,510.191780821918" stroke="yellow" stroke-width="2" fill="none" />
<path d="M522.4383561643835,510.191780821918 L493.86301369863014,567.3424657534249" stroke="yellow" stroke-width="2" fill="none" />
<path d="M677.5616438356165,424.4657534246578 L591.8356164383563,424.4657534246578" stroke="yellow" stroke-width="2" fill="none" />
<path d="M591.8356164383563,424.4657534246578 L526.5205479452055,461.205479452055" stroke="yellow" stroke-width="2" fill="none" />
<path d="M485.6986301369863,506.1095890410961 L461.2054794520548,567.3424657534249" stroke="yellow" stroke-width="2" fill="none" />
<path d="M526.5205479452055,461.205479452055 L485.6986301369863,506.1095890410961" stroke="yellow" stroke-width="2" fill="none" />
<path d="M526.5205479452055,567.3424657534249 L493.86301369863014,567.3424657534249" stroke="yellow" stroke-width="2" fill="none" />
<path d="M612.2465753424658,346.90410958904135 L657.1506849315069,346.90410958904135" stroke="yellow" stroke-width="2" fill="none" />
<path d="M657.1506849315069,338.7397260273974 L612.2465753424658,338.7397260273974" stroke="yellow" stroke-width="2" fill="none" />
<path d="M673.4794520547946,199.9452054794524 L624.4931506849316,199.9452054794524" stroke="yellow" stroke-width="2" fill="none" />
<path d="M624.4931506849316,199.9452054794524 L624.4931506849316,175.4520547945208" stroke="yellow" stroke-width="2" fill="none" />
<path d="M616.3287671232877,175.4520547945208 L616.3287671232877,208.10958904109611" stroke="yellow" stroke-width="2" fill="none" />
<path d="M616.3287671232877,208.10958904109611 L673.4794520547946,208.10958904109611" stroke="yellow" stroke-width="2" fill="none" />
<path d="M461.2054794520548,346.90410958904135 L395.8904109589041,346.90410958904135" stroke="yellow" stroke-width="2" fill="none" />
<path d="M395.8904109589041,191.78082191780823 L461.2054794520548,346.90410958904135" stroke="yellow" stroke-width="2" fill="none" />
<path d="M559.1780821917808,346.90410958904135 L493.86301369863014,346.90410958904135" stroke="yellow" stroke-width="2" fill="none" />
<path d="M493.86301369863014,346.90410958904135 L428.5479452054795,191.78082191780823" stroke="yellow" stroke-width="2" fill="none" />
<path d="M1147.013698630137,632.6575342465756 L1147.013698630137,697.9726027397262" stroke="yellow" stroke-width="2" fill="none" />
<path d="M1155.178082191781,697.9726027397262 L1155.178082191781,632.6575342465756" stroke="yellow" stroke-width="2" fill="none" />
<path d="M951.0684931506851,722.4657534246578 L885.7534246575342,722.4657534246578" stroke="yellow" stroke-width="2" fill="none" />
<path d="M885.7534246575342,730.6301369863015 L951.0684931506851,730.6301369863015" stroke="yellow" stroke-width="2" fill="none" />
<path d="M983.7260273972604,861.260273972603 L983.7260273972604,828.6027397260277" stroke="yellow" stroke-width="2" fill="none" />
<path d="M983.7260273972604,828.6027397260277 L853.0958904109589,828.6027397260277" stroke="yellow" stroke-width="2" fill="none" />
<path d="M853.0958904109589,828.6027397260277 L853.0958904109589,861.260273972603" stroke="yellow" stroke-width="2" fill="none" />
<path d="M983.7260273972604,926.5753424657537 L951.0684931506851,926.5753424657537" stroke="yellow" stroke-width="2" fill="none" />
<path d="M951.0684931506851,926.5753424657537 L951.0684931506851,893.9178082191784" stroke="yellow" stroke-width="2" fill="none" />
<path d="M951.0684931506851,893.9178082191784 L983.7260273972604,893.9178082191784" stroke="yellow" stroke-width="2" fill="none" />
<path d="M853.0958904109589,893.9178082191784 L885.7534246575342,893.9178082191784" stroke="yellow" stroke-width="2" fill="none" />
<path d="M885.7534246575342,893.9178082191784 L885.7534246575342,926.5753424657537" stroke="yellow" stroke-width="2" fill="none" />
<path d="M885.7534246575342,926.5753424657537 L853.0958904109589,926.5753424657537" stroke="yellow" stroke-width="2" fill="none" />
<path d="M983.7260273972604,893.9178082191784 L983.7260273972604,926.5753424657537" stroke="yellow" stroke-width="2" fill="none" />
<path d="M853.0958904109589,926.5753424657537 L853.0958904109589,893.9178082191784" stroke="yellow" stroke-width="2" fill="none" />
<path d="M559.1780821917808,208.10958904109611 L559.1780821917808,273.42465753424676" stroke="yellow" stroke-width="2" fill="none" />
<path d="M363.2328767123288,175.4520547945208 L395.8904109589041,191.78082191780823" stroke="yellow" stroke-width="2" fill="none" />
<path d="M363.2328767123288,142.79452054794547 L363.2328767123288,175.4520547945208" stroke="yellow" stroke-width="2" fill="none" />
<path d="M395.8904109589041,126.46575342465758 L363.2328767123288,142.79452054794547" stroke="yellow" stroke-width="2" fill="none" />
<path d="M428.5479452054795,126.46575342465758 L395.8904109589041,126.46575342465758" stroke="yellow" stroke-width="2" fill="none" />
<path d="M428.5479452054795,191.78082191780823 L461.2054794520548,175.4520547945208" stroke="yellow" stroke-width="2" fill="none" />
<path d="M461.2054794520548,175.4520547945208 L461.2054794520548,142.79452054794547" stroke="yellow" stroke-width="2" fill="none" />
<path d="M461.2054794520548,142.79452054794547 L428.5479452054795,126.46575342465758" stroke="yellow" stroke-width="2" fill="none" />
<path d="M640.8219178082193,697.9726027397262 L636.7397260273974,673.4794520547948" stroke="lavender" stroke-width="2" fill="none" />
<path d="M636.7397260273974,673.4794520547948 L632.6575342465753,657.1506849315072" stroke="lavender" stroke-width="2" fill="none" />
<path d="M632.6575342465753,657.1506849315072 L616.3287671232877,653.0684931506851" stroke="lavender" stroke-width="2" fill="none" />
<path d="M616.3287671232877,653.0684931506851 L591.8356164383563,648.9863013698632" stroke="lavender" stroke-width="2" fill="none" />
<path d="M608.164383561644,730.6301369863015 L608.164383561644,665.3150684931509" stroke="yellow" stroke-width="2" fill="none" />
<path d="M608.164383561644,665.3150684931509 L575.5068493150685,665.3150684931509" stroke="yellow" stroke-width="2" fill="none" />
<path d="M575.5068493150685,697.9726027397262 L575.5068493150685,665.3150684931509" stroke="yellow" stroke-width="2" fill="none" />
<path d="M461.2054794520548,567.3424657534249 L428.5479452054795,567.3424657534249" stroke="yellow" stroke-width="2" fill="none" />
<path d="M428.5479452054795,575.5068493150686 L461.2054794520548,575.5068493150686" stroke="yellow" stroke-width="2" fill="none" />
<path d="M493.86301369863014,575.5068493150686 L526.5205479452055,575.5068493150686" stroke="yellow" stroke-width="2" fill="none" />
<path d="M395.8904109589041,469.36986301369893 L395.8904109589041,404.05479452054806" stroke="yellow" stroke-width="2" fill="none" />
<path d="M387.7260273972603,404.05479452054806 L387.7260273972603,469.36986301369893" stroke="yellow" stroke-width="2" fill="none" />
<path d="M363.2328767123288,306.0821917808221 L330.57534246575347,306.0821917808221" stroke="yellow" stroke-width="2" fill="none" />
<path d="M330.57534246575347,338.7397260273974 L363.2328767123288,338.7397260273974" stroke="yellow" stroke-width="2" fill="none" />
<path d="M387.7260273972603,404.05479452054806 L330.57534246575347,404.05479452054806" stroke="yellow" stroke-width="2" fill="none" />
<path d="M330.57534246575347,469.36986301369893 L387.7260273972603,469.36986301369893" stroke="yellow" stroke-width="2" fill="none" />
<path d="M330.57534246575347,404.05479452054806 L297.9178082191781,416.30136986301386" stroke="yellow" stroke-width="2" fill="none" />
<path d="M297.9178082191781,457.12328767123313 L330.57534246575347,469.36986301369893" stroke="yellow" stroke-width="2" fill="none" />
<path d="M297.9178082191781,416.30136986301386 L297.9178082191781,424.4657534246578" stroke="yellow" stroke-width="2" fill="none" />
<path d="M297.9178082191781,448.9589041095892 L297.9178082191781,457.12328767123313" stroke="yellow" stroke-width="2" fill="none" />
<path d="M297.9178082191781,448.9589041095892 L297.9178082191781,424.4657534246578" stroke="yellow" stroke-width="2" fill="none" />
<path d="M69.31506849315068,424.4657534246578 L61.150684931506845,404.05479452054806" stroke="yellow" stroke-width="2" fill="none" />
<path d="M61.150684931506845,404.05479452054806 L36.65753424657534,404.05479452054806" stroke="yellow" stroke-width="2" fill="none" />
<path d="M36.65753424657534,404.05479452054806 L24.410958904109577,428.54794520547966" stroke="yellow" stroke-width="2" fill="none" />
<path d="M24.410958904109577,428.54794520547966 L24.410958904109577,444.8767123287673" stroke="yellow" stroke-width="2" fill="none" />
<path d="M24.410958904109577,444.8767123287673 L36.65753424657534,469.36986301369893" stroke="yellow" stroke-width="2" fill="none" />
<path d="M36.65753424657534,469.36986301369893 L61.150684931506845,469.36986301369893" stroke="yellow" stroke-width="2" fill="none" />
<path d="M61.150684931506845,469.36986301369893 L69.31506849315068,448.9589041095892" stroke="yellow" stroke-width="2" fill="none" />
<path d="M330.57534246575347,534.6849315068496 L297.9178082191781,534.6849315068496" stroke="yellow" stroke-width="2" fill="none" />
<path d="M330.57534246575347,567.3424657534249 L297.9178082191781,567.3424657534249" stroke="lavender" stroke-width="2" fill="none" />
<path d="M36.65753424657534,338.7397260273974 L36.65753424657534,371.39726027397273" stroke="yellow" stroke-width="2" fill="none" />
<path d="M36.65753424657534,371.39726027397273 L69.31506849315068,371.39726027397273" stroke="yellow" stroke-width="2" fill="none" />
<path d="M69.31506849315068,371.39726027397273 L69.31506849315068,404.05479452054806" stroke="yellow" stroke-width="2" fill="none" />
<path d="M69.31506849315068,404.05479452054806 L101.97260273972603,404.05479452054806" stroke="yellow" stroke-width="2" fill="none" />
<path d="M167.28767123287673,371.39726027397273 L167.28767123287673,338.7397260273974" stroke="yellow" stroke-width="2" fill="none" />
<path d="M134.63013698630138,424.4657534246578 L101.97260273972603,424.4657534246578" stroke="yellow" stroke-width="2" fill="none" />
<path d="M101.97260273972603,424.4657534246578 L69.31506849315068,424.4657534246578" stroke="yellow" stroke-width="2" fill="none" />
<path d="M69.31506849315068,448.9589041095892 L101.97260273972603,448.9589041095892" stroke="yellow" stroke-width="2" fill="none" />
<path d="M101.97260273972603,448.9589041095892 L134.63013698630138,448.9589041095892" stroke="yellow" stroke-width="2" fill="none" />
<path d="M101.97260273972603,404.05479452054806 L101.97260273972603,424.4657534246578" stroke="yellow" stroke-width="2" fill="none" />
<path d="M101.97260273972603,424.4657534246578 L101.97260273972603,448.9589041095892" stroke="yellow" stroke-width="2" fill="none" />
<path d="M101.97260273972603,448.9589041095892 L101.97260273972603,469.36986301369893" stroke="yellow" stroke-width="2" fill="none" />
<path d="M101.97260273972603,469.36986301369893 L69.31506849315068,469.36986301369893" stroke="yellow" stroke-width="2" fill="none" />
<path d="M69.31506849315068,469.36986301369893 L69.31506849315068,502.02739726027426" stroke="yellow" stroke-width="2" fill="none" />
<path d="M69.31506849315068,502.02739726027426 L36.65753424657534,502.02739726027426" stroke="yellow" stroke-width="2" fill="none" />
<path d="M36.65753424657534,502.02739726027426 L36.65753424657534,534.6849315068496" stroke="yellow" stroke-width="2" fill="none" />
<path d="M134.63013698630138,424.4657534246578 L134.63013698630138,404.05479452054806" stroke="yellow" stroke-width="2" fill="none" />
<path d="M134.63013698630138,404.05479452054806 L167.28767123287673,404.05479452054806" stroke="yellow" stroke-width="2" fill="none" />
<path d="M167.28767123287673,404.05479452054806 L167.28767123287673,371.39726027397273" stroke="yellow" stroke-width="2" fill="none" />
<path d="M134.63013698630138,534.6849315068496 L134.63013698630138,502.02739726027426" stroke="yellow" stroke-width="2" fill="none" />
<path d="M134.63013698630138,502.02739726027426 L134.63013698630138,448.9589041095892" stroke="yellow" stroke-width="2" fill="none" />
<path d="M134.63013698630138,448.9589041095892 L134.63013698630138,424.4657534246578" stroke="yellow" stroke-width="2" fill="none" />
<path d="M297.9178082191781,424.4657534246578 L265.26027397260276,424.4657534246578" stroke="yellow" stroke-width="2" fill="none" />
<path d="M265.26027397260276,424.4657534246578 L232.6027397260274,424.4657534246578" stroke="yellow" stroke-width="2" fill="none" />
<path d="M232.6027397260274,424.4657534246578 L134.63013698630138,424.4657534246578" stroke="yellow" stroke-width="2" fill="none" />
<path d="M134.63013698630138,448.9589041095892 L232.6027397260274,448.9589041095892" stroke="yellow" stroke-width="2" fill="none" />
<path d="M232.6027397260274,448.9589041095892 L265.26027397260276,448.9589041095892" stroke="yellow" stroke-width="2" fill="none" />
<path d="M265.26027397260276,448.9589041095892 L297.9178082191781,448.9589041095892" stroke="yellow" stroke-width="2" fill="none" />
<path d="M199.94520547945206,338.7397260273974 L199.94520547945206,371.39726027397273" stroke="yellow" stroke-width="2" fill="none" />
<path d="M199.94520547945206,371.39726027397273 L232.6027397260274,371.39726027397273" stroke="yellow" stroke-width="2" fill="none" />
<path d="M232.6027397260274,371.39726027397273 L232.6027397260274,424.4657534246578" stroke="yellow" stroke-width="2" fill="none" />
<path d="M265.26027397260276,424.4657534246578 L265.26027397260276,404.05479452054806" stroke="yellow" stroke-width="2" fill="none" />
<path d="M265.26027397260276,404.05479452054806 L297.9178082191781,404.05479452054806" stroke="yellow" stroke-width="2" fill="none" />
<path d="M297.9178082191781,404.05479452054806 L297.9178082191781,371.39726027397273" stroke="yellow" stroke-width="2" fill="none" />
<path d="M297.9178082191781,371.39726027397273 L330.57534246575347,371.39726027397273" stroke="yellow" stroke-width="2" fill="none" />
<path d="M330.57534246575347,371.39726027397273 L330.57534246575347,338.7397260273974" stroke="yellow" stroke-width="2" fill="none" />
<path d="M232.6027397260274,424.4657534246578 L232.6027397260274,448.9589041095892" stroke="yellow" stroke-width="2" fill="none" />
<path d="M265.26027397260276,448.9589041095892 L265.26027397260276,424.4657534246578" stroke="yellow" stroke-width="2" fill="none" />
<path d="M232.6027397260274,448.9589041095892 L232.6027397260274,469.36986301369893" stroke="yellow" stroke-width="2" fill="none" />
<path d="M232.6027397260274,469.36986301369893 L199.94520547945206,469.36986301369893" stroke="yellow" stroke-width="2" fill="none" />
<path d="M199.94520547945206,469.36986301369893 L199.94520547945206,502.02739726027426" stroke="yellow" stroke-width="2" fill="none" />
<path d="M199.94520547945206,502.02739726027426 L167.28767123287673,502.02739726027426" stroke="yellow" stroke-width="2" fill="none" />
<path d="M167.28767123287673,502.02739726027426 L167.28767123287673,534.6849315068496" stroke="yellow" stroke-width="2" fill="none" />
<path d="M297.9178082191781,534.6849315068496 L297.9178082191781,502.02739726027426" stroke="yellow" stroke-width="2" fill="none" />
<path d="M297.9178082191781,502.02739726027426 L265.26027397260276,502.02739726027426" stroke="yellow" stroke-width="2" fill="none" />
<path d="M265.26027397260276,502.02739726027426 L265.26027397260276,448.9589041095892" stroke="yellow" stroke-width="2" fill="none" />
<path d="M853.0958904109589,861.260273972603 L983.7260273972604,861.260273972603" stroke="yellow" stroke-width="2" fill="none" />
<path d="M853.0958904109589,885.7534246575344 L853.0958904109589,869.4246575342468" stroke="yellow" stroke-width="2" fill="none" />
<path d="M885.7534246575342,436.7123287671236 L885.7534246575342,420.38356164383595" stroke="yellow" stroke-width="2" fill="none" />
<path d="M951.0684931506851,420.38356164383595 L951.0684931506851,436.7123287671236" stroke="yellow" stroke-width="2" fill="none" />
<path d="M1016.3835616438357,926.5753424657537 L1016.3835616438357,910.246575342466" stroke="yellow" stroke-width="2" fill="none" />
<path d="M1016.3835616438357,910.246575342466 L1016.3835616438357,893.9178082191784" stroke="yellow" stroke-width="2" fill="none" />
<path d="M820.4383561643835,910.246575342466 L820.4383561643835,926.5753424657537" stroke="yellow" stroke-width="2" fill="none" />
<path d="M820.4383561643835,893.9178082191784 L820.4383561643835,910.246575342466" stroke="yellow" stroke-width="2" fill="none" />
<path d="M551.013698630137,69.3150684931511 L551.013698630137,52.98630136986321" stroke="yellow" stroke-width="2" fill="none" />
<path d="M722.4657534246576,722.4657534246578 L689.8082191780823,697.9726027397262" stroke="red" stroke-width="2" fill="none" />
<path d="M689.8082191780823,632.6575342465756 L689.8082191780823,567.3424657534249" stroke="red" stroke-width="2" fill="none" />
<path d="M689.8082191780823,567.3424657534249 L722.4657534246576,534.6849315068496" stroke="red" stroke-width="2" fill="none" />
<path d="M787.7808219178082,534.6849315068496 L787.7808219178082,502.02739726027426" stroke="red" stroke-width="2" fill="none" />
<path d="M787.7808219178082,632.6575342465756 L787.7808219178082,600.0000000000002" stroke="red" stroke-width="2" fill="none" />
<path d="M755.1232876712329,600.0000000000002 L755.1232876712329,632.6575342465756" stroke="red" stroke-width="2" fill="none" />
<path d="M820.4383561643835,722.4657534246578 L787.7808219178082,722.4657534246578" stroke="red" stroke-width="2" fill="none" />
<path d="M787.7808219178082,722.4657534246578 L755.1232876712329,722.4657534246578" stroke="red" stroke-width="2" fill="none" />
<path d="M755.1232876712329,722.4657534246578 L722.4657534246576,722.4657534246578" stroke="red" stroke-width="2" fill="none" />
<path d="M787.7808219178082,600.0000000000002 L771.4520547945206,600.0000000000002" stroke="red" stroke-width="2" fill="none" />
<path d="M771.4520547945206,600.0000000000002 L755.1232876712329,600.0000000000002" stroke="red" stroke-width="2" fill="none" />
<path d="M771.4520547945206,534.6849315068496 L787.7808219178082,534.6849315068496" stroke="red" stroke-width="2" fill="none" />
<path d="M1114.3561643835617,722.4657534246578 L1081.6986301369864,722.4657534246578" stroke="red" stroke-width="2" fill="none" />
<path d="M1081.6986301369864,722.4657534246578 L1049.041095890411,722.4657534246578" stroke="red" stroke-width="2" fill="none" />
<path d="M1049.041095890411,722.4657534246578 L1016.3835616438357,722.4657534246578" stroke="red" stroke-width="2" fill="none" />
<path d="M1147.013698630137,697.9726027397262 L1114.3561643835617,722.4657534246578" stroke="red" stroke-width="2" fill="none" />
<path d="M1147.013698630137,567.3424657534249 L1147.013698630137,632.6575342465756" stroke="red" stroke-width="2" fill="none" />
<path d="M1114.3561643835617,534.6849315068496 L1147.013698630137,567.3424657534249" stroke="red" stroke-width="2" fill="none" />
<path d="M1049.041095890411,502.02739726027426 L1049.041095890411,534.6849315068496" stroke="red" stroke-width="2" fill="none" />
<path d="M1081.6986301369864,632.6575342465756 L1081.6986301369864,600.0000000000002" stroke="red" stroke-width="2" fill="none" />
<path d="M1081.6986301369864,600.0000000000002 L1065.3698630136987,600.0000000000002" stroke="red" stroke-width="2" fill="none" />
<path d="M1065.3698630136987,600.0000000000002 L1049.041095890411,600.0000000000002" stroke="red" stroke-width="2" fill="none" />
<path d="M1049.041095890411,600.0000000000002 L1049.041095890411,632.6575342465756" stroke="red" stroke-width="2" fill="none" />
<path d="M1049.041095890411,534.6849315068496 L1065.3698630136987,534.6849315068496" stroke="red" stroke-width="2" fill="none" />
<path d="M853.0958904109589,534.6849315068496 L853.0958904109589,567.3424657534249" stroke="red" stroke-width="2" fill="none" />
<path d="M885.7534246575342,567.3424657534249 L885.7534246575342,534.6849315068496" stroke="red" stroke-width="2" fill="none" />
<path d="M885.7534246575342,534.6849315068496 L853.0958904109589,534.6849315068496" stroke="red" stroke-width="2" fill="none" />
<path d="M951.0684931506851,534.6849315068496 L951.0684931506851,567.3424657534249" stroke="red" stroke-width="2" fill="none" />
<path d="M983.7260273972604,567.3424657534249 L983.7260273972604,534.6849315068496" stroke="red" stroke-width="2" fill="none" />
<path d="M983.7260273972604,534.6849315068496 L951.0684931506851,534.6849315068496" stroke="red" stroke-width="2" fill="none" />
<path d="M951.0684931506851,567.3424657534249 L983.7260273972604,567.3424657534249" stroke="red" stroke-width="2" fill="none" />
<path d="M853.0958904109589,567.3424657534249 L885.7534246575342,567.3424657534249" stroke="red" stroke-width="2" fill="none" />
<path d="M1049.041095890411,436.7123287671236 L1049.041095890411,502.02739726027426" stroke="red" stroke-width="2" fill="none" />
<path d="M787.7808219178082,502.02739726027426 L787.7808219178082,436.7123287671236" stroke="red" stroke-width="2" fill="none" />
<path d="M1049.041095890411,632.6575342465756 L1081.6986301369864,632.6575342465756" stroke="red" stroke-width="2" fill="none" />
<path d="M755.1232876712329,632.6575342465756 L787.7808219178082,632.6575342465756" stroke="red" stroke-width="2" fill="none" />
<path d="M722.4657534246576,534.6849315068496 L730.6301369863015,534.6849315068496" stroke="red" stroke-width="2" fill="none" />
<path d="M730.6301369863015,534.6849315068496 L730.6301369863015,526.5205479452056" stroke="red" stroke-width="2" fill="none" />
<path d="M730.6301369863015,526.5205479452056 L722.4657534246576,526.5205479452056" stroke="red" stroke-width="2" fill="none" />
<path d="M722.4657534246576,526.5205479452056 L710.2191780821918,526.5205479452056" stroke="red" stroke-width="2" fill="none" />
<path d="M710.2191780821918,526.5205479452056 L710.2191780821918,469.36986301369893" stroke="red" stroke-width="2" fill="none" />
<path d="M710.2191780821918,469.36986301369893 L783.6986301369864,469.36986301369893" stroke="red" stroke-width="2" fill="none" />
<path d="M783.6986301369864,469.36986301369893 L783.6986301369864,526.5205479452056" stroke="red" stroke-width="2" fill="none" />
<path d="M783.6986301369864,526.5205479452056 L771.4520547945206,526.5205479452056" stroke="red" stroke-width="2" fill="none" />
<path d="M771.4520547945206,526.5205479452056 L763.2876712328768,526.5205479452056" stroke="red" stroke-width="2" fill="none" />
<path d="M763.2876712328768,526.5205479452056 L763.2876712328768,534.6849315068496" stroke="red" stroke-width="2" fill="none" />
<path d="M763.2876712328768,534.6849315068496 L771.4520547945206,534.6849315068496" stroke="red" stroke-width="2" fill="none" />
<path d="M1073.5342465753426,534.6849315068496 L1073.5342465753426,526.5205479452056" stroke="red" stroke-width="2" fill="none" />
<path d="M1073.5342465753426,526.5205479452056 L1065.3698630136987,526.5205479452056" stroke="red" stroke-width="2" fill="none" />
<path d="M1065.3698630136987,526.5205479452056 L1053.123287671233,526.5205479452056" stroke="red" stroke-width="2" fill="none" />
<path d="M1053.123287671233,526.5205479452056 L1053.123287671233,469.36986301369893" stroke="red" stroke-width="2" fill="none" />
<path d="M1053.123287671233,469.36986301369893 L1126.6027397260275,469.36986301369893" stroke="red" stroke-width="2" fill="none" />
<path d="M1126.6027397260275,469.36986301369893 L1126.6027397260275,526.5205479452056" stroke="red" stroke-width="2" fill="none" />
<path d="M1126.6027397260275,526.5205479452056 L1114.3561643835617,526.5205479452056" stroke="red" stroke-width="2" fill="none" />
<path d="M1114.3561643835617,526.5205479452056 L1106.191780821918,526.5205479452056" stroke="red" stroke-width="2" fill="none" />
<path d="M1106.191780821918,526.5205479452056 L1106.191780821918,534.6849315068496" stroke="red" stroke-width="2" fill="none" />
<path d="M1065.3698630136987,534.6849315068496 L1073.5342465753426,534.6849315068496" stroke="red" stroke-width="2" fill="none" />
<path d="M1106.191780821918,534.6849315068496 L1114.3561643835617,534.6849315068496" stroke="red" stroke-width="2" fill="none" />
<path d="M787.7808219178082,436.7123287671236 L853.0958904109589,436.7123287671236" stroke="red" stroke-width="2" fill="none" />
<path d="M983.7260273972604,436.7123287671236 L1049.041095890411,436.7123287671236" stroke="red" stroke-width="2" fill="none" />
<path d="M853.0958904109589,436.7123287671236 L853.0958904109589,420.38356164383595" stroke="red" stroke-width="2" fill="none" />
<path d="M983.7260273972604,420.38356164383595 L983.7260273972604,436.7123287671236" stroke="red" stroke-width="2" fill="none" />
<path d="M853.0958904109589,420.38356164383595 L787.7808219178082,420.38356164383595" stroke="red" stroke-width="2" fill="none" />
<path d="M1049.041095890411,420.38356164383595 L983.7260273972604,420.38356164383595" stroke="red" stroke-width="2" fill="none" />
<path d="M1049.041095890411,93.80821917808225 L1049.041095890411,208.10958904109611" stroke="red" stroke-width="2" fill="none" />
<path d="M1049.041095890411,208.10958904109611 L1065.3698630136987,208.10958904109611" stroke="red" stroke-width="2" fill="none" />
<path d="M1065.3698630136987,306.0821917808221 L1049.041095890411,306.0821917808221" stroke="red" stroke-width="2" fill="none" />
<path d="M1065.3698630136987,208.10958904109611 L1065.3698630136987,191.78082191780823" stroke="red" stroke-width="2" fill="none" />
<path d="M1179.6712328767123,191.78082191780823 L1179.6712328767123,322.41095890410975" stroke="red" stroke-width="2" fill="none" />
<path d="M1065.3698630136987,322.41095890410975 L1065.3698630136987,306.0821917808221" stroke="red" stroke-width="2" fill="none" />
<path d="M1065.3698630136987,191.78082191780823 L1081.6986301369864,191.78082191780823" stroke="red" stroke-width="2" fill="none" />
<path d="M1081.6986301369864,191.78082191780823 L1081.6986301369864,77.47945205479482" stroke="red" stroke-width="2" fill="none" />
<path d="M1081.6986301369864,77.47945205479482 L1016.3835616438357,77.47945205479482" stroke="red" stroke-width="2" fill="none" />
<path d="M1147.013698630137,191.78082191780823 L1179.6712328767123,191.78082191780823" stroke="red" stroke-width="2" fill="none" />
<path d="M1147.013698630137,12.164383561644172 L1147.013698630137,191.78082191780823" stroke="red" stroke-width="2" fill="none" />
<path d="M795.9452054794522,12.164383561644172 L1147.013698630137,12.164383561644172" stroke="red" stroke-width="2" fill="none" />
<path d="M787.7808219178082,93.80821917808225 L820.4383561643835,93.80821917808225" stroke="red" stroke-width="2" fill="none" />
<path d="M1016.3835616438357,93.80821917808225 L1049.041095890411,93.80821917808225" stroke="red" stroke-width="2" fill="none" />
<path d="M820.4383561643835,77.47945205479482 L795.9452054794522,77.47945205479482" stroke="red" stroke-width="2" fill="none" />
<path d="M820.4383561643835,93.80821917808225 L820.4383561643835,85.64383561643854" stroke="red" stroke-width="2" fill="none" />
<path d="M820.4383561643835,85.64383561643854 L820.4383561643835,77.47945205479482" stroke="red" stroke-width="2" fill="none" />
<path d="M1016.3835616438357,77.47945205479482 L1016.3835616438357,85.64383561643854" stroke="red" stroke-width="2" fill="none" />
<path d="M1016.3835616438357,85.64383561643854 L1016.3835616438357,93.80821917808225" stroke="red" stroke-width="2" fill="none" />
<path d="M1049.041095890411,306.0821917808221 L1049.041095890411,338.7397260273974" stroke="red" stroke-width="2" fill="none" />
<path d="M1049.041095890411,338.7397260273974 L1057.2054794520548,338.7397260273974" stroke="red" stroke-width="2" fill="none" />
<path d="M1057.2054794520548,404.05479452054806 L1049.041095890411,404.05479452054806" stroke="red" stroke-width="2" fill="none" />
<path d="M1049.041095890411,404.05479452054806 L1049.041095890411,420.38356164383595" stroke="red" stroke-width="2" fill="none" />
<path d="M1147.013698630137,404.05479452054806 L1057.2054794520548,404.05479452054806" stroke="red" stroke-width="2" fill="none" />
<path d="M1147.013698630137,338.7397260273974 L1147.013698630137,404.05479452054806" stroke="red" stroke-width="2" fill="none" />
<path d="M1147.013698630137,322.41095890410975 L1147.013698630137,338.7397260273974" stroke="red" stroke-width="2" fill="none" />
<path d="M1179.6712328767123,322.41095890410975 L1147.013698630137,322.41095890410975" stroke="red" stroke-width="2" fill="none" />
<path d="M1081.6986301369864,322.41095890410975 L1065.3698630136987,322.41095890410975" stroke="red" stroke-width="2" fill="none" />
<path d="M1057.2054794520548,338.7397260273974 L1081.6986301369864,338.7397260273974" stroke="red" stroke-width="2" fill="none" />
<path d="M1081.6986301369864,338.7397260273974 L1081.6986301369864,322.41095890410975" stroke="red" stroke-width="2" fill="none" />
<path d="M787.7808219178082,420.38356164383595 L787.7808219178082,404.05479452054806" stroke="red" stroke-width="2" fill="none" />
<path d="M787.7808219178082,346.90410958904135 L787.7808219178082,338.7397260273974" stroke="red" stroke-width="2" fill="none" />
<path d="M787.7808219178082,338.7397260273974 L779.6164383561645,338.7397260273974" stroke="red" stroke-width="2" fill="none" />
<path d="M779.6164383561645,338.7397260273974 L779.6164383561645,346.90410958904135" stroke="red" stroke-width="2" fill="none" />
<path d="M779.6164383561645,346.90410958904135 L787.7808219178082,346.90410958904135" stroke="red" stroke-width="2" fill="none" />
<path d="M787.7808219178082,404.05479452054806 L779.6164383561645,404.05479452054806" stroke="red" stroke-width="2" fill="none" />
<path d="M779.6164383561645,404.05479452054806 L722.4657534246576,404.05479452054806" stroke="red" stroke-width="2" fill="none" />
<path d="M722.4657534246576,404.05479452054806 L722.4657534246576,346.90410958904135" stroke="red" stroke-width="2" fill="none" />
<path d="M722.4657534246576,346.90410958904135 L722.4657534246576,338.7397260273974" stroke="red" stroke-width="2" fill="none" />
<path d="M722.4657534246576,338.7397260273974 L722.4657534246576,306.0821917808221" stroke="red" stroke-width="2" fill="none" />
<path d="M722.4657534246576,306.0821917808221 L722.4657534246576,273.42465753424676" stroke="red" stroke-width="2" fill="none" />
<path d="M722.4657534246576,273.42465753424676 L722.4657534246576,240.76712328767144" stroke="red" stroke-width="2" fill="none" />
<path d="M722.4657534246576,240.76712328767144 L722.4657534246576,208.10958904109611" stroke="red" stroke-width="2" fill="none" />
<path d="M722.4657534246576,208.10958904109611 L722.4657534246576,175.4520547945208" stroke="red" stroke-width="2" fill="none" />
<path d="M755.1232876712329,134.63013698630175 L755.1232876712329,142.79452054794547" stroke="red" stroke-width="2" fill="none" />
<path d="M722.4657534246576,175.4520547945208 L714.3013698630139,175.4520547945208" stroke="red" stroke-width="2" fill="none" />
<path d="M714.3013698630139,175.4520547945208 L714.3013698630139,199.9452054794524" stroke="red" stroke-width="2" fill="none" />
<path d="M763.2876712328768,134.63013698630175 L755.1232876712329,134.63013698630175" stroke="red" stroke-width="2" fill="none" />
<path d="M763.2876712328768,12.164383561644172 L763.2876712328768,28.493150684931607" stroke="red" stroke-width="2" fill="none" />
<path d="M763.2876712328768,61.15068493150693 L763.2876712328768,134.63013698630175" stroke="red" stroke-width="2" fill="none" />
<path d="M795.9452054794522,77.47945205479482 L795.9452054794522,61.15068493150693" stroke="red" stroke-width="2" fill="none" />
<path d="M795.9452054794522,61.15068493150693 L787.7808219178082,61.15068493150693" stroke="red" stroke-width="2" fill="none" />
<path d="M787.7808219178082,28.493150684931607 L795.9452054794522,28.493150684931607" stroke="red" stroke-width="2" fill="none" />
<path d="M795.9452054794522,28.493150684931607 L795.9452054794522,12.164383561644172" stroke="red" stroke-width="2" fill="none" />
<path d="M763.2876712328768,28.493150684931607 L787.7808219178082,28.493150684931607" stroke="red" stroke-width="2" fill="none" />
<path d="M787.7808219178082,61.15068493150693 L763.2876712328768,61.15068493150693" stroke="red" stroke-width="2" fill="none" />
<path d="M624.4931506849316,12.164383561644172 L657.1506849315069,12.164383561644172" stroke="red" stroke-width="2" fill="none" />
<path d="M722.4657534246576,12.164383561644172 L763.2876712328768,12.164383561644172" stroke="red" stroke-width="2" fill="none" />
<path d="M657.1506849315069,4.0 L722.4657534246576,4.0" stroke="red" stroke-width="2" fill="none" />
<path d="M657.1506849315069,12.164383561644172 L657.1506849315069,4.0" stroke="red" stroke-width="2" fill="none" />
<path d="M722.4657534246576,4.0 L722.4657534246576,12.164383561644172" stroke="red" stroke-width="2" fill="none" />
<path d="M624.4931506849316,28.493150684931607 L624.4931506849316,12.164383561644172" stroke="red" stroke-width="2" fill="none" />
<path d="M559.1780821917808,28.493150684931607 L616.3287671232877,28.493150684931607" stroke="red" stroke-width="2" fill="none" />
<path d="M616.3287671232877,28.493150684931607 L624.4931506849316,28.493150684931607" stroke="red" stroke-width="2" fill="none" />
<path d="M624.4931506849316,93.80821917808225 L616.3287671232877,93.80821917808225" stroke="red" stroke-width="2" fill="none" />
<path d="M616.3287671232877,93.80821917808225 L559.1780821917808,93.80821917808225" stroke="red" stroke-width="2" fill="none" />
<path d="M559.1780821917808,93.80821917808225 L559.1780821917808,77.47945205479482" stroke="red" stroke-width="2" fill="none" />
<path d="M559.1780821917808,77.47945205479482 L551.013698630137,77.47945205479482" stroke="red" stroke-width="2" fill="none" />
<path d="M551.013698630137,44.821917808219496 L559.1780821917808,44.821917808219496" stroke="red" stroke-width="2" fill="none" />
<path d="M559.1780821917808,44.821917808219496 L559.1780821917808,28.493150684931607" stroke="red" stroke-width="2" fill="none" />
<path d="M689.8082191780823,697.9726027397262 L681.6438356164383,697.9726027397262" stroke="red" stroke-width="2" fill="none" />
<path d="M681.6438356164383,632.6575342465756 L689.8082191780823,632.6575342465756" stroke="red" stroke-width="2" fill="none" />
<path d="M665.3150684931506,632.6575342465756 L681.6438356164383,632.6575342465756" stroke="red" stroke-width="2" fill="none" />
<path d="M665.3150684931506,600.0000000000002 L665.3150684931506,632.6575342465756" stroke="red" stroke-width="2" fill="none" />
<path d="M591.8356164383563,632.6575342465756 L591.8356164383563,600.0000000000002" stroke="red" stroke-width="2" fill="none" />
<path d="M591.8356164383563,600.0000000000002 L575.5068493150685,567.3424657534249" stroke="red" stroke-width="2" fill="none" />
<path d="M677.5616438356165,567.3424657534249 L665.3150684931506,600.0000000000002" stroke="red" stroke-width="2" fill="none" />
<path d="M677.5616438356165,346.90410958904135 L677.5616438356165,424.4657534246578" stroke="red" stroke-width="2" fill="none" />
<path d="M677.5616438356165,424.4657534246578 L677.5616438356165,461.205479452055" stroke="red" stroke-width="2" fill="none" />
<path d="M677.5616438356165,461.205479452055 L677.5616438356165,502.02739726027426" stroke="red" stroke-width="2" fill="none" />
<path d="M493.86301369863014,567.3424657534249 L461.2054794520548,567.3424657534249" stroke="red" stroke-width="2" fill="none" />
<path d="M677.5616438356165,502.02739726027426 L677.5616438356165,559.178082191781" stroke="red" stroke-width="2" fill="none" />
<path d="M677.5616438356165,559.178082191781 L677.5616438356165,567.3424657534249" stroke="red" stroke-width="2" fill="none" />
<path d="M575.5068493150685,567.3424657534249 L567.3424657534247,567.3424657534249" stroke="red" stroke-width="2" fill="none" />
<path d="M567.3424657534247,567.3424657534249 L526.5205479452055,567.3424657534249" stroke="red" stroke-width="2" fill="none" />
<path d="M657.1506849315069,346.90410958904135 L677.5616438356165,346.90410958904135" stroke="red" stroke-width="2" fill="none" />
<path d="M612.2465753424658,346.90410958904135 L612.2465753424658,338.7397260273974" stroke="red" stroke-width="2" fill="none" />
<path d="M612.2465753424658,338.7397260273974 L591.8356164383563,338.7397260273974" stroke="red" stroke-width="2" fill="none" />
<path d="M673.4794520547946,199.9452054794524 L673.4794520547946,208.10958904109611" stroke="red" stroke-width="2" fill="none" />
<path d="M673.4794520547946,208.10958904109611 L689.8082191780823,208.10958904109611" stroke="red" stroke-width="2" fill="none" />
<path d="M689.8082191780823,208.10958904109611 L689.8082191780823,338.7397260273974" stroke="red" stroke-width="2" fill="none" />
<path d="M689.8082191780823,338.7397260273974 L657.1506849315069,338.7397260273974" stroke="red" stroke-width="2" fill="none" />
<path d="M657.1506849315069,338.7397260273974 L657.1506849315069,346.90410958904135" stroke="red" stroke-width="2" fill="none" />
<path d="M714.3013698630139,199.9452054794524 L673.4794520547946,199.9452054794524" stroke="red" stroke-width="2" fill="none" />
<path d="M624.4931506849316,175.4520547945208 L624.4931506849316,93.80821917808225" stroke="red" stroke-width="2" fill="none" />
<path d="M591.8356164383563,175.4520547945208 L616.3287671232877,175.4520547945208" stroke="red" stroke-width="2" fill="none" />
<path d="M616.3287671232877,175.4520547945208 L624.4931506849316,175.4520547945208" stroke="red" stroke-width="2" fill="none" />
<path d="M559.1780821917808,346.90410958904135 L612.2465753424658,346.90410958904135" stroke="red" stroke-width="2" fill="none" />
<path d="M314.2465753424658,101.97260273972643 L559.1780821917808,101.97260273972643" stroke="red" stroke-width="2" fill="none" />
<path d="M1147.013698630137,632.6575342465756 L1155.178082191781,632.6575342465756" stroke="red" stroke-width="2" fill="none" />
<path d="M1155.178082191781,697.9726027397262 L1147.013698630137,697.9726027397262" stroke="red" stroke-width="2" fill="none" />
<path d="M1196.0,697.9726027397262 L1155.178082191781,697.9726027397262" stroke="red" stroke-width="2" fill="none" />
<path d="M1155.178082191781,632.6575342465756 L1163.3424657534247,632.6575342465756" stroke="red" stroke-width="2" fill="none" />
<path d="M1163.3424657534247,632.6575342465756 L1163.3424657534247,567.3424657534249" stroke="red" stroke-width="2" fill="none" />
<path d="M1163.3424657534247,567.3424657534249 L1196.0,567.3424657534249" stroke="red" stroke-width="2" fill="none" />
<path d="M1196.0,567.3424657534249 L1196.0,697.9726027397262" stroke="red" stroke-width="2" fill="none" />
<path d="M1016.3835616438357,722.4657534246578 L951.0684931506851,722.4657534246578" stroke="red" stroke-width="2" fill="none" />
<path d="M885.7534246575342,722.4657534246578 L820.4383561643835,722.4657534246578" stroke="red" stroke-width="2" fill="none" />
<path d="M951.0684931506851,722.4657534246578 L951.0684931506851,730.6301369863015" stroke="red" stroke-width="2" fill="none" />
<path d="M951.0684931506851,730.6301369863015 L1049.041095890411,730.6301369863015" stroke="red" stroke-width="2" fill="none" />
<path d="M1049.041095890411,730.6301369863015 L1049.041095890411,959.232876712329" stroke="red" stroke-width="2" fill="none" />
<path d="M787.7808219178082,959.232876712329 L787.7808219178082,730.6301369863015" stroke="red" stroke-width="2" fill="none" />
<path d="M787.7808219178082,730.6301369863015 L885.7534246575342,730.6301369863015" stroke="red" stroke-width="2" fill="none" />
<path d="M885.7534246575342,730.6301369863015 L885.7534246575342,722.4657534246578" stroke="red" stroke-width="2" fill="none" />
<path d="M983.7260273972604,775.5342465753426 L853.0958904109589,775.5342465753426" stroke="red" stroke-width="2" fill="none" />
<path d="M853.0958904109589,775.5342465753426 L853.0958904109589,783.6986301369866" stroke="red" stroke-width="2" fill="none" />
<path d="M853.0958904109589,783.6986301369866 L983.7260273972604,783.6986301369866" stroke="red" stroke-width="2" fill="none" />
<path d="M983.7260273972604,783.6986301369866 L983.7260273972604,775.5342465753426" stroke="red" stroke-width="2" fill="none" />
<path d="M1049.041095890411,959.232876712329 L1016.3835616438357,959.232876712329" stroke="red" stroke-width="2" fill="none" />
<path d="M1016.3835616438357,861.260273972603 L983.7260273972604,861.260273972603" stroke="red" stroke-width="2" fill="none" />
<path d="M853.0958904109589,861.260273972603 L820.4383561643835,861.260273972603" stroke="red" stroke-width="2" fill="none" />
<path d="M820.4383561643835,959.232876712329 L787.7808219178082,959.232876712329" stroke="red" stroke-width="2" fill="none" />
<path d="M983.7260273972604,959.232876712329 L853.0958904109589,959.232876712329" stroke="red" stroke-width="2" fill="none" />
<path d="M1016.3835616438357,959.232876712329 L1016.3835616438357,926.5753424657537" stroke="red" stroke-width="2" fill="none" />
<path d="M1016.3835616438357,893.9178082191784 L1016.3835616438357,861.260273972603" stroke="red" stroke-width="2" fill="none" />
<path d="M983.7260273972604,893.9178082191784 L1016.3835616438357,893.9178082191784" stroke="red" stroke-width="2" fill="none" />
<path d="M1016.3835616438357,926.5753424657537 L983.7260273972604,926.5753424657537" stroke="red" stroke-width="2" fill="none" />
<path d="M983.7260273972604,861.260273972603 L983.7260273972604,893.9178082191784" stroke="red" stroke-width="2" fill="none" />
<path d="M983.7260273972604,926.5753424657537 L983.7260273972604,959.232876712329" stroke="red" stroke-width="2" fill="none" />
<path d="M820.4383561643835,861.260273972603 L820.4383561643835,893.9178082191784" stroke="red" stroke-width="2" fill="none" />
<path d="M820.4383561643835,926.5753424657537 L820.4383561643835,959.232876712329" stroke="red" stroke-width="2" fill="none" />
<path d="M820.4383561643835,893.9178082191784 L853.0958904109589,893.9178082191784" stroke="red" stroke-width="2" fill="none" />
<path d="M853.0958904109589,926.5753424657537 L820.4383561643835,926.5753424657537" stroke="red" stroke-width="2" fill="none" />
<path d="M853.0958904109589,959.232876712329 L853.0958904109589,926.5753424657537" stroke="red" stroke-width="2" fill="none" />
<path d="M591.8356164383563,338.7397260273974 L591.8356164383563,273.42465753424676" stroke="red" stroke-width="2" fill="none" />
<path d="M591.8356164383563,273.42465753424676 L559.1780821917808,273.42465753424676" stroke="red" stroke-width="2" fill="none" />
<path d="M559.1780821917808,208.10958904109611 L591.8356164383563,208.10958904109611" stroke="red" stroke-width="2" fill="none" />
<path d="M591.8356164383563,208.10958904109611 L591.8356164383563,175.4520547945208" stroke="red" stroke-width="2" fill="none" />
<path d="M559.1780821917808,101.97260273972643 L559.1780821917808,208.10958904109611" stroke="red" stroke-width="2" fill="none" />
<path d="M559.1780821917808,273.42465753424676 L559.1780821917808,346.90410958904135" stroke="red" stroke-width="2" fill="none" />
<path d="M395.8904109589041,346.90410958904135 L395.8904109589041,306.0821917808221" stroke="red" stroke-width="2" fill="none" />
<path d="M314.2465753424658,306.0821917808221 L314.2465753424658,101.97260273972643" stroke="red" stroke-width="2" fill="none" />
<path d="M681.6438356164383,697.9726027397262 L640.8219178082193,697.9726027397262" stroke="red" stroke-width="2" fill="none" />
<path d="M591.8356164383563,648.9863013698632 L591.8356164383563,632.6575342465756" stroke="red" stroke-width="2" fill="none" />
<path d="M640.8219178082193,697.9726027397262 L640.8219178082193,730.6301369863015" stroke="red" stroke-width="2" fill="none" />
<path d="M575.5068493150685,648.9863013698632 L591.8356164383563,648.9863013698632" stroke="red" stroke-width="2" fill="none" />
<path d="M575.5068493150685,730.6301369863015 L575.5068493150685,697.9726027397262" stroke="red" stroke-width="2" fill="none" />
<path d="M575.5068493150685,665.3150684931509 L575.5068493150685,648.9863013698632" stroke="red" stroke-width="2" fill="none" />
<path d="M395.8904109589041,697.9726027397262 L395.8904109589041,575.5068493150686" stroke="red" stroke-width="2" fill="none" />
<path d="M559.1780821917808,575.5068493150686 L559.1780821917808,665.3150684931509" stroke="red" stroke-width="2" fill="none" />
<path d="M559.1780821917808,665.3150684931509 L575.5068493150685,665.3150684931509" stroke="red" stroke-width="2" fill="none" />
<path d="M395.8904109589041,575.5068493150686 L428.5479452054795,575.5068493150686" stroke="red" stroke-width="2" fill="none" />
<path d="M461.2054794520548,575.5068493150686 L493.86301369863014,575.5068493150686" stroke="red" stroke-width="2" fill="none" />
<path d="M526.5205479452055,575.5068493150686 L559.1780821917808,575.5068493150686" stroke="red" stroke-width="2" fill="none" />
<path d="M526.5205479452055,567.3424657534249 L526.5205479452055,575.5068493150686" stroke="red" stroke-width="2" fill="none" />
<path d="M493.86301369863014,575.5068493150686 L493.86301369863014,567.3424657534249" stroke="red" stroke-width="2" fill="none" />
<path d="M461.2054794520548,567.3424657534249 L461.2054794520548,575.5068493150686" stroke="red" stroke-width="2" fill="none" />
<path d="M428.5479452054795,575.5068493150686 L428.5479452054795,567.3424657534249" stroke="red" stroke-width="2" fill="none" />
<path d="M428.5479452054795,567.3424657534249 L395.8904109589041,567.3424657534249" stroke="red" stroke-width="2" fill="none" />
<path d="M640.8219178082193,730.6301369863015 L608.164383561644,730.6301369863015" stroke="red" stroke-width="2" fill="none" />
<path d="M608.164383561644,730.6301369863015 L575.5068493150685,730.6301369863015" stroke="red" stroke-width="2" fill="none" />
<path d="M575.5068493150685,697.9726027397262 L485.6986301369863,697.9726027397262" stroke="red" stroke-width="2" fill="none" />
<path d="M485.6986301369863,697.9726027397262 L485.6986301369863,632.6575342465756" stroke="red" stroke-width="2" fill="none" />
<path d="M485.6986301369863,632.6575342465756 L469.36986301369865,632.6575342465756" stroke="red" stroke-width="2" fill="none" />
<path d="M469.36986301369865,632.6575342465756 L469.36986301369865,697.9726027397262" stroke="red" stroke-width="2" fill="none" />
<path d="M469.36986301369865,697.9726027397262 L395.8904109589041,697.9726027397262" stroke="red" stroke-width="2" fill="none" />
<path d="M787.7808219178082,273.42465753424676 L787.7808219178082,265.26027397260304" stroke="red" stroke-width="2" fill="none" />
<path d="M787.7808219178082,265.26027397260304 L779.6164383561645,265.26027397260304" stroke="red" stroke-width="2" fill="none" />
<path d="M779.6164383561645,265.26027397260304 L779.6164383561645,273.42465753424676" stroke="red" stroke-width="2" fill="none" />
<path d="M779.6164383561645,273.42465753424676 L787.7808219178082,273.42465753424676" stroke="red" stroke-width="2" fill="none" />
<path d="M787.7808219178082,199.9452054794524 L779.6164383561645,199.9452054794524" stroke="red" stroke-width="2" fill="none" />
<path d="M779.6164383561645,199.9452054794524 L779.6164383561645,208.10958904109611" stroke="red" stroke-width="2" fill="none" />
<path d="M779.6164383561645,208.10958904109611 L787.7808219178082,208.10958904109611" stroke="red" stroke-width="2" fill="none" />
<path d="M787.7808219178082,208.10958904109611 L787.7808219178082,199.9452054794524" stroke="red" stroke-width="2" fill="none" />
<path d="M755.1232876712329,142.79452054794547 L779.6164383561645,142.79452054794547" stroke="red" stroke-width="2" fill="none" />
<path d="M779.6164383561645,142.79452054794547 L787.7808219178082,142.79452054794547" stroke="red" stroke-width="2" fill="none" />
<path d="M395.8904109589041,567.3424657534249 L395.8904109589041,469.36986301369893" stroke="red" stroke-width="2" fill="none" />
<path d="M395.8904109589041,404.05479452054806 L395.8904109589041,346.90410958904135" stroke="red" stroke-width="2" fill="none" />
<path d="M395.8904109589041,469.36986301369893 L387.7260273972603,469.36986301369893" stroke="red" stroke-width="2" fill="none" />
<path d="M387.7260273972603,404.05479452054806 L395.8904109589041,404.05479452054806" stroke="red" stroke-width="2" fill="none" />
<path d="M387.7260273972603,469.36986301369893 L387.7260273972603,534.6849315068496" stroke="red" stroke-width="2" fill="none" />
<path d="M4.0,534.6849315068496 L4.0,338.7397260273974" stroke="red" stroke-width="2" fill="none" />
<path d="M387.7260273972603,338.7397260273974 L387.7260273972603,404.05479452054806" stroke="red" stroke-width="2" fill="none" />
<path d="M395.8904109589041,306.0821917808221 L363.2328767123288,306.0821917808221" stroke="red" stroke-width="2" fill="none" />
<path d="M330.57534246575347,306.0821917808221 L314.2465753424658,306.0821917808221" stroke="red" stroke-width="2" fill="none" />
<path d="M363.2328767123288,306.0821917808221 L363.2328767123288,338.7397260273974" stroke="red" stroke-width="2" fill="none" />
<path d="M330.57534246575347,338.7397260273974 L330.57534246575347,306.0821917808221" stroke="red" stroke-width="2" fill="none" />
<path d="M363.2328767123288,338.7397260273974 L387.7260273972603,338.7397260273974" stroke="red" stroke-width="2" fill="none" />
<path d="M387.7260273972603,534.6849315068496 L330.57534246575347,534.6849315068496" stroke="red" stroke-width="2" fill="none" />
<path d="M330.57534246575347,567.3424657534249 L330.57534246575347,600.0000000000002" stroke="red" stroke-width="2" fill="none" />
<path d="M330.57534246575347,600.0000000000002 L297.9178082191781,600.0000000000002" stroke="red" stroke-width="2" fill="none" />
<path d="M297.9178082191781,600.0000000000002 L297.9178082191781,567.3424657534249" stroke="red" stroke-width="2" fill="none" />
<path d="M297.9178082191781,567.3424657534249 L297.9178082191781,542.8493150684933" stroke="red" stroke-width="2" fill="none" />
<path d="M330.57534246575347,534.6849315068496 L330.57534246575347,542.8493150684933" stroke="red" stroke-width="2" fill="none" />
<path d="M330.57534246575347,542.8493150684933 L330.57534246575347,567.3424657534249" stroke="red" stroke-width="2" fill="none" />
<path d="M297.9178082191781,542.8493150684933 L297.9178082191781,534.6849315068496" stroke="red" stroke-width="2" fill="none" />
<path d="M4.0,338.7397260273974 L36.65753424657534,338.7397260273974" stroke="red" stroke-width="2" fill="none" />
<path d="M36.65753424657534,338.7397260273974 L167.28767123287673,338.7397260273974" stroke="red" stroke-width="2" fill="none" />
<path d="M167.28767123287673,338.7397260273974 L199.94520547945206,338.7397260273974" stroke="red" stroke-width="2" fill="none" />
<path d="M199.94520547945206,338.7397260273974 L297.9178082191781,338.7397260273974" stroke="red" stroke-width="2" fill="none" />
<path d="M297.9178082191781,338.7397260273974 L330.57534246575347,338.7397260273974" stroke="red" stroke-width="2" fill="none" />
<path d="M134.63013698630138,534.6849315068496 L36.65753424657534,534.6849315068496" stroke="red" stroke-width="2" fill="none" />
<path d="M36.65753424657534,534.6849315068496 L4.0,534.6849315068496" stroke="red" stroke-width="2" fill="none" />
<path d="M297.9178082191781,534.6849315068496 L167.28767123287673,534.6849315068496" stroke="red" stroke-width="2" fill="none" />
<path d="M167.28767123287673,534.6849315068496 L134.63013698630138,534.6849315068496" stroke="red" stroke-width="2" fill="none" />
<path d="M853.0958904109589,893.9178082191784 L853.0958904109589,885.7534246575344" stroke="red" stroke-width="2" fill="none" />
<path d="M853.0958904109589,869.4246575342468 L853.0958904109589,861.260273972603" stroke="red" stroke-width="2" fill="none" />
<path d="M853.0958904109589,885.7534246575344 L844.9315068493152,885.7534246575344" stroke="red" stroke-width="2" fill="none" />
<path d="M844.9315068493152,885.7534246575344 L844.9315068493152,869.4246575342468" stroke="lavender" stroke-width="2" fill="none" />
<path d="M844.9315068493152,869.4246575342468 L853.0958904109589,869.4246575342468" stroke="red" stroke-width="2" fill="none" />
<path d="M551.013698630137,77.47945205479482 L551.013698630137,69.3150684931511" stroke="red" stroke-width="2" fill="none" />
<path d="M551.013698630137,52.98630136986321 L551.013698630137,44.821917808219496" stroke="red" stroke-width="2" fill="none" />
<path d="M551.013698630137,69.3150684931511 L542.8493150684932,69.3150684931511" stroke="red" stroke-width="2" fill="none" />
<path d="M542.8493150684932,69.3150684931511 L542.8493150684932,52.98630136986321" stroke="lavender" stroke-width="2" fill="none" />
<path d="M542.8493150684932,52.98630136986321 L551.013698630137,52.98630136986321" stroke="red" stroke-width="2" fill="none" />
<path d="M787.7808219178082,142.79452054794547 L787.7808219178082,134.63013698630175" stroke="red" stroke-width="2" fill="none" />
<path d="M787.7808219178082,134.63013698630175 L787.7808219178082,93.80821917808225" stroke="red" stroke-width="2" fill="none" />
</svg>