<?xml version="1.0" encoding="UTF-8"?>
<svg xmlns="http://www.w3.org/2000/svg" xmlns:xlink="http://www.w3.org/1999/xlink"
     width="1200" height="741" viewBox="0 0 1200 741">
<defs>
</defs>
<path d="M554.1538461538462,320.7552447552447 L554.1538461538462,345.76223776223776" stroke="yellow" stroke-width="1" fill="none" />
<path d="M554.1538461538462,279.0769230769231 L554.1538461538462,304.08391608391605" stroke="yellow" stroke-width="1" fill="none" />
<path d="M562.4895104895104,304.08391608391605 L562.4895104895104,279.0769230769231" stroke="yellow" stroke-width="1" fill="none" />
<path d="M562.4895104895104,345.76223776223776 L562.4895104895104,320.7552447552447" stroke="yellow" stroke-width="1" fill="none" />
<path d="M512.4755244755245,354.0979020979021 L445.79020979020976,354.0979020979021" stroke="yellow" stroke-width="1" fill="none" />
<path d="M554.1538461538462,345.76223776223776 L520.8111888111888,354.0979020979021" stroke="yellow" stroke-width="1" fill="none" />
<path d="M520.8111888111888,270.7412587412588 L554.1538461538462,279.0769230769231" stroke="yellow" stroke-width="1" fill="none" />
<path d="M487.46853146853147,420.78321678321674 L470.7972027972028,420.78321678321674" stroke="yellow" stroke-width="1" fill="none" />
<path d="M445.79020979020976,279.0769230769231 L512.4755244755245,279.0769230769231" stroke="yellow" stroke-width="1" fill="none" />
<path d="M512.4755244755245,345.76223776223776 L445.79020979020976,345.76223776223776" stroke="yellow" stroke-width="1" fill="none" />
<path d="M445.79020979020976,345.76223776223776 L445.79020979020976,279.0769230769231" stroke="yellow" stroke-width="1" fill="none" />
<path d="M437.45454545454544,345.76223776223776 L437.45454545454544,279.0769230769231" stroke="yellow" stroke-width="1" fill="none" />
<path d="M445.79020979020976,270.7412587412588 L512.4755244755245,270.7412587412588" stroke="yellow" stroke-width="1" fill="none" />
<path d="M387.4405594405594,279.0769230769231 L387.4405594405594,345.76223776223776" stroke="yellow" stroke-width="1" fill="none" />
<path d="M333.2587412587412,293.6643356643357 L333.2587412587412,331.1748251748252" stroke="yellow" stroke-width="1" fill="none" />
<path d="M237.3986013986014,320.7552447552447 L245.73426573426573,320.7552447552447" stroke="yellow" stroke-width="1" fill="none" />
<path d="M245.73426573426573,320.7552447552447 L254.06993006993008,320.7552447552447" stroke="yellow" stroke-width="1" fill="none" />
<path d="M254.06993006993008,320.7552447552447 L262.4055944055944,320.7552447552447" stroke="yellow" stroke-width="1" fill="none" />
<path d="M262.4055944055944,320.7552447552447 L270.7412587412587,320.7552447552447" stroke="yellow" stroke-width="1" fill="none" />
<path d="M270.7412587412587,320.7552447552447 L279.0769230769231,320.7552447552447" stroke="yellow" stroke-width="1" fill="none" />
<path d="M279.0769230769231,320.7552447552447 L287.4125874125874,320.7552447552447" stroke="yellow" stroke-width="1" fill="none" />
<path d="M287.4125874125874,320.7552447552447 L287.4125874125874,304.08391608391605" stroke="yellow" stroke-width="1" fill="none" />
<path d="M287.4125874125874,304.08391608391605 L279.0769230769231,304.08391608391605" stroke="yellow" stroke-width="1" fill="none" />
<path d="M279.0769230769231,304.08391608391605 L270.7412587412587,304.08391608391605" stroke="yellow" stroke-width="1" fill="none" />
<path d="M270.7412587412587,304.08391608391605 L262.4055944055944,304.08391608391605" stroke="yellow" stroke-width="1" fill="none" />
<path d="M262.4055944055944,304.08391608391605 L254.06993006993008,304.08391608391605" stroke="yellow" stroke-width="1" fill="none" />
<path d="M254.06993006993008,304.08391608391605 L245.73426573426573,304.08391608391605" stroke="yellow" stroke-width="1" fill="none" />
<path d="M245.73426573426573,304.08391608391605 L237.3986013986014,304.08391608391605" stroke="yellow" stroke-width="1" fill="none" />
<path d="M245.73426573426573,320.7552447552447 L245.73426573426573,304.08391608391605" stroke="yellow" stroke-width="1" fill="none" />
<path d="M254.06993006993008,320.7552447552447 L254.06993006993008,304.08391608391605" stroke="yellow" stroke-width="1" fill="none" />
<path d="M262.4055944055944,320.7552447552447 L262.4055944055944,304.08391608391605" stroke="yellow" stroke-width="1" fill="none" />
<path d="M270.7412587412587,320.7552447552447 L270.7412587412587,304.08391608391605" stroke="yellow" stroke-width="1" fill="none" />
<path d="M279.0769230769231,320.7552447552447 L279.0769230769231,304.08391608391605" stroke="yellow" stroke-width="1" fill="none" />
<path d="M237.3986013986014,320.7552447552447 L237.3986013986014,304.08391608391605" stroke="yellow" stroke-width="1" fill="none" />
<path d="M237.3986013986014,304.08391608391605 L220.72727272727272,270.7412587412588" stroke="yellow" stroke-width="1" fill="none" />
<path d="M220.72727272727272,354.0979020979021 L237.3986013986014,320.7552447552447" stroke="yellow" stroke-width="1" fill="none" />
<path d="M187.3846153846154,287.4125874125874 L187.3846153846154,337.42657342657344" stroke="yellow" stroke-width="1" fill="none" />
<path d="M170.71328671328672,337.42657342657344 L137.3706293706294,337.42657342657344" stroke="yellow" stroke-width="1" fill="none" />
<path d="M137.3706293706294,341.59440559440554 L170.71328671328672,341.59440559440554" stroke="yellow" stroke-width="1" fill="none" />
<path d="M137.3706293706294,287.4125874125874 L170.71328671328672,287.4125874125874" stroke="yellow" stroke-width="1" fill="none" />
<path d="M170.71328671328672,283.2447552447552 L137.3706293706294,283.2447552447552" stroke="yellow" stroke-width="1" fill="none" />
<path d="M120.69930069930071,329.090909090909 L120.69930069930071,295.74825174825173" stroke="yellow" stroke-width="1" fill="none" />
<path d="M116.53146853146853,295.74825174825173 L116.53146853146853,329.090909090909" stroke="yellow" stroke-width="1" fill="none" />
<path d="M220.72727272727272,420.78321678321674 L37.34265734265736,387.44055944055935" stroke="yellow" stroke-width="1" fill="none" />
<path d="M37.34265734265736,387.44055944055935 L37.34265734265736,237.3986013986014" stroke="yellow" stroke-width="1" fill="none" />
<path d="M37.34265734265736,237.3986013986014 L220.72727272727272,204.055944055944" stroke="yellow" stroke-width="1" fill="none" />
<path d="M270.7412587412587,287.4125874125874 L287.4125874125874,287.4125874125874" stroke="yellow" stroke-width="1" fill="none" />
<path d="M287.4125874125874,287.4125874125874 L287.4125874125874,270.7412587412588" stroke="yellow" stroke-width="1" fill="none" />
<path d="M287.4125874125874,270.7412587412588 L270.7412587412587,270.7412587412588" stroke="yellow" stroke-width="1" fill="none" />
<path d="M270.7412587412587,270.7412587412588 L270.7412587412587,287.4125874125874" stroke="yellow" stroke-width="1" fill="none" />
<path d="M270.7412587412587,354.0979020979021 L287.4125874125874,354.0979020979021" stroke="yellow" stroke-width="1" fill="none" />
<path d="M287.4125874125874,354.0979020979021 L287.4125874125874,337.42657342657344" stroke="yellow" stroke-width="1" fill="none" />
<path d="M287.4125874125874,337.42657342657344 L270.7412587412587,337.42657342657344" stroke="yellow" stroke-width="1" fill="none" />
<path d="M270.7412587412587,337.42657342657344 L270.7412587412587,354.0979020979021" stroke="yellow" stroke-width="1" fill="none" />
<path d="M554.1538461538462,220.72727272727275 L520.8111888111888,220.72727272727275" stroke="yellow" stroke-width="1" fill="none" />
<path d="M587.4965034965035,104.02797202797206 L587.4965034965035,137.37062937062933" stroke="yellow" stroke-width="1" fill="none" />
<path d="M604.1678321678321,104.02797202797206 L604.1678321678321,137.37062937062933" stroke="lavender" stroke-width="1" fill="none" />
<path d="M608.3356643356643,137.37062937062933 L608.3356643356643,104.02797202797206" stroke="lavender" stroke-width="1" fill="none" />
<path d="M600.0,295.74825174825173 L639.5944055944055,279.0769230769231" stroke="yellow" stroke-width="1" fill="none" />
<path d="M639.5944055944055,279.0769230769231 L697.9440559440559,279.0769230769231" stroke="yellow" stroke-width="1" fill="none" />
<path d="M697.9440559440559,279.0769230769231 L735.4545454545455,289.49650349650346" stroke="yellow" stroke-width="1" fill="none" />
<path d="M735.4545454545455,289.49650349650346 L758.3776223776224,322.83916083916085" stroke="yellow" stroke-width="1" fill="none" />
<path d="M758.3776223776224,322.83916083916085 L741.7062937062938,358.2657342657342" stroke="yellow" stroke-width="1" fill="none" />
<path d="M741.7062937062938,358.2657342657342 L668.7692307692307,368.68531468531467" stroke="yellow" stroke-width="1" fill="none" />
<path d="M668.7692307692307,368.68531468531467 L606.2517482517483,352.013986013986" stroke="yellow" stroke-width="1" fill="none" />
<path d="M606.2517482517483,352.013986013986 L600.0,295.74825174825173" stroke="yellow" stroke-width="1" fill="none" />
<path d="M1020.951048951049,270.7412587412588 L1064.7132867132866,262.40559440559434" stroke="yellow" stroke-width="1" fill="none" />
<path d="M1014.6993006993007,345.76223776223776 L970.9370629370628,391.60839160839157" stroke="yellow" stroke-width="1" fill="none" />
<path d="M937.5944055944055,312.41958041958037 L1014.6993006993007,345.76223776223776" stroke="yellow" stroke-width="1" fill="none" />
<path d="M1058.4615384615383,335.3426573426573 L981.3566433566432,304.08391608391605" stroke="yellow" stroke-width="1" fill="none" />
<path d="M979.2727272727273,270.7412587412588 L937.5944055944055,312.41958041958037" stroke="yellow" stroke-width="1" fill="none" />
<path d="M981.3566433566432,304.08391608391605 L1020.951048951049,270.7412587412588" stroke="yellow" stroke-width="1" fill="none" />
<path d="M920.9230769230769,195.72027972027968 L970.9370629370628,162.3776223776224" stroke="yellow" stroke-width="1" fill="none" />
<path d="M920.9230769230769,345.76223776223776 L970.9370629370628,391.60839160839157" stroke="yellow" stroke-width="1" fill="none" />
<path d="M970.9370629370628,391.60839160839157 L1004.2797202797203,420.78321678321674" stroke="yellow" stroke-width="1" fill="none" />
<path d="M920.9230769230769,264.4895104895105 L998.027972027972,220.72727272727275" stroke="lavender" stroke-width="1" fill="none" />
<path d="M970.9370629370628,391.60839160839157 L920.9230769230769,404.1118881118881" stroke="yellow" stroke-width="1" fill="none" />
<path d="M1012.6153846153845,395.7762237762238 L1058.4615384615383,335.3426573426573" stroke="yellow" stroke-width="1" fill="none" />
<path d="M1054.2937062937062,412.4475524475524 L1012.6153846153845,395.7762237762238" stroke="yellow" stroke-width="1" fill="none" />
<path d="M1108.4755244755245,364.51748251748245 L1091.8041958041956,364.51748251748245" stroke="yellow" stroke-width="1" fill="none" />
<path d="M1091.8041958041956,364.51748251748245 L1066.7972027972028,381.1888111888112" stroke="yellow" stroke-width="1" fill="none" />
<path d="M1066.7972027972028,381.1888111888112 L1077.2167832167831,399.9440559440559" stroke="yellow" stroke-width="1" fill="none" />
<path d="M770.8811188811189,429.11888111888106 L737.5384615384614,429.11888111888106" stroke="yellow" stroke-width="1" fill="none" />
<path d="M737.5384615384614,454.12587412587413 L770.8811188811189,454.12587412587413" stroke="yellow" stroke-width="1" fill="none" />
<path d="M737.5384615384614,462.46153846153845 L770.8811188811189,462.46153846153845" stroke="yellow" stroke-width="1" fill="none" />
<path d="M737.5384615384614,470.7972027972028 L770.8811188811189,470.7972027972028" stroke="yellow" stroke-width="1" fill="none" />
<path d="M737.5384615384614,479.1328671328671 L770.8811188811189,479.1328671328671" stroke="yellow" stroke-width="1" fill="none" />
<path d="M737.5384615384614,487.4685314685314 L770.8811188811189,487.4685314685314" stroke="yellow" stroke-width="1" fill="none" />
<path d="M787.5524475524476,537.4825174825174 L787.5524475524476,504.13986013986016" stroke="yellow" stroke-width="1" fill="none" />
<path d="M820.8951048951049,504.13986013986016 L820.8951048951049,537.4825174825174" stroke="yellow" stroke-width="1" fill="none" />
<path d="M954.2657342657342,454.12587412587413 L954.2657342657342,487.4685314685314" stroke="yellow" stroke-width="1" fill="none" />
<path d="M945.93006993007,454.12587412587413 L945.93006993007,487.4685314685314" stroke="yellow" stroke-width="1" fill="none" />
<path d="M937.5944055944055,454.12587412587413 L937.5944055944055,487.4685314685314" stroke="yellow" stroke-width="1" fill="none" />
<path d="M929.2587412587411,454.12587412587413 L929.2587412587411,487.4685314685314" stroke="yellow" stroke-width="1" fill="none" />
<path d="M920.9230769230769,454.12587412587413 L920.9230769230769,487.4685314685314" stroke="yellow" stroke-width="1" fill="none" />
<path d="M904.2517482517483,454.12587412587413 L912.5874125874125,487.4685314685314" stroke="yellow" stroke-width="1" fill="none" />
<path d="M889.6643356643356,458.29370629370624 L904.2517482517483,491.6363636363636" stroke="yellow" stroke-width="1" fill="none" />
<path d="M970.9370629370628,487.4685314685314 L970.9370629370628,454.12587412587413" stroke="lavender" stroke-width="1" fill="none" />
<path d="M962.6013986013986,454.12587412587413 L962.6013986013986,487.4685314685314" stroke="lavender" stroke-width="1" fill="none" />
<path d="M916.7552447552448,420.78321678321674 L787.5524475524476,420.78321678321674" stroke="yellow" stroke-width="1" fill="none" />
<path d="M787.5524475524476,420.78321678321674 L720.8671328671328,420.78321678321674" stroke="yellow" stroke-width="1" fill="none" />
<path d="M720.8671328671328,420.78321678321674 L562.4895104895104,420.78321678321674" stroke="yellow" stroke-width="1" fill="none" />
<path d="M720.8671328671328,420.78321678321674 L720.8671328671328,454.12587412587413" stroke="yellow" stroke-width="1" fill="none" />
<path d="M787.5524475524476,454.12587412587413 L787.5524475524476,420.78321678321674" stroke="yellow" stroke-width="1" fill="none" />
<path d="M920.9230769230769,264.4895104895105 L979.2727272727273,270.7412587412588" stroke="yellow" stroke-width="1" fill="none" />
<path d="M1102.2237762237762,387.44055944055935 L1077.2167832167831,399.9440559440559" stroke="yellow" stroke-width="1" fill="none" />
<path d="M920.9230769230769,345.76223776223776 L920.9230769230769,281.16083916083915" stroke="yellow" stroke-width="1" fill="none" />
<path d="M916.7552447552448,281.16083916083915 L916.7552447552448,345.76223776223776" stroke="yellow" stroke-width="1" fill="none" />
<path d="M956.3496503496503,604.1678321678322 L956.3496503496503,595.8321678321678" stroke="yellow" stroke-width="1" fill="none" />
<path d="M956.3496503496503,595.8321678321678 L956.3496503496503,562.4895104895105" stroke="yellow" stroke-width="1" fill="none" />
<path d="M956.3496503496503,562.4895104895105 L956.3496503496503,554.1538461538461" stroke="yellow" stroke-width="1" fill="none" />
<path d="M1018.8671328671328,595.8321678321678 L1018.8671328671328,604.1678321678322" stroke="yellow" stroke-width="1" fill="none" />
<path d="M1018.8671328671328,554.1538461538461 L1018.8671328671328,562.4895104895105" stroke="yellow" stroke-width="1" fill="none" />
<path d="M1018.8671328671328,562.4895104895105 L1018.8671328671328,595.8321678321678" stroke="yellow" stroke-width="1" fill="none" />
<path d="M962.6013986013986,554.1538461538461 L1012.6153846153845,554.1538461538461" stroke="lavender" stroke-width="1" fill="none" />
<path d="M1012.6153846153845,604.1678321678322 L962.6013986013986,604.1678321678322" stroke="yellow" stroke-width="1" fill="none" />
<path d="M1004.2797202797203,512.4755244755244 L970.9370629370628,512.4755244755244" stroke="yellow" stroke-width="1" fill="none" />
<path d="M948.0139860139859,604.1678321678322 L948.0139860139859,554.1538461538461" stroke="yellow" stroke-width="1" fill="none" />
<path d="M1027.2027972027972,554.1538461538461 L1027.2027972027972,604.1678321678322" stroke="yellow" stroke-width="1" fill="none" />
<path d="M970.9370629370628,654.1818181818181 L1004.2797202797203,654.1818181818181" stroke="yellow" stroke-width="1" fill="none" />
<path d="M979.2727272727273,681.2727272727271 L995.9440559440559,681.2727272727271" stroke="lavender" stroke-width="1" fill="none" />
<path d="M995.9440559440559,677.104895104895 L979.2727272727273,677.104895104895" stroke="lavender" stroke-width="1" fill="none" />
<path d="M979.2727272727273,687.5244755244754 L995.9440559440559,687.5244755244754" stroke="yellow" stroke-width="1" fill="none" />
<path d="M1004.2797202797203,516.6433566433567 L970.9370629370628,516.6433566433567" stroke="lavender" stroke-width="1" fill="none" />
<path d="M970.9370629370628,520.8111888111888 L1004.2797202797203,520.8111888111888" stroke="lavender" stroke-width="1" fill="none" />
<path d="M991.7762237762238,666.6853146853147 L983.4405594405594,666.6853146853147" stroke="yellow" stroke-width="1" fill="none" />
<path d="M983.4405594405594,668.7692307692306 L991.7762237762238,668.7692307692306" stroke="yellow" stroke-width="1" fill="none" />
<path d="M991.7762237762238,668.7692307692306 L991.7762237762238,666.6853146853147" stroke="yellow" stroke-width="1" fill="none" />
<path d="M983.4405594405594,666.6853146853147 L983.4405594405594,668.7692307692306" stroke="yellow" stroke-width="1" fill="none" />
<path d="M995.9440559440559,670.8531468531468 L979.2727272727273,670.8531468531468" stroke="yellow" stroke-width="1" fill="none" />
<path d="M991.7762237762238,731.2867132867133 L983.4405594405594,731.2867132867133" stroke="yellow" stroke-width="1" fill="none" />
<path d="M983.4405594405594,733.3706293706292 L991.7762237762238,733.3706293706292" stroke="yellow" stroke-width="1" fill="none" />
<path d="M991.7762237762238,733.3706293706292 L991.7762237762238,731.2867132867133" stroke="yellow" stroke-width="1" fill="none" />
<path d="M983.4405594405594,731.2867132867133 L983.4405594405594,733.3706293706292" stroke="yellow" stroke-width="1" fill="none" />
<path d="M141.53846153846155,320.7552447552447 L149.87412587412587,320.7552447552447" stroke="lavender" stroke-width="1" fill="none" />
<path d="M149.87412587412587,320.7552447552447 L154.04195804195803,316.5874125874126" stroke="lavender" stroke-width="1" fill="none" />
<path d="M154.04195804195803,316.5874125874126 L154.04195804195803,308.25174825174827" stroke="lavender" stroke-width="1" fill="none" />
<path d="M154.04195804195803,308.25174825174827 L149.87412587412587,304.08391608391605" stroke="lavender" stroke-width="1" fill="none" />
<path d="M149.87412587412587,304.08391608391605 L141.53846153846155,304.08391608391605" stroke="lavender" stroke-width="1" fill="none" />
<path d="M141.53846153846155,304.08391608391605 L137.3706293706294,308.25174825174827" stroke="lavender" stroke-width="1" fill="none" />
<path d="M137.3706293706294,308.25174825174827 L137.3706293706294,316.5874125874126" stroke="lavender" stroke-width="1" fill="none" />
<path d="M137.3706293706294,316.5874125874126 L141.53846153846155,320.7552447552447" stroke="lavender" stroke-width="1" fill="none" />
<path d="M637.5104895104895,87.3566433566433 L637.5104895104895,20.671328671328638" stroke="yellow" stroke-width="1" fill="none" />
<path d="M637.5104895104895,20.671328671328638 L854.2377622377621,20.671328671328638" stroke="yellow" stroke-width="1" fill="none" />
<path d="M854.2377622377621,20.671328671328638 L854.2377622377621,120.6993006993007" stroke="yellow" stroke-width="1" fill="none" />
<path d="M770.8811188811189,187.38461538461536 L637.5104895104895,187.38461538461536" stroke="yellow" stroke-width="1" fill="none" />
<path d="M637.5104895104895,187.38461538461536 L637.5104895104895,154.04195804195808" stroke="yellow" stroke-width="1" fill="none" />
<path d="M637.5104895104895,137.37062937062933 L637.5104895104895,104.02797202797206" stroke="yellow" stroke-width="1" fill="none" />
<path d="M854.2377622377621,137.37062937062933 L854.2377622377621,170.71328671328672" stroke="yellow" stroke-width="1" fill="none" />
<path d="M720.8671328671328,70.68531468531467 L720.8671328671328,54.01398601398603" stroke="yellow" stroke-width="1" fill="none" />
<path d="M720.8671328671328,54.01398601398603 L670.8531468531469,54.01398601398603" stroke="yellow" stroke-width="1" fill="none" />
<path d="M670.8531468531469,54.01398601398603 L670.8531468531469,70.68531468531467" stroke="yellow" stroke-width="1" fill="none" />
<path d="M670.8531468531469,70.68531468531467 L720.8671328671328,70.68531468531467" stroke="yellow" stroke-width="1" fill="none" />
<path d="M762.5454545454545,70.68531468531467 L762.5454545454545,137.37062937062933" stroke="yellow" stroke-width="1" fill="none" />
<path d="M770.8811188811189,70.68531468531467 L770.8811188811189,137.37062937062933" stroke="yellow" stroke-width="1" fill="none" />
<path d="M779.2167832167831,70.68531468531467 L779.2167832167831,137.37062937062933" stroke="yellow" stroke-width="1" fill="none" />
<path d="M720.8671328671328,154.04195804195808 L720.8671328671328,137.37062937062933" stroke="yellow" stroke-width="1" fill="none" />
<path d="M720.8671328671328,137.37062937062933 L670.8531468531469,137.37062937062933" stroke="yellow" stroke-width="1" fill="none" />
<path d="M670.8531468531469,137.37062937062933 L670.8531468531469,154.04195804195808" stroke="yellow" stroke-width="1" fill="none" />
<path d="M670.8531468531469,154.04195804195808 L720.8671328671328,154.04195804195808" stroke="yellow" stroke-width="1" fill="none" />
<path d="M722.951048951049,135.28671328671328 L668.7692307692307,135.28671328671328" stroke="yellow" stroke-width="1" fill="none" />
<path d="M668.7692307692307,135.28671328671328 L668.7692307692307,156.12587412587413" stroke="yellow" stroke-width="1" fill="none" />
<path d="M668.7692307692307,156.12587412587413 L722.951048951049,156.12587412587413" stroke="yellow" stroke-width="1" fill="none" />
<path d="M722.951048951049,156.12587412587413 L722.951048951049,135.28671328671328" stroke="yellow" stroke-width="1" fill="none" />
<path d="M668.7692307692307,72.76923076923072 L722.951048951049,72.76923076923072" stroke="yellow" stroke-width="1" fill="none" />
<path d="M722.951048951049,72.76923076923072 L722.951048951049,51.930069930069976" stroke="yellow" stroke-width="1" fill="none" />
<path d="M722.951048951049,51.930069930069976 L668.7692307692307,51.930069930069976" stroke="yellow" stroke-width="1" fill="none" />
<path d="M668.7692307692307,51.930069930069976 L668.7692307692307,72.76923076923072" stroke="yellow" stroke-width="1" fill="none" />
<path d="M887.5804195804196,195.72027972027968 L920.9230769230769,137.37062937062933" stroke="yellow" stroke-width="1" fill="none" />
<path d="M1070.9650349650349,504.13986013986016 L1070.9650349650349,445.7902097902097" stroke="yellow" stroke-width="1" fill="none" />
<path d="M1064.7132867132866,262.40559440559434 L1089.7202797202797,291.5804195804195" stroke="yellow" stroke-width="1" fill="none" />
<path d="M1120.9790209790208,470.7972027972028 L1120.9790209790208,487.4685314685314" stroke="yellow" stroke-width="1" fill="none" />
<path d="M1137.6503496503497,470.7972027972028 L1137.6503496503497,487.4685314685314" stroke="yellow" stroke-width="1" fill="none" />
<path d="M487.46853146853147,429.11888111888106 L470.7972027972028,429.11888111888106" stroke="red" stroke-width="1" fill="none" />
<path d="M470.7972027972028,429.11888111888106 L470.7972027972028,420.78321678321674" stroke="red" stroke-width="1" fill="none" />
<path d="M487.46853146853147,420.78321678321674 L487.46853146853147,429.11888111888106" stroke="red" stroke-width="1" fill="none" />
<path d="M504.1398601398601,420.78321678321674 L487.46853146853147,420.78321678321674" stroke="red" stroke-width="1" fill="none" />
<path d="M470.7972027972028,420.78321678321674 L454.12587412587413,420.78321678321674" stroke="red" stroke-width="1" fill="none" />
<path d="M537.4825174825174,395.7762237762238 L504.1398601398601,420.78321678321674" stroke="red" stroke-width="1" fill="none" />
<path d="M454.12587412587413,420.78321678321674 L420.78321678321674,395.7762237762238" stroke="red" stroke-width="1" fill="none" />
<path d="M554.1538461538462,395.7762237762238 L537.4825174825174,395.7762237762238" stroke="red" stroke-width="1" fill="none" />
<path d="M420.78321678321674,395.7762237762238 L387.4405594405594,395.7762237762238" stroke="red" stroke-width="1" fill="none" />
<path d="M437.45454545454544,354.0979020979021 L445.79020979020976,354.0979020979021" stroke="red" stroke-width="1" fill="none" />
<path d="M445.79020979020976,354.0979020979021 L445.79020979020976,345.76223776223776" stroke="red" stroke-width="1" fill="none" />
<path d="M445.79020979020976,345.76223776223776 L437.45454545454544,345.76223776223776" stroke="red" stroke-width="1" fill="none" />
<path d="M437.45454545454544,345.76223776223776 L437.45454545454544,354.0979020979021" stroke="red" stroke-width="1" fill="none" />
<path d="M512.4755244755245,354.0979020979021 L520.8111888111888,354.0979020979021" stroke="red" stroke-width="1" fill="none" />
<path d="M520.8111888111888,354.0979020979021 L520.8111888111888,345.76223776223776" stroke="red" stroke-width="1" fill="none" />
<path d="M520.8111888111888,345.76223776223776 L512.4755244755245,345.76223776223776" stroke="red" stroke-width="1" fill="none" />
<path d="M512.4755244755245,345.76223776223776 L512.4755244755245,354.0979020979021" stroke="red" stroke-width="1" fill="none" />
<path d="M437.45454545454544,270.7412587412588 L437.45454545454544,279.0769230769231" stroke="red" stroke-width="1" fill="none" />
<path d="M437.45454545454544,279.0769230769231 L445.79020979020976,279.0769230769231" stroke="red" stroke-width="1" fill="none" />
<path d="M445.79020979020976,279.0769230769231 L445.79020979020976,270.7412587412588" stroke="red" stroke-width="1" fill="none" />
<path d="M445.79020979020976,270.7412587412588 L437.45454545454544,270.7412587412588" stroke="red" stroke-width="1" fill="none" />
<path d="M520.8111888111888,270.7412587412588 L512.4755244755245,270.7412587412588" stroke="red" stroke-width="1" fill="none" />
<path d="M512.4755244755245,270.7412587412588 L512.4755244755245,279.0769230769231" stroke="red" stroke-width="1" fill="none" />
<path d="M512.4755244755245,279.0769230769231 L520.8111888111888,279.0769230769231" stroke="red" stroke-width="1" fill="none" />
<path d="M520.8111888111888,279.0769230769231 L520.8111888111888,270.7412587412588" stroke="red" stroke-width="1" fill="none" />
<path d="M554.1538461538462,345.76223776223776 L554.1538461538462,395.7762237762238" stroke="red" stroke-width="1" fill="none" />
<path d="M554.1538461538462,304.08391608391605 L554.1538461538462,320.7552447552447" stroke="red" stroke-width="1" fill="none" />
<path d="M554.1538461538462,220.72727272727275 L554.1538461538462,279.0769230769231" stroke="red" stroke-width="1" fill="none" />
<path d="M554.1538461538462,320.7552447552447 L562.4895104895104,320.7552447552447" stroke="red" stroke-width="1" fill="none" />
<path d="M562.4895104895104,345.76223776223776 L554.1538461538462,345.76223776223776" stroke="red" stroke-width="1" fill="none" />
<path d="M562.4895104895104,304.08391608391605 L554.1538461538462,304.08391608391605" stroke="red" stroke-width="1" fill="none" />
<path d="M554.1538461538462,279.0769230769231 L562.4895104895104,279.0769230769231" stroke="red" stroke-width="1" fill="none" />
<path d="M562.4895104895104,320.7552447552447 L562.4895104895104,304.08391608391605" stroke="red" stroke-width="1" fill="none" />
<path d="M562.4895104895104,420.78321678321674 L562.4895104895104,345.76223776223776" stroke="red" stroke-width="1" fill="none" />
<path d="M562.4895104895104,279.0769230769231 L562.4895104895104,237.3986013986014" stroke="red" stroke-width="1" fill="none" />
<path d="M387.4405594405594,237.3986013986014 L420.78321678321674,237.3986013986014" stroke="red" stroke-width="1" fill="none" />
<path d="M420.78321678321674,237.3986013986014 L456.2097902097902,220.72727272727275" stroke="red" stroke-width="1" fill="none" />
<path d="M456.2097902097902,220.72727272727275 L520.8111888111888,220.72727272727275" stroke="red" stroke-width="1" fill="none" />
<path d="M562.4895104895104,237.3986013986014 L587.4965034965035,220.72727272727275" stroke="red" stroke-width="1" fill="none" />
<path d="M587.4965034965035,220.72727272727275 L687.5244755244755,220.72727272727275" stroke="red" stroke-width="1" fill="none" />
<path d="M602.083916083916,429.11888111888106 L562.4895104895104,420.78321678321674" stroke="red" stroke-width="1" fill="none" />
<path d="M639.5944055944055,445.7902097902097 L602.083916083916,429.11888111888106" stroke="red" stroke-width="1" fill="none" />
<path d="M387.4405594405594,395.7762237762238 L387.4405594405594,345.76223776223776" stroke="red" stroke-width="1" fill="none" />
<path d="M387.4405594405594,279.0769230769231 L387.4405594405594,237.3986013986014" stroke="red" stroke-width="1" fill="none" />
<path d="M337.42657342657344,337.42657342657344 L337.42657342657344,331.1748251748252" stroke="red" stroke-width="1" fill="none" />
<path d="M337.42657342657344,293.6643356643357 L337.42657342657344,287.4125874125874" stroke="red" stroke-width="1" fill="none" />
<path d="M337.42657342657344,287.4125874125874 L381.1888111888112,279.0769230769231" stroke="red" stroke-width="1" fill="none" />
<path d="M381.1888111888112,279.0769230769231 L387.4405594405594,279.0769230769231" stroke="red" stroke-width="1" fill="none" />
<path d="M387.4405594405594,345.76223776223776 L381.1888111888112,345.76223776223776" stroke="red" stroke-width="1" fill="none" />
<path d="M381.1888111888112,345.76223776223776 L337.42657342657344,337.42657342657344" stroke="red" stroke-width="1" fill="none" />
<path d="M337.42657342657344,331.1748251748252 L333.2587412587412,331.1748251748252" stroke="red" stroke-width="1" fill="none" />
<path d="M333.2587412587412,293.6643356643357 L337.42657342657344,293.6643356643357" stroke="red" stroke-width="1" fill="none" />
<path d="M333.2587412587412,331.1748251748252 L333.2587412587412,337.42657342657344" stroke="red" stroke-width="1" fill="none" />
<path d="M333.2587412587412,337.42657342657344 L320.75524475524475,370.7692307692307" stroke="red" stroke-width="1" fill="none" />
<path d="M320.75524475524475,370.7692307692307 L237.3986013986014,370.7692307692307" stroke="red" stroke-width="1" fill="none" />
<path d="M237.3986013986014,254.06993006993002 L320.75524475524475,254.06993006993002" stroke="red" stroke-width="1" fill="none" />
<path d="M333.2587412587412,287.4125874125874 L333.2587412587412,293.6643356643357" stroke="red" stroke-width="1" fill="none" />
<path d="M320.75524475524475,254.06993006993002 L333.2587412587412,287.4125874125874" stroke="red" stroke-width="1" fill="none" />
<path d="M220.72727272727272,270.7412587412588 L237.3986013986014,254.06993006993002" stroke="red" stroke-width="1" fill="none" />
<path d="M237.3986013986014,370.7692307692307 L220.72727272727272,354.0979020979021" stroke="red" stroke-width="1" fill="none" />
<path d="M220.72727272727272,354.0979020979021 L216.55944055944056,354.0979020979021" stroke="red" stroke-width="1" fill="none" />
<path d="M216.55944055944056,354.0979020979021 L187.3846153846154,337.42657342657344" stroke="red" stroke-width="1" fill="none" />
<path d="M187.3846153846154,287.4125874125874 L216.55944055944056,270.7412587412588" stroke="red" stroke-width="1" fill="none" />
<path d="M216.55944055944056,270.7412587412588 L220.72727272727272,270.7412587412588" stroke="red" stroke-width="1" fill="none" />
<path d="M137.3706293706294,337.42657342657344 L120.69930069930071,329.090909090909" stroke="red" stroke-width="1" fill="none" />
<path d="M120.69930069930071,295.74825174825173 L137.3706293706294,287.4125874125874" stroke="red" stroke-width="1" fill="none" />
<path d="M170.71328671328672,283.2447552447552 L170.71328671328672,287.4125874125874" stroke="red" stroke-width="1" fill="none" />
<path d="M137.3706293706294,287.4125874125874 L137.3706293706294,283.2447552447552" stroke="red" stroke-width="1" fill="none" />
<path d="M137.3706293706294,341.59440559440554 L137.3706293706294,337.42657342657344" stroke="red" stroke-width="1" fill="none" />
<path d="M170.71328671328672,337.42657342657344 L170.71328671328672,341.59440559440554" stroke="red" stroke-width="1" fill="none" />
<path d="M120.69930069930071,329.090909090909 L116.53146853146853,329.090909090909" stroke="red" stroke-width="1" fill="none" />
<path d="M116.53146853146853,295.74825174825173 L120.69930069930071,295.74825174825173" stroke="red" stroke-width="1" fill="none" />
<path d="M137.3706293706294,283.2447552447552 L116.53146853146853,283.2447552447552" stroke="red" stroke-width="1" fill="none" />
<path d="M116.53146853146853,283.2447552447552 L116.53146853146853,295.74825174825173" stroke="red" stroke-width="1" fill="none" />
<path d="M116.53146853146853,329.090909090909 L116.53146853146853,341.59440559440554" stroke="red" stroke-width="1" fill="none" />
<path d="M116.53146853146853,341.59440559440554 L137.3706293706294,341.59440559440554" stroke="red" stroke-width="1" fill="none" />
<path d="M170.71328671328672,341.59440559440554 L179.04895104895104,341.59440559440554" stroke="red" stroke-width="1" fill="none" />
<path d="M179.04895104895104,341.59440559440554 L220.72727272727272,387.44055944055935" stroke="red" stroke-width="1" fill="none" />
<path d="M179.04895104895104,283.2447552447552 L170.71328671328672,283.2447552447552" stroke="red" stroke-width="1" fill="none" />
<path d="M220.72727272727272,237.3986013986014 L179.04895104895104,283.2447552447552" stroke="red" stroke-width="1" fill="none" />
<path d="M220.72727272727272,204.055944055944 L220.72727272727272,237.3986013986014" stroke="red" stroke-width="1" fill="none" />
<path d="M220.72727272727272,387.44055944055935 L220.72727272727272,420.78321678321674" stroke="red" stroke-width="1" fill="none" />
<path d="M220.72727272727272,420.78321678321674 L37.34265734265736,420.78321678321674" stroke="red" stroke-width="1" fill="none" />
<path d="M37.34265734265736,420.78321678321674 L4.0,387.44055944055935" stroke="red" stroke-width="1" fill="none" />
<path d="M4.0,387.44055944055935 L4.0,237.3986013986014" stroke="red" stroke-width="1" fill="none" />
<path d="M4.0,237.3986013986014 L37.34265734265736,204.055944055944" stroke="red" stroke-width="1" fill="none" />
<path d="M37.34265734265736,204.055944055944 L220.72727272727272,204.055944055944" stroke="red" stroke-width="1" fill="none" />
<path d="M170.71328671328672,287.4125874125874 L181.13286713286715,287.4125874125874" stroke="red" stroke-width="1" fill="none" />
<path d="M181.13286713286715,287.4125874125874 L187.3846153846154,287.4125874125874" stroke="red" stroke-width="1" fill="none" />
<path d="M187.3846153846154,337.42657342657344 L181.13286713286715,337.42657342657344" stroke="red" stroke-width="1" fill="none" />
<path d="M181.13286713286715,337.42657342657344 L170.71328671328672,337.42657342657344" stroke="red" stroke-width="1" fill="none" />
<path d="M520.8111888111888,220.72727272727275 L529.1468531468531,129.034965034965" stroke="red" stroke-width="1" fill="none" />
<path d="M564.5734265734266,145.70629370629365 L554.1538461538462,220.72727272727275" stroke="red" stroke-width="1" fill="none" />
<path d="M587.4965034965035,137.37062937062933 L564.5734265734266,145.70629370629365" stroke="red" stroke-width="1" fill="none" />
<path d="M529.1468531468531,129.034965034965 L587.4965034965035,104.02797202797206" stroke="red" stroke-width="1" fill="none" />
<path d="M604.1678321678321,137.37062937062933 L587.4965034965035,137.37062937062933" stroke="red" stroke-width="1" fill="none" />
<path d="M587.4965034965035,104.02797202797206 L604.1678321678321,104.02797202797206" stroke="red" stroke-width="1" fill="none" />
<path d="M604.1678321678321,104.02797202797206 L608.3356643356643,104.02797202797206" stroke="red" stroke-width="1" fill="none" />
<path d="M608.3356643356643,137.37062937062933 L604.1678321678321,137.37062937062933" stroke="red" stroke-width="1" fill="none" />
<path d="M637.5104895104895,137.37062937062933 L608.3356643356643,137.37062937062933" stroke="red" stroke-width="1" fill="none" />
<path d="M608.3356643356643,104.02797202797206 L637.5104895104895,104.02797202797206" stroke="red" stroke-width="1" fill="none" />
<path d="M916.7552447552448,420.78321678321674 L852.1538461538462,445.7902097902097" stroke="red" stroke-width="1" fill="none" />
<path d="M852.1538461538462,445.7902097902097 L787.5524475524476,454.12587412587413" stroke="red" stroke-width="1" fill="none" />
<path d="M720.8671328671328,454.12587412587413 L639.5944055944055,445.7902097902097" stroke="red" stroke-width="1" fill="none" />
<path d="M687.5244755244755,220.72727272727275 L704.1958041958042,231.14685314685312" stroke="red" stroke-width="1" fill="none" />
<path d="M704.1958041958042,231.14685314685312 L787.5524475524476,231.14685314685312" stroke="red" stroke-width="1" fill="none" />
<path d="M920.9230769230769,195.72027972027968 L887.5804195804196,195.72027972027968" stroke="red" stroke-width="1" fill="none" />
<path d="M860.4895104895104,137.37062937062933 L920.9230769230769,137.37062937062933" stroke="red" stroke-width="1" fill="none" />
<path d="M920.9230769230769,137.37062937062933 L970.9370629370628,162.3776223776224" stroke="red" stroke-width="1" fill="none" />
<path d="M954.2657342657342,229.06293706293707 L954.2657342657342,220.72727272727275" stroke="red" stroke-width="1" fill="none" />
<path d="M998.027972027972,220.72727272727275 L998.027972027972,237.3986013986014" stroke="red" stroke-width="1" fill="none" />
<path d="M920.9230769230769,264.4895104895105 L920.9230769230769,229.06293706293707" stroke="red" stroke-width="1" fill="none" />
<path d="M920.9230769230769,404.1118881118881 L920.9230769230769,345.76223776223776" stroke="red" stroke-width="1" fill="none" />
<path d="M916.7552447552448,345.76223776223776 L916.7552447552448,420.78321678321674" stroke="red" stroke-width="1" fill="none" />
<path d="M920.9230769230769,345.76223776223776 L916.7552447552448,345.76223776223776" stroke="red" stroke-width="1" fill="none" />
<path d="M998.027972027972,237.3986013986014 L1064.7132867132866,262.40559440559434" stroke="red" stroke-width="1" fill="none" />
<path d="M1054.2937062937062,412.4475524475524 L1004.2797202797203,420.78321678321674" stroke="red" stroke-width="1" fill="none" />
<path d="M970.9370629370628,420.78321678321674 L920.9230769230769,404.1118881118881" stroke="red" stroke-width="1" fill="none" />
<path d="M1004.2797202797203,420.78321678321674 L1004.2797202797203,512.4755244755244" stroke="red" stroke-width="1" fill="none" />
<path d="M970.9370629370628,454.12587412587413 L970.9370629370628,420.78321678321674" stroke="red" stroke-width="1" fill="none" />
<path d="M1077.2167832167831,399.9440559440559 L1054.2937062937062,412.4475524475524" stroke="red" stroke-width="1" fill="none" />
<path d="M787.5524475524476,454.12587412587413 L779.2167832167831,429.11888111888106" stroke="red" stroke-width="1" fill="none" />
<path d="M779.2167832167831,429.11888111888106 L770.8811188811189,429.11888111888106" stroke="red" stroke-width="1" fill="none" />
<path d="M729.2027972027972,429.11888111888106 L720.8671328671328,454.12587412587413" stroke="red" stroke-width="1" fill="none" />
<path d="M737.5384615384614,429.11888111888106 L729.2027972027972,429.11888111888106" stroke="red" stroke-width="1" fill="none" />
<path d="M770.8811188811189,454.12587412587413 L770.8811188811189,462.46153846153845" stroke="red" stroke-width="1" fill="none" />
<path d="M770.8811188811189,462.46153846153845 L770.8811188811189,470.7972027972028" stroke="red" stroke-width="1" fill="none" />
<path d="M737.5384615384614,462.46153846153845 L737.5384615384614,454.12587412587413" stroke="red" stroke-width="1" fill="none" />
<path d="M737.5384615384614,470.7972027972028 L737.5384615384614,462.46153846153845" stroke="red" stroke-width="1" fill="none" />
<path d="M737.5384615384614,479.1328671328671 L737.5384615384614,470.7972027972028" stroke="red" stroke-width="1" fill="none" />
<path d="M737.5384615384614,487.4685314685314 L737.5384615384614,479.1328671328671" stroke="red" stroke-width="1" fill="none" />
<path d="M770.8811188811189,470.7972027972028 L770.8811188811189,479.1328671328671" stroke="red" stroke-width="1" fill="none" />
<path d="M770.8811188811189,479.1328671328671 L770.8811188811189,487.4685314685314" stroke="red" stroke-width="1" fill="none" />
<path d="M787.5524475524476,537.4825174825174 L754.2097902097901,520.8111888111888" stroke="red" stroke-width="1" fill="none" />
<path d="M889.6643356643356,458.29370629370624 L904.2517482517483,454.12587412587413" stroke="red" stroke-width="1" fill="none" />
<path d="M912.5874125874125,487.4685314685314 L904.2517482517483,491.6363636363636" stroke="red" stroke-width="1" fill="none" />
<path d="M904.2517482517483,454.12587412587413 L920.9230769230769,454.12587412587413" stroke="red" stroke-width="1" fill="none" />
<path d="M920.9230769230769,454.12587412587413 L929.2587412587411,454.12587412587413" stroke="red" stroke-width="1" fill="none" />
<path d="M929.2587412587411,454.12587412587413 L937.5944055944055,454.12587412587413" stroke="red" stroke-width="1" fill="none" />
<path d="M937.5944055944055,454.12587412587413 L945.93006993007,454.12587412587413" stroke="red" stroke-width="1" fill="none" />
<path d="M945.93006993007,454.12587412587413 L954.2657342657342,454.12587412587413" stroke="red" stroke-width="1" fill="none" />
<path d="M954.2657342657342,487.4685314685314 L945.93006993007,487.4685314685314" stroke="red" stroke-width="1" fill="none" />
<path d="M945.93006993007,487.4685314685314 L937.5944055944055,487.4685314685314" stroke="red" stroke-width="1" fill="none" />
<path d="M937.5944055944055,487.4685314685314 L929.2587412587411,487.4685314685314" stroke="red" stroke-width="1" fill="none" />
<path d="M929.2587412587411,487.4685314685314 L920.9230769230769,487.4685314685314" stroke="red" stroke-width="1" fill="none" />
<path d="M920.9230769230769,487.4685314685314 L912.5874125874125,487.4685314685314" stroke="red" stroke-width="1" fill="none" />
<path d="M954.2657342657342,454.12587412587413 L962.6013986013986,454.12587412587413" stroke="red" stroke-width="1" fill="none" />
<path d="M962.6013986013986,487.4685314685314 L954.2657342657342,487.4685314685314" stroke="red" stroke-width="1" fill="none" />
<path d="M970.9370629370628,487.4685314685314 L962.6013986013986,487.4685314685314" stroke="red" stroke-width="1" fill="none" />
<path d="M962.6013986013986,454.12587412587413 L970.9370629370628,454.12587412587413" stroke="red" stroke-width="1" fill="none" />
<path d="M970.9370629370628,512.4755244755244 L970.9370629370628,487.4685314685314" stroke="red" stroke-width="1" fill="none" />
<path d="M904.2517482517483,491.6363636363636 L900.0839160839159,491.6363636363636" stroke="red" stroke-width="1" fill="none" />
<path d="M900.0839160839159,491.6363636363636 L820.8951048951049,537.4825174825174" stroke="red" stroke-width="1" fill="none" />
<path d="M820.8951048951049,504.13986013986016 L885.4965034965035,458.29370629370624" stroke="red" stroke-width="1" fill="none" />
<path d="M885.4965034965035,458.29370629370624 L889.6643356643356,458.29370629370624" stroke="red" stroke-width="1" fill="none" />
<path d="M770.8811188811189,487.4685314685314 L770.8811188811189,491.6363636363636" stroke="red" stroke-width="1" fill="none" />
<path d="M770.8811188811189,491.6363636363636 L787.5524475524476,504.13986013986016" stroke="red" stroke-width="1" fill="none" />
<path d="M754.2097902097901,520.8111888111888 L737.5384615384614,491.6363636363636" stroke="red" stroke-width="1" fill="none" />
<path d="M737.5384615384614,491.6363636363636 L737.5384615384614,487.4685314685314" stroke="red" stroke-width="1" fill="none" />
<path d="M954.2657342657342,220.72727272727275 L920.9230769230769,199.8881118881119" stroke="red" stroke-width="1" fill="none" />
<path d="M920.9230769230769,199.8881118881119 L920.9230769230769,195.72027972027968" stroke="red" stroke-width="1" fill="none" />
<path d="M970.9370629370628,162.3776223776224 L975.1048951048951,162.3776223776224" stroke="red" stroke-width="1" fill="none" />
<path d="M975.1048951048951,162.3776223776224 L998.027972027972,220.72727272727275" stroke="red" stroke-width="1" fill="none" />
<path d="M1089.7202797202797,291.5804195804195 L1108.4755244755245,364.51748251748245" stroke="red" stroke-width="1" fill="none" />
<path d="M1108.4755244755245,364.51748251748245 L1102.2237762237762,387.44055944055935" stroke="red" stroke-width="1" fill="none" />
<path d="M787.5524475524476,231.14685314685312 L795.8881118881118,254.06993006993002" stroke="red" stroke-width="1" fill="none" />
<path d="M795.8881118881118,254.06993006993002 L837.5664335664335,281.16083916083915" stroke="red" stroke-width="1" fill="none" />
<path d="M837.5664335664335,281.16083916083915 L916.7552447552448,281.16083916083915" stroke="red" stroke-width="1" fill="none" />
<path d="M916.7552447552448,281.16083916083915 L920.9230769230769,281.16083916083915" stroke="red" stroke-width="1" fill="none" />
<path d="M920.9230769230769,281.16083916083915 L920.9230769230769,264.4895104895105" stroke="red" stroke-width="1" fill="none" />
<path d="M1037.6223776223776,545.8181818181819 L1070.9650349650349,545.8181818181819" stroke="red" stroke-width="1" fill="none" />
<path d="M904.2517482517483,545.8181818181819 L937.5944055944055,545.8181818181819" stroke="red" stroke-width="1" fill="none" />
<path d="M937.5944055944055,545.8181818181819 L948.0139860139859,554.1538461538461" stroke="red" stroke-width="1" fill="none" />
<path d="M962.6013986013986,554.1538461538461 L962.6013986013986,545.8181818181819" stroke="red" stroke-width="1" fill="none" />
<path d="M1012.6153846153845,545.8181818181819 L1012.6153846153845,554.1538461538461" stroke="red" stroke-width="1" fill="none" />
<path d="M1027.2027972027972,554.1538461538461 L1037.6223776223776,545.8181818181819" stroke="red" stroke-width="1" fill="none" />
<path d="M1012.6153846153845,604.1678321678322 L1012.6153846153845,612.5034965034964" stroke="red" stroke-width="1" fill="none" />
<path d="M1012.6153846153845,612.5034965034964 L1027.2027972027972,612.5034965034964" stroke="red" stroke-width="1" fill="none" />
<path d="M1027.2027972027972,612.5034965034964 L1027.2027972027972,604.1678321678322" stroke="red" stroke-width="1" fill="none" />
<path d="M948.0139860139859,604.1678321678322 L948.0139860139859,612.5034965034964" stroke="red" stroke-width="1" fill="none" />
<path d="M948.0139860139859,612.5034965034964 L962.6013986013986,612.5034965034964" stroke="red" stroke-width="1" fill="none" />
<path d="M962.6013986013986,612.5034965034964 L962.6013986013986,604.1678321678322" stroke="red" stroke-width="1" fill="none" />
<path d="M948.0139860139859,554.1538461538461 L956.3496503496503,554.1538461538461" stroke="red" stroke-width="1" fill="none" />
<path d="M956.3496503496503,554.1538461538461 L962.6013986013986,554.1538461538461" stroke="red" stroke-width="1" fill="none" />
<path d="M1027.2027972027972,604.1678321678322 L1018.8671328671328,604.1678321678322" stroke="red" stroke-width="1" fill="none" />
<path d="M1018.8671328671328,604.1678321678322 L1012.6153846153845,604.1678321678322" stroke="red" stroke-width="1" fill="none" />
<path d="M1012.6153846153845,554.1538461538461 L1018.8671328671328,554.1538461538461" stroke="red" stroke-width="1" fill="none" />
<path d="M1018.8671328671328,554.1538461538461 L1027.2027972027972,554.1538461538461" stroke="red" stroke-width="1" fill="none" />
<path d="M962.6013986013986,604.1678321678322 L956.3496503496503,604.1678321678322" stroke="red" stroke-width="1" fill="none" />
<path d="M956.3496503496503,604.1678321678322 L948.0139860139859,604.1678321678322" stroke="red" stroke-width="1" fill="none" />
<path d="M1070.9650349650349,654.1818181818181 L1004.2797202797203,654.1818181818181" stroke="red" stroke-width="1" fill="none" />
<path d="M970.9370629370628,654.1818181818181 L904.2517482517483,654.1818181818181" stroke="red" stroke-width="1" fill="none" />
<path d="M1004.2797202797203,654.1818181818181 L1004.2797202797203,670.8531468531468" stroke="red" stroke-width="1" fill="none" />
<path d="M970.9370629370628,670.8531468531468 L970.9370629370628,654.1818181818181" stroke="red" stroke-width="1" fill="none" />
<path d="M904.2517482517483,654.1818181818181 L904.2517482517483,545.8181818181819" stroke="red" stroke-width="1" fill="none" />
<path d="M1070.9650349650349,545.8181818181819 L1070.9650349650349,654.1818181818181" stroke="red" stroke-width="1" fill="none" />
<path d="M1004.2797202797203,670.8531468531468 L995.9440559440559,670.8531468531468" stroke="red" stroke-width="1" fill="none" />
<path d="M979.2727272727273,670.8531468531468 L970.9370629370628,670.8531468531468" stroke="red" stroke-width="1" fill="none" />
<path d="M979.2727272727273,677.104895104895 L979.2727272727273,670.8531468531468" stroke="red" stroke-width="1" fill="none" />
<path d="M995.9440559440559,670.8531468531468 L995.9440559440559,677.104895104895" stroke="red" stroke-width="1" fill="none" />
<path d="M995.9440559440559,677.104895104895 L995.9440559440559,681.2727272727271" stroke="red" stroke-width="1" fill="none" />
<path d="M995.9440559440559,681.2727272727271 L995.9440559440559,687.5244755244754" stroke="red" stroke-width="1" fill="none" />
<path d="M979.2727272727273,687.5244755244754 L979.2727272727273,681.2727272727271" stroke="red" stroke-width="1" fill="none" />
<path d="M979.2727272727273,681.2727272727271 L979.2727272727273,677.104895104895" stroke="red" stroke-width="1" fill="none" />
<path d="M995.9440559440559,687.5244755244754 L1012.6153846153845,687.5244755244754" stroke="red" stroke-width="1" fill="none" />
<path d="M962.6013986013986,687.5244755244754 L979.2727272727273,687.5244755244754" stroke="red" stroke-width="1" fill="none" />
<path d="M1012.6153846153845,687.5244755244754 L1012.6153846153845,737.5384615384615" stroke="red" stroke-width="1" fill="none" />
<path d="M962.6013986013986,737.5384615384615 L962.6013986013986,720.8671328671329" stroke="red" stroke-width="1" fill="none" />
<path d="M962.6013986013986,720.8671328671329 L962.6013986013986,704.195804195804" stroke="lavender" stroke-width="1" fill="none" />
<path d="M962.6013986013986,704.195804195804 L962.6013986013986,687.5244755244754" stroke="red" stroke-width="1" fill="none" />
<path d="M1012.6153846153845,737.5384615384615 L962.6013986013986,737.5384615384615" stroke="red" stroke-width="1" fill="none" />
<path d="M970.9370629370628,516.6433566433567 L970.9370629370628,512.4755244755244" stroke="red" stroke-width="1" fill="none" />
<path d="M1004.2797202797203,512.4755244755244 L1004.2797202797203,516.6433566433567" stroke="red" stroke-width="1" fill="none" />
<path d="M962.6013986013986,545.8181818181819 L970.9370629370628,520.8111888111888" stroke="red" stroke-width="1" fill="none" />
<path d="M970.9370629370628,520.8111888111888 L970.9370629370628,516.6433566433567" stroke="red" stroke-width="1" fill="none" />
<path d="M1004.2797202797203,516.6433566433567 L1004.2797202797203,520.8111888111888" stroke="red" stroke-width="1" fill="none" />
<path d="M1004.2797202797203,520.8111888111888 L1012.6153846153845,545.8181818181819" stroke="red" stroke-width="1" fill="none" />
<path d="M920.9230769230769,229.06293706293707 L954.2657342657342,229.06293706293707" stroke="red" stroke-width="1" fill="none" />
<path d="M637.5104895104895,87.3566433566433 L620.8391608391607,87.3566433566433" stroke="red" stroke-width="1" fill="none" />
<path d="M620.8391608391607,87.3566433566433 L620.8391608391607,20.671328671328638" stroke="red" stroke-width="1" fill="none" />
<path d="M620.8391608391607,154.04195804195808 L637.5104895104895,154.04195804195808" stroke="red" stroke-width="1" fill="none" />
<path d="M870.9090909090908,20.671328671328638 L870.9090909090908,120.6993006993007" stroke="red" stroke-width="1" fill="none" />
<path d="M870.9090909090908,120.6993006993007 L854.2377622377621,120.6993006993007" stroke="red" stroke-width="1" fill="none" />
<path d="M770.8811188811189,187.38461538461536 L770.8811188811189,204.055944055944" stroke="red" stroke-width="1" fill="none" />
<path d="M620.8391608391607,4.0 L637.5104895104895,4.0" stroke="red" stroke-width="1" fill="none" />
<path d="M637.5104895104895,4.0 L854.2377622377621,4.0" stroke="red" stroke-width="1" fill="none" />
<path d="M854.2377622377621,4.0 L870.9090909090908,4.0" stroke="red" stroke-width="1" fill="none" />
<path d="M870.9090909090908,4.0 L870.9090909090908,20.671328671328638" stroke="red" stroke-width="1" fill="none" />
<path d="M620.8391608391607,20.671328671328638 L620.8391608391607,4.0" stroke="red" stroke-width="1" fill="none" />
<path d="M770.8811188811189,204.055944055944 L637.5104895104895,204.055944055944" stroke="red" stroke-width="1" fill="none" />
<path d="M637.5104895104895,204.055944055944 L620.8391608391607,204.055944055944" stroke="red" stroke-width="1" fill="none" />
<path d="M620.8391608391607,204.055944055944 L620.8391608391607,187.38461538461536" stroke="red" stroke-width="1" fill="none" />
<path d="M620.8391608391607,187.38461538461536 L620.8391608391607,154.04195804195808" stroke="red" stroke-width="1" fill="none" />
<path d="M854.2377622377621,170.71328671328672 L854.2377622377621,187.38461538461536" stroke="red" stroke-width="1" fill="none" />
<path d="M887.5804195804196,195.72027972027968 L860.4895104895104,170.71328671328672" stroke="red" stroke-width="1" fill="none" />
<path d="M854.2377622377621,137.37062937062933 L860.4895104895104,137.37062937062933" stroke="red" stroke-width="1" fill="none" />
<path d="M860.4895104895104,170.71328671328672 L854.2377622377621,170.71328671328672" stroke="red" stroke-width="1" fill="none" />
<path d="M637.5104895104895,154.04195804195808 L637.5104895104895,147.79020979020981" stroke="red" stroke-width="1" fill="none" />
<path d="M637.5104895104895,147.79020979020981 L637.5104895104895,137.37062937062933" stroke="red" stroke-width="1" fill="none" />
<path d="M637.5104895104895,104.02797202797206 L637.5104895104895,93.60839160839157" stroke="red" stroke-width="1" fill="none" />
<path d="M637.5104895104895,93.60839160839157 L637.5104895104895,87.3566433566433" stroke="red" stroke-width="1" fill="none" />
<path d="M854.2377622377621,120.6993006993007 L854.2377622377621,126.95104895104896" stroke="red" stroke-width="1" fill="none" />
<path d="M854.2377622377621,126.95104895104896 L854.2377622377621,137.37062937062933" stroke="red" stroke-width="1" fill="none" />
<path d="M854.2377622377621,187.38461538461536 L777.132867132867,187.38461538461536" stroke="red" stroke-width="1" fill="none" />
<path d="M777.132867132867,187.38461538461536 L770.8811188811189,187.38461538461536" stroke="red" stroke-width="1" fill="none" />
<path d="M754.2097902097901,145.70629370629365 L812.5594405594404,145.70629370629365" stroke="red" stroke-width="1" fill="none" />
<path d="M812.5594405594404,145.70629370629365 L812.5594405594404,62.34965034965035" stroke="red" stroke-width="1" fill="none" />
<path d="M812.5594405594404,62.34965034965035 L754.2097902097901,62.34965034965035" stroke="red" stroke-width="1" fill="none" />
<path d="M754.2097902097901,62.34965034965035 L754.2097902097901,70.68531468531467" stroke="red" stroke-width="1" fill="none" />
<path d="M754.2097902097901,70.68531468531467 L762.5454545454545,70.68531468531467" stroke="red" stroke-width="1" fill="none" />
<path d="M762.5454545454545,70.68531468531467 L770.8811188811189,70.68531468531467" stroke="red" stroke-width="1" fill="none" />
<path d="M770.8811188811189,70.68531468531467 L779.2167832167831,70.68531468531467" stroke="red" stroke-width="1" fill="none" />
<path d="M779.2167832167831,70.68531468531467 L804.2237762237762,70.68531468531467" stroke="red" stroke-width="1" fill="none" />
<path d="M804.2237762237762,70.68531468531467 L804.2237762237762,137.37062937062933" stroke="red" stroke-width="1" fill="none" />
<path d="M804.2237762237762,137.37062937062933 L779.2167832167831,137.37062937062933" stroke="red" stroke-width="1" fill="none" />
<path d="M779.2167832167831,137.37062937062933 L770.8811188811189,137.37062937062933" stroke="red" stroke-width="1" fill="none" />
<path d="M770.8811188811189,137.37062937062933 L762.5454545454545,137.37062937062933" stroke="red" stroke-width="1" fill="none" />
<path d="M762.5454545454545,137.37062937062933 L754.2097902097901,137.37062937062933" stroke="red" stroke-width="1" fill="none" />
<path d="M754.2097902097901,137.37062937062933 L754.2097902097901,145.70629370629365" stroke="red" stroke-width="1" fill="none" />
<path d="M1120.9790209790208,487.4685314685314 L1070.9650349650349,504.13986013986016" stroke="red" stroke-width="1" fill="none" />
<path d="M1037.6223776223776,504.13986013986016 L1037.6223776223776,445.7902097902097" stroke="red" stroke-width="1" fill="none" />
<path d="M1070.9650349650349,445.7902097902097 L1079.3006993006993,420.78321678321674" stroke="red" stroke-width="1" fill="none" />
<path d="M1102.2237762237762,387.44055944055935 L1108.4755244755245,387.44055944055935" stroke="red" stroke-width="1" fill="none" />
<path d="M1108.4755244755245,387.44055944055935 L1120.9790209790208,404.1118881118881" stroke="red" stroke-width="1" fill="none" />
<path d="M1079.3006993006993,420.78321678321674 L1077.2167832167831,406.19580419580416" stroke="red" stroke-width="1" fill="none" />
<path d="M1077.2167832167831,406.19580419580416 L1077.2167832167831,399.9440559440559" stroke="red" stroke-width="1" fill="none" />
<path d="M1070.9650349650349,504.13986013986016 L1064.7132867132866,504.13986013986016" stroke="red" stroke-width="1" fill="none" />
<path d="M1064.7132867132866,504.13986013986016 L1037.6223776223776,504.13986013986016" stroke="red" stroke-width="1" fill="none" />
<path d="M1037.6223776223776,445.7902097902097 L1064.7132867132866,445.7902097902097" stroke="red" stroke-width="1" fill="none" />
<path d="M1064.7132867132866,445.7902097902097 L1070.9650349650349,445.7902097902097" stroke="red" stroke-width="1" fill="none" />
<path d="M820.8951048951049,537.4825174825174 L814.6433566433566,537.4825174825174" stroke="red" stroke-width="1" fill="none" />
<path d="M814.6433566433566,537.4825174825174 L793.8041958041958,537.4825174825174" stroke="red" stroke-width="1" fill="none" />
<path d="M793.8041958041958,537.4825174825174 L787.5524475524476,537.4825174825174" stroke="red" stroke-width="1" fill="none" />
<path d="M787.5524475524476,504.13986013986016 L793.8041958041958,504.13986013986016" stroke="red" stroke-width="1" fill="none" />
<path d="M793.8041958041958,504.13986013986016 L814.6433566433566,504.13986013986016" stroke="red" stroke-width="1" fill="none" />
<path d="M814.6433566433566,504.13986013986016 L820.8951048951049,504.13986013986016" stroke="red" stroke-width="1" fill="none" />
<path d="M770.8811188811189,429.11888111888106 L770.8811188811189,435.37062937062933" stroke="red" stroke-width="1" fill="none" />
<path d="M770.8811188811189,435.37062937062933 L770.8811188811189,454.12587412587413" stroke="red" stroke-width="1" fill="none" />
<path d="M737.5384615384614,454.12587412587413 L737.5384615384614,435.37062937062933" stroke="red" stroke-width="1" fill="none" />
<path d="M737.5384615384614,435.37062937062933 L737.5384615384614,429.11888111888106" stroke="red" stroke-width="1" fill="none" />
<path d="M1120.9790209790208,404.1118881118881 L1120.9790209790208,470.7972027972028" stroke="red" stroke-width="1" fill="none" />
<path d="M1162.6573426573425,487.4685314685314 L1137.6503496503497,487.4685314685314" stroke="red" stroke-width="1" fill="none" />
<path d="M1179.3286713286711,462.46153846153845 L1162.6573426573425,487.4685314685314" stroke="red" stroke-width="1" fill="none" />
<path d="M1137.6503496503497,470.7972027972028 L1145.9860139860139,454.12587412587413" stroke="red" stroke-width="1" fill="none" />
<path d="M1145.9860139860139,454.12587412587413 L1129.3146853146852,395.7762237762238" stroke="red" stroke-width="1" fill="none" />
<path d="M1129.3146853146852,395.7762237762238 L1129.3146853146852,354.0979020979021" stroke="red" stroke-width="1" fill="none" />
<path d="M1129.3146853146852,354.0979020979021 L1154.3216783216783,320.7552447552447" stroke="red" stroke-width="1" fill="none" />
<path d="M1162.6573426573425,395.7762237762238 L1179.3286713286711,462.46153846153845" stroke="red" stroke-width="1" fill="none" />
<path d="M1162.6573426573425,354.0979020979021 L1162.6573426573425,395.7762237762238" stroke="red" stroke-width="1" fill="none" />
<path d="M1196.0,320.7552447552447 L1162.6573426573425,354.0979020979021" stroke="red" stroke-width="1" fill="none" />
<path d="M1154.3216783216783,320.7552447552447 L1114.7272727272727,260.3216783216783" stroke="red" stroke-width="1" fill="none" />
<path d="M1137.6503496503497,220.72727272727275 L1196.0,320.7552447552447" stroke="red" stroke-width="1" fill="none" />
<path d="M1114.7272727272727,260.3216783216783 L1104.3076923076922,260.3216783216783" stroke="red" stroke-width="1" fill="none" />
<path d="M1079.3006993006993,220.72727272727275 L1137.6503496503497,220.72727272727275" stroke="red" stroke-width="1" fill="none" />
<path d="M1064.7132867132866,262.40559440559434 L1068.8811188811187,262.40559440559434" stroke="red" stroke-width="1" fill="none" />
<path d="M1068.8811188811187,262.40559440559434 L1079.3006993006993,220.72727272727275" stroke="red" stroke-width="1" fill="none" />
<path d="M1104.3076923076922,260.3216783216783 L1093.8881118881118,291.5804195804195" stroke="red" stroke-width="1" fill="none" />
<path d="M1093.8881118881118,291.5804195804195 L1089.7202797202797,291.5804195804195" stroke="red" stroke-width="1" fill="none" />
<path d="M1120.9790209790208,470.7972027972028 L1125.1468531468531,470.7972027972028" stroke="red" stroke-width="1" fill="none" />
<path d="M1125.1468531468531,470.7972027972028 L1137.6503496503497,470.7972027972028" stroke="red" stroke-width="1" fill="none" />
<path d="M1137.6503496503497,487.4685314685314 L1125.1468531468531,487.4685314685314" stroke="red" stroke-width="1" fill="none" />
<path d="M1125.1468531468531,487.4685314685314 L1120.9790209790208,487.4685314685314" stroke="red" stroke-width="1" fill="none" />
</svg>