<?xml version="1.0" encoding="UTF-8"?>
<svg xmlns="http://www.w3.org/2000/svg" xmlns:xlink="http://www.w3.org/1999/xlink"
     width="1200" height="1293" viewBox="0 0 1200 1293">
<defs>
</defs>
<path d="M583.4244256348246,1249.330108827086 L583.4244256348246,1237.7992744860944" stroke="yellow" stroke-width="1" fill="none" />
<path d="M583.4244256348246,1237.7992744860944 L594.9552599758161,1226.2684401451029" stroke="yellow" stroke-width="1" fill="none" />
<path d="M594.9552599758161,1226.2684401451029 L606.4860943168077,1226.2684401451029" stroke="yellow" stroke-width="1" fill="none" />
<path d="M606.4860943168077,1226.2684401451029 L618.0169286577992,1237.7992744860944" stroke="yellow" stroke-width="1" fill="none" />
<path d="M618.0169286577992,1237.7992744860944 L618.0169286577992,1249.330108827086" stroke="yellow" stroke-width="1" fill="none" />
<path d="M618.0169286577992,1249.330108827086 L606.4860943168077,1260.8609431680775" stroke="yellow" stroke-width="1" fill="none" />
<path d="M606.4860943168077,1260.8609431680775 L594.9552599758161,1260.8609431680775" stroke="yellow" stroke-width="1" fill="none" />
<path d="M594.9552599758161,1260.8609431680775 L583.4244256348246,1249.330108827086" stroke="yellow" stroke-width="1" fill="none" />
<path d="M612.2515114873034,1128.2563482466749 L612.2515114873034,1134.0217654171706" stroke="lavender" stroke-width="1" fill="none" />
<path d="M520.0048367593712,1260.8609431680775 L520.0048367593712,1226.2684401451029" stroke="yellow" stroke-width="1" fill="none" />
<path d="M664.1402660217655,1226.2684401451029 L664.1402660217655,1260.8609431680775" stroke="lavender" stroke-width="1" fill="none" />
<path d="M687.2019347037485,1226.2684401451029 L687.2019347037485,1260.8609431680775" stroke="lavender" stroke-width="1" fill="none" />
<path d="M612.2515114873034,1191.6759371221283 L589.1898428053204,1191.6759371221283" stroke="yellow" stroke-width="1" fill="none" />
<path d="M612.2515114873034,1185.9105199516325 L589.1898428053204,1185.9105199516325" stroke="yellow" stroke-width="1" fill="none" />
<path d="M612.2515114873034,1180.1451027811368 L589.1898428053204,1180.1451027811368" stroke="yellow" stroke-width="1" fill="none" />
<path d="M612.2515114873034,1174.379685610641 L589.1898428053204,1174.379685610641" stroke="yellow" stroke-width="1" fill="none" />
<path d="M612.2515114873034,1168.6142684401452 L589.1898428053204,1168.6142684401452" stroke="yellow" stroke-width="1" fill="none" />
<path d="M612.2515114873034,1162.8488512696495 L589.1898428053204,1162.8488512696495" stroke="yellow" stroke-width="1" fill="none" />
<path d="M612.2515114873034,1157.0834340991537 L589.1898428053204,1157.0834340991537" stroke="yellow" stroke-width="1" fill="none" />
<path d="M612.2515114873034,1151.318016928658 L589.1898428053204,1151.318016928658" stroke="yellow" stroke-width="1" fill="none" />
<path d="M612.2515114873034,1145.5525997581622 L589.1898428053204,1145.5525997581622" stroke="yellow" stroke-width="1" fill="none" />
<path d="M612.2515114873034,1139.7871825876664 L589.1898428053204,1139.7871825876664" stroke="yellow" stroke-width="1" fill="none" />
<path d="M612.2515114873034,1134.0217654171706 L589.1898428053204,1134.0217654171706" stroke="yellow" stroke-width="1" fill="none" />
<path d="M612.2515114873034,1128.2563482466749 L589.1898428053204,1128.2563482466749" stroke="yellow" stroke-width="1" fill="none" />
<path d="M612.2515114873034,1122.490931076179 L589.1898428053204,1122.490931076179" stroke="yellow" stroke-width="1" fill="none" />
<path d="M641.0785973397823,1036.0096735187426 L641.0785973397823,1053.30592503023" stroke="yellow" stroke-width="1" fill="none" />
<path d="M560.3627569528416,1053.30592503023 L560.3627569528416,1036.0096735187426" stroke="yellow" stroke-width="1" fill="none" />
<path d="M583.4244256348246,1064.8367593712214 L571.8935912938331,1064.8367593712214" stroke="yellow" stroke-width="1" fill="none" />
<path d="M583.4244256348246,1076.367593712213 L583.4244256348246,1064.8367593712214" stroke="yellow" stroke-width="1" fill="none" />
<path d="M618.0169286577992,1064.8367593712214 L618.0169286577992,1076.367593712213" stroke="yellow" stroke-width="1" fill="none" />
<path d="M629.5477629987907,1064.8367593712214 L618.0169286577992,1064.8367593712214" stroke="yellow" stroke-width="1" fill="none" />
<path d="M618.0169286577992,1018.7134220072553 L618.0169286577992,1030.2442563482468" stroke="yellow" stroke-width="1" fill="none" />
<path d="M618.0169286577992,1030.2442563482468 L629.5477629987907,1030.2442563482468" stroke="yellow" stroke-width="1" fill="none" />
<path d="M571.8935912938331,1030.2442563482468 L583.4244256348246,1030.2442563482468" stroke="yellow" stroke-width="1" fill="none" />
<path d="M583.4244256348246,1030.2442563482468 L583.4244256348246,1018.7134220072553" stroke="yellow" stroke-width="1" fill="none" />
<path d="M583.4244256348246,914.9359129383314 L583.4244256348246,765.0350665054415" stroke="yellow" stroke-width="1" fill="none" />
<path d="M618.0169286577992,765.0350665054415 L618.0169286577992,914.9359129383314" stroke="yellow" stroke-width="1" fill="none" />
<path d="M473.88149939540506,834.2200725513907 L522.8875453446191,682.8778718258768" stroke="yellow" stroke-width="1" fill="none" />
<path d="M522.8875453446191,682.8778718258768 L404.6964933494558,592.0725513905684" stroke="yellow" stroke-width="1" fill="none" />
<path d="M404.6964933494558,592.0725513905684 L554.5973397823458,592.0725513905684" stroke="yellow" stroke-width="1" fill="none" />
<path d="M600.7206771463119,452.26118500604605 L646.844014510278,592.0725513905684" stroke="yellow" stroke-width="1" fill="none" />
<path d="M646.844014510278,592.0725513905684 L796.7448609431681,592.0725513905684" stroke="yellow" stroke-width="1" fill="none" />
<path d="M796.7448609431681,592.0725513905684 L677.1124546553808,682.8778718258768" stroke="yellow" stroke-width="1" fill="none" />
<path d="M548.83192261185,949.528415961306 L583.4244256348246,914.9359129383314" stroke="yellow" stroke-width="1" fill="none" />
<path d="M618.0169286577992,914.9359129383314 L652.6094316807738,949.528415961306" stroke="yellow" stroke-width="1" fill="none" />
<path d="M583.4244256348246,1007.1825876662638 L618.0169286577992,1007.1825876662638" stroke="yellow" stroke-width="1" fill="none" />
<path d="M589.1898428053204,1093.6638452237003 L612.2515114873034,1093.6638452237003" stroke="lavender" stroke-width="1" fill="none" />
<path d="M612.2515114873034,1090.7811366384524 L589.1898428053204,1090.7811366384524" stroke="lavender" stroke-width="1" fill="none" />
<path d="M612.2515114873034,1087.8984280532045 L589.1898428053204,1087.8984280532045" stroke="yellow" stroke-width="1" fill="none" />
<path d="M589.1898428053204,1096.5465538089481 L612.2515114873034,1096.5465538089481" stroke="yellow" stroke-width="1" fill="none" />
<path d="M554.5973397823458,592.0725513905684 L600.7206771463119,452.26118500604605" stroke="yellow" stroke-width="1" fill="none" />
<path d="M613.6928657799274,1139.7871825876664 L613.6928657799274,1128.2563482466749" stroke="lavender" stroke-width="1" fill="none" />
<path d="M612.2515114873034,1134.0217654171706 L612.2515114873034,1139.7871825876664" stroke="lavender" stroke-width="1" fill="none" />
<path d="M514.2394195888754,1237.7992744860944 L514.2394195888754,1249.330108827086" stroke="lavender" stroke-width="1" fill="none" />
<path d="M514.2394195888754,1226.2684401451029 L514.2394195888754,1237.7992744860944" stroke="yellow" stroke-width="1" fill="none" />
<path d="M514.2394195888754,1249.330108827086 L514.2394195888754,1260.8609431680775" stroke="yellow" stroke-width="1" fill="none" />
<path d="M537.3010882708585,1260.8609431680775 L537.3010882708585,1226.2684401451029" stroke="yellow" stroke-width="1" fill="none" />
<path d="M531.5356711003627,1260.8609431680775 L531.5356711003627,1226.2684401451029" stroke="yellow" stroke-width="1" fill="none" />
<path d="M525.770253929867,1260.8609431680775 L525.770253929867,1226.2684401451029" stroke="yellow" stroke-width="1" fill="none" />
<path d="M583.4244256348246,765.0350665054415 L583.4244256348246,753.50423216445" stroke="yellow" stroke-width="1" fill="none" />
<path d="M618.0169286577992,753.50423216445 L618.0169286577992,765.0350665054415" stroke="yellow" stroke-width="1" fill="none" />
<path d="M618.0169286577992,753.50423216445 L583.4244256348246,753.50423216445" stroke="lavender" stroke-width="1" fill="none" />
<path d="M606.4860943168077,765.0350665054415 L618.0169286577992,765.0350665054415" stroke="yellow" stroke-width="1" fill="none" />
<path d="M727.5598548972189,834.2200725513907 L618.0169286577992,753.50423216445" stroke="yellow" stroke-width="1" fill="none" />
<path d="M677.1124546553808,682.8778718258768 L727.5598548972189,834.2200725513907" stroke="yellow" stroke-width="1" fill="none" />
<path d="M583.4244256348246,753.50423216445 L473.88149939540506,834.2200725513907" stroke="yellow" stroke-width="1" fill="none" />
<path d="M574.776299879081,698.73276904474 L586.3071342200725,698.73276904474" stroke="yellow" stroke-width="1" fill="none" />
<path d="M574.776299879081,694.4087061668683 L586.3071342200725,694.4087061668683" stroke="yellow" stroke-width="1" fill="none" />
<path d="M586.3071342200725,692.9673518742443 L574.776299879081,692.9673518742443" stroke="yellow" stroke-width="1" fill="none" />
<path d="M570.4522370012091,698.73276904474 L570.4522370012091,707.3808948004837" stroke="yellow" stroke-width="1" fill="none" />
<path d="M570.4522370012091,707.3808948004837 L590.6311970979443,707.3808948004837" stroke="lavender" stroke-width="1" fill="none" />
<path d="M590.6311970979443,707.3808948004837 L590.6311970979443,698.73276904474" stroke="yellow" stroke-width="1" fill="none" />
<path d="M570.4522370012091,707.3808948004837 L560.3627569528416,718.9117291414752" stroke="yellow" stroke-width="1" fill="none" />
<path d="M560.3627569528416,718.9117291414752 L560.3627569528416,730.4425634824668" stroke="yellow" stroke-width="1" fill="none" />
<path d="M560.3627569528416,730.4425634824668 L583.4244256348246,753.50423216445" stroke="yellow" stroke-width="1" fill="none" />
<path d="M626.6650544135429,678.553808948005 L626.6650544135429,692.9673518742443" stroke="lavender" stroke-width="1" fill="none" />
<path d="M615.1342200725513,698.73276904474 L626.6650544135429,698.73276904474" stroke="yellow" stroke-width="1" fill="none" />
<path d="M615.1342200725513,694.4087061668683 L626.6650544135429,694.4087061668683" stroke="yellow" stroke-width="1" fill="none" />
<path d="M626.6650544135429,692.9673518742443 L615.1342200725513,692.9673518742443" stroke="yellow" stroke-width="1" fill="none" />
<path d="M610.8101571946795,698.73276904474 L610.8101571946795,707.3808948004837" stroke="yellow" stroke-width="1" fill="none" />
<path d="M610.8101571946795,707.3808948004837 L630.9891172914147,707.3808948004837" stroke="lavender" stroke-width="1" fill="none" />
<path d="M630.9891172914147,707.3808948004837 L630.9891172914147,698.73276904474" stroke="yellow" stroke-width="1" fill="none" />
<path d="M600.7206771463119,714.5876662636035 L590.6311970979443,707.3808948004837" stroke="yellow" stroke-width="1" fill="none" />
<path d="M560.3627569528416,718.9117291414752 L641.0785973397823,718.9117291414752" stroke="yellow" stroke-width="1" fill="none" />
<path d="M641.0785973397823,718.9117291414752 L630.9891172914147,707.3808948004837" stroke="yellow" stroke-width="1" fill="none" />
<path d="M560.3627569528416,730.4425634824668 L641.0785973397823,730.4425634824668" stroke="yellow" stroke-width="1" fill="none" />
<path d="M641.0785973397823,730.4425634824668 L641.0785973397823,718.9117291414752" stroke="yellow" stroke-width="1" fill="none" />
<path d="M618.0169286577992,753.50423216445 L641.0785973397823,730.4425634824668" stroke="yellow" stroke-width="1" fill="none" />
<path d="M583.4244256348246,765.0350665054415 L594.9552599758161,765.0350665054415" stroke="yellow" stroke-width="1" fill="none" />
<path d="M594.9552599758161,765.0350665054415 L606.4860943168077,765.0350665054415" stroke="lavender" stroke-width="1" fill="none" />
<path d="M610.8101571946795,707.3808948004837 L600.7206771463119,714.5876662636035" stroke="yellow" stroke-width="1" fill="none" />
<path d="M577.6590084643288,407.57920193470386 L589.1898428053204,407.57920193470386" stroke="lavender" stroke-width="1" fill="none" />
<path d="M589.1898428053204,407.57920193470386 L589.1898428053204,401.8137847642081" stroke="yellow" stroke-width="1" fill="none" />
<path d="M589.1898428053204,401.8137847642081 L589.1898428053204,396.0483675937123" stroke="yellow" stroke-width="1" fill="none" />
<path d="M589.1898428053204,396.0483675937123 L589.1898428053204,390.28295042321656" stroke="yellow" stroke-width="1" fill="none" />
<path d="M589.1898428053204,390.28295042321656 L589.1898428053204,384.5175332527208" stroke="yellow" stroke-width="1" fill="none" />
<path d="M589.1898428053204,384.5175332527208 L589.1898428053204,378.75211608222503" stroke="yellow" stroke-width="1" fill="none" />
<path d="M589.1898428053204,378.75211608222503 L589.1898428053204,372.98669891172926" stroke="yellow" stroke-width="1" fill="none" />
<path d="M589.1898428053204,372.98669891172926 L589.1898428053204,367.2212817412335" stroke="yellow" stroke-width="1" fill="none" />
<path d="M589.1898428053204,367.2212817412335 L589.1898428053204,361.45586457073773" stroke="yellow" stroke-width="1" fill="none" />
<path d="M589.1898428053204,361.45586457073773 L589.1898428053204,355.69044740024196" stroke="yellow" stroke-width="1" fill="none" />
<path d="M589.1898428053204,355.69044740024196 L589.1898428053204,349.9250302297462" stroke="yellow" stroke-width="1" fill="none" />
<path d="M589.1898428053204,349.9250302297462 L589.1898428053204,344.15961305925043" stroke="yellow" stroke-width="1" fill="none" />
<path d="M589.1898428053204,344.15961305925043 L589.1898428053204,338.39419588875467" stroke="yellow" stroke-width="1" fill="none" />
<path d="M577.6590084643288,257.6783555018138 L577.6590084643288,407.57920193470386" stroke="yellow" stroke-width="1" fill="none" />
<path d="M623.782345828295,407.57920193470386 L635.3131801692865,407.57920193470386" stroke="yellow" stroke-width="1" fill="none" />
<path d="M635.3131801692865,407.57920193470386 L635.3131801692865,257.6783555018138" stroke="yellow" stroke-width="1" fill="none" />
<path d="M623.782345828295,338.39419588875467 L623.782345828295,344.15961305925043" stroke="yellow" stroke-width="1" fill="none" />
<path d="M623.782345828295,344.15961305925043 L623.782345828295,349.9250302297462" stroke="yellow" stroke-width="1" fill="none" />
<path d="M623.782345828295,349.9250302297462 L623.782345828295,355.69044740024196" stroke="yellow" stroke-width="1" fill="none" />
<path d="M623.782345828295,355.69044740024196 L623.782345828295,361.45586457073773" stroke="yellow" stroke-width="1" fill="none" />
<path d="M623.782345828295,361.45586457073773 L623.782345828295,367.2212817412335" stroke="yellow" stroke-width="1" fill="none" />
<path d="M623.782345828295,367.2212817412335 L623.782345828295,372.98669891172926" stroke="yellow" stroke-width="1" fill="none" />
<path d="M623.782345828295,372.98669891172926 L623.782345828295,378.75211608222503" stroke="yellow" stroke-width="1" fill="none" />
<path d="M623.782345828295,378.75211608222503 L623.782345828295,384.5175332527208" stroke="yellow" stroke-width="1" fill="none" />
<path d="M623.782345828295,384.5175332527208 L623.782345828295,390.28295042321656" stroke="yellow" stroke-width="1" fill="none" />
<path d="M623.782345828295,390.28295042321656 L623.782345828295,396.0483675937123" stroke="yellow" stroke-width="1" fill="none" />
<path d="M623.782345828295,396.0483675937123 L623.782345828295,401.8137847642081" stroke="yellow" stroke-width="1" fill="none" />
<path d="M623.782345828295,401.8137847642081 L623.782345828295,407.57920193470386" stroke="yellow" stroke-width="1" fill="none" />
<path d="M589.1898428053204,407.57920193470386 L623.782345828295,407.57920193470386" stroke="yellow" stroke-width="1" fill="none" />
<path d="M589.1898428053204,401.8137847642081 L623.782345828295,401.8137847642081" stroke="yellow" stroke-width="1" fill="none" />
<path d="M589.1898428053204,396.0483675937123 L623.782345828295,396.0483675937123" stroke="yellow" stroke-width="1" fill="none" />
<path d="M589.1898428053204,390.28295042321656 L623.782345828295,390.28295042321656" stroke="yellow" stroke-width="1" fill="none" />
<path d="M589.1898428053204,384.5175332527208 L623.782345828295,384.5175332527208" stroke="yellow" stroke-width="1" fill="none" />
<path d="M589.1898428053204,378.75211608222503 L623.782345828295,378.75211608222503" stroke="yellow" stroke-width="1" fill="none" />
<path d="M589.1898428053204,372.98669891172926 L623.782345828295,372.98669891172926" stroke="yellow" stroke-width="1" fill="none" />
<path d="M589.1898428053204,367.2212817412335 L623.782345828295,367.2212817412335" stroke="yellow" stroke-width="1" fill="none" />
<path d="M589.1898428053204,361.45586457073773 L623.782345828295,361.45586457073773" stroke="yellow" stroke-width="1" fill="none" />
<path d="M589.1898428053204,355.69044740024196 L623.782345828295,355.69044740024196" stroke="yellow" stroke-width="1" fill="none" />
<path d="M589.1898428053204,349.9250302297462 L623.782345828295,349.9250302297462" stroke="yellow" stroke-width="1" fill="none" />
<path d="M589.1898428053204,344.15961305925043 L623.782345828295,344.15961305925043" stroke="yellow" stroke-width="1" fill="none" />
<path d="M589.1898428053204,338.39419588875467 L623.782345828295,338.39419588875467" stroke="yellow" stroke-width="1" fill="none" />
<path d="M635.3131801692865,257.6783555018138 L577.6590084643288,257.6783555018138" stroke="yellow" stroke-width="1" fill="none" />
<path d="M589.1898428053204,338.39419588875467 L589.1898428053204,332.6287787182589" stroke="yellow" stroke-width="1" fill="none" />
<path d="M589.1898428053204,332.6287787182589 L623.782345828295,332.6287787182589" stroke="yellow" stroke-width="1" fill="none" />
<path d="M623.782345828295,332.6287787182589 L623.782345828295,338.39419588875467" stroke="yellow" stroke-width="1" fill="none" />
<path d="M589.1898428053204,332.6287787182589 L589.1898428053204,326.86336154776313" stroke="yellow" stroke-width="1" fill="none" />
<path d="M589.1898428053204,326.86336154776313 L623.782345828295,326.86336154776313" stroke="yellow" stroke-width="1" fill="none" />
<path d="M623.782345828295,326.86336154776313 L623.782345828295,332.6287787182589" stroke="yellow" stroke-width="1" fill="none" />
<path d="M571.8935912938331,772.2418379685612 L571.8935912938331,914.9359129383314" stroke="yellow" stroke-width="1" fill="none" />
<path d="M571.8935912938331,914.9359129383314 L548.83192261185,949.528415961306" stroke="yellow" stroke-width="1" fill="none" />
<path d="M462.3506650544135,851.516324062878 L571.8935912938331,772.2418379685612" stroke="yellow" stroke-width="1" fill="none" />
<path d="M514.2394195888754,684.3192261185008 L462.3506650544135,851.516324062878" stroke="yellow" stroke-width="1" fill="none" />
<path d="M384.5175332527206,584.8657799274487 L514.2394195888754,684.3192261185008" stroke="yellow" stroke-width="1" fill="none" />
<path d="M548.83192261185,584.8657799274487 L384.5175332527206,584.8657799274487" stroke="yellow" stroke-width="1" fill="none" />
<path d="M600.7206771463119,439.2889963724306 L548.83192261185,584.8657799274487" stroke="yellow" stroke-width="1" fill="none" />
<path d="M652.6094316807738,584.8657799274487 L600.7206771463119,439.2889963724306" stroke="yellow" stroke-width="1" fill="none" />
<path d="M814.0411124546554,584.8657799274487 L652.6094316807738,584.8657799274487" stroke="yellow" stroke-width="1" fill="none" />
<path d="M687.2019347037485,684.3192261185008 L814.0411124546554,584.8657799274487" stroke="yellow" stroke-width="1" fill="none" />
<path d="M739.0906892382104,851.516324062878 L687.2019347037485,684.3192261185008" stroke="yellow" stroke-width="1" fill="none" />
<path d="M629.5477629987907,772.2418379685612 L739.0906892382104,851.516324062878" stroke="yellow" stroke-width="1" fill="none" />
<path d="M629.5477629987907,914.9359129383314 L629.5477629987907,772.2418379685612" stroke="yellow" stroke-width="1" fill="none" />
<path d="M652.6094316807738,949.528415961306 L629.5477629987907,914.9359129383314" stroke="yellow" stroke-width="1" fill="none" />
<path d="M594.9552599758161,292.27085852478854 L606.4860943168077,292.27085852478854" stroke="lavender" stroke-width="1" fill="none" />
<path d="M606.4860943168077,292.27085852478854 L618.0169286577992,292.27085852478854" stroke="lavender" stroke-width="1" fill="none" />
<path d="M618.0169286577992,292.27085852478854 L618.0169286577992,280.740024183797" stroke="lavender" stroke-width="1" fill="none" />
<path d="M618.0169286577992,280.740024183797 L618.0169286577992,269.20918984280536" stroke="lavender" stroke-width="1" fill="none" />
<path d="M618.0169286577992,269.20918984280536 L606.4860943168077,269.20918984280536" stroke="lavender" stroke-width="1" fill="none" />
<path d="M606.4860943168077,269.20918984280536 L594.9552599758161,269.20918984280536" stroke="lavender" stroke-width="1" fill="none" />
<path d="M594.9552599758161,269.20918984280536 L594.9552599758161,280.740024183797" stroke="lavender" stroke-width="1" fill="none" />
<path d="M594.9552599758161,280.740024183797 L594.9552599758161,292.27085852478854" stroke="lavender" stroke-width="1" fill="none" />
<path d="M594.9552599758161,280.740024183797 L606.4860943168077,280.740024183797" stroke="yellow" stroke-width="1" fill="none" />
<path d="M606.4860943168077,280.740024183797 L618.0169286577992,280.740024183797" stroke="yellow" stroke-width="1" fill="none" />
<path d="M606.4860943168077,269.20918984280536 L606.4860943168077,280.740024183797" stroke="yellow" stroke-width="1" fill="none" />
<path d="M606.4860943168077,280.740024183797 L606.4860943168077,292.27085852478854" stroke="yellow" stroke-width="1" fill="none" />
<path d="M589.1898428053204,298.0362756952843 L623.782345828295,298.0362756952843" stroke="yellow" stroke-width="1" fill="none" />
<path d="M623.782345828295,298.0362756952843 L623.782345828295,263.4437726723096" stroke="yellow" stroke-width="1" fill="none" />
<path d="M623.782345828295,263.4437726723096 L589.1898428053204,263.4437726723096" stroke="yellow" stroke-width="1" fill="none" />
<path d="M589.1898428053204,263.4437726723096 L589.1898428053204,298.0362756952843" stroke="yellow" stroke-width="1" fill="none" />
<path d="M592.0725513905683,266.3264812575575 L620.8996372430471,266.3264812575575" stroke="yellow" stroke-width="1" fill="none" />
<path d="M620.8996372430471,266.3264812575575 L620.8996372430471,295.1535671100364" stroke="yellow" stroke-width="1" fill="none" />
<path d="M620.8996372430471,295.1535671100364 L592.0725513905683,295.1535671100364" stroke="yellow" stroke-width="1" fill="none" />
<path d="M592.0725513905683,295.1535671100364 L592.0725513905683,266.3264812575575" stroke="yellow" stroke-width="1" fill="none" />
<path d="M626.6650544135429,29.944377267230948 L643.9613059250302,29.944377267230948" stroke="yellow" stroke-width="1" fill="none" />
<path d="M643.9613059250302,29.944377267230948 L643.9613059250302,47.240628778718246" stroke="yellow" stroke-width="1" fill="none" />
<path d="M643.9613059250302,47.240628778718246 L626.6650544135429,47.240628778718246" stroke="yellow" stroke-width="1" fill="none" />
<path d="M626.6650544135429,47.240628778718246 L626.6650544135429,29.944377267230948" stroke="yellow" stroke-width="1" fill="none" />
<path d="M628.1064087061668,692.9673518742443 L628.1064087061668,678.553808948005" stroke="yellow" stroke-width="1" fill="none" />
<path d="M514.2394195888754,1226.2684401451029 L520.0048367593712,1226.2684401451029" stroke="red" stroke-width="1" fill="none" />
<path d="M537.3010882708585,1226.2684401451029 L560.3627569528416,1203.2067714631198" stroke="red" stroke-width="1" fill="none" />
<path d="M560.3627569528416,1203.2067714631198 L589.1898428053204,1191.6759371221283" stroke="red" stroke-width="1" fill="none" />
<path d="M612.2515114873034,1191.6759371221283 L641.0785973397823,1203.2067714631198" stroke="red" stroke-width="1" fill="none" />
<path d="M641.0785973397823,1203.2067714631198 L664.1402660217655,1226.2684401451029" stroke="red" stroke-width="1" fill="none" />
<path d="M664.1402660217655,1226.2684401451029 L687.2019347037485,1226.2684401451029" stroke="red" stroke-width="1" fill="none" />
<path d="M687.2019347037485,1260.8609431680775 L664.1402660217655,1260.8609431680775" stroke="red" stroke-width="1" fill="none" />
<path d="M664.1402660217655,1260.8609431680775 L641.0785973397823,1283.9226118500605" stroke="red" stroke-width="1" fill="none" />
<path d="M641.0785973397823,1283.9226118500605 L612.2515114873034,1289.6880290205563" stroke="red" stroke-width="1" fill="none" />
<path d="M612.2515114873034,1289.6880290205563 L589.1898428053204,1289.6880290205563" stroke="red" stroke-width="1" fill="none" />
<path d="M589.1898428053204,1289.6880290205563 L560.3627569528416,1283.9226118500605" stroke="red" stroke-width="1" fill="none" />
<path d="M560.3627569528416,1283.9226118500605 L537.3010882708585,1260.8609431680775" stroke="red" stroke-width="1" fill="none" />
<path d="M520.0048367593712,1260.8609431680775 L514.2394195888754,1260.8609431680775" stroke="red" stroke-width="1" fill="none" />
<path d="M589.1898428053204,1191.6759371221283 L589.1898428053204,1185.9105199516325" stroke="red" stroke-width="1" fill="none" />
<path d="M589.1898428053204,1185.9105199516325 L589.1898428053204,1180.1451027811368" stroke="red" stroke-width="1" fill="none" />
<path d="M589.1898428053204,1180.1451027811368 L589.1898428053204,1174.379685610641" stroke="red" stroke-width="1" fill="none" />
<path d="M589.1898428053204,1174.379685610641 L589.1898428053204,1168.6142684401452" stroke="red" stroke-width="1" fill="none" />
<path d="M589.1898428053204,1168.6142684401452 L589.1898428053204,1162.8488512696495" stroke="red" stroke-width="1" fill="none" />
<path d="M589.1898428053204,1162.8488512696495 L589.1898428053204,1157.0834340991537" stroke="red" stroke-width="1" fill="none" />
<path d="M589.1898428053204,1157.0834340991537 L589.1898428053204,1151.318016928658" stroke="red" stroke-width="1" fill="none" />
<path d="M589.1898428053204,1151.318016928658 L589.1898428053204,1145.5525997581622" stroke="red" stroke-width="1" fill="none" />
<path d="M589.1898428053204,1145.5525997581622 L589.1898428053204,1139.7871825876664" stroke="red" stroke-width="1" fill="none" />
<path d="M589.1898428053204,1139.7871825876664 L589.1898428053204,1134.0217654171706" stroke="red" stroke-width="1" fill="none" />
<path d="M589.1898428053204,1134.0217654171706 L589.1898428053204,1128.2563482466749" stroke="red" stroke-width="1" fill="none" />
<path d="M589.1898428053204,1128.2563482466749 L589.1898428053204,1122.490931076179" stroke="red" stroke-width="1" fill="none" />
<path d="M612.2515114873034,1122.490931076179 L612.2515114873034,1128.2563482466749" stroke="red" stroke-width="1" fill="none" />
<path d="M612.2515114873034,1139.7871825876664 L612.2515114873034,1145.5525997581622" stroke="red" stroke-width="1" fill="none" />
<path d="M612.2515114873034,1145.5525997581622 L612.2515114873034,1151.318016928658" stroke="red" stroke-width="1" fill="none" />
<path d="M612.2515114873034,1151.318016928658 L612.2515114873034,1157.0834340991537" stroke="red" stroke-width="1" fill="none" />
<path d="M612.2515114873034,1157.0834340991537 L612.2515114873034,1162.8488512696495" stroke="red" stroke-width="1" fill="none" />
<path d="M612.2515114873034,1162.8488512696495 L612.2515114873034,1168.6142684401452" stroke="red" stroke-width="1" fill="none" />
<path d="M612.2515114873034,1168.6142684401452 L612.2515114873034,1174.379685610641" stroke="red" stroke-width="1" fill="none" />
<path d="M612.2515114873034,1174.379685610641 L612.2515114873034,1180.1451027811368" stroke="red" stroke-width="1" fill="none" />
<path d="M612.2515114873034,1180.1451027811368 L612.2515114873034,1185.9105199516325" stroke="red" stroke-width="1" fill="none" />
<path d="M612.2515114873034,1185.9105199516325 L612.2515114873034,1191.6759371221283" stroke="red" stroke-width="1" fill="none" />
<path d="M589.1898428053204,1122.490931076179 L583.4244256348246,1122.490931076179" stroke="red" stroke-width="1" fill="none" />
<path d="M618.0169286577992,1122.490931076179 L612.2515114873034,1122.490931076179" stroke="red" stroke-width="1" fill="none" />
<path d="M687.2019347037485,1226.2684401451029 L698.73276904474,1226.2684401451029" stroke="red" stroke-width="1" fill="none" />
<path d="M698.73276904474,1226.2684401451029 L698.73276904474,1260.8609431680775" stroke="red" stroke-width="1" fill="none" />
<path d="M698.73276904474,1260.8609431680775 L687.2019347037485,1260.8609431680775" stroke="red" stroke-width="1" fill="none" />
<path d="M514.2394195888754,1260.8609431680775 L485.4123337363966,1260.8609431680775" stroke="red" stroke-width="1" fill="none" />
<path d="M485.4123337363966,1260.8609431680775 L485.4123337363966,1226.2684401451029" stroke="red" stroke-width="1" fill="none" />
<path d="M485.4123337363966,1226.2684401451029 L514.2394195888754,1226.2684401451029" stroke="red" stroke-width="1" fill="none" />
<path d="M641.0785973397823,1053.30592503023 L641.0785973397823,1064.8367593712214" stroke="red" stroke-width="1" fill="none" />
<path d="M641.0785973397823,1030.2442563482468 L641.0785973397823,1036.0096735187426" stroke="red" stroke-width="1" fill="none" />
<path d="M560.3627569528416,1036.0096735187426 L560.3627569528416,1030.2442563482468" stroke="red" stroke-width="1" fill="none" />
<path d="M560.3627569528416,1064.8367593712214 L560.3627569528416,1053.30592503023" stroke="red" stroke-width="1" fill="none" />
<path d="M554.5973397823458,1030.2442563482468 L554.5973397823458,1036.0096735187426" stroke="red" stroke-width="1" fill="none" />
<path d="M554.5973397823458,1036.0096735187426 L560.3627569528416,1036.0096735187426" stroke="red" stroke-width="1" fill="none" />
<path d="M554.5973397823458,1053.30592503023 L554.5973397823458,1064.8367593712214" stroke="red" stroke-width="1" fill="none" />
<path d="M560.3627569528416,1053.30592503023 L554.5973397823458,1053.30592503023" stroke="red" stroke-width="1" fill="none" />
<path d="M641.0785973397823,1036.0096735187426 L646.844014510278,1036.0096735187426" stroke="red" stroke-width="1" fill="none" />
<path d="M646.844014510278,1036.0096735187426 L646.844014510278,1030.2442563482468" stroke="red" stroke-width="1" fill="none" />
<path d="M646.844014510278,1053.30592503023 L641.0785973397823,1053.30592503023" stroke="red" stroke-width="1" fill="none" />
<path d="M646.844014510278,1064.8367593712214 L646.844014510278,1053.30592503023" stroke="red" stroke-width="1" fill="none" />
<path d="M560.3627569528416,1030.2442563482468 L571.8935912938331,1030.2442563482468" stroke="red" stroke-width="1" fill="none" />
<path d="M571.8935912938331,1030.2442563482468 L571.8935912938331,1018.7134220072553" stroke="red" stroke-width="1" fill="none" />
<path d="M571.8935912938331,1018.7134220072553 L583.4244256348246,1018.7134220072553" stroke="red" stroke-width="1" fill="none" />
<path d="M583.4244256348246,1018.7134220072553 L583.4244256348246,1007.1825876662638" stroke="red" stroke-width="1" fill="none" />
<path d="M618.0169286577992,1007.1825876662638 L618.0169286577992,1018.7134220072553" stroke="red" stroke-width="1" fill="none" />
<path d="M618.0169286577992,1018.7134220072553 L629.5477629987907,1018.7134220072553" stroke="red" stroke-width="1" fill="none" />
<path d="M629.5477629987907,1018.7134220072553 L629.5477629987907,1030.2442563482468" stroke="red" stroke-width="1" fill="none" />
<path d="M629.5477629987907,1030.2442563482468 L641.0785973397823,1030.2442563482468" stroke="red" stroke-width="1" fill="none" />
<path d="M641.0785973397823,1064.8367593712214 L629.5477629987907,1064.8367593712214" stroke="red" stroke-width="1" fill="none" />
<path d="M629.5477629987907,1064.8367593712214 L629.5477629987907,1076.367593712213" stroke="red" stroke-width="1" fill="none" />
<path d="M629.5477629987907,1076.367593712213 L618.0169286577992,1076.367593712213" stroke="red" stroke-width="1" fill="none" />
<path d="M583.4244256348246,1076.367593712213 L571.8935912938331,1076.367593712213" stroke="red" stroke-width="1" fill="none" />
<path d="M571.8935912938331,1076.367593712213 L571.8935912938331,1064.8367593712214" stroke="red" stroke-width="1" fill="none" />
<path d="M571.8935912938331,1064.8367593712214 L560.3627569528416,1064.8367593712214" stroke="red" stroke-width="1" fill="none" />
<path d="M618.0169286577992,1076.367593712213 L618.0169286577992,1087.8984280532045" stroke="red" stroke-width="1" fill="none" />
<path d="M618.0169286577992,1087.8984280532045 L612.2515114873034,1087.8984280532045" stroke="red" stroke-width="1" fill="none" />
<path d="M612.2515114873034,1087.8984280532045 L612.2515114873034,1090.7811366384524" stroke="red" stroke-width="1" fill="none" />
<path d="M612.2515114873034,1090.7811366384524 L612.2515114873034,1093.6638452237003" stroke="red" stroke-width="1" fill="none" />
<path d="M612.2515114873034,1093.6638452237003 L612.2515114873034,1096.5465538089481" stroke="red" stroke-width="1" fill="none" />
<path d="M612.2515114873034,1096.5465538089481 L618.0169286577992,1096.5465538089481" stroke="red" stroke-width="1" fill="none" />
<path d="M618.0169286577992,1096.5465538089481 L618.0169286577992,1122.490931076179" stroke="red" stroke-width="1" fill="none" />
<path d="M583.4244256348246,1122.490931076179 L583.4244256348246,1096.5465538089481" stroke="red" stroke-width="1" fill="none" />
<path d="M583.4244256348246,1096.5465538089481 L589.1898428053204,1096.5465538089481" stroke="red" stroke-width="1" fill="none" />
<path d="M589.1898428053204,1096.5465538089481 L589.1898428053204,1093.6638452237003" stroke="red" stroke-width="1" fill="none" />
<path d="M589.1898428053204,1093.6638452237003 L589.1898428053204,1090.7811366384524" stroke="red" stroke-width="1" fill="none" />
<path d="M589.1898428053204,1090.7811366384524 L589.1898428053204,1087.8984280532045" stroke="red" stroke-width="1" fill="none" />
<path d="M589.1898428053204,1087.8984280532045 L583.4244256348246,1087.8984280532045" stroke="red" stroke-width="1" fill="none" />
<path d="M583.4244256348246,1087.8984280532045 L583.4244256348246,1076.367593712213" stroke="red" stroke-width="1" fill="none" />
<path d="M612.2515114873034,1128.2563482466749 L613.6928657799274,1128.2563482466749" stroke="red" stroke-width="1" fill="none" />
<path d="M613.6928657799274,1139.7871825876664 L612.2515114873034,1139.7871825876664" stroke="red" stroke-width="1" fill="none" />
<path d="M613.6928657799274,1128.2563482466749 L623.782345828295,1128.2563482466749" stroke="red" stroke-width="1" fill="none" />
<path d="M623.782345828295,1128.2563482466749 L623.782345828295,1139.7871825876664" stroke="red" stroke-width="1" fill="none" />
<path d="M623.782345828295,1139.7871825876664 L613.6928657799274,1139.7871825876664" stroke="red" stroke-width="1" fill="none" />
<path d="M520.0048367593712,1226.2684401451029 L525.770253929867,1226.2684401451029" stroke="red" stroke-width="1" fill="none" />
<path d="M525.770253929867,1226.2684401451029 L531.5356711003627,1226.2684401451029" stroke="red" stroke-width="1" fill="none" />
<path d="M531.5356711003627,1226.2684401451029 L537.3010882708585,1226.2684401451029" stroke="red" stroke-width="1" fill="none" />
<path d="M537.3010882708585,1260.8609431680775 L531.5356711003627,1260.8609431680775" stroke="red" stroke-width="1" fill="none" />
<path d="M531.5356711003627,1260.8609431680775 L525.770253929867,1260.8609431680775" stroke="red" stroke-width="1" fill="none" />
<path d="M525.770253929867,1260.8609431680775 L520.0048367593712,1260.8609431680775" stroke="red" stroke-width="1" fill="none" />
<path d="M537.3010882708585,1007.1825876662638 L554.5973397823458,1030.2442563482468" stroke="red" stroke-width="1" fill="none" />
<path d="M512.7980652962515,1007.1825876662638 L537.3010882708585,1007.1825876662638" stroke="red" stroke-width="1" fill="none" />
<path d="M491.17775090689236,1030.2442563482468 L512.7980652962515,1007.1825876662638" stroke="red" stroke-width="1" fill="none" />
<path d="M491.17775090689236,1064.8367593712214 L491.17775090689236,1030.2442563482468" stroke="red" stroke-width="1" fill="none" />
<path d="M514.2394195888754,1087.8984280532045 L491.17775090689236,1064.8367593712214" stroke="red" stroke-width="1" fill="none" />
<path d="M537.3010882708585,1087.8984280532045 L514.2394195888754,1087.8984280532045" stroke="red" stroke-width="1" fill="none" />
<path d="M554.5973397823458,1064.8367593712214 L537.3010882708585,1087.8984280532045" stroke="red" stroke-width="1" fill="none" />
<path d="M646.844014510278,1030.2442563482468 L664.1402660217655,1007.1825876662638" stroke="red" stroke-width="1" fill="none" />
<path d="M664.1402660217655,1007.1825876662638 L687.2019347037485,1007.1825876662638" stroke="red" stroke-width="1" fill="none" />
<path d="M687.2019347037485,1007.1825876662638 L710.2636033857316,1030.2442563482468" stroke="red" stroke-width="1" fill="none" />
<path d="M710.2636033857316,1030.2442563482468 L710.2636033857316,1064.8367593712214" stroke="red" stroke-width="1" fill="none" />
<path d="M710.2636033857316,1064.8367593712214 L687.2019347037485,1087.8984280532045" stroke="red" stroke-width="1" fill="none" />
<path d="M687.2019347037485,1087.8984280532045 L664.1402660217655,1087.8984280532045" stroke="red" stroke-width="1" fill="none" />
<path d="M664.1402660217655,1087.8984280532045 L646.844014510278,1064.8367593712214" stroke="red" stroke-width="1" fill="none" />
<path d="M548.83192261185,949.528415961306 L388.8415961305925,1069.1608222490931" stroke="red" stroke-width="1" fill="none" />
<path d="M388.8415961305925,1069.1608222490931 L4.0,880.3434099153568" stroke="red" stroke-width="1" fill="none" />
<path d="M4.0,880.3434099153568 L234.61668681983065,113.54292623941978" stroke="red" stroke-width="1" fill="none" />
<path d="M234.61668681983065,113.54292623941978 L935.1148730350665,113.54292623941978" stroke="red" stroke-width="1" fill="none" />
<path d="M935.1148730350665,113.54292623941978 L1196.0,891.8742442563483" stroke="red" stroke-width="1" fill="none" />
<path d="M1196.0,891.8742442563483 L792.4207980652961,1069.1608222490931" stroke="red" stroke-width="1" fill="none" />
<path d="M792.4207980652961,1069.1608222490931 L652.6094316807738,949.528415961306" stroke="red" stroke-width="1" fill="none" />
<path d="M570.4522370012091,698.73276904474 L574.776299879081,698.73276904474" stroke="red" stroke-width="1" fill="none" />
<path d="M574.776299879081,698.73276904474 L574.776299879081,694.4087061668683" stroke="red" stroke-width="1" fill="none" />
<path d="M574.776299879081,694.4087061668683 L574.776299879081,692.9673518742443" stroke="red" stroke-width="1" fill="none" />
<path d="M574.776299879081,692.9673518742443 L574.776299879081,678.553808948005" stroke="red" stroke-width="1" fill="none" />
<path d="M574.776299879081,678.553808948005 L586.3071342200725,678.553808948005" stroke="red" stroke-width="1" fill="none" />
<path d="M586.3071342200725,678.553808948005 L586.3071342200725,692.9673518742443" stroke="red" stroke-width="1" fill="none" />
<path d="M586.3071342200725,692.9673518742443 L586.3071342200725,694.4087061668683" stroke="red" stroke-width="1" fill="none" />
<path d="M586.3071342200725,694.4087061668683 L586.3071342200725,698.73276904474" stroke="red" stroke-width="1" fill="none" />
<path d="M586.3071342200725,698.73276904474 L590.6311970979443,698.73276904474" stroke="red" stroke-width="1" fill="none" />
<path d="M590.6311970979443,698.73276904474 L593.5139056831922,684.3192261185008" stroke="red" stroke-width="1" fill="none" />
<path d="M593.5139056831922,684.3192261185008 L586.3071342200725,672.7883917775092" stroke="red" stroke-width="1" fill="none" />
<path d="M586.3071342200725,672.7883917775092 L574.776299879081,672.7883917775092" stroke="red" stroke-width="1" fill="none" />
<path d="M574.776299879081,672.7883917775092 L563.2454655380894,684.3192261185008" stroke="red" stroke-width="1" fill="none" />
<path d="M563.2454655380894,684.3192261185008 L570.4522370012091,698.73276904474" stroke="red" stroke-width="1" fill="none" />
<path d="M610.8101571946795,698.73276904474 L615.1342200725513,698.73276904474" stroke="red" stroke-width="1" fill="none" />
<path d="M615.1342200725513,698.73276904474 L615.1342200725513,694.4087061668683" stroke="red" stroke-width="1" fill="none" />
<path d="M615.1342200725513,694.4087061668683 L615.1342200725513,692.9673518742443" stroke="red" stroke-width="1" fill="none" />
<path d="M615.1342200725513,692.9673518742443 L615.1342200725513,678.553808948005" stroke="red" stroke-width="1" fill="none" />
<path d="M615.1342200725513,678.553808948005 L626.6650544135429,678.553808948005" stroke="red" stroke-width="1" fill="none" />
<path d="M626.6650544135429,692.9673518742443 L626.6650544135429,694.4087061668683" stroke="red" stroke-width="1" fill="none" />
<path d="M626.6650544135429,694.4087061668683 L626.6650544135429,698.73276904474" stroke="red" stroke-width="1" fill="none" />
<path d="M626.6650544135429,698.73276904474 L630.9891172914147,698.73276904474" stroke="red" stroke-width="1" fill="none" />
<path d="M630.9891172914147,698.73276904474 L638.1958887545344,684.3192261185008" stroke="red" stroke-width="1" fill="none" />
<path d="M638.1958887545344,684.3192261185008 L626.6650544135429,672.7883917775092" stroke="red" stroke-width="1" fill="none" />
<path d="M626.6650544135429,672.7883917775092 L615.1342200725513,672.7883917775092" stroke="red" stroke-width="1" fill="none" />
<path d="M615.1342200725513,672.7883917775092 L607.9274486094316,684.3192261185008" stroke="red" stroke-width="1" fill="none" />
<path d="M607.9274486094316,684.3192261185008 L610.8101571946795,698.73276904474" stroke="red" stroke-width="1" fill="none" />
<path d="M652.6094316807738,949.528415961306 L618.0169286577992,1002.8585247883918" stroke="red" stroke-width="1" fill="none" />
<path d="M618.0169286577992,1002.8585247883918 L618.0169286577992,1007.1825876662638" stroke="red" stroke-width="1" fill="none" />
<path d="M583.4244256348246,1007.1825876662638 L583.4244256348246,1002.8585247883918" stroke="red" stroke-width="1" fill="none" />
<path d="M583.4244256348246,1002.8585247883918 L548.83192261185,949.528415961306" stroke="red" stroke-width="1" fill="none" />
<path d="M664.1402660217655,73.1850060459492 L606.4860943168077,73.1850060459492" stroke="red" stroke-width="1" fill="none" />
<path d="M606.4860943168077,73.1850060459492 L606.4860943168077,4.0" stroke="red" stroke-width="1" fill="none" />
<path d="M606.4860943168077,4.0 L664.1402660217655,4.0" stroke="red" stroke-width="1" fill="none" />
<path d="M664.1402660217655,4.0 L664.1402660217655,73.1850060459492" stroke="red" stroke-width="1" fill="none" />
<path d="M626.6650544135429,678.553808948005 L628.1064087061668,678.553808948005" stroke="red" stroke-width="1" fill="none" />
<path d="M628.1064087061668,692.9673518742443 L626.6650544135429,692.9673518742443" stroke="red" stroke-width="1" fill="none" />
<path d="M632.4304715840386,692.9673518742443 L628.1064087061668,692.9673518742443" stroke="red" stroke-width="1" fill="none" />
<path d="M628.1064087061668,678.553808948005 L632.4304715840386,681.4365175332529" stroke="red" stroke-width="1" fill="none" />
<path d="M632.4304715840386,681.4365175332529 L632.4304715840386,692.9673518742443" stroke="lavender" stroke-width="1" fill="none" />
</svg>