<?xml version="1.0" encoding="UTF-8"?>
<svg xmlns="http://www.w3.org/2000/svg" xmlns:xlink="http://www.w3.org/1999/xlink"
     width="1200" height="926" viewBox="0 0 1200 926">
<defs>
</defs>
<path d="M196.49689440993788,329.76397515527947 L78.03726708074535,329.76397515527947" stroke="yellow" stroke-width="2" fill="none" />
<path d="M78.03726708074535,359.37888198757764 L196.49689440993788,359.37888198757764" stroke="yellow" stroke-width="2" fill="none" />
<path d="M78.03726708074535,448.22360248447205 L196.49689440993788,448.22360248447205" stroke="yellow" stroke-width="2" fill="none" />
<path d="M107.65217391304348,240.91925465838509 L166.88198757763976,240.91925465838509" stroke="yellow" stroke-width="2" fill="none" />
<path d="M166.88198757763976,122.45962732919253 L107.65217391304348,122.45962732919253" stroke="yellow" stroke-width="2" fill="none" />
<path d="M403.80124223602485,181.68944099378882 L403.80124223602485,92.84472049689441" stroke="yellow" stroke-width="2" fill="none" />
<path d="M78.03726708074535,33.61490683229812 L107.65217391304348,33.61490683229812" stroke="lavender" stroke-width="2" fill="none" />
<path d="M107.65217391304348,33.61490683229812 L107.65217391304348,4.0" stroke="lavender" stroke-width="2" fill="none" />
<path d="M788.7950310559006,270.53416149068323 L877.6397515527949,270.53416149068323" stroke="yellow" stroke-width="2" fill="none" />
<path d="M907.2546583850931,477.83850931677017 L759.1801242236024,477.83850931677017" stroke="yellow" stroke-width="2" fill="none" />
<path d="M788.7950310559006,107.65217391304347 L788.7950310559006,211.30434782608694" stroke="yellow" stroke-width="2" fill="none" />
<path d="M788.7950310559006,603.7018633540372 L877.6397515527949,603.7018633540372" stroke="yellow" stroke-width="2" fill="none" />
<path d="M914.6583850931677,566.6832298136646 L914.6583850931677,507.4534161490683" stroke="yellow" stroke-width="2" fill="none" />
<path d="M751.7763975155278,507.4534161490683 L751.7763975155278,566.6832298136646" stroke="yellow" stroke-width="2" fill="none" />
<path d="M907.2546583850931,507.4534161490683 L907.2546583850931,566.6832298136646" stroke="yellow" stroke-width="2" fill="none" />
<path d="M877.6397515527949,596.2981366459627 L788.7950310559006,596.2981366459627" stroke="yellow" stroke-width="2" fill="none" />
<path d="M759.1801242236024,566.6832298136646 L759.1801242236024,507.4534161490683" stroke="yellow" stroke-width="2" fill="none" />
<path d="M492.64596273291926,270.53416149068323 L492.64596273291926,300.14906832298135" stroke="lavender" stroke-width="2" fill="none" />
<path d="M492.64596273291926,300.14906832298135 L522.2608695652174,300.14906832298135" stroke="lavender" stroke-width="2" fill="none" />
<path d="M670.3354037267081,803.6024844720496 L670.3354037267081,833.2173913043478" stroke="lavender" stroke-width="2" fill="none" />
<path d="M137.26708074534162,566.6832298136646 L137.26708074534162,596.2981366459627" stroke="lavender" stroke-width="2" fill="none" />
<path d="M137.26708074534162,596.2981366459627 L166.88198757763976,596.2981366459627" stroke="lavender" stroke-width="2" fill="none" />
<path d="M18.807453416149073,33.61490683229812 L48.422360248447205,33.61490683229812" stroke="lavender" stroke-width="2" fill="none" />
<path d="M48.422360248447205,448.22360248447205 L18.807453416149073,448.22360248447205" stroke="yellow" stroke-width="2" fill="none" />
<path d="M403.80124223602485,833.2173913043478 L403.80124223602485,862.8322981366459" stroke="lavender" stroke-width="2" fill="none" />
<path d="M1144.1739130434783,803.6024844720496 L1114.55900621118,803.6024844720496" stroke="yellow" stroke-width="2" fill="none" />
<path d="M1144.1739130434783,814.7080745341614 L1114.55900621118,814.7080745341614" stroke="lavender" stroke-width="2" fill="none" />
<path d="M1114.55900621118,822.111801242236 L1144.1739130434783,822.111801242236" stroke="lavender" stroke-width="2" fill="none" />
<path d="M1114.55900621118,833.2173913043478 L1144.1739130434783,833.2173913043478" stroke="yellow" stroke-width="2" fill="none" />
<path d="M1114.55900621118,625.9130434782608 L1144.1739130434783,625.9130434782608" stroke="lavender" stroke-width="2" fill="none" />
<path d="M907.2546583850931,152.07453416149067 L936.8695652173913,152.07453416149067" stroke="lavender" stroke-width="2" fill="none" />
<path d="M936.8695652173913,152.07453416149067 L936.8695652173913,122.45962732919253" stroke="lavender" stroke-width="2" fill="none" />
<path d="M699.9503105590061,240.91925465838509 L699.9503105590061,270.53416149068323" stroke="lavender" stroke-width="2" fill="none" />
<path d="M699.9503105590061,270.53416149068323 L729.5652173913043,270.53416149068323" stroke="lavender" stroke-width="2" fill="none" />
<path d="M751.7763975155278,603.7018633540372 L640.72049689441,744.3726708074535" stroke="yellow" stroke-width="2" fill="none" />
<path d="M1055.3291925465837,744.3726708074535 L914.6583850931677,603.7018633540372" stroke="yellow" stroke-width="2" fill="none" />
<path d="M759.1801242236024,833.2173913043478 L788.7950310559006,603.7018633540372" stroke="yellow" stroke-width="2" fill="none" />
<path d="M877.6397515527949,603.7018633540372 L936.8695652173913,833.2173913043478" stroke="yellow" stroke-width="2" fill="none" />
<path d="M907.2546583850931,833.2173913043478 L788.7950310559006,833.2173913043478" stroke="yellow" stroke-width="2" fill="none" />
<path d="M166.88198757763976,685.1428571428571 L78.03726708074535,625.9130434782608" stroke="yellow" stroke-width="2" fill="none" />
<path d="M48.422360248447205,655.5279503105589 L137.26708074534162,714.7577639751553" stroke="yellow" stroke-width="2" fill="none" />
<path d="M729.5652173913043,122.45962732919253 L729.5652173913043,144.67080745341613" stroke="yellow" stroke-width="2" fill="none" />
<path d="M729.5652173913043,144.67080745341613 L729.5652173913043,174.28571428571428" stroke="yellow" stroke-width="2" fill="none" />
<path d="M729.5652173913043,174.28571428571428 L729.5652173913043,196.49689440993788" stroke="yellow" stroke-width="2" fill="none" />
<path d="M699.9503105590061,122.45962732919253 L699.9503105590061,144.67080745341613" stroke="yellow" stroke-width="2" fill="none" />
<path d="M699.9503105590061,144.67080745341613 L699.9503105590061,174.28571428571428" stroke="yellow" stroke-width="2" fill="none" />
<path d="M699.9503105590061,174.28571428571428 L699.9503105590061,196.49689440993788" stroke="yellow" stroke-width="2" fill="none" />
<path d="M699.9503105590061,144.67080745341613 L729.5652173913043,144.67080745341613" stroke="yellow" stroke-width="2" fill="none" />
<path d="M729.5652173913043,174.28571428571428 L699.9503105590061,174.28571428571428" stroke="yellow" stroke-width="2" fill="none" />
<path d="M640.72049689441,107.65217391304347 L640.72049689441,211.30434782608694" stroke="yellow" stroke-width="2" fill="none" />
<path d="M1144.1739130434783,240.91925465838509 L944.2732919254659,329.76397515527947" stroke="yellow" stroke-width="2" fill="none" />
<path d="M944.2732919254659,448.22360248447205 L1173.7888198757764,388.99378881987576" stroke="yellow" stroke-width="2" fill="none" />
<path d="M1114.55900621118,537.0683229813665 L1055.3291925465837,477.83850931677017" stroke="yellow" stroke-width="2" fill="none" />
<path d="M1055.3291925465837,477.83850931677017 L1036.8198757763976,555.5776397515527" stroke="yellow" stroke-width="2" fill="none" />
<path d="M1036.8198757763976,555.5776397515527 L1114.55900621118,537.0683229813665" stroke="yellow" stroke-width="2" fill="none" />
<path d="M966.4844720496894,359.37888198757764 L1099.751552795031,300.14906832298135" stroke="yellow" stroke-width="2" fill="none" />
<path d="M1099.751552795031,300.14906832298135 L1125.6645962732919,366.78260869565213" stroke="yellow" stroke-width="2" fill="none" />
<path d="M1125.6645962732919,366.78260869565213 L977.5900621118012,403.8012422360248" stroke="yellow" stroke-width="2" fill="none" />
<path d="M977.5900621118012,403.8012422360248 L966.4844720496894,359.37888198757764" stroke="yellow" stroke-width="2" fill="none" />
<path d="M551.8757763975154,477.83850931677017 L581.4906832298136,614.807453416149" stroke="yellow" stroke-width="2" fill="none" />
<path d="M640.72049689441,596.2981366459627 L640.72049689441,477.83850931677017" stroke="yellow" stroke-width="2" fill="none" />
<path d="M551.8757763975154,359.37888198757764 L722.1614906832299,329.76397515527947" stroke="yellow" stroke-width="2" fill="none" />
<path d="M581.4906832298136,614.807453416149 L433.41614906832297,655.5279503105589" stroke="yellow" stroke-width="2" fill="none" />
<path d="M640.72049689441,596.2981366459627 L581.4906832298136,614.807453416149" stroke="lavender" stroke-width="2" fill="none" />
<path d="M751.7763975155278,566.6832298136646 L640.72049689441,596.2981366459627" stroke="yellow" stroke-width="2" fill="none" />
<path d="M640.72049689441,477.83850931677017 L751.7763975155278,477.83850931677017" stroke="yellow" stroke-width="2" fill="none" />
<path d="M551.8757763975154,477.83850931677017 L640.72049689441,477.83850931677017" stroke="lavender" stroke-width="2" fill="none" />
<path d="M433.41614906832297,477.83850931677017 L551.8757763975154,477.83850931677017" stroke="yellow" stroke-width="2" fill="none" />
<path d="M877.6397515527949,566.6832298136646 L877.6397515527949,596.2981366459627" stroke="lavender" stroke-width="2" fill="none" />
<path d="M907.2546583850931,566.6832298136646 L877.6397515527949,566.6832298136646" stroke="lavender" stroke-width="2" fill="none" />
<path d="M466.7329192546584,592.5962732919254 L496.3478260869565,592.5962732919254" stroke="yellow" stroke-width="2" fill="none" />
<path d="M496.3478260869565,592.5962732919254 L496.3478260869565,562.9813664596272" stroke="yellow" stroke-width="2" fill="none" />
<path d="M496.3478260869565,562.9813664596272 L466.7329192546584,562.9813664596272" stroke="yellow" stroke-width="2" fill="none" />
<path d="M466.7329192546584,562.9813664596272 L466.7329192546584,592.5962732919254" stroke="yellow" stroke-width="2" fill="none" />
<path d="M696.2484472049689,540.7701863354037 L733.2670807453417,540.7701863354037" stroke="lavender" stroke-width="2" fill="none" />
<path d="M733.2670807453417,540.7701863354037 L733.2670807453417,503.75155279503105" stroke="lavender" stroke-width="2" fill="none" />
<path d="M733.2670807453417,503.75155279503105 L696.2484472049689,503.75155279503105" stroke="lavender" stroke-width="2" fill="none" />
<path d="M696.2484472049689,503.75155279503105 L696.2484472049689,540.7701863354037" stroke="lavender" stroke-width="2" fill="none" />
<path d="M440.8198757763975,833.2173913043478 L522.2608695652174,751.776397515528" stroke="yellow" stroke-width="2" fill="none" />
<path d="M426.0124223602484,655.5279503105589 L344.57142857142856,736.9689440993789" stroke="yellow" stroke-width="2" fill="none" />
<path d="M522.2608695652174,833.2173913043478 L492.64596273291926,833.2173913043478" stroke="yellow" stroke-width="2" fill="none" />
<path d="M48.422360248447205,892.4472049689441 L48.422360248447205,862.8322981366459" stroke="lavender" stroke-width="2" fill="none" />
<path d="M48.422360248447205,862.8322981366459 L18.807453416149073,862.8322981366459" stroke="lavender" stroke-width="2" fill="none" />
<path d="M326.0621118012422,803.6024844720496 L326.0621118012422,862.8322981366459" stroke="yellow" stroke-width="2" fill="none" />
<path d="M333.46583850931677,803.6024844720496 L333.46583850931677,862.8322981366459" stroke="lavender" stroke-width="2" fill="none" />
<path d="M340.8695652173913,862.8322981366459 L340.8695652173913,803.6024844720496" stroke="lavender" stroke-width="2" fill="none" />
<path d="M522.2608695652174,833.2173913043478 L522.2608695652174,862.8322981366459" stroke="lavender" stroke-width="2" fill="none" />
<path d="M551.8757763975154,833.2173913043478 L522.2608695652174,833.2173913043478" stroke="yellow" stroke-width="2" fill="none" />
<path d="M522.2608695652174,862.8322981366459 L551.8757763975154,862.8322981366459" stroke="lavender" stroke-width="2" fill="none" />
<path d="M581.4906832298136,892.4472049689441 L551.8757763975154,892.4472049689441" stroke="lavender" stroke-width="2" fill="none" />
<path d="M551.8757763975154,892.4472049689441 L551.8757763975154,922.0621118012423" stroke="lavender" stroke-width="2" fill="none" />
<path d="M4.0,655.5279503105589 L33.614906832298146,655.5279503105589" stroke="yellow" stroke-width="2" fill="none" />
<path d="M4.0,640.72049689441 L33.614906832298146,640.72049689441" stroke="yellow" stroke-width="2" fill="none" />
<path d="M4.0,625.9130434782608 L33.614906832298146,625.9130434782608" stroke="yellow" stroke-width="2" fill="none" />
<path d="M4.0,611.1055900621118 L33.614906832298146,611.1055900621118" stroke="yellow" stroke-width="2" fill="none" />
<path d="M4.0,596.2981366459627 L33.614906832298146,596.2981366459627" stroke="yellow" stroke-width="2" fill="none" />
<path d="M4.0,581.4906832298136 L33.614906832298146,581.4906832298136" stroke="yellow" stroke-width="2" fill="none" />
<path d="M4.0,537.0683229813665 L33.614906832298146,537.0683229813665" stroke="yellow" stroke-width="2" fill="none" />
<path d="M196.49689440993788,529.6645962732919 L426.0124223602484,529.6645962732919" stroke="yellow" stroke-width="2" fill="none" />
<path d="M426.0124223602484,633.3167701863354 L196.49689440993788,633.3167701863354" stroke="yellow" stroke-width="2" fill="none" />
<path d="M670.3354037267081,259.42857142857144 L699.9503105590061,240.91925465838509" stroke="yellow" stroke-width="2" fill="none" />
<path d="M692.5465838509317,226.11180124223603 L662.9316770186335,244.62111801242236" stroke="yellow" stroke-width="2" fill="none" />
<path d="M577.7888198757764,270.53416149068323 L548.1739130434783,274.2360248447205" stroke="yellow" stroke-width="2" fill="none" />
<path d="M551.8757763975154,292.7453416149068 L581.4906832298136,285.34161490683226" stroke="yellow" stroke-width="2" fill="none" />
<path d="M196.49689440993788,633.3167701863354 L196.49689440993788,592.5962732919254" stroke="yellow" stroke-width="2" fill="none" />
<path d="M196.49689440993788,592.5962732919254 L285.3416149068323,592.5962732919254" stroke="yellow" stroke-width="2" fill="none" />
<path d="M426.0124223602484,592.5962732919254 L426.0124223602484,633.3167701863354" stroke="yellow" stroke-width="2" fill="none" />
<path d="M285.3416149068323,592.5962732919254 L344.57142857142856,592.5962732919254" stroke="yellow" stroke-width="2" fill="none" />
<path d="M344.57142857142856,570.3850931677018 L285.3416149068323,570.3850931677018" stroke="yellow" stroke-width="2" fill="none" />
<path d="M344.57142857142856,577.7888198757764 L285.3416149068323,577.7888198757764" stroke="lavender" stroke-width="2" fill="none" />
<path d="M285.3416149068323,585.1925465838509 L344.57142857142856,585.1925465838509" stroke="lavender" stroke-width="2" fill="none" />
<path d="M152.07453416149067,33.61490683229812 L152.07453416149067,4.0" stroke="yellow" stroke-width="2" fill="none" />
<path d="M78.03726708074535,78.03726708074532 L107.65217391304348,78.03726708074532" stroke="yellow" stroke-width="2" fill="none" />
<path d="M107.65217391304348,78.03726708074532 L122.45962732919254,92.84472049689441" stroke="yellow" stroke-width="2" fill="none" />
<path d="M122.45962732919254,92.84472049689441 L137.26708074534162,63.229813664596264" stroke="yellow" stroke-width="2" fill="none" />
<path d="M137.26708074534162,63.229813664596264 L166.88198757763976,48.422360248447205" stroke="yellow" stroke-width="2" fill="none" />
<path d="M166.88198757763976,48.422360248447205 L152.07453416149067,33.61490683229812" stroke="yellow" stroke-width="2" fill="none" />
<path d="M1196.0,714.7577639751553 L1062.7329192546583,714.7577639751553" stroke="yellow" stroke-width="2" fill="none" />
<path d="M1062.7329192546583,744.3726708074535 L1196.0,744.3726708074535" stroke="yellow" stroke-width="2" fill="none" />
<path d="M122.45962732919254,892.4472049689441 L63.22981366459628,892.4472049689441" stroke="yellow" stroke-width="2" fill="none" />
<path d="M1196.0,677.7391304347825 L1062.7329192546583,677.7391304347825" stroke="lavender" stroke-width="2" fill="none" />
<path d="M692.5465838509317,418.6086956521739 L699.9503105590061,418.6086956521739" stroke="yellow" stroke-width="2" fill="none" />
<path d="M699.9503105590061,418.6086956521739 L699.9503105590061,388.99378881987576" stroke="lavender" stroke-width="2" fill="none" />
<path d="M699.9503105590061,388.99378881987576 L692.5465838509317,388.99378881987576" stroke="yellow" stroke-width="2" fill="none" />
<path d="M692.5465838509317,388.99378881987576 L692.5465838509317,418.6086956521739" stroke="lavender" stroke-width="2" fill="none" />
<path d="M722.1614906832299,418.6086956521739 L722.1614906832299,444.52173913043475" stroke="yellow" stroke-width="2" fill="none" />
<path d="M344.57142857142856,592.5962732919254 L426.0124223602484,592.5962732919254" stroke="yellow" stroke-width="2" fill="none" />
<path d="M281.639751552795,570.3850931677018 L196.49689440993788,570.3850931677018" stroke="yellow" stroke-width="2" fill="none" />
<path d="M196.49689440993788,570.3850931677018 L196.49689440993788,529.6645962732919" stroke="yellow" stroke-width="2" fill="none" />
<path d="M426.0124223602484,529.6645962732919 L426.0124223602484,570.3850931677018" stroke="yellow" stroke-width="2" fill="none" />
<path d="M426.0124223602484,570.3850931677018 L348.27329192546586,570.3850931677018" stroke="yellow" stroke-width="2" fill="none" />
<path d="M285.3416149068323,592.5962732919254 L285.3416149068323,588.8944099378882" stroke="yellow" stroke-width="2" fill="none" />
<path d="M344.57142857142856,588.8944099378882 L344.57142857142856,592.5962732919254" stroke="yellow" stroke-width="2" fill="none" />
<path d="M4.0,566.6832298136646 L33.614906832298146,566.6832298136646" stroke="yellow" stroke-width="2" fill="none" />
<path d="M4.0,551.8757763975154 L33.614906832298146,551.8757763975154" stroke="yellow" stroke-width="2" fill="none" />
<path d="M196.49689440993788,329.76397515527947 L196.49689440993788,359.37888198757764" stroke="red" stroke-width="2" fill="none" />
<path d="M78.03726708074535,359.37888198757764 L78.03726708074535,329.76397515527947" stroke="red" stroke-width="2" fill="none" />
<path d="M78.03726708074535,329.76397515527947 L78.03726708074535,270.53416149068323" stroke="red" stroke-width="2" fill="none" />
<path d="M78.03726708074535,270.53416149068323 L107.65217391304348,240.91925465838509" stroke="red" stroke-width="2" fill="none" />
<path d="M166.88198757763976,240.91925465838509 L196.49689440993788,270.53416149068323" stroke="red" stroke-width="2" fill="none" />
<path d="M196.49689440993788,270.53416149068323 L196.49689440993788,329.76397515527947" stroke="red" stroke-width="2" fill="none" />
<path d="M107.65217391304348,240.91925465838509 L107.65217391304348,122.45962732919253" stroke="red" stroke-width="2" fill="none" />
<path d="M166.88198757763976,122.45962732919253 L166.88198757763976,240.91925465838509" stroke="red" stroke-width="2" fill="none" />
<path d="M196.49689440993788,359.37888198757764 L196.49689440993788,448.22360248447205" stroke="red" stroke-width="2" fill="none" />
<path d="M78.03726708074535,448.22360248447205 L78.03726708074535,359.37888198757764" stroke="red" stroke-width="2" fill="none" />
<path d="M222.40993788819875,496.3478260869565 L52.12422360248448,496.3478260869565" stroke="red" stroke-width="2" fill="none" />
<path d="M52.12422360248448,496.3478260869565 L78.03726708074535,448.22360248447205" stroke="red" stroke-width="2" fill="none" />
<path d="M196.49689440993788,122.45962732919253 L166.88198757763976,122.45962732919253" stroke="red" stroke-width="2" fill="none" />
<path d="M107.65217391304348,122.45962732919253 L78.03726708074535,122.45962732919253" stroke="red" stroke-width="2" fill="none" />
<path d="M196.49689440993788,4.0 L274.23602484472053,59.52795031055899" stroke="red" stroke-width="2" fill="none" />
<path d="M255.72670807453414,152.07453416149067 L196.49689440993788,122.45962732919253" stroke="red" stroke-width="2" fill="none" />
<path d="M274.23602484472053,59.52795031055899 L329.76397515527947,81.7391304347826" stroke="red" stroke-width="2" fill="none" />
<path d="M314.95652173913044,166.88198757763973 L255.72670807453414,152.07453416149067" stroke="red" stroke-width="2" fill="none" />
<path d="M329.76397515527947,81.7391304347826 L403.80124223602485,92.84472049689441" stroke="red" stroke-width="2" fill="none" />
<path d="M403.80124223602485,181.68944099378882 L314.95652173913044,166.88198757763973" stroke="red" stroke-width="2" fill="none" />
<path d="M403.80124223602485,92.84472049689441 L463.0310559006211,78.03726708074532" stroke="red" stroke-width="2" fill="none" />
<path d="M463.0310559006211,78.03726708074532 L551.8757763975154,70.63354037267081" stroke="red" stroke-width="2" fill="none" />
<path d="M551.8757763975154,70.63354037267081 L640.72049689441,107.65217391304347" stroke="red" stroke-width="2" fill="none" />
<path d="M640.72049689441,211.30434782608694 L551.8757763975154,233.51552795031054" stroke="red" stroke-width="2" fill="none" />
<path d="M551.8757763975154,233.51552795031054 L463.0310559006211,218.70807453416148" stroke="red" stroke-width="2" fill="none" />
<path d="M463.0310559006211,218.70807453416148 L403.80124223602485,181.68944099378882" stroke="red" stroke-width="2" fill="none" />
<path d="M640.72049689441,107.65217391304347 L699.9503105590061,107.65217391304347" stroke="red" stroke-width="2" fill="none" />
<path d="M699.9503105590061,211.30434782608694 L640.72049689441,211.30434782608694" stroke="red" stroke-width="2" fill="none" />
<path d="M788.7950310559006,211.30434782608694 L729.5652173913043,211.30434782608694" stroke="red" stroke-width="2" fill="none" />
<path d="M78.03726708074535,33.61490683229812 L78.03726708074535,4.0" stroke="red" stroke-width="2" fill="none" />
<path d="M78.03726708074535,4.0 L107.65217391304348,4.0" stroke="red" stroke-width="2" fill="none" />
<path d="M877.6397515527949,122.45962732919253 L877.6397515527949,270.53416149068323" stroke="red" stroke-width="2" fill="none" />
<path d="M788.7950310559006,270.53416149068323 L788.7950310559006,211.30434782608694" stroke="red" stroke-width="2" fill="none" />
<path d="M877.6397515527949,270.53416149068323 L936.8695652173913,329.76397515527947" stroke="red" stroke-width="2" fill="none" />
<path d="M936.8695652173913,329.76397515527947 L936.8695652173913,448.22360248447205" stroke="red" stroke-width="2" fill="none" />
<path d="M936.8695652173913,448.22360248447205 L907.2546583850931,477.83850931677017" stroke="red" stroke-width="2" fill="none" />
<path d="M759.1801242236024,477.83850931677017 L729.5652173913043,448.22360248447205" stroke="red" stroke-width="2" fill="none" />
<path d="M729.5652173913043,448.22360248447205 L729.5652173913043,329.76397515527947" stroke="red" stroke-width="2" fill="none" />
<path d="M729.5652173913043,329.76397515527947 L788.7950310559006,270.53416149068323" stroke="red" stroke-width="2" fill="none" />
<path d="M729.5652173913043,107.65217391304347 L788.7950310559006,107.65217391304347" stroke="red" stroke-width="2" fill="none" />
<path d="M788.7950310559006,107.65217391304347 L877.6397515527949,122.45962732919253" stroke="red" stroke-width="2" fill="none" />
<path d="M907.2546583850931,477.83850931677017 L907.2546583850931,507.4534161490683" stroke="red" stroke-width="2" fill="none" />
<path d="M907.2546583850931,507.4534161490683 L914.6583850931677,507.4534161490683" stroke="red" stroke-width="2" fill="none" />
<path d="M914.6583850931677,507.4534161490683 L914.6583850931677,477.83850931677017" stroke="red" stroke-width="2" fill="none" />
<path d="M914.6583850931677,566.6832298136646 L907.2546583850931,566.6832298136646" stroke="red" stroke-width="2" fill="none" />
<path d="M907.2546583850931,566.6832298136646 L907.2546583850931,596.2981366459627" stroke="red" stroke-width="2" fill="none" />
<path d="M907.2546583850931,596.2981366459627 L877.6397515527949,596.2981366459627" stroke="red" stroke-width="2" fill="none" />
<path d="M877.6397515527949,596.2981366459627 L877.6397515527949,603.7018633540372" stroke="red" stroke-width="2" fill="none" />
<path d="M877.6397515527949,603.7018633540372 L914.6583850931677,603.7018633540372" stroke="red" stroke-width="2" fill="none" />
<path d="M914.6583850931677,603.7018633540372 L914.6583850931677,566.6832298136646" stroke="red" stroke-width="2" fill="none" />
<path d="M759.1801242236024,507.4534161490683 L759.1801242236024,477.83850931677017" stroke="red" stroke-width="2" fill="none" />
<path d="M751.7763975155278,477.83850931677017 L751.7763975155278,507.4534161490683" stroke="red" stroke-width="2" fill="none" />
<path d="M751.7763975155278,507.4534161490683 L759.1801242236024,507.4534161490683" stroke="red" stroke-width="2" fill="none" />
<path d="M759.1801242236024,566.6832298136646 L751.7763975155278,566.6832298136646" stroke="red" stroke-width="2" fill="none" />
<path d="M788.7950310559006,596.2981366459627 L788.7950310559006,566.6832298136646" stroke="red" stroke-width="2" fill="none" />
<path d="M788.7950310559006,566.6832298136646 L759.1801242236024,566.6832298136646" stroke="red" stroke-width="2" fill="none" />
<path d="M751.7763975155278,566.6832298136646 L751.7763975155278,603.7018633540372" stroke="red" stroke-width="2" fill="none" />
<path d="M751.7763975155278,603.7018633540372 L788.7950310559006,603.7018633540372" stroke="red" stroke-width="2" fill="none" />
<path d="M788.7950310559006,603.7018633540372 L788.7950310559006,596.2981366459627" stroke="red" stroke-width="2" fill="none" />
<path d="M914.6583850931677,477.83850931677017 L944.2732919254659,448.22360248447205" stroke="red" stroke-width="2" fill="none" />
<path d="M944.2732919254659,448.22360248447205 L944.2732919254659,329.76397515527947" stroke="red" stroke-width="2" fill="none" />
<path d="M944.2732919254659,329.76397515527947 L907.2546583850931,292.7453416149068" stroke="red" stroke-width="2" fill="none" />
<path d="M1025.7142857142858,122.45962732919253 L1144.1739130434783,240.91925465838509" stroke="red" stroke-width="2" fill="none" />
<path d="M1144.1739130434783,240.91925465838509 L1144.1739130434783,329.76397515527947" stroke="red" stroke-width="2" fill="none" />
<path d="M1144.1739130434783,329.76397515527947 L1173.7888198757764,388.99378881987576" stroke="red" stroke-width="2" fill="none" />
<path d="M1173.7888198757764,388.99378881987576 L1173.7888198757764,507.4534161490683" stroke="red" stroke-width="2" fill="none" />
<path d="M1173.7888198757764,507.4534161490683 L1055.3291925465837,625.9130434782608" stroke="red" stroke-width="2" fill="none" />
<path d="M1055.3291925465837,625.9130434782608 L1055.3291925465837,744.3726708074535" stroke="red" stroke-width="2" fill="none" />
<path d="M1055.3291925465837,744.3726708074535 L936.8695652173913,833.2173913043478" stroke="red" stroke-width="2" fill="none" />
<path d="M759.1801242236024,833.2173913043478 L640.72049689441,744.3726708074535" stroke="red" stroke-width="2" fill="none" />
<path d="M640.72049689441,744.3726708074535 L522.2608695652174,744.3726708074535" stroke="red" stroke-width="2" fill="none" />
<path d="M522.2608695652174,744.3726708074535 L433.41614906832297,655.5279503105589" stroke="red" stroke-width="2" fill="none" />
<path d="M433.41614906832297,655.5279503105589 L433.41614906832297,477.83850931677017" stroke="red" stroke-width="2" fill="none" />
<path d="M433.41614906832297,477.83850931677017 L551.8757763975154,359.37888198757764" stroke="red" stroke-width="2" fill="none" />
<path d="M755.4782608695652,296.4472049689441 L722.1614906832299,329.76397515527947" stroke="red" stroke-width="2" fill="none" />
<path d="M722.1614906832299,329.76397515527947 L722.1614906832299,418.6086956521739" stroke="red" stroke-width="2" fill="none" />
<path d="M722.1614906832299,448.22360248447205 L751.7763975155278,477.83850931677017" stroke="red" stroke-width="2" fill="none" />
<path d="M248.32298136645963,477.83850931677017 L426.0124223602484,477.83850931677017" stroke="red" stroke-width="2" fill="none" />
<path d="M196.49689440993788,529.6645962732919 L248.32298136645963,477.83850931677017" stroke="red" stroke-width="2" fill="none" />
<path d="M426.0124223602484,655.5279503105589 L522.2608695652174,751.776397515528" stroke="red" stroke-width="2" fill="none" />
<path d="M255.72670807453414,862.8322981366459 L196.49689440993788,803.6024844720496" stroke="red" stroke-width="2" fill="none" />
<path d="M226.11180124223603,181.68944099378882 L344.57142857142856,181.68944099378882" stroke="red" stroke-width="2" fill="none" />
<path d="M344.57142857142856,181.68944099378882 L433.41614906832297,270.53416149068323" stroke="red" stroke-width="2" fill="none" />
<path d="M522.2608695652174,359.37888198757764 L433.41614906832297,448.22360248447205" stroke="red" stroke-width="2" fill="none" />
<path d="M433.41614906832297,448.22360248447205 L314.95652173913044,448.22360248447205" stroke="red" stroke-width="2" fill="none" />
<path d="M314.95652173913044,448.22360248447205 L226.11180124223603,359.37888198757764" stroke="red" stroke-width="2" fill="none" />
<path d="M226.11180124223603,359.37888198757764 L226.11180124223603,181.68944099378882" stroke="red" stroke-width="2" fill="none" />
<path d="M433.41614906832297,270.53416149068323 L492.64596273291926,270.53416149068323" stroke="red" stroke-width="2" fill="none" />
<path d="M492.64596273291926,270.53416149068323 L522.2608695652174,270.53416149068323" stroke="red" stroke-width="2" fill="none" />
<path d="M522.2608695652174,270.53416149068323 L522.2608695652174,300.14906832298135" stroke="red" stroke-width="2" fill="none" />
<path d="M522.2608695652174,300.14906832298135 L522.2608695652174,359.37888198757764" stroke="red" stroke-width="2" fill="none" />
<path d="M522.2608695652174,751.776397515528 L640.72049689441,751.776397515528" stroke="red" stroke-width="2" fill="none" />
<path d="M640.72049689441,751.776397515528 L670.3354037267081,781.391304347826" stroke="red" stroke-width="2" fill="none" />
<path d="M670.3354037267081,781.391304347826 L670.3354037267081,803.6024844720496" stroke="red" stroke-width="2" fill="none" />
<path d="M670.3354037267081,803.6024844720496 L699.9503105590061,803.6024844720496" stroke="red" stroke-width="2" fill="none" />
<path d="M699.9503105590061,803.6024844720496 L699.9503105590061,833.2173913043478" stroke="red" stroke-width="2" fill="none" />
<path d="M699.9503105590061,833.2173913043478 L670.3354037267081,833.2173913043478" stroke="red" stroke-width="2" fill="none" />
<path d="M433.41614906832297,359.37888198757764 L403.80124223602485,359.37888198757764" stroke="red" stroke-width="2" fill="none" />
<path d="M403.80124223602485,359.37888198757764 L403.80124223602485,388.99378881987576" stroke="red" stroke-width="2" fill="none" />
<path d="M403.80124223602485,388.99378881987576 L433.41614906832297,388.99378881987576" stroke="red" stroke-width="2" fill="none" />
<path d="M433.41614906832297,388.99378881987576 L433.41614906832297,359.37888198757764" stroke="red" stroke-width="2" fill="none" />
<path d="M374.18633540372673,300.14906832298135 L374.18633540372673,270.53416149068323" stroke="red" stroke-width="2" fill="none" />
<path d="M374.18633540372673,270.53416149068323 L344.57142857142856,270.53416149068323" stroke="red" stroke-width="2" fill="none" />
<path d="M344.57142857142856,270.53416149068323 L344.57142857142856,300.14906832298135" stroke="red" stroke-width="2" fill="none" />
<path d="M344.57142857142856,300.14906832298135 L374.18633540372673,300.14906832298135" stroke="red" stroke-width="2" fill="none" />
<path d="M329.76397515527947,374.1863354037267 L329.76397515527947,344.57142857142856" stroke="red" stroke-width="2" fill="none" />
<path d="M329.76397515527947,344.57142857142856 L300.14906832298135,344.57142857142856" stroke="red" stroke-width="2" fill="none" />
<path d="M300.14906832298135,344.57142857142856 L300.14906832298135,374.1863354037267" stroke="red" stroke-width="2" fill="none" />
<path d="M300.14906832298135,374.1863354037267 L329.76397515527947,374.1863354037267" stroke="red" stroke-width="2" fill="none" />
<path d="M300.14906832298135,270.53416149068323 L300.14906832298135,240.91925465838509" stroke="red" stroke-width="2" fill="none" />
<path d="M300.14906832298135,240.91925465838509 L270.53416149068323,240.91925465838509" stroke="red" stroke-width="2" fill="none" />
<path d="M270.53416149068323,240.91925465838509 L270.53416149068323,270.53416149068323" stroke="red" stroke-width="2" fill="none" />
<path d="M270.53416149068323,270.53416149068323 L300.14906832298135,270.53416149068323" stroke="red" stroke-width="2" fill="none" />
<path d="M78.03726708074535,625.9130434782608 L48.422360248447205,596.2981366459627" stroke="red" stroke-width="2" fill="none" />
<path d="M48.422360248447205,596.2981366459627 L48.422360248447205,537.0683229813665" stroke="red" stroke-width="2" fill="none" />
<path d="M48.422360248447205,537.0683229813665 L78.03726708074535,507.4534161490683" stroke="red" stroke-width="2" fill="none" />
<path d="M78.03726708074535,507.4534161490683 L137.26708074534162,566.6832298136646" stroke="red" stroke-width="2" fill="none" />
<path d="M137.26708074534162,566.6832298136646 L166.88198757763976,566.6832298136646" stroke="red" stroke-width="2" fill="none" />
<path d="M166.88198757763976,685.1428571428571 L137.26708074534162,714.7577639751553" stroke="red" stroke-width="2" fill="none" />
<path d="M137.26708074534162,714.7577639751553 L181.68944099378882,759.1801242236024" stroke="red" stroke-width="2" fill="none" />
<path d="M181.68944099378882,759.1801242236024 L181.68944099378882,848.024844720497" stroke="red" stroke-width="2" fill="none" />
<path d="M181.68944099378882,848.024844720497 L137.26708074534162,892.4472049689441" stroke="red" stroke-width="2" fill="none" />
<path d="M18.807453416149073,803.6024844720496 L44.72049689440995,777.6894409937888" stroke="lavender" stroke-width="2" fill="none" />
<path d="M44.72049689440995,777.6894409937888 L4.0,736.9689440993789" stroke="red" stroke-width="2" fill="none" />
<path d="M4.0,736.9689440993789 L4.0,655.5279503105589" stroke="red" stroke-width="2" fill="none" />
<path d="M48.422360248447205,655.5279503105589 L78.03726708074535,625.9130434782608" stroke="red" stroke-width="2" fill="none" />
<path d="M18.807453416149073,862.8322981366459 L18.807453416149073,803.6024844720496" stroke="red" stroke-width="2" fill="none" />
<path d="M166.88198757763976,566.6832298136646 L166.88198757763976,596.2981366459627" stroke="red" stroke-width="2" fill="none" />
<path d="M166.88198757763976,596.2981366459627 L166.88198757763976,685.1428571428571" stroke="red" stroke-width="2" fill="none" />
<path d="M48.422360248447205,477.83850931677017 L18.807453416149073,477.83850931677017" stroke="red" stroke-width="2" fill="none" />
<path d="M18.807453416149073,477.83850931677017 L18.807453416149073,448.22360248447205" stroke="red" stroke-width="2" fill="none" />
<path d="M18.807453416149073,448.22360248447205 L18.807453416149073,33.61490683229812" stroke="red" stroke-width="2" fill="none" />
<path d="M18.807453416149073,33.61490683229812 L18.807453416149073,4.0" stroke="red" stroke-width="2" fill="none" />
<path d="M18.807453416149073,4.0 L48.422360248447205,4.0" stroke="red" stroke-width="2" fill="none" />
<path d="M48.422360248447205,4.0 L48.422360248447205,33.61490683229812" stroke="red" stroke-width="2" fill="none" />
<path d="M48.422360248447205,33.61490683229812 L48.422360248447205,448.22360248447205" stroke="red" stroke-width="2" fill="none" />
<path d="M48.422360248447205,448.22360248447205 L48.422360248447205,477.83850931677017" stroke="red" stroke-width="2" fill="none" />
<path d="M440.8198757763975,833.2173913043478 L344.57142857142856,736.9689440993789" stroke="red" stroke-width="2" fill="none" />
<path d="M344.57142857142856,736.9689440993789 L326.0621118012422,755.4782608695652" stroke="red" stroke-width="2" fill="none" />
<path d="M403.80124223602485,833.2173913043478 L433.41614906832297,833.2173913043478" stroke="red" stroke-width="2" fill="none" />
<path d="M433.41614906832297,833.2173913043478 L433.41614906832297,862.8322981366459" stroke="red" stroke-width="2" fill="none" />
<path d="M433.41614906832297,862.8322981366459 L403.80124223602485,862.8322981366459" stroke="red" stroke-width="2" fill="none" />
<path d="M1114.55900621118,625.9130434782608 L1114.55900621118,596.2981366459627" stroke="red" stroke-width="2" fill="none" />
<path d="M1114.55900621118,596.2981366459627 L1144.1739130434783,596.2981366459627" stroke="red" stroke-width="2" fill="none" />
<path d="M1144.1739130434783,596.2981366459627 L1144.1739130434783,625.9130434782608" stroke="red" stroke-width="2" fill="none" />
<path d="M1144.1739130434783,625.9130434782608 L1196.0,677.7391304347825" stroke="red" stroke-width="2" fill="none" />
<path d="M1196.0,803.6024844720496 L1173.7888198757764,803.6024844720496" stroke="red" stroke-width="2" fill="none" />
<path d="M1144.1739130434783,803.6024844720496 L1144.1739130434783,814.7080745341614" stroke="red" stroke-width="2" fill="none" />
<path d="M1144.1739130434783,814.7080745341614 L1144.1739130434783,822.111801242236" stroke="red" stroke-width="2" fill="none" />
<path d="M1144.1739130434783,822.111801242236 L1144.1739130434783,833.2173913043478" stroke="red" stroke-width="2" fill="none" />
<path d="M1144.1739130434783,833.2173913043478 L1166.3850931677018,848.024844720497" stroke="red" stroke-width="2" fill="none" />
<path d="M1166.3850931677018,848.024844720497 L1144.1739130434783,885.0434782608695" stroke="red" stroke-width="2" fill="none" />
<path d="M1144.1739130434783,885.0434782608695 L1136.7701863354037,885.0434782608695" stroke="red" stroke-width="2" fill="none" />
<path d="M1136.7701863354037,885.0434782608695 L1121.9627329192547,885.0434782608695" stroke="lavender" stroke-width="2" fill="none" />
<path d="M1121.9627329192547,885.0434782608695 L1114.55900621118,885.0434782608695" stroke="red" stroke-width="2" fill="none" />
<path d="M1114.55900621118,885.0434782608695 L1092.3478260869565,848.024844720497" stroke="red" stroke-width="2" fill="none" />
<path d="M1092.3478260869565,848.024844720497 L1114.55900621118,833.2173913043478" stroke="red" stroke-width="2" fill="none" />
<path d="M1114.55900621118,833.2173913043478 L1114.55900621118,822.111801242236" stroke="red" stroke-width="2" fill="none" />
<path d="M1114.55900621118,822.111801242236 L1114.55900621118,814.7080745341614" stroke="red" stroke-width="2" fill="none" />
<path d="M1114.55900621118,814.7080745341614 L1114.55900621118,803.6024844720496" stroke="red" stroke-width="2" fill="none" />
<path d="M1084.944099378882,803.6024844720496 L1062.7329192546583,803.6024844720496" stroke="red" stroke-width="2" fill="none" />
<path d="M1062.7329192546583,677.7391304347825 L1114.55900621118,625.9130434782608" stroke="red" stroke-width="2" fill="none" />
<path d="M907.2546583850931,292.7453416149068 L907.2546583850931,152.07453416149067" stroke="red" stroke-width="2" fill="none" />
<path d="M907.2546583850931,152.07453416149067 L907.2546583850931,122.45962732919253" stroke="red" stroke-width="2" fill="none" />
<path d="M907.2546583850931,122.45962732919253 L936.8695652173913,122.45962732919253" stroke="red" stroke-width="2" fill="none" />
<path d="M936.8695652173913,122.45962732919253 L1025.7142857142858,122.45962732919253" stroke="red" stroke-width="2" fill="none" />
<path d="M699.9503105590061,240.91925465838509 L729.5652173913043,240.91925465838509" stroke="red" stroke-width="2" fill="none" />
<path d="M729.5652173913043,240.91925465838509 L729.5652173913043,270.53416149068323" stroke="red" stroke-width="2" fill="none" />
<path d="M729.5652173913043,270.53416149068323 L755.4782608695652,296.4472049689441" stroke="red" stroke-width="2" fill="none" />
<path d="M936.8695652173913,833.2173913043478 L907.2546583850931,833.2173913043478" stroke="red" stroke-width="2" fill="none" />
<path d="M907.2546583850931,833.2173913043478 L907.2546583850931,848.024844720497" stroke="red" stroke-width="2" fill="none" />
<path d="M907.2546583850931,848.024844720497 L788.7950310559006,848.024844720497" stroke="red" stroke-width="2" fill="none" />
<path d="M788.7950310559006,848.024844720497 L788.7950310559006,833.2173913043478" stroke="red" stroke-width="2" fill="none" />
<path d="M788.7950310559006,833.2173913043478 L759.1801242236024,833.2173913043478" stroke="red" stroke-width="2" fill="none" />
<path d="M699.9503105590061,122.45962732919253 L729.5652173913043,122.45962732919253" stroke="red" stroke-width="2" fill="none" />
<path d="M729.5652173913043,196.49689440993788 L699.9503105590061,196.49689440993788" stroke="red" stroke-width="2" fill="none" />
<path d="M699.9503105590061,107.65217391304347 L699.9503105590061,122.45962732919253" stroke="red" stroke-width="2" fill="none" />
<path d="M729.5652173913043,122.45962732919253 L729.5652173913043,107.65217391304347" stroke="red" stroke-width="2" fill="none" />
<path d="M699.9503105590061,196.49689440993788 L699.9503105590061,211.30434782608694" stroke="red" stroke-width="2" fill="none" />
<path d="M729.5652173913043,211.30434782608694 L729.5652173913043,196.49689440993788" stroke="red" stroke-width="2" fill="none" />
<path d="M522.2608695652174,862.8322981366459 L492.64596273291926,862.8322981366459" stroke="lavender" stroke-width="2" fill="none" />
<path d="M492.64596273291926,862.8322981366459 L492.64596273291926,833.2173913043478" stroke="red" stroke-width="2" fill="none" />
<path d="M492.64596273291926,833.2173913043478 L440.8198757763975,833.2173913043478" stroke="red" stroke-width="2" fill="none" />
<path d="M670.3354037267081,259.42857142857144 L662.9316770186335,244.62111801242236" stroke="red" stroke-width="2" fill="none" />
<path d="M662.9316770186335,244.62111801242236 L577.7888198757764,270.53416149068323" stroke="red" stroke-width="2" fill="none" />
<path d="M577.7888198757764,270.53416149068323 L581.4906832298136,285.34161490683226" stroke="red" stroke-width="2" fill="none" />
<path d="M581.4906832298136,285.34161490683226 L670.3354037267081,259.42857142857144" stroke="red" stroke-width="2" fill="none" />
<path d="M48.422360248447205,892.4472049689441 L18.807453416149073,892.4472049689441" stroke="red" stroke-width="2" fill="none" />
<path d="M18.807453416149073,892.4472049689441 L18.807453416149073,862.8322981366459" stroke="red" stroke-width="2" fill="none" />
<path d="M326.0621118012422,755.4782608695652 L326.0621118012422,803.6024844720496" stroke="red" stroke-width="2" fill="none" />
<path d="M333.46583850931677,803.6024844720496 L340.8695652173913,803.6024844720496" stroke="red" stroke-width="2" fill="none" />
<path d="M388.99378881987576,803.6024844720496 L403.80124223602485,833.2173913043478" stroke="red" stroke-width="2" fill="none" />
<path d="M340.8695652173913,862.8322981366459 L333.46583850931677,862.8322981366459" stroke="red" stroke-width="2" fill="none" />
<path d="M326.0621118012422,862.8322981366459 L255.72670807453414,862.8322981366459" stroke="red" stroke-width="2" fill="none" />
<path d="M326.0621118012422,803.6024844720496 L333.46583850931677,803.6024844720496" stroke="red" stroke-width="2" fill="none" />
<path d="M340.8695652173913,803.6024844720496 L388.99378881987576,803.6024844720496" stroke="red" stroke-width="2" fill="none" />
<path d="M403.80124223602485,862.8322981366459 L340.8695652173913,862.8322981366459" stroke="red" stroke-width="2" fill="none" />
<path d="M333.46583850931677,862.8322981366459 L326.0621118012422,862.8322981366459" stroke="red" stroke-width="2" fill="none" />
<path d="M670.3354037267081,833.2173913043478 L551.8757763975154,833.2173913043478" stroke="red" stroke-width="2" fill="none" />
<path d="M551.8757763975154,833.2173913043478 L551.8757763975154,862.8322981366459" stroke="red" stroke-width="2" fill="none" />
<path d="M551.8757763975154,862.8322981366459 L581.4906832298136,862.8322981366459" stroke="red" stroke-width="2" fill="none" />
<path d="M522.2608695652174,922.0621118012423 L522.2608695652174,862.8322981366459" stroke="red" stroke-width="2" fill="none" />
<path d="M581.4906832298136,862.8322981366459 L581.4906832298136,892.4472049689441" stroke="red" stroke-width="2" fill="none" />
<path d="M581.4906832298136,892.4472049689441 L581.4906832298136,922.0621118012423" stroke="red" stroke-width="2" fill="none" />
<path d="M581.4906832298136,922.0621118012423 L551.8757763975154,922.0621118012423" stroke="red" stroke-width="2" fill="none" />
<path d="M551.8757763975154,922.0621118012423 L522.2608695652174,922.0621118012423" stroke="red" stroke-width="2" fill="none" />
<path d="M4.0,655.5279503105589 L4.0,640.72049689441" stroke="red" stroke-width="2" fill="none" />
<path d="M4.0,640.72049689441 L4.0,625.9130434782608" stroke="red" stroke-width="2" fill="none" />
<path d="M4.0,625.9130434782608 L4.0,611.1055900621118" stroke="red" stroke-width="2" fill="none" />
<path d="M4.0,611.1055900621118 L4.0,596.2981366459627" stroke="red" stroke-width="2" fill="none" />
<path d="M4.0,596.2981366459627 L4.0,581.4906832298136" stroke="red" stroke-width="2" fill="none" />
<path d="M4.0,581.4906832298136 L4.0,566.6832298136646" stroke="red" stroke-width="2" fill="none" />
<path d="M4.0,485.2422360248447 L33.614906832298146,485.2422360248447" stroke="lavender" stroke-width="2" fill="none" />
<path d="M33.614906832298146,566.6832298136646 L33.614906832298146,581.4906832298136" stroke="red" stroke-width="2" fill="none" />
<path d="M33.614906832298146,581.4906832298136 L33.614906832298146,596.2981366459627" stroke="red" stroke-width="2" fill="none" />
<path d="M33.614906832298146,596.2981366459627 L33.614906832298146,611.1055900621118" stroke="red" stroke-width="2" fill="none" />
<path d="M33.614906832298146,611.1055900621118 L33.614906832298146,625.9130434782608" stroke="red" stroke-width="2" fill="none" />
<path d="M33.614906832298146,625.9130434782608 L33.614906832298146,640.72049689441" stroke="red" stroke-width="2" fill="none" />
<path d="M33.614906832298146,640.72049689441 L33.614906832298146,655.5279503105589" stroke="red" stroke-width="2" fill="none" />
<path d="M33.614906832298146,655.5279503105589 L48.422360248447205,655.5279503105589" stroke="red" stroke-width="2" fill="none" />
<path d="M4.0,537.0683229813665 L4.0,485.2422360248447" stroke="red" stroke-width="2" fill="none" />
<path d="M33.614906832298146,485.2422360248447 L33.614906832298146,537.0683229813665" stroke="red" stroke-width="2" fill="none" />
<path d="M196.49689440993788,803.6024844720496 L196.49689440993788,633.3167701863354" stroke="red" stroke-width="2" fill="none" />
<path d="M426.0124223602484,477.83850931677017 L426.0124223602484,529.6645962732919" stroke="red" stroke-width="2" fill="none" />
<path d="M426.0124223602484,633.3167701863354 L426.0124223602484,655.5279503105589" stroke="red" stroke-width="2" fill="none" />
<path d="M685.1428571428571,215.0062111801242 L692.5465838509317,226.11180124223603" stroke="red" stroke-width="2" fill="none" />
<path d="M692.5465838509317,226.11180124223603 L699.9503105590061,240.91925465838509" stroke="red" stroke-width="2" fill="none" />
<path d="M551.8757763975154,359.37888198757764 L551.8757763975154,292.7453416149068" stroke="red" stroke-width="2" fill="none" />
<path d="M551.8757763975154,292.7453416149068 L548.1739130434783,274.2360248447205" stroke="red" stroke-width="2" fill="none" />
<path d="M548.1739130434783,274.2360248447205 L548.1739130434783,240.91925465838509" stroke="red" stroke-width="2" fill="none" />
<path d="M548.1739130434783,240.91925465838509 L640.72049689441,215.0062111801242" stroke="red" stroke-width="2" fill="none" />
<path d="M640.72049689441,215.0062111801242 L685.1428571428571,215.0062111801242" stroke="red" stroke-width="2" fill="none" />
<path d="M285.3416149068323,585.1925465838509 L285.3416149068323,577.7888198757764" stroke="red" stroke-width="2" fill="none" />
<path d="M285.3416149068323,577.7888198757764 L285.3416149068323,570.3850931677018" stroke="red" stroke-width="2" fill="none" />
<path d="M285.3416149068323,570.3850931677018 L281.639751552795,570.3850931677018" stroke="red" stroke-width="2" fill="none" />
<path d="M192.7950310559006,529.6645962732919 L196.49689440993788,529.6645962732919" stroke="red" stroke-width="2" fill="none" />
<path d="M426.0124223602484,529.6645962732919 L429.7142857142857,529.6645962732919" stroke="red" stroke-width="2" fill="none" />
<path d="M348.27329192546586,570.3850931677018 L344.57142857142856,570.3850931677018" stroke="red" stroke-width="2" fill="none" />
<path d="M344.57142857142856,570.3850931677018 L344.57142857142856,577.7888198757764" stroke="red" stroke-width="2" fill="none" />
<path d="M344.57142857142856,577.7888198757764 L344.57142857142856,585.1925465838509" stroke="red" stroke-width="2" fill="none" />
<path d="M344.57142857142856,585.1925465838509 L344.57142857142856,588.8944099378882" stroke="red" stroke-width="2" fill="none" />
<path d="M1062.7329192546583,803.6024844720496 L1062.7329192546583,744.3726708074535" stroke="red" stroke-width="2" fill="none" />
<path d="M1062.7329192546583,744.3726708074535 L1062.7329192546583,714.7577639751553" stroke="red" stroke-width="2" fill="none" />
<path d="M1062.7329192546583,714.7577639751553 L1062.7329192546583,677.7391304347825" stroke="red" stroke-width="2" fill="none" />
<path d="M1196.0,677.7391304347825 L1196.0,714.7577639751553" stroke="red" stroke-width="2" fill="none" />
<path d="M1196.0,714.7577639751553 L1196.0,744.3726708074535" stroke="red" stroke-width="2" fill="none" />
<path d="M1196.0,744.3726708074535 L1196.0,803.6024844720496" stroke="red" stroke-width="2" fill="none" />
<path d="M196.49689440993788,448.22360248447205 L222.40993788819875,496.3478260869565" stroke="red" stroke-width="2" fill="none" />
<path d="M78.03726708074535,122.45962732919253 L78.03726708074535,78.03726708074532" stroke="red" stroke-width="2" fill="none" />
<path d="M78.03726708074535,78.03726708074532 L78.03726708074535,33.61490683229812" stroke="red" stroke-width="2" fill="none" />
<path d="M107.65217391304348,4.0 L152.07453416149067,4.0" stroke="red" stroke-width="2" fill="none" />
<path d="M152.07453416149067,4.0 L196.49689440993788,4.0" stroke="red" stroke-width="2" fill="none" />
<path d="M137.26708074534162,892.4472049689441 L122.45962732919254,892.4472049689441" stroke="red" stroke-width="2" fill="none" />
<path d="M122.45962732919254,892.4472049689441 L122.45962732919254,907.2546583850931" stroke="red" stroke-width="2" fill="none" />
<path d="M122.45962732919254,907.2546583850931 L63.22981366459628,907.2546583850931" stroke="red" stroke-width="2" fill="none" />
<path d="M63.22981366459628,907.2546583850931 L63.22981366459628,892.4472049689441" stroke="red" stroke-width="2" fill="none" />
<path d="M63.22981366459628,892.4472049689441 L48.422360248447205,892.4472049689441" stroke="red" stroke-width="2" fill="none" />
<path d="M725.8633540372671,418.6086956521739 L725.8633540372671,444.52173913043475" stroke="lavender" stroke-width="2" fill="none" />
<path d="M725.8633540372671,444.52173913043475 L722.1614906832299,444.52173913043475" stroke="red" stroke-width="2" fill="none" />
<path d="M722.1614906832299,444.52173913043475 L722.1614906832299,448.22360248447205" stroke="red" stroke-width="2" fill="none" />
<path d="M722.1614906832299,418.6086956521739 L725.8633540372671,418.6086956521739" stroke="red" stroke-width="2" fill="none" />
<path d="M196.49689440993788,633.3167701863354 L192.7950310559006,633.3167701863354" stroke="red" stroke-width="2" fill="none" />
<path d="M192.7950310559006,633.3167701863354 L192.7950310559006,588.8944099378882" stroke="red" stroke-width="2" fill="none" />
<path d="M192.7950310559006,588.8944099378882 L285.3416149068323,588.8944099378882" stroke="red" stroke-width="2" fill="none" />
<path d="M285.3416149068323,588.8944099378882 L285.3416149068323,585.1925465838509" stroke="red" stroke-width="2" fill="none" />
<path d="M344.57142857142856,588.8944099378882 L429.7142857142857,588.8944099378882" stroke="red" stroke-width="2" fill="none" />
<path d="M429.7142857142857,588.8944099378882 L429.7142857142857,633.3167701863354" stroke="red" stroke-width="2" fill="none" />
<path d="M429.7142857142857,633.3167701863354 L426.0124223602484,633.3167701863354" stroke="red" stroke-width="2" fill="none" />
<path d="M281.639751552795,570.3850931677018 L281.639751552795,574.0869565217391" stroke="red" stroke-width="2" fill="none" />
<path d="M281.639751552795,574.0869565217391 L192.7950310559006,574.0869565217391" stroke="red" stroke-width="2" fill="none" />
<path d="M192.7950310559006,574.0869565217391 L192.7950310559006,529.6645962732919" stroke="red" stroke-width="2" fill="none" />
<path d="M348.27329192546586,574.0869565217391 L348.27329192546586,570.3850931677018" stroke="red" stroke-width="2" fill="none" />
<path d="M429.7142857142857,574.0869565217391 L348.27329192546586,574.0869565217391" stroke="red" stroke-width="2" fill="none" />
<path d="M429.7142857142857,529.6645962732919 L429.7142857142857,574.0869565217391" stroke="red" stroke-width="2" fill="none" />
<path d="M4.0,566.6832298136646 L4.0,551.8757763975154" stroke="red" stroke-width="2" fill="none" />
<path d="M4.0,551.8757763975154 L4.0,537.0683229813665" stroke="red" stroke-width="2" fill="none" />
<path d="M33.614906832298146,537.0683229813665 L33.614906832298146,551.8757763975154" stroke="red" stroke-width="2" fill="none" />
<path d="M33.614906832298146,551.8757763975154 L33.614906832298146,566.6832298136646" stroke="red" stroke-width="2" fill="none" />
<path d="M1114.55900621118,803.6024844720496 L1084.944099378882,803.6024844720496" stroke="red" stroke-width="2" fill="none" />
<path d="M1173.7888198757764,803.6024844720496 L1144.1739130434783,803.6024844720496" stroke="red" stroke-width="2" fill="none" />
</svg>