<?xml version="1.0" encoding="UTF-8"?>
<svg xmlns="http://www.w3.org/2000/svg" xmlns:xlink="http://www.w3.org/1999/xlink"
     width="1200" height="646" viewBox="0 0 1200 646">
<defs>
</defs>
<path d="M586.6964285714286,302.0 L586.6964285714286,344.57142857142856" stroke="lavender" stroke-width="1" fill="none" />
<path d="M592.0178571428571,344.57142857142856 L592.0178571428571,302.0" stroke="lavender" stroke-width="1" fill="none" />
<path d="M876.7142857142857,344.57142857142856 L834.1428571428571,344.57142857142856" stroke="yellow" stroke-width="1" fill="none" />
<path d="M876.7142857142857,302.0 L876.7142857142857,344.57142857142856" stroke="yellow" stroke-width="1" fill="none" />
<path d="M834.1428571428571,302.0 L876.7142857142857,302.0" stroke="yellow" stroke-width="1" fill="none" />
<path d="M834.1428571428571,344.57142857142856 L834.1428571428571,302.0" stroke="yellow" stroke-width="1" fill="none" />
<path d="M1132.142857142857,349.8928571428571 L1116.1785714285716,349.8928571428571" stroke="lavender" stroke-width="1" fill="none" />
<path d="M1110.8571428571427,302.0 L1110.8571428571427,344.57142857142856" stroke="lavender" stroke-width="1" fill="none" />
<path d="M1116.1785714285716,344.57142857142856 L1116.1785714285716,302.0" stroke="yellow" stroke-width="1" fill="none" />
<path d="M1132.142857142857,302.0 L1148.1071428571427,302.0" stroke="yellow" stroke-width="1" fill="none" />
<path d="M844.7857142857142,67.85714285714285 L866.0714285714286,67.85714285714285" stroke="yellow" stroke-width="1" fill="none" />
<path d="M866.0714285714286,578.7142857142857 L844.7857142857142,578.7142857142857" stroke="yellow" stroke-width="1" fill="none" />
<path d="M1116.1785714285716,352.55357142857144 L1132.142857142857,352.55357142857144" stroke="yellow" stroke-width="1" fill="none" />
<path d="M1132.142857142857,299.33928571428567 L1148.1071428571427,299.33928571428567" stroke="yellow" stroke-width="1" fill="none" />
<path d="M1132.142857142857,355.21428571428567 L1116.1785714285716,355.21428571428567" stroke="yellow" stroke-width="1" fill="none" />
<path d="M1180.0357142857142,328.60714285714283 L1180.0357142857142,344.57142857142856" stroke="lavender" stroke-width="1" fill="none" />
<path d="M1153.4285714285713,296.6785714285714 L1174.7142857142858,296.6785714285714" stroke="lavender" stroke-width="1" fill="none" />
<path d="M1185.3571428571427,328.60714285714283 L1185.3571428571427,344.57142857142856" stroke="yellow" stroke-width="1" fill="none" />
<path d="M1182.6964285714284,344.57142857142856 L1182.6964285714284,328.60714285714283" stroke="yellow" stroke-width="1" fill="none" />
<path d="M1153.4285714285713,280.71428571428567 L1174.7142857142858,280.71428571428567" stroke="lavender" stroke-width="1" fill="none" />
<path d="M876.7142857142857,365.85714285714283 L642.5714285714286,365.85714285714283" stroke="yellow" stroke-width="1" fill="none" />
<path d="M1068.2857142857142,302.0 L898.0,302.0" stroke="yellow" stroke-width="1" fill="none" />
<path d="M1068.2857142857142,280.71428571428567 L1068.2857142857142,302.0" stroke="yellow" stroke-width="1" fill="none" />
<path d="M834.1428571428571,280.71428571428567 L1068.2857142857142,280.71428571428567" stroke="yellow" stroke-width="1" fill="none" />
<path d="M876.7142857142857,536.1428571428571 L876.7142857142857,365.85714285714283" stroke="yellow" stroke-width="1" fill="none" />
<path d="M898.0,536.1428571428571 L876.7142857142857,536.1428571428571" stroke="yellow" stroke-width="1" fill="none" />
<path d="M898.0,302.0 L898.0,536.1428571428571" stroke="yellow" stroke-width="1" fill="none" />
<path d="M812.8571428571429,344.57142857142856 L812.8571428571429,110.42857142857142" stroke="yellow" stroke-width="1" fill="none" />
<path d="M812.8571428571429,110.42857142857142 L834.1428571428571,110.42857142857142" stroke="yellow" stroke-width="1" fill="none" />
<path d="M834.1428571428571,110.42857142857142 L834.1428571428571,280.71428571428567" stroke="yellow" stroke-width="1" fill="none" />
<path d="M642.5714285714286,365.85714285714283 L642.5714285714286,344.57142857142856" stroke="yellow" stroke-width="1" fill="none" />
<path d="M642.5714285714286,344.57142857142856 L812.8571428571429,344.57142857142856" stroke="yellow" stroke-width="1" fill="none" />
<path d="M493.57142857142856,344.57142857142856 L472.2857142857143,344.57142857142856" stroke="red" stroke-width="1" fill="none" />
<path d="M472.2857142857143,344.57142857142856 L429.7142857142857,387.1428571428571" stroke="red" stroke-width="1" fill="none" />
<path d="M429.7142857142857,387.1428571428571 L451.0,408.4285714285714" stroke="red" stroke-width="1" fill="none" />
<path d="M451.0,408.4285714285714 L514.8571428571429,408.4285714285714" stroke="red" stroke-width="1" fill="none" />
<path d="M514.8571428571429,408.4285714285714 L536.1428571428571,472.2857142857143" stroke="red" stroke-width="1" fill="none" />
<path d="M536.1428571428571,472.2857142857143 L472.2857142857143,536.1428571428571" stroke="red" stroke-width="1" fill="none" />
<path d="M472.2857142857143,536.1428571428571 L408.42857142857144,514.8571428571429" stroke="red" stroke-width="1" fill="none" />
<path d="M408.42857142857144,514.8571428571429 L408.42857142857144,451.0" stroke="red" stroke-width="1" fill="none" />
<path d="M408.42857142857144,451.0 L387.1428571428571,429.71428571428567" stroke="red" stroke-width="1" fill="none" />
<path d="M387.1428571428571,429.71428571428567 L344.57142857142856,451.0" stroke="red" stroke-width="1" fill="none" />
<path d="M344.57142857142856,451.0 L344.57142857142856,472.2857142857143" stroke="red" stroke-width="1" fill="none" />
<path d="M344.57142857142856,472.2857142857143 L387.1428571428571,514.8571428571429" stroke="red" stroke-width="1" fill="none" />
<path d="M387.1428571428571,514.8571428571429 L387.1428571428571,578.7142857142857" stroke="red" stroke-width="1" fill="none" />
<path d="M387.1428571428571,578.7142857142857 L323.2857142857143,642.5714285714286" stroke="red" stroke-width="1" fill="none" />
<path d="M323.2857142857143,642.5714285714286 L259.42857142857144,578.7142857142857" stroke="red" stroke-width="1" fill="none" />
<path d="M259.42857142857144,578.7142857142857 L259.42857142857144,514.8571428571429" stroke="red" stroke-width="1" fill="none" />
<path d="M259.42857142857144,514.8571428571429 L302.0,472.2857142857143" stroke="red" stroke-width="1" fill="none" />
<path d="M302.0,472.2857142857143 L302.0,451.0" stroke="red" stroke-width="1" fill="none" />
<path d="M302.0,451.0 L259.42857142857144,429.71428571428567" stroke="red" stroke-width="1" fill="none" />
<path d="M259.42857142857144,429.71428571428567 L238.14285714285714,451.0" stroke="red" stroke-width="1" fill="none" />
<path d="M238.14285714285714,451.0 L238.14285714285714,514.8571428571429" stroke="red" stroke-width="1" fill="none" />
<path d="M238.14285714285714,514.8571428571429 L174.28571428571428,536.1428571428571" stroke="red" stroke-width="1" fill="none" />
<path d="M174.28571428571428,536.1428571428571 L110.42857142857144,472.2857142857143" stroke="red" stroke-width="1" fill="none" />
<path d="M110.42857142857144,472.2857142857143 L131.71428571428572,408.4285714285714" stroke="red" stroke-width="1" fill="none" />
<path d="M131.71428571428572,408.4285714285714 L195.57142857142858,408.4285714285714" stroke="red" stroke-width="1" fill="none" />
<path d="M195.57142857142858,408.4285714285714 L216.85714285714286,387.1428571428571" stroke="red" stroke-width="1" fill="none" />
<path d="M216.85714285714286,387.1428571428571 L195.57142857142858,344.57142857142856" stroke="red" stroke-width="1" fill="none" />
<path d="M195.57142857142858,344.57142857142856 L174.28571428571428,344.57142857142856" stroke="red" stroke-width="1" fill="none" />
<path d="M174.28571428571428,344.57142857142856 L131.71428571428572,387.1428571428571" stroke="red" stroke-width="1" fill="none" />
<path d="M131.71428571428572,387.1428571428571 L67.85714285714286,387.1428571428571" stroke="red" stroke-width="1" fill="none" />
<path d="M67.85714285714286,387.1428571428571 L4.0,323.2857142857143" stroke="red" stroke-width="1" fill="none" />
<path d="M4.0,323.2857142857143 L67.85714285714286,259.42857142857144" stroke="red" stroke-width="1" fill="none" />
<path d="M67.85714285714286,259.42857142857144 L131.71428571428572,259.42857142857144" stroke="red" stroke-width="1" fill="none" />
<path d="M131.71428571428572,259.42857142857144 L174.28571428571428,302.0" stroke="red" stroke-width="1" fill="none" />
<path d="M174.28571428571428,302.0 L195.57142857142858,302.0" stroke="red" stroke-width="1" fill="none" />
<path d="M195.57142857142858,302.0 L216.85714285714286,259.42857142857144" stroke="red" stroke-width="1" fill="none" />
<path d="M216.85714285714286,259.42857142857144 L195.57142857142858,238.1428571428571" stroke="red" stroke-width="1" fill="none" />
<path d="M195.57142857142858,238.1428571428571 L131.71428571428572,238.1428571428571" stroke="red" stroke-width="1" fill="none" />
<path d="M131.71428571428572,238.1428571428571 L110.42857142857144,174.28571428571428" stroke="red" stroke-width="1" fill="none" />
<path d="M110.42857142857144,174.28571428571428 L174.28571428571428,110.42857142857142" stroke="red" stroke-width="1" fill="none" />
<path d="M174.28571428571428,110.42857142857142 L238.14285714285714,131.7142857142857" stroke="red" stroke-width="1" fill="none" />
<path d="M238.14285714285714,131.7142857142857 L238.14285714285714,195.57142857142856" stroke="red" stroke-width="1" fill="none" />
<path d="M238.14285714285714,195.57142857142856 L259.42857142857144,216.85714285714283" stroke="red" stroke-width="1" fill="none" />
<path d="M259.42857142857144,216.85714285714283 L302.0,195.57142857142856" stroke="red" stroke-width="1" fill="none" />
<path d="M302.0,195.57142857142856 L302.0,174.28571428571428" stroke="red" stroke-width="1" fill="none" />
<path d="M302.0,174.28571428571428 L259.42857142857144,131.7142857142857" stroke="red" stroke-width="1" fill="none" />
<path d="M259.42857142857144,131.7142857142857 L259.42857142857144,67.85714285714285" stroke="red" stroke-width="1" fill="none" />
<path d="M259.42857142857144,67.85714285714285 L323.2857142857143,4.0" stroke="red" stroke-width="1" fill="none" />
<path d="M323.2857142857143,4.0 L387.1428571428571,67.85714285714285" stroke="red" stroke-width="1" fill="none" />
<path d="M387.1428571428571,67.85714285714285 L387.1428571428571,131.7142857142857" stroke="red" stroke-width="1" fill="none" />
<path d="M387.1428571428571,131.7142857142857 L344.57142857142856,174.28571428571428" stroke="red" stroke-width="1" fill="none" />
<path d="M344.57142857142856,174.28571428571428 L344.57142857142856,195.57142857142856" stroke="red" stroke-width="1" fill="none" />
<path d="M344.57142857142856,195.57142857142856 L387.1428571428571,216.85714285714283" stroke="red" stroke-width="1" fill="none" />
<path d="M387.1428571428571,216.85714285714283 L408.42857142857144,195.57142857142856" stroke="red" stroke-width="1" fill="none" />
<path d="M408.42857142857144,195.57142857142856 L408.42857142857144,131.7142857142857" stroke="red" stroke-width="1" fill="none" />
<path d="M408.42857142857144,131.7142857142857 L472.2857142857143,110.42857142857142" stroke="red" stroke-width="1" fill="none" />
<path d="M472.2857142857143,110.42857142857142 L536.1428571428571,174.28571428571428" stroke="red" stroke-width="1" fill="none" />
<path d="M536.1428571428571,174.28571428571428 L514.8571428571429,238.1428571428571" stroke="red" stroke-width="1" fill="none" />
<path d="M514.8571428571429,238.1428571428571 L451.0,238.1428571428571" stroke="red" stroke-width="1" fill="none" />
<path d="M451.0,238.1428571428571 L429.7142857142857,259.42857142857144" stroke="red" stroke-width="1" fill="none" />
<path d="M429.7142857142857,259.42857142857144 L472.2857142857143,302.0" stroke="red" stroke-width="1" fill="none" />
<path d="M472.2857142857143,302.0 L493.57142857142856,302.0" stroke="red" stroke-width="1" fill="none" />
<path d="M493.57142857142856,302.0 L514.8571428571429,259.42857142857144" stroke="red" stroke-width="1" fill="none" />
<path d="M514.8571428571429,259.42857142857144 L557.4285714285714,259.42857142857144" stroke="red" stroke-width="1" fill="none" />
<path d="M557.4285714285714,259.42857142857144 L578.7142857142858,302.0" stroke="red" stroke-width="1" fill="none" />
<path d="M578.7142857142858,344.57142857142856 L557.4285714285714,387.1428571428571" stroke="red" stroke-width="1" fill="none" />
<path d="M557.4285714285714,387.1428571428571 L514.8571428571429,387.1428571428571" stroke="red" stroke-width="1" fill="none" />
<path d="M514.8571428571429,387.1428571428571 L493.57142857142856,344.57142857142856" stroke="red" stroke-width="1" fill="none" />
<path d="M578.7142857142858,302.0 L586.6964285714286,302.0" stroke="red" stroke-width="1" fill="none" />
<path d="M586.6964285714286,302.0 L592.0178571428571,302.0" stroke="red" stroke-width="1" fill="none" />
<path d="M592.0178571428571,302.0 L600.0,302.0" stroke="red" stroke-width="1" fill="none" />
<path d="M600.0,302.0 L600.0,238.1428571428571" stroke="red" stroke-width="1" fill="none" />
<path d="M600.0,238.1428571428571 L770.2857142857142,238.1428571428571" stroke="red" stroke-width="1" fill="none" />
<path d="M770.2857142857142,238.1428571428571 L770.2857142857142,67.85714285714285" stroke="red" stroke-width="1" fill="none" />
<path d="M866.0714285714286,67.85714285714285 L940.5714285714286,67.85714285714285" stroke="red" stroke-width="1" fill="none" />
<path d="M940.5714285714286,67.85714285714285 L940.5714285714286,238.1428571428571" stroke="red" stroke-width="1" fill="none" />
<path d="M940.5714285714286,238.1428571428571 L1110.8571428571427,238.1428571428571" stroke="red" stroke-width="1" fill="none" />
<path d="M1110.8571428571427,408.4285714285714 L940.5714285714286,408.4285714285714" stroke="red" stroke-width="1" fill="none" />
<path d="M940.5714285714286,408.4285714285714 L940.5714285714286,578.7142857142857" stroke="red" stroke-width="1" fill="none" />
<path d="M940.5714285714286,578.7142857142857 L866.0714285714286,578.7142857142857" stroke="red" stroke-width="1" fill="none" />
<path d="M770.2857142857142,578.7142857142857 L770.2857142857142,408.4285714285714" stroke="red" stroke-width="1" fill="none" />
<path d="M770.2857142857142,408.4285714285714 L600.0,408.4285714285714" stroke="red" stroke-width="1" fill="none" />
<path d="M600.0,408.4285714285714 L600.0,344.57142857142856" stroke="red" stroke-width="1" fill="none" />
<path d="M600.0,344.57142857142856 L592.0178571428571,344.57142857142856" stroke="red" stroke-width="1" fill="none" />
<path d="M592.0178571428571,344.57142857142856 L586.6964285714286,344.57142857142856" stroke="red" stroke-width="1" fill="none" />
<path d="M586.6964285714286,344.57142857142856 L578.7142857142858,344.57142857142856" stroke="red" stroke-width="1" fill="none" />
<path d="M1110.8571428571427,238.1428571428571 L1110.8571428571427,280.71428571428567" stroke="red" stroke-width="1" fill="none" />
<path d="M1110.8571428571427,280.71428571428567 L1110.8571428571427,302.0" stroke="red" stroke-width="1" fill="none" />
<path d="M1110.8571428571427,344.57142857142856 L1110.8571428571427,365.85714285714283" stroke="red" stroke-width="1" fill="none" />
<path d="M1110.8571428571427,365.85714285714283 L1110.8571428571427,408.4285714285714" stroke="red" stroke-width="1" fill="none" />
<path d="M1110.8571428571427,302.0 L1116.1785714285716,302.0" stroke="red" stroke-width="1" fill="none" />
<path d="M1116.1785714285716,302.0 L1132.142857142857,302.0" stroke="lavender" stroke-width="1" fill="none" />
<path d="M1116.1785714285716,344.57142857142856 L1110.8571428571427,344.57142857142856" stroke="red" stroke-width="1" fill="none" />
<path d="M1116.1785714285716,349.8928571428571 L1116.1785714285716,344.57142857142856" stroke="red" stroke-width="1" fill="none" />
<path d="M1148.1071428571427,302.0 L1153.4285714285713,302.0" stroke="red" stroke-width="1" fill="none" />
<path d="M1132.142857142857,344.57142857142856 L1132.142857142857,349.8928571428571" stroke="red" stroke-width="1" fill="none" />
<path d="M770.2857142857142,67.85714285714285 L844.7857142857142,67.85714285714285" stroke="red" stroke-width="1" fill="none" />
<path d="M844.7857142857142,67.85714285714285 L844.7857142857142,46.571428571428555" stroke="red" stroke-width="1" fill="none" />
<path d="M844.7857142857142,46.571428571428555 L866.0714285714286,46.571428571428555" stroke="red" stroke-width="1" fill="none" />
<path d="M866.0714285714286,46.571428571428555 L866.0714285714286,67.85714285714285" stroke="red" stroke-width="1" fill="none" />
<path d="M844.7857142857142,578.7142857142857 L770.2857142857142,578.7142857142857" stroke="red" stroke-width="1" fill="none" />
<path d="M844.7857142857142,600.0 L844.7857142857142,578.7142857142857" stroke="red" stroke-width="1" fill="none" />
<path d="M866.0714285714286,600.0 L844.7857142857142,600.0" stroke="red" stroke-width="1" fill="none" />
<path d="M866.0714285714286,578.7142857142857 L866.0714285714286,600.0" stroke="red" stroke-width="1" fill="none" />
<path d="M1132.142857142857,302.0 L1132.142857142857,299.33928571428567" stroke="red" stroke-width="1" fill="none" />
<path d="M1148.1071428571427,299.33928571428567 L1148.1071428571427,302.0" stroke="red" stroke-width="1" fill="none" />
<path d="M1132.142857142857,349.8928571428571 L1132.142857142857,352.55357142857144" stroke="red" stroke-width="1" fill="none" />
<path d="M1116.1785714285716,352.55357142857144 L1116.1785714285716,349.8928571428571" stroke="red" stroke-width="1" fill="none" />
<path d="M1132.142857142857,352.55357142857144 L1132.142857142857,355.21428571428567" stroke="red" stroke-width="1" fill="none" />
<path d="M1116.1785714285716,355.21428571428567 L1116.1785714285716,352.55357142857144" stroke="red" stroke-width="1" fill="none" />
<path d="M1153.4285714285713,302.0 L1153.4285714285713,296.6785714285714" stroke="red" stroke-width="1" fill="none" />
<path d="M1153.4285714285713,296.6785714285714 L1153.4285714285713,280.71428571428567" stroke="red" stroke-width="1" fill="none" />
<path d="M1153.4285714285713,259.42857142857144 L1174.7142857142858,259.42857142857144" stroke="red" stroke-width="1" fill="none" />
<path d="M1174.7142857142858,280.71428571428567 L1174.7142857142858,296.6785714285714" stroke="red" stroke-width="1" fill="none" />
<path d="M1174.7142857142858,296.6785714285714 L1174.7142857142858,302.0" stroke="red" stroke-width="1" fill="none" />
<path d="M1174.7142857142858,344.57142857142856 L1132.142857142857,344.57142857142856" stroke="red" stroke-width="1" fill="none" />
<path d="M1180.0357142857142,344.57142857142856 L1174.7142857142858,344.57142857142856" stroke="red" stroke-width="1" fill="none" />
<path d="M1174.7142857142858,328.60714285714283 L1180.0357142857142,328.60714285714283" stroke="red" stroke-width="1" fill="none" />
<path d="M1174.7142857142858,302.0 L1174.7142857142858,328.60714285714283" stroke="red" stroke-width="1" fill="none" />
<path d="M1174.7142857142858,259.42857142857144 L1174.7142857142858,280.71428571428567" stroke="red" stroke-width="1" fill="none" />
<path d="M1153.4285714285713,280.71428571428567 L1153.4285714285713,259.42857142857144" stroke="red" stroke-width="1" fill="none" />
<path d="M1180.0357142857142,328.60714285714283 L1182.6964285714284,328.60714285714283" stroke="red" stroke-width="1" fill="none" />
<path d="M1182.6964285714284,328.60714285714283 L1185.3571428571427,328.60714285714283" stroke="red" stroke-width="1" fill="none" />
<path d="M1185.3571428571427,344.57142857142856 L1182.6964285714284,344.57142857142856" stroke="red" stroke-width="1" fill="none" />
<path d="M1182.6964285714284,344.57142857142856 L1180.0357142857142,344.57142857142856" stroke="red" stroke-width="1" fill="none" />
<path d="M1132.142857142857,299.33928571428567 L1132.142857142857,280.71428571428567" stroke="red" stroke-width="1" fill="none" />
<path d="M1132.142857142857,280.71428571428567 L1148.1071428571427,280.71428571428567" stroke="red" stroke-width="1" fill="none" />
<path d="M1148.1071428571427,280.71428571428567 L1148.1071428571427,299.33928571428567" stroke="red" stroke-width="1" fill="none" />
<path d="M1185.3571428571427,328.60714285714283 L1196.0,328.60714285714283" stroke="red" stroke-width="1" fill="none" />
<path d="M1196.0,328.60714285714283 L1196.0,344.57142857142856" stroke="red" stroke-width="1" fill="none" />
<path d="M1196.0,344.57142857142856 L1185.3571428571427,344.57142857142856" stroke="red" stroke-width="1" fill="none" />
<path d="M1116.1785714285716,365.85714285714283 L1116.1785714285716,355.21428571428567" stroke="red" stroke-width="1" fill="none" />
<path d="M1132.142857142857,365.85714285714283 L1116.1785714285716,365.85714285714283" stroke="red" stroke-width="1" fill="none" />
<path d="M1132.142857142857,355.21428571428567 L1132.142857142857,365.85714285714283" stroke="red" stroke-width="1" fill="none" />
</svg>