<?xml version="1.0" encoding="UTF-8"?>
<svg xmlns="http://www.w3.org/2000/svg" xmlns:xlink="http://www.w3.org/1999/xlink"
     width="1200" height="1814" viewBox="0 0 1200 1814">
<defs>
</defs>
<path d="M873.9275766016713,206.5403899721448 L883.8885793871866,219.82172701949867" stroke="yellow" stroke-width="2" fill="none" />
<path d="M4.0,668.066852367688 L63.766016713091915,668.066852367688" stroke="yellow" stroke-width="2" fill="none" />
<path d="M1152.8356545961003,1544.6350974930363 L1152.8356545961003,1571.1977715877438" stroke="yellow" stroke-width="2" fill="none" />
<path d="M1172.7576601671308,1524.7130919220056 L1196.0,1524.7130919220056" stroke="yellow" stroke-width="2" fill="none" />
<path d="M1162.7966573816157,1544.6350974930363 L1179.3983286908078,1571.1977715877438" stroke="yellow" stroke-width="2" fill="none" />
<path d="M1172.7576601671308,1534.674094707521 L1196.0,1541.3147632311977" stroke="yellow" stroke-width="2" fill="none" />
<path d="M850.6852367688023,1385.2590529247911 L903.8105849582173,1385.2590529247911" stroke="yellow" stroke-width="2" fill="none" />
<path d="M558.4958217270196,1518.0724233983287 L661.4261838440111,1518.0724233983287" stroke="yellow" stroke-width="2" fill="none" />
<path d="M711.2311977715877,1564.557103064067 L767.6768802228412,1621.0027855153203" stroke="yellow" stroke-width="2" fill="none" />
<path d="M837.4038997214485,1571.1977715877438 L890.5292479108635,1571.1977715877438" stroke="yellow" stroke-width="2" fill="none" />
<path d="M890.5292479108635,1528.033426183844 L863.966573816156,1498.150417827298" stroke="yellow" stroke-width="2" fill="none" />
<path d="M830.7632311977716,1288.9693593314764 L903.8105849582173,1288.9693593314764" stroke="yellow" stroke-width="2" fill="none" />
<path d="M794.2395543175487,1338.774373259053 L794.2395543175487,1308.8913649025071" stroke="yellow" stroke-width="2" fill="none" />
<path d="M498.7298050139276,1365.3370473537605 L538.5738161559889,1365.3370473537605" stroke="yellow" stroke-width="2" fill="none" />
<path d="M983.4986072423399,800.8802228412256 L1129.5933147632313,800.8802228412256" stroke="yellow" stroke-width="2" fill="none" />
<path d="M940.3342618384402,611.6211699164346 L1003.4206128133704,611.6211699164346" stroke="yellow" stroke-width="2" fill="none" />
<path d="M1003.4206128133704,611.6211699164346 L1003.4206128133704,601.6601671309193" stroke="yellow" stroke-width="2" fill="none" />
<path d="M1003.4206128133704,601.6601671309193 L940.3342618384402,601.6601671309193" stroke="yellow" stroke-width="2" fill="none" />
<path d="M940.3342618384402,601.6601671309193 L940.3342618384402,611.6211699164346" stroke="yellow" stroke-width="2" fill="none" />
<path d="M943.6545961002786,668.066852367688 L937.0139275766016,641.5041782729805" stroke="yellow" stroke-width="2" fill="none" />
<path d="M937.0139275766016,641.5041782729805 L956.9359331476323,641.5041782729805" stroke="yellow" stroke-width="2" fill="none" />
<path d="M956.9359331476323,641.5041782729805 L970.2172701949861,654.7855153203343" stroke="lavender" stroke-width="2" fill="none" />
<path d="M970.2172701949861,654.7855153203343 L956.9359331476323,668.066852367688" stroke="lavender" stroke-width="2" fill="none" />
<path d="M956.9359331476323,668.066852367688 L943.6545961002786,668.066852367688" stroke="yellow" stroke-width="2" fill="none" />
<path d="M937.0139275766016,668.066852367688 L930.3732590529248,641.5041782729805" stroke="yellow" stroke-width="2" fill="none" />
<path d="M930.3732590529248,996.7799442896936 L930.3732590529248,963.5766016713092" stroke="yellow" stroke-width="2" fill="none" />
<path d="M930.3732590529248,963.5766016713092 L960.2562674094708,933.6935933147633" stroke="yellow" stroke-width="2" fill="none" />
<path d="M960.2562674094708,933.6935933147633 L1006.740947075209,963.5766016713092" stroke="yellow" stroke-width="2" fill="none" />
<path d="M1006.740947075209,963.5766016713092 L1006.740947075209,1026.6629526462395" stroke="yellow" stroke-width="2" fill="none" />
<path d="M1006.740947075209,1026.6629526462395 L940.3342618384402,1066.506963788301" stroke="yellow" stroke-width="2" fill="none" />
<path d="M940.3342618384402,1066.506963788301 L903.8105849582173,1066.506963788301" stroke="yellow" stroke-width="2" fill="none" />
<path d="M903.8105849582173,1066.506963788301 L956.9359331476323,1013.3816155988859" stroke="yellow" stroke-width="2" fill="none" />
<path d="M956.9359331476323,1013.3816155988859 L930.3732590529248,996.7799442896936" stroke="yellow" stroke-width="2" fill="none" />
<path d="M887.2089136490251,1146.1949860724235 L903.8105849582173,1119.632311977716" stroke="yellow" stroke-width="2" fill="none" />
<path d="M903.8105849582173,1119.632311977716 L920.4122562674095,1146.1949860724235" stroke="yellow" stroke-width="2" fill="none" />
<path d="M920.4122562674095,1146.1949860724235 L903.8105849582173,1172.757660167131" stroke="yellow" stroke-width="2" fill="none" />
<path d="M903.8105849582173,1172.757660167131 L887.2089136490251,1146.1949860724235" stroke="yellow" stroke-width="2" fill="none" />
<path d="M717.8718662952647,1196.0 L717.8718662952647,1146.1949860724235" stroke="yellow" stroke-width="2" fill="none" />
<path d="M770.9972144846797,986.8189415041784 L834.08356545961,986.8189415041784" stroke="yellow" stroke-width="2" fill="none" />
<path d="M389.15877437325906,1142.874651810585 L425.6824512534819,1142.874651810585" stroke="yellow" stroke-width="2" fill="none" />
<path d="M492.08913649025067,1172.757660167131 L571.7771587743732,1259.0863509749304" stroke="yellow" stroke-width="2" fill="none" />
<path d="M664.7465181058496,1013.3816155988859 L691.3091922005572,1013.3816155988859" stroke="yellow" stroke-width="2" fill="none" />
<path d="M355.95543175487467,1026.6629526462395 L422.36211699164346,1026.6629526462395" stroke="yellow" stroke-width="2" fill="none" />
<path d="M355.95543175487467,1026.6629526462395 L355.95543175487467,923.732590529248" stroke="yellow" stroke-width="2" fill="none" />
<path d="M355.95543175487467,877.2479108635098 L462.20612813370474,761.0362116991644" stroke="lavender" stroke-width="2" fill="none" />
<path d="M462.20612813370474,761.0362116991644 L578.4178272980502,684.6685236768802" stroke="yellow" stroke-width="2" fill="none" />
<path d="M452.2451253481894,897.1699164345405 L472.1671309192201,920.4122562674095" stroke="lavender" stroke-width="2" fill="none" />
<path d="M475.4874651810585,913.7715877437327 L458.8857938718663,893.849582172702" stroke="yellow" stroke-width="2" fill="none" />
<path d="M717.8718662952647,986.8189415041784 L717.8718662952647,897.1699164345405" stroke="yellow" stroke-width="2" fill="none" />
<path d="M731.1532033426183,867.2869080779944 L784.2785515320335,867.2869080779944" stroke="yellow" stroke-width="2" fill="none" />
<path d="M604.9805013927577,867.2869080779944 L654.7855153203343,880.5682451253482" stroke="yellow" stroke-width="2" fill="none" />
<path d="M714.5515320334262,840.7242339832869 L757.715877437326,800.8802228412256" stroke="yellow" stroke-width="2" fill="none" />
<path d="M405.7604456824513,897.1699164345405 L452.2451253481894,860.6462395543176" stroke="yellow" stroke-width="2" fill="none" />
<path d="M578.4178272980502,488.76880222841226 L644.824512534819,508.69080779944295" stroke="lavender" stroke-width="2" fill="none" />
<path d="M678.0278551532033,276.2674094707522 L731.1532033426183,326.07242339832874" stroke="yellow" stroke-width="2" fill="none" />
<path d="M611.6211699164346,668.066852367688 L604.9805013927577,644.824512534819" stroke="yellow" stroke-width="2" fill="none" />
<path d="M604.9805013927577,641.5041782729805 L604.9805013927577,614.941504178273" stroke="yellow" stroke-width="2" fill="none" />
<path d="M604.9805013927577,611.6211699164346 L604.9805013927577,588.3788300835655" stroke="yellow" stroke-width="2" fill="none" />
<path d="M604.9805013927577,585.0584958217271 L604.9805013927577,561.816155988858" stroke="yellow" stroke-width="2" fill="none" />
<path d="M604.9805013927577,558.4958217270196 L604.9805013927577,535.2534818941505" stroke="yellow" stroke-width="2" fill="none" />
<path d="M604.9805013927577,531.9331476323121 L604.9805013927577,512.0111420612814" stroke="yellow" stroke-width="2" fill="none" />
<path d="M644.824512534819,571.7771587743733 L671.3871866295265,571.7771587743733" stroke="lavender" stroke-width="2" fill="none" />
<path d="M671.3871866295265,571.7771587743733 L658.1058495821727,551.8551532033426" stroke="lavender" stroke-width="2" fill="none" />
<path d="M658.1058495821727,551.8551532033426 L644.824512534819,571.7771587743733" stroke="lavender" stroke-width="2" fill="none" />
<path d="M654.7855153203343,389.1587743732591 L701.2701949860725,412.4011142061281" stroke="yellow" stroke-width="2" fill="none" />
<path d="M704.5905292479108,402.44011142061277 L658.1058495821727,379.1977715877438" stroke="yellow" stroke-width="2" fill="none" />
<path d="M658.1058495821727,379.1977715877438 L654.7855153203343,389.1587743732591" stroke="yellow" stroke-width="2" fill="none" />
<path d="M701.2701949860725,668.066852367688 L614.9415041782729,668.066852367688" stroke="yellow" stroke-width="2" fill="none" />
<path d="M614.9415041782729,678.0278551532034 L701.2701949860725,678.0278551532034" stroke="yellow" stroke-width="2" fill="none" />
<path d="M764.3565459610028,262.98607242339835 L764.3565459610028,246.38440111420618" stroke="yellow" stroke-width="2" fill="none" />
<path d="M764.3565459610028,246.38440111420618 L777.6378830083565,229.78272980501401" stroke="yellow" stroke-width="2" fill="none" />
<path d="M777.6378830083565,229.78272980501401 L790.9192200557103,246.38440111420618" stroke="yellow" stroke-width="2" fill="none" />
<path d="M790.9192200557103,246.38440111420618 L777.6378830083565,266.3064066852369" stroke="yellow" stroke-width="2" fill="none" />
<path d="M777.6378830083565,266.3064066852369 L764.3565459610028,262.98607242339835" stroke="yellow" stroke-width="2" fill="none" />
<path d="M638.1838440111421,618.2618384401114 L644.824512534819,601.6601671309193" stroke="yellow" stroke-width="2" fill="none" />
<path d="M644.824512534819,601.6601671309193 L668.066852367688,608.3008356545962" stroke="yellow" stroke-width="2" fill="none" />
<path d="M668.066852367688,608.3008356545962 L671.3871866295265,624.9025069637884" stroke="yellow" stroke-width="2" fill="none" />
<path d="M671.3871866295265,624.9025069637884 L658.1058495821727,634.8635097493037" stroke="yellow" stroke-width="2" fill="none" />
<path d="M658.1058495821727,634.8635097493037 L638.1838440111421,618.2618384401114" stroke="yellow" stroke-width="2" fill="none" />
<path d="M648.1448467966574,432.3231197771588 L661.4261838440111,422.36211699164346" stroke="yellow" stroke-width="2" fill="none" />
<path d="M658.1058495821727,448.924791086351 L648.1448467966574,432.3231197771588" stroke="yellow" stroke-width="2" fill="none" />
<path d="M668.066852367688,438.96378830083574 L658.1058495821727,448.924791086351" stroke="yellow" stroke-width="2" fill="none" />
<path d="M661.4261838440111,422.36211699164346 L668.066852367688,438.96378830083574" stroke="yellow" stroke-width="2" fill="none" />
<path d="M893.849582172702,213.18105849582184 L860.6462395543175,166.69637883008363" stroke="yellow" stroke-width="2" fill="none" />
<path d="M850.6852367688023,173.33704735376045 L860.6462395543175,186.61838440111433" stroke="yellow" stroke-width="2" fill="none" />
<path d="M860.6462395543175,186.61838440111433 L873.9275766016713,206.5403899721448" stroke="lavender" stroke-width="2" fill="none" />
<path d="M452.2451253481894,568.4568245125348 L492.08913649025067,568.4568245125348" stroke="yellow" stroke-width="2" fill="none" />
<path d="M435.6434540389972,385.8384401114206 L412.4011142061281,375.87743732590525" stroke="yellow" stroke-width="2" fill="none" />
<path d="M458.8857938718663,678.0278551532034 L485.44846796657384,638.1838440111421" stroke="lavender" stroke-width="2" fill="none" />
<path d="M485.44846796657384,638.1838440111421 L521.9721448467967,648.1448467966575" stroke="lavender" stroke-width="2" fill="none" />
<path d="M521.9721448467967,648.1448467966575 L531.9331476323121,684.6685236768802" stroke="lavender" stroke-width="2" fill="none" />
<path d="M531.9331476323121,684.6685236768802 L505.3704735376045,694.6295264623956" stroke="lavender" stroke-width="2" fill="none" />
<path d="M505.3704735376045,694.6295264623956 L458.8857938718663,678.0278551532034" stroke="lavender" stroke-width="2" fill="none" />
<path d="M385.8384401114206,405.7604456824513 L409.0807799442897,375.87743732590525" stroke="lavender" stroke-width="2" fill="none" />
<path d="M458.8857938718663,329.39275766016726 L462.20612813370474,375.87743732590525" stroke="yellow" stroke-width="2" fill="none" />
<path d="M468.8467966573816,375.87743732590525 L465.52646239554315,329.39275766016726" stroke="yellow" stroke-width="2" fill="none" />
<path d="M485.44846796657384,133.4930362116993 L528.6128133704735,156.73537604456828" stroke="yellow" stroke-width="2" fill="none" />
<path d="M465.52646239554315,170.01671309192216 L512.0111420612814,193.25905292479115" stroke="yellow" stroke-width="2" fill="none" />
<path d="M515.3314763231198,186.61838440111433 L468.8467966573816,163.3760445682451" stroke="yellow" stroke-width="2" fill="none" />
<path d="M213.18105849582173,375.87743732590525 L239.74373259052925,375.87743732590525" stroke="lavender" stroke-width="2" fill="none" />
<path d="M239.74373259052925,375.87743732590525 L239.74373259052925,349.31476323119773" stroke="lavender" stroke-width="2" fill="none" />
<path d="M239.74373259052925,349.31476323119773 L213.18105849582173,349.31476323119773" stroke="lavender" stroke-width="2" fill="none" />
<path d="M213.18105849582173,349.31476323119773 L213.18105849582173,375.87743732590525" stroke="lavender" stroke-width="2" fill="none" />
<path d="M160.0557103064067,485.44846796657384 L243.0640668523677,505.37047353760454" stroke="yellow" stroke-width="2" fill="none" />
<path d="M126.85236768802228,953.6155988857939 L183.29805013927577,877.2479108635098" stroke="lavender" stroke-width="2" fill="none" />
<path d="M4.0,787.5988857938719 L63.766016713091915,754.3955431754875" stroke="yellow" stroke-width="2" fill="none" />
<path d="M319.4317548746518,907.1309192200557 L239.74373259052925,907.1309192200557" stroke="yellow" stroke-width="2" fill="none" />
<path d="M319.4317548746518,1016.7019498607243 L319.4317548746518,907.1309192200557" stroke="yellow" stroke-width="2" fill="none" />
<path d="M239.74373259052925,907.1309192200557 L226.4623955431755,990.1392757660167" stroke="yellow" stroke-width="2" fill="none" />
<path d="M63.766016713091915,664.7465181058496 L4.0,664.7465181058496" stroke="yellow" stroke-width="2" fill="none" />
<path d="M243.0640668523677,505.37047353760454 L249.70473537604457,535.2534818941505" stroke="yellow" stroke-width="2" fill="none" />
<path d="M256.3454038997214,508.69080779944295 L256.3454038997214,535.2534818941505" stroke="lavender" stroke-width="2" fill="none" />
<path d="M266.30640668523677,535.2534818941505 L266.30640668523677,508.69080779944295" stroke="yellow" stroke-width="2" fill="none" />
<path d="M266.30640668523677,634.8635097493037 L183.29805013927577,701.2701949860725" stroke="yellow" stroke-width="2" fill="none" />
<path d="M189.93871866295265,707.9108635097493 L272.94707520891365,641.5041782729805" stroke="yellow" stroke-width="2" fill="none" />
<path d="M442.2841225626741,229.78272980501401 L455.56545961002786,209.86072423398332" stroke="yellow" stroke-width="2" fill="none" />
<path d="M452.2451253481894,229.78272980501401 L442.2841225626741,229.78272980501401" stroke="yellow" stroke-width="2" fill="none" />
<path d="M448.924791086351,253.025069637883 L452.2451253481894,229.78272980501401" stroke="yellow" stroke-width="2" fill="none" />
<path d="M462.20612813370474,253.025069637883 L448.924791086351,253.025069637883" stroke="yellow" stroke-width="2" fill="none" />
<path d="M458.8857938718663,229.78272980501401 L462.20612813370474,253.025069637883" stroke="yellow" stroke-width="2" fill="none" />
<path d="M468.8467966573816,229.78272980501401 L458.8857938718663,229.78272980501401" stroke="yellow" stroke-width="2" fill="none" />
<path d="M455.56545961002786,209.86072423398332 L468.8467966573816,229.78272980501401" stroke="yellow" stroke-width="2" fill="none" />
<path d="M233.10306406685237,993.4596100278552 L246.38440111420613,913.7715877437327" stroke="lavender" stroke-width="2" fill="none" />
<path d="M246.38440111420613,913.7715877437327 L312.7910863509749,913.7715877437327" stroke="yellow" stroke-width="2" fill="none" />
<path d="M312.7910863509749,913.7715877437327 L312.7910863509749,1016.7019498607243" stroke="yellow" stroke-width="2" fill="none" />
<path d="M279.5877437325905,937.0139275766016 L266.30640668523677,960.2562674094709" stroke="yellow" stroke-width="2" fill="none" />
<path d="M292.8690807799443,960.2562674094709 L279.5877437325905,937.0139275766016" stroke="yellow" stroke-width="2" fill="none" />
<path d="M266.30640668523677,960.2562674094709 L292.8690807799443,960.2562674094709" stroke="lavender" stroke-width="2" fill="none" />
<path d="M628.2228412256268,727.83286908078 L601.6601671309193,784.2785515320335" stroke="yellow" stroke-width="2" fill="none" />
<path d="M614.9415041782729,787.5988857938719 L631.5431754874652,734.4735376044569" stroke="yellow" stroke-width="2" fill="none" />
<path d="M535.2534818941504,150.09470752089146 L485.44846796657384,126.85236768802224" stroke="yellow" stroke-width="2" fill="none" />
<path d="M1063.1866295264624,1491.5097493036212 L1152.8356545961003,1544.6350974930363" stroke="red" stroke-width="2" fill="none" />
<path d="M903.8105849582173,1288.9693593314764 L903.8105849582173,1385.2590529247911" stroke="red" stroke-width="2" fill="none" />
<path d="M1129.5933147632313,800.8802228412256 L903.8105849582173,1288.9693593314764" stroke="red" stroke-width="2" fill="none" />
<path d="M990.1392757660167,558.4958217270196 L1129.5933147632313,800.8802228412256" stroke="red" stroke-width="2" fill="none" />
<path d="M920.4122562674095,588.3788300835655 L990.1392757660167,558.4958217270196" stroke="red" stroke-width="2" fill="none" />
<path d="M983.4986072423399,800.8802228412256 L943.6545961002786,668.066852367688" stroke="red" stroke-width="2" fill="none" />
<path d="M834.08356545961,986.8189415041784 L983.4986072423399,800.8802228412256" stroke="red" stroke-width="2" fill="none" />
<path d="M701.2701949860725,678.0278551532034 L757.715877437326,800.8802228412256" stroke="red" stroke-width="2" fill="none" />
<path d="M731.1532033426183,326.07242339832874 L704.5905292479108,402.44011142061277" stroke="red" stroke-width="2" fill="none" />
<path d="M883.8885793871866,219.82172701949867 L731.1532033426183,326.07242339832874" stroke="red" stroke-width="2" fill="none" />
<path d="M678.0278551532033,276.2674094707522 L850.6852367688023,173.33704735376045" stroke="red" stroke-width="2" fill="none" />
<path d="M578.4178272980502,488.76880222841226 L678.0278551532033,276.2674094707522" stroke="red" stroke-width="2" fill="none" />
<path d="M578.4178272980502,508.69080779944295 L578.4178272980502,488.76880222841226" stroke="red" stroke-width="2" fill="none" />
<path d="M492.08913649025067,568.4568245125348 L578.4178272980502,684.6685236768802" stroke="red" stroke-width="2" fill="none" />
<path d="M498.7298050139276,219.82172701949867 L458.8857938718663,322.7520891364902" stroke="red" stroke-width="2" fill="none" />
<path d="M448.924791086351,196.57938718662967 L465.52646239554315,170.01671309192216" stroke="lavender" stroke-width="2" fill="none" />
<path d="M372.55710306406684,309.47075208913657 L448.924791086351,196.57938718662967" stroke="red" stroke-width="2" fill="none" />
<path d="M372.55710306406684,402.44011142061277 L372.55710306406684,309.47075208913657" stroke="red" stroke-width="2" fill="none" />
<path d="M462.20612813370474,761.0362116991644 L399.11977715877435,571.7771587743733" stroke="red" stroke-width="2" fill="none" />
<path d="M272.94707520891365,641.5041782729805 L462.20612813370474,761.0362116991644" stroke="red" stroke-width="2" fill="none" />
<path d="M249.70473537604457,535.2534818941505 L266.30640668523677,634.8635097493037" stroke="red" stroke-width="2" fill="none" />
<path d="M266.30640668523677,326.07242339832874 L243.0640668523677,505.37047353760454" stroke="red" stroke-width="2" fill="none" />
<path d="M216.50139275766017,306.15041782729804 L266.30640668523677,326.07242339832874" stroke="red" stroke-width="2" fill="none" />
<path d="M160.0557103064067,485.44846796657384 L216.50139275766017,306.15041782729804" stroke="red" stroke-width="2" fill="none" />
<path d="M183.29805013927577,701.2701949860725 L160.0557103064067,485.44846796657384" stroke="red" stroke-width="2" fill="none" />
<path d="M355.95543175487467,877.2479108635098 L189.93871866295265,707.9108635097493" stroke="red" stroke-width="2" fill="none" />
<path d="M183.29805013927577,877.2479108635098 L355.95543175487467,877.2479108635098" stroke="red" stroke-width="2" fill="none" />
<path d="M63.766016713091915,754.3955431754875 L183.29805013927577,877.2479108635098" stroke="red" stroke-width="2" fill="none" />
<path d="M63.766016713091915,668.066852367688 L63.766016713091915,754.3955431754875" stroke="red" stroke-width="2" fill="none" />
<path d="M4.0,787.5988857938719 L4.0,668.066852367688" stroke="red" stroke-width="2" fill="none" />
<path d="M126.85236768802228,953.6155988857939 L4.0,787.5988857938719" stroke="red" stroke-width="2" fill="none" />
<path d="M355.95543175487467,1026.6629526462395 L319.4317548746518,1016.7019498607243" stroke="red" stroke-width="2" fill="none" />
<path d="M558.4958217270196,1518.0724233983287 L498.7298050139276,1365.3370473537605" stroke="red" stroke-width="2" fill="none" />
<path d="M468.8467966573816,1773.7381615598886 L558.4958217270196,1518.0724233983287" stroke="red" stroke-width="2" fill="none" />
<path d="M1152.8356545961003,1571.1977715877438 L1063.1866295264624,1624.3231197771588" stroke="red" stroke-width="2" fill="none" />
<path d="M1152.8356545961003,1544.6350974930363 L1162.7966573816157,1544.6350974930363" stroke="red" stroke-width="2" fill="none" />
<path d="M1162.7966573816157,1544.6350974930363 L1172.7576601671308,1534.674094707521" stroke="red" stroke-width="2" fill="none" />
<path d="M1172.7576601671308,1534.674094707521 L1172.7576601671308,1524.7130919220056" stroke="red" stroke-width="2" fill="none" />
<path d="M1196.0,1524.7130919220056 L1196.0,1541.3147632311977" stroke="red" stroke-width="2" fill="none" />
<path d="M1196.0,1541.3147632311977 L1179.3983286908078,1571.1977715877438" stroke="red" stroke-width="2" fill="none" />
<path d="M1179.3983286908078,1571.1977715877438 L1152.8356545961003,1571.1977715877438" stroke="red" stroke-width="2" fill="none" />
<path d="M1172.7576601671308,1524.7130919220056 L1152.8356545961003,1501.4707520891366" stroke="red" stroke-width="2" fill="none" />
<path d="M1152.8356545961003,1501.4707520891366 L1169.4373259052925,1488.1894150417827" stroke="red" stroke-width="2" fill="none" />
<path d="M1169.4373259052925,1488.1894150417827 L1196.0,1524.7130919220056" stroke="red" stroke-width="2" fill="none" />
<path d="M903.8105849582173,1385.2590529247911 L986.8189415041783,1385.2590529247911" stroke="red" stroke-width="2" fill="none" />
<path d="M986.8189415041783,1385.2590529247911 L1063.1866295264624,1438.3844011142062" stroke="red" stroke-width="2" fill="none" />
<path d="M1063.1866295264624,1438.3844011142062 L1063.1866295264624,1491.5097493036212" stroke="red" stroke-width="2" fill="none" />
<path d="M1063.1866295264624,1624.3231197771588 L1063.1866295264624,1650.8857938718663" stroke="red" stroke-width="2" fill="none" />
<path d="M1063.1866295264624,1650.8857938718663 L585.0584958217271,1810.2618384401114" stroke="red" stroke-width="2" fill="none" />
<path d="M890.5292479108635,1571.1977715877438 L920.4122562674095,1584.4791086350976" stroke="red" stroke-width="2" fill="none" />
<path d="M920.4122562674095,1584.4791086350976 L963.5766016713092,1561.2367688022284" stroke="red" stroke-width="2" fill="none" />
<path d="M963.5766016713092,1561.2367688022284 L963.5766016713092,1534.674094707521" stroke="red" stroke-width="2" fill="none" />
<path d="M963.5766016713092,1534.674094707521 L937.0139275766016,1518.0724233983287" stroke="red" stroke-width="2" fill="none" />
<path d="M937.0139275766016,1518.0724233983287 L890.5292479108635,1528.033426183844" stroke="red" stroke-width="2" fill="none" />
<path d="M890.5292479108635,1528.033426183844 L890.5292479108635,1571.1977715877438" stroke="red" stroke-width="2" fill="none" />
<path d="M585.0584958217271,1810.2618384401114 L468.8467966573816,1773.7381615598886" stroke="red" stroke-width="2" fill="none" />
<path d="M797.5598885793872,1461.6267409470752 L820.8022284122562,1498.150417827298" stroke="red" stroke-width="2" fill="none" />
<path d="M820.8022284122562,1498.150417827298 L863.966573816156,1498.150417827298" stroke="red" stroke-width="2" fill="none" />
<path d="M863.966573816156,1498.150417827298 L956.9359331476323,1438.3844011142062" stroke="red" stroke-width="2" fill="none" />
<path d="M956.9359331476323,1438.3844011142062 L877.2479108635098,1438.3844011142062" stroke="red" stroke-width="2" fill="none" />
<path d="M877.2479108635098,1438.3844011142062 L850.6852367688023,1385.2590529247911" stroke="red" stroke-width="2" fill="none" />
<path d="M850.6852367688023,1385.2590529247911 L810.841225626741,1385.2590529247911" stroke="red" stroke-width="2" fill="none" />
<path d="M810.841225626741,1385.2590529247911 L797.5598885793872,1461.6267409470752" stroke="red" stroke-width="2" fill="none" />
<path d="M744.4345403899722,1484.8690807799444 L711.2311977715877,1484.8690807799444" stroke="red" stroke-width="2" fill="none" />
<path d="M757.715877437326,1518.0724233983287 L744.4345403899722,1484.8690807799444" stroke="red" stroke-width="2" fill="none" />
<path d="M711.2311977715877,1564.557103064067 L757.715877437326,1518.0724233983287" stroke="red" stroke-width="2" fill="none" />
<path d="M661.4261838440111,1518.0724233983287 L711.2311977715877,1564.557103064067" stroke="red" stroke-width="2" fill="none" />
<path d="M711.2311977715877,1484.8690807799444 L661.4261838440111,1518.0724233983287" stroke="red" stroke-width="2" fill="none" />
<path d="M927.0529247910864,1634.2841225626742 L837.4038997214485,1597.7604456824513" stroke="red" stroke-width="2" fill="none" />
<path d="M903.8105849582173,1677.4484679665738 L927.0529247910864,1634.2841225626742" stroke="red" stroke-width="2" fill="none" />
<path d="M824.1225626740948,1677.4484679665738 L903.8105849582173,1677.4484679665738" stroke="red" stroke-width="2" fill="none" />
<path d="M767.6768802228412,1621.0027855153203 L824.1225626740948,1677.4484679665738" stroke="red" stroke-width="2" fill="none" />
<path d="M794.2395543175487,1581.1587743732591 L767.6768802228412,1621.0027855153203" stroke="red" stroke-width="2" fill="none" />
<path d="M837.4038997214485,1571.1977715877438 L794.2395543175487,1581.1587743732591" stroke="red" stroke-width="2" fill="none" />
<path d="M837.4038997214485,1597.7604456824513 L837.4038997214485,1571.1977715877438" stroke="red" stroke-width="2" fill="none" />
<path d="M598.3398328690807,1727.2534818941504 L654.7855153203343,1727.2534818941504" stroke="red" stroke-width="2" fill="none" />
<path d="M565.1364902506964,1697.3704735376045 L598.3398328690807,1727.2534818941504" stroke="red" stroke-width="2" fill="none" />
<path d="M565.1364902506964,1650.8857938718663 L565.1364902506964,1697.3704735376045" stroke="red" stroke-width="2" fill="none" />
<path d="M578.4178272980502,1604.401114206128 L565.1364902506964,1650.8857938718663" stroke="red" stroke-width="2" fill="none" />
<path d="M641.5041782729804,1584.4791086350976 L578.4178272980502,1604.401114206128" stroke="red" stroke-width="2" fill="none" />
<path d="M727.83286908078,1621.0027855153203 L641.5041782729804,1584.4791086350976" stroke="red" stroke-width="2" fill="none" />
<path d="M737.7938718662953,1674.1281337047353 L727.83286908078,1621.0027855153203" stroke="red" stroke-width="2" fill="none" />
<path d="M727.83286908078,1717.2924791086352 L737.7938718662953,1674.1281337047353" stroke="red" stroke-width="2" fill="none" />
<path d="M701.2701949860725,1717.2924791086352 L727.83286908078,1717.2924791086352" stroke="red" stroke-width="2" fill="none" />
<path d="M711.2311977715877,1667.4874651810585 L701.2701949860725,1717.2924791086352" stroke="red" stroke-width="2" fill="none" />
<path d="M668.066852367688,1627.6434540389973 L711.2311977715877,1667.4874651810585" stroke="red" stroke-width="2" fill="none" />
<path d="M608.3008356545961,1627.6434540389973 L668.066852367688,1627.6434540389973" stroke="red" stroke-width="2" fill="none" />
<path d="M608.3008356545961,1660.8467966573817 L608.3008356545961,1627.6434540389973" stroke="red" stroke-width="2" fill="none" />
<path d="M654.7855153203343,1694.050139275766 L608.3008356545961,1660.8467966573817" stroke="red" stroke-width="2" fill="none" />
<path d="M654.7855153203343,1727.2534818941504 L654.7855153203343,1694.050139275766" stroke="red" stroke-width="2" fill="none" />
<path d="M638.1838440111421,1468.2674094707522 L668.066852367688,1468.2674094707522" stroke="red" stroke-width="2" fill="none" />
<path d="M668.066852367688,1468.2674094707522 L678.0278551532033,1445.025069637883" stroke="red" stroke-width="2" fill="none" />
<path d="M678.0278551532033,1445.025069637883 L638.1838440111421,1405.1810584958218" stroke="red" stroke-width="2" fill="none" />
<path d="M638.1838440111421,1405.1810584958218 L664.7465181058496,1378.6183844011143" stroke="red" stroke-width="2" fill="none" />
<path d="M664.7465181058496,1378.6183844011143 L717.8718662952647,1411.8217270194987" stroke="red" stroke-width="2" fill="none" />
<path d="M717.8718662952647,1411.8217270194987 L717.8718662952647,1445.025069637883" stroke="red" stroke-width="2" fill="none" />
<path d="M717.8718662952647,1445.025069637883 L737.7938718662953,1445.025069637883" stroke="red" stroke-width="2" fill="none" />
<path d="M737.7938718662953,1445.025069637883 L747.7548746518106,1398.5403899721448" stroke="red" stroke-width="2" fill="none" />
<path d="M747.7548746518106,1398.5403899721448 L734.4735376044569,1381.9387186629526" stroke="red" stroke-width="2" fill="none" />
<path d="M734.4735376044569,1381.9387186629526 L747.7548746518106,1358.6963788300836" stroke="red" stroke-width="2" fill="none" />
<path d="M747.7548746518106,1358.6963788300836 L794.2395543175487,1371.9777158774373" stroke="red" stroke-width="2" fill="none" />
<path d="M794.2395543175487,1371.9777158774373 L794.2395543175487,1338.774373259053" stroke="red" stroke-width="2" fill="none" />
<path d="M794.2395543175487,1338.774373259053 L734.4735376044569,1338.774373259053" stroke="red" stroke-width="2" fill="none" />
<path d="M734.4735376044569,1338.774373259053 L714.5515320334262,1279.008356545961" stroke="red" stroke-width="2" fill="none" />
<path d="M714.5515320334262,1279.008356545961 L731.1532033426183,1222.5626740947075" stroke="red" stroke-width="2" fill="none" />
<path d="M731.1532033426183,1222.5626740947075 L804.200557103064,1222.5626740947075" stroke="red" stroke-width="2" fill="none" />
<path d="M804.200557103064,1222.5626740947075 L804.200557103064,1196.0" stroke="red" stroke-width="2" fill="none" />
<path d="M804.200557103064,1196.0 L717.8718662952647,1196.0" stroke="red" stroke-width="2" fill="none" />
<path d="M717.8718662952647,1196.0 L684.6685236768802,1269.0473537604457" stroke="red" stroke-width="2" fill="none" />
<path d="M684.6685236768802,1269.0473537604457 L701.2701949860725,1358.6963788300836" stroke="red" stroke-width="2" fill="none" />
<path d="M701.2701949860725,1358.6963788300836 L654.7855153203343,1358.6963788300836" stroke="red" stroke-width="2" fill="none" />
<path d="M654.7855153203343,1358.6963788300836 L588.3788300835654,1239.1643454038997" stroke="red" stroke-width="2" fill="none" />
<path d="M588.3788300835654,1239.1643454038997 L571.7771587743732,1259.0863509749304" stroke="red" stroke-width="2" fill="none" />
<path d="M571.7771587743732,1259.0863509749304 L604.9805013927577,1288.9693593314764" stroke="red" stroke-width="2" fill="none" />
<path d="M604.9805013927577,1288.9693593314764 L618.2618384401114,1352.0557103064068" stroke="red" stroke-width="2" fill="none" />
<path d="M618.2618384401114,1352.0557103064068 L588.3788300835654,1381.9387186629526" stroke="red" stroke-width="2" fill="none" />
<path d="M588.3788300835654,1381.9387186629526 L555.175487465181,1355.376044568245" stroke="red" stroke-width="2" fill="none" />
<path d="M555.175487465181,1355.376044568245 L545.2144846796657,1308.8913649025071" stroke="red" stroke-width="2" fill="none" />
<path d="M545.2144846796657,1308.8913649025071 L538.5738161559889,1308.8913649025071" stroke="red" stroke-width="2" fill="none" />
<path d="M538.5738161559889,1308.8913649025071 L538.5738161559889,1365.3370473537605" stroke="red" stroke-width="2" fill="none" />
<path d="M538.5738161559889,1365.3370473537605 L638.1838440111421,1468.2674094707522" stroke="red" stroke-width="2" fill="none" />
<path d="M794.2395543175487,1252.4456824512536 L774.3175487465181,1272.3676880222843" stroke="red" stroke-width="2" fill="none" />
<path d="M824.1225626740948,1252.4456824512536 L794.2395543175487,1252.4456824512536" stroke="red" stroke-width="2" fill="none" />
<path d="M830.7632311977716,1288.9693593314764 L824.1225626740948,1252.4456824512536" stroke="red" stroke-width="2" fill="none" />
<path d="M794.2395543175487,1308.8913649025071 L830.7632311977716,1288.9693593314764" stroke="red" stroke-width="2" fill="none" />
<path d="M774.3175487465181,1272.3676880222843 L794.2395543175487,1308.8913649025071" stroke="red" stroke-width="2" fill="none" />
<path d="M498.7298050139276,1365.3370473537605 L389.15877437325906,1142.874651810585" stroke="red" stroke-width="2" fill="none" />
<path d="M937.0139275766016,641.5041782729805 L920.4122562674095,588.3788300835655" stroke="red" stroke-width="2" fill="none" />
<path d="M943.6545961002786,668.066852367688 L937.0139275766016,668.066852367688" stroke="red" stroke-width="2" fill="none" />
<path d="M933.6935933147632,674.707520891365 L923.7325905292479,634.8635097493037" stroke="red" stroke-width="2" fill="none" />
<path d="M930.3732590529248,641.5041782729805 L937.0139275766016,641.5041782729805" stroke="red" stroke-width="2" fill="none" />
<path d="M923.7325905292479,634.8635097493037 L930.3732590529248,634.8635097493037" stroke="red" stroke-width="2" fill="none" />
<path d="M930.3732590529248,634.8635097493037 L930.3732590529248,641.5041782729805" stroke="red" stroke-width="2" fill="none" />
<path d="M937.0139275766016,668.066852367688 L937.0139275766016,674.707520891365" stroke="red" stroke-width="2" fill="none" />
<path d="M937.0139275766016,674.707520891365 L933.6935933147632,674.707520891365" stroke="red" stroke-width="2" fill="none" />
<path d="M717.8718662952647,1146.1949860724235 L797.5598885793872,1146.1949860724235" stroke="red" stroke-width="2" fill="none" />
<path d="M797.5598885793872,1146.1949860724235 L824.1225626740948,1093.0696378830085" stroke="red" stroke-width="2" fill="none" />
<path d="M824.1225626740948,1093.0696378830085 L824.1225626740948,1039.9442896935934" stroke="red" stroke-width="2" fill="none" />
<path d="M824.1225626740948,1039.9442896935934 L770.9972144846797,986.8189415041784" stroke="red" stroke-width="2" fill="none" />
<path d="M770.9972144846797,986.8189415041784 L717.8718662952647,986.8189415041784" stroke="red" stroke-width="2" fill="none" />
<path d="M717.8718662952647,986.8189415041784 L691.3091922005572,1013.3816155988859" stroke="red" stroke-width="2" fill="none" />
<path d="M691.3091922005572,1013.3816155988859 L717.8718662952647,1039.9442896935934" stroke="red" stroke-width="2" fill="none" />
<path d="M717.8718662952647,1039.9442896935934 L734.4735376044569,1013.3816155988859" stroke="red" stroke-width="2" fill="none" />
<path d="M734.4735376044569,1013.3816155988859 L774.3175487465181,1033.3036211699164" stroke="red" stroke-width="2" fill="none" />
<path d="M774.3175487465181,1033.3036211699164 L790.9192200557103,1086.4289693593314" stroke="red" stroke-width="2" fill="none" />
<path d="M790.9192200557103,1086.4289693593314 L767.6768802228412,1119.632311977716" stroke="red" stroke-width="2" fill="none" />
<path d="M767.6768802228412,1119.632311977716 L711.2311977715877,1119.632311977716" stroke="red" stroke-width="2" fill="none" />
<path d="M711.2311977715877,1119.632311977716 L717.8718662952647,1146.1949860724235" stroke="red" stroke-width="2" fill="none" />
<path d="M631.5431754874652,1205.9610027855153 L651.4651810584958,1212.6016713091922" stroke="red" stroke-width="2" fill="none" />
<path d="M651.4651810584958,1212.6016713091922 L678.0278551532033,1132.9136490250696" stroke="red" stroke-width="2" fill="none" />
<path d="M678.0278551532033,1132.9136490250696 L658.1058495821727,1126.2729805013928" stroke="red" stroke-width="2" fill="none" />
<path d="M658.1058495821727,1126.2729805013928 L631.5431754874652,1205.9610027855153" stroke="red" stroke-width="2" fill="none" />
<path d="M435.6434540389972,1086.4289693593314 L425.6824512534819,1086.4289693593314" stroke="red" stroke-width="2" fill="none" />
<path d="M425.6824512534819,1086.4289693593314 L425.6824512534819,1142.874651810585" stroke="red" stroke-width="2" fill="none" />
<path d="M425.6824512534819,1142.874651810585 L492.08913649025067,1172.757660167131" stroke="red" stroke-width="2" fill="none" />
<path d="M492.08913649025067,1172.757660167131 L545.2144846796657,1136.2339832869081" stroke="red" stroke-width="2" fill="none" />
<path d="M545.2144846796657,1136.2339832869081 L531.9331476323121,1066.506963788301" stroke="red" stroke-width="2" fill="none" />
<path d="M531.9331476323121,1066.506963788301 L561.8161559888579,1056.5459610027856" stroke="red" stroke-width="2" fill="none" />
<path d="M561.8161559888579,1056.5459610027856 L608.3008356545961,1109.6713091922006" stroke="red" stroke-width="2" fill="none" />
<path d="M608.3008356545961,1109.6713091922006 L618.2618384401114,1103.0306406685238" stroke="red" stroke-width="2" fill="none" />
<path d="M618.2618384401114,1103.0306406685238 L578.4178272980502,1046.5849582172702" stroke="red" stroke-width="2" fill="none" />
<path d="M578.4178272980502,1046.5849582172702 L601.6601671309193,1016.7019498607243" stroke="red" stroke-width="2" fill="none" />
<path d="M601.6601671309193,1016.7019498607243 L648.1448467966574,1016.7019498607243" stroke="red" stroke-width="2" fill="none" />
<path d="M648.1448467966574,1016.7019498607243 L638.1838440111421,1063.1866295264624" stroke="red" stroke-width="2" fill="none" />
<path d="M624.9025069637883,1063.1866295264624 L624.9025069637883,1073.1476323119778" stroke="red" stroke-width="2" fill="none" />
<path d="M648.1448467966574,1073.1476323119778 L664.7465181058496,1013.3816155988859" stroke="red" stroke-width="2" fill="none" />
<path d="M664.7465181058496,1013.3816155988859 L644.824512534819,933.6935933147633" stroke="red" stroke-width="2" fill="none" />
<path d="M644.824512534819,933.6935933147633 L631.5431754874652,933.6935933147633" stroke="red" stroke-width="2" fill="none" />
<path d="M631.5431754874652,933.6935933147633 L644.824512534819,996.7799442896936" stroke="red" stroke-width="2" fill="none" />
<path d="M644.824512534819,996.7799442896936 L591.6991643454039,986.8189415041784" stroke="red" stroke-width="2" fill="none" />
<path d="M591.6991643454039,986.8189415041784 L571.7771587743732,1006.740947075209" stroke="red" stroke-width="2" fill="none" />
<path d="M571.7771587743732,1006.740947075209 L531.9331476323121,963.5766016713092" stroke="red" stroke-width="2" fill="none" />
<path d="M531.9331476323121,963.5766016713092 L495.40947075208913,963.5766016713092" stroke="red" stroke-width="2" fill="none" />
<path d="M495.40947075208913,963.5766016713092 L495.40947075208913,973.5376044568245" stroke="red" stroke-width="2" fill="none" />
<path d="M495.40947075208913,973.5376044568245 L525.2924791086351,973.5376044568245" stroke="red" stroke-width="2" fill="none" />
<path d="M525.2924791086351,973.5376044568245 L525.2924791086351,1013.3816155988859" stroke="red" stroke-width="2" fill="none" />
<path d="M525.2924791086351,1013.3816155988859 L505.3704735376045,1029.983286908078" stroke="red" stroke-width="2" fill="none" />
<path d="M505.3704735376045,1029.983286908078 L475.4874651810585,1010.0612813370474" stroke="red" stroke-width="2" fill="none" />
<path d="M475.4874651810585,1010.0612813370474 L468.8467966573816,963.5766016713092" stroke="red" stroke-width="2" fill="none" />
<path d="M468.8467966573816,963.5766016713092 L458.8857938718663,963.5766016713092" stroke="red" stroke-width="2" fill="none" />
<path d="M458.8857938718663,963.5766016713092 L458.8857938718663,1010.0612813370474" stroke="red" stroke-width="2" fill="none" />
<path d="M458.8857938718663,1010.0612813370474 L425.6824512534819,1010.0612813370474" stroke="red" stroke-width="2" fill="none" />
<path d="M425.6824512534819,1010.0612813370474 L422.36211699164346,1026.6629526462395" stroke="red" stroke-width="2" fill="none" />
<path d="M422.36211699164346,1026.6629526462395 L462.20612813370474,1026.6629526462395" stroke="red" stroke-width="2" fill="none" />
<path d="M462.20612813370474,1026.6629526462395 L521.9721448467967,1119.632311977716" stroke="red" stroke-width="2" fill="none" />
<path d="M521.9721448467967,1119.632311977716 L492.08913649025067,1149.515320334262" stroke="red" stroke-width="2" fill="none" />
<path d="M492.08913649025067,1149.515320334262 L452.2451253481894,1132.9136490250696" stroke="red" stroke-width="2" fill="none" />
<path d="M452.2451253481894,1132.9136490250696 L435.6434540389972,1086.4289693593314" stroke="red" stroke-width="2" fill="none" />
<path d="M389.15877437325906,1142.874651810585 L355.95543175487467,1026.6629526462395" stroke="red" stroke-width="2" fill="none" />
<path d="M671.3871866295265,518.6518105849583 L701.2701949860725,668.066852367688" stroke="red" stroke-width="2" fill="none" />
<path d="M654.7855153203343,880.5682451253482 L684.6685236768802,897.1699164345405" stroke="red" stroke-width="2" fill="none" />
<path d="M684.6685236768802,897.1699164345405 L717.8718662952647,897.1699164345405" stroke="red" stroke-width="2" fill="none" />
<path d="M717.8718662952647,897.1699164345405 L731.1532033426183,867.2869080779944" stroke="red" stroke-width="2" fill="none" />
<path d="M731.1532033426183,867.2869080779944 L714.5515320334262,840.7242339832869" stroke="red" stroke-width="2" fill="none" />
<path d="M714.5515320334262,840.7242339832869 L681.3481894150418,830.7632311977717" stroke="red" stroke-width="2" fill="none" />
<path d="M681.3481894150418,830.7632311977717 L654.7855153203343,844.0445682451254" stroke="red" stroke-width="2" fill="none" />
<path d="M654.7855153203343,844.0445682451254 L654.7855153203343,880.5682451253482" stroke="red" stroke-width="2" fill="none" />
<path d="M492.08913649025067,850.6852367688023 L452.2451253481894,860.6462395543176" stroke="red" stroke-width="2" fill="none" />
<path d="M452.2451253481894,860.6462395543176 L452.2451253481894,897.1699164345405" stroke="red" stroke-width="2" fill="none" />
<path d="M472.1671309192201,920.4122562674095 L512.0111420612814,920.4122562674095" stroke="red" stroke-width="2" fill="none" />
<path d="M512.0111420612814,920.4122562674095 L521.9721448467967,890.5292479108635" stroke="red" stroke-width="2" fill="none" />
<path d="M521.9721448467967,890.5292479108635 L551.8551532033426,890.5292479108635" stroke="red" stroke-width="2" fill="none" />
<path d="M551.8551532033426,890.5292479108635 L571.7771587743732,900.4902506963789" stroke="red" stroke-width="2" fill="none" />
<path d="M571.7771587743732,900.4902506963789 L604.9805013927577,900.4902506963789" stroke="red" stroke-width="2" fill="none" />
<path d="M604.9805013927577,900.4902506963789 L604.9805013927577,867.2869080779944" stroke="red" stroke-width="2" fill="none" />
<path d="M604.9805013927577,867.2869080779944 L588.3788300835654,840.7242339832869" stroke="red" stroke-width="2" fill="none" />
<path d="M588.3788300835654,840.7242339832869 L568.4568245125348,840.7242339832869" stroke="red" stroke-width="2" fill="none" />
<path d="M568.4568245125348,840.7242339832869 L555.175487465181,877.2479108635098" stroke="red" stroke-width="2" fill="none" />
<path d="M555.175487465181,877.2479108635098 L512.0111420612814,877.2479108635098" stroke="red" stroke-width="2" fill="none" />
<path d="M512.0111420612814,877.2479108635098 L492.08913649025067,850.6852367688023" stroke="red" stroke-width="2" fill="none" />
<path d="M561.8161559888579,754.3955431754875 L488.76880222841226,774.3175487465181" stroke="red" stroke-width="2" fill="none" />
<path d="M488.76880222841226,774.3175487465181 L488.76880222841226,804.2005571030642" stroke="red" stroke-width="2" fill="none" />
<path d="M488.76880222841226,804.2005571030642 L535.2534818941504,804.2005571030642" stroke="red" stroke-width="2" fill="none" />
<path d="M535.2534818941504,804.2005571030642 L571.7771587743732,767.6768802228413" stroke="red" stroke-width="2" fill="none" />
<path d="M571.7771587743732,767.6768802228413 L561.8161559888579,754.3955431754875" stroke="red" stroke-width="2" fill="none" />
<path d="M668.066852367688,727.83286908078 L628.2228412256268,727.83286908078" stroke="red" stroke-width="2" fill="none" />
<path d="M601.6601671309193,787.5988857938719 L651.4651810584958,810.841225626741" stroke="red" stroke-width="2" fill="none" />
<path d="M651.4651810584958,810.841225626741 L691.3091922005572,787.5988857938719" stroke="red" stroke-width="2" fill="none" />
<path d="M691.3091922005572,787.5988857938719 L668.066852367688,727.83286908078" stroke="red" stroke-width="2" fill="none" />
<path d="M425.6824512534819,917.0919220055711 L389.15877437325906,923.732590529248" stroke="red" stroke-width="2" fill="none" />
<path d="M402.4401114206128,903.8105849582173 L425.6824512534819,917.0919220055711" stroke="red" stroke-width="2" fill="none" />
<path d="M405.7604456824513,897.1699164345405 L402.4401114206128,903.8105849582173" stroke="red" stroke-width="2" fill="none" />
<path d="M438.96378830083563,913.7715877437327 L405.7604456824513,897.1699164345405" stroke="red" stroke-width="2" fill="none" />
<path d="M422.36211699164346,946.974930362117 L438.96378830083563,913.7715877437327" stroke="red" stroke-width="2" fill="none" />
<path d="M415.7214484679666,943.6545961002786 L422.36211699164346,946.974930362117" stroke="red" stroke-width="2" fill="none" />
<path d="M425.6824512534819,923.732590529248 L415.7214484679666,943.6545961002786" stroke="red" stroke-width="2" fill="none" />
<path d="M389.15877437325906,930.3732590529248 L425.6824512534819,923.732590529248" stroke="red" stroke-width="2" fill="none" />
<path d="M385.8384401114206,940.3342618384402 L389.15877437325906,930.3732590529248" stroke="red" stroke-width="2" fill="none" />
<path d="M362.59610027855155,943.6545961002786 L385.8384401114206,940.3342618384402" stroke="red" stroke-width="2" fill="none" />
<path d="M369.2367688022284,930.3732590529248 L362.59610027855155,943.6545961002786" stroke="red" stroke-width="2" fill="none" />
<path d="M355.95543175487467,923.732590529248 L369.2367688022284,930.3732590529248" stroke="red" stroke-width="2" fill="none" />
<path d="M379.1977715877438,917.0919220055711 L355.95543175487467,923.732590529248" stroke="red" stroke-width="2" fill="none" />
<path d="M389.15877437325906,923.732590529248 L379.1977715877438,917.0919220055711" stroke="red" stroke-width="2" fill="none" />
<path d="M452.2451253481894,897.1699164345405 L458.8857938718663,893.849582172702" stroke="red" stroke-width="2" fill="none" />
<path d="M458.8857938718663,870.607242339833 L495.40947075208913,870.607242339833" stroke="red" stroke-width="2" fill="none" />
<path d="M495.40947075208913,870.607242339833 L505.3704735376045,880.5682451253482" stroke="red" stroke-width="2" fill="none" />
<path d="M505.3704735376045,880.5682451253482 L505.3704735376045,913.7715877437327" stroke="red" stroke-width="2" fill="none" />
<path d="M505.3704735376045,913.7715877437327 L475.4874651810585,913.7715877437327" stroke="red" stroke-width="2" fill="none" />
<path d="M475.4874651810585,913.7715877437327 L472.1671309192201,920.4122562674095" stroke="red" stroke-width="2" fill="none" />
<path d="M784.2785515320335,867.2869080779944 L834.08356545961,986.8189415041784" stroke="red" stroke-width="2" fill="none" />
<path d="M757.715877437326,800.8802228412256 L784.2785515320335,867.2869080779944" stroke="red" stroke-width="2" fill="none" />
<path d="M638.1838440111421,1063.1866295264624 L624.9025069637883,1063.1866295264624" stroke="red" stroke-width="2" fill="none" />
<path d="M624.9025069637883,1073.1476323119778 L648.1448467966574,1073.1476323119778" stroke="red" stroke-width="2" fill="none" />
<path d="M578.4178272980502,684.6685236768802 L614.9415041782729,678.0278551532034" stroke="red" stroke-width="2" fill="none" />
<path d="M614.9415041782729,678.0278551532034 L614.9415041782729,668.066852367688" stroke="red" stroke-width="2" fill="none" />
<path d="M614.9415041782729,668.066852367688 L611.6211699164346,668.066852367688" stroke="red" stroke-width="2" fill="none" />
<path d="M611.6211699164346,668.066852367688 L611.6211699164346,674.707520891365" stroke="red" stroke-width="2" fill="none" />
<path d="M611.6211699164346,674.707520891365 L578.4178272980502,674.707520891365" stroke="red" stroke-width="2" fill="none" />
<path d="M578.4178272980502,674.707520891365 L578.4178272980502,644.824512534819" stroke="lavender" stroke-width="2" fill="none" />
<path d="M578.4178272980502,644.824512534819 L604.9805013927577,644.824512534819" stroke="red" stroke-width="2" fill="none" />
<path d="M604.9805013927577,644.824512534819 L604.9805013927577,641.5041782729805" stroke="red" stroke-width="2" fill="none" />
<path d="M604.9805013927577,641.5041782729805 L578.4178272980502,641.5041782729805" stroke="red" stroke-width="2" fill="none" />
<path d="M578.4178272980502,641.5041782729805 L578.4178272980502,614.941504178273" stroke="lavender" stroke-width="2" fill="none" />
<path d="M578.4178272980502,614.941504178273 L604.9805013927577,614.941504178273" stroke="red" stroke-width="2" fill="none" />
<path d="M604.9805013927577,614.941504178273 L604.9805013927577,611.6211699164346" stroke="red" stroke-width="2" fill="none" />
<path d="M604.9805013927577,611.6211699164346 L578.4178272980502,611.6211699164346" stroke="red" stroke-width="2" fill="none" />
<path d="M578.4178272980502,611.6211699164346 L578.4178272980502,588.3788300835655" stroke="lavender" stroke-width="2" fill="none" />
<path d="M578.4178272980502,588.3788300835655 L604.9805013927577,588.3788300835655" stroke="red" stroke-width="2" fill="none" />
<path d="M604.9805013927577,588.3788300835655 L604.9805013927577,585.0584958217271" stroke="red" stroke-width="2" fill="none" />
<path d="M604.9805013927577,585.0584958217271 L578.4178272980502,585.0584958217271" stroke="red" stroke-width="2" fill="none" />
<path d="M578.4178272980502,585.0584958217271 L578.4178272980502,561.816155988858" stroke="lavender" stroke-width="2" fill="none" />
<path d="M578.4178272980502,561.816155988858 L604.9805013927577,561.816155988858" stroke="red" stroke-width="2" fill="none" />
<path d="M604.9805013927577,561.816155988858 L604.9805013927577,558.4958217270196" stroke="red" stroke-width="2" fill="none" />
<path d="M604.9805013927577,558.4958217270196 L578.4178272980502,558.4958217270196" stroke="red" stroke-width="2" fill="none" />
<path d="M578.4178272980502,558.4958217270196 L578.4178272980502,535.2534818941505" stroke="lavender" stroke-width="2" fill="none" />
<path d="M578.4178272980502,535.2534818941505 L604.9805013927577,535.2534818941505" stroke="red" stroke-width="2" fill="none" />
<path d="M604.9805013927577,535.2534818941505 L604.9805013927577,531.9331476323121" stroke="red" stroke-width="2" fill="none" />
<path d="M604.9805013927577,531.9331476323121 L578.4178272980502,531.9331476323121" stroke="red" stroke-width="2" fill="none" />
<path d="M578.4178272980502,531.9331476323121 L578.4178272980502,512.0111420612814" stroke="lavender" stroke-width="2" fill="none" />
<path d="M578.4178272980502,512.0111420612814 L604.9805013927577,512.0111420612814" stroke="red" stroke-width="2" fill="none" />
<path d="M604.9805013927577,512.0111420612814 L604.9805013927577,508.69080779944295" stroke="red" stroke-width="2" fill="none" />
<path d="M604.9805013927577,508.69080779944295 L578.4178272980502,508.69080779944295" stroke="red" stroke-width="2" fill="none" />
<path d="M671.3871866295265,502.050139275766 L644.824512534819,502.050139275766" stroke="red" stroke-width="2" fill="none" />
<path d="M644.824512534819,502.050139275766 L644.824512534819,508.69080779944295" stroke="red" stroke-width="2" fill="none" />
<path d="M644.824512534819,508.69080779944295 L671.3871866295265,518.6518105849583" stroke="red" stroke-width="2" fill="none" />
<path d="M701.2701949860725,668.066852367688 L701.2701949860725,678.0278551532034" stroke="red" stroke-width="2" fill="none" />
<path d="M704.5905292479108,402.44011142061277 L701.2701949860725,412.4011142061281" stroke="red" stroke-width="2" fill="none" />
<path d="M701.2701949860725,412.4011142061281 L671.3871866295265,502.050139275766" stroke="red" stroke-width="2" fill="none" />
<path d="M850.6852367688023,173.33704735376045 L860.6462395543175,166.69637883008363" stroke="red" stroke-width="2" fill="none" />
<path d="M860.6462395543175,166.69637883008363 L920.4122562674095,143.4540389972144" stroke="red" stroke-width="2" fill="none" />
<path d="M893.849582172702,213.18105849582184 L883.8885793871866,219.82172701949867" stroke="red" stroke-width="2" fill="none" />
<path d="M933.6935933147632,163.3760445682451 L893.849582172702,213.18105849582184" stroke="red" stroke-width="2" fill="none" />
<path d="M920.4122562674095,143.4540389972144 L933.6935933147632,163.3760445682451" stroke="red" stroke-width="2" fill="none" />
<path d="M399.11977715877435,571.7771587743733 L402.4401114206128,568.4568245125348" stroke="red" stroke-width="2" fill="none" />
<path d="M402.4401114206128,568.4568245125348 L452.2451253481894,568.4568245125348" stroke="red" stroke-width="2" fill="none" />
<path d="M452.2451253481894,568.4568245125348 L452.2451253481894,565.1364902506964" stroke="red" stroke-width="2" fill="none" />
<path d="M452.2451253481894,565.1364902506964 L402.4401114206128,565.1364902506964" stroke="red" stroke-width="2" fill="none" />
<path d="M402.4401114206128,565.1364902506964 L395.79944289693594,558.4958217270196" stroke="red" stroke-width="2" fill="none" />
<path d="M395.79944289693594,558.4958217270196 L389.15877437325906,495.4094707520892" stroke="red" stroke-width="2" fill="none" />
<path d="M389.15877437325906,495.4094707520892 L392.47910863509753,492.0891364902508" stroke="red" stroke-width="2" fill="none" />
<path d="M392.47910863509753,492.0891364902508 L442.2841225626741,492.0891364902508" stroke="red" stroke-width="2" fill="none" />
<path d="M442.2841225626741,492.0891364902508 L442.2841225626741,488.76880222841226" stroke="red" stroke-width="2" fill="none" />
<path d="M442.2841225626741,488.76880222841226 L392.47910863509753,488.76880222841226" stroke="red" stroke-width="2" fill="none" />
<path d="M392.47910863509753,488.76880222841226 L389.15877437325906,482.12813370473543" stroke="red" stroke-width="2" fill="none" />
<path d="M389.15877437325906,482.12813370473543 L382.5181058495822,412.4011142061281" stroke="red" stroke-width="2" fill="none" />
<path d="M382.5181058495822,412.4011142061281 L385.8384401114206,409.0807799442898" stroke="red" stroke-width="2" fill="none" />
<path d="M385.8384401114206,409.0807799442898 L438.96378830083563,409.0807799442898" stroke="red" stroke-width="2" fill="none" />
<path d="M438.96378830083563,409.0807799442898 L438.96378830083563,385.8384401114206" stroke="red" stroke-width="2" fill="none" />
<path d="M438.96378830083563,385.8384401114206 L435.6434540389972,385.8384401114206" stroke="red" stroke-width="2" fill="none" />
<path d="M435.6434540389972,385.8384401114206 L435.6434540389972,405.7604456824513" stroke="red" stroke-width="2" fill="none" />
<path d="M435.6434540389972,405.7604456824513 L385.8384401114206,405.7604456824513" stroke="red" stroke-width="2" fill="none" />
<path d="M385.8384401114206,405.7604456824513 L372.55710306406684,402.44011142061277" stroke="red" stroke-width="2" fill="none" />
<path d="M485.44846796657384,528.6128133704735 L492.08913649025067,568.4568245125348" stroke="red" stroke-width="2" fill="none" />
<path d="M438.96378830083563,528.6128133704735 L485.44846796657384,528.6128133704735" stroke="red" stroke-width="2" fill="none" />
<path d="M438.96378830083563,525.2924791086351 L438.96378830083563,528.6128133704735" stroke="red" stroke-width="2" fill="none" />
<path d="M485.44846796657384,525.2924791086351 L438.96378830083563,525.2924791086351" stroke="red" stroke-width="2" fill="none" />
<path d="M472.1671309192201,445.60445682451257 L485.44846796657384,525.2924791086351" stroke="red" stroke-width="2" fill="none" />
<path d="M422.36211699164346,445.60445682451257 L472.1671309192201,445.60445682451257" stroke="red" stroke-width="2" fill="none" />
<path d="M422.36211699164346,442.28412256267416 L422.36211699164346,445.60445682451257" stroke="red" stroke-width="2" fill="none" />
<path d="M468.8467966573816,442.28412256267416 L422.36211699164346,442.28412256267416" stroke="red" stroke-width="2" fill="none" />
<path d="M472.1671309192201,438.96378830083574 L468.8467966573816,442.28412256267416" stroke="red" stroke-width="2" fill="none" />
<path d="M462.20612813370474,375.87743732590525 L472.1671309192201,438.96378830083574" stroke="red" stroke-width="2" fill="none" />
<path d="M412.4011142061281,352.63509749303626 L458.8857938718663,329.39275766016726" stroke="red" stroke-width="2" fill="none" />
<path d="M412.4011142061281,375.87743732590525 L412.4011142061281,352.63509749303626" stroke="red" stroke-width="2" fill="none" />
<path d="M409.0807799442897,375.87743732590525 L412.4011142061281,375.87743732590525" stroke="red" stroke-width="2" fill="none" />
<path d="M409.0807799442897,349.31476323119773 L409.0807799442897,375.87743732590525" stroke="red" stroke-width="2" fill="none" />
<path d="M458.8857938718663,322.7520891364902 L409.0807799442897,349.31476323119773" stroke="red" stroke-width="2" fill="none" />
<path d="M601.6601671309193,784.2785515320335 L601.6601671309193,787.5988857938719" stroke="red" stroke-width="2" fill="none" />
<path d="M631.5431754874652,734.4735376044569 L664.7465181058496,734.4735376044569" stroke="red" stroke-width="2" fill="none" />
<path d="M664.7465181058496,734.4735376044569 L664.7465181058496,787.5988857938719" stroke="red" stroke-width="2" fill="none" />
<path d="M664.7465181058496,787.5988857938719 L614.9415041782729,787.5988857938719" stroke="red" stroke-width="2" fill="none" />
<path d="M614.9415041782729,787.5988857938719 L601.6601671309193,784.2785515320335" stroke="red" stroke-width="2" fill="none" />
<path d="M628.2228412256268,727.83286908078 L631.5431754874652,734.4735376044569" stroke="red" stroke-width="2" fill="none" />
<path d="M468.8467966573816,375.87743732590525 L462.20612813370474,375.87743732590525" stroke="red" stroke-width="2" fill="none" />
<path d="M458.8857938718663,329.39275766016726 L465.52646239554315,329.39275766016726" stroke="red" stroke-width="2" fill="none" />
<path d="M465.52646239554315,329.39275766016726 L485.44846796657384,316.1114206128134" stroke="red" stroke-width="2" fill="none" />
<path d="M485.44846796657384,316.1114206128134 L505.3704735376045,316.1114206128134" stroke="red" stroke-width="2" fill="none" />
<path d="M505.3704735376045,316.1114206128134 L505.3704735376045,375.87743732590525" stroke="red" stroke-width="2" fill="none" />
<path d="M505.3704735376045,375.87743732590525 L468.8467966573816,375.87743732590525" stroke="red" stroke-width="2" fill="none" />
<path d="M512.0111420612814,193.25905292479115 L498.7298050139276,219.82172701949867" stroke="lavender" stroke-width="2" fill="none" />
<path d="M468.8467966573816,163.3760445682451 L485.44846796657384,133.4930362116993" stroke="red" stroke-width="2" fill="none" />
<path d="M528.6128133704735,156.73537604456828 L515.3314763231198,186.61838440111433" stroke="red" stroke-width="2" fill="none" />
<path d="M465.52646239554315,170.01671309192216 L468.8467966573816,163.3760445682451" stroke="red" stroke-width="2" fill="none" />
<path d="M515.3314763231198,186.61838440111433 L512.0111420612814,193.25905292479115" stroke="red" stroke-width="2" fill="none" />
<path d="M312.7910863509749,1016.7019498607243 L233.10306406685237,993.4596100278552" stroke="red" stroke-width="2" fill="none" />
<path d="M226.4623955431755,990.1392757660167 L126.85236768802228,953.6155988857939" stroke="red" stroke-width="2" fill="none" />
<path d="M4.0,668.066852367688 L4.0,664.7465181058496" stroke="red" stroke-width="2" fill="none" />
<path d="M4.0,664.7465181058496 L20.6016713091922,588.3788300835655" stroke="red" stroke-width="2" fill="none" />
<path d="M20.6016713091922,588.3788300835655 L47.164345403899716,588.3788300835655" stroke="red" stroke-width="2" fill="none" />
<path d="M47.164345403899716,588.3788300835655 L63.766016713091915,664.7465181058496" stroke="red" stroke-width="2" fill="none" />
<path d="M63.766016713091915,664.7465181058496 L63.766016713091915,668.066852367688" stroke="red" stroke-width="2" fill="none" />
<path d="M243.0640668523677,505.37047353760454 L256.3454038997214,508.69080779944295" stroke="red" stroke-width="2" fill="none" />
<path d="M256.3454038997214,535.2534818941505 L249.70473537604457,535.2534818941505" stroke="red" stroke-width="2" fill="none" />
<path d="M256.3454038997214,508.69080779944295 L266.30640668523677,508.69080779944295" stroke="red" stroke-width="2" fill="none" />
<path d="M266.30640668523677,535.2534818941505 L256.3454038997214,535.2534818941505" stroke="red" stroke-width="2" fill="none" />
<path d="M266.30640668523677,508.69080779944295 L282.908077994429,508.69080779944295" stroke="red" stroke-width="2" fill="none" />
<path d="M282.908077994429,508.69080779944295 L282.908077994429,535.2534818941505" stroke="lavender" stroke-width="2" fill="none" />
<path d="M282.908077994429,535.2534818941505 L266.30640668523677,535.2534818941505" stroke="red" stroke-width="2" fill="none" />
<path d="M266.30640668523677,634.8635097493037 L272.94707520891365,641.5041782729805" stroke="red" stroke-width="2" fill="none" />
<path d="M189.93871866295265,707.9108635097493 L183.29805013927577,701.2701949860725" stroke="red" stroke-width="2" fill="none" />
<path d="M319.4317548746518,1016.7019498607243 L312.7910863509749,1016.7019498607243" stroke="red" stroke-width="2" fill="none" />
<path d="M233.10306406685237,993.4596100278552 L226.4623955431755,990.1392757660167" stroke="red" stroke-width="2" fill="none" />
<path d="M485.44846796657384,133.4930362116993 L485.44846796657384,126.85236768802224" stroke="red" stroke-width="2" fill="none" />
<path d="M485.44846796657384,126.85236768802224 L452.2451253481894,83.68802228412255" stroke="red" stroke-width="2" fill="none" />
<path d="M452.2451253481894,83.68802228412255 L478.8077994428969,30.562674094707518" stroke="red" stroke-width="2" fill="none" />
<path d="M478.8077994428969,30.562674094707518 L531.9331476323121,4.0" stroke="red" stroke-width="2" fill="none" />
<path d="M531.9331476323121,4.0 L585.0584958217271,30.562674094707518" stroke="red" stroke-width="2" fill="none" />
<path d="M585.0584958217271,30.562674094707518 L611.6211699164346,83.68802228412255" stroke="red" stroke-width="2" fill="none" />
<path d="M611.6211699164346,83.68802228412255 L614.9415041782729,136.8133704735376" stroke="red" stroke-width="2" fill="none" />
<path d="M614.9415041782729,136.8133704735376 L558.4958217270196,163.3760445682451" stroke="red" stroke-width="2" fill="none" />
<path d="M558.4958217270196,163.3760445682451 L535.2534818941504,150.09470752089146" stroke="red" stroke-width="2" fill="none" />
<path d="M535.2534818941504,150.09470752089146 L528.6128133704735,156.73537604456828" stroke="red" stroke-width="2" fill="none" />
<path d="M458.8857938718663,893.849582172702 L458.8857938718663,870.607242339833" stroke="red" stroke-width="2" fill="none" />
</svg>