<?xml version="1.0" encoding="UTF-8"?>
<svg xmlns="http://www.w3.org/2000/svg" xmlns:xlink="http://www.w3.org/1999/xlink"
     width="1200" height="1201" viewBox="0 0 1200 1201">
<defs>
</defs>
<path d="M212.03773584905662,733.5377358490566 L230.311320754717,854.4245283018868" stroke="yellow" stroke-width="2" fill="none" />
<path d="M394.7735849056604,881.132075471698 L501.6037735849057,914.867924528302" stroke="yellow" stroke-width="2" fill="none" />
<path d="M590.1603773584906,914.867924528302 L771.4905660377358,951.4150943396227" stroke="yellow" stroke-width="2" fill="none" />
<path d="M771.4905660377358,951.4150943396227 L844.5849056603774,764.4622641509434" stroke="yellow" stroke-width="2" fill="none" />
<path d="M844.5849056603774,764.4622641509434 L792.5754716981132,712.4528301886793" stroke="yellow" stroke-width="2" fill="none" />
<path d="M792.5754716981132,656.2264150943396 L879.7264150943397,656.2264150943396" stroke="yellow" stroke-width="2" fill="none" />
<path d="M879.7264150943397,656.2264150943396 L879.7264150943397,538.1509433962265" stroke="yellow" stroke-width="2" fill="none" />
<path d="M879.7264150943397,538.1509433962265 L775.7075471698113,377.90566037735846" stroke="yellow" stroke-width="2" fill="none" />
<path d="M775.7075471698113,377.90566037735846 L576.1037735849056,377.90566037735846" stroke="yellow" stroke-width="2" fill="none" />
<path d="M576.1037735849056,377.90566037735846 L273.8867924528302,377.90566037735846" stroke="yellow" stroke-width="2" fill="none" />
<path d="M273.8867924528302,377.90566037735846 L219.06603773584908,498.79245283018867" stroke="yellow" stroke-width="2" fill="none" />
<path d="M383.52830188679246,577.5094339622641 L383.52830188679246,667.4716981132076" stroke="yellow" stroke-width="2" fill="none" />
<path d="M275.2924528301887,689.9622641509434 L212.03773584905662,733.5377358490566" stroke="yellow" stroke-width="2" fill="none" />
<path d="M501.6037735849057,914.867924528302 L466.46226415094344,982.3396226415094" stroke="yellow" stroke-width="2" fill="none" />
<path d="M466.46226415094344,982.3396226415094 L466.46226415094344,1016.0754716981132" stroke="yellow" stroke-width="2" fill="none" />
<path d="M466.46226415094344,1016.0754716981132 L477.70754716981133,1045.5943396226417" stroke="yellow" stroke-width="2" fill="none" />
<path d="M479.11320754716985,1048.4056603773586 L462.24528301886795,1068.0849056603774" stroke="yellow" stroke-width="2" fill="none" />
<path d="M462.24528301886795,1068.0849056603774 L462.24528301886795,1094.7924528301887" stroke="yellow" stroke-width="2" fill="none" />
<path d="M462.24528301886795,1094.7924528301887 L500.1981132075472,1106.0377358490566" stroke="yellow" stroke-width="2" fill="none" />
<path d="M500.1981132075472,1106.0377358490566 L533.933962264151,1083.5471698113208" stroke="yellow" stroke-width="2" fill="none" />
<path d="M533.933962264151,1083.5471698113208 L518.4716981132076,1045.5943396226417" stroke="yellow" stroke-width="2" fill="none" />
<path d="M518.4716981132076,1045.5943396226417 L493.1698113207547,1045.5943396226417" stroke="yellow" stroke-width="2" fill="none" />
<path d="M491.76415094339626,1042.7830188679245 L479.11320754716985,1011.8584905660377" stroke="yellow" stroke-width="2" fill="none" />
<path d="M479.11320754716985,1011.8584905660377 L479.11320754716985,982.3396226415094" stroke="yellow" stroke-width="2" fill="none" />
<path d="M479.11320754716985,982.3396226415094 L533.933962264151,914.867924528302" stroke="yellow" stroke-width="2" fill="none" />
<path d="M770.0849056603774,1094.7924528301887 L702.6132075471698,1094.7924528301887" stroke="yellow" stroke-width="2" fill="none" />
<path d="M708.2358490566038,1097.6037735849056 L764.4622641509434,1097.6037735849056" stroke="yellow" stroke-width="2" fill="none" />
<path d="M623.8962264150944,712.4528301886793 L590.1603773584906,746.1886792452831" stroke="yellow" stroke-width="2" fill="none" />
<path d="M567.6698113207548,824.9056603773585 L533.933962264151,858.6415094339623" stroke="yellow" stroke-width="2" fill="none" />
<path d="M702.6132075471698,836.1509433962265 L713.8584905660377,824.9056603773585" stroke="lavender" stroke-width="2" fill="none" />
<path d="M711.0471698113208,822.0943396226415 L699.8018867924528,833.3396226415094" stroke="lavender" stroke-width="2" fill="none" />
<path d="M712.4528301886793,688.5566037735849 L734.9433962264152,666.066037735849" stroke="yellow" stroke-width="2" fill="none" />
<path d="M744.7830188679245,661.8490566037735 L781.3301886792453,661.8490566037735" stroke="yellow" stroke-width="2" fill="none" />
<path d="M786.9528301886793,667.4716981132076 L786.9528301886793,706.8301886792453" stroke="yellow" stroke-width="2" fill="none" />
<path d="M757.433962264151,729.3207547169811 L757.433962264151,741.9716981132076" stroke="lavender" stroke-width="2" fill="none" />
<path d="M774.3018867924529,712.4528301886793 L786.9528301886793,712.4528301886793" stroke="yellow" stroke-width="2" fill="none" />
<path d="M757.433962264151,712.4528301886793 L774.3018867924529,725.1037735849056" stroke="yellow" stroke-width="2" fill="none" />
<path d="M792.5754716981132,706.8301886792453 L792.5754716981132,667.4716981132076" stroke="yellow" stroke-width="2" fill="none" />
<path d="M781.3301886792453,656.2264150943396 L744.7830188679245,656.2264150943396" stroke="yellow" stroke-width="2" fill="none" />
<path d="M730.7264150943397,661.8490566037735 L708.2358490566038,684.3396226415094" stroke="yellow" stroke-width="2" fill="none" />
<path d="M601.4056603773586,746.1886792452831 L623.8962264150944,723.6981132075472" stroke="yellow" stroke-width="2" fill="none" />
<path d="M685.7452830188679,758.8396226415094 L644.9811320754717,799.6037735849056" stroke="yellow" stroke-width="2" fill="none" />
<path d="M647.7924528301887,802.4150943396227 L688.5566037735849,761.6509433962265" stroke="yellow" stroke-width="2" fill="none" />
<path d="M536.7452830188679,912.0566037735849 L564.8584905660377,883.9433962264151" stroke="yellow" stroke-width="2" fill="none" />
<path d="M587.3490566037735,912.0566037735849 L587.3490566037735,883.9433962264151" stroke="lavender" stroke-width="2" fill="none" />
<path d="M536.7452830188679,861.4528301886792 L564.8584905660377,861.4528301886792" stroke="yellow" stroke-width="2" fill="none" />
<path d="M536.7452830188679,861.4528301886792 L570.4811320754717,827.7169811320755" stroke="yellow" stroke-width="2" fill="none" />
<path d="M601.4056603773586,785.5471698113208 L612.6509433962265,785.5471698113208" stroke="yellow" stroke-width="2" fill="none" />
<path d="M601.4056603773586,779.9245283018868 L612.6509433962265,779.9245283018868" stroke="yellow" stroke-width="2" fill="none" />
<path d="M601.4056603773586,774.3018867924528 L612.6509433962265,774.3018867924528" stroke="yellow" stroke-width="2" fill="none" />
<path d="M601.4056603773586,768.6792452830189 L612.6509433962265,768.6792452830189" stroke="yellow" stroke-width="2" fill="none" />
<path d="M601.4056603773586,763.0566037735849 L612.6509433962265,763.0566037735849" stroke="yellow" stroke-width="2" fill="none" />
<path d="M601.4056603773586,757.433962264151 L612.6509433962265,757.433962264151" stroke="yellow" stroke-width="2" fill="none" />
<path d="M702.6132075471698,847.3962264150944 L725.1037735849056,824.9056603773585" stroke="yellow" stroke-width="2" fill="none" />
<path d="M601.4056603773586,827.7169811320755 L612.6509433962265,831.933962264151" stroke="yellow" stroke-width="2" fill="none" />
<path d="M708.2358490566038,722.2924528301887 L718.0754716981132,726.5094339622642" stroke="yellow" stroke-width="2" fill="none" />
<path d="M479.11320754716985,982.3396226415094 L771.4905660377358,951.4150943396227" stroke="yellow" stroke-width="2" fill="none" />
<path d="M844.5849056603774,764.4622641509434 L879.7264150943397,656.2264150943396" stroke="yellow" stroke-width="2" fill="none" />
<path d="M616.867924528302,758.8396226415094 L647.7924528301887,741.9716981132076" stroke="yellow" stroke-width="2" fill="none" />
<path d="M647.7924528301887,741.9716981132076 L647.7924528301887,723.6981132075472" stroke="yellow" stroke-width="2" fill="none" />
<path d="M501.6037735849057,914.867924528302 L533.933962264151,914.867924528302" stroke="yellow" stroke-width="2" fill="none" />
<path d="M477.70754716981133,1045.5943396226417 L491.76415094339626,1042.7830188679245" stroke="lavender" stroke-width="2" fill="none" />
<path d="M493.1698113207547,1045.5943396226417 L479.11320754716985,1048.4056603773586" stroke="yellow" stroke-width="2" fill="none" />
<path d="M522.6886792452831,791.1698113207547 L500.1981132075472,768.6792452830189" stroke="yellow" stroke-width="2" fill="none" />
<path d="M500.1981132075472,772.8962264150944 L518.4716981132076,791.1698113207547" stroke="yellow" stroke-width="2" fill="none" />
<path d="M518.4716981132076,704.0188679245283 L552.2075471698113,636.5471698113207" stroke="lavender" stroke-width="2" fill="none" />
<path d="M623.8962264150944,674.5 L605.622641509434,656.2264150943396" stroke="yellow" stroke-width="2" fill="none" />
<path d="M601.4056603773586,656.2264150943396 L623.8962264150944,678.7169811320755" stroke="yellow" stroke-width="2" fill="none" />
<path d="M972.5,734.9433962264151 L1051.2169811320755,734.9433962264151" stroke="yellow" stroke-width="2" fill="none" />
<path d="M1051.2169811320755,734.9433962264151 L1073.7075471698113,684.3396226415094" stroke="yellow" stroke-width="2" fill="none" />
<path d="M1073.7075471698113,684.3396226415094 L1051.2169811320755,633.7358490566038" stroke="yellow" stroke-width="2" fill="none" />
<path d="M1051.2169811320755,633.7358490566038 L971.0943396226415,633.7358490566038" stroke="yellow" stroke-width="2" fill="none" />
<path d="M971.0943396226415,633.7358490566038 L950.0094339622642,684.3396226415094" stroke="yellow" stroke-width="2" fill="none" />
<path d="M950.0094339622642,684.3396226415094 L972.5,734.9433962264151" stroke="yellow" stroke-width="2" fill="none" />
<path d="M1039.9716981132076,689.9622641509434 L1039.9716981132076,678.7169811320755" stroke="lavender" stroke-width="2" fill="none" />
<path d="M1017.4811320754717,644.9811320754717 L1006.2358490566038,644.9811320754717" stroke="yellow" stroke-width="2" fill="none" />
<path d="M1051.2169811320755,689.9622641509434 L1051.2169811320755,678.7169811320755" stroke="yellow" stroke-width="2" fill="none" />
<path d="M1006.2358490566038,723.6981132075472 L1017.4811320754717,723.6981132075472" stroke="yellow" stroke-width="2" fill="none" />
<path d="M1038.566037735849,678.7169811320755 L1038.566037735849,689.9622641509434" stroke="lavender" stroke-width="2" fill="none" />
<path d="M1020.2924528301887,699.8018867924528 L1021.6981132075472,699.8018867924528" stroke="yellow" stroke-width="2" fill="none" />
<path d="M1021.6981132075472,699.8018867924528 L1021.6981132075472,691.3679245283018" stroke="yellow" stroke-width="2" fill="none" />
<path d="M1021.6981132075472,691.3679245283018 L1038.566037735849,691.3679245283018" stroke="yellow" stroke-width="2" fill="none" />
<path d="M1020.2924528301887,689.9622641509434 L1020.2924528301887,699.8018867924528" stroke="yellow" stroke-width="2" fill="none" />
<path d="M1038.566037735849,689.9622641509434 L1020.2924528301887,689.9622641509434" stroke="yellow" stroke-width="2" fill="none" />
<path d="M1020.2924528301887,668.877358490566 L1034.3490566037735,668.877358490566" stroke="yellow" stroke-width="2" fill="none" />
<path d="M1034.3490566037735,668.877358490566 L1034.3490566037735,678.7169811320755" stroke="yellow" stroke-width="2" fill="none" />
<path d="M1034.3490566037735,678.7169811320755 L1035.754716981132,678.7169811320755" stroke="yellow" stroke-width="2" fill="none" />
<path d="M1035.754716981132,678.7169811320755 L1035.754716981132,667.4716981132076" stroke="yellow" stroke-width="2" fill="none" />
<path d="M1035.754716981132,667.4716981132076 L1020.2924528301887,667.4716981132076" stroke="yellow" stroke-width="2" fill="none" />
<path d="M1020.2924528301887,667.4716981132076 L1020.2924528301887,668.877358490566" stroke="yellow" stroke-width="2" fill="none" />
<path d="M980.933962264151,722.2924528301887 L980.933962264151,715.2641509433962" stroke="yellow" stroke-width="2" fill="none" />
<path d="M980.933962264151,715.2641509433962 L973.9056603773586,715.2641509433962" stroke="yellow" stroke-width="2" fill="none" />
<path d="M973.9056603773586,653.4150943396227 L980.933962264151,653.4150943396227" stroke="yellow" stroke-width="2" fill="none" />
<path d="M980.933962264151,653.4150943396227 L980.933962264151,646.3867924528302" stroke="yellow" stroke-width="2" fill="none" />
<path d="M1004.8301886792453,659.0377358490566 L992.1792452830189,659.0377358490566" stroke="lavender" stroke-width="2" fill="none" />
<path d="M992.1792452830189,659.0377358490566 L992.1792452830189,646.3867924528302" stroke="lavender" stroke-width="2" fill="none" />
<path d="M972.5,678.7169811320755 L972.5,689.9622641509434" stroke="yellow" stroke-width="2" fill="none" />
<path d="M354.00943396226415,734.9433962264151 L275.2924528301887,689.9622641509434" stroke="yellow" stroke-width="2" fill="none" />
<path d="M230.311320754717,854.4245283018868 L354.00943396226415,854.4245283018868" stroke="yellow" stroke-width="2" fill="none" />
<path d="M354.00943396226415,854.4245283018868 L354.00943396226415,813.6603773584906" stroke="yellow" stroke-width="2" fill="none" />
<path d="M383.52830188679246,751.8113207547169 L354.00943396226415,734.9433962264151" stroke="yellow" stroke-width="2" fill="none" />
<path d="M372.2830188679245,757.433962264151 L383.52830188679246,757.433962264151" stroke="yellow" stroke-width="2" fill="none" />
<path d="M383.52830188679246,791.1698113207547 L372.2830188679245,791.1698113207547" stroke="yellow" stroke-width="2" fill="none" />
<path d="M354.00943396226415,813.6603773584906 L383.52830188679246,796.7924528301887" stroke="yellow" stroke-width="2" fill="none" />
<path d="M354.00943396226415,734.9433962264151 L354.00943396226415,813.6603773584906" stroke="yellow" stroke-width="2" fill="none" />
<path d="M394.7735849056604,791.1698113207547 L394.7735849056604,757.433962264151" stroke="yellow" stroke-width="2" fill="none" />
<path d="M383.52830188679246,791.1698113207547 L383.52830188679246,757.433962264151" stroke="yellow" stroke-width="2" fill="none" />
<path d="M372.2830188679245,791.1698113207547 L372.2830188679245,757.433962264151" stroke="yellow" stroke-width="2" fill="none" />
<path d="M361.0377358490566,791.1698113207547 L361.0377358490566,757.433962264151" stroke="yellow" stroke-width="2" fill="none" />
<path d="M361.0377358490566,757.433962264151 L372.2830188679245,757.433962264151" stroke="yellow" stroke-width="2" fill="none" />
<path d="M372.2830188679245,791.1698113207547 L361.0377358490566,791.1698113207547" stroke="yellow" stroke-width="2" fill="none" />
<path d="M286.5377358490566,757.433962264151 L264.04716981132077,779.9245283018868" stroke="lavender" stroke-width="2" fill="none" />
<path d="M264.04716981132077,779.9245283018868 L286.5377358490566,802.4150943396227" stroke="lavender" stroke-width="2" fill="none" />
<path d="M286.5377358490566,802.4150943396227 L297.7830188679245,791.1698113207547" stroke="lavender" stroke-width="2" fill="none" />
<path d="M297.7830188679245,791.1698113207547 L297.7830188679245,768.6792452830189" stroke="lavender" stroke-width="2" fill="none" />
<path d="M297.7830188679245,768.6792452830189 L286.5377358490566,757.433962264151" stroke="lavender" stroke-width="2" fill="none" />
<path d="M354.00943396226415,854.4245283018868 L466.46226415094344,982.3396226415094" stroke="yellow" stroke-width="2" fill="none" />
<path d="M871.2924528301887,487.54716981132077 L905.0283018867924,487.54716981132077" stroke="yellow" stroke-width="2" fill="none" />
<path d="M905.0283018867924,476.3018867924528 L882.5377358490566,476.3018867924528" stroke="yellow" stroke-width="2" fill="none" />
<path d="M882.5377358490566,476.3018867924528 L882.5377358490566,453.811320754717" stroke="yellow" stroke-width="2" fill="none" />
<path d="M871.2924528301887,453.811320754717 L871.2924528301887,487.54716981132077" stroke="yellow" stroke-width="2" fill="none" />
<path d="M803.8207547169811,600.0 L815.066037735849,600.0" stroke="yellow" stroke-width="2" fill="none" />
<path d="M815.066037735849,600.0 L826.311320754717,577.5094339622641" stroke="yellow" stroke-width="2" fill="none" />
<path d="M826.311320754717,577.5094339622641 L826.311320754717,567.6698113207547" stroke="yellow" stroke-width="2" fill="none" />
<path d="M803.8207547169811,588.7547169811321 L803.8207547169811,600.0" stroke="yellow" stroke-width="2" fill="none" />
<path d="M770.0849056603774,600.0 L781.3301886792453,600.0" stroke="yellow" stroke-width="2" fill="none" />
<path d="M781.3301886792453,600.0 L781.3301886792453,588.7547169811321" stroke="yellow" stroke-width="2" fill="none" />
<path d="M758.8396226415094,567.6698113207547 L758.8396226415094,577.5094339622641" stroke="yellow" stroke-width="2" fill="none" />
<path d="M758.8396226415094,577.5094339622641 L770.0849056603774,600.0" stroke="yellow" stroke-width="2" fill="none" />
<path d="M779.9245283018868,510.0377358490566 L770.0849056603774,510.0377358490566" stroke="yellow" stroke-width="2" fill="none" />
<path d="M770.0849056603774,510.0377358490566 L758.8396226415094,532.5283018867924" stroke="yellow" stroke-width="2" fill="none" />
<path d="M758.8396226415094,532.5283018867924 L758.8396226415094,542.3679245283018" stroke="yellow" stroke-width="2" fill="none" />
<path d="M826.311320754717,542.3679245283018 L826.311320754717,532.5283018867924" stroke="lavender" stroke-width="2" fill="none" />
<path d="M826.311320754717,532.5283018867924 L815.066037735849,510.0377358490566" stroke="lavender" stroke-width="2" fill="none" />
<path d="M815.066037735849,510.0377358490566 L805.2264150943397,510.0377358490566" stroke="lavender" stroke-width="2" fill="none" />
<path d="M781.3301886792453,588.7547169811321 L781.3301886792453,583.1320754716982" stroke="yellow" stroke-width="2" fill="none" />
<path d="M803.8207547169811,583.1320754716982 L803.8207547169811,588.7547169811321" stroke="yellow" stroke-width="2" fill="none" />
<path d="M781.3301886792453,600.0 L803.8207547169811,600.0" stroke="yellow" stroke-width="2" fill="none" />
<path d="M781.3301886792453,588.7547169811321 L803.8207547169811,588.7547169811321" stroke="yellow" stroke-width="2" fill="none" />
<path d="M781.3301886792453,583.1320754716982 L803.8207547169811,583.1320754716982" stroke="yellow" stroke-width="2" fill="none" />
<path d="M781.3301886792453,577.5094339622641 L803.8207547169811,577.5094339622641" stroke="yellow" stroke-width="2" fill="none" />
<path d="M781.3301886792453,571.8867924528302 L803.8207547169811,571.8867924528302" stroke="yellow" stroke-width="2" fill="none" />
<path d="M781.3301886792453,567.6698113207547 L803.8207547169811,567.6698113207547" stroke="lavender" stroke-width="2" fill="none" />
<path d="M803.8207547169811,566.2641509433962 L781.3301886792453,566.2641509433962" stroke="lavender" stroke-width="2" fill="none" />
<path d="M781.3301886792453,571.8867924528302 L781.3301886792453,577.5094339622641" stroke="yellow" stroke-width="2" fill="none" />
<path d="M803.8207547169811,577.5094339622641 L803.8207547169811,571.8867924528302" stroke="yellow" stroke-width="2" fill="none" />
<path d="M781.3301886792453,567.6698113207547 L781.3301886792453,571.8867924528302" stroke="yellow" stroke-width="2" fill="none" />
<path d="M803.8207547169811,571.8867924528302 L803.8207547169811,567.6698113207547" stroke="yellow" stroke-width="2" fill="none" />
<path d="M781.3301886792453,583.1320754716982 L781.3301886792453,577.5094339622641" stroke="yellow" stroke-width="2" fill="none" />
<path d="M803.8207547169811,577.5094339622641 L803.8207547169811,583.1320754716982" stroke="yellow" stroke-width="2" fill="none" />
<path d="M770.0849056603774,566.2641509433962 L770.0849056603774,555.0188679245283" stroke="lavender" stroke-width="2" fill="none" />
<path d="M770.0849056603774,555.0188679245283 L760.2452830188679,555.0188679245283" stroke="lavender" stroke-width="2" fill="none" />
<path d="M824.9056603773586,555.0188679245283 L815.066037735849,555.0188679245283" stroke="lavender" stroke-width="2" fill="none" />
<path d="M815.066037735849,555.0188679245283 L815.066037735849,566.2641509433962" stroke="lavender" stroke-width="2" fill="none" />
<path d="M646.3867924528302,588.7547169811321 L708.2358490566038,526.9056603773585" stroke="lavender" stroke-width="2" fill="none" />
<path d="M640.7641509433963,583.1320754716982 L632.3301886792453,574.6981132075472" stroke="yellow" stroke-width="2" fill="none" />
<path d="M632.3301886792453,563.4528301886793 L623.8962264150944,555.0188679245283" stroke="yellow" stroke-width="2" fill="none" />
<path d="M694.1792452830189,512.8490566037735 L702.6132075471698,521.2830188679245" stroke="yellow" stroke-width="2" fill="none" />
<path d="M674.5,504.41509433962267 L682.933962264151,512.8490566037735" stroke="yellow" stroke-width="2" fill="none" />
<path d="M630.9245283018868,519.877358490566 L639.3584905660377,511.4433962264151" stroke="lavender" stroke-width="2" fill="none" />
<path d="M569.0754716981132,508.6320754716981 L559.2358490566038,498.79245283018867" stroke="lavender" stroke-width="2" fill="none" />
<path d="M563.4528301886793,452.40566037735846 L538.1509433962265,477.70754716981133" stroke="yellow" stroke-width="2" fill="none" />
<path d="M574.6981132075472,463.6509433962264 L549.3962264150944,488.95283018867923" stroke="yellow" stroke-width="2" fill="none" />
<path d="M584.5377358490566,473.49056603773585 L559.2358490566038,498.79245283018867" stroke="lavender" stroke-width="2" fill="none" />
<path d="M594.377358490566,483.3301886792453 L569.0754716981132,508.6320754716981" stroke="lavender" stroke-width="2" fill="none" />
<path d="M608.433962264151,497.3867924528302 L583.1320754716982,522.688679245283" stroke="yellow" stroke-width="2" fill="none" />
<path d="M621.0849056603774,510.0377358490566 L595.7830188679245,535.3396226415094" stroke="yellow" stroke-width="2" fill="none" />
<path d="M618.2735849056604,439.7547169811321 L628.1132075471698,449.59433962264154" stroke="lavender" stroke-width="2" fill="none" />
<path d="M574.6981132075472,463.6509433962264 L584.5377358490566,473.49056603773585" stroke="yellow" stroke-width="2" fill="none" />
<path d="M563.4528301886793,452.40566037735846 L574.6981132075472,463.6509433962264" stroke="yellow" stroke-width="2" fill="none" />
<path d="M536.7452830188679,425.6981132075472 L563.4528301886793,452.40566037735846" stroke="yellow" stroke-width="2" fill="none" />
<path d="M635.1415094339623,507.2264150943396 L629.5188679245283,501.60377358490564" stroke="yellow" stroke-width="2" fill="none" />
<path d="M616.867924528302,488.95283018867923 L602.811320754717,474.89622641509436" stroke="yellow" stroke-width="2" fill="none" />
<path d="M629.5188679245283,501.60377358490564 L616.867924528302,488.95283018867923" stroke="yellow" stroke-width="2" fill="none" />
<path d="M635.1415094339623,507.2264150943396 L626.7075471698113,515.6603773584906" stroke="lavender" stroke-width="2" fill="none" />
<path d="M571.8867924528302,443.97169811320754 L597.1886792452831,418.6698113207547" stroke="yellow" stroke-width="2" fill="none" />
<path d="M583.1320754716982,455.2169811320755 L608.433962264151,429.91509433962267" stroke="yellow" stroke-width="2" fill="none" />
<path d="M592.9716981132076,465.0566037735849 L618.2735849056604,439.7547169811321" stroke="lavender" stroke-width="2" fill="none" />
<path d="M602.811320754717,474.89622641509436 L628.1132075471698,449.59433962264154" stroke="lavender" stroke-width="2" fill="none" />
<path d="M616.867924528302,488.95283018867923 L642.1698113207548,463.6509433962264" stroke="yellow" stroke-width="2" fill="none" />
<path d="M629.5188679245283,501.60377358490564 L654.8207547169811,476.3018867924528" stroke="yellow" stroke-width="2" fill="none" />
<path d="M545.1792452830189,417.2641509433962 L571.8867924528302,443.97169811320754" stroke="yellow" stroke-width="2" fill="none" />
<path d="M571.8867924528302,443.97169811320754 L583.1320754716982,455.2169811320755" stroke="yellow" stroke-width="2" fill="none" />
<path d="M583.1320754716982,455.2169811320755 L592.9716981132076,465.0566037735849" stroke="yellow" stroke-width="2" fill="none" />
<path d="M608.433962264151,497.3867924528302 L594.377358490566,483.3301886792453" stroke="yellow" stroke-width="2" fill="none" />
<path d="M621.0849056603774,510.0377358490566 L608.433962264151,497.3867924528302" stroke="yellow" stroke-width="2" fill="none" />
<path d="M626.7075471698113,515.6603773584906 L621.0849056603774,510.0377358490566" stroke="yellow" stroke-width="2" fill="none" />
<path d="M630.9245283018868,446.7830188679245 L621.0849056603774,436.9433962264151" stroke="yellow" stroke-width="2" fill="none" />
<path d="M567.6698113207548,510.0377358490566 L556.4245283018868,510.0377358490566" stroke="lavender" stroke-width="2" fill="none" />
<path d="M571.8867924528302,122.07547169811318 L556.4245283018868,138.94339622641508" stroke="yellow" stroke-width="2" fill="none" />
<path d="M623.8962264150944,122.07547169811318 L571.8867924528302,122.07547169811318" stroke="yellow" stroke-width="2" fill="none" />
<path d="M556.4245283018868,138.94339622641508 L577.5094339622642,161.43396226415092" stroke="yellow" stroke-width="2" fill="none" />
<path d="M823.5,4.0 L553.6132075471698,339.95283018867923" stroke="yellow" stroke-width="2" fill="none" />
<path d="M553.6132075471698,339.95283018867923 L327.3018867924528,4.0" stroke="yellow" stroke-width="2" fill="none" />
<path d="M533.933962264151,183.92452830188677 L556.4245283018868,183.92452830188677" stroke="yellow" stroke-width="2" fill="none" />
<path d="M556.4245283018868,183.92452830188677 L556.4245283018868,161.43396226415092" stroke="yellow" stroke-width="2" fill="none" />
<path d="M556.4245283018868,161.43396226415092 L533.933962264151,161.43396226415092" stroke="yellow" stroke-width="2" fill="none" />
<path d="M533.933962264151,161.43396226415092 L533.933962264151,183.92452830188677" stroke="yellow" stroke-width="2" fill="none" />
<path d="M535.3396226415094,182.5188679245283 L535.3396226415094,162.83962264150944" stroke="yellow" stroke-width="2" fill="none" />
<path d="M545.1792452830189,162.83962264150944 L555.0188679245283,162.83962264150944" stroke="lavender" stroke-width="2" fill="none" />
<path d="M535.3396226415094,162.83962264150944 L545.1792452830189,162.83962264150944" stroke="lavender" stroke-width="2" fill="none" />
<path d="M555.0188679245283,172.67924528301887 L555.0188679245283,182.5188679245283" stroke="lavender" stroke-width="2" fill="none" />
<path d="M555.0188679245283,162.83962264150944 L555.0188679245283,172.67924528301887" stroke="lavender" stroke-width="2" fill="none" />
<path d="M555.0188679245283,182.5188679245283 L535.3396226415094,182.5188679245283" stroke="yellow" stroke-width="2" fill="none" />
<path d="M545.1792452830189,162.83962264150944 L545.1792452830189,172.67924528301887" stroke="lavender" stroke-width="2" fill="none" />
<path d="M545.1792452830189,172.67924528301887 L555.0188679245283,172.67924528301887" stroke="lavender" stroke-width="2" fill="none" />
<path d="M376.5,453.811320754717 L309.02830188679246,453.811320754717" stroke="yellow" stroke-width="2" fill="none" />
<path d="M442.5660377358491,529.7169811320755 L396.1792452830189,465.0566037735849" stroke="yellow" stroke-width="2" fill="none" />
<path d="M396.1792452830189,465.0566037735849 L429.91509433962267,408.8301886792453" stroke="yellow" stroke-width="2" fill="none" />
<path d="M456.622641509434,408.8301886792453 L456.622641509434,386.33962264150944" stroke="lavender" stroke-width="2" fill="none" />
<path d="M411.64150943396226,386.33962264150944 L376.5,453.811320754717" stroke="yellow" stroke-width="2" fill="none" />
<path d="M275.2924528301887,543.7735849056604 L286.5377358490566,543.7735849056604" stroke="lavender" stroke-width="2" fill="none" />
<path d="M449.59433962264154,391.9622641509434 L443.97169811320754,397.58490566037733" stroke="yellow" stroke-width="2" fill="none" />
<path d="M443.97169811320754,397.58490566037733 L449.59433962264154,403.2075471698113" stroke="yellow" stroke-width="2" fill="none" />
<path d="M427.1037735849057,406.0188679245283 L393.3679245283019,462.2452830188679" stroke="yellow" stroke-width="2" fill="none" />
<path d="M393.3679245283019,467.8679245283019 L439.7547169811321,532.5283018867924" stroke="yellow" stroke-width="2" fill="none" />
<path d="M309.02830188679246,456.62264150943395 L375.09433962264154,456.62264150943395" stroke="yellow" stroke-width="2" fill="none" />
<path d="M380.7169811320755,455.2169811320755 L415.85849056603774,389.1509433962264" stroke="yellow" stroke-width="2" fill="none" />
<path d="M309.02830188679246,473.49056603773585 L309.02830188679246,456.62264150943395" stroke="yellow" stroke-width="2" fill="none" />
<path d="M306.2169811320755,456.62264150943395 L306.2169811320755,473.49056603773585" stroke="yellow" stroke-width="2" fill="none" />
<path d="M414.4528301886793,535.3396226415094 L439.7547169811321,535.3396226415094" stroke="yellow" stroke-width="2" fill="none" />
<path d="M439.7547169811321,532.5283018867924 L413.04716981132077,532.5283018867924" stroke="yellow" stroke-width="2" fill="none" />
<path d="M230.311320754717,577.5094339622641 L241.55660377358492,577.5094339622641" stroke="yellow" stroke-width="2" fill="none" />
<path d="M286.5377358490566,633.7358490566038 L286.5377358490566,600.0" stroke="yellow" stroke-width="2" fill="none" />
<path d="M275.2924528301887,600.0 L275.2924528301887,633.7358490566038" stroke="yellow" stroke-width="2" fill="none" />
<path d="M241.55660377358492,543.7735849056604 L241.55660377358492,532.5283018867924" stroke="lavender" stroke-width="2" fill="none" />
<path d="M275.2924528301887,532.5283018867924 L275.2924528301887,543.7735849056604" stroke="yellow" stroke-width="2" fill="none" />
<path d="M259.83018867924534,543.7735849056604 L259.83018867924534,532.5283018867924" stroke="lavender" stroke-width="2" fill="none" />
<path d="M257.0188679245283,532.5283018867924 L257.0188679245283,543.7735849056604" stroke="yellow" stroke-width="2" fill="none" />
<path d="M286.5377358490566,352.60377358490564 L332.9245283018868,318.8679245283019" stroke="yellow" stroke-width="2" fill="none" />
<path d="M321.6792452830189,318.8679245283019 L286.5377358490566,341.35849056603774" stroke="yellow" stroke-width="2" fill="none" />
<path d="M533.933962264151,127.69811320754718 L511.44339622641513,127.69811320754718" stroke="yellow" stroke-width="2" fill="none" />
<path d="M511.44339622641513,127.69811320754718 L511.44339622641513,150.18867924528303" stroke="yellow" stroke-width="2" fill="none" />
<path d="M511.44339622641513,150.18867924528303 L533.933962264151,150.18867924528303" stroke="yellow" stroke-width="2" fill="none" />
<path d="M533.933962264151,150.18867924528303 L533.933962264151,127.69811320754718" stroke="yellow" stroke-width="2" fill="none" />
<path d="M387.74528301886795,161.43396226415092 L387.74528301886795,138.94339622641508" stroke="yellow" stroke-width="2" fill="none" />
<path d="M383.52830188679246,138.94339622641508 L383.52830188679246,161.43396226415092" stroke="yellow" stroke-width="2" fill="none" />
<path d="M758.8396226415094,341.35849056603774 L860.0471698113208,341.35849056603774" stroke="yellow" stroke-width="2" fill="none" />
<path d="M848.8018867924529,330.1132075471698 L770.0849056603774,330.1132075471698" stroke="yellow" stroke-width="2" fill="none" />
<path d="M601.4056603773586,82.71698113207549 L623.8962264150944,82.71698113207549" stroke="yellow" stroke-width="2" fill="none" />
<path d="M623.8962264150944,82.71698113207549 L623.8962264150944,37.7358490566038" stroke="yellow" stroke-width="2" fill="none" />
<path d="M623.8962264150944,37.7358490566038 L601.4056603773586,37.7358490566038" stroke="yellow" stroke-width="2" fill="none" />
<path d="M601.4056603773586,37.7358490566038 L601.4056603773586,82.71698113207549" stroke="yellow" stroke-width="2" fill="none" />
<path d="M602.811320754717,81.31132075471692 L607.0283018867924,51.79245283018872" stroke="yellow" stroke-width="2" fill="none" />
<path d="M618.2735849056604,51.79245283018872 L622.4905660377359,81.31132075471692" stroke="yellow" stroke-width="2" fill="none" />
<path d="M622.4905660377359,81.31132075471692 L602.811320754717,81.31132075471692" stroke="yellow" stroke-width="2" fill="none" />
<path d="M607.0283018867924,51.79245283018872 L618.2735849056604,51.79245283018872" stroke="lavender" stroke-width="2" fill="none" />
<path d="M623.8962264150944,555.0188679245283 L674.5,504.41509433962267" stroke="yellow" stroke-width="2" fill="none" />
<path d="M185.33018867924528,498.79245283018867 L212.03773584905662,733.5377358490566" stroke="yellow" stroke-width="2" fill="none" />
<path d="M219.06603773584908,498.79245283018867 L185.33018867924528,498.79245283018867" stroke="yellow" stroke-width="2" fill="none" />
<path d="M601.4056603773586,150.18867924528303 L612.6509433962265,150.18867924528303" stroke="lavender" stroke-width="2" fill="none" />
<path d="M415.85849056603774,389.1509433962264 L427.1037735849057,406.0188679245283" stroke="lavender" stroke-width="2" fill="none" />
<path d="M781.3301886792453,566.2641509433962 L781.3301886792453,560.6415094339623" stroke="yellow" stroke-width="2" fill="none" />
<path d="M781.3301886792453,560.6415094339623 L803.8207547169811,560.6415094339623" stroke="yellow" stroke-width="2" fill="none" />
<path d="M803.8207547169811,560.6415094339623 L803.8207547169811,566.2641509433962" stroke="yellow" stroke-width="2" fill="none" />
<path d="M219.06603773584908,577.5094339622641 L214.8490566037736,583.1320754716982" stroke="yellow" stroke-width="2" fill="none" />
<path d="M214.8490566037736,583.1320754716982 L223.28301886792454,584.5377358490566" stroke="yellow" stroke-width="2" fill="none" />
<path d="M223.28301886792454,584.5377358490566 L227.5,590.1603773584906" stroke="yellow" stroke-width="2" fill="none" />
<path d="M227.5,590.1603773584906 L233.12264150943398,585.9433962264151" stroke="yellow" stroke-width="2" fill="none" />
<path d="M233.12264150943398,585.9433962264151 L240.15094339622644,587.3490566037735" stroke="yellow" stroke-width="2" fill="none" />
<path d="M240.15094339622644,587.3490566037735 L245.77358490566039,583.1320754716982" stroke="yellow" stroke-width="2" fill="none" />
<path d="M245.77358490566039,583.1320754716982 L241.55660377358492,577.5094339622641" stroke="yellow" stroke-width="2" fill="none" />
<path d="M1196.0,673.0943396226415 L848.8018867924529,1197.4056603773583" stroke="red" stroke-width="2" fill="none" />
<path d="M848.8018867924529,1197.4056603773583 L338.54716981132077,1197.4056603773583" stroke="red" stroke-width="2" fill="none" />
<path d="M338.54716981132077,1197.4056603773583 L4.0,689.9622641509434" stroke="red" stroke-width="2" fill="none" />
<path d="M4.0,689.9622641509434 L327.3018867924528,4.0" stroke="red" stroke-width="2" fill="none" />
<path d="M327.3018867924528,4.0 L823.5,4.0" stroke="red" stroke-width="2" fill="none" />
<path d="M823.5,4.0 L1196.0,673.0943396226415" stroke="red" stroke-width="2" fill="none" />
<path d="M715.2641509433963,1139.7735849056603 L758.8396226415094,1139.7735849056603" stroke="red" stroke-width="2" fill="none" />
<path d="M758.8396226415094,1139.7735849056603 L770.0849056603774,1094.7924528301887" stroke="red" stroke-width="2" fill="none" />
<path d="M770.0849056603774,1094.7924528301887 L764.4622641509434,1097.6037735849056" stroke="red" stroke-width="2" fill="none" />
<path d="M764.4622641509434,1097.6037735849056 L754.6226415094341,1136.9622641509434" stroke="red" stroke-width="2" fill="none" />
<path d="M754.6226415094341,1136.9622641509434 L719.4811320754717,1136.9622641509434" stroke="red" stroke-width="2" fill="none" />
<path d="M719.4811320754717,1136.9622641509434 L708.2358490566038,1097.6037735849056" stroke="red" stroke-width="2" fill="none" />
<path d="M708.2358490566038,1097.6037735849056 L702.6132075471698,1094.7924528301887" stroke="red" stroke-width="2" fill="none" />
<path d="M702.6132075471698,1094.7924528301887 L715.2641509433963,1139.7735849056603" stroke="red" stroke-width="2" fill="none" />
<path d="M623.8962264150944,847.3962264150944 L702.6132075471698,847.3962264150944" stroke="red" stroke-width="2" fill="none" />
<path d="M702.6132075471698,847.3962264150944 L702.6132075471698,836.1509433962265" stroke="red" stroke-width="2" fill="none" />
<path d="M702.6132075471698,836.1509433962265 L699.8018867924528,833.3396226415094" stroke="red" stroke-width="2" fill="none" />
<path d="M711.0471698113208,822.0943396226415 L713.8584905660377,824.9056603773585" stroke="red" stroke-width="2" fill="none" />
<path d="M713.8584905660377,824.9056603773585 L725.1037735849056,824.9056603773585" stroke="red" stroke-width="2" fill="none" />
<path d="M725.1037735849056,824.9056603773585 L725.1037735849056,746.1886792452831" stroke="red" stroke-width="2" fill="none" />
<path d="M725.1037735849056,746.1886792452831 L758.8396226415094,746.1886792452831" stroke="red" stroke-width="2" fill="none" />
<path d="M758.8396226415094,746.1886792452831 L792.5754716981132,712.4528301886793" stroke="red" stroke-width="2" fill="none" />
<path d="M792.5754716981132,712.4528301886793 L792.5754716981132,706.8301886792453" stroke="red" stroke-width="2" fill="none" />
<path d="M792.5754716981132,656.2264150943396 L781.3301886792453,656.2264150943396" stroke="red" stroke-width="2" fill="none" />
<path d="M708.2358490566038,684.3396226415094 L702.6132075471698,689.9622641509434" stroke="red" stroke-width="2" fill="none" />
<path d="M702.6132075471698,689.9622641509434 L702.6132075471698,722.2924528301887" stroke="red" stroke-width="2" fill="none" />
<path d="M702.6132075471698,722.2924528301887 L623.8962264150944,712.4528301886793" stroke="red" stroke-width="2" fill="none" />
<path d="M590.1603773584906,746.1886792452831 L598.5943396226415,824.9056603773585" stroke="red" stroke-width="2" fill="none" />
<path d="M598.5943396226415,824.9056603773585 L567.6698113207548,824.9056603773585" stroke="red" stroke-width="2" fill="none" />
<path d="M533.933962264151,858.6415094339623 L533.933962264151,914.867924528302" stroke="red" stroke-width="2" fill="none" />
<path d="M533.933962264151,914.867924528302 L590.1603773584906,914.867924528302" stroke="red" stroke-width="2" fill="none" />
<path d="M590.1603773584906,914.867924528302 L623.8962264150944,883.9433962264151" stroke="red" stroke-width="2" fill="none" />
<path d="M623.8962264150944,883.9433962264151 L623.8962264150944,847.3962264150944" stroke="red" stroke-width="2" fill="none" />
<path d="M722.2924528301887,820.6886792452831 L711.0471698113208,820.6886792452831" stroke="red" stroke-width="2" fill="none" />
<path d="M711.0471698113208,820.6886792452831 L711.0471698113208,822.0943396226415" stroke="red" stroke-width="2" fill="none" />
<path d="M722.2924528301887,775.7075471698113 L722.2924528301887,820.6886792452831" stroke="red" stroke-width="2" fill="none" />
<path d="M722.2924528301887,761.6509433962265 L722.2924528301887,775.7075471698113" stroke="red" stroke-width="2" fill="none" />
<path d="M722.2924528301887,747.5943396226415 L722.2924528301887,761.6509433962265" stroke="red" stroke-width="2" fill="none" />
<path d="M708.2358490566038,722.2924528301887 L708.2358490566038,692.7735849056604" stroke="red" stroke-width="2" fill="none" />
<path d="M708.2358490566038,692.7735849056604 L712.4528301886793,688.5566037735849" stroke="red" stroke-width="2" fill="none" />
<path d="M734.9433962264152,666.066037735849 L739.1603773584906,661.8490566037735" stroke="red" stroke-width="2" fill="none" />
<path d="M739.1603773584906,661.8490566037735 L744.7830188679245,661.8490566037735" stroke="red" stroke-width="2" fill="none" />
<path d="M781.3301886792453,661.8490566037735 L786.9528301886793,661.8490566037735" stroke="red" stroke-width="2" fill="none" />
<path d="M786.9528301886793,661.8490566037735 L786.9528301886793,667.4716981132076" stroke="red" stroke-width="2" fill="none" />
<path d="M786.9528301886793,706.8301886792453 L786.9528301886793,712.4528301886793" stroke="red" stroke-width="2" fill="none" />
<path d="M786.9528301886793,712.4528301886793 L774.3018867924529,725.1037735849056" stroke="red" stroke-width="2" fill="none" />
<path d="M774.3018867924529,725.1037735849056 L757.433962264151,741.9716981132076" stroke="red" stroke-width="2" fill="none" />
<path d="M757.433962264151,741.9716981132076 L727.9150943396227,741.9716981132076" stroke="red" stroke-width="2" fill="none" />
<path d="M722.2924528301887,741.9716981132076 L722.2924528301887,747.5943396226415" stroke="red" stroke-width="2" fill="none" />
<path d="M727.9150943396227,741.9716981132076 L722.2924528301887,741.9716981132076" stroke="red" stroke-width="2" fill="none" />
<path d="M723.6981132075472,712.4528301886793 L723.6981132075472,726.5094339622642" stroke="red" stroke-width="2" fill="none" />
<path d="M726.5094339622642,729.3207547169811 L740.566037735849,729.3207547169811" stroke="red" stroke-width="2" fill="none" />
<path d="M740.566037735849,729.3207547169811 L757.433962264151,729.3207547169811" stroke="red" stroke-width="2" fill="none" />
<path d="M757.433962264151,729.3207547169811 L757.433962264151,712.4528301886793" stroke="red" stroke-width="2" fill="none" />
<path d="M757.433962264151,712.4528301886793 L774.3018867924529,712.4528301886793" stroke="red" stroke-width="2" fill="none" />
<path d="M774.3018867924529,712.4528301886793 L774.3018867924529,695.5849056603773" stroke="red" stroke-width="2" fill="none" />
<path d="M774.3018867924529,695.5849056603773 L757.433962264151,695.5849056603773" stroke="red" stroke-width="2" fill="none" />
<path d="M757.433962264151,695.5849056603773 L757.433962264151,678.7169811320755" stroke="red" stroke-width="2" fill="none" />
<path d="M757.433962264151,678.7169811320755 L740.566037735849,678.7169811320755" stroke="red" stroke-width="2" fill="none" />
<path d="M740.566037735849,678.7169811320755 L740.566037735849,712.4528301886793" stroke="red" stroke-width="2" fill="none" />
<path d="M740.566037735849,712.4528301886793 L723.6981132075472,712.4528301886793" stroke="red" stroke-width="2" fill="none" />
<path d="M792.5754716981132,667.4716981132076 L792.5754716981132,656.2264150943396" stroke="red" stroke-width="2" fill="none" />
<path d="M792.5754716981132,706.8301886792453 L786.9528301886793,706.8301886792453" stroke="red" stroke-width="2" fill="none" />
<path d="M786.9528301886793,667.4716981132076 L792.5754716981132,667.4716981132076" stroke="red" stroke-width="2" fill="none" />
<path d="M744.7830188679245,656.2264150943396 L736.3490566037735,656.2264150943396" stroke="red" stroke-width="2" fill="none" />
<path d="M736.3490566037735,656.2264150943396 L730.7264150943397,661.8490566037735" stroke="red" stroke-width="2" fill="none" />
<path d="M601.4056603773586,746.1886792452831 L590.1603773584906,746.1886792452831" stroke="red" stroke-width="2" fill="none" />
<path d="M623.8962264150944,712.4528301886793 L623.8962264150944,723.6981132075472" stroke="red" stroke-width="2" fill="none" />
<path d="M702.6132075471698,727.9150943396227 L708.2358490566038,722.2924528301887" stroke="red" stroke-width="2" fill="none" />
<path d="M623.8962264150944,723.6981132075472 L647.7924528301887,723.6981132075472" stroke="red" stroke-width="2" fill="none" />
<path d="M723.6981132075472,726.5094339622642 L718.0754716981132,726.5094339622642" stroke="red" stroke-width="2" fill="none" />
<path d="M781.3301886792453,656.2264150943396 L781.3301886792453,661.8490566037735" stroke="red" stroke-width="2" fill="none" />
<path d="M744.7830188679245,661.8490566037735 L744.7830188679245,656.2264150943396" stroke="red" stroke-width="2" fill="none" />
<path d="M712.4528301886793,688.5566037735849 L708.2358490566038,684.3396226415094" stroke="red" stroke-width="2" fill="none" />
<path d="M730.7264150943397,661.8490566037735 L734.9433962264152,666.066037735849" stroke="red" stroke-width="2" fill="none" />
<path d="M720.8867924528302,729.3207547169811 L726.5094339622642,729.3207547169811" stroke="red" stroke-width="2" fill="none" />
<path d="M688.5566037735849,761.6509433962265 L720.8867924528302,729.3207547169811" stroke="red" stroke-width="2" fill="none" />
<path d="M718.0754716981132,726.5094339622642 L685.7452830188679,758.8396226415094" stroke="red" stroke-width="2" fill="none" />
<path d="M644.9811320754717,799.6037735849056 L612.6509433962265,831.933962264151" stroke="red" stroke-width="2" fill="none" />
<path d="M636.5471698113208,813.6603773584906 L647.7924528301887,802.4150943396227" stroke="red" stroke-width="2" fill="none" />
<path d="M647.7924528301887,802.4150943396227 L644.9811320754717,799.6037735849056" stroke="red" stroke-width="2" fill="none" />
<path d="M685.7452830188679,758.8396226415094 L688.5566037735849,761.6509433962265" stroke="red" stroke-width="2" fill="none" />
<path d="M615.4622641509434,834.7452830188679 L625.3018867924528,824.9056603773585" stroke="red" stroke-width="2" fill="none" />
<path d="M625.3018867924528,824.9056603773585 L636.5471698113208,813.6603773584906" stroke="red" stroke-width="2" fill="none" />
<path d="M699.8018867924528,833.3396226415094 L698.3962264150944,833.3396226415094" stroke="red" stroke-width="2" fill="none" />
<path d="M698.3962264150944,833.3396226415094 L698.3962264150944,844.5849056603773" stroke="red" stroke-width="2" fill="none" />
<path d="M698.3962264150944,844.5849056603773 L684.3396226415094,844.5849056603773" stroke="red" stroke-width="2" fill="none" />
<path d="M684.3396226415094,844.5849056603773 L668.877358490566,844.5849056603773" stroke="red" stroke-width="2" fill="none" />
<path d="M668.877358490566,844.5849056603773 L653.4150943396227,844.5849056603773" stroke="red" stroke-width="2" fill="none" />
<path d="M653.4150943396227,844.5849056603773 L639.3584905660377,844.5849056603773" stroke="red" stroke-width="2" fill="none" />
<path d="M639.3584905660377,844.5849056603773 L623.8962264150944,844.5849056603773" stroke="red" stroke-width="2" fill="none" />
<path d="M623.8962264150944,844.5849056603773 L621.0849056603774,844.5849056603773" stroke="red" stroke-width="2" fill="none" />
<path d="M621.0849056603774,844.5849056603773 L621.0849056603774,851.6132075471698" stroke="red" stroke-width="2" fill="none" />
<path d="M621.0849056603774,865.6698113207547 L621.0849056603774,882.5377358490566" stroke="red" stroke-width="2" fill="none" />
<path d="M621.0849056603774,882.5377358490566 L587.3490566037735,912.0566037735849" stroke="red" stroke-width="2" fill="none" />
<path d="M587.3490566037735,912.0566037735849 L536.7452830188679,912.0566037735849" stroke="red" stroke-width="2" fill="none" />
<path d="M536.7452830188679,912.0566037735849 L536.7452830188679,861.4528301886792" stroke="red" stroke-width="2" fill="none" />
<path d="M536.7452830188679,861.4528301886792 L533.933962264151,858.6415094339623" stroke="red" stroke-width="2" fill="none" />
<path d="M564.8584905660377,883.9433962264151 L587.3490566037735,883.9433962264151" stroke="red" stroke-width="2" fill="none" />
<path d="M587.3490566037735,883.9433962264151 L587.3490566037735,862.8584905660377" stroke="red" stroke-width="2" fill="none" />
<path d="M583.1320754716982,861.4528301886792 L564.8584905660377,861.4528301886792" stroke="red" stroke-width="2" fill="none" />
<path d="M564.8584905660377,861.4528301886792 L564.8584905660377,883.9433962264151" stroke="red" stroke-width="2" fill="none" />
<path d="M592.9716981132076,857.2358490566038 L615.4622641509434,834.7452830188679" stroke="red" stroke-width="2" fill="none" />
<path d="M612.6509433962265,831.933962264151 L583.1320754716982,861.4528301886792" stroke="red" stroke-width="2" fill="none" />
<path d="M567.6698113207548,824.9056603773585 L570.4811320754717,827.7169811320755" stroke="red" stroke-width="2" fill="none" />
<path d="M587.3490566037735,862.8584905660377 L592.9716981132076,857.2358490566038" stroke="red" stroke-width="2" fill="none" />
<path d="M570.4811320754717,827.7169811320755 L601.4056603773586,827.7169811320755" stroke="red" stroke-width="2" fill="none" />
<path d="M601.4056603773586,757.433962264151 L601.4056603773586,746.1886792452831" stroke="red" stroke-width="2" fill="none" />
<path d="M621.0849056603774,851.6132075471698 L621.0849056603774,865.6698113207547" stroke="red" stroke-width="2" fill="none" />
<path d="M601.4056603773586,827.7169811320755 L601.4056603773586,785.5471698113208" stroke="red" stroke-width="2" fill="none" />
<path d="M601.4056603773586,785.5471698113208 L601.4056603773586,779.9245283018868" stroke="red" stroke-width="2" fill="none" />
<path d="M601.4056603773586,779.9245283018868 L601.4056603773586,774.3018867924528" stroke="red" stroke-width="2" fill="none" />
<path d="M601.4056603773586,774.3018867924528 L601.4056603773586,768.6792452830189" stroke="red" stroke-width="2" fill="none" />
<path d="M601.4056603773586,768.6792452830189 L601.4056603773586,763.0566037735849" stroke="red" stroke-width="2" fill="none" />
<path d="M601.4056603773586,763.0566037735849 L601.4056603773586,757.433962264151" stroke="red" stroke-width="2" fill="none" />
<path d="M616.867924528302,754.622641509434 L612.6509433962265,754.622641509434" stroke="red" stroke-width="2" fill="none" />
<path d="M612.6509433962265,754.622641509434 L612.6509433962265,757.433962264151" stroke="red" stroke-width="2" fill="none" />
<path d="M612.6509433962265,757.433962264151 L612.6509433962265,763.0566037735849" stroke="red" stroke-width="2" fill="none" />
<path d="M612.6509433962265,763.0566037735849 L612.6509433962265,768.6792452830189" stroke="red" stroke-width="2" fill="none" />
<path d="M612.6509433962265,768.6792452830189 L612.6509433962265,774.3018867924528" stroke="red" stroke-width="2" fill="none" />
<path d="M612.6509433962265,774.3018867924528 L612.6509433962265,779.9245283018868" stroke="red" stroke-width="2" fill="none" />
<path d="M612.6509433962265,779.9245283018868 L612.6509433962265,785.5471698113208" stroke="red" stroke-width="2" fill="none" />
<path d="M612.6509433962265,785.5471698113208 L612.6509433962265,788.3584905660377" stroke="red" stroke-width="2" fill="none" />
<path d="M612.6509433962265,788.3584905660377 L616.867924528302,788.3584905660377" stroke="red" stroke-width="2" fill="none" />
<path d="M616.867924528302,788.3584905660377 L616.867924528302,758.8396226415094" stroke="red" stroke-width="2" fill="none" />
<path d="M616.867924528302,758.8396226415094 L616.867924528302,754.622641509434" stroke="red" stroke-width="2" fill="none" />
<path d="M647.7924528301887,723.6981132075472 L692.7735849056604,723.6981132075472" stroke="red" stroke-width="2" fill="none" />
<path d="M692.7735849056604,723.6981132075472 L702.6132075471698,727.9150943396227" stroke="red" stroke-width="2" fill="none" />
<path d="M552.2075471698113,704.0188679245283 L518.4716981132076,704.0188679245283" stroke="red" stroke-width="2" fill="none" />
<path d="M518.4716981132076,704.0188679245283 L495.9811320754717,670.2830188679245" stroke="red" stroke-width="2" fill="none" />
<path d="M495.9811320754717,670.2830188679245 L518.4716981132076,636.5471698113207" stroke="red" stroke-width="2" fill="none" />
<path d="M518.4716981132076,636.5471698113207 L552.2075471698113,636.5471698113207" stroke="red" stroke-width="2" fill="none" />
<path d="M552.2075471698113,636.5471698113207 L576.1037735849056,671.6886792452831" stroke="red" stroke-width="2" fill="none" />
<path d="M576.1037735849056,671.6886792452831 L585.9433962264151,664.6603773584906" stroke="red" stroke-width="2" fill="none" />
<path d="M585.9433962264151,664.6603773584906 L559.2358490566038,625.3018867924528" stroke="red" stroke-width="2" fill="none" />
<path d="M559.2358490566038,625.3018867924528 L507.22641509433964,625.3018867924528" stroke="red" stroke-width="2" fill="none" />
<path d="M507.22641509433964,625.3018867924528 L477.70754716981133,670.2830188679245" stroke="red" stroke-width="2" fill="none" />
<path d="M477.70754716981133,670.2830188679245 L507.22641509433964,715.2641509433962" stroke="red" stroke-width="2" fill="none" />
<path d="M507.22641509433964,715.2641509433962 L552.2075471698113,715.2641509433962" stroke="red" stroke-width="2" fill="none" />
<path d="M552.2075471698113,715.2641509433962 L552.2075471698113,704.0188679245283" stroke="red" stroke-width="2" fill="none" />
<path d="M466.46226415094344,779.9245283018868 L511.44339622641513,824.9056603773585" stroke="red" stroke-width="2" fill="none" />
<path d="M511.44339622641513,824.9056603773585 L522.6886792452831,791.1698113207547" stroke="red" stroke-width="2" fill="none" />
<path d="M500.1981132075472,768.6792452830189 L466.46226415094344,779.9245283018868" stroke="red" stroke-width="2" fill="none" />
<path d="M473.49056603773585,781.3301886792453 L500.1981132075472,772.8962264150944" stroke="red" stroke-width="2" fill="none" />
<path d="M518.4716981132076,791.1698113207547 L510.0377358490566,817.877358490566" stroke="red" stroke-width="2" fill="none" />
<path d="M510.0377358490566,817.877358490566 L473.49056603773585,781.3301886792453" stroke="red" stroke-width="2" fill="none" />
<path d="M500.1981132075472,772.8962264150944 L500.1981132075472,768.6792452830189" stroke="red" stroke-width="2" fill="none" />
<path d="M522.6886792452831,791.1698113207547 L518.4716981132076,791.1698113207547" stroke="red" stroke-width="2" fill="none" />
<path d="M614.0566037735849,629.5188679245283 L650.6037735849056,666.066037735849" stroke="red" stroke-width="2" fill="none" />
<path d="M650.6037735849056,666.066037735849 L623.8962264150944,674.5" stroke="red" stroke-width="2" fill="none" />
<path d="M605.622641509434,656.2264150943396 L614.0566037735849,629.5188679245283" stroke="red" stroke-width="2" fill="none" />
<path d="M612.6509433962265,622.4905660377359 L601.4056603773586,656.2264150943396" stroke="red" stroke-width="2" fill="none" />
<path d="M623.8962264150944,678.7169811320755 L657.6320754716982,667.4716981132076" stroke="red" stroke-width="2" fill="none" />
<path d="M657.6320754716982,667.4716981132076 L612.6509433962265,622.4905660377359" stroke="red" stroke-width="2" fill="none" />
<path d="M601.4056603773586,656.2264150943396 L605.622641509434,656.2264150943396" stroke="red" stroke-width="2" fill="none" />
<path d="M623.8962264150944,674.5 L623.8962264150944,678.7169811320755" stroke="red" stroke-width="2" fill="none" />
<path d="M972.5,678.7169811320755 L983.7452830188679,678.7169811320755" stroke="red" stroke-width="2" fill="none" />
<path d="M983.7452830188679,678.7169811320755 L983.7452830188679,689.9622641509434" stroke="red" stroke-width="2" fill="none" />
<path d="M983.7452830188679,689.9622641509434 L972.5,689.9622641509434" stroke="red" stroke-width="2" fill="none" />
<path d="M972.5,689.9622641509434 L972.5,723.6981132075472" stroke="red" stroke-width="2" fill="none" />
<path d="M972.5,723.6981132075472 L1006.2358490566038,723.6981132075472" stroke="red" stroke-width="2" fill="none" />
<path d="M1006.2358490566038,723.6981132075472 L1006.2358490566038,701.2075471698113" stroke="red" stroke-width="2" fill="none" />
<path d="M1006.2358490566038,701.2075471698113 L1017.4811320754717,701.2075471698113" stroke="red" stroke-width="2" fill="none" />
<path d="M1017.4811320754717,701.2075471698113 L1017.4811320754717,723.6981132075472" stroke="red" stroke-width="2" fill="none" />
<path d="M1017.4811320754717,723.6981132075472 L1051.2169811320755,723.6981132075472" stroke="red" stroke-width="2" fill="none" />
<path d="M1051.2169811320755,723.6981132075472 L1051.2169811320755,689.9622641509434" stroke="red" stroke-width="2" fill="none" />
<path d="M1051.2169811320755,689.9622641509434 L1039.9716981132076,689.9622641509434" stroke="red" stroke-width="2" fill="none" />
<path d="M1039.9716981132076,678.7169811320755 L1051.2169811320755,678.7169811320755" stroke="red" stroke-width="2" fill="none" />
<path d="M1051.2169811320755,678.7169811320755 L1051.2169811320755,644.9811320754717" stroke="red" stroke-width="2" fill="none" />
<path d="M1051.2169811320755,644.9811320754717 L1017.4811320754717,644.9811320754717" stroke="red" stroke-width="2" fill="none" />
<path d="M1017.4811320754717,644.9811320754717 L1017.4811320754717,667.4716981132076" stroke="red" stroke-width="2" fill="none" />
<path d="M1017.4811320754717,667.4716981132076 L1006.2358490566038,667.4716981132076" stroke="red" stroke-width="2" fill="none" />
<path d="M1006.2358490566038,667.4716981132076 L1006.2358490566038,644.9811320754717" stroke="red" stroke-width="2" fill="none" />
<path d="M1006.2358490566038,644.9811320754717 L972.5,644.9811320754717" stroke="red" stroke-width="2" fill="none" />
<path d="M972.5,644.9811320754717 L972.5,678.7169811320755" stroke="red" stroke-width="2" fill="none" />
<path d="M1038.566037735849,678.7169811320755 L1039.9716981132076,678.7169811320755" stroke="red" stroke-width="2" fill="none" />
<path d="M1039.9716981132076,689.9622641509434 L1038.566037735849,689.9622641509434" stroke="red" stroke-width="2" fill="none" />
<path d="M1038.566037735849,689.9622641509434 L1038.566037735849,691.3679245283018" stroke="red" stroke-width="2" fill="none" />
<path d="M1038.566037735849,691.3679245283018 L1049.8113207547171,691.3679245283018" stroke="red" stroke-width="2" fill="none" />
<path d="M1049.8113207547171,691.3679245283018 L1049.8113207547171,722.2924528301887" stroke="red" stroke-width="2" fill="none" />
<path d="M1049.8113207547171,722.2924528301887 L1018.8867924528303,722.2924528301887" stroke="red" stroke-width="2" fill="none" />
<path d="M1018.8867924528303,722.2924528301887 L1018.8867924528303,699.8018867924528" stroke="red" stroke-width="2" fill="none" />
<path d="M1038.566037735849,677.311320754717 L1038.566037735849,678.7169811320755" stroke="red" stroke-width="2" fill="none" />
<path d="M1049.8113207547171,677.311320754717 L1038.566037735849,677.311320754717" stroke="red" stroke-width="2" fill="none" />
<path d="M1049.8113207547171,646.3867924528302 L1049.8113207547171,677.311320754717" stroke="red" stroke-width="2" fill="none" />
<path d="M1018.8867924528303,646.3867924528302 L1049.8113207547171,646.3867924528302" stroke="red" stroke-width="2" fill="none" />
<path d="M1018.8867924528303,668.877358490566 L1018.8867924528303,646.3867924528302" stroke="red" stroke-width="2" fill="none" />
<path d="M1004.8301886792453,668.877358490566 L1018.8867924528303,668.877358490566" stroke="lavender" stroke-width="2" fill="none" />
<path d="M1004.8301886792453,659.0377358490566 L1004.8301886792453,668.877358490566" stroke="red" stroke-width="2" fill="none" />
<path d="M980.933962264151,646.3867924528302 L992.1792452830189,646.3867924528302" stroke="red" stroke-width="2" fill="none" />
<path d="M973.9056603773586,677.311320754717 L973.9056603773586,653.4150943396227" stroke="red" stroke-width="2" fill="none" />
<path d="M985.1509433962265,677.311320754717 L973.9056603773586,677.311320754717" stroke="red" stroke-width="2" fill="none" />
<path d="M985.1509433962265,691.3679245283018 L985.1509433962265,677.311320754717" stroke="lavender" stroke-width="2" fill="none" />
<path d="M973.9056603773586,691.3679245283018 L985.1509433962265,691.3679245283018" stroke="red" stroke-width="2" fill="none" />
<path d="M973.9056603773586,715.2641509433962 L973.9056603773586,691.3679245283018" stroke="red" stroke-width="2" fill="none" />
<path d="M1004.8301886792453,722.2924528301887 L980.933962264151,722.2924528301887" stroke="red" stroke-width="2" fill="none" />
<path d="M1004.8301886792453,699.8018867924528 L1004.8301886792453,722.2924528301887" stroke="red" stroke-width="2" fill="none" />
<path d="M1018.8867924528303,699.8018867924528 L1004.8301886792453,699.8018867924528" stroke="red" stroke-width="2" fill="none" />
<path d="M980.933962264151,722.2924528301887 L973.9056603773586,722.2924528301887" stroke="red" stroke-width="2" fill="none" />
<path d="M973.9056603773586,722.2924528301887 L973.9056603773586,715.2641509433962" stroke="red" stroke-width="2" fill="none" />
<path d="M973.9056603773586,653.4150943396227 L973.9056603773586,646.3867924528302" stroke="red" stroke-width="2" fill="none" />
<path d="M973.9056603773586,646.3867924528302 L980.933962264151,646.3867924528302" stroke="red" stroke-width="2" fill="none" />
<path d="M992.1792452830189,646.3867924528302 L1004.8301886792453,646.3867924528302" stroke="red" stroke-width="2" fill="none" />
<path d="M1004.8301886792453,646.3867924528302 L1004.8301886792453,659.0377358490566" stroke="red" stroke-width="2" fill="none" />
<path d="M394.7735849056604,667.4716981132076 L383.52830188679246,667.4716981132076" stroke="red" stroke-width="2" fill="none" />
<path d="M394.7735849056604,757.433962264151 L394.7735849056604,667.4716981132076" stroke="red" stroke-width="2" fill="none" />
<path d="M383.52830188679246,667.4716981132076 L383.52830188679246,751.8113207547169" stroke="red" stroke-width="2" fill="none" />
<path d="M383.52830188679246,757.433962264151 L394.7735849056604,757.433962264151" stroke="red" stroke-width="2" fill="none" />
<path d="M394.7735849056604,791.1698113207547 L383.52830188679246,791.1698113207547" stroke="red" stroke-width="2" fill="none" />
<path d="M394.7735849056604,881.132075471698 L394.7735849056604,791.1698113207547" stroke="red" stroke-width="2" fill="none" />
<path d="M383.52830188679246,881.132075471698 L394.7735849056604,881.132075471698" stroke="red" stroke-width="2" fill="none" />
<path d="M383.52830188679246,796.7924528301887 L383.52830188679246,881.132075471698" stroke="red" stroke-width="2" fill="none" />
<path d="M383.52830188679246,751.8113207547169 L383.52830188679246,757.433962264151" stroke="red" stroke-width="2" fill="none" />
<path d="M383.52830188679246,791.1698113207547 L383.52830188679246,796.7924528301887" stroke="red" stroke-width="2" fill="none" />
<path d="M905.0283018867924,487.54716981132077 L916.2735849056604,476.3018867924528" stroke="red" stroke-width="2" fill="none" />
<path d="M916.2735849056604,476.3018867924528 L916.2735849056604,453.811320754717" stroke="red" stroke-width="2" fill="none" />
<path d="M916.2735849056604,453.811320754717 L905.0283018867924,442.566037735849" stroke="red" stroke-width="2" fill="none" />
<path d="M905.0283018867924,442.566037735849 L882.5377358490566,442.566037735849" stroke="red" stroke-width="2" fill="none" />
<path d="M882.5377358490566,442.566037735849 L871.2924528301887,453.811320754717" stroke="red" stroke-width="2" fill="none" />
<path d="M871.2924528301887,453.811320754717 L882.5377358490566,453.811320754717" stroke="red" stroke-width="2" fill="none" />
<path d="M882.5377358490566,453.811320754717 L905.0283018867924,453.811320754717" stroke="red" stroke-width="2" fill="none" />
<path d="M905.0283018867924,453.811320754717 L905.0283018867924,476.3018867924528" stroke="red" stroke-width="2" fill="none" />
<path d="M905.0283018867924,476.3018867924528 L905.0283018867924,487.54716981132077" stroke="red" stroke-width="2" fill="none" />
<path d="M826.311320754717,567.6698113207547 L826.311320754717,542.3679245283018" stroke="red" stroke-width="2" fill="none" />
<path d="M779.9245283018868,542.3679245283018 L758.8396226415094,542.3679245283018" stroke="red" stroke-width="2" fill="none" />
<path d="M779.9245283018868,510.0377358490566 L779.9245283018868,542.3679245283018" stroke="red" stroke-width="2" fill="none" />
<path d="M805.2264150943397,542.3679245283018 L805.2264150943397,510.0377358490566" stroke="red" stroke-width="2" fill="none" />
<path d="M826.311320754717,542.3679245283018 L805.2264150943397,542.3679245283018" stroke="red" stroke-width="2" fill="none" />
<path d="M758.8396226415094,567.6698113207547 L781.3301886792453,567.6698113207547" stroke="red" stroke-width="2" fill="none" />
<path d="M803.8207547169811,567.6698113207547 L826.311320754717,567.6698113207547" stroke="red" stroke-width="2" fill="none" />
<path d="M758.8396226415094,542.3679245283018 L758.8396226415094,567.6698113207547" stroke="red" stroke-width="2" fill="none" />
<path d="M805.2264150943397,510.0377358490566 L779.9245283018868,510.0377358490566" stroke="red" stroke-width="2" fill="none" />
<path d="M781.3301886792453,567.6698113207547 L781.3301886792453,566.2641509433962" stroke="red" stroke-width="2" fill="none" />
<path d="M770.0849056603774,566.2641509433962 L760.2452830188679,566.2641509433962" stroke="red" stroke-width="2" fill="none" />
<path d="M760.2452830188679,566.2641509433962 L760.2452830188679,555.0188679245283" stroke="red" stroke-width="2" fill="none" />
<path d="M760.2452830188679,555.0188679245283 L760.2452830188679,543.7735849056604" stroke="red" stroke-width="2" fill="none" />
<path d="M781.3301886792453,543.7735849056604 L781.3301886792453,511.4433962264151" stroke="red" stroke-width="2" fill="none" />
<path d="M781.3301886792453,511.4433962264151 L803.8207547169811,511.4433962264151" stroke="red" stroke-width="2" fill="none" />
<path d="M803.8207547169811,511.4433962264151 L803.8207547169811,543.7735849056604" stroke="red" stroke-width="2" fill="none" />
<path d="M824.9056603773586,543.7735849056604 L824.9056603773586,555.0188679245283" stroke="red" stroke-width="2" fill="none" />
<path d="M824.9056603773586,555.0188679245283 L824.9056603773586,566.2641509433962" stroke="red" stroke-width="2" fill="none" />
<path d="M824.9056603773586,566.2641509433962 L815.066037735849,566.2641509433962" stroke="red" stroke-width="2" fill="none" />
<path d="M803.8207547169811,566.2641509433962 L803.8207547169811,567.6698113207547" stroke="red" stroke-width="2" fill="none" />
<path d="M760.2452830188679,543.7735849056604 L781.3301886792453,543.7735849056604" stroke="red" stroke-width="2" fill="none" />
<path d="M803.8207547169811,543.7735849056604 L824.9056603773586,543.7735849056604" stroke="red" stroke-width="2" fill="none" />
<path d="M815.066037735849,566.2641509433962 L803.8207547169811,566.2641509433962" stroke="red" stroke-width="2" fill="none" />
<path d="M781.3301886792453,566.2641509433962 L770.0849056603774,566.2641509433962" stroke="red" stroke-width="2" fill="none" />
<path d="M576.1037735849056,377.90566037735846 L491.76415094339626,462.2452830188679" stroke="red" stroke-width="2" fill="none" />
<path d="M729.3207547169811,505.8207547169811 L576.1037735849056,377.90566037735846" stroke="red" stroke-width="2" fill="none" />
<path d="M491.76415094339626,462.2452830188679 L628.1132075471698,607.0283018867924" stroke="red" stroke-width="2" fill="none" />
<path d="M628.1132075471698,607.0283018867924 L646.3867924528302,588.7547169811321" stroke="red" stroke-width="2" fill="none" />
<path d="M708.2358490566038,526.9056603773585 L729.3207547169811,505.8207547169811" stroke="red" stroke-width="2" fill="none" />
<path d="M646.3867924528302,588.7547169811321 L640.7641509433963,583.1320754716982" stroke="red" stroke-width="2" fill="none" />
<path d="M632.3301886792453,574.6981132075472 L632.3301886792453,563.4528301886793" stroke="red" stroke-width="2" fill="none" />
<path d="M623.8962264150944,555.0188679245283 L623.8962264150944,526.9056603773585" stroke="red" stroke-width="2" fill="none" />
<path d="M682.933962264151,512.8490566037735 L694.1792452830189,512.8490566037735" stroke="red" stroke-width="2" fill="none" />
<path d="M646.3867924528302,504.41509433962267 L674.5,504.41509433962267" stroke="red" stroke-width="2" fill="none" />
<path d="M702.6132075471698,521.2830188679245 L708.2358490566038,526.9056603773585" stroke="red" stroke-width="2" fill="none" />
<path d="M626.7075471698113,574.6981132075472 L632.3301886792453,574.6981132075472" stroke="red" stroke-width="2" fill="none" />
<path d="M616.867924528302,584.5377358490566 L626.7075471698113,574.6981132075472" stroke="red" stroke-width="2" fill="none" />
<path d="M628.1132075471698,595.7830188679245 L616.867924528302,584.5377358490566" stroke="red" stroke-width="2" fill="none" />
<path d="M640.7641509433963,583.1320754716982 L628.1132075471698,595.7830188679245" stroke="red" stroke-width="2" fill="none" />
<path d="M694.1792452830189,512.8490566037735 L694.1792452830189,507.2264150943396" stroke="red" stroke-width="2" fill="none" />
<path d="M694.1792452830189,507.2264150943396 L704.0188679245283,497.3867924528302" stroke="red" stroke-width="2" fill="none" />
<path d="M704.0188679245283,497.3867924528302 L715.2641509433963,508.6320754716981" stroke="red" stroke-width="2" fill="none" />
<path d="M715.2641509433963,508.6320754716981 L702.6132075471698,521.2830188679245" stroke="red" stroke-width="2" fill="none" />
<path d="M632.3301886792453,563.4528301886793 L615.4622641509434,580.3207547169811" stroke="red" stroke-width="2" fill="none" />
<path d="M615.4622641509434,580.3207547169811 L604.2169811320755,569.0754716981132" stroke="red" stroke-width="2" fill="none" />
<path d="M604.2169811320755,569.0754716981132 L618.2735849056604,555.0188679245283" stroke="red" stroke-width="2" fill="none" />
<path d="M618.2735849056604,555.0188679245283 L623.8962264150944,555.0188679245283" stroke="red" stroke-width="2" fill="none" />
<path d="M674.5,504.41509433962267 L674.5,498.79245283018867" stroke="red" stroke-width="2" fill="none" />
<path d="M674.5,498.79245283018867 L688.5566037735849,484.7358490566038" stroke="red" stroke-width="2" fill="none" />
<path d="M688.5566037735849,484.7358490566038 L699.8018867924528,495.9811320754717" stroke="red" stroke-width="2" fill="none" />
<path d="M699.8018867924528,495.9811320754717 L682.933962264151,512.8490566037735" stroke="red" stroke-width="2" fill="none" />
<path d="M660.4433962264151,501.60377358490564 L640.7641509433963,501.60377358490564" stroke="red" stroke-width="2" fill="none" />
<path d="M621.0849056603774,521.2830188679245 L621.0849056603774,540.9622641509434" stroke="red" stroke-width="2" fill="none" />
<path d="M621.0849056603774,540.9622641509434 L611.2452830188679,550.8018867924528" stroke="red" stroke-width="2" fill="none" />
<path d="M595.7830188679245,535.3396226415094 L583.1320754716982,522.688679245283" stroke="red" stroke-width="2" fill="none" />
<path d="M583.1320754716982,522.688679245283 L569.0754716981132,508.6320754716981" stroke="red" stroke-width="2" fill="none" />
<path d="M559.2358490566038,498.79245283018867 L549.3962264150944,488.95283018867923" stroke="red" stroke-width="2" fill="none" />
<path d="M549.3962264150944,488.95283018867923 L538.1509433962265,477.70754716981133" stroke="red" stroke-width="2" fill="none" />
<path d="M538.1509433962265,477.70754716981133 L525.5,465.0566037735849" stroke="red" stroke-width="2" fill="none" />
<path d="M525.5,465.0566037735849 L511.44339622641513,451.0" stroke="red" stroke-width="2" fill="none" />
<path d="M511.44339622641513,451.0 L536.7452830188679,425.6981132075472" stroke="red" stroke-width="2" fill="none" />
<path d="M570.4811320754717,391.9622641509434 L584.5377358490566,406.0188679245283" stroke="red" stroke-width="2" fill="none" />
<path d="M584.5377358490566,406.0188679245283 L597.1886792452831,418.6698113207547" stroke="red" stroke-width="2" fill="none" />
<path d="M628.1132075471698,449.59433962264154 L642.1698113207548,463.6509433962264" stroke="red" stroke-width="2" fill="none" />
<path d="M536.7452830188679,425.6981132075472 L545.1792452830189,417.2641509433962" stroke="red" stroke-width="2" fill="none" />
<path d="M611.2452830188679,550.8018867924528 L595.7830188679245,535.3396226415094" stroke="red" stroke-width="2" fill="none" />
<path d="M545.1792452830189,417.2641509433962 L570.4811320754717,391.9622641509434" stroke="red" stroke-width="2" fill="none" />
<path d="M608.433962264151,429.91509433962267 L618.2735849056604,439.7547169811321" stroke="red" stroke-width="2" fill="none" />
<path d="M597.1886792452831,418.6698113207547 L608.433962264151,429.91509433962267" stroke="red" stroke-width="2" fill="none" />
<path d="M642.1698113207548,463.6509433962264 L654.8207547169811,476.3018867924528" stroke="red" stroke-width="2" fill="none" />
<path d="M654.8207547169811,476.3018867924528 L670.2830188679245,491.7641509433962" stroke="red" stroke-width="2" fill="none" />
<path d="M670.2830188679245,491.7641509433962 L660.4433962264151,501.60377358490564" stroke="red" stroke-width="2" fill="none" />
<path d="M630.9245283018868,519.877358490566 L626.7075471698113,515.6603773584906" stroke="red" stroke-width="2" fill="none" />
<path d="M635.1415094339623,507.2264150943396 L639.3584905660377,511.4433962264151" stroke="red" stroke-width="2" fill="none" />
<path d="M623.8962264150944,526.9056603773585 L630.9245283018868,519.877358490566" stroke="red" stroke-width="2" fill="none" />
<path d="M639.3584905660377,511.4433962264151 L646.3867924528302,504.41509433962267" stroke="red" stroke-width="2" fill="none" />
<path d="M640.7641509433963,501.60377358490564 L635.1415094339623,507.2264150943396" stroke="red" stroke-width="2" fill="none" />
<path d="M626.7075471698113,515.6603773584906 L621.0849056603774,521.2830188679245" stroke="red" stroke-width="2" fill="none" />
<path d="M618.2735849056604,439.7547169811321 L621.0849056603774,436.9433962264151" stroke="red" stroke-width="2" fill="none" />
<path d="M621.0849056603774,436.9433962264151 L629.5188679245283,428.50943396226415" stroke="red" stroke-width="2" fill="none" />
<path d="M629.5188679245283,428.50943396226415 L639.3584905660377,438.3490566037736" stroke="red" stroke-width="2" fill="none" />
<path d="M639.3584905660377,438.3490566037736 L630.9245283018868,446.7830188679245" stroke="red" stroke-width="2" fill="none" />
<path d="M630.9245283018868,446.7830188679245 L628.1132075471698,449.59433962264154" stroke="red" stroke-width="2" fill="none" />
<path d="M569.0754716981132,508.6320754716981 L567.6698113207548,510.0377358490566" stroke="red" stroke-width="2" fill="none" />
<path d="M567.6698113207548,510.0377358490566 L567.6698113207548,521.2830188679245" stroke="red" stroke-width="2" fill="none" />
<path d="M567.6698113207548,521.2830188679245 L556.4245283018868,521.2830188679245" stroke="red" stroke-width="2" fill="none" />
<path d="M556.4245283018868,521.2830188679245 L556.4245283018868,510.0377358490566" stroke="red" stroke-width="2" fill="none" />
<path d="M556.4245283018868,510.0377358490566 L559.2358490566038,498.79245283018867" stroke="red" stroke-width="2" fill="none" />
<path d="M639.3584905660377,138.94339622641508 L623.8962264150944,122.07547169811318" stroke="red" stroke-width="2" fill="none" />
<path d="M577.5094339622642,161.43396226415092 L601.4056603773586,150.18867924528303" stroke="red" stroke-width="2" fill="none" />
<path d="M264.04716981132077,431.3207547169811 L264.04716981132077,498.79245283018867" stroke="red" stroke-width="2" fill="none" />
<path d="M264.04716981132077,498.79245283018867 L309.02830188679246,476.3018867924528" stroke="red" stroke-width="2" fill="none" />
<path d="M309.02830188679246,476.3018867924528 L376.5,476.3018867924528" stroke="red" stroke-width="2" fill="none" />
<path d="M376.5,476.3018867924528 L410.2358490566038,588.7547169811321" stroke="red" stroke-width="2" fill="none" />
<path d="M410.2358490566038,588.7547169811321 L469.2735849056604,555.0188679245283" stroke="red" stroke-width="2" fill="none" />
<path d="M429.91509433962267,408.8301886792453 L456.622641509434,408.8301886792453" stroke="red" stroke-width="2" fill="none" />
<path d="M456.622641509434,386.33962264150944 L411.64150943396226,386.33962264150944" stroke="red" stroke-width="2" fill="none" />
<path d="M219.06603773584908,498.79245283018867 L219.06603773584908,577.5094339622641" stroke="red" stroke-width="2" fill="none" />
<path d="M241.55660377358492,577.5094339622641 L383.52830188679246,577.5094339622641" stroke="red" stroke-width="2" fill="none" />
<path d="M383.52830188679246,577.5094339622641 L383.52830188679246,560.6415094339623" stroke="red" stroke-width="2" fill="none" />
<path d="M383.52830188679246,560.6415094339623 L219.06603773584908,498.79245283018867" stroke="red" stroke-width="2" fill="none" />
<path d="M219.06603773584908,577.5094339622641 L230.311320754717,577.5094339622641" stroke="red" stroke-width="2" fill="none" />
<path d="M230.311320754717,577.5094339622641 L230.311320754717,566.2641509433962" stroke="red" stroke-width="2" fill="none" />
<path d="M230.311320754717,566.2641509433962 L241.55660377358492,555.0188679245283" stroke="red" stroke-width="2" fill="none" />
<path d="M241.55660377358492,555.0188679245283 L269.6698113207547,555.0188679245283" stroke="red" stroke-width="2" fill="none" />
<path d="M275.2924528301887,566.2641509433962 L245.77358490566039,566.2641509433962" stroke="red" stroke-width="2" fill="none" />
<path d="M245.77358490566039,566.2641509433962 L241.55660377358492,570.4811320754717" stroke="red" stroke-width="2" fill="none" />
<path d="M241.55660377358492,570.4811320754717 L241.55660377358492,577.5094339622641" stroke="red" stroke-width="2" fill="none" />
<path d="M269.6698113207547,555.0188679245283 L275.2924528301887,549.3962264150944" stroke="red" stroke-width="2" fill="none" />
<path d="M275.2924528301887,549.3962264150944 L275.2924528301887,543.7735849056604" stroke="red" stroke-width="2" fill="none" />
<path d="M286.5377358490566,543.7735849056604 L286.5377358490566,555.0188679245283" stroke="red" stroke-width="2" fill="none" />
<path d="M286.5377358490566,555.0188679245283 L275.2924528301887,566.2641509433962" stroke="red" stroke-width="2" fill="none" />
<path d="M449.59433962264154,403.2075471698113 L427.1037735849057,406.0188679245283" stroke="red" stroke-width="2" fill="none" />
<path d="M427.1037735849057,406.0188679245283 L429.91509433962267,408.8301886792453" stroke="red" stroke-width="2" fill="none" />
<path d="M396.1792452830189,465.0566037735849 L393.3679245283019,462.2452830188679" stroke="red" stroke-width="2" fill="none" />
<path d="M393.3679245283019,462.2452830188679 L390.5566037735849,465.0566037735849" stroke="red" stroke-width="2" fill="none" />
<path d="M390.5566037735849,465.0566037735849 L393.3679245283019,467.8679245283019" stroke="red" stroke-width="2" fill="none" />
<path d="M393.3679245283019,467.8679245283019 L396.1792452830189,465.0566037735849" stroke="red" stroke-width="2" fill="none" />
<path d="M442.5660377358491,529.7169811320755 L439.7547169811321,532.5283018867924" stroke="red" stroke-width="2" fill="none" />
<path d="M439.7547169811321,532.5283018867924 L439.7547169811321,535.3396226415094" stroke="red" stroke-width="2" fill="none" />
<path d="M414.4528301886793,535.3396226415094 L413.04716981132077,532.5283018867924" stroke="red" stroke-width="2" fill="none" />
<path d="M413.04716981132077,532.5283018867924 L377.9056603773585,473.49056603773585" stroke="red" stroke-width="2" fill="none" />
<path d="M377.9056603773585,473.49056603773585 L309.02830188679246,473.49056603773585" stroke="red" stroke-width="2" fill="none" />
<path d="M309.02830188679246,456.62264150943395 L309.02830188679246,453.811320754717" stroke="red" stroke-width="2" fill="none" />
<path d="M376.5,453.811320754717 L375.09433962264154,456.62264150943395" stroke="red" stroke-width="2" fill="none" />
<path d="M375.09433962264154,456.62264150943395 L379.31132075471703,458.02830188679246" stroke="red" stroke-width="2" fill="none" />
<path d="M379.31132075471703,458.02830188679246 L380.7169811320755,455.2169811320755" stroke="red" stroke-width="2" fill="none" />
<path d="M380.7169811320755,455.2169811320755 L376.5,453.811320754717" stroke="red" stroke-width="2" fill="none" />
<path d="M411.64150943396226,386.33962264150944 L415.85849056603774,389.1509433962264" stroke="red" stroke-width="2" fill="none" />
<path d="M306.2169811320755,456.62264150943395 L309.02830188679246,456.62264150943395" stroke="red" stroke-width="2" fill="none" />
<path d="M268.2641509433962,438.3490566037736 L306.2169811320755,456.62264150943395" stroke="red" stroke-width="2" fill="none" />
<path d="M268.2641509433962,491.7641509433962 L268.2641509433962,465.0566037735849" stroke="red" stroke-width="2" fill="none" />
<path d="M306.2169811320755,473.49056603773585 L268.2641509433962,491.7641509433962" stroke="red" stroke-width="2" fill="none" />
<path d="M309.02830188679246,473.49056603773585 L306.2169811320755,473.49056603773585" stroke="red" stroke-width="2" fill="none" />
<path d="M309.02830188679246,453.811320754717 L264.04716981132077,431.3207547169811" stroke="red" stroke-width="2" fill="none" />
<path d="M415.85849056603774,389.1509433962264 L449.59433962264154,391.9622641509434" stroke="red" stroke-width="2" fill="none" />
<path d="M449.59433962264154,391.9622641509434 L456.622641509434,386.33962264150944" stroke="red" stroke-width="2" fill="none" />
<path d="M456.622641509434,408.8301886792453 L449.59433962264154,403.2075471698113" stroke="red" stroke-width="2" fill="none" />
<path d="M264.04716981132077,588.7547169811321 L242.9622641509434,601.4056603773585" stroke="red" stroke-width="2" fill="none" />
<path d="M242.9622641509434,635.1415094339623 L264.04716981132077,644.9811320754717" stroke="red" stroke-width="2" fill="none" />
<path d="M264.04716981132077,644.9811320754717 L286.5377358490566,633.7358490566038" stroke="red" stroke-width="2" fill="none" />
<path d="M286.5377358490566,633.7358490566038 L275.2924528301887,633.7358490566038" stroke="red" stroke-width="2" fill="none" />
<path d="M275.2924528301887,600.0 L286.5377358490566,600.0" stroke="red" stroke-width="2" fill="none" />
<path d="M286.5377358490566,600.0 L264.04716981132077,588.7547169811321" stroke="red" stroke-width="2" fill="none" />
<path d="M252.80188679245285,600.0 L275.2924528301887,600.0" stroke="red" stroke-width="2" fill="none" />
<path d="M252.80188679245285,633.7358490566038 L252.80188679245285,600.0" stroke="red" stroke-width="2" fill="none" />
<path d="M275.2924528301887,633.7358490566038 L252.80188679245285,633.7358490566038" stroke="red" stroke-width="2" fill="none" />
<path d="M275.2924528301887,543.7735849056604 L264.04716981132077,543.7735849056604" stroke="red" stroke-width="2" fill="none" />
<path d="M264.04716981132077,532.5283018867924 L275.2924528301887,532.5283018867924" stroke="red" stroke-width="2" fill="none" />
<path d="M275.2924528301887,532.5283018867924 L286.5377358490566,532.5283018867924" stroke="red" stroke-width="2" fill="none" />
<path d="M286.5377358490566,532.5283018867924 L286.5377358490566,543.7735849056604" stroke="red" stroke-width="2" fill="none" />
<path d="M259.83018867924534,532.5283018867924 L264.04716981132077,532.5283018867924" stroke="red" stroke-width="2" fill="none" />
<path d="M257.0188679245283,532.5283018867924 L259.83018867924534,532.5283018867924" stroke="red" stroke-width="2" fill="none" />
<path d="M248.58490566037736,525.5 L257.0188679245283,532.5283018867924" stroke="red" stroke-width="2" fill="none" />
<path d="M241.55660377358492,532.5283018867924 L248.58490566037736,525.5" stroke="red" stroke-width="2" fill="none" />
<path d="M248.58490566037736,550.8018867924528 L241.55660377358492,543.7735849056604" stroke="red" stroke-width="2" fill="none" />
<path d="M257.0188679245283,543.7735849056604 L248.58490566037736,550.8018867924528" stroke="red" stroke-width="2" fill="none" />
<path d="M259.83018867924534,543.7735849056604 L257.0188679245283,543.7735849056604" stroke="red" stroke-width="2" fill="none" />
<path d="M264.04716981132077,543.7735849056604 L259.83018867924534,543.7735849056604" stroke="red" stroke-width="2" fill="none" />
<path d="M439.7547169811321,535.3396226415094 L460.83962264150944,555.0188679245283" stroke="red" stroke-width="2" fill="none" />
<path d="M460.83962264150944,555.0188679245283 L414.4528301886793,581.7264150943396" stroke="red" stroke-width="2" fill="none" />
<path d="M414.4528301886793,581.7264150943396 L414.4528301886793,535.3396226415094" stroke="red" stroke-width="2" fill="none" />
<path d="M268.2641509433962,465.0566037735849 L268.2641509433962,453.811320754717" stroke="lavender" stroke-width="2" fill="none" />
<path d="M268.2641509433962,453.811320754717 L268.2641509433962,438.3490566037736" stroke="red" stroke-width="2" fill="none" />
<path d="M264.04716981132077,318.8679245283019 L286.5377358490566,352.60377358490564" stroke="red" stroke-width="2" fill="none" />
<path d="M292.16037735849056,296.37735849056605 L264.04716981132077,318.8679245283019" stroke="red" stroke-width="2" fill="none" />
<path d="M332.9245283018868,318.8679245283019 L292.16037735849056,296.37735849056605" stroke="red" stroke-width="2" fill="none" />
<path d="M321.6792452830189,318.8679245283019 L332.9245283018868,318.8679245283019" stroke="red" stroke-width="2" fill="none" />
<path d="M292.16037735849056,300.5943396226415 L321.6792452830189,318.8679245283019" stroke="red" stroke-width="2" fill="none" />
<path d="M268.2641509433962,318.8679245283019 L292.16037735849056,300.5943396226415" stroke="red" stroke-width="2" fill="none" />
<path d="M286.5377358490566,341.35849056603774 L268.2641509433962,318.8679245283019" stroke="red" stroke-width="2" fill="none" />
<path d="M286.5377358490566,352.60377358490564 L286.5377358490566,341.35849056603774" stroke="red" stroke-width="2" fill="none" />
<path d="M376.5,127.69811320754718 L342.76415094339626,138.94339622641508" stroke="red" stroke-width="2" fill="none" />
<path d="M342.76415094339626,138.94339622641508 L342.76415094339626,161.43396226415092" stroke="red" stroke-width="2" fill="none" />
<path d="M342.76415094339626,161.43396226415092 L376.5,172.67924528301887" stroke="red" stroke-width="2" fill="none" />
<path d="M376.5,172.67924528301887 L387.74528301886795,161.43396226415092" stroke="red" stroke-width="2" fill="none" />
<path d="M387.74528301886795,161.43396226415092 L383.52830188679246,161.43396226415092" stroke="red" stroke-width="2" fill="none" />
<path d="M383.52830188679246,161.43396226415092 L354.00943396226415,161.43396226415092" stroke="red" stroke-width="2" fill="none" />
<path d="M354.00943396226415,161.43396226415092 L354.00943396226415,138.94339622641508" stroke="red" stroke-width="2" fill="none" />
<path d="M354.00943396226415,138.94339622641508 L383.52830188679246,138.94339622641508" stroke="red" stroke-width="2" fill="none" />
<path d="M383.52830188679246,138.94339622641508 L387.74528301886795,138.94339622641508" stroke="red" stroke-width="2" fill="none" />
<path d="M387.74528301886795,138.94339622641508 L376.5,127.69811320754718" stroke="red" stroke-width="2" fill="none" />
<path d="M623.8962264150944,127.69811320754718 L577.5094339622642,127.69811320754718" stroke="red" stroke-width="2" fill="none" />
<path d="M577.5094339622642,127.69811320754718 L577.5094339622642,161.43396226415092" stroke="red" stroke-width="2" fill="none" />
<path d="M469.2735849056604,555.0188679245283 L442.5660377358491,529.7169811320755" stroke="red" stroke-width="2" fill="none" />
<path d="M758.8396226415094,341.35849056603774 L770.0849056603774,330.1132075471698" stroke="red" stroke-width="2" fill="none" />
<path d="M770.0849056603774,330.1132075471698 L770.0849056603774,307.62264150943395" stroke="red" stroke-width="2" fill="none" />
<path d="M770.0849056603774,307.62264150943395 L848.8018867924529,307.62264150943395" stroke="red" stroke-width="2" fill="none" />
<path d="M848.8018867924529,307.62264150943395 L848.8018867924529,330.1132075471698" stroke="red" stroke-width="2" fill="none" />
<path d="M848.8018867924529,330.1132075471698 L860.0471698113208,341.35849056603774" stroke="red" stroke-width="2" fill="none" />
<path d="M860.0471698113208,341.35849056603774 L860.0471698113208,296.37735849056605" stroke="red" stroke-width="2" fill="none" />
<path d="M860.0471698113208,296.37735849056605 L758.8396226415094,296.37735849056605" stroke="red" stroke-width="2" fill="none" />
<path d="M758.8396226415094,296.37735849056605 L758.8396226415094,341.35849056603774" stroke="red" stroke-width="2" fill="none" />
<path d="M242.9622641509434,601.4056603773585 L242.9622641509434,635.1415094339623" stroke="red" stroke-width="2" fill="none" />
<path d="M623.8962264150944,122.07547169811318 L623.8962264150944,127.69811320754718" stroke="red" stroke-width="2" fill="none" />
<path d="M612.6509433962265,150.18867924528303 L639.3584905660377,138.94339622641508" stroke="red" stroke-width="2" fill="none" />
<path d="M601.4056603773586,138.94339622641508 L612.6509433962265,138.94339622641508" stroke="red" stroke-width="2" fill="none" />
<path d="M612.6509433962265,138.94339622641508 L612.6509433962265,150.18867924528303" stroke="red" stroke-width="2" fill="none" />
<path d="M601.4056603773586,150.18867924528303 L601.4056603773586,138.94339622641508" stroke="red" stroke-width="2" fill="none" />
<path d="M241.55660377358492,543.7735849056604 L230.311320754717,543.7735849056604" stroke="red" stroke-width="2" fill="none" />
<path d="M230.311320754717,543.7735849056604 L230.311320754717,532.5283018867924" stroke="red" stroke-width="2" fill="none" />
<path d="M230.311320754717,532.5283018867924 L241.55660377358492,532.5283018867924" stroke="red" stroke-width="2" fill="none" />
</svg>