<?xml version="1.0" encoding="UTF-8"?>
<svg xmlns="http://www.w3.org/2000/svg" xmlns:xlink="http://www.w3.org/1999/xlink"
     width="1200" height="1289" viewBox="0 0 1200 1289">
<defs>
</defs>
<path d="M630.8275862068965,1216.5517241379312 L589.7241379310344,1216.5517241379312" stroke="lavender" stroke-width="1" fill="none" />
<path d="M589.7241379310344,1221.689655172414 L630.8275862068965,1221.689655172414" stroke="lavender" stroke-width="1" fill="none" />
<path d="M394.48275862068965,928.8275862068965 L394.48275862068965,1052.1379310344828" stroke="yellow" stroke-width="1" fill="none" />
<path d="M394.48275862068965,1052.1379310344828 L45.10344827586198,1113.7931034482758" stroke="yellow" stroke-width="1" fill="none" />
<path d="M45.10344827586198,1113.7931034482758 L106.75862068965512,784.9655172413793" stroke="yellow" stroke-width="1" fill="none" />
<path d="M106.75862068965512,784.9655172413793 L230.06896551724134,784.9655172413793" stroke="yellow" stroke-width="1" fill="none" />
<path d="M230.06896551724134,784.9655172413793 L332.8275862068965,682.2068965517242" stroke="yellow" stroke-width="1" fill="none" />
<path d="M332.8275862068965,682.2068965517242 L332.8275862068965,476.6896551724138" stroke="yellow" stroke-width="1" fill="none" />
<path d="M332.8275862068965,476.6896551724138 L230.06896551724134,373.9310344827586" stroke="yellow" stroke-width="1" fill="none" />
<path d="M230.06896551724134,373.9310344827586 L106.75862068965512,373.9310344827586" stroke="yellow" stroke-width="1" fill="none" />
<path d="M106.75862068965512,373.9310344827586 L45.10344827586198,45.10344827586198" stroke="yellow" stroke-width="1" fill="none" />
<path d="M45.10344827586198,45.10344827586198 L394.48275862068965,106.75862068965512" stroke="yellow" stroke-width="1" fill="none" />
<path d="M394.48275862068965,106.75862068965512 L394.48275862068965,209.51724137931035" stroke="yellow" stroke-width="1" fill="none" />
<path d="M394.48275862068965,209.51724137931035 L497.24137931034477,312.27586206896547" stroke="yellow" stroke-width="1" fill="none" />
<path d="M497.24137931034477,312.27586206896547 L723.3103448275862,312.27586206896547" stroke="yellow" stroke-width="1" fill="none" />
<path d="M723.3103448275862,312.27586206896547 L826.0689655172414,209.51724137931035" stroke="yellow" stroke-width="1" fill="none" />
<path d="M826.0689655172414,209.51724137931035 L826.0689655172414,106.75862068965512" stroke="yellow" stroke-width="1" fill="none" />
<path d="M826.0689655172414,106.75862068965512 L1154.896551724138,45.10344827586198" stroke="yellow" stroke-width="1" fill="none" />
<path d="M1154.896551724138,45.10344827586198 L1093.2413793103449,373.9310344827586" stroke="yellow" stroke-width="1" fill="none" />
<path d="M1093.2413793103449,373.9310344827586 L990.4827586206897,373.9310344827586" stroke="yellow" stroke-width="1" fill="none" />
<path d="M990.4827586206897,373.9310344827586 L887.7241379310344,476.6896551724138" stroke="yellow" stroke-width="1" fill="none" />
<path d="M887.7241379310344,476.6896551724138 L887.7241379310344,682.2068965517242" stroke="yellow" stroke-width="1" fill="none" />
<path d="M887.7241379310344,682.2068965517242 L990.4827586206897,784.9655172413793" stroke="yellow" stroke-width="1" fill="none" />
<path d="M990.4827586206897,784.9655172413793 L1093.2413793103449,784.9655172413793" stroke="yellow" stroke-width="1" fill="none" />
<path d="M1093.2413793103449,784.9655172413793 L1154.896551724138,1113.7931034482758" stroke="yellow" stroke-width="1" fill="none" />
<path d="M1154.896551724138,1113.7931034482758 L826.0689655172414,1052.1379310344828" stroke="yellow" stroke-width="1" fill="none" />
<path d="M826.0689655172414,1052.1379310344828 L826.0689655172414,928.8275862068965" stroke="yellow" stroke-width="1" fill="none" />
<path d="M826.0689655172414,928.8275862068965 L743.8620689655172,846.6206896551724" stroke="yellow" stroke-width="1" fill="none" />
<path d="M743.8620689655172,846.6206896551724 L476.6896551724138,846.6206896551724" stroke="yellow" stroke-width="1" fill="none" />
<path d="M476.6896551724138,846.6206896551724 L394.48275862068965,928.8275862068965" stroke="yellow" stroke-width="1" fill="none" />
<path d="M635.9655172413793,517.7931034482758 L584.5862068965517,517.7931034482758" stroke="yellow" stroke-width="1" fill="none" />
<path d="M548.6206896551724,553.7586206896551 L548.6206896551724,605.1379310344828" stroke="yellow" stroke-width="1" fill="none" />
<path d="M584.5862068965517,641.1034482758621 L635.9655172413793,641.1034482758621" stroke="yellow" stroke-width="1" fill="none" />
<path d="M671.9310344827586,605.1379310344828 L671.9310344827586,553.7586206896551" stroke="yellow" stroke-width="1" fill="none" />
<path d="M553.7586206896551,558.8965517241379 L553.7586206896551,600.0" stroke="lavender" stroke-width="1" fill="none" />
<path d="M589.7241379310344,635.9655172413793 L630.8275862068965,635.9655172413793" stroke="lavender" stroke-width="1" fill="none" />
<path d="M666.7931034482758,600.0 L666.7931034482758,558.8965517241379" stroke="lavender" stroke-width="1" fill="none" />
<path d="M630.8275862068965,522.9310344827586 L589.7241379310344,522.9310344827586" stroke="lavender" stroke-width="1" fill="none" />
<path d="M558.8965517241379,600.0 L558.8965517241379,558.8965517241379" stroke="lavender" stroke-width="1" fill="none" />
<path d="M589.7241379310344,528.0689655172414 L630.8275862068965,528.0689655172414" stroke="lavender" stroke-width="1" fill="none" />
<path d="M661.655172413793,558.8965517241379 L661.655172413793,600.0" stroke="lavender" stroke-width="1" fill="none" />
<path d="M630.8275862068965,630.8275862068965 L589.7241379310344,630.8275862068965" stroke="lavender" stroke-width="1" fill="none" />
<path d="M497.24137931034477,312.27586206896547 L517.7931034482758,332.8275862068965" stroke="yellow" stroke-width="1" fill="none" />
<path d="M517.7931034482758,332.8275862068965 L538.3448275862069,353.37931034482756" stroke="yellow" stroke-width="1" fill="none" />
<path d="M538.3448275862069,353.37931034482756 L558.8965517241379,373.9310344827586" stroke="yellow" stroke-width="1" fill="none" />
<path d="M558.8965517241379,373.9310344827586 L661.655172413793,373.9310344827586" stroke="yellow" stroke-width="1" fill="none" />
<path d="M661.655172413793,373.9310344827586 L682.2068965517242,353.37931034482756" stroke="yellow" stroke-width="1" fill="none" />
<path d="M682.2068965517242,353.37931034482756 L702.7586206896551,332.8275862068965" stroke="yellow" stroke-width="1" fill="none" />
<path d="M702.7586206896551,332.8275862068965 L723.3103448275862,312.27586206896547" stroke="yellow" stroke-width="1" fill="none" />
<path d="M517.7931034482758,332.8275862068965 L702.7586206896551,332.8275862068965" stroke="yellow" stroke-width="1" fill="none" />
<path d="M538.3448275862069,353.37931034482756 L682.2068965517242,353.37931034482756" stroke="yellow" stroke-width="1" fill="none" />
<path d="M589.7241379310344,1216.5517241379312 L589.7241379310344,949.3793103448276" stroke="red" stroke-width="1" fill="none" />
<path d="M589.7241379310344,1221.689655172414 L589.7241379310344,1216.5517241379312" stroke="red" stroke-width="1" fill="none" />
<path d="M566.6034482758621,1249.948275862069 L589.7241379310344,1221.689655172414" stroke="red" stroke-width="1" fill="none" />
<path d="M610.2758620689655,1285.9137931034484 L566.6034482758621,1249.948275862069" stroke="red" stroke-width="1" fill="none" />
<path d="M653.948275862069,1249.948275862069 L610.2758620689655,1285.9137931034484" stroke="red" stroke-width="1" fill="none" />
<path d="M630.8275862068965,1221.689655172414 L653.948275862069,1249.948275862069" stroke="red" stroke-width="1" fill="none" />
<path d="M630.8275862068965,1216.5517241379312 L630.8275862068965,1221.689655172414" stroke="red" stroke-width="1" fill="none" />
<path d="M630.8275862068965,949.3793103448276 L630.8275862068965,1216.5517241379312" stroke="red" stroke-width="1" fill="none" />
<path d="M641.1034482758621,949.3793103448276 L630.8275862068965,949.3793103448276" stroke="red" stroke-width="1" fill="none" />
<path d="M702.7586206896551,887.7241379310344 L641.1034482758621,949.3793103448276" stroke="red" stroke-width="1" fill="none" />
<path d="M784.9655172413793,949.3793103448276 L702.7586206896551,887.7241379310344" stroke="red" stroke-width="1" fill="none" />
<path d="M784.9655172413793,1093.2413793103449 L784.9655172413793,949.3793103448276" stroke="red" stroke-width="1" fill="none" />
<path d="M1196.0,1154.896551724138 L784.9655172413793,1093.2413793103449" stroke="red" stroke-width="1" fill="none" />
<path d="M1134.344827586207,743.8620689655172 L1196.0,1154.896551724138" stroke="red" stroke-width="1" fill="none" />
<path d="M1011.0344827586207,743.8620689655172 L1134.344827586207,743.8620689655172" stroke="red" stroke-width="1" fill="none" />
<path d="M928.8275862068965,661.655172413793 L1011.0344827586207,743.8620689655172" stroke="red" stroke-width="1" fill="none" />
<path d="M928.8275862068965,497.2413793103448 L928.8275862068965,661.655172413793" stroke="red" stroke-width="1" fill="none" />
<path d="M1011.0344827586207,415.03448275862064 L928.8275862068965,497.2413793103448" stroke="red" stroke-width="1" fill="none" />
<path d="M1134.344827586207,415.03448275862064 L1011.0344827586207,415.03448275862064" stroke="red" stroke-width="1" fill="none" />
<path d="M1196.0,4.0 L1134.344827586207,415.03448275862064" stroke="red" stroke-width="1" fill="none" />
<path d="M784.9655172413793,65.65517241379303 L1196.0,4.0" stroke="red" stroke-width="1" fill="none" />
<path d="M784.9655172413793,188.9655172413793 L784.9655172413793,65.65517241379303" stroke="red" stroke-width="1" fill="none" />
<path d="M702.7586206896551,271.1724137931034 L784.9655172413793,188.9655172413793" stroke="red" stroke-width="1" fill="none" />
<path d="M517.7931034482758,271.1724137931034 L702.7586206896551,271.1724137931034" stroke="red" stroke-width="1" fill="none" />
<path d="M435.5862068965517,188.9655172413793 L517.7931034482758,271.1724137931034" stroke="red" stroke-width="1" fill="none" />
<path d="M435.5862068965517,65.65517241379303 L435.5862068965517,188.9655172413793" stroke="red" stroke-width="1" fill="none" />
<path d="M4.0,4.0 L435.5862068965517,65.65517241379303" stroke="red" stroke-width="1" fill="none" />
<path d="M65.65517241379303,415.03448275862064 L4.0,4.0" stroke="red" stroke-width="1" fill="none" />
<path d="M209.5172413793103,415.03448275862064 L65.65517241379303,415.03448275862064" stroke="red" stroke-width="1" fill="none" />
<path d="M291.7241379310344,497.2413793103448 L209.5172413793103,415.03448275862064" stroke="red" stroke-width="1" fill="none" />
<path d="M291.7241379310344,661.655172413793 L291.7241379310344,497.2413793103448" stroke="red" stroke-width="1" fill="none" />
<path d="M209.5172413793103,743.8620689655172 L291.7241379310344,661.655172413793" stroke="red" stroke-width="1" fill="none" />
<path d="M65.65517241379303,743.8620689655172 L209.5172413793103,743.8620689655172" stroke="red" stroke-width="1" fill="none" />
<path d="M4.0,1154.896551724138 L65.65517241379303,743.8620689655172" stroke="red" stroke-width="1" fill="none" />
<path d="M435.5862068965517,1093.2413793103449 L4.0,1154.896551724138" stroke="red" stroke-width="1" fill="none" />
<path d="M435.5862068965517,949.3793103448276 L435.5862068965517,1093.2413793103449" stroke="red" stroke-width="1" fill="none" />
<path d="M517.7931034482758,887.7241379310344 L435.5862068965517,949.3793103448276" stroke="red" stroke-width="1" fill="none" />
<path d="M579.448275862069,949.3793103448276 L517.7931034482758,887.7241379310344" stroke="red" stroke-width="1" fill="none" />
<path d="M589.7241379310344,949.3793103448276 L579.448275862069,949.3793103448276" stroke="red" stroke-width="1" fill="none" />
<path d="M671.9310344827586,553.7586206896551 L659.0862068965517,530.6379310344828" stroke="red" stroke-width="1" fill="none" />
<path d="M659.0862068965517,530.6379310344828 L635.9655172413793,517.7931034482758" stroke="red" stroke-width="1" fill="none" />
<path d="M584.5862068965517,517.7931034482758 L561.4655172413793,530.6379310344828" stroke="red" stroke-width="1" fill="none" />
<path d="M561.4655172413793,530.6379310344828 L548.6206896551724,553.7586206896551" stroke="red" stroke-width="1" fill="none" />
<path d="M548.6206896551724,605.1379310344828 L561.4655172413793,628.2586206896551" stroke="red" stroke-width="1" fill="none" />
<path d="M561.4655172413793,628.2586206896551 L584.5862068965517,641.1034482758621" stroke="red" stroke-width="1" fill="none" />
<path d="M635.9655172413793,641.1034482758621 L659.0862068965517,628.2586206896551" stroke="red" stroke-width="1" fill="none" />
<path d="M659.0862068965517,628.2586206896551 L671.9310344827586,605.1379310344828" stroke="red" stroke-width="1" fill="none" />
<path d="M548.6206896551724,553.7586206896551 L553.7586206896551,558.8965517241379" stroke="red" stroke-width="1" fill="none" />
<path d="M553.7586206896551,600.0 L548.6206896551724,605.1379310344828" stroke="red" stroke-width="1" fill="none" />
<path d="M584.5862068965517,641.1034482758621 L589.7241379310344,635.9655172413793" stroke="red" stroke-width="1" fill="none" />
<path d="M630.8275862068965,635.9655172413793 L635.9655172413793,641.1034482758621" stroke="red" stroke-width="1" fill="none" />
<path d="M671.9310344827586,605.1379310344828 L666.7931034482758,600.0" stroke="red" stroke-width="1" fill="none" />
<path d="M666.7931034482758,558.8965517241379 L671.9310344827586,553.7586206896551" stroke="red" stroke-width="1" fill="none" />
<path d="M635.9655172413793,517.7931034482758 L630.8275862068965,522.9310344827586" stroke="red" stroke-width="1" fill="none" />
<path d="M589.7241379310344,522.9310344827586 L584.5862068965517,517.7931034482758" stroke="red" stroke-width="1" fill="none" />
<path d="M553.7586206896551,558.8965517241379 L558.8965517241379,558.8965517241379" stroke="red" stroke-width="1" fill="none" />
<path d="M558.8965517241379,558.8965517241379 L569.1724137931034,538.3448275862069" stroke="red" stroke-width="1" fill="none" />
<path d="M569.1724137931034,538.3448275862069 L589.7241379310344,528.0689655172414" stroke="red" stroke-width="1" fill="none" />
<path d="M589.7241379310344,528.0689655172414 L589.7241379310344,522.9310344827586" stroke="red" stroke-width="1" fill="none" />
<path d="M630.8275862068965,522.9310344827586 L630.8275862068965,528.0689655172414" stroke="red" stroke-width="1" fill="none" />
<path d="M630.8275862068965,528.0689655172414 L651.3793103448276,538.3448275862069" stroke="red" stroke-width="1" fill="none" />
<path d="M651.3793103448276,538.3448275862069 L661.655172413793,558.8965517241379" stroke="red" stroke-width="1" fill="none" />
<path d="M661.655172413793,558.8965517241379 L666.7931034482758,558.8965517241379" stroke="red" stroke-width="1" fill="none" />
<path d="M589.7241379310344,635.9655172413793 L589.7241379310344,630.8275862068965" stroke="red" stroke-width="1" fill="none" />
<path d="M589.7241379310344,630.8275862068965 L569.1724137931034,620.551724137931" stroke="red" stroke-width="1" fill="none" />
<path d="M569.1724137931034,620.551724137931 L558.8965517241379,600.0" stroke="red" stroke-width="1" fill="none" />
<path d="M558.8965517241379,600.0 L553.7586206896551,600.0" stroke="red" stroke-width="1" fill="none" />
<path d="M630.8275862068965,630.8275862068965 L630.8275862068965,635.9655172413793" stroke="red" stroke-width="1" fill="none" />
<path d="M651.3793103448276,620.551724137931 L630.8275862068965,630.8275862068965" stroke="red" stroke-width="1" fill="none" />
<path d="M661.655172413793,600.0 L651.3793103448276,620.551724137931" stroke="red" stroke-width="1" fill="none" />
<path d="M666.7931034482758,600.0 L661.655172413793,600.0" stroke="red" stroke-width="1" fill="none" />
</svg>