<?xml version="1.0" encoding="UTF-8"?>
<svg xmlns="http://www.w3.org/2000/svg" xmlns:xlink="http://www.w3.org/1999/xlink"
     width="1200" height="1319" viewBox="0 0 1200 1319">
<defs>
</defs>
<path d="M619.8666666666666,1225.8000000000002 L580.1333333333332,1225.8000000000002" stroke="lavender" stroke-width="1" fill="none" />
<path d="M619.8666666666666,1220.8333333333335 L580.1333333333332,1220.8333333333335" stroke="yellow" stroke-width="1" fill="none" />
<path d="M619.8666666666666,1210.9 L580.1333333333332,1210.9" stroke="yellow" stroke-width="1" fill="none" />
<path d="M679.4666666666667,1156.2666666666667 L520.5333333333333,1156.2666666666667" stroke="yellow" stroke-width="1" fill="none" />
<path d="M600.0,659.6 L639.7333333333333,639.7333333333333" stroke="yellow" stroke-width="1" fill="none" />
<path d="M639.7333333333333,639.7333333333333 L659.5999999999999,600.0" stroke="yellow" stroke-width="1" fill="none" />
<path d="M659.5999999999999,600.0 L639.7333333333333,560.2666666666667" stroke="yellow" stroke-width="1" fill="none" />
<path d="M639.7333333333333,560.2666666666667 L600.0,540.4" stroke="yellow" stroke-width="1" fill="none" />
<path d="M600.0,540.4 L560.2666666666667,560.2666666666667" stroke="yellow" stroke-width="1" fill="none" />
<path d="M560.2666666666667,560.2666666666667 L540.3999999999999,600.0" stroke="yellow" stroke-width="1" fill="none" />
<path d="M540.3999999999999,600.0 L560.2666666666667,639.7333333333333" stroke="yellow" stroke-width="1" fill="none" />
<path d="M560.2666666666667,639.7333333333333 L600.0,659.6" stroke="yellow" stroke-width="1" fill="none" />
<path d="M520.5333333333333,600.0 L540.3999999999999,540.4" stroke="yellow" stroke-width="1" fill="none" />
<path d="M540.3999999999999,540.4 L600.0,520.5333333333333" stroke="yellow" stroke-width="1" fill="none" />
<path d="M600.0,520.5333333333333 L659.5999999999999,540.4" stroke="yellow" stroke-width="1" fill="none" />
<path d="M659.5999999999999,540.4 L679.4666666666667,600.0" stroke="yellow" stroke-width="1" fill="none" />
<path d="M679.4666666666667,600.0 L659.5999999999999,659.6" stroke="yellow" stroke-width="1" fill="none" />
<path d="M659.5999999999999,659.6 L600.0,679.4666666666667" stroke="yellow" stroke-width="1" fill="none" />
<path d="M600.0,679.4666666666667 L540.3999999999999,659.6" stroke="yellow" stroke-width="1" fill="none" />
<path d="M540.3999999999999,659.6 L520.5333333333333,600.0" stroke="yellow" stroke-width="1" fill="none" />
<path d="M600.0,699.3333333333334 L520.5333333333333,679.4666666666667" stroke="yellow" stroke-width="1" fill="none" />
<path d="M520.5333333333333,679.4666666666667 L500.66666666666674,600.0" stroke="yellow" stroke-width="1" fill="none" />
<path d="M500.66666666666674,600.0 L520.5333333333333,520.5333333333333" stroke="yellow" stroke-width="1" fill="none" />
<path d="M520.5333333333333,520.5333333333333 L600.0,500.6666666666667" stroke="yellow" stroke-width="1" fill="none" />
<path d="M600.0,500.6666666666667 L679.4666666666667,520.5333333333333" stroke="yellow" stroke-width="1" fill="none" />
<path d="M679.4666666666667,520.5333333333333 L699.3333333333333,600.0" stroke="yellow" stroke-width="1" fill="none" />
<path d="M699.3333333333333,600.0 L679.4666666666667,679.4666666666667" stroke="yellow" stroke-width="1" fill="none" />
<path d="M679.4666666666667,679.4666666666667 L600.0,699.3333333333334" stroke="yellow" stroke-width="1" fill="none" />
<path d="M600.0,480.8 L699.3333333333333,500.6666666666667" stroke="yellow" stroke-width="1" fill="none" />
<path d="M699.3333333333333,500.6666666666667 L719.2,600.0" stroke="yellow" stroke-width="1" fill="none" />
<path d="M719.2,600.0 L699.3333333333333,699.3333333333334" stroke="yellow" stroke-width="1" fill="none" />
<path d="M699.3333333333333,699.3333333333334 L600.0,719.2" stroke="yellow" stroke-width="1" fill="none" />
<path d="M600.0,719.2 L500.66666666666674,699.3333333333334" stroke="yellow" stroke-width="1" fill="none" />
<path d="M500.66666666666674,699.3333333333334 L480.79999999999995,600.0" stroke="yellow" stroke-width="1" fill="none" />
<path d="M480.79999999999995,600.0 L500.66666666666674,500.6666666666667" stroke="yellow" stroke-width="1" fill="none" />
<path d="M500.66666666666674,500.6666666666667 L600.0,480.8" stroke="yellow" stroke-width="1" fill="none" />
<path d="M480.79999999999995,480.8 L600.0,460.93333333333334" stroke="yellow" stroke-width="1" fill="none" />
<path d="M600.0,460.93333333333334 L719.2,480.8" stroke="yellow" stroke-width="1" fill="none" />
<path d="M719.2,480.8 L739.0666666666666,600.0" stroke="yellow" stroke-width="1" fill="none" />
<path d="M739.0666666666666,600.0 L719.2,719.2" stroke="yellow" stroke-width="1" fill="none" />
<path d="M719.2,719.2 L600.0,739.0666666666666" stroke="yellow" stroke-width="1" fill="none" />
<path d="M600.0,739.0666666666666 L480.79999999999995,719.2" stroke="yellow" stroke-width="1" fill="none" />
<path d="M480.79999999999995,719.2 L460.9333333333334,600.0" stroke="yellow" stroke-width="1" fill="none" />
<path d="M460.9333333333334,600.0 L480.79999999999995,480.8" stroke="yellow" stroke-width="1" fill="none" />
<path d="M600.0,441.06666666666666 L739.0666666666666,460.93333333333334" stroke="yellow" stroke-width="1" fill="none" />
<path d="M739.0666666666666,460.93333333333334 L758.9333333333334,600.0" stroke="yellow" stroke-width="1" fill="none" />
<path d="M758.9333333333334,600.0 L739.0666666666666,739.0666666666666" stroke="yellow" stroke-width="1" fill="none" />
<path d="M739.0666666666666,739.0666666666666 L600.0,758.9333333333334" stroke="yellow" stroke-width="1" fill="none" />
<path d="M600.0,758.9333333333334 L460.9333333333334,739.0666666666666" stroke="yellow" stroke-width="1" fill="none" />
<path d="M460.9333333333334,739.0666666666666 L441.0666666666666,600.0" stroke="yellow" stroke-width="1" fill="none" />
<path d="M441.0666666666666,600.0 L460.9333333333334,460.93333333333334" stroke="yellow" stroke-width="1" fill="none" />
<path d="M460.9333333333334,460.93333333333334 L600.0,441.06666666666666" stroke="yellow" stroke-width="1" fill="none" />
<path d="M441.0666666666666,441.06666666666666 L600.0,421.20000000000005" stroke="yellow" stroke-width="1" fill="none" />
<path d="M600.0,421.20000000000005 L758.9333333333334,441.06666666666666" stroke="yellow" stroke-width="1" fill="none" />
<path d="M758.9333333333334,441.06666666666666 L778.8,600.0" stroke="yellow" stroke-width="1" fill="none" />
<path d="M778.8,600.0 L758.9333333333334,758.9333333333334" stroke="yellow" stroke-width="1" fill="none" />
<path d="M758.9333333333334,758.9333333333334 L600.0,778.8" stroke="yellow" stroke-width="1" fill="none" />
<path d="M600.0,778.8 L441.0666666666666,758.9333333333334" stroke="yellow" stroke-width="1" fill="none" />
<path d="M441.0666666666666,758.9333333333334 L421.20000000000005,600.0" stroke="yellow" stroke-width="1" fill="none" />
<path d="M421.20000000000005,600.0 L441.0666666666666,441.06666666666666" stroke="yellow" stroke-width="1" fill="none" />
<path d="M600.0,401.33333333333337 L778.8,421.20000000000005" stroke="yellow" stroke-width="1" fill="none" />
<path d="M778.8,421.20000000000005 L798.6666666666667,600.0" stroke="yellow" stroke-width="1" fill="none" />
<path d="M798.6666666666667,600.0 L778.8,778.8" stroke="yellow" stroke-width="1" fill="none" />
<path d="M778.8,778.8 L600.0,798.6666666666667" stroke="yellow" stroke-width="1" fill="none" />
<path d="M600.0,798.6666666666667 L421.20000000000005,778.8" stroke="yellow" stroke-width="1" fill="none" />
<path d="M421.20000000000005,778.8 L401.33333333333326,600.0" stroke="yellow" stroke-width="1" fill="none" />
<path d="M401.33333333333326,600.0 L421.20000000000005,421.20000000000005" stroke="yellow" stroke-width="1" fill="none" />
<path d="M421.20000000000005,421.20000000000005 L600.0,401.33333333333337" stroke="yellow" stroke-width="1" fill="none" />
<path d="M600.0,381.4666666666667 L798.6666666666667,401.33333333333337" stroke="yellow" stroke-width="1" fill="none" />
<path d="M798.6666666666667,401.33333333333337 L818.5333333333333,600.0" stroke="yellow" stroke-width="1" fill="none" />
<path d="M818.5333333333333,600.0 L798.6666666666667,798.6666666666667" stroke="yellow" stroke-width="1" fill="none" />
<path d="M798.6666666666667,798.6666666666667 L600.0,818.5333333333333" stroke="yellow" stroke-width="1" fill="none" />
<path d="M600.0,818.5333333333333 L401.33333333333326,798.6666666666667" stroke="yellow" stroke-width="1" fill="none" />
<path d="M401.33333333333326,798.6666666666667 L381.4666666666667,600.0" stroke="yellow" stroke-width="1" fill="none" />
<path d="M381.4666666666667,600.0 L401.33333333333326,401.33333333333337" stroke="yellow" stroke-width="1" fill="none" />
<path d="M401.33333333333326,401.33333333333337 L600.0,381.4666666666667" stroke="yellow" stroke-width="1" fill="none" />
<path d="M679.4666666666667,242.4 L838.4000000000001,282.1333333333333" stroke="yellow" stroke-width="1" fill="none" />
<path d="M917.8666666666666,361.6 L957.5999999999999,520.5333333333333" stroke="yellow" stroke-width="1" fill="none" />
<path d="M957.5999999999999,679.4666666666667 L917.8666666666666,838.4" stroke="yellow" stroke-width="1" fill="none" />
<path d="M838.4000000000001,917.8666666666667 L679.4666666666667,957.6" stroke="yellow" stroke-width="1" fill="none" />
<path d="M520.5333333333333,957.6 L361.5999999999999,917.8666666666667" stroke="yellow" stroke-width="1" fill="none" />
<path d="M282.1333333333332,838.4 L242.39999999999998,679.4666666666667" stroke="yellow" stroke-width="1" fill="none" />
<path d="M242.39999999999998,520.5333333333333 L282.1333333333332,361.6" stroke="yellow" stroke-width="1" fill="none" />
<path d="M361.5999999999999,282.1333333333333 L520.5333333333333,242.4" stroke="yellow" stroke-width="1" fill="none" />
<path d="M679.4666666666667,957.6 L520.5333333333333,957.6" stroke="yellow" stroke-width="1" fill="none" />
<path d="M361.5999999999999,917.8666666666667 L282.1333333333332,838.4" stroke="yellow" stroke-width="1" fill="none" />
<path d="M242.39999999999998,679.4666666666667 L242.39999999999998,520.5333333333333" stroke="yellow" stroke-width="1" fill="none" />
<path d="M282.1333333333332,361.6 L361.5999999999999,282.1333333333333" stroke="yellow" stroke-width="1" fill="none" />
<path d="M520.5333333333333,242.4 L679.4666666666667,242.4" stroke="yellow" stroke-width="1" fill="none" />
<path d="M838.4000000000001,282.1333333333333 L917.8666666666666,361.6" stroke="yellow" stroke-width="1" fill="none" />
<path d="M957.5999999999999,520.5333333333333 L957.5999999999999,679.4666666666667" stroke="yellow" stroke-width="1" fill="none" />
<path d="M917.8666666666666,838.4 L838.4000000000001,917.8666666666667" stroke="yellow" stroke-width="1" fill="none" />
<path d="M242.39999999999998,679.4666666666667 L282.1333333333332,639.7333333333333" stroke="yellow" stroke-width="1" fill="none" />
<path d="M282.1333333333332,560.2666666666667 L242.39999999999998,520.5333333333333" stroke="yellow" stroke-width="1" fill="none" />
<path d="M282.1333333333332,361.6 L321.86666666666656,361.6" stroke="yellow" stroke-width="1" fill="none" />
<path d="M361.5999999999999,321.8666666666667 L361.5999999999999,282.1333333333333" stroke="yellow" stroke-width="1" fill="none" />
<path d="M520.5333333333333,242.4 L560.2666666666667,282.1333333333333" stroke="yellow" stroke-width="1" fill="none" />
<path d="M639.7333333333333,282.1333333333333 L679.4666666666667,242.4" stroke="yellow" stroke-width="1" fill="none" />
<path d="M838.4000000000001,282.1333333333333 L838.4000000000001,321.8666666666667" stroke="yellow" stroke-width="1" fill="none" />
<path d="M878.1333333333332,361.6 L917.8666666666666,361.6" stroke="yellow" stroke-width="1" fill="none" />
<path d="M957.5999999999999,520.5333333333333 L917.8666666666666,560.2666666666667" stroke="yellow" stroke-width="1" fill="none" />
<path d="M917.8666666666666,639.7333333333333 L957.5999999999999,679.4666666666667" stroke="yellow" stroke-width="1" fill="none" />
<path d="M917.8666666666666,838.4 L878.1333333333332,838.4" stroke="yellow" stroke-width="1" fill="none" />
<path d="M838.4000000000001,878.1333333333333 L838.4000000000001,917.8666666666667" stroke="yellow" stroke-width="1" fill="none" />
<path d="M679.4666666666667,957.6 L639.7333333333333,917.8666666666667" stroke="yellow" stroke-width="1" fill="none" />
<path d="M560.2666666666667,917.8666666666667 L520.5333333333333,957.6" stroke="yellow" stroke-width="1" fill="none" />
<path d="M361.5999999999999,917.8666666666667 L361.5999999999999,878.1333333333333" stroke="yellow" stroke-width="1" fill="none" />
<path d="M321.86666666666656,838.4 L282.1333333333332,838.4" stroke="yellow" stroke-width="1" fill="none" />
<path d="M361.5999999999999,878.1333333333333 L321.86666666666656,838.4" stroke="yellow" stroke-width="1" fill="none" />
<path d="M282.1333333333332,639.7333333333333 L282.1333333333332,560.2666666666667" stroke="yellow" stroke-width="1" fill="none" />
<path d="M321.86666666666656,361.6 L361.5999999999999,321.8666666666667" stroke="yellow" stroke-width="1" fill="none" />
<path d="M560.2666666666667,282.1333333333333 L639.7333333333333,282.1333333333333" stroke="yellow" stroke-width="1" fill="none" />
<path d="M838.4000000000001,321.8666666666667 L878.1333333333332,361.6" stroke="yellow" stroke-width="1" fill="none" />
<path d="M917.8666666666666,560.2666666666667 L917.8666666666666,639.7333333333333" stroke="yellow" stroke-width="1" fill="none" />
<path d="M878.1333333333332,838.4 L838.4000000000001,878.1333333333333" stroke="yellow" stroke-width="1" fill="none" />
<path d="M639.7333333333333,917.8666666666667 L560.2666666666667,917.8666666666667" stroke="yellow" stroke-width="1" fill="none" />
<path d="M520.5333333333333,1076.8000000000002 L520.5333333333333,1056.9333333333334" stroke="yellow" stroke-width="1" fill="none" />
<path d="M520.5333333333333,1056.9333333333334 L222.5333333333333,977.4666666666667" stroke="yellow" stroke-width="1" fill="none" />
<path d="M222.5333333333333,977.4666666666667 L143.0666666666666,619.8666666666667" stroke="yellow" stroke-width="1" fill="none" />
<path d="M143.0666666666666,619.8666666666667 L143.0666666666666,580.1333333333333" stroke="yellow" stroke-width="1" fill="none" />
<path d="M143.0666666666666,580.1333333333333 L222.5333333333333,222.53333333333333" stroke="yellow" stroke-width="1" fill="none" />
<path d="M222.5333333333333,222.53333333333333 L580.1333333333332,143.06666666666666" stroke="yellow" stroke-width="1" fill="none" />
<path d="M580.1333333333332,143.06666666666666 L619.8666666666666,143.06666666666666" stroke="yellow" stroke-width="1" fill="none" />
<path d="M619.8666666666666,143.06666666666666 L977.4666666666667,222.53333333333333" stroke="yellow" stroke-width="1" fill="none" />
<path d="M977.4666666666667,222.53333333333333 L1056.9333333333334,580.1333333333333" stroke="yellow" stroke-width="1" fill="none" />
<path d="M1056.9333333333334,580.1333333333333 L1056.9333333333334,619.8666666666667" stroke="yellow" stroke-width="1" fill="none" />
<path d="M1056.9333333333334,619.8666666666667 L977.4666666666667,977.4666666666667" stroke="yellow" stroke-width="1" fill="none" />
<path d="M977.4666666666667,977.4666666666667 L679.4666666666667,1056.9333333333334" stroke="yellow" stroke-width="1" fill="none" />
<path d="M679.4666666666667,1056.9333333333334 L679.4666666666667,1076.8000000000002" stroke="yellow" stroke-width="1" fill="none" />
<path d="M525.5,1166.2 L674.5,1166.2" stroke="yellow" stroke-width="1" fill="none" />
<path d="M143.0666666666666,619.8666666666667 L123.19999999999993,619.8666666666667" stroke="yellow" stroke-width="1" fill="none" />
<path d="M123.19999999999993,580.1333333333333 L143.0666666666666,580.1333333333333" stroke="yellow" stroke-width="1" fill="none" />
<path d="M123.19999999999993,619.8666666666667 L123.19999999999993,580.1333333333333" stroke="yellow" stroke-width="1" fill="none" />
<path d="M580.1333333333332,143.06666666666666 L580.1333333333332,123.19999999999999" stroke="yellow" stroke-width="1" fill="none" />
<path d="M619.8666666666666,123.19999999999999 L619.8666666666666,143.06666666666666" stroke="yellow" stroke-width="1" fill="none" />
<path d="M580.1333333333332,123.19999999999999 L619.8666666666666,123.19999999999999" stroke="yellow" stroke-width="1" fill="none" />
<path d="M1056.9333333333334,580.1333333333333 L1076.8,580.1333333333333" stroke="yellow" stroke-width="1" fill="none" />
<path d="M1076.8,619.8666666666667 L1056.9333333333334,619.8666666666667" stroke="yellow" stroke-width="1" fill="none" />
<path d="M1076.8,580.1333333333333 L1076.8,619.8666666666667" stroke="yellow" stroke-width="1" fill="none" />
<path d="M580.1333333333332,590.0666666666666 L580.1333333333332,609.9333333333334" stroke="yellow" stroke-width="1" fill="none" />
<path d="M679.4666666666667,1076.8000000000002 L679.4666666666667,1156.2666666666667" stroke="red" stroke-width="1" fill="none" />
<path d="M619.8666666666666,1315.2 L580.1333333333332,1315.2" stroke="red" stroke-width="1" fill="none" />
<path d="M520.5333333333333,1156.2666666666667 L520.5333333333333,1076.8000000000002" stroke="red" stroke-width="1" fill="none" />
<path d="M590.0666666666666,1300.3000000000002 L609.9333333333334,1300.3000000000002" stroke="red" stroke-width="1" fill="none" />
<path d="M609.9333333333334,1300.3000000000002 L639.7333333333333,1210.9" stroke="red" stroke-width="1" fill="none" />
<path d="M619.8666666666666,1220.8333333333335 L619.8666666666666,1225.8000000000002" stroke="red" stroke-width="1" fill="none" />
<path d="M580.1333333333332,1225.8000000000002 L580.1333333333332,1220.8333333333335" stroke="red" stroke-width="1" fill="none" />
<path d="M560.2666666666667,1210.9 L590.0666666666666,1300.3000000000002" stroke="red" stroke-width="1" fill="none" />
<path d="M619.8666666666666,1225.8000000000002 L604.9666666666667,1285.4" stroke="red" stroke-width="1" fill="none" />
<path d="M604.9666666666667,1285.4 L595.0333333333333,1285.4" stroke="red" stroke-width="1" fill="none" />
<path d="M595.0333333333333,1285.4 L580.1333333333332,1225.8000000000002" stroke="red" stroke-width="1" fill="none" />
<path d="M580.1333333333332,1220.8333333333335 L580.1333333333332,1210.9" stroke="red" stroke-width="1" fill="none" />
<path d="M580.1333333333332,1210.9 L560.2666666666667,1210.9" stroke="red" stroke-width="1" fill="none" />
<path d="M619.8666666666666,1210.9 L619.8666666666666,1220.8333333333335" stroke="red" stroke-width="1" fill="none" />
<path d="M639.7333333333333,1210.9 L619.8666666666666,1210.9" stroke="red" stroke-width="1" fill="none" />
<path d="M619.8666666666666,123.19999999999999 L997.3333333333333,202.66666666666669" stroke="red" stroke-width="1" fill="none" />
<path d="M997.3333333333333,202.66666666666669 L1076.8,580.1333333333333" stroke="red" stroke-width="1" fill="none" />
<path d="M1076.8,619.8666666666667 L997.3333333333333,997.3333333333334" stroke="red" stroke-width="1" fill="none" />
<path d="M997.3333333333333,997.3333333333334 L679.4666666666667,1076.8000000000002" stroke="red" stroke-width="1" fill="none" />
<path d="M520.5333333333333,1076.8000000000002 L202.66666666666663,997.3333333333334" stroke="red" stroke-width="1" fill="none" />
<path d="M202.66666666666663,997.3333333333334 L123.19999999999993,619.8666666666667" stroke="red" stroke-width="1" fill="none" />
<path d="M123.19999999999993,580.1333333333333 L202.66666666666663,202.66666666666669" stroke="red" stroke-width="1" fill="none" />
<path d="M202.66666666666663,202.66666666666669 L580.1333333333332,123.19999999999999" stroke="red" stroke-width="1" fill="none" />
<path d="M679.4666666666667,1156.2666666666667 L674.5,1166.2" stroke="red" stroke-width="1" fill="none" />
<path d="M674.5,1166.2 L619.8666666666666,1315.2" stroke="red" stroke-width="1" fill="none" />
<path d="M580.1333333333332,1315.2 L525.5,1166.2" stroke="red" stroke-width="1" fill="none" />
<path d="M525.5,1166.2 L520.5333333333333,1156.2666666666667" stroke="red" stroke-width="1" fill="none" />
<path d="M123.19999999999993,619.8666666666667 L83.46666666666658,619.8666666666667" stroke="red" stroke-width="1" fill="none" />
<path d="M83.46666666666658,619.8666666666667 L43.73333333333335,659.6" stroke="red" stroke-width="1" fill="none" />
<path d="M43.73333333333335,659.6 L4.0,619.8666666666667" stroke="red" stroke-width="1" fill="none" />
<path d="M4.0,619.8666666666667 L4.0,580.1333333333333" stroke="red" stroke-width="1" fill="none" />
<path d="M4.0,580.1333333333333 L43.73333333333335,540.4" stroke="red" stroke-width="1" fill="none" />
<path d="M43.73333333333335,540.4 L83.46666666666658,580.1333333333333" stroke="red" stroke-width="1" fill="none" />
<path d="M83.46666666666658,580.1333333333333 L123.19999999999993,580.1333333333333" stroke="red" stroke-width="1" fill="none" />
<path d="M580.1333333333332,123.19999999999999 L580.1333333333332,83.46666666666667" stroke="red" stroke-width="1" fill="none" />
<path d="M580.1333333333332,83.46666666666667 L540.3999999999999,43.73333333333335" stroke="red" stroke-width="1" fill="none" />
<path d="M540.3999999999999,43.73333333333335 L580.1333333333332,4.0" stroke="red" stroke-width="1" fill="none" />
<path d="M580.1333333333332,4.0 L619.8666666666666,4.0" stroke="red" stroke-width="1" fill="none" />
<path d="M619.8666666666666,4.0 L659.5999999999999,43.73333333333335" stroke="red" stroke-width="1" fill="none" />
<path d="M659.5999999999999,43.73333333333335 L619.8666666666666,83.46666666666667" stroke="red" stroke-width="1" fill="none" />
<path d="M619.8666666666666,83.46666666666667 L619.8666666666666,123.19999999999999" stroke="red" stroke-width="1" fill="none" />
<path d="M1076.8,580.1333333333333 L1116.5333333333333,580.1333333333333" stroke="red" stroke-width="1" fill="none" />
<path d="M1116.5333333333333,580.1333333333333 L1156.2666666666667,540.4" stroke="red" stroke-width="1" fill="none" />
<path d="M1156.2666666666667,540.4 L1196.0,580.1333333333333" stroke="red" stroke-width="1" fill="none" />
<path d="M1196.0,580.1333333333333 L1196.0,619.8666666666667" stroke="red" stroke-width="1" fill="none" />
<path d="M1196.0,619.8666666666667 L1156.2666666666667,659.6" stroke="red" stroke-width="1" fill="none" />
<path d="M1156.2666666666667,659.6 L1116.5333333333333,619.8666666666667" stroke="red" stroke-width="1" fill="none" />
<path d="M1116.5333333333333,619.8666666666667 L1076.8,619.8666666666667" stroke="red" stroke-width="1" fill="none" />
<path d="M585.0999999999999,590.0666666666666 L585.0999999999999,609.9333333333334" stroke="red" stroke-width="1" fill="none" />
<path d="M580.1333333333332,590.0666666666666 L585.0999999999999,590.0666666666666" stroke="red" stroke-width="1" fill="none" />
<path d="M585.0999999999999,609.9333333333334 L580.1333333333332,609.9333333333334" stroke="red" stroke-width="1" fill="none" />
<path d="M580.1333333333332,580.1333333333333 L580.1333333333332,590.0666666666666" stroke="red" stroke-width="1" fill="none" />
<path d="M580.1333333333332,609.9333333333334 L580.1333333333332,619.8666666666667" stroke="red" stroke-width="1" fill="none" />
<path d="M580.1333333333332,619.8666666666667 L619.8666666666666,619.8666666666667" stroke="red" stroke-width="1" fill="none" />
<path d="M619.8666666666666,619.8666666666667 L619.8666666666666,580.1333333333333" stroke="red" stroke-width="1" fill="none" />
<path d="M619.8666666666666,580.1333333333333 L580.1333333333332,580.1333333333333" stroke="red" stroke-width="1" fill="none" />
</svg>