<?xml version="1.0" encoding="UTF-8"?>
<svg xmlns="http://www.w3.org/2000/svg" xmlns:xlink="http://www.w3.org/1999/xlink"
     width="1200" height="1517" viewBox="0 0 1200 1517">
<defs>
</defs>
<path d="M548.1739130434783,363.5434782608695 L548.1739130434783,493.1086956521739" stroke="yellow" stroke-width="1" fill="none" />
<path d="M548.1739130434783,493.1086956521739 L522.2608695652174,519.0217391304348" stroke="yellow" stroke-width="1" fill="none" />
<path d="M522.2608695652174,519.0217391304348 L522.2608695652174,570.8478260869565" stroke="yellow" stroke-width="1" fill="none" />
<path d="M522.2608695652174,570.8478260869565 L548.1739130434783,596.7608695652174" stroke="yellow" stroke-width="1" fill="none" />
<path d="M548.1739130434783,596.7608695652174 L600.0,596.7608695652174" stroke="yellow" stroke-width="1" fill="none" />
<path d="M600.0,596.7608695652174 L625.9130434782609,570.8478260869565" stroke="yellow" stroke-width="1" fill="none" />
<path d="M625.9130434782609,570.8478260869565 L625.9130434782609,519.0217391304348" stroke="yellow" stroke-width="1" fill="none" />
<path d="M625.9130434782609,519.0217391304348 L600.0,493.1086956521739" stroke="yellow" stroke-width="1" fill="none" />
<path d="M600.0,493.1086956521739 L600.0,363.5434782608695" stroke="yellow" stroke-width="1" fill="none" />
<path d="M703.6521739130435,337.63043478260863 L677.7391304347826,233.9782608695652" stroke="lavender" stroke-width="1" fill="none" />
<path d="M677.7391304347826,233.9782608695652 L600.0,208.06521739130432" stroke="lavender" stroke-width="1" fill="none" />
<path d="M548.1739130434783,208.06521739130432 L470.4347826086956,233.9782608695652" stroke="lavender" stroke-width="1" fill="none" />
<path d="M470.4347826086956,233.9782608695652 L444.52173913043475,337.63043478260863" stroke="lavender" stroke-width="1" fill="none" />
<path d="M522.2608695652174,570.8478260869565 L548.1739130434783,557.8913043478261" stroke="yellow" stroke-width="1" fill="none" />
<path d="M548.1739130434783,557.8913043478261 L600.0,557.8913043478261" stroke="yellow" stroke-width="1" fill="none" />
<path d="M600.0,557.8913043478261 L625.9130434782609,570.8478260869565" stroke="yellow" stroke-width="1" fill="none" />
<path d="M522.2608695652174,519.0217391304348 L548.1739130434783,531.9782608695652" stroke="yellow" stroke-width="1" fill="none" />
<path d="M548.1739130434783,531.9782608695652 L600.0,531.9782608695652" stroke="yellow" stroke-width="1" fill="none" />
<path d="M600.0,531.9782608695652 L625.9130434782609,519.0217391304348" stroke="yellow" stroke-width="1" fill="none" />
<path d="M548.1739130434783,363.5434782608695 L548.1739130434783,337.63043478260863" stroke="lavender" stroke-width="1" fill="none" />
<path d="M548.1739130434783,337.63043478260863 L522.2608695652174,311.7173913043478" stroke="yellow" stroke-width="1" fill="none" />
<path d="M522.2608695652174,311.7173913043478 L548.1739130434783,285.80434782608694" stroke="yellow" stroke-width="1" fill="none" />
<path d="M548.1739130434783,285.80434782608694 L600.0,285.80434782608694" stroke="lavender" stroke-width="1" fill="none" />
<path d="M600.0,285.80434782608694 L625.9130434782609,311.7173913043478" stroke="yellow" stroke-width="1" fill="none" />
<path d="M625.9130434782609,311.7173913043478 L600.0,337.63043478260863" stroke="yellow" stroke-width="1" fill="none" />
<path d="M600.0,337.63043478260863 L600.0,363.5434782608695" stroke="lavender" stroke-width="1" fill="none" />
<path d="M496.3478260869565,311.7173913043478 L522.2608695652174,285.80434782608694" stroke="lavender" stroke-width="1" fill="none" />
<path d="M522.2608695652174,285.80434782608694 L496.3478260869565,259.89130434782606" stroke="lavender" stroke-width="1" fill="none" />
<path d="M496.3478260869565,259.89130434782606 L470.4347826086956,285.80434782608694" stroke="lavender" stroke-width="1" fill="none" />
<path d="M470.4347826086956,285.80434782608694 L496.3478260869565,311.7173913043478" stroke="lavender" stroke-width="1" fill="none" />
<path d="M651.8260869565217,311.7173913043478 L677.7391304347826,285.80434782608694" stroke="lavender" stroke-width="1" fill="none" />
<path d="M677.7391304347826,285.80434782608694 L651.8260869565217,259.89130434782606" stroke="lavender" stroke-width="1" fill="none" />
<path d="M651.8260869565217,259.89130434782606 L625.9130434782609,285.80434782608694" stroke="lavender" stroke-width="1" fill="none" />
<path d="M625.9130434782609,285.80434782608694 L651.8260869565217,311.7173913043478" stroke="lavender" stroke-width="1" fill="none" />
<path d="M392.695652173913,454.23913043478257 L418.6086956521739,454.23913043478257" stroke="yellow" stroke-width="1" fill="none" />
<path d="M418.6086956521739,454.23913043478257 L418.6086956521739,480.15217391304344" stroke="yellow" stroke-width="1" fill="none" />
<path d="M418.6086956521739,480.15217391304344 L444.52173913043475,480.15217391304344" stroke="yellow" stroke-width="1" fill="none" />
<path d="M444.52173913043475,480.15217391304344 L444.52173913043475,454.23913043478257" stroke="yellow" stroke-width="1" fill="none" />
<path d="M444.52173913043475,454.23913043478257 L470.4347826086956,454.23913043478257" stroke="yellow" stroke-width="1" fill="none" />
<path d="M470.4347826086956,454.23913043478257 L470.4347826086956,428.32608695652175" stroke="yellow" stroke-width="1" fill="none" />
<path d="M470.4347826086956,428.32608695652175 L444.52173913043475,428.32608695652175" stroke="yellow" stroke-width="1" fill="none" />
<path d="M444.52173913043475,428.32608695652175 L444.52173913043475,402.4130434782609" stroke="yellow" stroke-width="1" fill="none" />
<path d="M444.52173913043475,402.4130434782609 L418.6086956521739,402.4130434782609" stroke="yellow" stroke-width="1" fill="none" />
<path d="M418.6086956521739,402.4130434782609 L418.6086956521739,428.32608695652175" stroke="yellow" stroke-width="1" fill="none" />
<path d="M418.6086956521739,428.32608695652175 L392.695652173913,428.32608695652175" stroke="yellow" stroke-width="1" fill="none" />
<path d="M392.695652173913,428.32608695652175 L392.695652173913,454.23913043478257" stroke="yellow" stroke-width="1" fill="none" />
<path d="M392.695652173913,661.5434782608695 L418.6086956521739,661.5434782608695" stroke="yellow" stroke-width="1" fill="none" />
<path d="M418.6086956521739,661.5434782608695 L418.6086956521739,687.4565217391304" stroke="yellow" stroke-width="1" fill="none" />
<path d="M418.6086956521739,687.4565217391304 L444.52173913043475,687.4565217391304" stroke="yellow" stroke-width="1" fill="none" />
<path d="M444.52173913043475,687.4565217391304 L444.52173913043475,661.5434782608695" stroke="yellow" stroke-width="1" fill="none" />
<path d="M444.52173913043475,661.5434782608695 L470.4347826086956,661.5434782608695" stroke="yellow" stroke-width="1" fill="none" />
<path d="M470.4347826086956,661.5434782608695 L470.4347826086956,635.6304347826086" stroke="yellow" stroke-width="1" fill="none" />
<path d="M470.4347826086956,635.6304347826086 L444.52173913043475,635.6304347826086" stroke="yellow" stroke-width="1" fill="none" />
<path d="M444.52173913043475,635.6304347826086 L444.52173913043475,609.7173913043478" stroke="yellow" stroke-width="1" fill="none" />
<path d="M444.52173913043475,609.7173913043478 L418.6086956521739,609.7173913043478" stroke="yellow" stroke-width="1" fill="none" />
<path d="M418.6086956521739,609.7173913043478 L418.6086956521739,635.6304347826086" stroke="yellow" stroke-width="1" fill="none" />
<path d="M418.6086956521739,635.6304347826086 L392.695652173913,635.6304347826086" stroke="yellow" stroke-width="1" fill="none" />
<path d="M392.695652173913,635.6304347826086 L392.695652173913,661.5434782608695" stroke="yellow" stroke-width="1" fill="none" />
<path d="M677.7391304347826,661.5434782608695 L703.6521739130435,661.5434782608695" stroke="yellow" stroke-width="1" fill="none" />
<path d="M703.6521739130435,661.5434782608695 L703.6521739130435,687.4565217391304" stroke="yellow" stroke-width="1" fill="none" />
<path d="M703.6521739130435,687.4565217391304 L729.5652173913044,687.4565217391304" stroke="yellow" stroke-width="1" fill="none" />
<path d="M729.5652173913044,687.4565217391304 L729.5652173913044,661.5434782608695" stroke="yellow" stroke-width="1" fill="none" />
<path d="M729.5652173913044,661.5434782608695 L755.4782608695652,661.5434782608695" stroke="yellow" stroke-width="1" fill="none" />
<path d="M755.4782608695652,661.5434782608695 L755.4782608695652,635.6304347826086" stroke="yellow" stroke-width="1" fill="none" />
<path d="M755.4782608695652,635.6304347826086 L729.5652173913044,635.6304347826086" stroke="yellow" stroke-width="1" fill="none" />
<path d="M729.5652173913044,635.6304347826086 L729.5652173913044,609.7173913043478" stroke="yellow" stroke-width="1" fill="none" />
<path d="M729.5652173913044,609.7173913043478 L703.6521739130435,609.7173913043478" stroke="yellow" stroke-width="1" fill="none" />
<path d="M703.6521739130435,609.7173913043478 L703.6521739130435,635.6304347826086" stroke="yellow" stroke-width="1" fill="none" />
<path d="M703.6521739130435,635.6304347826086 L677.7391304347826,635.6304347826086" stroke="yellow" stroke-width="1" fill="none" />
<path d="M677.7391304347826,635.6304347826086 L677.7391304347826,661.5434782608695" stroke="yellow" stroke-width="1" fill="none" />
<path d="M677.7391304347826,454.23913043478257 L703.6521739130435,454.23913043478257" stroke="yellow" stroke-width="1" fill="none" />
<path d="M703.6521739130435,454.23913043478257 L703.6521739130435,480.15217391304344" stroke="yellow" stroke-width="1" fill="none" />
<path d="M703.6521739130435,480.15217391304344 L729.5652173913044,480.15217391304344" stroke="yellow" stroke-width="1" fill="none" />
<path d="M729.5652173913044,480.15217391304344 L729.5652173913044,454.23913043478257" stroke="yellow" stroke-width="1" fill="none" />
<path d="M729.5652173913044,454.23913043478257 L755.4782608695652,454.23913043478257" stroke="yellow" stroke-width="1" fill="none" />
<path d="M755.4782608695652,454.23913043478257 L755.4782608695652,428.32608695652175" stroke="yellow" stroke-width="1" fill="none" />
<path d="M755.4782608695652,428.32608695652175 L729.5652173913044,428.32608695652175" stroke="yellow" stroke-width="1" fill="none" />
<path d="M729.5652173913044,428.32608695652175 L729.5652173913044,402.4130434782609" stroke="yellow" stroke-width="1" fill="none" />
<path d="M729.5652173913044,402.4130434782609 L703.6521739130435,402.4130434782609" stroke="yellow" stroke-width="1" fill="none" />
<path d="M703.6521739130435,402.4130434782609 L703.6521739130435,428.32608695652175" stroke="yellow" stroke-width="1" fill="none" />
<path d="M703.6521739130435,428.32608695652175 L677.7391304347826,428.32608695652175" stroke="yellow" stroke-width="1" fill="none" />
<path d="M677.7391304347826,428.32608695652175 L677.7391304347826,454.23913043478257" stroke="yellow" stroke-width="1" fill="none" />
<path d="M340.8695652173913,674.5 L366.7826086956522,674.5" stroke="yellow" stroke-width="1" fill="none" />
<path d="M366.7826086956522,674.5 L366.7826086956522,622.6739130434783" stroke="yellow" stroke-width="1" fill="none" />
<path d="M366.7826086956522,622.6739130434783 L340.8695652173913,622.6739130434783" stroke="yellow" stroke-width="1" fill="none" />
<path d="M340.8695652173913,622.6739130434783 L340.8695652173913,629.1521739130435" stroke="yellow" stroke-width="1" fill="none" />
<path d="M340.8695652173913,629.1521739130435 L360.30434782608694,629.1521739130435" stroke="yellow" stroke-width="1" fill="none" />
<path d="M360.30434782608694,629.1521739130435 L360.30434782608694,668.0217391304348" stroke="yellow" stroke-width="1" fill="none" />
<path d="M360.30434782608694,668.0217391304348 L340.8695652173913,668.0217391304348" stroke="yellow" stroke-width="1" fill="none" />
<path d="M340.8695652173913,668.0217391304348 L340.8695652173913,674.5" stroke="yellow" stroke-width="1" fill="none" />
<path d="M340.8695652173913,467.195652173913 L366.7826086956522,467.195652173913" stroke="yellow" stroke-width="1" fill="none" />
<path d="M366.7826086956522,467.195652173913 L366.7826086956522,415.36956521739125" stroke="yellow" stroke-width="1" fill="none" />
<path d="M366.7826086956522,415.36956521739125 L340.8695652173913,415.36956521739125" stroke="yellow" stroke-width="1" fill="none" />
<path d="M340.8695652173913,415.36956521739125 L340.8695652173913,421.8478260869565" stroke="yellow" stroke-width="1" fill="none" />
<path d="M340.8695652173913,421.8478260869565 L360.30434782608694,421.8478260869565" stroke="yellow" stroke-width="1" fill="none" />
<path d="M360.30434782608694,421.8478260869565 L360.30434782608694,460.7173913043478" stroke="yellow" stroke-width="1" fill="none" />
<path d="M360.30434782608694,460.7173913043478 L340.8695652173913,460.7173913043478" stroke="yellow" stroke-width="1" fill="none" />
<path d="M340.8695652173913,460.7173913043478 L340.8695652173913,467.195652173913" stroke="yellow" stroke-width="1" fill="none" />
<path d="M910.9565217391305,415.36956521739125 L910.9565217391305,467.195652173913" stroke="yellow" stroke-width="1" fill="none" />
<path d="M781.3913043478261,467.195652173913 L807.304347826087,467.195652173913" stroke="yellow" stroke-width="1" fill="none" />
<path d="M781.3913043478261,415.36956521739125 L781.3913043478261,467.195652173913" stroke="yellow" stroke-width="1" fill="none" />
<path d="M807.304347826087,415.36956521739125 L781.3913043478261,415.36956521739125" stroke="yellow" stroke-width="1" fill="none" />
<path d="M807.304347826087,421.8478260869565 L807.304347826087,415.36956521739125" stroke="yellow" stroke-width="1" fill="none" />
<path d="M787.8695652173913,421.8478260869565 L807.304347826087,421.8478260869565" stroke="yellow" stroke-width="1" fill="none" />
<path d="M787.8695652173913,460.7173913043478 L787.8695652173913,421.8478260869565" stroke="yellow" stroke-width="1" fill="none" />
<path d="M807.304347826087,460.7173913043478 L787.8695652173913,460.7173913043478" stroke="yellow" stroke-width="1" fill="none" />
<path d="M807.304347826087,467.195652173913 L807.304347826087,460.7173913043478" stroke="yellow" stroke-width="1" fill="none" />
<path d="M781.3913043478261,674.5 L807.304347826087,674.5" stroke="yellow" stroke-width="1" fill="none" />
<path d="M781.3913043478261,622.6739130434783 L781.3913043478261,674.5" stroke="yellow" stroke-width="1" fill="none" />
<path d="M807.304347826087,622.6739130434783 L781.3913043478261,622.6739130434783" stroke="yellow" stroke-width="1" fill="none" />
<path d="M807.304347826087,629.1521739130435 L807.304347826087,622.6739130434783" stroke="yellow" stroke-width="1" fill="none" />
<path d="M787.8695652173913,629.1521739130435 L807.304347826087,629.1521739130435" stroke="yellow" stroke-width="1" fill="none" />
<path d="M787.8695652173913,668.0217391304348 L787.8695652173913,629.1521739130435" stroke="yellow" stroke-width="1" fill="none" />
<path d="M807.304347826087,668.0217391304348 L787.8695652173913,668.0217391304348" stroke="yellow" stroke-width="1" fill="none" />
<path d="M807.304347826087,674.5 L807.304347826087,668.0217391304348" stroke="yellow" stroke-width="1" fill="none" />
<path d="M340.8695652173913,570.8478260869565 L522.2608695652174,570.8478260869565" stroke="yellow" stroke-width="1" fill="none" />
<path d="M522.2608695652174,519.0217391304348 L340.8695652173913,519.0217391304348" stroke="yellow" stroke-width="1" fill="none" />
<path d="M625.9130434782609,570.8478260869565 L807.304347826087,570.8478260869565" stroke="yellow" stroke-width="1" fill="none" />
<path d="M807.304347826087,519.0217391304348 L625.9130434782609,519.0217391304348" stroke="yellow" stroke-width="1" fill="none" />
<path d="M600.0,337.63043478260863 L548.1739130434783,337.63043478260863" stroke="lavender" stroke-width="1" fill="none" />
<path d="M600.0,804.0652173913044 L574.0869565217391,804.0652173913044" stroke="yellow" stroke-width="1" fill="none" />
<path d="M574.0869565217391,804.0652173913044 L548.1739130434783,804.0652173913044" stroke="yellow" stroke-width="1" fill="none" />
<path d="M548.1739130434783,881.804347826087 L574.0869565217391,881.804347826087" stroke="yellow" stroke-width="1" fill="none" />
<path d="M574.0869565217391,881.804347826087 L600.0,881.804347826087" stroke="yellow" stroke-width="1" fill="none" />
<path d="M548.1739130434783,842.9347826086956 L574.0869565217391,842.9347826086956" stroke="yellow" stroke-width="1" fill="none" />
<path d="M574.0869565217391,842.9347826086956 L600.0,842.9347826086956" stroke="yellow" stroke-width="1" fill="none" />
<path d="M574.0869565217391,881.804347826087 L574.0869565217391,842.9347826086956" stroke="yellow" stroke-width="1" fill="none" />
<path d="M574.0869565217391,842.9347826086956 L574.0869565217391,804.0652173913044" stroke="yellow" stroke-width="1" fill="none" />
<path d="M859.1304347826087,570.8478260869565 L859.1304347826087,519.0217391304348" stroke="yellow" stroke-width="1" fill="none" />
<path d="M807.304347826087,519.0217391304348 L807.304347826087,570.8478260869565" stroke="yellow" stroke-width="1" fill="none" />
<path d="M910.9565217391305,674.5 L859.1304347826087,674.5" stroke="lavender" stroke-width="1" fill="none" />
<path d="M1014.608695652174,752.2391304347826 L1014.608695652174,700.4130434782609" stroke="lavender" stroke-width="1" fill="none" />
<path d="M910.9565217391305,752.2391304347826 L910.9565217391305,700.4130434782609" stroke="yellow" stroke-width="1" fill="none" />
<path d="M625.9130434782609,804.0652173913044 L600.0,752.2391304347826" stroke="yellow" stroke-width="1" fill="none" />
<path d="M600.0,752.2391304347826 L548.1739130434783,752.2391304347826" stroke="yellow" stroke-width="1" fill="none" />
<path d="M548.1739130434783,752.2391304347826 L522.2608695652174,804.0652173913044" stroke="yellow" stroke-width="1" fill="none" />
<path d="M807.304347826087,726.3260869565217 L807.304347826087,752.2391304347826" stroke="yellow" stroke-width="1" fill="none" />
<path d="M807.304347826087,752.2391304347826 L755.4782608695652,778.1521739130435" stroke="yellow" stroke-width="1" fill="none" />
<path d="M755.4782608695652,778.1521739130435 L755.4782608695652,804.0652173913044" stroke="yellow" stroke-width="1" fill="none" />
<path d="M1014.608695652174,389.4565217391304 L1066.4347826086957,389.4565217391304" stroke="yellow" stroke-width="1" fill="none" />
<path d="M1014.608695652174,363.5434782608695 L1066.4347826086957,363.5434782608695" stroke="yellow" stroke-width="1" fill="none" />
<path d="M1014.608695652174,337.63043478260863 L1066.4347826086957,337.63043478260863" stroke="yellow" stroke-width="1" fill="none" />
<path d="M1014.608695652174,337.63043478260863 L1014.608695652174,285.80434782608694" stroke="yellow" stroke-width="1" fill="none" />
<path d="M988.695652173913,337.63043478260863 L988.695652173913,285.80434782608694" stroke="yellow" stroke-width="1" fill="none" />
<path d="M962.7826086956522,337.63043478260863 L962.7826086956522,285.80434782608694" stroke="yellow" stroke-width="1" fill="none" />
<path d="M936.8695652173913,337.63043478260863 L936.8695652173913,285.80434782608694" stroke="yellow" stroke-width="1" fill="none" />
<path d="M910.9565217391305,337.63043478260863 L910.9565217391305,285.80434782608694" stroke="yellow" stroke-width="1" fill="none" />
<path d="M910.9565217391305,337.63043478260863 L859.1304347826087,337.63043478260863" stroke="yellow" stroke-width="1" fill="none" />
<path d="M910.9565217391305,363.5434782608695 L859.1304347826087,363.5434782608695" stroke="yellow" stroke-width="1" fill="none" />
<path d="M910.9565217391305,389.4565217391304 L859.1304347826087,389.4565217391304" stroke="yellow" stroke-width="1" fill="none" />
<path d="M910.9565217391305,415.36956521739125 L859.1304347826087,415.36956521739125" stroke="lavender" stroke-width="1" fill="none" />
<path d="M600.0,208.06521739130432 L600.0,182.15217391304344" stroke="yellow" stroke-width="1" fill="none" />
<path d="M548.1739130434783,182.15217391304344 L548.1739130434783,208.06521739130432" stroke="yellow" stroke-width="1" fill="none" />
<path d="M548.1739130434783,208.06521739130432 L548.1739130434783,285.80434782608694" stroke="yellow" stroke-width="1" fill="none" />
<path d="M600.0,285.80434782608694 L600.0,208.06521739130432" stroke="yellow" stroke-width="1" fill="none" />
<path d="M496.3478260869565,104.41304347826082 L548.1739130434783,52.586956521739125" stroke="yellow" stroke-width="1" fill="none" />
<path d="M548.1739130434783,52.586956521739125 L600.0,52.586956521739125" stroke="yellow" stroke-width="1" fill="none" />
<path d="M600.0,52.586956521739125 L651.8260869565217,104.41304347826082" stroke="yellow" stroke-width="1" fill="none" />
<path d="M729.5652173913044,182.15217391304344 L729.5652173913044,208.06521739130432" stroke="yellow" stroke-width="1" fill="none" />
<path d="M729.5652173913044,208.06521739130432 L781.3913043478261,285.80434782608694" stroke="yellow" stroke-width="1" fill="none" />
<path d="M781.3913043478261,285.80434782608694 L807.304347826087,285.80434782608694" stroke="yellow" stroke-width="1" fill="none" />
<path d="M859.1304347826087,285.80434782608694 L910.9565217391305,285.80434782608694" stroke="lavender" stroke-width="1" fill="none" />
<path d="M859.1304347826087,233.9782608695652 L910.9565217391305,233.9782608695652" stroke="yellow" stroke-width="1" fill="none" />
<path d="M340.8695652173913,570.8478260869565 L340.8695652173913,519.0217391304348" stroke="yellow" stroke-width="1" fill="none" />
<path d="M289.04347826086956,519.0217391304348 L289.04347826086956,570.8478260869565" stroke="yellow" stroke-width="1" fill="none" />
<path d="M107.6521739130435,519.0217391304348 L159.4782608695652,519.0217391304348" stroke="yellow" stroke-width="1" fill="none" />
<path d="M159.4782608695652,519.0217391304348 L159.4782608695652,415.36956521739125" stroke="yellow" stroke-width="1" fill="none" />
<path d="M159.4782608695652,415.36956521739125 L107.6521739130435,415.36956521739125" stroke="yellow" stroke-width="1" fill="none" />
<path d="M211.30434782608694,415.36956521739125 L159.4782608695652,415.36956521739125" stroke="yellow" stroke-width="1" fill="none" />
<path d="M159.4782608695652,570.8478260869565 L159.4782608695652,674.5" stroke="yellow" stroke-width="1" fill="none" />
<path d="M159.4782608695652,674.5 L211.30434782608694,674.5" stroke="yellow" stroke-width="1" fill="none" />
<path d="M159.4782608695652,674.5 L107.6521739130435,674.5" stroke="yellow" stroke-width="1" fill="none" />
<path d="M159.4782608695652,519.0217391304348 L211.30434782608694,519.0217391304348" stroke="yellow" stroke-width="1" fill="none" />
<path d="M159.4782608695652,570.8478260869565 L107.6521739130435,570.8478260869565" stroke="yellow" stroke-width="1" fill="none" />
<path d="M211.30434782608694,570.8478260869565 L159.4782608695652,570.8478260869565" stroke="yellow" stroke-width="1" fill="none" />
<path d="M340.8695652173913,752.2391304347826 L340.8695652173913,726.3260869565217" stroke="yellow" stroke-width="1" fill="none" />
<path d="M392.695652173913,778.1521739130435 L340.8695652173913,752.2391304347826" stroke="yellow" stroke-width="1" fill="none" />
<path d="M392.695652173913,804.0652173913044 L392.695652173913,778.1521739130435" stroke="yellow" stroke-width="1" fill="none" />
<path d="M237.2173913043478,674.5 L263.1304347826087,674.5" stroke="lavender" stroke-width="1" fill="none" />
<path d="M159.4782608695652,311.7173913043478 L211.30434782608694,311.7173913043478" stroke="yellow" stroke-width="1" fill="none" />
<path d="M263.1304347826087,415.36956521739125 L237.2173913043478,415.36956521739125" stroke="lavender" stroke-width="1" fill="none" />
<path d="M263.1304347826087,415.36956521739125 L263.1304347826087,493.1086956521739" stroke="yellow" stroke-width="1" fill="none" />
<path d="M263.1304347826087,596.7608695652174 L263.1304347826087,674.5" stroke="yellow" stroke-width="1" fill="none" />
<path d="M920.6739130434783,467.195652173913 L920.6739130434783,415.36956521739125" stroke="yellow" stroke-width="1" fill="none" />
<path d="M920.6739130434783,674.5 L920.6739130434783,622.6739130434783" stroke="yellow" stroke-width="1" fill="none" />
<path d="M910.9565217391305,622.6739130434783 L910.9565217391305,674.5" stroke="yellow" stroke-width="1" fill="none" />
<path d="M159.4782608695652,726.3260869565217 L263.1304347826087,726.3260869565217" stroke="yellow" stroke-width="1" fill="none" />
<path d="M263.1304347826087,752.2391304347826 L263.1304347826087,804.0652173913044" stroke="yellow" stroke-width="1" fill="none" />
<path d="M263.1304347826087,726.3260869565217 L263.1304347826087,752.2391304347826" stroke="lavender" stroke-width="1" fill="none" />
<path d="M340.8695652173913,752.2391304347826 L263.1304347826087,752.2391304347826" stroke="yellow" stroke-width="1" fill="none" />
<path d="M276.0869565217391,415.36956521739125 L327.9130434782609,415.36956521739125" stroke="lavender" stroke-width="1" fill="none" />
<path d="M327.9130434782609,405.65217391304344 L276.0869565217391,405.65217391304344" stroke="yellow" stroke-width="1" fill="none" />
<path d="M340.8695652173913,285.80434782608694 L366.7826086956522,285.80434782608694" stroke="yellow" stroke-width="1" fill="none" />
<path d="M366.7826086956522,285.80434782608694 L418.6086956521739,208.06521739130432" stroke="yellow" stroke-width="1" fill="none" />
<path d="M276.0869565217391,363.5434782608695 L327.9130434782609,363.5434782608695" stroke="yellow" stroke-width="1" fill="none" />
<path d="M276.0869565217391,337.63043478260863 L327.9130434782609,337.63043478260863" stroke="yellow" stroke-width="1" fill="none" />
<path d="M276.0869565217391,311.7173913043478 L327.9130434782609,311.7173913043478" stroke="yellow" stroke-width="1" fill="none" />
<path d="M276.0869565217391,285.80434782608694 L327.9130434782609,285.80434782608694" stroke="yellow" stroke-width="1" fill="none" />
<path d="M276.0869565217391,259.89130434782606 L327.9130434782609,259.89130434782606" stroke="yellow" stroke-width="1" fill="none" />
<path d="M276.0869565217391,233.9782608695652 L327.9130434782609,233.9782608695652" stroke="yellow" stroke-width="1" fill="none" />
<path d="M470.4347826086956,350.5869565217391 L548.1739130434783,363.5434782608695" stroke="lavender" stroke-width="1" fill="none" />
<path d="M600.0,363.5434782608695 L677.7391304347826,350.5869565217391" stroke="lavender" stroke-width="1" fill="none" />
<path d="M548.1739130434783,39.63043478260863 L496.3478260869565,91.45652173913038" stroke="yellow" stroke-width="1" fill="none" />
<path d="M600.0,39.63043478260863 L548.1739130434783,39.63043478260863" stroke="yellow" stroke-width="1" fill="none" />
<path d="M651.8260869565217,91.45652173913038 L600.0,39.63043478260863" stroke="yellow" stroke-width="1" fill="none" />
<path d="M211.30434782608694,298.7608695652174 L159.4782608695652,298.7608695652174" stroke="yellow" stroke-width="1" fill="none" />
<path d="M211.30434782608694,259.89130434782606 L159.4782608695652,259.89130434782606" stroke="yellow" stroke-width="1" fill="none" />
<path d="M211.30434782608694,233.9782608695652 L159.4782608695652,233.9782608695652" stroke="yellow" stroke-width="1" fill="none" />
<path d="M211.30434782608694,208.06521739130432 L159.4782608695652,208.06521739130432" stroke="yellow" stroke-width="1" fill="none" />
<path d="M211.30434782608694,182.15217391304344 L159.4782608695652,182.15217391304344" stroke="yellow" stroke-width="1" fill="none" />
<path d="M211.30434782608694,156.23913043478257 L159.4782608695652,156.23913043478257" stroke="yellow" stroke-width="1" fill="none" />
<path d="M211.30434782608694,156.23913043478257 L211.30434782608694,104.41304347826082" stroke="yellow" stroke-width="1" fill="none" />
<path d="M237.2173913043478,156.23913043478257 L237.2173913043478,104.41304347826082" stroke="yellow" stroke-width="1" fill="none" />
<path d="M263.1304347826087,156.23913043478257 L263.1304347826087,104.41304347826082" stroke="yellow" stroke-width="1" fill="none" />
<path d="M289.04347826086956,156.23913043478257 L289.04347826086956,104.41304347826082" stroke="yellow" stroke-width="1" fill="none" />
<path d="M314.95652173913044,156.23913043478257 L314.95652173913044,104.41304347826082" stroke="yellow" stroke-width="1" fill="none" />
<path d="M340.8695652173913,156.23913043478257 L340.8695652173913,104.41304347826082" stroke="yellow" stroke-width="1" fill="none" />
<path d="M366.7826086956522,156.23913043478257 L366.7826086956522,104.41304347826082" stroke="yellow" stroke-width="1" fill="none" />
<path d="M625.9130434782609,1011.3695652173913 L522.2608695652174,1011.3695652173913" stroke="lavender" stroke-width="1" fill="none" />
<path d="M496.3478260869565,985.4565217391305 L509.30434782608694,985.4565217391305" stroke="yellow" stroke-width="1" fill="none" />
<path d="M509.30434782608694,985.4565217391305 L509.30434782608694,933.6304347826087" stroke="lavender" stroke-width="1" fill="none" />
<path d="M509.30434782608694,933.6304347826087 L496.3478260869565,933.6304347826087" stroke="yellow" stroke-width="1" fill="none" />
<path d="M651.8260869565217,933.6304347826087 L638.8695652173913,933.6304347826087" stroke="yellow" stroke-width="1" fill="none" />
<path d="M638.8695652173913,933.6304347826087 L638.8695652173913,985.4565217391305" stroke="lavender" stroke-width="1" fill="none" />
<path d="M638.8695652173913,985.4565217391305 L651.8260869565217,985.4565217391305" stroke="yellow" stroke-width="1" fill="none" />
<path d="M522.2608695652174,570.8478260869565 L548.1739130434783,570.8478260869565" stroke="yellow" stroke-width="1" fill="none" />
<path d="M548.1739130434783,570.8478260869565 L600.0,570.8478260869565" stroke="yellow" stroke-width="1" fill="none" />
<path d="M600.0,570.8478260869565 L625.9130434782609,570.8478260869565" stroke="yellow" stroke-width="1" fill="none" />
<path d="M548.1739130434783,519.0217391304348 L522.2608695652174,519.0217391304348" stroke="yellow" stroke-width="1" fill="none" />
<path d="M600.0,519.0217391304348 L548.1739130434783,519.0217391304348" stroke="yellow" stroke-width="1" fill="none" />
<path d="M625.9130434782609,519.0217391304348 L600.0,519.0217391304348" stroke="yellow" stroke-width="1" fill="none" />
<path d="M276.0869565217391,415.36956521739125 L276.0869565217391,425.0869565217391" stroke="yellow" stroke-width="1" fill="none" />
<path d="M276.0869565217391,425.0869565217391 L327.9130434782609,425.0869565217391" stroke="yellow" stroke-width="1" fill="none" />
<path d="M327.9130434782609,425.0869565217391 L327.9130434782609,415.36956521739125" stroke="yellow" stroke-width="1" fill="none" />
<path d="M645.3478260869565,1131.217391304348 L645.3478260869565,1105.304347826087" stroke="lavender" stroke-width="1" fill="none" />
<path d="M587.0434782608696,1047.0 L561.1304347826087,1047.0" stroke="lavender" stroke-width="1" fill="none" />
<path d="M502.82608695652175,1105.304347826087 L502.82608695652175,1131.217391304348" stroke="lavender" stroke-width="1" fill="none" />
<path d="M587.0434782608696,1043.7608695652175 L561.1304347826087,1043.7608695652175" stroke="yellow" stroke-width="1" fill="none" />
<path d="M499.5869565217391,1105.304347826087 L499.5869565217391,1131.217391304348" stroke="yellow" stroke-width="1" fill="none" />
<path d="M648.5869565217391,1131.217391304348 L648.5869565217391,1105.304347826087" stroke="yellow" stroke-width="1" fill="none" />
<path d="M1092.3478260869565,519.0217391304348 L1092.3478260869565,570.8478260869565" stroke="yellow" stroke-width="1" fill="none" />
<path d="M1021.0869565217392,486.6304347826087 L1034.0434782608695,486.6304347826087" stroke="yellow" stroke-width="1" fill="none" />
<path d="M1034.0434782608695,486.6304347826087 L1034.0434782608695,473.67391304347825" stroke="yellow" stroke-width="1" fill="none" />
<path d="M1034.0434782608695,473.67391304347825 L1021.0869565217392,473.67391304347825" stroke="yellow" stroke-width="1" fill="none" />
<path d="M1021.0869565217392,473.67391304347825 L1021.0869565217392,486.6304347826087" stroke="yellow" stroke-width="1" fill="none" />
<path d="M1047.0,486.6304347826087 L1059.9565217391305,486.6304347826087" stroke="yellow" stroke-width="1" fill="none" />
<path d="M1059.9565217391305,486.6304347826087 L1059.9565217391305,473.67391304347825" stroke="yellow" stroke-width="1" fill="none" />
<path d="M1059.9565217391305,473.67391304347825 L1047.0,473.67391304347825" stroke="yellow" stroke-width="1" fill="none" />
<path d="M1047.0,473.67391304347825 L1047.0,486.6304347826087" stroke="yellow" stroke-width="1" fill="none" />
<path d="M1021.0869565217392,616.195652173913 L1034.0434782608695,616.195652173913" stroke="yellow" stroke-width="1" fill="none" />
<path d="M1034.0434782608695,616.195652173913 L1034.0434782608695,603.2391304347826" stroke="yellow" stroke-width="1" fill="none" />
<path d="M1034.0434782608695,603.2391304347826 L1021.0869565217392,603.2391304347826" stroke="yellow" stroke-width="1" fill="none" />
<path d="M1021.0869565217392,603.2391304347826 L1021.0869565217392,616.195652173913" stroke="yellow" stroke-width="1" fill="none" />
<path d="M1047.0,616.195652173913 L1059.9565217391305,616.195652173913" stroke="yellow" stroke-width="1" fill="none" />
<path d="M1059.9565217391305,616.195652173913 L1059.9565217391305,603.2391304347826" stroke="yellow" stroke-width="1" fill="none" />
<path d="M1059.9565217391305,603.2391304347826 L1047.0,603.2391304347826" stroke="yellow" stroke-width="1" fill="none" />
<path d="M1047.0,603.2391304347826 L1047.0,616.195652173913" stroke="yellow" stroke-width="1" fill="none" />
<path d="M418.6086956521739,208.06521739130432 L418.6086956521739,182.15217391304344" stroke="yellow" stroke-width="1" fill="none" />
<path d="M340.8695652173913,182.15217391304344 L353.82608695652175,182.15217391304344" stroke="yellow" stroke-width="1" fill="none" />
<path d="M94.695652173913,519.0217391304348 L94.695652173913,570.8478260869565" stroke="yellow" stroke-width="1" fill="none" />
<path d="M107.6521739130435,570.8478260869565 L107.6521739130435,519.0217391304348" stroke="yellow" stroke-width="1" fill="none" />
<path d="M1105.304347826087,570.8478260869565 L1105.304347826087,519.0217391304348" stroke="yellow" stroke-width="1" fill="none" />
<path d="M159.4782608695652,156.23913043478257 L211.30434782608694,104.41304347826082" stroke="yellow" stroke-width="1" fill="none" />
<path d="M256.65217391304344,570.8478260869565 L243.695652173913,570.8478260869565" stroke="yellow" stroke-width="1" fill="none" />
<path d="M956.304347826087,674.5 L943.3478260869565,674.5" stroke="yellow" stroke-width="1" fill="none" />
<path d="M723.0869565217391,104.41304347826082 L710.1304347826087,104.41304347826082" stroke="yellow" stroke-width="1" fill="none" />
<path d="M340.8695652173913,726.3260869565217 L340.8695652173913,674.5" stroke="red" stroke-width="1" fill="none" />
<path d="M807.304347826087,674.5 L807.304347826087,726.3260869565217" stroke="red" stroke-width="1" fill="none" />
<path d="M237.2173913043478,674.5 L237.2173913043478,596.7608695652174" stroke="red" stroke-width="1" fill="none" />
<path d="M314.95652173913044,622.6739130434783 L340.8695652173913,622.6739130434783" stroke="red" stroke-width="1" fill="none" />
<path d="M340.8695652173913,467.195652173913 L314.95652173913044,467.195652173913" stroke="red" stroke-width="1" fill="none" />
<path d="M237.2173913043478,493.1086956521739 L237.2173913043478,415.36956521739125" stroke="red" stroke-width="1" fill="none" />
<path d="M910.9565217391305,467.195652173913 L807.304347826087,467.195652173913" stroke="red" stroke-width="1" fill="none" />
<path d="M807.304347826087,415.36956521739125 L859.1304347826087,415.36956521739125" stroke="red" stroke-width="1" fill="none" />
<path d="M859.1304347826087,674.5 L807.304347826087,674.5" stroke="red" stroke-width="1" fill="none" />
<path d="M340.8695652173913,622.6739130434783 L340.8695652173913,570.8478260869565" stroke="red" stroke-width="1" fill="none" />
<path d="M340.8695652173913,519.0217391304348 L340.8695652173913,467.195652173913" stroke="red" stroke-width="1" fill="none" />
<path d="M807.304347826087,570.8478260869565 L807.304347826087,622.6739130434783" stroke="red" stroke-width="1" fill="none" />
<path d="M807.304347826087,467.195652173913 L807.304347826087,519.0217391304348" stroke="red" stroke-width="1" fill="none" />
<path d="M807.304347826087,519.0217391304348 L859.1304347826087,519.0217391304348" stroke="red" stroke-width="1" fill="none" />
<path d="M859.1304347826087,570.8478260869565 L807.304347826087,570.8478260869565" stroke="red" stroke-width="1" fill="none" />
<path d="M340.8695652173913,570.8478260869565 L289.04347826086956,570.8478260869565" stroke="red" stroke-width="1" fill="none" />
<path d="M289.04347826086956,519.0217391304348 L340.8695652173913,519.0217391304348" stroke="red" stroke-width="1" fill="none" />
<path d="M859.1304347826087,519.0217391304348 L962.7826086956522,519.0217391304348" stroke="red" stroke-width="1" fill="none" />
<path d="M962.7826086956522,519.0217391304348 L988.695652173913,493.1086956521739" stroke="red" stroke-width="1" fill="none" />
<path d="M988.695652173913,493.1086956521739 L1014.608695652174,493.1086956521739" stroke="red" stroke-width="1" fill="none" />
<path d="M1014.608695652174,596.7608695652174 L988.695652173913,596.7608695652174" stroke="red" stroke-width="1" fill="none" />
<path d="M988.695652173913,596.7608695652174 L962.7826086956522,570.8478260869565" stroke="red" stroke-width="1" fill="none" />
<path d="M962.7826086956522,570.8478260869565 L859.1304347826087,570.8478260869565" stroke="red" stroke-width="1" fill="none" />
<path d="M1040.5217391304348,752.2391304347826 L1014.608695652174,752.2391304347826" stroke="red" stroke-width="1" fill="none" />
<path d="M1014.608695652174,700.4130434782609 L1014.608695652174,596.7608695652174" stroke="red" stroke-width="1" fill="none" />
<path d="M1014.608695652174,493.1086956521739 L1014.608695652174,389.4565217391304" stroke="red" stroke-width="1" fill="none" />
<path d="M600.0,881.804347826087 L651.8260869565217,933.6304347826087" stroke="red" stroke-width="1" fill="none" />
<path d="M651.8260869565217,985.4565217391305 L625.9130434782609,1011.3695652173913" stroke="red" stroke-width="1" fill="none" />
<path d="M522.2608695652174,1011.3695652173913 L496.3478260869565,985.4565217391305" stroke="red" stroke-width="1" fill="none" />
<path d="M496.3478260869565,933.6304347826087 L548.1739130434783,881.804347826087" stroke="red" stroke-width="1" fill="none" />
<path d="M522.2608695652174,1302.891304347826 L548.1739130434783,1302.891304347826" stroke="red" stroke-width="1" fill="none" />
<path d="M548.1739130434783,1302.891304347826 L548.1739130434783,1296.413043478261" stroke="lavender" stroke-width="1" fill="none" />
<path d="M548.1739130434783,1296.413043478261 L522.2608695652174,1296.413043478261" stroke="red" stroke-width="1" fill="none" />
<path d="M522.2608695652174,1296.413043478261 L522.2608695652174,1302.891304347826" stroke="red" stroke-width="1" fill="none" />
<path d="M574.0869565217391,1270.5 L600.0,1270.5" stroke="red" stroke-width="1" fill="none" />
<path d="M600.0,1270.5 L600.0,1264.0217391304348" stroke="red" stroke-width="1" fill="none" />
<path d="M600.0,1264.0217391304348 L574.0869565217391,1264.0217391304348" stroke="red" stroke-width="1" fill="none" />
<path d="M574.0869565217391,1264.0217391304348 L574.0869565217391,1270.5" stroke="lavender" stroke-width="1" fill="none" />
<path d="M496.3478260869565,1315.8478260869565 L470.4347826086956,1315.8478260869565" stroke="red" stroke-width="1" fill="none" />
<path d="M470.4347826086956,1322.3260869565217 L496.3478260869565,1322.3260869565217" stroke="red" stroke-width="1" fill="none" />
<path d="M651.8260869565217,1244.586956521739 L625.9130434782609,1244.586956521739" stroke="red" stroke-width="1" fill="none" />
<path d="M625.9130434782609,1251.0652173913045 L651.8260869565217,1251.0652173913045" stroke="red" stroke-width="1" fill="none" />
<path d="M496.3478260869565,1322.3260869565217 L496.3478260869565,1315.8478260869565" stroke="red" stroke-width="1" fill="none" />
<path d="M470.4347826086956,1315.8478260869565 L470.4347826086956,1322.3260869565217" stroke="lavender" stroke-width="1" fill="none" />
<path d="M651.8260869565217,1251.0652173913045 L651.8260869565217,1244.586956521739" stroke="lavender" stroke-width="1" fill="none" />
<path d="M625.9130434782609,1244.586956521739 L625.9130434782609,1251.0652173913045" stroke="red" stroke-width="1" fill="none" />
<path d="M548.1739130434783,881.804347826087 L548.1739130434783,875.3260869565217" stroke="red" stroke-width="1" fill="none" />
<path d="M548.1739130434783,875.3260869565217 L548.1739130434783,868.8478260869565" stroke="red" stroke-width="1" fill="none" />
<path d="M548.1739130434783,868.8478260869565 L548.1739130434783,842.9347826086956" stroke="red" stroke-width="1" fill="none" />
<path d="M548.1739130434783,842.9347826086956 L548.1739130434783,817.0217391304348" stroke="red" stroke-width="1" fill="none" />
<path d="M548.1739130434783,817.0217391304348 L548.1739130434783,810.5434782608695" stroke="red" stroke-width="1" fill="none" />
<path d="M548.1739130434783,810.5434782608695 L548.1739130434783,804.0652173913044" stroke="red" stroke-width="1" fill="none" />
<path d="M600.0,875.3260869565217 L600.0,881.804347826087" stroke="red" stroke-width="1" fill="none" />
<path d="M600.0,868.8478260869565 L600.0,875.3260869565217" stroke="red" stroke-width="1" fill="none" />
<path d="M600.0,842.9347826086956 L600.0,868.8478260869565" stroke="red" stroke-width="1" fill="none" />
<path d="M600.0,817.0217391304348 L600.0,842.9347826086956" stroke="red" stroke-width="1" fill="none" />
<path d="M600.0,810.5434782608695 L600.0,817.0217391304348" stroke="red" stroke-width="1" fill="none" />
<path d="M600.0,804.0652173913044 L600.0,810.5434782608695" stroke="red" stroke-width="1" fill="none" />
<path d="M807.304347826087,622.6739130434783 L910.9565217391305,622.6739130434783" stroke="red" stroke-width="1" fill="none" />
<path d="M1014.608695652174,752.2391304347826 L910.9565217391305,752.2391304347826" stroke="red" stroke-width="1" fill="none" />
<path d="M910.9565217391305,674.5 L910.9565217391305,700.4130434782609" stroke="red" stroke-width="1" fill="none" />
<path d="M910.9565217391305,700.4130434782609 L1014.608695652174,700.4130434782609" stroke="red" stroke-width="1" fill="none" />
<path d="M910.9565217391305,752.2391304347826 L859.1304347826087,804.0652173913044" stroke="red" stroke-width="1" fill="none" />
<path d="M859.1304347826087,804.0652173913044 L755.4782608695652,804.0652173913044" stroke="red" stroke-width="1" fill="none" />
<path d="M807.304347826087,726.3260869565217 L859.1304347826087,726.3260869565217" stroke="red" stroke-width="1" fill="none" />
<path d="M859.1304347826087,726.3260869565217 L859.1304347826087,674.5" stroke="red" stroke-width="1" fill="none" />
<path d="M625.9130434782609,804.0652173913044 L600.0,804.0652173913044" stroke="red" stroke-width="1" fill="none" />
<path d="M548.1739130434783,804.0652173913044 L522.2608695652174,804.0652173913044" stroke="red" stroke-width="1" fill="none" />
<path d="M755.4782608695652,804.0652173913044 L703.6521739130435,804.0652173913044" stroke="red" stroke-width="1" fill="none" />
<path d="M703.6521739130435,804.0652173913044 L703.6521739130435,791.1086956521739" stroke="red" stroke-width="1" fill="none" />
<path d="M703.6521739130435,791.1086956521739 L690.695652173913,791.1086956521739" stroke="red" stroke-width="1" fill="none" />
<path d="M690.695652173913,791.1086956521739 L677.7391304347826,791.1086956521739" stroke="red" stroke-width="1" fill="none" />
<path d="M677.7391304347826,791.1086956521739 L677.7391304347826,804.0652173913044" stroke="red" stroke-width="1" fill="none" />
<path d="M677.7391304347826,804.0652173913044 L625.9130434782609,804.0652173913044" stroke="red" stroke-width="1" fill="none" />
<path d="M522.2608695652174,804.0652173913044 L470.4347826086956,804.0652173913044" stroke="red" stroke-width="1" fill="none" />
<path d="M470.4347826086956,804.0652173913044 L470.4347826086956,791.1086956521739" stroke="red" stroke-width="1" fill="none" />
<path d="M470.4347826086956,791.1086956521739 L457.47826086956525,791.1086956521739" stroke="red" stroke-width="1" fill="none" />
<path d="M457.47826086956525,791.1086956521739 L444.52173913043475,791.1086956521739" stroke="red" stroke-width="1" fill="none" />
<path d="M444.52173913043475,791.1086956521739 L444.52173913043475,804.0652173913044" stroke="red" stroke-width="1" fill="none" />
<path d="M444.52173913043475,804.0652173913044 L392.695652173913,804.0652173913044" stroke="red" stroke-width="1" fill="none" />
<path d="M340.8695652173913,363.5434782608695 L353.82608695652175,363.5434782608695" stroke="red" stroke-width="1" fill="none" />
<path d="M353.82608695652175,363.5434782608695 L353.82608695652175,350.5869565217391" stroke="red" stroke-width="1" fill="none" />
<path d="M353.82608695652175,350.5869565217391 L353.82608695652175,337.63043478260863" stroke="red" stroke-width="1" fill="none" />
<path d="M353.82608695652175,337.63043478260863 L340.8695652173913,337.63043478260863" stroke="red" stroke-width="1" fill="none" />
<path d="M794.3478260869565,363.5434782608695 L807.304347826087,363.5434782608695" stroke="red" stroke-width="1" fill="none" />
<path d="M794.3478260869565,350.5869565217391 L794.3478260869565,363.5434782608695" stroke="red" stroke-width="1" fill="none" />
<path d="M794.3478260869565,337.63043478260863 L794.3478260869565,350.5869565217391" stroke="red" stroke-width="1" fill="none" />
<path d="M807.304347826087,337.63043478260863 L794.3478260869565,337.63043478260863" stroke="red" stroke-width="1" fill="none" />
<path d="M340.8695652173913,415.36956521739125 L340.8695652173913,363.5434782608695" stroke="red" stroke-width="1" fill="none" />
<path d="M340.8695652173913,337.63043478260863 L340.8695652173913,285.80434782608694" stroke="red" stroke-width="1" fill="none" />
<path d="M807.304347826087,285.80434782608694 L807.304347826087,337.63043478260863" stroke="red" stroke-width="1" fill="none" />
<path d="M807.304347826087,363.5434782608695 L807.304347826087,415.36956521739125" stroke="red" stroke-width="1" fill="none" />
<path d="M470.4347826086956,195.10869565217388 L470.4347826086956,182.15217391304344" stroke="red" stroke-width="1" fill="none" />
<path d="M457.47826086956525,195.10869565217388 L470.4347826086956,195.10869565217388" stroke="red" stroke-width="1" fill="none" />
<path d="M444.52173913043475,195.10869565217388 L457.47826086956525,195.10869565217388" stroke="red" stroke-width="1" fill="none" />
<path d="M418.6086956521739,182.15217391304344 L444.52173913043475,182.15217391304344" stroke="red" stroke-width="1" fill="none" />
<path d="M703.6521739130435,182.15217391304344 L729.5652173913044,182.15217391304344" stroke="red" stroke-width="1" fill="none" />
<path d="M703.6521739130435,195.10869565217388 L703.6521739130435,182.15217391304344" stroke="red" stroke-width="1" fill="none" />
<path d="M690.695652173913,195.10869565217388 L703.6521739130435,195.10869565217388" stroke="red" stroke-width="1" fill="none" />
<path d="M677.7391304347826,195.10869565217388 L690.695652173913,195.10869565217388" stroke="red" stroke-width="1" fill="none" />
<path d="M677.7391304347826,182.15217391304344 L677.7391304347826,195.10869565217388" stroke="red" stroke-width="1" fill="none" />
<path d="M1014.608695652174,389.4565217391304 L1014.608695652174,363.5434782608695" stroke="red" stroke-width="1" fill="none" />
<path d="M1014.608695652174,363.5434782608695 L1014.608695652174,337.63043478260863" stroke="red" stroke-width="1" fill="none" />
<path d="M1014.608695652174,337.63043478260863 L988.695652173913,337.63043478260863" stroke="red" stroke-width="1" fill="none" />
<path d="M988.695652173913,337.63043478260863 L962.7826086956522,337.63043478260863" stroke="red" stroke-width="1" fill="none" />
<path d="M962.7826086956522,337.63043478260863 L936.8695652173913,337.63043478260863" stroke="red" stroke-width="1" fill="none" />
<path d="M936.8695652173913,337.63043478260863 L910.9565217391305,337.63043478260863" stroke="red" stroke-width="1" fill="none" />
<path d="M910.9565217391305,337.63043478260863 L910.9565217391305,363.5434782608695" stroke="red" stroke-width="1" fill="none" />
<path d="M910.9565217391305,363.5434782608695 L910.9565217391305,389.4565217391304" stroke="red" stroke-width="1" fill="none" />
<path d="M910.9565217391305,389.4565217391304 L910.9565217391305,415.36956521739125" stroke="red" stroke-width="1" fill="none" />
<path d="M859.1304347826087,415.36956521739125 L859.1304347826087,389.4565217391304" stroke="red" stroke-width="1" fill="none" />
<path d="M859.1304347826087,389.4565217391304 L859.1304347826087,363.5434782608695" stroke="red" stroke-width="1" fill="none" />
<path d="M859.1304347826087,363.5434782608695 L859.1304347826087,337.63043478260863" stroke="red" stroke-width="1" fill="none" />
<path d="M859.1304347826087,337.63043478260863 L859.1304347826087,285.80434782608694" stroke="red" stroke-width="1" fill="none" />
<path d="M910.9565217391305,285.80434782608694 L936.8695652173913,285.80434782608694" stroke="red" stroke-width="1" fill="none" />
<path d="M936.8695652173913,285.80434782608694 L962.7826086956522,285.80434782608694" stroke="red" stroke-width="1" fill="none" />
<path d="M962.7826086956522,285.80434782608694 L988.695652173913,285.80434782608694" stroke="red" stroke-width="1" fill="none" />
<path d="M988.695652173913,285.80434782608694 L1014.608695652174,285.80434782608694" stroke="red" stroke-width="1" fill="none" />
<path d="M1014.608695652174,285.80434782608694 L1040.5217391304348,285.80434782608694" stroke="red" stroke-width="1" fill="none" />
<path d="M1066.4347826086957,311.7173913043478 L1066.4347826086957,337.63043478260863" stroke="red" stroke-width="1" fill="none" />
<path d="M1066.4347826086957,337.63043478260863 L1066.4347826086957,363.5434782608695" stroke="red" stroke-width="1" fill="none" />
<path d="M1066.4347826086957,363.5434782608695 L1066.4347826086957,389.4565217391304" stroke="red" stroke-width="1" fill="none" />
<path d="M470.4347826086956,182.15217391304344 L548.1739130434783,182.15217391304344" stroke="red" stroke-width="1" fill="none" />
<path d="M600.0,182.15217391304344 L677.7391304347826,182.15217391304344" stroke="red" stroke-width="1" fill="none" />
<path d="M548.1739130434783,182.15217391304344 L548.1739130434783,156.23913043478257" stroke="red" stroke-width="1" fill="none" />
<path d="M548.1739130434783,156.23913043478257 L496.3478260869565,104.41304347826082" stroke="red" stroke-width="1" fill="none" />
<path d="M651.8260869565217,104.41304347826082 L600.0,156.23913043478257" stroke="red" stroke-width="1" fill="none" />
<path d="M600.0,156.23913043478257 L600.0,182.15217391304344" stroke="red" stroke-width="1" fill="none" />
<path d="M729.5652173913044,182.15217391304344 L807.304347826087,182.15217391304344" stroke="red" stroke-width="1" fill="none" />
<path d="M859.1304347826087,285.80434782608694 L859.1304347826087,233.9782608695652" stroke="red" stroke-width="1" fill="none" />
<path d="M910.9565217391305,233.9782608695652 L910.9565217391305,285.80434782608694" stroke="red" stroke-width="1" fill="none" />
<path d="M107.6521739130435,519.0217391304348 L107.6521739130435,415.36956521739125" stroke="red" stroke-width="1" fill="none" />
<path d="M107.6521739130435,415.36956521739125 L107.6521739130435,363.5434782608695" stroke="red" stroke-width="1" fill="none" />
<path d="M107.6521739130435,363.5434782608695 L159.4782608695652,311.7173913043478" stroke="red" stroke-width="1" fill="none" />
<path d="M211.30434782608694,389.4565217391304 L211.30434782608694,415.36956521739125" stroke="red" stroke-width="1" fill="none" />
<path d="M211.30434782608694,415.36956521739125 L211.30434782608694,519.0217391304348" stroke="red" stroke-width="1" fill="none" />
<path d="M211.30434782608694,519.0217391304348 L289.04347826086956,519.0217391304348" stroke="red" stroke-width="1" fill="none" />
<path d="M107.6521739130435,674.5 L107.6521739130435,570.8478260869565" stroke="red" stroke-width="1" fill="none" />
<path d="M159.4782608695652,726.3260869565217 L107.6521739130435,674.5" stroke="red" stroke-width="1" fill="none" />
<path d="M237.2173913043478,804.0652173913044 L159.4782608695652,726.3260869565217" stroke="red" stroke-width="1" fill="none" />
<path d="M211.30434782608694,674.5 L211.30434782608694,700.4130434782609" stroke="red" stroke-width="1" fill="none" />
<path d="M211.30434782608694,570.8478260869565 L211.30434782608694,674.5" stroke="red" stroke-width="1" fill="none" />
<path d="M625.9130434782609,1500.4782608695652 L642.1086956521739,1494.0" stroke="lavender" stroke-width="1" fill="none" />
<path d="M642.1086956521739,1494.0 L648.5869565217391,1477.804347826087" stroke="red" stroke-width="1" fill="none" />
<path d="M648.5869565217391,1477.804347826087 L642.1086956521739,1461.608695652174" stroke="red" stroke-width="1" fill="none" />
<path d="M642.1086956521739,1461.608695652174 L625.9130434782609,1455.1304347826087" stroke="red" stroke-width="1" fill="none" />
<path d="M625.9130434782609,1455.1304347826087 L609.7173913043479,1461.608695652174" stroke="red" stroke-width="1" fill="none" />
<path d="M609.7173913043479,1461.608695652174 L603.2391304347826,1477.804347826087" stroke="red" stroke-width="1" fill="none" />
<path d="M603.2391304347826,1477.804347826087 L609.7173913043479,1494.0" stroke="red" stroke-width="1" fill="none" />
<path d="M609.7173913043479,1494.0 L625.9130434782609,1500.4782608695652" stroke="red" stroke-width="1" fill="none" />
<path d="M522.2608695652174,1396.8260869565217 L538.4565217391305,1390.3478260869565" stroke="lavender" stroke-width="1" fill="none" />
<path d="M538.4565217391305,1390.3478260869565 L544.9347826086956,1374.1521739130435" stroke="red" stroke-width="1" fill="none" />
<path d="M544.9347826086956,1374.1521739130435 L538.4565217391305,1357.9565217391305" stroke="red" stroke-width="1" fill="none" />
<path d="M538.4565217391305,1357.9565217391305 L522.2608695652174,1351.4782608695652" stroke="red" stroke-width="1" fill="none" />
<path d="M522.2608695652174,1351.4782608695652 L506.0652173913044,1357.9565217391305" stroke="red" stroke-width="1" fill="none" />
<path d="M506.0652173913044,1357.9565217391305 L499.5869565217391,1374.1521739130435" stroke="red" stroke-width="1" fill="none" />
<path d="M499.5869565217391,1374.1521739130435 L506.0652173913044,1390.3478260869565" stroke="red" stroke-width="1" fill="none" />
<path d="M506.0652173913044,1390.3478260869565 L522.2608695652174,1396.8260869565217" stroke="red" stroke-width="1" fill="none" />
<path d="M600.0,1422.7391304347825 L616.195652173913,1416.2608695652175" stroke="lavender" stroke-width="1" fill="none" />
<path d="M616.195652173913,1416.2608695652175 L622.6739130434783,1400.0652173913045" stroke="red" stroke-width="1" fill="none" />
<path d="M622.6739130434783,1400.0652173913045 L616.195652173913,1383.8695652173915" stroke="red" stroke-width="1" fill="none" />
<path d="M616.195652173913,1383.8695652173915 L600.0,1377.391304347826" stroke="red" stroke-width="1" fill="none" />
<path d="M600.0,1377.391304347826 L583.804347826087,1383.8695652173915" stroke="red" stroke-width="1" fill="none" />
<path d="M583.804347826087,1383.8695652173915 L577.3260869565217,1400.0652173913045" stroke="red" stroke-width="1" fill="none" />
<path d="M577.3260869565217,1400.0652173913045 L583.804347826087,1416.2608695652175" stroke="red" stroke-width="1" fill="none" />
<path d="M583.804347826087,1416.2608695652175 L600.0,1422.7391304347825" stroke="red" stroke-width="1" fill="none" />
<path d="M548.1739130434783,1474.5652173913045 L564.3695652173913,1468.086956521739" stroke="lavender" stroke-width="1" fill="none" />
<path d="M564.3695652173913,1468.086956521739 L570.8478260869565,1451.891304347826" stroke="red" stroke-width="1" fill="none" />
<path d="M570.8478260869565,1451.891304347826 L564.3695652173913,1435.695652173913" stroke="red" stroke-width="1" fill="none" />
<path d="M564.3695652173913,1435.695652173913 L548.1739130434783,1429.217391304348" stroke="red" stroke-width="1" fill="none" />
<path d="M548.1739130434783,1429.217391304348 L531.9782608695652,1435.695652173913" stroke="red" stroke-width="1" fill="none" />
<path d="M531.9782608695652,1435.695652173913 L525.5,1451.891304347826" stroke="red" stroke-width="1" fill="none" />
<path d="M525.5,1451.891304347826 L531.9782608695652,1468.086956521739" stroke="red" stroke-width="1" fill="none" />
<path d="M531.9782608695652,1468.086956521739 L548.1739130434783,1474.5652173913045" stroke="red" stroke-width="1" fill="none" />
<path d="M392.695652173913,804.0652173913044 L263.1304347826087,804.0652173913044" stroke="red" stroke-width="1" fill="none" />
<path d="M263.1304347826087,726.3260869565217 L340.8695652173913,726.3260869565217" stroke="red" stroke-width="1" fill="none" />
<path d="M211.30434782608694,700.4130434782609 L237.2173913043478,700.4130434782609" stroke="red" stroke-width="1" fill="none" />
<path d="M237.2173913043478,700.4130434782609 L237.2173913043478,674.5" stroke="red" stroke-width="1" fill="none" />
<path d="M263.1304347826087,674.5 L263.1304347826087,726.3260869565217" stroke="red" stroke-width="1" fill="none" />
<path d="M263.1304347826087,804.0652173913044 L237.2173913043478,804.0652173913044" stroke="red" stroke-width="1" fill="none" />
<path d="M340.8695652173913,674.5 L263.1304347826087,674.5" stroke="red" stroke-width="1" fill="none" />
<path d="M263.1304347826087,363.5434782608695 L263.1304347826087,415.36956521739125" stroke="red" stroke-width="1" fill="none" />
<path d="M237.2173913043478,415.36956521739125 L237.2173913043478,389.4565217391304" stroke="red" stroke-width="1" fill="none" />
<path d="M237.2173913043478,389.4565217391304 L211.30434782608694,389.4565217391304" stroke="red" stroke-width="1" fill="none" />
<path d="M263.1304347826087,493.1086956521739 L237.2173913043478,493.1086956521739" stroke="red" stroke-width="1" fill="none" />
<path d="M314.95652173913044,493.1086956521739 L263.1304347826087,493.1086956521739" stroke="red" stroke-width="1" fill="none" />
<path d="M314.95652173913044,467.195652173913 L314.95652173913044,493.1086956521739" stroke="red" stroke-width="1" fill="none" />
<path d="M314.95652173913044,596.7608695652174 L314.95652173913044,622.6739130434783" stroke="red" stroke-width="1" fill="none" />
<path d="M237.2173913043478,596.7608695652174 L263.1304347826087,596.7608695652174" stroke="red" stroke-width="1" fill="none" />
<path d="M263.1304347826087,596.7608695652174 L314.95652173913044,596.7608695652174" stroke="red" stroke-width="1" fill="none" />
<path d="M910.9565217391305,415.36956521739125 L920.6739130434783,415.36956521739125" stroke="red" stroke-width="1" fill="none" />
<path d="M920.6739130434783,415.36956521739125 L936.8695652173913,415.36956521739125" stroke="red" stroke-width="1" fill="none" />
<path d="M936.8695652173913,415.36956521739125 L936.8695652173913,363.5434782608695" stroke="red" stroke-width="1" fill="none" />
<path d="M936.8695652173913,363.5434782608695 L988.695652173913,363.5434782608695" stroke="red" stroke-width="1" fill="none" />
<path d="M988.695652173913,363.5434782608695 L988.695652173913,467.195652173913" stroke="red" stroke-width="1" fill="none" />
<path d="M988.695652173913,467.195652173913 L962.7826086956522,493.1086956521739" stroke="red" stroke-width="1" fill="none" />
<path d="M962.7826086956522,493.1086956521739 L920.6739130434783,493.1086956521739" stroke="red" stroke-width="1" fill="none" />
<path d="M920.6739130434783,493.1086956521739 L920.6739130434783,467.195652173913" stroke="red" stroke-width="1" fill="none" />
<path d="M920.6739130434783,467.195652173913 L910.9565217391305,467.195652173913" stroke="red" stroke-width="1" fill="none" />
<path d="M910.9565217391305,622.6739130434783 L920.6739130434783,622.6739130434783" stroke="red" stroke-width="1" fill="none" />
<path d="M920.6739130434783,622.6739130434783 L920.6739130434783,596.7608695652174" stroke="red" stroke-width="1" fill="none" />
<path d="M920.6739130434783,674.5 L910.9565217391305,674.5" stroke="red" stroke-width="1" fill="none" />
<path d="M920.6739130434783,596.7608695652174 L962.7826086956522,596.7608695652174" stroke="red" stroke-width="1" fill="none" />
<path d="M962.7826086956522,596.7608695652174 L988.695652173913,622.6739130434783" stroke="red" stroke-width="1" fill="none" />
<path d="M988.695652173913,622.6739130434783 L988.695652173913,674.5" stroke="red" stroke-width="1" fill="none" />
<path d="M263.1304347826087,415.36956521739125 L276.0869565217391,415.36956521739125" stroke="red" stroke-width="1" fill="none" />
<path d="M327.9130434782609,415.36956521739125 L340.8695652173913,415.36956521739125" stroke="red" stroke-width="1" fill="none" />
<path d="M276.0869565217391,415.36956521739125 L276.0869565217391,405.65217391304344" stroke="red" stroke-width="1" fill="none" />
<path d="M327.9130434782609,405.65217391304344 L327.9130434782609,415.36956521739125" stroke="red" stroke-width="1" fill="none" />
<path d="M276.0869565217391,405.65217391304344 L276.0869565217391,363.5434782608695" stroke="red" stroke-width="1" fill="none" />
<path d="M276.0869565217391,363.5434782608695 L276.0869565217391,337.63043478260863" stroke="red" stroke-width="1" fill="none" />
<path d="M276.0869565217391,337.63043478260863 L276.0869565217391,311.7173913043478" stroke="red" stroke-width="1" fill="none" />
<path d="M276.0869565217391,311.7173913043478 L276.0869565217391,285.80434782608694" stroke="red" stroke-width="1" fill="none" />
<path d="M276.0869565217391,285.80434782608694 L276.0869565217391,259.89130434782606" stroke="red" stroke-width="1" fill="none" />
<path d="M327.9130434782609,285.80434782608694 L327.9130434782609,311.7173913043478" stroke="red" stroke-width="1" fill="none" />
<path d="M327.9130434782609,311.7173913043478 L327.9130434782609,337.63043478260863" stroke="red" stroke-width="1" fill="none" />
<path d="M327.9130434782609,337.63043478260863 L327.9130434782609,363.5434782608695" stroke="red" stroke-width="1" fill="none" />
<path d="M327.9130434782609,363.5434782608695 L327.9130434782609,405.65217391304344" stroke="red" stroke-width="1" fill="none" />
<path d="M327.9130434782609,259.89130434782606 L327.9130434782609,285.80434782608694" stroke="red" stroke-width="1" fill="none" />
<path d="M276.0869565217391,259.89130434782606 L276.0869565217391,233.9782608695652" stroke="red" stroke-width="1" fill="none" />
<path d="M276.0869565217391,233.9782608695652 L276.0869565217391,208.06521739130432" stroke="red" stroke-width="1" fill="none" />
<path d="M327.9130434782609,233.9782608695652 L327.9130434782609,259.89130434782606" stroke="red" stroke-width="1" fill="none" />
<path d="M340.8695652173913,233.9782608695652 L327.9130434782609,233.9782608695652" stroke="red" stroke-width="1" fill="none" />
<path d="M340.8695652173913,285.80434782608694 L340.8695652173913,233.9782608695652" stroke="red" stroke-width="1" fill="none" />
<path d="M276.0869565217391,208.06521739130432 L314.95652173913044,182.15217391304344" stroke="red" stroke-width="1" fill="none" />
<path d="M353.82608695652175,182.15217391304344 L418.6086956521739,182.15217391304344" stroke="red" stroke-width="1" fill="none" />
<path d="M211.30434782608694,311.7173913043478 L263.1304347826087,363.5434782608695" stroke="red" stroke-width="1" fill="none" />
<path d="M470.4347826086956,350.5869565217391 L470.4347826086956,337.63043478260863" stroke="red" stroke-width="1" fill="none" />
<path d="M470.4347826086956,337.63043478260863 L457.47826086956525,337.63043478260863" stroke="red" stroke-width="1" fill="none" />
<path d="M457.47826086956525,337.63043478260863 L444.52173913043475,337.63043478260863" stroke="red" stroke-width="1" fill="none" />
<path d="M444.52173913043475,337.63043478260863 L444.52173913043475,350.5869565217391" stroke="red" stroke-width="1" fill="none" />
<path d="M470.4347826086956,363.5434782608695 L470.4347826086956,350.5869565217391" stroke="red" stroke-width="1" fill="none" />
<path d="M457.47826086956525,363.5434782608695 L470.4347826086956,363.5434782608695" stroke="red" stroke-width="1" fill="none" />
<path d="M444.52173913043475,363.5434782608695 L457.47826086956525,363.5434782608695" stroke="red" stroke-width="1" fill="none" />
<path d="M444.52173913043475,350.5869565217391 L444.52173913043475,363.5434782608695" stroke="red" stroke-width="1" fill="none" />
<path d="M703.6521739130435,350.5869565217391 L703.6521739130435,337.63043478260863" stroke="red" stroke-width="1" fill="none" />
<path d="M703.6521739130435,337.63043478260863 L690.695652173913,337.63043478260863" stroke="red" stroke-width="1" fill="none" />
<path d="M690.695652173913,337.63043478260863 L677.7391304347826,337.63043478260863" stroke="red" stroke-width="1" fill="none" />
<path d="M677.7391304347826,337.63043478260863 L677.7391304347826,350.5869565217391" stroke="red" stroke-width="1" fill="none" />
<path d="M703.6521739130435,363.5434782608695 L703.6521739130435,350.5869565217391" stroke="red" stroke-width="1" fill="none" />
<path d="M690.695652173913,363.5434782608695 L703.6521739130435,363.5434782608695" stroke="red" stroke-width="1" fill="none" />
<path d="M677.7391304347826,363.5434782608695 L690.695652173913,363.5434782608695" stroke="red" stroke-width="1" fill="none" />
<path d="M677.7391304347826,350.5869565217391 L677.7391304347826,363.5434782608695" stroke="red" stroke-width="1" fill="none" />
<path d="M483.3913043478261,544.9347826086956 L483.3913043478261,531.9782608695652" stroke="red" stroke-width="1" fill="none" />
<path d="M483.3913043478261,531.9782608695652 L470.4347826086956,531.9782608695652" stroke="red" stroke-width="1" fill="none" />
<path d="M470.4347826086956,531.9782608695652 L457.47826086956525,531.9782608695652" stroke="red" stroke-width="1" fill="none" />
<path d="M457.47826086956525,531.9782608695652 L457.47826086956525,544.9347826086956" stroke="red" stroke-width="1" fill="none" />
<path d="M483.3913043478261,557.8913043478261 L483.3913043478261,544.9347826086956" stroke="red" stroke-width="1" fill="none" />
<path d="M470.4347826086956,557.8913043478261 L483.3913043478261,557.8913043478261" stroke="red" stroke-width="1" fill="none" />
<path d="M457.47826086956525,557.8913043478261 L470.4347826086956,557.8913043478261" stroke="red" stroke-width="1" fill="none" />
<path d="M457.47826086956525,544.9347826086956 L457.47826086956525,557.8913043478261" stroke="red" stroke-width="1" fill="none" />
<path d="M690.695652173913,544.9347826086956 L690.695652173913,531.9782608695652" stroke="red" stroke-width="1" fill="none" />
<path d="M690.695652173913,531.9782608695652 L677.7391304347826,531.9782608695652" stroke="red" stroke-width="1" fill="none" />
<path d="M677.7391304347826,531.9782608695652 L664.7826086956521,531.9782608695652" stroke="red" stroke-width="1" fill="none" />
<path d="M664.7826086956521,531.9782608695652 L664.7826086956521,544.9347826086956" stroke="red" stroke-width="1" fill="none" />
<path d="M690.695652173913,557.8913043478261 L690.695652173913,544.9347826086956" stroke="red" stroke-width="1" fill="none" />
<path d="M677.7391304347826,557.8913043478261 L690.695652173913,557.8913043478261" stroke="red" stroke-width="1" fill="none" />
<path d="M664.7826086956521,557.8913043478261 L677.7391304347826,557.8913043478261" stroke="red" stroke-width="1" fill="none" />
<path d="M664.7826086956521,544.9347826086956 L664.7826086956521,557.8913043478261" stroke="red" stroke-width="1" fill="none" />
<path d="M496.3478260869565,104.41304347826082 L496.3478260869565,91.45652173913038" stroke="red" stroke-width="1" fill="none" />
<path d="M651.8260869565217,91.45652173913038 L651.8260869565217,104.41304347826082" stroke="red" stroke-width="1" fill="none" />
<path d="M159.4782608695652,311.7173913043478 L159.4782608695652,298.7608695652174" stroke="red" stroke-width="1" fill="none" />
<path d="M211.30434782608694,298.7608695652174 L211.30434782608694,311.7173913043478" stroke="red" stroke-width="1" fill="none" />
<path d="M159.4782608695652,298.7608695652174 L159.4782608695652,259.89130434782606" stroke="red" stroke-width="1" fill="none" />
<path d="M159.4782608695652,259.89130434782606 L159.4782608695652,233.9782608695652" stroke="red" stroke-width="1" fill="none" />
<path d="M159.4782608695652,233.9782608695652 L159.4782608695652,208.06521739130432" stroke="red" stroke-width="1" fill="none" />
<path d="M159.4782608695652,208.06521739130432 L159.4782608695652,182.15217391304344" stroke="red" stroke-width="1" fill="none" />
<path d="M159.4782608695652,182.15217391304344 L159.4782608695652,156.23913043478257" stroke="red" stroke-width="1" fill="none" />
<path d="M159.4782608695652,156.23913043478257 L159.4782608695652,104.41304347826082" stroke="red" stroke-width="1" fill="none" />
<path d="M159.4782608695652,104.41304347826082 L211.30434782608694,104.41304347826082" stroke="red" stroke-width="1" fill="none" />
<path d="M211.30434782608694,104.41304347826082 L237.2173913043478,104.41304347826082" stroke="red" stroke-width="1" fill="none" />
<path d="M237.2173913043478,104.41304347826082 L263.1304347826087,104.41304347826082" stroke="red" stroke-width="1" fill="none" />
<path d="M211.30434782608694,259.89130434782606 L211.30434782608694,298.7608695652174" stroke="red" stroke-width="1" fill="none" />
<path d="M211.30434782608694,233.9782608695652 L211.30434782608694,259.89130434782606" stroke="red" stroke-width="1" fill="none" />
<path d="M211.30434782608694,208.06521739130432 L211.30434782608694,233.9782608695652" stroke="red" stroke-width="1" fill="none" />
<path d="M211.30434782608694,182.15217391304344 L211.30434782608694,208.06521739130432" stroke="red" stroke-width="1" fill="none" />
<path d="M211.30434782608694,156.23913043478257 L211.30434782608694,182.15217391304344" stroke="red" stroke-width="1" fill="none" />
<path d="M263.1304347826087,156.23913043478257 L237.2173913043478,156.23913043478257" stroke="red" stroke-width="1" fill="none" />
<path d="M237.2173913043478,156.23913043478257 L211.30434782608694,156.23913043478257" stroke="red" stroke-width="1" fill="none" />
<path d="M263.1304347826087,104.41304347826082 L289.04347826086956,104.41304347826082" stroke="red" stroke-width="1" fill="none" />
<path d="M289.04347826086956,104.41304347826082 L314.95652173913044,104.41304347826082" stroke="red" stroke-width="1" fill="none" />
<path d="M314.95652173913044,156.23913043478257 L289.04347826086956,156.23913043478257" stroke="red" stroke-width="1" fill="none" />
<path d="M289.04347826086956,156.23913043478257 L263.1304347826087,156.23913043478257" stroke="red" stroke-width="1" fill="none" />
<path d="M314.95652173913044,104.41304347826082 L340.8695652173913,104.41304347826082" stroke="red" stroke-width="1" fill="none" />
<path d="M340.8695652173913,104.41304347826082 L366.7826086956522,104.41304347826082" stroke="red" stroke-width="1" fill="none" />
<path d="M366.7826086956522,156.23913043478257 L340.8695652173913,156.23913043478257" stroke="red" stroke-width="1" fill="none" />
<path d="M340.8695652173913,156.23913043478257 L314.95652173913044,156.23913043478257" stroke="red" stroke-width="1" fill="none" />
<path d="M366.7826086956522,104.41304347826082 L392.695652173913,104.41304347826082" stroke="red" stroke-width="1" fill="none" />
<path d="M392.695652173913,104.41304347826082 L496.3478260869565,4.0" stroke="red" stroke-width="1" fill="none" />
<path d="M496.3478260869565,4.0 L651.8260869565217,4.0" stroke="red" stroke-width="1" fill="none" />
<path d="M651.8260869565217,4.0 L755.4782608695652,104.41304347826082" stroke="red" stroke-width="1" fill="none" />
<path d="M677.7391304347826,104.41304347826082 L677.7391304347826,91.45652173913038" stroke="red" stroke-width="1" fill="none" />
<path d="M677.7391304347826,91.45652173913038 L651.8260869565217,91.45652173913038" stroke="red" stroke-width="1" fill="none" />
<path d="M496.3478260869565,91.45652173913038 L470.4347826086956,91.45652173913038" stroke="red" stroke-width="1" fill="none" />
<path d="M470.4347826086956,91.45652173913038 L418.6086956521739,156.23913043478257" stroke="red" stroke-width="1" fill="none" />
<path d="M418.6086956521739,156.23913043478257 L366.7826086956522,156.23913043478257" stroke="red" stroke-width="1" fill="none" />
<path d="M451.0,680.9782608695652 L463.95652173913044,680.9782608695652" stroke="red" stroke-width="1" fill="none" />
<path d="M463.95652173913044,680.9782608695652 L463.95652173913044,668.0217391304348" stroke="red" stroke-width="1" fill="none" />
<path d="M463.95652173913044,668.0217391304348 L451.0,668.0217391304348" stroke="red" stroke-width="1" fill="none" />
<path d="M451.0,668.0217391304348 L451.0,680.9782608695652" stroke="red" stroke-width="1" fill="none" />
<path d="M451.0,629.1521739130435 L463.95652173913044,629.1521739130435" stroke="red" stroke-width="1" fill="none" />
<path d="M463.95652173913044,629.1521739130435 L463.95652173913044,616.195652173913" stroke="red" stroke-width="1" fill="none" />
<path d="M463.95652173913044,616.195652173913 L451.0,616.195652173913" stroke="red" stroke-width="1" fill="none" />
<path d="M451.0,616.195652173913 L451.0,629.1521739130435" stroke="red" stroke-width="1" fill="none" />
<path d="M399.17391304347825,629.1521739130435 L412.1304347826087,629.1521739130435" stroke="red" stroke-width="1" fill="none" />
<path d="M412.1304347826087,629.1521739130435 L412.1304347826087,616.195652173913" stroke="red" stroke-width="1" fill="none" />
<path d="M412.1304347826087,616.195652173913 L399.17391304347825,616.195652173913" stroke="red" stroke-width="1" fill="none" />
<path d="M399.17391304347825,616.195652173913 L399.17391304347825,629.1521739130435" stroke="red" stroke-width="1" fill="none" />
<path d="M399.17391304347825,680.9782608695652 L412.1304347826087,680.9782608695652" stroke="red" stroke-width="1" fill="none" />
<path d="M412.1304347826087,680.9782608695652 L412.1304347826087,668.0217391304348" stroke="red" stroke-width="1" fill="none" />
<path d="M412.1304347826087,668.0217391304348 L399.17391304347825,668.0217391304348" stroke="red" stroke-width="1" fill="none" />
<path d="M399.17391304347825,668.0217391304348 L399.17391304347825,680.9782608695652" stroke="red" stroke-width="1" fill="none" />
<path d="M736.0434782608696,680.9782608695652 L749.0,680.9782608695652" stroke="red" stroke-width="1" fill="none" />
<path d="M749.0,680.9782608695652 L749.0,668.0217391304348" stroke="red" stroke-width="1" fill="none" />
<path d="M749.0,668.0217391304348 L736.0434782608696,668.0217391304348" stroke="red" stroke-width="1" fill="none" />
<path d="M736.0434782608696,668.0217391304348 L736.0434782608696,680.9782608695652" stroke="red" stroke-width="1" fill="none" />
<path d="M736.0434782608696,629.1521739130435 L749.0,629.1521739130435" stroke="red" stroke-width="1" fill="none" />
<path d="M749.0,629.1521739130435 L749.0,616.195652173913" stroke="red" stroke-width="1" fill="none" />
<path d="M749.0,616.195652173913 L736.0434782608696,616.195652173913" stroke="red" stroke-width="1" fill="none" />
<path d="M736.0434782608696,616.195652173913 L736.0434782608696,629.1521739130435" stroke="red" stroke-width="1" fill="none" />
<path d="M684.2173913043479,629.1521739130435 L697.1739130434783,629.1521739130435" stroke="red" stroke-width="1" fill="none" />
<path d="M697.1739130434783,629.1521739130435 L697.1739130434783,616.195652173913" stroke="red" stroke-width="1" fill="none" />
<path d="M697.1739130434783,616.195652173913 L684.2173913043479,616.195652173913" stroke="red" stroke-width="1" fill="none" />
<path d="M684.2173913043479,616.195652173913 L684.2173913043479,629.1521739130435" stroke="red" stroke-width="1" fill="none" />
<path d="M684.2173913043479,680.9782608695652 L697.1739130434783,680.9782608695652" stroke="red" stroke-width="1" fill="none" />
<path d="M697.1739130434783,680.9782608695652 L697.1739130434783,668.0217391304348" stroke="red" stroke-width="1" fill="none" />
<path d="M697.1739130434783,668.0217391304348 L684.2173913043479,668.0217391304348" stroke="red" stroke-width="1" fill="none" />
<path d="M684.2173913043479,668.0217391304348 L684.2173913043479,680.9782608695652" stroke="red" stroke-width="1" fill="none" />
<path d="M451.0,473.67391304347825 L463.95652173913044,473.67391304347825" stroke="red" stroke-width="1" fill="none" />
<path d="M463.95652173913044,473.67391304347825 L463.95652173913044,460.7173913043478" stroke="red" stroke-width="1" fill="none" />
<path d="M463.95652173913044,460.7173913043478 L451.0,460.7173913043478" stroke="red" stroke-width="1" fill="none" />
<path d="M451.0,460.7173913043478 L451.0,473.67391304347825" stroke="red" stroke-width="1" fill="none" />
<path d="M451.0,421.8478260869565 L463.95652173913044,421.8478260869565" stroke="red" stroke-width="1" fill="none" />
<path d="M463.95652173913044,421.8478260869565 L463.95652173913044,408.89130434782606" stroke="red" stroke-width="1" fill="none" />
<path d="M463.95652173913044,408.89130434782606 L451.0,408.89130434782606" stroke="red" stroke-width="1" fill="none" />
<path d="M451.0,408.89130434782606 L451.0,421.8478260869565" stroke="red" stroke-width="1" fill="none" />
<path d="M399.17391304347825,421.8478260869565 L412.1304347826087,421.8478260869565" stroke="red" stroke-width="1" fill="none" />
<path d="M412.1304347826087,421.8478260869565 L412.1304347826087,408.89130434782606" stroke="red" stroke-width="1" fill="none" />
<path d="M412.1304347826087,408.89130434782606 L399.17391304347825,408.89130434782606" stroke="red" stroke-width="1" fill="none" />
<path d="M399.17391304347825,408.89130434782606 L399.17391304347825,421.8478260869565" stroke="red" stroke-width="1" fill="none" />
<path d="M399.17391304347825,473.67391304347825 L412.1304347826087,473.67391304347825" stroke="red" stroke-width="1" fill="none" />
<path d="M412.1304347826087,473.67391304347825 L412.1304347826087,460.7173913043478" stroke="red" stroke-width="1" fill="none" />
<path d="M412.1304347826087,460.7173913043478 L399.17391304347825,460.7173913043478" stroke="red" stroke-width="1" fill="none" />
<path d="M399.17391304347825,460.7173913043478 L399.17391304347825,473.67391304347825" stroke="red" stroke-width="1" fill="none" />
<path d="M736.0434782608696,473.67391304347825 L749.0,473.67391304347825" stroke="red" stroke-width="1" fill="none" />
<path d="M749.0,473.67391304347825 L749.0,460.7173913043478" stroke="red" stroke-width="1" fill="none" />
<path d="M749.0,460.7173913043478 L736.0434782608696,460.7173913043478" stroke="red" stroke-width="1" fill="none" />
<path d="M736.0434782608696,460.7173913043478 L736.0434782608696,473.67391304347825" stroke="red" stroke-width="1" fill="none" />
<path d="M736.0434782608696,421.8478260869565 L749.0,421.8478260869565" stroke="red" stroke-width="1" fill="none" />
<path d="M749.0,421.8478260869565 L749.0,408.89130434782606" stroke="red" stroke-width="1" fill="none" />
<path d="M749.0,408.89130434782606 L736.0434782608696,408.89130434782606" stroke="red" stroke-width="1" fill="none" />
<path d="M736.0434782608696,408.89130434782606 L736.0434782608696,421.8478260869565" stroke="red" stroke-width="1" fill="none" />
<path d="M684.2173913043479,421.8478260869565 L697.1739130434783,421.8478260869565" stroke="red" stroke-width="1" fill="none" />
<path d="M697.1739130434783,421.8478260869565 L697.1739130434783,408.89130434782606" stroke="red" stroke-width="1" fill="none" />
<path d="M697.1739130434783,408.89130434782606 L684.2173913043479,408.89130434782606" stroke="red" stroke-width="1" fill="none" />
<path d="M684.2173913043479,408.89130434782606 L684.2173913043479,421.8478260869565" stroke="red" stroke-width="1" fill="none" />
<path d="M684.2173913043479,473.67391304347825 L697.1739130434783,473.67391304347825" stroke="red" stroke-width="1" fill="none" />
<path d="M697.1739130434783,473.67391304347825 L697.1739130434783,460.7173913043478" stroke="red" stroke-width="1" fill="none" />
<path d="M697.1739130434783,460.7173913043478 L684.2173913043479,460.7173913043478" stroke="red" stroke-width="1" fill="none" />
<path d="M684.2173913043479,460.7173913043478 L684.2173913043479,473.67391304347825" stroke="red" stroke-width="1" fill="none" />
<path d="M405.6521739130435,544.9347826086956 L405.6521739130435,531.9782608695652" stroke="red" stroke-width="1" fill="none" />
<path d="M405.6521739130435,531.9782608695652 L392.695652173913,531.9782608695652" stroke="red" stroke-width="1" fill="none" />
<path d="M392.695652173913,531.9782608695652 L379.7391304347826,531.9782608695652" stroke="red" stroke-width="1" fill="none" />
<path d="M379.7391304347826,531.9782608695652 L379.7391304347826,544.9347826086956" stroke="red" stroke-width="1" fill="none" />
<path d="M405.6521739130435,557.8913043478261 L405.6521739130435,544.9347826086956" stroke="red" stroke-width="1" fill="none" />
<path d="M392.695652173913,557.8913043478261 L405.6521739130435,557.8913043478261" stroke="red" stroke-width="1" fill="none" />
<path d="M379.7391304347826,557.8913043478261 L392.695652173913,557.8913043478261" stroke="red" stroke-width="1" fill="none" />
<path d="M379.7391304347826,544.9347826086956 L379.7391304347826,557.8913043478261" stroke="red" stroke-width="1" fill="none" />
<path d="M768.4347826086956,544.9347826086956 L768.4347826086956,531.9782608695652" stroke="red" stroke-width="1" fill="none" />
<path d="M768.4347826086956,531.9782608695652 L755.4782608695652,531.9782608695652" stroke="red" stroke-width="1" fill="none" />
<path d="M755.4782608695652,531.9782608695652 L742.5217391304348,531.9782608695652" stroke="red" stroke-width="1" fill="none" />
<path d="M742.5217391304348,531.9782608695652 L742.5217391304348,544.9347826086956" stroke="red" stroke-width="1" fill="none" />
<path d="M768.4347826086956,557.8913043478261 L768.4347826086956,544.9347826086956" stroke="red" stroke-width="1" fill="none" />
<path d="M755.4782608695652,557.8913043478261 L768.4347826086956,557.8913043478261" stroke="red" stroke-width="1" fill="none" />
<path d="M742.5217391304348,557.8913043478261 L755.4782608695652,557.8913043478261" stroke="red" stroke-width="1" fill="none" />
<path d="M742.5217391304348,544.9347826086956 L742.5217391304348,557.8913043478261" stroke="red" stroke-width="1" fill="none" />
<path d="M625.9130434782609,1011.3695652173913 L677.7391304347826,1066.4347826086957" stroke="red" stroke-width="1" fill="none" />
<path d="M677.7391304347826,1066.4347826086957 L677.7391304347826,1166.8478260869565" stroke="red" stroke-width="1" fill="none" />
<path d="M677.7391304347826,1166.8478260869565 L622.6739130434783,1218.6739130434783" stroke="red" stroke-width="1" fill="none" />
<path d="M622.6739130434783,1218.6739130434783 L522.2608695652174,1218.6739130434783" stroke="red" stroke-width="1" fill="none" />
<path d="M522.2608695652174,1218.6739130434783 L470.4347826086956,1166.8478260869565" stroke="red" stroke-width="1" fill="none" />
<path d="M470.4347826086956,1166.8478260869565 L470.4347826086956,1063.195652173913" stroke="red" stroke-width="1" fill="none" />
<path d="M470.4347826086956,1063.195652173913 L522.2608695652174,1011.3695652173913" stroke="red" stroke-width="1" fill="none" />
<path d="M859.1304347826087,233.9782608695652 L807.304347826087,233.9782608695652" stroke="red" stroke-width="1" fill="none" />
<path d="M807.304347826087,233.9782608695652 L807.304347826087,285.80434782608694" stroke="red" stroke-width="1" fill="none" />
<path d="M703.6521739130435,1234.8695652173915 L703.6521739130435,1513.4347826086955" stroke="red" stroke-width="1" fill="none" />
<path d="M703.6521739130435,1513.4347826086955 L434.80434782608694,1513.4347826086955" stroke="red" stroke-width="1" fill="none" />
<path d="M434.80434782608694,1513.4347826086955 L434.80434782608694,1234.8695652173915" stroke="red" stroke-width="1" fill="none" />
<path d="M434.80434782608694,1234.8695652173915 L703.6521739130435,1234.8695652173915" stroke="red" stroke-width="1" fill="none" />
<path d="M606.4782608695652,1124.7391304347825 L655.0652173913044,1144.1739130434783" stroke="red" stroke-width="1" fill="none" />
<path d="M606.4782608695652,1111.782608695652 L606.4782608695652,1124.7391304347825" stroke="red" stroke-width="1" fill="none" />
<path d="M655.0652173913044,1092.3478260869565 L606.4782608695652,1111.782608695652" stroke="red" stroke-width="1" fill="none" />
<path d="M655.0652173913044,1105.304347826087 L655.0652173913044,1092.3478260869565" stroke="red" stroke-width="1" fill="none" />
<path d="M616.195652173913,1121.5 L616.195652173913,1115.0217391304348" stroke="red" stroke-width="1" fill="none" />
<path d="M655.0652173913044,1144.1739130434783 L655.0652173913044,1131.217391304348" stroke="red" stroke-width="1" fill="none" />
<path d="M616.195652173913,1115.0217391304348 L645.3478260869565,1105.304347826087" stroke="red" stroke-width="1" fill="none" />
<path d="M645.3478260869565,1131.217391304348 L616.195652173913,1121.5" stroke="red" stroke-width="1" fill="none" />
<path d="M567.6086956521739,1085.8695652173915 L580.5652173913044,1085.8695652173915" stroke="red" stroke-width="1" fill="none" />
<path d="M580.5652173913044,1085.8695652173915 L600.0,1037.2826086956522" stroke="red" stroke-width="1" fill="none" />
<path d="M600.0,1037.2826086956522 L587.0434782608696,1037.2826086956522" stroke="red" stroke-width="1" fill="none" />
<path d="M561.1304347826087,1037.2826086956522 L548.1739130434783,1037.2826086956522" stroke="red" stroke-width="1" fill="none" />
<path d="M548.1739130434783,1037.2826086956522 L567.6086956521739,1085.8695652173915" stroke="red" stroke-width="1" fill="none" />
<path d="M587.0434782608696,1047.0 L577.3260869565217,1076.1521739130435" stroke="red" stroke-width="1" fill="none" />
<path d="M577.3260869565217,1076.1521739130435 L570.8478260869565,1076.1521739130435" stroke="red" stroke-width="1" fill="none" />
<path d="M570.8478260869565,1076.1521739130435 L561.1304347826087,1047.0" stroke="red" stroke-width="1" fill="none" />
<path d="M493.1086956521739,1144.1739130434783 L541.695652173913,1124.7391304347825" stroke="red" stroke-width="1" fill="none" />
<path d="M541.695652173913,1124.7391304347825 L541.695652173913,1111.782608695652" stroke="red" stroke-width="1" fill="none" />
<path d="M541.695652173913,1111.782608695652 L493.1086956521739,1092.3478260869565" stroke="red" stroke-width="1" fill="none" />
<path d="M493.1086956521739,1092.3478260869565 L493.1086956521739,1105.304347826087" stroke="red" stroke-width="1" fill="none" />
<path d="M531.9782608695652,1115.0217391304348 L531.9782608695652,1121.5" stroke="red" stroke-width="1" fill="none" />
<path d="M493.1086956521739,1131.217391304348 L493.1086956521739,1144.1739130434783" stroke="red" stroke-width="1" fill="none" />
<path d="M502.82608695652175,1105.304347826087 L531.9782608695652,1115.0217391304348" stroke="red" stroke-width="1" fill="none" />
<path d="M531.9782608695652,1121.5 L502.82608695652175,1131.217391304348" stroke="red" stroke-width="1" fill="none" />
<path d="M645.3478260869565,1105.304347826087 L648.5869565217391,1105.304347826087" stroke="red" stroke-width="1" fill="none" />
<path d="M648.5869565217391,1105.304347826087 L655.0652173913044,1105.304347826087" stroke="red" stroke-width="1" fill="none" />
<path d="M655.0652173913044,1131.217391304348 L648.5869565217391,1131.217391304348" stroke="red" stroke-width="1" fill="none" />
<path d="M648.5869565217391,1131.217391304348 L645.3478260869565,1131.217391304348" stroke="red" stroke-width="1" fill="none" />
<path d="M502.82608695652175,1131.217391304348 L499.5869565217391,1131.217391304348" stroke="red" stroke-width="1" fill="none" />
<path d="M499.5869565217391,1131.217391304348 L493.1086956521739,1131.217391304348" stroke="red" stroke-width="1" fill="none" />
<path d="M493.1086956521739,1105.304347826087 L499.5869565217391,1105.304347826087" stroke="red" stroke-width="1" fill="none" />
<path d="M499.5869565217391,1105.304347826087 L502.82608695652175,1105.304347826087" stroke="red" stroke-width="1" fill="none" />
<path d="M561.1304347826087,1047.0 L561.1304347826087,1043.7608695652175" stroke="red" stroke-width="1" fill="none" />
<path d="M561.1304347826087,1043.7608695652175 L561.1304347826087,1037.2826086956522" stroke="red" stroke-width="1" fill="none" />
<path d="M587.0434782608696,1037.2826086956522 L587.0434782608696,1043.7608695652175" stroke="red" stroke-width="1" fill="none" />
<path d="M587.0434782608696,1043.7608695652175 L587.0434782608696,1047.0" stroke="red" stroke-width="1" fill="none" />
<path d="M1066.4347826086957,389.4565217391304 L1066.4347826086957,493.1086956521739" stroke="red" stroke-width="1" fill="none" />
<path d="M1066.4347826086957,493.1086956521739 L1092.3478260869565,519.0217391304348" stroke="red" stroke-width="1" fill="none" />
<path d="M1092.3478260869565,570.8478260869565 L1066.4347826086957,596.7608695652174" stroke="red" stroke-width="1" fill="none" />
<path d="M1066.4347826086957,596.7608695652174 L1066.4347826086957,726.3260869565217" stroke="red" stroke-width="1" fill="none" />
<path d="M1066.4347826086957,726.3260869565217 L1040.5217391304348,752.2391304347826" stroke="red" stroke-width="1" fill="none" />
<path d="M1040.5217391304348,285.80434782608694 L1066.4347826086957,311.7173913043478" stroke="red" stroke-width="1" fill="none" />
<path d="M807.304347826087,182.15217391304344 L833.2173913043479,208.06521739130432" stroke="red" stroke-width="1" fill="none" />
<path d="M833.2173913043479,208.06521739130432 L885.0434782608695,208.06521739130432" stroke="red" stroke-width="1" fill="none" />
<path d="M885.0434782608695,208.06521739130432 L910.9565217391305,233.9782608695652" stroke="red" stroke-width="1" fill="none" />
<path d="M340.8695652173913,175.6739130434782 L353.82608695652175,175.6739130434782" stroke="lavender" stroke-width="1" fill="none" />
<path d="M444.52173913043475,182.15217391304344 L444.52173913043475,195.10869565217388" stroke="red" stroke-width="1" fill="none" />
<path d="M314.95652173913044,182.15217391304344 L340.8695652173913,182.15217391304344" stroke="red" stroke-width="1" fill="none" />
<path d="M340.8695652173913,182.15217391304344 L340.8695652173913,175.6739130434782" stroke="red" stroke-width="1" fill="none" />
<path d="M353.82608695652175,175.6739130434782 L353.82608695652175,182.15217391304344" stroke="red" stroke-width="1" fill="none" />
<path d="M94.695652173913,519.0217391304348 L107.6521739130435,519.0217391304348" stroke="red" stroke-width="1" fill="none" />
<path d="M107.6521739130435,570.8478260869565 L94.695652173913,570.8478260869565" stroke="red" stroke-width="1" fill="none" />
<path d="M1092.3478260869565,519.0217391304348 L1105.304347826087,519.0217391304348" stroke="red" stroke-width="1" fill="none" />
<path d="M1105.304347826087,570.8478260869565 L1092.3478260869565,570.8478260869565" stroke="red" stroke-width="1" fill="none" />
<path d="M94.695652173913,570.8478260869565 L81.73913043478262,570.8478260869565" stroke="red" stroke-width="1" fill="none" />
<path d="M81.73913043478262,570.8478260869565 L55.82608695652175,596.7608695652174" stroke="red" stroke-width="1" fill="none" />
<path d="M55.82608695652175,596.7608695652174 L29.913043478260875,596.7608695652174" stroke="red" stroke-width="1" fill="none" />
<path d="M29.913043478260875,596.7608695652174 L4.0,570.8478260869565" stroke="red" stroke-width="1" fill="none" />
<path d="M4.0,570.8478260869565 L4.0,519.0217391304348" stroke="red" stroke-width="1" fill="none" />
<path d="M4.0,519.0217391304348 L29.913043478260875,493.1086956521739" stroke="red" stroke-width="1" fill="none" />
<path d="M29.913043478260875,493.1086956521739 L55.82608695652175,493.1086956521739" stroke="red" stroke-width="1" fill="none" />
<path d="M55.82608695652175,493.1086956521739 L81.73913043478262,519.0217391304348" stroke="red" stroke-width="1" fill="none" />
<path d="M81.73913043478262,519.0217391304348 L94.695652173913,519.0217391304348" stroke="red" stroke-width="1" fill="none" />
<path d="M1105.304347826087,519.0217391304348 L1118.2608695652175,519.0217391304348" stroke="red" stroke-width="1" fill="none" />
<path d="M1118.2608695652175,519.0217391304348 L1144.1739130434783,493.1086956521739" stroke="red" stroke-width="1" fill="none" />
<path d="M1144.1739130434783,493.1086956521739 L1170.086956521739,493.1086956521739" stroke="red" stroke-width="1" fill="none" />
<path d="M1170.086956521739,493.1086956521739 L1196.0,519.0217391304348" stroke="red" stroke-width="1" fill="none" />
<path d="M1196.0,519.0217391304348 L1196.0,567.6086956521739" stroke="red" stroke-width="1" fill="none" />
<path d="M1196.0,567.6086956521739 L1170.086956521739,596.7608695652174" stroke="red" stroke-width="1" fill="none" />
<path d="M1170.086956521739,596.7608695652174 L1144.1739130434783,596.7608695652174" stroke="red" stroke-width="1" fill="none" />
<path d="M1144.1739130434783,596.7608695652174 L1118.2608695652175,570.8478260869565" stroke="red" stroke-width="1" fill="none" />
<path d="M1118.2608695652175,570.8478260869565 L1105.304347826087,570.8478260869565" stroke="red" stroke-width="1" fill="none" />
<path d="M483.3913043478261,985.4565217391305 L483.3913043478261,933.6304347826087" stroke="red" stroke-width="1" fill="none" />
<path d="M664.7826086956521,933.6304347826087 L664.7826086956521,985.4565217391305" stroke="red" stroke-width="1" fill="none" />
<path d="M483.3913043478261,933.6304347826087 L496.3478260869565,933.6304347826087" stroke="red" stroke-width="1" fill="none" />
<path d="M496.3478260869565,985.4565217391305 L483.3913043478261,985.4565217391305" stroke="red" stroke-width="1" fill="none" />
<path d="M651.8260869565217,933.6304347826087 L664.7826086956521,933.6304347826087" stroke="red" stroke-width="1" fill="none" />
<path d="M664.7826086956521,985.4565217391305 L651.8260869565217,985.4565217391305" stroke="red" stroke-width="1" fill="none" />
<path d="M289.04347826086956,570.8478260869565 L256.65217391304344,570.8478260869565" stroke="red" stroke-width="1" fill="none" />
<path d="M243.695652173913,570.8478260869565 L211.30434782608694,570.8478260869565" stroke="red" stroke-width="1" fill="none" />
<path d="M256.65217391304344,570.8478260869565 L256.65217391304344,577.3260869565217" stroke="red" stroke-width="1" fill="none" />
<path d="M256.65217391304344,577.3260869565217 L243.695652173913,577.3260869565217" stroke="red" stroke-width="1" fill="none" />
<path d="M243.695652173913,577.3260869565217 L243.695652173913,570.8478260869565" stroke="red" stroke-width="1" fill="none" />
<path d="M988.695652173913,674.5 L956.304347826087,674.5" stroke="red" stroke-width="1" fill="none" />
<path d="M943.3478260869565,674.5 L920.6739130434783,674.5" stroke="red" stroke-width="1" fill="none" />
<path d="M956.304347826087,674.5 L956.304347826087,680.9782608695652" stroke="red" stroke-width="1" fill="none" />
<path d="M956.304347826087,680.9782608695652 L943.3478260869565,680.9782608695652" stroke="red" stroke-width="1" fill="none" />
<path d="M943.3478260869565,680.9782608695652 L943.3478260869565,674.5" stroke="red" stroke-width="1" fill="none" />
<path d="M755.4782608695652,104.41304347826082 L723.0869565217391,104.41304347826082" stroke="red" stroke-width="1" fill="none" />
<path d="M710.1304347826087,104.41304347826082 L677.7391304347826,104.41304347826082" stroke="red" stroke-width="1" fill="none" />
<path d="M723.0869565217391,104.41304347826082 L723.0869565217391,110.89130434782606" stroke="red" stroke-width="1" fill="none" />
<path d="M723.0869565217391,110.89130434782606 L710.1304347826087,110.89130434782606" stroke="red" stroke-width="1" fill="none" />
<path d="M710.1304347826087,110.89130434782606 L710.1304347826087,104.41304347826082" stroke="red" stroke-width="1" fill="none" />
</svg>