<?xml version="1.0" encoding="UTF-8"?>
<svg xmlns="http://www.w3.org/2000/svg" xmlns:xlink="http://www.w3.org/1999/xlink"
     width="1200" height="611" viewBox="0 0 1200 611">
<defs>
</defs>
<path d="M324.37944664031625,267.8418972332016 L343.2252964426878,267.8418972332016" stroke="yellow" stroke-width="2" fill="none" />
<path d="M380.91699604743087,267.8418972332016 L399.76284584980243,267.8418972332016" stroke="yellow" stroke-width="2" fill="none" />
<path d="M399.76284584980243,267.8418972332016 L399.76284584980243,286.6877470355732" stroke="yellow" stroke-width="2" fill="none" />
<path d="M399.76284584980243,324.37944664031625 L399.76284584980243,343.2252964426878" stroke="yellow" stroke-width="2" fill="none" />
<path d="M399.76284584980243,343.2252964426878 L380.91699604743087,343.2252964426878" stroke="yellow" stroke-width="2" fill="none" />
<path d="M343.2252964426878,343.2252964426878 L324.37944664031625,343.2252964426878" stroke="yellow" stroke-width="2" fill="none" />
<path d="M324.37944664031625,343.2252964426878 L324.37944664031625,324.37944664031625" stroke="yellow" stroke-width="2" fill="none" />
<path d="M324.37944664031625,286.6877470355732 L324.37944664031625,267.8418972332016" stroke="yellow" stroke-width="2" fill="none" />
<path d="M343.2252964426878,296.11067193675893 L362.07114624505937,286.6877470355732" stroke="yellow" stroke-width="2" fill="none" />
<path d="M362.07114624505937,286.6877470355732 L380.91699604743087,296.11067193675893" stroke="yellow" stroke-width="2" fill="none" />
<path d="M380.91699604743087,296.11067193675893 L380.91699604743087,314.9565217391305" stroke="yellow" stroke-width="2" fill="none" />
<path d="M380.91699604743087,314.9565217391305 L362.07114624505937,324.37944664031625" stroke="yellow" stroke-width="2" fill="none" />
<path d="M362.07114624505937,324.37944664031625 L343.2252964426878,314.9565217391305" stroke="yellow" stroke-width="2" fill="none" />
<path d="M343.2252964426878,314.9565217391305 L343.2252964426878,296.11067193675893" stroke="yellow" stroke-width="2" fill="none" />
<path d="M343.2252964426878,267.8418972332016 L380.91699604743087,267.8418972332016" stroke="yellow" stroke-width="2" fill="none" />
<path d="M343.2252964426878,267.8418972332016 L343.2252964426878,258.41897233201587" stroke="yellow" stroke-width="2" fill="none" />
<path d="M343.2252964426878,258.41897233201587 L380.91699604743087,258.41897233201587" stroke="yellow" stroke-width="2" fill="none" />
<path d="M380.91699604743087,258.41897233201587 L380.91699604743087,267.8418972332016" stroke="yellow" stroke-width="2" fill="none" />
<path d="M343.2252964426878,258.41897233201587 L343.2252964426878,248.9960474308301" stroke="yellow" stroke-width="2" fill="none" />
<path d="M343.2252964426878,248.9960474308301 L380.91699604743087,248.9960474308301" stroke="yellow" stroke-width="2" fill="none" />
<path d="M380.91699604743087,248.9960474308301 L380.91699604743087,258.41897233201587" stroke="yellow" stroke-width="2" fill="none" />
<path d="M399.76284584980243,286.6877470355732 L399.76284584980243,324.37944664031625" stroke="yellow" stroke-width="2" fill="none" />
<path d="M399.76284584980243,286.6877470355732 L409.1857707509882,286.6877470355732" stroke="yellow" stroke-width="2" fill="none" />
<path d="M409.1857707509882,286.6877470355732 L409.1857707509882,324.37944664031625" stroke="yellow" stroke-width="2" fill="none" />
<path d="M409.1857707509882,324.37944664031625 L399.76284584980243,324.37944664031625" stroke="yellow" stroke-width="2" fill="none" />
<path d="M409.1857707509882,286.6877470355732 L418.608695652174,286.6877470355732" stroke="yellow" stroke-width="2" fill="none" />
<path d="M418.608695652174,286.6877470355732 L418.608695652174,324.37944664031625" stroke="yellow" stroke-width="2" fill="none" />
<path d="M418.608695652174,324.37944664031625 L409.1857707509882,324.37944664031625" stroke="yellow" stroke-width="2" fill="none" />
<path d="M380.91699604743087,343.2252964426878 L343.2252964426878,343.2252964426878" stroke="yellow" stroke-width="2" fill="none" />
<path d="M380.91699604743087,343.2252964426878 L380.91699604743087,352.64822134387356" stroke="yellow" stroke-width="2" fill="none" />
<path d="M380.91699604743087,352.64822134387356 L343.2252964426878,352.64822134387356" stroke="yellow" stroke-width="2" fill="none" />
<path d="M343.2252964426878,352.64822134387356 L343.2252964426878,343.2252964426878" stroke="yellow" stroke-width="2" fill="none" />
<path d="M380.91699604743087,352.64822134387356 L380.91699604743087,362.07114624505937" stroke="yellow" stroke-width="2" fill="none" />
<path d="M380.91699604743087,362.07114624505937 L343.2252964426878,362.07114624505937" stroke="yellow" stroke-width="2" fill="none" />
<path d="M343.2252964426878,362.07114624505937 L343.2252964426878,352.64822134387356" stroke="yellow" stroke-width="2" fill="none" />
<path d="M324.37944664031625,324.37944664031625 L324.37944664031625,286.6877470355732" stroke="yellow" stroke-width="2" fill="none" />
<path d="M324.37944664031625,324.37944664031625 L314.9565217391305,324.37944664031625" stroke="yellow" stroke-width="2" fill="none" />
<path d="M314.9565217391305,324.37944664031625 L314.9565217391305,286.6877470355732" stroke="yellow" stroke-width="2" fill="none" />
<path d="M314.9565217391305,286.6877470355732 L324.37944664031625,286.6877470355732" stroke="yellow" stroke-width="2" fill="none" />
<path d="M314.9565217391305,324.37944664031625 L305.53359683794474,324.37944664031625" stroke="yellow" stroke-width="2" fill="none" />
<path d="M305.53359683794474,324.37944664031625 L305.53359683794474,286.6877470355732" stroke="yellow" stroke-width="2" fill="none" />
<path d="M305.53359683794474,286.6877470355732 L314.9565217391305,286.6877470355732" stroke="yellow" stroke-width="2" fill="none" />
<path d="M588.2213438735179,248.9960474308301 L588.2213438735179,362.07114624505937" stroke="yellow" stroke-width="2" fill="none" />
<path d="M343.2252964426878,399.76284584980243 L343.2252964426878,362.07114624505937" stroke="yellow" stroke-width="2" fill="none" />
<path d="M324.37944664031625,399.76284584980243 L343.2252964426878,399.76284584980243" stroke="yellow" stroke-width="2" fill="none" />
<path d="M324.37944664031625,418.608695652174 L324.37944664031625,399.76284584980243" stroke="yellow" stroke-width="2" fill="none" />
<path d="M230.15019762845856,418.608695652174 L324.37944664031625,418.608695652174" stroke="yellow" stroke-width="2" fill="none" />
<path d="M324.37944664031625,437.4545454545455 L230.15019762845856,437.4545454545455" stroke="yellow" stroke-width="2" fill="none" />
<path d="M343.2252964426878,493.9920948616601 L324.37944664031625,437.4545454545455" stroke="yellow" stroke-width="2" fill="none" />
<path d="M380.91699604743087,493.9920948616601 L343.2252964426878,493.9920948616601" stroke="yellow" stroke-width="2" fill="none" />
<path d="M399.76284584980243,437.4545454545455 L380.91699604743087,493.9920948616601" stroke="yellow" stroke-width="2" fill="none" />
<path d="M493.9920948616601,437.4545454545455 L399.76284584980243,437.4545454545455" stroke="yellow" stroke-width="2" fill="none" />
<path d="M399.76284584980243,418.608695652174 L493.9920948616601,418.608695652174" stroke="yellow" stroke-width="2" fill="none" />
<path d="M399.76284584980243,399.76284584980243 L399.76284584980243,418.608695652174" stroke="yellow" stroke-width="2" fill="none" />
<path d="M380.91699604743087,399.76284584980243 L399.76284584980243,399.76284584980243" stroke="yellow" stroke-width="2" fill="none" />
<path d="M380.91699604743087,362.07114624505937 L380.91699604743087,399.76284584980243" stroke="yellow" stroke-width="2" fill="none" />
<path d="M493.9920948616601,437.4545454545455 L493.9920948616601,418.608695652174" stroke="yellow" stroke-width="2" fill="none" />
<path d="M192.45849802371544,399.76284584980243 L211.304347826087,399.76284584980243" stroke="yellow" stroke-width="2" fill="none" />
<path d="M173.61264822134393,399.76284584980243 L192.45849802371544,399.76284584980243" stroke="yellow" stroke-width="2" fill="none" />
<path d="M230.15019762845856,418.608695652174 L230.15019762845856,437.4545454545455" stroke="yellow" stroke-width="2" fill="none" />
<path d="M512.8379446640317,399.76284584980243 L531.6837944664032,399.76284584980243" stroke="yellow" stroke-width="2" fill="none" />
<path d="M192.45849802371544,399.76284584980243 L192.45849802371544,343.2252964426878" stroke="yellow" stroke-width="2" fill="none" />
<path d="M211.304347826087,343.2252964426878 L211.304347826087,399.76284584980243" stroke="yellow" stroke-width="2" fill="none" />
<path d="M512.8379446640317,399.76284584980243 L512.8379446640317,343.2252964426878" stroke="yellow" stroke-width="2" fill="none" />
<path d="M531.6837944664032,343.2252964426878 L531.6837944664032,399.76284584980243" stroke="yellow" stroke-width="2" fill="none" />
<path d="M239.5731225296443,324.37944664031625 L239.5731225296443,343.2252964426878" stroke="yellow" stroke-width="2" fill="none" />
<path d="M239.5731225296443,343.2252964426878 L211.304347826087,343.2252964426878" stroke="yellow" stroke-width="2" fill="none" />
<path d="M211.304347826087,343.2252964426878 L192.45849802371544,343.2252964426878" stroke="yellow" stroke-width="2" fill="none" />
<path d="M192.45849802371544,343.2252964426878 L164.18972332015812,343.2252964426878" stroke="yellow" stroke-width="2" fill="none" />
<path d="M164.18972332015812,343.2252964426878 L164.18972332015812,267.8418972332016" stroke="yellow" stroke-width="2" fill="none" />
<path d="M559.9525691699605,343.2252964426878 L531.6837944664032,343.2252964426878" stroke="yellow" stroke-width="2" fill="none" />
<path d="M531.6837944664032,343.2252964426878 L512.8379446640317,343.2252964426878" stroke="yellow" stroke-width="2" fill="none" />
<path d="M512.8379446640317,343.2252964426878 L484.56916996047437,343.2252964426878" stroke="yellow" stroke-width="2" fill="none" />
<path d="M484.56916996047437,343.2252964426878 L484.56916996047437,324.37944664031625" stroke="yellow" stroke-width="2" fill="none" />
<path d="M484.56916996047437,267.8418972332016 L512.8379446640317,267.8418972332016" stroke="yellow" stroke-width="2" fill="none" />
<path d="M512.8379446640317,267.8418972332016 L531.6837944664032,267.8418972332016" stroke="yellow" stroke-width="2" fill="none" />
<path d="M531.6837944664032,267.8418972332016 L559.9525691699605,267.8418972332016" stroke="yellow" stroke-width="2" fill="none" />
<path d="M559.9525691699605,267.8418972332016 L559.9525691699605,343.2252964426878" stroke="yellow" stroke-width="2" fill="none" />
<path d="M484.56916996047437,324.37944664031625 L484.56916996047437,286.6877470355732" stroke="yellow" stroke-width="2" fill="none" />
<path d="M484.56916996047437,286.6877470355732 L484.56916996047437,267.8418972332016" stroke="yellow" stroke-width="2" fill="none" />
<path d="M164.18972332015812,267.8418972332016 L192.45849802371544,267.8418972332016" stroke="yellow" stroke-width="2" fill="none" />
<path d="M192.45849802371544,267.8418972332016 L211.304347826087,267.8418972332016" stroke="yellow" stroke-width="2" fill="none" />
<path d="M211.304347826087,267.8418972332016 L239.5731225296443,267.8418972332016" stroke="yellow" stroke-width="2" fill="none" />
<path d="M239.5731225296443,267.8418972332016 L239.5731225296443,286.6877470355732" stroke="yellow" stroke-width="2" fill="none" />
<path d="M239.5731225296443,286.6877470355732 L239.5731225296443,324.37944664031625" stroke="yellow" stroke-width="2" fill="none" />
<path d="M192.45849802371544,267.8418972332016 L192.45849802371544,211.304347826087" stroke="yellow" stroke-width="2" fill="none" />
<path d="M211.304347826087,211.304347826087 L211.304347826087,267.8418972332016" stroke="yellow" stroke-width="2" fill="none" />
<path d="M512.8379446640317,267.8418972332016 L512.8379446640317,211.304347826087" stroke="yellow" stroke-width="2" fill="none" />
<path d="M531.6837944664032,211.304347826087 L531.6837944664032,267.8418972332016" stroke="yellow" stroke-width="2" fill="none" />
<path d="M343.2252964426878,248.9960474308301 L343.2252964426878,211.304347826087" stroke="yellow" stroke-width="2" fill="none" />
<path d="M380.91699604743087,211.304347826087 L380.91699604743087,248.9960474308301" stroke="yellow" stroke-width="2" fill="none" />
<path d="M239.5731225296443,286.6877470355732 L305.53359683794474,286.6877470355732" stroke="yellow" stroke-width="2" fill="none" />
<path d="M305.53359683794474,324.37944664031625 L239.5731225296443,324.37944664031625" stroke="yellow" stroke-width="2" fill="none" />
<path d="M418.608695652174,286.6877470355732 L484.56916996047437,286.6877470355732" stroke="yellow" stroke-width="2" fill="none" />
<path d="M484.56916996047437,324.37944664031625 L418.608695652174,324.37944664031625" stroke="yellow" stroke-width="2" fill="none" />
<path d="M211.304347826087,211.304347826087 L192.45849802371544,211.304347826087" stroke="yellow" stroke-width="2" fill="none" />
<path d="M230.15019762845856,173.6126482213439 L230.15019762845856,192.45849802371544" stroke="yellow" stroke-width="2" fill="none" />
<path d="M531.6837944664032,211.304347826087 L512.8379446640317,211.304347826087" stroke="yellow" stroke-width="2" fill="none" />
<path d="M493.9920948616601,192.45849802371544 L493.9920948616601,173.6126482213439" stroke="yellow" stroke-width="2" fill="none" />
<path d="M343.2252964426878,211.304347826087 L324.37944664031625,211.304347826087" stroke="yellow" stroke-width="2" fill="none" />
<path d="M324.37944664031625,211.304347826087 L324.37944664031625,192.45849802371544" stroke="yellow" stroke-width="2" fill="none" />
<path d="M399.76284584980243,192.45849802371544 L399.76284584980243,211.304347826087" stroke="yellow" stroke-width="2" fill="none" />
<path d="M399.76284584980243,211.304347826087 L380.91699604743087,211.304347826087" stroke="yellow" stroke-width="2" fill="none" />
<path d="M230.15019762845856,173.6126482213439 L324.37944664031625,173.6126482213439" stroke="yellow" stroke-width="2" fill="none" />
<path d="M324.37944664031625,192.45849802371544 L230.15019762845856,192.45849802371544" stroke="yellow" stroke-width="2" fill="none" />
<path d="M493.9920948616601,192.45849802371544 L399.76284584980243,192.45849802371544" stroke="yellow" stroke-width="2" fill="none" />
<path d="M399.76284584980243,173.6126482213439 L493.9920948616601,173.6126482213439" stroke="yellow" stroke-width="2" fill="none" />
<path d="M324.37944664031625,173.6126482213439 L343.2252964426878,117.07509881422928" stroke="yellow" stroke-width="2" fill="none" />
<path d="M343.2252964426878,117.07509881422928 L380.91699604743087,117.07509881422928" stroke="yellow" stroke-width="2" fill="none" />
<path d="M380.91699604743087,117.07509881422928 L399.76284584980243,173.6126482213439" stroke="yellow" stroke-width="2" fill="none" />
<path d="M597.6442687747036,362.07114624505937 L597.6442687747036,248.9960474308301" stroke="yellow" stroke-width="2" fill="none" />
<path d="M644.7588932806325,22.84584980237156 L644.7588932806325,60.53754940711465" stroke="yellow" stroke-width="2" fill="none" />
<path d="M644.7588932806325,550.5296442687747 L644.7588932806325,588.2213438735179" stroke="yellow" stroke-width="2" fill="none" />
<path d="M343.2252964426878,22.84584980237156 L343.2252964426878,60.53754940711465" stroke="yellow" stroke-width="2" fill="none" />
<path d="M362.07114624505937,22.84584980237156 L362.07114624505937,60.53754940711465" stroke="yellow" stroke-width="2" fill="none" />
<path d="M380.91699604743087,22.84584980237156 L380.91699604743087,60.53754940711465" stroke="yellow" stroke-width="2" fill="none" />
<path d="M399.76284584980243,22.84584980237156 L399.76284584980243,60.53754940711465" stroke="yellow" stroke-width="2" fill="none" />
<path d="M418.608695652174,22.84584980237156 L418.608695652174,60.53754940711465" stroke="yellow" stroke-width="2" fill="none" />
<path d="M437.4545454545455,22.84584980237156 L437.4545454545455,60.53754940711465" stroke="yellow" stroke-width="2" fill="none" />
<path d="M456.30039525691706,22.84584980237156 L456.30039525691706,60.53754940711465" stroke="yellow" stroke-width="2" fill="none" />
<path d="M475.1462450592886,22.84584980237156 L475.1462450592886,60.53754940711465" stroke="yellow" stroke-width="2" fill="none" />
<path d="M493.9920948616601,22.84584980237156 L493.9920948616601,60.53754940711465" stroke="yellow" stroke-width="2" fill="none" />
<path d="M512.8379446640317,22.84584980237156 L512.8379446640317,60.53754940711465" stroke="yellow" stroke-width="2" fill="none" />
<path d="M531.6837944664032,22.84584980237156 L531.6837944664032,60.53754940711465" stroke="yellow" stroke-width="2" fill="none" />
<path d="M550.5296442687747,22.84584980237156 L550.5296442687747,60.53754940711465" stroke="yellow" stroke-width="2" fill="none" />
<path d="M569.3754940711462,22.84584980237156 L569.3754940711462,60.53754940711465" stroke="yellow" stroke-width="2" fill="none" />
<path d="M588.2213438735179,22.84584980237156 L588.2213438735179,60.53754940711465" stroke="yellow" stroke-width="2" fill="none" />
<path d="M607.0671936758894,22.84584980237156 L607.0671936758894,60.53754940711465" stroke="yellow" stroke-width="2" fill="none" />
<path d="M625.913043478261,22.84584980237156 L625.913043478261,60.53754940711465" stroke="yellow" stroke-width="2" fill="none" />
<path d="M625.913043478261,550.5296442687747 L625.913043478261,588.2213438735179" stroke="yellow" stroke-width="2" fill="none" />
<path d="M230.15019762845856,79.38339920948619 L230.15019762845856,22.84584980237156" stroke="yellow" stroke-width="2" fill="none" />
<path d="M343.2252964426878,79.38339920948619 L305.53359683794474,98.22924901185775" stroke="yellow" stroke-width="2" fill="none" />
<path d="M343.2252964426878,550.5296442687747 L343.2252964426878,588.2213438735179" stroke="yellow" stroke-width="2" fill="none" />
<path d="M362.07114624505937,550.5296442687747 L362.07114624505937,588.2213438735179" stroke="yellow" stroke-width="2" fill="none" />
<path d="M380.91699604743087,550.5296442687747 L380.91699604743087,588.2213438735179" stroke="yellow" stroke-width="2" fill="none" />
<path d="M399.76284584980243,550.5296442687747 L399.76284584980243,588.2213438735179" stroke="yellow" stroke-width="2" fill="none" />
<path d="M418.608695652174,550.5296442687747 L418.608695652174,588.2213438735179" stroke="yellow" stroke-width="2" fill="none" />
<path d="M437.4545454545455,550.5296442687747 L437.4545454545455,588.2213438735179" stroke="yellow" stroke-width="2" fill="none" />
<path d="M456.30039525691706,550.5296442687747 L456.30039525691706,588.2213438735179" stroke="yellow" stroke-width="2" fill="none" />
<path d="M475.1462450592886,550.5296442687747 L475.1462450592886,588.2213438735179" stroke="yellow" stroke-width="2" fill="none" />
<path d="M493.9920948616601,550.5296442687747 L493.9920948616601,588.2213438735179" stroke="yellow" stroke-width="2" fill="none" />
<path d="M512.8379446640317,550.5296442687747 L512.8379446640317,588.2213438735179" stroke="yellow" stroke-width="2" fill="none" />
<path d="M531.6837944664032,550.5296442687747 L531.6837944664032,588.2213438735179" stroke="yellow" stroke-width="2" fill="none" />
<path d="M550.5296442687747,550.5296442687747 L550.5296442687747,588.2213438735179" stroke="yellow" stroke-width="2" fill="none" />
<path d="M569.3754940711462,550.5296442687747 L569.3754940711462,588.2213438735179" stroke="yellow" stroke-width="2" fill="none" />
<path d="M588.2213438735179,550.5296442687747 L588.2213438735179,588.2213438735179" stroke="yellow" stroke-width="2" fill="none" />
<path d="M607.0671936758894,550.5296442687747 L607.0671936758894,588.2213438735179" stroke="yellow" stroke-width="2" fill="none" />
<path d="M305.53359683794474,512.8379446640317 L343.2252964426878,531.6837944664032" stroke="yellow" stroke-width="2" fill="none" />
<path d="M644.7588932806325,248.9960474308301 L644.7588932806325,211.304347826087" stroke="yellow" stroke-width="2" fill="none" />
<path d="M644.7588932806325,399.76284584980243 L644.7588932806325,362.07114624505937" stroke="yellow" stroke-width="2" fill="none" />
<path d="M359.7154150197629,310.2450592885376 L364.42687747035575,310.2450592885376" stroke="yellow" stroke-width="2" fill="none" />
<path d="M364.42687747035575,310.2450592885376 L364.42687747035575,300.8221343873518" stroke="yellow" stroke-width="2" fill="none" />
<path d="M364.42687747035575,300.8221343873518 L359.7154150197629,300.8221343873518" stroke="yellow" stroke-width="2" fill="none" />
<path d="M359.7154150197629,300.8221343873518 L359.7154150197629,310.2450592885376" stroke="yellow" stroke-width="2" fill="none" />
<path d="M199.5256916996048,187.74703557312256 L204.23715415019768,187.74703557312256" stroke="yellow" stroke-width="2" fill="none" />
<path d="M204.23715415019768,187.74703557312256 L204.23715415019768,178.3241106719368" stroke="yellow" stroke-width="2" fill="none" />
<path d="M204.23715415019768,178.3241106719368 L199.5256916996048,178.3241106719368" stroke="yellow" stroke-width="2" fill="none" />
<path d="M199.5256916996048,178.3241106719368 L199.5256916996048,187.74703557312256" stroke="yellow" stroke-width="2" fill="none" />
<path d="M199.5256916996048,310.2450592885376 L204.23715415019768,310.2450592885376" stroke="yellow" stroke-width="2" fill="none" />
<path d="M204.23715415019768,310.2450592885376 L204.23715415019768,300.8221343873518" stroke="yellow" stroke-width="2" fill="none" />
<path d="M204.23715415019768,300.8221343873518 L199.5256916996048,300.8221343873518" stroke="yellow" stroke-width="2" fill="none" />
<path d="M199.5256916996048,300.8221343873518 L199.5256916996048,310.2450592885376" stroke="yellow" stroke-width="2" fill="none" />
<path d="M199.5256916996048,432.7430830039526 L204.23715415019768,432.7430830039526" stroke="yellow" stroke-width="2" fill="none" />
<path d="M204.23715415019768,432.7430830039526 L204.23715415019768,423.32015810276687" stroke="yellow" stroke-width="2" fill="none" />
<path d="M204.23715415019768,423.32015810276687 L199.5256916996048,423.32015810276687" stroke="yellow" stroke-width="2" fill="none" />
<path d="M199.5256916996048,423.32015810276687 L199.5256916996048,432.7430830039526" stroke="yellow" stroke-width="2" fill="none" />
<path d="M519.905138339921,187.74703557312256 L524.6166007905139,187.74703557312256" stroke="yellow" stroke-width="2" fill="none" />
<path d="M519.905138339921,178.3241106719368 L519.905138339921,187.74703557312256" stroke="yellow" stroke-width="2" fill="none" />
<path d="M524.6166007905139,178.3241106719368 L519.905138339921,178.3241106719368" stroke="yellow" stroke-width="2" fill="none" />
<path d="M524.6166007905139,187.74703557312256 L524.6166007905139,178.3241106719368" stroke="yellow" stroke-width="2" fill="none" />
<path d="M519.905138339921,310.2450592885376 L524.6166007905139,310.2450592885376" stroke="yellow" stroke-width="2" fill="none" />
<path d="M519.905138339921,300.8221343873518 L519.905138339921,310.2450592885376" stroke="yellow" stroke-width="2" fill="none" />
<path d="M524.6166007905139,300.8221343873518 L519.905138339921,300.8221343873518" stroke="yellow" stroke-width="2" fill="none" />
<path d="M524.6166007905139,310.2450592885376 L524.6166007905139,300.8221343873518" stroke="yellow" stroke-width="2" fill="none" />
<path d="M519.905138339921,432.7430830039526 L524.6166007905139,432.7430830039526" stroke="yellow" stroke-width="2" fill="none" />
<path d="M519.905138339921,423.32015810276687 L519.905138339921,432.7430830039526" stroke="yellow" stroke-width="2" fill="none" />
<path d="M524.6166007905139,423.32015810276687 L519.905138339921,423.32015810276687" stroke="yellow" stroke-width="2" fill="none" />
<path d="M524.6166007905139,432.7430830039526 L524.6166007905139,423.32015810276687" stroke="yellow" stroke-width="2" fill="none" />
<path d="M357.3596837944665,171.25691699604747 L357.3596837944665,175.96837944664037" stroke="yellow" stroke-width="2" fill="none" />
<path d="M357.3596837944665,175.96837944664037 L366.78260869565224,175.96837944664037" stroke="yellow" stroke-width="2" fill="none" />
<path d="M366.78260869565224,175.96837944664037 L366.78260869565224,171.25691699604747" stroke="yellow" stroke-width="2" fill="none" />
<path d="M366.78260869565224,171.25691699604747 L357.3596837944665,171.25691699604747" stroke="yellow" stroke-width="2" fill="none" />
<path d="M357.3596837944665,435.09881422924906 L357.3596837944665,439.810276679842" stroke="yellow" stroke-width="2" fill="none" />
<path d="M366.78260869565224,435.09881422924906 L357.3596837944665,435.09881422924906" stroke="yellow" stroke-width="2" fill="none" />
<path d="M366.78260869565224,439.810276679842 L366.78260869565224,435.09881422924906" stroke="yellow" stroke-width="2" fill="none" />
<path d="M357.3596837944665,439.810276679842 L366.78260869565224,439.810276679842" stroke="yellow" stroke-width="2" fill="none" />
<path d="M720.1422924901186,324.37944664031625 L720.1422924901186,286.6877470355732" stroke="yellow" stroke-width="2" fill="none" />
<path d="M701.2964426877471,286.6877470355732 L701.2964426877471,324.37944664031625" stroke="yellow" stroke-width="2" fill="none" />
<path d="M135.9209486166008,380.91699604743087 L98.22924901185775,305.5335968379447" stroke="yellow" stroke-width="2" fill="none" />
<path d="M98.22924901185775,305.5335968379447 L135.9209486166008,230.15019762845853" stroke="yellow" stroke-width="2" fill="none" />
<path d="M79.38339920948619,305.5335968379447 L117.0750988142293,380.91699604743087" stroke="yellow" stroke-width="2" fill="none" />
<path d="M117.0750988142293,230.15019762845853 L79.38339920948619,305.5335968379447" stroke="yellow" stroke-width="2" fill="none" />
<path d="M126.49802371541506,230.15019762845853 L88.806324110672,305.5335968379447" stroke="yellow" stroke-width="2" fill="none" />
<path d="M88.806324110672,305.5335968379447 L126.49802371541506,380.91699604743087" stroke="yellow" stroke-width="2" fill="none" />
<path d="M173.61264822134393,79.38339920948619 L173.61264822134393,22.84584980237156" stroke="lavender" stroke-width="2" fill="none" />
<path d="M173.61264822134393,588.2213438735179 L173.61264822134393,531.6837944664032" stroke="lavender" stroke-width="2" fill="none" />
<path d="M230.15019762845856,588.2213438735179 L230.15019762845856,531.6837944664032" stroke="yellow" stroke-width="2" fill="none" />
<path d="M757.8339920948617,399.76284584980243 L757.8339920948617,437.4545454545455" stroke="yellow" stroke-width="2" fill="none" />
<path d="M757.8339920948617,173.6126482213439 L757.8339920948617,211.304347826087" stroke="yellow" stroke-width="2" fill="none" />
<path d="M795.5256916996047,267.8418972332016 L814.3715415019764,305.5335968379447" stroke="yellow" stroke-width="2" fill="none" />
<path d="M814.3715415019764,305.5335968379447 L795.5256916996047,343.2252964426878" stroke="yellow" stroke-width="2" fill="none" />
<path d="M39.33596837944668,248.9960474308301 L79.38339920948619,305.5335968379447" stroke="yellow" stroke-width="2" fill="none" />
<path d="M79.38339920948619,305.5335968379447 L39.33596837944668,362.07114624505937" stroke="yellow" stroke-width="2" fill="none" />
<path d="M720.1422924901186,117.07509881422928 L757.8339920948617,98.22924901185775" stroke="yellow" stroke-width="2" fill="none" />
<path d="M720.1422924901186,493.9920948616601 L757.8339920948617,512.8379446640317" stroke="yellow" stroke-width="2" fill="none" />
<path d="M1125.3280632411067,298.46640316205537 L1134.7509881422925,293.7549407114625" stroke="yellow" stroke-width="2" fill="none" />
<path d="M1134.7509881422925,293.7549407114625 L1146.5296442687747,298.46640316205537" stroke="yellow" stroke-width="2" fill="none" />
<path d="M1146.5296442687747,298.46640316205537 L1146.5296442687747,312.60079051383406" stroke="yellow" stroke-width="2" fill="none" />
<path d="M1146.5296442687747,312.60079051383406 L1134.7509881422925,317.31225296442693" stroke="yellow" stroke-width="2" fill="none" />
<path d="M1134.7509881422925,317.31225296442693 L1125.3280632411067,312.60079051383406" stroke="yellow" stroke-width="2" fill="none" />
<path d="M1115.905138339921,317.31225296442693 L1134.7509881422925,324.37944664031625" stroke="yellow" stroke-width="2" fill="none" />
<path d="M1134.7509881422925,324.37944664031625 L1153.5968379446642,317.31225296442693" stroke="yellow" stroke-width="2" fill="none" />
<path d="M1153.5968379446642,317.31225296442693 L1153.5968379446642,293.7549407114625" stroke="yellow" stroke-width="2" fill="none" />
<path d="M1153.5968379446642,293.7549407114625 L1134.7509881422925,286.6877470355732" stroke="yellow" stroke-width="2" fill="none" />
<path d="M1134.7509881422925,286.6877470355732 L1115.905138339921,293.7549407114625" stroke="yellow" stroke-width="2" fill="none" />
<path d="M1125.3280632411067,298.46640316205537 L1125.3280632411067,312.60079051383406" stroke="yellow" stroke-width="2" fill="none" />
<path d="M908.600790513834,267.8418972332016 L927.4466403162056,267.8418972332016" stroke="yellow" stroke-width="2" fill="none" />
<path d="M927.4466403162056,267.8418972332016 L927.4466403162056,248.9960474308301" stroke="yellow" stroke-width="2" fill="none" />
<path d="M927.4466403162056,248.9960474308301 L908.600790513834,248.9960474308301" stroke="yellow" stroke-width="2" fill="none" />
<path d="M908.600790513834,248.9960474308301 L908.600790513834,267.8418972332016" stroke="yellow" stroke-width="2" fill="none" />
<path d="M908.600790513834,362.07114624505937 L927.4466403162056,362.07114624505937" stroke="yellow" stroke-width="2" fill="none" />
<path d="M927.4466403162056,362.07114624505937 L927.4466403162056,343.2252964426878" stroke="yellow" stroke-width="2" fill="none" />
<path d="M927.4466403162056,343.2252964426878 L908.600790513834,343.2252964426878" stroke="yellow" stroke-width="2" fill="none" />
<path d="M908.600790513834,343.2252964426878 L908.600790513834,362.07114624505937" stroke="yellow" stroke-width="2" fill="none" />
<path d="M1002.8300395256917,362.07114624505937 L1021.6758893280634,362.07114624505937" stroke="yellow" stroke-width="2" fill="none" />
<path d="M1021.6758893280634,362.07114624505937 L1021.6758893280634,343.2252964426878" stroke="yellow" stroke-width="2" fill="none" />
<path d="M1021.6758893280634,343.2252964426878 L1002.8300395256917,343.2252964426878" stroke="yellow" stroke-width="2" fill="none" />
<path d="M1002.8300395256917,343.2252964426878 L1002.8300395256917,362.07114624505937" stroke="yellow" stroke-width="2" fill="none" />
<path d="M1002.8300395256917,267.8418972332016 L1021.6758893280634,267.8418972332016" stroke="yellow" stroke-width="2" fill="none" />
<path d="M1021.6758893280634,267.8418972332016 L1021.6758893280634,248.9960474308301" stroke="yellow" stroke-width="2" fill="none" />
<path d="M1021.6758893280634,248.9960474308301 L1002.8300395256917,248.9960474308301" stroke="yellow" stroke-width="2" fill="none" />
<path d="M1002.8300395256917,248.9960474308301 L1002.8300395256917,267.8418972332016" stroke="yellow" stroke-width="2" fill="none" />
<path d="M1125.3280632411067,312.60079051383406 L1120.616600790514,312.60079051383406" stroke="yellow" stroke-width="2" fill="none" />
<path d="M1120.616600790514,298.46640316205537 L1125.3280632411067,298.46640316205537" stroke="yellow" stroke-width="2" fill="none" />
<path d="M1120.616600790514,298.46640316205537 L1120.616600790514,312.60079051383406" stroke="yellow" stroke-width="2" fill="none" />
<path d="M870.909090909091,399.76284584980243 L870.909090909091,418.608695652174" stroke="yellow" stroke-width="2" fill="none" />
<path d="M870.909090909091,192.45849802371544 L870.909090909091,211.304347826087" stroke="yellow" stroke-width="2" fill="none" />
<path d="M833.217391304348,211.304347826087 L870.909090909091,192.45849802371544" stroke="yellow" stroke-width="2" fill="none" />
<path d="M833.217391304348,399.76284584980243 L833.217391304348,211.304347826087" stroke="yellow" stroke-width="2" fill="none" />
<path d="M870.909090909091,418.608695652174 L833.217391304348,399.76284584980243" stroke="yellow" stroke-width="2" fill="none" />
<path d="M880.3320158102767,399.76284584980243 L880.3320158102767,418.608695652174" stroke="yellow" stroke-width="2" fill="none" />
<path d="M880.3320158102767,192.45849802371544 L880.3320158102767,211.304347826087" stroke="yellow" stroke-width="2" fill="none" />
<path d="M856.7747035573124,286.6877470355732 L856.7747035573124,324.37944664031625" stroke="yellow" stroke-width="2" fill="none" />
<path d="M870.909090909091,324.37944664031625 L870.909090909091,286.6877470355732" stroke="lavender" stroke-width="2" fill="none" />
<path d="M1191.2885375494072,300.8221343873518 L1191.2885375494072,310.2450592885376" stroke="yellow" stroke-width="2" fill="none" />
<path d="M1115.905138339921,293.7549407114625 L1115.905138339921,298.46640316205537" stroke="yellow" stroke-width="2" fill="none" />
<path d="M1115.905138339921,298.46640316205537 L1120.616600790514,298.46640316205537" stroke="yellow" stroke-width="2" fill="none" />
<path d="M1120.616600790514,312.60079051383406 L1115.905138339921,312.60079051383406" stroke="yellow" stroke-width="2" fill="none" />
<path d="M1115.905138339921,312.60079051383406 L1115.905138339921,317.31225296442693" stroke="yellow" stroke-width="2" fill="none" />
<path d="M658.8932806324111,314.9565217391305 L658.8932806324111,296.11067193675893" stroke="yellow" stroke-width="2" fill="none" />
<path d="M656.5375494071147,314.9565217391305 L656.5375494071147,296.11067193675893" stroke="lavender" stroke-width="2" fill="none" />
<path d="M493.9920948616601,173.6126482213439 L493.9920948616601,154.76679841897237" stroke="yellow" stroke-width="2" fill="none" />
<path d="M493.9920948616601,154.76679841897237 L550.5296442687747,154.76679841897237" stroke="yellow" stroke-width="2" fill="none" />
<path d="M550.5296442687747,154.76679841897237 L550.5296442687747,211.304347826087" stroke="yellow" stroke-width="2" fill="none" />
<path d="M550.5296442687747,211.304347826087 L531.6837944664032,211.304347826087" stroke="yellow" stroke-width="2" fill="none" />
<path d="M512.8379446640317,211.304347826087 L493.9920948616601,211.304347826087" stroke="yellow" stroke-width="2" fill="none" />
<path d="M493.9920948616601,211.304347826087 L493.9920948616601,192.45849802371544" stroke="yellow" stroke-width="2" fill="none" />
<path d="M493.9920948616601,418.608695652174 L493.9920948616601,399.76284584980243" stroke="yellow" stroke-width="2" fill="none" />
<path d="M493.9920948616601,399.76284584980243 L512.8379446640317,399.76284584980243" stroke="yellow" stroke-width="2" fill="none" />
<path d="M531.6837944664032,399.76284584980243 L550.5296442687747,399.76284584980243" stroke="yellow" stroke-width="2" fill="none" />
<path d="M550.5296442687747,399.76284584980243 L550.5296442687747,456.30039525691706" stroke="yellow" stroke-width="2" fill="none" />
<path d="M550.5296442687747,456.30039525691706 L493.9920948616601,456.30039525691706" stroke="yellow" stroke-width="2" fill="none" />
<path d="M493.9920948616601,456.30039525691706 L493.9920948616601,437.4545454545455" stroke="yellow" stroke-width="2" fill="none" />
<path d="M211.304347826087,399.76284584980243 L230.15019762845856,399.76284584980243" stroke="yellow" stroke-width="2" fill="none" />
<path d="M230.15019762845856,399.76284584980243 L230.15019762845856,418.608695652174" stroke="yellow" stroke-width="2" fill="none" />
<path d="M230.15019762845856,437.4545454545455 L230.15019762845856,456.30039525691706" stroke="yellow" stroke-width="2" fill="none" />
<path d="M230.15019762845856,456.30039525691706 L173.61264822134393,456.30039525691706" stroke="yellow" stroke-width="2" fill="none" />
<path d="M173.61264822134393,456.30039525691706 L173.61264822134393,399.76284584980243" stroke="yellow" stroke-width="2" fill="none" />
<path d="M192.45849802371544,211.304347826087 L173.61264822134393,211.304347826087" stroke="yellow" stroke-width="2" fill="none" />
<path d="M173.61264822134393,211.304347826087 L173.61264822134393,154.76679841897237" stroke="yellow" stroke-width="2" fill="none" />
<path d="M173.61264822134393,154.76679841897237 L230.15019762845856,154.76679841897237" stroke="yellow" stroke-width="2" fill="none" />
<path d="M230.15019762845856,154.76679841897237 L230.15019762845856,173.6126482213439" stroke="yellow" stroke-width="2" fill="none" />
<path d="M230.15019762845856,192.45849802371544 L230.15019762845856,211.304347826087" stroke="yellow" stroke-width="2" fill="none" />
<path d="M230.15019762845856,211.304347826087 L211.304347826087,211.304347826087" stroke="yellow" stroke-width="2" fill="none" />
<path d="M347.9367588932807,555.2411067193676 L347.9367588932807,583.509881422925" stroke="yellow" stroke-width="2" fill="none" />
<path d="M357.3596837944665,583.509881422925 L357.3596837944665,555.2411067193676" stroke="yellow" stroke-width="2" fill="none" />
<path d="M404.4743083003953,555.2411067193676 L404.4743083003953,583.509881422925" stroke="yellow" stroke-width="2" fill="none" />
<path d="M413.8972332015811,583.509881422925 L413.8972332015811,555.2411067193676" stroke="yellow" stroke-width="2" fill="none" />
<path d="M461.01185770750993,555.2411067193676 L461.01185770750993,583.509881422925" stroke="yellow" stroke-width="2" fill="none" />
<path d="M470.43478260869574,583.509881422925 L470.43478260869574,555.2411067193676" stroke="yellow" stroke-width="2" fill="none" />
<path d="M517.5494071146246,555.2411067193676 L517.5494071146246,583.509881422925" stroke="yellow" stroke-width="2" fill="none" />
<path d="M526.9723320158104,583.509881422925 L526.9723320158104,555.2411067193676" stroke="yellow" stroke-width="2" fill="none" />
<path d="M574.0869565217392,555.2411067193676 L574.0869565217392,583.509881422925" stroke="yellow" stroke-width="2" fill="none" />
<path d="M583.509881422925,583.509881422925 L583.509881422925,555.2411067193676" stroke="yellow" stroke-width="2" fill="none" />
<path d="M630.6245059288539,555.2411067193676 L630.6245059288539,583.509881422925" stroke="yellow" stroke-width="2" fill="none" />
<path d="M640.0474308300396,583.509881422925 L640.0474308300396,555.2411067193676" stroke="yellow" stroke-width="2" fill="none" />
<path d="M347.9367588932807,27.557312252964437 L347.9367588932807,55.82608695652178" stroke="yellow" stroke-width="2" fill="none" />
<path d="M357.3596837944665,55.82608695652178 L357.3596837944665,27.557312252964437" stroke="yellow" stroke-width="2" fill="none" />
<path d="M404.4743083003953,27.557312252964437 L404.4743083003953,55.82608695652178" stroke="yellow" stroke-width="2" fill="none" />
<path d="M413.8972332015811,55.82608695652178 L413.8972332015811,27.557312252964437" stroke="yellow" stroke-width="2" fill="none" />
<path d="M461.01185770750993,27.557312252964437 L461.01185770750993,55.82608695652178" stroke="yellow" stroke-width="2" fill="none" />
<path d="M470.43478260869574,55.82608695652178 L470.43478260869574,27.557312252964437" stroke="yellow" stroke-width="2" fill="none" />
<path d="M517.5494071146246,27.557312252964437 L517.5494071146246,55.82608695652178" stroke="yellow" stroke-width="2" fill="none" />
<path d="M526.9723320158104,55.82608695652178 L526.9723320158104,27.557312252964437" stroke="yellow" stroke-width="2" fill="none" />
<path d="M574.0869565217392,27.557312252964437 L574.0869565217392,55.82608695652178" stroke="yellow" stroke-width="2" fill="none" />
<path d="M583.509881422925,55.82608695652178 L583.509881422925,27.557312252964437" stroke="yellow" stroke-width="2" fill="none" />
<path d="M630.6245059288539,27.557312252964437 L630.6245059288539,55.82608695652178" stroke="yellow" stroke-width="2" fill="none" />
<path d="M640.0474308300396,55.82608695652178 L640.0474308300396,27.557312252964437" stroke="yellow" stroke-width="2" fill="none" />
<path d="M588.2213438735179,437.4545454545455 L531.6837944664032,493.9920948616601" stroke="red" stroke-width="2" fill="none" />
<path d="M531.6837944664032,493.9920948616601 L418.608695652174,493.9920948616601" stroke="red" stroke-width="2" fill="none" />
<path d="M418.608695652174,493.9920948616601 L362.07114624505937,531.6837944664032" stroke="red" stroke-width="2" fill="none" />
<path d="M305.53359683794474,493.9920948616601 L192.45849802371544,493.9920948616601" stroke="red" stroke-width="2" fill="none" />
<path d="M192.45849802371544,493.9920948616601 L135.9209486166008,437.4545454545455" stroke="red" stroke-width="2" fill="none" />
<path d="M135.9209486166008,437.4545454545455 L135.9209486166008,380.91699604743087" stroke="red" stroke-width="2" fill="none" />
<path d="M135.9209486166008,230.15019762845853 L135.9209486166008,173.6126482213439" stroke="red" stroke-width="2" fill="none" />
<path d="M135.9209486166008,173.6126482213439 L192.45849802371544,117.07509881422928" stroke="red" stroke-width="2" fill="none" />
<path d="M192.45849802371544,117.07509881422928 L305.53359683794474,117.07509881422928" stroke="red" stroke-width="2" fill="none" />
<path d="M362.07114624505937,79.38339920948619 L418.608695652174,117.07509881422928" stroke="red" stroke-width="2" fill="none" />
<path d="M418.608695652174,117.07509881422928 L531.6837944664032,117.07509881422928" stroke="red" stroke-width="2" fill="none" />
<path d="M531.6837944664032,117.07509881422928 L588.2213438735179,173.6126482213439" stroke="red" stroke-width="2" fill="none" />
<path d="M588.2213438735179,173.6126482213439 L588.2213438735179,248.9960474308301" stroke="red" stroke-width="2" fill="none" />
<path d="M588.2213438735179,362.07114624505937 L588.2213438735179,437.4545454545455" stroke="red" stroke-width="2" fill="none" />
<path d="M588.2213438735179,248.9960474308301 L597.6442687747036,248.9960474308301" stroke="red" stroke-width="2" fill="none" />
<path d="M597.6442687747036,362.07114624505937 L588.2213438735179,362.07114624505937" stroke="red" stroke-width="2" fill="none" />
<path d="M531.6837944664032,22.84584980237156 L550.5296442687747,22.84584980237156" stroke="red" stroke-width="2" fill="none" />
<path d="M550.5296442687747,22.84584980237156 L569.3754940711462,22.84584980237156" stroke="red" stroke-width="2" fill="none" />
<path d="M588.2213438735179,22.84584980237156 L607.0671936758894,22.84584980237156" stroke="red" stroke-width="2" fill="none" />
<path d="M607.0671936758894,22.84584980237156 L625.913043478261,22.84584980237156" stroke="red" stroke-width="2" fill="none" />
<path d="M493.9920948616601,22.84584980237156 L512.8379446640317,22.84584980237156" stroke="red" stroke-width="2" fill="none" />
<path d="M380.91699604743087,22.84584980237156 L399.76284584980243,22.84584980237156" stroke="red" stroke-width="2" fill="none" />
<path d="M418.608695652174,22.84584980237156 L437.4545454545455,22.84584980237156" stroke="red" stroke-width="2" fill="none" />
<path d="M437.4545454545455,22.84584980237156 L456.30039525691706,22.84584980237156" stroke="red" stroke-width="2" fill="none" />
<path d="M475.1462450592886,22.84584980237156 L493.9920948616601,22.84584980237156" stroke="red" stroke-width="2" fill="none" />
<path d="M362.07114624505937,22.84584980237156 L380.91699604743087,22.84584980237156" stroke="red" stroke-width="2" fill="none" />
<path d="M550.5296442687747,60.53754940711465 L531.6837944664032,60.53754940711465" stroke="red" stroke-width="2" fill="none" />
<path d="M569.3754940711462,60.53754940711465 L550.5296442687747,60.53754940711465" stroke="red" stroke-width="2" fill="none" />
<path d="M607.0671936758894,60.53754940711465 L588.2213438735179,60.53754940711465" stroke="red" stroke-width="2" fill="none" />
<path d="M625.913043478261,60.53754940711465 L607.0671936758894,60.53754940711465" stroke="red" stroke-width="2" fill="none" />
<path d="M512.8379446640317,60.53754940711465 L493.9920948616601,60.53754940711465" stroke="red" stroke-width="2" fill="none" />
<path d="M399.76284584980243,60.53754940711465 L380.91699604743087,60.53754940711465" stroke="red" stroke-width="2" fill="none" />
<path d="M437.4545454545455,60.53754940711465 L418.608695652174,60.53754940711465" stroke="red" stroke-width="2" fill="none" />
<path d="M456.30039525691706,60.53754940711465 L437.4545454545455,60.53754940711465" stroke="red" stroke-width="2" fill="none" />
<path d="M493.9920948616601,60.53754940711465 L475.1462450592886,60.53754940711465" stroke="red" stroke-width="2" fill="none" />
<path d="M380.91699604743087,60.53754940711465 L362.07114624505937,60.53754940711465" stroke="red" stroke-width="2" fill="none" />
<path d="M286.6877470355732,4.0 L343.2252964426878,22.84584980237156" stroke="red" stroke-width="2" fill="none" />
<path d="M230.15019762845856,22.84584980237156 L286.6877470355732,4.0" stroke="red" stroke-width="2" fill="none" />
<path d="M286.6877470355732,98.22924901185775 L230.15019762845856,79.38339920948619" stroke="red" stroke-width="2" fill="none" />
<path d="M343.2252964426878,60.53754940711465 L343.2252964426878,79.38339920948619" stroke="red" stroke-width="2" fill="none" />
<path d="M343.2252964426878,79.38339920948619 L362.07114624505937,79.38339920948619" stroke="red" stroke-width="2" fill="none" />
<path d="M305.53359683794474,117.07509881422928 L305.53359683794474,98.22924901185775" stroke="red" stroke-width="2" fill="none" />
<path d="M305.53359683794474,98.22924901185775 L286.6877470355732,98.22924901185775" stroke="red" stroke-width="2" fill="none" />
<path d="M531.6837944664032,550.5296442687747 L550.5296442687747,550.5296442687747" stroke="red" stroke-width="2" fill="none" />
<path d="M550.5296442687747,550.5296442687747 L569.3754940711462,550.5296442687747" stroke="red" stroke-width="2" fill="none" />
<path d="M588.2213438735179,550.5296442687747 L607.0671936758894,550.5296442687747" stroke="red" stroke-width="2" fill="none" />
<path d="M607.0671936758894,550.5296442687747 L625.913043478261,550.5296442687747" stroke="red" stroke-width="2" fill="none" />
<path d="M493.9920948616601,550.5296442687747 L512.8379446640317,550.5296442687747" stroke="red" stroke-width="2" fill="none" />
<path d="M380.91699604743087,550.5296442687747 L399.76284584980243,550.5296442687747" stroke="red" stroke-width="2" fill="none" />
<path d="M418.608695652174,550.5296442687747 L437.4545454545455,550.5296442687747" stroke="red" stroke-width="2" fill="none" />
<path d="M437.4545454545455,550.5296442687747 L456.30039525691706,550.5296442687747" stroke="red" stroke-width="2" fill="none" />
<path d="M475.1462450592886,550.5296442687747 L493.9920948616601,550.5296442687747" stroke="red" stroke-width="2" fill="none" />
<path d="M362.07114624505937,550.5296442687747 L380.91699604743087,550.5296442687747" stroke="red" stroke-width="2" fill="none" />
<path d="M550.5296442687747,588.2213438735179 L531.6837944664032,588.2213438735179" stroke="red" stroke-width="2" fill="none" />
<path d="M569.3754940711462,588.2213438735179 L550.5296442687747,588.2213438735179" stroke="red" stroke-width="2" fill="none" />
<path d="M607.0671936758894,588.2213438735179 L588.2213438735179,588.2213438735179" stroke="red" stroke-width="2" fill="none" />
<path d="M625.913043478261,588.2213438735179 L607.0671936758894,588.2213438735179" stroke="red" stroke-width="2" fill="none" />
<path d="M512.8379446640317,588.2213438735179 L493.9920948616601,588.2213438735179" stroke="red" stroke-width="2" fill="none" />
<path d="M399.76284584980243,588.2213438735179 L380.91699604743087,588.2213438735179" stroke="red" stroke-width="2" fill="none" />
<path d="M437.4545454545455,588.2213438735179 L418.608695652174,588.2213438735179" stroke="red" stroke-width="2" fill="none" />
<path d="M456.30039525691706,588.2213438735179 L437.4545454545455,588.2213438735179" stroke="red" stroke-width="2" fill="none" />
<path d="M493.9920948616601,588.2213438735179 L475.1462450592886,588.2213438735179" stroke="red" stroke-width="2" fill="none" />
<path d="M380.91699604743087,588.2213438735179 L362.07114624505937,588.2213438735179" stroke="red" stroke-width="2" fill="none" />
<path d="M343.2252964426878,588.2213438735179 L286.6877470355732,607.0671936758894" stroke="red" stroke-width="2" fill="none" />
<path d="M286.6877470355732,607.0671936758894 L230.15019762845856,588.2213438735179" stroke="red" stroke-width="2" fill="none" />
<path d="M362.07114624505937,531.6837944664032 L343.2252964426878,531.6837944664032" stroke="red" stroke-width="2" fill="none" />
<path d="M343.2252964426878,531.6837944664032 L343.2252964426878,550.5296442687747" stroke="red" stroke-width="2" fill="none" />
<path d="M230.15019762845856,531.6837944664032 L286.6877470355732,512.8379446640317" stroke="red" stroke-width="2" fill="none" />
<path d="M286.6877470355732,512.8379446640317 L305.53359683794474,512.8379446640317" stroke="red" stroke-width="2" fill="none" />
<path d="M305.53359683794474,512.8379446640317 L305.53359683794474,493.9920948616601" stroke="red" stroke-width="2" fill="none" />
<path d="M644.7588932806325,248.9960474308301 L625.913043478261,248.9960474308301" stroke="red" stroke-width="2" fill="none" />
<path d="M625.913043478261,362.07114624505937 L644.7588932806325,362.07114624505937" stroke="red" stroke-width="2" fill="none" />
<path d="M644.7588932806325,399.76284584980243 L607.0671936758894,380.91699604743087" stroke="red" stroke-width="2" fill="none" />
<path d="M607.0671936758894,230.15019762845853 L644.7588932806325,211.304347826087" stroke="red" stroke-width="2" fill="none" />
<path d="M607.0671936758894,380.91699604743087 L607.0671936758894,362.07114624505937" stroke="red" stroke-width="2" fill="none" />
<path d="M607.0671936758894,362.07114624505937 L597.6442687747036,362.07114624505937" stroke="red" stroke-width="2" fill="none" />
<path d="M597.6442687747036,248.9960474308301 L607.0671936758894,248.9960474308301" stroke="red" stroke-width="2" fill="none" />
<path d="M607.0671936758894,248.9960474308301 L607.0671936758894,230.15019762845853" stroke="red" stroke-width="2" fill="none" />
<path d="M644.7588932806325,211.304347826087 L701.2964426877471,230.15019762845853" stroke="red" stroke-width="2" fill="none" />
<path d="M701.2964426877471,380.91699604743087 L644.7588932806325,399.76284584980243" stroke="red" stroke-width="2" fill="none" />
<path d="M644.7588932806325,362.07114624505937 L663.604743083004,362.07114624505937" stroke="red" stroke-width="2" fill="none" />
<path d="M663.604743083004,248.9960474308301 L644.7588932806325,248.9960474308301" stroke="red" stroke-width="2" fill="none" />
<path d="M644.7588932806325,22.84584980237156 L682.4505928853755,22.84584980237156" stroke="red" stroke-width="2" fill="none" />
<path d="M682.4505928853755,22.84584980237156 L757.8339920948617,98.22924901185775" stroke="red" stroke-width="2" fill="none" />
<path d="M757.8339920948617,512.8379446640317 L682.4505928853755,588.2213438735179" stroke="red" stroke-width="2" fill="none" />
<path d="M682.4505928853755,588.2213438735179 L644.7588932806325,588.2213438735179" stroke="red" stroke-width="2" fill="none" />
<path d="M644.7588932806325,550.5296442687747 L663.604743083004,550.5296442687747" stroke="red" stroke-width="2" fill="none" />
<path d="M663.604743083004,550.5296442687747 L720.1422924901186,493.9920948616601" stroke="red" stroke-width="2" fill="none" />
<path d="M720.1422924901186,117.07509881422928 L663.604743083004,60.53754940711465" stroke="red" stroke-width="2" fill="none" />
<path d="M663.604743083004,60.53754940711465 L644.7588932806325,60.53754940711465" stroke="red" stroke-width="2" fill="none" />
<path d="M720.1422924901186,493.9920948616601 L720.1422924901186,324.37944664031625" stroke="red" stroke-width="2" fill="none" />
<path d="M720.1422924901186,324.37944664031625 L701.2964426877471,324.37944664031625" stroke="red" stroke-width="2" fill="none" />
<path d="M701.2964426877471,286.6877470355732 L720.1422924901186,286.6877470355732" stroke="red" stroke-width="2" fill="none" />
<path d="M720.1422924901186,286.6877470355732 L720.1422924901186,117.07509881422928" stroke="red" stroke-width="2" fill="none" />
<path d="M701.2964426877471,230.15019762845853 L701.2964426877471,286.6877470355732" stroke="red" stroke-width="2" fill="none" />
<path d="M701.2964426877471,324.37944664031625 L701.2964426877471,380.91699604743087" stroke="red" stroke-width="2" fill="none" />
<path d="M135.9209486166008,380.91699604743087 L126.49802371541506,380.91699604743087" stroke="red" stroke-width="2" fill="none" />
<path d="M126.49802371541506,380.91699604743087 L117.0750988142293,380.91699604743087" stroke="red" stroke-width="2" fill="none" />
<path d="M117.0750988142293,230.15019762845853 L126.49802371541506,230.15019762845853" stroke="red" stroke-width="2" fill="none" />
<path d="M126.49802371541506,230.15019762845853 L135.9209486166008,230.15019762845853" stroke="red" stroke-width="2" fill="none" />
<path d="M117.0750988142293,380.91699604743087 L117.0750988142293,418.608695652174" stroke="red" stroke-width="2" fill="none" />
<path d="M79.38339920948619,418.608695652174 L39.33596837944668,362.07114624505937" stroke="red" stroke-width="2" fill="none" />
<path d="M39.33596837944668,362.07114624505937 L4.0,305.5335968379447" stroke="red" stroke-width="2" fill="none" />
<path d="M4.0,305.5335968379447 L39.33596837944668,248.9960474308301" stroke="red" stroke-width="2" fill="none" />
<path d="M39.33596837944668,248.9960474308301 L79.38339920948619,192.45849802371544" stroke="red" stroke-width="2" fill="none" />
<path d="M117.0750988142293,192.45849802371544 L117.0750988142293,230.15019762845853" stroke="red" stroke-width="2" fill="none" />
<path d="M230.15019762845856,588.2213438735179 L173.61264822134393,588.2213438735179" stroke="red" stroke-width="2" fill="none" />
<path d="M173.61264822134393,588.2213438735179 L60.53754940711468,475.1462450592886" stroke="red" stroke-width="2" fill="none" />
<path d="M60.53754940711468,475.1462450592886 L79.38339920948619,418.608695652174" stroke="red" stroke-width="2" fill="none" />
<path d="M117.0750988142293,418.608695652174 L98.22924901185775,456.30039525691706" stroke="red" stroke-width="2" fill="none" />
<path d="M98.22924901185775,456.30039525691706 L173.61264822134393,531.6837944664032" stroke="red" stroke-width="2" fill="none" />
<path d="M173.61264822134393,531.6837944664032 L230.15019762845856,531.6837944664032" stroke="red" stroke-width="2" fill="none" />
<path d="M79.38339920948619,192.45849802371544 L60.53754940711468,135.9209486166008" stroke="red" stroke-width="2" fill="none" />
<path d="M60.53754940711468,135.9209486166008 L173.61264822134393,22.84584980237156" stroke="red" stroke-width="2" fill="none" />
<path d="M173.61264822134393,22.84584980237156 L230.15019762845856,22.84584980237156" stroke="red" stroke-width="2" fill="none" />
<path d="M230.15019762845856,79.38339920948619 L173.61264822134393,79.38339920948619" stroke="red" stroke-width="2" fill="none" />
<path d="M173.61264822134393,79.38339920948619 L98.22924901185775,154.76679841897237" stroke="red" stroke-width="2" fill="none" />
<path d="M98.22924901185775,154.76679841897237 L117.0750988142293,192.45849802371544" stroke="red" stroke-width="2" fill="none" />
<path d="M757.8339920948617,98.22924901185775 L757.8339920948617,173.6126482213439" stroke="red" stroke-width="2" fill="none" />
<path d="M757.8339920948617,211.304347826087 L757.8339920948617,399.76284584980243" stroke="red" stroke-width="2" fill="none" />
<path d="M757.8339920948617,437.4545454545455 L757.8339920948617,512.8379446640317" stroke="red" stroke-width="2" fill="none" />
<path d="M757.8339920948617,173.6126482213439 L833.217391304348,173.6126482213439" stroke="red" stroke-width="2" fill="none" />
<path d="M856.7747035573124,286.6877470355732 L870.909090909091,286.6877470355732" stroke="red" stroke-width="2" fill="none" />
<path d="M870.909090909091,286.6877470355732 L889.7549407114625,230.15019762845853" stroke="red" stroke-width="2" fill="none" />
<path d="M889.7549407114625,230.15019762845853 L965.1383399209487,211.304347826087" stroke="red" stroke-width="2" fill="none" />
<path d="M965.1383399209487,211.304347826087 L1040.521739130435,230.15019762845853" stroke="red" stroke-width="2" fill="none" />
<path d="M1040.521739130435,230.15019762845853 L1059.3675889328065,286.6877470355732" stroke="red" stroke-width="2" fill="none" />
<path d="M1059.3675889328065,324.37944664031625 L1040.521739130435,380.91699604743087" stroke="red" stroke-width="2" fill="none" />
<path d="M1040.521739130435,380.91699604743087 L965.1383399209487,399.76284584980243" stroke="red" stroke-width="2" fill="none" />
<path d="M965.1383399209487,399.76284584980243 L889.7549407114625,380.91699604743087" stroke="red" stroke-width="2" fill="none" />
<path d="M889.7549407114625,380.91699604743087 L870.909090909091,324.37944664031625" stroke="red" stroke-width="2" fill="none" />
<path d="M870.909090909091,324.37944664031625 L856.7747035573124,324.37944664031625" stroke="red" stroke-width="2" fill="none" />
<path d="M833.217391304348,437.4545454545455 L757.8339920948617,437.4545454545455" stroke="red" stroke-width="2" fill="none" />
<path d="M757.8339920948617,399.76284584980243 L795.5256916996047,399.76284584980243" stroke="red" stroke-width="2" fill="none" />
<path d="M795.5256916996047,399.76284584980243 L814.3715415019764,362.07114624505937" stroke="red" stroke-width="2" fill="none" />
<path d="M814.3715415019764,362.07114624505937 L795.5256916996047,343.2252964426878" stroke="red" stroke-width="2" fill="none" />
<path d="M795.5256916996047,343.2252964426878 L776.6798418972332,305.5335968379447" stroke="red" stroke-width="2" fill="none" />
<path d="M776.6798418972332,305.5335968379447 L795.5256916996047,267.8418972332016" stroke="red" stroke-width="2" fill="none" />
<path d="M795.5256916996047,267.8418972332016 L814.3715415019764,248.9960474308301" stroke="red" stroke-width="2" fill="none" />
<path d="M814.3715415019764,248.9960474308301 L795.5256916996047,211.304347826087" stroke="red" stroke-width="2" fill="none" />
<path d="M795.5256916996047,211.304347826087 L757.8339920948617,211.304347826087" stroke="red" stroke-width="2" fill="none" />
<path d="M1059.3675889328065,286.6877470355732 L1078.213438735178,286.6877470355732" stroke="red" stroke-width="2" fill="none" />
<path d="M1078.213438735178,286.6877470355732 L1134.7509881422925,267.8418972332016" stroke="red" stroke-width="2" fill="none" />
<path d="M1134.7509881422925,267.8418972332016 L1191.2885375494072,286.6877470355732" stroke="red" stroke-width="2" fill="none" />
<path d="M1191.2885375494072,324.37944664031625 L1134.7509881422925,343.2252964426878" stroke="red" stroke-width="2" fill="none" />
<path d="M1134.7509881422925,343.2252964426878 L1078.213438735178,324.37944664031625" stroke="red" stroke-width="2" fill="none" />
<path d="M1078.213438735178,324.37944664031625 L1059.3675889328065,324.37944664031625" stroke="red" stroke-width="2" fill="none" />
<path d="M852.0632411067195,380.91699604743087 L870.909090909091,399.76284584980243" stroke="red" stroke-width="2" fill="none" />
<path d="M870.909090909091,418.608695652174 L833.217391304348,437.4545454545455" stroke="red" stroke-width="2" fill="none" />
<path d="M833.217391304348,173.6126482213439 L870.909090909091,192.45849802371544" stroke="red" stroke-width="2" fill="none" />
<path d="M870.909090909091,211.304347826087 L852.0632411067195,230.15019762845853" stroke="red" stroke-width="2" fill="none" />
<path d="M870.909090909091,399.76284584980243 L880.3320158102767,399.76284584980243" stroke="red" stroke-width="2" fill="none" />
<path d="M880.3320158102767,399.76284584980243 L889.7549407114625,399.76284584980243" stroke="red" stroke-width="2" fill="none" />
<path d="M927.4466403162056,437.4545454545455 L927.4466403162056,475.1462450592886" stroke="red" stroke-width="2" fill="none" />
<path d="M927.4466403162056,475.1462450592886 L908.600790513834,475.1462450592886" stroke="red" stroke-width="2" fill="none" />
<path d="M908.600790513834,475.1462450592886 L908.600790513834,437.4545454545455" stroke="red" stroke-width="2" fill="none" />
<path d="M908.600790513834,437.4545454545455 L889.7549407114625,418.608695652174" stroke="red" stroke-width="2" fill="none" />
<path d="M870.909090909091,192.45849802371544 L880.3320158102767,192.45849802371544" stroke="red" stroke-width="2" fill="none" />
<path d="M880.3320158102767,192.45849802371544 L889.7549407114625,192.45849802371544" stroke="red" stroke-width="2" fill="none" />
<path d="M889.7549407114625,192.45849802371544 L908.600790513834,173.6126482213439" stroke="red" stroke-width="2" fill="none" />
<path d="M908.600790513834,173.6126482213439 L908.600790513834,135.9209486166008" stroke="red" stroke-width="2" fill="none" />
<path d="M908.600790513834,135.9209486166008 L927.4466403162056,135.9209486166008" stroke="red" stroke-width="2" fill="none" />
<path d="M927.4466403162056,135.9209486166008 L927.4466403162056,173.6126482213439" stroke="red" stroke-width="2" fill="none" />
<path d="M927.4466403162056,173.6126482213439 L915.6679841897235,199.52569169960478" stroke="red" stroke-width="2" fill="none" />
<path d="M915.6679841897235,199.52569169960478 L889.7549407114625,211.304347826087" stroke="red" stroke-width="2" fill="none" />
<path d="M889.7549407114625,211.304347826087 L880.3320158102767,211.304347826087" stroke="red" stroke-width="2" fill="none" />
<path d="M880.3320158102767,211.304347826087 L870.909090909091,211.304347826087" stroke="red" stroke-width="2" fill="none" />
<path d="M889.7549407114625,418.608695652174 L880.3320158102767,418.608695652174" stroke="red" stroke-width="2" fill="none" />
<path d="M880.3320158102767,418.608695652174 L870.909090909091,418.608695652174" stroke="red" stroke-width="2" fill="none" />
<path d="M915.6679841897235,411.5415019762846 L927.4466403162056,437.4545454545455" stroke="red" stroke-width="2" fill="none" />
<path d="M889.7549407114625,399.76284584980243 L915.6679841897235,411.5415019762846" stroke="red" stroke-width="2" fill="none" />
<path d="M1191.2885375494072,286.6877470355732 L1191.2885375494072,300.8221343873518" stroke="red" stroke-width="2" fill="none" />
<path d="M1191.2885375494072,310.2450592885376 L1191.2885375494072,324.37944664031625" stroke="red" stroke-width="2" fill="none" />
<path d="M1191.2885375494072,300.8221343873518 L1196.0,300.8221343873518" stroke="red" stroke-width="2" fill="none" />
<path d="M1196.0,300.8221343873518 L1196.0,310.2450592885376" stroke="lavender" stroke-width="2" fill="none" />
<path d="M1196.0,310.2450592885376 L1191.2885375494072,310.2450592885376" stroke="red" stroke-width="2" fill="none" />
<path d="M852.0632411067195,230.15019762845853 L852.0632411067195,286.6877470355732" stroke="red" stroke-width="2" fill="none" />
<path d="M852.0632411067195,286.6877470355732 L856.7747035573124,286.6877470355732" stroke="red" stroke-width="2" fill="none" />
<path d="M856.7747035573124,324.37944664031625 L852.0632411067195,324.37944664031625" stroke="red" stroke-width="2" fill="none" />
<path d="M852.0632411067195,324.37944664031625 L852.0632411067195,380.91699604743087" stroke="red" stroke-width="2" fill="none" />
<path d="M625.913043478261,248.9960474308301 L625.913043478261,362.07114624505937" stroke="red" stroke-width="2" fill="none" />
<path d="M663.604743083004,362.07114624505937 L663.604743083004,314.9565217391305" stroke="red" stroke-width="2" fill="none" />
<path d="M663.604743083004,296.11067193675893 L663.604743083004,248.9960474308301" stroke="red" stroke-width="2" fill="none" />
<path d="M663.604743083004,314.9565217391305 L658.8932806324111,314.9565217391305" stroke="red" stroke-width="2" fill="none" />
<path d="M658.8932806324111,314.9565217391305 L656.5375494071147,314.9565217391305" stroke="red" stroke-width="2" fill="none" />
<path d="M656.5375494071147,314.9565217391305 L632.9802371541502,310.2450592885376" stroke="red" stroke-width="2" fill="none" />
<path d="M632.9802371541502,310.2450592885376 L632.9802371541502,300.8221343873518" stroke="red" stroke-width="2" fill="none" />
<path d="M632.9802371541502,300.8221343873518 L656.5375494071147,296.11067193675893" stroke="red" stroke-width="2" fill="none" />
<path d="M656.5375494071147,296.11067193675893 L658.8932806324111,296.11067193675893" stroke="red" stroke-width="2" fill="none" />
<path d="M658.8932806324111,296.11067193675893 L663.604743083004,296.11067193675893" stroke="red" stroke-width="2" fill="none" />
<path d="M362.07114624505937,588.2213438735179 L357.3596837944665,588.2213438735179" stroke="red" stroke-width="2" fill="none" />
<path d="M357.3596837944665,588.2213438735179 L357.3596837944665,583.509881422925" stroke="red" stroke-width="2" fill="none" />
<path d="M357.3596837944665,583.509881422925 L347.9367588932807,583.509881422925" stroke="red" stroke-width="2" fill="none" />
<path d="M347.9367588932807,583.509881422925 L347.9367588932807,588.2213438735179" stroke="red" stroke-width="2" fill="none" />
<path d="M347.9367588932807,588.2213438735179 L343.2252964426878,588.2213438735179" stroke="red" stroke-width="2" fill="none" />
<path d="M357.3596837944665,550.5296442687747 L362.07114624505937,550.5296442687747" stroke="red" stroke-width="2" fill="none" />
<path d="M357.3596837944665,555.2411067193676 L357.3596837944665,550.5296442687747" stroke="red" stroke-width="2" fill="none" />
<path d="M347.9367588932807,555.2411067193676 L357.3596837944665,555.2411067193676" stroke="red" stroke-width="2" fill="none" />
<path d="M347.9367588932807,550.5296442687747 L347.9367588932807,555.2411067193676" stroke="red" stroke-width="2" fill="none" />
<path d="M343.2252964426878,550.5296442687747 L347.9367588932807,550.5296442687747" stroke="red" stroke-width="2" fill="none" />
<path d="M413.8972332015811,588.2213438735179 L413.8972332015811,583.509881422925" stroke="red" stroke-width="2" fill="none" />
<path d="M413.8972332015811,583.509881422925 L404.4743083003953,583.509881422925" stroke="red" stroke-width="2" fill="none" />
<path d="M404.4743083003953,583.509881422925 L404.4743083003953,588.2213438735179" stroke="red" stroke-width="2" fill="none" />
<path d="M413.8972332015811,555.2411067193676 L413.8972332015811,550.5296442687747" stroke="red" stroke-width="2" fill="none" />
<path d="M404.4743083003953,555.2411067193676 L413.8972332015811,555.2411067193676" stroke="red" stroke-width="2" fill="none" />
<path d="M404.4743083003953,550.5296442687747 L404.4743083003953,555.2411067193676" stroke="red" stroke-width="2" fill="none" />
<path d="M470.43478260869574,588.2213438735179 L470.43478260869574,583.509881422925" stroke="red" stroke-width="2" fill="none" />
<path d="M470.43478260869574,583.509881422925 L461.01185770750993,583.509881422925" stroke="red" stroke-width="2" fill="none" />
<path d="M461.01185770750993,583.509881422925 L461.01185770750993,588.2213438735179" stroke="red" stroke-width="2" fill="none" />
<path d="M470.43478260869574,555.2411067193676 L470.43478260869574,550.5296442687747" stroke="red" stroke-width="2" fill="none" />
<path d="M461.01185770750993,555.2411067193676 L470.43478260869574,555.2411067193676" stroke="red" stroke-width="2" fill="none" />
<path d="M461.01185770750993,550.5296442687747 L461.01185770750993,555.2411067193676" stroke="red" stroke-width="2" fill="none" />
<path d="M526.9723320158104,588.2213438735179 L526.9723320158104,583.509881422925" stroke="red" stroke-width="2" fill="none" />
<path d="M526.9723320158104,583.509881422925 L517.5494071146246,583.509881422925" stroke="red" stroke-width="2" fill="none" />
<path d="M517.5494071146246,583.509881422925 L517.5494071146246,588.2213438735179" stroke="red" stroke-width="2" fill="none" />
<path d="M526.9723320158104,555.2411067193676 L526.9723320158104,550.5296442687747" stroke="red" stroke-width="2" fill="none" />
<path d="M517.5494071146246,555.2411067193676 L526.9723320158104,555.2411067193676" stroke="red" stroke-width="2" fill="none" />
<path d="M517.5494071146246,550.5296442687747 L517.5494071146246,555.2411067193676" stroke="red" stroke-width="2" fill="none" />
<path d="M583.509881422925,588.2213438735179 L583.509881422925,583.509881422925" stroke="red" stroke-width="2" fill="none" />
<path d="M583.509881422925,583.509881422925 L574.0869565217392,583.509881422925" stroke="red" stroke-width="2" fill="none" />
<path d="M574.0869565217392,583.509881422925 L574.0869565217392,588.2213438735179" stroke="red" stroke-width="2" fill="none" />
<path d="M583.509881422925,555.2411067193676 L583.509881422925,550.5296442687747" stroke="red" stroke-width="2" fill="none" />
<path d="M574.0869565217392,555.2411067193676 L583.509881422925,555.2411067193676" stroke="red" stroke-width="2" fill="none" />
<path d="M574.0869565217392,550.5296442687747 L574.0869565217392,555.2411067193676" stroke="red" stroke-width="2" fill="none" />
<path d="M640.0474308300396,588.2213438735179 L640.0474308300396,583.509881422925" stroke="red" stroke-width="2" fill="none" />
<path d="M640.0474308300396,583.509881422925 L630.6245059288539,583.509881422925" stroke="red" stroke-width="2" fill="none" />
<path d="M630.6245059288539,583.509881422925 L630.6245059288539,588.2213438735179" stroke="red" stroke-width="2" fill="none" />
<path d="M640.0474308300396,555.2411067193676 L640.0474308300396,550.5296442687747" stroke="red" stroke-width="2" fill="none" />
<path d="M630.6245059288539,555.2411067193676 L640.0474308300396,555.2411067193676" stroke="red" stroke-width="2" fill="none" />
<path d="M630.6245059288539,550.5296442687747 L630.6245059288539,555.2411067193676" stroke="red" stroke-width="2" fill="none" />
<path d="M357.3596837944665,60.53754940711465 L357.3596837944665,55.82608695652178" stroke="red" stroke-width="2" fill="none" />
<path d="M357.3596837944665,55.82608695652178 L347.9367588932807,55.82608695652178" stroke="red" stroke-width="2" fill="none" />
<path d="M347.9367588932807,55.82608695652178 L347.9367588932807,60.53754940711465" stroke="red" stroke-width="2" fill="none" />
<path d="M357.3596837944665,27.557312252964437 L357.3596837944665,22.84584980237156" stroke="red" stroke-width="2" fill="none" />
<path d="M347.9367588932807,27.557312252964437 L357.3596837944665,27.557312252964437" stroke="red" stroke-width="2" fill="none" />
<path d="M347.9367588932807,22.84584980237156 L347.9367588932807,27.557312252964437" stroke="red" stroke-width="2" fill="none" />
<path d="M413.8972332015811,60.53754940711465 L413.8972332015811,55.82608695652178" stroke="red" stroke-width="2" fill="none" />
<path d="M413.8972332015811,55.82608695652178 L404.4743083003953,55.82608695652178" stroke="red" stroke-width="2" fill="none" />
<path d="M404.4743083003953,55.82608695652178 L404.4743083003953,60.53754940711465" stroke="red" stroke-width="2" fill="none" />
<path d="M413.8972332015811,27.557312252964437 L413.8972332015811,22.84584980237156" stroke="red" stroke-width="2" fill="none" />
<path d="M404.4743083003953,27.557312252964437 L413.8972332015811,27.557312252964437" stroke="red" stroke-width="2" fill="none" />
<path d="M404.4743083003953,22.84584980237156 L404.4743083003953,27.557312252964437" stroke="red" stroke-width="2" fill="none" />
<path d="M470.43478260869574,60.53754940711465 L470.43478260869574,55.82608695652178" stroke="red" stroke-width="2" fill="none" />
<path d="M470.43478260869574,55.82608695652178 L461.01185770750993,55.82608695652178" stroke="red" stroke-width="2" fill="none" />
<path d="M461.01185770750993,55.82608695652178 L461.01185770750993,60.53754940711465" stroke="red" stroke-width="2" fill="none" />
<path d="M470.43478260869574,27.557312252964437 L470.43478260869574,22.84584980237156" stroke="red" stroke-width="2" fill="none" />
<path d="M461.01185770750993,27.557312252964437 L470.43478260869574,27.557312252964437" stroke="red" stroke-width="2" fill="none" />
<path d="M461.01185770750993,22.84584980237156 L461.01185770750993,27.557312252964437" stroke="red" stroke-width="2" fill="none" />
<path d="M526.9723320158104,60.53754940711465 L526.9723320158104,55.82608695652178" stroke="red" stroke-width="2" fill="none" />
<path d="M526.9723320158104,55.82608695652178 L517.5494071146246,55.82608695652178" stroke="red" stroke-width="2" fill="none" />
<path d="M517.5494071146246,55.82608695652178 L517.5494071146246,60.53754940711465" stroke="red" stroke-width="2" fill="none" />
<path d="M526.9723320158104,27.557312252964437 L526.9723320158104,22.84584980237156" stroke="red" stroke-width="2" fill="none" />
<path d="M517.5494071146246,27.557312252964437 L526.9723320158104,27.557312252964437" stroke="red" stroke-width="2" fill="none" />
<path d="M517.5494071146246,22.84584980237156 L517.5494071146246,27.557312252964437" stroke="red" stroke-width="2" fill="none" />
<path d="M583.509881422925,60.53754940711465 L583.509881422925,55.82608695652178" stroke="red" stroke-width="2" fill="none" />
<path d="M583.509881422925,55.82608695652178 L574.0869565217392,55.82608695652178" stroke="red" stroke-width="2" fill="none" />
<path d="M574.0869565217392,55.82608695652178 L574.0869565217392,60.53754940711465" stroke="red" stroke-width="2" fill="none" />
<path d="M583.509881422925,27.557312252964437 L583.509881422925,22.84584980237156" stroke="red" stroke-width="2" fill="none" />
<path d="M574.0869565217392,27.557312252964437 L583.509881422925,27.557312252964437" stroke="red" stroke-width="2" fill="none" />
<path d="M574.0869565217392,22.84584980237156 L574.0869565217392,27.557312252964437" stroke="red" stroke-width="2" fill="none" />
<path d="M640.0474308300396,60.53754940711465 L640.0474308300396,55.82608695652178" stroke="red" stroke-width="2" fill="none" />
<path d="M640.0474308300396,55.82608695652178 L630.6245059288539,55.82608695652178" stroke="red" stroke-width="2" fill="none" />
<path d="M630.6245059288539,55.82608695652178 L630.6245059288539,60.53754940711465" stroke="red" stroke-width="2" fill="none" />
<path d="M640.0474308300396,27.557312252964437 L640.0474308300396,22.84584980237156" stroke="red" stroke-width="2" fill="none" />
<path d="M630.6245059288539,27.557312252964437 L640.0474308300396,27.557312252964437" stroke="red" stroke-width="2" fill="none" />
<path d="M630.6245059288539,22.84584980237156 L630.6245059288539,27.557312252964437" stroke="red" stroke-width="2" fill="none" />
<path d="M418.608695652174,588.2213438735179 L413.8972332015811,588.2213438735179" stroke="red" stroke-width="2" fill="none" />
<path d="M404.4743083003953,588.2213438735179 L399.76284584980243,588.2213438735179" stroke="red" stroke-width="2" fill="none" />
<path d="M399.76284584980243,550.5296442687747 L404.4743083003953,550.5296442687747" stroke="red" stroke-width="2" fill="none" />
<path d="M413.8972332015811,550.5296442687747 L418.608695652174,550.5296442687747" stroke="red" stroke-width="2" fill="none" />
<path d="M475.1462450592886,588.2213438735179 L470.43478260869574,588.2213438735179" stroke="red" stroke-width="2" fill="none" />
<path d="M461.01185770750993,588.2213438735179 L456.30039525691706,588.2213438735179" stroke="red" stroke-width="2" fill="none" />
<path d="M470.43478260869574,550.5296442687747 L475.1462450592886,550.5296442687747" stroke="red" stroke-width="2" fill="none" />
<path d="M456.30039525691706,550.5296442687747 L461.01185770750993,550.5296442687747" stroke="red" stroke-width="2" fill="none" />
<path d="M512.8379446640317,550.5296442687747 L517.5494071146246,550.5296442687747" stroke="red" stroke-width="2" fill="none" />
<path d="M526.9723320158104,550.5296442687747 L531.6837944664032,550.5296442687747" stroke="red" stroke-width="2" fill="none" />
<path d="M531.6837944664032,588.2213438735179 L526.9723320158104,588.2213438735179" stroke="red" stroke-width="2" fill="none" />
<path d="M517.5494071146246,588.2213438735179 L512.8379446640317,588.2213438735179" stroke="red" stroke-width="2" fill="none" />
<path d="M588.2213438735179,588.2213438735179 L583.509881422925,588.2213438735179" stroke="red" stroke-width="2" fill="none" />
<path d="M574.0869565217392,588.2213438735179 L569.3754940711462,588.2213438735179" stroke="red" stroke-width="2" fill="none" />
<path d="M569.3754940711462,550.5296442687747 L574.0869565217392,550.5296442687747" stroke="red" stroke-width="2" fill="none" />
<path d="M583.509881422925,550.5296442687747 L588.2213438735179,550.5296442687747" stroke="red" stroke-width="2" fill="none" />
<path d="M644.7588932806325,588.2213438735179 L640.0474308300396,588.2213438735179" stroke="red" stroke-width="2" fill="none" />
<path d="M630.6245059288539,588.2213438735179 L625.913043478261,588.2213438735179" stroke="red" stroke-width="2" fill="none" />
<path d="M625.913043478261,550.5296442687747 L630.6245059288539,550.5296442687747" stroke="red" stroke-width="2" fill="none" />
<path d="M640.0474308300396,550.5296442687747 L644.7588932806325,550.5296442687747" stroke="red" stroke-width="2" fill="none" />
<path d="M644.7588932806325,60.53754940711465 L640.0474308300396,60.53754940711465" stroke="red" stroke-width="2" fill="none" />
<path d="M630.6245059288539,60.53754940711465 L625.913043478261,60.53754940711465" stroke="red" stroke-width="2" fill="none" />
<path d="M588.2213438735179,60.53754940711465 L583.509881422925,60.53754940711465" stroke="red" stroke-width="2" fill="none" />
<path d="M574.0869565217392,60.53754940711465 L569.3754940711462,60.53754940711465" stroke="red" stroke-width="2" fill="none" />
<path d="M531.6837944664032,60.53754940711465 L526.9723320158104,60.53754940711465" stroke="red" stroke-width="2" fill="none" />
<path d="M517.5494071146246,60.53754940711465 L512.8379446640317,60.53754940711465" stroke="red" stroke-width="2" fill="none" />
<path d="M475.1462450592886,60.53754940711465 L470.43478260869574,60.53754940711465" stroke="red" stroke-width="2" fill="none" />
<path d="M461.01185770750993,60.53754940711465 L456.30039525691706,60.53754940711465" stroke="red" stroke-width="2" fill="none" />
<path d="M456.30039525691706,22.84584980237156 L461.01185770750993,22.84584980237156" stroke="red" stroke-width="2" fill="none" />
<path d="M470.43478260869574,22.84584980237156 L475.1462450592886,22.84584980237156" stroke="red" stroke-width="2" fill="none" />
<path d="M512.8379446640317,22.84584980237156 L517.5494071146246,22.84584980237156" stroke="red" stroke-width="2" fill="none" />
<path d="M526.9723320158104,22.84584980237156 L531.6837944664032,22.84584980237156" stroke="red" stroke-width="2" fill="none" />
<path d="M569.3754940711462,22.84584980237156 L574.0869565217392,22.84584980237156" stroke="red" stroke-width="2" fill="none" />
<path d="M583.509881422925,22.84584980237156 L588.2213438735179,22.84584980237156" stroke="red" stroke-width="2" fill="none" />
<path d="M625.913043478261,22.84584980237156 L630.6245059288539,22.84584980237156" stroke="red" stroke-width="2" fill="none" />
<path d="M640.0474308300396,22.84584980237156 L644.7588932806325,22.84584980237156" stroke="red" stroke-width="2" fill="none" />
<path d="M343.2252964426878,22.84584980237156 L347.9367588932807,22.84584980237156" stroke="red" stroke-width="2" fill="none" />
<path d="M357.3596837944665,22.84584980237156 L362.07114624505937,22.84584980237156" stroke="red" stroke-width="2" fill="none" />
<path d="M399.76284584980243,22.84584980237156 L404.4743083003953,22.84584980237156" stroke="red" stroke-width="2" fill="none" />
<path d="M413.8972332015811,22.84584980237156 L418.608695652174,22.84584980237156" stroke="red" stroke-width="2" fill="none" />
<path d="M418.608695652174,60.53754940711465 L413.8972332015811,60.53754940711465" stroke="red" stroke-width="2" fill="none" />
<path d="M404.4743083003953,60.53754940711465 L399.76284584980243,60.53754940711465" stroke="red" stroke-width="2" fill="none" />
<path d="M362.07114624505937,60.53754940711465 L357.3596837944665,60.53754940711465" stroke="red" stroke-width="2" fill="none" />
<path d="M347.9367588932807,60.53754940711465 L343.2252964426878,60.53754940711465" stroke="red" stroke-width="2" fill="none" />
</svg>