<?xml version="1.0" encoding="UTF-8"?>
<svg xmlns="http://www.w3.org/2000/svg" xmlns:xlink="http://www.w3.org/1999/xlink"
     width="1200" height="1173" viewBox="0 0 1200 1173">
<defs>
</defs>
<path d="M958.6787330316743,910.1357466063349 L958.6787330316743,953.2850678733032" stroke="yellow" stroke-width="2" fill="none" />
<path d="M786.081447963801,780.68778280543 L829.2307692307693,780.68778280543" stroke="yellow" stroke-width="2" fill="none" />
<path d="M786.081447963801,802.262443438914 L829.2307692307693,802.262443438914" stroke="yellow" stroke-width="2" fill="none" />
<path d="M786.081447963801,823.8371040723982 L829.2307692307693,823.8371040723982" stroke="yellow" stroke-width="2" fill="none" />
<path d="M786.081447963801,845.4117647058824 L829.2307692307693,845.4117647058824" stroke="yellow" stroke-width="2" fill="none" />
<path d="M872.3800904977377,780.68778280543 L915.529411764706,780.68778280543" stroke="yellow" stroke-width="2" fill="none" />
<path d="M872.3800904977377,802.262443438914 L915.529411764706,802.262443438914" stroke="yellow" stroke-width="2" fill="none" />
<path d="M872.3800904977377,823.8371040723982 L915.529411764706,823.8371040723982" stroke="yellow" stroke-width="2" fill="none" />
<path d="M872.3800904977377,845.4117647058824 L915.529411764706,845.4117647058824" stroke="yellow" stroke-width="2" fill="none" />
<path d="M786.081447963801,888.5610859728507 L915.529411764706,888.5610859728507" stroke="yellow" stroke-width="2" fill="none" />
<path d="M807.6561085972852,413.9185520361991 L786.081447963801,435.4932126696833" stroke="yellow" stroke-width="2" fill="none" />
<path d="M840.0180995475114,403.131221719457 L807.6561085972852,413.9185520361991" stroke="yellow" stroke-width="2" fill="none" />
<path d="M893.9547511312219,413.9185520361991 L861.5927601809956,403.131221719457" stroke="yellow" stroke-width="2" fill="none" />
<path d="M915.529411764706,435.4932126696833 L893.9547511312219,413.9185520361991" stroke="yellow" stroke-width="2" fill="none" />
<path d="M699.7828054298643,651.239819004525 L699.7828054298643,608.0904977375566" stroke="lavender" stroke-width="2" fill="none" />
<path d="M694.3891402714933,608.0904977375566 L694.3891402714933,651.239819004525" stroke="lavender" stroke-width="2" fill="none" />
<path d="M678.2081447963802,608.0904977375566 L678.2081447963802,651.239819004525" stroke="yellow" stroke-width="2" fill="none" />
<path d="M656.633484162896,543.3665158371041 L742.9321266968327,543.3665158371041" stroke="yellow" stroke-width="2" fill="none" />
<path d="M742.9321266968327,521.7918552036199 L656.633484162896,521.7918552036199" stroke="yellow" stroke-width="2" fill="none" />
<path d="M826.5339366515839,484.03619909502265 L818.4434389140273,484.03619909502265" stroke="yellow" stroke-width="2" fill="none" />
<path d="M826.5339366515839,494.82352941176475 L826.5339366515839,484.03619909502265" stroke="yellow" stroke-width="2" fill="none" />
<path d="M818.4434389140273,494.82352941176475 L826.5339366515839,494.82352941176475" stroke="yellow" stroke-width="2" fill="none" />
<path d="M818.4434389140273,484.03619909502265 L818.4434389140273,494.82352941176475" stroke="yellow" stroke-width="2" fill="none" />
<path d="M845.4117647058824,484.03619909502265 L837.3212669683259,484.03619909502265" stroke="yellow" stroke-width="2" fill="none" />
<path d="M837.3212669683259,484.03619909502265 L837.3212669683259,494.82352941176475" stroke="yellow" stroke-width="2" fill="none" />
<path d="M864.2895927601811,484.03619909502265 L856.1990950226245,484.03619909502265" stroke="yellow" stroke-width="2" fill="none" />
<path d="M864.2895927601811,494.82352941176475 L864.2895927601811,484.03619909502265" stroke="yellow" stroke-width="2" fill="none" />
<path d="M856.1990950226245,494.82352941176475 L864.2895927601811,494.82352941176475" stroke="yellow" stroke-width="2" fill="none" />
<path d="M856.1990950226245,484.03619909502265 L856.1990950226245,494.82352941176475" stroke="yellow" stroke-width="2" fill="none" />
<path d="M883.1674208144798,484.03619909502265 L875.0769230769232,484.03619909502265" stroke="yellow" stroke-width="2" fill="none" />
<path d="M883.1674208144798,494.82352941176475 L883.1674208144798,484.03619909502265" stroke="yellow" stroke-width="2" fill="none" />
<path d="M875.0769230769232,494.82352941176475 L883.1674208144798,494.82352941176475" stroke="yellow" stroke-width="2" fill="none" />
<path d="M875.0769230769232,484.03619909502265 L875.0769230769232,494.82352941176475" stroke="yellow" stroke-width="2" fill="none" />
<path d="M807.6561085972852,521.7918552036199 L893.9547511312219,521.7918552036199" stroke="yellow" stroke-width="2" fill="none" />
<path d="M893.9547511312219,457.06787330316746 L807.6561085972852,457.06787330316746" stroke="lavender" stroke-width="2" fill="none" />
<path d="M977.556561085973,527.1855203619909 L969.4660633484164,527.1855203619909" stroke="yellow" stroke-width="2" fill="none" />
<path d="M977.556561085973,537.972850678733 L977.556561085973,527.1855203619909" stroke="yellow" stroke-width="2" fill="none" />
<path d="M969.4660633484164,537.972850678733 L977.556561085973,537.972850678733" stroke="yellow" stroke-width="2" fill="none" />
<path d="M969.4660633484164,527.1855203619909 L969.4660633484164,537.972850678733" stroke="yellow" stroke-width="2" fill="none" />
<path d="M996.4343891402716,527.1855203619909 L988.343891402715,527.1855203619909" stroke="yellow" stroke-width="2" fill="none" />
<path d="M996.4343891402716,537.972850678733 L996.4343891402716,527.1855203619909" stroke="yellow" stroke-width="2" fill="none" />
<path d="M988.343891402715,537.972850678733 L996.4343891402716,537.972850678733" stroke="yellow" stroke-width="2" fill="none" />
<path d="M988.343891402715,527.1855203619909 L988.343891402715,537.972850678733" stroke="yellow" stroke-width="2" fill="none" />
<path d="M1015.3122171945702,527.1855203619909 L1007.2217194570137,527.1855203619909" stroke="yellow" stroke-width="2" fill="none" />
<path d="M1015.3122171945702,537.972850678733 L1015.3122171945702,527.1855203619909" stroke="yellow" stroke-width="2" fill="none" />
<path d="M1007.2217194570137,537.972850678733 L1015.3122171945702,537.972850678733" stroke="yellow" stroke-width="2" fill="none" />
<path d="M1007.2217194570137,527.1855203619909 L1007.2217194570137,537.972850678733" stroke="yellow" stroke-width="2" fill="none" />
<path d="M1034.190045248869,527.1855203619909 L1026.0995475113123,527.1855203619909" stroke="yellow" stroke-width="2" fill="none" />
<path d="M1034.190045248869,537.972850678733 L1034.190045248869,527.1855203619909" stroke="yellow" stroke-width="2" fill="none" />
<path d="M1026.0995475113123,537.972850678733 L1034.190045248869,537.972850678733" stroke="yellow" stroke-width="2" fill="none" />
<path d="M1026.0995475113123,527.1855203619909 L1026.0995475113123,537.972850678733" stroke="yellow" stroke-width="2" fill="none" />
<path d="M958.6787330316743,543.3665158371041 L1044.977375565611,543.3665158371041" stroke="yellow" stroke-width="2" fill="none" />
<path d="M1044.977375565611,521.7918552036199 L958.6787330316743,521.7918552036199" stroke="yellow" stroke-width="2" fill="none" />
<path d="M915.529411764706,737.5384615384617 L786.081447963801,737.5384615384617" stroke="yellow" stroke-width="2" fill="none" />
<path d="M753.7194570135748,583.819004524887 L796.8687782805431,583.819004524887" stroke="yellow" stroke-width="2" fill="none" />
<path d="M786.081447963801,737.5384615384617 L786.081447963801,672.8144796380091" stroke="yellow" stroke-width="2" fill="none" />
<path d="M786.081447963801,672.8144796380091 L764.5067873303168,651.239819004525" stroke="yellow" stroke-width="2" fill="none" />
<path d="M764.5067873303168,651.239819004525 L742.9321266968327,651.239819004525" stroke="yellow" stroke-width="2" fill="none" />
<path d="M764.5067873303168,737.5384615384617 L764.5067873303168,715.9638009049775" stroke="yellow" stroke-width="2" fill="none" />
<path d="M764.5067873303168,715.9638009049775 L756.4162895927602,683.6018099547512" stroke="yellow" stroke-width="2" fill="none" />
<path d="M756.4162895927602,683.6018099547512 L721.3574660633485,672.8144796380091" stroke="yellow" stroke-width="2" fill="none" />
<path d="M721.3574660633485,672.8144796380091 L699.7828054298643,672.8144796380091" stroke="yellow" stroke-width="2" fill="none" />
<path d="M915.529411764706,672.8144796380091 L915.529411764706,737.5384615384617" stroke="yellow" stroke-width="2" fill="none" />
<path d="M937.1040723981902,651.239819004525 L915.529411764706,672.8144796380091" stroke="yellow" stroke-width="2" fill="none" />
<path d="M958.6787330316743,651.239819004525 L937.1040723981902,651.239819004525" stroke="yellow" stroke-width="2" fill="none" />
<path d="M1001.8280542986427,608.0904977375566 L958.6787330316743,651.239819004525" stroke="yellow" stroke-width="2" fill="none" />
<path d="M937.1040723981902,715.9638009049775 L937.1040723981902,737.5384615384617" stroke="yellow" stroke-width="2" fill="none" />
<path d="M947.8914027149323,683.6018099547512 L937.1040723981902,715.9638009049775" stroke="yellow" stroke-width="2" fill="none" />
<path d="M1001.8280542986427,672.8144796380091 L980.2533936651585,672.8144796380091" stroke="yellow" stroke-width="2" fill="none" />
<path d="M753.7194570135748,583.819004524887 L764.5067873303168,594.606334841629" stroke="yellow" stroke-width="2" fill="none" />
<path d="M764.5067873303168,594.606334841629 L786.081447963801,594.606334841629" stroke="yellow" stroke-width="2" fill="none" />
<path d="M786.081447963801,594.606334841629 L796.8687782805431,583.819004524887" stroke="yellow" stroke-width="2" fill="none" />
<path d="M904.7420814479639,583.819004524887 L947.8914027149323,583.819004524887" stroke="yellow" stroke-width="2" fill="none" />
<path d="M904.7420814479639,583.819004524887 L915.529411764706,594.606334841629" stroke="yellow" stroke-width="2" fill="none" />
<path d="M915.529411764706,594.606334841629 L937.1040723981902,594.606334841629" stroke="yellow" stroke-width="2" fill="none" />
<path d="M937.1040723981902,594.606334841629 L947.8914027149323,583.819004524887" stroke="yellow" stroke-width="2" fill="none" />
<path d="M764.5067873303168,931.710407239819 L764.5067873303168,910.1357466063349" stroke="yellow" stroke-width="2" fill="none" />
<path d="M753.7194570135748,931.710407239819 L753.7194570135748,910.1357466063349" stroke="yellow" stroke-width="2" fill="none" />
<path d="M742.9321266968327,931.710407239819 L742.9321266968327,910.1357466063349" stroke="yellow" stroke-width="2" fill="none" />
<path d="M732.1447963800906,931.710407239819 L732.1447963800906,910.1357466063349" stroke="yellow" stroke-width="2" fill="none" />
<path d="M721.3574660633485,931.710407239819 L721.3574660633485,910.1357466063349" stroke="yellow" stroke-width="2" fill="none" />
<path d="M710.5701357466064,931.710407239819 L710.5701357466064,910.1357466063349" stroke="yellow" stroke-width="2" fill="none" />
<path d="M699.7828054298643,931.710407239819 L699.7828054298643,910.1357466063349" stroke="yellow" stroke-width="2" fill="none" />
<path d="M635.0588235294118,931.710407239819 L656.633484162896,910.1357466063349" stroke="yellow" stroke-width="2" fill="none" />
<path d="M613.4841628959277,910.1357466063349 L635.0588235294118,888.5610859728507" stroke="yellow" stroke-width="2" fill="none" />
<path d="M635.0588235294118,888.5610859728507 L613.4841628959277,866.9864253393666" stroke="yellow" stroke-width="2" fill="none" />
<path d="M613.4841628959277,866.9864253393666 L591.9095022624435,845.4117647058824" stroke="yellow" stroke-width="2" fill="none" />
<path d="M591.9095022624435,845.4117647058824 L570.3348416289593,823.8371040723982" stroke="yellow" stroke-width="2" fill="none" />
<path d="M570.3348416289593,823.8371040723982 L548.7601809954751,802.262443438914" stroke="yellow" stroke-width="2" fill="none" />
<path d="M548.7601809954751,802.262443438914 L570.3348416289593,780.68778280543" stroke="yellow" stroke-width="2" fill="none" />
<path d="M570.3348416289593,780.68778280543 L548.7601809954751,759.1131221719457" stroke="yellow" stroke-width="2" fill="none" />
<path d="M548.7601809954751,759.1131221719457 L548.7601809954751,715.9638009049775" stroke="yellow" stroke-width="2" fill="none" />
<path d="M548.7601809954751,715.9638009049775 L505.61085972850685,672.8144796380091" stroke="yellow" stroke-width="2" fill="none" />
<path d="M505.61085972850685,672.8144796380091 L462.46153846153857,715.9638009049775" stroke="yellow" stroke-width="2" fill="none" />
<path d="M462.46153846153857,715.9638009049775 L462.46153846153857,759.1131221719457" stroke="yellow" stroke-width="2" fill="none" />
<path d="M462.46153846153857,759.1131221719457 L440.88687782805437,780.68778280543" stroke="yellow" stroke-width="2" fill="none" />
<path d="M440.88687782805437,780.68778280543 L484.0361990950227,823.8371040723982" stroke="yellow" stroke-width="2" fill="none" />
<path d="M484.0361990950227,823.8371040723982 L484.0361990950227,845.4117647058824" stroke="yellow" stroke-width="2" fill="none" />
<path d="M484.0361990950227,845.4117647058824 L505.61085972850685,866.9864253393666" stroke="yellow" stroke-width="2" fill="none" />
<path d="M505.61085972850685,866.9864253393666 L527.185520361991,845.4117647058824" stroke="yellow" stroke-width="2" fill="none" />
<path d="M527.185520361991,845.4117647058824 L527.185520361991,823.8371040723982" stroke="yellow" stroke-width="2" fill="none" />
<path d="M527.185520361991,823.8371040723982 L548.7601809954751,845.4117647058824" stroke="yellow" stroke-width="2" fill="none" />
<path d="M548.7601809954751,845.4117647058824 L570.3348416289593,866.9864253393666" stroke="yellow" stroke-width="2" fill="none" />
<path d="M570.3348416289593,866.9864253393666 L591.9095022624435,888.5610859728507" stroke="yellow" stroke-width="2" fill="none" />
<path d="M591.9095022624435,888.5610859728507 L613.4841628959277,910.1357466063349" stroke="yellow" stroke-width="2" fill="none" />
<path d="M527.185520361991,823.8371040723982 L548.7601809954751,802.262443438914" stroke="lavender" stroke-width="2" fill="none" />
<path d="M548.7601809954751,845.4117647058824 L570.3348416289593,823.8371040723982" stroke="yellow" stroke-width="2" fill="none" />
<path d="M570.3348416289593,866.9864253393666 L591.9095022624435,845.4117647058824" stroke="yellow" stroke-width="2" fill="none" />
<path d="M591.9095022624435,888.5610859728507 L613.4841628959277,866.9864253393666" stroke="yellow" stroke-width="2" fill="none" />
<path d="M845.4117647058824,494.82352941176475 L845.4117647058824,484.03619909502265" stroke="yellow" stroke-width="2" fill="none" />
<path d="M837.3212669683259,494.82352941176475 L845.4117647058824,494.82352941176475" stroke="yellow" stroke-width="2" fill="none" />
<path d="M980.2533936651585,672.8144796380091 L947.8914027149323,683.6018099547512" stroke="yellow" stroke-width="2" fill="none" />
<path d="M675.5113122171947,527.1855203619909 L667.4208144796381,527.1855203619909" stroke="yellow" stroke-width="2" fill="none" />
<path d="M675.5113122171947,537.972850678733 L675.5113122171947,527.1855203619909" stroke="yellow" stroke-width="2" fill="none" />
<path d="M667.4208144796381,537.972850678733 L675.5113122171947,537.972850678733" stroke="yellow" stroke-width="2" fill="none" />
<path d="M667.4208144796381,527.1855203619909 L667.4208144796381,537.972850678733" stroke="yellow" stroke-width="2" fill="none" />
<path d="M694.3891402714933,527.1855203619909 L686.2986425339368,527.1855203619909" stroke="yellow" stroke-width="2" fill="none" />
<path d="M694.3891402714933,537.972850678733 L694.3891402714933,527.1855203619909" stroke="yellow" stroke-width="2" fill="none" />
<path d="M686.2986425339368,537.972850678733 L694.3891402714933,537.972850678733" stroke="yellow" stroke-width="2" fill="none" />
<path d="M686.2986425339368,527.1855203619909 L686.2986425339368,537.972850678733" stroke="yellow" stroke-width="2" fill="none" />
<path d="M713.2669683257919,527.1855203619909 L705.1764705882354,527.1855203619909" stroke="yellow" stroke-width="2" fill="none" />
<path d="M713.2669683257919,537.972850678733 L713.2669683257919,527.1855203619909" stroke="yellow" stroke-width="2" fill="none" />
<path d="M705.1764705882354,537.972850678733 L713.2669683257919,537.972850678733" stroke="yellow" stroke-width="2" fill="none" />
<path d="M705.1764705882354,527.1855203619909 L705.1764705882354,537.972850678733" stroke="yellow" stroke-width="2" fill="none" />
<path d="M732.1447963800906,527.1855203619909 L724.054298642534,527.1855203619909" stroke="yellow" stroke-width="2" fill="none" />
<path d="M732.1447963800906,537.972850678733 L732.1447963800906,527.1855203619909" stroke="yellow" stroke-width="2" fill="none" />
<path d="M724.054298642534,537.972850678733 L732.1447963800906,537.972850678733" stroke="yellow" stroke-width="2" fill="none" />
<path d="M724.054298642534,527.1855203619909 L724.054298642534,537.972850678733" stroke="yellow" stroke-width="2" fill="none" />
<path d="M786.081447963801,573.0316742081449 L764.5067873303168,573.0316742081449" stroke="yellow" stroke-width="2" fill="none" />
<path d="M937.1040723981902,573.0316742081449 L915.529411764706,573.0316742081449" stroke="yellow" stroke-width="2" fill="none" />
<path d="M769.9004524886878,532.579185520362 L780.68778280543,532.579185520362" stroke="yellow" stroke-width="2" fill="none" />
<path d="M920.923076923077,532.579185520362 L931.7104072398191,532.579185520362" stroke="yellow" stroke-width="2" fill="none" />
<path d="M742.9321266968327,651.239819004525 L699.7828054298643,608.0904977375566" stroke="yellow" stroke-width="2" fill="none" />
<path d="M440.88687782805437,694.3891402714933 L462.46153846153857,672.8144796380091" stroke="yellow" stroke-width="2" fill="none" />
<path d="M457.0678733031675,667.420814479638 L435.4932126696833,688.9954751131222" stroke="yellow" stroke-width="2" fill="none" />
<path d="M397.737556561086,672.8144796380091 L354.58823529411774,651.239819004525" stroke="yellow" stroke-width="2" fill="none" />
<path d="M419.3122171945702,759.1131221719457 L440.88687782805437,737.5384615384617" stroke="yellow" stroke-width="2" fill="none" />
<path d="M440.88687782805437,737.5384615384617 L440.88687782805437,715.9638009049775" stroke="yellow" stroke-width="2" fill="none" />
<path d="M419.3122171945702,715.9638009049775 L397.737556561086,737.5384615384617" stroke="yellow" stroke-width="2" fill="none" />
<path d="M354.58823529411774,672.8144796380091 L397.737556561086,694.3891402714933" stroke="lavender" stroke-width="2" fill="none" />
<path d="M591.9095022624435,715.9638009049775 L591.9095022624435,726.7511312217196" stroke="yellow" stroke-width="2" fill="none" />
<path d="M594.6063348416291,715.9638009049775 L594.6063348416291,726.7511312217196" stroke="yellow" stroke-width="2" fill="none" />
<path d="M866.9864253393666,764.5067873303168 L834.6244343891403,764.5067873303168" stroke="yellow" stroke-width="2" fill="none" />
<path d="M834.6244343891403,866.9864253393666 L866.9864253393666,866.9864253393666" stroke="yellow" stroke-width="2" fill="none" />
<path d="M866.9864253393666,861.5927601809956 L834.6244343891403,861.5927601809956" stroke="yellow" stroke-width="2" fill="none" />
<path d="M937.1040723981902,910.1357466063349 L937.1040723981902,953.2850678733032" stroke="yellow" stroke-width="2" fill="none" />
<path d="M834.6244343891403,823.8371040723982 L866.9864253393666,823.8371040723982" stroke="lavender" stroke-width="2" fill="none" />
<path d="M834.6244343891403,802.262443438914 L866.9864253393666,802.262443438914" stroke="yellow" stroke-width="2" fill="none" />
<path d="M1001.8280542986427,219.74660633484166 L1023.4027149321269,327.6199095022625" stroke="yellow" stroke-width="2" fill="none" />
<path d="M699.7828054298643,176.59728506787332 L764.5067873303168,155.02262443438917" stroke="yellow" stroke-width="2" fill="none" />
<path d="M872.3800904977377,875.0769230769231 L872.3800904977377,866.9864253393666" stroke="yellow" stroke-width="2" fill="none" />
<path d="M829.2307692307693,875.0769230769231 L872.3800904977377,875.0769230769231" stroke="yellow" stroke-width="2" fill="none" />
<path d="M829.2307692307693,866.9864253393666 L829.2307692307693,875.0769230769231" stroke="yellow" stroke-width="2" fill="none" />
<path d="M834.6244343891403,672.8144796380091 L866.9864253393666,672.8144796380091" stroke="yellow" stroke-width="2" fill="none" />
<path d="M866.9864253393666,667.420814479638 L834.6244343891403,667.420814479638" stroke="yellow" stroke-width="2" fill="none" />
<path d="M818.4434389140273,683.6018099547512 L883.1674208144798,683.6018099547512" stroke="yellow" stroke-width="2" fill="none" />
<path d="M883.1674208144798,683.6018099547512 L883.1674208144798,618.8778280542987" stroke="yellow" stroke-width="2" fill="none" />
<path d="M883.1674208144798,618.8778280542987 L818.4434389140273,618.8778280542987" stroke="yellow" stroke-width="2" fill="none" />
<path d="M818.4434389140273,618.8778280542987 L818.4434389140273,683.6018099547512" stroke="yellow" stroke-width="2" fill="none" />
<path d="M462.46153846153857,241.3212669683258 L462.46153846153857,284.47058823529414" stroke="lavender" stroke-width="2" fill="none" />
<path d="M462.46153846153857,521.7918552036199 L462.46153846153857,564.9411764705883" stroke="lavender" stroke-width="2" fill="none" />
<path d="M289.8642533936652,500.2171945701358 L289.8642533936652,457.06787330316746" stroke="lavender" stroke-width="2" fill="none" />
<path d="M289.8642533936652,349.19457013574663 L289.8642533936652,306.0452488687783" stroke="lavender" stroke-width="2" fill="none" />
<path d="M473.2488687782806,284.47058823529414 L473.2488687782806,241.3212669683258" stroke="lavender" stroke-width="2" fill="none" />
<path d="M473.2488687782806,564.9411764705883 L473.2488687782806,521.7918552036199" stroke="lavender" stroke-width="2" fill="none" />
<path d="M279.07692307692315,457.06787330316746 L279.07692307692315,500.2171945701358" stroke="lavender" stroke-width="2" fill="none" />
<path d="M279.07692307692315,306.0452488687783 L279.07692307692315,349.19457013574663" stroke="lavender" stroke-width="2" fill="none" />
<path d="M246.7149321266969,484.03619909502265 L246.7149321266969,473.24886877828055" stroke="yellow" stroke-width="2" fill="none" />
<path d="M246.7149321266969,333.01357466063354 L246.7149321266969,322.22624434389144" stroke="yellow" stroke-width="2" fill="none" />
<path d="M505.61085972850685,257.50226244343895 L505.61085972850685,268.289592760181" stroke="yellow" stroke-width="2" fill="none" />
<path d="M505.61085972850685,537.972850678733 L505.61085972850685,548.7601809954751" stroke="yellow" stroke-width="2" fill="none" />
<path d="M203.56561085972862,435.4932126696833 L203.56561085972862,370.76923076923083" stroke="lavender" stroke-width="2" fill="none" />
<path d="M289.8642533936652,435.4932126696833 L289.8642533936652,370.76923076923083" stroke="yellow" stroke-width="2" fill="none" />
<path d="M30.96832579185525,392.343891402715 L30.96832579185525,413.9185520361991" stroke="lavender" stroke-width="2" fill="none" />
<path d="M376.1628959276019,500.2171945701358 L376.1628959276019,435.4932126696833" stroke="yellow" stroke-width="2" fill="none" />
<path d="M376.1628959276019,435.4932126696833 L289.8642533936652,435.4932126696833" stroke="yellow" stroke-width="2" fill="none" />
<path d="M376.1628959276019,435.4932126696833 L376.1628959276019,370.76923076923083" stroke="yellow" stroke-width="2" fill="none" />
<path d="M376.1628959276019,370.76923076923083 L289.8642533936652,370.76923076923083" stroke="yellow" stroke-width="2" fill="none" />
<path d="M376.1628959276019,370.76923076923083 L376.1628959276019,306.0452488687783" stroke="yellow" stroke-width="2" fill="none" />
<path d="M376.1628959276019,306.0452488687783 L462.46153846153857,306.0452488687783" stroke="yellow" stroke-width="2" fill="none" />
<path d="M462.46153846153857,306.0452488687783 L462.46153846153857,370.76923076923083" stroke="yellow" stroke-width="2" fill="none" />
<path d="M462.46153846153857,370.76923076923083 L376.1628959276019,370.76923076923083" stroke="yellow" stroke-width="2" fill="none" />
<path d="M462.46153846153857,370.76923076923083 L462.46153846153857,392.343891402715" stroke="yellow" stroke-width="2" fill="none" />
<path d="M462.46153846153857,392.343891402715 L548.7601809954751,392.343891402715" stroke="yellow" stroke-width="2" fill="none" />
<path d="M548.7601809954751,392.343891402715 L548.7601809954751,413.9185520361991" stroke="yellow" stroke-width="2" fill="none" />
<path d="M548.7601809954751,413.9185520361991 L462.46153846153857,413.9185520361991" stroke="yellow" stroke-width="2" fill="none" />
<path d="M462.46153846153857,392.343891402715 L462.46153846153857,413.9185520361991" stroke="yellow" stroke-width="2" fill="none" />
<path d="M462.46153846153857,413.9185520361991 L462.46153846153857,435.4932126696833" stroke="yellow" stroke-width="2" fill="none" />
<path d="M462.46153846153857,435.4932126696833 L376.1628959276019,435.4932126696833" stroke="yellow" stroke-width="2" fill="none" />
<path d="M462.46153846153857,435.4932126696833 L462.46153846153857,500.2171945701358" stroke="yellow" stroke-width="2" fill="none" />
<path d="M462.46153846153857,500.2171945701358 L376.1628959276019,500.2171945701358" stroke="yellow" stroke-width="2" fill="none" />
<path d="M9.39366515837105,408.52488687782807 L9.39366515837105,397.73755656108597" stroke="yellow" stroke-width="2" fill="none" />
<path d="M915.529411764706,974.8597285067874 L893.9547511312219,974.8597285067874" stroke="yellow" stroke-width="2" fill="none" />
<path d="M893.9547511312219,974.8597285067874 L872.3800904977377,953.2850678733032" stroke="yellow" stroke-width="2" fill="none" />
<path d="M872.3800904977377,953.2850678733032 L829.2307692307693,953.2850678733032" stroke="yellow" stroke-width="2" fill="none" />
<path d="M829.2307692307693,953.2850678733032 L807.6561085972852,974.8597285067874" stroke="yellow" stroke-width="2" fill="none" />
<path d="M807.6561085972852,974.8597285067874 L786.081447963801,974.8597285067874" stroke="yellow" stroke-width="2" fill="none" />
<path d="M802.2624434389141,764.5067873303168 L794.1719457013576,764.5067873303168" stroke="yellow" stroke-width="2" fill="none" />
<path d="M802.2624434389141,775.2941176470589 L802.2624434389141,764.5067873303168" stroke="yellow" stroke-width="2" fill="none" />
<path d="M794.1719457013576,775.2941176470589 L802.2624434389141,775.2941176470589" stroke="yellow" stroke-width="2" fill="none" />
<path d="M794.1719457013576,764.5067873303168 L794.1719457013576,775.2941176470589" stroke="yellow" stroke-width="2" fill="none" />
<path d="M821.1402714932128,764.5067873303168 L813.0497737556562,764.5067873303168" stroke="yellow" stroke-width="2" fill="none" />
<path d="M813.0497737556562,764.5067873303168 L813.0497737556562,775.2941176470589" stroke="yellow" stroke-width="2" fill="none" />
<path d="M888.5610859728508,764.5067873303168 L880.4705882352943,764.5067873303168" stroke="yellow" stroke-width="2" fill="none" />
<path d="M888.5610859728508,775.2941176470589 L888.5610859728508,764.5067873303168" stroke="yellow" stroke-width="2" fill="none" />
<path d="M880.4705882352943,775.2941176470589 L888.5610859728508,775.2941176470589" stroke="yellow" stroke-width="2" fill="none" />
<path d="M880.4705882352943,764.5067873303168 L880.4705882352943,775.2941176470589" stroke="yellow" stroke-width="2" fill="none" />
<path d="M907.4389140271494,764.5067873303168 L899.3484162895929,764.5067873303168" stroke="yellow" stroke-width="2" fill="none" />
<path d="M907.4389140271494,775.2941176470589 L907.4389140271494,764.5067873303168" stroke="yellow" stroke-width="2" fill="none" />
<path d="M899.3484162895929,775.2941176470589 L907.4389140271494,775.2941176470589" stroke="yellow" stroke-width="2" fill="none" />
<path d="M899.3484162895929,764.5067873303168 L899.3484162895929,775.2941176470589" stroke="yellow" stroke-width="2" fill="none" />
<path d="M821.1402714932128,775.2941176470589 L821.1402714932128,764.5067873303168" stroke="yellow" stroke-width="2" fill="none" />
<path d="M813.0497737556562,775.2941176470589 L821.1402714932128,775.2941176470589" stroke="yellow" stroke-width="2" fill="none" />
<path d="M1066.5520361990953,564.9411764705883 L1023.4027149321269,608.0904977375566" stroke="yellow" stroke-width="2" fill="none" />
<path d="M1169.031674208145,664.7239819004526 L1169.031674208145,643.1493212669684" stroke="lavender" stroke-width="2" fill="none" />
<path d="M1120.4886877828055,594.606334841629 L1098.9140271493213,594.606334841629" stroke="lavender" stroke-width="2" fill="none" />
<path d="M1050.3710407239819,643.1493212669684 L1050.3710407239819,664.7239819004526" stroke="lavender" stroke-width="2" fill="none" />
<path d="M1120.4886877828055,591.9095022624435 L1098.9140271493213,591.9095022624435" stroke="yellow" stroke-width="2" fill="none" />
<path d="M1047.6742081447965,643.1493212669684 L1047.6742081447965,664.7239819004526" stroke="yellow" stroke-width="2" fill="none" />
<path d="M1171.7285067873304,664.7239819004526 L1171.7285067873304,643.1493212669684" stroke="yellow" stroke-width="2" fill="none" />
<path d="M861.5927601809956,403.131221719457 L840.0180995475114,403.131221719457" stroke="lavender" stroke-width="2" fill="none" />
<path d="M858.8959276018101,424.7058823529412 L850.8054298642535,413.9185520361991" stroke="yellow" stroke-width="2" fill="none" />
<path d="M853.502262443439,424.7058823529412 L858.8959276018101,424.7058823529412" stroke="yellow" stroke-width="2" fill="none" />
<path d="M853.502262443439,435.4932126696833 L853.502262443439,424.7058823529412" stroke="yellow" stroke-width="2" fill="none" />
<path d="M848.108597285068,435.4932126696833 L853.502262443439,435.4932126696833" stroke="yellow" stroke-width="2" fill="none" />
<path d="M848.108597285068,424.7058823529412 L848.108597285068,435.4932126696833" stroke="yellow" stroke-width="2" fill="none" />
<path d="M842.7149321266969,424.7058823529412 L848.108597285068,424.7058823529412" stroke="yellow" stroke-width="2" fill="none" />
<path d="M850.8054298642535,413.9185520361991 L842.7149321266969,424.7058823529412" stroke="yellow" stroke-width="2" fill="none" />
<path d="M1082.7330316742082,349.19457013574663 L1071.945701357466,349.19457013574663" stroke="yellow" stroke-width="2" fill="none" />
<path d="M740.2352941176472,138.84162895927602 L724.054298642534,138.84162895927602" stroke="yellow" stroke-width="2" fill="none" />
<path d="M740.2352941176472,149.62895927601812 L740.2352941176472,138.84162895927602" stroke="yellow" stroke-width="2" fill="none" />
<path d="M724.054298642534,149.62895927601812 L740.2352941176472,149.62895927601812" stroke="yellow" stroke-width="2" fill="none" />
<path d="M724.054298642534,138.84162895927602 L724.054298642534,149.62895927601812" stroke="yellow" stroke-width="2" fill="none" />
<path d="M761.8099547511313,138.84162895927602 L745.6289592760182,138.84162895927602" stroke="yellow" stroke-width="2" fill="none" />
<path d="M761.8099547511313,149.62895927601812 L761.8099547511313,138.84162895927602" stroke="yellow" stroke-width="2" fill="none" />
<path d="M745.6289592760182,149.62895927601812 L761.8099547511313,149.62895927601812" stroke="yellow" stroke-width="2" fill="none" />
<path d="M745.6289592760182,138.84162895927602 L745.6289592760182,149.62895927601812" stroke="yellow" stroke-width="2" fill="none" />
<path d="M718.660633484163,138.84162895927602 L702.4796380090498,138.84162895927602" stroke="yellow" stroke-width="2" fill="none" />
<path d="M718.660633484163,149.62895927601812 L718.660633484163,138.84162895927602" stroke="yellow" stroke-width="2" fill="none" />
<path d="M702.4796380090498,149.62895927601812 L718.660633484163,149.62895927601812" stroke="yellow" stroke-width="2" fill="none" />
<path d="M702.4796380090498,138.84162895927602 L702.4796380090498,149.62895927601812" stroke="yellow" stroke-width="2" fill="none" />
<path d="M829.2307692307693,47.149321266968286 L829.2307692307693,68.72398190045249" stroke="yellow" stroke-width="2" fill="none" />
<path d="M829.2307692307693,68.72398190045249 L850.8054298642535,68.72398190045249" stroke="yellow" stroke-width="2" fill="none" />
<path d="M850.8054298642535,68.72398190045249 L850.8054298642535,47.149321266968286" stroke="yellow" stroke-width="2" fill="none" />
<path d="M850.8054298642535,47.149321266968286 L829.2307692307693,47.149321266968286" stroke="yellow" stroke-width="2" fill="none" />
<path d="M840.0180995475114,66.02714932126696 L834.6244343891403,63.330316742081436" stroke="yellow" stroke-width="2" fill="none" />
<path d="M834.6244343891403,63.330316742081436 L831.9276018099548,57.936651583710386" stroke="yellow" stroke-width="2" fill="none" />
<path d="M831.9276018099548,57.936651583710386 L834.6244343891403,52.542986425339336" stroke="yellow" stroke-width="2" fill="none" />
<path d="M834.6244343891403,52.542986425339336 L840.0180995475114,49.84615384615381" stroke="yellow" stroke-width="2" fill="none" />
<path d="M840.0180995475114,49.84615384615381 L845.4117647058824,52.542986425339336" stroke="yellow" stroke-width="2" fill="none" />
<path d="M845.4117647058824,52.542986425339336 L848.108597285068,57.936651583710386" stroke="yellow" stroke-width="2" fill="none" />
<path d="M848.108597285068,57.936651583710386 L845.4117647058824,63.330316742081436" stroke="yellow" stroke-width="2" fill="none" />
<path d="M845.4117647058824,63.330316742081436 L840.0180995475114,66.02714932126696" stroke="yellow" stroke-width="2" fill="none" />
<path d="M829.2307692307693,90.29864253393669 L829.2307692307693,111.87330316742089" stroke="yellow" stroke-width="2" fill="none" />
<path d="M829.2307692307693,111.87330316742089 L850.8054298642535,111.87330316742089" stroke="yellow" stroke-width="2" fill="none" />
<path d="M850.8054298642535,111.87330316742089 L850.8054298642535,90.29864253393669" stroke="yellow" stroke-width="2" fill="none" />
<path d="M850.8054298642535,90.29864253393669 L829.2307692307693,90.29864253393669" stroke="yellow" stroke-width="2" fill="none" />
<path d="M840.0180995475114,109.17647058823536 L834.6244343891403,106.47963800904984" stroke="lavender" stroke-width="2" fill="none" />
<path d="M834.6244343891403,106.47963800904984 L831.9276018099548,101.08597285067879" stroke="lavender" stroke-width="2" fill="none" />
<path d="M831.9276018099548,101.08597285067879 L834.6244343891403,95.69230769230774" stroke="lavender" stroke-width="2" fill="none" />
<path d="M834.6244343891403,95.69230769230774 L840.0180995475114,92.99547511312221" stroke="lavender" stroke-width="2" fill="none" />
<path d="M840.0180995475114,92.99547511312221 L845.4117647058824,95.69230769230774" stroke="lavender" stroke-width="2" fill="none" />
<path d="M845.4117647058824,95.69230769230774 L848.108597285068,101.08597285067879" stroke="lavender" stroke-width="2" fill="none" />
<path d="M848.108597285068,101.08597285067879 L845.4117647058824,106.47963800904984" stroke="lavender" stroke-width="2" fill="none" />
<path d="M845.4117647058824,106.47963800904984 L840.0180995475114,109.17647058823536" stroke="lavender" stroke-width="2" fill="none" />
<path d="M635.0588235294118,392.343891402715 L635.0588235294118,413.9185520361991" stroke="yellow" stroke-width="2" fill="none" />
<path d="M635.0588235294118,413.9185520361991 L656.633484162896,413.9185520361991" stroke="yellow" stroke-width="2" fill="none" />
<path d="M656.633484162896,413.9185520361991 L656.633484162896,392.343891402715" stroke="yellow" stroke-width="2" fill="none" />
<path d="M656.633484162896,392.343891402715 L635.0588235294118,392.343891402715" stroke="yellow" stroke-width="2" fill="none" />
<path d="M645.8461538461539,411.2217194570136 L640.4524886877829,408.52488687782807" stroke="yellow" stroke-width="2" fill="none" />
<path d="M640.4524886877829,408.52488687782807 L637.7556561085973,403.131221719457" stroke="yellow" stroke-width="2" fill="none" />
<path d="M637.7556561085973,403.131221719457 L640.4524886877829,397.73755656108597" stroke="yellow" stroke-width="2" fill="none" />
<path d="M640.4524886877829,397.73755656108597 L645.8461538461539,395.0407239819005" stroke="yellow" stroke-width="2" fill="none" />
<path d="M645.8461538461539,395.0407239819005 L651.239819004525,397.73755656108597" stroke="yellow" stroke-width="2" fill="none" />
<path d="M651.239819004525,397.73755656108597 L653.9366515837105,403.131221719457" stroke="yellow" stroke-width="2" fill="none" />
<path d="M653.9366515837105,403.131221719457 L651.239819004525,408.52488687782807" stroke="yellow" stroke-width="2" fill="none" />
<path d="M651.239819004525,408.52488687782807 L645.8461538461539,411.2217194570136" stroke="yellow" stroke-width="2" fill="none" />
<path d="M30.96832579185525,457.06787330316746 L30.96832579185525,478.6425339366516" stroke="yellow" stroke-width="2" fill="none" />
<path d="M30.96832579185525,478.6425339366516 L52.54298642533945,478.6425339366516" stroke="yellow" stroke-width="2" fill="none" />
<path d="M52.54298642533945,478.6425339366516 L52.54298642533945,457.06787330316746" stroke="yellow" stroke-width="2" fill="none" />
<path d="M52.54298642533945,457.06787330316746 L30.96832579185525,457.06787330316746" stroke="yellow" stroke-width="2" fill="none" />
<path d="M41.75565610859735,475.9457013574661 L36.3619909502263,473.24886877828055" stroke="lavender" stroke-width="2" fill="none" />
<path d="M36.3619909502263,473.24886877828055 L33.665158371040775,467.8552036199095" stroke="lavender" stroke-width="2" fill="none" />
<path d="M33.665158371040775,467.8552036199095 L36.3619909502263,462.4615384615385" stroke="lavender" stroke-width="2" fill="none" />
<path d="M36.3619909502263,462.4615384615385 L41.75565610859735,459.764705882353" stroke="lavender" stroke-width="2" fill="none" />
<path d="M41.75565610859735,459.764705882353 L47.1493212669684,462.4615384615385" stroke="lavender" stroke-width="2" fill="none" />
<path d="M47.1493212669684,462.4615384615385 L49.846153846153925,467.8552036199095" stroke="lavender" stroke-width="2" fill="none" />
<path d="M49.846153846153925,467.8552036199095 L47.1493212669684,473.24886877828055" stroke="lavender" stroke-width="2" fill="none" />
<path d="M47.1493212669684,473.24886877828055 L41.75565610859735,475.9457013574661" stroke="lavender" stroke-width="2" fill="none" />
<path d="M635.0588235294118,327.6199095022625 L635.0588235294118,349.19457013574663" stroke="lavender" stroke-width="2" fill="none" />
<path d="M613.4841628959277,349.19457013574663 L613.4841628959277,327.6199095022625" stroke="yellow" stroke-width="2" fill="none" />
<path d="M52.54298642533945,435.4932126696833 L30.96832579185525,435.4932126696833" stroke="yellow" stroke-width="2" fill="none" />
<path d="M30.96832579185525,440.88687782805437 L52.54298642533945,440.88687782805437" stroke="yellow" stroke-width="2" fill="none" />
<path d="M872.3800904977377,996.4343891402716 L829.2307692307693,996.4343891402716" stroke="yellow" stroke-width="2" fill="none" />
<path d="M829.2307692307693,1001.8280542986427 L872.3800904977377,1001.8280542986427" stroke="yellow" stroke-width="2" fill="none" />
<path d="M964.0723981900453,953.2850678733032 L964.0723981900453,910.1357466063349" stroke="yellow" stroke-width="2" fill="none" />
<path d="M829.2307692307693,1018.0090497737558 L872.3800904977377,1018.0090497737558" stroke="yellow" stroke-width="2" fill="none" />
<path d="M850.8054298642535,1039.5837104072398 L866.9864253393666,1044.977375565611" stroke="lavender" stroke-width="2" fill="none" />
<path d="M866.9864253393666,1044.977375565611 L872.3800904977377,1061.158371040724" stroke="lavender" stroke-width="2" fill="none" />
<path d="M872.3800904977377,1061.158371040724 L866.9864253393666,1077.3393665158371" stroke="lavender" stroke-width="2" fill="none" />
<path d="M866.9864253393666,1077.3393665158371 L850.8054298642535,1082.7330316742082" stroke="lavender" stroke-width="2" fill="none" />
<path d="M850.8054298642535,1082.7330316742082 L834.6244343891403,1077.3393665158371" stroke="lavender" stroke-width="2" fill="none" />
<path d="M834.6244343891403,1077.3393665158371 L829.2307692307693,1061.158371040724" stroke="lavender" stroke-width="2" fill="none" />
<path d="M829.2307692307693,1061.158371040724 L834.6244343891403,1044.977375565611" stroke="lavender" stroke-width="2" fill="none" />
<path d="M834.6244343891403,1044.977375565611 L850.8054298642535,1039.5837104072398" stroke="lavender" stroke-width="2" fill="none" />
<path d="M591.9095022624435,635.0588235294118 L591.9095022624435,624.2714932126697" stroke="yellow" stroke-width="2" fill="none" />
<path d="M915.529411764706,888.5610859728507 L937.1040723981902,910.1357466063349" stroke="red" stroke-width="2" fill="none" />
<path d="M937.1040723981902,910.1357466063349 L958.6787330316743,910.1357466063349" stroke="red" stroke-width="2" fill="none" />
<path d="M958.6787330316743,953.2850678733032 L937.1040723981902,953.2850678733032" stroke="red" stroke-width="2" fill="none" />
<path d="M937.1040723981902,953.2850678733032 L915.529411764706,953.2850678733032" stroke="red" stroke-width="2" fill="none" />
<path d="M915.529411764706,953.2850678733032 L915.529411764706,974.8597285067874" stroke="red" stroke-width="2" fill="none" />
<path d="M915.529411764706,974.8597285067874 L893.9547511312219,996.4343891402716" stroke="red" stroke-width="2" fill="none" />
<path d="M807.6561085972852,996.4343891402716 L786.081447963801,974.8597285067874" stroke="red" stroke-width="2" fill="none" />
<path d="M786.081447963801,974.8597285067874 L786.081447963801,953.2850678733032" stroke="red" stroke-width="2" fill="none" />
<path d="M786.081447963801,953.2850678733032 L764.5067873303168,931.710407239819" stroke="red" stroke-width="2" fill="none" />
<path d="M764.5067873303168,910.1357466063349 L786.081447963801,888.5610859728507" stroke="red" stroke-width="2" fill="none" />
<path d="M699.7828054298643,176.59728506787332 L699.7828054298643,133.44796380090497" stroke="red" stroke-width="2" fill="none" />
<path d="M764.5067873303168,133.44796380090497 L764.5067873303168,155.02262443438917" stroke="red" stroke-width="2" fill="none" />
<path d="M764.5067873303168,155.02262443438917 L850.8054298642535,198.17194570135746" stroke="red" stroke-width="2" fill="none" />
<path d="M850.8054298642535,198.17194570135746 L937.1040723981902,111.87330316742089" stroke="red" stroke-width="2" fill="none" />
<path d="M937.1040723981902,111.87330316742089 L980.2533936651585,133.44796380090497" stroke="red" stroke-width="2" fill="none" />
<path d="M980.2533936651585,133.44796380090497 L958.6787330316743,176.59728506787332" stroke="red" stroke-width="2" fill="none" />
<path d="M958.6787330316743,176.59728506787332 L1001.8280542986427,219.74660633484166" stroke="red" stroke-width="2" fill="none" />
<path d="M1001.8280542986427,219.74660633484166 L1066.5520361990953,219.74660633484166" stroke="red" stroke-width="2" fill="none" />
<path d="M1066.5520361990953,219.74660633484166 L1109.7013574660634,284.47058823529414" stroke="red" stroke-width="2" fill="none" />
<path d="M613.4841628959277,219.74660633484166 L699.7828054298643,176.59728506787332" stroke="red" stroke-width="2" fill="none" />
<path d="M613.4841628959277,327.6199095022625 L613.4841628959277,219.74660633484166" stroke="red" stroke-width="2" fill="none" />
<path d="M548.7601809954751,392.343891402715 L570.3348416289593,392.343891402715" stroke="red" stroke-width="2" fill="none" />
<path d="M548.7601809954751,306.0452488687783 L548.7601809954751,392.343891402715" stroke="red" stroke-width="2" fill="none" />
<path d="M635.0588235294118,478.6425339366516 L678.2081447963802,435.4932126696833" stroke="red" stroke-width="2" fill="none" />
<path d="M786.081447963801,780.68778280543 L786.081447963801,737.5384615384617" stroke="red" stroke-width="2" fill="none" />
<path d="M786.081447963801,802.262443438914 L786.081447963801,780.68778280543" stroke="red" stroke-width="2" fill="none" />
<path d="M786.081447963801,823.8371040723982 L786.081447963801,802.262443438914" stroke="red" stroke-width="2" fill="none" />
<path d="M786.081447963801,845.4117647058824 L786.081447963801,823.8371040723982" stroke="red" stroke-width="2" fill="none" />
<path d="M786.081447963801,888.5610859728507 L786.081447963801,845.4117647058824" stroke="red" stroke-width="2" fill="none" />
<path d="M915.529411764706,737.5384615384617 L915.529411764706,780.68778280543" stroke="red" stroke-width="2" fill="none" />
<path d="M915.529411764706,780.68778280543 L915.529411764706,802.262443438914" stroke="red" stroke-width="2" fill="none" />
<path d="M915.529411764706,802.262443438914 L915.529411764706,823.8371040723982" stroke="red" stroke-width="2" fill="none" />
<path d="M915.529411764706,823.8371040723982 L915.529411764706,845.4117647058824" stroke="red" stroke-width="2" fill="none" />
<path d="M915.529411764706,845.4117647058824 L915.529411764706,888.5610859728507" stroke="red" stroke-width="2" fill="none" />
<path d="M829.2307692307693,759.1131221719457 L829.2307692307693,780.68778280543" stroke="red" stroke-width="2" fill="none" />
<path d="M829.2307692307693,780.68778280543 L829.2307692307693,802.262443438914" stroke="red" stroke-width="2" fill="none" />
<path d="M829.2307692307693,802.262443438914 L829.2307692307693,823.8371040723982" stroke="red" stroke-width="2" fill="none" />
<path d="M829.2307692307693,823.8371040723982 L829.2307692307693,845.4117647058824" stroke="red" stroke-width="2" fill="none" />
<path d="M829.2307692307693,845.4117647058824 L829.2307692307693,866.9864253393666" stroke="red" stroke-width="2" fill="none" />
<path d="M872.3800904977377,866.9864253393666 L872.3800904977377,845.4117647058824" stroke="red" stroke-width="2" fill="none" />
<path d="M872.3800904977377,845.4117647058824 L872.3800904977377,823.8371040723982" stroke="red" stroke-width="2" fill="none" />
<path d="M872.3800904977377,823.8371040723982 L872.3800904977377,802.262443438914" stroke="red" stroke-width="2" fill="none" />
<path d="M872.3800904977377,802.262443438914 L872.3800904977377,780.68778280543" stroke="red" stroke-width="2" fill="none" />
<path d="M872.3800904977377,780.68778280543 L872.3800904977377,759.1131221719457" stroke="red" stroke-width="2" fill="none" />
<path d="M699.7828054298643,737.5384615384617 L699.7828054298643,672.8144796380091" stroke="red" stroke-width="2" fill="none" />
<path d="M786.081447963801,737.5384615384617 L764.5067873303168,737.5384615384617" stroke="red" stroke-width="2" fill="none" />
<path d="M764.5067873303168,737.5384615384617 L699.7828054298643,737.5384615384617" stroke="red" stroke-width="2" fill="none" />
<path d="M786.081447963801,435.4932126696833 L764.5067873303168,457.06787330316746" stroke="red" stroke-width="2" fill="none" />
<path d="M807.6561085972852,457.06787330316746 L786.081447963801,435.4932126696833" stroke="red" stroke-width="2" fill="none" />
<path d="M796.8687782805431,583.819004524887 L807.6561085972852,564.9411764705883" stroke="red" stroke-width="2" fill="none" />
<path d="M742.9321266968327,564.9411764705883 L753.7194570135748,583.819004524887" stroke="red" stroke-width="2" fill="none" />
<path d="M915.529411764706,435.4932126696833 L893.9547511312219,457.06787330316746" stroke="red" stroke-width="2" fill="none" />
<path d="M937.1040723981902,457.06787330316746 L915.529411764706,435.4932126696833" stroke="red" stroke-width="2" fill="none" />
<path d="M893.9547511312219,564.9411764705883 L904.7420814479639,583.819004524887" stroke="red" stroke-width="2" fill="none" />
<path d="M699.7828054298643,672.8144796380091 L699.7828054298643,651.239819004525" stroke="red" stroke-width="2" fill="none" />
<path d="M699.7828054298643,651.239819004525 L694.3891402714933,651.239819004525" stroke="red" stroke-width="2" fill="none" />
<path d="M694.3891402714933,651.239819004525 L678.2081447963802,651.239819004525" stroke="red" stroke-width="2" fill="none" />
<path d="M678.2081447963802,651.239819004525 L656.633484162896,672.8144796380091" stroke="red" stroke-width="2" fill="none" />
<path d="M656.633484162896,672.8144796380091 L613.4841628959277,672.8144796380091" stroke="red" stroke-width="2" fill="none" />
<path d="M613.4841628959277,672.8144796380091 L591.9095022624435,635.0588235294118" stroke="red" stroke-width="2" fill="none" />
<path d="M591.9095022624435,624.2714932126697 L613.4841628959277,586.5158371040725" stroke="red" stroke-width="2" fill="none" />
<path d="M613.4841628959277,586.5158371040725 L656.633484162896,586.5158371040725" stroke="red" stroke-width="2" fill="none" />
<path d="M656.633484162896,586.5158371040725 L678.2081447963802,608.0904977375566" stroke="red" stroke-width="2" fill="none" />
<path d="M678.2081447963802,608.0904977375566 L694.3891402714933,608.0904977375566" stroke="red" stroke-width="2" fill="none" />
<path d="M694.3891402714933,608.0904977375566 L699.7828054298643,608.0904977375566" stroke="red" stroke-width="2" fill="none" />
<path d="M656.633484162896,543.3665158371041 L656.633484162896,521.7918552036199" stroke="red" stroke-width="2" fill="none" />
<path d="M656.633484162896,521.7918552036199 L635.0588235294118,500.2171945701358" stroke="red" stroke-width="2" fill="none" />
<path d="M635.0588235294118,500.2171945701358 L635.0588235294118,478.6425339366516" stroke="red" stroke-width="2" fill="none" />
<path d="M764.5067873303168,500.2171945701358 L742.9321266968327,521.7918552036199" stroke="red" stroke-width="2" fill="none" />
<path d="M742.9321266968327,521.7918552036199 L742.9321266968327,543.3665158371041" stroke="red" stroke-width="2" fill="none" />
<path d="M742.9321266968327,543.3665158371041 L742.9321266968327,564.9411764705883" stroke="red" stroke-width="2" fill="none" />
<path d="M807.6561085972852,521.7918552036199 L807.6561085972852,457.06787330316746" stroke="red" stroke-width="2" fill="none" />
<path d="M807.6561085972852,564.9411764705883 L807.6561085972852,521.7918552036199" stroke="red" stroke-width="2" fill="none" />
<path d="M893.9547511312219,457.06787330316746 L893.9547511312219,521.7918552036199" stroke="red" stroke-width="2" fill="none" />
<path d="M893.9547511312219,521.7918552036199 L893.9547511312219,564.9411764705883" stroke="red" stroke-width="2" fill="none" />
<path d="M958.6787330316743,543.3665158371041 L958.6787330316743,521.7918552036199" stroke="red" stroke-width="2" fill="none" />
<path d="M1044.977375565611,521.7918552036199 L1044.977375565611,543.3665158371041" stroke="red" stroke-width="2" fill="none" />
<path d="M753.7194570135748,583.819004524887 L764.5067873303168,573.0316742081449" stroke="red" stroke-width="2" fill="none" />
<path d="M764.5067873303168,573.0316742081449 L753.7194570135748,543.3665158371041" stroke="red" stroke-width="2" fill="none" />
<path d="M796.8687782805431,543.3665158371041 L786.081447963801,573.0316742081449" stroke="red" stroke-width="2" fill="none" />
<path d="M786.081447963801,573.0316742081449 L796.8687782805431,583.819004524887" stroke="red" stroke-width="2" fill="none" />
<path d="M1066.5520361990953,349.19457013574663 L1023.4027149321269,327.6199095022625" stroke="red" stroke-width="2" fill="none" />
<path d="M1023.4027149321269,327.6199095022625 L980.2533936651585,370.76923076923083" stroke="red" stroke-width="2" fill="none" />
<path d="M980.2533936651585,370.76923076923083 L980.2533936651585,413.9185520361991" stroke="red" stroke-width="2" fill="none" />
<path d="M980.2533936651585,413.9185520361991 L937.1040723981902,457.06787330316746" stroke="red" stroke-width="2" fill="none" />
<path d="M764.5067873303168,478.6425339366516 L764.5067873303168,500.2171945701358" stroke="red" stroke-width="2" fill="none" />
<path d="M721.3574660633485,435.4932126696833 L764.5067873303168,478.6425339366516" stroke="red" stroke-width="2" fill="none" />
<path d="M678.2081447963802,435.4932126696833 L721.3574660633485,435.4932126696833" stroke="red" stroke-width="2" fill="none" />
<path d="M764.5067873303168,457.06787330316746 L721.3574660633485,413.9185520361991" stroke="red" stroke-width="2" fill="none" />
<path d="M721.3574660633485,413.9185520361991 L678.2081447963802,306.0452488687783" stroke="red" stroke-width="2" fill="none" />
<path d="M591.9095022624435,413.9185520361991 L548.7601809954751,413.9185520361991" stroke="red" stroke-width="2" fill="none" />
<path d="M548.7601809954751,413.9185520361991 L548.7601809954751,500.2171945701358" stroke="red" stroke-width="2" fill="none" />
<path d="M1001.8280542986427,672.8144796380091 L1001.8280542986427,737.5384615384617" stroke="red" stroke-width="2" fill="none" />
<path d="M1001.8280542986427,608.0904977375566 L1001.8280542986427,672.8144796380091" stroke="red" stroke-width="2" fill="none" />
<path d="M937.1040723981902,737.5384615384617 L915.529411764706,737.5384615384617" stroke="red" stroke-width="2" fill="none" />
<path d="M1001.8280542986427,737.5384615384617 L937.1040723981902,737.5384615384617" stroke="red" stroke-width="2" fill="none" />
<path d="M904.7420814479639,583.819004524887 L915.529411764706,573.0316742081449" stroke="red" stroke-width="2" fill="none" />
<path d="M915.529411764706,573.0316742081449 L904.7420814479639,543.3665158371041" stroke="red" stroke-width="2" fill="none" />
<path d="M947.8914027149323,543.3665158371041 L937.1040723981902,573.0316742081449" stroke="red" stroke-width="2" fill="none" />
<path d="M937.1040723981902,573.0316742081449 L947.8914027149323,583.819004524887" stroke="red" stroke-width="2" fill="none" />
<path d="M753.7194570135748,910.1357466063349 L764.5067873303168,910.1357466063349" stroke="red" stroke-width="2" fill="none" />
<path d="M742.9321266968327,910.1357466063349 L753.7194570135748,910.1357466063349" stroke="red" stroke-width="2" fill="none" />
<path d="M732.1447963800906,910.1357466063349 L742.9321266968327,910.1357466063349" stroke="red" stroke-width="2" fill="none" />
<path d="M721.3574660633485,910.1357466063349 L732.1447963800906,910.1357466063349" stroke="red" stroke-width="2" fill="none" />
<path d="M710.5701357466064,910.1357466063349 L721.3574660633485,910.1357466063349" stroke="red" stroke-width="2" fill="none" />
<path d="M699.7828054298643,910.1357466063349 L710.5701357466064,910.1357466063349" stroke="red" stroke-width="2" fill="none" />
<path d="M656.633484162896,910.1357466063349 L699.7828054298643,910.1357466063349" stroke="red" stroke-width="2" fill="none" />
<path d="M635.0588235294118,888.5610859728507 L656.633484162896,910.1357466063349" stroke="red" stroke-width="2" fill="none" />
<path d="M635.0588235294118,802.262443438914 L635.0588235294118,888.5610859728507" stroke="red" stroke-width="2" fill="none" />
<path d="M591.9095022624435,759.1131221719457 L635.0588235294118,802.262443438914" stroke="red" stroke-width="2" fill="none" />
<path d="M591.9095022624435,726.7511312217196 L591.9095022624435,759.1131221719457" stroke="red" stroke-width="2" fill="none" />
<path d="M505.61085972850685,629.6651583710408 L591.9095022624435,715.9638009049775" stroke="red" stroke-width="2" fill="none" />
<path d="M462.46153846153857,672.8144796380091 L505.61085972850685,629.6651583710408" stroke="red" stroke-width="2" fill="none" />
<path d="M440.88687782805437,715.9638009049775 L440.88687782805437,694.3891402714933" stroke="red" stroke-width="2" fill="none" />
<path d="M376.1628959276019,802.262443438914 L419.3122171945702,759.1131221719457" stroke="red" stroke-width="2" fill="none" />
<path d="M505.61085972850685,931.710407239819 L376.1628959276019,802.262443438914" stroke="red" stroke-width="2" fill="none" />
<path d="M527.185520361991,910.1357466063349 L505.61085972850685,931.710407239819" stroke="red" stroke-width="2" fill="none" />
<path d="M613.4841628959277,910.1357466063349 L527.185520361991,910.1357466063349" stroke="red" stroke-width="2" fill="none" />
<path d="M635.0588235294118,931.710407239819 L613.4841628959277,910.1357466063349" stroke="red" stroke-width="2" fill="none" />
<path d="M699.7828054298643,931.710407239819 L635.0588235294118,931.710407239819" stroke="red" stroke-width="2" fill="none" />
<path d="M710.5701357466064,931.710407239819 L699.7828054298643,931.710407239819" stroke="red" stroke-width="2" fill="none" />
<path d="M721.3574660633485,931.710407239819 L710.5701357466064,931.710407239819" stroke="red" stroke-width="2" fill="none" />
<path d="M732.1447963800906,931.710407239819 L721.3574660633485,931.710407239819" stroke="red" stroke-width="2" fill="none" />
<path d="M742.9321266968327,931.710407239819 L732.1447963800906,931.710407239819" stroke="red" stroke-width="2" fill="none" />
<path d="M753.7194570135748,931.710407239819 L742.9321266968327,931.710407239819" stroke="red" stroke-width="2" fill="none" />
<path d="M764.5067873303168,931.710407239819 L753.7194570135748,931.710407239819" stroke="red" stroke-width="2" fill="none" />
<path d="M699.7828054298643,608.0904977375566 L699.7828054298643,586.5158371040725" stroke="red" stroke-width="2" fill="none" />
<path d="M699.7828054298643,586.5158371040725 L656.633484162896,564.9411764705883" stroke="red" stroke-width="2" fill="none" />
<path d="M656.633484162896,564.9411764705883 L656.633484162896,543.3665158371041" stroke="red" stroke-width="2" fill="none" />
<path d="M947.8914027149323,583.819004524887 L958.6787330316743,564.9411764705883" stroke="red" stroke-width="2" fill="none" />
<path d="M958.6787330316743,564.9411764705883 L958.6787330316743,543.3665158371041" stroke="red" stroke-width="2" fill="none" />
<path d="M1044.977375565611,543.3665158371041 L1066.5520361990953,564.9411764705883" stroke="red" stroke-width="2" fill="none" />
<path d="M1023.4027149321269,608.0904977375566 L1001.8280542986427,608.0904977375566" stroke="red" stroke-width="2" fill="none" />
<path d="M937.1040723981902,478.6425339366516 L980.2533936651585,435.4932126696833" stroke="red" stroke-width="2" fill="none" />
<path d="M958.6787330316743,521.7918552036199 L937.1040723981902,500.2171945701358" stroke="red" stroke-width="2" fill="none" />
<path d="M937.1040723981902,500.2171945701358 L937.1040723981902,478.6425339366516" stroke="red" stroke-width="2" fill="none" />
<path d="M1066.5520361990953,500.2171945701358 L1044.977375565611,521.7918552036199" stroke="red" stroke-width="2" fill="none" />
<path d="M1066.5520361990953,478.6425339366516 L1066.5520361990953,500.2171945701358" stroke="red" stroke-width="2" fill="none" />
<path d="M1023.4027149321269,435.4932126696833 L1066.5520361990953,478.6425339366516" stroke="red" stroke-width="2" fill="none" />
<path d="M980.2533936651585,435.4932126696833 L1023.4027149321269,435.4932126696833" stroke="red" stroke-width="2" fill="none" />
<path d="M769.9004524886878,527.1855203619909 L780.68778280543,527.1855203619909" stroke="lavender" stroke-width="2" fill="none" />
<path d="M920.923076923077,527.1855203619909 L931.7104072398191,527.1855203619909" stroke="lavender" stroke-width="2" fill="none" />
<path d="M753.7194570135748,543.3665158371041 L769.9004524886878,532.579185520362" stroke="red" stroke-width="2" fill="none" />
<path d="M769.9004524886878,532.579185520362 L769.9004524886878,527.1855203619909" stroke="red" stroke-width="2" fill="none" />
<path d="M780.68778280543,527.1855203619909 L780.68778280543,532.579185520362" stroke="red" stroke-width="2" fill="none" />
<path d="M780.68778280543,532.579185520362 L796.8687782805431,543.3665158371041" stroke="red" stroke-width="2" fill="none" />
<path d="M904.7420814479639,543.3665158371041 L920.923076923077,532.579185520362" stroke="red" stroke-width="2" fill="none" />
<path d="M920.923076923077,532.579185520362 L920.923076923077,527.1855203619909" stroke="red" stroke-width="2" fill="none" />
<path d="M931.7104072398191,527.1855203619909 L931.7104072398191,532.579185520362" stroke="red" stroke-width="2" fill="none" />
<path d="M931.7104072398191,532.579185520362 L947.8914027149323,543.3665158371041" stroke="red" stroke-width="2" fill="none" />
<path d="M440.88687782805437,694.3891402714933 L435.4932126696833,688.9954751131222" stroke="red" stroke-width="2" fill="none" />
<path d="M457.0678733031675,667.420814479638 L462.46153846153857,672.8144796380091" stroke="red" stroke-width="2" fill="none" />
<path d="M435.4932126696833,688.9954751131222 L419.3122171945702,672.8144796380091" stroke="red" stroke-width="2" fill="none" />
<path d="M354.58823529411774,651.239819004525 L419.3122171945702,586.5158371040725" stroke="red" stroke-width="2" fill="none" />
<path d="M440.88687782805437,651.239819004525 L457.0678733031675,667.420814479638" stroke="red" stroke-width="2" fill="none" />
<path d="M419.3122171945702,672.8144796380091 L397.737556561086,672.8144796380091" stroke="red" stroke-width="2" fill="none" />
<path d="M419.3122171945702,586.5158371040725 L440.88687782805437,629.6651583710408" stroke="red" stroke-width="2" fill="none" />
<path d="M440.88687782805437,629.6651583710408 L440.88687782805437,651.239819004525" stroke="red" stroke-width="2" fill="none" />
<path d="M419.3122171945702,715.9638009049775 L440.88687782805437,715.9638009049775" stroke="red" stroke-width="2" fill="none" />
<path d="M419.3122171945702,759.1131221719457 L397.737556561086,737.5384615384617" stroke="red" stroke-width="2" fill="none" />
<path d="M397.737556561086,737.5384615384617 L376.1628959276019,737.5384615384617" stroke="red" stroke-width="2" fill="none" />
<path d="M376.1628959276019,737.5384615384617 L376.1628959276019,715.9638009049775" stroke="red" stroke-width="2" fill="none" />
<path d="M397.737556561086,715.9638009049775 L419.3122171945702,715.9638009049775" stroke="red" stroke-width="2" fill="none" />
<path d="M376.1628959276019,715.9638009049775 L354.58823529411774,694.3891402714933" stroke="red" stroke-width="2" fill="none" />
<path d="M354.58823529411774,694.3891402714933 L354.58823529411774,672.8144796380091" stroke="red" stroke-width="2" fill="none" />
<path d="M354.58823529411774,672.8144796380091 L354.58823529411774,651.239819004525" stroke="red" stroke-width="2" fill="none" />
<path d="M397.737556561086,672.8144796380091 L397.737556561086,694.3891402714933" stroke="red" stroke-width="2" fill="none" />
<path d="M397.737556561086,694.3891402714933 L397.737556561086,715.9638009049775" stroke="red" stroke-width="2" fill="none" />
<path d="M591.9095022624435,715.9638009049775 L594.6063348416291,715.9638009049775" stroke="red" stroke-width="2" fill="none" />
<path d="M594.6063348416291,726.7511312217196 L591.9095022624435,726.7511312217196" stroke="red" stroke-width="2" fill="none" />
<path d="M872.3800904977377,759.1131221719457 L866.9864253393666,759.1131221719457" stroke="red" stroke-width="2" fill="none" />
<path d="M866.9864253393666,764.5067873303168 L866.9864253393666,802.262443438914" stroke="red" stroke-width="2" fill="none" />
<path d="M866.9864253393666,802.262443438914 L866.9864253393666,823.8371040723982" stroke="red" stroke-width="2" fill="none" />
<path d="M866.9864253393666,823.8371040723982 L866.9864253393666,861.5927601809956" stroke="red" stroke-width="2" fill="none" />
<path d="M834.6244343891403,861.5927601809956 L834.6244343891403,823.8371040723982" stroke="red" stroke-width="2" fill="none" />
<path d="M834.6244343891403,823.8371040723982 L834.6244343891403,802.262443438914" stroke="red" stroke-width="2" fill="none" />
<path d="M834.6244343891403,802.262443438914 L834.6244343891403,764.5067873303168" stroke="red" stroke-width="2" fill="none" />
<path d="M834.6244343891403,759.1131221719457 L829.2307692307693,759.1131221719457" stroke="red" stroke-width="2" fill="none" />
<path d="M834.6244343891403,764.5067873303168 L834.6244343891403,759.1131221719457" stroke="red" stroke-width="2" fill="none" />
<path d="M866.9864253393666,759.1131221719457 L866.9864253393666,764.5067873303168" stroke="red" stroke-width="2" fill="none" />
<path d="M829.2307692307693,866.9864253393666 L834.6244343891403,866.9864253393666" stroke="red" stroke-width="2" fill="none" />
<path d="M866.9864253393666,866.9864253393666 L872.3800904977377,866.9864253393666" stroke="red" stroke-width="2" fill="none" />
<path d="M834.6244343891403,866.9864253393666 L834.6244343891403,861.5927601809956" stroke="red" stroke-width="2" fill="none" />
<path d="M866.9864253393666,861.5927601809956 L866.9864253393666,866.9864253393666" stroke="red" stroke-width="2" fill="none" />
<path d="M872.3800904977377,672.8144796380091 L872.3800904977377,629.6651583710408" stroke="red" stroke-width="2" fill="none" />
<path d="M872.3800904977377,629.6651583710408 L829.2307692307693,629.6651583710408" stroke="red" stroke-width="2" fill="none" />
<path d="M829.2307692307693,629.6651583710408 L829.2307692307693,672.8144796380091" stroke="red" stroke-width="2" fill="none" />
<path d="M866.9864253393666,635.0588235294118 L866.9864253393666,667.420814479638" stroke="red" stroke-width="2" fill="none" />
<path d="M834.6244343891403,667.420814479638 L834.6244343891403,635.0588235294118" stroke="red" stroke-width="2" fill="none" />
<path d="M829.2307692307693,672.8144796380091 L834.6244343891403,672.8144796380091" stroke="red" stroke-width="2" fill="none" />
<path d="M866.9864253393666,672.8144796380091 L872.3800904977377,672.8144796380091" stroke="red" stroke-width="2" fill="none" />
<path d="M834.6244343891403,672.8144796380091 L834.6244343891403,667.420814479638" stroke="red" stroke-width="2" fill="none" />
<path d="M866.9864253393666,667.420814479638 L866.9864253393666,672.8144796380091" stroke="red" stroke-width="2" fill="none" />
<path d="M834.6244343891403,635.0588235294118 L866.9864253393666,635.0588235294118" stroke="red" stroke-width="2" fill="none" />
<path d="M548.7601809954751,500.2171945701358 L462.46153846153857,500.2171945701358" stroke="red" stroke-width="2" fill="none" />
<path d="M462.46153846153857,500.2171945701358 L462.46153846153857,521.7918552036199" stroke="red" stroke-width="2" fill="none" />
<path d="M462.46153846153857,564.9411764705883 L376.1628959276019,564.9411764705883" stroke="red" stroke-width="2" fill="none" />
<path d="M376.1628959276019,564.9411764705883 L376.1628959276019,500.2171945701358" stroke="red" stroke-width="2" fill="none" />
<path d="M376.1628959276019,500.2171945701358 L289.8642533936652,500.2171945701358" stroke="red" stroke-width="2" fill="none" />
<path d="M289.8642533936652,457.06787330316746 L289.8642533936652,435.4932126696833" stroke="red" stroke-width="2" fill="none" />
<path d="M289.8642533936652,435.4932126696833 L203.56561085972862,435.4932126696833" stroke="red" stroke-width="2" fill="none" />
<path d="M203.56561085972862,370.76923076923083 L289.8642533936652,370.76923076923083" stroke="red" stroke-width="2" fill="none" />
<path d="M289.8642533936652,370.76923076923083 L289.8642533936652,349.19457013574663" stroke="red" stroke-width="2" fill="none" />
<path d="M289.8642533936652,306.0452488687783 L376.1628959276019,306.0452488687783" stroke="red" stroke-width="2" fill="none" />
<path d="M376.1628959276019,306.0452488687783 L376.1628959276019,241.3212669683258" stroke="red" stroke-width="2" fill="none" />
<path d="M376.1628959276019,241.3212669683258 L462.46153846153857,241.3212669683258" stroke="red" stroke-width="2" fill="none" />
<path d="M462.46153846153857,284.47058823529414 L462.46153846153857,306.0452488687783" stroke="red" stroke-width="2" fill="none" />
<path d="M462.46153846153857,306.0452488687783 L548.7601809954751,306.0452488687783" stroke="red" stroke-width="2" fill="none" />
<path d="M678.2081447963802,306.0452488687783 L635.0588235294118,306.0452488687783" stroke="red" stroke-width="2" fill="none" />
<path d="M279.07692307692315,457.06787330316746 L289.8642533936652,457.06787330316746" stroke="red" stroke-width="2" fill="none" />
<path d="M289.8642533936652,500.2171945701358 L279.07692307692315,500.2171945701358" stroke="red" stroke-width="2" fill="none" />
<path d="M279.07692307692315,306.0452488687783 L289.8642533936652,306.0452488687783" stroke="red" stroke-width="2" fill="none" />
<path d="M289.8642533936652,349.19457013574663 L279.07692307692315,349.19457013574663" stroke="red" stroke-width="2" fill="none" />
<path d="M462.46153846153857,241.3212669683258 L473.2488687782806,241.3212669683258" stroke="red" stroke-width="2" fill="none" />
<path d="M473.2488687782806,284.47058823529414 L462.46153846153857,284.47058823529414" stroke="red" stroke-width="2" fill="none" />
<path d="M462.46153846153857,521.7918552036199 L473.2488687782806,521.7918552036199" stroke="red" stroke-width="2" fill="none" />
<path d="M473.2488687782806,564.9411764705883 L462.46153846153857,564.9411764705883" stroke="red" stroke-width="2" fill="none" />
<path d="M279.07692307692315,500.2171945701358 L246.7149321266969,500.2171945701358" stroke="red" stroke-width="2" fill="none" />
<path d="M246.7149321266969,500.2171945701358 L246.7149321266969,484.03619909502265" stroke="red" stroke-width="2" fill="none" />
<path d="M246.7149321266969,473.24886877828055 L246.7149321266969,457.06787330316746" stroke="red" stroke-width="2" fill="none" />
<path d="M246.7149321266969,457.06787330316746 L279.07692307692315,457.06787330316746" stroke="red" stroke-width="2" fill="none" />
<path d="M246.7149321266969,484.03619909502265 L238.62443438914033,484.03619909502265" stroke="red" stroke-width="2" fill="none" />
<path d="M238.62443438914033,484.03619909502265 L238.62443438914033,473.24886877828055" stroke="lavender" stroke-width="2" fill="none" />
<path d="M238.62443438914033,473.24886877828055 L246.7149321266969,473.24886877828055" stroke="red" stroke-width="2" fill="none" />
<path d="M279.07692307692315,349.19457013574663 L246.7149321266969,349.19457013574663" stroke="red" stroke-width="2" fill="none" />
<path d="M246.7149321266969,349.19457013574663 L246.7149321266969,333.01357466063354" stroke="red" stroke-width="2" fill="none" />
<path d="M246.7149321266969,322.22624434389144 L246.7149321266969,306.0452488687783" stroke="red" stroke-width="2" fill="none" />
<path d="M246.7149321266969,306.0452488687783 L279.07692307692315,306.0452488687783" stroke="red" stroke-width="2" fill="none" />
<path d="M246.7149321266969,333.01357466063354 L238.62443438914033,333.01357466063354" stroke="red" stroke-width="2" fill="none" />
<path d="M238.62443438914033,333.01357466063354 L238.62443438914033,322.22624434389144" stroke="lavender" stroke-width="2" fill="none" />
<path d="M238.62443438914033,322.22624434389144 L246.7149321266969,322.22624434389144" stroke="red" stroke-width="2" fill="none" />
<path d="M513.7013574660634,268.289592760181 L505.61085972850685,268.289592760181" stroke="red" stroke-width="2" fill="none" />
<path d="M513.7013574660634,257.50226244343895 L513.7013574660634,268.289592760181" stroke="lavender" stroke-width="2" fill="none" />
<path d="M505.61085972850685,257.50226244343895 L513.7013574660634,257.50226244343895" stroke="red" stroke-width="2" fill="none" />
<path d="M505.61085972850685,284.47058823529414 L473.2488687782806,284.47058823529414" stroke="red" stroke-width="2" fill="none" />
<path d="M505.61085972850685,268.289592760181 L505.61085972850685,284.47058823529414" stroke="red" stroke-width="2" fill="none" />
<path d="M505.61085972850685,241.3212669683258 L505.61085972850685,257.50226244343895" stroke="red" stroke-width="2" fill="none" />
<path d="M473.2488687782806,241.3212669683258 L505.61085972850685,241.3212669683258" stroke="red" stroke-width="2" fill="none" />
<path d="M513.7013574660634,548.7601809954751 L505.61085972850685,548.7601809954751" stroke="red" stroke-width="2" fill="none" />
<path d="M513.7013574660634,537.972850678733 L513.7013574660634,548.7601809954751" stroke="lavender" stroke-width="2" fill="none" />
<path d="M505.61085972850685,537.972850678733 L513.7013574660634,537.972850678733" stroke="red" stroke-width="2" fill="none" />
<path d="M505.61085972850685,564.9411764705883 L473.2488687782806,564.9411764705883" stroke="red" stroke-width="2" fill="none" />
<path d="M505.61085972850685,548.7601809954751 L505.61085972850685,564.9411764705883" stroke="red" stroke-width="2" fill="none" />
<path d="M505.61085972850685,521.7918552036199 L505.61085972850685,537.972850678733" stroke="red" stroke-width="2" fill="none" />
<path d="M473.2488687782806,521.7918552036199 L505.61085972850685,521.7918552036199" stroke="red" stroke-width="2" fill="none" />
<path d="M9.39366515837105,392.343891402715 L30.96832579185525,392.343891402715" stroke="red" stroke-width="2" fill="none" />
<path d="M30.96832579185525,392.343891402715 L30.96832579185525,370.76923076923083" stroke="red" stroke-width="2" fill="none" />
<path d="M30.96832579185525,370.76923076923083 L203.56561085972862,370.76923076923083" stroke="red" stroke-width="2" fill="none" />
<path d="M203.56561085972862,435.4932126696833 L52.54298642533945,435.4932126696833" stroke="red" stroke-width="2" fill="none" />
<path d="M30.96832579185525,435.4932126696833 L30.96832579185525,413.9185520361991" stroke="red" stroke-width="2" fill="none" />
<path d="M30.96832579185525,413.9185520361991 L9.39366515837105,413.9185520361991" stroke="red" stroke-width="2" fill="none" />
<path d="M742.9321266968327,953.2850678733032 L742.9321266968327,1169.031674208145" stroke="red" stroke-width="2" fill="none" />
<path d="M742.9321266968327,1169.031674208145 L527.185520361991,1169.031674208145" stroke="red" stroke-width="2" fill="none" />
<path d="M527.185520361991,1169.031674208145 L527.185520361991,953.2850678733032" stroke="red" stroke-width="2" fill="none" />
<path d="M527.185520361991,953.2850678733032 L742.9321266968327,953.2850678733032" stroke="red" stroke-width="2" fill="none" />
<path d="M548.7601809954751,1061.158371040724 L635.0588235294118,1061.158371040724" stroke="red" stroke-width="2" fill="none" />
<path d="M635.0588235294118,1061.158371040724 L635.0588235294118,1055.7647058823532" stroke="red" stroke-width="2" fill="none" />
<path d="M635.0588235294118,1055.7647058823532 L548.7601809954751,1055.7647058823532" stroke="red" stroke-width="2" fill="none" />
<path d="M548.7601809954751,1055.7647058823532 L548.7601809954751,1061.158371040724" stroke="lavender" stroke-width="2" fill="none" />
<path d="M570.3348416289593,1039.5837104072398 L656.633484162896,1039.5837104072398" stroke="red" stroke-width="2" fill="none" />
<path d="M656.633484162896,1039.5837104072398 L656.633484162896,1034.190045248869" stroke="red" stroke-width="2" fill="none" />
<path d="M656.633484162896,1034.190045248869 L570.3348416289593,1034.190045248869" stroke="red" stroke-width="2" fill="none" />
<path d="M570.3348416289593,1034.190045248869 L570.3348416289593,1039.5837104072398" stroke="lavender" stroke-width="2" fill="none" />
<path d="M591.9095022624435,1018.0090497737558 L678.2081447963802,1018.0090497737558" stroke="red" stroke-width="2" fill="none" />
<path d="M678.2081447963802,1018.0090497737558 L678.2081447963802,1012.6153846153848" stroke="red" stroke-width="2" fill="none" />
<path d="M678.2081447963802,1012.6153846153848 L591.9095022624435,1012.6153846153848" stroke="red" stroke-width="2" fill="none" />
<path d="M591.9095022624435,1012.6153846153848 L591.9095022624435,1018.0090497737558" stroke="lavender" stroke-width="2" fill="none" />
<path d="M635.0588235294118,974.8597285067874 L721.3574660633485,974.8597285067874" stroke="red" stroke-width="2" fill="none" />
<path d="M721.3574660633485,974.8597285067874 L721.3574660633485,969.4660633484164" stroke="red" stroke-width="2" fill="none" />
<path d="M721.3574660633485,969.4660633484164 L635.0588235294118,969.4660633484164" stroke="red" stroke-width="2" fill="none" />
<path d="M635.0588235294118,969.4660633484164 L635.0588235294118,974.8597285067874" stroke="lavender" stroke-width="2" fill="none" />
<path d="M613.4841628959277,996.4343891402716 L699.7828054298643,996.4343891402716" stroke="red" stroke-width="2" fill="none" />
<path d="M699.7828054298643,996.4343891402716 L699.7828054298643,991.0407239819006" stroke="red" stroke-width="2" fill="none" />
<path d="M699.7828054298643,991.0407239819006 L613.4841628959277,991.0407239819006" stroke="red" stroke-width="2" fill="none" />
<path d="M613.4841628959277,991.0407239819006 L613.4841628959277,996.4343891402716" stroke="lavender" stroke-width="2" fill="none" />
<path d="M672.8144796380092,1085.4298642533938 L672.8144796380092,1128.579185520362" stroke="red" stroke-width="2" fill="none" />
<path d="M678.2081447963802,1128.579185520362 L678.2081447963802,1085.4298642533938" stroke="red" stroke-width="2" fill="none" />
<path d="M672.8144796380092,1136.6696832579187 L678.2081447963802,1136.6696832579187" stroke="red" stroke-width="2" fill="none" />
<path d="M678.2081447963802,1077.3393665158371 L672.8144796380092,1077.3393665158371" stroke="lavender" stroke-width="2" fill="none" />
<path d="M678.2081447963802,1136.6696832579187 L678.2081447963802,1128.579185520362" stroke="red" stroke-width="2" fill="none" />
<path d="M678.2081447963802,1085.4298642533938 L678.2081447963802,1077.3393665158371" stroke="red" stroke-width="2" fill="none" />
<path d="M672.8144796380092,1077.3393665158371 L672.8144796380092,1085.4298642533938" stroke="red" stroke-width="2" fill="none" />
<path d="M672.8144796380092,1128.579185520362 L672.8144796380092,1136.6696832579187" stroke="red" stroke-width="2" fill="none" />
<path d="M694.3891402714933,1074.6425339366517 L694.3891402714933,1117.79185520362" stroke="red" stroke-width="2" fill="none" />
<path d="M699.7828054298643,1117.79185520362 L699.7828054298643,1074.6425339366517" stroke="red" stroke-width="2" fill="none" />
<path d="M694.3891402714933,1125.8823529411766 L699.7828054298643,1125.8823529411766" stroke="red" stroke-width="2" fill="none" />
<path d="M699.7828054298643,1066.552036199095 L694.3891402714933,1066.552036199095" stroke="lavender" stroke-width="2" fill="none" />
<path d="M699.7828054298643,1125.8823529411766 L699.7828054298643,1117.79185520362" stroke="red" stroke-width="2" fill="none" />
<path d="M699.7828054298643,1074.6425339366517 L699.7828054298643,1066.552036199095" stroke="red" stroke-width="2" fill="none" />
<path d="M694.3891402714933,1066.552036199095 L694.3891402714933,1074.6425339366517" stroke="red" stroke-width="2" fill="none" />
<path d="M694.3891402714933,1117.79185520362 L694.3891402714933,1125.8823529411766" stroke="red" stroke-width="2" fill="none" />
<path d="M715.9638009049775,1063.8552036199096 L715.9638009049775,1107.0045248868778" stroke="red" stroke-width="2" fill="none" />
<path d="M721.3574660633485,1107.0045248868778 L721.3574660633485,1063.8552036199096" stroke="red" stroke-width="2" fill="none" />
<path d="M715.9638009049775,1115.0950226244345 L721.3574660633485,1115.0950226244345" stroke="red" stroke-width="2" fill="none" />
<path d="M721.3574660633485,1055.7647058823532 L715.9638009049775,1055.7647058823532" stroke="lavender" stroke-width="2" fill="none" />
<path d="M721.3574660633485,1115.0950226244345 L721.3574660633485,1107.0045248868778" stroke="red" stroke-width="2" fill="none" />
<path d="M721.3574660633485,1063.8552036199096 L721.3574660633485,1055.7647058823532" stroke="red" stroke-width="2" fill="none" />
<path d="M715.9638009049775,1055.7647058823532 L715.9638009049775,1063.8552036199096" stroke="red" stroke-width="2" fill="none" />
<path d="M715.9638009049775,1107.0045248868778 L715.9638009049775,1115.0950226244345" stroke="red" stroke-width="2" fill="none" />
<path d="M608.0904977375567,1101.610859728507 L608.0904977375567,1144.7601809954754" stroke="red" stroke-width="2" fill="none" />
<path d="M613.4841628959277,1144.7601809954754 L613.4841628959277,1101.610859728507" stroke="red" stroke-width="2" fill="none" />
<path d="M608.0904977375567,1152.8506787330316 L613.4841628959277,1152.8506787330316" stroke="red" stroke-width="2" fill="none" />
<path d="M613.4841628959277,1093.5203619909503 L608.0904977375567,1093.5203619909503" stroke="lavender" stroke-width="2" fill="none" />
<path d="M613.4841628959277,1152.8506787330316 L613.4841628959277,1144.7601809954754" stroke="red" stroke-width="2" fill="none" />
<path d="M613.4841628959277,1101.610859728507 L613.4841628959277,1093.5203619909503" stroke="red" stroke-width="2" fill="none" />
<path d="M608.0904977375567,1093.5203619909503 L608.0904977375567,1101.610859728507" stroke="red" stroke-width="2" fill="none" />
<path d="M608.0904977375567,1144.7601809954754 L608.0904977375567,1152.8506787330316" stroke="red" stroke-width="2" fill="none" />
<path d="M629.6651583710408,1096.2171945701357 L629.6651583710408,1139.366515837104" stroke="red" stroke-width="2" fill="none" />
<path d="M635.0588235294118,1139.366515837104 L635.0588235294118,1096.2171945701357" stroke="red" stroke-width="2" fill="none" />
<path d="M629.6651583710408,1147.4570135746608 L635.0588235294118,1147.4570135746608" stroke="red" stroke-width="2" fill="none" />
<path d="M635.0588235294118,1088.1266968325792 L629.6651583710408,1088.1266968325792" stroke="lavender" stroke-width="2" fill="none" />
<path d="M635.0588235294118,1147.4570135746608 L635.0588235294118,1139.366515837104" stroke="red" stroke-width="2" fill="none" />
<path d="M635.0588235294118,1096.2171945701357 L635.0588235294118,1088.1266968325792" stroke="red" stroke-width="2" fill="none" />
<path d="M629.6651583710408,1088.1266968325792 L629.6651583710408,1096.2171945701357" stroke="red" stroke-width="2" fill="none" />
<path d="M629.6651583710408,1139.366515837104 L629.6651583710408,1147.4570135746608" stroke="red" stroke-width="2" fill="none" />
<path d="M651.239819004525,1090.8235294117649 L651.239819004525,1133.972850678733" stroke="red" stroke-width="2" fill="none" />
<path d="M656.633484162896,1133.972850678733 L656.633484162896,1090.8235294117649" stroke="red" stroke-width="2" fill="none" />
<path d="M651.239819004525,1142.0633484162897 L656.633484162896,1142.0633484162897" stroke="red" stroke-width="2" fill="none" />
<path d="M656.633484162896,1082.7330316742082 L651.239819004525,1082.7330316742082" stroke="lavender" stroke-width="2" fill="none" />
<path d="M656.633484162896,1142.0633484162897 L656.633484162896,1133.972850678733" stroke="red" stroke-width="2" fill="none" />
<path d="M656.633484162896,1090.8235294117649 L656.633484162896,1082.7330316742082" stroke="red" stroke-width="2" fill="none" />
<path d="M651.239819004525,1082.7330316742082 L651.239819004525,1090.8235294117649" stroke="red" stroke-width="2" fill="none" />
<path d="M651.239819004525,1133.972850678733 L651.239819004525,1142.0633484162897" stroke="red" stroke-width="2" fill="none" />
<path d="M548.7601809954751,996.4343891402716 L570.3348416289593,996.4343891402716" stroke="red" stroke-width="2" fill="none" />
<path d="M570.3348416289593,996.4343891402716 L570.3348416289593,974.8597285067874" stroke="red" stroke-width="2" fill="none" />
<path d="M570.3348416289593,974.8597285067874 L548.7601809954751,974.8597285067874" stroke="red" stroke-width="2" fill="none" />
<path d="M548.7601809954751,974.8597285067874 L548.7601809954751,996.4343891402716" stroke="lavender" stroke-width="2" fill="none" />
<path d="M9.39366515837105,413.9185520361991 L9.39366515837105,408.52488687782807" stroke="red" stroke-width="2" fill="none" />
<path d="M9.39366515837105,397.73755656108597 L9.39366515837105,392.343891402715" stroke="red" stroke-width="2" fill="none" />
<path d="M9.39366515837105,408.52488687782807 L4.0,408.52488687782807" stroke="red" stroke-width="2" fill="none" />
<path d="M4.0,408.52488687782807 L4.0,397.73755656108597" stroke="red" stroke-width="2" fill="none" />
<path d="M4.0,397.73755656108597 L9.39366515837105,397.73755656108597" stroke="red" stroke-width="2" fill="none" />
<path d="M1152.8506787330318,564.9411764705883 L1196.0,610.7873303167421" stroke="red" stroke-width="2" fill="none" />
<path d="M1196.0,610.7873303167421 L1196.0,694.3891402714933" stroke="red" stroke-width="2" fill="none" />
<path d="M1196.0,694.3891402714933 L1150.1538461538462,737.5384615384617" stroke="red" stroke-width="2" fill="none" />
<path d="M1150.1538461538462,737.5384615384617 L1066.5520361990953,737.5384615384617" stroke="red" stroke-width="2" fill="none" />
<path d="M1066.5520361990953,737.5384615384617 L1023.4027149321269,694.3891402714933" stroke="red" stroke-width="2" fill="none" />
<path d="M1023.4027149321269,694.3891402714933 L1023.4027149321269,608.0904977375566" stroke="red" stroke-width="2" fill="none" />
<path d="M1066.5520361990953,564.9411764705883 L1152.8506787330318,564.9411764705883" stroke="red" stroke-width="2" fill="none" />
<path d="M1136.6696832579187,659.3303167420815 L1177.1221719457014,675.5113122171946" stroke="red" stroke-width="2" fill="none" />
<path d="M1136.6696832579187,648.5429864253394 L1136.6696832579187,659.3303167420815" stroke="red" stroke-width="2" fill="none" />
<path d="M1177.1221719457014,632.3619909502263 L1136.6696832579187,648.5429864253394" stroke="red" stroke-width="2" fill="none" />
<path d="M1177.1221719457014,643.1493212669684 L1177.1221719457014,632.3619909502263" stroke="red" stroke-width="2" fill="none" />
<path d="M1144.7601809954754,656.633484162896 L1144.7601809954754,651.239819004525" stroke="red" stroke-width="2" fill="none" />
<path d="M1177.1221719457014,675.5113122171946 L1177.1221719457014,664.7239819004526" stroke="red" stroke-width="2" fill="none" />
<path d="M1144.7601809954754,651.239819004525 L1169.031674208145,643.1493212669684" stroke="red" stroke-width="2" fill="none" />
<path d="M1169.031674208145,664.7239819004526 L1144.7601809954754,656.633484162896" stroke="red" stroke-width="2" fill="none" />
<path d="M1104.3076923076924,626.9683257918552 L1115.0950226244345,626.9683257918552" stroke="red" stroke-width="2" fill="none" />
<path d="M1115.0950226244345,626.9683257918552 L1131.2760180995476,586.5158371040725" stroke="red" stroke-width="2" fill="none" />
<path d="M1131.2760180995476,586.5158371040725 L1120.4886877828055,586.5158371040725" stroke="red" stroke-width="2" fill="none" />
<path d="M1098.9140271493213,586.5158371040725 L1088.1266968325792,586.5158371040725" stroke="red" stroke-width="2" fill="none" />
<path d="M1088.1266968325792,586.5158371040725 L1104.3076923076924,626.9683257918552" stroke="red" stroke-width="2" fill="none" />
<path d="M1120.4886877828055,594.606334841629 L1112.398190045249,618.8778280542987" stroke="red" stroke-width="2" fill="none" />
<path d="M1112.398190045249,618.8778280542987 L1107.004524886878,618.8778280542987" stroke="red" stroke-width="2" fill="none" />
<path d="M1107.004524886878,618.8778280542987 L1098.9140271493213,594.606334841629" stroke="red" stroke-width="2" fill="none" />
<path d="M1042.2805429864254,675.5113122171946 L1082.7330316742082,659.3303167420815" stroke="red" stroke-width="2" fill="none" />
<path d="M1082.7330316742082,659.3303167420815 L1082.7330316742082,648.5429864253394" stroke="red" stroke-width="2" fill="none" />
<path d="M1082.7330316742082,648.5429864253394 L1042.2805429864254,632.3619909502263" stroke="red" stroke-width="2" fill="none" />
<path d="M1042.2805429864254,632.3619909502263 L1042.2805429864254,643.1493212669684" stroke="red" stroke-width="2" fill="none" />
<path d="M1074.6425339366517,651.239819004525 L1074.6425339366517,656.633484162896" stroke="red" stroke-width="2" fill="none" />
<path d="M1042.2805429864254,664.7239819004526 L1042.2805429864254,675.5113122171946" stroke="red" stroke-width="2" fill="none" />
<path d="M1050.3710407239819,643.1493212669684 L1074.6425339366517,651.239819004525" stroke="red" stroke-width="2" fill="none" />
<path d="M1074.6425339366517,656.633484162896 L1050.3710407239819,664.7239819004526" stroke="red" stroke-width="2" fill="none" />
<path d="M1169.031674208145,643.1493212669684 L1171.7285067873304,643.1493212669684" stroke="red" stroke-width="2" fill="none" />
<path d="M1171.7285067873304,643.1493212669684 L1177.1221719457014,643.1493212669684" stroke="red" stroke-width="2" fill="none" />
<path d="M1177.1221719457014,664.7239819004526 L1171.7285067873304,664.7239819004526" stroke="red" stroke-width="2" fill="none" />
<path d="M1171.7285067873304,664.7239819004526 L1169.031674208145,664.7239819004526" stroke="red" stroke-width="2" fill="none" />
<path d="M1050.3710407239819,664.7239819004526 L1047.6742081447965,664.7239819004526" stroke="red" stroke-width="2" fill="none" />
<path d="M1047.6742081447965,664.7239819004526 L1042.2805429864254,664.7239819004526" stroke="red" stroke-width="2" fill="none" />
<path d="M1042.2805429864254,643.1493212669684 L1047.6742081447965,643.1493212669684" stroke="red" stroke-width="2" fill="none" />
<path d="M1047.6742081447965,643.1493212669684 L1050.3710407239819,643.1493212669684" stroke="red" stroke-width="2" fill="none" />
<path d="M1098.9140271493213,594.606334841629 L1098.9140271493213,591.9095022624435" stroke="red" stroke-width="2" fill="none" />
<path d="M1098.9140271493213,591.9095022624435 L1098.9140271493213,586.5158371040725" stroke="red" stroke-width="2" fill="none" />
<path d="M1120.4886877828055,586.5158371040725 L1120.4886877828055,591.9095022624435" stroke="red" stroke-width="2" fill="none" />
<path d="M1120.4886877828055,591.9095022624435 L1120.4886877828055,594.606334841629" stroke="red" stroke-width="2" fill="none" />
<path d="M699.7828054298643,133.44796380090497 L678.2081447963802,87.60180995475116" stroke="red" stroke-width="2" fill="none" />
<path d="M678.2081447963802,87.60180995475116 L764.5067873303168,4.0" stroke="red" stroke-width="2" fill="none" />
<path d="M764.5067873303168,4.0 L850.8054298642535,25.5746606334842" stroke="red" stroke-width="2" fill="none" />
<path d="M850.8054298642535,25.5746606334842 L872.3800904977377,90.29864253393669" stroke="red" stroke-width="2" fill="none" />
<path d="M872.3800904977377,90.29864253393669 L850.8054298642535,133.44796380090497" stroke="red" stroke-width="2" fill="none" />
<path d="M850.8054298642535,133.44796380090497 L786.081447963801,111.87330316742089" stroke="red" stroke-width="2" fill="none" />
<path d="M786.081447963801,111.87330316742089 L764.5067873303168,133.44796380090497" stroke="red" stroke-width="2" fill="none" />
<path d="M1109.7013574660634,284.47058823529414 L1088.1266968325792,349.19457013574663" stroke="red" stroke-width="2" fill="none" />
<path d="M1088.1266968325792,349.19457013574663 L1082.7330316742082,349.19457013574663" stroke="red" stroke-width="2" fill="none" />
<path d="M1071.945701357466,349.19457013574663 L1066.5520361990953,349.19457013574663" stroke="red" stroke-width="2" fill="none" />
<path d="M1082.7330316742082,349.19457013574663 L1082.7330316742082,354.5882352941177" stroke="red" stroke-width="2" fill="none" />
<path d="M1082.7330316742082,354.5882352941177 L1071.945701357466,354.5882352941177" stroke="lavender" stroke-width="2" fill="none" />
<path d="M1071.945701357466,354.5882352941177 L1071.945701357466,349.19457013574663" stroke="red" stroke-width="2" fill="none" />
<path d="M635.0588235294118,306.0452488687783 L635.0588235294118,327.6199095022625" stroke="red" stroke-width="2" fill="none" />
<path d="M635.0588235294118,349.19457013574663 L613.4841628959277,349.19457013574663" stroke="red" stroke-width="2" fill="none" />
<path d="M635.0588235294118,327.6199095022625 L656.633484162896,327.6199095022625" stroke="red" stroke-width="2" fill="none" />
<path d="M656.633484162896,327.6199095022625 L656.633484162896,370.76923076923083" stroke="red" stroke-width="2" fill="none" />
<path d="M656.633484162896,370.76923076923083 L678.2081447963802,413.9185520361991" stroke="red" stroke-width="2" fill="none" />
<path d="M678.2081447963802,413.9185520361991 L656.633484162896,435.4932126696833" stroke="red" stroke-width="2" fill="none" />
<path d="M656.633484162896,435.4932126696833 L635.0588235294118,435.4932126696833" stroke="red" stroke-width="2" fill="none" />
<path d="M635.0588235294118,435.4932126696833 L613.4841628959277,413.9185520361991" stroke="red" stroke-width="2" fill="none" />
<path d="M613.4841628959277,413.9185520361991 L635.0588235294118,370.76923076923083" stroke="red" stroke-width="2" fill="none" />
<path d="M635.0588235294118,370.76923076923083 L635.0588235294118,349.19457013574663" stroke="red" stroke-width="2" fill="none" />
<path d="M570.3348416289593,392.343891402715 L570.3348416289593,327.6199095022625" stroke="red" stroke-width="2" fill="none" />
<path d="M570.3348416289593,327.6199095022625 L613.4841628959277,327.6199095022625" stroke="red" stroke-width="2" fill="none" />
<path d="M613.4841628959277,349.19457013574663 L591.9095022624435,349.19457013574663" stroke="red" stroke-width="2" fill="none" />
<path d="M591.9095022624435,349.19457013574663 L591.9095022624435,413.9185520361991" stroke="red" stroke-width="2" fill="none" />
<path d="M30.96832579185525,440.88687782805437 L30.96832579185525,435.4932126696833" stroke="red" stroke-width="2" fill="none" />
<path d="M52.54298642533945,435.4932126696833 L52.54298642533945,440.88687782805437" stroke="red" stroke-width="2" fill="none" />
<path d="M52.54298642533945,440.88687782805437 L74.11764705882354,457.06787330316746" stroke="red" stroke-width="2" fill="none" />
<path d="M74.11764705882354,457.06787330316746 L74.11764705882354,478.6425339366516" stroke="red" stroke-width="2" fill="none" />
<path d="M74.11764705882354,478.6425339366516 L52.54298642533945,500.2171945701358" stroke="red" stroke-width="2" fill="none" />
<path d="M52.54298642533945,500.2171945701358 L30.96832579185525,500.2171945701358" stroke="red" stroke-width="2" fill="none" />
<path d="M30.96832579185525,500.2171945701358 L9.39366515837105,478.6425339366516" stroke="red" stroke-width="2" fill="none" />
<path d="M9.39366515837105,478.6425339366516 L9.39366515837105,457.06787330316746" stroke="red" stroke-width="2" fill="none" />
<path d="M9.39366515837105,457.06787330316746 L30.96832579185525,440.88687782805437" stroke="red" stroke-width="2" fill="none" />
<path d="M893.9547511312219,996.4343891402716 L872.3800904977377,996.4343891402716" stroke="red" stroke-width="2" fill="none" />
<path d="M829.2307692307693,996.4343891402716 L807.6561085972852,996.4343891402716" stroke="red" stroke-width="2" fill="none" />
<path d="M829.2307692307693,1001.8280542986427 L829.2307692307693,996.4343891402716" stroke="red" stroke-width="2" fill="none" />
<path d="M872.3800904977377,996.4343891402716 L872.3800904977377,1001.8280542986427" stroke="red" stroke-width="2" fill="none" />
<path d="M958.6787330316743,910.1357466063349 L964.0723981900453,910.1357466063349" stroke="red" stroke-width="2" fill="none" />
<path d="M964.0723981900453,953.2850678733032 L958.6787330316743,953.2850678733032" stroke="red" stroke-width="2" fill="none" />
<path d="M872.3800904977377,1001.8280542986427 L872.3800904977377,1018.0090497737558" stroke="red" stroke-width="2" fill="none" />
<path d="M872.3800904977377,1018.0090497737558 L893.9547511312219,1039.5837104072398" stroke="red" stroke-width="2" fill="none" />
<path d="M893.9547511312219,1039.5837104072398 L893.9547511312219,1082.7330316742082" stroke="red" stroke-width="2" fill="none" />
<path d="M893.9547511312219,1082.7330316742082 L872.3800904977377,1104.3076923076924" stroke="red" stroke-width="2" fill="none" />
<path d="M872.3800904977377,1104.3076923076924 L829.2307692307693,1104.3076923076924" stroke="red" stroke-width="2" fill="none" />
<path d="M829.2307692307693,1104.3076923076924 L807.6561085972852,1082.7330316742082" stroke="red" stroke-width="2" fill="none" />
<path d="M807.6561085972852,1082.7330316742082 L807.6561085972852,1039.5837104072398" stroke="red" stroke-width="2" fill="none" />
<path d="M807.6561085972852,1039.5837104072398 L829.2307692307693,1018.0090497737558" stroke="red" stroke-width="2" fill="none" />
<path d="M829.2307692307693,1018.0090497737558 L829.2307692307693,1001.8280542986427" stroke="red" stroke-width="2" fill="none" />
<path d="M964.0723981900453,910.1357466063349 L980.2533936651585,888.5610859728507" stroke="red" stroke-width="2" fill="none" />
<path d="M980.2533936651585,888.5610859728507 L1023.4027149321269,910.1357466063349" stroke="red" stroke-width="2" fill="none" />
<path d="M1023.4027149321269,910.1357466063349 L1023.4027149321269,953.2850678733032" stroke="red" stroke-width="2" fill="none" />
<path d="M1023.4027149321269,953.2850678733032 L980.2533936651585,974.8597285067874" stroke="red" stroke-width="2" fill="none" />
<path d="M980.2533936651585,974.8597285067874 L964.0723981900453,953.2850678733032" stroke="red" stroke-width="2" fill="none" />
<path d="M586.5158371040725,635.0588235294118 L586.5158371040725,624.2714932126697" stroke="red" stroke-width="2" fill="none" />
<path d="M591.9095022624435,635.0588235294118 L586.5158371040725,635.0588235294118" stroke="red" stroke-width="2" fill="none" />
<path d="M586.5158371040725,624.2714932126697 L591.9095022624435,624.2714932126697" stroke="red" stroke-width="2" fill="none" />
<path d="M594.6063348416291,715.9638009049775 L597.3031674208146,715.9638009049775" stroke="red" stroke-width="2" fill="none" />
<path d="M597.3031674208146,715.9638009049775 L597.3031674208146,726.7511312217196" stroke="red" stroke-width="2" fill="none" />
<path d="M597.3031674208146,726.7511312217196 L594.6063348416291,726.7511312217196" stroke="red" stroke-width="2" fill="none" />
</svg>