<?xml version="1.0" encoding="UTF-8"?>
<svg xmlns="http://www.w3.org/2000/svg" xmlns:xlink="http://www.w3.org/1999/xlink"
     width="1200" height="1704" viewBox="0 0 1200 1704">
<defs>
</defs>
<path d="M347.84615384615387,737.5384615384614 L439.53846153846155,737.5384615384614" stroke="yellow" stroke-width="2" fill="none" />
<path d="M439.53846153846155,737.5384615384614 L439.53846153846155,600.0" stroke="yellow" stroke-width="2" fill="none" />
<path d="M439.53846153846155,600.0 L347.84615384615387,600.0" stroke="yellow" stroke-width="2" fill="none" />
<path d="M347.84615384615387,600.0 L347.84615384615387,737.5384615384614" stroke="yellow" stroke-width="2" fill="none" />
<path d="M485.3846153846154,737.5384615384614 L577.0769230769231,737.5384615384614" stroke="yellow" stroke-width="2" fill="none" />
<path d="M577.0769230769231,737.5384615384614 L577.0769230769231,600.0" stroke="yellow" stroke-width="2" fill="none" />
<path d="M577.0769230769231,600.0 L485.3846153846154,600.0" stroke="yellow" stroke-width="2" fill="none" />
<path d="M485.3846153846154,600.0 L485.3846153846154,737.5384615384614" stroke="yellow" stroke-width="2" fill="none" />
<path d="M622.9230769230769,737.5384615384614 L714.6153846153846,737.5384615384614" stroke="yellow" stroke-width="2" fill="none" />
<path d="M714.6153846153846,737.5384615384614 L714.6153846153846,600.0" stroke="yellow" stroke-width="2" fill="none" />
<path d="M714.6153846153846,600.0 L622.9230769230769,600.0" stroke="yellow" stroke-width="2" fill="none" />
<path d="M622.9230769230769,600.0 L622.9230769230769,737.5384615384614" stroke="yellow" stroke-width="2" fill="none" />
<path d="M760.4615384615385,737.5384615384614 L852.1538461538462,737.5384615384614" stroke="yellow" stroke-width="2" fill="none" />
<path d="M852.1538461538462,737.5384615384614 L852.1538461538462,600.0" stroke="yellow" stroke-width="2" fill="none" />
<path d="M852.1538461538462,600.0 L760.4615384615385,600.0" stroke="yellow" stroke-width="2" fill="none" />
<path d="M760.4615384615385,600.0 L760.4615384615385,737.5384615384614" stroke="yellow" stroke-width="2" fill="none" />
<path d="M875.0769230769231,405.1538461538461 L875.0769230769231,496.8461538461538" stroke="yellow" stroke-width="2" fill="none" />
<path d="M875.0769230769231,496.8461538461538 L966.7692307692307,496.8461538461538" stroke="yellow" stroke-width="2" fill="none" />
<path d="M1052.7307692307693,508.30769230769226 L1052.7307692307693,554.1538461538461" stroke="yellow" stroke-width="2" fill="none" />
<path d="M1047.0,559.8846153846154 L1001.1538461538462,559.8846153846154" stroke="yellow" stroke-width="2" fill="none" />
<path d="M983.9615384615386,577.076923076923 L983.9615384615386,622.9230769230769" stroke="yellow" stroke-width="2" fill="none" />
<path d="M1001.1538461538462,640.1153846153845 L1047.0,640.1153846153845" stroke="yellow" stroke-width="2" fill="none" />
<path d="M233.23076923076923,496.8461538461538 L324.9230769230769,496.8461538461538" stroke="yellow" stroke-width="2" fill="none" />
<path d="M324.9230769230769,496.8461538461538 L324.9230769230769,405.1538461538461" stroke="yellow" stroke-width="2" fill="none" />
<path d="M416.61538461538464,451.0 L554.1538461538462,451.0" stroke="lavender" stroke-width="2" fill="none" />
<path d="M645.8461538461538,451.0 L783.3846153846155,451.0" stroke="lavender" stroke-width="2" fill="none" />
<path d="M302.0,405.1538461538461 L302.0,473.9230769230769" stroke="yellow" stroke-width="2" fill="none" />
<path d="M302.0,473.9230769230769 L233.23076923076923,473.9230769230769" stroke="yellow" stroke-width="2" fill="none" />
<path d="M898.0,473.9230769230769 L898.0,405.1538461538461" stroke="yellow" stroke-width="2" fill="none" />
<path d="M966.7692307692307,473.9230769230769 L898.0,473.9230769230769" stroke="yellow" stroke-width="2" fill="none" />
<path d="M1047.0,628.6538461538462 L1001.1538461538462,628.6538461538462" stroke="yellow" stroke-width="2" fill="none" />
<path d="M995.4230769230769,622.9230769230769 L995.4230769230769,577.076923076923" stroke="yellow" stroke-width="2" fill="none" />
<path d="M1001.1538461538462,571.3461538461538 L1047.0,571.3461538461538" stroke="yellow" stroke-width="2" fill="none" />
<path d="M1064.1923076923076,554.1538461538461 L1064.1923076923076,508.30769230769226" stroke="yellow" stroke-width="2" fill="none" />
<path d="M1052.7307692307693,645.8461538461538 L1052.7307692307693,691.6923076923076" stroke="yellow" stroke-width="2" fill="none" />
<path d="M1047.0,697.4230769230769 L1001.1538461538462,697.4230769230769" stroke="yellow" stroke-width="2" fill="none" />
<path d="M983.9615384615386,714.6153846153845 L983.9615384615386,760.4615384615383" stroke="yellow" stroke-width="2" fill="none" />
<path d="M1001.1538461538462,777.6538461538462 L1047.0,777.6538461538462" stroke="yellow" stroke-width="2" fill="none" />
<path d="M1047.0,766.1923076923076 L1001.1538461538462,766.1923076923076" stroke="yellow" stroke-width="2" fill="none" />
<path d="M995.4230769230769,760.4615384615383 L995.4230769230769,714.6153846153845" stroke="yellow" stroke-width="2" fill="none" />
<path d="M1001.1538461538462,708.8846153846154 L1047.0,708.8846153846154" stroke="yellow" stroke-width="2" fill="none" />
<path d="M1064.1923076923076,691.6923076923076 L1064.1923076923076,645.8461538461538" stroke="yellow" stroke-width="2" fill="none" />
<path d="M1052.7307692307693,783.3846153846154 L1052.7307692307693,829.2307692307692" stroke="yellow" stroke-width="2" fill="none" />
<path d="M1064.1923076923076,829.2307692307692 L1064.1923076923076,783.3846153846154" stroke="yellow" stroke-width="2" fill="none" />
<path d="M135.80769230769232,508.30769230769226 L135.80769230769232,554.1538461538461" stroke="yellow" stroke-width="2" fill="none" />
<path d="M153.0,571.3461538461538 L198.84615384615387,571.3461538461538" stroke="yellow" stroke-width="2" fill="none" />
<path d="M198.84615384615387,559.8846153846154 L153.0,559.8846153846154" stroke="yellow" stroke-width="2" fill="none" />
<path d="M147.26923076923077,554.1538461538461 L147.26923076923077,508.30769230769226" stroke="yellow" stroke-width="2" fill="none" />
<path d="M204.5769230769231,577.076923076923 L204.5769230769231,622.9230769230769" stroke="yellow" stroke-width="2" fill="none" />
<path d="M198.84615384615387,628.6538461538462 L153.0,628.6538461538462" stroke="yellow" stroke-width="2" fill="none" />
<path d="M135.80769230769232,645.8461538461538 L135.80769230769232,691.6923076923076" stroke="yellow" stroke-width="2" fill="none" />
<path d="M153.0,708.8846153846154 L198.84615384615387,708.8846153846154" stroke="yellow" stroke-width="2" fill="none" />
<path d="M198.84615384615387,697.4230769230769 L153.0,697.4230769230769" stroke="yellow" stroke-width="2" fill="none" />
<path d="M147.26923076923077,691.6923076923076 L147.26923076923077,645.8461538461538" stroke="yellow" stroke-width="2" fill="none" />
<path d="M153.0,640.1153846153845 L198.84615384615387,640.1153846153845" stroke="yellow" stroke-width="2" fill="none" />
<path d="M216.03846153846155,622.9230769230769 L216.03846153846155,577.076923076923" stroke="yellow" stroke-width="2" fill="none" />
<path d="M204.5769230769231,714.6153846153845 L204.5769230769231,760.4615384615383" stroke="yellow" stroke-width="2" fill="none" />
<path d="M198.84615384615387,766.1923076923076 L153.0,766.1923076923076" stroke="yellow" stroke-width="2" fill="none" />
<path d="M153.0,777.6538461538462 L198.84615384615387,777.6538461538462" stroke="yellow" stroke-width="2" fill="none" />
<path d="M216.03846153846155,760.4615384615383 L216.03846153846155,714.6153846153845" stroke="yellow" stroke-width="2" fill="none" />
<path d="M135.80769230769232,783.3846153846154 L135.80769230769232,829.2307692307692" stroke="yellow" stroke-width="2" fill="none" />
<path d="M147.26923076923077,829.2307692307692 L147.26923076923077,783.3846153846154" stroke="yellow" stroke-width="2" fill="none" />
<path d="M622.9230769230769,425.21153846153845 L577.0769230769231,425.21153846153845" stroke="lavender" stroke-width="2" fill="none" />
<path d="M118.61538461538464,451.0 L72.76923076923077,451.0" stroke="yellow" stroke-width="2" fill="none" />
<path d="M118.61538461538464,519.7692307692307 L118.61538461538464,496.8461538461538" stroke="yellow" stroke-width="2" fill="none" />
<path d="M72.76923076923077,519.7692307692307 L118.61538461538464,519.7692307692307" stroke="yellow" stroke-width="2" fill="none" />
<path d="M72.76923076923077,496.8461538461538 L72.76923076923077,519.7692307692307" stroke="yellow" stroke-width="2" fill="none" />
<path d="M72.76923076923077,428.076923076923 L118.61538461538464,428.076923076923" stroke="yellow" stroke-width="2" fill="none" />
<path d="M72.76923076923077,405.1538461538461 L118.61538461538464,405.1538461538461" stroke="yellow" stroke-width="2" fill="none" />
<path d="M72.76923076923077,382.23076923076917 L118.61538461538464,382.23076923076917" stroke="yellow" stroke-width="2" fill="none" />
<path d="M72.76923076923077,359.30769230769226 L118.61538461538464,359.30769230769226" stroke="yellow" stroke-width="2" fill="none" />
<path d="M72.76923076923077,336.38461538461536 L118.61538461538464,336.38461538461536" stroke="yellow" stroke-width="2" fill="none" />
<path d="M72.76923076923077,313.46153846153845 L118.61538461538464,313.46153846153845" stroke="yellow" stroke-width="2" fill="none" />
<path d="M72.76923076923077,290.53846153846155 L118.61538461538464,290.53846153846155" stroke="yellow" stroke-width="2" fill="none" />
<path d="M72.76923076923077,267.6153846153845 L118.61538461538464,267.6153846153845" stroke="yellow" stroke-width="2" fill="none" />
<path d="M1127.2307692307693,451.0 L1081.3846153846155,451.0" stroke="yellow" stroke-width="2" fill="none" />
<path d="M1081.3846153846155,428.076923076923 L1127.2307692307693,428.076923076923" stroke="yellow" stroke-width="2" fill="none" />
<path d="M1081.3846153846155,405.1538461538461 L1127.2307692307693,405.1538461538461" stroke="yellow" stroke-width="2" fill="none" />
<path d="M1081.3846153846155,382.23076923076917 L1127.2307692307693,382.23076923076917" stroke="yellow" stroke-width="2" fill="none" />
<path d="M1081.3846153846155,359.30769230769226 L1127.2307692307693,359.30769230769226" stroke="yellow" stroke-width="2" fill="none" />
<path d="M1081.3846153846155,336.38461538461536 L1127.2307692307693,336.38461538461536" stroke="yellow" stroke-width="2" fill="none" />
<path d="M1081.3846153846155,313.46153846153845 L1127.2307692307693,313.46153846153845" stroke="yellow" stroke-width="2" fill="none" />
<path d="M1081.3846153846155,290.53846153846155 L1127.2307692307693,290.53846153846155" stroke="yellow" stroke-width="2" fill="none" />
<path d="M1081.3846153846155,267.6153846153845 L1127.2307692307693,267.6153846153845" stroke="yellow" stroke-width="2" fill="none" />
<path d="M577.0769230769231,359.30769230769226 L622.9230769230769,359.30769230769226" stroke="yellow" stroke-width="2" fill="none" />
<path d="M783.3846153846155,1322.076923076923 L783.3846153846155,1345.0" stroke="yellow" stroke-width="2" fill="none" />
<path d="M1012.6153846153846,657.3076923076923 L1035.5384615384614,657.3076923076923" stroke="yellow" stroke-width="2" fill="none" />
<path d="M1035.5384615384614,657.3076923076923 L1035.5384615384614,680.2307692307692" stroke="yellow" stroke-width="2" fill="none" />
<path d="M1035.5384615384614,680.2307692307692 L1012.6153846153846,680.2307692307692" stroke="yellow" stroke-width="2" fill="none" />
<path d="M1012.6153846153846,680.2307692307692 L1012.6153846153846,657.3076923076923" stroke="yellow" stroke-width="2" fill="none" />
<path d="M1012.6153846153846,588.5384615384614 L1035.5384615384614,588.5384615384614" stroke="yellow" stroke-width="2" fill="none" />
<path d="M1035.5384615384614,588.5384615384614 L1035.5384615384614,611.4615384615383" stroke="yellow" stroke-width="2" fill="none" />
<path d="M1035.5384615384614,611.4615384615383 L1012.6153846153846,611.4615384615383" stroke="yellow" stroke-width="2" fill="none" />
<path d="M1012.6153846153846,611.4615384615383 L1012.6153846153846,588.5384615384614" stroke="yellow" stroke-width="2" fill="none" />
<path d="M1012.6153846153846,726.0769230769231 L1035.5384615384614,726.0769230769231" stroke="yellow" stroke-width="2" fill="none" />
<path d="M1035.5384615384614,726.0769230769231 L1035.5384615384614,749.0" stroke="yellow" stroke-width="2" fill="none" />
<path d="M1035.5384615384614,749.0 L1012.6153846153846,749.0" stroke="yellow" stroke-width="2" fill="none" />
<path d="M1012.6153846153846,749.0 L1012.6153846153846,726.0769230769231" stroke="yellow" stroke-width="2" fill="none" />
<path d="M164.46153846153845,588.5384615384614 L187.38461538461542,588.5384615384614" stroke="yellow" stroke-width="2" fill="none" />
<path d="M187.38461538461542,588.5384615384614 L187.38461538461542,611.4615384615383" stroke="yellow" stroke-width="2" fill="none" />
<path d="M187.38461538461542,611.4615384615383 L164.46153846153845,611.4615384615383" stroke="yellow" stroke-width="2" fill="none" />
<path d="M164.46153846153845,611.4615384615383 L164.46153846153845,588.5384615384614" stroke="yellow" stroke-width="2" fill="none" />
<path d="M164.46153846153845,726.0769230769231 L187.38461538461542,726.0769230769231" stroke="yellow" stroke-width="2" fill="none" />
<path d="M187.38461538461542,726.0769230769231 L187.38461538461542,749.0" stroke="yellow" stroke-width="2" fill="none" />
<path d="M187.38461538461542,749.0 L164.46153846153845,749.0" stroke="yellow" stroke-width="2" fill="none" />
<path d="M164.46153846153845,749.0 L164.46153846153845,726.0769230769231" stroke="yellow" stroke-width="2" fill="none" />
<path d="M164.46153846153845,657.3076923076923 L187.38461538461542,657.3076923076923" stroke="yellow" stroke-width="2" fill="none" />
<path d="M187.38461538461542,657.3076923076923 L187.38461538461542,680.2307692307692" stroke="yellow" stroke-width="2" fill="none" />
<path d="M187.38461538461542,680.2307692307692 L164.46153846153845,680.2307692307692" stroke="yellow" stroke-width="2" fill="none" />
<path d="M164.46153846153845,680.2307692307692 L164.46153846153845,657.3076923076923" stroke="yellow" stroke-width="2" fill="none" />
<path d="M622.9230769230769,347.8461538461538 L577.0769230769231,347.8461538461538" stroke="yellow" stroke-width="2" fill="none" />
<path d="M588.5384615384615,78.5 L611.4615384615385,78.5" stroke="lavender" stroke-width="2" fill="none" />
<path d="M588.5384615384615,75.63461538461536 L611.4615384615385,75.63461538461536" stroke="yellow" stroke-width="2" fill="none" />
<path d="M783.3846153846155,886.5384615384614 L416.61538461538464,886.5384615384614" stroke="yellow" stroke-width="2" fill="none" />
<path d="M783.3846153846155,886.5384615384614 L783.3846153846155,909.4615384615385" stroke="yellow" stroke-width="2" fill="none" />
<path d="M1127.2307692307693,496.8461538461538 L1127.2307692307693,519.7692307692307" stroke="yellow" stroke-width="2" fill="none" />
<path d="M1127.2307692307693,519.7692307692307 L1081.3846153846155,519.7692307692307" stroke="yellow" stroke-width="2" fill="none" />
<path d="M1081.3846153846155,519.7692307692307 L1081.3846153846155,496.8461538461538" stroke="yellow" stroke-width="2" fill="none" />
<path d="M1196.0,714.6153846153845 L1173.076923076923,726.0769230769231" stroke="yellow" stroke-width="2" fill="none" />
<path d="M1173.076923076923,726.0769230769231 L1150.1538461538462,703.1538461538462" stroke="yellow" stroke-width="2" fill="none" />
<path d="M1150.1538461538462,703.1538461538462 L1127.2307692307693,665.9038461538462" stroke="yellow" stroke-width="2" fill="none" />
<path d="M1127.2307692307693,665.9038461538462 L1150.1538461538462,634.3846153846154" stroke="yellow" stroke-width="2" fill="none" />
<path d="M1150.1538461538462,634.3846153846154 L1173.076923076923,611.4615384615383" stroke="yellow" stroke-width="2" fill="none" />
<path d="M1173.076923076923,611.4615384615383 L1196.0,622.9230769230769" stroke="yellow" stroke-width="2" fill="none" />
<path d="M4.0,622.9230769230769 L26.923076923076906,611.4615384615383" stroke="yellow" stroke-width="2" fill="none" />
<path d="M26.923076923076906,611.4615384615383 L49.84615384615381,634.3846153846154" stroke="yellow" stroke-width="2" fill="none" />
<path d="M49.84615384615381,634.3846153846154 L72.76923076923077,665.9038461538462" stroke="yellow" stroke-width="2" fill="none" />
<path d="M72.76923076923077,665.9038461538462 L49.84615384615381,703.1538461538462" stroke="yellow" stroke-width="2" fill="none" />
<path d="M49.84615384615381,703.1538461538462 L26.923076923076906,726.0769230769231" stroke="yellow" stroke-width="2" fill="none" />
<path d="M26.923076923076906,726.0769230769231 L4.0,714.6153846153845" stroke="yellow" stroke-width="2" fill="none" />
<path d="M416.61538461538464,1322.076923076923 L783.3846153846155,1322.076923076923" stroke="yellow" stroke-width="2" fill="none" />
<path d="M783.3846153846155,909.4615384615385 L416.61538461538464,909.4615384615385" stroke="yellow" stroke-width="2" fill="none" />
<path d="M806.3076923076924,863.6153846153845 L783.3846153846155,886.5384615384614" stroke="red" stroke-width="2" fill="none" />
<path d="M416.61538461538464,886.5384615384614 L393.69230769230774,863.6153846153845" stroke="red" stroke-width="2" fill="none" />
<path d="M359.3076923076923,726.0769230769231 L370.7692307692308,726.0769230769231" stroke="red" stroke-width="2" fill="none" />
<path d="M370.7692307692308,726.0769230769231 L370.7692307692308,714.6153846153845" stroke="red" stroke-width="2" fill="none" />
<path d="M370.7692307692308,714.6153846153845 L359.3076923076923,714.6153846153845" stroke="red" stroke-width="2" fill="none" />
<path d="M359.3076923076923,714.6153846153845 L359.3076923076923,726.0769230769231" stroke="red" stroke-width="2" fill="none" />
<path d="M416.61538461538464,726.0769230769231 L428.0769230769231,726.0769230769231" stroke="red" stroke-width="2" fill="none" />
<path d="M428.0769230769231,726.0769230769231 L428.0769230769231,714.6153846153845" stroke="red" stroke-width="2" fill="none" />
<path d="M428.0769230769231,714.6153846153845 L416.61538461538464,714.6153846153845" stroke="red" stroke-width="2" fill="none" />
<path d="M416.61538461538464,714.6153846153845 L416.61538461538464,726.0769230769231" stroke="red" stroke-width="2" fill="none" />
<path d="M416.61538461538464,622.9230769230769 L428.0769230769231,622.9230769230769" stroke="red" stroke-width="2" fill="none" />
<path d="M428.0769230769231,622.9230769230769 L428.0769230769231,611.4615384615383" stroke="red" stroke-width="2" fill="none" />
<path d="M428.0769230769231,611.4615384615383 L416.61538461538464,611.4615384615383" stroke="red" stroke-width="2" fill="none" />
<path d="M416.61538461538464,611.4615384615383 L416.61538461538464,622.9230769230769" stroke="red" stroke-width="2" fill="none" />
<path d="M359.3076923076923,622.9230769230769 L370.7692307692308,622.9230769230769" stroke="red" stroke-width="2" fill="none" />
<path d="M370.7692307692308,622.9230769230769 L370.7692307692308,611.4615384615383" stroke="red" stroke-width="2" fill="none" />
<path d="M370.7692307692308,611.4615384615383 L359.3076923076923,611.4615384615383" stroke="red" stroke-width="2" fill="none" />
<path d="M359.3076923076923,611.4615384615383 L359.3076923076923,622.9230769230769" stroke="red" stroke-width="2" fill="none" />
<path d="M359.3076923076923,674.5 L370.7692307692308,674.5" stroke="red" stroke-width="2" fill="none" />
<path d="M370.7692307692308,674.5 L370.7692307692308,663.0384615384614" stroke="red" stroke-width="2" fill="none" />
<path d="M370.7692307692308,663.0384615384614 L359.3076923076923,663.0384615384614" stroke="red" stroke-width="2" fill="none" />
<path d="M359.3076923076923,663.0384615384614 L359.3076923076923,674.5" stroke="red" stroke-width="2" fill="none" />
<path d="M416.61538461538464,674.5 L428.0769230769231,674.5" stroke="red" stroke-width="2" fill="none" />
<path d="M428.0769230769231,674.5 L428.0769230769231,663.0384615384614" stroke="red" stroke-width="2" fill="none" />
<path d="M428.0769230769231,663.0384615384614 L416.61538461538464,663.0384615384614" stroke="red" stroke-width="2" fill="none" />
<path d="M416.61538461538464,663.0384615384614 L416.61538461538464,674.5" stroke="red" stroke-width="2" fill="none" />
<path d="M496.84615384615387,726.0769230769231 L508.3076923076923,726.0769230769231" stroke="red" stroke-width="2" fill="none" />
<path d="M508.3076923076923,726.0769230769231 L508.3076923076923,714.6153846153845" stroke="red" stroke-width="2" fill="none" />
<path d="M508.3076923076923,714.6153846153845 L496.84615384615387,714.6153846153845" stroke="red" stroke-width="2" fill="none" />
<path d="M496.84615384615387,714.6153846153845 L496.84615384615387,726.0769230769231" stroke="red" stroke-width="2" fill="none" />
<path d="M554.1538461538462,726.0769230769231 L565.6153846153846,726.0769230769231" stroke="red" stroke-width="2" fill="none" />
<path d="M565.6153846153846,726.0769230769231 L565.6153846153846,714.6153846153845" stroke="red" stroke-width="2" fill="none" />
<path d="M565.6153846153846,714.6153846153845 L554.1538461538462,714.6153846153845" stroke="red" stroke-width="2" fill="none" />
<path d="M554.1538461538462,714.6153846153845 L554.1538461538462,726.0769230769231" stroke="red" stroke-width="2" fill="none" />
<path d="M554.1538461538462,622.9230769230769 L565.6153846153846,622.9230769230769" stroke="red" stroke-width="2" fill="none" />
<path d="M565.6153846153846,622.9230769230769 L565.6153846153846,611.4615384615383" stroke="red" stroke-width="2" fill="none" />
<path d="M565.6153846153846,611.4615384615383 L554.1538461538462,611.4615384615383" stroke="red" stroke-width="2" fill="none" />
<path d="M554.1538461538462,611.4615384615383 L554.1538461538462,622.9230769230769" stroke="red" stroke-width="2" fill="none" />
<path d="M496.84615384615387,622.9230769230769 L508.3076923076923,622.9230769230769" stroke="red" stroke-width="2" fill="none" />
<path d="M508.3076923076923,622.9230769230769 L508.3076923076923,611.4615384615383" stroke="red" stroke-width="2" fill="none" />
<path d="M508.3076923076923,611.4615384615383 L496.84615384615387,611.4615384615383" stroke="red" stroke-width="2" fill="none" />
<path d="M496.84615384615387,611.4615384615383 L496.84615384615387,622.9230769230769" stroke="red" stroke-width="2" fill="none" />
<path d="M496.84615384615387,674.5 L508.3076923076923,674.5" stroke="red" stroke-width="2" fill="none" />
<path d="M508.3076923076923,674.5 L508.3076923076923,663.0384615384614" stroke="red" stroke-width="2" fill="none" />
<path d="M508.3076923076923,663.0384615384614 L496.84615384615387,663.0384615384614" stroke="red" stroke-width="2" fill="none" />
<path d="M496.84615384615387,663.0384615384614 L496.84615384615387,674.5" stroke="red" stroke-width="2" fill="none" />
<path d="M554.1538461538462,674.5 L565.6153846153846,674.5" stroke="red" stroke-width="2" fill="none" />
<path d="M565.6153846153846,674.5 L565.6153846153846,663.0384615384614" stroke="red" stroke-width="2" fill="none" />
<path d="M565.6153846153846,663.0384615384614 L554.1538461538462,663.0384615384614" stroke="red" stroke-width="2" fill="none" />
<path d="M554.1538461538462,663.0384615384614 L554.1538461538462,674.5" stroke="red" stroke-width="2" fill="none" />
<path d="M634.3846153846154,726.0769230769231 L645.8461538461538,726.0769230769231" stroke="red" stroke-width="2" fill="none" />
<path d="M645.8461538461538,726.0769230769231 L645.8461538461538,714.6153846153845" stroke="red" stroke-width="2" fill="none" />
<path d="M645.8461538461538,714.6153846153845 L634.3846153846154,714.6153846153845" stroke="red" stroke-width="2" fill="none" />
<path d="M634.3846153846154,714.6153846153845 L634.3846153846154,726.0769230769231" stroke="red" stroke-width="2" fill="none" />
<path d="M691.6923076923077,726.0769230769231 L703.1538461538462,726.0769230769231" stroke="red" stroke-width="2" fill="none" />
<path d="M703.1538461538462,726.0769230769231 L703.1538461538462,714.6153846153845" stroke="red" stroke-width="2" fill="none" />
<path d="M703.1538461538462,714.6153846153845 L691.6923076923077,714.6153846153845" stroke="red" stroke-width="2" fill="none" />
<path d="M691.6923076923077,714.6153846153845 L691.6923076923077,726.0769230769231" stroke="red" stroke-width="2" fill="none" />
<path d="M691.6923076923077,622.9230769230769 L703.1538461538462,622.9230769230769" stroke="red" stroke-width="2" fill="none" />
<path d="M703.1538461538462,622.9230769230769 L703.1538461538462,611.4615384615383" stroke="red" stroke-width="2" fill="none" />
<path d="M703.1538461538462,611.4615384615383 L691.6923076923077,611.4615384615383" stroke="red" stroke-width="2" fill="none" />
<path d="M691.6923076923077,611.4615384615383 L691.6923076923077,622.9230769230769" stroke="red" stroke-width="2" fill="none" />
<path d="M634.3846153846154,622.9230769230769 L645.8461538461538,622.9230769230769" stroke="red" stroke-width="2" fill="none" />
<path d="M645.8461538461538,622.9230769230769 L645.8461538461538,611.4615384615383" stroke="red" stroke-width="2" fill="none" />
<path d="M645.8461538461538,611.4615384615383 L634.3846153846154,611.4615384615383" stroke="red" stroke-width="2" fill="none" />
<path d="M634.3846153846154,611.4615384615383 L634.3846153846154,622.9230769230769" stroke="red" stroke-width="2" fill="none" />
<path d="M634.3846153846154,674.5 L645.8461538461538,674.5" stroke="red" stroke-width="2" fill="none" />
<path d="M645.8461538461538,674.5 L645.8461538461538,663.0384615384614" stroke="red" stroke-width="2" fill="none" />
<path d="M645.8461538461538,663.0384615384614 L634.3846153846154,663.0384615384614" stroke="red" stroke-width="2" fill="none" />
<path d="M634.3846153846154,663.0384615384614 L634.3846153846154,674.5" stroke="red" stroke-width="2" fill="none" />
<path d="M691.6923076923077,674.5 L703.1538461538462,674.5" stroke="red" stroke-width="2" fill="none" />
<path d="M703.1538461538462,674.5 L703.1538461538462,663.0384615384614" stroke="red" stroke-width="2" fill="none" />
<path d="M703.1538461538462,663.0384615384614 L691.6923076923077,663.0384615384614" stroke="red" stroke-width="2" fill="none" />
<path d="M691.6923076923077,663.0384615384614 L691.6923076923077,674.5" stroke="red" stroke-width="2" fill="none" />
<path d="M771.9230769230769,726.0769230769231 L783.3846153846155,726.0769230769231" stroke="red" stroke-width="2" fill="none" />
<path d="M783.3846153846155,726.0769230769231 L783.3846153846155,714.6153846153845" stroke="red" stroke-width="2" fill="none" />
<path d="M783.3846153846155,714.6153846153845 L771.9230769230769,714.6153846153845" stroke="red" stroke-width="2" fill="none" />
<path d="M771.9230769230769,714.6153846153845 L771.9230769230769,726.0769230769231" stroke="red" stroke-width="2" fill="none" />
<path d="M829.2307692307693,726.0769230769231 L840.6923076923077,726.0769230769231" stroke="red" stroke-width="2" fill="none" />
<path d="M840.6923076923077,726.0769230769231 L840.6923076923077,714.6153846153845" stroke="red" stroke-width="2" fill="none" />
<path d="M840.6923076923077,714.6153846153845 L829.2307692307693,714.6153846153845" stroke="red" stroke-width="2" fill="none" />
<path d="M829.2307692307693,714.6153846153845 L829.2307692307693,726.0769230769231" stroke="red" stroke-width="2" fill="none" />
<path d="M829.2307692307693,622.9230769230769 L840.6923076923077,622.9230769230769" stroke="red" stroke-width="2" fill="none" />
<path d="M840.6923076923077,622.9230769230769 L840.6923076923077,611.4615384615383" stroke="red" stroke-width="2" fill="none" />
<path d="M840.6923076923077,611.4615384615383 L829.2307692307693,611.4615384615383" stroke="red" stroke-width="2" fill="none" />
<path d="M829.2307692307693,611.4615384615383 L829.2307692307693,622.9230769230769" stroke="red" stroke-width="2" fill="none" />
<path d="M771.9230769230769,622.9230769230769 L783.3846153846155,622.9230769230769" stroke="red" stroke-width="2" fill="none" />
<path d="M783.3846153846155,622.9230769230769 L783.3846153846155,611.4615384615383" stroke="red" stroke-width="2" fill="none" />
<path d="M783.3846153846155,611.4615384615383 L771.9230769230769,611.4615384615383" stroke="red" stroke-width="2" fill="none" />
<path d="M771.9230769230769,611.4615384615383 L771.9230769230769,622.9230769230769" stroke="red" stroke-width="2" fill="none" />
<path d="M771.9230769230769,674.5 L783.3846153846155,674.5" stroke="red" stroke-width="2" fill="none" />
<path d="M783.3846153846155,674.5 L783.3846153846155,663.0384615384614" stroke="red" stroke-width="2" fill="none" />
<path d="M783.3846153846155,663.0384615384614 L771.9230769230769,663.0384615384614" stroke="red" stroke-width="2" fill="none" />
<path d="M771.9230769230769,663.0384615384614 L771.9230769230769,674.5" stroke="red" stroke-width="2" fill="none" />
<path d="M829.2307692307693,674.5 L840.6923076923077,674.5" stroke="red" stroke-width="2" fill="none" />
<path d="M840.6923076923077,674.5 L840.6923076923077,663.0384615384614" stroke="red" stroke-width="2" fill="none" />
<path d="M840.6923076923077,663.0384615384614 L829.2307692307693,663.0384615384614" stroke="red" stroke-width="2" fill="none" />
<path d="M829.2307692307693,663.0384615384614 L829.2307692307693,674.5" stroke="red" stroke-width="2" fill="none" />
<path d="M989.6923076923077,496.8461538461538 L1047.0,496.8461538461538" stroke="red" stroke-width="2" fill="none" />
<path d="M1047.0,840.6923076923076 L920.9230769230769,840.6923076923076" stroke="red" stroke-width="2" fill="none" />
<path d="M920.9230769230769,840.6923076923076 L852.1538461538462,863.6153846153845" stroke="red" stroke-width="2" fill="none" />
<path d="M852.1538461538462,863.6153846153845 L806.3076923076924,863.6153846153845" stroke="red" stroke-width="2" fill="none" />
<path d="M153.0,496.8461538461538 L210.30769230769232,496.8461538461538" stroke="red" stroke-width="2" fill="none" />
<path d="M279.0769230769231,840.6923076923076 L153.0,840.6923076923076" stroke="red" stroke-width="2" fill="none" />
<path d="M347.84615384615387,863.6153846153845 L279.0769230769231,840.6923076923076" stroke="red" stroke-width="2" fill="none" />
<path d="M393.69230769230774,863.6153846153845 L347.84615384615387,863.6153846153845" stroke="red" stroke-width="2" fill="none" />
<path d="M324.9230769230769,405.1538461538461 L370.7692307692308,451.0" stroke="red" stroke-width="2" fill="none" />
<path d="M370.7692307692308,451.0 L416.61538461538464,451.0" stroke="red" stroke-width="2" fill="none" />
<path d="M554.1538461538462,451.0 L577.0769230769231,496.8461538461538" stroke="red" stroke-width="2" fill="none" />
<path d="M577.0769230769231,496.8461538461538 L622.9230769230769,496.8461538461538" stroke="red" stroke-width="2" fill="none" />
<path d="M622.9230769230769,496.8461538461538 L645.8461538461538,451.0" stroke="red" stroke-width="2" fill="none" />
<path d="M783.3846153846155,451.0 L829.2307692307693,451.0" stroke="red" stroke-width="2" fill="none" />
<path d="M829.2307692307693,451.0 L875.0769230769231,405.1538461538461" stroke="red" stroke-width="2" fill="none" />
<path d="M233.23076923076923,496.8461538461538 L233.23076923076923,473.9230769230769" stroke="red" stroke-width="2" fill="none" />
<path d="M233.23076923076923,473.9230769230769 L141.53846153846155,473.9230769230769" stroke="red" stroke-width="2" fill="none" />
<path d="M302.0,313.46153846153845 L302.0,405.1538461538461" stroke="red" stroke-width="2" fill="none" />
<path d="M302.0,405.1538461538461 L324.9230769230769,405.1538461538461" stroke="red" stroke-width="2" fill="none" />
<path d="M141.53846153846155,473.9230769230769 L141.53846153846155,382.23076923076917" stroke="red" stroke-width="2" fill="none" />
<path d="M141.53846153846155,382.23076923076917 L236.09615384615387,281.9423076923076" stroke="red" stroke-width="2" fill="none" />
<path d="M875.0769230769231,405.1538461538461 L898.0,405.1538461538461" stroke="red" stroke-width="2" fill="none" />
<path d="M898.0,405.1538461538461 L898.0,313.46153846153845" stroke="red" stroke-width="2" fill="none" />
<path d="M963.9038461538462,281.9423076923076 L1058.4615384615386,382.23076923076917" stroke="red" stroke-width="2" fill="none" />
<path d="M1058.4615384615386,382.23076923076917 L1058.4615384615386,473.9230769230769" stroke="red" stroke-width="2" fill="none" />
<path d="M1058.4615384615386,473.9230769230769 L966.7692307692307,473.9230769230769" stroke="red" stroke-width="2" fill="none" />
<path d="M966.7692307692307,473.9230769230769 L966.7692307692307,496.8461538461538" stroke="red" stroke-width="2" fill="none" />
<path d="M1001.1538461538462,554.1538461538461 L978.2307692307693,554.1538461538461" stroke="red" stroke-width="2" fill="none" />
<path d="M978.2307692307693,554.1538461538461 L978.2307692307693,577.076923076923" stroke="red" stroke-width="2" fill="none" />
<path d="M978.2307692307693,577.076923076923 L983.9615384615386,577.076923076923" stroke="red" stroke-width="2" fill="none" />
<path d="M983.9615384615386,577.076923076923 L995.4230769230769,577.076923076923" stroke="red" stroke-width="2" fill="none" />
<path d="M1001.1538461538462,571.3461538461538 L1001.1538461538462,559.8846153846154" stroke="red" stroke-width="2" fill="none" />
<path d="M1001.1538461538462,559.8846153846154 L1001.1538461538462,554.1538461538461" stroke="red" stroke-width="2" fill="none" />
<path d="M978.2307692307693,622.9230769230769 L978.2307692307693,645.8461538461538" stroke="red" stroke-width="2" fill="none" />
<path d="M978.2307692307693,645.8461538461538 L1001.1538461538462,645.8461538461538" stroke="red" stroke-width="2" fill="none" />
<path d="M1001.1538461538462,645.8461538461538 L1001.1538461538462,640.1153846153845" stroke="red" stroke-width="2" fill="none" />
<path d="M983.9615384615386,622.9230769230769 L978.2307692307693,622.9230769230769" stroke="red" stroke-width="2" fill="none" />
<path d="M1064.1923076923076,554.1538461538461 L1052.7307692307693,554.1538461538461" stroke="red" stroke-width="2" fill="none" />
<path d="M1052.7307692307693,554.1538461538461 L1047.0,554.1538461538461" stroke="red" stroke-width="2" fill="none" />
<path d="M1047.0,554.1538461538461 L1047.0,559.8846153846154" stroke="red" stroke-width="2" fill="none" />
<path d="M1047.0,559.8846153846154 L1047.0,571.3461538461538" stroke="red" stroke-width="2" fill="none" />
<path d="M1047.0,571.3461538461538 L1047.0,577.076923076923" stroke="red" stroke-width="2" fill="none" />
<path d="M1069.923076923077,554.1538461538461 L1064.1923076923076,554.1538461538461" stroke="red" stroke-width="2" fill="none" />
<path d="M1047.0,622.9230769230769 L1047.0,628.6538461538462" stroke="red" stroke-width="2" fill="none" />
<path d="M1047.0,628.6538461538462 L1047.0,640.1153846153845" stroke="red" stroke-width="2" fill="none" />
<path d="M1047.0,640.1153846153845 L1047.0,645.8461538461538" stroke="red" stroke-width="2" fill="none" />
<path d="M1047.0,645.8461538461538 L1052.7307692307693,645.8461538461538" stroke="red" stroke-width="2" fill="none" />
<path d="M1052.7307692307693,645.8461538461538 L1064.1923076923076,645.8461538461538" stroke="red" stroke-width="2" fill="none" />
<path d="M1064.1923076923076,645.8461538461538 L1069.923076923077,645.8461538461538" stroke="red" stroke-width="2" fill="none" />
<path d="M1047.0,496.8461538461538 L1047.0,508.30769230769226" stroke="red" stroke-width="2" fill="none" />
<path d="M1047.0,508.30769230769226 L1052.7307692307693,508.30769230769226" stroke="red" stroke-width="2" fill="none" />
<path d="M1052.7307692307693,508.30769230769226 L1064.1923076923076,508.30769230769226" stroke="red" stroke-width="2" fill="none" />
<path d="M1064.1923076923076,508.30769230769226 L1069.923076923077,508.30769230769226" stroke="red" stroke-width="2" fill="none" />
<path d="M1196.0,565.6153846153845 L1196.0,622.9230769230769" stroke="red" stroke-width="2" fill="none" />
<path d="M1196.0,622.9230769230769 L1173.076923076923,663.0384615384614" stroke="red" stroke-width="2" fill="none" />
<path d="M1173.076923076923,674.5 L1196.0,714.6153846153845" stroke="red" stroke-width="2" fill="none" />
<path d="M1196.0,714.6153846153845 L1196.0,771.9230769230769" stroke="red" stroke-width="2" fill="none" />
<path d="M1196.0,771.9230769230769 L1150.1538461538462,840.6923076923076" stroke="red" stroke-width="2" fill="none" />
<path d="M1150.1538461538462,840.6923076923076 L1069.923076923077,840.6923076923076" stroke="red" stroke-width="2" fill="none" />
<path d="M1069.923076923077,508.30769230769226 L1069.923076923077,496.8461538461538" stroke="red" stroke-width="2" fill="none" />
<path d="M1047.0,577.076923076923 L1069.923076923077,577.076923076923" stroke="red" stroke-width="2" fill="none" />
<path d="M1069.923076923077,577.076923076923 L1069.923076923077,554.1538461538461" stroke="red" stroke-width="2" fill="none" />
<path d="M995.4230769230769,577.076923076923 L1001.1538461538462,577.076923076923" stroke="red" stroke-width="2" fill="none" />
<path d="M1001.1538461538462,577.076923076923 L1001.1538461538462,571.3461538461538" stroke="red" stroke-width="2" fill="none" />
<path d="M1001.1538461538462,640.1153846153845 L1001.1538461538462,628.6538461538462" stroke="red" stroke-width="2" fill="none" />
<path d="M1001.1538461538462,628.6538461538462 L1001.1538461538462,622.9230769230769" stroke="red" stroke-width="2" fill="none" />
<path d="M1001.1538461538462,622.9230769230769 L995.4230769230769,622.9230769230769" stroke="red" stroke-width="2" fill="none" />
<path d="M995.4230769230769,622.9230769230769 L983.9615384615386,622.9230769230769" stroke="red" stroke-width="2" fill="none" />
<path d="M1069.923076923077,645.8461538461538 L1069.923076923077,622.9230769230769" stroke="red" stroke-width="2" fill="none" />
<path d="M1069.923076923077,622.9230769230769 L1047.0,622.9230769230769" stroke="red" stroke-width="2" fill="none" />
<path d="M1001.1538461538462,691.6923076923076 L978.2307692307693,691.6923076923076" stroke="red" stroke-width="2" fill="none" />
<path d="M978.2307692307693,691.6923076923076 L978.2307692307693,714.6153846153845" stroke="red" stroke-width="2" fill="none" />
<path d="M978.2307692307693,714.6153846153845 L983.9615384615386,714.6153846153845" stroke="red" stroke-width="2" fill="none" />
<path d="M983.9615384615386,714.6153846153845 L995.4230769230769,714.6153846153845" stroke="red" stroke-width="2" fill="none" />
<path d="M1001.1538461538462,708.8846153846154 L1001.1538461538462,697.4230769230769" stroke="red" stroke-width="2" fill="none" />
<path d="M1001.1538461538462,697.4230769230769 L1001.1538461538462,691.6923076923076" stroke="red" stroke-width="2" fill="none" />
<path d="M978.2307692307693,760.4615384615383 L978.2307692307693,783.3846153846154" stroke="red" stroke-width="2" fill="none" />
<path d="M978.2307692307693,783.3846153846154 L1001.1538461538462,783.3846153846154" stroke="red" stroke-width="2" fill="none" />
<path d="M1001.1538461538462,783.3846153846154 L1001.1538461538462,777.6538461538462" stroke="red" stroke-width="2" fill="none" />
<path d="M983.9615384615386,760.4615384615383 L978.2307692307693,760.4615384615383" stroke="red" stroke-width="2" fill="none" />
<path d="M1064.1923076923076,691.6923076923076 L1052.7307692307693,691.6923076923076" stroke="red" stroke-width="2" fill="none" />
<path d="M1052.7307692307693,691.6923076923076 L1047.0,691.6923076923076" stroke="red" stroke-width="2" fill="none" />
<path d="M1047.0,691.6923076923076 L1047.0,697.4230769230769" stroke="red" stroke-width="2" fill="none" />
<path d="M1047.0,697.4230769230769 L1047.0,708.8846153846154" stroke="red" stroke-width="2" fill="none" />
<path d="M1047.0,708.8846153846154 L1047.0,714.6153846153845" stroke="red" stroke-width="2" fill="none" />
<path d="M1069.923076923077,691.6923076923076 L1064.1923076923076,691.6923076923076" stroke="red" stroke-width="2" fill="none" />
<path d="M1047.0,760.4615384615383 L1047.0,766.1923076923076" stroke="red" stroke-width="2" fill="none" />
<path d="M1047.0,766.1923076923076 L1047.0,777.6538461538462" stroke="red" stroke-width="2" fill="none" />
<path d="M1047.0,777.6538461538462 L1047.0,783.3846153846154" stroke="red" stroke-width="2" fill="none" />
<path d="M1047.0,783.3846153846154 L1052.7307692307693,783.3846153846154" stroke="red" stroke-width="2" fill="none" />
<path d="M1052.7307692307693,783.3846153846154 L1064.1923076923076,783.3846153846154" stroke="red" stroke-width="2" fill="none" />
<path d="M1064.1923076923076,783.3846153846154 L1069.923076923077,783.3846153846154" stroke="red" stroke-width="2" fill="none" />
<path d="M1047.0,714.6153846153845 L1069.923076923077,714.6153846153845" stroke="red" stroke-width="2" fill="none" />
<path d="M1069.923076923077,714.6153846153845 L1069.923076923077,691.6923076923076" stroke="red" stroke-width="2" fill="none" />
<path d="M995.4230769230769,714.6153846153845 L1001.1538461538462,714.6153846153845" stroke="red" stroke-width="2" fill="none" />
<path d="M1001.1538461538462,714.6153846153845 L1001.1538461538462,708.8846153846154" stroke="red" stroke-width="2" fill="none" />
<path d="M1001.1538461538462,777.6538461538462 L1001.1538461538462,766.1923076923076" stroke="red" stroke-width="2" fill="none" />
<path d="M1001.1538461538462,766.1923076923076 L1001.1538461538462,760.4615384615383" stroke="red" stroke-width="2" fill="none" />
<path d="M1001.1538461538462,760.4615384615383 L995.4230769230769,760.4615384615383" stroke="red" stroke-width="2" fill="none" />
<path d="M995.4230769230769,760.4615384615383 L983.9615384615386,760.4615384615383" stroke="red" stroke-width="2" fill="none" />
<path d="M1069.923076923077,783.3846153846154 L1069.923076923077,760.4615384615383" stroke="red" stroke-width="2" fill="none" />
<path d="M1069.923076923077,760.4615384615383 L1047.0,760.4615384615383" stroke="red" stroke-width="2" fill="none" />
<path d="M1064.1923076923076,829.2307692307692 L1052.7307692307693,829.2307692307692" stroke="red" stroke-width="2" fill="none" />
<path d="M1052.7307692307693,829.2307692307692 L1047.0,829.2307692307692" stroke="red" stroke-width="2" fill="none" />
<path d="M1047.0,829.2307692307692 L1047.0,840.6923076923076" stroke="red" stroke-width="2" fill="none" />
<path d="M1069.923076923077,829.2307692307692 L1064.1923076923076,829.2307692307692" stroke="red" stroke-width="2" fill="none" />
<path d="M1069.923076923077,840.6923076923076 L1069.923076923077,829.2307692307692" stroke="red" stroke-width="2" fill="none" />
<path d="M130.0769230769231,554.1538461538461 L130.0769230769231,577.076923076923" stroke="red" stroke-width="2" fill="none" />
<path d="M130.0769230769231,577.076923076923 L153.0,577.076923076923" stroke="red" stroke-width="2" fill="none" />
<path d="M153.0,577.076923076923 L153.0,571.3461538461538" stroke="red" stroke-width="2" fill="none" />
<path d="M135.80769230769232,554.1538461538461 L130.0769230769231,554.1538461538461" stroke="red" stroke-width="2" fill="none" />
<path d="M198.84615384615387,554.1538461538461 L198.84615384615387,559.8846153846154" stroke="red" stroke-width="2" fill="none" />
<path d="M198.84615384615387,559.8846153846154 L198.84615384615387,571.3461538461538" stroke="red" stroke-width="2" fill="none" />
<path d="M198.84615384615387,571.3461538461538 L198.84615384615387,577.076923076923" stroke="red" stroke-width="2" fill="none" />
<path d="M198.84615384615387,577.076923076923 L204.5769230769231,577.076923076923" stroke="red" stroke-width="2" fill="none" />
<path d="M204.5769230769231,577.076923076923 L216.03846153846155,577.076923076923" stroke="red" stroke-width="2" fill="none" />
<path d="M216.03846153846155,577.076923076923 L221.76923076923077,577.076923076923" stroke="red" stroke-width="2" fill="none" />
<path d="M153.0,571.3461538461538 L153.0,559.8846153846154" stroke="red" stroke-width="2" fill="none" />
<path d="M153.0,559.8846153846154 L153.0,554.1538461538461" stroke="red" stroke-width="2" fill="none" />
<path d="M153.0,554.1538461538461 L147.26923076923077,554.1538461538461" stroke="red" stroke-width="2" fill="none" />
<path d="M147.26923076923077,554.1538461538461 L135.80769230769232,554.1538461538461" stroke="red" stroke-width="2" fill="none" />
<path d="M221.76923076923077,577.076923076923 L221.76923076923077,554.1538461538461" stroke="red" stroke-width="2" fill="none" />
<path d="M221.76923076923077,554.1538461538461 L198.84615384615387,554.1538461538461" stroke="red" stroke-width="2" fill="none" />
<path d="M153.0,622.9230769230769 L130.0769230769231,622.9230769230769" stroke="red" stroke-width="2" fill="none" />
<path d="M130.0769230769231,622.9230769230769 L130.0769230769231,645.8461538461538" stroke="red" stroke-width="2" fill="none" />
<path d="M130.0769230769231,645.8461538461538 L135.80769230769232,645.8461538461538" stroke="red" stroke-width="2" fill="none" />
<path d="M135.80769230769232,645.8461538461538 L147.26923076923077,645.8461538461538" stroke="red" stroke-width="2" fill="none" />
<path d="M153.0,640.1153846153845 L153.0,628.6538461538462" stroke="red" stroke-width="2" fill="none" />
<path d="M153.0,628.6538461538462 L153.0,622.9230769230769" stroke="red" stroke-width="2" fill="none" />
<path d="M130.0769230769231,691.6923076923076 L130.0769230769231,714.6153846153845" stroke="red" stroke-width="2" fill="none" />
<path d="M130.0769230769231,714.6153846153845 L153.0,714.6153846153845" stroke="red" stroke-width="2" fill="none" />
<path d="M153.0,714.6153846153845 L153.0,708.8846153846154" stroke="red" stroke-width="2" fill="none" />
<path d="M135.80769230769232,691.6923076923076 L130.0769230769231,691.6923076923076" stroke="red" stroke-width="2" fill="none" />
<path d="M216.03846153846155,622.9230769230769 L204.5769230769231,622.9230769230769" stroke="red" stroke-width="2" fill="none" />
<path d="M204.5769230769231,622.9230769230769 L198.84615384615387,622.9230769230769" stroke="red" stroke-width="2" fill="none" />
<path d="M198.84615384615387,622.9230769230769 L198.84615384615387,628.6538461538462" stroke="red" stroke-width="2" fill="none" />
<path d="M198.84615384615387,628.6538461538462 L198.84615384615387,640.1153846153845" stroke="red" stroke-width="2" fill="none" />
<path d="M198.84615384615387,640.1153846153845 L198.84615384615387,645.8461538461538" stroke="red" stroke-width="2" fill="none" />
<path d="M221.76923076923077,622.9230769230769 L216.03846153846155,622.9230769230769" stroke="red" stroke-width="2" fill="none" />
<path d="M198.84615384615387,691.6923076923076 L198.84615384615387,697.4230769230769" stroke="red" stroke-width="2" fill="none" />
<path d="M198.84615384615387,697.4230769230769 L198.84615384615387,708.8846153846154" stroke="red" stroke-width="2" fill="none" />
<path d="M198.84615384615387,708.8846153846154 L198.84615384615387,714.6153846153845" stroke="red" stroke-width="2" fill="none" />
<path d="M198.84615384615387,714.6153846153845 L204.5769230769231,714.6153846153845" stroke="red" stroke-width="2" fill="none" />
<path d="M204.5769230769231,714.6153846153845 L216.03846153846155,714.6153846153845" stroke="red" stroke-width="2" fill="none" />
<path d="M216.03846153846155,714.6153846153845 L221.76923076923077,714.6153846153845" stroke="red" stroke-width="2" fill="none" />
<path d="M198.84615384615387,645.8461538461538 L221.76923076923077,645.8461538461538" stroke="red" stroke-width="2" fill="none" />
<path d="M221.76923076923077,645.8461538461538 L221.76923076923077,622.9230769230769" stroke="red" stroke-width="2" fill="none" />
<path d="M147.26923076923077,645.8461538461538 L153.0,645.8461538461538" stroke="red" stroke-width="2" fill="none" />
<path d="M153.0,645.8461538461538 L153.0,640.1153846153845" stroke="red" stroke-width="2" fill="none" />
<path d="M153.0,708.8846153846154 L153.0,697.4230769230769" stroke="red" stroke-width="2" fill="none" />
<path d="M153.0,697.4230769230769 L153.0,691.6923076923076" stroke="red" stroke-width="2" fill="none" />
<path d="M153.0,691.6923076923076 L147.26923076923077,691.6923076923076" stroke="red" stroke-width="2" fill="none" />
<path d="M147.26923076923077,691.6923076923076 L135.80769230769232,691.6923076923076" stroke="red" stroke-width="2" fill="none" />
<path d="M221.76923076923077,714.6153846153845 L221.76923076923077,691.6923076923076" stroke="red" stroke-width="2" fill="none" />
<path d="M221.76923076923077,691.6923076923076 L198.84615384615387,691.6923076923076" stroke="red" stroke-width="2" fill="none" />
<path d="M153.0,760.4615384615383 L130.0769230769231,760.4615384615383" stroke="red" stroke-width="2" fill="none" />
<path d="M130.0769230769231,760.4615384615383 L130.0769230769231,783.3846153846154" stroke="red" stroke-width="2" fill="none" />
<path d="M130.0769230769231,783.3846153846154 L135.80769230769232,783.3846153846154" stroke="red" stroke-width="2" fill="none" />
<path d="M135.80769230769232,783.3846153846154 L147.26923076923077,783.3846153846154" stroke="red" stroke-width="2" fill="none" />
<path d="M153.0,777.6538461538462 L153.0,766.1923076923076" stroke="red" stroke-width="2" fill="none" />
<path d="M153.0,766.1923076923076 L153.0,760.4615384615383" stroke="red" stroke-width="2" fill="none" />
<path d="M216.03846153846155,760.4615384615383 L204.5769230769231,760.4615384615383" stroke="red" stroke-width="2" fill="none" />
<path d="M204.5769230769231,760.4615384615383 L198.84615384615387,760.4615384615383" stroke="red" stroke-width="2" fill="none" />
<path d="M198.84615384615387,760.4615384615383 L198.84615384615387,766.1923076923076" stroke="red" stroke-width="2" fill="none" />
<path d="M198.84615384615387,766.1923076923076 L198.84615384615387,777.6538461538462" stroke="red" stroke-width="2" fill="none" />
<path d="M198.84615384615387,777.6538461538462 L198.84615384615387,783.3846153846154" stroke="red" stroke-width="2" fill="none" />
<path d="M221.76923076923077,760.4615384615383 L216.03846153846155,760.4615384615383" stroke="red" stroke-width="2" fill="none" />
<path d="M198.84615384615387,783.3846153846154 L221.76923076923077,783.3846153846154" stroke="red" stroke-width="2" fill="none" />
<path d="M221.76923076923077,783.3846153846154 L221.76923076923077,760.4615384615383" stroke="red" stroke-width="2" fill="none" />
<path d="M147.26923076923077,783.3846153846154 L153.0,783.3846153846154" stroke="red" stroke-width="2" fill="none" />
<path d="M153.0,783.3846153846154 L153.0,777.6538461538462" stroke="red" stroke-width="2" fill="none" />
<path d="M130.0769230769231,496.8461538461538 L130.0769230769231,508.30769230769226" stroke="red" stroke-width="2" fill="none" />
<path d="M130.0769230769231,508.30769230769226 L135.80769230769232,508.30769230769226" stroke="red" stroke-width="2" fill="none" />
<path d="M135.80769230769232,508.30769230769226 L147.26923076923077,508.30769230769226" stroke="red" stroke-width="2" fill="none" />
<path d="M147.26923076923077,508.30769230769226 L153.0,508.30769230769226" stroke="red" stroke-width="2" fill="none" />
<path d="M153.0,508.30769230769226 L153.0,496.8461538461538" stroke="red" stroke-width="2" fill="none" />
<path d="M147.26923076923077,829.2307692307692 L135.80769230769232,829.2307692307692" stroke="red" stroke-width="2" fill="none" />
<path d="M135.80769230769232,829.2307692307692 L130.0769230769231,829.2307692307692" stroke="red" stroke-width="2" fill="none" />
<path d="M130.0769230769231,829.2307692307692 L130.0769230769231,840.6923076923076" stroke="red" stroke-width="2" fill="none" />
<path d="M153.0,829.2307692307692 L147.26923076923077,829.2307692307692" stroke="red" stroke-width="2" fill="none" />
<path d="M153.0,840.6923076923076 L153.0,829.2307692307692" stroke="red" stroke-width="2" fill="none" />
<path d="M130.0769230769231,840.6923076923076 L49.84615384615381,840.6923076923076" stroke="red" stroke-width="2" fill="none" />
<path d="M49.84615384615381,840.6923076923076 L4.0,771.9230769230769" stroke="red" stroke-width="2" fill="none" />
<path d="M4.0,771.9230769230769 L4.0,714.6153846153845" stroke="red" stroke-width="2" fill="none" />
<path d="M4.0,714.6153846153845 L26.923076923076906,674.5" stroke="red" stroke-width="2" fill="none" />
<path d="M26.923076923076906,663.0384615384614 L4.0,622.9230769230769" stroke="red" stroke-width="2" fill="none" />
<path d="M4.0,622.9230769230769 L4.0,565.6153846153845" stroke="red" stroke-width="2" fill="none" />
<path d="M118.61538461538464,496.8461538461538 L130.0769230769231,496.8461538461538" stroke="red" stroke-width="2" fill="none" />
<path d="M577.0769230769231,425.21153846153845 L554.1538461538462,451.0" stroke="red" stroke-width="2" fill="none" />
<path d="M645.8461538461538,451.0 L622.9230769230769,425.21153846153845" stroke="red" stroke-width="2" fill="none" />
<path d="M72.76923076923077,496.8461538461538 L72.76923076923077,451.0" stroke="red" stroke-width="2" fill="none" />
<path d="M118.61538461538464,451.0 L118.61538461538464,496.8461538461538" stroke="red" stroke-width="2" fill="none" />
<path d="M72.76923076923077,451.0 L72.76923076923077,428.076923076923" stroke="red" stroke-width="2" fill="none" />
<path d="M72.76923076923077,428.076923076923 L72.76923076923077,405.1538461538461" stroke="red" stroke-width="2" fill="none" />
<path d="M72.76923076923077,405.1538461538461 L72.76923076923077,382.23076923076917" stroke="red" stroke-width="2" fill="none" />
<path d="M72.76923076923077,382.23076923076917 L72.76923076923077,359.30769230769226" stroke="red" stroke-width="2" fill="none" />
<path d="M118.61538461538464,428.076923076923 L118.61538461538464,451.0" stroke="red" stroke-width="2" fill="none" />
<path d="M118.61538461538464,405.1538461538461 L118.61538461538464,428.076923076923" stroke="red" stroke-width="2" fill="none" />
<path d="M118.61538461538464,382.23076923076917 L118.61538461538464,405.1538461538461" stroke="red" stroke-width="2" fill="none" />
<path d="M118.61538461538464,359.30769230769226 L118.61538461538464,382.23076923076917" stroke="red" stroke-width="2" fill="none" />
<path d="M72.76923076923077,359.30769230769226 L72.76923076923077,336.38461538461536" stroke="red" stroke-width="2" fill="none" />
<path d="M72.76923076923077,336.38461538461536 L72.76923076923077,313.46153846153845" stroke="red" stroke-width="2" fill="none" />
<path d="M72.76923076923077,313.46153846153845 L72.76923076923077,290.53846153846155" stroke="red" stroke-width="2" fill="none" />
<path d="M72.76923076923077,290.53846153846155 L72.76923076923077,267.6153846153845" stroke="red" stroke-width="2" fill="none" />
<path d="M118.61538461538464,336.38461538461536 L118.61538461538464,359.30769230769226" stroke="red" stroke-width="2" fill="none" />
<path d="M118.61538461538464,313.46153846153845 L118.61538461538464,336.38461538461536" stroke="red" stroke-width="2" fill="none" />
<path d="M118.61538461538464,290.53846153846155 L118.61538461538464,313.46153846153845" stroke="red" stroke-width="2" fill="none" />
<path d="M118.61538461538464,267.6153846153845 L118.61538461538464,290.53846153846155" stroke="red" stroke-width="2" fill="none" />
<path d="M72.76923076923077,267.6153846153845 L118.61538461538464,198.8461538461538" stroke="red" stroke-width="2" fill="none" />
<path d="M118.61538461538464,198.8461538461538 L233.23076923076923,198.8461538461538" stroke="red" stroke-width="2" fill="none" />
<path d="M233.23076923076923,198.8461538461538 L302.0,313.46153846153845" stroke="red" stroke-width="2" fill="none" />
<path d="M236.09615384615387,281.9423076923076 L210.30769230769232,244.69230769230762" stroke="red" stroke-width="2" fill="none" />
<path d="M210.30769230769232,244.69230769230762 L141.53846153846155,244.69230769230762" stroke="red" stroke-width="2" fill="none" />
<path d="M141.53846153846155,244.69230769230762 L118.61538461538464,267.6153846153845" stroke="red" stroke-width="2" fill="none" />
<path d="M1081.3846153846155,451.0 L1081.3846153846155,428.076923076923" stroke="red" stroke-width="2" fill="none" />
<path d="M1081.3846153846155,428.076923076923 L1081.3846153846155,405.1538461538461" stroke="red" stroke-width="2" fill="none" />
<path d="M1081.3846153846155,405.1538461538461 L1081.3846153846155,382.23076923076917" stroke="red" stroke-width="2" fill="none" />
<path d="M1081.3846153846155,382.23076923076917 L1081.3846153846155,359.30769230769226" stroke="red" stroke-width="2" fill="none" />
<path d="M1127.2307692307693,428.076923076923 L1127.2307692307693,451.0" stroke="red" stroke-width="2" fill="none" />
<path d="M1127.2307692307693,405.1538461538461 L1127.2307692307693,428.076923076923" stroke="red" stroke-width="2" fill="none" />
<path d="M1127.2307692307693,382.23076923076917 L1127.2307692307693,405.1538461538461" stroke="red" stroke-width="2" fill="none" />
<path d="M1127.2307692307693,359.30769230769226 L1127.2307692307693,382.23076923076917" stroke="red" stroke-width="2" fill="none" />
<path d="M863.6153846153846,1496.8653846153845 L863.6153846153846,1491.1346153846152" stroke="red" stroke-width="2" fill="none" />
<path d="M817.7692307692308,1491.1346153846152 L817.7692307692308,1496.8653846153845" stroke="lavender" stroke-width="2" fill="none" />
<path d="M1081.3846153846155,359.30769230769226 L1081.3846153846155,336.38461538461536" stroke="red" stroke-width="2" fill="none" />
<path d="M1081.3846153846155,336.38461538461536 L1081.3846153846155,313.46153846153845" stroke="red" stroke-width="2" fill="none" />
<path d="M1081.3846153846155,313.46153846153845 L1081.3846153846155,290.53846153846155" stroke="red" stroke-width="2" fill="none" />
<path d="M1081.3846153846155,290.53846153846155 L1081.3846153846155,267.6153846153845" stroke="red" stroke-width="2" fill="none" />
<path d="M1127.2307692307693,336.38461538461536 L1127.2307692307693,359.30769230769226" stroke="red" stroke-width="2" fill="none" />
<path d="M1127.2307692307693,313.46153846153845 L1127.2307692307693,336.38461538461536" stroke="red" stroke-width="2" fill="none" />
<path d="M1127.2307692307693,290.53846153846155 L1127.2307692307693,313.46153846153845" stroke="red" stroke-width="2" fill="none" />
<path d="M1127.2307692307693,267.6153846153845 L1127.2307692307693,290.53846153846155" stroke="red" stroke-width="2" fill="none" />
<path d="M1081.3846153846155,267.6153846153845 L1058.4615384615386,244.69230769230762" stroke="red" stroke-width="2" fill="none" />
<path d="M1081.3846153846155,198.8461538461538 L1127.2307692307693,267.6153846153845" stroke="red" stroke-width="2" fill="none" />
<path d="M898.0,313.46153846153845 L966.7692307692307,198.8461538461538" stroke="red" stroke-width="2" fill="none" />
<path d="M966.7692307692307,198.8461538461538 L1081.3846153846155,198.8461538461538" stroke="red" stroke-width="2" fill="none" />
<path d="M1058.4615384615386,244.69230769230762 L989.6923076923077,244.69230769230762" stroke="red" stroke-width="2" fill="none" />
<path d="M989.6923076923077,244.69230769230762 L963.9038461538462,281.9423076923076" stroke="red" stroke-width="2" fill="none" />
<path d="M416.61538461538464,451.0 L485.3846153846154,382.23076923076917" stroke="red" stroke-width="2" fill="none" />
<path d="M485.3846153846154,382.23076923076917 L577.0769230769231,359.30769230769226" stroke="red" stroke-width="2" fill="none" />
<path d="M622.9230769230769,359.30769230769226 L714.6153846153846,382.23076923076917" stroke="red" stroke-width="2" fill="none" />
<path d="M714.6153846153846,382.23076923076917 L783.3846153846155,451.0" stroke="red" stroke-width="2" fill="none" />
<path d="M347.84615384615387,1459.6153846153845 L898.0,1459.6153846153845" stroke="red" stroke-width="2" fill="none" />
<path d="M898.0,1459.6153846153845 L898.0,1574.2307692307693" stroke="red" stroke-width="2" fill="none" />
<path d="M898.0,1574.2307692307693 L347.84615384615387,1574.2307692307693" stroke="red" stroke-width="2" fill="none" />
<path d="M347.84615384615387,1574.2307692307693 L347.84615384615387,1459.6153846153845" stroke="red" stroke-width="2" fill="none" />
<path d="M863.6153846153846,1542.7115384615386 L863.6153846153846,1536.9807692307693" stroke="red" stroke-width="2" fill="none" />
<path d="M817.7692307692308,1536.9807692307693 L817.7692307692308,1542.7115384615386" stroke="lavender" stroke-width="2" fill="none" />
<path d="M817.7692307692308,1496.8653846153845 L840.6923076923077,1496.8653846153845" stroke="lavender" stroke-width="2" fill="none" />
<path d="M840.6923076923077,1496.8653846153845 L863.6153846153846,1496.8653846153845" stroke="lavender" stroke-width="2" fill="none" />
<path d="M863.6153846153846,1491.1346153846152 L840.6923076923077,1491.1346153846152" stroke="lavender" stroke-width="2" fill="none" />
<path d="M840.6923076923077,1491.1346153846152 L817.7692307692308,1491.1346153846152" stroke="lavender" stroke-width="2" fill="none" />
<path d="M783.3846153846155,1345.0 L416.61538461538464,1345.0" stroke="red" stroke-width="2" fill="none" />
<path d="M783.3846153846155,1322.076923076923 L829.2307692307693,1276.2307692307693" stroke="red" stroke-width="2" fill="none" />
<path d="M852.1538461538462,1299.1538461538462 L783.3846153846155,1345.0" stroke="red" stroke-width="2" fill="none" />
<path d="M783.3846153846155,886.5384615384614 L852.1538461538462,932.3846153846154" stroke="red" stroke-width="2" fill="none" />
<path d="M829.2307692307693,955.3076923076923 L783.3846153846155,909.4615384615385" stroke="red" stroke-width="2" fill="none" />
<path d="M829.2307692307693,1276.2307692307693 L829.2307692307693,955.3076923076923" stroke="red" stroke-width="2" fill="none" />
<path d="M852.1538461538462,932.3846153846154 L852.1538461538462,1299.1538461538462" stroke="red" stroke-width="2" fill="none" />
<path d="M233.23076923076923,508.30769230769226 L233.23076923076923,496.8461538461538" stroke="red" stroke-width="2" fill="none" />
<path d="M210.30769230769232,508.30769230769226 L233.23076923076923,508.30769230769226" stroke="red" stroke-width="2" fill="none" />
<path d="M210.30769230769232,496.8461538461538 L210.30769230769232,508.30769230769226" stroke="red" stroke-width="2" fill="none" />
<path d="M989.6923076923077,508.30769230769226 L989.6923076923077,496.8461538461538" stroke="red" stroke-width="2" fill="none" />
<path d="M966.7692307692307,508.30769230769226 L989.6923076923077,508.30769230769226" stroke="red" stroke-width="2" fill="none" />
<path d="M966.7692307692307,496.8461538461538 L966.7692307692307,508.30769230769226" stroke="red" stroke-width="2" fill="none" />
<path d="M1173.076923076923,663.0384615384614 L1173.076923076923,674.5" stroke="red" stroke-width="2" fill="none" />
<path d="M26.923076923076906,674.5 L26.923076923076906,663.0384615384614" stroke="red" stroke-width="2" fill="none" />
<path d="M806.3076923076924,1528.3846153846152 L875.0769230769231,1528.3846153846152" stroke="red" stroke-width="2" fill="none" />
<path d="M875.0769230769231,1528.3846153846152 L875.0769230769231,1551.3076923076924" stroke="red" stroke-width="2" fill="none" />
<path d="M875.0769230769231,1551.3076923076924 L806.3076923076924,1551.3076923076924" stroke="red" stroke-width="2" fill="none" />
<path d="M806.3076923076924,1551.3076923076924 L806.3076923076924,1528.3846153846152" stroke="red" stroke-width="2" fill="none" />
<path d="M806.3076923076924,1482.5384615384614 L875.0769230769231,1482.5384615384614" stroke="red" stroke-width="2" fill="none" />
<path d="M875.0769230769231,1482.5384615384614 L875.0769230769231,1505.4615384615386" stroke="red" stroke-width="2" fill="none" />
<path d="M875.0769230769231,1505.4615384615386 L806.3076923076924,1505.4615384615386" stroke="red" stroke-width="2" fill="none" />
<path d="M806.3076923076924,1505.4615384615386 L806.3076923076924,1482.5384615384614" stroke="red" stroke-width="2" fill="none" />
<path d="M1127.2307692307693,496.8461538461538 L1150.1538461538462,496.8461538461538" stroke="red" stroke-width="2" fill="none" />
<path d="M1150.1538461538462,496.8461538461538 L1196.0,565.6153846153845" stroke="red" stroke-width="2" fill="none" />
<path d="M4.0,565.6153846153845 L49.84615384615381,496.8461538461538" stroke="red" stroke-width="2" fill="none" />
<path d="M49.84615384615381,496.8461538461538 L72.76923076923077,496.8461538461538" stroke="red" stroke-width="2" fill="none" />
<path d="M1127.2307692307693,451.0 L1127.2307692307693,496.8461538461538" stroke="red" stroke-width="2" fill="none" />
<path d="M1081.3846153846155,496.8461538461538 L1081.3846153846155,451.0" stroke="red" stroke-width="2" fill="none" />
<path d="M622.9230769230769,425.21153846153845 L614.3269230769231,433.80769230769226" stroke="red" stroke-width="2" fill="none" />
<path d="M585.6730769230769,433.80769230769226 L577.0769230769231,425.21153846153845" stroke="red" stroke-width="2" fill="none" />
<path d="M614.3269230769231,433.80769230769226 L614.3269230769231,468.1923076923076" stroke="red" stroke-width="2" fill="none" />
<path d="M614.3269230769231,468.1923076923076 L600.0,473.9230769230769" stroke="red" stroke-width="2" fill="none" />
<path d="M600.0,473.9230769230769 L585.6730769230769,468.1923076923076" stroke="red" stroke-width="2" fill="none" />
<path d="M585.6730769230769,468.1923076923076 L585.6730769230769,433.80769230769226" stroke="red" stroke-width="2" fill="none" />
<path d="M577.0769230769231,359.30769230769226 L577.0769230769231,347.8461538461538" stroke="red" stroke-width="2" fill="none" />
<path d="M622.9230769230769,347.8461538461538 L622.9230769230769,359.30769230769226" stroke="red" stroke-width="2" fill="none" />
<path d="M577.0769230769231,347.8461538461538 L577.0769230769231,313.46153846153845" stroke="red" stroke-width="2" fill="none" />
<path d="M577.0769230769231,313.46153846153845 L531.2307692307693,261.88461538461536" stroke="red" stroke-width="2" fill="none" />
<path d="M531.2307692307693,261.88461538461536 L577.0769230769231,210.30769230769226" stroke="red" stroke-width="2" fill="none" />
<path d="M577.0769230769231,210.30769230769226 L531.2307692307693,130.07692307692298" stroke="red" stroke-width="2" fill="none" />
<path d="M668.7692307692308,130.07692307692298 L622.9230769230769,210.30769230769226" stroke="red" stroke-width="2" fill="none" />
<path d="M622.9230769230769,210.30769230769226 L668.7692307692308,261.88461538461536" stroke="red" stroke-width="2" fill="none" />
<path d="M668.7692307692308,261.88461538461536 L622.9230769230769,313.46153846153845" stroke="red" stroke-width="2" fill="none" />
<path d="M622.9230769230769,313.46153846153845 L622.9230769230769,347.8461538461538" stroke="red" stroke-width="2" fill="none" />
<path d="M531.2307692307693,130.07692307692298 L531.2307692307693,84.23076923076917" stroke="red" stroke-width="2" fill="none" />
<path d="M531.2307692307693,84.23076923076917 L577.0769230769231,4.0" stroke="red" stroke-width="2" fill="none" />
<path d="M577.0769230769231,4.0 L622.9230769230769,4.0" stroke="red" stroke-width="2" fill="none" />
<path d="M622.9230769230769,4.0 L668.7692307692308,84.23076923076917" stroke="red" stroke-width="2" fill="none" />
<path d="M668.7692307692308,84.23076923076917 L668.7692307692308,130.07692307692298" stroke="red" stroke-width="2" fill="none" />
<path d="M611.4615384615385,84.23076923076917 L622.9230769230769,84.23076923076917" stroke="red" stroke-width="2" fill="none" />
<path d="M622.9230769230769,84.23076923076917 L605.7307692307693,38.384615384615245" stroke="red" stroke-width="2" fill="none" />
<path d="M605.7307692307693,38.384615384615245 L594.2692307692308,38.384615384615245" stroke="red" stroke-width="2" fill="none" />
<path d="M594.2692307692308,38.384615384615245 L577.0769230769231,84.23076923076917" stroke="red" stroke-width="2" fill="none" />
<path d="M577.0769230769231,84.23076923076917 L588.5384615384615,84.23076923076917" stroke="red" stroke-width="2" fill="none" />
<path d="M588.5384615384615,84.23076923076917 L588.5384615384615,78.5" stroke="red" stroke-width="2" fill="none" />
<path d="M588.5384615384615,78.5 L588.5384615384615,75.63461538461536" stroke="red" stroke-width="2" fill="none" />
<path d="M588.5384615384615,75.63461538461536 L597.1346153846154,46.98076923076928" stroke="red" stroke-width="2" fill="none" />
<path d="M597.1346153846154,46.98076923076928 L602.8653846153846,46.98076923076928" stroke="red" stroke-width="2" fill="none" />
<path d="M602.8653846153846,46.98076923076928 L611.4615384615385,75.63461538461536" stroke="red" stroke-width="2" fill="none" />
<path d="M611.4615384615385,75.63461538461536 L611.4615384615385,78.5" stroke="red" stroke-width="2" fill="none" />
<path d="M611.4615384615385,78.5 L611.4615384615385,84.23076923076917" stroke="red" stroke-width="2" fill="none" />
<path d="M783.3846153846155,909.4615384615385 L783.3846153846155,1322.076923076923" stroke="red" stroke-width="2" fill="none" />
<path d="M370.7692307692308,1482.5384615384614 L783.3846153846155,1482.5384615384614" stroke="red" stroke-width="2" fill="none" />
<path d="M783.3846153846155,1482.5384615384614 L783.3846153846155,1528.3846153846152" stroke="red" stroke-width="2" fill="none" />
<path d="M783.3846153846155,1528.3846153846152 L370.7692307692308,1528.3846153846152" stroke="red" stroke-width="2" fill="none" />
<path d="M370.7692307692308,1528.3846153846152 L370.7692307692308,1482.5384615384614" stroke="red" stroke-width="2" fill="none" />
<path d="M817.7692307692308,1542.7115384615386 L840.6923076923077,1542.7115384615386" stroke="lavender" stroke-width="2" fill="none" />
<path d="M840.6923076923077,1542.7115384615386 L863.6153846153846,1542.7115384615386" stroke="lavender" stroke-width="2" fill="none" />
<path d="M863.6153846153846,1536.9807692307693 L840.6923076923077,1536.9807692307693" stroke="lavender" stroke-width="2" fill="none" />
<path d="M840.6923076923077,1536.9807692307693 L817.7692307692308,1536.9807692307693" stroke="lavender" stroke-width="2" fill="none" />
<path d="M1069.923076923077,496.8461538461538 L1081.3846153846155,496.8461538461538" stroke="red" stroke-width="2" fill="none" />
<path d="M760.4615384615385,1505.4615384615386 L393.69230769230774,1505.4615384615386" stroke="red" stroke-width="2" fill="none" />
<path d="M393.69230769230774,1505.4615384615386 L393.69230769230774,1511.1923076923076" stroke="lavender" stroke-width="2" fill="none" />
<path d="M760.4615384615385,1511.1923076923076 L760.4615384615385,1505.4615384615386" stroke="red" stroke-width="2" fill="none" />
<path d="M393.69230769230774,1511.1923076923076 L760.4615384615385,1511.1923076923076" stroke="lavender" stroke-width="2" fill="none" />
<path d="M416.61538461538464,1345.0 L416.61538461538464,1322.076923076923" stroke="red" stroke-width="2" fill="none" />
<path d="M416.61538461538464,1322.076923076923 L416.61538461538464,909.4615384615385" stroke="red" stroke-width="2" fill="none" />
<path d="M416.61538461538464,909.4615384615385 L416.61538461538464,886.5384615384614" stroke="red" stroke-width="2" fill="none" />
<path d="M319.1923076923077,1453.8846153846152 L350.71153846153845,1416.6346153846152" stroke="red" stroke-width="2" fill="none" />
<path d="M350.71153846153845,1416.6346153846152 L419.4807692307693,1399.4423076923076" stroke="red" stroke-width="2" fill="none" />
<path d="M419.4807692307693,1399.4423076923076 L608.5961538461538,1393.7115384615386" stroke="red" stroke-width="2" fill="none" />
<path d="M608.5961538461538,1393.7115384615386 L746.1346153846155,1393.7115384615386" stroke="red" stroke-width="2" fill="none" />
<path d="M746.1346153846155,1393.7115384615386 L866.4807692307693,1408.0384615384614" stroke="red" stroke-width="2" fill="none" />
<path d="M866.4807692307693,1408.0384615384614 L938.1153846153846,1436.6923076923076" stroke="red" stroke-width="2" fill="none" />
<path d="M938.1153846153846,1436.6923076923076 L975.3653846153846,1588.5576923076924" stroke="red" stroke-width="2" fill="none" />
<path d="M975.3653846153846,1588.5576923076924 L886.5384615384615,1668.7884615384614" stroke="red" stroke-width="2" fill="none" />
<path d="M886.5384615384615,1668.7884615384614 L654.4423076923077,1700.3076923076924" stroke="red" stroke-width="2" fill="none" />
<path d="M654.4423076923077,1700.3076923076924 L390.8269230769231,1671.6538461538462" stroke="red" stroke-width="2" fill="none" />
<path d="M390.8269230769231,1671.6538461538462 L304.86538461538464,1585.6923076923076" stroke="red" stroke-width="2" fill="none" />
<path d="M304.86538461538464,1585.6923076923076 L319.1923076923077,1453.8846153846152" stroke="red" stroke-width="2" fill="none" />
</svg>