<?xml version="1.0" encoding="UTF-8"?>
<svg xmlns="http://www.w3.org/2000/svg" xmlns:xlink="http://www.w3.org/1999/xlink"
     width="1200" height="1216" viewBox="0 0 1200 1216">
<defs>
</defs>
<path d="M517.2691218130311,790.7875354107649 L564.543909348442,763.7733711048159" stroke="yellow" stroke-width="1" fill="none" />
<path d="M632.0793201133145,763.7733711048159 L679.3541076487252,790.7875354107649" stroke="yellow" stroke-width="1" fill="none" />
<path d="M564.543909348442,763.7733711048159 L567.9206798866855,736.7592067988669" stroke="yellow" stroke-width="1" fill="none" />
<path d="M567.9206798866855,736.7592067988669 L571.2974504249291,709.7450424929178" stroke="yellow" stroke-width="1" fill="none" />
<path d="M625.3257790368272,709.7450424929178 L628.7025495750709,736.7592067988669" stroke="yellow" stroke-width="1" fill="none" />
<path d="M628.7025495750709,736.7592067988669 L632.0793201133145,763.7733711048159" stroke="yellow" stroke-width="1" fill="none" />
<path d="M625.3257790368272,871.8300283286119 L598.3116147308782,875.2067988668555" stroke="lavender" stroke-width="1" fill="none" />
<path d="M598.3116147308782,875.2067988668555 L571.2974504249291,871.8300283286119" stroke="lavender" stroke-width="1" fill="none" />
<path d="M571.2974504249291,709.7450424929178 L524.0226628895184,682.7308781869689" stroke="yellow" stroke-width="1" fill="none" />
<path d="M524.0226628895184,682.7308781869689 L497.0084985835694,635.456090651558" stroke="yellow" stroke-width="1" fill="none" />
<path d="M497.0084985835694,635.456090651558 L497.0084985835694,581.42776203966" stroke="yellow" stroke-width="1" fill="none" />
<path d="M497.0084985835694,581.42776203966 L524.0226628895184,534.1529745042493" stroke="yellow" stroke-width="1" fill="none" />
<path d="M524.0226628895184,534.1529745042493 L571.2974504249291,507.1388101983003" stroke="yellow" stroke-width="1" fill="none" />
<path d="M571.2974504249291,507.1388101983003 L625.3257790368272,507.1388101983003" stroke="yellow" stroke-width="1" fill="none" />
<path d="M625.3257790368272,507.1388101983003 L672.600566572238,534.1529745042493" stroke="yellow" stroke-width="1" fill="none" />
<path d="M672.600566572238,682.7308781869689 L625.3257790368272,709.7450424929178" stroke="yellow" stroke-width="1" fill="none" />
<path d="M699.614730878187,635.456090651558 L672.600566572238,682.7308781869689" stroke="yellow" stroke-width="1" fill="none" />
<path d="M672.600566572238,534.1529745042493 L699.614730878187,581.42776203966" stroke="yellow" stroke-width="1" fill="none" />
<path d="M699.614730878187,581.42776203966 L699.614730878187,635.456090651558" stroke="yellow" stroke-width="1" fill="none" />
<path d="M497.0084985835694,635.456090651558 L469.9943342776204,638.8328611898016" stroke="yellow" stroke-width="1" fill="none" />
<path d="M469.9943342776204,638.8328611898016 L442.9801699716714,642.2096317280453" stroke="yellow" stroke-width="1" fill="none" />
<path d="M726.6288951841359,578.0509915014164 L753.643059490085,574.6742209631727" stroke="yellow" stroke-width="1" fill="none" />
<path d="M699.614730878187,581.42776203966 L726.6288951841359,578.0509915014164" stroke="yellow" stroke-width="1" fill="none" />
<path d="M753.643059490085,642.2096317280453 L726.6288951841359,638.8328611898016" stroke="yellow" stroke-width="1" fill="none" />
<path d="M726.6288951841359,638.8328611898016 L699.614730878187,635.456090651558" stroke="yellow" stroke-width="1" fill="none" />
<path d="M469.9943342776204,578.0509915014164 L497.0084985835694,581.42776203966" stroke="yellow" stroke-width="1" fill="none" />
<path d="M442.9801699716714,574.6742209631727 L469.9943342776204,578.0509915014164" stroke="yellow" stroke-width="1" fill="none" />
<path d="M628.7025495750709,480.1246458923513 L625.3257790368272,507.1388101983003" stroke="yellow" stroke-width="1" fill="none" />
<path d="M632.0793201133145,453.1104815864023 L628.7025495750709,480.1246458923513" stroke="yellow" stroke-width="1" fill="none" />
<path d="M567.9206798866855,480.1246458923513 L564.543909348442,453.1104815864023" stroke="yellow" stroke-width="1" fill="none" />
<path d="M571.2974504249291,507.1388101983003 L567.9206798866855,480.1246458923513" stroke="yellow" stroke-width="1" fill="none" />
<path d="M442.9801699716714,642.2096317280453 L415.9660056657224,689.4844192634561" stroke="yellow" stroke-width="1" fill="none" />
<path d="M753.643059490085,574.6742209631727 L780.657223796034,527.399433427762" stroke="yellow" stroke-width="1" fill="none" />
<path d="M780.657223796034,689.4844192634561 L753.643059490085,642.2096317280453" stroke="yellow" stroke-width="1" fill="none" />
<path d="M415.9660056657224,527.399433427762 L442.9801699716714,574.6742209631727" stroke="yellow" stroke-width="1" fill="none" />
<path d="M564.543909348442,453.1104815864023 L517.2691218130311,426.09631728045326" stroke="yellow" stroke-width="1" fill="none" />
<path d="M679.3541076487252,426.09631728045326 L632.0793201133145,453.1104815864023" stroke="yellow" stroke-width="1" fill="none" />
<path d="M334.92351274787535,635.456090651558 L331.5467422096317,608.4419263456091" stroke="lavender" stroke-width="1" fill="none" />
<path d="M331.5467422096317,608.4419263456091 L334.92351274787535,581.42776203966" stroke="lavender" stroke-width="1" fill="none" />
<path d="M865.0764872521247,608.4419263456091 L861.699716713881,635.456090651558" stroke="lavender" stroke-width="1" fill="none" />
<path d="M861.699716713881,581.42776203966 L865.0764872521247,608.4419263456091" stroke="lavender" stroke-width="1" fill="none" />
<path d="M598.3116147308782,341.6770538243626 L625.3257790368272,345.05382436260624" stroke="lavender" stroke-width="1" fill="none" />
<path d="M571.2974504249291,345.05382436260624 L598.3116147308782,341.6770538243626" stroke="lavender" stroke-width="1" fill="none" />
<path d="M442.9801699716714,480.1246458923513 L442.9801699716714,453.1104815864023" stroke="yellow" stroke-width="1" fill="none" />
<path d="M469.9943342776204,638.8328611898016 L469.9943342776204,578.0509915014164" stroke="yellow" stroke-width="1" fill="none" />
<path d="M442.9801699716714,642.2096317280453 L442.9801699716714,574.6742209631727" stroke="yellow" stroke-width="1" fill="none" />
<path d="M567.9206798866855,480.1246458923513 L628.7025495750709,480.1246458923513" stroke="yellow" stroke-width="1" fill="none" />
<path d="M564.543909348442,453.1104815864023 L632.0793201133145,453.1104815864023" stroke="yellow" stroke-width="1" fill="none" />
<path d="M726.6288951841359,578.0509915014164 L726.6288951841359,638.8328611898016" stroke="yellow" stroke-width="1" fill="none" />
<path d="M753.643059490085,574.6742209631727 L753.643059490085,642.2096317280453" stroke="yellow" stroke-width="1" fill="none" />
<path d="M632.0793201133145,763.7733711048159 L564.543909348442,763.7733711048159" stroke="yellow" stroke-width="1" fill="none" />
<path d="M628.7025495750709,736.7592067988669 L567.9206798866855,736.7592067988669" stroke="yellow" stroke-width="1" fill="none" />
<path d="M625.3257790368272,709.7450424929178 L571.2974504249291,709.7450424929178" stroke="yellow" stroke-width="1" fill="none" />
<path d="M584.8045325779037,594.9348441926345 L581.42776203966,608.4419263456091" stroke="yellow" stroke-width="1" fill="none" />
<path d="M598.3116147308782,591.5580736543909 L584.8045325779037,594.9348441926345" stroke="yellow" stroke-width="1" fill="none" />
<path d="M611.8186968838527,594.9348441926345 L598.3116147308782,591.5580736543909" stroke="yellow" stroke-width="1" fill="none" />
<path d="M615.1954674220963,608.4419263456091 L611.8186968838527,594.9348441926345" stroke="yellow" stroke-width="1" fill="none" />
<path d="M611.8186968838527,621.9490084985836 L615.1954674220963,608.4419263456091" stroke="yellow" stroke-width="1" fill="none" />
<path d="M598.3116147308782,625.3257790368272 L611.8186968838527,621.9490084985836" stroke="yellow" stroke-width="1" fill="none" />
<path d="M584.8045325779037,621.9490084985836 L598.3116147308782,625.3257790368272" stroke="yellow" stroke-width="1" fill="none" />
<path d="M581.42776203966,608.4419263456091 L584.8045325779037,621.9490084985836" stroke="yellow" stroke-width="1" fill="none" />
<path d="M611.8186968838527,635.456090651558 L635.456090651558,621.9490084985836" stroke="yellow" stroke-width="1" fill="none" />
<path d="M635.456090651558,594.9348441926345 L611.8186968838527,581.42776203966" stroke="yellow" stroke-width="1" fill="none" />
<path d="M584.8045325779037,581.42776203966 L561.1671388101983,594.9348441926345" stroke="yellow" stroke-width="1" fill="none" />
<path d="M561.1671388101983,621.9490084985836 L584.8045325779037,635.456090651558" stroke="yellow" stroke-width="1" fill="none" />
<path d="M561.1671388101983,594.9348441926345 L561.1671388101983,621.9490084985836" stroke="yellow" stroke-width="1" fill="none" />
<path d="M635.456090651558,621.9490084985836 L635.456090651558,594.9348441926345" stroke="yellow" stroke-width="1" fill="none" />
<path d="M611.8186968838527,581.42776203966 L584.8045325779037,581.42776203966" stroke="yellow" stroke-width="1" fill="none" />
<path d="M584.8045325779037,635.456090651558 L611.8186968838527,635.456090651558" stroke="yellow" stroke-width="1" fill="none" />
<path d="M307.90934844192634,635.456090651558 L311.28611898016993,608.4419263456091" stroke="yellow" stroke-width="1" fill="none" />
<path d="M311.28611898016993,608.4419263456091 L307.90934844192634,581.42776203966" stroke="yellow" stroke-width="1" fill="none" />
<path d="M571.2974504249291,318.0396600566572 L598.3116147308782,321.4164305949008" stroke="yellow" stroke-width="1" fill="none" />
<path d="M598.3116147308782,321.4164305949008 L625.3257790368272,318.0396600566572" stroke="yellow" stroke-width="1" fill="none" />
<path d="M888.7138810198301,581.42776203966 L885.3371104815865,608.4419263456091" stroke="yellow" stroke-width="1" fill="none" />
<path d="M885.3371104815865,608.4419263456091 L888.7138810198301,635.456090651558" stroke="yellow" stroke-width="1" fill="none" />
<path d="M625.3257790368272,898.8441926345608 L598.3116147308782,895.4674220963173" stroke="yellow" stroke-width="1" fill="none" />
<path d="M598.3116147308782,895.4674220963173 L571.2974504249291,898.8441926345608" stroke="yellow" stroke-width="1" fill="none" />
<path d="M284.2719546742209,594.9348441926345 L37.76770538243625,594.9348441926345" stroke="yellow" stroke-width="1" fill="none" />
<path d="M37.76770538243625,621.9490084985836 L284.2719546742209,621.9490084985836" stroke="yellow" stroke-width="1" fill="none" />
<path d="M37.76770538243625,594.9348441926345 L41.14447592067984,561.1671388101984" stroke="yellow" stroke-width="1" fill="none" />
<path d="M41.14447592067984,561.1671388101984 L54.65155807365437,513.8923512747875" stroke="yellow" stroke-width="1" fill="none" />
<path d="M54.65155807365437,513.8923512747875 L95.17280453257786,486.8781869688385" stroke="yellow" stroke-width="1" fill="none" />
<path d="M95.17280453257786,486.8781869688385 L145.82436260623228,476.74787535410763" stroke="yellow" stroke-width="1" fill="none" />
<path d="M145.82436260623228,476.74787535410763 L172.8385269121813,476.74787535410763" stroke="yellow" stroke-width="1" fill="none" />
<path d="M172.8385269121813,476.74787535410763 L226.8668555240793,486.8781869688385" stroke="yellow" stroke-width="1" fill="none" />
<path d="M226.8668555240793,486.8781869688385 L267.3881019830028,513.8923512747875" stroke="yellow" stroke-width="1" fill="none" />
<path d="M267.3881019830028,513.8923512747875 L280.89518413597733,561.1671388101984" stroke="yellow" stroke-width="1" fill="none" />
<path d="M280.89518413597733,561.1671388101984 L284.2719546742209,594.9348441926345" stroke="yellow" stroke-width="1" fill="none" />
<path d="M284.2719546742209,621.9490084985836 L280.89518413597733,655.7167138810198" stroke="yellow" stroke-width="1" fill="none" />
<path d="M280.89518413597733,655.7167138810198 L267.3881019830028,702.9915014164305" stroke="yellow" stroke-width="1" fill="none" />
<path d="M267.3881019830028,702.9915014164305 L226.8668555240793,730.0056657223796" stroke="yellow" stroke-width="1" fill="none" />
<path d="M226.8668555240793,730.0056657223796 L172.8385269121813,743.5127478753541" stroke="yellow" stroke-width="1" fill="none" />
<path d="M54.65155807365437,702.9915014164305 L41.14447592067984,655.7167138810198" stroke="yellow" stroke-width="1" fill="none" />
<path d="M41.14447592067984,655.7167138810198 L37.76770538243625,621.9490084985836" stroke="yellow" stroke-width="1" fill="none" />
<path d="M172.8385269121813,743.5127478753541 L145.82436260623228,743.5127478753541" stroke="yellow" stroke-width="1" fill="none" />
<path d="M95.17280453257786,730.0056657223796 L54.65155807365437,702.9915014164305" stroke="yellow" stroke-width="1" fill="none" />
<path d="M145.82436260623228,743.5127478753541 L95.17280453257786,730.0056657223796" stroke="yellow" stroke-width="1" fill="none" />
<path d="M463.2407932011331,1054.1756373937678 L466.61756373937675,1006.9008498583569" stroke="yellow" stroke-width="1" fill="none" />
<path d="M466.61756373937675,1006.9008498583569 L480.1246458923513,959.6260623229462" stroke="yellow" stroke-width="1" fill="none" />
<path d="M480.1246458923513,959.6260623229462 L520.6458923512748,932.6118980169972" stroke="yellow" stroke-width="1" fill="none" />
<path d="M520.6458923512748,932.6118980169972 L571.2974504249291,922.4815864022663" stroke="yellow" stroke-width="1" fill="none" />
<path d="M571.2974504249291,922.4815864022663 L625.3257790368272,922.4815864022663" stroke="yellow" stroke-width="1" fill="none" />
<path d="M625.3257790368272,922.4815864022663 L679.3541076487252,932.6118980169972" stroke="yellow" stroke-width="1" fill="none" />
<path d="M679.3541076487252,932.6118980169972 L719.8753541076487,959.6260623229462" stroke="yellow" stroke-width="1" fill="none" />
<path d="M719.8753541076487,959.6260623229462 L733.3824362606232,1006.9008498583569" stroke="yellow" stroke-width="1" fill="none" />
<path d="M733.3824362606232,1006.9008498583569 L736.7592067988669,1054.1756373937678" stroke="yellow" stroke-width="1" fill="none" />
<path d="M736.7592067988669,1054.1756373937678 L733.3824362606232,1098.0736543909347" stroke="yellow" stroke-width="1" fill="none" />
<path d="M733.3824362606232,1098.0736543909347 L719.8753541076487,1145.3484419263457" stroke="yellow" stroke-width="1" fill="none" />
<path d="M719.8753541076487,1145.3484419263457 L679.3541076487252,1172.3626062322946" stroke="yellow" stroke-width="1" fill="none" />
<path d="M679.3541076487252,1172.3626062322946 L625.3257790368272,1185.869688385269" stroke="yellow" stroke-width="1" fill="none" />
<path d="M480.1246458923513,1145.3484419263457 L466.61756373937675,1098.0736543909347" stroke="yellow" stroke-width="1" fill="none" />
<path d="M466.61756373937675,1098.0736543909347 L463.2407932011331,1054.1756373937678" stroke="yellow" stroke-width="1" fill="none" />
<path d="M625.3257790368272,1185.869688385269 L571.2974504249291,1185.869688385269" stroke="yellow" stroke-width="1" fill="none" />
<path d="M520.6458923512748,1172.3626062322946 L480.1246458923513,1145.3484419263457" stroke="yellow" stroke-width="1" fill="none" />
<path d="M571.2974504249291,1185.869688385269 L520.6458923512748,1172.3626062322946" stroke="yellow" stroke-width="1" fill="none" />
<path d="M463.2407932011331,166.08498583569406 L466.61756373937675,118.81019830028322" stroke="yellow" stroke-width="1" fill="none" />
<path d="M466.61756373937675,118.81019830028322 L480.1246458923513,71.5354107648725" stroke="yellow" stroke-width="1" fill="none" />
<path d="M480.1246458923513,71.5354107648725 L520.6458923512748,44.52124645892354" stroke="yellow" stroke-width="1" fill="none" />
<path d="M520.6458923512748,44.52124645892354 L571.2974504249291,34.39093484419266" stroke="yellow" stroke-width="1" fill="none" />
<path d="M571.2974504249291,34.39093484419266 L625.3257790368272,34.39093484419266" stroke="yellow" stroke-width="1" fill="none" />
<path d="M625.3257790368272,34.39093484419266 L679.3541076487252,44.52124645892354" stroke="yellow" stroke-width="1" fill="none" />
<path d="M679.3541076487252,44.52124645892354 L719.8753541076487,71.5354107648725" stroke="yellow" stroke-width="1" fill="none" />
<path d="M719.8753541076487,71.5354107648725 L733.3824362606232,118.81019830028322" stroke="yellow" stroke-width="1" fill="none" />
<path d="M733.3824362606232,118.81019830028322 L736.7592067988669,166.08498583569406" stroke="yellow" stroke-width="1" fill="none" />
<path d="M736.7592067988669,166.08498583569406 L733.3824362606232,209.9830028328612" stroke="yellow" stroke-width="1" fill="none" />
<path d="M733.3824362606232,209.9830028328612 L719.8753541076487,257.2577903682719" stroke="yellow" stroke-width="1" fill="none" />
<path d="M719.8753541076487,257.2577903682719 L679.3541076487252,284.271954674221" stroke="yellow" stroke-width="1" fill="none" />
<path d="M679.3541076487252,284.271954674221 L625.3257790368272,294.4022662889518" stroke="yellow" stroke-width="1" fill="none" />
<path d="M480.1246458923513,257.2577903682719 L466.61756373937675,209.9830028328612" stroke="yellow" stroke-width="1" fill="none" />
<path d="M466.61756373937675,209.9830028328612 L463.2407932011331,166.08498583569406" stroke="yellow" stroke-width="1" fill="none" />
<path d="M625.3257790368272,294.4022662889518 L571.2974504249291,294.4022662889518" stroke="yellow" stroke-width="1" fill="none" />
<path d="M520.6458923512748,284.271954674221 L480.1246458923513,257.2577903682719" stroke="yellow" stroke-width="1" fill="none" />
<path d="M571.2974504249291,294.4022662889518 L520.6458923512748,284.271954674221" stroke="yellow" stroke-width="1" fill="none" />
<path d="M922.4815864022663,486.8781869688385 L969.756373937677,459.8640226628895" stroke="yellow" stroke-width="1" fill="none" />
<path d="M915.728045325779,594.9348441926345 L919.1048158640226,561.1671388101984" stroke="yellow" stroke-width="1" fill="none" />
<path d="M919.1048158640226,561.1671388101984 L932.6118980169972,513.8923512747875" stroke="yellow" stroke-width="1" fill="none" />
<path d="M932.6118980169972,513.8923512747875 L973.1331444759207,486.8781869688385" stroke="yellow" stroke-width="1" fill="none" />
<path d="M973.1331444759207,486.8781869688385 L1023.7847025495751,476.74787535410763" stroke="yellow" stroke-width="1" fill="none" />
<path d="M1050.798866855524,476.74787535410763 L1104.8271954674221,486.8781869688385" stroke="yellow" stroke-width="1" fill="none" />
<path d="M1104.8271954674221,486.8781869688385 L1145.3484419263455,513.8923512747875" stroke="yellow" stroke-width="1" fill="none" />
<path d="M1145.3484419263455,513.8923512747875 L1158.8555240793203,561.1671388101984" stroke="yellow" stroke-width="1" fill="none" />
<path d="M1158.8555240793203,561.1671388101984 L1162.2322946175636,594.9348441926345" stroke="yellow" stroke-width="1" fill="none" />
<path d="M1162.2322946175636,621.9490084985836 L1158.8555240793203,655.7167138810198" stroke="yellow" stroke-width="1" fill="none" />
<path d="M1158.8555240793203,655.7167138810198 L1145.3484419263455,702.9915014164305" stroke="yellow" stroke-width="1" fill="none" />
<path d="M1145.3484419263455,702.9915014164305 L1104.8271954674221,730.0056657223796" stroke="yellow" stroke-width="1" fill="none" />
<path d="M1104.8271954674221,730.0056657223796 L1050.798866855524,743.5127478753541" stroke="yellow" stroke-width="1" fill="none" />
<path d="M932.6118980169972,702.9915014164305 L919.1048158640226,655.7167138810198" stroke="yellow" stroke-width="1" fill="none" />
<path d="M919.1048158640226,655.7167138810198 L915.728045325779,621.9490084985836" stroke="yellow" stroke-width="1" fill="none" />
<path d="M973.1331444759207,730.0056657223796 L932.6118980169972,702.9915014164305" stroke="yellow" stroke-width="1" fill="none" />
<path d="M1023.7847025495751,743.5127478753541 L973.1331444759207,730.0056657223796" stroke="yellow" stroke-width="1" fill="none" />
<path d="M1050.798866855524,743.5127478753541 L1050.798866855524,621.9490084985836" stroke="yellow" stroke-width="1" fill="none" />
<path d="M1050.798866855524,621.9490084985836 L1162.2322946175636,621.9490084985836" stroke="yellow" stroke-width="1" fill="none" />
<path d="M1162.2322946175636,594.9348441926345 L1050.798866855524,594.9348441926345" stroke="yellow" stroke-width="1" fill="none" />
<path d="M1050.798866855524,594.9348441926345 L1050.798866855524,476.74787535410763" stroke="yellow" stroke-width="1" fill="none" />
<path d="M1023.7847025495751,476.74787535410763 L1023.7847025495751,594.9348441926345" stroke="yellow" stroke-width="1" fill="none" />
<path d="M1023.7847025495751,594.9348441926345 L915.728045325779,594.9348441926345" stroke="yellow" stroke-width="1" fill="none" />
<path d="M915.728045325779,621.9490084985836 L1023.7847025495751,621.9490084985836" stroke="yellow" stroke-width="1" fill="none" />
<path d="M1023.7847025495751,621.9490084985836 L1023.7847025495751,743.5127478753541" stroke="yellow" stroke-width="1" fill="none" />
<path d="M115.43342776203963,696.2379603399434 L91.79603399433427,682.7308781869689" stroke="yellow" stroke-width="1" fill="none" />
<path d="M88.41926345609062,689.4844192634561 L112.05665722379604,702.9915014164305" stroke="lavender" stroke-width="1" fill="none" />
<path d="M112.05665722379604,702.9915014164305 L115.43342776203963,696.2379603399434" stroke="yellow" stroke-width="1" fill="none" />
<path d="M91.79603399433427,682.7308781869689 L88.41926345609062,689.4844192634561" stroke="yellow" stroke-width="1" fill="none" />
<path d="M88.41926345609062,534.1529745042493 L112.05665722379604,520.6458923512748" stroke="yellow" stroke-width="1" fill="none" />
<path d="M112.05665722379604,520.6458923512748 L108.67988668555239,513.8923512747875" stroke="yellow" stroke-width="1" fill="none" />
<path d="M85.04249291784697,527.399433427762 L88.41926345609062,534.1529745042493" stroke="yellow" stroke-width="1" fill="none" />
<path d="M233.62039660056655,527.399433427762 L209.9830028328612,513.8923512747875" stroke="lavender" stroke-width="1" fill="none" />
<path d="M206.60623229461754,520.6458923512748 L230.2436260623229,534.1529745042493" stroke="yellow" stroke-width="1" fill="none" />
<path d="M230.2436260623229,534.1529745042493 L233.62039660056655,527.399433427762" stroke="yellow" stroke-width="1" fill="none" />
<path d="M209.9830028328612,513.8923512747875 L206.60623229461754,520.6458923512748" stroke="yellow" stroke-width="1" fill="none" />
<path d="M230.2436260623229,682.7308781869689 L206.60623229461754,696.2379603399434" stroke="yellow" stroke-width="1" fill="none" />
<path d="M233.62039660056655,689.4844192634561 L230.2436260623229,682.7308781869689" stroke="yellow" stroke-width="1" fill="none" />
<path d="M206.60623229461754,696.2379603399434 L209.9830028328612,702.9915014164305" stroke="yellow" stroke-width="1" fill="none" />
<path d="M524.0226628895184,983.2634560906515 L547.6600566572238,969.756373937677" stroke="yellow" stroke-width="1" fill="none" />
<path d="M547.6600566572238,969.756373937677 L544.2832861189802,963.0028328611897" stroke="yellow" stroke-width="1" fill="none" />
<path d="M520.6458923512748,976.5099150141643 L524.0226628895184,983.2634560906515" stroke="yellow" stroke-width="1" fill="none" />
<path d="M679.3541076487252,976.5099150141643 L655.7167138810198,963.0028328611897" stroke="lavender" stroke-width="1" fill="none" />
<path d="M652.3399433427762,969.756373937677 L675.9773371104816,983.2634560906515" stroke="yellow" stroke-width="1" fill="none" />
<path d="M675.9773371104816,983.2634560906515 L679.3541076487252,976.5099150141643" stroke="yellow" stroke-width="1" fill="none" />
<path d="M655.7167138810198,963.0028328611897 L652.3399433427762,969.756373937677" stroke="yellow" stroke-width="1" fill="none" />
<path d="M547.6600566572238,1138.5949008498583 L524.0226628895184,1125.087818696884" stroke="yellow" stroke-width="1" fill="none" />
<path d="M520.6458923512748,1131.841359773371 L544.2832861189802,1145.3484419263457" stroke="lavender" stroke-width="1" fill="none" />
<path d="M544.2832861189802,1145.3484419263457 L547.6600566572238,1138.5949008498583" stroke="yellow" stroke-width="1" fill="none" />
<path d="M524.0226628895184,1125.087818696884 L520.6458923512748,1131.841359773371" stroke="yellow" stroke-width="1" fill="none" />
<path d="M675.9773371104816,1125.087818696884 L652.3399433427762,1138.5949008498583" stroke="yellow" stroke-width="1" fill="none" />
<path d="M679.3541076487252,1131.841359773371 L675.9773371104816,1125.087818696884" stroke="yellow" stroke-width="1" fill="none" />
<path d="M652.3399433427762,1138.5949008498583 L655.7167138810198,1145.3484419263457" stroke="yellow" stroke-width="1" fill="none" />
<path d="M1000.1473087818697,696.2379603399434 L976.5099150141643,682.7308781869689" stroke="yellow" stroke-width="1" fill="none" />
<path d="M973.1331444759207,689.4844192634561 L996.7705382436261,702.9915014164305" stroke="lavender" stroke-width="1" fill="none" />
<path d="M996.7705382436261,702.9915014164305 L1000.1473087818697,696.2379603399434" stroke="yellow" stroke-width="1" fill="none" />
<path d="M976.5099150141643,682.7308781869689 L973.1331444759207,689.4844192634561" stroke="yellow" stroke-width="1" fill="none" />
<path d="M1101.4504249291786,682.7308781869689 L1077.8130311614732,696.2379603399434" stroke="yellow" stroke-width="1" fill="none" />
<path d="M1081.1898016997166,702.9915014164305 L1104.8271954674221,689.4844192634561" stroke="lavender" stroke-width="1" fill="none" />
<path d="M1104.8271954674221,689.4844192634561 L1101.4504249291786,682.7308781869689" stroke="yellow" stroke-width="1" fill="none" />
<path d="M1077.8130311614732,696.2379603399434 L1081.1898016997166,702.9915014164305" stroke="yellow" stroke-width="1" fill="none" />
<path d="M996.7705382436261,513.8923512747875 L973.1331444759207,527.399433427762" stroke="lavender" stroke-width="1" fill="none" />
<path d="M976.5099150141643,534.1529745042493 L1000.1473087818697,520.6458923512748" stroke="yellow" stroke-width="1" fill="none" />
<path d="M1000.1473087818697,520.6458923512748 L996.7705382436261,513.8923512747875" stroke="yellow" stroke-width="1" fill="none" />
<path d="M973.1331444759207,527.399433427762 L976.5099150141643,534.1529745042493" stroke="yellow" stroke-width="1" fill="none" />
<path d="M1104.8271954674221,527.399433427762 L1081.1898016997166,513.8923512747875" stroke="lavender" stroke-width="1" fill="none" />
<path d="M1077.8130311614732,520.6458923512748 L1101.4504249291786,534.1529745042493" stroke="yellow" stroke-width="1" fill="none" />
<path d="M1101.4504249291786,534.1529745042493 L1104.8271954674221,527.399433427762" stroke="yellow" stroke-width="1" fill="none" />
<path d="M1081.1898016997166,513.8923512747875 L1077.8130311614732,520.6458923512748" stroke="yellow" stroke-width="1" fill="none" />
<path d="M753.643059490085,236.9971671388102 L726.6288951841359,284.271954674221" stroke="yellow" stroke-width="1" fill="none" />
<path d="M760.3966005665723,240.3739376770538 L733.3824362606232,287.64872521246457" stroke="yellow" stroke-width="1" fill="none" />
<path d="M740.1359773371105,291.0254957507082 L767.1501416430594,243.75070821529744" stroke="yellow" stroke-width="1" fill="none" />
<path d="M834.6855524079319,426.09631728045326 L811.0481586402266,412.58923512747873" stroke="yellow" stroke-width="1" fill="none" />
<path d="M794.1643059490085,395.7053824362606 L780.657223796034,372.06798866855524" stroke="yellow" stroke-width="1" fill="none" />
<path d="M963.0028328611897,446.35694050991503 L915.728045325779,473.371104815864" stroke="yellow" stroke-width="1" fill="none" />
<path d="M919.1048158640226,480.1246458923513 L966.3796033994334,453.1104815864023" stroke="yellow" stroke-width="1" fill="none" />
<path d="M858.3229461756374,247.12747875354108 L885.3371104815865,250.50424929178467" stroke="yellow" stroke-width="1" fill="none" />
<path d="M959.6260623229462,324.79320113314446 L963.0028328611897,351.8073654390935" stroke="yellow" stroke-width="1" fill="none" />
<path d="M838.0623229461756,257.2577903682719 L800.9178470254958,405.8356940509915" stroke="yellow" stroke-width="1" fill="none" />
<path d="M800.9178470254958,405.8356940509915 L949.4957507082153,375.44475920679884" stroke="yellow" stroke-width="1" fill="none" />
<path d="M949.4957507082153,375.44475920679884 L838.0623229461756,257.2577903682719" stroke="yellow" stroke-width="1" fill="none" />
<path d="M854.9461756373937,324.79320113314446 L854.9461756373937,351.8073654390935" stroke="yellow" stroke-width="1" fill="none" />
<path d="M854.9461756373937,351.8073654390935 L881.9603399433428,351.8073654390935" stroke="yellow" stroke-width="1" fill="none" />
<path d="M881.9603399433428,351.8073654390935 L881.9603399433428,324.79320113314446" stroke="yellow" stroke-width="1" fill="none" />
<path d="M881.9603399433428,324.79320113314446 L854.9461756373937,324.79320113314446" stroke="yellow" stroke-width="1" fill="none" />
<path d="M787.4107648725212,318.0396600566572 L814.4249291784703,270.76487252124645" stroke="yellow" stroke-width="1" fill="none" />
<path d="M935.9886685552408,399.08215297450425 L888.7138810198301,426.09631728045326" stroke="yellow" stroke-width="1" fill="none" />
<path d="M838.0623229461756,959.6260623229462 L949.4957507082153,841.4390934844192" stroke="yellow" stroke-width="1" fill="none" />
<path d="M949.4957507082153,841.4390934844192 L800.9178470254958,807.671388101983" stroke="yellow" stroke-width="1" fill="none" />
<path d="M800.9178470254958,807.671388101983 L838.0623229461756,959.6260623229462" stroke="yellow" stroke-width="1" fill="none" />
<path d="M969.756373937677,757.0198300283287 L922.4815864022663,730.0056657223796" stroke="yellow" stroke-width="1" fill="none" />
<path d="M966.3796033994334,763.7733711048159 L919.1048158640226,736.7592067988669" stroke="yellow" stroke-width="1" fill="none" />
<path d="M915.728045325779,743.5127478753541 L963.0028328611897,770.5269121813031" stroke="yellow" stroke-width="1" fill="none" />
<path d="M767.1501416430594,973.1331444759207 L740.1359773371105,925.8583569405099" stroke="yellow" stroke-width="1" fill="none" />
<path d="M733.3824362606232,929.2351274787536 L760.3966005665723,976.5099150141643" stroke="yellow" stroke-width="1" fill="none" />
<path d="M726.6288951841359,932.6118980169972 L753.643059490085,979.8866855524079" stroke="yellow" stroke-width="1" fill="none" />
<path d="M854.9461756373937,892.0906515580737 L881.9603399433428,892.0906515580737" stroke="yellow" stroke-width="1" fill="none" />
<path d="M881.9603399433428,892.0906515580737 L881.9603399433428,865.0764872521247" stroke="yellow" stroke-width="1" fill="none" />
<path d="M881.9603399433428,865.0764872521247 L854.9461756373937,865.0764872521247" stroke="yellow" stroke-width="1" fill="none" />
<path d="M854.9461756373937,865.0764872521247 L854.9461756373937,892.0906515580737" stroke="yellow" stroke-width="1" fill="none" />
<path d="M888.7138810198301,790.7875354107649 L935.9886685552408,817.8016997167139" stroke="yellow" stroke-width="1" fill="none" />
<path d="M814.4249291784703,946.1189801699717 L787.4107648725212,898.8441926345608" stroke="yellow" stroke-width="1" fill="none" />
<path d="M442.9801699716714,979.8866855524079 L469.9943342776204,932.6118980169972" stroke="yellow" stroke-width="1" fill="none" />
<path d="M436.22662889518415,976.5099150141643 L463.2407932011331,929.2351274787536" stroke="yellow" stroke-width="1" fill="none" />
<path d="M456.48725212464586,925.8583569405099 L429.47308781869685,973.1331444759207" stroke="yellow" stroke-width="1" fill="none" />
<path d="M409.2124645892351,898.8441926345608 L382.19830028328613,946.1189801699717" stroke="yellow" stroke-width="1" fill="none" />
<path d="M260.63456090651556,817.8016997167139 L307.90934844192634,790.7875354107649" stroke="yellow" stroke-width="1" fill="none" />
<path d="M233.62039660056655,770.5269121813031 L280.89518413597733,743.5127478753541" stroke="yellow" stroke-width="1" fill="none" />
<path d="M274.1416430594901,730.0056657223796 L226.8668555240793,757.0198300283287" stroke="yellow" stroke-width="1" fill="none" />
<path d="M361.93767705382436,790.7875354107649 L385.5750708215297,804.2946175637394" stroke="yellow" stroke-width="1" fill="none" />
<path d="M402.45892351274784,821.1784702549576 L415.9660056657224,844.8158640226629" stroke="yellow" stroke-width="1" fill="none" />
<path d="M334.92351274787535,973.1331444759207 L307.90934844192634,969.756373937677" stroke="yellow" stroke-width="1" fill="none" />
<path d="M233.62039660056655,895.4674220963173 L233.62039660056655,868.4532577903683" stroke="yellow" stroke-width="1" fill="none" />
<path d="M247.12747875354103,841.4390934844192 L358.5609065155807,959.6260623229462" stroke="yellow" stroke-width="1" fill="none" />
<path d="M395.7053824362606,811.0481586402266 L247.12747875354103,841.4390934844192" stroke="yellow" stroke-width="1" fill="none" />
<path d="M358.5609065155807,959.6260623229462 L395.7053824362606,811.0481586402266" stroke="yellow" stroke-width="1" fill="none" />
<path d="M314.6628895184136,865.0764872521247 L314.6628895184136,892.0906515580737" stroke="yellow" stroke-width="1" fill="none" />
<path d="M341.6770538243626,865.0764872521247 L314.6628895184136,865.0764872521247" stroke="yellow" stroke-width="1" fill="none" />
<path d="M341.6770538243626,892.0906515580737 L341.6770538243626,865.0764872521247" stroke="yellow" stroke-width="1" fill="none" />
<path d="M314.6628895184136,892.0906515580737 L341.6770538243626,892.0906515580737" stroke="yellow" stroke-width="1" fill="none" />
<path d="M226.8668555240793,459.8640226628895 L274.1416430594901,486.8781869688385" stroke="yellow" stroke-width="1" fill="none" />
<path d="M277.5184135977337,736.7592067988669 L230.2436260623229,763.7733711048159" stroke="yellow" stroke-width="1" fill="none" />
<path d="M230.2436260623229,453.1104815864023 L277.5184135977337,480.1246458923513" stroke="yellow" stroke-width="1" fill="none" />
<path d="M280.89518413597733,473.371104815864 L233.62039660056655,446.35694050991503" stroke="yellow" stroke-width="1" fill="none" />
<path d="M307.90934844192634,426.09631728045326 L260.63456090651556,399.08215297450425" stroke="yellow" stroke-width="1" fill="none" />
<path d="M469.9943342776204,284.271954674221 L442.9801699716714,236.9971671388102" stroke="yellow" stroke-width="1" fill="none" />
<path d="M463.2407932011331,287.64872521246457 L436.22662889518415,240.3739376770538" stroke="yellow" stroke-width="1" fill="none" />
<path d="M429.47308781869685,243.75070821529744 L456.48725212464586,291.0254957507082" stroke="yellow" stroke-width="1" fill="none" />
<path d="M415.9660056657224,372.06798866855524 L402.45892351274784,395.7053824362606" stroke="yellow" stroke-width="1" fill="none" />
<path d="M385.5750708215297,412.58923512747873 L361.93767705382436,426.09631728045326" stroke="yellow" stroke-width="1" fill="none" />
<path d="M233.62039660056655,351.8073654390935 L236.9971671388102,324.79320113314446" stroke="yellow" stroke-width="1" fill="none" />
<path d="M311.28611898016993,250.50424929178467 L338.300283286119,250.50424929178467" stroke="yellow" stroke-width="1" fill="none" />
<path d="M247.12747875354103,375.44475920679884 L395.7053824362606,405.8356940509915" stroke="yellow" stroke-width="1" fill="none" />
<path d="M395.7053824362606,405.8356940509915 L358.5609065155807,257.2577903682719" stroke="yellow" stroke-width="1" fill="none" />
<path d="M358.5609065155807,257.2577903682719 L247.12747875354103,375.44475920679884" stroke="yellow" stroke-width="1" fill="none" />
<path d="M314.6628895184136,351.8073654390935 L341.6770538243626,351.8073654390935" stroke="yellow" stroke-width="1" fill="none" />
<path d="M341.6770538243626,351.8073654390935 L341.6770538243626,324.79320113314446" stroke="yellow" stroke-width="1" fill="none" />
<path d="M341.6770538243626,324.79320113314446 L314.6628895184136,324.79320113314446" stroke="yellow" stroke-width="1" fill="none" />
<path d="M314.6628895184136,324.79320113314446 L314.6628895184136,351.8073654390935" stroke="yellow" stroke-width="1" fill="none" />
<path d="M382.19830028328613,270.76487252124645 L409.2124645892351,318.0396600566572" stroke="yellow" stroke-width="1" fill="none" />
<path d="M588.1813031161473,179.59206798866853 L608.4419263456091,179.59206798866853" stroke="yellow" stroke-width="1" fill="none" />
<path d="M615.1954674220963,172.83852691218124 L615.1954674220963,152.57790368271958" stroke="yellow" stroke-width="1" fill="none" />
<path d="M608.4419263456091,145.82436260623228 L588.1813031161473,145.82436260623228" stroke="yellow" stroke-width="1" fill="none" />
<path d="M581.42776203966,152.57790368271958 L581.42776203966,172.83852691218124" stroke="yellow" stroke-width="1" fill="none" />
<path d="M10.753541076487181,615.1954674220963 L10.753541076487181,601.6883852691218" stroke="yellow" stroke-width="1" fill="none" />
<path d="M605.0651558073654,1206.130311614731 L591.5580736543909,1206.130311614731" stroke="yellow" stroke-width="1" fill="none" />
<path d="M1189.2464589235128,601.6883852691218 L1189.2464589235128,615.1954674220963" stroke="yellow" stroke-width="1" fill="none" />
<path d="M591.5580736543909,10.753541076487181 L605.0651558073654,10.753541076487181" stroke="yellow" stroke-width="1" fill="none" />
<path d="M544.2832861189802,963.0028328611897 L520.6458923512748,976.5099150141643" stroke="lavender" stroke-width="1" fill="none" />
<path d="M655.7167138810198,1145.3484419263457 L679.3541076487252,1131.841359773371" stroke="lavender" stroke-width="1" fill="none" />
<path d="M209.9830028328612,702.9915014164305 L233.62039660056655,689.4844192634561" stroke="lavender" stroke-width="1" fill="none" />
<path d="M108.67988668555239,513.8923512747875 L85.04249291784697,527.399433427762" stroke="lavender" stroke-width="1" fill="none" />
<path d="M395.7053824362606,277.5184135977337 L432.8498583569405,270.76487252124645" stroke="yellow" stroke-width="1" fill="none" />
<path d="M432.8498583569405,270.76487252124645 L409.2124645892351,301.1558073654391" stroke="yellow" stroke-width="1" fill="none" />
<path d="M409.2124645892351,301.1558073654391 L409.2124645892351,284.271954674221" stroke="yellow" stroke-width="1" fill="none" />
<path d="M409.2124645892351,284.271954674221 L395.7053824362606,277.5184135977337" stroke="yellow" stroke-width="1" fill="none" />
<path d="M267.3881019830028,800.9178470254958 L260.63456090651556,763.7733711048159" stroke="yellow" stroke-width="1" fill="none" />
<path d="M260.63456090651556,763.7733711048159 L287.64872521246457,787.4107648725212" stroke="yellow" stroke-width="1" fill="none" />
<path d="M287.64872521246457,787.4107648725212 L274.1416430594901,787.4107648725212" stroke="yellow" stroke-width="1" fill="none" />
<path d="M274.1416430594901,787.4107648725212 L267.3881019830028,800.9178470254958" stroke="yellow" stroke-width="1" fill="none" />
<path d="M767.1501416430594,942.7422096317281 L787.4107648725212,912.3512747875354" stroke="yellow" stroke-width="1" fill="none" />
<path d="M787.4107648725212,912.3512747875354 L787.4107648725212,929.2351274787536" stroke="yellow" stroke-width="1" fill="none" />
<path d="M787.4107648725212,929.2351274787536 L804.2946175637394,935.9886685552408" stroke="yellow" stroke-width="1" fill="none" />
<path d="M804.2946175637394,935.9886685552408 L767.1501416430594,942.7422096317281" stroke="yellow" stroke-width="1" fill="none" />
<path d="M780.657223796034,841.4390934844192 L794.1643059490085,817.8016997167139" stroke="yellow" stroke-width="1" fill="none" />
<path d="M811.0481586402266,800.9178470254958 L834.6855524079319,787.4107648725212" stroke="yellow" stroke-width="1" fill="none" />
<path d="M963.0028328611897,865.0764872521247 L963.0028328611897,892.0906515580737" stroke="yellow" stroke-width="1" fill="none" />
<path d="M888.7138810198301,966.3796033994334 L861.699716713881,966.3796033994334" stroke="yellow" stroke-width="1" fill="none" />
<path d="M935.9886685552408,449.7337110481586 L932.6118980169972,415.9660056657224" stroke="yellow" stroke-width="1" fill="none" />
<path d="M932.6118980169972,415.9660056657224 L922.4815864022663,426.09631728045326" stroke="yellow" stroke-width="1" fill="none" />
<path d="M922.4815864022663,426.09631728045326 L905.5977337110481,429.47308781869685" stroke="yellow" stroke-width="1" fill="none" />
<path d="M905.5977337110481,429.47308781869685 L935.9886685552408,449.7337110481586" stroke="yellow" stroke-width="1" fill="none" />
<path d="M436.22662889518415,453.1104815864023 L436.22662889518415,480.1246458923513" stroke="yellow" stroke-width="1" fill="none" />
<path d="M432.8498583569405,480.1246458923513 L432.8498583569405,453.1104815864023" stroke="yellow" stroke-width="1" fill="none" />
<path d="M429.47308781869685,480.1246458923513 L429.47308781869685,453.1104815864023" stroke="lavender" stroke-width="1" fill="none" />
<path d="M584.8045325779037,405.8356940509915 L611.8186968838527,405.8356940509915" stroke="yellow" stroke-width="1" fill="none" />
<path d="M611.8186968838527,405.8356940509915 L611.8186968838527,378.8215297450425" stroke="yellow" stroke-width="1" fill="none" />
<path d="M611.8186968838527,378.8215297450425 L584.8045325779037,378.8215297450425" stroke="yellow" stroke-width="1" fill="none" />
<path d="M584.8045325779037,378.8215297450425 L584.8045325779037,405.8356940509915" stroke="yellow" stroke-width="1" fill="none" />
<path d="M571.2974504249291,311.28611898016993 L571.2974504249291,318.0396600566572" stroke="yellow" stroke-width="1" fill="none" />
<path d="M625.3257790368272,311.28611898016993 L571.2974504249291,311.28611898016993" stroke="yellow" stroke-width="1" fill="none" />
<path d="M625.3257790368272,318.0396600566572 L625.3257790368272,311.28611898016993" stroke="yellow" stroke-width="1" fill="none" />
<path d="M672.600566572238,844.8158640226629 L625.3257790368272,871.8300283286119" stroke="red" stroke-width="1" fill="none" />
<path d="M571.2974504249291,871.8300283286119 L524.0226628895184,844.8158640226629" stroke="red" stroke-width="1" fill="none" />
<path d="M679.3541076487252,790.7875354107649 L675.9773371104816,817.8016997167139" stroke="red" stroke-width="1" fill="none" />
<path d="M675.9773371104816,817.8016997167139 L672.600566572238,844.8158640226629" stroke="red" stroke-width="1" fill="none" />
<path d="M524.0226628895184,844.8158640226629 L520.6458923512748,817.8016997167139" stroke="red" stroke-width="1" fill="none" />
<path d="M520.6458923512748,817.8016997167139 L517.2691218130311,790.7875354107649" stroke="red" stroke-width="1" fill="none" />
<path d="M807.671388101983,530.7762039660056 L834.6855524079319,534.1529745042493" stroke="red" stroke-width="1" fill="none" />
<path d="M780.657223796034,527.399433427762 L807.671388101983,530.7762039660056" stroke="red" stroke-width="1" fill="none" />
<path d="M834.6855524079319,682.7308781869689 L807.671388101983,686.1076487252125" stroke="red" stroke-width="1" fill="none" />
<path d="M807.671388101983,686.1076487252125 L780.657223796034,689.4844192634561" stroke="red" stroke-width="1" fill="none" />
<path d="M388.95184135977337,530.7762039660056 L415.9660056657224,527.399433427762" stroke="red" stroke-width="1" fill="none" />
<path d="M361.93767705382436,534.1529745042493 L388.95184135977337,530.7762039660056" stroke="red" stroke-width="1" fill="none" />
<path d="M415.9660056657224,689.4844192634561 L388.95184135977337,686.1076487252125" stroke="red" stroke-width="1" fill="none" />
<path d="M388.95184135977337,686.1076487252125 L361.93767705382436,682.7308781869689" stroke="red" stroke-width="1" fill="none" />
<path d="M517.2691218130311,426.09631728045326 L520.6458923512748,399.08215297450425" stroke="red" stroke-width="1" fill="none" />
<path d="M520.6458923512748,399.08215297450425 L524.0226628895184,372.06798866855524" stroke="red" stroke-width="1" fill="none" />
<path d="M672.600566572238,372.06798866855524 L675.9773371104816,399.08215297450425" stroke="red" stroke-width="1" fill="none" />
<path d="M675.9773371104816,399.08215297450425 L679.3541076487252,426.09631728045326" stroke="red" stroke-width="1" fill="none" />
<path d="M524.0226628895184,372.06798866855524 L571.2974504249291,345.05382436260624" stroke="red" stroke-width="1" fill="none" />
<path d="M625.3257790368272,345.05382436260624 L672.600566572238,372.06798866855524" stroke="red" stroke-width="1" fill="none" />
<path d="M861.699716713881,635.456090651558 L834.6855524079319,682.7308781869689" stroke="red" stroke-width="1" fill="none" />
<path d="M834.6855524079319,534.1529745042493 L861.699716713881,581.42776203966" stroke="red" stroke-width="1" fill="none" />
<path d="M334.92351274787535,581.42776203966 L361.93767705382436,534.1529745042493" stroke="red" stroke-width="1" fill="none" />
<path d="M361.93767705382436,682.7308781869689 L334.92351274787535,635.456090651558" stroke="red" stroke-width="1" fill="none" />
<path d="M780.657223796034,689.4844192634561 L753.643059490085,736.7592067988669" stroke="red" stroke-width="1" fill="none" />
<path d="M726.6288951841359,763.7733711048159 L679.3541076487252,790.7875354107649" stroke="red" stroke-width="1" fill="none" />
<path d="M753.643059490085,763.7733711048159 L726.6288951841359,763.7733711048159" stroke="red" stroke-width="1" fill="none" />
<path d="M753.643059490085,736.7592067988669 L753.643059490085,763.7733711048159" stroke="red" stroke-width="1" fill="none" />
<path d="M679.3541076487252,426.09631728045326 L726.6288951841359,453.1104815864023" stroke="red" stroke-width="1" fill="none" />
<path d="M726.6288951841359,453.1104815864023 L753.643059490085,453.1104815864023" stroke="red" stroke-width="1" fill="none" />
<path d="M753.643059490085,453.1104815864023 L753.643059490085,480.1246458923513" stroke="red" stroke-width="1" fill="none" />
<path d="M753.643059490085,480.1246458923513 L780.657223796034,527.399433427762" stroke="red" stroke-width="1" fill="none" />
<path d="M517.2691218130311,790.7875354107649 L469.9943342776204,763.7733711048159" stroke="red" stroke-width="1" fill="none" />
<path d="M469.9943342776204,763.7733711048159 L442.9801699716714,763.7733711048159" stroke="red" stroke-width="1" fill="none" />
<path d="M442.9801699716714,763.7733711048159 L442.9801699716714,736.7592067988669" stroke="red" stroke-width="1" fill="none" />
<path d="M442.9801699716714,736.7592067988669 L415.9660056657224,689.4844192634561" stroke="red" stroke-width="1" fill="none" />
<path d="M415.9660056657224,527.399433427762 L442.9801699716714,480.1246458923513" stroke="red" stroke-width="1" fill="none" />
<path d="M469.9943342776204,453.1104815864023 L517.2691218130311,426.09631728045326" stroke="red" stroke-width="1" fill="none" />
<path d="M442.9801699716714,453.1104815864023 L469.9943342776204,453.1104815864023" stroke="red" stroke-width="1" fill="none" />
<path d="M571.2974504249291,345.05382436260624 L571.2974504249291,318.0396600566572" stroke="red" stroke-width="1" fill="none" />
<path d="M625.3257790368272,318.0396600566572 L625.3257790368272,345.05382436260624" stroke="red" stroke-width="1" fill="none" />
<path d="M334.92351274787535,635.456090651558 L307.90934844192634,635.456090651558" stroke="red" stroke-width="1" fill="none" />
<path d="M307.90934844192634,581.42776203966 L334.92351274787535,581.42776203966" stroke="red" stroke-width="1" fill="none" />
<path d="M861.699716713881,581.42776203966 L888.7138810198301,581.42776203966" stroke="red" stroke-width="1" fill="none" />
<path d="M888.7138810198301,635.456090651558 L861.699716713881,635.456090651558" stroke="red" stroke-width="1" fill="none" />
<path d="M625.3257790368272,871.8300283286119 L625.3257790368272,898.8441926345608" stroke="red" stroke-width="1" fill="none" />
<path d="M571.2974504249291,898.8441926345608 L571.2974504249291,871.8300283286119" stroke="red" stroke-width="1" fill="none" />
<path d="M307.90934844192634,635.456090651558 L301.15580736543905,682.7308781869689" stroke="red" stroke-width="1" fill="none" />
<path d="M301.15580736543905,682.7308781869689 L274.1416430594901,730.0056657223796" stroke="red" stroke-width="1" fill="none" />
<path d="M91.79603399433427,757.0198300283287 L44.52124645892343,730.0056657223796" stroke="red" stroke-width="1" fill="none" />
<path d="M44.52124645892343,730.0056657223796 L17.507082152974476,682.7308781869689" stroke="red" stroke-width="1" fill="none" />
<path d="M17.507082152974476,682.7308781869689 L10.753541076487181,628.7025495750709" stroke="red" stroke-width="1" fill="none" />
<path d="M17.507082152974476,534.1529745042493 L44.52124645892343,486.8781869688385" stroke="red" stroke-width="1" fill="none" />
<path d="M44.52124645892343,486.8781869688385 L91.79603399433427,459.8640226628895" stroke="red" stroke-width="1" fill="none" />
<path d="M91.79603399433427,459.8640226628895 L145.82436260623228,453.1104815864023" stroke="red" stroke-width="1" fill="none" />
<path d="M274.1416430594901,486.8781869688385 L301.15580736543905,534.1529745042493" stroke="red" stroke-width="1" fill="none" />
<path d="M226.8668555240793,757.0198300283287 L172.8385269121813,763.7733711048159" stroke="red" stroke-width="1" fill="none" />
<path d="M172.8385269121813,453.1104815864023 L226.8668555240793,459.8640226628895" stroke="red" stroke-width="1" fill="none" />
<path d="M145.82436260623228,763.7733711048159 L91.79603399433427,757.0198300283287" stroke="red" stroke-width="1" fill="none" />
<path d="M301.15580736543905,534.1529745042493 L307.90934844192634,581.42776203966" stroke="red" stroke-width="1" fill="none" />
<path d="M10.753541076487181,588.1813031161473 L17.507082152974476,534.1529745042493" stroke="red" stroke-width="1" fill="none" />
<path d="M172.8385269121813,763.7733711048159 L145.82436260623228,763.7733711048159" stroke="red" stroke-width="1" fill="none" />
<path d="M145.82436260623228,453.1104815864023 L172.8385269121813,453.1104815864023" stroke="red" stroke-width="1" fill="none" />
<path d="M760.3966005665723,1071.0594900849858 L753.643059490085,1125.087818696884" stroke="red" stroke-width="1" fill="none" />
<path d="M753.643059490085,1125.087818696884 L726.6288951841359,1172.3626062322946" stroke="red" stroke-width="1" fill="none" />
<path d="M517.2691218130311,1199.3767705382436 L469.9943342776204,1172.3626062322946" stroke="red" stroke-width="1" fill="none" />
<path d="M469.9943342776204,1172.3626062322946 L442.9801699716714,1125.087818696884" stroke="red" stroke-width="1" fill="none" />
<path d="M442.9801699716714,1125.087818696884 L436.22662889518415,1071.0594900849858" stroke="red" stroke-width="1" fill="none" />
<path d="M469.9943342776204,932.6118980169972 L517.2691218130311,905.5977337110481" stroke="red" stroke-width="1" fill="none" />
<path d="M517.2691218130311,905.5977337110481 L571.2974504249291,898.8441926345608" stroke="red" stroke-width="1" fill="none" />
<path d="M679.3541076487252,905.5977337110481 L726.6288951841359,932.6118980169972" stroke="red" stroke-width="1" fill="none" />
<path d="M726.6288951841359,1172.3626062322946 L679.3541076487252,1199.3767705382436" stroke="red" stroke-width="1" fill="none" />
<path d="M679.3541076487252,1199.3767705382436 L625.3257790368272,1206.130311614731" stroke="red" stroke-width="1" fill="none" />
<path d="M625.3257790368272,898.8441926345608 L679.3541076487252,905.5977337110481" stroke="red" stroke-width="1" fill="none" />
<path d="M571.2974504249291,1206.130311614731 L517.2691218130311,1199.3767705382436" stroke="red" stroke-width="1" fill="none" />
<path d="M753.643059490085,979.8866855524079 L760.3966005665723,1033.9150141643058" stroke="red" stroke-width="1" fill="none" />
<path d="M436.22662889518415,1033.9150141643058 L442.9801699716714,979.8866855524079" stroke="red" stroke-width="1" fill="none" />
<path d="M760.3966005665723,1033.9150141643058 L760.3966005665723,1071.0594900849858" stroke="red" stroke-width="1" fill="none" />
<path d="M436.22662889518415,1071.0594900849858 L436.22662889518415,1033.9150141643058" stroke="red" stroke-width="1" fill="none" />
<path d="M760.3966005665723,182.96883852691212 L753.643059490085,236.9971671388102" stroke="red" stroke-width="1" fill="none" />
<path d="M517.2691218130311,311.28611898016993 L469.9943342776204,284.271954674221" stroke="red" stroke-width="1" fill="none" />
<path d="M442.9801699716714,236.9971671388102 L436.22662889518415,182.96883852691212" stroke="red" stroke-width="1" fill="none" />
<path d="M442.9801699716714,91.79603399433427 L469.9943342776204,44.52124645892354" stroke="red" stroke-width="1" fill="none" />
<path d="M469.9943342776204,44.52124645892354 L517.2691218130311,17.507082152974476" stroke="red" stroke-width="1" fill="none" />
<path d="M517.2691218130311,17.507082152974476 L571.2974504249291,10.753541076487181" stroke="red" stroke-width="1" fill="none" />
<path d="M679.3541076487252,17.507082152974476 L726.6288951841359,44.52124645892354" stroke="red" stroke-width="1" fill="none" />
<path d="M726.6288951841359,44.52124645892354 L753.643059490085,91.79603399433427" stroke="red" stroke-width="1" fill="none" />
<path d="M726.6288951841359,284.271954674221 L679.3541076487252,311.28611898016993" stroke="red" stroke-width="1" fill="none" />
<path d="M679.3541076487252,311.28611898016993 L625.3257790368272,318.0396600566572" stroke="red" stroke-width="1" fill="none" />
<path d="M625.3257790368272,10.753541076487181 L679.3541076487252,17.507082152974476" stroke="red" stroke-width="1" fill="none" />
<path d="M571.2974504249291,318.0396600566572 L517.2691218130311,311.28611898016993" stroke="red" stroke-width="1" fill="none" />
<path d="M753.643059490085,91.79603399433427 L760.3966005665723,145.82436260623228" stroke="red" stroke-width="1" fill="none" />
<path d="M436.22662889518415,145.82436260623228 L442.9801699716714,91.79603399433427" stroke="red" stroke-width="1" fill="none" />
<path d="M760.3966005665723,145.82436260623228 L760.3966005665723,182.96883852691212" stroke="red" stroke-width="1" fill="none" />
<path d="M436.22662889518415,182.96883852691212 L436.22662889518415,145.82436260623228" stroke="red" stroke-width="1" fill="none" />
<path d="M1189.2464589235128,621.9490084985836 L1179.1161473087818,682.7308781869689" stroke="red" stroke-width="1" fill="none" />
<path d="M1179.1161473087818,682.7308781869689 L1152.1019830028329,730.0056657223796" stroke="red" stroke-width="1" fill="none" />
<path d="M922.4815864022663,730.0056657223796 L895.4674220963173,682.7308781869689" stroke="red" stroke-width="1" fill="none" />
<path d="M895.4674220963173,682.7308781869689 L888.7138810198301,635.456090651558" stroke="red" stroke-width="1" fill="none" />
<path d="M895.4674220963173,534.1529745042493 L922.4815864022663,486.8781869688385" stroke="red" stroke-width="1" fill="none" />
<path d="M969.756373937677,459.8640226628895 L1023.7847025495751,453.1104815864023" stroke="red" stroke-width="1" fill="none" />
<path d="M1104.8271954674221,459.8640226628895 L1152.1019830028329,486.8781869688385" stroke="red" stroke-width="1" fill="none" />
<path d="M1152.1019830028329,486.8781869688385 L1179.1161473087818,534.1529745042493" stroke="red" stroke-width="1" fill="none" />
<path d="M1152.1019830028329,730.0056657223796 L1104.8271954674221,757.0198300283287" stroke="red" stroke-width="1" fill="none" />
<path d="M1104.8271954674221,757.0198300283287 L1050.798866855524,763.7733711048159" stroke="red" stroke-width="1" fill="none" />
<path d="M1050.798866855524,453.1104815864023 L1104.8271954674221,459.8640226628895" stroke="red" stroke-width="1" fill="none" />
<path d="M1023.7847025495751,763.7733711048159 L969.756373937677,757.0198300283287" stroke="red" stroke-width="1" fill="none" />
<path d="M1179.1161473087818,534.1529745042493 L1189.2464589235128,594.9348441926345" stroke="red" stroke-width="1" fill="none" />
<path d="M888.7138810198301,581.42776203966 L895.4674220963173,534.1529745042493" stroke="red" stroke-width="1" fill="none" />
<path d="M1050.798866855524,763.7733711048159 L1023.7847025495751,763.7733711048159" stroke="red" stroke-width="1" fill="none" />
<path d="M1023.7847025495751,453.1104815864023 L1050.798866855524,453.1104815864023" stroke="red" stroke-width="1" fill="none" />
<path d="M753.643059490085,236.9971671388102 L760.3966005665723,240.3739376770538" stroke="red" stroke-width="1" fill="none" />
<path d="M760.3966005665723,240.3739376770538 L767.1501416430594,243.75070821529744" stroke="red" stroke-width="1" fill="none" />
<path d="M767.1501416430594,243.75070821529744 L814.4249291784703,270.76487252124645" stroke="red" stroke-width="1" fill="none" />
<path d="M733.3824362606232,287.64872521246457 L726.6288951841359,284.271954674221" stroke="red" stroke-width="1" fill="none" />
<path d="M740.1359773371105,291.0254957507082 L733.3824362606232,287.64872521246457" stroke="red" stroke-width="1" fill="none" />
<path d="M787.4107648725212,318.0396600566572 L740.1359773371105,291.0254957507082" stroke="red" stroke-width="1" fill="none" />
<path d="M922.4815864022663,486.8781869688385 L919.1048158640226,480.1246458923513" stroke="red" stroke-width="1" fill="none" />
<path d="M915.728045325779,473.371104815864 L888.7138810198301,426.09631728045326" stroke="red" stroke-width="1" fill="none" />
<path d="M919.1048158640226,480.1246458923513 L915.728045325779,473.371104815864" stroke="red" stroke-width="1" fill="none" />
<path d="M966.3796033994334,453.1104815864023 L969.756373937677,459.8640226628895" stroke="red" stroke-width="1" fill="none" />
<path d="M935.9886685552408,399.08215297450425 L963.0028328611897,446.35694050991503" stroke="red" stroke-width="1" fill="none" />
<path d="M963.0028328611897,446.35694050991503 L966.3796033994334,453.1104815864023" stroke="red" stroke-width="1" fill="none" />
<path d="M888.7138810198301,426.09631728045326 L834.6855524079319,426.09631728045326" stroke="red" stroke-width="1" fill="none" />
<path d="M780.657223796034,372.06798866855524 L787.4107648725212,318.0396600566572" stroke="red" stroke-width="1" fill="none" />
<path d="M885.3371104815865,250.50424929178467 L932.6118980169972,277.5184135977337" stroke="red" stroke-width="1" fill="none" />
<path d="M932.6118980169972,277.5184135977337 L959.6260623229462,324.79320113314446" stroke="red" stroke-width="1" fill="none" />
<path d="M814.4249291784703,270.76487252124645 L838.0623229461756,257.2577903682719" stroke="red" stroke-width="1" fill="none" />
<path d="M838.0623229461756,257.2577903682719 L858.3229461756374,247.12747875354108" stroke="red" stroke-width="1" fill="none" />
<path d="M811.0481586402266,412.58923512747873 L800.9178470254958,405.8356940509915" stroke="red" stroke-width="1" fill="none" />
<path d="M800.9178470254958,405.8356940509915 L794.1643059490085,395.7053824362606" stroke="red" stroke-width="1" fill="none" />
<path d="M963.0028328611897,351.8073654390935 L949.4957507082153,375.44475920679884" stroke="red" stroke-width="1" fill="none" />
<path d="M949.4957507082153,375.44475920679884 L935.9886685552408,399.08215297450425" stroke="red" stroke-width="1" fill="none" />
<path d="M963.0028328611897,770.5269121813031 L935.9886685552408,817.8016997167139" stroke="red" stroke-width="1" fill="none" />
<path d="M969.756373937677,757.0198300283287 L966.3796033994334,763.7733711048159" stroke="red" stroke-width="1" fill="none" />
<path d="M966.3796033994334,763.7733711048159 L963.0028328611897,770.5269121813031" stroke="red" stroke-width="1" fill="none" />
<path d="M888.7138810198301,790.7875354107649 L915.728045325779,743.5127478753541" stroke="red" stroke-width="1" fill="none" />
<path d="M919.1048158640226,736.7592067988669 L922.4815864022663,730.0056657223796" stroke="red" stroke-width="1" fill="none" />
<path d="M915.728045325779,743.5127478753541 L919.1048158640226,736.7592067988669" stroke="red" stroke-width="1" fill="none" />
<path d="M834.6855524079319,787.4107648725212 L888.7138810198301,790.7875354107649" stroke="red" stroke-width="1" fill="none" />
<path d="M935.9886685552408,817.8016997167139 L949.4957507082153,841.4390934844192" stroke="red" stroke-width="1" fill="none" />
<path d="M949.4957507082153,841.4390934844192 L963.0028328611897,865.0764872521247" stroke="red" stroke-width="1" fill="none" />
<path d="M963.0028328611897,892.0906515580737 L935.9886685552408,939.3654390934844" stroke="red" stroke-width="1" fill="none" />
<path d="M935.9886685552408,939.3654390934844 L888.7138810198301,966.3796033994334" stroke="red" stroke-width="1" fill="none" />
<path d="M861.699716713881,966.3796033994334 L838.0623229461756,959.6260623229462" stroke="red" stroke-width="1" fill="none" />
<path d="M838.0623229461756,959.6260623229462 L814.4249291784703,946.1189801699717" stroke="red" stroke-width="1" fill="none" />
<path d="M814.4249291784703,946.1189801699717 L767.1501416430594,973.1331444759207" stroke="red" stroke-width="1" fill="none" />
<path d="M767.1501416430594,973.1331444759207 L760.3966005665723,976.5099150141643" stroke="red" stroke-width="1" fill="none" />
<path d="M760.3966005665723,976.5099150141643 L753.643059490085,979.8866855524079" stroke="red" stroke-width="1" fill="none" />
<path d="M740.1359773371105,925.8583569405099 L787.4107648725212,898.8441926345608" stroke="red" stroke-width="1" fill="none" />
<path d="M733.3824362606232,929.2351274787536 L740.1359773371105,925.8583569405099" stroke="red" stroke-width="1" fill="none" />
<path d="M726.6288951841359,932.6118980169972 L733.3824362606232,929.2351274787536" stroke="red" stroke-width="1" fill="none" />
<path d="M787.4107648725212,898.8441926345608 L780.657223796034,841.4390934844192" stroke="red" stroke-width="1" fill="none" />
<path d="M794.1643059490085,817.8016997167139 L800.9178470254958,807.671388101983" stroke="red" stroke-width="1" fill="none" />
<path d="M800.9178470254958,807.671388101983 L811.0481586402266,800.9178470254958" stroke="red" stroke-width="1" fill="none" />
<path d="M429.47308781869685,973.1331444759207 L382.19830028328613,946.1189801699717" stroke="red" stroke-width="1" fill="none" />
<path d="M442.9801699716714,979.8866855524079 L436.22662889518415,976.5099150141643" stroke="red" stroke-width="1" fill="none" />
<path d="M436.22662889518415,976.5099150141643 L429.47308781869685,973.1331444759207" stroke="red" stroke-width="1" fill="none" />
<path d="M409.2124645892351,898.8441926345608 L456.48725212464586,925.8583569405099" stroke="red" stroke-width="1" fill="none" />
<path d="M463.2407932011331,929.2351274787536 L469.9943342776204,932.6118980169972" stroke="red" stroke-width="1" fill="none" />
<path d="M456.48725212464586,925.8583569405099 L463.2407932011331,929.2351274787536" stroke="red" stroke-width="1" fill="none" />
<path d="M260.63456090651556,817.8016997167139 L233.62039660056655,770.5269121813031" stroke="red" stroke-width="1" fill="none" />
<path d="M233.62039660056655,770.5269121813031 L230.2436260623229,763.7733711048159" stroke="red" stroke-width="1" fill="none" />
<path d="M230.2436260623229,763.7733711048159 L226.8668555240793,757.0198300283287" stroke="red" stroke-width="1" fill="none" />
<path d="M280.89518413597733,743.5127478753541 L307.90934844192634,790.7875354107649" stroke="red" stroke-width="1" fill="none" />
<path d="M277.5184135977337,736.7592067988669 L280.89518413597733,743.5127478753541" stroke="red" stroke-width="1" fill="none" />
<path d="M274.1416430594901,730.0056657223796 L277.5184135977337,736.7592067988669" stroke="red" stroke-width="1" fill="none" />
<path d="M307.90934844192634,790.7875354107649 L361.93767705382436,790.7875354107649" stroke="red" stroke-width="1" fill="none" />
<path d="M415.9660056657224,844.8158640226629 L409.2124645892351,898.8441926345608" stroke="red" stroke-width="1" fill="none" />
<path d="M385.5750708215297,804.2946175637394 L395.7053824362606,811.0481586402266" stroke="red" stroke-width="1" fill="none" />
<path d="M395.7053824362606,811.0481586402266 L402.45892351274784,821.1784702549576" stroke="red" stroke-width="1" fill="none" />
<path d="M382.19830028328613,946.1189801699717 L358.5609065155807,959.6260623229462" stroke="red" stroke-width="1" fill="none" />
<path d="M358.5609065155807,959.6260623229462 L334.92351274787535,973.1331444759207" stroke="red" stroke-width="1" fill="none" />
<path d="M307.90934844192634,969.756373937677 L260.63456090651556,942.7422096317281" stroke="red" stroke-width="1" fill="none" />
<path d="M260.63456090651556,942.7422096317281 L233.62039660056655,895.4674220963173" stroke="red" stroke-width="1" fill="none" />
<path d="M233.62039660056655,868.4532577903683 L247.12747875354103,841.4390934844192" stroke="red" stroke-width="1" fill="none" />
<path d="M247.12747875354103,841.4390934844192 L260.63456090651556,817.8016997167139" stroke="red" stroke-width="1" fill="none" />
<path d="M233.62039660056655,446.35694050991503 L260.63456090651556,399.08215297450425" stroke="red" stroke-width="1" fill="none" />
<path d="M226.8668555240793,459.8640226628895 L230.2436260623229,453.1104815864023" stroke="red" stroke-width="1" fill="none" />
<path d="M230.2436260623229,453.1104815864023 L233.62039660056655,446.35694050991503" stroke="red" stroke-width="1" fill="none" />
<path d="M307.90934844192634,426.09631728045326 L280.89518413597733,473.371104815864" stroke="red" stroke-width="1" fill="none" />
<path d="M277.5184135977337,480.1246458923513 L274.1416430594901,486.8781869688385" stroke="red" stroke-width="1" fill="none" />
<path d="M280.89518413597733,473.371104815864 L277.5184135977337,480.1246458923513" stroke="red" stroke-width="1" fill="none" />
<path d="M382.19830028328613,270.76487252124645 L429.47308781869685,243.75070821529744" stroke="red" stroke-width="1" fill="none" />
<path d="M436.22662889518415,240.3739376770538 L442.9801699716714,236.9971671388102" stroke="red" stroke-width="1" fill="none" />
<path d="M429.47308781869685,243.75070821529744 L436.22662889518415,240.3739376770538" stroke="red" stroke-width="1" fill="none" />
<path d="M456.48725212464586,291.0254957507082 L409.2124645892351,318.0396600566572" stroke="red" stroke-width="1" fill="none" />
<path d="M469.9943342776204,284.271954674221 L463.2407932011331,287.64872521246457" stroke="red" stroke-width="1" fill="none" />
<path d="M463.2407932011331,287.64872521246457 L456.48725212464586,291.0254957507082" stroke="red" stroke-width="1" fill="none" />
<path d="M361.93767705382436,426.09631728045326 L307.90934844192634,426.09631728045326" stroke="red" stroke-width="1" fill="none" />
<path d="M409.2124645892351,318.0396600566572 L415.9660056657224,372.06798866855524" stroke="red" stroke-width="1" fill="none" />
<path d="M402.45892351274784,395.7053824362606 L395.7053824362606,405.8356940509915" stroke="red" stroke-width="1" fill="none" />
<path d="M395.7053824362606,405.8356940509915 L385.5750708215297,412.58923512747873" stroke="red" stroke-width="1" fill="none" />
<path d="M260.63456090651556,399.08215297450425 L247.12747875354103,375.44475920679884" stroke="red" stroke-width="1" fill="none" />
<path d="M247.12747875354103,375.44475920679884 L233.62039660056655,351.8073654390935" stroke="red" stroke-width="1" fill="none" />
<path d="M236.9971671388102,324.79320113314446 L264.0113314447592,277.5184135977337" stroke="red" stroke-width="1" fill="none" />
<path d="M264.0113314447592,277.5184135977337 L311.28611898016993,250.50424929178467" stroke="red" stroke-width="1" fill="none" />
<path d="M338.300283286119,250.50424929178467 L358.5609065155807,257.2577903682719" stroke="red" stroke-width="1" fill="none" />
<path d="M358.5609065155807,257.2577903682719 L382.19830028328613,270.76487252124645" stroke="red" stroke-width="1" fill="none" />
<path d="M588.1813031161473,176.21529745042494 L608.4419263456091,176.21529745042494" stroke="lavender" stroke-width="1" fill="none" />
<path d="M608.4419263456091,149.20113314447588 L588.1813031161473,149.20113314447588" stroke="lavender" stroke-width="1" fill="none" />
<path d="M584.8045325779037,152.57790368271958 L584.8045325779037,172.83852691218124" stroke="lavender" stroke-width="1" fill="none" />
<path d="M611.8186968838527,172.83852691218124 L611.8186968838527,152.57790368271958" stroke="lavender" stroke-width="1" fill="none" />
<path d="M581.42776203966,179.59206798866853 L588.1813031161473,179.59206798866853" stroke="red" stroke-width="1" fill="none" />
<path d="M588.1813031161473,179.59206798866853 L588.1813031161473,176.21529745042494" stroke="red" stroke-width="1" fill="none" />
<path d="M608.4419263456091,176.21529745042494 L608.4419263456091,179.59206798866853" stroke="red" stroke-width="1" fill="none" />
<path d="M608.4419263456091,179.59206798866853 L615.1954674220963,179.59206798866853" stroke="red" stroke-width="1" fill="none" />
<path d="M615.1954674220963,179.59206798866853 L615.1954674220963,172.83852691218124" stroke="red" stroke-width="1" fill="none" />
<path d="M615.1954674220963,172.83852691218124 L611.8186968838527,172.83852691218124" stroke="red" stroke-width="1" fill="none" />
<path d="M611.8186968838527,152.57790368271958 L615.1954674220963,152.57790368271958" stroke="red" stroke-width="1" fill="none" />
<path d="M615.1954674220963,152.57790368271958 L615.1954674220963,145.82436260623228" stroke="red" stroke-width="1" fill="none" />
<path d="M615.1954674220963,145.82436260623228 L608.4419263456091,145.82436260623228" stroke="red" stroke-width="1" fill="none" />
<path d="M608.4419263456091,145.82436260623228 L608.4419263456091,149.20113314447588" stroke="red" stroke-width="1" fill="none" />
<path d="M588.1813031161473,149.20113314447588 L588.1813031161473,145.82436260623228" stroke="red" stroke-width="1" fill="none" />
<path d="M588.1813031161473,145.82436260623228 L581.42776203966,145.82436260623228" stroke="red" stroke-width="1" fill="none" />
<path d="M581.42776203966,145.82436260623228 L581.42776203966,152.57790368271958" stroke="red" stroke-width="1" fill="none" />
<path d="M581.42776203966,152.57790368271958 L584.8045325779037,152.57790368271958" stroke="red" stroke-width="1" fill="none" />
<path d="M584.8045325779037,172.83852691218124 L581.42776203966,172.83852691218124" stroke="red" stroke-width="1" fill="none" />
<path d="M581.42776203966,172.83852691218124 L581.42776203966,179.59206798866853" stroke="red" stroke-width="1" fill="none" />
<path d="M10.753541076487181,628.7025495750709 L10.753541076487181,615.1954674220963" stroke="red" stroke-width="1" fill="none" />
<path d="M10.753541076487181,601.6883852691218 L10.753541076487181,588.1813031161473" stroke="red" stroke-width="1" fill="none" />
<path d="M10.753541076487181,615.1954674220963 L4.0,615.1954674220963" stroke="red" stroke-width="1" fill="none" />
<path d="M4.0,615.1954674220963 L4.0,601.6883852691218" stroke="lavender" stroke-width="1" fill="none" />
<path d="M4.0,601.6883852691218 L10.753541076487181,601.6883852691218" stroke="red" stroke-width="1" fill="none" />
<path d="M605.0651558073654,1212.8838526912182 L591.5580736543909,1212.8838526912182" stroke="lavender" stroke-width="1" fill="none" />
<path d="M605.0651558073654,1206.130311614731 L605.0651558073654,1212.8838526912182" stroke="red" stroke-width="1" fill="none" />
<path d="M591.5580736543909,1212.8838526912182 L591.5580736543909,1206.130311614731" stroke="red" stroke-width="1" fill="none" />
<path d="M591.5580736543909,1206.130311614731 L571.2974504249291,1206.130311614731" stroke="red" stroke-width="1" fill="none" />
<path d="M625.3257790368272,1206.130311614731 L605.0651558073654,1206.130311614731" stroke="red" stroke-width="1" fill="none" />
<path d="M1196.0,601.6883852691218 L1196.0,615.1954674220963" stroke="lavender" stroke-width="1" fill="none" />
<path d="M1189.2464589235128,615.1954674220963 L1189.2464589235128,621.9490084985836" stroke="red" stroke-width="1" fill="none" />
<path d="M1196.0,615.1954674220963 L1189.2464589235128,615.1954674220963" stroke="red" stroke-width="1" fill="none" />
<path d="M1189.2464589235128,601.6883852691218 L1196.0,601.6883852691218" stroke="red" stroke-width="1" fill="none" />
<path d="M1189.2464589235128,594.9348441926345 L1189.2464589235128,601.6883852691218" stroke="red" stroke-width="1" fill="none" />
<path d="M571.2974504249291,10.753541076487181 L591.5580736543909,10.753541076487181" stroke="red" stroke-width="1" fill="none" />
<path d="M591.5580736543909,10.753541076487181 L591.5580736543909,4.0" stroke="red" stroke-width="1" fill="none" />
<path d="M591.5580736543909,4.0 L605.0651558073654,4.0" stroke="lavender" stroke-width="1" fill="none" />
<path d="M605.0651558073654,4.0 L605.0651558073654,10.753541076487181" stroke="red" stroke-width="1" fill="none" />
<path d="M605.0651558073654,10.753541076487181 L625.3257790368272,10.753541076487181" stroke="red" stroke-width="1" fill="none" />
<path d="M226.8668555240793,351.8073654390935 L230.2436260623229,324.79320113314446" stroke="lavender" stroke-width="1" fill="none" />
<path d="M311.28611898016993,243.75070821529744 L338.300283286119,243.75070821529744" stroke="lavender" stroke-width="1" fill="none" />
<path d="M422.7195467422096,375.44475920679884 L409.2124645892351,399.08215297450425" stroke="lavender" stroke-width="1" fill="none" />
<path d="M388.95184135977337,419.34277620396597 L365.31444759206795,432.8498583569405" stroke="lavender" stroke-width="1" fill="none" />
<path d="M365.31444759206795,432.8498583569405 L361.93767705382436,426.09631728045326" stroke="red" stroke-width="1" fill="none" />
<path d="M385.5750708215297,412.58923512747873 L388.95184135977337,419.34277620396597" stroke="red" stroke-width="1" fill="none" />
<path d="M415.9660056657224,372.06798866855524 L422.7195467422096,375.44475920679884" stroke="red" stroke-width="1" fill="none" />
<path d="M409.2124645892351,399.08215297450425 L402.45892351274784,395.7053824362606" stroke="red" stroke-width="1" fill="none" />
<path d="M233.62039660056655,351.8073654390935 L226.8668555240793,351.8073654390935" stroke="red" stroke-width="1" fill="none" />
<path d="M230.2436260623229,324.79320113314446 L236.9971671388102,324.79320113314446" stroke="red" stroke-width="1" fill="none" />
<path d="M311.28611898016993,250.50424929178467 L311.28611898016993,243.75070821529744" stroke="red" stroke-width="1" fill="none" />
<path d="M338.300283286119,243.75070821529744 L338.300283286119,250.50424929178467" stroke="red" stroke-width="1" fill="none" />
<path d="M831.3087818696883,432.8498583569405 L807.671388101983,419.34277620396597" stroke="lavender" stroke-width="1" fill="none" />
<path d="M787.4107648725212,399.08215297450425 L773.9036827195467,375.44475920679884" stroke="lavender" stroke-width="1" fill="none" />
<path d="M858.3229461756374,240.3739376770538 L885.3371104815865,243.75070821529744" stroke="lavender" stroke-width="1" fill="none" />
<path d="M966.3796033994334,324.79320113314446 L969.756373937677,351.8073654390935" stroke="lavender" stroke-width="1" fill="none" />
<path d="M794.1643059490085,395.7053824362606 L787.4107648725212,399.08215297450425" stroke="red" stroke-width="1" fill="none" />
<path d="M773.9036827195467,375.44475920679884 L780.657223796034,372.06798866855524" stroke="red" stroke-width="1" fill="none" />
<path d="M858.3229461756374,247.12747875354108 L858.3229461756374,240.3739376770538" stroke="red" stroke-width="1" fill="none" />
<path d="M885.3371104815865,243.75070821529744 L885.3371104815865,250.50424929178467" stroke="red" stroke-width="1" fill="none" />
<path d="M959.6260623229462,324.79320113314446 L966.3796033994334,324.79320113314446" stroke="red" stroke-width="1" fill="none" />
<path d="M969.756373937677,351.8073654390935 L963.0028328611897,351.8073654390935" stroke="red" stroke-width="1" fill="none" />
<path d="M834.6855524079319,426.09631728045326 L831.3087818696883,432.8498583569405" stroke="red" stroke-width="1" fill="none" />
<path d="M807.671388101983,419.34277620396597 L811.0481586402266,412.58923512747873" stroke="red" stroke-width="1" fill="none" />
<path d="M365.31444759206795,784.0339943342776 L388.95184135977337,797.5410764872521" stroke="lavender" stroke-width="1" fill="none" />
<path d="M409.2124645892351,817.8016997167139 L422.7195467422096,841.4390934844192" stroke="lavender" stroke-width="1" fill="none" />
<path d="M334.92351274787535,979.8866855524079 L307.90934844192634,976.5099150141643" stroke="lavender" stroke-width="1" fill="none" />
<path d="M226.8668555240793,895.4674220963173 L226.8668555240793,868.4532577903683" stroke="lavender" stroke-width="1" fill="none" />
<path d="M361.93767705382436,790.7875354107649 L365.31444759206795,784.0339943342776" stroke="red" stroke-width="1" fill="none" />
<path d="M388.95184135977337,797.5410764872521 L385.5750708215297,804.2946175637394" stroke="red" stroke-width="1" fill="none" />
<path d="M402.45892351274784,821.1784702549576 L409.2124645892351,817.8016997167139" stroke="red" stroke-width="1" fill="none" />
<path d="M422.7195467422096,841.4390934844192 L415.9660056657224,844.8158640226629" stroke="red" stroke-width="1" fill="none" />
<path d="M334.92351274787535,973.1331444759207 L334.92351274787535,979.8866855524079" stroke="red" stroke-width="1" fill="none" />
<path d="M307.90934844192634,976.5099150141643 L307.90934844192634,969.756373937677" stroke="red" stroke-width="1" fill="none" />
<path d="M233.62039660056655,895.4674220963173 L226.8668555240793,895.4674220963173" stroke="red" stroke-width="1" fill="none" />
<path d="M226.8668555240793,868.4532577903683 L233.62039660056655,868.4532577903683" stroke="red" stroke-width="1" fill="none" />
<path d="M773.9036827195467,838.0623229461756 L787.4107648725212,814.4249291784703" stroke="lavender" stroke-width="1" fill="none" />
<path d="M807.671388101983,794.1643059490085 L831.3087818696883,780.657223796034" stroke="lavender" stroke-width="1" fill="none" />
<path d="M969.756373937677,865.0764872521247 L969.756373937677,892.0906515580737" stroke="lavender" stroke-width="1" fill="none" />
<path d="M888.7138810198301,973.1331444759207 L861.699716713881,973.1331444759207" stroke="lavender" stroke-width="1" fill="none" />
<path d="M780.657223796034,841.4390934844192 L773.9036827195467,838.0623229461756" stroke="red" stroke-width="1" fill="none" />
<path d="M787.4107648725212,814.4249291784703 L794.1643059490085,817.8016997167139" stroke="red" stroke-width="1" fill="none" />
<path d="M811.0481586402266,800.9178470254958 L807.671388101983,794.1643059490085" stroke="red" stroke-width="1" fill="none" />
<path d="M831.3087818696883,780.657223796034 L834.6855524079319,787.4107648725212" stroke="red" stroke-width="1" fill="none" />
<path d="M963.0028328611897,865.0764872521247 L969.756373937677,865.0764872521247" stroke="red" stroke-width="1" fill="none" />
<path d="M969.756373937677,892.0906515580737 L963.0028328611897,892.0906515580737" stroke="red" stroke-width="1" fill="none" />
<path d="M888.7138810198301,966.3796033994334 L888.7138810198301,973.1331444759207" stroke="red" stroke-width="1" fill="none" />
<path d="M861.699716713881,973.1331444759207 L861.699716713881,966.3796033994334" stroke="red" stroke-width="1" fill="none" />
<path d="M442.9801699716714,480.1246458923513 L436.22662889518415,480.1246458923513" stroke="red" stroke-width="1" fill="none" />
<path d="M436.22662889518415,480.1246458923513 L432.8498583569405,480.1246458923513" stroke="red" stroke-width="1" fill="none" />
<path d="M432.8498583569405,480.1246458923513 L429.47308781869685,480.1246458923513" stroke="red" stroke-width="1" fill="none" />
<path d="M429.47308781869685,480.1246458923513 L409.2124645892351,480.1246458923513" stroke="red" stroke-width="1" fill="none" />
<path d="M409.2124645892351,480.1246458923513 L409.2124645892351,453.1104815864023" stroke="red" stroke-width="1" fill="none" />
<path d="M409.2124645892351,453.1104815864023 L429.47308781869685,453.1104815864023" stroke="red" stroke-width="1" fill="none" />
<path d="M429.47308781869685,453.1104815864023 L432.8498583569405,453.1104815864023" stroke="red" stroke-width="1" fill="none" />
<path d="M432.8498583569405,453.1104815864023 L436.22662889518415,453.1104815864023" stroke="red" stroke-width="1" fill="none" />
<path d="M436.22662889518415,453.1104815864023 L442.9801699716714,453.1104815864023" stroke="red" stroke-width="1" fill="none" />
</svg>