<?xml version="1.0" encoding="UTF-8"?>
<svg xmlns="http://www.w3.org/2000/svg" xmlns:xlink="http://www.w3.org/1999/xlink"
     width="1200" height="2408" viewBox="0 0 1200 2408">
<defs>
</defs>
<path d="M778.3180592991914,1273.1105121293801 L804.0215633423181,1273.1105121293801" stroke="yellow" stroke-width="1" fill="none" />
<path d="M804.0215633423181,1273.1105121293801 L804.0215633423181,1247.4070080862534" stroke="yellow" stroke-width="1" fill="none" />
<path d="M804.0215633423181,1247.4070080862534 L778.3180592991914,1247.4070080862534" stroke="yellow" stroke-width="1" fill="none" />
<path d="M778.3180592991914,1221.7035040431267 L804.0215633423181,1221.7035040431267" stroke="yellow" stroke-width="1" fill="none" />
<path d="M804.0215633423181,1221.7035040431267 L804.0215633423181,1196.0" stroke="yellow" stroke-width="1" fill="none" />
<path d="M804.0215633423181,1196.0 L778.3180592991914,1196.0" stroke="yellow" stroke-width="1" fill="none" />
<path d="M778.3180592991914,1170.2964959568735 L804.0215633423181,1170.2964959568735" stroke="yellow" stroke-width="1" fill="none" />
<path d="M804.0215633423181,1170.2964959568735 L804.0215633423181,1144.5929919137466" stroke="yellow" stroke-width="1" fill="none" />
<path d="M804.0215633423181,1144.5929919137466 L778.3180592991914,1144.5929919137466" stroke="yellow" stroke-width="1" fill="none" />
<path d="M778.3180592991914,1118.88948787062 L804.0215633423181,1118.88948787062" stroke="yellow" stroke-width="1" fill="none" />
<path d="M804.0215633423181,1118.88948787062 L804.0215633423181,1093.1859838274934" stroke="yellow" stroke-width="1" fill="none" />
<path d="M804.0215633423181,1093.1859838274934 L778.3180592991914,1093.1859838274934" stroke="yellow" stroke-width="1" fill="none" />
<path d="M778.3180592991914,1067.4824797843667 L804.0215633423181,1067.4824797843667" stroke="yellow" stroke-width="1" fill="none" />
<path d="M804.0215633423181,1067.4824797843667 L804.0215633423181,1041.77897574124" stroke="yellow" stroke-width="1" fill="none" />
<path d="M804.0215633423181,1041.77897574124 L778.3180592991914,1041.77897574124" stroke="yellow" stroke-width="1" fill="none" />
<path d="M829.7250673854447,1273.1105121293801 L855.4285714285714,1273.1105121293801" stroke="yellow" stroke-width="1" fill="none" />
<path d="M829.7250673854447,1247.4070080862534 L829.7250673854447,1273.1105121293801" stroke="yellow" stroke-width="1" fill="none" />
<path d="M855.4285714285714,1247.4070080862534 L829.7250673854447,1247.4070080862534" stroke="yellow" stroke-width="1" fill="none" />
<path d="M829.7250673854447,1221.7035040431267 L855.4285714285714,1221.7035040431267" stroke="yellow" stroke-width="1" fill="none" />
<path d="M829.7250673854447,1196.0 L829.7250673854447,1221.7035040431267" stroke="yellow" stroke-width="1" fill="none" />
<path d="M855.4285714285714,1196.0 L829.7250673854447,1196.0" stroke="yellow" stroke-width="1" fill="none" />
<path d="M829.7250673854447,1170.2964959568735 L855.4285714285714,1170.2964959568735" stroke="yellow" stroke-width="1" fill="none" />
<path d="M829.7250673854447,1144.5929919137466 L829.7250673854447,1170.2964959568735" stroke="yellow" stroke-width="1" fill="none" />
<path d="M855.4285714285714,1144.5929919137466 L829.7250673854447,1144.5929919137466" stroke="yellow" stroke-width="1" fill="none" />
<path d="M829.7250673854447,1118.88948787062 L855.4285714285714,1118.88948787062" stroke="yellow" stroke-width="1" fill="none" />
<path d="M829.7250673854447,1093.1859838274934 L829.7250673854447,1118.88948787062" stroke="yellow" stroke-width="1" fill="none" />
<path d="M855.4285714285714,1093.1859838274934 L829.7250673854447,1093.1859838274934" stroke="yellow" stroke-width="1" fill="none" />
<path d="M829.7250673854447,1067.4824797843667 L855.4285714285714,1067.4824797843667" stroke="yellow" stroke-width="1" fill="none" />
<path d="M829.7250673854447,1041.77897574124 L829.7250673854447,1067.4824797843667" stroke="yellow" stroke-width="1" fill="none" />
<path d="M855.4285714285714,1041.77897574124 L829.7250673854447,1041.77897574124" stroke="yellow" stroke-width="1" fill="none" />
<path d="M804.0215633423181,688.355795148248 L829.7250673854447,688.355795148248" stroke="yellow" stroke-width="1" fill="none" />
<path d="M752.6145552560647,1401.6280323450135 L752.6145552560647,1453.035040431267" stroke="yellow" stroke-width="1" fill="none" />
<path d="M778.3180592991914,1453.035040431267 L778.3180592991914,1401.6280323450135" stroke="yellow" stroke-width="1" fill="none" />
<path d="M855.4285714285714,1401.6280323450135 L855.4285714285714,1453.035040431267" stroke="yellow" stroke-width="1" fill="none" />
<path d="M881.1320754716982,1453.035040431267 L881.1320754716982,1401.6280323450135" stroke="yellow" stroke-width="1" fill="none" />
<path d="M752.6145552560647,887.5579514824799 L752.6145552560647,938.9649595687332" stroke="yellow" stroke-width="1" fill="none" />
<path d="M881.1320754716982,938.9649595687332 L881.1320754716982,887.5579514824799" stroke="yellow" stroke-width="1" fill="none" />
<path d="M855.4285714285714,887.5579514824799 L855.4285714285714,938.9649595687332" stroke="yellow" stroke-width="1" fill="none" />
<path d="M778.3180592991914,938.9649595687332 L778.3180592991914,887.5579514824799" stroke="yellow" stroke-width="1" fill="none" />
<path d="M804.0215633423181,1273.1105121293801 L829.7250673854447,1273.1105121293801" stroke="yellow" stroke-width="1" fill="none" />
<path d="M540.5606469002696,1244.1940700808627 L540.5606469002696,1192.7870619946093" stroke="yellow" stroke-width="1" fill="none" />
<path d="M540.5606469002696,1141.3800539083559 L540.5606469002696,1089.9730458221024" stroke="yellow" stroke-width="1" fill="none" />
<path d="M591.9676549865229,1334.156334231806 L566.2641509433962,1289.1752021563343" stroke="yellow" stroke-width="1" fill="none" />
<path d="M566.2641509433962,1044.9919137466309 L591.9676549865229,1000.0107816711591" stroke="yellow" stroke-width="1" fill="none" />
<path d="M662.6522911051213,929.3261455525608 L707.633423180593,903.6226415094341" stroke="yellow" stroke-width="1" fill="none" />
<path d="M707.633423180593,1430.5444743935311 L662.6522911051213,1404.8409703504044" stroke="yellow" stroke-width="1" fill="none" />
<path d="M926.1132075471698,903.6226415094341 L971.0943396226415,929.3261455525608" stroke="yellow" stroke-width="1" fill="none" />
<path d="M971.0943396226415,1404.8409703504044 L926.1132075471698,1430.5444743935311" stroke="yellow" stroke-width="1" fill="none" />
<path d="M1041.77897574124,1000.0107816711591 L1067.4824797843667,1044.9919137466309" stroke="yellow" stroke-width="1" fill="none" />
<path d="M1067.4824797843667,1289.1752021563343 L1041.77897574124,1334.156334231806" stroke="yellow" stroke-width="1" fill="none" />
<path d="M983.9460916442049,906.8355795148249 L938.9649595687331,881.1320754716982" stroke="yellow" stroke-width="1" fill="none" />
<path d="M1089.9730458221024,1032.1401617250674 L1064.2695417789757,987.1590296495958" stroke="yellow" stroke-width="1" fill="none" />
<path d="M1064.2695417789757,1347.0080862533694 L1089.9730458221024,1302.0269541778976" stroke="yellow" stroke-width="1" fill="none" />
<path d="M938.9649595687331,1453.035040431267 L983.9460916442049,1427.3315363881402" stroke="yellow" stroke-width="1" fill="none" />
<path d="M1093.1859838274931,1089.9730458221024 L1093.1859838274931,1141.3800539083559" stroke="yellow" stroke-width="1" fill="none" />
<path d="M1093.1859838274931,1192.7870619946093 L1093.1859838274931,1244.1940700808627" stroke="yellow" stroke-width="1" fill="none" />
<path d="M1118.88948787062,1141.3800539083559 L1118.88948787062,1089.9730458221024" stroke="yellow" stroke-width="1" fill="none" />
<path d="M1118.88948787062,1244.1940700808627 L1118.88948787062,1192.7870619946093" stroke="yellow" stroke-width="1" fill="none" />
<path d="M649.800539083558,1427.3315363881402 L694.7816711590297,1453.035040431267" stroke="yellow" stroke-width="1" fill="none" />
<path d="M569.4770889487871,987.1590296495958 L543.7735849056604,1032.1401617250674" stroke="yellow" stroke-width="1" fill="none" />
<path d="M543.7735849056604,1302.0269541778976 L569.4770889487871,1347.0080862533694" stroke="yellow" stroke-width="1" fill="none" />
<path d="M514.8571428571429,1089.9730458221024 L514.8571428571429,1141.3800539083559" stroke="yellow" stroke-width="1" fill="none" />
<path d="M514.8571428571429,1192.7870619946093 L514.8571428571429,1244.1940700808627" stroke="yellow" stroke-width="1" fill="none" />
<path d="M694.7816711590297,881.1320754716982 L649.800539083558,906.8355795148249" stroke="yellow" stroke-width="1" fill="none" />
<path d="M926.1132075471698,1176.7223719676551 L926.1132075471698,1163.8706199460917" stroke="yellow" stroke-width="1" fill="none" />
<path d="M707.633423180593,1163.8706199460917 L707.633423180593,1176.7223719676551" stroke="yellow" stroke-width="1" fill="none" />
<path d="M1016.0754716981132,1221.7035040431267 L1041.77897574124,1218.490566037736" stroke="yellow" stroke-width="1" fill="none" />
<path d="M1041.77897574124,1218.490566037736 L1064.2695417789757,1205.6388140161725" stroke="yellow" stroke-width="1" fill="none" />
<path d="M1041.77897574124,1122.1024258760108 L1016.0754716981132,1118.88948787062" stroke="yellow" stroke-width="1" fill="none" />
<path d="M1064.2695417789757,1134.9541778975743 L1041.77897574124,1122.1024258760108" stroke="yellow" stroke-width="1" fill="none" />
<path d="M1016.0754716981132,1118.88948787062 L1003.2237196765499,1141.3800539083559" stroke="yellow" stroke-width="1" fill="none" />
<path d="M1003.2237196765499,1141.3800539083559 L977.5202156334233,1144.5929919137466" stroke="yellow" stroke-width="1" fill="none" />
<path d="M977.5202156334233,1144.5929919137466 L977.5202156334233,1196.0" stroke="yellow" stroke-width="1" fill="none" />
<path d="M977.5202156334233,1196.0 L1003.2237196765499,1199.212938005391" stroke="yellow" stroke-width="1" fill="none" />
<path d="M1003.2237196765499,1199.212938005391 L1016.0754716981132,1221.7035040431267" stroke="yellow" stroke-width="1" fill="none" />
<path d="M1064.2695417789757,1205.6388140161725 L1067.4824797843667,1170.2964959568735" stroke="yellow" stroke-width="1" fill="none" />
<path d="M1067.4824797843667,1170.2964959568735 L1064.2695417789757,1134.9541778975743" stroke="yellow" stroke-width="1" fill="none" />
<path d="M1009.6495956873316,1157.44474393531 L983.9460916442049,1157.44474393531" stroke="yellow" stroke-width="1" fill="none" />
<path d="M983.9460916442049,1157.44474393531 L983.9460916442049,1183.1482479784368" stroke="yellow" stroke-width="1" fill="none" />
<path d="M983.9460916442049,1183.1482479784368 L1009.6495956873316,1183.1482479784368" stroke="yellow" stroke-width="1" fill="none" />
<path d="M653.0134770889488,1196.0 L656.2264150943397,1170.2964959568735" stroke="yellow" stroke-width="1" fill="none" />
<path d="M656.2264150943397,1170.2964959568735 L653.0134770889488,1144.5929919137466" stroke="yellow" stroke-width="1" fill="none" />
<path d="M653.0134770889488,1144.5929919137466 L627.3099730458221,1138.1671159029652" stroke="yellow" stroke-width="1" fill="none" />
<path d="M627.3099730458221,1138.1671159029652 L624.0970350404313,1170.2964959568735" stroke="yellow" stroke-width="1" fill="none" />
<path d="M624.0970350404313,1170.2964959568735 L627.3099730458221,1202.4258760107818" stroke="yellow" stroke-width="1" fill="none" />
<path d="M627.3099730458221,1202.4258760107818 L653.0134770889488,1196.0" stroke="yellow" stroke-width="1" fill="none" />
<path d="M653.0134770889488,1221.7035040431267 L653.0134770889488,1196.0" stroke="yellow" stroke-width="1" fill="none" />
<path d="M653.0134770889488,1144.5929919137466 L653.0134770889488,1118.88948787062" stroke="yellow" stroke-width="1" fill="none" />
<path d="M595.1805929919137,1122.1024258760108 L595.1805929919137,1144.5929919137466" stroke="yellow" stroke-width="1" fill="none" />
<path d="M595.1805929919137,1144.5929919137466 L579.1159029649596,1147.8059299191375" stroke="yellow" stroke-width="1" fill="none" />
<path d="M579.1159029649596,1192.7870619946093 L595.1805929919137,1196.0" stroke="yellow" stroke-width="1" fill="none" />
<path d="M595.1805929919137,1196.0 L595.1805929919137,1218.490566037736" stroke="yellow" stroke-width="1" fill="none" />
<path d="M595.1805929919137,1196.0 L611.2452830188679,1199.212938005391" stroke="yellow" stroke-width="1" fill="none" />
<path d="M611.2452830188679,1199.212938005391 L627.3099730458221,1202.4258760107818" stroke="yellow" stroke-width="1" fill="none" />
<path d="M627.3099730458221,1138.1671159029652 L611.2452830188679,1141.3800539083559" stroke="yellow" stroke-width="1" fill="none" />
<path d="M611.2452830188679,1141.3800539083559 L595.1805929919137,1144.5929919137466" stroke="yellow" stroke-width="1" fill="none" />
<path d="M595.1805929919137,1144.5929919137466 L595.1805929919137,1196.0" stroke="yellow" stroke-width="1" fill="none" />
<path d="M611.2452830188679,1141.3800539083559 L611.2452830188679,1199.212938005391" stroke="yellow" stroke-width="1" fill="none" />
<path d="M579.1159029649596,1147.8059299191375 L575.9029649595687,1170.2964959568735" stroke="yellow" stroke-width="1" fill="none" />
<path d="M575.9029649595687,1170.2964959568735 L579.1159029649596,1192.7870619946093" stroke="yellow" stroke-width="1" fill="none" />
<path d="M627.3099730458221,1224.9164420485176 L653.0134770889488,1221.7035040431267" stroke="yellow" stroke-width="1" fill="none" />
<path d="M595.1805929919137,1218.490566037736 L627.3099730458221,1224.9164420485176" stroke="yellow" stroke-width="1" fill="none" />
<path d="M627.3099730458221,1115.6765498652292 L595.1805929919137,1122.1024258760108" stroke="yellow" stroke-width="1" fill="none" />
<path d="M653.0134770889488,1118.88948787062 L627.3099730458221,1115.6765498652292" stroke="yellow" stroke-width="1" fill="none" />
<path d="M804.0215633423181,238.54447439353112 L829.7250673854447,238.54447439353112" stroke="yellow" stroke-width="1" fill="none" />
<path d="M804.0215633423181,228.90566037735857 L829.7250673854447,228.90566037735857" stroke="yellow" stroke-width="1" fill="none" />
<path d="M829.7250673854447,222.47978436657695 L804.0215633423181,222.47978436657695" stroke="yellow" stroke-width="1" fill="none" />
<path d="M829.7250673854447,212.8409703504044 L804.0215633423181,212.8409703504044" stroke="lavender" stroke-width="1" fill="none" />
<path d="M791.1698113207547,7.2129380053909244 L842.5768194070081,7.2129380053909244" stroke="yellow" stroke-width="1" fill="none" />
<path d="M829.7250673854447,1041.77897574124 L804.0215633423181,1041.77897574124" stroke="yellow" stroke-width="1" fill="none" />
<path d="M804.0215633423181,1812.8840970350407 L829.7250673854447,1812.8840970350407" stroke="yellow" stroke-width="1" fill="none" />
<path d="M829.7250673854447,1909.2722371967657 L804.0215633423181,1909.2722371967657" stroke="yellow" stroke-width="1" fill="none" />
<path d="M829.7250673854447,1915.6981132075473 L804.0215633423181,1915.6981132075473" stroke="lavender" stroke-width="1" fill="none" />
<path d="M839.3638814016173,135.73045822102426 L794.3827493261456,135.73045822102426" stroke="yellow" stroke-width="1" fill="none" />
<path d="M839.3638814016173,90.74932614555269 L839.3638814016173,135.73045822102426" stroke="yellow" stroke-width="1" fill="none" />
<path d="M794.3827493261456,90.74932614555269 L839.3638814016173,90.74932614555269" stroke="yellow" stroke-width="1" fill="none" />
<path d="M794.3827493261456,135.73045822102426 L794.3827493261456,90.74932614555269" stroke="yellow" stroke-width="1" fill="none" />
<path d="M784.743935309973,145.3692722371968 L784.743935309973,81.11051212938014" stroke="yellow" stroke-width="1" fill="none" />
<path d="M849.0026954177897,145.3692722371968 L784.743935309973,145.3692722371968" stroke="yellow" stroke-width="1" fill="none" />
<path d="M849.0026954177897,81.11051212938014 L849.0026954177897,145.3692722371968" stroke="yellow" stroke-width="1" fill="none" />
<path d="M784.743935309973,81.11051212938014 L849.0026954177897,81.11051212938014" stroke="yellow" stroke-width="1" fill="none" />
<path d="M775.1051212938005,155.00808625336936 L775.1051212938005,71.4716981132076" stroke="yellow" stroke-width="1" fill="none" />
<path d="M858.6415094339623,155.00808625336936 L775.1051212938005,155.00808625336936" stroke="yellow" stroke-width="1" fill="none" />
<path d="M858.6415094339623,71.4716981132076 L858.6415094339623,155.00808625336936" stroke="yellow" stroke-width="1" fill="none" />
<path d="M775.1051212938005,71.4716981132076 L858.6415094339623,71.4716981132076" stroke="yellow" stroke-width="1" fill="none" />
<path d="M765.4663072776281,61.83288409703505 L868.2803234501348,61.83288409703505" stroke="yellow" stroke-width="1" fill="none" />
<path d="M765.4663072776281,164.6469002695419 L765.4663072776281,61.83288409703505" stroke="yellow" stroke-width="1" fill="none" />
<path d="M868.2803234501348,164.6469002695419 L765.4663072776281,164.6469002695419" stroke="yellow" stroke-width="1" fill="none" />
<path d="M868.2803234501348,61.83288409703505 L868.2803234501348,164.6469002695419" stroke="yellow" stroke-width="1" fill="none" />
<path d="M804.0215633423181,126.09164420485172 L804.0215633423181,100.38814016172523" stroke="yellow" stroke-width="1" fill="none" />
<path d="M829.7250673854447,126.09164420485172 L804.0215633423181,126.09164420485172" stroke="yellow" stroke-width="1" fill="none" />
<path d="M829.7250673854447,100.38814016172523 L829.7250673854447,126.09164420485172" stroke="yellow" stroke-width="1" fill="none" />
<path d="M804.0215633423181,100.38814016172523 L829.7250673854447,100.38814016172523" stroke="yellow" stroke-width="1" fill="none" />
<path d="M868.2803234501348,193.5633423180593 L765.4663072776281,193.5633423180593" stroke="yellow" stroke-width="1" fill="none" />
<path d="M765.4663072776281,193.5633423180593 L720.4851752021564,167.8598382749326" stroke="yellow" stroke-width="1" fill="none" />
<path d="M720.4851752021564,167.8598382749326 L720.4851752021564,65.04582210242597" stroke="yellow" stroke-width="1" fill="none" />
<path d="M720.4851752021564,65.04582210242597 L765.4663072776281,39.34231805929926" stroke="yellow" stroke-width="1" fill="none" />
<path d="M765.4663072776281,39.34231805929926 L868.2803234501348,39.34231805929926" stroke="yellow" stroke-width="1" fill="none" />
<path d="M868.2803234501348,39.34231805929926 L913.2614555256065,65.04582210242597" stroke="yellow" stroke-width="1" fill="none" />
<path d="M913.2614555256065,65.04582210242597 L913.2614555256065,167.8598382749326" stroke="yellow" stroke-width="1" fill="none" />
<path d="M913.2614555256065,167.8598382749326 L868.2803234501348,193.5633423180593" stroke="yellow" stroke-width="1" fill="none" />
<path d="M804.0215633423181,678.7169811320756 L829.7250673854447,678.7169811320756" stroke="lavender" stroke-width="1" fill="none" />
<path d="M829.7250673854447,672.2911051212939 L804.0215633423181,672.2911051212939" stroke="yellow" stroke-width="1" fill="none" />
<path d="M829.7250673854447,662.6522911051213 L804.0215633423181,662.6522911051213" stroke="yellow" stroke-width="1" fill="none" />
<path d="M752.6145552560647,482.72776280323455 L752.6145552560647,418.4690026954179" stroke="yellow" stroke-width="1" fill="none" />
<path d="M514.8571428571429,1160.657681940701 L514.8571428571429,1173.5094339622642" stroke="yellow" stroke-width="1" fill="none" />
<path d="M752.6145552560647,418.4690026954179 L849.0026954177897,376.700808625337" stroke="yellow" stroke-width="1" fill="none" />
<path d="M861.8544474393532,376.700808625337 L881.1320754716982,367.06199460916446" stroke="yellow" stroke-width="1" fill="none" />
<path d="M752.6145552560647,482.72776280323455 L849.0026954177897,524.4959568733154" stroke="yellow" stroke-width="1" fill="none" />
<path d="M861.8544474393532,524.4959568733154 L881.1320754716982,534.134770889488" stroke="yellow" stroke-width="1" fill="none" />
<path d="M807.2345013477088,418.4690026954179 L881.1320754716982,389.55256064690025" stroke="yellow" stroke-width="1" fill="none" />
<path d="M861.8544474393532,428.10781671159043 L881.1320754716982,424.8948787061995" stroke="yellow" stroke-width="1" fill="none" />
<path d="M861.8544474393532,473.0889487870621 L881.1320754716982,476.30188679245293" stroke="yellow" stroke-width="1" fill="none" />
<path d="M810.4474393530998,473.0889487870621 L849.0026954177897,479.51482479784374" stroke="yellow" stroke-width="1" fill="none" />
<path d="M807.2345013477088,482.72776280323455 L881.1320754716982,502.00539083557965" stroke="yellow" stroke-width="1" fill="none" />
<path d="M810.4474393530998,428.10781671159043 L849.0026954177897,421.6819407008088" stroke="yellow" stroke-width="1" fill="none" />
<path d="M726.911051212938,476.30188679245293 L726.911051212938,463.4501347708896" stroke="yellow" stroke-width="1" fill="none" />
<path d="M726.911051212938,457.02425876010784 L726.911051212938,444.1725067385446" stroke="yellow" stroke-width="1" fill="none" />
<path d="M726.911051212938,437.746630727763 L726.911051212938,424.8948787061995" stroke="yellow" stroke-width="1" fill="none" />
<path d="M752.6145552560647,611.245283018868 L881.1320754716982,611.245283018868" stroke="lavender" stroke-width="1" fill="none" />
<path d="M444.1725067385445,1196.0 L444.1725067385445,1183.1482479784368" stroke="yellow" stroke-width="1" fill="none" />
<path d="M444.1725067385445,1176.7223719676551 L444.1725067385445,1163.8706199460917" stroke="yellow" stroke-width="1" fill="none" />
<path d="M444.1725067385445,1157.44474393531 L444.1725067385445,1144.5929919137466" stroke="yellow" stroke-width="1" fill="none" />
<path d="M778.3180592991914,1453.035040431267 L855.4285714285714,1453.035040431267" stroke="lavender" stroke-width="1" fill="none" />
<path d="M990.3719676549865,97.17520215633431 L990.3719676549865,148.58221024258773" stroke="yellow" stroke-width="1" fill="none" />
<path d="M643.3746630727762,148.58221024258773 L643.3746630727762,97.17520215633431" stroke="yellow" stroke-width="1" fill="none" />
<path d="M881.1320754716982,444.1725067385446 L881.1320754716982,457.02425876010784" stroke="yellow" stroke-width="1" fill="none" />
<path d="M829.7250673854447,1912.4851752021564 L804.0215633423181,1912.4851752021564" stroke="yellow" stroke-width="1" fill="none" />
<path d="M823.2991913746631,20.064690026954167 L810.4474393530998,20.064690026954167" stroke="yellow" stroke-width="1" fill="none" />
<path d="M810.4474393530998,20.064690026954167 L810.4474393530998,32.91644204851764" stroke="yellow" stroke-width="1" fill="none" />
<path d="M810.4474393530998,32.91644204851764 L823.2991913746631,32.91644204851764" stroke="yellow" stroke-width="1" fill="none" />
<path d="M823.2991913746631,32.91644204851764 L823.2991913746631,20.064690026954167" stroke="yellow" stroke-width="1" fill="none" />
<path d="M804.0215633423181,1909.2722371967657 L781.5309973045822,1896.4204851752022" stroke="red" stroke-width="1" fill="none" />
<path d="M781.5309973045822,1896.4204851752022 L768.6792452830189,1873.9299191374664" stroke="red" stroke-width="1" fill="none" />
<path d="M852.2156334231806,1896.4204851752022 L829.7250673854447,1909.2722371967657" stroke="red" stroke-width="1" fill="none" />
<path d="M865.0673854447439,1873.9299191374664 L852.2156334231806,1896.4204851752022" stroke="red" stroke-width="1" fill="none" />
<path d="M768.6792452830189,1873.9299191374664 L768.6792452830189,1848.2264150943397" stroke="red" stroke-width="1" fill="none" />
<path d="M865.0673854447439,1848.2264150943397 L865.0673854447439,1873.9299191374664" stroke="red" stroke-width="1" fill="none" />
<path d="M768.6792452830189,1848.2264150943397 L781.5309973045822,1825.735849056604" stroke="red" stroke-width="1" fill="none" />
<path d="M781.5309973045822,1825.735849056604 L804.0215633423181,1812.8840970350407" stroke="red" stroke-width="1" fill="none" />
<path d="M829.7250673854447,1812.8840970350407 L852.2156334231806,1825.735849056604" stroke="red" stroke-width="1" fill="none" />
<path d="M852.2156334231806,1825.735849056604 L865.0673854447439,1848.2264150943397" stroke="red" stroke-width="1" fill="none" />
<path d="M804.0215633423181,1812.8840970350407 L804.0215633423181,1787.1805929919137" stroke="red" stroke-width="1" fill="none" />
<path d="M829.7250673854447,1787.1805929919137 L829.7250673854447,1812.8840970350407" stroke="red" stroke-width="1" fill="none" />
<path d="M752.6145552560647,1401.6280323450135 L778.3180592991914,1401.6280323450135" stroke="red" stroke-width="1" fill="none" />
<path d="M881.1320754716982,1401.6280323450135 L971.0943396226415,1350.2210242587603" stroke="red" stroke-width="1" fill="none" />
<path d="M662.6522911051213,1350.2210242587603 L752.6145552560647,1401.6280323450135" stroke="red" stroke-width="1" fill="none" />
<path d="M752.6145552560647,887.5579514824799 L778.3180592991914,887.5579514824799" stroke="red" stroke-width="1" fill="none" />
<path d="M855.4285714285714,887.5579514824799 L881.1320754716982,887.5579514824799" stroke="red" stroke-width="1" fill="none" />
<path d="M778.3180592991914,1273.1105121293801 L752.6145552560647,1273.1105121293801" stroke="red" stroke-width="1" fill="none" />
<path d="M752.6145552560647,1273.1105121293801 L752.6145552560647,1247.4070080862534" stroke="red" stroke-width="1" fill="none" />
<path d="M752.6145552560647,1247.4070080862534 L778.3180592991914,1247.4070080862534" stroke="red" stroke-width="1" fill="none" />
<path d="M778.3180592991914,1247.4070080862534 L778.3180592991914,1221.7035040431267" stroke="red" stroke-width="1" fill="none" />
<path d="M778.3180592991914,1221.7035040431267 L752.6145552560647,1221.7035040431267" stroke="red" stroke-width="1" fill="none" />
<path d="M752.6145552560647,1221.7035040431267 L752.6145552560647,1196.0" stroke="red" stroke-width="1" fill="none" />
<path d="M752.6145552560647,1196.0 L778.3180592991914,1196.0" stroke="red" stroke-width="1" fill="none" />
<path d="M778.3180592991914,1196.0 L778.3180592991914,1170.2964959568735" stroke="red" stroke-width="1" fill="none" />
<path d="M778.3180592991914,1170.2964959568735 L752.6145552560647,1170.2964959568735" stroke="red" stroke-width="1" fill="none" />
<path d="M752.6145552560647,1170.2964959568735 L752.6145552560647,1144.5929919137466" stroke="red" stroke-width="1" fill="none" />
<path d="M752.6145552560647,1144.5929919137466 L778.3180592991914,1144.5929919137466" stroke="red" stroke-width="1" fill="none" />
<path d="M778.3180592991914,1144.5929919137466 L778.3180592991914,1118.88948787062" stroke="red" stroke-width="1" fill="none" />
<path d="M778.3180592991914,1118.88948787062 L752.6145552560647,1118.88948787062" stroke="red" stroke-width="1" fill="none" />
<path d="M752.6145552560647,1118.88948787062 L752.6145552560647,1093.1859838274934" stroke="red" stroke-width="1" fill="none" />
<path d="M752.6145552560647,1093.1859838274934 L778.3180592991914,1093.1859838274934" stroke="red" stroke-width="1" fill="none" />
<path d="M778.3180592991914,1093.1859838274934 L778.3180592991914,1067.4824797843667" stroke="red" stroke-width="1" fill="none" />
<path d="M778.3180592991914,1067.4824797843667 L752.6145552560647,1067.4824797843667" stroke="red" stroke-width="1" fill="none" />
<path d="M752.6145552560647,1067.4824797843667 L752.6145552560647,1041.77897574124" stroke="red" stroke-width="1" fill="none" />
<path d="M752.6145552560647,1041.77897574124 L778.3180592991914,1041.77897574124" stroke="red" stroke-width="1" fill="none" />
<path d="M778.3180592991914,1041.77897574124 L778.3180592991914,938.9649595687332" stroke="red" stroke-width="1" fill="none" />
<path d="M881.1320754716982,1273.1105121293801 L855.4285714285714,1273.1105121293801" stroke="red" stroke-width="1" fill="none" />
<path d="M881.1320754716982,1247.4070080862534 L881.1320754716982,1273.1105121293801" stroke="red" stroke-width="1" fill="none" />
<path d="M855.4285714285714,1247.4070080862534 L881.1320754716982,1247.4070080862534" stroke="red" stroke-width="1" fill="none" />
<path d="M855.4285714285714,1221.7035040431267 L855.4285714285714,1247.4070080862534" stroke="red" stroke-width="1" fill="none" />
<path d="M881.1320754716982,1221.7035040431267 L855.4285714285714,1221.7035040431267" stroke="red" stroke-width="1" fill="none" />
<path d="M881.1320754716982,1196.0 L881.1320754716982,1221.7035040431267" stroke="red" stroke-width="1" fill="none" />
<path d="M855.4285714285714,1196.0 L881.1320754716982,1196.0" stroke="red" stroke-width="1" fill="none" />
<path d="M855.4285714285714,1170.2964959568735 L855.4285714285714,1196.0" stroke="red" stroke-width="1" fill="none" />
<path d="M881.1320754716982,1170.2964959568735 L855.4285714285714,1170.2964959568735" stroke="red" stroke-width="1" fill="none" />
<path d="M881.1320754716982,1144.5929919137466 L881.1320754716982,1170.2964959568735" stroke="red" stroke-width="1" fill="none" />
<path d="M855.4285714285714,1144.5929919137466 L881.1320754716982,1144.5929919137466" stroke="red" stroke-width="1" fill="none" />
<path d="M855.4285714285714,1118.88948787062 L855.4285714285714,1144.5929919137466" stroke="red" stroke-width="1" fill="none" />
<path d="M881.1320754716982,1118.88948787062 L855.4285714285714,1118.88948787062" stroke="red" stroke-width="1" fill="none" />
<path d="M881.1320754716982,1093.1859838274934 L881.1320754716982,1118.88948787062" stroke="red" stroke-width="1" fill="none" />
<path d="M855.4285714285714,1093.1859838274934 L881.1320754716982,1093.1859838274934" stroke="red" stroke-width="1" fill="none" />
<path d="M855.4285714285714,1067.4824797843667 L855.4285714285714,1093.1859838274934" stroke="red" stroke-width="1" fill="none" />
<path d="M881.1320754716982,1067.4824797843667 L855.4285714285714,1067.4824797843667" stroke="red" stroke-width="1" fill="none" />
<path d="M881.1320754716982,1041.77897574124 L881.1320754716982,1067.4824797843667" stroke="red" stroke-width="1" fill="none" />
<path d="M855.4285714285714,1041.77897574124 L881.1320754716982,1041.77897574124" stroke="red" stroke-width="1" fill="none" />
<path d="M627.3099730458221,1253.832884097035 L662.6522911051213,1350.2210242587603" stroke="red" stroke-width="1" fill="none" />
<path d="M662.6522911051213,990.3719676549866 L627.3099730458221,1086.7601078167118" stroke="red" stroke-width="1" fill="none" />
<path d="M627.3099730458221,1086.7601078167118 L678.7169811320755,1093.1859838274934" stroke="red" stroke-width="1" fill="none" />
<path d="M678.7169811320755,1247.4070080862534 L627.3099730458221,1253.832884097035" stroke="red" stroke-width="1" fill="none" />
<path d="M971.0943396226415,1350.2210242587603 L1006.4366576819407,1253.832884097035" stroke="red" stroke-width="1" fill="none" />
<path d="M1006.4366576819407,1253.832884097035 L955.0296495956874,1247.4070080862534" stroke="red" stroke-width="1" fill="none" />
<path d="M955.0296495956874,1093.1859838274934 L1006.4366576819407,1086.7601078167118" stroke="red" stroke-width="1" fill="none" />
<path d="M1006.4366576819407,1086.7601078167118 L971.0943396226415,990.3719676549866" stroke="red" stroke-width="1" fill="none" />
<path d="M778.3180592991914,887.5579514824799 L778.3180592991914,733.3369272237197" stroke="red" stroke-width="1" fill="none" />
<path d="M855.4285714285714,733.3369272237197 L855.4285714285714,887.5579514824799" stroke="red" stroke-width="1" fill="none" />
<path d="M778.3180592991914,733.3369272237197 L804.0215633423181,688.355795148248" stroke="red" stroke-width="1" fill="none" />
<path d="M829.7250673854447,688.355795148248 L855.4285714285714,733.3369272237197" stroke="red" stroke-width="1" fill="none" />
<path d="M881.1320754716982,1453.035040431267 L855.4285714285714,1453.035040431267" stroke="red" stroke-width="1" fill="none" />
<path d="M778.3180592991914,1453.035040431267 L752.6145552560647,1453.035040431267" stroke="red" stroke-width="1" fill="none" />
<path d="M678.7169811320755,1093.1859838274934 L681.9299191374663,1144.5929919137466" stroke="red" stroke-width="1" fill="none" />
<path d="M681.9299191374663,1196.0 L678.7169811320755,1247.4070080862534" stroke="red" stroke-width="1" fill="none" />
<path d="M681.9299191374663,1144.5929919137466 L707.633423180593,1144.5929919137466" stroke="red" stroke-width="1" fill="none" />
<path d="M707.633423180593,1196.0 L681.9299191374663,1196.0" stroke="red" stroke-width="1" fill="none" />
<path d="M955.0296495956874,1247.4070080862534 L951.8167115902966,1196.0" stroke="red" stroke-width="1" fill="none" />
<path d="M951.8167115902966,1196.0 L926.1132075471698,1196.0" stroke="red" stroke-width="1" fill="none" />
<path d="M926.1132075471698,1144.5929919137466 L951.8167115902966,1144.5929919137466" stroke="red" stroke-width="1" fill="none" />
<path d="M951.8167115902966,1144.5929919137466 L955.0296495956874,1093.1859838274934" stroke="red" stroke-width="1" fill="none" />
<path d="M804.0215633423181,1787.1805929919137 L778.3180592991914,1787.1805929919137" stroke="red" stroke-width="1" fill="none" />
<path d="M855.4285714285714,1787.1805929919137 L829.7250673854447,1787.1805929919137" stroke="red" stroke-width="1" fill="none" />
<path d="M540.5606469002696,1192.7870619946093 L540.5606469002696,1141.3800539083559" stroke="red" stroke-width="1" fill="none" />
<path d="M540.5606469002696,1141.3800539083559 L514.8571428571429,1141.3800539083559" stroke="red" stroke-width="1" fill="none" />
<path d="M514.8571428571429,1192.7870619946093 L540.5606469002696,1192.7870619946093" stroke="red" stroke-width="1" fill="none" />
<path d="M591.9676549865229,1000.0107816711591 L617.6711590296496,955.0296495956874" stroke="red" stroke-width="1" fill="none" />
<path d="M617.6711590296496,1379.1374663072777 L591.9676549865229,1334.156334231806" stroke="red" stroke-width="1" fill="none" />
<path d="M566.2641509433962,1289.1752021563343 L540.5606469002696,1244.1940700808627" stroke="red" stroke-width="1" fill="none" />
<path d="M540.5606469002696,1089.9730458221024 L566.2641509433962,1044.9919137466309" stroke="red" stroke-width="1" fill="none" />
<path d="M617.6711590296496,955.0296495956874 L662.6522911051213,929.3261455525608" stroke="red" stroke-width="1" fill="none" />
<path d="M707.633423180593,903.6226415094341 L752.6145552560647,887.5579514824799" stroke="red" stroke-width="1" fill="none" />
<path d="M752.6145552560647,1453.035040431267 L707.633423180593,1430.5444743935311" stroke="red" stroke-width="1" fill="none" />
<path d="M662.6522911051213,1404.8409703504044 L617.6711590296496,1379.1374663072777" stroke="red" stroke-width="1" fill="none" />
<path d="M881.1320754716982,887.5579514824799 L926.1132075471698,903.6226415094341" stroke="red" stroke-width="1" fill="none" />
<path d="M971.0943396226415,929.3261455525608 L1016.0754716981132,955.0296495956874" stroke="red" stroke-width="1" fill="none" />
<path d="M1016.0754716981132,1379.1374663072777 L971.0943396226415,1404.8409703504044" stroke="red" stroke-width="1" fill="none" />
<path d="M926.1132075471698,1430.5444743935311 L881.1320754716982,1453.035040431267" stroke="red" stroke-width="1" fill="none" />
<path d="M1016.0754716981132,955.0296495956874 L1041.77897574124,1000.0107816711591" stroke="red" stroke-width="1" fill="none" />
<path d="M1067.4824797843667,1044.9919137466309 L1093.1859838274931,1089.9730458221024" stroke="red" stroke-width="1" fill="none" />
<path d="M1093.1859838274931,1244.1940700808627 L1067.4824797843667,1289.1752021563343" stroke="red" stroke-width="1" fill="none" />
<path d="M1041.77897574124,1334.156334231806 L1016.0754716981132,1379.1374663072777" stroke="red" stroke-width="1" fill="none" />
<path d="M1093.1859838274931,1141.3800539083559 L1093.1859838274931,1192.7870619946093" stroke="red" stroke-width="1" fill="none" />
<path d="M1067.4824797843667,1469.099730458221 L932.5390835579515,1546.2102425876012" stroke="red" stroke-width="1" fill="none" />
<path d="M1028.9272237196765,1401.6280323450135 L1067.4824797843667,1469.099730458221" stroke="red" stroke-width="1" fill="none" />
<path d="M893.9838274932615,1478.7385444743936 L938.9649595687331,1453.035040431267" stroke="red" stroke-width="1" fill="none" />
<path d="M932.5390835579515,1546.2102425876012 L893.9838274932615,1478.7385444743936" stroke="red" stroke-width="1" fill="none" />
<path d="M983.9460916442049,1427.3315363881402 L1028.9272237196765,1401.6280323450135" stroke="red" stroke-width="1" fill="none" />
<path d="M1183.1482479784368,1295.601078167116 L1106.0377358490566,1430.5444743935311" stroke="red" stroke-width="1" fill="none" />
<path d="M1089.9730458221024,1302.0269541778976 L1115.6765498652292,1257.045822102426" stroke="red" stroke-width="1" fill="none" />
<path d="M1038.566037735849,1391.9892183288412 L1064.2695417789757,1347.0080862533694" stroke="red" stroke-width="1" fill="none" />
<path d="M1115.6765498652292,1257.045822102426 L1183.1482479784368,1295.601078167116" stroke="red" stroke-width="1" fill="none" />
<path d="M1106.0377358490566,1430.5444743935311 L1038.566037735849,1391.9892183288412" stroke="red" stroke-width="1" fill="none" />
<path d="M518.0700808625337,1077.1212938005392 L450.59838274932616,1038.566037735849" stroke="red" stroke-width="1" fill="none" />
<path d="M450.59838274932616,1038.566037735849 L527.7088948787062,903.6226415094341" stroke="red" stroke-width="1" fill="none" />
<path d="M527.7088948787062,903.6226415094341 L595.1805929919137,942.177897574124" stroke="red" stroke-width="1" fill="none" />
<path d="M1118.88948787062,1192.7870619946093 L1118.88948787062,1141.3800539083559" stroke="red" stroke-width="1" fill="none" />
<path d="M1118.88948787062,1089.9730458221024 L1196.0,1089.9730458221024" stroke="red" stroke-width="1" fill="none" />
<path d="M1196.0,1244.1940700808627 L1118.88948787062,1244.1940700808627" stroke="red" stroke-width="1" fill="none" />
<path d="M527.7088948787062,1430.5444743935311 L450.59838274932616,1295.601078167116" stroke="red" stroke-width="1" fill="none" />
<path d="M595.1805929919137,1391.9892183288412 L527.7088948787062,1430.5444743935311" stroke="red" stroke-width="1" fill="none" />
<path d="M450.59838274932616,1295.601078167116 L518.0700808625337,1257.045822102426" stroke="red" stroke-width="1" fill="none" />
<path d="M518.0700808625337,1257.045822102426 L543.7735849056604,1302.0269541778976" stroke="red" stroke-width="1" fill="none" />
<path d="M569.4770889487871,1347.0080862533694 L595.1805929919137,1391.9892183288412" stroke="red" stroke-width="1" fill="none" />
<path d="M540.5606469002696,1244.1940700808627 L514.8571428571429,1244.1940700808627" stroke="red" stroke-width="1" fill="none" />
<path d="M514.8571428571429,1244.1940700808627 L444.1725067385445,1244.1940700808627" stroke="red" stroke-width="1" fill="none" />
<path d="M514.8571428571429,1089.9730458221024 L540.5606469002696,1089.9730458221024" stroke="red" stroke-width="1" fill="none" />
<path d="M444.1725067385445,1089.9730458221024 L514.8571428571429,1089.9730458221024" stroke="red" stroke-width="1" fill="none" />
<path d="M649.800539083558,1427.3315363881402 L662.6522911051213,1404.8409703504044" stroke="red" stroke-width="1" fill="none" />
<path d="M707.633423180593,1430.5444743935311 L694.7816711590297,1453.035040431267" stroke="red" stroke-width="1" fill="none" />
<path d="M591.9676549865229,1334.156334231806 L569.4770889487871,1347.0080862533694" stroke="red" stroke-width="1" fill="none" />
<path d="M543.7735849056604,1302.0269541778976 L566.2641509433962,1289.1752021563343" stroke="red" stroke-width="1" fill="none" />
<path d="M566.2641509433962,1044.9919137466309 L543.7735849056604,1032.1401617250674" stroke="red" stroke-width="1" fill="none" />
<path d="M569.4770889487871,987.1590296495958 L591.9676549865229,1000.0107816711591" stroke="red" stroke-width="1" fill="none" />
<path d="M662.6522911051213,929.3261455525608 L649.800539083558,906.8355795148249" stroke="red" stroke-width="1" fill="none" />
<path d="M694.7816711590297,881.1320754716982 L707.633423180593,903.6226415094341" stroke="red" stroke-width="1" fill="none" />
<path d="M739.7628032345013,855.4285714285716 L694.7816711590297,881.1320754716982" stroke="red" stroke-width="1" fill="none" />
<path d="M649.800539083558,906.8355795148249 L604.8194070080863,932.5390835579516" stroke="red" stroke-width="1" fill="none" />
<path d="M604.8194070080863,932.5390835579516 L566.2641509433962,865.067385444744" stroke="red" stroke-width="1" fill="none" />
<path d="M701.2075471698113,787.956873315364 L739.7628032345013,855.4285714285716" stroke="red" stroke-width="1" fill="none" />
<path d="M566.2641509433962,865.067385444744 L701.2075471698113,787.956873315364" stroke="red" stroke-width="1" fill="none" />
<path d="M543.7735849056604,1032.1401617250674 L518.0700808625337,1077.1212938005392" stroke="red" stroke-width="1" fill="none" />
<path d="M701.2075471698113,1546.2102425876012 L566.2641509433962,1469.099730458221" stroke="red" stroke-width="1" fill="none" />
<path d="M566.2641509433962,1469.099730458221 L604.8194070080863,1401.6280323450135" stroke="red" stroke-width="1" fill="none" />
<path d="M739.7628032345013,1478.7385444743936 L701.2075471698113,1546.2102425876012" stroke="red" stroke-width="1" fill="none" />
<path d="M604.8194070080863,1401.6280323450135 L649.800539083558,1427.3315363881402" stroke="red" stroke-width="1" fill="none" />
<path d="M694.7816711590297,1453.035040431267 L739.7628032345013,1478.7385444743936" stroke="red" stroke-width="1" fill="none" />
<path d="M938.9649595687331,1453.035040431267 L926.1132075471698,1430.5444743935311" stroke="red" stroke-width="1" fill="none" />
<path d="M971.0943396226415,1404.8409703504044 L983.9460916442049,1427.3315363881402" stroke="red" stroke-width="1" fill="none" />
<path d="M1064.2695417789757,1347.0080862533694 L1041.77897574124,1334.156334231806" stroke="red" stroke-width="1" fill="none" />
<path d="M1067.4824797843667,1289.1752021563343 L1089.9730458221024,1302.0269541778976" stroke="red" stroke-width="1" fill="none" />
<path d="M1118.88948787062,1244.1940700808627 L1093.1859838274931,1244.1940700808627" stroke="red" stroke-width="1" fill="none" />
<path d="M1093.1859838274931,1192.7870619946093 L1118.88948787062,1192.7870619946093" stroke="red" stroke-width="1" fill="none" />
<path d="M1118.88948787062,1141.3800539083559 L1093.1859838274931,1141.3800539083559" stroke="red" stroke-width="1" fill="none" />
<path d="M1093.1859838274931,1089.9730458221024 L1118.88948787062,1089.9730458221024" stroke="red" stroke-width="1" fill="none" />
<path d="M1038.566037735849,942.177897574124 L1106.0377358490566,903.6226415094341" stroke="red" stroke-width="1" fill="none" />
<path d="M1115.6765498652292,1077.1212938005392 L1089.9730458221024,1032.1401617250674" stroke="red" stroke-width="1" fill="none" />
<path d="M1106.0377358490566,903.6226415094341 L1183.1482479784368,1038.566037735849" stroke="red" stroke-width="1" fill="none" />
<path d="M983.9460916442049,906.8355795148249 L971.0943396226415,929.3261455525608" stroke="red" stroke-width="1" fill="none" />
<path d="M926.1132075471698,903.6226415094341 L938.9649595687331,881.1320754716982" stroke="red" stroke-width="1" fill="none" />
<path d="M1041.77897574124,1000.0107816711591 L1064.2695417789757,987.1590296495958" stroke="red" stroke-width="1" fill="none" />
<path d="M1089.9730458221024,1032.1401617250674 L1067.4824797843667,1044.9919137466309" stroke="red" stroke-width="1" fill="none" />
<path d="M938.9649595687331,881.1320754716982 L893.9838274932615,855.4285714285716" stroke="red" stroke-width="1" fill="none" />
<path d="M893.9838274932615,855.4285714285716 L932.5390835579515,787.956873315364" stroke="red" stroke-width="1" fill="none" />
<path d="M932.5390835579515,787.956873315364 L1067.4824797843667,865.067385444744" stroke="red" stroke-width="1" fill="none" />
<path d="M1067.4824797843667,865.067385444744 L1028.9272237196765,932.5390835579516" stroke="red" stroke-width="1" fill="none" />
<path d="M926.1132075471698,1196.0 L926.1132075471698,1176.7223719676551" stroke="red" stroke-width="1" fill="none" />
<path d="M926.1132075471698,1163.8706199460917 L926.1132075471698,1144.5929919137466" stroke="red" stroke-width="1" fill="none" />
<path d="M926.1132075471698,1176.7223719676551 L919.6873315363882,1176.7223719676551" stroke="red" stroke-width="1" fill="none" />
<path d="M919.6873315363882,1176.7223719676551 L919.6873315363882,1163.8706199460917" stroke="lavender" stroke-width="1" fill="none" />
<path d="M919.6873315363882,1163.8706199460917 L926.1132075471698,1163.8706199460917" stroke="red" stroke-width="1" fill="none" />
<path d="M707.633423180593,1176.7223719676551 L707.633423180593,1196.0" stroke="red" stroke-width="1" fill="none" />
<path d="M707.633423180593,1144.5929919137466 L707.633423180593,1163.8706199460917" stroke="red" stroke-width="1" fill="none" />
<path d="M714.0592991913747,1176.7223719676551 L707.633423180593,1176.7223719676551" stroke="red" stroke-width="1" fill="none" />
<path d="M714.0592991913747,1163.8706199460917 L714.0592991913747,1176.7223719676551" stroke="lavender" stroke-width="1" fill="none" />
<path d="M707.633423180593,1163.8706199460917 L714.0592991913747,1163.8706199460917" stroke="red" stroke-width="1" fill="none" />
<path d="M881.1320754716982,938.9649595687332 L855.4285714285714,938.9649595687332" stroke="red" stroke-width="1" fill="none" />
<path d="M1009.6495956873316,1144.5929919137466 L1009.6495956873316,1157.44474393531" stroke="red" stroke-width="1" fill="none" />
<path d="M1009.6495956873316,1183.1482479784368 L1009.6495956873316,1196.0" stroke="red" stroke-width="1" fill="none" />
<path d="M1009.6495956873316,1196.0 L1057.8436657681941,1196.0" stroke="red" stroke-width="1" fill="none" />
<path d="M1057.8436657681941,1196.0 L1061.0566037735848,1170.2964959568735" stroke="red" stroke-width="1" fill="none" />
<path d="M1061.0566037735848,1170.2964959568735 L1057.8436657681941,1144.5929919137466" stroke="red" stroke-width="1" fill="none" />
<path d="M1057.8436657681941,1144.5929919137466 L1009.6495956873316,1144.5929919137466" stroke="red" stroke-width="1" fill="none" />
<path d="M1009.6495956873316,1157.44474393531 L1035.3530997304583,1157.44474393531" stroke="red" stroke-width="1" fill="none" />
<path d="M1035.3530997304583,1157.44474393531 L1035.3530997304583,1183.1482479784368" stroke="red" stroke-width="1" fill="none" />
<path d="M1035.3530997304583,1183.1482479784368 L1009.6495956873316,1183.1482479784368" stroke="red" stroke-width="1" fill="none" />
<path d="M84.3234501347709,2095.6226415094343 L84.3234501347709,2121.326145552561" stroke="red" stroke-width="1" fill="none" />
<path d="M84.3234501347709,2121.326145552561 L110.02695417789755,2121.326145552561" stroke="red" stroke-width="1" fill="none" />
<path d="M110.02695417789755,2121.326145552561 L110.02695417789755,2095.6226415094343" stroke="lavender" stroke-width="1" fill="none" />
<path d="M110.02695417789755,2095.6226415094343 L84.3234501347709,2095.6226415094343" stroke="red" stroke-width="1" fill="none" />
<path d="M752.6145552560647,238.54447439353112 L804.0215633423181,238.54447439353112" stroke="red" stroke-width="1" fill="none" />
<path d="M829.7250673854447,238.54447439353112 L881.1320754716982,238.54447439353112" stroke="red" stroke-width="1" fill="none" />
<path d="M804.0215633423181,238.54447439353112 L804.0215633423181,228.90566037735857" stroke="red" stroke-width="1" fill="none" />
<path d="M829.7250673854447,228.90566037735857 L829.7250673854447,238.54447439353112" stroke="red" stroke-width="1" fill="none" />
<path d="M804.0215633423181,222.47978436657695 L804.0215633423181,212.8409703504044" stroke="red" stroke-width="1" fill="none" />
<path d="M829.7250673854447,212.8409703504044 L829.7250673854447,222.47978436657695" stroke="red" stroke-width="1" fill="none" />
<path d="M804.0215633423181,228.90566037735857 L797.5956873315364,228.90566037735857" stroke="red" stroke-width="1" fill="none" />
<path d="M797.5956873315364,228.90566037735857 L797.5956873315364,222.47978436657695" stroke="red" stroke-width="1" fill="none" />
<path d="M797.5956873315364,222.47978436657695 L804.0215633423181,222.47978436657695" stroke="red" stroke-width="1" fill="none" />
<path d="M829.7250673854447,222.47978436657695 L836.1509433962265,222.47978436657695" stroke="red" stroke-width="1" fill="none" />
<path d="M836.1509433962265,222.47978436657695 L836.1509433962265,228.90566037735857" stroke="red" stroke-width="1" fill="none" />
<path d="M836.1509433962265,228.90566037735857 L829.7250673854447,228.90566037735857" stroke="red" stroke-width="1" fill="none" />
<path d="M1196.0,1089.9730458221024 L1196.0,1244.1940700808627" stroke="red" stroke-width="1" fill="none" />
<path d="M444.1725067385445,1244.1940700808627 L444.1725067385445,1196.0" stroke="red" stroke-width="1" fill="none" />
<path d="M444.1725067385445,1144.5929919137466 L444.1725067385445,1089.9730458221024" stroke="red" stroke-width="1" fill="none" />
<path d="M804.0215633423181,212.8409703504044 L752.6145552560647,212.8409703504044" stroke="red" stroke-width="1" fill="none" />
<path d="M881.1320754716982,212.8409703504044 L829.7250673854447,212.8409703504044" stroke="red" stroke-width="1" fill="none" />
<path d="M932.5390835579515,206.41509433962278 L881.1320754716982,212.8409703504044" stroke="red" stroke-width="1" fill="none" />
<path d="M752.6145552560647,212.8409703504044 L701.2075471698113,206.41509433962278" stroke="red" stroke-width="1" fill="none" />
<path d="M701.2075471698113,206.41509433962278 L694.7816711590297,155.00808625336936" stroke="red" stroke-width="1" fill="none" />
<path d="M938.9649595687331,155.00808625336936 L932.5390835579515,206.41509433962278" stroke="red" stroke-width="1" fill="none" />
<path d="M694.7816711590297,155.00808625336936 L643.3746630727762,148.58221024258773" stroke="red" stroke-width="1" fill="none" />
<path d="M643.3746630727762,97.17520215633431 L694.7816711590297,90.74932614555269" stroke="red" stroke-width="1" fill="none" />
<path d="M694.7816711590297,90.74932614555269 L701.2075471698113,39.34231805929926" stroke="red" stroke-width="1" fill="none" />
<path d="M701.2075471698113,39.34231805929926 L752.6145552560647,32.91644204851764" stroke="red" stroke-width="1" fill="none" />
<path d="M881.1320754716982,32.91644204851764 L932.5390835579515,39.34231805929926" stroke="red" stroke-width="1" fill="none" />
<path d="M932.5390835579515,39.34231805929926 L938.9649595687331,90.74932614555269" stroke="red" stroke-width="1" fill="none" />
<path d="M938.9649595687331,90.74932614555269 L990.3719676549865,97.17520215633431" stroke="red" stroke-width="1" fill="none" />
<path d="M990.3719676549865,148.58221024258773 L938.9649595687331,155.00808625336936" stroke="red" stroke-width="1" fill="none" />
<path d="M752.6145552560647,32.91644204851764 L791.1698113207547,7.2129380053909244" stroke="red" stroke-width="1" fill="none" />
<path d="M842.5768194070081,7.2129380053909244 L881.1320754716982,32.91644204851764" stroke="red" stroke-width="1" fill="none" />
<path d="M752.6145552560647,938.9649595687332 L662.6522911051213,990.3719676549866" stroke="red" stroke-width="1" fill="none" />
<path d="M778.3180592991914,938.9649595687332 L752.6145552560647,938.9649595687332" stroke="red" stroke-width="1" fill="none" />
<path d="M595.1805929919137,942.177897574124 L569.4770889487871,987.1590296495958" stroke="red" stroke-width="1" fill="none" />
<path d="M135.73045822102426,2147.0296495956873 L110.02695417789755,2147.0296495956873" stroke="red" stroke-width="1" fill="none" />
<path d="M135.73045822102426,2172.733153638814 L135.73045822102426,2147.0296495956873" stroke="red" stroke-width="1" fill="none" />
<path d="M110.02695417789755,2172.733153638814 L135.73045822102426,2172.733153638814" stroke="red" stroke-width="1" fill="none" />
<path d="M110.02695417789755,2147.0296495956873 L110.02695417789755,2172.733153638814" stroke="lavender" stroke-width="1" fill="none" />
<path d="M135.73045822102426,2198.4366576819407 L110.02695417789755,2198.4366576819407" stroke="red" stroke-width="1" fill="none" />
<path d="M135.73045822102426,2224.1401617250676 L135.73045822102426,2198.4366576819407" stroke="red" stroke-width="1" fill="none" />
<path d="M110.02695417789755,2224.1401617250676 L135.73045822102426,2224.1401617250676" stroke="red" stroke-width="1" fill="none" />
<path d="M110.02695417789755,2198.4366576819407 L110.02695417789755,2224.1401617250676" stroke="lavender" stroke-width="1" fill="none" />
<path d="M135.73045822102426,2249.843665768194 L110.02695417789755,2249.843665768194" stroke="red" stroke-width="1" fill="none" />
<path d="M135.73045822102426,2275.5471698113206 L135.73045822102426,2249.843665768194" stroke="red" stroke-width="1" fill="none" />
<path d="M110.02695417789755,2275.5471698113206 L135.73045822102426,2275.5471698113206" stroke="red" stroke-width="1" fill="none" />
<path d="M110.02695417789755,2249.843665768194 L110.02695417789755,2275.5471698113206" stroke="lavender" stroke-width="1" fill="none" />
<path d="M135.73045822102426,2301.2506738544475 L110.02695417789755,2301.2506738544475" stroke="red" stroke-width="1" fill="none" />
<path d="M135.73045822102426,2326.9541778975745 L135.73045822102426,2301.2506738544475" stroke="red" stroke-width="1" fill="none" />
<path d="M110.02695417789755,2326.9541778975745 L135.73045822102426,2326.9541778975745" stroke="red" stroke-width="1" fill="none" />
<path d="M110.02695417789755,2301.2506738544475 L110.02695417789755,2326.9541778975745" stroke="lavender" stroke-width="1" fill="none" />
<path d="M135.73045822102426,2352.657681940701 L110.02695417789755,2352.657681940701" stroke="red" stroke-width="1" fill="none" />
<path d="M135.73045822102426,2378.3611859838275 L135.73045822102426,2352.657681940701" stroke="red" stroke-width="1" fill="none" />
<path d="M110.02695417789755,2378.3611859838275 L135.73045822102426,2378.3611859838275" stroke="red" stroke-width="1" fill="none" />
<path d="M110.02695417789755,2352.657681940701 L110.02695417789755,2378.3611859838275" stroke="lavender" stroke-width="1" fill="none" />
<path d="M84.3234501347709,2147.0296495956873 L58.61994609164424,2147.0296495956873" stroke="red" stroke-width="1" fill="none" />
<path d="M84.3234501347709,2172.733153638814 L84.3234501347709,2147.0296495956873" stroke="lavender" stroke-width="1" fill="none" />
<path d="M58.61994609164424,2172.733153638814 L84.3234501347709,2172.733153638814" stroke="red" stroke-width="1" fill="none" />
<path d="M58.61994609164424,2147.0296495956873 L58.61994609164424,2172.733153638814" stroke="red" stroke-width="1" fill="none" />
<path d="M84.3234501347709,2198.4366576819407 L58.61994609164424,2198.4366576819407" stroke="red" stroke-width="1" fill="none" />
<path d="M84.3234501347709,2224.1401617250676 L84.3234501347709,2198.4366576819407" stroke="lavender" stroke-width="1" fill="none" />
<path d="M58.61994609164424,2224.1401617250676 L84.3234501347709,2224.1401617250676" stroke="red" stroke-width="1" fill="none" />
<path d="M58.61994609164424,2198.4366576819407 L58.61994609164424,2224.1401617250676" stroke="red" stroke-width="1" fill="none" />
<path d="M84.3234501347709,2249.843665768194 L58.61994609164424,2249.843665768194" stroke="red" stroke-width="1" fill="none" />
<path d="M84.3234501347709,2275.5471698113206 L84.3234501347709,2249.843665768194" stroke="lavender" stroke-width="1" fill="none" />
<path d="M58.61994609164424,2275.5471698113206 L84.3234501347709,2275.5471698113206" stroke="red" stroke-width="1" fill="none" />
<path d="M58.61994609164424,2249.843665768194 L58.61994609164424,2275.5471698113206" stroke="red" stroke-width="1" fill="none" />
<path d="M84.3234501347709,2301.2506738544475 L58.61994609164424,2301.2506738544475" stroke="red" stroke-width="1" fill="none" />
<path d="M84.3234501347709,2326.9541778975745 L84.3234501347709,2301.2506738544475" stroke="lavender" stroke-width="1" fill="none" />
<path d="M58.61994609164424,2326.9541778975745 L84.3234501347709,2326.9541778975745" stroke="red" stroke-width="1" fill="none" />
<path d="M58.61994609164424,2301.2506738544475 L58.61994609164424,2326.9541778975745" stroke="red" stroke-width="1" fill="none" />
<path d="M84.3234501347709,2352.657681940701 L58.61994609164424,2352.657681940701" stroke="red" stroke-width="1" fill="none" />
<path d="M84.3234501347709,2378.3611859838275 L84.3234501347709,2352.657681940701" stroke="lavender" stroke-width="1" fill="none" />
<path d="M58.61994609164424,2378.3611859838275 L84.3234501347709,2378.3611859838275" stroke="red" stroke-width="1" fill="none" />
<path d="M58.61994609164424,2352.657681940701 L58.61994609164424,2378.3611859838275" stroke="red" stroke-width="1" fill="none" />
<path d="M778.3180592991914,1401.6280323450135 L778.3180592991914,1273.1105121293801" stroke="red" stroke-width="1" fill="none" />
<path d="M855.4285714285714,938.9649595687332 L855.4285714285714,1041.77897574124" stroke="red" stroke-width="1" fill="none" />
<path d="M855.4285714285714,1453.035040431267 L855.4285714285714,1555.8490566037738" stroke="red" stroke-width="1" fill="none" />
<path d="M855.4285714285714,1555.8490566037738 L958.2425876010782,1555.8490566037738" stroke="red" stroke-width="1" fill="none" />
<path d="M958.2425876010782,1555.8490566037738 L958.2425876010782,1632.9595687331537" stroke="red" stroke-width="1" fill="none" />
<path d="M958.2425876010782,1632.9595687331537 L855.4285714285714,1632.9595687331537" stroke="red" stroke-width="1" fill="none" />
<path d="M855.4285714285714,1632.9595687331537 L855.4285714285714,1787.1805929919137" stroke="red" stroke-width="1" fill="none" />
<path d="M778.3180592991914,1787.1805929919137 L778.3180592991914,1632.9595687331537" stroke="red" stroke-width="1" fill="none" />
<path d="M778.3180592991914,1632.9595687331537 L675.5040431266847,1632.9595687331537" stroke="red" stroke-width="1" fill="none" />
<path d="M675.5040431266847,1632.9595687331537 L675.5040431266847,1555.8490566037738" stroke="red" stroke-width="1" fill="none" />
<path d="M675.5040431266847,1555.8490566037738 L778.3180592991914,1555.8490566037738" stroke="red" stroke-width="1" fill="none" />
<path d="M778.3180592991914,1555.8490566037738 L778.3180592991914,1453.035040431267" stroke="red" stroke-width="1" fill="none" />
<path d="M4.0,2069.9191374663073 L161.43396226415098,2069.9191374663073" stroke="red" stroke-width="1" fill="none" />
<path d="M161.43396226415098,2069.9191374663073 L161.43396226415098,2404.0646900269544" stroke="red" stroke-width="1" fill="none" />
<path d="M161.43396226415098,2404.0646900269544 L4.0,2404.0646900269544" stroke="red" stroke-width="1" fill="none" />
<path d="M4.0,2404.0646900269544 L4.0,2069.9191374663073" stroke="red" stroke-width="1" fill="none" />
<path d="M1183.1482479784368,1038.566037735849 L1115.6765498652292,1077.1212938005392" stroke="red" stroke-width="1" fill="none" />
<path d="M971.0943396226415,990.3719676549866 L881.1320754716982,938.9649595687332" stroke="red" stroke-width="1" fill="none" />
<path d="M829.7250673854447,1915.6981132075473 L829.7250673854447,1934.9757412398922" stroke="red" stroke-width="1" fill="none" />
<path d="M829.7250673854447,1934.9757412398922 L804.0215633423181,1934.9757412398922" stroke="red" stroke-width="1" fill="none" />
<path d="M804.0215633423181,1934.9757412398922 L804.0215633423181,1915.6981132075473" stroke="red" stroke-width="1" fill="none" />
<path d="M804.0215633423181,688.355795148248 L804.0215633423181,678.7169811320756" stroke="red" stroke-width="1" fill="none" />
<path d="M804.0215633423181,678.7169811320756 L797.5956873315364,678.7169811320756" stroke="red" stroke-width="1" fill="none" />
<path d="M797.5956873315364,678.7169811320756 L797.5956873315364,672.2911051212939" stroke="red" stroke-width="1" fill="none" />
<path d="M797.5956873315364,672.2911051212939 L804.0215633423181,672.2911051212939" stroke="red" stroke-width="1" fill="none" />
<path d="M804.0215633423181,672.2911051212939 L804.0215633423181,662.6522911051213" stroke="red" stroke-width="1" fill="none" />
<path d="M829.7250673854447,662.6522911051213 L829.7250673854447,672.2911051212939" stroke="red" stroke-width="1" fill="none" />
<path d="M829.7250673854447,672.2911051212939 L836.1509433962265,672.2911051212939" stroke="red" stroke-width="1" fill="none" />
<path d="M836.1509433962265,672.2911051212939 L836.1509433962265,678.7169811320756" stroke="red" stroke-width="1" fill="none" />
<path d="M836.1509433962265,678.7169811320756 L829.7250673854447,678.7169811320756" stroke="red" stroke-width="1" fill="none" />
<path d="M829.7250673854447,678.7169811320756 L829.7250673854447,688.355795148248" stroke="red" stroke-width="1" fill="none" />
<path d="M13.638814016172546,2243.4177897574127 L26.490566037735903,2243.4177897574127" stroke="red" stroke-width="1" fill="none" />
<path d="M26.490566037735903,2243.4177897574127 L26.490566037735903,2230.566037735849" stroke="lavender" stroke-width="1" fill="none" />
<path d="M26.490566037735903,2230.566037735849 L13.638814016172546,2230.566037735849" stroke="red" stroke-width="1" fill="none" />
<path d="M13.638814016172546,2230.566037735849 L13.638814016172546,2243.4177897574127" stroke="red" stroke-width="1" fill="none" />
<path d="M13.638814016172546,2269.121293800539 L26.490566037735903,2269.121293800539" stroke="red" stroke-width="1" fill="none" />
<path d="M26.490566037735903,2269.121293800539 L26.490566037735903,2256.269541778976" stroke="lavender" stroke-width="1" fill="none" />
<path d="M26.490566037735903,2256.269541778976 L13.638814016172546,2256.269541778976" stroke="red" stroke-width="1" fill="none" />
<path d="M13.638814016172546,2256.269541778976 L13.638814016172546,2269.121293800539" stroke="red" stroke-width="1" fill="none" />
<path d="M13.638814016172546,2294.8247978436657 L26.490566037735903,2294.8247978436657" stroke="red" stroke-width="1" fill="none" />
<path d="M26.490566037735903,2294.8247978436657 L26.490566037735903,2281.9730458221024" stroke="lavender" stroke-width="1" fill="none" />
<path d="M26.490566037735903,2281.9730458221024 L13.638814016172546,2281.9730458221024" stroke="red" stroke-width="1" fill="none" />
<path d="M13.638814016172546,2281.9730458221024 L13.638814016172546,2294.8247978436657" stroke="red" stroke-width="1" fill="none" />
<path d="M444.1725067385445,1196.0 L431.3207547169811,1196.0" stroke="red" stroke-width="1" fill="none" />
<path d="M431.3207547169811,1196.0 L431.3207547169811,1183.1482479784368" stroke="red" stroke-width="1" fill="none" />
<path d="M431.3207547169811,1157.44474393531 L431.3207547169811,1144.5929919137466" stroke="red" stroke-width="1" fill="none" />
<path d="M431.3207547169811,1144.5929919137466 L444.1725067385445,1144.5929919137466" stroke="red" stroke-width="1" fill="none" />
<path d="M804.0215633423181,662.6522911051213 L752.6145552560647,662.6522911051213" stroke="red" stroke-width="1" fill="none" />
<path d="M881.1320754716982,662.6522911051213 L829.7250673854447,662.6522911051213" stroke="red" stroke-width="1" fill="none" />
<path d="M858.6415094339623,624.0970350404314 L852.2156334231806,624.0970350404314" stroke="red" stroke-width="1" fill="none" />
<path d="M852.2156334231806,624.0970350404314 L849.0026954177897,627.3099730458222" stroke="red" stroke-width="1" fill="none" />
<path d="M849.0026954177897,627.3099730458222 L849.0026954177897,633.7358490566038" stroke="red" stroke-width="1" fill="none" />
<path d="M849.0026954177897,633.7358490566038 L852.2156334231806,636.9487870619947" stroke="red" stroke-width="1" fill="none" />
<path d="M852.2156334231806,636.9487870619947 L858.6415094339623,636.9487870619947" stroke="red" stroke-width="1" fill="none" />
<path d="M858.6415094339623,636.9487870619947 L861.8544474393532,633.7358490566038" stroke="red" stroke-width="1" fill="none" />
<path d="M861.8544474393532,633.7358490566038 L861.8544474393532,627.3099730458222" stroke="red" stroke-width="1" fill="none" />
<path d="M861.8544474393532,627.3099730458222 L858.6415094339623,624.0970350404314" stroke="red" stroke-width="1" fill="none" />
<path d="M858.6415094339623,572.6900269541779 L852.2156334231806,572.6900269541779" stroke="red" stroke-width="1" fill="none" />
<path d="M852.2156334231806,572.6900269541779 L849.0026954177897,575.9029649595689" stroke="red" stroke-width="1" fill="none" />
<path d="M849.0026954177897,575.9029649595689 L849.0026954177897,582.3288409703505" stroke="red" stroke-width="1" fill="none" />
<path d="M849.0026954177897,582.3288409703505 L852.2156334231806,585.5417789757413" stroke="red" stroke-width="1" fill="none" />
<path d="M852.2156334231806,585.5417789757413 L858.6415094339623,585.5417789757413" stroke="red" stroke-width="1" fill="none" />
<path d="M858.6415094339623,585.5417789757413 L861.8544474393532,582.3288409703505" stroke="red" stroke-width="1" fill="none" />
<path d="M861.8544474393532,582.3288409703505 L861.8544474393532,575.9029649595689" stroke="red" stroke-width="1" fill="none" />
<path d="M861.8544474393532,575.9029649595689 L858.6415094339623,572.6900269541779" stroke="red" stroke-width="1" fill="none" />
<path d="M858.6415094339623,521.2830188679246 L852.2156334231806,521.2830188679246" stroke="red" stroke-width="1" fill="none" />
<path d="M852.2156334231806,521.2830188679246 L849.0026954177897,524.4959568733154" stroke="red" stroke-width="1" fill="none" />
<path d="M849.0026954177897,524.4959568733154 L849.0026954177897,530.9218328840971" stroke="red" stroke-width="1" fill="none" />
<path d="M849.0026954177897,530.9218328840971 L852.2156334231806,534.134770889488" stroke="red" stroke-width="1" fill="none" />
<path d="M852.2156334231806,534.134770889488 L858.6415094339623,534.134770889488" stroke="red" stroke-width="1" fill="none" />
<path d="M858.6415094339623,534.134770889488 L861.8544474393532,530.9218328840971" stroke="red" stroke-width="1" fill="none" />
<path d="M861.8544474393532,530.9218328840971 L861.8544474393532,524.4959568733154" stroke="red" stroke-width="1" fill="none" />
<path d="M861.8544474393532,524.4959568733154 L858.6415094339623,521.2830188679246" stroke="red" stroke-width="1" fill="none" />
<path d="M858.6415094339623,469.8760107816712 L852.2156334231806,469.8760107816712" stroke="red" stroke-width="1" fill="none" />
<path d="M852.2156334231806,469.8760107816712 L849.0026954177897,473.0889487870621" stroke="red" stroke-width="1" fill="none" />
<path d="M849.0026954177897,473.0889487870621 L849.0026954177897,479.51482479784374" stroke="red" stroke-width="1" fill="none" />
<path d="M849.0026954177897,479.51482479784374 L852.2156334231806,482.72776280323455" stroke="red" stroke-width="1" fill="none" />
<path d="M852.2156334231806,482.72776280323455 L858.6415094339623,482.72776280323455" stroke="red" stroke-width="1" fill="none" />
<path d="M858.6415094339623,482.72776280323455 L861.8544474393532,479.51482479784374" stroke="red" stroke-width="1" fill="none" />
<path d="M861.8544474393532,479.51482479784374 L861.8544474393532,473.0889487870621" stroke="red" stroke-width="1" fill="none" />
<path d="M861.8544474393532,473.0889487870621 L858.6415094339623,469.8760107816712" stroke="red" stroke-width="1" fill="none" />
<path d="M781.5309973045822,624.0970350404314 L775.1051212938005,624.0970350404314" stroke="red" stroke-width="1" fill="none" />
<path d="M775.1051212938005,624.0970350404314 L771.8921832884097,627.3099730458222" stroke="red" stroke-width="1" fill="none" />
<path d="M771.8921832884097,627.3099730458222 L771.8921832884097,633.7358490566038" stroke="red" stroke-width="1" fill="none" />
<path d="M771.8921832884097,633.7358490566038 L775.1051212938005,636.9487870619947" stroke="red" stroke-width="1" fill="none" />
<path d="M775.1051212938005,636.9487870619947 L781.5309973045822,636.9487870619947" stroke="red" stroke-width="1" fill="none" />
<path d="M781.5309973045822,636.9487870619947 L784.743935309973,633.7358490566038" stroke="red" stroke-width="1" fill="none" />
<path d="M784.743935309973,633.7358490566038 L784.743935309973,627.3099730458222" stroke="red" stroke-width="1" fill="none" />
<path d="M784.743935309973,627.3099730458222 L781.5309973045822,624.0970350404314" stroke="red" stroke-width="1" fill="none" />
<path d="M781.5309973045822,572.6900269541779 L775.1051212938005,572.6900269541779" stroke="red" stroke-width="1" fill="none" />
<path d="M775.1051212938005,572.6900269541779 L771.8921832884097,575.9029649595689" stroke="red" stroke-width="1" fill="none" />
<path d="M771.8921832884097,575.9029649595689 L771.8921832884097,582.3288409703505" stroke="red" stroke-width="1" fill="none" />
<path d="M771.8921832884097,582.3288409703505 L775.1051212938005,585.5417789757413" stroke="red" stroke-width="1" fill="none" />
<path d="M775.1051212938005,585.5417789757413 L781.5309973045822,585.5417789757413" stroke="red" stroke-width="1" fill="none" />
<path d="M781.5309973045822,585.5417789757413 L784.743935309973,582.3288409703505" stroke="red" stroke-width="1" fill="none" />
<path d="M784.743935309973,582.3288409703505 L784.743935309973,575.9029649595689" stroke="red" stroke-width="1" fill="none" />
<path d="M784.743935309973,575.9029649595689 L781.5309973045822,572.6900269541779" stroke="red" stroke-width="1" fill="none" />
<path d="M781.5309973045822,521.2830188679246 L775.1051212938005,521.2830188679246" stroke="red" stroke-width="1" fill="none" />
<path d="M775.1051212938005,521.2830188679246 L771.8921832884097,524.4959568733154" stroke="red" stroke-width="1" fill="none" />
<path d="M771.8921832884097,524.4959568733154 L771.8921832884097,530.9218328840971" stroke="red" stroke-width="1" fill="none" />
<path d="M771.8921832884097,530.9218328840971 L775.1051212938005,534.134770889488" stroke="red" stroke-width="1" fill="none" />
<path d="M775.1051212938005,534.134770889488 L781.5309973045822,534.134770889488" stroke="red" stroke-width="1" fill="none" />
<path d="M781.5309973045822,534.134770889488 L784.743935309973,530.9218328840971" stroke="red" stroke-width="1" fill="none" />
<path d="M784.743935309973,530.9218328840971 L784.743935309973,524.4959568733154" stroke="red" stroke-width="1" fill="none" />
<path d="M784.743935309973,524.4959568733154 L781.5309973045822,521.2830188679246" stroke="red" stroke-width="1" fill="none" />
<path d="M807.2345013477088,469.8760107816712 L800.8086253369272,469.8760107816712" stroke="red" stroke-width="1" fill="none" />
<path d="M800.8086253369272,469.8760107816712 L797.5956873315364,473.0889487870621" stroke="red" stroke-width="1" fill="none" />
<path d="M797.5956873315364,473.0889487870621 L797.5956873315364,479.51482479784374" stroke="red" stroke-width="1" fill="none" />
<path d="M797.5956873315364,479.51482479784374 L800.8086253369272,482.72776280323455" stroke="red" stroke-width="1" fill="none" />
<path d="M800.8086253369272,482.72776280323455 L807.2345013477088,482.72776280323455" stroke="red" stroke-width="1" fill="none" />
<path d="M807.2345013477088,482.72776280323455 L810.4474393530998,479.51482479784374" stroke="red" stroke-width="1" fill="none" />
<path d="M810.4474393530998,479.51482479784374 L810.4474393530998,473.0889487870621" stroke="red" stroke-width="1" fill="none" />
<path d="M810.4474393530998,473.0889487870621 L807.2345013477088,469.8760107816712" stroke="red" stroke-width="1" fill="none" />
<path d="M858.6415094339623,418.4690026954179 L852.2156334231806,418.4690026954179" stroke="red" stroke-width="1" fill="none" />
<path d="M852.2156334231806,418.4690026954179 L849.0026954177897,421.6819407008088" stroke="red" stroke-width="1" fill="none" />
<path d="M849.0026954177897,421.6819407008088 L849.0026954177897,428.10781671159043" stroke="red" stroke-width="1" fill="none" />
<path d="M849.0026954177897,428.10781671159043 L852.2156334231806,431.3207547169811" stroke="red" stroke-width="1" fill="none" />
<path d="M852.2156334231806,431.3207547169811 L858.6415094339623,431.3207547169811" stroke="red" stroke-width="1" fill="none" />
<path d="M858.6415094339623,431.3207547169811 L861.8544474393532,428.10781671159043" stroke="red" stroke-width="1" fill="none" />
<path d="M861.8544474393532,428.10781671159043 L861.8544474393532,421.6819407008088" stroke="red" stroke-width="1" fill="none" />
<path d="M861.8544474393532,421.6819407008088 L858.6415094339623,418.4690026954179" stroke="red" stroke-width="1" fill="none" />
<path d="M858.6415094339623,367.06199460916446 L852.2156334231806,367.06199460916446" stroke="red" stroke-width="1" fill="none" />
<path d="M852.2156334231806,367.06199460916446 L849.0026954177897,370.2749326145554" stroke="red" stroke-width="1" fill="none" />
<path d="M849.0026954177897,370.2749326145554 L849.0026954177897,376.700808625337" stroke="red" stroke-width="1" fill="none" />
<path d="M849.0026954177897,376.700808625337 L852.2156334231806,379.9137466307279" stroke="red" stroke-width="1" fill="none" />
<path d="M852.2156334231806,379.9137466307279 L858.6415094339623,379.9137466307279" stroke="red" stroke-width="1" fill="none" />
<path d="M858.6415094339623,379.9137466307279 L861.8544474393532,376.700808625337" stroke="red" stroke-width="1" fill="none" />
<path d="M861.8544474393532,376.700808625337 L861.8544474393532,370.2749326145554" stroke="red" stroke-width="1" fill="none" />
<path d="M861.8544474393532,370.2749326145554 L858.6415094339623,367.06199460916446" stroke="red" stroke-width="1" fill="none" />
<path d="M858.6415094339623,315.65498652291103 L852.2156334231806,315.65498652291103" stroke="red" stroke-width="1" fill="none" />
<path d="M852.2156334231806,315.65498652291103 L849.0026954177897,318.86792452830196" stroke="red" stroke-width="1" fill="none" />
<path d="M849.0026954177897,318.86792452830196 L849.0026954177897,325.2938005390836" stroke="red" stroke-width="1" fill="none" />
<path d="M849.0026954177897,325.2938005390836 L852.2156334231806,328.5067385444745" stroke="red" stroke-width="1" fill="none" />
<path d="M852.2156334231806,328.5067385444745 L858.6415094339623,328.5067385444745" stroke="red" stroke-width="1" fill="none" />
<path d="M858.6415094339623,328.5067385444745 L861.8544474393532,325.2938005390836" stroke="red" stroke-width="1" fill="none" />
<path d="M861.8544474393532,325.2938005390836 L861.8544474393532,318.86792452830196" stroke="red" stroke-width="1" fill="none" />
<path d="M861.8544474393532,318.86792452830196 L858.6415094339623,315.65498652291103" stroke="red" stroke-width="1" fill="none" />
<path d="M858.6415094339623,264.24797843665783 L852.2156334231806,264.24797843665783" stroke="red" stroke-width="1" fill="none" />
<path d="M852.2156334231806,264.24797843665783 L849.0026954177897,267.46091644204853" stroke="red" stroke-width="1" fill="none" />
<path d="M849.0026954177897,267.46091644204853 L849.0026954177897,273.88679245283015" stroke="red" stroke-width="1" fill="none" />
<path d="M849.0026954177897,273.88679245283015 L852.2156334231806,277.0997304582211" stroke="red" stroke-width="1" fill="none" />
<path d="M852.2156334231806,277.0997304582211 L858.6415094339623,277.0997304582211" stroke="red" stroke-width="1" fill="none" />
<path d="M858.6415094339623,277.0997304582211 L861.8544474393532,273.88679245283015" stroke="red" stroke-width="1" fill="none" />
<path d="M861.8544474393532,273.88679245283015 L861.8544474393532,267.46091644204853" stroke="red" stroke-width="1" fill="none" />
<path d="M861.8544474393532,267.46091644204853 L858.6415094339623,264.24797843665783" stroke="red" stroke-width="1" fill="none" />
<path d="M807.2345013477088,418.4690026954179 L800.8086253369272,418.4690026954179" stroke="red" stroke-width="1" fill="none" />
<path d="M800.8086253369272,418.4690026954179 L797.5956873315364,421.6819407008088" stroke="red" stroke-width="1" fill="none" />
<path d="M797.5956873315364,421.6819407008088 L797.5956873315364,428.10781671159043" stroke="red" stroke-width="1" fill="none" />
<path d="M797.5956873315364,428.10781671159043 L800.8086253369272,431.3207547169811" stroke="red" stroke-width="1" fill="none" />
<path d="M800.8086253369272,431.3207547169811 L807.2345013477088,431.3207547169811" stroke="red" stroke-width="1" fill="none" />
<path d="M807.2345013477088,431.3207547169811 L810.4474393530998,428.10781671159043" stroke="red" stroke-width="1" fill="none" />
<path d="M810.4474393530998,428.10781671159043 L810.4474393530998,421.6819407008088" stroke="red" stroke-width="1" fill="none" />
<path d="M810.4474393530998,421.6819407008088 L807.2345013477088,418.4690026954179" stroke="red" stroke-width="1" fill="none" />
<path d="M781.5309973045822,367.06199460916446 L775.1051212938005,367.06199460916446" stroke="red" stroke-width="1" fill="none" />
<path d="M775.1051212938005,367.06199460916446 L771.8921832884097,370.2749326145554" stroke="red" stroke-width="1" fill="none" />
<path d="M771.8921832884097,370.2749326145554 L771.8921832884097,376.700808625337" stroke="red" stroke-width="1" fill="none" />
<path d="M771.8921832884097,376.700808625337 L775.1051212938005,379.9137466307279" stroke="red" stroke-width="1" fill="none" />
<path d="M775.1051212938005,379.9137466307279 L781.5309973045822,379.9137466307279" stroke="red" stroke-width="1" fill="none" />
<path d="M781.5309973045822,379.9137466307279 L784.743935309973,376.700808625337" stroke="red" stroke-width="1" fill="none" />
<path d="M784.743935309973,376.700808625337 L784.743935309973,370.2749326145554" stroke="red" stroke-width="1" fill="none" />
<path d="M784.743935309973,370.2749326145554 L781.5309973045822,367.06199460916446" stroke="red" stroke-width="1" fill="none" />
<path d="M781.5309973045822,315.65498652291103 L775.1051212938005,315.65498652291103" stroke="red" stroke-width="1" fill="none" />
<path d="M775.1051212938005,315.65498652291103 L771.8921832884097,318.86792452830196" stroke="red" stroke-width="1" fill="none" />
<path d="M771.8921832884097,318.86792452830196 L771.8921832884097,325.2938005390836" stroke="red" stroke-width="1" fill="none" />
<path d="M771.8921832884097,325.2938005390836 L775.1051212938005,328.5067385444745" stroke="red" stroke-width="1" fill="none" />
<path d="M775.1051212938005,328.5067385444745 L781.5309973045822,328.5067385444745" stroke="red" stroke-width="1" fill="none" />
<path d="M781.5309973045822,328.5067385444745 L784.743935309973,325.2938005390836" stroke="red" stroke-width="1" fill="none" />
<path d="M784.743935309973,325.2938005390836 L784.743935309973,318.86792452830196" stroke="red" stroke-width="1" fill="none" />
<path d="M784.743935309973,318.86792452830196 L781.5309973045822,315.65498652291103" stroke="red" stroke-width="1" fill="none" />
<path d="M781.5309973045822,264.24797843665783 L775.1051212938005,264.24797843665783" stroke="red" stroke-width="1" fill="none" />
<path d="M775.1051212938005,264.24797843665783 L771.8921832884097,267.46091644204853" stroke="red" stroke-width="1" fill="none" />
<path d="M771.8921832884097,267.46091644204853 L771.8921832884097,273.88679245283015" stroke="red" stroke-width="1" fill="none" />
<path d="M771.8921832884097,273.88679245283015 L775.1051212938005,277.0997304582211" stroke="red" stroke-width="1" fill="none" />
<path d="M775.1051212938005,277.0997304582211 L781.5309973045822,277.0997304582211" stroke="red" stroke-width="1" fill="none" />
<path d="M781.5309973045822,277.0997304582211 L784.743935309973,273.88679245283015" stroke="red" stroke-width="1" fill="none" />
<path d="M784.743935309973,273.88679245283015 L784.743935309973,267.46091644204853" stroke="red" stroke-width="1" fill="none" />
<path d="M784.743935309973,267.46091644204853 L781.5309973045822,264.24797843665783" stroke="red" stroke-width="1" fill="none" />
<path d="M752.6145552560647,482.72776280323455 L726.911051212938,482.72776280323455" stroke="red" stroke-width="1" fill="none" />
<path d="M726.911051212938,418.4690026954179 L752.6145552560647,418.4690026954179" stroke="red" stroke-width="1" fill="none" />
<path d="M752.6145552560647,418.4690026954179 L752.6145552560647,238.54447439353112" stroke="red" stroke-width="1" fill="none" />
<path d="M726.911051212938,482.72776280323455 L726.911051212938,476.30188679245293" stroke="red" stroke-width="1" fill="none" />
<path d="M726.911051212938,476.30188679245293 L714.0592991913747,476.30188679245293" stroke="red" stroke-width="1" fill="none" />
<path d="M714.0592991913747,476.30188679245293 L714.0592991913747,463.4501347708896" stroke="red" stroke-width="1" fill="none" />
<path d="M714.0592991913747,437.746630727763 L714.0592991913747,424.8948787061995" stroke="red" stroke-width="1" fill="none" />
<path d="M726.911051212938,424.8948787061995 L726.911051212938,418.4690026954179" stroke="red" stroke-width="1" fill="none" />
<path d="M13.638814016172546,2166.3072776280324 L26.490566037735903,2166.3072776280324" stroke="lavender" stroke-width="1" fill="none" />
<path d="M26.490566037735903,2153.455525606469 L13.638814016172546,2153.455525606469" stroke="lavender" stroke-width="1" fill="none" />
<path d="M13.638814016172546,2153.455525606469 L13.638814016172546,2166.3072776280324" stroke="lavender" stroke-width="1" fill="none" />
<path d="M13.638814016172546,2192.0107816711593 L26.490566037735903,2192.0107816711593" stroke="lavender" stroke-width="1" fill="none" />
<path d="M26.490566037735903,2179.159029649596 L13.638814016172546,2179.159029649596" stroke="lavender" stroke-width="1" fill="none" />
<path d="M13.638814016172546,2179.159029649596 L13.638814016172546,2192.0107816711593" stroke="lavender" stroke-width="1" fill="none" />
<path d="M13.638814016172546,2217.714285714286 L26.490566037735903,2217.714285714286" stroke="lavender" stroke-width="1" fill="none" />
<path d="M26.490566037735903,2204.8625336927225 L13.638814016172546,2204.8625336927225" stroke="lavender" stroke-width="1" fill="none" />
<path d="M13.638814016172546,2204.8625336927225 L13.638814016172546,2217.714285714286" stroke="lavender" stroke-width="1" fill="none" />
<path d="M714.0592991913747,424.8948787061995 L726.911051212938,424.8948787061995" stroke="red" stroke-width="1" fill="none" />
<path d="M514.8571428571429,1173.5094339622642 L514.8571428571429,1192.7870619946093" stroke="red" stroke-width="1" fill="none" />
<path d="M514.8571428571429,1141.3800539083559 L514.8571428571429,1160.657681940701" stroke="red" stroke-width="1" fill="none" />
<path d="M521.2830188679245,1173.5094339622642 L514.8571428571429,1173.5094339622642" stroke="red" stroke-width="1" fill="none" />
<path d="M521.2830188679245,1160.657681940701 L521.2830188679245,1173.5094339622642" stroke="lavender" stroke-width="1" fill="none" />
<path d="M514.8571428571429,1160.657681940701 L521.2830188679245,1160.657681940701" stroke="red" stroke-width="1" fill="none" />
<path d="M26.490566037735903,2156.66846361186 L26.490566037735903,2153.455525606469" stroke="lavender" stroke-width="1" fill="none" />
<path d="M26.490566037735903,2166.3072776280324 L26.490566037735903,2156.66846361186" stroke="lavender" stroke-width="1" fill="none" />
<path d="M26.490566037735903,2182.3719676549867 L26.490566037735903,2179.159029649596" stroke="lavender" stroke-width="1" fill="none" />
<path d="M26.490566037735903,2192.0107816711593 L26.490566037735903,2182.3719676549867" stroke="lavender" stroke-width="1" fill="none" />
<path d="M26.490566037735903,2208.0754716981132 L26.490566037735903,2204.8625336927225" stroke="lavender" stroke-width="1" fill="none" />
<path d="M26.490566037735903,2217.714285714286 L26.490566037735903,2208.0754716981132" stroke="lavender" stroke-width="1" fill="none" />
<path d="M881.1320754716982,238.54447439353112 L881.1320754716982,367.06199460916446" stroke="red" stroke-width="1" fill="none" />
<path d="M881.1320754716982,367.06199460916446 L881.1320754716982,389.55256064690025" stroke="red" stroke-width="1" fill="none" />
<path d="M881.1320754716982,389.55256064690025 L881.1320754716982,424.8948787061995" stroke="red" stroke-width="1" fill="none" />
<path d="M881.1320754716982,476.30188679245293 L881.1320754716982,502.00539083557965" stroke="red" stroke-width="1" fill="none" />
<path d="M881.1320754716982,502.00539083557965 L881.1320754716982,534.134770889488" stroke="red" stroke-width="1" fill="none" />
<path d="M714.0592991913747,463.4501347708896 L726.911051212938,463.4501347708896" stroke="red" stroke-width="1" fill="none" />
<path d="M726.911051212938,463.4501347708896 L726.911051212938,457.02425876010784" stroke="red" stroke-width="1" fill="none" />
<path d="M726.911051212938,457.02425876010784 L714.0592991913747,457.02425876010784" stroke="red" stroke-width="1" fill="none" />
<path d="M714.0592991913747,457.02425876010784 L714.0592991913747,444.1725067385446" stroke="red" stroke-width="1" fill="none" />
<path d="M714.0592991913747,444.1725067385446 L726.911051212938,444.1725067385446" stroke="red" stroke-width="1" fill="none" />
<path d="M726.911051212938,444.1725067385446 L726.911051212938,437.746630727763" stroke="red" stroke-width="1" fill="none" />
<path d="M726.911051212938,437.746630727763 L714.0592991913747,437.746630727763" stroke="red" stroke-width="1" fill="none" />
<path d="M1064.2695417789757,987.1590296495958 L1038.566037735849,942.177897574124" stroke="red" stroke-width="1" fill="none" />
<path d="M1028.9272237196765,932.5390835579516 L983.9460916442049,906.8355795148249" stroke="red" stroke-width="1" fill="none" />
<path d="M752.6145552560647,662.6522911051213 L752.6145552560647,611.245283018868" stroke="red" stroke-width="1" fill="none" />
<path d="M752.6145552560647,611.245283018868 L752.6145552560647,482.72776280323455" stroke="red" stroke-width="1" fill="none" />
<path d="M881.1320754716982,534.134770889488 L881.1320754716982,611.245283018868" stroke="red" stroke-width="1" fill="none" />
<path d="M881.1320754716982,611.245283018868 L881.1320754716982,662.6522911051213" stroke="red" stroke-width="1" fill="none" />
<path d="M431.3207547169811,1183.1482479784368 L444.1725067385445,1183.1482479784368" stroke="red" stroke-width="1" fill="none" />
<path d="M444.1725067385445,1183.1482479784368 L444.1725067385445,1176.7223719676551" stroke="red" stroke-width="1" fill="none" />
<path d="M444.1725067385445,1176.7223719676551 L431.3207547169811,1176.7223719676551" stroke="red" stroke-width="1" fill="none" />
<path d="M431.3207547169811,1176.7223719676551 L431.3207547169811,1163.8706199460917" stroke="red" stroke-width="1" fill="none" />
<path d="M431.3207547169811,1163.8706199460917 L444.1725067385445,1163.8706199460917" stroke="red" stroke-width="1" fill="none" />
<path d="M444.1725067385445,1163.8706199460917 L444.1725067385445,1157.44474393531" stroke="red" stroke-width="1" fill="none" />
<path d="M444.1725067385445,1157.44474393531 L431.3207547169811,1157.44474393531" stroke="red" stroke-width="1" fill="none" />
<path d="M791.1698113207547,7.2129380053909244 L791.1698113207547,4.0" stroke="red" stroke-width="1" fill="none" />
<path d="M791.1698113207547,4.0 L842.5768194070081,4.0" stroke="red" stroke-width="1" fill="none" />
<path d="M842.5768194070081,4.0 L842.5768194070081,7.2129380053909244" stroke="red" stroke-width="1" fill="none" />
<path d="M990.3719676549865,97.17520215633431 L993.5849056603774,97.17520215633431" stroke="red" stroke-width="1" fill="none" />
<path d="M993.5849056603774,97.17520215633431 L993.5849056603774,148.58221024258773" stroke="red" stroke-width="1" fill="none" />
<path d="M993.5849056603774,148.58221024258773 L990.3719676549865,148.58221024258773" stroke="red" stroke-width="1" fill="none" />
<path d="M640.1617250673854,97.17520215633431 L643.3746630727762,97.17520215633431" stroke="red" stroke-width="1" fill="none" />
<path d="M640.1617250673854,148.58221024258773 L640.1617250673854,97.17520215633431" stroke="red" stroke-width="1" fill="none" />
<path d="M643.3746630727762,148.58221024258773 L640.1617250673854,148.58221024258773" stroke="red" stroke-width="1" fill="none" />
<path d="M881.1320754716982,424.8948787061995 L881.1320754716982,444.1725067385446" stroke="red" stroke-width="1" fill="none" />
<path d="M881.1320754716982,444.1725067385446 L887.5579514824798,444.1725067385446" stroke="red" stroke-width="1" fill="none" />
<path d="M887.5579514824798,444.1725067385446 L887.5579514824798,457.02425876010784" stroke="lavender" stroke-width="1" fill="none" />
<path d="M887.5579514824798,457.02425876010784 L881.1320754716982,457.02425876010784" stroke="red" stroke-width="1" fill="none" />
<path d="M881.1320754716982,457.02425876010784 L881.1320754716982,476.30188679245293" stroke="red" stroke-width="1" fill="none" />
<path d="M804.0215633423181,1915.6981132075473 L804.0215633423181,1912.4851752021564" stroke="red" stroke-width="1" fill="none" />
<path d="M804.0215633423181,1912.4851752021564 L804.0215633423181,1909.2722371967657" stroke="red" stroke-width="1" fill="none" />
<path d="M829.7250673854447,1909.2722371967657 L829.7250673854447,1912.4851752021564" stroke="red" stroke-width="1" fill="none" />
<path d="M829.7250673854447,1912.4851752021564 L829.7250673854447,1915.6981132075473" stroke="red" stroke-width="1" fill="none" />
<path d="M855.4285714285714,1401.6280323450135 L881.1320754716982,1401.6280323450135" stroke="red" stroke-width="1" fill="none" />
<path d="M855.4285714285714,1273.1105121293801 L855.4285714285714,1375.9245283018868" stroke="red" stroke-width="1" fill="none" />
<path d="M855.4285714285714,1375.9245283018868 L855.4285714285714,1401.6280323450135" stroke="red" stroke-width="1" fill="none" />
<path d="M855.4285714285714,1375.9245283018868 L881.1320754716982,1375.9245283018868" stroke="red" stroke-width="1" fill="none" />
<path d="M881.1320754716982,1375.9245283018868 L881.1320754716982,1273.1105121293801" stroke="red" stroke-width="1" fill="none" />
</svg>