<?xml version="1.0" encoding="UTF-8"?>
<svg xmlns="http://www.w3.org/2000/svg" xmlns:xlink="http://www.w3.org/1999/xlink"
     width="1200" height="2602" viewBox="0 0 1200 2602">
<defs>
</defs>
<path d="M775.294117647059,810.3529411764707 L705.1764705882354,810.3529411764707" stroke="yellow" stroke-width="1" fill="none" />
<path d="M705.1764705882354,845.4117647058824 L775.294117647059,845.4117647058824" stroke="yellow" stroke-width="1" fill="none" />
<path d="M880.4705882352943,950.5882352941178 L810.3529411764707,985.6470588235295" stroke="yellow" stroke-width="1" fill="none" />
<path d="M810.3529411764707,985.6470588235295 L705.1764705882354,985.6470588235295" stroke="yellow" stroke-width="1" fill="none" />
<path d="M564.9411764705883,915.5294117647061 L529.8823529411766,880.4705882352943" stroke="yellow" stroke-width="1" fill="none" />
<path d="M494.8235294117648,915.5294117647061 L529.8823529411766,950.5882352941178" stroke="yellow" stroke-width="1" fill="none" />
<path d="M670.1176470588236,1020.7058823529413 L845.4117647058824,1020.7058823529413" stroke="yellow" stroke-width="1" fill="none" />
<path d="M845.4117647058824,1020.7058823529413 L915.5294117647061,985.6470588235295" stroke="yellow" stroke-width="1" fill="none" />
<path d="M1055.7647058823532,985.6470588235295 L1020.7058823529413,1055.7647058823532" stroke="yellow" stroke-width="1" fill="none" />
<path d="M1020.7058823529413,1055.7647058823532 L950.5882352941178,1125.8823529411766" stroke="yellow" stroke-width="1" fill="none" />
<path d="M950.5882352941178,1125.8823529411766 L880.4705882352943,1160.9411764705883" stroke="yellow" stroke-width="1" fill="none" />
<path d="M880.4705882352943,1160.9411764705883 L670.1176470588236,1160.9411764705883" stroke="yellow" stroke-width="1" fill="none" />
<path d="M389.6470588235295,1020.7058823529413 L424.7058823529413,1090.8235294117649" stroke="yellow" stroke-width="1" fill="none" />
<path d="M424.7058823529413,1090.8235294117649 L459.76470588235304,1125.8823529411766" stroke="yellow" stroke-width="1" fill="none" />
<path d="M564.9411764705883,1196.0000000000002 L915.5294117647061,1196.0000000000002" stroke="yellow" stroke-width="1" fill="none" />
<path d="M915.5294117647061,1196.0000000000002 L985.6470588235295,1160.9411764705883" stroke="yellow" stroke-width="1" fill="none" />
<path d="M985.6470588235295,1160.9411764705883 L1055.7647058823532,1090.8235294117649" stroke="yellow" stroke-width="1" fill="none" />
<path d="M1055.7647058823532,1090.8235294117649 L1090.8235294117649,1020.7058823529413" stroke="yellow" stroke-width="1" fill="none" />
<path d="M880.4705882352943,950.5882352941178 L950.5882352941178,880.4705882352943" stroke="yellow" stroke-width="1" fill="none" />
<path d="M915.5294117647061,985.6470588235295 L880.4705882352943,950.5882352941178" stroke="yellow" stroke-width="1" fill="none" />
<path d="M705.1764705882354,740.2352941176472 L705.1764705882354,810.3529411764707" stroke="yellow" stroke-width="1" fill="none" />
<path d="M775.294117647059,810.3529411764707 L845.4117647058824,775.294117647059" stroke="yellow" stroke-width="1" fill="none" />
<path d="M775.294117647059,845.4117647058824 L775.294117647059,810.3529411764707" stroke="yellow" stroke-width="1" fill="none" />
<path d="M915.5294117647061,705.1764705882354 L810.3529411764707,705.1764705882354" stroke="yellow" stroke-width="1" fill="none" />
<path d="M705.1764705882354,845.4117647058824 L705.1764705882354,985.6470588235295" stroke="yellow" stroke-width="1" fill="none" />
<path d="M670.1176470588236,1020.7058823529413 L670.1176470588236,1160.9411764705883" stroke="yellow" stroke-width="1" fill="none" />
<path d="M687.6470588235295,845.4117647058824 L705.1764705882354,845.4117647058824" stroke="yellow" stroke-width="1" fill="none" />
<path d="M687.6470588235295,810.3529411764707 L687.6470588235295,845.4117647058824" stroke="yellow" stroke-width="1" fill="none" />
<path d="M705.1764705882354,810.3529411764707 L687.6470588235295,810.3529411764707" stroke="yellow" stroke-width="1" fill="none" />
<path d="M529.8823529411766,950.5882352941178 L564.9411764705883,915.5294117647061" stroke="yellow" stroke-width="1" fill="none" />
<path d="M652.5882352941178,1020.7058823529413 L670.1176470588236,1020.7058823529413" stroke="yellow" stroke-width="1" fill="none" />
<path d="M652.5882352941178,985.6470588235295 L652.5882352941178,1020.7058823529413" stroke="yellow" stroke-width="1" fill="none" />
<path d="M705.1764705882354,985.6470588235295 L652.5882352941178,985.6470588235295" stroke="yellow" stroke-width="1" fill="none" />
<path d="M564.9411764705883,1160.9411764705883 L564.9411764705883,1196.0000000000002" stroke="yellow" stroke-width="1" fill="none" />
<path d="M459.76470588235304,1125.8823529411766 L494.8235294117648,1090.8235294117649" stroke="yellow" stroke-width="1" fill="none" />
<path d="M494.8235294117648,1090.8235294117649 L459.76470588235304,1055.7647058823532" stroke="yellow" stroke-width="1" fill="none" />
<path d="M670.1176470588236,1160.9411764705883 L564.9411764705883,1160.9411764705883" stroke="yellow" stroke-width="1" fill="none" />
<path d="M459.76470588235304,1055.7647058823532 L424.7058823529413,985.6470588235295" stroke="yellow" stroke-width="1" fill="none" />
<path d="M775.294117647059,459.76470588235304 L705.1764705882354,459.76470588235304" stroke="lavender" stroke-width="1" fill="none" />
<path d="M775.294117647059,705.1764705882354 L705.1764705882354,705.1764705882354" stroke="yellow" stroke-width="1" fill="none" />
<path d="M705.1764705882354,354.5882352941178 L775.294117647059,354.5882352941178" stroke="yellow" stroke-width="1" fill="none" />
<path d="M705.1764705882354,424.7058823529412 L705.1764705882354,354.5882352941178" stroke="yellow" stroke-width="1" fill="none" />
<path d="M775.294117647059,354.5882352941178 L775.294117647059,424.7058823529412" stroke="yellow" stroke-width="1" fill="none" />
<path d="M389.6470588235295,950.5882352941178 L459.76470588235304,880.4705882352943" stroke="yellow" stroke-width="1" fill="none" />
<path d="M494.8235294117648,845.4117647058824 L564.9411764705883,775.294117647059" stroke="yellow" stroke-width="1" fill="none" />
<path d="M635.0588235294119,1423.8823529411766 L635.0588235294119,1336.2352941176473" stroke="yellow" stroke-width="1" fill="none" />
<path d="M845.4117647058824,1336.2352941176473 L845.4117647058824,1423.8823529411766" stroke="yellow" stroke-width="1" fill="none" />
<path d="M626.2941176470589,1336.2352941176473 L626.2941176470589,1423.8823529411766" stroke="yellow" stroke-width="1" fill="none" />
<path d="M854.1764705882354,1423.8823529411766 L854.1764705882354,1336.2352941176473" stroke="yellow" stroke-width="1" fill="none" />
<path d="M635.0588235294119,1441.4117647058824 L845.4117647058824,1441.4117647058824" stroke="yellow" stroke-width="1" fill="none" />
<path d="M845.4117647058824,1423.8823529411766 L635.0588235294119,1423.8823529411766" stroke="lavender" stroke-width="1" fill="none" />
<path d="M985.6470588235295,1721.8823529411766 L985.6470588235295,1756.9411764705885" stroke="yellow" stroke-width="1" fill="none" />
<path d="M494.8235294117648,1756.9411764705885 L494.8235294117648,1721.8823529411766" stroke="yellow" stroke-width="1" fill="none" />
<path d="M775.294117647059,1967.294117647059 L705.1764705882354,1967.294117647059" stroke="yellow" stroke-width="1" fill="none" />
<path d="M494.8235294117648,1546.5882352941178 L494.8235294117648,1529.058823529412" stroke="yellow" stroke-width="1" fill="none" />
<path d="M494.8235294117648,1529.058823529412 L494.8235294117648,1441.4117647058824" stroke="yellow" stroke-width="1" fill="none" />
<path d="M985.6470588235295,1441.4117647058824 L985.6470588235295,1529.058823529412" stroke="yellow" stroke-width="1" fill="none" />
<path d="M985.6470588235295,1529.058823529412 L985.6470588235295,1546.5882352941178" stroke="yellow" stroke-width="1" fill="none" />
<path d="M459.76470588235304,1231.058823529412 L389.6470588235295,1160.9411764705883" stroke="yellow" stroke-width="1" fill="none" />
<path d="M1090.8235294117649,1160.9411764705883 L1020.7058823529413,1231.058823529412" stroke="yellow" stroke-width="1" fill="none" />
<path d="M494.8235294117648,1529.058823529412 L477.2941176470589,1511.529411764706" stroke="yellow" stroke-width="1" fill="none" />
<path d="M477.2941176470589,1511.529411764706 L459.76470588235304,1494.0000000000002" stroke="yellow" stroke-width="1" fill="none" />
<path d="M459.76470588235304,1494.0000000000002 L442.2352941176472,1476.4705882352944" stroke="yellow" stroke-width="1" fill="none" />
<path d="M442.2352941176472,1476.4705882352944 L424.7058823529413,1458.9411764705883" stroke="yellow" stroke-width="1" fill="none" />
<path d="M424.7058823529413,1458.9411764705883 L389.6470588235295,1423.8823529411766" stroke="yellow" stroke-width="1" fill="none" />
<path d="M389.6470588235295,1423.8823529411766 L372.11764705882365,1406.3529411764707" stroke="yellow" stroke-width="1" fill="none" />
<path d="M372.11764705882365,1406.3529411764707 L372.11764705882365,1388.8235294117649" stroke="yellow" stroke-width="1" fill="none" />
<path d="M372.11764705882365,1388.8235294117649 L372.11764705882365,1371.294117647059" stroke="yellow" stroke-width="1" fill="none" />
<path d="M372.11764705882365,1371.294117647059 L372.11764705882365,1353.7647058823532" stroke="yellow" stroke-width="1" fill="none" />
<path d="M477.2941176470589,1511.529411764706 L477.2941176470589,1441.4117647058824" stroke="yellow" stroke-width="1" fill="none" />
<path d="M459.76470588235304,1494.0000000000002 L459.76470588235304,1423.8823529411766" stroke="yellow" stroke-width="1" fill="none" />
<path d="M442.2352941176472,1476.4705882352944 L442.2352941176472,1406.3529411764707" stroke="yellow" stroke-width="1" fill="none" />
<path d="M424.7058823529413,1458.9411764705883 L424.7058823529413,1388.8235294117649" stroke="yellow" stroke-width="1" fill="none" />
<path d="M389.6470588235295,1423.8823529411766 L424.7058823529413,1388.8235294117649" stroke="yellow" stroke-width="1" fill="none" />
<path d="M372.11764705882365,1388.8235294117649 L424.7058823529413,1388.8235294117649" stroke="yellow" stroke-width="1" fill="none" />
<path d="M372.11764705882365,1371.294117647059 L424.7058823529413,1371.294117647059" stroke="yellow" stroke-width="1" fill="none" />
<path d="M372.11764705882365,1353.7647058823532 L424.7058823529413,1353.7647058823532" stroke="yellow" stroke-width="1" fill="none" />
<path d="M1055.7647058823532,1353.7647058823532 L1108.3529411764707,1353.7647058823532" stroke="yellow" stroke-width="1" fill="none" />
<path d="M1108.3529411764707,1353.7647058823532 L1108.3529411764707,1371.294117647059" stroke="yellow" stroke-width="1" fill="none" />
<path d="M1108.3529411764707,1371.294117647059 L1108.3529411764707,1388.8235294117649" stroke="yellow" stroke-width="1" fill="none" />
<path d="M1108.3529411764707,1388.8235294117649 L1108.3529411764707,1406.3529411764707" stroke="yellow" stroke-width="1" fill="none" />
<path d="M1108.3529411764707,1406.3529411764707 L1090.8235294117649,1423.8823529411766" stroke="yellow" stroke-width="1" fill="none" />
<path d="M1090.8235294117649,1423.8823529411766 L1055.7647058823532,1458.9411764705883" stroke="yellow" stroke-width="1" fill="none" />
<path d="M1055.7647058823532,1458.9411764705883 L1038.2352941176473,1476.4705882352944" stroke="yellow" stroke-width="1" fill="none" />
<path d="M1038.2352941176473,1476.4705882352944 L1020.7058823529413,1494.0000000000002" stroke="yellow" stroke-width="1" fill="none" />
<path d="M1020.7058823529413,1494.0000000000002 L1003.1764705882355,1511.529411764706" stroke="yellow" stroke-width="1" fill="none" />
<path d="M1003.1764705882355,1511.529411764706 L985.6470588235295,1529.058823529412" stroke="yellow" stroke-width="1" fill="none" />
<path d="M1055.7647058823532,1371.294117647059 L1108.3529411764707,1371.294117647059" stroke="yellow" stroke-width="1" fill="none" />
<path d="M1055.7647058823532,1388.8235294117649 L1108.3529411764707,1388.8235294117649" stroke="yellow" stroke-width="1" fill="none" />
<path d="M1055.7647058823532,1388.8235294117649 L1090.8235294117649,1423.8823529411766" stroke="yellow" stroke-width="1" fill="none" />
<path d="M1055.7647058823532,1388.8235294117649 L1055.7647058823532,1458.9411764705883" stroke="yellow" stroke-width="1" fill="none" />
<path d="M1038.2352941176473,1406.3529411764707 L1038.2352941176473,1476.4705882352944" stroke="yellow" stroke-width="1" fill="none" />
<path d="M1020.7058823529413,1423.8823529411766 L1020.7058823529413,1494.0000000000002" stroke="yellow" stroke-width="1" fill="none" />
<path d="M1003.1764705882355,1441.4117647058824 L1003.1764705882355,1511.529411764706" stroke="yellow" stroke-width="1" fill="none" />
<path d="M985.6470588235295,1529.058823529412 L968.1176470588236,1529.058823529412" stroke="yellow" stroke-width="1" fill="none" />
<path d="M968.1176470588236,1529.058823529412 L968.1176470588236,1721.8823529411766" stroke="yellow" stroke-width="1" fill="none" />
<path d="M968.1176470588236,1756.9411764705885 L968.1176470588236,1862.1176470588239" stroke="yellow" stroke-width="1" fill="none" />
<path d="M968.1176470588236,1862.1176470588239 L880.4705882352943,1949.7647058823532" stroke="yellow" stroke-width="1" fill="none" />
<path d="M880.4705882352943,1949.7647058823532 L775.294117647059,1949.7647058823532" stroke="yellow" stroke-width="1" fill="none" />
<path d="M775.294117647059,1949.7647058823532 L775.294117647059,1967.294117647059" stroke="yellow" stroke-width="1" fill="none" />
<path d="M705.1764705882354,1967.294117647059 L705.1764705882354,1949.7647058823532" stroke="yellow" stroke-width="1" fill="none" />
<path d="M705.1764705882354,1949.7647058823532 L600.0000000000001,1949.7647058823532" stroke="yellow" stroke-width="1" fill="none" />
<path d="M600.0000000000001,1949.7647058823532 L512.3529411764707,1862.1176470588239" stroke="yellow" stroke-width="1" fill="none" />
<path d="M512.3529411764707,1862.1176470588239 L512.3529411764707,1756.9411764705885" stroke="yellow" stroke-width="1" fill="none" />
<path d="M512.3529411764707,1721.8823529411766 L512.3529411764707,1529.058823529412" stroke="yellow" stroke-width="1" fill="none" />
<path d="M512.3529411764707,1529.058823529412 L494.8235294117648,1529.058823529412" stroke="yellow" stroke-width="1" fill="none" />
<path d="M968.1176470588236,1721.8823529411766 L985.6470588235295,1721.8823529411766" stroke="yellow" stroke-width="1" fill="none" />
<path d="M985.6470588235295,1756.9411764705885 L968.1176470588236,1756.9411764705885" stroke="yellow" stroke-width="1" fill="none" />
<path d="M494.8235294117648,1721.8823529411766 L512.3529411764707,1721.8823529411766" stroke="yellow" stroke-width="1" fill="none" />
<path d="M512.3529411764707,1756.9411764705885 L494.8235294117648,1756.9411764705885" stroke="yellow" stroke-width="1" fill="none" />
<path d="M512.3529411764707,1721.8823529411766 L529.8823529411766,1721.8823529411766" stroke="yellow" stroke-width="1" fill="none" />
<path d="M529.8823529411766,1721.8823529411766 L547.4117647058824,1721.8823529411766" stroke="yellow" stroke-width="1" fill="none" />
<path d="M547.4117647058824,1721.8823529411766 L564.9411764705883,1721.8823529411766" stroke="yellow" stroke-width="1" fill="none" />
<path d="M564.9411764705883,1721.8823529411766 L582.4705882352943,1721.8823529411766" stroke="yellow" stroke-width="1" fill="none" />
<path d="M582.4705882352943,1721.8823529411766 L600.0000000000001,1721.8823529411766" stroke="yellow" stroke-width="1" fill="none" />
<path d="M529.8823529411766,1756.9411764705885 L512.3529411764707,1756.9411764705885" stroke="yellow" stroke-width="1" fill="none" />
<path d="M547.4117647058824,1756.9411764705885 L529.8823529411766,1756.9411764705885" stroke="yellow" stroke-width="1" fill="none" />
<path d="M564.9411764705883,1756.9411764705885 L547.4117647058824,1756.9411764705885" stroke="yellow" stroke-width="1" fill="none" />
<path d="M582.4705882352943,1756.9411764705885 L564.9411764705883,1756.9411764705885" stroke="yellow" stroke-width="1" fill="none" />
<path d="M600.0000000000001,1756.9411764705885 L582.4705882352943,1756.9411764705885" stroke="yellow" stroke-width="1" fill="none" />
<path d="M600.0000000000001,1721.8823529411766 L617.529411764706,1721.8823529411766" stroke="yellow" stroke-width="1" fill="none" />
<path d="M617.529411764706,1721.8823529411766 L635.0588235294119,1721.8823529411766" stroke="yellow" stroke-width="1" fill="none" />
<path d="M635.0588235294119,1721.8823529411766 L652.5882352941178,1721.8823529411766" stroke="yellow" stroke-width="1" fill="none" />
<path d="M652.5882352941178,1721.8823529411766 L670.1176470588236,1721.8823529411766" stroke="yellow" stroke-width="1" fill="none" />
<path d="M670.1176470588236,1721.8823529411766 L687.6470588235295,1721.8823529411766" stroke="yellow" stroke-width="1" fill="none" />
<path d="M617.529411764706,1756.9411764705885 L600.0000000000001,1756.9411764705885" stroke="yellow" stroke-width="1" fill="none" />
<path d="M635.0588235294119,1756.9411764705885 L617.529411764706,1756.9411764705885" stroke="yellow" stroke-width="1" fill="none" />
<path d="M652.5882352941178,1756.9411764705885 L635.0588235294119,1756.9411764705885" stroke="yellow" stroke-width="1" fill="none" />
<path d="M670.1176470588236,1756.9411764705885 L652.5882352941178,1756.9411764705885" stroke="yellow" stroke-width="1" fill="none" />
<path d="M687.6470588235295,1756.9411764705885 L670.1176470588236,1756.9411764705885" stroke="yellow" stroke-width="1" fill="none" />
<path d="M687.6470588235295,1721.8823529411766 L705.1764705882354,1721.8823529411766" stroke="yellow" stroke-width="1" fill="none" />
<path d="M705.1764705882354,1756.9411764705885 L687.6470588235295,1756.9411764705885" stroke="yellow" stroke-width="1" fill="none" />
<path d="M775.294117647059,1721.8823529411766 L792.8235294117649,1721.8823529411766" stroke="yellow" stroke-width="1" fill="none" />
<path d="M792.8235294117649,1721.8823529411766 L810.3529411764707,1721.8823529411766" stroke="yellow" stroke-width="1" fill="none" />
<path d="M810.3529411764707,1721.8823529411766 L827.8823529411766,1721.8823529411766" stroke="yellow" stroke-width="1" fill="none" />
<path d="M827.8823529411766,1721.8823529411766 L845.4117647058824,1721.8823529411766" stroke="yellow" stroke-width="1" fill="none" />
<path d="M845.4117647058824,1721.8823529411766 L862.9411764705884,1721.8823529411766" stroke="yellow" stroke-width="1" fill="none" />
<path d="M792.8235294117649,1756.9411764705885 L775.294117647059,1756.9411764705885" stroke="yellow" stroke-width="1" fill="none" />
<path d="M810.3529411764707,1756.9411764705885 L792.8235294117649,1756.9411764705885" stroke="yellow" stroke-width="1" fill="none" />
<path d="M827.8823529411766,1756.9411764705885 L810.3529411764707,1756.9411764705885" stroke="yellow" stroke-width="1" fill="none" />
<path d="M845.4117647058824,1756.9411764705885 L827.8823529411766,1756.9411764705885" stroke="yellow" stroke-width="1" fill="none" />
<path d="M862.9411764705884,1756.9411764705885 L845.4117647058824,1756.9411764705885" stroke="yellow" stroke-width="1" fill="none" />
<path d="M862.9411764705884,1721.8823529411766 L880.4705882352943,1721.8823529411766" stroke="yellow" stroke-width="1" fill="none" />
<path d="M880.4705882352943,1721.8823529411766 L898.0000000000001,1721.8823529411766" stroke="yellow" stroke-width="1" fill="none" />
<path d="M898.0000000000001,1721.8823529411766 L915.5294117647061,1721.8823529411766" stroke="yellow" stroke-width="1" fill="none" />
<path d="M915.5294117647061,1721.8823529411766 L933.0588235294119,1721.8823529411766" stroke="yellow" stroke-width="1" fill="none" />
<path d="M933.0588235294119,1721.8823529411766 L950.5882352941178,1721.8823529411766" stroke="yellow" stroke-width="1" fill="none" />
<path d="M880.4705882352943,1756.9411764705885 L862.9411764705884,1756.9411764705885" stroke="yellow" stroke-width="1" fill="none" />
<path d="M898.0000000000001,1756.9411764705885 L880.4705882352943,1756.9411764705885" stroke="yellow" stroke-width="1" fill="none" />
<path d="M915.5294117647061,1756.9411764705885 L898.0000000000001,1756.9411764705885" stroke="yellow" stroke-width="1" fill="none" />
<path d="M933.0588235294119,1756.9411764705885 L915.5294117647061,1756.9411764705885" stroke="yellow" stroke-width="1" fill="none" />
<path d="M950.5882352941178,1756.9411764705885 L933.0588235294119,1756.9411764705885" stroke="yellow" stroke-width="1" fill="none" />
<path d="M950.5882352941178,1721.8823529411766 L968.1176470588236,1721.8823529411766" stroke="yellow" stroke-width="1" fill="none" />
<path d="M968.1176470588236,1756.9411764705885 L950.5882352941178,1756.9411764705885" stroke="yellow" stroke-width="1" fill="none" />
<path d="M775.294117647059,1756.9411764705885 L775.294117647059,1792.0000000000002" stroke="yellow" stroke-width="1" fill="none" />
<path d="M705.1764705882354,1792.0000000000002 L705.1764705882354,1756.9411764705885" stroke="yellow" stroke-width="1" fill="none" />
<path d="M705.1764705882354,1721.8823529411766 L705.1764705882354,1686.8235294117649" stroke="yellow" stroke-width="1" fill="none" />
<path d="M775.294117647059,1686.8235294117649 L775.294117647059,1721.8823529411766" stroke="yellow" stroke-width="1" fill="none" />
<path d="M705.1764705882354,1686.8235294117649 L722.7058823529413,1686.8235294117649" stroke="yellow" stroke-width="1" fill="none" />
<path d="M722.7058823529413,1686.8235294117649 L722.7058823529413,1669.294117647059" stroke="yellow" stroke-width="1" fill="none" />
<path d="M722.7058823529413,1669.294117647059 L722.7058823529413,1651.7647058823532" stroke="yellow" stroke-width="1" fill="none" />
<path d="M722.7058823529413,1651.7647058823532 L722.7058823529413,1634.2352941176473" stroke="yellow" stroke-width="1" fill="none" />
<path d="M722.7058823529413,1634.2352941176473 L722.7058823529413,1616.7058823529414" stroke="yellow" stroke-width="1" fill="none" />
<path d="M722.7058823529413,1616.7058823529414 L722.7058823529413,1599.1764705882356" stroke="yellow" stroke-width="1" fill="none" />
<path d="M722.7058823529413,1599.1764705882356 L722.7058823529413,1581.6470588235297" stroke="yellow" stroke-width="1" fill="none" />
<path d="M722.7058823529413,1581.6470588235297 L705.1764705882354,1546.5882352941178" stroke="yellow" stroke-width="1" fill="none" />
<path d="M705.1764705882354,1546.5882352941178 L775.294117647059,1546.5882352941178" stroke="yellow" stroke-width="1" fill="none" />
<path d="M775.294117647059,1546.5882352941178 L757.764705882353,1581.6470588235297" stroke="yellow" stroke-width="1" fill="none" />
<path d="M757.764705882353,1686.8235294117649 L775.294117647059,1686.8235294117649" stroke="yellow" stroke-width="1" fill="none" />
<path d="M757.764705882353,1669.294117647059 L757.764705882353,1686.8235294117649" stroke="yellow" stroke-width="1" fill="none" />
<path d="M757.764705882353,1651.7647058823532 L757.764705882353,1669.294117647059" stroke="yellow" stroke-width="1" fill="none" />
<path d="M757.764705882353,1634.2352941176473 L757.764705882353,1651.7647058823532" stroke="yellow" stroke-width="1" fill="none" />
<path d="M757.764705882353,1616.7058823529414 L757.764705882353,1634.2352941176473" stroke="yellow" stroke-width="1" fill="none" />
<path d="M757.764705882353,1599.1764705882356 L757.764705882353,1616.7058823529414" stroke="yellow" stroke-width="1" fill="none" />
<path d="M757.764705882353,1581.6470588235297 L757.764705882353,1599.1764705882356" stroke="yellow" stroke-width="1" fill="none" />
<path d="M722.7058823529413,1599.1764705882356 L757.764705882353,1599.1764705882356" stroke="yellow" stroke-width="1" fill="none" />
<path d="M722.7058823529413,1581.6470588235297 L757.764705882353,1581.6470588235297" stroke="yellow" stroke-width="1" fill="none" />
<path d="M722.7058823529413,1616.7058823529414 L757.764705882353,1616.7058823529414" stroke="yellow" stroke-width="1" fill="none" />
<path d="M722.7058823529413,1634.2352941176473 L757.764705882353,1634.2352941176473" stroke="yellow" stroke-width="1" fill="none" />
<path d="M722.7058823529413,1651.7647058823532 L757.764705882353,1651.7647058823532" stroke="yellow" stroke-width="1" fill="none" />
<path d="M722.7058823529413,1669.294117647059 L757.764705882353,1669.294117647059" stroke="yellow" stroke-width="1" fill="none" />
<path d="M722.7058823529413,1686.8235294117649 L757.764705882353,1686.8235294117649" stroke="yellow" stroke-width="1" fill="none" />
<path d="M705.1764705882354,1721.8823529411766 L705.1764705882354,1756.9411764705885" stroke="yellow" stroke-width="1" fill="none" />
<path d="M687.6470588235295,1721.8823529411766 L687.6470588235295,1756.9411764705885" stroke="yellow" stroke-width="1" fill="none" />
<path d="M670.1176470588236,1721.8823529411766 L670.1176470588236,1756.9411764705885" stroke="yellow" stroke-width="1" fill="none" />
<path d="M652.5882352941178,1721.8823529411766 L652.5882352941178,1756.9411764705885" stroke="yellow" stroke-width="1" fill="none" />
<path d="M635.0588235294119,1721.8823529411766 L635.0588235294119,1756.9411764705885" stroke="yellow" stroke-width="1" fill="none" />
<path d="M617.529411764706,1721.8823529411766 L617.529411764706,1756.9411764705885" stroke="yellow" stroke-width="1" fill="none" />
<path d="M600.0000000000001,1721.8823529411766 L600.0000000000001,1756.9411764705885" stroke="yellow" stroke-width="1" fill="none" />
<path d="M582.4705882352943,1721.8823529411766 L582.4705882352943,1756.9411764705885" stroke="yellow" stroke-width="1" fill="none" />
<path d="M564.9411764705883,1721.8823529411766 L564.9411764705883,1756.9411764705885" stroke="yellow" stroke-width="1" fill="none" />
<path d="M547.4117647058824,1721.8823529411766 L547.4117647058824,1756.9411764705885" stroke="yellow" stroke-width="1" fill="none" />
<path d="M529.8823529411766,1721.8823529411766 L529.8823529411766,1756.9411764705885" stroke="yellow" stroke-width="1" fill="none" />
<path d="M950.5882352941178,1756.9411764705885 L950.5882352941178,1721.8823529411766" stroke="yellow" stroke-width="1" fill="none" />
<path d="M933.0588235294119,1756.9411764705885 L933.0588235294119,1721.8823529411766" stroke="yellow" stroke-width="1" fill="none" />
<path d="M915.5294117647061,1756.9411764705885 L915.5294117647061,1721.8823529411766" stroke="yellow" stroke-width="1" fill="none" />
<path d="M898.0000000000001,1756.9411764705885 L898.0000000000001,1721.8823529411766" stroke="yellow" stroke-width="1" fill="none" />
<path d="M880.4705882352943,1756.9411764705885 L880.4705882352943,1721.8823529411766" stroke="yellow" stroke-width="1" fill="none" />
<path d="M862.9411764705884,1756.9411764705885 L862.9411764705884,1721.8823529411766" stroke="yellow" stroke-width="1" fill="none" />
<path d="M845.4117647058824,1756.9411764705885 L845.4117647058824,1721.8823529411766" stroke="yellow" stroke-width="1" fill="none" />
<path d="M827.8823529411766,1756.9411764705885 L827.8823529411766,1721.8823529411766" stroke="yellow" stroke-width="1" fill="none" />
<path d="M810.3529411764707,1756.9411764705885 L810.3529411764707,1721.8823529411766" stroke="yellow" stroke-width="1" fill="none" />
<path d="M792.8235294117649,1756.9411764705885 L792.8235294117649,1721.8823529411766" stroke="yellow" stroke-width="1" fill="none" />
<path d="M775.294117647059,1756.9411764705885 L775.294117647059,1721.8823529411766" stroke="yellow" stroke-width="1" fill="none" />
<path d="M705.1764705882354,1949.7647058823532 L705.1764705882354,1932.2352941176473" stroke="yellow" stroke-width="1" fill="none" />
<path d="M705.1764705882354,1932.2352941176473 L722.7058823529413,1932.2352941176473" stroke="yellow" stroke-width="1" fill="none" />
<path d="M757.764705882353,1932.2352941176473 L775.294117647059,1932.2352941176473" stroke="yellow" stroke-width="1" fill="none" />
<path d="M775.294117647059,1932.2352941176473 L775.294117647059,1949.7647058823532" stroke="yellow" stroke-width="1" fill="none" />
<path d="M775.294117647059,1792.0000000000002 L757.764705882353,1792.0000000000002" stroke="yellow" stroke-width="1" fill="none" />
<path d="M722.7058823529413,1792.0000000000002 L705.1764705882354,1792.0000000000002" stroke="yellow" stroke-width="1" fill="none" />
<path d="M722.7058823529413,1932.2352941176473 L722.7058823529413,1914.7058823529414" stroke="yellow" stroke-width="1" fill="none" />
<path d="M722.7058823529413,1914.7058823529414 L722.7058823529413,1897.1764705882356" stroke="yellow" stroke-width="1" fill="none" />
<path d="M722.7058823529413,1897.1764705882356 L722.7058823529413,1879.6470588235297" stroke="yellow" stroke-width="1" fill="none" />
<path d="M722.7058823529413,1879.6470588235297 L722.7058823529413,1862.1176470588239" stroke="yellow" stroke-width="1" fill="none" />
<path d="M722.7058823529413,1862.1176470588239 L722.7058823529413,1844.588235294118" stroke="yellow" stroke-width="1" fill="none" />
<path d="M722.7058823529413,1844.588235294118 L722.7058823529413,1827.058823529412" stroke="yellow" stroke-width="1" fill="none" />
<path d="M757.764705882353,1914.7058823529414 L757.764705882353,1932.2352941176473" stroke="yellow" stroke-width="1" fill="none" />
<path d="M757.764705882353,1897.1764705882356 L757.764705882353,1914.7058823529414" stroke="yellow" stroke-width="1" fill="none" />
<path d="M757.764705882353,1879.6470588235297 L757.764705882353,1897.1764705882356" stroke="yellow" stroke-width="1" fill="none" />
<path d="M757.764705882353,1862.1176470588239 L757.764705882353,1879.6470588235297" stroke="yellow" stroke-width="1" fill="none" />
<path d="M757.764705882353,1844.588235294118 L757.764705882353,1862.1176470588239" stroke="yellow" stroke-width="1" fill="none" />
<path d="M757.764705882353,1827.058823529412 L757.764705882353,1844.588235294118" stroke="yellow" stroke-width="1" fill="none" />
<path d="M722.7058823529413,1844.588235294118 L757.764705882353,1844.588235294118" stroke="yellow" stroke-width="1" fill="none" />
<path d="M722.7058823529413,1827.058823529412 L757.764705882353,1827.058823529412" stroke="yellow" stroke-width="1" fill="none" />
<path d="M722.7058823529413,1862.1176470588239 L757.764705882353,1862.1176470588239" stroke="yellow" stroke-width="1" fill="none" />
<path d="M722.7058823529413,1879.6470588235297 L757.764705882353,1879.6470588235297" stroke="yellow" stroke-width="1" fill="none" />
<path d="M722.7058823529413,1897.1764705882356 L757.764705882353,1897.1764705882356" stroke="yellow" stroke-width="1" fill="none" />
<path d="M722.7058823529413,1914.7058823529414 L757.764705882353,1914.7058823529414" stroke="yellow" stroke-width="1" fill="none" />
<path d="M722.7058823529413,1932.2352941176473 L757.764705882353,1932.2352941176473" stroke="yellow" stroke-width="1" fill="none" />
<path d="M722.7058823529413,1827.058823529412 L722.7058823529413,1809.529411764706" stroke="yellow" stroke-width="1" fill="none" />
<path d="M722.7058823529413,1809.529411764706 L722.7058823529413,1792.0000000000002" stroke="yellow" stroke-width="1" fill="none" />
<path d="M757.764705882353,1809.529411764706 L757.764705882353,1827.058823529412" stroke="yellow" stroke-width="1" fill="none" />
<path d="M757.764705882353,1792.0000000000002 L757.764705882353,1809.529411764706" stroke="yellow" stroke-width="1" fill="none" />
<path d="M722.7058823529413,1809.529411764706 L757.764705882353,1809.529411764706" stroke="yellow" stroke-width="1" fill="none" />
<path d="M722.7058823529413,1792.0000000000002 L757.764705882353,1792.0000000000002" stroke="yellow" stroke-width="1" fill="none" />
<path d="M494.8235294117648,2037.4117647058827 L564.9411764705883,2037.4117647058827" stroke="yellow" stroke-width="1" fill="none" />
<path d="M705.1764705882354,2037.4117647058827 L775.294117647059,2037.4117647058827" stroke="yellow" stroke-width="1" fill="none" />
<path d="M915.5294117647061,2037.4117647058827 L985.6470588235295,2037.4117647058827" stroke="yellow" stroke-width="1" fill="none" />
<path d="M985.6470588235295,2037.4117647058827 L985.6470588235295,2107.5294117647063" stroke="yellow" stroke-width="1" fill="none" />
<path d="M494.8235294117648,2107.5294117647063 L494.8235294117648,2037.4117647058827" stroke="yellow" stroke-width="1" fill="none" />
<path d="M494.8235294117648,2317.8823529411766 L494.8235294117648,2247.764705882353" stroke="yellow" stroke-width="1" fill="none" />
<path d="M494.8235294117648,2528.2352941176473 L494.8235294117648,2458.117647058824" stroke="yellow" stroke-width="1" fill="none" />
<path d="M564.9411764705883,2528.2352941176473 L494.8235294117648,2528.2352941176473" stroke="yellow" stroke-width="1" fill="none" />
<path d="M775.294117647059,2528.2352941176473 L705.1764705882354,2528.2352941176473" stroke="yellow" stroke-width="1" fill="none" />
<path d="M985.6470588235295,2528.2352941176473 L915.5294117647061,2528.2352941176473" stroke="yellow" stroke-width="1" fill="none" />
<path d="M985.6470588235295,2247.764705882353 L985.6470588235295,2317.8823529411766" stroke="yellow" stroke-width="1" fill="none" />
<path d="M985.6470588235295,2458.117647058824 L985.6470588235295,2528.2352941176473" stroke="yellow" stroke-width="1" fill="none" />
<path d="M915.5294117647061,2107.5294117647063 L915.5294117647061,2037.4117647058827" stroke="yellow" stroke-width="1" fill="none" />
<path d="M985.6470588235295,2107.5294117647063 L915.5294117647061,2107.5294117647063" stroke="yellow" stroke-width="1" fill="none" />
<path d="M705.1764705882354,2458.117647058824 L775.294117647059,2458.117647058824" stroke="yellow" stroke-width="1" fill="none" />
<path d="M705.1764705882354,2528.2352941176473 L705.1764705882354,2458.117647058824" stroke="yellow" stroke-width="1" fill="none" />
<path d="M775.294117647059,2458.117647058824 L775.294117647059,2528.2352941176473" stroke="yellow" stroke-width="1" fill="none" />
<path d="M494.8235294117648,2458.117647058824 L564.9411764705883,2458.117647058824" stroke="yellow" stroke-width="1" fill="none" />
<path d="M564.9411764705883,2458.117647058824 L564.9411764705883,2528.2352941176473" stroke="yellow" stroke-width="1" fill="none" />
<path d="M494.8235294117648,2247.764705882353 L564.9411764705883,2247.764705882353" stroke="yellow" stroke-width="1" fill="none" />
<path d="M564.9411764705883,2247.764705882353 L564.9411764705883,2317.8823529411766" stroke="yellow" stroke-width="1" fill="none" />
<path d="M564.9411764705883,2317.8823529411766 L494.8235294117648,2317.8823529411766" stroke="yellow" stroke-width="1" fill="none" />
<path d="M915.5294117647061,2528.2352941176473 L915.5294117647061,2458.117647058824" stroke="yellow" stroke-width="1" fill="none" />
<path d="M915.5294117647061,2458.117647058824 L985.6470588235295,2458.117647058824" stroke="yellow" stroke-width="1" fill="none" />
<path d="M915.5294117647061,2317.8823529411766 L915.5294117647061,2247.764705882353" stroke="yellow" stroke-width="1" fill="none" />
<path d="M915.5294117647061,2247.764705882353 L985.6470588235295,2247.764705882353" stroke="yellow" stroke-width="1" fill="none" />
<path d="M985.6470588235295,2317.8823529411766 L915.5294117647061,2317.8823529411766" stroke="yellow" stroke-width="1" fill="none" />
<path d="M775.294117647059,2388.0 L705.1764705882354,2388.0" stroke="yellow" stroke-width="1" fill="none" />
<path d="M845.4117647058824,2247.764705882353 L845.4117647058824,2317.8823529411766" stroke="yellow" stroke-width="1" fill="none" />
<path d="M705.1764705882354,2177.6470588235297 L775.294117647059,2177.6470588235297" stroke="yellow" stroke-width="1" fill="none" />
<path d="M635.0588235294119,2317.8823529411766 L635.0588235294119,2247.764705882353" stroke="yellow" stroke-width="1" fill="none" />
<path d="M775.294117647059,2317.8823529411766 L705.1764705882354,2317.8823529411766" stroke="yellow" stroke-width="1" fill="none" />
<path d="M775.294117647059,2247.764705882353 L775.294117647059,2317.8823529411766" stroke="yellow" stroke-width="1" fill="none" />
<path d="M705.1764705882354,2247.764705882353 L775.294117647059,2247.764705882353" stroke="yellow" stroke-width="1" fill="none" />
<path d="M705.1764705882354,2317.8823529411766 L705.1764705882354,2247.764705882353" stroke="yellow" stroke-width="1" fill="none" />
<path d="M775.294117647059,1993.588235294118 L775.294117647059,2011.1176470588239" stroke="yellow" stroke-width="1" fill="none" />
<path d="M564.9411764705883,1993.588235294118 L564.9411764705883,2011.1176470588239" stroke="yellow" stroke-width="1" fill="none" />
<path d="M915.5294117647061,2011.1176470588239 L915.5294117647061,1993.588235294118" stroke="yellow" stroke-width="1" fill="none" />
<path d="M1055.7647058823532,2274.0588235294117 L1055.7647058823532,2291.588235294118" stroke="yellow" stroke-width="1" fill="none" />
<path d="M810.3529411764707,2326.6470588235297 L810.3529411764707,2344.1764705882356" stroke="yellow" stroke-width="1" fill="none" />
<path d="M915.5294117647061,2572.058823529412 L915.5294117647061,2554.5294117647063" stroke="yellow" stroke-width="1" fill="none" />
<path d="M705.1764705882354,2572.058823529412 L705.1764705882354,2554.5294117647063" stroke="yellow" stroke-width="1" fill="none" />
<path d="M564.9411764705883,2554.5294117647063 L564.9411764705883,2572.058823529412" stroke="yellow" stroke-width="1" fill="none" />
<path d="M424.7058823529413,2291.588235294118 L424.7058823529413,2274.0588235294117" stroke="yellow" stroke-width="1" fill="none" />
<path d="M775.294117647059,2554.5294117647063 L775.294117647059,2572.058823529412" stroke="yellow" stroke-width="1" fill="none" />
<path d="M705.1764705882354,2203.9411764705883 L705.1764705882354,2186.411764705883" stroke="yellow" stroke-width="1" fill="none" />
<path d="M389.6470588235295,1651.7647058823532 L424.7058823529413,1651.7647058823532" stroke="lavender" stroke-width="1" fill="none" />
<path d="M1055.7647058823532,1651.7647058823532 L1090.8235294117649,1651.7647058823532" stroke="lavender" stroke-width="1" fill="none" />
<path d="M319.52941176470597,845.4117647058824 L389.6470588235295,810.3529411764707" stroke="yellow" stroke-width="1" fill="none" />
<path d="M424.7058823529413,740.2352941176472 L494.8235294117648,705.1764705882354" stroke="yellow" stroke-width="1" fill="none" />
<path d="M284.4705882352942,915.5294117647061 L249.41176470588243,915.5294117647061" stroke="lavender" stroke-width="1" fill="none" />
<path d="M144.23529411764707,985.6470588235295 L109.17647058823536,985.6470588235295" stroke="lavender" stroke-width="1" fill="none" />
<path d="M950.5882352941178,670.1176470588236 L950.5882352941178,600.0000000000001" stroke="yellow" stroke-width="1" fill="none" />
<path d="M915.5294117647061,600.0000000000001 L915.5294117647061,670.1176470588236" stroke="yellow" stroke-width="1" fill="none" />
<path d="M1130.2647058823532,617.529411764706 L1130.2647058823532,652.5882352941178" stroke="lavender" stroke-width="1" fill="none" />
<path d="M1125.8823529411766,617.529411764706 L1125.8823529411766,652.5882352941178" stroke="yellow" stroke-width="1" fill="none" />
<path d="M1020.7058823529413,529.8823529411766 L1020.7058823529413,740.2352941176472" stroke="yellow" stroke-width="1" fill="none" />
<path d="M775.294117647059,2037.4117647058827 L775.294117647059,2107.5294117647063" stroke="yellow" stroke-width="1" fill="none" />
<path d="M775.294117647059,2107.5294117647063 L705.1764705882354,2107.5294117647063" stroke="yellow" stroke-width="1" fill="none" />
<path d="M705.1764705882354,2107.5294117647063 L705.1764705882354,2037.4117647058827" stroke="yellow" stroke-width="1" fill="none" />
<path d="M564.9411764705883,2037.4117647058827 L564.9411764705883,2107.5294117647063" stroke="yellow" stroke-width="1" fill="none" />
<path d="M564.9411764705883,2107.5294117647063 L494.8235294117648,2107.5294117647063" stroke="yellow" stroke-width="1" fill="none" />
<path d="M845.4117647058824,775.294117647059 L880.4705882352943,810.3529411764707" stroke="red" stroke-width="1" fill="none" />
<path d="M950.5882352941178,880.4705882352943 L985.6470588235295,915.5294117647061" stroke="red" stroke-width="1" fill="none" />
<path d="M1055.7647058823532,985.6470588235295 L1090.8235294117649,1020.7058823529413" stroke="red" stroke-width="1" fill="none" />
<path d="M389.6470588235295,1020.7058823529413 L424.7058823529413,985.6470588235295" stroke="red" stroke-width="1" fill="none" />
<path d="M494.8235294117648,915.5294117647061 L529.8823529411766,880.4705882352943" stroke="red" stroke-width="1" fill="none" />
<path d="M600.0000000000001,810.3529411764707 L635.0588235294119,775.294117647059" stroke="red" stroke-width="1" fill="none" />
<path d="M1090.8235294117649,1020.7058823529413 L1125.8823529411766,985.6470588235295" stroke="red" stroke-width="1" fill="none" />
<path d="M1125.8823529411766,985.6470588235295 L1160.9411764705883,1090.8235294117649" stroke="red" stroke-width="1" fill="none" />
<path d="M319.52941176470597,1090.8235294117649 L354.58823529411774,985.6470588235295" stroke="red" stroke-width="1" fill="none" />
<path d="M354.58823529411774,985.6470588235295 L389.6470588235295,1020.7058823529413" stroke="red" stroke-width="1" fill="none" />
<path d="M670.1176470588236,740.2352941176472 L705.1764705882354,740.2352941176472" stroke="red" stroke-width="1" fill="none" />
<path d="M705.1764705882354,740.2352941176472 L705.1764705882354,705.1764705882354" stroke="red" stroke-width="1" fill="none" />
<path d="M705.1764705882354,705.1764705882354 L670.1176470588236,635.0588235294119" stroke="red" stroke-width="1" fill="none" />
<path d="M670.1176470588236,635.0588235294119 L705.1764705882354,459.76470588235304" stroke="red" stroke-width="1" fill="none" />
<path d="M775.294117647059,459.76470588235304 L810.3529411764707,635.0588235294119" stroke="red" stroke-width="1" fill="none" />
<path d="M810.3529411764707,635.0588235294119 L775.294117647059,705.1764705882354" stroke="red" stroke-width="1" fill="none" />
<path d="M775.294117647059,705.1764705882354 L775.294117647059,740.2352941176472" stroke="red" stroke-width="1" fill="none" />
<path d="M775.294117647059,740.2352941176472 L810.3529411764707,740.2352941176472" stroke="red" stroke-width="1" fill="none" />
<path d="M810.3529411764707,740.2352941176472 L810.3529411764707,705.1764705882354" stroke="red" stroke-width="1" fill="none" />
<path d="M810.3529411764707,705.1764705882354 L845.4117647058824,635.0588235294119" stroke="red" stroke-width="1" fill="none" />
<path d="M845.4117647058824,635.0588235294119 L810.3529411764707,424.7058823529412" stroke="red" stroke-width="1" fill="none" />
<path d="M670.1176470588236,424.7058823529412 L635.0588235294119,635.0588235294119" stroke="red" stroke-width="1" fill="none" />
<path d="M635.0588235294119,635.0588235294119 L670.1176470588236,705.1764705882354" stroke="red" stroke-width="1" fill="none" />
<path d="M670.1176470588236,705.1764705882354 L670.1176470588236,740.2352941176472" stroke="red" stroke-width="1" fill="none" />
<path d="M635.0588235294119,775.294117647059 L564.9411764705883,705.1764705882354" stroke="red" stroke-width="1" fill="none" />
<path d="M564.9411764705883,705.1764705882354 L635.0588235294119,354.5882352941178" stroke="red" stroke-width="1" fill="none" />
<path d="M915.5294117647061,705.1764705882354 L845.4117647058824,775.294117647059" stroke="red" stroke-width="1" fill="none" />
<path d="M564.9411764705883,775.294117647059 L600.0000000000001,810.3529411764707" stroke="red" stroke-width="1" fill="none" />
<path d="M529.8823529411766,880.4705882352943 L494.8235294117648,845.4117647058824" stroke="red" stroke-width="1" fill="none" />
<path d="M424.7058823529413,985.6470588235295 L389.6470588235295,950.5882352941178" stroke="red" stroke-width="1" fill="none" />
<path d="M459.76470588235304,880.4705882352943 L494.8235294117648,915.5294117647061" stroke="red" stroke-width="1" fill="none" />
<path d="M880.4705882352943,810.3529411764707 L915.5294117647061,775.294117647059" stroke="red" stroke-width="1" fill="none" />
<path d="M985.6470588235295,915.5294117647061 L1020.7058823529413,880.4705882352943" stroke="red" stroke-width="1" fill="none" />
<path d="M950.5882352941178,1301.1764705882356 L529.8823529411766,1301.1764705882356" stroke="red" stroke-width="1" fill="none" />
<path d="M705.1764705882354,459.76470588235304 L705.1764705882354,424.7058823529412" stroke="red" stroke-width="1" fill="none" />
<path d="M705.1764705882354,424.7058823529412 L670.1176470588236,424.7058823529412" stroke="red" stroke-width="1" fill="none" />
<path d="M810.3529411764707,424.7058823529412 L775.294117647059,424.7058823529412" stroke="red" stroke-width="1" fill="none" />
<path d="M775.294117647059,424.7058823529412 L775.294117647059,459.76470588235304" stroke="red" stroke-width="1" fill="none" />
<path d="M635.0588235294119,354.5882352941178 L705.1764705882354,354.5882352941178" stroke="red" stroke-width="1" fill="none" />
<path d="M775.294117647059,354.5882352941178 L845.4117647058824,354.5882352941178" stroke="red" stroke-width="1" fill="none" />
<path d="M705.1764705882354,354.5882352941178 L705.1764705882354,319.52941176470597" stroke="red" stroke-width="1" fill="none" />
<path d="M705.1764705882354,319.52941176470597 L635.0588235294119,249.41176470588243" stroke="red" stroke-width="1" fill="none" />
<path d="M635.0588235294119,249.41176470588243 L600.0000000000001,144.23529411764707" stroke="red" stroke-width="1" fill="none" />
<path d="M600.0000000000001,144.23529411764707 L670.1176470588236,39.05882352941171" stroke="red" stroke-width="1" fill="none" />
<path d="M670.1176470588236,39.05882352941171 L740.2352941176472,4.0" stroke="red" stroke-width="1" fill="none" />
<path d="M740.2352941176472,4.0 L810.3529411764707,39.05882352941171" stroke="red" stroke-width="1" fill="none" />
<path d="M810.3529411764707,39.05882352941171 L845.4117647058824,109.17647058823536" stroke="red" stroke-width="1" fill="none" />
<path d="M845.4117647058824,109.17647058823536 L775.294117647059,144.23529411764707" stroke="red" stroke-width="1" fill="none" />
<path d="M775.294117647059,144.23529411764707 L775.294117647059,109.17647058823536" stroke="red" stroke-width="1" fill="none" />
<path d="M775.294117647059,109.17647058823536 L740.2352941176472,74.11764705882365" stroke="red" stroke-width="1" fill="none" />
<path d="M740.2352941176472,74.11764705882365 L670.1176470588236,144.23529411764707" stroke="red" stroke-width="1" fill="none" />
<path d="M670.1176470588236,144.23529411764707 L670.1176470588236,214.35294117647072" stroke="red" stroke-width="1" fill="none" />
<path d="M670.1176470588236,214.35294117647072 L775.294117647059,284.47058823529414" stroke="red" stroke-width="1" fill="none" />
<path d="M775.294117647059,284.47058823529414 L775.294117647059,354.5882352941178" stroke="red" stroke-width="1" fill="none" />
<path d="M389.6470588235295,950.5882352941178 L319.52941176470597,880.4705882352943" stroke="red" stroke-width="1" fill="none" />
<path d="M319.52941176470597,880.4705882352943 L319.52941176470597,845.4117647058824" stroke="red" stroke-width="1" fill="none" />
<path d="M389.6470588235295,810.3529411764707 L459.76470588235304,880.4705882352943" stroke="red" stroke-width="1" fill="none" />
<path d="M494.8235294117648,845.4117647058824 L424.7058823529413,775.294117647059" stroke="red" stroke-width="1" fill="none" />
<path d="M494.8235294117648,705.1764705882354 L564.9411764705883,775.294117647059" stroke="red" stroke-width="1" fill="none" />
<path d="M389.6470588235295,1160.9411764705883 L319.52941176470597,1090.8235294117649" stroke="red" stroke-width="1" fill="none" />
<path d="M529.8823529411766,1301.1764705882356 L459.76470588235304,1231.058823529412" stroke="red" stroke-width="1" fill="none" />
<path d="M1020.7058823529413,1231.058823529412 L950.5882352941178,1301.1764705882356" stroke="red" stroke-width="1" fill="none" />
<path d="M1160.9411764705883,1090.8235294117649 L1090.8235294117649,1160.9411764705883" stroke="red" stroke-width="1" fill="none" />
<path d="M1090.8235294117649,1160.9411764705883 L1125.8823529411766,1196.0000000000002" stroke="red" stroke-width="1" fill="none" />
<path d="M1125.8823529411766,1196.0000000000002 L1125.8823529411766,1406.3529411764707" stroke="red" stroke-width="1" fill="none" />
<path d="M1055.7647058823532,1266.1176470588236 L1020.7058823529413,1231.058823529412" stroke="red" stroke-width="1" fill="none" />
<path d="M354.58823529411774,1406.3529411764707 L354.58823529411774,1196.0000000000002" stroke="red" stroke-width="1" fill="none" />
<path d="M354.58823529411774,1196.0000000000002 L389.6470588235295,1160.9411764705883" stroke="red" stroke-width="1" fill="none" />
<path d="M459.76470588235304,1231.058823529412 L424.7058823529413,1266.1176470588236" stroke="red" stroke-width="1" fill="none" />
<path d="M494.8235294117648,1441.4117647058824 L635.0588235294119,1441.4117647058824" stroke="red" stroke-width="1" fill="none" />
<path d="M635.0588235294119,1441.4117647058824 L635.0588235294119,1423.8823529411766" stroke="red" stroke-width="1" fill="none" />
<path d="M635.0588235294119,1336.2352941176473 L670.1176470588236,1309.9411764705883" stroke="red" stroke-width="1" fill="none" />
<path d="M670.1176470588236,1309.9411764705883 L810.3529411764707,1309.9411764705883" stroke="red" stroke-width="1" fill="none" />
<path d="M810.3529411764707,1309.9411764705883 L845.4117647058824,1336.2352941176473" stroke="red" stroke-width="1" fill="none" />
<path d="M845.4117647058824,1423.8823529411766 L845.4117647058824,1441.4117647058824" stroke="red" stroke-width="1" fill="none" />
<path d="M845.4117647058824,1441.4117647058824 L985.6470588235295,1441.4117647058824" stroke="red" stroke-width="1" fill="none" />
<path d="M635.0588235294119,1423.8823529411766 L626.2941176470589,1423.8823529411766" stroke="red" stroke-width="1" fill="none" />
<path d="M626.2941176470589,1336.2352941176473 L635.0588235294119,1336.2352941176473" stroke="red" stroke-width="1" fill="none" />
<path d="M626.2941176470589,1423.8823529411766 L494.8235294117648,1423.8823529411766" stroke="red" stroke-width="1" fill="none" />
<path d="M494.8235294117648,1423.8823529411766 L442.2352941176472,1371.294117647059" stroke="red" stroke-width="1" fill="none" />
<path d="M442.2352941176472,1371.294117647059 L494.8235294117648,1318.7058823529414" stroke="red" stroke-width="1" fill="none" />
<path d="M494.8235294117648,1318.7058823529414 L529.8823529411766,1318.7058823529414" stroke="red" stroke-width="1" fill="none" />
<path d="M529.8823529411766,1318.7058823529414 L556.1764705882354,1336.2352941176473" stroke="red" stroke-width="1" fill="none" />
<path d="M556.1764705882354,1336.2352941176473 L626.2941176470589,1336.2352941176473" stroke="red" stroke-width="1" fill="none" />
<path d="M845.4117647058824,1336.2352941176473 L854.1764705882354,1336.2352941176473" stroke="red" stroke-width="1" fill="none" />
<path d="M854.1764705882354,1423.8823529411766 L845.4117647058824,1423.8823529411766" stroke="red" stroke-width="1" fill="none" />
<path d="M854.1764705882354,1336.2352941176473 L924.294117647059,1336.2352941176473" stroke="red" stroke-width="1" fill="none" />
<path d="M924.294117647059,1336.2352941176473 L950.5882352941178,1318.7058823529414" stroke="red" stroke-width="1" fill="none" />
<path d="M950.5882352941178,1318.7058823529414 L985.6470588235295,1318.7058823529414" stroke="red" stroke-width="1" fill="none" />
<path d="M985.6470588235295,1318.7058823529414 L1038.2352941176473,1371.294117647059" stroke="red" stroke-width="1" fill="none" />
<path d="M1038.2352941176473,1371.294117647059 L985.6470588235295,1423.8823529411766" stroke="red" stroke-width="1" fill="none" />
<path d="M985.6470588235295,1423.8823529411766 L854.1764705882354,1423.8823529411766" stroke="red" stroke-width="1" fill="none" />
<path d="M1125.8823529411766,1406.3529411764707 L985.6470588235295,1546.5882352941178" stroke="red" stroke-width="1" fill="none" />
<path d="M494.8235294117648,1546.5882352941178 L354.58823529411774,1406.3529411764707" stroke="red" stroke-width="1" fill="none" />
<path d="M985.6470588235295,1546.5882352941178 L985.6470588235295,1721.8823529411766" stroke="red" stroke-width="1" fill="none" />
<path d="M985.6470588235295,1756.9411764705885 L985.6470588235295,1862.1176470588239" stroke="red" stroke-width="1" fill="none" />
<path d="M494.8235294117648,1721.8823529411766 L494.8235294117648,1546.5882352941178" stroke="red" stroke-width="1" fill="none" />
<path d="M494.8235294117648,1862.1176470588239 L494.8235294117648,1756.9411764705885" stroke="red" stroke-width="1" fill="none" />
<path d="M985.6470588235295,1862.1176470588239 L880.4705882352943,1967.294117647059" stroke="red" stroke-width="1" fill="none" />
<path d="M880.4705882352943,1967.294117647059 L775.294117647059,1967.294117647059" stroke="red" stroke-width="1" fill="none" />
<path d="M705.1764705882354,1967.294117647059 L600.0000000000001,1967.294117647059" stroke="red" stroke-width="1" fill="none" />
<path d="M600.0000000000001,1967.294117647059 L494.8235294117648,1862.1176470588239" stroke="red" stroke-width="1" fill="none" />
<path d="M424.7058823529413,1266.1176470588236 L424.7058823529413,1353.7647058823532" stroke="red" stroke-width="1" fill="none" />
<path d="M424.7058823529413,1353.7647058823532 L424.7058823529413,1371.294117647059" stroke="red" stroke-width="1" fill="none" />
<path d="M424.7058823529413,1371.294117647059 L424.7058823529413,1388.8235294117649" stroke="red" stroke-width="1" fill="none" />
<path d="M424.7058823529413,1388.8235294117649 L442.2352941176472,1406.3529411764707" stroke="red" stroke-width="1" fill="none" />
<path d="M442.2352941176472,1406.3529411764707 L459.76470588235304,1423.8823529411766" stroke="red" stroke-width="1" fill="none" />
<path d="M459.76470588235304,1423.8823529411766 L477.2941176470589,1441.4117647058824" stroke="red" stroke-width="1" fill="none" />
<path d="M477.2941176470589,1441.4117647058824 L494.8235294117648,1441.4117647058824" stroke="red" stroke-width="1" fill="none" />
<path d="M985.6470588235295,1441.4117647058824 L1003.1764705882355,1441.4117647058824" stroke="red" stroke-width="1" fill="none" />
<path d="M1003.1764705882355,1441.4117647058824 L1020.7058823529413,1423.8823529411766" stroke="red" stroke-width="1" fill="none" />
<path d="M1020.7058823529413,1423.8823529411766 L1038.2352941176473,1406.3529411764707" stroke="red" stroke-width="1" fill="none" />
<path d="M1038.2352941176473,1406.3529411764707 L1055.7647058823532,1388.8235294117649" stroke="red" stroke-width="1" fill="none" />
<path d="M1055.7647058823532,1388.8235294117649 L1055.7647058823532,1371.294117647059" stroke="red" stroke-width="1" fill="none" />
<path d="M1055.7647058823532,1371.294117647059 L1055.7647058823532,1353.7647058823532" stroke="red" stroke-width="1" fill="none" />
<path d="M1055.7647058823532,1353.7647058823532 L1055.7647058823532,1266.1176470588236" stroke="red" stroke-width="1" fill="none" />
<path d="M494.8235294117648,1756.9411764705885 L389.6470588235295,1756.9411764705885" stroke="red" stroke-width="1" fill="none" />
<path d="M424.7058823529413,1721.8823529411766 L494.8235294117648,1721.8823529411766" stroke="red" stroke-width="1" fill="none" />
<path d="M705.1764705882354,2037.4117647058827 L705.1764705882354,1967.294117647059" stroke="red" stroke-width="1" fill="none" />
<path d="M985.6470588235295,1721.8823529411766 L1055.7647058823532,1721.8823529411766" stroke="red" stroke-width="1" fill="none" />
<path d="M1090.8235294117649,1756.9411764705885 L985.6470588235295,1756.9411764705885" stroke="red" stroke-width="1" fill="none" />
<path d="M564.9411764705883,2037.4117647058827 L705.1764705882354,2037.4117647058827" stroke="red" stroke-width="1" fill="none" />
<path d="M775.294117647059,2037.4117647058827 L915.5294117647061,2037.4117647058827" stroke="red" stroke-width="1" fill="none" />
<path d="M494.8235294117648,2247.764705882353 L494.8235294117648,2107.5294117647063" stroke="red" stroke-width="1" fill="none" />
<path d="M494.8235294117648,2458.117647058824 L494.8235294117648,2317.8823529411766" stroke="red" stroke-width="1" fill="none" />
<path d="M705.1764705882354,2528.2352941176473 L564.9411764705883,2528.2352941176473" stroke="red" stroke-width="1" fill="none" />
<path d="M915.5294117647061,2528.2352941176473 L775.294117647059,2528.2352941176473" stroke="red" stroke-width="1" fill="none" />
<path d="M985.6470588235295,2107.5294117647063 L985.6470588235295,2247.764705882353" stroke="red" stroke-width="1" fill="none" />
<path d="M985.6470588235295,2317.8823529411766 L985.6470588235295,2458.117647058824" stroke="red" stroke-width="1" fill="none" />
<path d="M424.7058823529413,1967.294117647059 L564.9411764705883,1967.294117647059" stroke="red" stroke-width="1" fill="none" />
<path d="M915.5294117647061,1967.294117647059 L1055.7647058823532,1967.294117647059" stroke="red" stroke-width="1" fill="none" />
<path d="M1055.7647058823532,2107.5294117647063 L985.6470588235295,2107.5294117647063" stroke="red" stroke-width="1" fill="none" />
<path d="M494.8235294117648,2107.5294117647063 L424.7058823529413,2107.5294117647063" stroke="red" stroke-width="1" fill="none" />
<path d="M494.8235294117648,2317.8823529411766 L424.7058823529413,2317.8823529411766" stroke="red" stroke-width="1" fill="none" />
<path d="M424.7058823529413,2247.764705882353 L494.8235294117648,2247.764705882353" stroke="red" stroke-width="1" fill="none" />
<path d="M564.9411764705883,2598.352941176471 L424.7058823529413,2598.352941176471" stroke="red" stroke-width="1" fill="none" />
<path d="M424.7058823529413,2598.352941176471 L424.7058823529413,2458.117647058824" stroke="red" stroke-width="1" fill="none" />
<path d="M424.7058823529413,2458.117647058824 L494.8235294117648,2458.117647058824" stroke="red" stroke-width="1" fill="none" />
<path d="M775.294117647059,2598.352941176471 L705.1764705882354,2598.352941176471" stroke="red" stroke-width="1" fill="none" />
<path d="M985.6470588235295,2458.117647058824 L1055.7647058823532,2458.117647058824" stroke="red" stroke-width="1" fill="none" />
<path d="M1055.7647058823532,2458.117647058824 L1055.7647058823532,2598.352941176471" stroke="red" stroke-width="1" fill="none" />
<path d="M1055.7647058823532,2598.352941176471 L915.5294117647061,2598.352941176471" stroke="red" stroke-width="1" fill="none" />
<path d="M985.6470588235295,2247.764705882353 L1055.7647058823532,2247.764705882353" stroke="red" stroke-width="1" fill="none" />
<path d="M1055.7647058823532,2317.8823529411766 L985.6470588235295,2317.8823529411766" stroke="red" stroke-width="1" fill="none" />
<path d="M635.0588235294119,2388.0 L705.1764705882354,2388.0" stroke="red" stroke-width="1" fill="none" />
<path d="M775.294117647059,2388.0 L845.4117647058824,2388.0" stroke="red" stroke-width="1" fill="none" />
<path d="M845.4117647058824,2388.0 L845.4117647058824,2317.8823529411766" stroke="red" stroke-width="1" fill="none" />
<path d="M845.4117647058824,2247.764705882353 L845.4117647058824,2177.6470588235297" stroke="red" stroke-width="1" fill="none" />
<path d="M845.4117647058824,2177.6470588235297 L775.294117647059,2177.6470588235297" stroke="red" stroke-width="1" fill="none" />
<path d="M705.1764705882354,2177.6470588235297 L635.0588235294119,2177.6470588235297" stroke="red" stroke-width="1" fill="none" />
<path d="M635.0588235294119,2177.6470588235297 L635.0588235294119,2247.764705882353" stroke="red" stroke-width="1" fill="none" />
<path d="M635.0588235294119,2317.8823529411766 L635.0588235294119,2388.0" stroke="red" stroke-width="1" fill="none" />
<path d="M635.0588235294119,2247.764705882353 L670.1176470588236,2247.764705882353" stroke="red" stroke-width="1" fill="none" />
<path d="M670.1176470588236,2247.764705882353 L670.1176470588236,2212.7058823529414" stroke="red" stroke-width="1" fill="none" />
<path d="M670.1176470588236,2212.7058823529414 L705.1764705882354,2212.7058823529414" stroke="red" stroke-width="1" fill="none" />
<path d="M775.294117647059,2177.6470588235297 L775.294117647059,2212.7058823529414" stroke="red" stroke-width="1" fill="none" />
<path d="M775.294117647059,2212.7058823529414 L810.3529411764707,2212.7058823529414" stroke="red" stroke-width="1" fill="none" />
<path d="M810.3529411764707,2212.7058823529414 L810.3529411764707,2247.764705882353" stroke="red" stroke-width="1" fill="none" />
<path d="M810.3529411764707,2247.764705882353 L845.4117647058824,2247.764705882353" stroke="red" stroke-width="1" fill="none" />
<path d="M845.4117647058824,2317.8823529411766 L810.3529411764707,2317.8823529411766" stroke="red" stroke-width="1" fill="none" />
<path d="M810.3529411764707,2352.9411764705883 L775.294117647059,2352.9411764705883" stroke="red" stroke-width="1" fill="none" />
<path d="M775.294117647059,2352.9411764705883 L775.294117647059,2388.0" stroke="red" stroke-width="1" fill="none" />
<path d="M705.1764705882354,2388.0 L705.1764705882354,2352.9411764705883" stroke="red" stroke-width="1" fill="none" />
<path d="M705.1764705882354,2352.9411764705883 L670.1176470588236,2352.9411764705883" stroke="red" stroke-width="1" fill="none" />
<path d="M670.1176470588236,2352.9411764705883 L670.1176470588236,2317.8823529411766" stroke="red" stroke-width="1" fill="none" />
<path d="M670.1176470588236,2317.8823529411766 L635.0588235294119,2317.8823529411766" stroke="red" stroke-width="1" fill="none" />
<path d="M775.294117647059,1967.294117647059 L775.294117647059,1993.588235294118" stroke="red" stroke-width="1" fill="none" />
<path d="M775.294117647059,2011.1176470588239 L775.294117647059,2037.4117647058827" stroke="red" stroke-width="1" fill="none" />
<path d="M775.294117647059,1993.588235294118 L784.0588235294119,1993.588235294118" stroke="red" stroke-width="1" fill="none" />
<path d="M784.0588235294119,1993.588235294118 L784.0588235294119,2011.1176470588239" stroke="lavender" stroke-width="1" fill="none" />
<path d="M784.0588235294119,2011.1176470588239 L775.294117647059,2011.1176470588239" stroke="red" stroke-width="1" fill="none" />
<path d="M564.9411764705883,1967.294117647059 L564.9411764705883,1993.588235294118" stroke="red" stroke-width="1" fill="none" />
<path d="M564.9411764705883,2011.1176470588239 L564.9411764705883,2037.4117647058827" stroke="red" stroke-width="1" fill="none" />
<path d="M564.9411764705883,1993.588235294118 L573.7058823529413,1993.588235294118" stroke="red" stroke-width="1" fill="none" />
<path d="M573.7058823529413,1993.588235294118 L573.7058823529413,2011.1176470588239" stroke="lavender" stroke-width="1" fill="none" />
<path d="M573.7058823529413,2011.1176470588239 L564.9411764705883,2011.1176470588239" stroke="red" stroke-width="1" fill="none" />
<path d="M915.5294117647061,1993.588235294118 L915.5294117647061,1967.294117647059" stroke="red" stroke-width="1" fill="none" />
<path d="M915.5294117647061,2037.4117647058827 L915.5294117647061,2011.1176470588239" stroke="red" stroke-width="1" fill="none" />
<path d="M906.7647058823532,1993.588235294118 L915.5294117647061,1993.588235294118" stroke="red" stroke-width="1" fill="none" />
<path d="M906.7647058823532,2011.1176470588239 L906.7647058823532,1993.588235294118" stroke="lavender" stroke-width="1" fill="none" />
<path d="M915.5294117647061,2011.1176470588239 L906.7647058823532,2011.1176470588239" stroke="red" stroke-width="1" fill="none" />
<path d="M1055.7647058823532,2247.764705882353 L1055.7647058823532,2274.0588235294117" stroke="red" stroke-width="1" fill="none" />
<path d="M1055.7647058823532,2291.588235294118 L1055.7647058823532,2317.8823529411766" stroke="red" stroke-width="1" fill="none" />
<path d="M1055.7647058823532,2274.0588235294117 L1064.529411764706,2274.0588235294117" stroke="red" stroke-width="1" fill="none" />
<path d="M1064.529411764706,2274.0588235294117 L1064.529411764706,2291.588235294118" stroke="lavender" stroke-width="1" fill="none" />
<path d="M1064.529411764706,2291.588235294118 L1055.7647058823532,2291.588235294118" stroke="red" stroke-width="1" fill="none" />
<path d="M810.3529411764707,2317.8823529411766 L810.3529411764707,2326.6470588235297" stroke="red" stroke-width="1" fill="none" />
<path d="M810.3529411764707,2344.1764705882356 L810.3529411764707,2352.9411764705883" stroke="red" stroke-width="1" fill="none" />
<path d="M810.3529411764707,2326.6470588235297 L819.1176470588236,2326.6470588235297" stroke="red" stroke-width="1" fill="none" />
<path d="M819.1176470588236,2326.6470588235297 L819.1176470588236,2344.1764705882356" stroke="lavender" stroke-width="1" fill="none" />
<path d="M819.1176470588236,2344.1764705882356 L810.3529411764707,2344.1764705882356" stroke="red" stroke-width="1" fill="none" />
<path d="M915.5294117647061,2554.5294117647063 L915.5294117647061,2528.2352941176473" stroke="red" stroke-width="1" fill="none" />
<path d="M915.5294117647061,2598.352941176471 L915.5294117647061,2572.058823529412" stroke="red" stroke-width="1" fill="none" />
<path d="M906.7647058823532,2554.5294117647063 L915.5294117647061,2554.5294117647063" stroke="red" stroke-width="1" fill="none" />
<path d="M906.7647058823532,2572.058823529412 L906.7647058823532,2554.5294117647063" stroke="lavender" stroke-width="1" fill="none" />
<path d="M915.5294117647061,2572.058823529412 L906.7647058823532,2572.058823529412" stroke="red" stroke-width="1" fill="none" />
<path d="M705.1764705882354,2554.5294117647063 L705.1764705882354,2528.2352941176473" stroke="red" stroke-width="1" fill="none" />
<path d="M705.1764705882354,2598.352941176471 L705.1764705882354,2572.058823529412" stroke="red" stroke-width="1" fill="none" />
<path d="M696.4117647058824,2554.5294117647063 L705.1764705882354,2554.5294117647063" stroke="red" stroke-width="1" fill="none" />
<path d="M696.4117647058824,2572.058823529412 L696.4117647058824,2554.5294117647063" stroke="lavender" stroke-width="1" fill="none" />
<path d="M705.1764705882354,2572.058823529412 L696.4117647058824,2572.058823529412" stroke="red" stroke-width="1" fill="none" />
<path d="M564.9411764705883,2528.2352941176473 L564.9411764705883,2554.5294117647063" stroke="red" stroke-width="1" fill="none" />
<path d="M564.9411764705883,2572.058823529412 L564.9411764705883,2598.352941176471" stroke="red" stroke-width="1" fill="none" />
<path d="M564.9411764705883,2554.5294117647063 L573.7058823529413,2554.5294117647063" stroke="red" stroke-width="1" fill="none" />
<path d="M573.7058823529413,2554.5294117647063 L573.7058823529413,2572.058823529412" stroke="lavender" stroke-width="1" fill="none" />
<path d="M573.7058823529413,2572.058823529412 L564.9411764705883,2572.058823529412" stroke="red" stroke-width="1" fill="none" />
<path d="M424.7058823529413,2274.0588235294117 L424.7058823529413,2247.764705882353" stroke="red" stroke-width="1" fill="none" />
<path d="M424.7058823529413,2317.8823529411766 L424.7058823529413,2291.588235294118" stroke="red" stroke-width="1" fill="none" />
<path d="M415.94117647058835,2274.0588235294117 L424.7058823529413,2274.0588235294117" stroke="red" stroke-width="1" fill="none" />
<path d="M415.94117647058835,2291.588235294118 L415.94117647058835,2274.0588235294117" stroke="lavender" stroke-width="1" fill="none" />
<path d="M424.7058823529413,2291.588235294118 L415.94117647058835,2291.588235294118" stroke="red" stroke-width="1" fill="none" />
<path d="M775.294117647059,2528.2352941176473 L775.294117647059,2554.5294117647063" stroke="red" stroke-width="1" fill="none" />
<path d="M775.294117647059,2572.058823529412 L775.294117647059,2598.352941176471" stroke="red" stroke-width="1" fill="none" />
<path d="M775.294117647059,2554.5294117647063 L784.0588235294119,2554.5294117647063" stroke="red" stroke-width="1" fill="none" />
<path d="M784.0588235294119,2554.5294117647063 L784.0588235294119,2572.058823529412" stroke="lavender" stroke-width="1" fill="none" />
<path d="M784.0588235294119,2572.058823529412 L775.294117647059,2572.058823529412" stroke="red" stroke-width="1" fill="none" />
<path d="M424.7058823529413,2107.5294117647063 L424.7058823529413,1967.294117647059" stroke="red" stroke-width="1" fill="none" />
<path d="M1055.7647058823532,1967.294117647059 L1055.7647058823532,2107.5294117647063" stroke="red" stroke-width="1" fill="none" />
<path d="M705.1764705882354,2186.411764705883 L705.1764705882354,2177.6470588235297" stroke="red" stroke-width="1" fill="none" />
<path d="M705.1764705882354,2212.7058823529414 L705.1764705882354,2203.9411764705883" stroke="red" stroke-width="1" fill="none" />
<path d="M696.4117647058824,2186.411764705883 L705.1764705882354,2186.411764705883" stroke="red" stroke-width="1" fill="none" />
<path d="M696.4117647058824,2203.9411764705883 L696.4117647058824,2186.411764705883" stroke="lavender" stroke-width="1" fill="none" />
<path d="M705.1764705882354,2203.9411764705883 L696.4117647058824,2203.9411764705883" stroke="red" stroke-width="1" fill="none" />
<path d="M389.6470588235295,1581.6470588235297 L284.4705882352942,1581.6470588235297" stroke="red" stroke-width="1" fill="none" />
<path d="M319.52941176470597,1546.5882352941178 L424.7058823529413,1546.5882352941178" stroke="red" stroke-width="1" fill="none" />
<path d="M1055.7647058823532,1546.5882352941178 L1196.0000000000002,1546.5882352941178" stroke="red" stroke-width="1" fill="none" />
<path d="M1196.0000000000002,1546.5882352941178 L1196.0000000000002,1581.6470588235297" stroke="red" stroke-width="1" fill="none" />
<path d="M1196.0000000000002,1581.6470588235297 L1090.8235294117649,1581.6470588235297" stroke="red" stroke-width="1" fill="none" />
<path d="M389.6470588235295,1756.9411764705885 L389.6470588235295,1651.7647058823532" stroke="red" stroke-width="1" fill="none" />
<path d="M389.6470588235295,1651.7647058823532 L389.6470588235295,1581.6470588235297" stroke="red" stroke-width="1" fill="none" />
<path d="M424.7058823529413,1546.5882352941178 L424.7058823529413,1651.7647058823532" stroke="red" stroke-width="1" fill="none" />
<path d="M424.7058823529413,1651.7647058823532 L424.7058823529413,1721.8823529411766" stroke="red" stroke-width="1" fill="none" />
<path d="M1055.7647058823532,1721.8823529411766 L1055.7647058823532,1651.7647058823532" stroke="red" stroke-width="1" fill="none" />
<path d="M1055.7647058823532,1651.7647058823532 L1055.7647058823532,1546.5882352941178" stroke="red" stroke-width="1" fill="none" />
<path d="M1090.8235294117649,1581.6470588235297 L1090.8235294117649,1651.7647058823532" stroke="red" stroke-width="1" fill="none" />
<path d="M1090.8235294117649,1651.7647058823532 L1090.8235294117649,1756.9411764705885" stroke="red" stroke-width="1" fill="none" />
<path d="M424.7058823529413,775.294117647059 L424.7058823529413,740.2352941176472" stroke="red" stroke-width="1" fill="none" />
<path d="M179.2941176470589,985.6470588235295 L249.41176470588243,985.6470588235295" stroke="red" stroke-width="1" fill="none" />
<path d="M284.4705882352942,1020.7058823529413 L179.2941176470589,1020.7058823529413" stroke="red" stroke-width="1" fill="none" />
<path d="M249.41176470588243,810.3529411764707 L389.6470588235295,810.3529411764707" stroke="red" stroke-width="1" fill="none" />
<path d="M319.52941176470597,845.4117647058824 L284.4705882352942,845.4117647058824" stroke="red" stroke-width="1" fill="none" />
<path d="M249.41176470588243,985.6470588235295 L249.41176470588243,915.5294117647061" stroke="red" stroke-width="1" fill="none" />
<path d="M249.41176470588243,915.5294117647061 L249.41176470588243,810.3529411764707" stroke="red" stroke-width="1" fill="none" />
<path d="M284.4705882352942,845.4117647058824 L284.4705882352942,915.5294117647061" stroke="red" stroke-width="1" fill="none" />
<path d="M284.4705882352942,915.5294117647061 L284.4705882352942,1020.7058823529413" stroke="red" stroke-width="1" fill="none" />
<path d="M249.41176470588243,1090.8235294117649 L109.17647058823536,1090.8235294117649" stroke="red" stroke-width="1" fill="none" />
<path d="M144.23529411764707,1055.7647058823532 L249.41176470588243,1055.7647058823532" stroke="red" stroke-width="1" fill="none" />
<path d="M109.17647058823536,915.5294117647061 L4.0,915.5294117647061" stroke="red" stroke-width="1" fill="none" />
<path d="M39.058823529411825,880.4705882352943 L144.23529411764707,880.4705882352943" stroke="red" stroke-width="1" fill="none" />
<path d="M109.17647058823536,1090.8235294117649 L109.17647058823536,985.6470588235295" stroke="red" stroke-width="1" fill="none" />
<path d="M109.17647058823536,985.6470588235295 L109.17647058823536,915.5294117647061" stroke="red" stroke-width="1" fill="none" />
<path d="M144.23529411764707,880.4705882352943 L144.23529411764707,985.6470588235295" stroke="red" stroke-width="1" fill="none" />
<path d="M144.23529411764707,985.6470588235295 L144.23529411764707,1055.7647058823532" stroke="red" stroke-width="1" fill="none" />
<path d="M249.41176470588243,1055.7647058823532 L249.41176470588243,1090.8235294117649" stroke="red" stroke-width="1" fill="none" />
<path d="M179.2941176470589,1020.7058823529413 L179.2941176470589,985.6470588235295" stroke="red" stroke-width="1" fill="none" />
<path d="M284.4705882352942,1581.6470588235297 L284.4705882352942,1441.4117647058824" stroke="red" stroke-width="1" fill="none" />
<path d="M284.4705882352942,1441.4117647058824 L319.52941176470597,1441.4117647058824" stroke="red" stroke-width="1" fill="none" />
<path d="M319.52941176470597,1441.4117647058824 L319.52941176470597,1546.5882352941178" stroke="red" stroke-width="1" fill="none" />
<path d="M4.0,915.5294117647061 L4.0,705.1764705882354" stroke="red" stroke-width="1" fill="none" />
<path d="M4.0,705.1764705882354 L494.8235294117648,705.1764705882354" stroke="red" stroke-width="1" fill="none" />
<path d="M424.7058823529413,740.2352941176472 L39.058823529411825,740.2352941176472" stroke="red" stroke-width="1" fill="none" />
<path d="M39.058823529411825,740.2352941176472 L39.058823529411825,880.4705882352943" stroke="red" stroke-width="1" fill="none" />
<path d="M845.4117647058824,354.5882352941178 L915.5294117647061,600.0000000000001" stroke="red" stroke-width="1" fill="none" />
<path d="M915.5294117647061,600.0000000000001 L950.5882352941178,600.0000000000001" stroke="red" stroke-width="1" fill="none" />
<path d="M950.5882352941178,600.0000000000001 L1020.7058823529413,529.8823529411766" stroke="red" stroke-width="1" fill="none" />
<path d="M1020.7058823529413,529.8823529411766 L1196.0000000000002,600.0000000000001" stroke="red" stroke-width="1" fill="none" />
<path d="M1196.0000000000002,600.0000000000001 L1196.0000000000002,670.1176470588236" stroke="red" stroke-width="1" fill="none" />
<path d="M1196.0000000000002,670.1176470588236 L1020.7058823529413,740.2352941176472" stroke="red" stroke-width="1" fill="none" />
<path d="M1020.7058823529413,740.2352941176472 L950.5882352941178,670.1176470588236" stroke="red" stroke-width="1" fill="none" />
<path d="M950.5882352941178,670.1176470588236 L915.5294117647061,670.1176470588236" stroke="red" stroke-width="1" fill="none" />
<path d="M915.5294117647061,670.1176470588236 L915.5294117647061,705.1764705882354" stroke="red" stroke-width="1" fill="none" />
<path d="M915.5294117647061,775.294117647059 L985.6470588235295,845.4117647058824" stroke="red" stroke-width="1" fill="none" />
<path d="M985.6470588235295,845.4117647058824 L950.5882352941178,880.4705882352943" stroke="red" stroke-width="1" fill="none" />
<path d="M1020.7058823529413,880.4705882352943 L1090.8235294117649,950.5882352941178" stroke="red" stroke-width="1" fill="none" />
<path d="M1090.8235294117649,950.5882352941178 L1055.7647058823532,985.6470588235295" stroke="red" stroke-width="1" fill="none" />
<path d="M1117.1176470588236,670.1176470588236 L1182.8529411764707,643.8235294117649" stroke="red" stroke-width="1" fill="none" />
<path d="M1182.8529411764707,643.8235294117649 L1182.8529411764707,626.294117647059" stroke="red" stroke-width="1" fill="none" />
<path d="M1182.8529411764707,626.294117647059 L1117.1176470588236,600.0000000000001" stroke="red" stroke-width="1" fill="none" />
<path d="M1117.1176470588236,600.0000000000001 L1117.1176470588236,617.529411764706" stroke="red" stroke-width="1" fill="none" />
<path d="M1169.7058823529414,630.6764705882354 L1169.7058823529414,639.4411764705883" stroke="red" stroke-width="1" fill="none" />
<path d="M1117.1176470588236,652.5882352941178 L1117.1176470588236,670.1176470588236" stroke="red" stroke-width="1" fill="none" />
<path d="M1130.2647058823532,617.529411764706 L1169.7058823529414,630.6764705882354" stroke="red" stroke-width="1" fill="none" />
<path d="M1169.7058823529414,639.4411764705883 L1130.2647058823532,652.5882352941178" stroke="red" stroke-width="1" fill="none" />
<path d="M1130.2647058823532,652.5882352941178 L1125.8823529411766,652.5882352941178" stroke="red" stroke-width="1" fill="none" />
<path d="M1125.8823529411766,652.5882352941178 L1117.1176470588236,652.5882352941178" stroke="red" stroke-width="1" fill="none" />
<path d="M1117.1176470588236,617.529411764706 L1125.8823529411766,617.529411764706" stroke="red" stroke-width="1" fill="none" />
<path d="M1125.8823529411766,617.529411764706 L1130.2647058823532,617.529411764706" stroke="red" stroke-width="1" fill="none" />
</svg>