<?xml version="1.0" encoding="UTF-8"?>
<svg xmlns="http://www.w3.org/2000/svg" xmlns:xlink="http://www.w3.org/1999/xlink"
     width="1200" height="2000" viewBox="0 0 1200 2000">
<defs>
</defs>
<path d="M763.6474576271187,1163.6745762711864 L795.9728813559323,1163.6745762711864" stroke="lavender" stroke-width="2" fill="none" />
<path d="M614.142372881356,1018.2101694915254 L614.142372881356,985.8847457627119" stroke="yellow" stroke-width="2" fill="none" />
<path d="M828.2983050847458,1131.3491525423728 L828.2983050847458,1099.0237288135593" stroke="yellow" stroke-width="2" fill="none" />
<path d="M795.9728813559323,1167.7152542372883 L795.9728813559323,1224.284745762712" stroke="yellow" stroke-width="2" fill="none" />
<path d="M795.9728813559323,1224.284745762712 L808.0949152542373,1220.2440677966101" stroke="yellow" stroke-width="2" fill="none" />
<path d="M808.0949152542373,1220.2440677966101 L808.0949152542373,1171.7559322033899" stroke="yellow" stroke-width="2" fill="none" />
<path d="M808.0949152542373,1171.7559322033899 L795.9728813559323,1167.7152542372883" stroke="yellow" stroke-width="2" fill="none" />
<path d="M795.9728813559323,973.7627118644068 L795.9728813559323,1030.3322033898305" stroke="yellow" stroke-width="2" fill="none" />
<path d="M795.9728813559323,1030.3322033898305 L808.0949152542373,1026.2915254237287" stroke="yellow" stroke-width="2" fill="none" />
<path d="M808.0949152542373,1026.2915254237287 L808.0949152542373,977.8033898305084" stroke="yellow" stroke-width="2" fill="none" />
<path d="M808.0949152542373,977.8033898305084 L795.9728813559323,973.7627118644068" stroke="yellow" stroke-width="2" fill="none" />
<path d="M622.2237288135593,977.8033898305084 L622.2237288135593,1026.2915254237287" stroke="yellow" stroke-width="2" fill="none" />
<path d="M622.2237288135593,1026.2915254237287 L634.3457627118644,1030.3322033898305" stroke="yellow" stroke-width="2" fill="none" />
<path d="M634.3457627118644,1030.3322033898305 L634.3457627118644,973.7627118644068" stroke="yellow" stroke-width="2" fill="none" />
<path d="M634.3457627118644,973.7627118644068 L622.2237288135593,977.8033898305084" stroke="yellow" stroke-width="2" fill="none" />
<path d="M622.2237288135593,1171.7559322033899 L622.2237288135593,1220.2440677966101" stroke="yellow" stroke-width="2" fill="none" />
<path d="M622.2237288135593,1220.2440677966101 L634.3457627118644,1224.284745762712" stroke="yellow" stroke-width="2" fill="none" />
<path d="M634.3457627118644,1224.284745762712 L634.3457627118644,1167.7152542372883" stroke="yellow" stroke-width="2" fill="none" />
<path d="M634.3457627118644,1167.7152542372883 L622.2237288135593,1171.7559322033899" stroke="yellow" stroke-width="2" fill="none" />
<path d="M682.8338983050847,1034.3728813559321 L682.8338983050847,985.8847457627119" stroke="yellow" stroke-width="2" fill="none" />
<path d="M682.8338983050847,985.8847457627119 L682.8338983050847,969.7220338983051" stroke="yellow" stroke-width="2" fill="none" />
<path d="M723.2406779661018,638.3864406779661 L755.5661016949152,581.8169491525423" stroke="yellow" stroke-width="2" fill="none" />
<path d="M674.7525423728814,581.8169491525423 L707.077966101695,638.3864406779661" stroke="yellow" stroke-width="2" fill="none" />
<path d="M888.9084745762713,658.5898305084745 L856.5830508474577,715.1593220338983" stroke="yellow" stroke-width="2" fill="none" />
<path d="M747.4847457627119,840.4203389830509 L682.8338983050847,840.4203389830509" stroke="yellow" stroke-width="2" fill="none" />
<path d="M682.8338983050847,872.7457627118645 L747.4847457627119,872.7457627118645" stroke="lavender" stroke-width="2" fill="none" />
<path d="M876.7864406779661,501.00338983050847 L941.4372881355932,387.86440677966095" stroke="yellow" stroke-width="2" fill="none" />
<path d="M488.8813559322034,387.86440677966095 L553.5322033898306,501.00338983050847" stroke="yellow" stroke-width="2" fill="none" />
<path d="M581.8169491525424,484.8406779661017 L517.1661016949153,371.70169491525417" stroke="yellow" stroke-width="2" fill="none" />
<path d="M674.7525423728814,581.8169491525423 L755.5661016949152,581.8169491525423" stroke="yellow" stroke-width="2" fill="none" />
<path d="M913.1525423728814,371.70169491525417 L848.5016949152542,484.8406779661017" stroke="yellow" stroke-width="2" fill="none" />
<path d="M682.8338983050847,303.0101694915254 L747.4847457627119,303.0101694915254" stroke="yellow" stroke-width="2" fill="none" />
<path d="M747.4847457627119,274.72542372881355 L682.8338983050847,274.72542372881355" stroke="yellow" stroke-width="2" fill="none" />
<path d="M682.8338983050847,153.5050847457626 L747.4847457627119,153.5050847457626" stroke="yellow" stroke-width="2" fill="none" />
<path d="M747.4847457627119,141.38305084745753 L682.8338983050847,141.38305084745753" stroke="yellow" stroke-width="2" fill="none" />
<path d="M670.7118644067797,1656.6372881355933 L670.7118644067797,1688.9627118644069" stroke="yellow" stroke-width="2" fill="none" />
<path d="M670.7118644067797,1688.9627118644069 L703.0372881355933,1693.0033898305085" stroke="yellow" stroke-width="2" fill="none" />
<path d="M703.0372881355933,1693.0033898305085 L735.3627118644068,1688.9627118644069" stroke="yellow" stroke-width="2" fill="none" />
<path d="M735.3627118644068,1688.9627118644069 L767.6881355932204,1688.9627118644069" stroke="yellow" stroke-width="2" fill="none" />
<path d="M703.0372881355933,1652.5966101694917 L670.7118644067797,1656.6372881355933" stroke="yellow" stroke-width="2" fill="none" />
<path d="M707.077966101695,1620.2711864406779 L703.0372881355933,1652.5966101694917" stroke="yellow" stroke-width="2" fill="none" />
<path d="M739.4033898305086,1616.2305084745763 L707.077966101695,1620.2711864406779" stroke="yellow" stroke-width="2" fill="none" />
<path d="M767.6881355932204,1688.9627118644069 L771.728813559322,1624.3118644067797" stroke="yellow" stroke-width="2" fill="none" />
<path d="M771.728813559322,1624.3118644067797 L739.4033898305086,1616.2305084745763" stroke="yellow" stroke-width="2" fill="none" />
<path d="M828.2983050847458,1656.6372881355933 L771.728813559322,1624.3118644067797" stroke="yellow" stroke-width="2" fill="none" />
<path d="M767.6881355932204,1688.9627118644069 L771.728813559322,1729.3694915254237" stroke="yellow" stroke-width="2" fill="none" />
<path d="M771.728813559322,1729.3694915254237 L804.0542372881356,1745.5322033898306" stroke="yellow" stroke-width="2" fill="none" />
<path d="M682.8338983050847,1422.277966101695 L747.4847457627119,1422.277966101695" stroke="yellow" stroke-width="2" fill="none" />
<path d="M682.8338983050847,1454.6033898305086 L747.4847457627119,1454.6033898305086" stroke="yellow" stroke-width="2" fill="none" />
<path d="M929.3152542372882,1644.5152542372882 L872.7457627118645,1612.1898305084746" stroke="yellow" stroke-width="2" fill="none" />
<path d="M872.7457627118645,1612.1898305084746 L828.2983050847458,1656.6372881355933" stroke="yellow" stroke-width="2" fill="none" />
<path d="M909.1118644067797,1858.671186440678 L872.7457627118645,1834.4271186440678" stroke="yellow" stroke-width="2" fill="none" />
<path d="M925.2745762711864,1826.3457627118646 L872.7457627118645,1834.4271186440678" stroke="yellow" stroke-width="2" fill="none" />
<path d="M925.2745762711864,1826.3457627118646 L909.1118644067797,1858.671186440678" stroke="yellow" stroke-width="2" fill="none" />
<path d="M860.6237288135594,1713.206779661017 L836.3796610169492,1745.5322033898306" stroke="yellow" stroke-width="2" fill="none" />
<path d="M905.071186440678,1923.322033898305 L868.7050847457627,1963.7288135593221" stroke="yellow" stroke-width="2" fill="none" />
<path d="M957.6,1826.3457627118646 L973.7627118644068,1858.671186440678" stroke="yellow" stroke-width="2" fill="none" />
<path d="M973.7627118644068,1963.7288135593221 L973.7627118644068,1996.0542372881357" stroke="yellow" stroke-width="2" fill="none" />
<path d="M981.8440677966103,1963.7288135593221 L981.8440677966103,1996.0542372881357" stroke="lavender" stroke-width="2" fill="none" />
<path d="M771.728813559322,1729.3694915254237 L767.6881355932204,1741.491525423729" stroke="yellow" stroke-width="2" fill="none" />
<path d="M767.6881355932204,1741.491525423729 L795.9728813559323,1761.6949152542375" stroke="yellow" stroke-width="2" fill="none" />
<path d="M767.6881355932204,1741.491525423729 L771.728813559322,1765.735593220339" stroke="yellow" stroke-width="2" fill="none" />
<path d="M771.728813559322,1765.735593220339 L787.8915254237288,1773.8169491525423" stroke="yellow" stroke-width="2" fill="none" />
<path d="M771.728813559322,1765.735593220339 L767.6881355932204,1777.8576271186441" stroke="yellow" stroke-width="2" fill="none" />
<path d="M767.6881355932204,1777.8576271186441 L779.8101694915255,1789.9796610169492" stroke="yellow" stroke-width="2" fill="none" />
<path d="M767.6881355932204,1777.8576271186441 L763.6474576271187,1789.9796610169492" stroke="yellow" stroke-width="2" fill="none" />
<path d="M763.6474576271187,1789.9796610169492 L771.728813559322,1802.1016949152543" stroke="yellow" stroke-width="2" fill="none" />
<path d="M763.6474576271187,1789.9796610169492 L739.4033898305086,1802.1016949152543" stroke="yellow" stroke-width="2" fill="none" />
<path d="M682.8338983050847,218.15593220338974 L747.4847457627119,218.15593220338974" stroke="lavender" stroke-width="2" fill="none" />
<path d="M682.8338983050847,387.86440677966095 L747.4847457627119,387.86440677966095" stroke="yellow" stroke-width="2" fill="none" />
<path d="M682.8338983050847,452.5152542372881 L682.8338983050847,387.86440677966095" stroke="yellow" stroke-width="2" fill="none" />
<path d="M747.4847457627119,452.5152542372881 L682.8338983050847,452.5152542372881" stroke="yellow" stroke-width="2" fill="none" />
<path d="M747.4847457627119,387.86440677966095 L747.4847457627119,452.5152542372881" stroke="yellow" stroke-width="2" fill="none" />
<path d="M666.671186440678,371.70169491525417 L666.671186440678,468.6779661016949" stroke="yellow" stroke-width="2" fill="none" />
<path d="M666.671186440678,468.6779661016949 L763.6474576271187,468.6779661016949" stroke="yellow" stroke-width="2" fill="none" />
<path d="M763.6474576271187,468.6779661016949 L763.6474576271187,371.70169491525417" stroke="yellow" stroke-width="2" fill="none" />
<path d="M763.6474576271187,371.70169491525417 L666.671186440678,371.70169491525417" stroke="yellow" stroke-width="2" fill="none" />
<path d="M868.7050847457627,723.2406779661017 L901.0305084745763,666.671186440678" stroke="lavender" stroke-width="2" fill="none" />
<path d="M896.9898305084746,739.4033898305084 L929.3152542372882,682.8338983050847" stroke="yellow" stroke-width="2" fill="none" />
<path d="M925.2745762711864,755.5661016949152 L957.6,698.9966101694915" stroke="yellow" stroke-width="2" fill="none" />
<path d="M1014.1694915254238,731.3220338983051 L957.6,698.9966101694915" stroke="yellow" stroke-width="2" fill="none" />
<path d="M1030.3322033898305,703.0372881355933 L973.7627118644068,670.7118644067797" stroke="yellow" stroke-width="2" fill="none" />
<path d="M1006.0881355932204,614.1423728813559 L973.7627118644068,670.7118644067797" stroke="yellow" stroke-width="2" fill="none" />
<path d="M977.8033898305085,597.9796610169491 L945.477966101695,654.5491525423729" stroke="yellow" stroke-width="2" fill="none" />
<path d="M981.8440677966103,787.8915254237288 L957.6,698.9966101694915" stroke="yellow" stroke-width="2" fill="none" />
<path d="M1062.657627118644,646.4677966101694 L973.7627118644068,670.7118644067797" stroke="yellow" stroke-width="2" fill="none" />
<path d="M977.8033898305085,597.9796610169491 L888.9084745762713,622.2237288135593" stroke="yellow" stroke-width="2" fill="none" />
<path d="M993.9661016949153,569.6949152542372 L937.3966101694916,537.3694915254237" stroke="yellow" stroke-width="2" fill="none" />
<path d="M977.8033898305085,597.9796610169491 L921.2338983050847,565.6542372881356" stroke="yellow" stroke-width="2" fill="none" />
<path d="M993.9661016949153,569.6949152542372 L1026.291525423729,513.1254237288135" stroke="yellow" stroke-width="2" fill="none" />
<path d="M993.9661016949153,569.6949152542372 L969.7220338983052,480.79999999999995" stroke="yellow" stroke-width="2" fill="none" />
<path d="M1022.2508474576272,585.857627118644 L1054.5762711864409,529.2881355932203" stroke="yellow" stroke-width="2" fill="none" />
<path d="M1050.535593220339,602.0203389830508 L1082.8610169491526,545.4508474576271" stroke="yellow" stroke-width="2" fill="none" />
<path d="M1078.820338983051,618.1830508474576 L1111.1457627118643,561.6135593220339" stroke="yellow" stroke-width="2" fill="none" />
<path d="M1107.1050847457627,634.3457627118644 L1163.6745762711864,666.671186440678" stroke="yellow" stroke-width="2" fill="none" />
<path d="M1090.942372881356,662.6305084745762 L1147.5118644067798,694.9559322033898" stroke="yellow" stroke-width="2" fill="none" />
<path d="M1074.7796610169491,690.9152542372881 L1131.3491525423728,723.2406779661017" stroke="yellow" stroke-width="2" fill="none" />
<path d="M1058.6169491525425,719.2 L1115.1864406779662,751.5254237288136" stroke="yellow" stroke-width="2" fill="none" />
<path d="M1042.4542372881356,747.4847457627118 L1099.0237288135595,779.8101694915254" stroke="yellow" stroke-width="2" fill="none" />
<path d="M1026.291525423729,775.7694915254237 L1082.8610169491526,808.0949152542373" stroke="yellow" stroke-width="2" fill="none" />
<path d="M1010.128813559322,804.0542372881356 L1066.6983050847457,836.3796610169492" stroke="yellow" stroke-width="2" fill="none" />
<path d="M993.9661016949153,832.3389830508474 L1050.535593220339,864.664406779661" stroke="yellow" stroke-width="2" fill="none" />
<path d="M1107.1050847457627,634.3457627118644 L1139.4305084745763,577.7762711864407" stroke="lavender" stroke-width="2" fill="none" />
<path d="M602.0203389830508,12.081355932203223 L618.1830508474577,12.081355932203223" stroke="yellow" stroke-width="2" fill="none" />
<path d="M707.077966101695,12.081355932203223 L723.2406779661018,12.081355932203223" stroke="yellow" stroke-width="2" fill="none" />
<path d="M812.135593220339,12.081355932203223 L828.2983050847458,12.081355932203223" stroke="yellow" stroke-width="2" fill="none" />
<path d="M977.8033898305085,860.6237288135593 L1034.3728813559323,892.9491525423729" stroke="yellow" stroke-width="2" fill="none" />
<path d="M880.8271186440678,876.7864406779661 L913.1525423728814,876.7864406779661" stroke="yellow" stroke-width="2" fill="none" />
<path d="M913.1525423728814,864.664406779661 L880.8271186440678,864.664406779661" stroke="yellow" stroke-width="2" fill="none" />
<path d="M816.1762711864408,925.2745762711864 L816.1762711864408,957.6" stroke="yellow" stroke-width="2" fill="none" />
<path d="M1143.4711864406781,1006.0881355932204 L1111.1457627118643,1006.0881355932204" stroke="yellow" stroke-width="2" fill="none" />
<path d="M896.9898305084746,1006.0881355932204 L864.664406779661,1006.0881355932204" stroke="yellow" stroke-width="2" fill="none" />
<path d="M1034.3728813559323,925.2745762711864 L1034.3728813559323,957.6" stroke="yellow" stroke-width="2" fill="none" />
<path d="M1046.4949152542374,957.6 L1046.4949152542374,925.2745762711864" stroke="yellow" stroke-width="2" fill="none" />
<path d="M864.664406779661,1018.2101694915254 L896.9898305084746,1018.2101694915254" stroke="yellow" stroke-width="2" fill="none" />
<path d="M1111.1457627118643,1018.2101694915254 L1143.4711864406781,1018.2101694915254" stroke="yellow" stroke-width="2" fill="none" />
<path d="M957.6,1002.0474576271187 L989.9254237288136,993.9661016949153" stroke="yellow" stroke-width="2" fill="none" />
<path d="M989.9254237288136,993.9661016949153 L1022.2508474576272,993.9661016949153" stroke="yellow" stroke-width="2" fill="none" />
<path d="M1022.2508474576272,993.9661016949153 L1050.535593220339,1002.0474576271187" stroke="yellow" stroke-width="2" fill="none" />
<path d="M1078.820338983051,1018.2101694915254 L1078.820338983051,1050.535593220339" stroke="yellow" stroke-width="2" fill="none" />
<path d="M573.7355932203391,715.1593220338983 L541.4101694915255,658.5898305084745" stroke="yellow" stroke-width="2" fill="none" />
<path d="M529.2881355932203,666.671186440678 L561.6135593220339,723.2406779661017" stroke="yellow" stroke-width="2" fill="none" />
<path d="M359.57966101694916,763.6474576271187 L416.1491525423729,731.3220338983051" stroke="yellow" stroke-width="2" fill="none" />
<path d="M448.47457627118644,787.8915254237288 L416.1491525423729,731.3220338983051" stroke="yellow" stroke-width="2" fill="none" />
<path d="M476.75932203389834,771.728813559322 L444.43389830508477,715.1593220338983" stroke="yellow" stroke-width="2" fill="none" />
<path d="M505.0440677966102,755.5661016949152 L472.7186440677966,698.9966101694915" stroke="yellow" stroke-width="2" fill="none" />
<path d="M533.328813559322,739.4033898305084 L501.00338983050847,682.8338983050847" stroke="yellow" stroke-width="2" fill="none" />
<path d="M262.6033898305085,698.9966101694915 L359.57966101694916,698.9966101694915" stroke="yellow" stroke-width="2" fill="none" />
<path d="M206.0338983050848,731.3220338983051 L262.6033898305085,698.9966101694915" stroke="yellow" stroke-width="2" fill="none" />
<path d="M173.70847457627121,884.8677966101695 L173.70847457627121,787.8915254237288" stroke="yellow" stroke-width="2" fill="none" />
<path d="M262.6033898305085,973.7627118644068 L206.0338983050848,941.4372881355932" stroke="yellow" stroke-width="2" fill="none" />
<path d="M359.57966101694916,973.7627118644068 L262.6033898305085,973.7627118644068" stroke="yellow" stroke-width="2" fill="none" />
<path d="M206.0338983050848,941.4372881355932 L173.70847457627121,884.8677966101695" stroke="yellow" stroke-width="2" fill="none" />
<path d="M173.70847457627121,787.8915254237288 L206.0338983050848,731.3220338983051" stroke="yellow" stroke-width="2" fill="none" />
<path d="M416.1491525423729,941.4372881355932 L359.57966101694916,973.7627118644068" stroke="yellow" stroke-width="2" fill="none" />
<path d="M331.2949152542373,747.4847457627118 L359.57966101694916,698.9966101694915" stroke="yellow" stroke-width="2" fill="none" />
<path d="M298.96949152542373,747.4847457627118 L262.6033898305085,698.9966101694915" stroke="yellow" stroke-width="2" fill="none" />
<path d="M242.39999999999998,779.8101694915254 L206.0338983050848,731.3220338983051" stroke="yellow" stroke-width="2" fill="none" />
<path d="M226.2372881355932,808.0949152542373 L173.70847457627121,787.8915254237288" stroke="yellow" stroke-width="2" fill="none" />
<path d="M230.27796610169491,840.4203389830509 L173.70847457627121,884.8677966101695" stroke="yellow" stroke-width="2" fill="none" />
<path d="M262.6033898305085,896.9898305084746 L206.0338983050848,941.4372881355932" stroke="yellow" stroke-width="2" fill="none" />
<path d="M290.88813559322034,913.1525423728813 L262.6033898305085,973.7627118644068" stroke="yellow" stroke-width="2" fill="none" />
<path d="M323.2135593220339,913.1525423728813 L359.57966101694916,973.7627118644068" stroke="yellow" stroke-width="2" fill="none" />
<path d="M379.7830508474576,880.8271186440678 L416.1491525423729,941.4372881355932" stroke="yellow" stroke-width="2" fill="none" />
<path d="M230.27796610169491,840.4203389830509 L226.2372881355932,808.0949152542373" stroke="yellow" stroke-width="2" fill="none" />
<path d="M226.2372881355932,808.0949152542373 L242.39999999999998,779.8101694915254" stroke="yellow" stroke-width="2" fill="none" />
<path d="M242.39999999999998,779.8101694915254 L298.96949152542373,747.4847457627118" stroke="yellow" stroke-width="2" fill="none" />
<path d="M298.96949152542373,747.4847457627118 L331.2949152542373,747.4847457627118" stroke="yellow" stroke-width="2" fill="none" />
<path d="M331.2949152542373,747.4847457627118 L359.57966101694916,763.6474576271187" stroke="yellow" stroke-width="2" fill="none" />
<path d="M395.9457627118644,852.542372881356 L379.7830508474576,880.8271186440678" stroke="yellow" stroke-width="2" fill="none" />
<path d="M379.7830508474576,880.8271186440678 L323.2135593220339,913.1525423728813" stroke="yellow" stroke-width="2" fill="none" />
<path d="M323.2135593220339,913.1525423728813 L290.88813559322034,913.1525423728813" stroke="yellow" stroke-width="2" fill="none" />
<path d="M290.88813559322034,913.1525423728813 L262.6033898305085,896.9898305084746" stroke="yellow" stroke-width="2" fill="none" />
<path d="M262.6033898305085,896.9898305084746 L230.27796610169491,840.4203389830509" stroke="yellow" stroke-width="2" fill="none" />
<path d="M359.57966101694916,763.6474576271187 L391.90508474576274,820.2169491525424" stroke="yellow" stroke-width="2" fill="none" />
<path d="M359.57966101694916,686.8745762711865 L254.5220338983051,686.8745762711865" stroke="yellow" stroke-width="2" fill="none" />
<path d="M254.5220338983051,686.8745762711865 L197.95254237288134,719.2" stroke="yellow" stroke-width="2" fill="none" />
<path d="M197.95254237288134,719.2 L161.58644067796615,783.8508474576271" stroke="yellow" stroke-width="2" fill="none" />
<path d="M161.58644067796615,783.8508474576271 L161.58644067796615,892.9491525423729" stroke="yellow" stroke-width="2" fill="none" />
<path d="M161.58644067796615,892.9491525423729 L193.9118644067796,949.5186440677967" stroke="yellow" stroke-width="2" fill="none" />
<path d="M193.9118644067796,949.5186440677967 L254.5220338983051,985.8847457627119" stroke="yellow" stroke-width="2" fill="none" />
<path d="M254.5220338983051,985.8847457627119 L367.66101694915255,985.8847457627119" stroke="yellow" stroke-width="2" fill="none" />
<path d="M367.66101694915255,985.8847457627119 L424.23050847457625,953.5593220338983" stroke="yellow" stroke-width="2" fill="none" />
<path d="M460.59661016949156,1002.0474576271187 L424.23050847457625,953.5593220338983" stroke="yellow" stroke-width="2" fill="none" />
<path d="M395.9457627118644,1038.413559322034 L367.66101694915255,985.8847457627119" stroke="yellow" stroke-width="2" fill="none" />
<path d="M230.27796610169491,1038.413559322034 L254.5220338983051,985.8847457627119" stroke="yellow" stroke-width="2" fill="none" />
<path d="M149.46440677966098,985.8847457627119 L193.9118644067796,949.5186440677967" stroke="yellow" stroke-width="2" fill="none" />
<path d="M109.05762711864406,929.3152542372882 L161.58644067796615,892.9491525423729" stroke="yellow" stroke-width="2" fill="none" />
<path d="M109.05762711864406,759.606779661017 L161.58644067796615,783.8508474576271" stroke="yellow" stroke-width="2" fill="none" />
<path d="M157.54576271186443,670.7118644067797 L197.95254237288134,719.2" stroke="yellow" stroke-width="2" fill="none" />
<path d="M222.19661016949158,634.3457627118644 L254.5220338983051,686.8745762711865" stroke="lavender" stroke-width="2" fill="none" />
<path d="M254.5220338983051,686.8745762711865 L262.6033898305085,698.9966101694915" stroke="yellow" stroke-width="2" fill="none" />
<path d="M197.95254237288134,719.2 L206.0338983050848,731.3220338983051" stroke="yellow" stroke-width="2" fill="none" />
<path d="M161.58644067796615,783.8508474576271 L173.70847457627121,787.8915254237288" stroke="yellow" stroke-width="2" fill="none" />
<path d="M161.58644067796615,892.9491525423729 L173.70847457627121,884.8677966101695" stroke="yellow" stroke-width="2" fill="none" />
<path d="M193.9118644067796,949.5186440677967 L206.0338983050848,941.4372881355932" stroke="yellow" stroke-width="2" fill="none" />
<path d="M254.5220338983051,985.8847457627119 L262.6033898305085,973.7627118644068" stroke="yellow" stroke-width="2" fill="none" />
<path d="M367.66101694915255,985.8847457627119 L359.57966101694916,973.7627118644068" stroke="yellow" stroke-width="2" fill="none" />
<path d="M395.9457627118644,852.542372881356 L440.39322033898304,913.1525423728813" stroke="yellow" stroke-width="2" fill="none" />
<path d="M476.75932203389834,868.7050847457626 L440.39322033898304,913.1525423728813" stroke="yellow" stroke-width="2" fill="none" />
<path d="M488.8813559322034,880.8271186440678 L452.51525423728816,921.2338983050847" stroke="yellow" stroke-width="2" fill="none" />
<path d="M941.4372881355932,925.2745762711864 L941.4372881355932,957.6" stroke="yellow" stroke-width="2" fill="none" />
<path d="M242.39999999999998,634.3457627118644 L339.3762711864407,634.3457627118644" stroke="yellow" stroke-width="2" fill="none" />
<path d="M339.3762711864407,626.264406779661 L242.39999999999998,626.264406779661" stroke="yellow" stroke-width="2" fill="none" />
<path d="M109.05762711864406,896.9898305084746 L109.05762711864406,791.9322033898304" stroke="yellow" stroke-width="2" fill="none" />
<path d="M100.97627118644061,791.9322033898304 L100.97627118644061,896.9898305084746" stroke="yellow" stroke-width="2" fill="none" />
<path d="M262.6033898305085,1046.4949152542372 L363.62033898305083,1046.4949152542372" stroke="yellow" stroke-width="2" fill="none" />
<path d="M363.62033898305083,1038.413559322034 L262.6033898305085,1038.413559322034" stroke="yellow" stroke-width="2" fill="none" />
<path d="M977.8033898305085,1963.7288135593221 L977.8033898305085,1996.0542372881357" stroke="yellow" stroke-width="2" fill="none" />
<path d="M731.3220338983051,501.00338983050847 L698.9966101694915,501.00338983050847" stroke="yellow" stroke-width="2" fill="none" />
<path d="M698.9966101694915,501.00338983050847 L698.9966101694915,533.328813559322" stroke="yellow" stroke-width="2" fill="none" />
<path d="M698.9966101694915,533.328813559322 L731.3220338983051,533.328813559322" stroke="yellow" stroke-width="2" fill="none" />
<path d="M731.3220338983051,533.328813559322 L731.3220338983051,501.00338983050847" stroke="yellow" stroke-width="2" fill="none" />
<path d="M795.9728813559323,1155.593220338983 L763.6474576271187,1155.593220338983" stroke="yellow" stroke-width="2" fill="none" />
<path d="M682.8338983050847,1422.277966101695 L682.8338983050847,1357.6271186440679" stroke="red" stroke-width="2" fill="none" />
<path d="M747.4847457627119,1357.6271186440679 L747.4847457627119,1422.277966101695" stroke="red" stroke-width="2" fill="none" />
<path d="M682.8338983050847,1357.6271186440679 L682.8338983050847,1228.3254237288136" stroke="red" stroke-width="2" fill="none" />
<path d="M747.4847457627119,1228.3254237288136 L747.4847457627119,1357.6271186440679" stroke="red" stroke-width="2" fill="none" />
<path d="M682.8338983050847,1228.3254237288136 L618.1830508474577,1228.3254237288136" stroke="red" stroke-width="2" fill="none" />
<path d="M812.135593220339,1228.3254237288136 L747.4847457627119,1228.3254237288136" stroke="red" stroke-width="2" fill="none" />
<path d="M618.1830508474577,1163.6745762711864 L682.8338983050847,1163.6745762711864" stroke="red" stroke-width="2" fill="none" />
<path d="M682.8338983050847,1163.6745762711864 L682.8338983050847,1034.3728813559321" stroke="red" stroke-width="2" fill="none" />
<path d="M747.4847457627119,1034.3728813559321 L747.4847457627119,1163.6745762711864" stroke="red" stroke-width="2" fill="none" />
<path d="M682.8338983050847,1034.3728813559321 L618.1830508474577,1034.3728813559321" stroke="red" stroke-width="2" fill="none" />
<path d="M618.1830508474577,969.7220338983051 L682.8338983050847,969.7220338983051" stroke="red" stroke-width="2" fill="none" />
<path d="M747.4847457627119,969.7220338983051 L812.135593220339,969.7220338983051" stroke="red" stroke-width="2" fill="none" />
<path d="M812.135593220339,1034.3728813559321 L747.4847457627119,1034.3728813559321" stroke="red" stroke-width="2" fill="none" />
<path d="M618.1830508474577,1228.3254237288136 L614.142372881356,1212.162711864407" stroke="red" stroke-width="2" fill="none" />
<path d="M614.142372881356,1212.162711864407 L614.142372881356,1179.8372881355933" stroke="red" stroke-width="2" fill="none" />
<path d="M614.142372881356,1179.8372881355933 L618.1830508474577,1163.6745762711864" stroke="red" stroke-width="2" fill="none" />
<path d="M795.9728813559323,1163.6745762711864 L812.135593220339,1163.6745762711864" stroke="red" stroke-width="2" fill="none" />
<path d="M763.6474576271187,1099.0237288135593 L828.2983050847458,1099.0237288135593" stroke="red" stroke-width="2" fill="none" />
<path d="M828.2983050847458,1131.3491525423728 L795.9728813559323,1131.3491525423728" stroke="red" stroke-width="2" fill="none" />
<path d="M618.1830508474577,1034.3728813559321 L614.142372881356,1018.2101694915254" stroke="red" stroke-width="2" fill="none" />
<path d="M614.142372881356,985.8847457627119 L618.1830508474577,969.7220338983051" stroke="red" stroke-width="2" fill="none" />
<path d="M816.1762711864408,985.8847457627119 L816.1762711864408,1018.2101694915254" stroke="red" stroke-width="2" fill="none" />
<path d="M816.1762711864408,1179.8372881355933 L816.1762711864408,1212.162711864407" stroke="red" stroke-width="2" fill="none" />
<path d="M816.1762711864408,1212.162711864407 L812.135593220339,1228.3254237288136" stroke="red" stroke-width="2" fill="none" />
<path d="M812.135593220339,1163.6745762711864 L816.1762711864408,1179.8372881355933" stroke="red" stroke-width="2" fill="none" />
<path d="M812.135593220339,969.7220338983051 L816.1762711864408,985.8847457627119" stroke="red" stroke-width="2" fill="none" />
<path d="M816.1762711864408,1018.2101694915254 L812.135593220339,1034.3728813559321" stroke="red" stroke-width="2" fill="none" />
<path d="M828.2983050847458,1099.0237288135593 L828.2983050847458,1066.6983050847457" stroke="red" stroke-width="2" fill="none" />
<path d="M828.2983050847458,1163.6745762711864 L828.2983050847458,1131.3491525423728" stroke="red" stroke-width="2" fill="none" />
<path d="M828.2983050847458,1066.6983050847457 L860.6237288135594,1066.6983050847457" stroke="red" stroke-width="2" fill="none" />
<path d="M860.6237288135594,1066.6983050847457 L892.949152542373,1070.7389830508475" stroke="red" stroke-width="2" fill="none" />
<path d="M892.949152542373,1070.7389830508475 L909.1118644067797,1099.0237288135593" stroke="red" stroke-width="2" fill="none" />
<path d="M909.1118644067797,1099.0237288135593 L909.1118644067797,1131.3491525423728" stroke="red" stroke-width="2" fill="none" />
<path d="M909.1118644067797,1131.3491525423728 L892.949152542373,1159.6338983050848" stroke="red" stroke-width="2" fill="none" />
<path d="M892.949152542373,1159.6338983050848 L860.6237288135594,1163.6745762711864" stroke="red" stroke-width="2" fill="none" />
<path d="M860.6237288135594,1163.6745762711864 L828.2983050847458,1163.6745762711864" stroke="red" stroke-width="2" fill="none" />
<path d="M581.8169491525424,1018.2101694915254 L581.8169491525424,1050.535593220339" stroke="red" stroke-width="2" fill="none" />
<path d="M517.1661016949153,1046.4949152542372 L488.8813559322034,1030.3322033898305" stroke="red" stroke-width="2" fill="none" />
<path d="M488.8813559322034,973.7627118644068 L517.1661016949153,957.6" stroke="red" stroke-width="2" fill="none" />
<path d="M581.8169491525424,953.5593220338983 L581.8169491525424,985.8847457627119" stroke="red" stroke-width="2" fill="none" />
<path d="M614.142372881356,1018.2101694915254 L606.0610169491525,1018.2101694915254" stroke="red" stroke-width="2" fill="none" />
<path d="M606.0610169491525,1018.2101694915254 L581.8169491525424,1018.2101694915254" stroke="red" stroke-width="2" fill="none" />
<path d="M581.8169491525424,985.8847457627119 L606.0610169491525,985.8847457627119" stroke="red" stroke-width="2" fill="none" />
<path d="M606.0610169491525,985.8847457627119 L614.142372881356,985.8847457627119" stroke="red" stroke-width="2" fill="none" />
<path d="M488.8813559322034,1030.3322033898305 L484.84067796610174,998.0067796610169" stroke="red" stroke-width="2" fill="none" />
<path d="M484.84067796610174,998.0067796610169 L488.8813559322034,973.7627118644068" stroke="red" stroke-width="2" fill="none" />
<path d="M517.1661016949153,957.6 L549.4915254237288,953.5593220338983" stroke="red" stroke-width="2" fill="none" />
<path d="M549.4915254237288,953.5593220338983 L581.8169491525424,953.5593220338983" stroke="red" stroke-width="2" fill="none" />
<path d="M581.8169491525424,1050.535593220339 L549.4915254237288,1050.535593220339" stroke="red" stroke-width="2" fill="none" />
<path d="M549.4915254237288,1050.535593220339 L517.1661016949153,1046.4949152542372" stroke="red" stroke-width="2" fill="none" />
<path d="M650.5084745762712,670.7118644067797 L715.1593220338983,783.8508474576271" stroke="red" stroke-width="2" fill="none" />
<path d="M715.1593220338983,783.8508474576271 L779.8101694915255,670.7118644067797" stroke="red" stroke-width="2" fill="none" />
<path d="M779.8101694915255,670.7118644067797 L723.2406779661018,638.3864406779661" stroke="red" stroke-width="2" fill="none" />
<path d="M755.5661016949152,581.8169491525423 L812.135593220339,614.1423728813559" stroke="red" stroke-width="2" fill="none" />
<path d="M707.077966101695,638.3864406779661 L650.5084745762712,670.7118644067797" stroke="red" stroke-width="2" fill="none" />
<path d="M618.1830508474577,614.1423728813559 L674.7525423728814,581.8169491525423" stroke="red" stroke-width="2" fill="none" />
<path d="M682.8338983050847,840.4203389830509 L618.1830508474577,727.2813559322034" stroke="red" stroke-width="2" fill="none" />
<path d="M856.5830508474577,715.1593220338983 L828.2983050847458,698.9966101694915" stroke="red" stroke-width="2" fill="none" />
<path d="M860.6237288135594,642.4271186440678 L888.9084745762713,658.5898305084745" stroke="red" stroke-width="2" fill="none" />
<path d="M812.135593220339,727.2813559322034 L747.4847457627119,840.4203389830509" stroke="red" stroke-width="2" fill="none" />
<path d="M828.2983050847458,698.9966101694915 L812.135593220339,727.2813559322034" stroke="red" stroke-width="2" fill="none" />
<path d="M618.1830508474577,727.2813559322034 L602.0203389830508,698.9966101694915" stroke="red" stroke-width="2" fill="none" />
<path d="M602.0203389830508,698.9966101694915 L573.7355932203391,715.1593220338983" stroke="red" stroke-width="2" fill="none" />
<path d="M541.4101694915255,658.5898305084745 L569.6949152542373,642.4271186440678" stroke="red" stroke-width="2" fill="none" />
<path d="M876.7864406779661,614.1423728813559 L860.6237288135594,642.4271186440678" stroke="red" stroke-width="2" fill="none" />
<path d="M569.6949152542373,642.4271186440678 L553.5322033898306,614.1423728813559" stroke="red" stroke-width="2" fill="none" />
<path d="M723.2406779661018,638.3864406779661 L707.077966101695,638.3864406779661" stroke="red" stroke-width="2" fill="none" />
<path d="M682.8338983050847,969.7220338983051 L682.8338983050847,872.7457627118645" stroke="red" stroke-width="2" fill="none" />
<path d="M682.8338983050847,872.7457627118645 L682.8338983050847,840.4203389830509" stroke="red" stroke-width="2" fill="none" />
<path d="M747.4847457627119,840.4203389830509 L747.4847457627119,872.7457627118645" stroke="red" stroke-width="2" fill="none" />
<path d="M747.4847457627119,872.7457627118645 L747.4847457627119,969.7220338983051" stroke="red" stroke-width="2" fill="none" />
<path d="M553.5322033898306,614.1423728813559 L327.2542372881356,218.15593220338974" stroke="red" stroke-width="2" fill="none" />
<path d="M812.135593220339,614.1423728813559 L876.7864406779661,501.00338983050847" stroke="red" stroke-width="2" fill="none" />
<path d="M941.4372881355932,387.86440677966095 L1006.0881355932204,274.72542372881355" stroke="red" stroke-width="2" fill="none" />
<path d="M424.23050847457625,274.72542372881355 L488.8813559322034,387.86440677966095" stroke="red" stroke-width="2" fill="none" />
<path d="M553.5322033898306,501.00338983050847 L618.1830508474577,614.1423728813559" stroke="red" stroke-width="2" fill="none" />
<path d="M1103.064406779661,218.15593220338974 L876.7864406779661,614.1423728813559" stroke="red" stroke-width="2" fill="none" />
<path d="M545.4508474576271,355.5389830508474 L521.206779661017,303.0101694915254" stroke="red" stroke-width="2" fill="none" />
<path d="M674.7525423728814,581.8169491525423 L610.1016949152543,468.6779661016949" stroke="red" stroke-width="2" fill="none" />
<path d="M820.2169491525424,468.6779661016949 L755.5661016949152,581.8169491525423" stroke="red" stroke-width="2" fill="none" />
<path d="M909.1118644067797,303.0101694915254 L884.8677966101695,355.5389830508474" stroke="red" stroke-width="2" fill="none" />
<path d="M610.1016949152543,468.6779661016949 L581.8169491525424,484.8406779661017" stroke="red" stroke-width="2" fill="none" />
<path d="M581.8169491525424,484.8406779661017 L553.5322033898306,501.00338983050847" stroke="red" stroke-width="2" fill="none" />
<path d="M488.8813559322034,387.86440677966095 L517.1661016949153,371.70169491525417" stroke="red" stroke-width="2" fill="none" />
<path d="M517.1661016949153,371.70169491525417 L545.4508474576271,355.5389830508474" stroke="red" stroke-width="2" fill="none" />
<path d="M876.7864406779661,501.00338983050847 L848.5016949152542,484.8406779661017" stroke="red" stroke-width="2" fill="none" />
<path d="M848.5016949152542,484.8406779661017 L820.2169491525424,468.6779661016949" stroke="red" stroke-width="2" fill="none" />
<path d="M884.8677966101695,355.5389830508474 L913.1525423728814,371.70169491525417" stroke="red" stroke-width="2" fill="none" />
<path d="M913.1525423728814,371.70169491525417 L941.4372881355932,387.86440677966095" stroke="red" stroke-width="2" fill="none" />
<path d="M1006.0881355932204,274.72542372881355 L747.4847457627119,274.72542372881355" stroke="red" stroke-width="2" fill="none" />
<path d="M682.8338983050847,274.72542372881355 L424.23050847457625,274.72542372881355" stroke="red" stroke-width="2" fill="none" />
<path d="M521.206779661017,303.0101694915254 L682.8338983050847,303.0101694915254" stroke="red" stroke-width="2" fill="none" />
<path d="M747.4847457627119,303.0101694915254 L909.1118644067797,303.0101694915254" stroke="red" stroke-width="2" fill="none" />
<path d="M682.8338983050847,303.0101694915254 L682.8338983050847,274.72542372881355" stroke="red" stroke-width="2" fill="none" />
<path d="M747.4847457627119,274.72542372881355 L747.4847457627119,303.0101694915254" stroke="red" stroke-width="2" fill="none" />
<path d="M585.8576271186441,1458.6440677966102 L650.5084745762712,1454.6033898305086" stroke="red" stroke-width="2" fill="none" />
<path d="M779.8101694915255,1454.6033898305086 L836.3796610169492,1486.928813559322" stroke="red" stroke-width="2" fill="none" />
<path d="M836.3796610169492,1486.928813559322 L901.0305084745763,1490.9694915254238" stroke="red" stroke-width="2" fill="none" />
<path d="M901.0305084745763,1490.9694915254238 L905.071186440678,1555.620338983051" stroke="red" stroke-width="2" fill="none" />
<path d="M553.5322033898306,1515.213559322034 L585.8576271186441,1458.6440677966102" stroke="red" stroke-width="2" fill="none" />
<path d="M905.071186440678,1555.620338983051 L961.6406779661017,1587.9457627118645" stroke="red" stroke-width="2" fill="none" />
<path d="M961.6406779661017,1587.9457627118645 L929.3152542372882,1644.5152542372882" stroke="red" stroke-width="2" fill="none" />
<path d="M929.3152542372882,1644.5152542372882 L925.2745762711864,1709.1661016949154" stroke="red" stroke-width="2" fill="none" />
<path d="M585.8576271186441,1571.7830508474576 L553.5322033898306,1515.213559322034" stroke="red" stroke-width="2" fill="none" />
<path d="M585.8576271186441,1636.4338983050848 L585.8576271186441,1571.7830508474576" stroke="red" stroke-width="2" fill="none" />
<path d="M589.8983050847457,1701.084745762712 L585.8576271186441,1636.4338983050848" stroke="red" stroke-width="2" fill="none" />
<path d="M771.728813559322,1802.1016949152543 L739.4033898305086,1802.1016949152543" stroke="red" stroke-width="2" fill="none" />
<path d="M739.4033898305086,1802.1016949152543 L711.1186440677966,1785.9389830508476" stroke="red" stroke-width="2" fill="none" />
<path d="M711.1186440677966,1785.9389830508476 L646.4677966101696,1781.898305084746" stroke="red" stroke-width="2" fill="none" />
<path d="M646.4677966101696,1781.898305084746 L642.4271186440678,1717.2474576271188" stroke="red" stroke-width="2" fill="none" />
<path d="M642.4271186440678,1717.2474576271188 L589.8983050847457,1701.084745762712" stroke="red" stroke-width="2" fill="none" />
<path d="M650.5084745762712,1454.6033898305086 L682.8338983050847,1454.6033898305086" stroke="red" stroke-width="2" fill="none" />
<path d="M747.4847457627119,1454.6033898305086 L779.8101694915255,1454.6033898305086" stroke="red" stroke-width="2" fill="none" />
<path d="M682.8338983050847,1454.6033898305086 L682.8338983050847,1422.277966101695" stroke="red" stroke-width="2" fill="none" />
<path d="M747.4847457627119,1422.277966101695 L747.4847457627119,1454.6033898305086" stroke="red" stroke-width="2" fill="none" />
<path d="M836.3796610169492,1745.5322033898306 L804.0542372881356,1745.5322033898306" stroke="red" stroke-width="2" fill="none" />
<path d="M840.4203389830509,1777.8576271186441 L836.3796610169492,1745.5322033898306" stroke="red" stroke-width="2" fill="none" />
<path d="M872.7457627118645,1834.4271186440678 L840.4203389830509,1777.8576271186441" stroke="red" stroke-width="2" fill="none" />
<path d="M860.6237288135594,1713.206779661017 L925.2745762711864,1826.3457627118646" stroke="red" stroke-width="2" fill="none" />
<path d="M925.2745762711864,1826.3457627118646 L957.6,1826.3457627118646" stroke="red" stroke-width="2" fill="none" />
<path d="M957.6,1826.3457627118646 L973.7627118644068,1798.0610169491526" stroke="red" stroke-width="2" fill="none" />
<path d="M973.7627118644068,1798.0610169491526 L1038.413559322034,1798.0610169491526" stroke="red" stroke-width="2" fill="none" />
<path d="M1038.413559322034,1798.0610169491526 L1054.5762711864409,1826.3457627118646" stroke="red" stroke-width="2" fill="none" />
<path d="M864.664406779661,1899.077966101695 L872.7457627118645,1834.4271186440678" stroke="red" stroke-width="2" fill="none" />
<path d="M973.7627118644068,1858.671186440678 L909.1118644067797,1858.671186440678" stroke="red" stroke-width="2" fill="none" />
<path d="M1006.0881355932204,1854.6305084745763 L973.7627118644068,1858.671186440678" stroke="red" stroke-width="2" fill="none" />
<path d="M1038.413559322034,1854.6305084745763 L1006.0881355932204,1854.6305084745763" stroke="red" stroke-width="2" fill="none" />
<path d="M909.1118644067797,1858.671186440678 L905.071186440678,1923.322033898305" stroke="red" stroke-width="2" fill="none" />
<path d="M868.7050847457627,1963.7288135593221 L864.664406779661,1899.077966101695" stroke="red" stroke-width="2" fill="none" />
<path d="M884.8677966101695,1992.0135593220339 L868.7050847457627,1963.7288135593221" stroke="red" stroke-width="2" fill="none" />
<path d="M1054.5762711864409,1826.3457627118646 L1038.413559322034,1854.6305084745763" stroke="red" stroke-width="2" fill="none" />
<path d="M876.7864406779661,1713.206779661017 L868.7050847457627,1668.7593220338983" stroke="red" stroke-width="2" fill="none" />
<path d="M868.7050847457627,1668.7593220338983 L828.2983050847458,1656.6372881355933" stroke="red" stroke-width="2" fill="none" />
<path d="M925.2745762711864,1709.1661016949154 L876.7864406779661,1713.206779661017" stroke="red" stroke-width="2" fill="none" />
<path d="M828.2983050847458,1656.6372881355933 L860.6237288135594,1713.206779661017" stroke="red" stroke-width="2" fill="none" />
<path d="M905.071186440678,1923.322033898305 L969.7220338983052,1931.4033898305086" stroke="red" stroke-width="2" fill="none" />
<path d="M969.7220338983052,1931.4033898305086 L973.7627118644068,1963.7288135593221" stroke="red" stroke-width="2" fill="none" />
<path d="M949.5186440677967,1996.0542372881357 L884.8677966101695,1992.0135593220339" stroke="red" stroke-width="2" fill="none" />
<path d="M973.7627118644068,1996.0542372881357 L949.5186440677967,1996.0542372881357" stroke="red" stroke-width="2" fill="none" />
<path d="M981.8440677966103,1963.7288135593221 L1006.0881355932204,1963.7288135593221" stroke="red" stroke-width="2" fill="none" />
<path d="M1006.0881355932204,1963.7288135593221 L1006.0881355932204,1996.0542372881357" stroke="red" stroke-width="2" fill="none" />
<path d="M1006.0881355932204,1996.0542372881357 L981.8440677966103,1996.0542372881357" stroke="red" stroke-width="2" fill="none" />
<path d="M804.0542372881356,1745.5322033898306 L795.9728813559323,1761.6949152542375" stroke="red" stroke-width="2" fill="none" />
<path d="M795.9728813559323,1761.6949152542375 L787.8915254237288,1773.8169491525423" stroke="red" stroke-width="2" fill="none" />
<path d="M787.8915254237288,1773.8169491525423 L779.8101694915255,1789.9796610169492" stroke="red" stroke-width="2" fill="none" />
<path d="M779.8101694915255,1789.9796610169492 L771.728813559322,1802.1016949152543" stroke="red" stroke-width="2" fill="none" />
<path d="M682.8338983050847,141.38305084745753 L682.8338983050847,76.73220338983037" stroke="red" stroke-width="2" fill="none" />
<path d="M747.4847457627119,76.73220338983037 L747.4847457627119,141.38305084745753" stroke="red" stroke-width="2" fill="none" />
<path d="M747.4847457627119,141.38305084745753 L755.5661016949152,141.38305084745753" stroke="red" stroke-width="2" fill="none" />
<path d="M755.5661016949152,141.38305084745753 L755.5661016949152,153.5050847457626" stroke="red" stroke-width="2" fill="none" />
<path d="M755.5661016949152,153.5050847457626 L747.4847457627119,153.5050847457626" stroke="red" stroke-width="2" fill="none" />
<path d="M682.8338983050847,153.5050847457626 L674.7525423728814,153.5050847457626" stroke="red" stroke-width="2" fill="none" />
<path d="M674.7525423728814,153.5050847457626 L674.7525423728814,141.38305084745753" stroke="red" stroke-width="2" fill="none" />
<path d="M674.7525423728814,141.38305084745753 L682.8338983050847,141.38305084745753" stroke="red" stroke-width="2" fill="none" />
<path d="M682.8338983050847,76.73220338983037 L593.9389830508475,76.73220338983037" stroke="red" stroke-width="2" fill="none" />
<path d="M593.9389830508475,76.73220338983037 L593.9389830508475,12.081355932203223" stroke="red" stroke-width="2" fill="none" />
<path d="M836.3796610169492,76.73220338983037 L747.4847457627119,76.73220338983037" stroke="red" stroke-width="2" fill="none" />
<path d="M836.3796610169492,12.081355932203223 L836.3796610169492,76.73220338983037" stroke="red" stroke-width="2" fill="none" />
<path d="M626.264406779661,44.4067796610168 L698.9966101694915,44.4067796610168" stroke="red" stroke-width="2" fill="none" />
<path d="M731.3220338983051,44.4067796610168 L804.0542372881356,44.4067796610168" stroke="red" stroke-width="2" fill="none" />
<path d="M626.264406779661,12.081355932203223 L626.264406779661,44.4067796610168" stroke="red" stroke-width="2" fill="none" />
<path d="M698.9966101694915,44.4067796610168 L698.9966101694915,12.081355932203223" stroke="red" stroke-width="2" fill="none" />
<path d="M731.3220338983051,12.081355932203223 L731.3220338983051,44.4067796610168" stroke="red" stroke-width="2" fill="none" />
<path d="M804.0542372881356,44.4067796610168 L804.0542372881356,12.081355932203223" stroke="red" stroke-width="2" fill="none" />
<path d="M682.8338983050847,218.15593220338974 L682.8338983050847,153.5050847457626" stroke="red" stroke-width="2" fill="none" />
<path d="M747.4847457627119,153.5050847457626 L747.4847457627119,218.15593220338974" stroke="red" stroke-width="2" fill="none" />
<path d="M901.0305084745763,666.671186440678 L929.3152542372882,682.8338983050847" stroke="red" stroke-width="2" fill="none" />
<path d="M929.3152542372882,682.8338983050847 L957.6,698.9966101694915" stroke="red" stroke-width="2" fill="none" />
<path d="M896.9898305084746,739.4033898305084 L868.7050847457627,723.2406779661017" stroke="red" stroke-width="2" fill="none" />
<path d="M925.2745762711864,755.5661016949152 L896.9898305084746,739.4033898305084" stroke="red" stroke-width="2" fill="none" />
<path d="M981.8440677966103,787.8915254237288 L925.2745762711864,755.5661016949152" stroke="red" stroke-width="2" fill="none" />
<path d="M1014.1694915254238,731.3220338983051 L981.8440677966103,787.8915254237288" stroke="red" stroke-width="2" fill="none" />
<path d="M327.2542372881356,218.15593220338974 L650.5084745762712,218.15593220338974" stroke="red" stroke-width="2" fill="none" />
<path d="M650.5084745762712,218.15593220338974 L682.8338983050847,218.15593220338974" stroke="red" stroke-width="2" fill="none" />
<path d="M747.4847457627119,218.15593220338974 L779.8101694915255,218.15593220338974" stroke="red" stroke-width="2" fill="none" />
<path d="M779.8101694915255,218.15593220338974 L1103.064406779661,218.15593220338974" stroke="red" stroke-width="2" fill="none" />
<path d="M888.9084745762713,658.5898305084745 L892.949152542373,650.5084745762712" stroke="red" stroke-width="2" fill="none" />
<path d="M892.949152542373,650.5084745762712 L905.071186440678,658.5898305084745" stroke="red" stroke-width="2" fill="none" />
<path d="M905.071186440678,658.5898305084745 L901.0305084745763,666.671186440678" stroke="red" stroke-width="2" fill="none" />
<path d="M868.7050847457627,723.2406779661017 L864.664406779661,731.3220338983051" stroke="red" stroke-width="2" fill="none" />
<path d="M864.664406779661,731.3220338983051 L852.542372881356,723.2406779661017" stroke="red" stroke-width="2" fill="none" />
<path d="M852.542372881356,723.2406779661017 L856.5830508474577,715.1593220338983" stroke="red" stroke-width="2" fill="none" />
<path d="M957.6,698.9966101694915 L973.7627118644068,670.7118644067797" stroke="red" stroke-width="2" fill="none" />
<path d="M1030.3322033898305,703.0372881355933 L1014.1694915254238,731.3220338983051" stroke="red" stroke-width="2" fill="none" />
<path d="M945.477966101695,654.5491525423729 L888.9084745762713,622.2237288135593" stroke="red" stroke-width="2" fill="none" />
<path d="M973.7627118644068,670.7118644067797 L945.477966101695,654.5491525423729" stroke="red" stroke-width="2" fill="none" />
<path d="M977.8033898305085,597.9796610169491 L1006.0881355932204,614.1423728813559" stroke="red" stroke-width="2" fill="none" />
<path d="M1006.0881355932204,614.1423728813559 L1062.657627118644,646.4677966101694" stroke="red" stroke-width="2" fill="none" />
<path d="M1062.657627118644,646.4677966101694 L1030.3322033898305,703.0372881355933" stroke="red" stroke-width="2" fill="none" />
<path d="M888.9084745762713,622.2237288135593 L921.2338983050847,565.6542372881356" stroke="red" stroke-width="2" fill="none" />
<path d="M993.9661016949153,569.6949152542372 L977.8033898305085,597.9796610169491" stroke="red" stroke-width="2" fill="none" />
<path d="M921.2338983050847,565.6542372881356 L937.3966101694916,537.3694915254237" stroke="red" stroke-width="2" fill="none" />
<path d="M969.7220338983052,480.79999999999995 L1026.291525423729,513.1254237288135" stroke="red" stroke-width="2" fill="none" />
<path d="M937.3966101694916,537.3694915254237 L969.7220338983052,480.79999999999995" stroke="red" stroke-width="2" fill="none" />
<path d="M1022.2508474576272,585.857627118644 L993.9661016949153,569.6949152542372" stroke="red" stroke-width="2" fill="none" />
<path d="M1026.291525423729,513.1254237288135 L1054.5762711864409,529.2881355932203" stroke="red" stroke-width="2" fill="none" />
<path d="M1050.535593220339,602.0203389830508 L1022.2508474576272,585.857627118644" stroke="red" stroke-width="2" fill="none" />
<path d="M1054.5762711864409,529.2881355932203 L1082.8610169491526,545.4508474576271" stroke="red" stroke-width="2" fill="none" />
<path d="M1078.820338983051,618.1830508474576 L1050.535593220339,602.0203389830508" stroke="red" stroke-width="2" fill="none" />
<path d="M1082.8610169491526,545.4508474576271 L1111.1457627118643,561.6135593220339" stroke="red" stroke-width="2" fill="none" />
<path d="M1107.1050847457627,634.3457627118644 L1078.820338983051,618.1830508474576" stroke="red" stroke-width="2" fill="none" />
<path d="M1111.1457627118643,561.6135593220339 L1139.4305084745763,577.7762711864407" stroke="red" stroke-width="2" fill="none" />
<path d="M1090.942372881356,662.6305084745762 L1107.1050847457627,634.3457627118644" stroke="red" stroke-width="2" fill="none" />
<path d="M1163.6745762711864,666.671186440678 L1147.5118644067798,694.9559322033898" stroke="red" stroke-width="2" fill="none" />
<path d="M1074.7796610169491,690.9152542372881 L1090.942372881356,662.6305084745762" stroke="red" stroke-width="2" fill="none" />
<path d="M1147.5118644067798,694.9559322033898 L1131.3491525423728,723.2406779661017" stroke="red" stroke-width="2" fill="none" />
<path d="M1058.6169491525425,719.2 L1074.7796610169491,690.9152542372881" stroke="red" stroke-width="2" fill="none" />
<path d="M1131.3491525423728,723.2406779661017 L1115.1864406779662,751.5254237288136" stroke="red" stroke-width="2" fill="none" />
<path d="M1042.4542372881356,747.4847457627118 L1058.6169491525425,719.2" stroke="red" stroke-width="2" fill="none" />
<path d="M1115.1864406779662,751.5254237288136 L1099.0237288135595,779.8101694915254" stroke="red" stroke-width="2" fill="none" />
<path d="M1026.291525423729,775.7694915254237 L1042.4542372881356,747.4847457627118" stroke="red" stroke-width="2" fill="none" />
<path d="M1099.0237288135595,779.8101694915254 L1082.8610169491526,808.0949152542373" stroke="red" stroke-width="2" fill="none" />
<path d="M1010.128813559322,804.0542372881356 L1026.291525423729,775.7694915254237" stroke="red" stroke-width="2" fill="none" />
<path d="M1082.8610169491526,808.0949152542373 L1066.6983050847457,836.3796610169492" stroke="red" stroke-width="2" fill="none" />
<path d="M993.9661016949153,832.3389830508474 L1010.128813559322,804.0542372881356" stroke="red" stroke-width="2" fill="none" />
<path d="M1066.6983050847457,836.3796610169492 L1050.535593220339,864.664406779661" stroke="red" stroke-width="2" fill="none" />
<path d="M707.077966101695,4.0 L723.2406779661018,4.0" stroke="lavender" stroke-width="2" fill="none" />
<path d="M602.0203389830508,4.0 L618.1830508474577,4.0" stroke="lavender" stroke-width="2" fill="none" />
<path d="M593.9389830508475,12.081355932203223 L602.0203389830508,12.081355932203223" stroke="red" stroke-width="2" fill="none" />
<path d="M618.1830508474577,12.081355932203223 L626.264406779661,12.081355932203223" stroke="red" stroke-width="2" fill="none" />
<path d="M698.9966101694915,12.081355932203223 L707.077966101695,12.081355932203223" stroke="red" stroke-width="2" fill="none" />
<path d="M723.2406779661018,12.081355932203223 L731.3220338983051,12.081355932203223" stroke="red" stroke-width="2" fill="none" />
<path d="M804.0542372881356,12.081355932203223 L812.135593220339,12.081355932203223" stroke="red" stroke-width="2" fill="none" />
<path d="M828.2983050847458,12.081355932203223 L836.3796610169492,12.081355932203223" stroke="red" stroke-width="2" fill="none" />
<path d="M602.0203389830508,12.081355932203223 L602.0203389830508,4.0" stroke="red" stroke-width="2" fill="none" />
<path d="M618.1830508474577,4.0 L618.1830508474577,12.081355932203223" stroke="red" stroke-width="2" fill="none" />
<path d="M707.077966101695,12.081355932203223 L707.077966101695,4.0" stroke="red" stroke-width="2" fill="none" />
<path d="M723.2406779661018,4.0 L723.2406779661018,12.081355932203223" stroke="red" stroke-width="2" fill="none" />
<path d="M812.135593220339,12.081355932203223 L812.135593220339,4.0" stroke="red" stroke-width="2" fill="none" />
<path d="M828.2983050847458,4.0 L828.2983050847458,12.081355932203223" stroke="red" stroke-width="2" fill="none" />
<path d="M1139.4305084745763,577.7762711864407 L1196.0,610.1016949152543" stroke="red" stroke-width="2" fill="none" />
<path d="M1196.0,610.1016949152543 L1163.6745762711864,666.671186440678" stroke="red" stroke-width="2" fill="none" />
<path d="M973.7627118644068,892.9491525423729 L977.8033898305085,860.6237288135593" stroke="red" stroke-width="2" fill="none" />
<path d="M973.7627118644068,925.2745762711864 L973.7627118644068,892.9491525423729" stroke="red" stroke-width="2" fill="none" />
<path d="M941.4372881355932,925.2745762711864 L973.7627118644068,925.2745762711864" stroke="red" stroke-width="2" fill="none" />
<path d="M941.4372881355932,892.9491525423729 L941.4372881355932,925.2745762711864" stroke="red" stroke-width="2" fill="none" />
<path d="M977.8033898305085,860.6237288135593 L993.9661016949153,832.3389830508474" stroke="red" stroke-width="2" fill="none" />
<path d="M1050.535593220339,864.664406779661 L1034.3728813559323,892.9491525423729" stroke="red" stroke-width="2" fill="none" />
<path d="M1034.3728813559323,892.9491525423729 L1034.3728813559323,925.2745762711864" stroke="red" stroke-width="2" fill="none" />
<path d="M913.1525423728814,876.7864406779661 L941.4372881355932,892.9491525423729" stroke="red" stroke-width="2" fill="none" />
<path d="M945.477966101695,840.4203389830509 L913.1525423728814,844.4610169491525" stroke="red" stroke-width="2" fill="none" />
<path d="M945.477966101695,775.7694915254237 L945.477966101695,840.4203389830509" stroke="red" stroke-width="2" fill="none" />
<path d="M1034.3728813559323,957.6 L941.4372881355932,957.6" stroke="red" stroke-width="2" fill="none" />
<path d="M941.4372881355932,957.6 L941.4372881355932,989.9254237288136" stroke="red" stroke-width="2" fill="none" />
<path d="M941.4372881355932,989.9254237288136 L913.1525423728814,1006.0881355932204" stroke="red" stroke-width="2" fill="none" />
<path d="M848.5016949152542,1006.0881355932204 L844.4610169491526,973.7627118644068" stroke="red" stroke-width="2" fill="none" />
<path d="M844.4610169491526,973.7627118644068 L816.1762711864408,957.6" stroke="red" stroke-width="2" fill="none" />
<path d="M816.1762711864408,957.6 L783.8508474576272,957.6" stroke="red" stroke-width="2" fill="none" />
<path d="M816.1762711864408,925.2745762711864 L844.4610169491526,909.1118644067797" stroke="red" stroke-width="2" fill="none" />
<path d="M844.4610169491526,909.1118644067797 L848.5016949152542,876.7864406779661" stroke="red" stroke-width="2" fill="none" />
<path d="M848.5016949152542,876.7864406779661 L880.8271186440678,876.7864406779661" stroke="red" stroke-width="2" fill="none" />
<path d="M880.8271186440678,844.4610169491525 L848.5016949152542,844.4610169491525" stroke="red" stroke-width="2" fill="none" />
<path d="M848.5016949152542,775.7694915254237 L945.477966101695,775.7694915254237" stroke="red" stroke-width="2" fill="none" />
<path d="M1066.6983050847457,925.2745762711864 L1066.6983050847457,892.9491525423729" stroke="red" stroke-width="2" fill="none" />
<path d="M1066.6983050847457,892.9491525423729 L1094.9830508474577,876.7864406779661" stroke="red" stroke-width="2" fill="none" />
<path d="M783.8508474576272,957.6 L783.8508474576272,860.6237288135593" stroke="red" stroke-width="2" fill="none" />
<path d="M783.8508474576272,860.6237288135593 L812.135593220339,844.4610169491525" stroke="red" stroke-width="2" fill="none" />
<path d="M812.135593220339,844.4610169491525 L812.135593220339,812.1355932203389" stroke="red" stroke-width="2" fill="none" />
<path d="M812.135593220339,812.1355932203389 L844.4610169491526,808.0949152542373" stroke="red" stroke-width="2" fill="none" />
<path d="M844.4610169491526,808.0949152542373 L848.5016949152542,775.7694915254237" stroke="red" stroke-width="2" fill="none" />
<path d="M848.5016949152542,844.4610169491525 L844.4610169491526,876.7864406779661" stroke="red" stroke-width="2" fill="none" />
<path d="M844.4610169491526,876.7864406779661 L816.1762711864408,892.9491525423729" stroke="red" stroke-width="2" fill="none" />
<path d="M816.1762711864408,892.9491525423729 L816.1762711864408,925.2745762711864" stroke="red" stroke-width="2" fill="none" />
<path d="M913.1525423728814,864.664406779661 L913.1525423728814,876.7864406779661" stroke="red" stroke-width="2" fill="none" />
<path d="M880.8271186440678,876.7864406779661 L880.8271186440678,864.664406779661" stroke="red" stroke-width="2" fill="none" />
<path d="M880.8271186440678,864.664406779661 L880.8271186440678,844.4610169491525" stroke="red" stroke-width="2" fill="none" />
<path d="M913.1525423728814,844.4610169491525 L913.1525423728814,864.664406779661" stroke="red" stroke-width="2" fill="none" />
<path d="M1066.6983050847457,989.9254237288136 L1066.6983050847457,957.6" stroke="red" stroke-width="2" fill="none" />
<path d="M1094.9830508474577,1006.0881355932204 L1066.6983050847457,989.9254237288136" stroke="red" stroke-width="2" fill="none" />
<path d="M1094.9830508474577,876.7864406779661 L1159.6338983050848,876.7864406779661" stroke="red" stroke-width="2" fill="none" />
<path d="M1159.6338983050848,876.7864406779661 L1163.6745762711864,909.1118644067797" stroke="red" stroke-width="2" fill="none" />
<path d="M1163.6745762711864,909.1118644067797 L1191.9593220338984,925.2745762711864" stroke="red" stroke-width="2" fill="none" />
<path d="M1191.9593220338984,925.2745762711864 L1191.9593220338984,957.6" stroke="red" stroke-width="2" fill="none" />
<path d="M1191.9593220338984,957.6 L1163.6745762711864,973.7627118644068" stroke="red" stroke-width="2" fill="none" />
<path d="M1163.6745762711864,973.7627118644068 L1159.6338983050848,1006.0881355932204" stroke="red" stroke-width="2" fill="none" />
<path d="M1159.6338983050848,1006.0881355932204 L1143.4711864406781,1006.0881355932204" stroke="red" stroke-width="2" fill="none" />
<path d="M1111.1457627118643,1006.0881355932204 L1094.9830508474577,1006.0881355932204" stroke="red" stroke-width="2" fill="none" />
<path d="M913.1525423728814,1006.0881355932204 L896.9898305084746,1006.0881355932204" stroke="red" stroke-width="2" fill="none" />
<path d="M864.664406779661,1006.0881355932204 L848.5016949152542,1006.0881355932204" stroke="red" stroke-width="2" fill="none" />
<path d="M1034.3728813559323,925.2745762711864 L1046.4949152542374,925.2745762711864" stroke="red" stroke-width="2" fill="none" />
<path d="M1046.4949152542374,925.2745762711864 L1066.6983050847457,925.2745762711864" stroke="red" stroke-width="2" fill="none" />
<path d="M1066.6983050847457,957.6 L1046.4949152542374,957.6" stroke="red" stroke-width="2" fill="none" />
<path d="M1046.4949152542374,957.6 L1034.3728813559323,957.6" stroke="red" stroke-width="2" fill="none" />
<path d="M864.664406779661,1018.2101694915254 L864.664406779661,1006.0881355932204" stroke="red" stroke-width="2" fill="none" />
<path d="M896.9898305084746,1006.0881355932204 L896.9898305084746,1018.2101694915254" stroke="red" stroke-width="2" fill="none" />
<path d="M864.664406779661,1050.535593220339 L864.664406779661,1018.2101694915254" stroke="red" stroke-width="2" fill="none" />
<path d="M1111.1457627118643,1018.2101694915254 L1111.1457627118643,1006.0881355932204" stroke="red" stroke-width="2" fill="none" />
<path d="M1143.4711864406781,1006.0881355932204 L1143.4711864406781,1018.2101694915254" stroke="red" stroke-width="2" fill="none" />
<path d="M896.9898305084746,1018.2101694915254 L929.3152542372882,1018.2101694915254" stroke="red" stroke-width="2" fill="none" />
<path d="M929.3152542372882,1018.2101694915254 L957.6,1002.0474576271187" stroke="red" stroke-width="2" fill="none" />
<path d="M957.6,1002.0474576271187 L961.6406779661017,969.7220338983051" stroke="red" stroke-width="2" fill="none" />
<path d="M1143.4711864406781,1018.2101694915254 L1143.4711864406781,1050.535593220339" stroke="red" stroke-width="2" fill="none" />
<path d="M1143.4711864406781,1050.535593220339 L1078.820338983051,1050.535593220339" stroke="red" stroke-width="2" fill="none" />
<path d="M929.3152542372882,1050.535593220339 L864.664406779661,1050.535593220339" stroke="red" stroke-width="2" fill="none" />
<path d="M1078.820338983051,1018.2101694915254 L1111.1457627118643,1018.2101694915254" stroke="red" stroke-width="2" fill="none" />
<path d="M1050.535593220339,1002.0474576271187 L1078.820338983051,1018.2101694915254" stroke="red" stroke-width="2" fill="none" />
<path d="M1046.4949152542374,969.7220338983051 L1050.535593220339,1002.0474576271187" stroke="red" stroke-width="2" fill="none" />
<path d="M961.6406779661017,1054.5762711864406 L929.3152542372882,1050.535593220339" stroke="red" stroke-width="2" fill="none" />
<path d="M1078.820338983051,1050.535593220339 L1046.4949152542374,1054.5762711864406" stroke="red" stroke-width="2" fill="none" />
<path d="M1046.4949152542374,1054.5762711864406 L1018.2101694915254,1070.7389830508475" stroke="red" stroke-width="2" fill="none" />
<path d="M1018.2101694915254,1070.7389830508475 L989.9254237288136,1070.7389830508475" stroke="red" stroke-width="2" fill="none" />
<path d="M989.9254237288136,1070.7389830508475 L961.6406779661017,1054.5762711864406" stroke="red" stroke-width="2" fill="none" />
<path d="M961.6406779661017,969.7220338983051 L985.8847457627119,977.8033898305084" stroke="red" stroke-width="2" fill="none" />
<path d="M985.8847457627119,977.8033898305084 L1006.0881355932204,969.7220338983051" stroke="red" stroke-width="2" fill="none" />
<path d="M1006.0881355932204,969.7220338983051 L1026.291525423729,977.8033898305084" stroke="red" stroke-width="2" fill="none" />
<path d="M1026.291525423729,977.8033898305084 L1046.4949152542374,969.7220338983051" stroke="red" stroke-width="2" fill="none" />
<path d="M573.7355932203391,715.1593220338983 L577.7762711864407,723.2406779661017" stroke="red" stroke-width="2" fill="none" />
<path d="M577.7762711864407,723.2406779661017 L565.6542372881356,731.3220338983051" stroke="red" stroke-width="2" fill="none" />
<path d="M565.6542372881356,731.3220338983051 L561.6135593220339,723.2406779661017" stroke="red" stroke-width="2" fill="none" />
<path d="M529.2881355932203,666.671186440678 L525.2474576271186,658.5898305084745" stroke="red" stroke-width="2" fill="none" />
<path d="M525.2474576271186,658.5898305084745 L537.3694915254238,650.5084745762712" stroke="red" stroke-width="2" fill="none" />
<path d="M537.3694915254238,650.5084745762712 L541.4101694915255,658.5898305084745" stroke="red" stroke-width="2" fill="none" />
<path d="M561.6135593220339,723.2406779661017 L533.328813559322,739.4033898305084" stroke="red" stroke-width="2" fill="none" />
<path d="M533.328813559322,739.4033898305084 L505.0440677966102,755.5661016949152" stroke="red" stroke-width="2" fill="none" />
<path d="M505.0440677966102,755.5661016949152 L476.75932203389834,771.728813559322" stroke="red" stroke-width="2" fill="none" />
<path d="M476.75932203389834,771.728813559322 L448.47457627118644,787.8915254237288" stroke="red" stroke-width="2" fill="none" />
<path d="M448.47457627118644,787.8915254237288 L391.90508474576274,820.2169491525424" stroke="red" stroke-width="2" fill="none" />
<path d="M501.00338983050847,682.8338983050847 L529.2881355932203,666.671186440678" stroke="red" stroke-width="2" fill="none" />
<path d="M472.7186440677966,698.9966101694915 L501.00338983050847,682.8338983050847" stroke="red" stroke-width="2" fill="none" />
<path d="M444.43389830508477,715.1593220338983 L472.7186440677966,698.9966101694915" stroke="red" stroke-width="2" fill="none" />
<path d="M416.1491525423729,731.3220338983051 L444.43389830508477,715.1593220338983" stroke="red" stroke-width="2" fill="none" />
<path d="M359.57966101694916,698.9966101694915 L416.1491525423729,731.3220338983051" stroke="red" stroke-width="2" fill="none" />
<path d="M440.39322033898304,913.1525423728813 L416.1491525423729,941.4372881355932" stroke="red" stroke-width="2" fill="none" />
<path d="M452.51525423728816,921.2338983050847 L440.39322033898304,913.1525423728813" stroke="red" stroke-width="2" fill="none" />
<path d="M424.23050847457625,953.5593220338983 L452.51525423728816,921.2338983050847" stroke="red" stroke-width="2" fill="none" />
<path d="M529.2881355932203,913.1525423728813 L460.59661016949156,1002.0474576271187" stroke="red" stroke-width="2" fill="none" />
<path d="M460.59661016949156,1002.0474576271187 L395.9457627118644,1038.413559322034" stroke="red" stroke-width="2" fill="none" />
<path d="M230.27796610169491,1038.413559322034 L149.46440677966098,985.8847457627119" stroke="red" stroke-width="2" fill="none" />
<path d="M149.46440677966098,985.8847457627119 L109.05762711864406,929.3152542372882" stroke="red" stroke-width="2" fill="none" />
<path d="M109.05762711864406,759.606779661017 L157.54576271186443,670.7118644067797" stroke="red" stroke-width="2" fill="none" />
<path d="M157.54576271186443,670.7118644067797 L222.19661016949158,634.3457627118644" stroke="red" stroke-width="2" fill="none" />
<path d="M391.90508474576274,820.2169491525424 L395.9457627118644,852.542372881356" stroke="red" stroke-width="2" fill="none" />
<path d="M812.135593220339,4.0 L828.2983050847458,4.0" stroke="lavender" stroke-width="2" fill="none" />
<path d="M359.57966101694916,634.3457627118644 L359.57966101694916,686.8745762711865" stroke="red" stroke-width="2" fill="none" />
<path d="M359.57966101694916,686.8745762711865 L359.57966101694916,698.9966101694915" stroke="red" stroke-width="2" fill="none" />
<path d="M416.1491525423729,941.4372881355932 L424.23050847457625,953.5593220338983" stroke="red" stroke-width="2" fill="none" />
<path d="M476.75932203389834,868.7050847457626 L488.8813559322034,880.8271186440678" stroke="red" stroke-width="2" fill="none" />
<path d="M488.8813559322034,880.8271186440678 L529.2881355932203,913.1525423728813" stroke="red" stroke-width="2" fill="none" />
<path d="M395.9457627118644,852.542372881356 L436.3525423728814,832.3389830508474" stroke="red" stroke-width="2" fill="none" />
<path d="M436.3525423728814,832.3389830508474 L476.75932203389834,868.7050847457626" stroke="red" stroke-width="2" fill="none" />
<path d="M222.19661016949158,634.3457627118644 L242.39999999999998,634.3457627118644" stroke="red" stroke-width="2" fill="none" />
<path d="M339.3762711864407,634.3457627118644 L359.57966101694916,634.3457627118644" stroke="red" stroke-width="2" fill="none" />
<path d="M339.3762711864407,626.264406779661 L339.3762711864407,634.3457627118644" stroke="red" stroke-width="2" fill="none" />
<path d="M359.57966101694916,626.264406779661 L339.3762711864407,626.264406779661" stroke="red" stroke-width="2" fill="none" />
<path d="M242.39999999999998,626.264406779661 L222.19661016949158,626.264406779661" stroke="red" stroke-width="2" fill="none" />
<path d="M242.39999999999998,634.3457627118644 L242.39999999999998,626.264406779661" stroke="red" stroke-width="2" fill="none" />
<path d="M222.19661016949158,626.264406779661 L222.19661016949158,529.2881355932203" stroke="red" stroke-width="2" fill="none" />
<path d="M222.19661016949158,529.2881355932203 L359.57966101694916,529.2881355932203" stroke="red" stroke-width="2" fill="none" />
<path d="M359.57966101694916,529.2881355932203 L359.57966101694916,626.264406779661" stroke="red" stroke-width="2" fill="none" />
<path d="M100.97627118644061,896.9898305084746 L100.97627118644061,929.3152542372882" stroke="red" stroke-width="2" fill="none" />
<path d="M109.05762711864406,896.9898305084746 L100.97627118644061,896.9898305084746" stroke="red" stroke-width="2" fill="none" />
<path d="M100.97627118644061,791.9322033898304 L109.05762711864406,791.9322033898304" stroke="red" stroke-width="2" fill="none" />
<path d="M4.0,759.606779661017 L100.97627118644061,759.606779661017" stroke="red" stroke-width="2" fill="none" />
<path d="M4.0,929.3152542372882 L4.0,759.606779661017" stroke="red" stroke-width="2" fill="none" />
<path d="M100.97627118644061,759.606779661017 L100.97627118644061,791.9322033898304" stroke="red" stroke-width="2" fill="none" />
<path d="M109.05762711864406,929.3152542372882 L109.05762711864406,896.9898305084746" stroke="red" stroke-width="2" fill="none" />
<path d="M109.05762711864406,791.9322033898304 L109.05762711864406,759.606779661017" stroke="red" stroke-width="2" fill="none" />
<path d="M395.9457627118644,1038.413559322034 L363.62033898305083,1038.413559322034" stroke="red" stroke-width="2" fill="none" />
<path d="M363.62033898305083,1038.413559322034 L363.62033898305083,1046.4949152542372" stroke="red" stroke-width="2" fill="none" />
<path d="M363.62033898305083,1046.4949152542372 L395.9457627118644,1046.4949152542372" stroke="red" stroke-width="2" fill="none" />
<path d="M230.27796610169491,1046.4949152542372 L262.6033898305085,1046.4949152542372" stroke="red" stroke-width="2" fill="none" />
<path d="M262.6033898305085,1046.4949152542372 L262.6033898305085,1038.413559322034" stroke="red" stroke-width="2" fill="none" />
<path d="M262.6033898305085,1038.413559322034 L230.27796610169491,1038.413559322034" stroke="red" stroke-width="2" fill="none" />
<path d="M395.9457627118644,1046.4949152542372 L395.9457627118644,1143.471186440678" stroke="red" stroke-width="2" fill="none" />
<path d="M395.9457627118644,1143.471186440678 L230.27796610169491,1143.471186440678" stroke="red" stroke-width="2" fill="none" />
<path d="M230.27796610169491,1143.471186440678 L230.27796610169491,1046.4949152542372" stroke="red" stroke-width="2" fill="none" />
<path d="M100.97627118644061,929.3152542372882 L4.0,929.3152542372882" stroke="red" stroke-width="2" fill="none" />
<path d="M973.7627118644068,1963.7288135593221 L977.8033898305085,1963.7288135593221" stroke="red" stroke-width="2" fill="none" />
<path d="M977.8033898305085,1963.7288135593221 L981.8440677966103,1963.7288135593221" stroke="red" stroke-width="2" fill="none" />
<path d="M981.8440677966103,1996.0542372881357 L977.8033898305085,1996.0542372881357" stroke="red" stroke-width="2" fill="none" />
<path d="M977.8033898305085,1996.0542372881357 L973.7627118644068,1996.0542372881357" stroke="red" stroke-width="2" fill="none" />
<path d="M747.4847457627119,1163.6745762711864 L763.6474576271187,1163.6745762711864" stroke="red" stroke-width="2" fill="none" />
<path d="M763.6474576271187,1163.6745762711864 L763.6474576271187,1155.593220338983" stroke="red" stroke-width="2" fill="none" />
<path d="M763.6474576271187,1155.593220338983 L763.6474576271187,1099.0237288135593" stroke="red" stroke-width="2" fill="none" />
<path d="M795.9728813559323,1131.3491525423728 L795.9728813559323,1155.593220338983" stroke="red" stroke-width="2" fill="none" />
<path d="M795.9728813559323,1155.593220338983 L795.9728813559323,1163.6745762711864" stroke="red" stroke-width="2" fill="none" />
</svg>