<?xml version="1.0" encoding="UTF-8"?>
<svg xmlns="http://www.w3.org/2000/svg" xmlns:xlink="http://www.w3.org/1999/xlink"
     width="1200" height="1132" viewBox="0 0 1200 1132">
<defs>
</defs>
<path d="M341.35849056603774,566.2641509433962 L341.35849056603774,611.2452830188679" stroke="yellow" stroke-width="2" fill="none" />
<path d="M318.8679245283019,566.2641509433962 L318.8679245283019,611.2452830188679" stroke="yellow" stroke-width="2" fill="none" />
<path d="M296.37735849056605,566.2641509433962 L296.37735849056605,611.2452830188679" stroke="yellow" stroke-width="2" fill="none" />
<path d="M273.8867924528302,566.2641509433962 L273.8867924528302,611.2452830188679" stroke="yellow" stroke-width="2" fill="none" />
<path d="M251.39622641509433,566.2641509433962 L251.39622641509433,611.2452830188679" stroke="yellow" stroke-width="2" fill="none" />
<path d="M228.9056603773585,566.2641509433962 L228.9056603773585,611.2452830188679" stroke="yellow" stroke-width="2" fill="none" />
<path d="M206.41509433962264,566.2641509433962 L206.41509433962264,611.2452830188679" stroke="yellow" stroke-width="2" fill="none" />
<path d="M768.6792452830189,611.2452830188679 L768.6792452830189,566.2641509433962" stroke="yellow" stroke-width="2" fill="none" />
<path d="M746.188679245283,611.2452830188679 L746.188679245283,566.2641509433962" stroke="yellow" stroke-width="2" fill="none" />
<path d="M723.6981132075472,611.2452830188679 L723.6981132075472,566.2641509433962" stroke="yellow" stroke-width="2" fill="none" />
<path d="M701.2075471698113,611.2452830188679 L701.2075471698113,566.2641509433962" stroke="yellow" stroke-width="2" fill="none" />
<path d="M678.7169811320755,611.2452830188679 L678.7169811320755,566.2641509433962" stroke="yellow" stroke-width="2" fill="none" />
<path d="M656.2264150943396,611.2452830188679 L656.2264150943396,566.2641509433962" stroke="yellow" stroke-width="2" fill="none" />
<path d="M791.1698113207548,611.2452830188679 L791.1698113207548,566.2641509433962" stroke="yellow" stroke-width="2" fill="none" />
<path d="M892.377358490566,633.7358490566038 L892.377358490566,543.7735849056603" stroke="lavender" stroke-width="2" fill="none" />
<path d="M892.377358490566,543.7735849056603 L926.1132075471698,543.7735849056603" stroke="lavender" stroke-width="2" fill="none" />
<path d="M926.1132075471698,633.7358490566038 L892.377358490566,633.7358490566038" stroke="lavender" stroke-width="2" fill="none" />
<path d="M93.96226415094338,543.7735849056603 L138.94339622641508,543.7735849056603" stroke="yellow" stroke-width="2" fill="none" />
<path d="M138.94339622641508,543.7735849056603 L138.94339622641508,633.7358490566038" stroke="yellow" stroke-width="2" fill="none" />
<path d="M138.94339622641508,633.7358490566038 L93.96226415094338,633.7358490566038" stroke="yellow" stroke-width="2" fill="none" />
<path d="M408.8301886792453,723.6981132075472 L363.8490566037736,678.7169811320755" stroke="yellow" stroke-width="2" fill="none" />
<path d="M476.3018867924528,746.188679245283 L521.2830188679245,746.188679245283" stroke="yellow" stroke-width="2" fill="none" />
<path d="M476.3018867924528,768.6792452830189 L521.2830188679245,768.6792452830189" stroke="yellow" stroke-width="2" fill="none" />
<path d="M476.3018867924528,791.1698113207547 L521.2830188679245,791.1698113207547" stroke="yellow" stroke-width="2" fill="none" />
<path d="M476.3018867924528,813.6603773584906 L521.2830188679245,813.6603773584906" stroke="yellow" stroke-width="2" fill="none" />
<path d="M476.3018867924528,836.1509433962264 L521.2830188679245,836.1509433962264" stroke="yellow" stroke-width="2" fill="none" />
<path d="M476.3018867924528,858.6415094339623 L521.2830188679245,858.6415094339623" stroke="yellow" stroke-width="2" fill="none" />
<path d="M476.3018867924528,881.132075471698 L521.2830188679245,881.132075471698" stroke="yellow" stroke-width="2" fill="none" />
<path d="M453.811320754717,948.6037735849056 L543.7735849056604,948.6037735849056" stroke="yellow" stroke-width="2" fill="none" />
<path d="M543.7735849056604,948.6037735849056 L543.7735849056604,993.5849056603773" stroke="yellow" stroke-width="2" fill="none" />
<path d="M543.7735849056604,993.5849056603773 L453.811320754717,993.5849056603773" stroke="yellow" stroke-width="2" fill="none" />
<path d="M453.811320754717,993.5849056603773 L453.811320754717,948.6037735849056" stroke="yellow" stroke-width="2" fill="none" />
<path d="M521.2830188679245,431.3207547169811 L476.3018867924528,431.3207547169811" stroke="yellow" stroke-width="2" fill="none" />
<path d="M521.2830188679245,408.8301886792452 L476.3018867924528,408.8301886792452" stroke="yellow" stroke-width="2" fill="none" />
<path d="M521.2830188679245,386.33962264150944 L476.3018867924528,386.33962264150944" stroke="yellow" stroke-width="2" fill="none" />
<path d="M521.2830188679245,363.84905660377353 L476.3018867924528,363.84905660377353" stroke="yellow" stroke-width="2" fill="none" />
<path d="M521.2830188679245,341.3584905660377 L476.3018867924528,341.3584905660377" stroke="yellow" stroke-width="2" fill="none" />
<path d="M521.2830188679245,330.1132075471698 L476.3018867924528,330.1132075471698" stroke="yellow" stroke-width="2" fill="none" />
<path d="M521.2830188679245,296.377358490566 L476.3018867924528,296.377358490566" stroke="yellow" stroke-width="2" fill="none" />
<path d="M633.7358490566038,993.5849056603773 L633.7358490566038,948.6037735849056" stroke="yellow" stroke-width="2" fill="none" />
<path d="M656.2264150943396,993.5849056603773 L656.2264150943396,948.6037735849056" stroke="yellow" stroke-width="2" fill="none" />
<path d="M678.7169811320755,993.5849056603773 L678.7169811320755,948.6037735849056" stroke="yellow" stroke-width="2" fill="none" />
<path d="M701.2075471698113,993.5849056603773 L701.2075471698113,948.6037735849056" stroke="yellow" stroke-width="2" fill="none" />
<path d="M723.6981132075472,993.5849056603773 L723.6981132075472,948.6037735849056" stroke="yellow" stroke-width="2" fill="none" />
<path d="M734.9433962264151,993.5849056603773 L734.9433962264151,948.6037735849056" stroke="yellow" stroke-width="2" fill="none" />
<path d="M768.6792452830189,993.5849056603773 L768.6792452830189,948.6037735849056" stroke="yellow" stroke-width="2" fill="none" />
<path d="M858.6415094339623,723.6981132075472 L903.622641509434,723.6981132075472" stroke="yellow" stroke-width="2" fill="none" />
<path d="M858.6415094339623,746.188679245283 L903.622641509434,746.188679245283" stroke="yellow" stroke-width="2" fill="none" />
<path d="M858.6415094339623,768.6792452830189 L903.622641509434,768.6792452830189" stroke="yellow" stroke-width="2" fill="none" />
<path d="M858.6415094339623,791.1698113207547 L903.622641509434,791.1698113207547" stroke="yellow" stroke-width="2" fill="none" />
<path d="M858.6415094339623,813.6603773584906 L903.622641509434,813.6603773584906" stroke="yellow" stroke-width="2" fill="none" />
<path d="M858.6415094339623,824.9056603773585 L903.622641509434,824.9056603773585" stroke="yellow" stroke-width="2" fill="none" />
<path d="M858.6415094339623,858.6415094339623 L903.622641509434,858.6415094339623" stroke="yellow" stroke-width="2" fill="none" />
<path d="M791.1698113207548,1038.566037735849 L791.1698113207548,881.132075471698" stroke="yellow" stroke-width="2" fill="none" />
<path d="M656.2264150943396,228.90566037735846 L656.2264150943396,183.92452830188677" stroke="yellow" stroke-width="2" fill="none" />
<path d="M678.7169811320755,228.90566037735846 L678.7169811320755,183.92452830188677" stroke="yellow" stroke-width="2" fill="none" />
<path d="M701.2075471698113,228.90566037735846 L701.2075471698113,183.92452830188677" stroke="yellow" stroke-width="2" fill="none" />
<path d="M723.6981132075472,228.90566037735846 L723.6981132075472,183.92452830188677" stroke="yellow" stroke-width="2" fill="none" />
<path d="M746.188679245283,228.90566037735846 L746.188679245283,183.92452830188677" stroke="yellow" stroke-width="2" fill="none" />
<path d="M768.6792452830189,228.90566037735846 L768.6792452830189,183.92452830188677" stroke="lavender" stroke-width="2" fill="none" />
<path d="M948.6037735849056,296.377358490566 L791.1698113207548,296.377358490566" stroke="yellow" stroke-width="2" fill="none" />
<path d="M791.1698113207548,296.377358490566 L791.1698113207548,138.94339622641508" stroke="yellow" stroke-width="2" fill="none" />
<path d="M791.1698113207548,138.94339622641508 L948.6037735849056,296.377358490566" stroke="yellow" stroke-width="2" fill="none" />
<path d="M633.7358490566038,217.6603773584905 L633.7358490566038,195.16981132075466" stroke="lavender" stroke-width="2" fill="none" />
<path d="M93.96226415094338,723.6981132075472 L138.94339622641508,723.6981132075472" stroke="yellow" stroke-width="2" fill="none" />
<path d="M93.96226415094338,746.188679245283 L138.94339622641508,746.188679245283" stroke="yellow" stroke-width="2" fill="none" />
<path d="M93.96226415094338,768.6792452830189 L138.94339622641508,768.6792452830189" stroke="yellow" stroke-width="2" fill="none" />
<path d="M93.96226415094338,791.1698113207547 L138.94339622641508,791.1698113207547" stroke="yellow" stroke-width="2" fill="none" />
<path d="M93.96226415094338,813.6603773584906 L138.94339622641508,813.6603773584906" stroke="yellow" stroke-width="2" fill="none" />
<path d="M93.96226415094338,824.9056603773585 L138.94339622641508,824.9056603773585" stroke="yellow" stroke-width="2" fill="none" />
<path d="M93.96226415094338,858.6415094339623 L138.94339622641508,858.6415094339623" stroke="yellow" stroke-width="2" fill="none" />
<path d="M138.94339622641508,341.3584905660377 L93.96226415094338,341.3584905660377" stroke="yellow" stroke-width="2" fill="none" />
<path d="M138.94339622641508,363.84905660377353 L93.96226415094338,363.84905660377353" stroke="yellow" stroke-width="2" fill="none" />
<path d="M138.94339622641508,386.33962264150944 L93.96226415094338,386.33962264150944" stroke="yellow" stroke-width="2" fill="none" />
<path d="M138.94339622641508,408.8301886792452 L93.96226415094338,408.8301886792452" stroke="yellow" stroke-width="2" fill="none" />
<path d="M138.94339622641508,431.3207547169811 L93.96226415094338,431.3207547169811" stroke="yellow" stroke-width="2" fill="none" />
<path d="M138.94339622641508,453.8113207547169 L93.96226415094338,453.8113207547169" stroke="yellow" stroke-width="2" fill="none" />
<path d="M138.94339622641508,318.86792452830184 L93.96226415094338,318.86792452830184" stroke="yellow" stroke-width="2" fill="none" />
<path d="M262.64150943396226,948.6037735849056 L262.64150943396226,993.5849056603773" stroke="yellow" stroke-width="2" fill="none" />
<path d="M273.8867924528302,948.6037735849056 L273.8867924528302,993.5849056603773" stroke="yellow" stroke-width="2" fill="none" />
<path d="M296.37735849056605,948.6037735849056 L296.37735849056605,993.5849056603773" stroke="yellow" stroke-width="2" fill="none" />
<path d="M318.8679245283019,948.6037735849056 L318.8679245283019,993.5849056603773" stroke="yellow" stroke-width="2" fill="none" />
<path d="M341.35849056603774,948.6037735849056 L341.35849056603774,993.5849056603773" stroke="yellow" stroke-width="2" fill="none" />
<path d="M363.8490566037736,948.6037735849056 L363.8490566037736,993.5849056603773" stroke="yellow" stroke-width="2" fill="none" />
<path d="M228.9056603773585,948.6037735849056 L228.9056603773585,993.5849056603773" stroke="yellow" stroke-width="2" fill="none" />
<path d="M791.1698113207548,881.132075471698 L948.6037735849056,881.132075471698" stroke="yellow" stroke-width="2" fill="none" />
<path d="M48.98113207547169,881.132075471698 L206.41509433962264,881.132075471698" stroke="yellow" stroke-width="2" fill="none" />
<path d="M206.41509433962264,881.132075471698 L206.41509433962264,1038.566037735849" stroke="yellow" stroke-width="2" fill="none" />
<path d="M206.41509433962264,1038.566037735849 L48.98113207547169,881.132075471698" stroke="yellow" stroke-width="2" fill="none" />
<path d="M462.2452830188679,633.7358490566038 L535.3396226415094,633.7358490566038" stroke="yellow" stroke-width="2" fill="none" />
<path d="M535.3396226415094,543.7735849056603 L462.2452830188679,543.7735849056603" stroke="yellow" stroke-width="2" fill="none" />
<path d="M453.811320754717,552.2075471698113 L453.811320754717,625.3018867924528" stroke="yellow" stroke-width="2" fill="none" />
<path d="M543.7735849056604,625.3018867924528 L543.7735849056604,552.2075471698113" stroke="yellow" stroke-width="2" fill="none" />
<path d="M754.622641509434,948.6037735849056 L754.622641509434,993.5849056603773" stroke="lavender" stroke-width="2" fill="none" />
<path d="M760.2452830188679,993.5849056603773 L760.2452830188679,948.6037735849056" stroke="lavender" stroke-width="2" fill="none" />
<path d="M858.6415094339623,850.2075471698113 L903.622641509434,850.2075471698113" stroke="lavender" stroke-width="2" fill="none" />
<path d="M903.622641509434,844.5849056603773 L858.6415094339623,844.5849056603773" stroke="lavender" stroke-width="2" fill="none" />
<path d="M93.96226415094338,611.2452830188679 L93.96226415094338,566.2641509433962" stroke="yellow" stroke-width="2" fill="none" />
<path d="M82.71698113207546,611.2452830188679 L82.71698113207546,566.2641509433962" stroke="yellow" stroke-width="2" fill="none" />
<path d="M26.490566037735846,622.4905660377358 L71.47169811320754,622.4905660377358" stroke="yellow" stroke-width="2" fill="none" />
<path d="M71.47169811320754,555.0188679245283 L26.490566037735846,555.0188679245283" stroke="yellow" stroke-width="2" fill="none" />
<path d="M237.33962264150944,948.6037735849056 L237.33962264150944,993.5849056603773" stroke="lavender" stroke-width="2" fill="none" />
<path d="M242.96226415094338,993.5849056603773 L242.96226415094338,948.6037735849056" stroke="lavender" stroke-width="2" fill="none" />
<path d="M93.96226415094338,850.2075471698113 L138.94339622641508,850.2075471698113" stroke="lavender" stroke-width="2" fill="none" />
<path d="M138.94339622641508,844.5849056603773 L93.96226415094338,844.5849056603773" stroke="lavender" stroke-width="2" fill="none" />
<path d="M71.47169811320754,1083.5471698113206 L26.490566037735846,1083.5471698113206" stroke="yellow" stroke-width="2" fill="none" />
<path d="M448.188679245283,942.9811320754717 L448.188679245283,999.2075471698113" stroke="yellow" stroke-width="2" fill="none" />
<path d="M448.188679245283,999.2075471698113 L549.3962264150944,999.2075471698113" stroke="yellow" stroke-width="2" fill="none" />
<path d="M549.3962264150944,999.2075471698113 L549.3962264150944,942.9811320754717" stroke="yellow" stroke-width="2" fill="none" />
<path d="M549.3962264150944,942.9811320754717 L448.188679245283,942.9811320754717" stroke="yellow" stroke-width="2" fill="none" />
<path d="M161.43396226415092,1061.0566037735848 L116.45283018867923,1061.0566037735848" stroke="yellow" stroke-width="2" fill="none" />
<path d="M116.45283018867923,1072.301886792453 L161.43396226415092,1072.301886792453" stroke="lavender" stroke-width="2" fill="none" />
<path d="M431.3207547169811,1061.0566037735848 L386.33962264150944,1061.0566037735848" stroke="yellow" stroke-width="2" fill="none" />
<path d="M386.33962264150944,1072.301886792453 L431.3207547169811,1072.301886792453" stroke="lavender" stroke-width="2" fill="none" />
<path d="M251.39622641509433,1083.5471698113206 L251.39622641509433,1128.5283018867924" stroke="yellow" stroke-width="2" fill="none" />
<path d="M273.8867924528302,1083.5471698113206 L273.8867924528302,1128.5283018867924" stroke="yellow" stroke-width="2" fill="none" />
<path d="M296.37735849056605,1083.5471698113206 L296.37735849056605,1128.5283018867924" stroke="yellow" stroke-width="2" fill="none" />
<path d="M318.8679245283019,1083.5471698113206 L318.8679245283019,1128.5283018867924" stroke="yellow" stroke-width="2" fill="none" />
<path d="M341.35849056603774,1083.5471698113206 L341.35849056603774,1128.5283018867924" stroke="yellow" stroke-width="2" fill="none" />
<path d="M363.8490566037736,1083.5471698113206 L363.8490566037736,1128.5283018867924" stroke="yellow" stroke-width="2" fill="none" />
<path d="M251.39622641509433,718.0754716981132 L251.39622641509433,695.5849056603773" stroke="yellow" stroke-width="2" fill="none" />
<path d="M228.9056603773585,1083.5471698113206 L228.9056603773585,1128.5283018867924" stroke="yellow" stroke-width="2" fill="none" />
<path d="M611.2452830188679,903.622641509434 L588.7547169811321,903.622641509434" stroke="lavender" stroke-width="2" fill="none" />
<path d="M588.7547169811321,903.622641509434 L588.7547169811321,881.132075471698" stroke="lavender" stroke-width="2" fill="none" />
<path d="M791.1698113207548,678.7169811320755 L813.6603773584906,678.7169811320755" stroke="lavender" stroke-width="2" fill="none" />
<path d="M813.6603773584906,678.7169811320755 L813.6603773584906,701.2075471698113" stroke="lavender" stroke-width="2" fill="none" />
<path d="M689.9622641509434,869.8867924528302 L622.4905660377359,802.4150943396226" stroke="lavender" stroke-width="2" fill="none" />
<path d="M712.4528301886793,712.4528301886792 L779.9245283018868,779.9245283018868" stroke="lavender" stroke-width="2" fill="none" />
<path d="M723.6981132075472,768.6792452830189 L678.7169811320755,768.6792452830189" stroke="yellow" stroke-width="2" fill="none" />
<path d="M678.7169811320755,768.6792452830189 L678.7169811320755,813.6603773584906" stroke="yellow" stroke-width="2" fill="none" />
<path d="M678.7169811320755,813.6603773584906 L723.6981132075472,813.6603773584906" stroke="yellow" stroke-width="2" fill="none" />
<path d="M723.6981132075472,813.6603773584906 L723.6981132075472,768.6792452830189" stroke="yellow" stroke-width="2" fill="none" />
<path d="M622.4905660377359,768.6792452830189 L678.7169811320755,712.4528301886792" stroke="yellow" stroke-width="2" fill="none" />
<path d="M611.2452830188679,881.132075471698 L588.7547169811321,881.132075471698" stroke="lavender" stroke-width="2" fill="none" />
<path d="M611.2452830188679,903.622641509434 L611.2452830188679,881.132075471698" stroke="lavender" stroke-width="2" fill="none" />
<path d="M791.1698113207548,701.2075471698113 L813.6603773584906,701.2075471698113" stroke="lavender" stroke-width="2" fill="none" />
<path d="M791.1698113207548,678.7169811320755 L791.1698113207548,701.2075471698113" stroke="lavender" stroke-width="2" fill="none" />
<path d="M926.1132075471698,633.7358490566038 L926.1132075471698,543.7735849056603" stroke="lavender" stroke-width="2" fill="none" />
<path d="M1016.0754716981132,656.2264150943396 L1016.0754716981132,521.2830188679245" stroke="lavender" stroke-width="2" fill="none" />
<path d="M1128.5283018867924,611.2452830188679 L1128.5283018867924,633.7358490566038" stroke="yellow" stroke-width="2" fill="none" />
<path d="M1128.5283018867924,633.7358490566038 L1151.0188679245282,633.7358490566038" stroke="yellow" stroke-width="2" fill="none" />
<path d="M1151.0188679245282,633.7358490566038 L1151.0188679245282,611.2452830188679" stroke="yellow" stroke-width="2" fill="none" />
<path d="M1151.0188679245282,611.2452830188679 L1128.5283018867924,611.2452830188679" stroke="yellow" stroke-width="2" fill="none" />
<path d="M1151.0188679245282,543.7735849056603 L1151.0188679245282,566.2641509433962" stroke="yellow" stroke-width="2" fill="none" />
<path d="M1151.0188679245282,566.2641509433962 L1173.5094339622642,566.2641509433962" stroke="yellow" stroke-width="2" fill="none" />
<path d="M1173.5094339622642,566.2641509433962 L1173.5094339622642,543.7735849056603" stroke="yellow" stroke-width="2" fill="none" />
<path d="M1173.5094339622642,543.7735849056603 L1151.0188679245282,543.7735849056603" stroke="yellow" stroke-width="2" fill="none" />
<path d="M1083.5471698113208,566.2641509433962 L1083.5471698113208,588.754716981132" stroke="yellow" stroke-width="2" fill="none" />
<path d="M1083.5471698113208,588.754716981132 L1106.0377358490566,588.754716981132" stroke="yellow" stroke-width="2" fill="none" />
<path d="M1106.0377358490566,588.754716981132 L1106.0377358490566,566.2641509433962" stroke="yellow" stroke-width="2" fill="none" />
<path d="M1106.0377358490566,566.2641509433962 L1083.5471698113208,566.2641509433962" stroke="yellow" stroke-width="2" fill="none" />
<path d="M1038.566037735849,431.3207547169811 L1196.0,431.3207547169811" stroke="lavender" stroke-width="2" fill="none" />
<path d="M150.18867924528303,217.6603773584905 L138.94339622641508,183.92452830188677" stroke="yellow" stroke-width="2" fill="none" />
<path d="M183.92452830188677,217.6603773584905 L150.18867924528303,217.6603773584905" stroke="yellow" stroke-width="2" fill="none" />
<path d="M138.94339622641508,183.92452830188677 L127.69811320754717,217.6603773584905" stroke="yellow" stroke-width="2" fill="none" />
<path d="M127.69811320754717,217.6603773584905 L93.96226415094338,217.6603773584905" stroke="yellow" stroke-width="2" fill="none" />
<path d="M93.96226415094338,217.6603773584905 L122.0754716981132,234.5283018867924" stroke="yellow" stroke-width="2" fill="none" />
<path d="M155.81132075471697,234.5283018867924 L183.92452830188677,217.6603773584905" stroke="yellow" stroke-width="2" fill="none" />
<path d="M122.0754716981132,234.5283018867924 L105.2075471698113,265.45283018867923" stroke="yellow" stroke-width="2" fill="none" />
<path d="M105.2075471698113,265.45283018867923 L138.94339622641508,242.96226415094338" stroke="yellow" stroke-width="2" fill="none" />
<path d="M138.94339622641508,242.96226415094338 L172.67924528301887,265.45283018867923" stroke="yellow" stroke-width="2" fill="none" />
<path d="M172.67924528301887,265.45283018867923 L155.81132075471697,234.5283018867924" stroke="yellow" stroke-width="2" fill="none" />
<path d="M138.94339622641508,183.92452830188677 L161.43396226415092,183.92452830188677" stroke="lavender" stroke-width="2" fill="none" />
<path d="M161.43396226415092,183.92452830188677 L183.92452830188677,203.60377358490564" stroke="lavender" stroke-width="2" fill="none" />
<path d="M183.92452830188677,203.60377358490564 L183.92452830188677,217.6603773584905" stroke="lavender" stroke-width="2" fill="none" />
<path d="M183.92452830188677,217.6603773584905 L183.92452830188677,245.77358490566036" stroke="lavender" stroke-width="2" fill="none" />
<path d="M183.92452830188677,245.77358490566036 L172.67924528301887,265.45283018867923" stroke="lavender" stroke-width="2" fill="none" />
<path d="M172.67924528301887,265.45283018867923 L155.81132075471697,273.88679245283015" stroke="lavender" stroke-width="2" fill="none" />
<path d="M155.81132075471697,273.88679245283015 L122.0754716981132,273.88679245283015" stroke="lavender" stroke-width="2" fill="none" />
<path d="M122.0754716981132,273.88679245283015 L105.2075471698113,265.45283018867923" stroke="lavender" stroke-width="2" fill="none" />
<path d="M105.2075471698113,265.45283018867923 L93.96226415094338,245.77358490566036" stroke="lavender" stroke-width="2" fill="none" />
<path d="M93.96226415094338,245.77358490566036 L93.96226415094338,217.6603773584905" stroke="lavender" stroke-width="2" fill="none" />
<path d="M93.96226415094338,217.6603773584905 L93.96226415094338,203.60377358490564" stroke="lavender" stroke-width="2" fill="none" />
<path d="M93.96226415094338,203.60377358490564 L116.45283018867923,183.92452830188677" stroke="lavender" stroke-width="2" fill="none" />
<path d="M116.45283018867923,183.92452830188677 L138.94339622641508,183.92452830188677" stroke="lavender" stroke-width="2" fill="none" />
<path d="M71.47169811320754,124.88679245283015 L43.358490566037716,124.88679245283015" stroke="yellow" stroke-width="2" fill="none" />
<path d="M43.358490566037716,124.88679245283015 L43.358490566037716,150.18867924528297" stroke="yellow" stroke-width="2" fill="none" />
<path d="M110.83018867924528,122.07547169811318 L116.45283018867923,116.45283018867923" stroke="yellow" stroke-width="2" fill="none" />
<path d="M116.45283018867923,71.47169811320748 L110.83018867924528,71.47169811320748" stroke="yellow" stroke-width="2" fill="none" />
<path d="M48.98113207547169,130.5094339622641 L48.98113207547169,150.18867924528297" stroke="lavender" stroke-width="2" fill="none" />
<path d="M71.47169811320754,130.5094339622641 L48.98113207547169,130.5094339622641" stroke="lavender" stroke-width="2" fill="none" />
<path d="M971.0943396226415,971.0943396226414 L881.1320754716982,1061.0566037735848" stroke="yellow" stroke-width="2" fill="none" />
<path d="M881.1320754716982,1069.4905660377358 L979.5283018867925,971.0943396226414" stroke="yellow" stroke-width="2" fill="none" />
<path d="M914.867924528302,982.3396226415094 L892.377358490566,982.3396226415094" stroke="lavender" stroke-width="2" fill="none" />
<path d="M892.377358490566,982.3396226415094 L892.377358490566,1004.8301886792453" stroke="lavender" stroke-width="2" fill="none" />
<path d="M892.377358490566,1004.8301886792453 L914.867924528302,1004.8301886792453" stroke="lavender" stroke-width="2" fill="none" />
<path d="M914.867924528302,1004.8301886792453 L914.867924528302,982.3396226415094" stroke="lavender" stroke-width="2" fill="none" />
<path d="M948.6037735849056,881.132075471698 L791.1698113207548,1038.566037735849" stroke="yellow" stroke-width="2" fill="none" />
<path d="M476.3018867924528,310.4339622641509 L521.2830188679245,310.4339622641509" stroke="lavender" stroke-width="2" fill="none" />
<path d="M521.2830188679245,304.811320754717 L476.3018867924528,304.811320754717" stroke="lavender" stroke-width="2" fill="none" />
<path d="M611.2452830188679,195.16981132075466 L611.2452830188679,217.6603773584905" stroke="lavender" stroke-width="2" fill="none" />
<path d="M386.33962264150944,245.77358490566036 L386.33962264150944,189.5471698113207" stroke="yellow" stroke-width="2" fill="none" />
<path d="M532.5283018867924,116.45283018867923 L588.7547169811321,116.45283018867923" stroke="yellow" stroke-width="2" fill="none" />
<path d="M588.7547169811321,116.45283018867923 L591.566037735849,150.18867924528297" stroke="yellow" stroke-width="2" fill="none" />
<path d="M591.566037735849,150.18867924528297 L585.9433962264151,189.5471698113207" stroke="yellow" stroke-width="2" fill="none" />
<path d="M585.9433962264151,189.5471698113207 L555.0188679245283,209.2264150943396" stroke="yellow" stroke-width="2" fill="none" />
<path d="M555.0188679245283,209.2264150943396 L453.811320754717,242.96226415094338" stroke="yellow" stroke-width="2" fill="none" />
<path d="M453.811320754717,242.96226415094338 L386.33962264150944,245.77358490566036" stroke="yellow" stroke-width="2" fill="none" />
<path d="M386.33962264150944,189.5471698113207 L453.811320754717,183.92452830188677" stroke="yellow" stroke-width="2" fill="none" />
<path d="M453.811320754717,183.92452830188677 L526.9056603773585,161.43396226415092" stroke="yellow" stroke-width="2" fill="none" />
<path d="M526.9056603773585,161.43396226415092 L532.5283018867924,116.45283018867923" stroke="yellow" stroke-width="2" fill="none" />
<path d="M386.33962264150944,150.18867924528297 L420.07547169811323,150.18867924528297" stroke="yellow" stroke-width="2" fill="none" />
<path d="M420.07547169811323,150.18867924528297 L420.07547169811323,116.45283018867923" stroke="yellow" stroke-width="2" fill="none" />
<path d="M453.811320754717,183.92452830188677 L453.811320754717,242.96226415094338" stroke="yellow" stroke-width="2" fill="none" />
<path d="M585.9433962264151,189.5471698113207 L526.9056603773585,161.43396226415092" stroke="yellow" stroke-width="2" fill="none" />
<path d="M397.58490566037733,63.03773584905662 L363.8490566037736,77.09433962264143" stroke="lavender" stroke-width="2" fill="none" />
<path d="M363.8490566037736,77.09433962264143 L349.79245283018867,116.45283018867923" stroke="lavender" stroke-width="2" fill="none" />
<path d="M386.33962264150944,296.377358490566 L386.33962264150944,251.3962264150943" stroke="yellow" stroke-width="2" fill="none" />
<path d="M380.7169811320755,251.3962264150943 L380.7169811320755,296.377358490566" stroke="lavender" stroke-width="2" fill="none" />
<path d="M341.35849056603774,251.3962264150943 L341.35849056603774,296.377358490566" stroke="lavender" stroke-width="2" fill="none" />
<path d="M363.8490566037736,251.3962264150943 L363.8490566037736,296.377358490566" stroke="yellow" stroke-width="2" fill="none" />
<path d="M302.0,197.98113207547163 L290.75471698113205,152.99999999999994" stroke="yellow" stroke-width="2" fill="none" />
<path d="M251.39622641509433,175.4905660377358 L296.37735849056605,197.98113207547163" stroke="yellow" stroke-width="2" fill="none" />
<path d="M504.41509433962267,110.83018867924523 L436.9433962264151,110.83018867924523" stroke="yellow" stroke-width="2" fill="none" />
<path d="M436.9433962264151,116.45283018867923 L504.41509433962267,116.45283018867923" stroke="yellow" stroke-width="2" fill="none" />
<path d="M824.9056603773586,195.16981132075466 L802.4150943396227,195.16981132075466" stroke="yellow" stroke-width="2" fill="none" />
<path d="M802.4150943396227,195.16981132075466 L802.4150943396227,217.6603773584905" stroke="yellow" stroke-width="2" fill="none" />
<path d="M802.4150943396227,217.6603773584905 L824.9056603773586,217.6603773584905" stroke="yellow" stroke-width="2" fill="none" />
<path d="M824.9056603773586,217.6603773584905 L824.9056603773586,195.16981132075466" stroke="yellow" stroke-width="2" fill="none" />
<path d="M892.377358490566,262.64150943396226 L869.8867924528303,262.64150943396226" stroke="yellow" stroke-width="2" fill="none" />
<path d="M869.8867924528303,262.64150943396226 L869.8867924528303,285.1320754716981" stroke="yellow" stroke-width="2" fill="none" />
<path d="M869.8867924528303,285.1320754716981 L892.377358490566,285.1320754716981" stroke="yellow" stroke-width="2" fill="none" />
<path d="M892.377358490566,285.1320754716981 L892.377358490566,262.64150943396226" stroke="yellow" stroke-width="2" fill="none" />
<path d="M836.1509433962265,251.3962264150943 L813.6603773584906,251.3962264150943" stroke="yellow" stroke-width="2" fill="none" />
<path d="M813.6603773584906,251.3962264150943 L813.6603773584906,273.88679245283015" stroke="yellow" stroke-width="2" fill="none" />
<path d="M813.6603773584906,273.88679245283015 L836.1509433962265,273.88679245283015" stroke="yellow" stroke-width="2" fill="none" />
<path d="M836.1509433962265,273.88679245283015 L836.1509433962265,251.3962264150943" stroke="yellow" stroke-width="2" fill="none" />
<path d="M914.867924528302,172.67924528301882 L892.377358490566,172.67924528301882" stroke="yellow" stroke-width="2" fill="none" />
<path d="M892.377358490566,172.67924528301882 L892.377358490566,195.16981132075466" stroke="yellow" stroke-width="2" fill="none" />
<path d="M892.377358490566,195.16981132075466 L914.867924528302,195.16981132075466" stroke="yellow" stroke-width="2" fill="none" />
<path d="M914.867924528302,195.16981132075466 L914.867924528302,172.67924528301882" stroke="yellow" stroke-width="2" fill="none" />
<path d="M858.6415094339623,138.94339622641508 L836.1509433962265,138.94339622641508" stroke="yellow" stroke-width="2" fill="none" />
<path d="M836.1509433962265,138.94339622641508 L836.1509433962265,161.43396226415092" stroke="yellow" stroke-width="2" fill="none" />
<path d="M836.1509433962265,161.43396226415092 L858.6415094339623,161.43396226415092" stroke="yellow" stroke-width="2" fill="none" />
<path d="M858.6415094339623,161.43396226415092 L858.6415094339623,138.94339622641508" stroke="yellow" stroke-width="2" fill="none" />
<path d="M948.6037735849056,228.90566037735846 L926.1132075471698,228.90566037735846" stroke="yellow" stroke-width="2" fill="none" />
<path d="M926.1132075471698,228.90566037735846 L926.1132075471698,251.3962264150943" stroke="yellow" stroke-width="2" fill="none" />
<path d="M926.1132075471698,251.3962264150943 L948.6037735849056,251.3962264150943" stroke="yellow" stroke-width="2" fill="none" />
<path d="M971.0943396226415,228.90566037735846 L948.6037735849056,228.90566037735846" stroke="yellow" stroke-width="2" fill="none" />
<path d="M948.6037735849056,228.90566037735846 L948.6037735849056,251.3962264150943" stroke="yellow" stroke-width="2" fill="none" />
<path d="M948.6037735849056,251.3962264150943 L971.0943396226415,251.3962264150943" stroke="yellow" stroke-width="2" fill="none" />
<path d="M436.9433962264151,141.75471698113205 L425.6981132075472,141.75471698113205" stroke="yellow" stroke-width="2" fill="none" />
<path d="M425.6981132075472,141.75471698113205 L425.6981132075472,144.56603773584902" stroke="yellow" stroke-width="2" fill="none" />
<path d="M425.6981132075472,144.56603773584902 L436.9433962264151,144.56603773584902" stroke="yellow" stroke-width="2" fill="none" />
<path d="M436.9433962264151,144.56603773584902 L436.9433962264151,141.75471698113205" stroke="yellow" stroke-width="2" fill="none" />
<path d="M411.64150943396226,155.81132075471692 L411.64150943396226,167.05660377358487" stroke="yellow" stroke-width="2" fill="none" />
<path d="M411.64150943396226,167.05660377358487 L414.45283018867923,167.05660377358487" stroke="yellow" stroke-width="2" fill="none" />
<path d="M414.45283018867923,167.05660377358487 L414.45283018867923,155.81132075471692" stroke="yellow" stroke-width="2" fill="none" />
<path d="M414.45283018867923,155.81132075471692 L411.64150943396226,155.81132075471692" stroke="yellow" stroke-width="2" fill="none" />
<path d="M363.8490566037736,498.79245283018867 L408.8301886792453,453.8113207547169" stroke="red" stroke-width="2" fill="none" />
<path d="M408.8301886792453,453.8113207547169 L476.3018867924528,453.8113207547169" stroke="red" stroke-width="2" fill="none" />
<path d="M521.2830188679245,453.8113207547169 L588.7547169811321,453.8113207547169" stroke="red" stroke-width="2" fill="none" />
<path d="M588.7547169811321,453.8113207547169 L633.7358490566038,498.79245283018867" stroke="red" stroke-width="2" fill="none" />
<path d="M633.7358490566038,498.79245283018867 L633.7358490566038,566.2641509433962" stroke="red" stroke-width="2" fill="none" />
<path d="M633.7358490566038,611.2452830188679 L633.7358490566038,678.7169811320755" stroke="red" stroke-width="2" fill="none" />
<path d="M633.7358490566038,678.7169811320755 L588.7547169811321,723.6981132075472" stroke="red" stroke-width="2" fill="none" />
<path d="M588.7547169811321,723.6981132075472 L521.2830188679245,723.6981132075472" stroke="red" stroke-width="2" fill="none" />
<path d="M476.3018867924528,723.6981132075472 L408.8301886792453,723.6981132075472" stroke="red" stroke-width="2" fill="none" />
<path d="M363.8490566037736,678.7169811320755 L363.8490566037736,611.2452830188679" stroke="red" stroke-width="2" fill="none" />
<path d="M363.8490566037736,566.2641509433962 L363.8490566037736,498.79245283018867" stroke="red" stroke-width="2" fill="none" />
<path d="M476.3018867924528,453.8113207547169 L476.3018867924528,431.3207547169811" stroke="red" stroke-width="2" fill="none" />
<path d="M521.2830188679245,431.3207547169811 L521.2830188679245,453.8113207547169" stroke="red" stroke-width="2" fill="none" />
<path d="M363.8490566037736,611.2452830188679 L341.35849056603774,611.2452830188679" stroke="red" stroke-width="2" fill="none" />
<path d="M341.35849056603774,566.2641509433962 L363.8490566037736,566.2641509433962" stroke="red" stroke-width="2" fill="none" />
<path d="M521.2830188679245,723.6981132075472 L521.2830188679245,746.188679245283" stroke="red" stroke-width="2" fill="none" />
<path d="M476.3018867924528,746.188679245283 L476.3018867924528,723.6981132075472" stroke="red" stroke-width="2" fill="none" />
<path d="M206.41509433962264,566.2641509433962 L228.9056603773585,566.2641509433962" stroke="red" stroke-width="2" fill="none" />
<path d="M228.9056603773585,566.2641509433962 L251.39622641509433,566.2641509433962" stroke="red" stroke-width="2" fill="none" />
<path d="M251.39622641509433,566.2641509433962 L273.8867924528302,566.2641509433962" stroke="red" stroke-width="2" fill="none" />
<path d="M273.8867924528302,566.2641509433962 L296.37735849056605,566.2641509433962" stroke="red" stroke-width="2" fill="none" />
<path d="M296.37735849056605,566.2641509433962 L318.8679245283019,566.2641509433962" stroke="red" stroke-width="2" fill="none" />
<path d="M318.8679245283019,566.2641509433962 L341.35849056603774,566.2641509433962" stroke="red" stroke-width="2" fill="none" />
<path d="M228.9056603773585,611.2452830188679 L206.41509433962264,611.2452830188679" stroke="red" stroke-width="2" fill="none" />
<path d="M251.39622641509433,611.2452830188679 L228.9056603773585,611.2452830188679" stroke="red" stroke-width="2" fill="none" />
<path d="M273.8867924528302,611.2452830188679 L251.39622641509433,611.2452830188679" stroke="red" stroke-width="2" fill="none" />
<path d="M296.37735849056605,611.2452830188679 L273.8867924528302,611.2452830188679" stroke="red" stroke-width="2" fill="none" />
<path d="M318.8679245283019,611.2452830188679 L296.37735849056605,611.2452830188679" stroke="red" stroke-width="2" fill="none" />
<path d="M341.35849056603774,611.2452830188679 L318.8679245283019,611.2452830188679" stroke="red" stroke-width="2" fill="none" />
<path d="M206.41509433962264,476.3018867924528 L206.41509433962264,557.8301886792452" stroke="red" stroke-width="2" fill="none" />
<path d="M206.41509433962264,557.8301886792452 L206.41509433962264,566.2641509433962" stroke="red" stroke-width="2" fill="none" />
<path d="M206.41509433962264,611.2452830188679 L206.41509433962264,619.6792452830189" stroke="red" stroke-width="2" fill="none" />
<path d="M206.41509433962264,619.6792452830189 L206.41509433962264,701.2075471698113" stroke="red" stroke-width="2" fill="none" />
<path d="M206.41509433962264,701.2075471698113 L138.94339622641508,701.2075471698113" stroke="red" stroke-width="2" fill="none" />
<path d="M138.94339622641508,476.3018867924528 L206.41509433962264,476.3018867924528" stroke="red" stroke-width="2" fill="none" />
<path d="M26.490566037735846,476.3018867924528 L93.96226415094338,476.3018867924528" stroke="red" stroke-width="2" fill="none" />
<path d="M93.96226415094338,701.2075471698113 L26.490566037735846,701.2075471698113" stroke="red" stroke-width="2" fill="none" />
<path d="M138.94339622641508,701.2075471698113 L138.94339622641508,723.6981132075472" stroke="red" stroke-width="2" fill="none" />
<path d="M93.96226415094338,723.6981132075472 L93.96226415094338,701.2075471698113" stroke="red" stroke-width="2" fill="none" />
<path d="M93.96226415094338,476.3018867924528 L93.96226415094338,453.8113207547169" stroke="red" stroke-width="2" fill="none" />
<path d="M138.94339622641508,453.8113207547169 L138.94339622641508,476.3018867924528" stroke="red" stroke-width="2" fill="none" />
<path d="M791.1698113207548,611.2452830188679 L768.6792452830189,611.2452830188679" stroke="red" stroke-width="2" fill="none" />
<path d="M768.6792452830189,566.2641509433962 L791.1698113207548,566.2641509433962" stroke="red" stroke-width="2" fill="none" />
<path d="M633.7358490566038,566.2641509433962 L656.2264150943396,566.2641509433962" stroke="red" stroke-width="2" fill="none" />
<path d="M656.2264150943396,566.2641509433962 L678.7169811320755,566.2641509433962" stroke="red" stroke-width="2" fill="none" />
<path d="M678.7169811320755,566.2641509433962 L701.2075471698113,566.2641509433962" stroke="red" stroke-width="2" fill="none" />
<path d="M701.2075471698113,566.2641509433962 L723.6981132075472,566.2641509433962" stroke="red" stroke-width="2" fill="none" />
<path d="M723.6981132075472,566.2641509433962 L746.188679245283,566.2641509433962" stroke="red" stroke-width="2" fill="none" />
<path d="M746.188679245283,566.2641509433962 L768.6792452830189,566.2641509433962" stroke="red" stroke-width="2" fill="none" />
<path d="M656.2264150943396,611.2452830188679 L633.7358490566038,611.2452830188679" stroke="red" stroke-width="2" fill="none" />
<path d="M678.7169811320755,611.2452830188679 L656.2264150943396,611.2452830188679" stroke="red" stroke-width="2" fill="none" />
<path d="M701.2075471698113,611.2452830188679 L678.7169811320755,611.2452830188679" stroke="red" stroke-width="2" fill="none" />
<path d="M723.6981132075472,611.2452830188679 L701.2075471698113,611.2452830188679" stroke="red" stroke-width="2" fill="none" />
<path d="M746.188679245283,611.2452830188679 L723.6981132075472,611.2452830188679" stroke="red" stroke-width="2" fill="none" />
<path d="M768.6792452830189,611.2452830188679 L746.188679245283,611.2452830188679" stroke="red" stroke-width="2" fill="none" />
<path d="M791.1698113207548,557.8301886792452 L791.1698113207548,476.3018867924528" stroke="red" stroke-width="2" fill="none" />
<path d="M791.1698113207548,476.3018867924528 L926.1132075471698,476.3018867924528" stroke="red" stroke-width="2" fill="none" />
<path d="M791.1698113207548,566.2641509433962 L791.1698113207548,557.8301886792452" stroke="red" stroke-width="2" fill="none" />
<path d="M791.1698113207548,619.6792452830189 L791.1698113207548,611.2452830188679" stroke="red" stroke-width="2" fill="none" />
<path d="M926.1132075471698,701.2075471698113 L903.622641509434,701.2075471698113" stroke="red" stroke-width="2" fill="none" />
<path d="M903.622641509434,701.2075471698113 L903.622641509434,723.6981132075472" stroke="red" stroke-width="2" fill="none" />
<path d="M858.6415094339623,723.6981132075472 L858.6415094339623,701.2075471698113" stroke="red" stroke-width="2" fill="none" />
<path d="M408.8301886792453,723.6981132075472 L408.8301886792453,734.9433962264151" stroke="red" stroke-width="2" fill="none" />
<path d="M408.8301886792453,734.9433962264151 L251.39622641509433,734.9433962264151" stroke="red" stroke-width="2" fill="none" />
<path d="M251.39622641509433,678.7169811320755 L363.8490566037736,678.7169811320755" stroke="red" stroke-width="2" fill="none" />
<path d="M521.2830188679245,746.188679245283 L521.2830188679245,768.6792452830189" stroke="red" stroke-width="2" fill="none" />
<path d="M521.2830188679245,768.6792452830189 L521.2830188679245,791.1698113207547" stroke="red" stroke-width="2" fill="none" />
<path d="M521.2830188679245,791.1698113207547 L521.2830188679245,813.6603773584906" stroke="red" stroke-width="2" fill="none" />
<path d="M521.2830188679245,813.6603773584906 L521.2830188679245,836.1509433962264" stroke="red" stroke-width="2" fill="none" />
<path d="M476.3018867924528,836.1509433962264 L476.3018867924528,813.6603773584906" stroke="red" stroke-width="2" fill="none" />
<path d="M476.3018867924528,813.6603773584906 L476.3018867924528,791.1698113207547" stroke="red" stroke-width="2" fill="none" />
<path d="M476.3018867924528,791.1698113207547 L476.3018867924528,768.6792452830189" stroke="red" stroke-width="2" fill="none" />
<path d="M476.3018867924528,768.6792452830189 L476.3018867924528,746.188679245283" stroke="red" stroke-width="2" fill="none" />
<path d="M521.2830188679245,836.1509433962264 L521.2830188679245,858.6415094339623" stroke="red" stroke-width="2" fill="none" />
<path d="M521.2830188679245,858.6415094339623 L521.2830188679245,881.132075471698" stroke="red" stroke-width="2" fill="none" />
<path d="M476.3018867924528,881.132075471698 L476.3018867924528,858.6415094339623" stroke="red" stroke-width="2" fill="none" />
<path d="M476.3018867924528,858.6415094339623 L476.3018867924528,836.1509433962264" stroke="red" stroke-width="2" fill="none" />
<path d="M467.86792452830184,881.132075471698 L476.3018867924528,881.132075471698" stroke="red" stroke-width="2" fill="none" />
<path d="M521.2830188679245,881.132075471698 L529.7169811320755,881.132075471698" stroke="red" stroke-width="2" fill="none" />
<path d="M386.33962264150944,881.132075471698 L467.86792452830184,881.132075471698" stroke="red" stroke-width="2" fill="none" />
<path d="M611.2452830188679,948.6037735849056 L633.7358490566038,948.6037735849056" stroke="red" stroke-width="2" fill="none" />
<path d="M633.7358490566038,993.5849056603773 L611.2452830188679,993.5849056603773" stroke="red" stroke-width="2" fill="none" />
<path d="M611.2452830188679,993.5849056603773 L611.2452830188679,1061.0566037735848" stroke="red" stroke-width="2" fill="none" />
<path d="M386.33962264150944,1061.0566037735848 L386.33962264150944,993.5849056603773" stroke="red" stroke-width="2" fill="none" />
<path d="M386.33962264150944,993.5849056603773 L363.8490566037736,993.5849056603773" stroke="red" stroke-width="2" fill="none" />
<path d="M363.8490566037736,948.6037735849056 L386.33962264150944,948.6037735849056" stroke="red" stroke-width="2" fill="none" />
<path d="M386.33962264150944,948.6037735849056 L386.33962264150944,881.132075471698" stroke="red" stroke-width="2" fill="none" />
<path d="M476.3018867924528,431.3207547169811 L476.3018867924528,408.8301886792452" stroke="red" stroke-width="2" fill="none" />
<path d="M476.3018867924528,408.8301886792452 L476.3018867924528,386.33962264150944" stroke="red" stroke-width="2" fill="none" />
<path d="M476.3018867924528,386.33962264150944 L476.3018867924528,363.84905660377353" stroke="red" stroke-width="2" fill="none" />
<path d="M476.3018867924528,363.84905660377353 L476.3018867924528,341.3584905660377" stroke="red" stroke-width="2" fill="none" />
<path d="M476.3018867924528,341.3584905660377 L476.3018867924528,330.1132075471698" stroke="red" stroke-width="2" fill="none" />
<path d="M521.2830188679245,330.1132075471698 L521.2830188679245,341.3584905660377" stroke="red" stroke-width="2" fill="none" />
<path d="M521.2830188679245,341.3584905660377 L521.2830188679245,363.84905660377353" stroke="red" stroke-width="2" fill="none" />
<path d="M521.2830188679245,363.84905660377353 L521.2830188679245,386.33962264150944" stroke="red" stroke-width="2" fill="none" />
<path d="M521.2830188679245,386.33962264150944 L521.2830188679245,408.8301886792452" stroke="red" stroke-width="2" fill="none" />
<path d="M521.2830188679245,408.8301886792452 L521.2830188679245,431.3207547169811" stroke="red" stroke-width="2" fill="none" />
<path d="M611.2452830188679,296.377358490566 L529.7169811320755,296.377358490566" stroke="red" stroke-width="2" fill="none" />
<path d="M467.86792452830184,296.377358490566 L386.33962264150944,296.377358490566" stroke="red" stroke-width="2" fill="none" />
<path d="M611.2452830188679,116.45283018867923 L611.2452830188679,195.16981132075466" stroke="red" stroke-width="2" fill="none" />
<path d="M611.2452830188679,195.16981132075466 L633.7358490566038,195.16981132075466" stroke="red" stroke-width="2" fill="none" />
<path d="M633.7358490566038,217.6603773584905 L611.2452830188679,217.6603773584905" stroke="red" stroke-width="2" fill="none" />
<path d="M611.2452830188679,217.6603773584905 L611.2452830188679,296.377358490566" stroke="red" stroke-width="2" fill="none" />
<path d="M476.3018867924528,296.377358490566 L467.86792452830184,296.377358490566" stroke="red" stroke-width="2" fill="none" />
<path d="M529.7169811320755,296.377358490566 L521.2830188679245,296.377358490566" stroke="red" stroke-width="2" fill="none" />
<path d="M633.7358490566038,948.6037735849056 L656.2264150943396,948.6037735849056" stroke="red" stroke-width="2" fill="none" />
<path d="M656.2264150943396,948.6037735849056 L678.7169811320755,948.6037735849056" stroke="red" stroke-width="2" fill="none" />
<path d="M678.7169811320755,948.6037735849056 L701.2075471698113,948.6037735849056" stroke="red" stroke-width="2" fill="none" />
<path d="M701.2075471698113,948.6037735849056 L723.6981132075472,948.6037735849056" stroke="red" stroke-width="2" fill="none" />
<path d="M723.6981132075472,948.6037735849056 L734.9433962264151,948.6037735849056" stroke="red" stroke-width="2" fill="none" />
<path d="M734.9433962264151,993.5849056603773 L723.6981132075472,993.5849056603773" stroke="red" stroke-width="2" fill="none" />
<path d="M723.6981132075472,993.5849056603773 L701.2075471698113,993.5849056603773" stroke="red" stroke-width="2" fill="none" />
<path d="M701.2075471698113,993.5849056603773 L678.7169811320755,993.5849056603773" stroke="red" stroke-width="2" fill="none" />
<path d="M678.7169811320755,993.5849056603773 L656.2264150943396,993.5849056603773" stroke="red" stroke-width="2" fill="none" />
<path d="M656.2264150943396,993.5849056603773 L633.7358490566038,993.5849056603773" stroke="red" stroke-width="2" fill="none" />
<path d="M903.622641509434,723.6981132075472 L903.622641509434,746.188679245283" stroke="red" stroke-width="2" fill="none" />
<path d="M903.622641509434,746.188679245283 L903.622641509434,768.6792452830189" stroke="red" stroke-width="2" fill="none" />
<path d="M903.622641509434,768.6792452830189 L903.622641509434,791.1698113207547" stroke="red" stroke-width="2" fill="none" />
<path d="M903.622641509434,791.1698113207547 L903.622641509434,813.6603773584906" stroke="red" stroke-width="2" fill="none" />
<path d="M903.622641509434,813.6603773584906 L903.622641509434,824.9056603773585" stroke="red" stroke-width="2" fill="none" />
<path d="M858.6415094339623,824.9056603773585 L858.6415094339623,813.6603773584906" stroke="red" stroke-width="2" fill="none" />
<path d="M858.6415094339623,813.6603773584906 L858.6415094339623,791.1698113207547" stroke="red" stroke-width="2" fill="none" />
<path d="M858.6415094339623,791.1698113207547 L858.6415094339623,768.6792452830189" stroke="red" stroke-width="2" fill="none" />
<path d="M858.6415094339623,768.6792452830189 L858.6415094339623,746.188679245283" stroke="red" stroke-width="2" fill="none" />
<path d="M858.6415094339623,746.188679245283 L858.6415094339623,723.6981132075472" stroke="red" stroke-width="2" fill="none" />
<path d="M903.622641509434,858.6415094339623 L971.0943396226415,858.6415094339623" stroke="red" stroke-width="2" fill="none" />
<path d="M971.0943396226415,858.6415094339623 L971.0943396226415,971.0943396226414" stroke="red" stroke-width="2" fill="none" />
<path d="M881.1320754716982,1061.0566037735848 L768.6792452830189,1061.0566037735848" stroke="red" stroke-width="2" fill="none" />
<path d="M768.6792452830189,1061.0566037735848 L768.6792452830189,993.5849056603773" stroke="red" stroke-width="2" fill="none" />
<path d="M768.6792452830189,948.6037735849056 L768.6792452830189,858.6415094339623" stroke="red" stroke-width="2" fill="none" />
<path d="M768.6792452830189,858.6415094339623 L858.6415094339623,858.6415094339623" stroke="red" stroke-width="2" fill="none" />
<path d="M633.7358490566038,195.16981132075466 L656.2264150943396,183.92452830188677" stroke="red" stroke-width="2" fill="none" />
<path d="M656.2264150943396,183.92452830188677 L678.7169811320755,183.92452830188677" stroke="red" stroke-width="2" fill="none" />
<path d="M678.7169811320755,183.92452830188677 L701.2075471698113,183.92452830188677" stroke="red" stroke-width="2" fill="none" />
<path d="M701.2075471698113,183.92452830188677 L723.6981132075472,183.92452830188677" stroke="red" stroke-width="2" fill="none" />
<path d="M723.6981132075472,183.92452830188677 L746.188679245283,183.92452830188677" stroke="red" stroke-width="2" fill="none" />
<path d="M746.188679245283,183.92452830188677 L768.6792452830189,183.92452830188677" stroke="red" stroke-width="2" fill="none" />
<path d="M768.6792452830189,228.90566037735846 L746.188679245283,228.90566037735846" stroke="red" stroke-width="2" fill="none" />
<path d="M746.188679245283,228.90566037735846 L723.6981132075472,228.90566037735846" stroke="red" stroke-width="2" fill="none" />
<path d="M723.6981132075472,228.90566037735846 L701.2075471698113,228.90566037735846" stroke="red" stroke-width="2" fill="none" />
<path d="M701.2075471698113,228.90566037735846 L678.7169811320755,228.90566037735846" stroke="red" stroke-width="2" fill="none" />
<path d="M678.7169811320755,228.90566037735846 L656.2264150943396,228.90566037735846" stroke="red" stroke-width="2" fill="none" />
<path d="M656.2264150943396,228.90566037735846 L633.7358490566038,217.6603773584905" stroke="red" stroke-width="2" fill="none" />
<path d="M971.0943396226415,318.86792452830184 L768.6792452830189,318.86792452830184" stroke="red" stroke-width="2" fill="none" />
<path d="M768.6792452830189,318.86792452830184 L768.6792452830189,228.90566037735846" stroke="red" stroke-width="2" fill="none" />
<path d="M768.6792452830189,183.92452830188677 L768.6792452830189,116.45283018867923" stroke="red" stroke-width="2" fill="none" />
<path d="M768.6792452830189,116.45283018867923 L881.1320754716982,116.45283018867923" stroke="red" stroke-width="2" fill="none" />
<path d="M881.1320754716982,116.45283018867923 L971.0943396226415,206.4150943396226" stroke="red" stroke-width="2" fill="none" />
<path d="M138.94339622641508,723.6981132075472 L138.94339622641508,746.188679245283" stroke="red" stroke-width="2" fill="none" />
<path d="M138.94339622641508,746.188679245283 L138.94339622641508,768.6792452830189" stroke="red" stroke-width="2" fill="none" />
<path d="M138.94339622641508,768.6792452830189 L138.94339622641508,791.1698113207547" stroke="red" stroke-width="2" fill="none" />
<path d="M138.94339622641508,791.1698113207547 L138.94339622641508,813.6603773584906" stroke="red" stroke-width="2" fill="none" />
<path d="M138.94339622641508,813.6603773584906 L138.94339622641508,824.9056603773585" stroke="red" stroke-width="2" fill="none" />
<path d="M93.96226415094338,824.9056603773585 L93.96226415094338,813.6603773584906" stroke="red" stroke-width="2" fill="none" />
<path d="M93.96226415094338,813.6603773584906 L93.96226415094338,791.1698113207547" stroke="red" stroke-width="2" fill="none" />
<path d="M93.96226415094338,791.1698113207547 L93.96226415094338,768.6792452830189" stroke="red" stroke-width="2" fill="none" />
<path d="M93.96226415094338,768.6792452830189 L93.96226415094338,746.188679245283" stroke="red" stroke-width="2" fill="none" />
<path d="M93.96226415094338,746.188679245283 L93.96226415094338,723.6981132075472" stroke="red" stroke-width="2" fill="none" />
<path d="M138.94339622641508,318.86792452830184 L138.94339622641508,341.3584905660377" stroke="red" stroke-width="2" fill="none" />
<path d="M138.94339622641508,341.3584905660377 L138.94339622641508,363.84905660377353" stroke="red" stroke-width="2" fill="none" />
<path d="M138.94339622641508,363.84905660377353 L138.94339622641508,386.33962264150944" stroke="red" stroke-width="2" fill="none" />
<path d="M138.94339622641508,386.33962264150944 L138.94339622641508,408.8301886792452" stroke="red" stroke-width="2" fill="none" />
<path d="M138.94339622641508,408.8301886792452 L138.94339622641508,431.3207547169811" stroke="red" stroke-width="2" fill="none" />
<path d="M138.94339622641508,431.3207547169811 L138.94339622641508,453.8113207547169" stroke="red" stroke-width="2" fill="none" />
<path d="M93.96226415094338,453.8113207547169 L93.96226415094338,431.3207547169811" stroke="red" stroke-width="2" fill="none" />
<path d="M93.96226415094338,431.3207547169811 L93.96226415094338,408.8301886792452" stroke="red" stroke-width="2" fill="none" />
<path d="M93.96226415094338,408.8301886792452 L93.96226415094338,386.33962264150944" stroke="red" stroke-width="2" fill="none" />
<path d="M93.96226415094338,386.33962264150944 L93.96226415094338,363.84905660377353" stroke="red" stroke-width="2" fill="none" />
<path d="M93.96226415094338,363.84905660377353 L93.96226415094338,341.3584905660377" stroke="red" stroke-width="2" fill="none" />
<path d="M93.96226415094338,341.3584905660377 L93.96226415094338,318.86792452830184" stroke="red" stroke-width="2" fill="none" />
<path d="M138.94339622641508,858.6415094339623 L228.9056603773585,858.6415094339623" stroke="red" stroke-width="2" fill="none" />
<path d="M228.9056603773585,858.6415094339623 L228.9056603773585,948.6037735849056" stroke="red" stroke-width="2" fill="none" />
<path d="M228.9056603773585,993.5849056603773 L228.9056603773585,1061.0566037735848" stroke="red" stroke-width="2" fill="none" />
<path d="M26.490566037735846,858.6415094339623 L93.96226415094338,858.6415094339623" stroke="red" stroke-width="2" fill="none" />
<path d="M93.96226415094338,318.86792452830184 L48.98113207547169,273.88679245283015" stroke="red" stroke-width="2" fill="none" />
<path d="M48.98113207547169,273.88679245283015 L48.98113207547169,183.92452830188677" stroke="red" stroke-width="2" fill="none" />
<path d="M116.45283018867923,116.45283018867923 L228.9056603773585,116.45283018867923" stroke="red" stroke-width="2" fill="none" />
<path d="M228.9056603773585,116.45283018867923 L228.9056603773585,318.86792452830184" stroke="red" stroke-width="2" fill="none" />
<path d="M228.9056603773585,318.86792452830184 L138.94339622641508,318.86792452830184" stroke="red" stroke-width="2" fill="none" />
<path d="M262.64150943396226,948.6037735849056 L273.8867924528302,948.6037735849056" stroke="red" stroke-width="2" fill="none" />
<path d="M273.8867924528302,948.6037735849056 L296.37735849056605,948.6037735849056" stroke="red" stroke-width="2" fill="none" />
<path d="M296.37735849056605,948.6037735849056 L318.8679245283019,948.6037735849056" stroke="red" stroke-width="2" fill="none" />
<path d="M318.8679245283019,948.6037735849056 L341.35849056603774,948.6037735849056" stroke="red" stroke-width="2" fill="none" />
<path d="M341.35849056603774,948.6037735849056 L363.8490566037736,948.6037735849056" stroke="red" stroke-width="2" fill="none" />
<path d="M363.8490566037736,993.5849056603773 L341.35849056603774,993.5849056603773" stroke="red" stroke-width="2" fill="none" />
<path d="M341.35849056603774,993.5849056603773 L318.8679245283019,993.5849056603773" stroke="red" stroke-width="2" fill="none" />
<path d="M318.8679245283019,993.5849056603773 L296.37735849056605,993.5849056603773" stroke="red" stroke-width="2" fill="none" />
<path d="M296.37735849056605,993.5849056603773 L273.8867924528302,993.5849056603773" stroke="red" stroke-width="2" fill="none" />
<path d="M273.8867924528302,993.5849056603773 L262.64150943396226,993.5849056603773" stroke="red" stroke-width="2" fill="none" />
<path d="M543.7735849056604,552.2075471698113 L543.7735849056604,543.7735849056603" stroke="red" stroke-width="2" fill="none" />
<path d="M543.7735849056604,543.7735849056603 L535.3396226415094,543.7735849056603" stroke="red" stroke-width="2" fill="none" />
<path d="M535.3396226415094,543.7735849056603 L535.3396226415094,552.2075471698113" stroke="red" stroke-width="2" fill="none" />
<path d="M535.3396226415094,552.2075471698113 L543.7735849056604,552.2075471698113" stroke="red" stroke-width="2" fill="none" />
<path d="M543.7735849056604,633.7358490566038 L543.7735849056604,625.3018867924528" stroke="red" stroke-width="2" fill="none" />
<path d="M543.7735849056604,625.3018867924528 L535.3396226415094,625.3018867924528" stroke="red" stroke-width="2" fill="none" />
<path d="M535.3396226415094,625.3018867924528 L535.3396226415094,633.7358490566038" stroke="red" stroke-width="2" fill="none" />
<path d="M535.3396226415094,633.7358490566038 L543.7735849056604,633.7358490566038" stroke="red" stroke-width="2" fill="none" />
<path d="M462.2452830188679,633.7358490566038 L462.2452830188679,625.3018867924528" stroke="red" stroke-width="2" fill="none" />
<path d="M462.2452830188679,625.3018867924528 L453.811320754717,625.3018867924528" stroke="red" stroke-width="2" fill="none" />
<path d="M453.811320754717,625.3018867924528 L453.811320754717,633.7358490566038" stroke="red" stroke-width="2" fill="none" />
<path d="M453.811320754717,633.7358490566038 L462.2452830188679,633.7358490566038" stroke="red" stroke-width="2" fill="none" />
<path d="M462.2452830188679,552.2075471698113 L462.2452830188679,543.7735849056603" stroke="red" stroke-width="2" fill="none" />
<path d="M462.2452830188679,543.7735849056603 L453.811320754717,543.7735849056603" stroke="red" stroke-width="2" fill="none" />
<path d="M453.811320754717,543.7735849056603 L453.811320754717,552.2075471698113" stroke="red" stroke-width="2" fill="none" />
<path d="M453.811320754717,552.2075471698113 L462.2452830188679,552.2075471698113" stroke="red" stroke-width="2" fill="none" />
<path d="M760.2452830188679,948.6037735849056 L768.6792452830189,948.6037735849056" stroke="red" stroke-width="2" fill="none" />
<path d="M768.6792452830189,993.5849056603773 L760.2452830188679,993.5849056603773" stroke="red" stroke-width="2" fill="none" />
<path d="M760.2452830188679,993.5849056603773 L754.622641509434,993.5849056603773" stroke="red" stroke-width="2" fill="none" />
<path d="M754.622641509434,948.6037735849056 L760.2452830188679,948.6037735849056" stroke="red" stroke-width="2" fill="none" />
<path d="M903.622641509434,844.5849056603773 L903.622641509434,850.2075471698113" stroke="red" stroke-width="2" fill="none" />
<path d="M903.622641509434,850.2075471698113 L903.622641509434,858.6415094339623" stroke="red" stroke-width="2" fill="none" />
<path d="M858.6415094339623,858.6415094339623 L858.6415094339623,850.2075471698113" stroke="red" stroke-width="2" fill="none" />
<path d="M858.6415094339623,850.2075471698113 L858.6415094339623,844.5849056603773" stroke="red" stroke-width="2" fill="none" />
<path d="M93.96226415094338,543.7735849056603 L71.47169811320754,543.7735849056603" stroke="red" stroke-width="2" fill="none" />
<path d="M93.96226415094338,566.2641509433962 L93.96226415094338,543.7735849056603" stroke="red" stroke-width="2" fill="none" />
<path d="M71.47169811320754,633.7358490566038 L93.96226415094338,633.7358490566038" stroke="red" stroke-width="2" fill="none" />
<path d="M93.96226415094338,633.7358490566038 L93.96226415094338,611.2452830188679" stroke="red" stroke-width="2" fill="none" />
<path d="M71.47169811320754,566.2641509433962 L82.71698113207546,566.2641509433962" stroke="red" stroke-width="2" fill="none" />
<path d="M82.71698113207546,566.2641509433962 L93.96226415094338,566.2641509433962" stroke="red" stroke-width="2" fill="none" />
<path d="M93.96226415094338,611.2452830188679 L82.71698113207546,611.2452830188679" stroke="red" stroke-width="2" fill="none" />
<path d="M82.71698113207546,611.2452830188679 L71.47169811320754,611.2452830188679" stroke="red" stroke-width="2" fill="none" />
<path d="M26.490566037735846,701.2075471698113 L26.490566037735846,622.4905660377358" stroke="red" stroke-width="2" fill="none" />
<path d="M26.490566037735846,622.4905660377358 L26.490566037735846,555.0188679245283" stroke="red" stroke-width="2" fill="none" />
<path d="M26.490566037735846,555.0188679245283 L26.490566037735846,476.3018867924528" stroke="red" stroke-width="2" fill="none" />
<path d="M71.47169811320754,543.7735849056603 L71.47169811320754,555.0188679245283" stroke="red" stroke-width="2" fill="none" />
<path d="M71.47169811320754,555.0188679245283 L71.47169811320754,566.2641509433962" stroke="red" stroke-width="2" fill="none" />
<path d="M71.47169811320754,611.2452830188679 L71.47169811320754,622.4905660377358" stroke="red" stroke-width="2" fill="none" />
<path d="M71.47169811320754,622.4905660377358 L71.47169811320754,633.7358490566038" stroke="red" stroke-width="2" fill="none" />
<path d="M858.6415094339623,844.5849056603773 L858.6415094339623,836.1509433962264" stroke="red" stroke-width="2" fill="none" />
<path d="M903.622641509434,836.1509433962264 L903.622641509434,844.5849056603773" stroke="red" stroke-width="2" fill="none" />
<path d="M858.6415094339623,836.1509433962264 L858.6415094339623,824.9056603773585" stroke="red" stroke-width="2" fill="none" />
<path d="M903.622641509434,824.9056603773585 L903.622641509434,836.1509433962264" stroke="red" stroke-width="2" fill="none" />
<path d="M754.622641509434,993.5849056603773 L746.188679245283,993.5849056603773" stroke="red" stroke-width="2" fill="none" />
<path d="M746.188679245283,948.6037735849056 L754.622641509434,948.6037735849056" stroke="red" stroke-width="2" fill="none" />
<path d="M734.9433962264151,948.6037735849056 L746.188679245283,948.6037735849056" stroke="red" stroke-width="2" fill="none" />
<path d="M746.188679245283,993.5849056603773 L734.9433962264151,993.5849056603773" stroke="red" stroke-width="2" fill="none" />
<path d="M242.96226415094338,948.6037735849056 L251.39622641509433,948.6037735849056" stroke="red" stroke-width="2" fill="none" />
<path d="M251.39622641509433,993.5849056603773 L242.96226415094338,993.5849056603773" stroke="red" stroke-width="2" fill="none" />
<path d="M242.96226415094338,993.5849056603773 L237.33962264150944,993.5849056603773" stroke="red" stroke-width="2" fill="none" />
<path d="M237.33962264150944,948.6037735849056 L242.96226415094338,948.6037735849056" stroke="red" stroke-width="2" fill="none" />
<path d="M237.33962264150944,993.5849056603773 L228.9056603773585,993.5849056603773" stroke="red" stroke-width="2" fill="none" />
<path d="M228.9056603773585,948.6037735849056 L237.33962264150944,948.6037735849056" stroke="red" stroke-width="2" fill="none" />
<path d="M262.64150943396226,993.5849056603773 L251.39622641509433,993.5849056603773" stroke="red" stroke-width="2" fill="none" />
<path d="M251.39622641509433,948.6037735849056 L262.64150943396226,948.6037735849056" stroke="red" stroke-width="2" fill="none" />
<path d="M138.94339622641508,844.5849056603773 L138.94339622641508,850.2075471698113" stroke="red" stroke-width="2" fill="none" />
<path d="M138.94339622641508,850.2075471698113 L138.94339622641508,858.6415094339623" stroke="red" stroke-width="2" fill="none" />
<path d="M93.96226415094338,858.6415094339623 L93.96226415094338,850.2075471698113" stroke="red" stroke-width="2" fill="none" />
<path d="M93.96226415094338,850.2075471698113 L93.96226415094338,844.5849056603773" stroke="red" stroke-width="2" fill="none" />
<path d="M93.96226415094338,844.5849056603773 L93.96226415094338,836.1509433962264" stroke="red" stroke-width="2" fill="none" />
<path d="M138.94339622641508,836.1509433962264 L138.94339622641508,844.5849056603773" stroke="red" stroke-width="2" fill="none" />
<path d="M93.96226415094338,836.1509433962264 L93.96226415094338,824.9056603773585" stroke="red" stroke-width="2" fill="none" />
<path d="M138.94339622641508,824.9056603773585 L138.94339622641508,836.1509433962264" stroke="red" stroke-width="2" fill="none" />
<path d="M116.45283018867923,1061.0566037735848 L71.47169811320754,1016.0754716981132" stroke="red" stroke-width="2" fill="none" />
<path d="M71.47169811320754,1016.0754716981132 L48.98113207547169,1016.0754716981132" stroke="red" stroke-width="2" fill="none" />
<path d="M48.98113207547169,1016.0754716981132 L48.98113207547169,1038.566037735849" stroke="red" stroke-width="2" fill="none" />
<path d="M48.98113207547169,1038.566037735849 L71.47169811320754,1038.566037735849" stroke="red" stroke-width="2" fill="none" />
<path d="M71.47169811320754,1083.5471698113206 L71.47169811320754,1106.0377358490566" stroke="red" stroke-width="2" fill="none" />
<path d="M71.47169811320754,1106.0377358490566 L26.490566037735846,1106.0377358490566" stroke="lavender" stroke-width="2" fill="none" />
<path d="M26.490566037735846,1106.0377358490566 L26.490566037735846,1083.5471698113206" stroke="red" stroke-width="2" fill="none" />
<path d="M228.9056603773585,1061.0566037735848 L161.43396226415092,1061.0566037735848" stroke="red" stroke-width="2" fill="none" />
<path d="M161.43396226415092,1061.0566037735848 L161.43396226415092,1072.301886792453" stroke="red" stroke-width="2" fill="none" />
<path d="M116.45283018867923,1072.301886792453 L116.45283018867923,1061.0566037735848" stroke="red" stroke-width="2" fill="none" />
<path d="M116.45283018867923,1128.5283018867924 L116.45283018867923,1072.301886792453" stroke="red" stroke-width="2" fill="none" />
<path d="M611.2452830188679,1061.0566037735848 L431.3207547169811,1061.0566037735848" stroke="red" stroke-width="2" fill="none" />
<path d="M386.33962264150944,1072.301886792453 L386.33962264150944,1061.0566037735848" stroke="red" stroke-width="2" fill="none" />
<path d="M431.3207547169811,1061.0566037735848 L431.3207547169811,1072.301886792453" stroke="red" stroke-width="2" fill="none" />
<path d="M431.3207547169811,1072.301886792453 L431.3207547169811,1128.5283018867924" stroke="red" stroke-width="2" fill="none" />
<path d="M386.33962264150944,1083.5471698113206 L386.33962264150944,1072.301886792453" stroke="red" stroke-width="2" fill="none" />
<path d="M431.3207547169811,1128.5283018867924 L386.33962264150944,1128.5283018867924" stroke="red" stroke-width="2" fill="none" />
<path d="M161.43396226415092,1072.301886792453 L161.43396226415092,1083.5471698113206" stroke="red" stroke-width="2" fill="none" />
<path d="M386.33962264150944,1128.5283018867924 L363.8490566037736,1128.5283018867924" stroke="red" stroke-width="2" fill="none" />
<path d="M363.8490566037736,1083.5471698113206 L386.33962264150944,1083.5471698113206" stroke="red" stroke-width="2" fill="none" />
<path d="M251.39622641509433,1083.5471698113206 L273.8867924528302,1083.5471698113206" stroke="red" stroke-width="2" fill="none" />
<path d="M273.8867924528302,1083.5471698113206 L296.37735849056605,1083.5471698113206" stroke="red" stroke-width="2" fill="none" />
<path d="M296.37735849056605,1083.5471698113206 L318.8679245283019,1083.5471698113206" stroke="red" stroke-width="2" fill="none" />
<path d="M318.8679245283019,1083.5471698113206 L341.35849056603774,1083.5471698113206" stroke="red" stroke-width="2" fill="none" />
<path d="M341.35849056603774,1083.5471698113206 L363.8490566037736,1083.5471698113206" stroke="red" stroke-width="2" fill="none" />
<path d="M363.8490566037736,1128.5283018867924 L341.35849056603774,1128.5283018867924" stroke="red" stroke-width="2" fill="none" />
<path d="M341.35849056603774,1128.5283018867924 L318.8679245283019,1128.5283018867924" stroke="red" stroke-width="2" fill="none" />
<path d="M318.8679245283019,1128.5283018867924 L296.37735849056605,1128.5283018867924" stroke="red" stroke-width="2" fill="none" />
<path d="M296.37735849056605,1128.5283018867924 L273.8867924528302,1128.5283018867924" stroke="red" stroke-width="2" fill="none" />
<path d="M273.8867924528302,1128.5283018867924 L251.39622641509433,1128.5283018867924" stroke="red" stroke-width="2" fill="none" />
<path d="M251.39622641509433,734.9433962264151 L251.39622641509433,718.0754716981132" stroke="red" stroke-width="2" fill="none" />
<path d="M251.39622641509433,718.0754716981132 L240.1509433962264,718.0754716981132" stroke="red" stroke-width="2" fill="none" />
<path d="M240.1509433962264,718.0754716981132 L240.1509433962264,695.5849056603773" stroke="red" stroke-width="2" fill="none" />
<path d="M240.1509433962264,695.5849056603773 L251.39622641509433,695.5849056603773" stroke="red" stroke-width="2" fill="none" />
<path d="M251.39622641509433,695.5849056603773 L251.39622641509433,678.7169811320755" stroke="red" stroke-width="2" fill="none" />
<path d="M228.9056603773585,1128.5283018867924 L116.45283018867923,1128.5283018867924" stroke="red" stroke-width="2" fill="none" />
<path d="M161.43396226415092,1083.5471698113206 L228.9056603773585,1083.5471698113206" stroke="red" stroke-width="2" fill="none" />
<path d="M71.47169811320754,1038.566037735849 L71.47169811320754,1077.9245283018868" stroke="red" stroke-width="2" fill="none" />
<path d="M71.47169811320754,1077.9245283018868 L71.47169811320754,1083.5471698113206" stroke="red" stroke-width="2" fill="none" />
<path d="M26.490566037735846,1083.5471698113206 L26.490566037735846,1077.9245283018868" stroke="red" stroke-width="2" fill="none" />
<path d="M26.490566037735846,1077.9245283018868 L26.490566037735846,858.6415094339623" stroke="red" stroke-width="2" fill="none" />
<path d="M529.7169811320755,881.132075471698 L588.7547169811321,881.132075471698" stroke="red" stroke-width="2" fill="none" />
<path d="M611.2452830188679,903.622641509434 L611.2452830188679,948.6037735849056" stroke="red" stroke-width="2" fill="none" />
<path d="M588.7547169811321,881.132075471698 L588.7547169811321,836.1509433962264" stroke="red" stroke-width="2" fill="none" />
<path d="M656.2264150943396,903.622641509434 L611.2452830188679,903.622641509434" stroke="red" stroke-width="2" fill="none" />
<path d="M588.7547169811321,836.1509433962264 L622.4905660377359,802.4150943396226" stroke="red" stroke-width="2" fill="none" />
<path d="M712.4528301886793,712.4528301886792 L746.188679245283,678.7169811320755" stroke="red" stroke-width="2" fill="none" />
<path d="M746.188679245283,678.7169811320755 L791.1698113207548,678.7169811320755" stroke="red" stroke-width="2" fill="none" />
<path d="M858.6415094339623,701.2075471698113 L813.6603773584906,701.2075471698113" stroke="red" stroke-width="2" fill="none" />
<path d="M791.1698113207548,678.7169811320755 L791.1698113207548,619.6792452830189" stroke="red" stroke-width="2" fill="none" />
<path d="M813.6603773584906,701.2075471698113 L813.6603773584906,746.188679245283" stroke="red" stroke-width="2" fill="none" />
<path d="M813.6603773584906,746.188679245283 L779.9245283018868,779.9245283018868" stroke="red" stroke-width="2" fill="none" />
<path d="M779.9245283018868,779.9245283018868 L689.9622641509434,869.8867924528302" stroke="red" stroke-width="2" fill="none" />
<path d="M689.9622641509434,869.8867924528302 L656.2264150943396,903.622641509434" stroke="red" stroke-width="2" fill="none" />
<path d="M622.4905660377359,802.4150943396226 L622.4905660377359,768.6792452830189" stroke="red" stroke-width="2" fill="none" />
<path d="M622.4905660377359,768.6792452830189 L622.4905660377359,712.4528301886792" stroke="red" stroke-width="2" fill="none" />
<path d="M622.4905660377359,712.4528301886792 L678.7169811320755,712.4528301886792" stroke="red" stroke-width="2" fill="none" />
<path d="M678.7169811320755,712.4528301886792 L712.4528301886793,712.4528301886792" stroke="red" stroke-width="2" fill="none" />
<path d="M926.1132075471698,543.7735849056603 L1016.0754716981132,521.2830188679245" stroke="red" stroke-width="2" fill="none" />
<path d="M1016.0754716981132,656.2264150943396 L926.1132075471698,633.7358490566038" stroke="red" stroke-width="2" fill="none" />
<path d="M1196.0,431.3207547169811 L1196.0,656.2264150943396" stroke="red" stroke-width="2" fill="none" />
<path d="M1196.0,656.2264150943396 L1016.0754716981132,656.2264150943396" stroke="red" stroke-width="2" fill="none" />
<path d="M1016.0754716981132,521.2830188679245 L1038.566037735849,431.3207547169811" stroke="red" stroke-width="2" fill="none" />
<path d="M1038.566037735849,431.3207547169811 L1038.566037735849,386.33962264150944" stroke="red" stroke-width="2" fill="none" />
<path d="M1038.566037735849,386.33962264150944 L1196.0,386.33962264150944" stroke="red" stroke-width="2" fill="none" />
<path d="M1196.0,386.33962264150944 L1196.0,431.3207547169811" stroke="red" stroke-width="2" fill="none" />
<path d="M71.47169811320754,130.5094339622641 L71.47169811320754,150.18867924528297" stroke="red" stroke-width="2" fill="none" />
<path d="M71.47169811320754,150.18867924528297 L48.98113207547169,150.18867924528297" stroke="red" stroke-width="2" fill="none" />
<path d="M4.0,150.18867924528297 L4.0,4.0" stroke="red" stroke-width="2" fill="none" />
<path d="M4.0,4.0 L116.45283018867923,4.0" stroke="red" stroke-width="2" fill="none" />
<path d="M116.45283018867923,4.0 L116.45283018867923,71.47169811320748" stroke="red" stroke-width="2" fill="none" />
<path d="M48.98113207547169,150.18867924528297 L43.358490566037716,150.18867924528297" stroke="red" stroke-width="2" fill="none" />
<path d="M43.358490566037716,150.18867924528297 L4.0,150.18867924528297" stroke="red" stroke-width="2" fill="none" />
<path d="M71.47169811320754,71.47169811320748 L71.47169811320754,124.88679245283015" stroke="red" stroke-width="2" fill="none" />
<path d="M71.47169811320754,124.88679245283015 L71.47169811320754,130.5094339622641" stroke="red" stroke-width="2" fill="none" />
<path d="M48.98113207547169,183.92452830188677 L110.83018867924528,122.07547169811318" stroke="red" stroke-width="2" fill="none" />
<path d="M110.83018867924528,71.47169811320748 L71.47169811320754,71.47169811320748" stroke="red" stroke-width="2" fill="none" />
<path d="M110.83018867924528,122.07547169811318 L110.83018867924528,71.47169811320748" stroke="red" stroke-width="2" fill="none" />
<path d="M116.45283018867923,71.47169811320748 L116.45283018867923,116.45283018867923" stroke="red" stroke-width="2" fill="none" />
<path d="M926.1132075471698,476.3018867924528 L926.1132075471698,535.3396226415094" stroke="red" stroke-width="2" fill="none" />
<path d="M926.1132075471698,535.3396226415094 L926.1132075471698,543.7735849056603" stroke="red" stroke-width="2" fill="none" />
<path d="M926.1132075471698,633.7358490566038 L926.1132075471698,642.1698113207547" stroke="red" stroke-width="2" fill="none" />
<path d="M926.1132075471698,642.1698113207547 L926.1132075471698,701.2075471698113" stroke="red" stroke-width="2" fill="none" />
<path d="M971.0943396226415,971.0943396226414 L979.5283018867925,971.0943396226414" stroke="red" stroke-width="2" fill="none" />
<path d="M881.1320754716982,1069.4905660377358 L881.1320754716982,1061.0566037735848" stroke="red" stroke-width="2" fill="none" />
<path d="M979.5283018867925,971.0943396226414 L993.5849056603774,971.0943396226414" stroke="red" stroke-width="2" fill="none" />
<path d="M993.5849056603774,971.0943396226414 L993.5849056603774,1083.5471698113206" stroke="red" stroke-width="2" fill="none" />
<path d="M993.5849056603774,1083.5471698113206 L881.1320754716982,1083.5471698113206" stroke="red" stroke-width="2" fill="none" />
<path d="M881.1320754716982,1083.5471698113206 L881.1320754716982,1069.4905660377358" stroke="red" stroke-width="2" fill="none" />
<path d="M521.2830188679245,304.811320754717 L521.2830188679245,310.4339622641509" stroke="red" stroke-width="2" fill="none" />
<path d="M521.2830188679245,310.4339622641509 L521.2830188679245,318.86792452830184" stroke="red" stroke-width="2" fill="none" />
<path d="M476.3018867924528,318.86792452830184 L476.3018867924528,310.4339622641509" stroke="red" stroke-width="2" fill="none" />
<path d="M476.3018867924528,310.4339622641509 L476.3018867924528,304.811320754717" stroke="red" stroke-width="2" fill="none" />
<path d="M476.3018867924528,304.811320754717 L476.3018867924528,296.377358490566" stroke="red" stroke-width="2" fill="none" />
<path d="M521.2830188679245,296.377358490566 L521.2830188679245,304.811320754717" stroke="red" stroke-width="2" fill="none" />
<path d="M476.3018867924528,330.1132075471698 L476.3018867924528,318.86792452830184" stroke="red" stroke-width="2" fill="none" />
<path d="M521.2830188679245,318.86792452830184 L521.2830188679245,330.1132075471698" stroke="red" stroke-width="2" fill="none" />
<path d="M588.7547169811321,116.45283018867923 L611.2452830188679,116.45283018867923" stroke="red" stroke-width="2" fill="none" />
<path d="M386.33962264150944,150.18867924528297 L420.07547169811323,116.45283018867923" stroke="lavender" stroke-width="2" fill="none" />
<path d="M346.9811320754717,150.18867924528297 L358.2264150943396,189.5471698113207" stroke="red" stroke-width="2" fill="none" />
<path d="M521.2830188679245,79.90566037735846 L487.5471698113207,63.03773584905662" stroke="red" stroke-width="2" fill="none" />
<path d="M498.79245283018867,26.49056603773579 L571.8867924528302,71.47169811320748" stroke="red" stroke-width="2" fill="none" />
<path d="M386.33962264150944,189.5471698113207 L386.33962264150944,158.62264150943395" stroke="red" stroke-width="2" fill="none" />
<path d="M386.33962264150944,158.62264150943395 L386.33962264150944,150.18867924528297" stroke="red" stroke-width="2" fill="none" />
<path d="M420.07547169811323,116.45283018867923 L428.50943396226415,116.45283018867923" stroke="red" stroke-width="2" fill="none" />
<path d="M344.1698113207547,26.49056603773579 L498.79245283018867,26.49056603773579" stroke="red" stroke-width="2" fill="none" />
<path d="M290.75471698113205,152.99999999999994 L290.75471698113205,71.47169811320748" stroke="red" stroke-width="2" fill="none" />
<path d="M290.75471698113205,71.47169811320748 L344.1698113207547,26.49056603773579" stroke="red" stroke-width="2" fill="none" />
<path d="M487.5471698113207,63.03773584905662 L397.58490566037733,63.03773584905662" stroke="red" stroke-width="2" fill="none" />
<path d="M397.58490566037733,63.03773584905662 L397.58490566037733,116.45283018867923" stroke="red" stroke-width="2" fill="none" />
<path d="M397.58490566037733,116.45283018867923 L375.0943396226415,116.45283018867923" stroke="lavender" stroke-width="2" fill="none" />
<path d="M375.0943396226415,116.45283018867923 L349.79245283018867,116.45283018867923" stroke="red" stroke-width="2" fill="none" />
<path d="M349.79245283018867,116.45283018867923 L346.9811320754717,150.18867924528297" stroke="red" stroke-width="2" fill="none" />
<path d="M321.6792452830189,240.15094339622635 L302.0,197.98113207547163" stroke="red" stroke-width="2" fill="none" />
<path d="M302.0,197.98113207547163 L296.37735849056605,197.98113207547163" stroke="red" stroke-width="2" fill="none" />
<path d="M296.37735849056605,197.98113207547163 L296.37735849056605,251.3962264150943" stroke="red" stroke-width="2" fill="none" />
<path d="M251.39622641509433,257.01886792452825 L251.39622641509433,175.4905660377358" stroke="red" stroke-width="2" fill="none" />
<path d="M251.39622641509433,175.4905660377358 L290.75471698113205,152.99999999999994" stroke="red" stroke-width="2" fill="none" />
<path d="M273.8867924528302,296.377358490566 L251.39622641509433,257.01886792452825" stroke="red" stroke-width="2" fill="none" />
<path d="M386.33962264150944,251.3962264150943 L386.33962264150944,245.77358490566036" stroke="red" stroke-width="2" fill="none" />
<path d="M341.35849056603774,251.3962264150943 L363.8490566037736,251.3962264150943" stroke="red" stroke-width="2" fill="none" />
<path d="M363.8490566037736,251.3962264150943 L380.7169811320755,251.3962264150943" stroke="red" stroke-width="2" fill="none" />
<path d="M380.7169811320755,251.3962264150943 L386.33962264150944,251.3962264150943" stroke="red" stroke-width="2" fill="none" />
<path d="M386.33962264150944,296.377358490566 L380.7169811320755,296.377358490566" stroke="red" stroke-width="2" fill="none" />
<path d="M380.7169811320755,296.377358490566 L363.8490566037736,296.377358490566" stroke="red" stroke-width="2" fill="none" />
<path d="M363.8490566037736,296.377358490566 L341.35849056603774,296.377358490566" stroke="red" stroke-width="2" fill="none" />
<path d="M386.33962264150944,245.77358490566036 L377.90566037735846,245.77358490566036" stroke="red" stroke-width="2" fill="none" />
<path d="M377.90566037735846,245.77358490566036 L321.6792452830189,240.15094339622635" stroke="red" stroke-width="2" fill="none" />
<path d="M358.2264150943396,189.5471698113207 L377.90566037735846,189.5471698113207" stroke="red" stroke-width="2" fill="none" />
<path d="M377.90566037735846,189.5471698113207 L386.33962264150944,189.5471698113207" stroke="red" stroke-width="2" fill="none" />
<path d="M571.8867924528302,71.47169811320748 L588.7547169811321,108.01886792452825" stroke="red" stroke-width="2" fill="none" />
<path d="M588.7547169811321,108.01886792452825 L588.7547169811321,116.45283018867923" stroke="red" stroke-width="2" fill="none" />
<path d="M532.5283018867924,116.45283018867923 L532.5283018867924,108.01886792452825" stroke="red" stroke-width="2" fill="none" />
<path d="M532.5283018867924,108.01886792452825 L521.2830188679245,79.90566037735846" stroke="red" stroke-width="2" fill="none" />
<path d="M296.37735849056605,251.3962264150943 L332.92452830188677,251.3962264150943" stroke="red" stroke-width="2" fill="none" />
<path d="M332.92452830188677,251.3962264150943 L341.35849056603774,251.3962264150943" stroke="red" stroke-width="2" fill="none" />
<path d="M341.35849056603774,296.377358490566 L332.92452830188677,296.377358490566" stroke="red" stroke-width="2" fill="none" />
<path d="M332.92452830188677,296.377358490566 L273.8867924528302,296.377358490566" stroke="red" stroke-width="2" fill="none" />
<path d="M428.50943396226415,116.45283018867923 L436.9433962264151,116.45283018867923" stroke="red" stroke-width="2" fill="none" />
<path d="M504.41509433962267,116.45283018867923 L532.5283018867924,116.45283018867923" stroke="red" stroke-width="2" fill="none" />
<path d="M436.9433962264151,116.45283018867923 L436.9433962264151,110.83018867924523" stroke="red" stroke-width="2" fill="none" />
<path d="M504.41509433962267,110.83018867924523 L504.41509433962267,116.45283018867923" stroke="red" stroke-width="2" fill="none" />
<path d="M436.9433962264151,110.83018867924523 L436.9433962264151,77.09433962264143" stroke="red" stroke-width="2" fill="none" />
<path d="M436.9433962264151,77.09433962264143 L504.41509433962267,77.09433962264143" stroke="red" stroke-width="2" fill="none" />
<path d="M504.41509433962267,77.09433962264143 L504.41509433962267,110.83018867924523" stroke="red" stroke-width="2" fill="none" />
<path d="M971.0943396226415,206.4150943396226 L971.0943396226415,228.90566037735846" stroke="red" stroke-width="2" fill="none" />
<path d="M971.0943396226415,251.3962264150943 L971.0943396226415,318.86792452830184" stroke="red" stroke-width="2" fill="none" />
<path d="M971.0943396226415,228.90566037735846 L971.0943396226415,251.3962264150943" stroke="red" stroke-width="2" fill="none" />
<path d="M228.9056603773585,1083.5471698113206 L237.33962264150944,1083.5471698113206" stroke="red" stroke-width="2" fill="none" />
<path d="M237.33962264150944,1083.5471698113206 L251.39622641509433,1083.5471698113206" stroke="red" stroke-width="2" fill="none" />
<path d="M251.39622641509433,1128.5283018867924 L237.33962264150944,1128.5283018867924" stroke="red" stroke-width="2" fill="none" />
<path d="M237.33962264150944,1128.5283018867924 L228.9056603773585,1128.5283018867924" stroke="red" stroke-width="2" fill="none" />
</svg>