<?xml version="1.0" encoding="UTF-8"?>
<svg xmlns="http://www.w3.org/2000/svg" xmlns:xlink="http://www.w3.org/1999/xlink"
     width="1200" height="1929" viewBox="0 0 1200 1929">
<defs>
</defs>
<path d="M514.8571428571429,952.7346938775511 L514.8571428571429,928.4081632653061" stroke="yellow" stroke-width="2" fill="none" />
<path d="M587.8367346938776,855.4285714285714 L612.1632653061224,855.4285714285714" stroke="yellow" stroke-width="2" fill="none" />
<path d="M685.1428571428571,928.4081632653061 L685.1428571428571,952.7346938775511" stroke="yellow" stroke-width="2" fill="none" />
<path d="M612.1632653061224,1025.7142857142858 L587.8367346938776,1025.7142857142858" stroke="yellow" stroke-width="2" fill="none" />
<path d="M539.1836734693877,952.7346938775511 L539.1836734693877,928.4081632653061" stroke="lavender" stroke-width="2" fill="none" />
<path d="M587.8367346938776,879.7551020408164 L612.1632653061224,879.7551020408164" stroke="lavender" stroke-width="2" fill="none" />
<path d="M660.8163265306123,928.4081632653061 L660.8163265306123,952.7346938775511" stroke="lavender" stroke-width="2" fill="none" />
<path d="M612.1632653061224,1001.3877551020408 L587.8367346938776,1001.3877551020408" stroke="lavender" stroke-width="2" fill="none" />
<path d="M593.9183673469388,946.6530612244899 L606.0816326530612,946.6530612244899" stroke="lavender" stroke-width="2" fill="none" />
<path d="M606.0816326530612,946.6530612244899 L606.0816326530612,934.4897959183673" stroke="lavender" stroke-width="2" fill="none" />
<path d="M606.0816326530612,934.4897959183673 L593.9183673469388,934.4897959183673" stroke="lavender" stroke-width="2" fill="none" />
<path d="M593.9183673469388,934.4897959183673 L593.9183673469388,946.6530612244899" stroke="lavender" stroke-width="2" fill="none" />
<path d="M654.7346938775511,952.7346938775511 L660.8163265306123,952.7346938775511" stroke="yellow" stroke-width="2" fill="none" />
<path d="M648.6530612244898,952.7346938775511 L654.7346938775511,952.7346938775511" stroke="yellow" stroke-width="2" fill="none" />
<path d="M642.5714285714286,952.7346938775511 L648.6530612244898,952.7346938775511" stroke="yellow" stroke-width="2" fill="none" />
<path d="M642.5714285714286,928.4081632653061 L642.5714285714286,952.7346938775511" stroke="yellow" stroke-width="2" fill="none" />
<path d="M648.6530612244898,928.4081632653061 L642.5714285714286,928.4081632653061" stroke="yellow" stroke-width="2" fill="none" />
<path d="M654.7346938775511,928.4081632653061 L648.6530612244898,928.4081632653061" stroke="yellow" stroke-width="2" fill="none" />
<path d="M660.8163265306123,928.4081632653061 L654.7346938775511,928.4081632653061" stroke="yellow" stroke-width="2" fill="none" />
<path d="M648.6530612244898,928.4081632653061 L648.6530612244898,952.7346938775511" stroke="yellow" stroke-width="2" fill="none" />
<path d="M612.1632653061224,885.8367346938776 L612.1632653061224,879.7551020408164" stroke="yellow" stroke-width="2" fill="none" />
<path d="M612.1632653061224,891.9183673469388 L612.1632653061224,885.8367346938776" stroke="yellow" stroke-width="2" fill="none" />
<path d="M612.1632653061224,898.0 L612.1632653061224,891.9183673469388" stroke="yellow" stroke-width="2" fill="none" />
<path d="M587.8367346938776,898.0 L612.1632653061224,898.0" stroke="yellow" stroke-width="2" fill="none" />
<path d="M587.8367346938776,891.9183673469388 L587.8367346938776,898.0" stroke="yellow" stroke-width="2" fill="none" />
<path d="M587.8367346938776,885.8367346938776 L587.8367346938776,891.9183673469388" stroke="yellow" stroke-width="2" fill="none" />
<path d="M587.8367346938776,879.7551020408164 L587.8367346938776,885.8367346938776" stroke="yellow" stroke-width="2" fill="none" />
<path d="M587.8367346938776,885.8367346938776 L612.1632653061224,885.8367346938776" stroke="yellow" stroke-width="2" fill="none" />
<path d="M587.8367346938776,891.9183673469388 L612.1632653061224,891.9183673469388" stroke="yellow" stroke-width="2" fill="none" />
<path d="M539.1836734693877,952.7346938775511 L545.2653061224489,952.7346938775511" stroke="yellow" stroke-width="2" fill="none" />
<path d="M545.2653061224489,952.7346938775511 L551.3469387755102,952.7346938775511" stroke="yellow" stroke-width="2" fill="none" />
<path d="M551.3469387755102,952.7346938775511 L557.4285714285714,952.7346938775511" stroke="yellow" stroke-width="2" fill="none" />
<path d="M557.4285714285714,952.7346938775511 L557.4285714285714,928.4081632653061" stroke="yellow" stroke-width="2" fill="none" />
<path d="M557.4285714285714,928.4081632653061 L551.3469387755102,928.4081632653061" stroke="yellow" stroke-width="2" fill="none" />
<path d="M551.3469387755102,928.4081632653061 L545.2653061224489,928.4081632653061" stroke="yellow" stroke-width="2" fill="none" />
<path d="M545.2653061224489,928.4081632653061 L539.1836734693877,928.4081632653061" stroke="yellow" stroke-width="2" fill="none" />
<path d="M545.2653061224489,952.7346938775511 L545.2653061224489,928.4081632653061" stroke="yellow" stroke-width="2" fill="none" />
<path d="M551.3469387755102,952.7346938775511 L551.3469387755102,928.4081632653061" stroke="yellow" stroke-width="2" fill="none" />
<path d="M612.1632653061224,1001.3877551020408 L612.1632653061224,995.3061224489795" stroke="yellow" stroke-width="2" fill="none" />
<path d="M612.1632653061224,995.3061224489795 L612.1632653061224,989.2244897959183" stroke="yellow" stroke-width="2" fill="none" />
<path d="M612.1632653061224,989.2244897959183 L612.1632653061224,983.1428571428571" stroke="yellow" stroke-width="2" fill="none" />
<path d="M612.1632653061224,983.1428571428571 L587.8367346938776,983.1428571428571" stroke="yellow" stroke-width="2" fill="none" />
<path d="M587.8367346938776,983.1428571428571 L587.8367346938776,989.2244897959183" stroke="yellow" stroke-width="2" fill="none" />
<path d="M587.8367346938776,989.2244897959183 L587.8367346938776,995.3061224489795" stroke="yellow" stroke-width="2" fill="none" />
<path d="M587.8367346938776,995.3061224489795 L587.8367346938776,1001.3877551020408" stroke="yellow" stroke-width="2" fill="none" />
<path d="M612.1632653061224,995.3061224489795 L587.8367346938776,995.3061224489795" stroke="yellow" stroke-width="2" fill="none" />
<path d="M612.1632653061224,989.2244897959183 L587.8367346938776,989.2244897959183" stroke="yellow" stroke-width="2" fill="none" />
<path d="M654.7346938775511,928.4081632653061 L654.7346938775511,952.7346938775511" stroke="yellow" stroke-width="2" fill="none" />
<path d="M612.1632653061224,849.3469387755102 L587.8367346938776,849.3469387755102" stroke="yellow" stroke-width="2" fill="none" />
<path d="M508.7755102040816,928.4081632653061 L508.7755102040816,952.7346938775511" stroke="yellow" stroke-width="2" fill="none" />
<path d="M587.8367346938776,1031.795918367347 L612.1632653061224,1031.795918367347" stroke="yellow" stroke-width="2" fill="none" />
<path d="M691.2244897959183,952.7346938775511 L691.2244897959183,928.4081632653061" stroke="yellow" stroke-width="2" fill="none" />
<path d="M618.2448979591836,709.469387755102 L581.7551020408164,709.469387755102" stroke="yellow" stroke-width="2" fill="none" />
<path d="M368.8979591836735,922.3265306122448 L368.8979591836735,958.8163265306123" stroke="yellow" stroke-width="2" fill="none" />
<path d="M581.7551020408164,1171.6734693877552 L618.2448979591836,1171.6734693877552" stroke="yellow" stroke-width="2" fill="none" />
<path d="M831.1020408163265,958.8163265306123 L831.1020408163265,922.3265306122448" stroke="yellow" stroke-width="2" fill="none" />
<path d="M533.1020408163265,831.1020408163265 L666.8979591836735,831.1020408163265" stroke="lavender" stroke-width="2" fill="none" />
<path d="M490.53061224489795,1007.469387755102 L490.53061224489795,873.6734693877552" stroke="lavender" stroke-width="2" fill="none" />
<path d="M666.8979591836735,1050.0408163265306 L533.1020408163265,1050.0408163265306" stroke="lavender" stroke-width="2" fill="none" />
<path d="M709.469387755102,873.6734693877552 L709.469387755102,1007.469387755102" stroke="lavender" stroke-width="2" fill="none" />
<path d="M587.8367346938776,1025.7142857142858 L587.8367346938776,1001.3877551020408" stroke="red" stroke-width="2" fill="none" />
<path d="M587.8367346938776,1001.3877551020408 L539.1836734693877,952.7346938775511" stroke="red" stroke-width="2" fill="none" />
<path d="M539.1836734693877,952.7346938775511 L514.8571428571429,952.7346938775511" stroke="red" stroke-width="2" fill="none" />
<path d="M514.8571428571429,928.4081632653061 L539.1836734693877,928.4081632653061" stroke="red" stroke-width="2" fill="none" />
<path d="M539.1836734693877,928.4081632653061 L587.8367346938776,879.7551020408164" stroke="red" stroke-width="2" fill="none" />
<path d="M587.8367346938776,879.7551020408164 L587.8367346938776,855.4285714285714" stroke="red" stroke-width="2" fill="none" />
<path d="M612.1632653061224,855.4285714285714 L612.1632653061224,879.7551020408164" stroke="red" stroke-width="2" fill="none" />
<path d="M612.1632653061224,879.7551020408164 L660.8163265306123,928.4081632653061" stroke="red" stroke-width="2" fill="none" />
<path d="M660.8163265306123,928.4081632653061 L685.1428571428571,928.4081632653061" stroke="red" stroke-width="2" fill="none" />
<path d="M685.1428571428571,952.7346938775511 L660.8163265306123,952.7346938775511" stroke="red" stroke-width="2" fill="none" />
<path d="M660.8163265306123,952.7346938775511 L612.1632653061224,1001.3877551020408" stroke="red" stroke-width="2" fill="none" />
<path d="M612.1632653061224,1001.3877551020408 L612.1632653061224,1025.7142857142858" stroke="red" stroke-width="2" fill="none" />
<path d="M612.1632653061224,849.3469387755102 L612.1632653061224,855.4285714285714" stroke="red" stroke-width="2" fill="none" />
<path d="M666.8979591836735,831.1020408163265 L612.1632653061224,849.3469387755102" stroke="red" stroke-width="2" fill="none" />
<path d="M666.8979591836735,718.5918367346939 L666.8979591836735,831.1020408163265" stroke="red" stroke-width="2" fill="none" />
<path d="M533.1020408163265,831.1020408163265 L533.1020408163265,718.5918367346939" stroke="red" stroke-width="2" fill="none" />
<path d="M587.8367346938776,849.3469387755102 L533.1020408163265,831.1020408163265" stroke="red" stroke-width="2" fill="none" />
<path d="M587.8367346938776,855.4285714285714 L587.8367346938776,849.3469387755102" stroke="red" stroke-width="2" fill="none" />
<path d="M514.8571428571429,952.7346938775511 L508.7755102040816,952.7346938775511" stroke="red" stroke-width="2" fill="none" />
<path d="M508.7755102040816,952.7346938775511 L490.53061224489795,1007.469387755102" stroke="red" stroke-width="2" fill="none" />
<path d="M490.53061224489795,1007.469387755102 L378.0204081632653,1007.469387755102" stroke="red" stroke-width="2" fill="none" />
<path d="M378.0204081632653,873.6734693877552 L490.53061224489795,873.6734693877552" stroke="red" stroke-width="2" fill="none" />
<path d="M490.53061224489795,873.6734693877552 L508.7755102040816,928.4081632653061" stroke="red" stroke-width="2" fill="none" />
<path d="M508.7755102040816,928.4081632653061 L514.8571428571429,928.4081632653061" stroke="red" stroke-width="2" fill="none" />
<path d="M612.1632653061224,1025.7142857142858 L612.1632653061224,1031.795918367347" stroke="red" stroke-width="2" fill="none" />
<path d="M612.1632653061224,1031.795918367347 L666.8979591836735,1050.0408163265306" stroke="red" stroke-width="2" fill="none" />
<path d="M666.8979591836735,1050.0408163265306 L666.8979591836735,1162.5510204081634" stroke="red" stroke-width="2" fill="none" />
<path d="M533.1020408163265,1162.5510204081634 L533.1020408163265,1050.0408163265306" stroke="red" stroke-width="2" fill="none" />
<path d="M533.1020408163265,1050.0408163265306 L587.8367346938776,1031.795918367347" stroke="red" stroke-width="2" fill="none" />
<path d="M587.8367346938776,1031.795918367347 L587.8367346938776,1025.7142857142858" stroke="red" stroke-width="2" fill="none" />
<path d="M691.2244897959183,952.7346938775511 L685.1428571428571,952.7346938775511" stroke="red" stroke-width="2" fill="none" />
<path d="M685.1428571428571,928.4081632653061 L691.2244897959183,928.4081632653061" stroke="red" stroke-width="2" fill="none" />
<path d="M691.2244897959183,928.4081632653061 L709.469387755102,873.6734693877552" stroke="red" stroke-width="2" fill="none" />
<path d="M709.469387755102,873.6734693877552 L821.9795918367347,873.6734693877552" stroke="red" stroke-width="2" fill="none" />
<path d="M821.9795918367347,1007.469387755102 L709.469387755102,1007.469387755102" stroke="red" stroke-width="2" fill="none" />
<path d="M709.469387755102,1007.469387755102 L691.2244897959183,952.7346938775511" stroke="red" stroke-width="2" fill="none" />
<path d="M831.1020408163265,922.3265306122448 L855.4285714285714,898.0" stroke="red" stroke-width="2" fill="none" />
<path d="M855.4285714285714,898.0 L855.4285714285714,806.7755102040817" stroke="red" stroke-width="2" fill="none" />
<path d="M855.4285714285714,806.7755102040817 L818.9387755102041,745.9591836734694" stroke="red" stroke-width="2" fill="none" />
<path d="M818.9387755102041,745.9591836734694 L925.3673469387755,618.2448979591836" stroke="red" stroke-width="2" fill="none" />
<path d="M928.4081632653061,612.1632653061224 L1025.7142857142858,612.1632653061224" stroke="red" stroke-width="2" fill="none" />
<path d="M1025.7142857142858,612.1632653061224 L1025.7142857142858,514.8571428571429" stroke="red" stroke-width="2" fill="none" />
<path d="M1025.7142857142858,514.8571428571429 L928.4081632653061,514.8571428571429" stroke="red" stroke-width="2" fill="none" />
<path d="M928.4081632653061,514.8571428571429 L928.4081632653061,612.1632653061224" stroke="red" stroke-width="2" fill="none" />
<path d="M922.3265306122448,615.204081632653 L794.6122448979592,721.6326530612245" stroke="red" stroke-width="2" fill="none" />
<path d="M794.6122448979592,721.6326530612245 L733.795918367347,685.1428571428571" stroke="red" stroke-width="2" fill="none" />
<path d="M733.795918367347,685.1428571428571 L642.5714285714286,685.1428571428571" stroke="red" stroke-width="2" fill="none" />
<path d="M642.5714285714286,685.1428571428571 L618.2448979591836,709.469387755102" stroke="red" stroke-width="2" fill="none" />
<path d="M618.2448979591836,1171.6734693877552 L642.5714285714286,1196.0" stroke="red" stroke-width="2" fill="none" />
<path d="M642.5714285714286,1196.0 L736.8367346938776,1196.0" stroke="red" stroke-width="2" fill="none" />
<path d="M736.8367346938776,1196.0 L794.6122448979592,1159.5102040816328" stroke="red" stroke-width="2" fill="none" />
<path d="M794.6122448979592,1159.5102040816328 L922.3265306122448,1265.938775510204" stroke="red" stroke-width="2" fill="none" />
<path d="M928.4081632653061,1268.9795918367347 L928.4081632653061,1366.2857142857142" stroke="red" stroke-width="2" fill="none" />
<path d="M928.4081632653061,1366.2857142857142 L1025.7142857142858,1366.2857142857142" stroke="red" stroke-width="2" fill="none" />
<path d="M1025.7142857142858,1366.2857142857142 L1025.7142857142858,1268.9795918367347" stroke="red" stroke-width="2" fill="none" />
<path d="M1025.7142857142858,1268.9795918367347 L928.4081632653061,1268.9795918367347" stroke="red" stroke-width="2" fill="none" />
<path d="M925.3673469387755,1262.8979591836735 L818.9387755102041,1135.1836734693877" stroke="red" stroke-width="2" fill="none" />
<path d="M818.9387755102041,1135.1836734693877 L855.4285714285714,1074.3673469387754" stroke="red" stroke-width="2" fill="none" />
<path d="M855.4285714285714,1074.3673469387754 L855.4285714285714,983.1428571428571" stroke="red" stroke-width="2" fill="none" />
<path d="M855.4285714285714,983.1428571428571 L831.1020408163265,958.8163265306123" stroke="red" stroke-width="2" fill="none" />
<path d="M368.8979591836735,958.8163265306123 L344.57142857142856,983.1428571428571" stroke="red" stroke-width="2" fill="none" />
<path d="M344.57142857142856,983.1428571428571 L344.57142857142856,1074.3673469387754" stroke="red" stroke-width="2" fill="none" />
<path d="M344.57142857142856,1074.3673469387754 L381.0612244897959,1135.1836734693877" stroke="red" stroke-width="2" fill="none" />
<path d="M381.0612244897959,1135.1836734693877 L274.63265306122446,1262.8979591836735" stroke="red" stroke-width="2" fill="none" />
<path d="M271.59183673469386,1268.9795918367347 L174.28571428571428,1268.9795918367347" stroke="red" stroke-width="2" fill="none" />
<path d="M174.28571428571428,1268.9795918367347 L174.28571428571428,1366.2857142857142" stroke="red" stroke-width="2" fill="none" />
<path d="M174.28571428571428,1366.2857142857142 L271.59183673469386,1366.2857142857142" stroke="red" stroke-width="2" fill="none" />
<path d="M271.59183673469386,1366.2857142857142 L271.59183673469386,1268.9795918367347" stroke="red" stroke-width="2" fill="none" />
<path d="M277.6734693877551,1265.938775510204 L405.38775510204084,1156.4693877551022" stroke="red" stroke-width="2" fill="none" />
<path d="M405.38775510204084,1156.4693877551022 L466.2040816326531,1196.0" stroke="red" stroke-width="2" fill="none" />
<path d="M466.2040816326531,1196.0 L557.4285714285714,1196.0" stroke="red" stroke-width="2" fill="none" />
<path d="M557.4285714285714,1196.0 L581.7551020408164,1171.6734693877552" stroke="red" stroke-width="2" fill="none" />
<path d="M581.7551020408164,709.469387755102 L557.4285714285714,685.1428571428571" stroke="red" stroke-width="2" fill="none" />
<path d="M557.4285714285714,685.1428571428571 L466.2040816326531,685.1428571428571" stroke="red" stroke-width="2" fill="none" />
<path d="M466.2040816326531,685.1428571428571 L405.38775510204084,721.6326530612245" stroke="red" stroke-width="2" fill="none" />
<path d="M405.38775510204084,721.6326530612245 L277.6734693877551,615.204081632653" stroke="red" stroke-width="2" fill="none" />
<path d="M271.59183673469386,612.1632653061224 L271.59183673469386,514.8571428571429" stroke="red" stroke-width="2" fill="none" />
<path d="M271.59183673469386,514.8571428571429 L174.28571428571428,514.8571428571429" stroke="red" stroke-width="2" fill="none" />
<path d="M174.28571428571428,514.8571428571429 L174.28571428571428,612.1632653061224" stroke="red" stroke-width="2" fill="none" />
<path d="M174.28571428571428,612.1632653061224 L271.59183673469386,612.1632653061224" stroke="red" stroke-width="2" fill="none" />
<path d="M274.63265306122446,618.2448979591836 L381.0612244897959,745.9591836734694" stroke="red" stroke-width="2" fill="none" />
<path d="M381.0612244897959,745.9591836734694 L344.57142857142856,806.7755102040817" stroke="red" stroke-width="2" fill="none" />
<path d="M344.57142857142856,806.7755102040817 L344.57142857142856,898.0" stroke="red" stroke-width="2" fill="none" />
<path d="M344.57142857142856,898.0 L368.8979591836735,922.3265306122448" stroke="red" stroke-width="2" fill="none" />
<path d="M1196.0,344.57142857142856 L1196.0,1536.5714285714284" stroke="red" stroke-width="2" fill="none" />
<path d="M603.0408163265306,4.0 L1196.0,344.57142857142856" stroke="red" stroke-width="2" fill="none" />
<path d="M4.0,347.61224489795916 L603.0408163265306,4.0" stroke="red" stroke-width="2" fill="none" />
<path d="M4.0,1536.5714285714284 L4.0,347.61224489795916" stroke="red" stroke-width="2" fill="none" />
<path d="M603.0408163265306,1925.795918367347 L4.0,1536.5714285714284" stroke="red" stroke-width="2" fill="none" />
<path d="M1196.0,1536.5714285714284 L603.0408163265306,1925.795918367347" stroke="red" stroke-width="2" fill="none" />
<path d="M831.1020408163265,1512.2448979591836 L782.4489795918367,1512.2448979591836" stroke="red" stroke-width="2" fill="none" />
<path d="M831.1020408163265,1560.8979591836735 L831.1020408163265,1512.2448979591836" stroke="red" stroke-width="2" fill="none" />
<path d="M782.4489795918367,1560.8979591836735 L831.1020408163265,1560.8979591836735" stroke="red" stroke-width="2" fill="none" />
<path d="M782.4489795918367,1512.2448979591836 L782.4489795918367,1560.8979591836735" stroke="red" stroke-width="2" fill="none" />
<path d="M417.55102040816325,1512.2448979591836 L368.8979591836735,1512.2448979591836" stroke="red" stroke-width="2" fill="none" />
<path d="M417.55102040816325,1560.8979591836735 L417.55102040816325,1512.2448979591836" stroke="red" stroke-width="2" fill="none" />
<path d="M368.8979591836735,1560.8979591836735 L417.55102040816325,1560.8979591836735" stroke="red" stroke-width="2" fill="none" />
<path d="M368.8979591836735,1512.2448979591836 L368.8979591836735,1560.8979591836735" stroke="red" stroke-width="2" fill="none" />
<path d="M1098.6938775510205,1074.3673469387754 L1050.0408163265306,1074.3673469387754" stroke="red" stroke-width="2" fill="none" />
<path d="M1098.6938775510205,1123.0204081632653 L1098.6938775510205,1074.3673469387754" stroke="red" stroke-width="2" fill="none" />
<path d="M1050.0408163265306,1123.0204081632653 L1098.6938775510205,1123.0204081632653" stroke="red" stroke-width="2" fill="none" />
<path d="M1050.0408163265306,1074.3673469387754 L1050.0408163265306,1123.0204081632653" stroke="red" stroke-width="2" fill="none" />
<path d="M1098.6938775510205,758.1224489795918 L1050.0408163265306,758.1224489795918" stroke="red" stroke-width="2" fill="none" />
<path d="M1098.6938775510205,806.7755102040817 L1098.6938775510205,758.1224489795918" stroke="red" stroke-width="2" fill="none" />
<path d="M1050.0408163265306,806.7755102040817 L1098.6938775510205,806.7755102040817" stroke="red" stroke-width="2" fill="none" />
<path d="M1050.0408163265306,758.1224489795918 L1050.0408163265306,806.7755102040817" stroke="red" stroke-width="2" fill="none" />
<path d="M149.9591836734694,1074.3673469387754 L101.30612244897964,1074.3673469387754" stroke="red" stroke-width="2" fill="none" />
<path d="M149.9591836734694,1123.0204081632653 L149.9591836734694,1074.3673469387754" stroke="red" stroke-width="2" fill="none" />
<path d="M101.30612244897964,1123.0204081632653 L149.9591836734694,1123.0204081632653" stroke="red" stroke-width="2" fill="none" />
<path d="M101.30612244897964,1074.3673469387754 L101.30612244897964,1123.0204081632653" stroke="red" stroke-width="2" fill="none" />
<path d="M149.9591836734694,758.1224489795918 L101.30612244897964,758.1224489795918" stroke="red" stroke-width="2" fill="none" />
<path d="M149.9591836734694,806.7755102040817 L149.9591836734694,758.1224489795918" stroke="red" stroke-width="2" fill="none" />
<path d="M101.30612244897964,806.7755102040817 L149.9591836734694,806.7755102040817" stroke="red" stroke-width="2" fill="none" />
<path d="M101.30612244897964,758.1224489795918 L101.30612244897964,806.7755102040817" stroke="red" stroke-width="2" fill="none" />
<path d="M441.8775510204082,368.8979591836735 L393.2244897959184,368.8979591836735" stroke="red" stroke-width="2" fill="none" />
<path d="M441.8775510204082,417.55102040816325 L441.8775510204082,368.8979591836735" stroke="red" stroke-width="2" fill="none" />
<path d="M393.2244897959184,417.55102040816325 L441.8775510204082,417.55102040816325" stroke="red" stroke-width="2" fill="none" />
<path d="M393.2244897959184,368.8979591836735 L393.2244897959184,417.55102040816325" stroke="red" stroke-width="2" fill="none" />
<path d="M806.7755102040817,368.8979591836735 L758.1224489795918,368.8979591836735" stroke="red" stroke-width="2" fill="none" />
<path d="M806.7755102040817,417.55102040816325 L806.7755102040817,368.8979591836735" stroke="red" stroke-width="2" fill="none" />
<path d="M758.1224489795918,417.55102040816325 L806.7755102040817,417.55102040816325" stroke="red" stroke-width="2" fill="none" />
<path d="M758.1224489795918,368.8979591836735 L758.1224489795918,417.55102040816325" stroke="red" stroke-width="2" fill="none" />
<path d="M575.6734693877551,1341.9591836734694 L624.3265306122449,1341.9591836734694" stroke="red" stroke-width="2" fill="none" />
<path d="M624.3265306122449,1341.9591836734694 L624.3265306122449,1293.3061224489797" stroke="red" stroke-width="2" fill="none" />
<path d="M624.3265306122449,1293.3061224489797 L575.6734693877551,1293.3061224489797" stroke="red" stroke-width="2" fill="none" />
<path d="M575.6734693877551,1293.3061224489797 L575.6734693877551,1341.9591836734694" stroke="red" stroke-width="2" fill="none" />
<path d="M198.61224489795916,964.8979591836735 L247.26530612244898,964.8979591836735" stroke="red" stroke-width="2" fill="none" />
<path d="M247.26530612244898,964.8979591836735 L247.26530612244898,916.2448979591836" stroke="red" stroke-width="2" fill="none" />
<path d="M247.26530612244898,916.2448979591836 L198.61224489795916,916.2448979591836" stroke="red" stroke-width="2" fill="none" />
<path d="M198.61224489795916,916.2448979591836 L198.61224489795916,964.8979591836735" stroke="red" stroke-width="2" fill="none" />
<path d="M952.7346938775511,964.8979591836735 L1001.3877551020408,964.8979591836735" stroke="red" stroke-width="2" fill="none" />
<path d="M1001.3877551020408,964.8979591836735 L1001.3877551020408,916.2448979591836" stroke="red" stroke-width="2" fill="none" />
<path d="M1001.3877551020408,916.2448979591836 L952.7346938775511,916.2448979591836" stroke="red" stroke-width="2" fill="none" />
<path d="M952.7346938775511,916.2448979591836 L952.7346938775511,964.8979591836735" stroke="red" stroke-width="2" fill="none" />
<path d="M575.6734693877551,587.8367346938776 L624.3265306122449,587.8367346938776" stroke="red" stroke-width="2" fill="none" />
<path d="M624.3265306122449,587.8367346938776 L624.3265306122449,539.1836734693877" stroke="red" stroke-width="2" fill="none" />
<path d="M624.3265306122449,539.1836734693877 L575.6734693877551,539.1836734693877" stroke="red" stroke-width="2" fill="none" />
<path d="M575.6734693877551,539.1836734693877 L575.6734693877551,587.8367346938776" stroke="red" stroke-width="2" fill="none" />
<path d="M922.3265306122448,1265.938775510204 L925.3673469387755,1262.8979591836735" stroke="red" stroke-width="2" fill="none" />
<path d="M925.3673469387755,618.2448979591836 L922.3265306122448,615.204081632653" stroke="red" stroke-width="2" fill="none" />
<path d="M277.6734693877551,615.204081632653 L274.63265306122446,618.2448979591836" stroke="red" stroke-width="2" fill="none" />
<path d="M274.63265306122446,1262.8979591836735 L277.6734693877551,1265.938775510204" stroke="red" stroke-width="2" fill="none" />
<path d="M533.1020408163265,718.5918367346939 L581.7551020408164,718.5918367346939" stroke="red" stroke-width="2" fill="none" />
<path d="M581.7551020408164,718.5918367346939 L581.7551020408164,709.469387755102" stroke="red" stroke-width="2" fill="none" />
<path d="M618.2448979591836,709.469387755102 L618.2448979591836,718.5918367346939" stroke="red" stroke-width="2" fill="none" />
<path d="M618.2448979591836,718.5918367346939 L666.8979591836735,718.5918367346939" stroke="red" stroke-width="2" fill="none" />
<path d="M666.8979591836735,1162.5510204081634 L618.2448979591836,1162.5510204081634" stroke="red" stroke-width="2" fill="none" />
<path d="M618.2448979591836,1162.5510204081634 L618.2448979591836,1171.6734693877552" stroke="red" stroke-width="2" fill="none" />
<path d="M581.7551020408164,1171.6734693877552 L581.7551020408164,1162.5510204081634" stroke="red" stroke-width="2" fill="none" />
<path d="M581.7551020408164,1162.5510204081634 L533.1020408163265,1162.5510204081634" stroke="red" stroke-width="2" fill="none" />
<path d="M831.1020408163265,958.8163265306123 L821.9795918367347,958.8163265306123" stroke="red" stroke-width="2" fill="none" />
<path d="M821.9795918367347,958.8163265306123 L821.9795918367347,1007.469387755102" stroke="red" stroke-width="2" fill="none" />
<path d="M821.9795918367347,922.3265306122448 L831.1020408163265,922.3265306122448" stroke="red" stroke-width="2" fill="none" />
<path d="M821.9795918367347,873.6734693877552 L821.9795918367347,922.3265306122448" stroke="red" stroke-width="2" fill="none" />
<path d="M378.0204081632653,958.8163265306123 L368.8979591836735,958.8163265306123" stroke="red" stroke-width="2" fill="none" />
<path d="M378.0204081632653,1007.469387755102 L378.0204081632653,958.8163265306123" stroke="red" stroke-width="2" fill="none" />
<path d="M368.8979591836735,922.3265306122448 L378.0204081632653,922.3265306122448" stroke="red" stroke-width="2" fill="none" />
<path d="M378.0204081632653,922.3265306122448 L378.0204081632653,873.6734693877552" stroke="red" stroke-width="2" fill="none" />
</svg>