<?xml version="1.0" encoding="UTF-8"?>
<svg xmlns="http://www.w3.org/2000/svg" xmlns:xlink="http://www.w3.org/1999/xlink"
     width="1200" height="2259" viewBox="0 0 1200 2259">
<defs>
</defs>
<path d="M666.2222222222222,1460.8888888888891 L732.4444444444445,1460.8888888888891" stroke="yellow" stroke-width="2" fill="none" />
<path d="M616.5555555555555,1460.8888888888891 L616.5555555555555,1465.027777777778" stroke="yellow" stroke-width="2" fill="none" />
<path d="M616.5555555555555,1465.027777777778 L649.6666666666666,1465.027777777778" stroke="yellow" stroke-width="2" fill="none" />
<path d="M649.6666666666666,1465.027777777778 L649.6666666666666,1460.8888888888891" stroke="yellow" stroke-width="2" fill="none" />
<path d="M749.0,1460.8888888888891 L749.0,1465.027777777778" stroke="yellow" stroke-width="2" fill="none" />
<path d="M749.0,1465.027777777778 L782.1111111111111,1465.027777777778" stroke="yellow" stroke-width="2" fill="none" />
<path d="M782.1111111111111,1465.027777777778 L782.1111111111111,1460.8888888888891" stroke="yellow" stroke-width="2" fill="none" />
<path d="M649.6666666666666,1465.027777777778 L749.0,1465.027777777778" stroke="yellow" stroke-width="2" fill="none" />
<path d="M666.2222222222222,1452.6111111111113 L732.4444444444445,1452.6111111111113" stroke="yellow" stroke-width="2" fill="none" />
<path d="M732.4444444444445,1444.3333333333335 L666.2222222222222,1444.3333333333335" stroke="yellow" stroke-width="2" fill="none" />
<path d="M533.7777777777778,1229.1111111111113 L500.66666666666663,1278.777777777778" stroke="yellow" stroke-width="2" fill="none" />
<path d="M169.55555555555554,997.3333333333335 L235.77777777777771,997.3333333333335" stroke="lavender" stroke-width="2" fill="none" />
<path d="M210.9444444444444,1080.1111111111113 L264.74999999999994,1042.8611111111113" stroke="lavender" stroke-width="2" fill="none" />
<path d="M248.1944444444444,1125.6388888888891 L306.13888888888886,1084.2500000000002" stroke="lavender" stroke-width="2" fill="none" />
<path d="M339.25,1171.166666666667 L368.2222222222222,1117.3611111111113" stroke="lavender" stroke-width="2" fill="none" />
<path d="M417.88888888888886,1196.0000000000002 L417.88888888888886,1129.777777777778" stroke="lavender" stroke-width="2" fill="none" />
<path d="M533.7777777777778,1096.666666666667 L471.69444444444446,1129.777777777778" stroke="yellow" stroke-width="2" fill="none" />
<path d="M467.55555555555554,1196.0000000000002 L500.66666666666663,1278.777777777778" stroke="yellow" stroke-width="2" fill="none" />
<path d="M471.69444444444446,1129.777777777778 L417.88888888888886,1129.777777777778" stroke="yellow" stroke-width="2" fill="none" />
<path d="M417.88888888888886,1196.0000000000002 L467.55555555555554,1196.0000000000002" stroke="yellow" stroke-width="2" fill="none" />
<path d="M417.88888888888886,1129.777777777778 L368.2222222222222,1117.3611111111113" stroke="yellow" stroke-width="2" fill="none" />
<path d="M339.25,1171.166666666667 L417.88888888888886,1196.0000000000002" stroke="yellow" stroke-width="2" fill="none" />
<path d="M210.9444444444444,1080.1111111111113 L248.1944444444444,1125.6388888888891" stroke="yellow" stroke-width="2" fill="none" />
<path d="M306.13888888888886,1084.2500000000002 L264.74999999999994,1042.8611111111113" stroke="yellow" stroke-width="2" fill="none" />
<path d="M264.74999999999994,1042.8611111111113 L235.77777777777771,997.3333333333335" stroke="yellow" stroke-width="2" fill="none" />
<path d="M169.55555555555554,997.3333333333335 L210.9444444444444,1080.1111111111113" stroke="yellow" stroke-width="2" fill="none" />
<path d="M235.77777777777771,997.3333333333335 L235.77777777777771,931.1111111111113" stroke="yellow" stroke-width="2" fill="none" />
<path d="M169.55555555555554,931.1111111111113 L169.55555555555554,997.3333333333335" stroke="yellow" stroke-width="2" fill="none" />
<path d="M169.55555555555554,931.1111111111113 L235.77777777777771,931.1111111111113" stroke="yellow" stroke-width="2" fill="none" />
<path d="M798.6666666666667,1196.0000000000002 L864.8888888888889,1196.0000000000002" stroke="lavender" stroke-width="2" fill="none" />
<path d="M1030.4444444444443,964.2222222222224 L1030.4444444444443,997.3333333333335" stroke="yellow" stroke-width="2" fill="none" />
<path d="M1030.4444444444443,997.3333333333335 L765.5555555555555,1138.0555555555557" stroke="yellow" stroke-width="2" fill="none" />
<path d="M1030.4444444444443,964.2222222222224 L997.3333333333334,964.2222222222224" stroke="yellow" stroke-width="2" fill="none" />
<path d="M997.3333333333334,964.2222222222224 L749.0,1109.0833333333335" stroke="yellow" stroke-width="2" fill="none" />
<path d="M864.8888888888889,1179.4444444444446 L798.6666666666667,1179.4444444444446" stroke="lavender" stroke-width="2" fill="none" />
<path d="M471.69444444444446,1129.777777777778 L467.55555555555554,1196.0000000000002" stroke="lavender" stroke-width="2" fill="none" />
<path d="M1042.861111111111,964.2222222222224 L1042.861111111111,997.3333333333335" stroke="lavender" stroke-width="2" fill="none" />
<path d="M1047.0,997.3333333333335 L1047.0,964.2222222222224" stroke="lavender" stroke-width="2" fill="none" />
<path d="M169.55555555555554,326.8333333333335 L202.66666666666663,326.8333333333335" stroke="lavender" stroke-width="2" fill="none" />
<path d="M202.66666666666663,318.55555555555566 L169.55555555555554,318.55555555555566" stroke="yellow" stroke-width="2" fill="none" />
<path d="M136.4444444444444,268.888888888889 L136.4444444444444,235.77777777777783" stroke="lavender" stroke-width="2" fill="none" />
<path d="M169.55555555555554,190.25 L202.66666666666663,190.25" stroke="lavender" stroke-width="2" fill="none" />
<path d="M202.66666666666663,186.1111111111113 L169.55555555555554,186.1111111111113" stroke="lavender" stroke-width="2" fill="none" />
<path d="M235.77777777777771,898.0000000000002 L169.55555555555554,898.0000000000002" stroke="yellow" stroke-width="2" fill="none" />
<path d="M169.55555555555554,70.2222222222224 L169.55555555555554,103.33333333333348" stroke="lavender" stroke-width="2" fill="none" />
<path d="M169.55555555555554,103.33333333333348 L202.66666666666663,103.33333333333348" stroke="lavender" stroke-width="2" fill="none" />
<path d="M202.66666666666663,103.33333333333348 L202.66666666666663,70.2222222222224" stroke="lavender" stroke-width="2" fill="none" />
<path d="M368.2222222222222,1117.3611111111113 L306.13888888888886,1084.2500000000002" stroke="yellow" stroke-width="2" fill="none" />
<path d="M248.1944444444444,1125.6388888888891 L339.25,1171.166666666667" stroke="yellow" stroke-width="2" fill="none" />
<path d="M202.66666666666663,70.2222222222224 L169.55555555555554,70.2222222222224" stroke="lavender" stroke-width="2" fill="none" />
<path d="M132.3055555555555,235.77777777777783 L132.3055555555555,268.888888888889" stroke="yellow" stroke-width="2" fill="none" />
<path d="M500.66666666666663,1328.4444444444446 L600.0,1262.2222222222224" stroke="yellow" stroke-width="2" fill="none" />
<path d="M566.8888888888889,1129.777777777778 L600.0,1129.777777777778" stroke="yellow" stroke-width="2" fill="none" />
<path d="M600.0,1121.5000000000002 L566.8888888888889,1121.5000000000002" stroke="lavender" stroke-width="2" fill="none" />
<path d="M202.66666666666663,633.1111111111113 L169.55555555555554,633.1111111111113" stroke="yellow" stroke-width="2" fill="none" />
<path d="M169.55555555555554,641.388888888889 L202.66666666666663,641.388888888889" stroke="lavender" stroke-width="2" fill="none" />
<path d="M682.7777777777778,2011.3611111111113 L732.4444444444445,2011.3611111111113" stroke="yellow" stroke-width="2" fill="none" />
<path d="M732.4444444444445,2011.3611111111113 L765.5555555555555,2011.3611111111113" stroke="lavender" stroke-width="2" fill="none" />
<path d="M765.5555555555555,2011.3611111111113 L798.6666666666667,2056.888888888889" stroke="yellow" stroke-width="2" fill="none" />
<path d="M798.6666666666667,2056.888888888889 L765.5555555555555,2106.5555555555557" stroke="yellow" stroke-width="2" fill="none" />
<path d="M765.5555555555555,2106.5555555555557 L682.7777777777778,2106.5555555555557" stroke="yellow" stroke-width="2" fill="none" />
<path d="M682.7777777777778,2106.5555555555557 L649.6666666666666,2056.888888888889" stroke="yellow" stroke-width="2" fill="none" />
<path d="M649.6666666666666,2056.888888888889 L682.7777777777778,2011.3611111111113" stroke="yellow" stroke-width="2" fill="none" />
<path d="M533.7777777777778,1129.777777777778 L533.7777777777778,1196.0000000000002" stroke="yellow" stroke-width="2" fill="none" />
<path d="M566.8888888888889,1196.0000000000002 L566.8888888888889,1129.777777777778" stroke="yellow" stroke-width="2" fill="none" />
<path d="M732.4444444444445,1328.4444444444446 L732.4444444444445,1262.2222222222224" stroke="yellow" stroke-width="2" fill="none" />
<path d="M831.7777777777778,2255.5555555555557 L566.8888888888889,2255.5555555555557" stroke="red" stroke-width="2" fill="none" />
<path d="M566.8888888888889,2255.5555555555557 L202.66666666666663,1891.3333333333335" stroke="red" stroke-width="2" fill="none" />
<path d="M202.66666666666663,1891.3333333333335 L202.66666666666663,1460.8888888888891" stroke="red" stroke-width="2" fill="none" />
<path d="M202.66666666666663,1460.8888888888891 L616.5555555555555,1460.8888888888891" stroke="red" stroke-width="2" fill="none" />
<path d="M1196.0,1460.8888888888891 L1196.0,1891.3333333333335" stroke="red" stroke-width="2" fill="none" />
<path d="M1196.0,1891.3333333333335 L831.7777777777778,2255.5555555555557" stroke="red" stroke-width="2" fill="none" />
<path d="M782.1111111111111,1460.8888888888891 L1196.0,1460.8888888888891" stroke="red" stroke-width="2" fill="none" />
<path d="M616.5555555555555,1460.8888888888891 L649.6666666666666,1460.8888888888891" stroke="lavender" stroke-width="2" fill="none" />
<path d="M749.0,1460.8888888888891 L782.1111111111111,1460.8888888888891" stroke="lavender" stroke-width="2" fill="none" />
<path d="M666.2222222222222,1460.8888888888891 L666.2222222222222,1452.6111111111113" stroke="red" stroke-width="2" fill="none" />
<path d="M732.4444444444445,1452.6111111111113 L732.4444444444445,1460.8888888888891" stroke="red" stroke-width="2" fill="none" />
<path d="M666.2222222222222,1452.6111111111113 L666.2222222222222,1444.3333333333335" stroke="red" stroke-width="2" fill="none" />
<path d="M666.2222222222222,1444.3333333333335 L666.2222222222222,1295.3333333333335" stroke="red" stroke-width="2" fill="none" />
<path d="M732.4444444444445,1328.4444444444446 L732.4444444444445,1444.3333333333335" stroke="red" stroke-width="2" fill="none" />
<path d="M732.4444444444445,1444.3333333333335 L732.4444444444445,1452.6111111111113" stroke="red" stroke-width="2" fill="none" />
<path d="M699.3333333333334,1196.0000000000002 L732.4444444444445,1262.2222222222224" stroke="red" stroke-width="2" fill="none" />
<path d="M649.6666666666666,1460.8888888888891 L666.2222222222222,1460.8888888888891" stroke="red" stroke-width="2" fill="none" />
<path d="M732.4444444444445,1460.8888888888891 L749.0,1460.8888888888891" stroke="red" stroke-width="2" fill="none" />
<path d="M600.0,1129.777777777778 L666.2222222222222,1162.8888888888891" stroke="red" stroke-width="2" fill="none" />
<path d="M666.2222222222222,1162.8888888888891 L699.3333333333334,1196.0000000000002" stroke="red" stroke-width="2" fill="none" />
<path d="M666.2222222222222,1295.3333333333335 L649.6666666666666,1262.2222222222224" stroke="red" stroke-width="2" fill="none" />
<path d="M649.6666666666666,1262.2222222222224 L600.0,1212.5555555555557" stroke="red" stroke-width="2" fill="none" />
<path d="M600.0,1212.5555555555557 L566.8888888888889,1196.0000000000002" stroke="red" stroke-width="2" fill="none" />
<path d="M566.8888888888889,1196.0000000000002 L533.7777777777778,1196.0000000000002" stroke="red" stroke-width="2" fill="none" />
<path d="M533.7777777777778,1129.777777777778 L566.8888888888889,1129.777777777778" stroke="red" stroke-width="2" fill="none" />
<path d="M235.77777777777771,931.1111111111113 L343.38888888888886,931.1111111111113" stroke="red" stroke-width="2" fill="none" />
<path d="M343.38888888888886,931.1111111111113 L451.0,968.3611111111113" stroke="red" stroke-width="2" fill="none" />
<path d="M451.0,968.3611111111113 L517.2222222222222,1030.4444444444446" stroke="red" stroke-width="2" fill="none" />
<path d="M517.2222222222222,1030.4444444444446 L533.7777777777778,1096.666666666667" stroke="red" stroke-width="2" fill="none" />
<path d="M533.7777777777778,1096.666666666667 L533.7777777777778,1129.777777777778" stroke="red" stroke-width="2" fill="none" />
<path d="M136.4444444444444,1196.0000000000002 L103.33333333333326,1063.5555555555557" stroke="red" stroke-width="2" fill="none" />
<path d="M202.66666666666663,1278.777777777778 L136.4444444444444,1196.0000000000002" stroke="red" stroke-width="2" fill="none" />
<path d="M136.4444444444444,939.3888888888891 L169.55555555555554,931.1111111111113" stroke="red" stroke-width="2" fill="none" />
<path d="M37.111111111111086,1030.4444444444446 L136.4444444444444,939.3888888888891" stroke="red" stroke-width="2" fill="none" />
<path d="M293.7222222222222,1311.8888888888891 L202.66666666666663,1278.777777777778" stroke="red" stroke-width="2" fill="none" />
<path d="M397.19444444444446,1307.7500000000002 L293.7222222222222,1311.8888888888891" stroke="red" stroke-width="2" fill="none" />
<path d="M500.66666666666663,1278.777777777778 L397.19444444444446,1307.7500000000002" stroke="red" stroke-width="2" fill="none" />
<path d="M533.7777777777778,1196.0000000000002 L533.7777777777778,1229.1111111111113" stroke="red" stroke-width="2" fill="none" />
<path d="M169.55555555555554,931.1111111111113 L169.55555555555554,898.0000000000002" stroke="red" stroke-width="2" fill="none" />
<path d="M169.55555555555554,898.0000000000002 L136.4444444444444,864.888888888889" stroke="red" stroke-width="2" fill="none" />
<path d="M169.55555555555554,633.1111111111113 L103.33333333333326,600.0000000000001" stroke="red" stroke-width="2" fill="none" />
<path d="M103.33333333333326,600.0000000000001 L37.111111111111086,517.2222222222224" stroke="red" stroke-width="2" fill="none" />
<path d="M37.111111111111086,517.2222222222224 L37.111111111111086,405.4722222222224" stroke="red" stroke-width="2" fill="none" />
<path d="M37.111111111111086,405.4722222222224 L103.33333333333326,339.2500000000001" stroke="red" stroke-width="2" fill="none" />
<path d="M103.33333333333326,339.2500000000001 L169.55555555555554,339.2500000000001" stroke="red" stroke-width="2" fill="none" />
<path d="M169.55555555555554,339.2500000000001 L169.55555555555554,326.8333333333335" stroke="red" stroke-width="2" fill="none" />
<path d="M169.55555555555554,326.8333333333335 L169.55555555555554,318.55555555555566" stroke="red" stroke-width="2" fill="none" />
<path d="M169.55555555555554,318.55555555555566 L169.55555555555554,302.0000000000001" stroke="red" stroke-width="2" fill="none" />
<path d="M235.77777777777771,268.888888888889 L202.66666666666663,302.0000000000001" stroke="red" stroke-width="2" fill="none" />
<path d="M202.66666666666663,302.0000000000001 L202.66666666666663,318.55555555555566" stroke="red" stroke-width="2" fill="none" />
<path d="M202.66666666666663,318.55555555555566 L202.66666666666663,326.8333333333335" stroke="red" stroke-width="2" fill="none" />
<path d="M202.66666666666663,326.8333333333335 L202.66666666666663,339.2500000000001" stroke="red" stroke-width="2" fill="none" />
<path d="M202.66666666666663,339.2500000000001 L273.02777777777777,339.2500000000001" stroke="red" stroke-width="2" fill="none" />
<path d="M273.02777777777777,339.2500000000001 L335.1111111111111,405.4722222222224" stroke="red" stroke-width="2" fill="none" />
<path d="M335.1111111111111,405.4722222222224 L335.1111111111111,517.2222222222224" stroke="red" stroke-width="2" fill="none" />
<path d="M335.1111111111111,517.2222222222224 L268.88888888888886,600.0000000000001" stroke="red" stroke-width="2" fill="none" />
<path d="M268.88888888888886,600.0000000000001 L202.66666666666663,633.1111111111113" stroke="red" stroke-width="2" fill="none" />
<path d="M285.4444444444444,848.3333333333335 L235.77777777777771,898.0000000000002" stroke="red" stroke-width="2" fill="none" />
<path d="M235.77777777777771,898.0000000000002 L235.77777777777771,931.1111111111113" stroke="red" stroke-width="2" fill="none" />
<path d="M732.4444444444445,1262.2222222222224 L765.5555555555555,1262.2222222222224" stroke="red" stroke-width="2" fill="none" />
<path d="M765.5555555555555,1262.2222222222224 L798.6666666666667,1229.1111111111113" stroke="red" stroke-width="2" fill="none" />
<path d="M798.6666666666667,1229.1111111111113 L798.6666666666667,1196.0000000000002" stroke="red" stroke-width="2" fill="none" />
<path d="M864.8888888888889,1196.0000000000002 L864.8888888888889,1245.666666666667" stroke="red" stroke-width="2" fill="none" />
<path d="M864.8888888888889,1245.666666666667 L798.6666666666667,1328.4444444444446" stroke="red" stroke-width="2" fill="none" />
<path d="M798.6666666666667,1328.4444444444446 L765.5555555555555,1328.4444444444446" stroke="red" stroke-width="2" fill="none" />
<path d="M798.6666666666667,1196.0000000000002 L798.6666666666667,1179.4444444444446" stroke="red" stroke-width="2" fill="none" />
<path d="M777.9722222222222,1179.4444444444446 L765.5555555555555,1138.0555555555557" stroke="red" stroke-width="2" fill="none" />
<path d="M749.0,1109.0833333333335 L612.4166666666666,976.638888888889" stroke="red" stroke-width="2" fill="none" />
<path d="M612.4166666666666,976.638888888889 L703.4722222222222,798.6666666666669" stroke="red" stroke-width="2" fill="none" />
<path d="M703.4722222222222,798.6666666666669 L964.2222222222223,798.6666666666669" stroke="red" stroke-width="2" fill="none" />
<path d="M964.2222222222223,798.6666666666669 L1030.4444444444443,931.1111111111113" stroke="red" stroke-width="2" fill="none" />
<path d="M1030.4444444444443,931.1111111111113 L1030.4444444444443,964.2222222222224" stroke="red" stroke-width="2" fill="none" />
<path d="M864.8888888888889,1179.4444444444446 L864.8888888888889,1196.0000000000002" stroke="red" stroke-width="2" fill="none" />
<path d="M898.0,1179.4444444444446 L864.8888888888889,1179.4444444444446" stroke="red" stroke-width="2" fill="none" />
<path d="M1030.4444444444443,1080.1111111111113 L906.2777777777778,1179.4444444444446" stroke="red" stroke-width="2" fill="none" />
<path d="M1030.4444444444443,997.3333333333335 L1030.4444444444443,1080.1111111111113" stroke="red" stroke-width="2" fill="none" />
<path d="M1030.4444444444443,964.2222222222224 L1042.861111111111,964.2222222222224" stroke="red" stroke-width="2" fill="none" />
<path d="M1042.861111111111,997.3333333333335 L1030.4444444444443,997.3333333333335" stroke="red" stroke-width="2" fill="none" />
<path d="M1042.861111111111,964.2222222222224 L1047.0,964.2222222222224" stroke="red" stroke-width="2" fill="none" />
<path d="M1047.0,997.3333333333335 L1042.861111111111,997.3333333333335" stroke="red" stroke-width="2" fill="none" />
<path d="M1047.0,964.2222222222224 L1063.5555555555557,964.2222222222224" stroke="red" stroke-width="2" fill="none" />
<path d="M1063.5555555555557,964.2222222222224 L1063.5555555555557,798.6666666666669" stroke="red" stroke-width="2" fill="none" />
<path d="M1063.5555555555557,798.6666666666669 L1030.4444444444443,765.5555555555557" stroke="red" stroke-width="2" fill="none" />
<path d="M1030.4444444444443,765.5555555555557 L471.69444444444446,765.5555555555557" stroke="red" stroke-width="2" fill="none" />
<path d="M1096.6666666666667,765.5555555555557 L1096.6666666666667,997.3333333333335" stroke="red" stroke-width="2" fill="none" />
<path d="M1063.5555555555557,732.4444444444446 L1096.6666666666667,765.5555555555557" stroke="red" stroke-width="2" fill="none" />
<path d="M533.7777777777778,732.4444444444446 L1063.5555555555557,732.4444444444446" stroke="red" stroke-width="2" fill="none" />
<path d="M1096.6666666666667,997.3333333333335 L1047.0,997.3333333333335" stroke="red" stroke-width="2" fill="none" />
<path d="M471.69444444444446,765.5555555555557 L434.44444444444446,699.3333333333335" stroke="red" stroke-width="2" fill="none" />
<path d="M434.44444444444446,699.3333333333335 L169.55555555555554,699.3333333333335" stroke="red" stroke-width="2" fill="none" />
<path d="M202.66666666666663,666.2222222222224 L533.7777777777778,666.2222222222224" stroke="red" stroke-width="2" fill="none" />
<path d="M533.7777777777778,666.2222222222224 L533.7777777777778,732.4444444444446" stroke="red" stroke-width="2" fill="none" />
<path d="M169.55555555555554,302.0000000000001 L136.4444444444444,268.888888888889" stroke="red" stroke-width="2" fill="none" />
<path d="M136.4444444444444,235.77777777777783 L169.55555555555554,202.66666666666674" stroke="red" stroke-width="2" fill="none" />
<path d="M169.55555555555554,202.66666666666674 L169.55555555555554,190.25" stroke="red" stroke-width="2" fill="none" />
<path d="M169.55555555555554,190.25 L169.55555555555554,186.1111111111113" stroke="red" stroke-width="2" fill="none" />
<path d="M169.55555555555554,186.1111111111113 L136.4444444444444,186.1111111111113" stroke="red" stroke-width="2" fill="none" />
<path d="M136.4444444444444,186.1111111111113 L70.22222222222217,86.77777777777783" stroke="red" stroke-width="2" fill="none" />
<path d="M70.22222222222217,86.77777777777783 L136.4444444444444,4.0" stroke="red" stroke-width="2" fill="none" />
<path d="M136.4444444444444,4.0 L235.77777777777771,4.0" stroke="red" stroke-width="2" fill="none" />
<path d="M235.77777777777771,4.0 L302.0,86.77777777777783" stroke="red" stroke-width="2" fill="none" />
<path d="M302.0,86.77777777777783 L235.77777777777771,186.1111111111113" stroke="red" stroke-width="2" fill="none" />
<path d="M235.77777777777771,186.1111111111113 L202.66666666666663,186.1111111111113" stroke="red" stroke-width="2" fill="none" />
<path d="M202.66666666666663,186.1111111111113 L202.66666666666663,190.25" stroke="red" stroke-width="2" fill="none" />
<path d="M202.66666666666663,190.25 L202.66666666666663,202.66666666666674" stroke="red" stroke-width="2" fill="none" />
<path d="M202.66666666666663,202.66666666666674 L235.77777777777771,235.77777777777783" stroke="red" stroke-width="2" fill="none" />
<path d="M798.6666666666667,1179.4444444444446 L777.9722222222222,1179.4444444444446" stroke="red" stroke-width="2" fill="none" />
<path d="M765.5555555555555,1328.4444444444446 L732.4444444444445,1328.4444444444446" stroke="red" stroke-width="2" fill="none" />
<path d="M136.4444444444444,268.888888888889 L132.3055555555555,268.888888888889" stroke="red" stroke-width="2" fill="none" />
<path d="M132.3055555555555,268.888888888889 L103.33333333333326,268.888888888889" stroke="red" stroke-width="2" fill="none" />
<path d="M103.33333333333326,268.888888888889 L103.33333333333326,235.77777777777783" stroke="red" stroke-width="2" fill="none" />
<path d="M103.33333333333326,235.77777777777783 L132.3055555555555,235.77777777777783" stroke="red" stroke-width="2" fill="none" />
<path d="M132.3055555555555,235.77777777777783 L136.4444444444444,235.77777777777783" stroke="red" stroke-width="2" fill="none" />
<path d="M4.0,1162.8888888888891 L37.111111111111086,1030.4444444444446" stroke="red" stroke-width="2" fill="none" />
<path d="M169.55555555555554,1361.5555555555557 L4.0,1162.8888888888891" stroke="red" stroke-width="2" fill="none" />
<path d="M600.0,1361.5555555555557 L169.55555555555554,1361.5555555555557" stroke="red" stroke-width="2" fill="none" />
<path d="M600.0,1262.2222222222224 L600.0,1361.5555555555557" stroke="red" stroke-width="2" fill="none" />
<path d="M533.7777777777778,1229.1111111111113 L600.0,1262.2222222222224" stroke="red" stroke-width="2" fill="none" />
<path d="M500.66666666666663,1328.4444444444446 L500.66666666666663,1278.777777777778" stroke="red" stroke-width="2" fill="none" />
<path d="M235.77777777777771,1328.4444444444446 L500.66666666666663,1328.4444444444446" stroke="red" stroke-width="2" fill="none" />
<path d="M103.33333333333326,1196.0000000000002 L235.77777777777771,1328.4444444444446" stroke="red" stroke-width="2" fill="none" />
<path d="M90.91666666666663,1063.5555555555557 L103.33333333333326,1196.0000000000002" stroke="red" stroke-width="2" fill="none" />
<path d="M103.33333333333326,1063.5555555555557 L90.91666666666663,1063.5555555555557" stroke="red" stroke-width="2" fill="none" />
<path d="M136.4444444444444,864.888888888889 L136.4444444444444,798.6666666666669" stroke="red" stroke-width="2" fill="none" />
<path d="M136.4444444444444,798.6666666666669 L169.55555555555554,765.5555555555557" stroke="red" stroke-width="2" fill="none" />
<path d="M169.55555555555554,765.5555555555557 L235.77777777777771,765.5555555555557" stroke="red" stroke-width="2" fill="none" />
<path d="M235.77777777777771,765.5555555555557 L285.4444444444444,815.2222222222224" stroke="red" stroke-width="2" fill="none" />
<path d="M285.4444444444444,815.2222222222224 L434.44444444444446,815.2222222222224" stroke="red" stroke-width="2" fill="none" />
<path d="M417.88888888888886,848.3333333333335 L285.4444444444444,848.3333333333335" stroke="red" stroke-width="2" fill="none" />
<path d="M434.44444444444446,815.2222222222224 L600.0,964.2222222222224" stroke="red" stroke-width="2" fill="none" />
<path d="M600.0,964.2222222222224 L600.0,1121.5000000000002" stroke="red" stroke-width="2" fill="none" />
<path d="M600.0,1121.5000000000002 L600.0,1129.777777777778" stroke="red" stroke-width="2" fill="none" />
<path d="M566.8888888888889,1129.777777777778 L566.8888888888889,1121.5000000000002" stroke="red" stroke-width="2" fill="none" />
<path d="M566.8888888888889,1121.5000000000002 L566.8888888888889,980.7777777777779" stroke="red" stroke-width="2" fill="none" />
<path d="M566.8888888888889,980.7777777777779 L417.88888888888886,848.3333333333335" stroke="red" stroke-width="2" fill="none" />
<path d="M235.77777777777771,235.77777777777783 L235.77777777777771,268.888888888889" stroke="red" stroke-width="2" fill="none" />
<path d="M169.55555555555554,699.3333333333335 L169.55555555555554,641.388888888889" stroke="red" stroke-width="2" fill="none" />
<path d="M169.55555555555554,641.388888888889 L169.55555555555554,633.1111111111113" stroke="red" stroke-width="2" fill="none" />
<path d="M202.66666666666663,633.1111111111113 L202.66666666666663,641.388888888889" stroke="red" stroke-width="2" fill="none" />
<path d="M202.66666666666663,641.388888888889 L202.66666666666663,666.2222222222224" stroke="red" stroke-width="2" fill="none" />
<path d="M906.2777777777778,1179.4444444444446 L898.0,1179.4444444444446" stroke="red" stroke-width="2" fill="none" />
<path d="M765.5555555555555,1138.0555555555557 L749.0,1109.0833333333335" stroke="red" stroke-width="2" fill="none" />
</svg>