<?xml version="1.0" encoding="UTF-8"?>
<svg xmlns="http://www.w3.org/2000/svg" xmlns:xlink="http://www.w3.org/1999/xlink"
     width="1200" height="1238" viewBox="0 0 1200 1238">
<defs>
</defs>
<path d="M425.0042553191489,910.2581560283687 L452.0567375886525,910.2581560283687" stroke="yellow" stroke-width="1" fill="none" />
<path d="M458.8198581560283,910.2581560283687 L472.3460992907801,910.2581560283687" stroke="lavender" stroke-width="1" fill="none" />
<path d="M404.7148936170213,910.2581560283687 L404.7148936170213,911.9489361702127" stroke="yellow" stroke-width="1" fill="none" />
<path d="M404.7148936170213,911.9489361702127 L418.241134751773,911.9489361702127" stroke="yellow" stroke-width="1" fill="none" />
<path d="M418.241134751773,911.9489361702127 L418.241134751773,910.2581560283687" stroke="yellow" stroke-width="1" fill="none" />
<path d="M458.8198581560283,910.2581560283687 L458.8198581560283,911.9489361702127" stroke="yellow" stroke-width="1" fill="none" />
<path d="M458.8198581560283,911.9489361702127 L472.3460992907801,911.9489361702127" stroke="yellow" stroke-width="1" fill="none" />
<path d="M472.3460992907801,911.9489361702127 L472.3460992907801,910.2581560283687" stroke="yellow" stroke-width="1" fill="none" />
<path d="M418.241134751773,911.9489361702127 L458.8198581560283,911.9489361702127" stroke="yellow" stroke-width="1" fill="none" />
<path d="M425.0042553191489,906.8765957446808 L452.0567375886525,906.8765957446808" stroke="yellow" stroke-width="1" fill="none" />
<path d="M452.0567375886525,903.4950354609929 L425.0042553191489,903.4950354609929" stroke="yellow" stroke-width="1" fill="none" />
<path d="M370.8992907801418,815.5744680851063 L357.37304964539004,835.863829787234" stroke="yellow" stroke-width="1" fill="none" />
<path d="M222.11063829787233,720.890780141844 L249.16312056737587,720.890780141844" stroke="lavender" stroke-width="1" fill="none" />
<path d="M239.01843971631203,754.7063829787234 L260.9985815602837,739.4893617021276" stroke="lavender" stroke-width="1" fill="none" />
<path d="M254.2354609929078,773.3049645390071 L277.9063829787234,756.3971631205674" stroke="lavender" stroke-width="1" fill="none" />
<path d="M291.4326241134752,791.9035460992907 L303.26808510638296,769.9234042553192" stroke="lavender" stroke-width="1" fill="none" />
<path d="M323.55744680851063,802.0482269503545 L323.55744680851063,774.995744680851" stroke="lavender" stroke-width="1" fill="none" />
<path d="M370.8992907801418,761.4695035460992 L345.53758865248227,774.995744680851" stroke="yellow" stroke-width="1" fill="none" />
<path d="M343.84680851063825,802.0482269503545 L357.37304964539004,835.863829787234" stroke="yellow" stroke-width="1" fill="none" />
<path d="M345.53758865248227,774.995744680851 L323.55744680851063,774.995744680851" stroke="yellow" stroke-width="1" fill="none" />
<path d="M323.55744680851063,802.0482269503545 L343.84680851063825,802.0482269503545" stroke="yellow" stroke-width="1" fill="none" />
<path d="M323.55744680851063,774.995744680851 L303.26808510638296,769.9234042553192" stroke="yellow" stroke-width="1" fill="none" />
<path d="M291.4326241134752,791.9035460992907 L323.55744680851063,802.0482269503545" stroke="yellow" stroke-width="1" fill="none" />
<path d="M239.01843971631203,754.7063829787234 L254.2354609929078,773.3049645390071" stroke="yellow" stroke-width="1" fill="none" />
<path d="M277.9063829787234,756.3971631205674 L260.9985815602837,739.4893617021276" stroke="yellow" stroke-width="1" fill="none" />
<path d="M260.9985815602837,739.4893617021276 L249.16312056737587,720.890780141844" stroke="yellow" stroke-width="1" fill="none" />
<path d="M222.11063829787233,720.890780141844 L239.01843971631203,754.7063829787234" stroke="yellow" stroke-width="1" fill="none" />
<path d="M249.16312056737587,720.890780141844 L249.16312056737587,693.8382978723404" stroke="yellow" stroke-width="1" fill="none" />
<path d="M222.11063829787233,693.8382978723404 L222.11063829787233,720.890780141844" stroke="yellow" stroke-width="1" fill="none" />
<path d="M222.11063829787233,693.8382978723404 L249.16312056737587,693.8382978723404" stroke="yellow" stroke-width="1" fill="none" />
<path d="M249.16312056737587,423.3134751773049 L235.63687943262408,436.8397163120567" stroke="yellow" stroke-width="1" fill="none" />
<path d="M264.3801418439716,452.0567375886524 L289.74184397163117,479.109219858156" stroke="yellow" stroke-width="1" fill="none" />
<path d="M289.74184397163117,479.109219858156 L289.74184397163117,524.7602836879432" stroke="yellow" stroke-width="1" fill="none" />
<path d="M289.74184397163117,524.7602836879432 L262.68936170212766,558.5758865248226" stroke="yellow" stroke-width="1" fill="none" />
<path d="M479.109219858156,802.0482269503545 L506.16170212765957,802.0482269503545" stroke="lavender" stroke-width="1" fill="none" />
<path d="M573.7929078014184,707.3645390070922 L573.7929078014184,720.890780141844" stroke="yellow" stroke-width="1" fill="none" />
<path d="M573.7929078014184,720.890780141844 L465.58297872340427,778.377304964539" stroke="yellow" stroke-width="1" fill="none" />
<path d="M573.7929078014184,754.7063829787234 L523.0695035460992,795.2851063829787" stroke="yellow" stroke-width="1" fill="none" />
<path d="M573.7929078014184,707.3645390070922 L560.2666666666667,707.3645390070922" stroke="yellow" stroke-width="1" fill="none" />
<path d="M560.2666666666667,707.3645390070922 L458.8198581560283,766.5418439716311" stroke="yellow" stroke-width="1" fill="none" />
<path d="M506.16170212765957,795.2851063829787 L479.109219858156,795.2851063829787" stroke="lavender" stroke-width="1" fill="none" />
<path d="M345.53758865248227,774.995744680851 L343.84680851063825,802.0482269503545" stroke="lavender" stroke-width="1" fill="none" />
<path d="M578.8652482269504,707.3645390070922 L578.8652482269504,720.890780141844" stroke="lavender" stroke-width="1" fill="none" />
<path d="M370.8992907801418,612.6808510638298 L587.3191489361702,612.6808510638298" stroke="yellow" stroke-width="1" fill="none" />
<path d="M580.5560283687943,720.890780141844 L580.5560283687943,707.3645390070922" stroke="lavender" stroke-width="1" fill="none" />
<path d="M370.8992907801418,585.6283687943262 L370.8992907801418,612.6808510638298" stroke="yellow" stroke-width="1" fill="none" />
<path d="M222.11063829787233,446.9843971631205 L235.63687943262408,446.9843971631205" stroke="lavender" stroke-width="1" fill="none" />
<path d="M235.63687943262408,443.6028368794326 L222.11063829787233,443.6028368794326" stroke="lavender" stroke-width="1" fill="none" />
<path d="M208.58439716312054,423.3134751773049 L208.58439716312054,409.78723404255317" stroke="lavender" stroke-width="1" fill="none" />
<path d="M181.531914893617,348.9191489361702 L208.58439716312054,315.1035460992907" stroke="yellow" stroke-width="1" fill="none" />
<path d="M208.58439716312054,315.1035460992907 L249.16312056737587,315.1035460992907" stroke="yellow" stroke-width="1" fill="none" />
<path d="M249.16312056737587,315.1035460992907 L276.2156028368794,348.9191489361702" stroke="yellow" stroke-width="1" fill="none" />
<path d="M235.63687943262408,396.2609929078014 L249.16312056737587,409.78723404255317" stroke="yellow" stroke-width="1" fill="none" />
<path d="M222.11063829787233,391.18865248226945 L235.63687943262408,391.18865248226945" stroke="lavender" stroke-width="1" fill="none" />
<path d="M235.63687943262408,389.4978723404255 L222.11063829787233,389.4978723404255" stroke="lavender" stroke-width="1" fill="none" />
<path d="M249.16312056737587,680.3120567375886 L222.11063829787233,680.3120567375886" stroke="yellow" stroke-width="1" fill="none" />
<path d="M222.11063829787233,342.1560283687943 L222.11063829787233,355.682269503546" stroke="lavender" stroke-width="1" fill="none" />
<path d="M222.11063829787233,355.682269503546 L235.63687943262408,355.682269503546" stroke="lavender" stroke-width="1" fill="none" />
<path d="M235.63687943262408,355.682269503546 L235.63687943262408,342.1560283687943" stroke="lavender" stroke-width="1" fill="none" />
<path d="M370.8992907801418,802.0482269503545 L370.8992907801418,774.995744680851" stroke="yellow" stroke-width="1" fill="none" />
<path d="M303.26808510638296,769.9234042553192 L277.9063829787234,756.3971631205674" stroke="yellow" stroke-width="1" fill="none" />
<path d="M254.2354609929078,773.3049645390071 L291.4326241134752,791.9035460992907" stroke="yellow" stroke-width="1" fill="none" />
<path d="M235.63687943262408,342.1560283687943 L222.11063829787233,342.1560283687943" stroke="lavender" stroke-width="1" fill="none" />
<path d="M206.89361702127658,409.78723404255317 L206.89361702127658,423.3134751773049" stroke="yellow" stroke-width="1" fill="none" />
<path d="M222.11063829787233,869.6794326241135 L154.47943262411346,788.5219858156028" stroke="yellow" stroke-width="1" fill="none" />
<path d="M357.37304964539004,856.1531914893617 L397.9517730496454,829.1007092198581" stroke="yellow" stroke-width="1" fill="none" />
<path d="M384.4255319148936,774.995744680851 L397.9517730496454,774.995744680851" stroke="yellow" stroke-width="1" fill="none" />
<path d="M397.9517730496454,771.6141843971631 L384.4255319148936,771.6141843971631" stroke="lavender" stroke-width="1" fill="none" />
<path d="M249.16312056737587,409.78723404255317 L249.16312056737587,423.3134751773049" stroke="yellow" stroke-width="1" fill="none" />
<path d="M235.63687943262408,572.1021276595744 L222.11063829787233,572.1021276595744" stroke="lavender" stroke-width="1" fill="none" />
<path d="M222.11063829787233,575.4836879432623 L235.63687943262408,575.4836879432623" stroke="lavender" stroke-width="1" fill="none" />
<path d="M431.7673758865248,1135.131914893617 L452.0567375886525,1135.131914893617" stroke="yellow" stroke-width="1" fill="none" />
<path d="M452.0567375886525,1135.131914893617 L465.58297872340427,1135.131914893617" stroke="lavender" stroke-width="1" fill="none" />
<path d="M465.58297872340427,1135.131914893617 L479.109219858156,1153.7304964539007" stroke="yellow" stroke-width="1" fill="none" />
<path d="M479.109219858156,1153.7304964539007 L465.58297872340427,1174.0198581560282" stroke="yellow" stroke-width="1" fill="none" />
<path d="M465.58297872340427,1174.0198581560282 L431.7673758865248,1174.0198581560282" stroke="yellow" stroke-width="1" fill="none" />
<path d="M431.7673758865248,1174.0198581560282 L418.241134751773,1153.7304964539007" stroke="yellow" stroke-width="1" fill="none" />
<path d="M418.241134751773,1153.7304964539007 L431.7673758865248,1135.131914893617" stroke="yellow" stroke-width="1" fill="none" />
<path d="M178.15035460992905,311.7219858156028 L178.15035460992905,348.9191489361702" stroke="yellow" stroke-width="1" fill="none" />
<path d="M279.59716312056736,311.7219858156028 L178.15035460992905,311.7219858156028" stroke="yellow" stroke-width="1" fill="none" />
<path d="M279.59716312056736,348.9191489361702 L279.59716312056736,311.7219858156028" stroke="yellow" stroke-width="1" fill="none" />
<path d="M252.54468085106382,436.8397163120567 L252.54468085106382,396.2609929078014" stroke="yellow" stroke-width="1" fill="none" />
<path d="M357.37304964539004,436.8397163120567 L397.9517730496454,423.3134751773049" stroke="yellow" stroke-width="1" fill="none" />
<path d="M293.12340425531914,558.5758865248226 L293.12340425531914,450.36595744680847" stroke="yellow" stroke-width="1" fill="none" />
<path d="M587.3191489361702,585.6283687943262 L370.8992907801418,585.6283687943262" stroke="yellow" stroke-width="1" fill="none" />
<path d="M465.58297872340427,382.7347517730496 L465.58297872340427,490.94468085106377" stroke="yellow" stroke-width="1" fill="none" />
<path d="M465.58297872340427,490.94468085106377 L479.109219858156,490.94468085106377" stroke="lavender" stroke-width="1" fill="none" />
<path d="M479.109219858156,490.94468085106377 L479.109219858156,382.7347517730496" stroke="yellow" stroke-width="1" fill="none" />
<path d="M587.3191489361702,585.6283687943262 L587.3191489361702,612.6808510638298" stroke="yellow" stroke-width="1" fill="none" />
<path d="M526.4510638297872,798.6666666666666 L577.1744680851064,758.0879432624113" stroke="yellow" stroke-width="1" fill="none" />
<path d="M154.47943262411346,802.0482269503545 L208.58439716312054,869.6794326241135" stroke="yellow" stroke-width="1" fill="none" />
<path d="M472.3460992907801,908.5673758865248 L458.8198581560283,908.5673758865248" stroke="yellow" stroke-width="1" fill="none" />
<path d="M458.8198581560283,905.1858156028368 L472.3460992907801,905.1858156028368" stroke="lavender" stroke-width="1" fill="none" />
<path d="M465.58297872340427,883.2056737588653 L479.109219858156,883.2056737588653" stroke="lavender" stroke-width="1" fill="none" />
<path d="M472.3460992907801,896.7319148936169 L458.8198581560283,896.7319148936169" stroke="yellow" stroke-width="1" fill="none" />
<path d="M641.4241134751774,1059.0468085106381 L641.4241134751774,1086.099290780142" stroke="yellow" stroke-width="1" fill="none" />
<path d="M722.5815602836878,802.0482269503545 L803.7390070921986,734.4170212765957" stroke="lavender" stroke-width="1" fill="none" />
<path d="M1087.7900709219857,747.9432624113474 L1087.7900709219857,774.995744680851" stroke="yellow" stroke-width="1" fill="none" />
<path d="M1060.7375886524821,747.9432624113474 L1060.7375886524821,774.995744680851" stroke="lavender" stroke-width="1" fill="none" />
<path d="M1091.1716312056737,747.9432624113474 L1128.3687943262412,747.9432624113474" stroke="yellow" stroke-width="1" fill="none" />
<path d="M1128.3687943262412,747.9432624113474 L1128.3687943262412,774.995744680851" stroke="yellow" stroke-width="1" fill="none" />
<path d="M1128.3687943262412,774.995744680851 L1091.1716312056737,774.995744680851" stroke="yellow" stroke-width="1" fill="none" />
<path d="M1091.1716312056737,774.995744680851 L1091.1716312056737,747.9432624113474" stroke="lavender" stroke-width="1" fill="none" />
<path d="M709.0553191489362,1059.0468085106381 L749.6340425531914,1086.099290780142" stroke="yellow" stroke-width="1" fill="none" />
<path d="M1135.131914893617,742.8709219858156 L1091.1716312056737,742.8709219858156" stroke="yellow" stroke-width="1" fill="none" />
<path d="M1135.131914893617,780.0680851063829 L1135.131914893617,742.8709219858156" stroke="yellow" stroke-width="1" fill="none" />
<path d="M1091.1716312056737,780.0680851063829 L1135.131914893617,780.0680851063829" stroke="yellow" stroke-width="1" fill="none" />
<path d="M1047.2113475177305,788.5219858156028 L1033.6851063829788,788.5219858156028" stroke="yellow" stroke-width="1" fill="none" />
<path d="M590.7007092198581,612.6808510638298 L590.7007092198581,585.6283687943262" stroke="yellow" stroke-width="1" fill="none" />
<path d="M722.5815602836878,802.0482269503545 L790.2127659574468,829.1007092198581" stroke="yellow" stroke-width="1" fill="none" />
<path d="M817.2652482269503,788.5219858156028 L803.7390070921986,734.4170212765957" stroke="yellow" stroke-width="1" fill="none" />
<path d="M722.5815602836878,1004.9418439716312 L722.5815602836878,991.4156028368793" stroke="yellow" stroke-width="1" fill="none" />
<path d="M803.7390070921986,810.5021276595744 L790.2127659574468,829.1007092198581" stroke="yellow" stroke-width="1" fill="none" />
<path d="M790.2127659574468,1018.4680851063829 L722.5815602836878,1018.4680851063829" stroke="yellow" stroke-width="1" fill="none" />
<path d="M643.1148936170213,1059.0468085106381 L643.1148936170213,1086.099290780142" stroke="lavender" stroke-width="1" fill="none" />
<path d="M492.6354609929078,1234.8879432624112 L384.4255319148936,1234.8879432624112" stroke="red" stroke-width="1" fill="none" />
<path d="M384.4255319148936,1234.8879432624112 L235.63687943262408,1086.099290780142" stroke="red" stroke-width="1" fill="none" />
<path d="M235.63687943262408,1086.099290780142 L235.63687943262408,910.2581560283687" stroke="red" stroke-width="1" fill="none" />
<path d="M235.63687943262408,910.2581560283687 L404.7148936170213,910.2581560283687" stroke="red" stroke-width="1" fill="none" />
<path d="M641.4241134751774,910.2581560283687 L641.4241134751774,1059.0468085106381" stroke="red" stroke-width="1" fill="none" />
<path d="M641.4241134751774,1086.099290780142 L492.6354609929078,1234.8879432624112" stroke="red" stroke-width="1" fill="none" />
<path d="M472.3460992907801,910.2581560283687 L641.4241134751774,910.2581560283687" stroke="red" stroke-width="1" fill="none" />
<path d="M404.7148936170213,910.2581560283687 L418.241134751773,910.2581560283687" stroke="lavender" stroke-width="1" fill="none" />
<path d="M425.0042553191489,910.2581560283687 L425.0042553191489,906.8765957446808" stroke="red" stroke-width="1" fill="none" />
<path d="M452.0567375886525,906.8765957446808 L452.0567375886525,910.2581560283687" stroke="red" stroke-width="1" fill="none" />
<path d="M425.0042553191489,906.8765957446808 L425.0042553191489,903.4950354609929" stroke="red" stroke-width="1" fill="none" />
<path d="M425.0042553191489,903.4950354609929 L425.0042553191489,842.6269503546099" stroke="red" stroke-width="1" fill="none" />
<path d="M452.0567375886525,856.1531914893617 L452.0567375886525,903.4950354609929" stroke="red" stroke-width="1" fill="none" />
<path d="M452.0567375886525,903.4950354609929 L452.0567375886525,906.8765957446808" stroke="red" stroke-width="1" fill="none" />
<path d="M438.5304964539007,802.0482269503545 L452.0567375886525,829.1007092198581" stroke="red" stroke-width="1" fill="none" />
<path d="M418.241134751773,910.2581560283687 L425.0042553191489,910.2581560283687" stroke="red" stroke-width="1" fill="none" />
<path d="M452.0567375886525,910.2581560283687 L458.8198581560283,910.2581560283687" stroke="red" stroke-width="1" fill="none" />
<path d="M397.9517730496454,774.995744680851 L425.0042553191489,788.5219858156028" stroke="red" stroke-width="1" fill="none" />
<path d="M425.0042553191489,788.5219858156028 L438.5304964539007,802.0482269503545" stroke="red" stroke-width="1" fill="none" />
<path d="M425.0042553191489,842.6269503546099 L418.241134751773,829.1007092198581" stroke="red" stroke-width="1" fill="none" />
<path d="M418.241134751773,829.1007092198581 L397.9517730496454,808.8113475177305" stroke="red" stroke-width="1" fill="none" />
<path d="M397.9517730496454,808.8113475177305 L384.4255319148936,802.0482269503545" stroke="red" stroke-width="1" fill="none" />
<path d="M384.4255319148936,802.0482269503545 L370.8992907801418,802.0482269503545" stroke="red" stroke-width="1" fill="none" />
<path d="M370.8992907801418,774.995744680851 L384.4255319148936,774.995744680851" stroke="red" stroke-width="1" fill="none" />
<path d="M249.16312056737587,693.8382978723404 L293.12340425531914,693.8382978723404" stroke="red" stroke-width="1" fill="none" />
<path d="M293.12340425531914,693.8382978723404 L337.08368794326236,709.0553191489362" stroke="red" stroke-width="1" fill="none" />
<path d="M337.08368794326236,709.0553191489362 L364.13617021276593,734.4170212765957" stroke="red" stroke-width="1" fill="none" />
<path d="M364.13617021276593,734.4170212765957 L370.8992907801418,761.4695035460992" stroke="red" stroke-width="1" fill="none" />
<path d="M370.8992907801418,761.4695035460992 L370.8992907801418,774.995744680851" stroke="red" stroke-width="1" fill="none" />
<path d="M208.58439716312054,802.0482269503545 L195.05815602836878,747.9432624113474" stroke="red" stroke-width="1" fill="none" />
<path d="M235.63687943262408,835.863829787234 L208.58439716312054,802.0482269503545" stroke="red" stroke-width="1" fill="none" />
<path d="M208.58439716312054,697.2198581560283 L222.11063829787233,693.8382978723404" stroke="red" stroke-width="1" fill="none" />
<path d="M168.00567375886524,734.4170212765957 L208.58439716312054,697.2198581560283" stroke="red" stroke-width="1" fill="none" />
<path d="M272.83404255319147,849.3900709219857 L235.63687943262408,835.863829787234" stroke="red" stroke-width="1" fill="none" />
<path d="M315.1035460992908,847.6992907801418 L272.83404255319147,849.3900709219857" stroke="red" stroke-width="1" fill="none" />
<path d="M357.37304964539004,835.863829787234 L315.1035460992908,847.6992907801418" stroke="red" stroke-width="1" fill="none" />
<path d="M370.8992907801418,802.0482269503545 L370.8992907801418,815.5744680851063" stroke="red" stroke-width="1" fill="none" />
<path d="M222.11063829787233,693.8382978723404 L222.11063829787233,680.3120567375886" stroke="red" stroke-width="1" fill="none" />
<path d="M222.11063829787233,680.3120567375886 L208.58439716312054,666.7858156028368" stroke="red" stroke-width="1" fill="none" />
<path d="M222.11063829787233,572.1021276595744 L195.05815602836878,558.5758865248226" stroke="red" stroke-width="1" fill="none" />
<path d="M195.05815602836878,558.5758865248226 L168.00567375886524,524.7602836879432" stroke="red" stroke-width="1" fill="none" />
<path d="M168.00567375886524,524.7602836879432 L168.00567375886524,479.109219858156" stroke="red" stroke-width="1" fill="none" />
<path d="M168.00567375886524,479.109219858156 L195.05815602836878,452.0567375886524" stroke="red" stroke-width="1" fill="none" />
<path d="M195.05815602836878,452.0567375886524 L222.11063829787233,452.0567375886524" stroke="red" stroke-width="1" fill="none" />
<path d="M222.11063829787233,452.0567375886524 L222.11063829787233,446.9843971631205" stroke="red" stroke-width="1" fill="none" />
<path d="M222.11063829787233,446.9843971631205 L222.11063829787233,443.6028368794326" stroke="red" stroke-width="1" fill="none" />
<path d="M222.11063829787233,443.6028368794326 L222.11063829787233,436.8397163120567" stroke="red" stroke-width="1" fill="none" />
<path d="M235.63687943262408,436.8397163120567 L235.63687943262408,443.6028368794326" stroke="red" stroke-width="1" fill="none" />
<path d="M235.63687943262408,443.6028368794326 L235.63687943262408,446.9843971631205" stroke="red" stroke-width="1" fill="none" />
<path d="M235.63687943262408,446.9843971631205 L235.63687943262408,452.0567375886524" stroke="red" stroke-width="1" fill="none" />
<path d="M235.63687943262408,452.0567375886524 L264.3801418439716,452.0567375886524" stroke="red" stroke-width="1" fill="none" />
<path d="M262.68936170212766,558.5758865248226 L235.63687943262408,572.1021276595744" stroke="red" stroke-width="1" fill="none" />
<path d="M269.45248226950355,660.022695035461 L249.16312056737587,680.3120567375886" stroke="red" stroke-width="1" fill="none" />
<path d="M249.16312056737587,680.3120567375886 L249.16312056737587,693.8382978723404" stroke="red" stroke-width="1" fill="none" />
<path d="M452.0567375886525,829.1007092198581 L465.58297872340427,829.1007092198581" stroke="red" stroke-width="1" fill="none" />
<path d="M465.58297872340427,829.1007092198581 L479.109219858156,815.5744680851063" stroke="red" stroke-width="1" fill="none" />
<path d="M479.109219858156,815.5744680851063 L479.109219858156,802.0482269503545" stroke="red" stroke-width="1" fill="none" />
<path d="M506.16170212765957,802.0482269503545 L506.16170212765957,822.3375886524822" stroke="red" stroke-width="1" fill="none" />
<path d="M506.16170212765957,822.3375886524822 L479.109219858156,856.1531914893617" stroke="red" stroke-width="1" fill="none" />
<path d="M479.109219858156,856.1531914893617 L465.58297872340427,856.1531914893617" stroke="red" stroke-width="1" fill="none" />
<path d="M479.109219858156,802.0482269503545 L479.109219858156,795.2851063829787" stroke="red" stroke-width="1" fill="none" />
<path d="M470.65531914893614,795.2851063829787 L465.58297872340427,778.377304964539" stroke="red" stroke-width="1" fill="none" />
<path d="M458.8198581560283,766.5418439716311 L403.0241134751773,712.4368794326241" stroke="red" stroke-width="1" fill="none" />
<path d="M403.0241134751773,712.4368794326241 L440.22127659574465,639.7333333333333" stroke="red" stroke-width="1" fill="none" />
<path d="M440.22127659574465,639.7333333333333 L546.7404255319149,639.7333333333333" stroke="red" stroke-width="1" fill="none" />
<path d="M546.7404255319149,639.7333333333333 L573.7929078014184,693.8382978723404" stroke="red" stroke-width="1" fill="none" />
<path d="M573.7929078014184,693.8382978723404 L573.7929078014184,707.3645390070922" stroke="red" stroke-width="1" fill="none" />
<path d="M506.16170212765957,795.2851063829787 L506.16170212765957,802.0482269503545" stroke="red" stroke-width="1" fill="none" />
<path d="M519.6879432624113,795.2851063829787 L506.16170212765957,795.2851063829787" stroke="red" stroke-width="1" fill="none" />
<path d="M573.7929078014184,720.890780141844 L573.7929078014184,754.7063829787234" stroke="red" stroke-width="1" fill="none" />
<path d="M573.7929078014184,707.3645390070922 L578.8652482269504,707.3645390070922" stroke="red" stroke-width="1" fill="none" />
<path d="M578.8652482269504,720.890780141844 L573.7929078014184,720.890780141844" stroke="red" stroke-width="1" fill="none" />
<path d="M578.8652482269504,707.3645390070922 L580.5560283687943,707.3645390070922" stroke="red" stroke-width="1" fill="none" />
<path d="M580.5560283687943,720.890780141844 L578.8652482269504,720.890780141844" stroke="red" stroke-width="1" fill="none" />
<path d="M580.5560283687943,707.3645390070922 L587.3191489361702,707.3645390070922" stroke="red" stroke-width="1" fill="none" />
<path d="M587.3191489361702,707.3645390070922 L587.3191489361702,639.7333333333333" stroke="red" stroke-width="1" fill="none" />
<path d="M587.3191489361702,639.7333333333333 L573.7929078014184,626.2070921985814" stroke="red" stroke-width="1" fill="none" />
<path d="M573.7929078014184,626.2070921985814 L345.53758865248227,626.2070921985814" stroke="red" stroke-width="1" fill="none" />
<path d="M600.845390070922,626.2070921985814 L600.845390070922,720.890780141844" stroke="red" stroke-width="1" fill="none" />
<path d="M587.3191489361702,612.6808510638298 L600.845390070922,626.2070921985814" stroke="red" stroke-width="1" fill="none" />
<path d="M600.845390070922,720.890780141844 L580.5560283687943,720.890780141844" stroke="red" stroke-width="1" fill="none" />
<path d="M345.53758865248227,626.2070921985814 L330.3205673758865,599.154609929078" stroke="red" stroke-width="1" fill="none" />
<path d="M330.3205673758865,599.154609929078 L222.11063829787233,599.154609929078" stroke="red" stroke-width="1" fill="none" />
<path d="M235.63687943262408,585.6283687943262 L370.8992907801418,585.6283687943262" stroke="red" stroke-width="1" fill="none" />
<path d="M222.11063829787233,436.8397163120567 L208.58439716312054,423.3134751773049" stroke="red" stroke-width="1" fill="none" />
<path d="M208.58439716312054,409.78723404255317 L222.11063829787233,396.2609929078014" stroke="red" stroke-width="1" fill="none" />
<path d="M222.11063829787233,396.2609929078014 L222.11063829787233,391.18865248226945" stroke="red" stroke-width="1" fill="none" />
<path d="M222.11063829787233,391.18865248226945 L222.11063829787233,389.4978723404255" stroke="red" stroke-width="1" fill="none" />
<path d="M222.11063829787233,389.4978723404255 L208.58439716312054,389.4978723404255" stroke="red" stroke-width="1" fill="none" />
<path d="M276.2156028368794,348.9191489361702 L249.16312056737587,389.4978723404255" stroke="red" stroke-width="1" fill="none" />
<path d="M249.16312056737587,389.4978723404255 L235.63687943262408,389.4978723404255" stroke="red" stroke-width="1" fill="none" />
<path d="M235.63687943262408,389.4978723404255 L235.63687943262408,391.18865248226945" stroke="red" stroke-width="1" fill="none" />
<path d="M235.63687943262408,391.18865248226945 L235.63687943262408,396.2609929078014" stroke="red" stroke-width="1" fill="none" />
<path d="M479.109219858156,795.2851063829787 L470.65531914893614,795.2851063829787" stroke="red" stroke-width="1" fill="none" />
<path d="M465.58297872340427,856.1531914893617 L452.0567375886525,856.1531914893617" stroke="red" stroke-width="1" fill="none" />
<path d="M208.58439716312054,423.3134751773049 L206.89361702127658,423.3134751773049" stroke="red" stroke-width="1" fill="none" />
<path d="M206.89361702127658,423.3134751773049 L195.05815602836878,423.3134751773049" stroke="red" stroke-width="1" fill="none" />
<path d="M195.05815602836878,423.3134751773049 L195.05815602836878,409.78723404255317" stroke="red" stroke-width="1" fill="none" />
<path d="M195.05815602836878,409.78723404255317 L206.89361702127658,409.78723404255317" stroke="red" stroke-width="1" fill="none" />
<path d="M206.89361702127658,409.78723404255317 L208.58439716312054,409.78723404255317" stroke="red" stroke-width="1" fill="none" />
<path d="M154.47943262411346,788.5219858156028 L168.00567375886524,734.4170212765957" stroke="red" stroke-width="1" fill="none" />
<path d="M397.9517730496454,869.6794326241135 L222.11063829787233,869.6794326241135" stroke="red" stroke-width="1" fill="none" />
<path d="M397.9517730496454,829.1007092198581 L397.9517730496454,869.6794326241135" stroke="red" stroke-width="1" fill="none" />
<path d="M370.8992907801418,815.5744680851063 L397.9517730496454,829.1007092198581" stroke="red" stroke-width="1" fill="none" />
<path d="M357.37304964539004,856.1531914893617 L357.37304964539004,835.863829787234" stroke="red" stroke-width="1" fill="none" />
<path d="M249.16312056737587,856.1531914893617 L357.37304964539004,856.1531914893617" stroke="red" stroke-width="1" fill="none" />
<path d="M195.05815602836878,802.0482269503545 L249.16312056737587,856.1531914893617" stroke="red" stroke-width="1" fill="none" />
<path d="M189.98581560283685,747.9432624113474 L195.05815602836878,802.0482269503545" stroke="red" stroke-width="1" fill="none" />
<path d="M195.05815602836878,747.9432624113474 L189.98581560283685,747.9432624113474" stroke="red" stroke-width="1" fill="none" />
<path d="M208.58439716312054,666.7858156028368 L208.58439716312054,639.7333333333333" stroke="red" stroke-width="1" fill="none" />
<path d="M208.58439716312054,639.7333333333333 L222.11063829787233,626.2070921985814" stroke="red" stroke-width="1" fill="none" />
<path d="M222.11063829787233,626.2070921985814 L249.16312056737587,626.2070921985814" stroke="red" stroke-width="1" fill="none" />
<path d="M249.16312056737587,626.2070921985814 L269.45248226950355,646.4964539007092" stroke="red" stroke-width="1" fill="none" />
<path d="M269.45248226950355,646.4964539007092 L330.3205673758865,646.4964539007092" stroke="red" stroke-width="1" fill="none" />
<path d="M323.55744680851063,660.022695035461 L269.45248226950355,660.022695035461" stroke="red" stroke-width="1" fill="none" />
<path d="M330.3205673758865,646.4964539007092 L397.9517730496454,707.3645390070922" stroke="red" stroke-width="1" fill="none" />
<path d="M397.9517730496454,707.3645390070922 L397.9517730496454,771.6141843971631" stroke="red" stroke-width="1" fill="none" />
<path d="M397.9517730496454,771.6141843971631 L397.9517730496454,774.995744680851" stroke="red" stroke-width="1" fill="none" />
<path d="M384.4255319148936,774.995744680851 L384.4255319148936,771.6141843971631" stroke="red" stroke-width="1" fill="none" />
<path d="M384.4255319148936,771.6141843971631 L384.4255319148936,714.127659574468" stroke="red" stroke-width="1" fill="none" />
<path d="M384.4255319148936,714.127659574468 L323.55744680851063,660.022695035461" stroke="red" stroke-width="1" fill="none" />
<path d="M222.11063829787233,599.154609929078 L222.11063829787233,575.4836879432623" stroke="red" stroke-width="1" fill="none" />
<path d="M222.11063829787233,575.4836879432623 L222.11063829787233,572.1021276595744" stroke="red" stroke-width="1" fill="none" />
<path d="M235.63687943262408,572.1021276595744 L235.63687943262408,575.4836879432623" stroke="red" stroke-width="1" fill="none" />
<path d="M235.63687943262408,575.4836879432623 L235.63687943262408,585.6283687943262" stroke="red" stroke-width="1" fill="none" />
<path d="M523.0695035460992,795.2851063829787 L519.6879432624113,795.2851063829787" stroke="red" stroke-width="1" fill="none" />
<path d="M465.58297872340427,778.377304964539 L458.8198581560283,766.5418439716311" stroke="red" stroke-width="1" fill="none" />
<path d="M181.531914893617,348.9191489361702 L178.15035460992905,348.9191489361702" stroke="red" stroke-width="1" fill="none" />
<path d="M279.59716312056736,348.9191489361702 L276.2156028368794,348.9191489361702" stroke="red" stroke-width="1" fill="none" />
<path d="M369.20851063829787,348.9191489361702 L279.59716312056736,348.9191489361702" stroke="red" stroke-width="1" fill="none" />
<path d="M452.0567375886525,220.41985815602834 L369.20851063829787,348.9191489361702" stroke="red" stroke-width="1" fill="none" />
<path d="M235.63687943262408,4.0 L452.0567375886525,220.41985815602834" stroke="red" stroke-width="1" fill="none" />
<path d="M4.0,220.41985815602834 L235.63687943262408,4.0" stroke="red" stroke-width="1" fill="none" />
<path d="M86.84822695035461,348.9191489361702 L4.0,220.41985815602834" stroke="red" stroke-width="1" fill="none" />
<path d="M178.15035460992905,348.9191489361702 L86.84822695035461,348.9191489361702" stroke="red" stroke-width="1" fill="none" />
<path d="M208.58439716312054,389.4978723404255 L181.531914893617,348.9191489361702" stroke="red" stroke-width="1" fill="none" />
<path d="M222.11063829787233,260.9985815602836 L249.16312056737587,260.9985815602836" stroke="red" stroke-width="1" fill="none" />
<path d="M249.16312056737587,260.9985815602836 L249.16312056737587,233.94609929078013" stroke="red" stroke-width="1" fill="none" />
<path d="M249.16312056737587,233.94609929078013 L222.11063829787233,233.94609929078013" stroke="red" stroke-width="1" fill="none" />
<path d="M222.11063829787233,233.94609929078013 L222.11063829787233,260.9985815602836" stroke="red" stroke-width="1" fill="none" />
<path d="M113.90070921985813,220.41985815602834 L140.95319148936167,220.41985815602834" stroke="red" stroke-width="1" fill="none" />
<path d="M140.95319148936167,220.41985815602834 L140.95319148936167,193.36737588652477" stroke="red" stroke-width="1" fill="none" />
<path d="M140.95319148936167,193.36737588652477 L113.90070921985813,193.36737588652477" stroke="red" stroke-width="1" fill="none" />
<path d="M113.90070921985813,193.36737588652477 L113.90070921985813,220.41985815602834" stroke="red" stroke-width="1" fill="none" />
<path d="M249.16312056737587,179.84113475177298 L276.2156028368794,179.84113475177298" stroke="red" stroke-width="1" fill="none" />
<path d="M276.2156028368794,179.84113475177298 L276.2156028368794,152.7886524822694" stroke="red" stroke-width="1" fill="none" />
<path d="M276.2156028368794,152.7886524822694 L249.16312056737587,152.7886524822694" stroke="red" stroke-width="1" fill="none" />
<path d="M249.16312056737587,152.7886524822694 L249.16312056737587,179.84113475177298" stroke="red" stroke-width="1" fill="none" />
<path d="M235.63687943262408,396.2609929078014 L252.54468085106382,396.2609929078014" stroke="red" stroke-width="1" fill="none" />
<path d="M252.54468085106382,436.8397163120567 L235.63687943262408,436.8397163120567" stroke="red" stroke-width="1" fill="none" />
<path d="M252.54468085106382,396.2609929078014 L262.68936170212766,396.2609929078014" stroke="red" stroke-width="1" fill="none" />
<path d="M262.68936170212766,396.2609929078014 L276.2156028368794,409.78723404255317" stroke="red" stroke-width="1" fill="none" />
<path d="M276.2156028368794,409.78723404255317 L276.2156028368794,423.3134751773049" stroke="red" stroke-width="1" fill="none" />
<path d="M276.2156028368794,423.3134751773049 L262.68936170212766,436.8397163120567" stroke="red" stroke-width="1" fill="none" />
<path d="M262.68936170212766,436.8397163120567 L252.54468085106382,436.8397163120567" stroke="red" stroke-width="1" fill="none" />
<path d="M345.53758865248227,558.5758865248226 L293.12340425531914,558.5758865248226" stroke="red" stroke-width="1" fill="none" />
<path d="M397.9517730496454,490.94468085106377 L345.53758865248227,558.5758865248226" stroke="red" stroke-width="1" fill="none" />
<path d="M397.9517730496454,423.3134751773049 L397.9517730496454,490.94468085106377" stroke="red" stroke-width="1" fill="none" />
<path d="M370.8992907801418,355.682269503546 L397.9517730496454,423.3134751773049" stroke="red" stroke-width="1" fill="none" />
<path d="M289.74184397163117,355.682269503546 L370.8992907801418,355.682269503546" stroke="red" stroke-width="1" fill="none" />
<path d="M289.74184397163117,409.78723404255317 L289.74184397163117,355.682269503546" stroke="red" stroke-width="1" fill="none" />
<path d="M330.3205673758865,409.78723404255317 L289.74184397163117,409.78723404255317" stroke="red" stroke-width="1" fill="none" />
<path d="M357.37304964539004,436.8397163120567 L330.3205673758865,409.78723404255317" stroke="red" stroke-width="1" fill="none" />
<path d="M343.84680851063825,450.36595744680847 L357.37304964539004,436.8397163120567" stroke="red" stroke-width="1" fill="none" />
<path d="M293.12340425531914,450.36595744680847 L343.84680851063825,450.36595744680847" stroke="red" stroke-width="1" fill="none" />
<path d="M264.3801418439716,452.0567375886524 L293.12340425531914,450.36595744680847" stroke="red" stroke-width="1" fill="none" />
<path d="M293.12340425531914,558.5758865248226 L262.68936170212766,558.5758865248226" stroke="red" stroke-width="1" fill="none" />
<path d="M316.79432624113474,233.94609929078013 L343.84680851063825,233.94609929078013" stroke="red" stroke-width="1" fill="none" />
<path d="M343.84680851063825,233.94609929078013 L343.84680851063825,206.89361702127655" stroke="red" stroke-width="1" fill="none" />
<path d="M343.84680851063825,206.89361702127655 L316.79432624113474,206.89361702127655" stroke="red" stroke-width="1" fill="none" />
<path d="M316.79432624113474,206.89361702127655 L316.79432624113474,233.94609929078013" stroke="red" stroke-width="1" fill="none" />
<path d="M370.8992907801418,585.6283687943262 L452.0567375886525,382.7347517730496" stroke="red" stroke-width="1" fill="none" />
<path d="M452.0567375886525,382.7347517730496 L465.58297872340427,382.7347517730496" stroke="red" stroke-width="1" fill="none" />
<path d="M479.109219858156,382.7347517730496 L492.6354609929078,382.7347517730496" stroke="red" stroke-width="1" fill="none" />
<path d="M492.6354609929078,382.7347517730496 L587.3191489361702,585.6283687943262" stroke="red" stroke-width="1" fill="none" />
<path d="M526.4510638297872,798.6666666666666 L523.0695035460992,795.2851063829787" stroke="red" stroke-width="1" fill="none" />
<path d="M573.7929078014184,754.7063829787234 L577.1744680851064,758.0879432624113" stroke="red" stroke-width="1" fill="none" />
<path d="M526.4510638297872,805.4297872340425 L526.4510638297872,798.6666666666666" stroke="red" stroke-width="1" fill="none" />
<path d="M577.1744680851064,805.4297872340425 L526.4510638297872,805.4297872340425" stroke="red" stroke-width="1" fill="none" />
<path d="M577.1744680851064,758.0879432624113 L577.1744680851064,805.4297872340425" stroke="red" stroke-width="1" fill="none" />
<path d="M465.58297872340427,382.7347517730496 L479.109219858156,382.7347517730496" stroke="red" stroke-width="1" fill="none" />
<path d="M222.11063829787233,869.6794326241135 L208.58439716312054,869.6794326241135" stroke="red" stroke-width="1" fill="none" />
<path d="M154.47943262411346,802.0482269503545 L154.47943262411346,788.5219858156028" stroke="red" stroke-width="1" fill="none" />
<path d="M208.58439716312054,869.6794326241135 L154.47943262411346,869.6794326241135" stroke="red" stroke-width="1" fill="none" />
<path d="M154.47943262411346,869.6794326241135 L154.47943262411346,802.0482269503545" stroke="red" stroke-width="1" fill="none" />
<path d="M458.8198581560283,910.2581560283687 L458.8198581560283,908.5673758865248" stroke="red" stroke-width="1" fill="none" />
<path d="M472.3460992907801,908.5673758865248 L472.3460992907801,910.2581560283687" stroke="red" stroke-width="1" fill="none" />
<path d="M458.8198581560283,908.5673758865248 L458.8198581560283,905.1858156028368" stroke="red" stroke-width="1" fill="none" />
<path d="M458.8198581560283,905.1858156028368 L458.8198581560283,896.7319148936169" stroke="red" stroke-width="1" fill="none" />
<path d="M472.3460992907801,896.7319148936169 L472.3460992907801,905.1858156028368" stroke="red" stroke-width="1" fill="none" />
<path d="M472.3460992907801,905.1858156028368 L472.3460992907801,908.5673758865248" stroke="red" stroke-width="1" fill="none" />
<path d="M458.8198581560283,896.7319148936169 L465.58297872340427,883.2056737588653" stroke="red" stroke-width="1" fill="none" />
<path d="M465.58297872340427,883.2056737588653 L465.58297872340427,869.6794326241135" stroke="red" stroke-width="1" fill="none" />
<path d="M465.58297872340427,869.6794326241135 L479.109219858156,869.6794326241135" stroke="red" stroke-width="1" fill="none" />
<path d="M479.109219858156,869.6794326241135 L479.109219858156,883.2056737588653" stroke="red" stroke-width="1" fill="none" />
<path d="M479.109219858156,883.2056737588653 L472.3460992907801,896.7319148936169" stroke="red" stroke-width="1" fill="none" />
<path d="M643.1148936170213,1086.099290780142 L641.4241134751774,1086.099290780142" stroke="red" stroke-width="1" fill="none" />
<path d="M641.4241134751774,1059.0468085106381 L643.1148936170213,1059.0468085106381" stroke="red" stroke-width="1" fill="none" />
<path d="M749.6340425531914,1086.099290780142 L643.1148936170213,1086.099290780142" stroke="red" stroke-width="1" fill="none" />
<path d="M790.2127659574468,1018.4680851063829 L749.6340425531914,1086.099290780142" stroke="red" stroke-width="1" fill="none" />
<path d="M830.7914893617021,1018.4680851063829 L790.2127659574468,1018.4680851063829" stroke="red" stroke-width="1" fill="none" />
<path d="M830.7914893617021,1004.9418439716312 L830.7914893617021,1018.4680851063829" stroke="red" stroke-width="1" fill="none" />
<path d="M790.2127659574468,1004.9418439716312 L830.7914893617021,1004.9418439716312" stroke="red" stroke-width="1" fill="none" />
<path d="M790.2127659574468,991.4156028368793 L790.2127659574468,1004.9418439716312" stroke="red" stroke-width="1" fill="none" />
<path d="M830.7914893617021,991.4156028368793 L790.2127659574468,991.4156028368793" stroke="red" stroke-width="1" fill="none" />
<path d="M830.7914893617021,977.8893617021276 L830.7914893617021,991.4156028368793" stroke="red" stroke-width="1" fill="none" />
<path d="M790.2127659574468,977.8893617021276 L830.7914893617021,977.8893617021276" stroke="red" stroke-width="1" fill="none" />
<path d="M790.2127659574468,964.3631205673759 L790.2127659574468,977.8893617021276" stroke="red" stroke-width="1" fill="none" />
<path d="M830.7914893617021,964.3631205673759 L790.2127659574468,964.3631205673759" stroke="red" stroke-width="1" fill="none" />
<path d="M830.7914893617021,950.8368794326241 L830.7914893617021,964.3631205673759" stroke="red" stroke-width="1" fill="none" />
<path d="M790.2127659574468,950.8368794326241 L830.7914893617021,950.8368794326241" stroke="red" stroke-width="1" fill="none" />
<path d="M790.2127659574468,937.3106382978723 L790.2127659574468,950.8368794326241" stroke="red" stroke-width="1" fill="none" />
<path d="M830.7914893617021,937.3106382978723 L790.2127659574468,937.3106382978723" stroke="red" stroke-width="1" fill="none" />
<path d="M830.7914893617021,923.7843971631205 L830.7914893617021,937.3106382978723" stroke="red" stroke-width="1" fill="none" />
<path d="M790.2127659574468,923.7843971631205 L830.7914893617021,923.7843971631205" stroke="red" stroke-width="1" fill="none" />
<path d="M790.2127659574468,910.2581560283687 L790.2127659574468,923.7843971631205" stroke="red" stroke-width="1" fill="none" />
<path d="M830.7914893617021,910.2581560283687 L790.2127659574468,910.2581560283687" stroke="red" stroke-width="1" fill="none" />
<path d="M830.7914893617021,896.7319148936169 L830.7914893617021,910.2581560283687" stroke="red" stroke-width="1" fill="none" />
<path d="M790.2127659574468,896.7319148936169 L830.7914893617021,896.7319148936169" stroke="red" stroke-width="1" fill="none" />
<path d="M790.2127659574468,883.2056737588653 L790.2127659574468,896.7319148936169" stroke="red" stroke-width="1" fill="none" />
<path d="M830.7914893617021,883.2056737588653 L790.2127659574468,883.2056737588653" stroke="red" stroke-width="1" fill="none" />
<path d="M830.7914893617021,869.6794326241135 L830.7914893617021,883.2056737588653" stroke="red" stroke-width="1" fill="none" />
<path d="M790.2127659574468,869.6794326241135 L830.7914893617021,869.6794326241135" stroke="red" stroke-width="1" fill="none" />
<path d="M643.1148936170213,1059.0468085106381 L709.0553191489362,1059.0468085106381" stroke="red" stroke-width="1" fill="none" />
<path d="M709.0553191489362,1059.0468085106381 L722.5815602836878,1018.4680851063829" stroke="red" stroke-width="1" fill="none" />
<path d="M722.5815602836878,1018.4680851063829 L722.5815602836878,1004.9418439716312" stroke="red" stroke-width="1" fill="none" />
<path d="M722.5815602836878,1004.9418439716312 L682.0028368794326,1004.9418439716312" stroke="red" stroke-width="1" fill="none" />
<path d="M682.0028368794326,1004.9418439716312 L682.0028368794326,991.4156028368793" stroke="red" stroke-width="1" fill="none" />
<path d="M682.0028368794326,991.4156028368793 L722.5815602836878,991.4156028368793" stroke="red" stroke-width="1" fill="none" />
<path d="M722.5815602836878,991.4156028368793 L722.5815602836878,977.8893617021276" stroke="red" stroke-width="1" fill="none" />
<path d="M722.5815602836878,977.8893617021276 L682.0028368794326,977.8893617021276" stroke="red" stroke-width="1" fill="none" />
<path d="M682.0028368794326,977.8893617021276 L682.0028368794326,964.3631205673759" stroke="red" stroke-width="1" fill="none" />
<path d="M682.0028368794326,964.3631205673759 L722.5815602836878,964.3631205673759" stroke="red" stroke-width="1" fill="none" />
<path d="M722.5815602836878,964.3631205673759 L722.5815602836878,950.8368794326241" stroke="red" stroke-width="1" fill="none" />
<path d="M722.5815602836878,950.8368794326241 L682.0028368794326,950.8368794326241" stroke="red" stroke-width="1" fill="none" />
<path d="M682.0028368794326,950.8368794326241 L682.0028368794326,937.3106382978723" stroke="red" stroke-width="1" fill="none" />
<path d="M682.0028368794326,937.3106382978723 L722.5815602836878,937.3106382978723" stroke="red" stroke-width="1" fill="none" />
<path d="M722.5815602836878,937.3106382978723 L722.5815602836878,923.7843971631205" stroke="red" stroke-width="1" fill="none" />
<path d="M722.5815602836878,923.7843971631205 L682.0028368794326,923.7843971631205" stroke="red" stroke-width="1" fill="none" />
<path d="M682.0028368794326,923.7843971631205 L682.0028368794326,910.2581560283687" stroke="red" stroke-width="1" fill="none" />
<path d="M682.0028368794326,910.2581560283687 L722.5815602836878,910.2581560283687" stroke="red" stroke-width="1" fill="none" />
<path d="M722.5815602836878,910.2581560283687 L722.5815602836878,896.7319148936169" stroke="red" stroke-width="1" fill="none" />
<path d="M722.5815602836878,896.7319148936169 L682.0028368794326,896.7319148936169" stroke="red" stroke-width="1" fill="none" />
<path d="M682.0028368794326,896.7319148936169 L682.0028368794326,883.2056737588653" stroke="red" stroke-width="1" fill="none" />
<path d="M682.0028368794326,883.2056737588653 L722.5815602836878,883.2056737588653" stroke="red" stroke-width="1" fill="none" />
<path d="M722.5815602836878,883.2056737588653 L722.5815602836878,869.6794326241135" stroke="red" stroke-width="1" fill="none" />
<path d="M722.5815602836878,869.6794326241135 L682.0028368794326,869.6794326241135" stroke="red" stroke-width="1" fill="none" />
<path d="M682.0028368794326,869.6794326241135 L682.0028368794326,856.1531914893617" stroke="red" stroke-width="1" fill="none" />
<path d="M682.0028368794326,856.1531914893617 L722.5815602836878,856.1531914893617" stroke="red" stroke-width="1" fill="none" />
<path d="M790.2127659574468,856.1531914893617 L790.2127659574468,869.6794326241135" stroke="red" stroke-width="1" fill="none" />
<path d="M830.7914893617021,856.1531914893617 L790.2127659574468,856.1531914893617" stroke="red" stroke-width="1" fill="none" />
<path d="M830.7914893617021,842.6269503546099 L830.7914893617021,856.1531914893617" stroke="red" stroke-width="1" fill="none" />
<path d="M790.2127659574468,842.6269503546099 L830.7914893617021,842.6269503546099" stroke="red" stroke-width="1" fill="none" />
<path d="M790.2127659574468,829.1007092198581 L790.2127659574468,842.6269503546099" stroke="red" stroke-width="1" fill="none" />
<path d="M817.2652482269503,788.5219858156028 L803.7390070921986,810.5021276595744" stroke="red" stroke-width="1" fill="none" />
<path d="M722.5815602836878,856.1531914893617 L722.5815602836878,842.6269503546099" stroke="red" stroke-width="1" fill="none" />
<path d="M722.5815602836878,842.6269503546099 L682.0028368794326,842.6269503546099" stroke="red" stroke-width="1" fill="none" />
<path d="M682.0028368794326,842.6269503546099 L682.0028368794326,829.1007092198581" stroke="red" stroke-width="1" fill="none" />
<path d="M682.0028368794326,829.1007092198581 L722.5815602836878,829.1007092198581" stroke="red" stroke-width="1" fill="none" />
<path d="M722.5815602836878,829.1007092198581 L722.5815602836878,815.5744680851063" stroke="red" stroke-width="1" fill="none" />
<path d="M722.5815602836878,815.5744680851063 L682.0028368794326,815.5744680851063" stroke="red" stroke-width="1" fill="none" />
<path d="M682.0028368794326,815.5744680851063 L682.0028368794326,802.0482269503545" stroke="red" stroke-width="1" fill="none" />
<path d="M682.0028368794326,802.0482269503545 L722.5815602836878,802.0482269503545" stroke="red" stroke-width="1" fill="none" />
<path d="M803.7390070921986,734.4170212765957 L803.7390070921986,693.8382978723404" stroke="red" stroke-width="1" fill="none" />
<path d="M803.7390070921986,693.8382978723404 L817.2652482269503,693.8382978723404" stroke="red" stroke-width="1" fill="none" />
<path d="M817.2652482269503,693.8382978723404 L817.2652482269503,734.4170212765957" stroke="red" stroke-width="1" fill="none" />
<path d="M817.2652482269503,734.4170212765957 L830.7914893617021,734.4170212765957" stroke="red" stroke-width="1" fill="none" />
<path d="M830.7914893617021,734.4170212765957 L830.7914893617021,693.8382978723404" stroke="red" stroke-width="1" fill="none" />
<path d="M830.7914893617021,693.8382978723404 L844.3177304964538,693.8382978723404" stroke="red" stroke-width="1" fill="none" />
<path d="M844.3177304964538,693.8382978723404 L844.3177304964538,734.4170212765957" stroke="red" stroke-width="1" fill="none" />
<path d="M844.3177304964538,734.4170212765957 L857.8439716312057,734.4170212765957" stroke="red" stroke-width="1" fill="none" />
<path d="M857.8439716312057,734.4170212765957 L857.8439716312057,693.8382978723404" stroke="red" stroke-width="1" fill="none" />
<path d="M857.8439716312057,693.8382978723404 L871.3702127659574,693.8382978723404" stroke="red" stroke-width="1" fill="none" />
<path d="M871.3702127659574,693.8382978723404 L871.3702127659574,734.4170212765957" stroke="red" stroke-width="1" fill="none" />
<path d="M871.3702127659574,734.4170212765957 L884.8964539007093,734.4170212765957" stroke="red" stroke-width="1" fill="none" />
<path d="M884.8964539007093,734.4170212765957 L884.8964539007093,693.8382978723404" stroke="red" stroke-width="1" fill="none" />
<path d="M884.8964539007093,693.8382978723404 L898.422695035461,693.8382978723404" stroke="red" stroke-width="1" fill="none" />
<path d="M898.422695035461,693.8382978723404 L898.422695035461,734.4170212765957" stroke="red" stroke-width="1" fill="none" />
<path d="M898.422695035461,734.4170212765957 L911.9489361702128,734.4170212765957" stroke="red" stroke-width="1" fill="none" />
<path d="M911.9489361702128,734.4170212765957 L911.9489361702128,693.8382978723404" stroke="red" stroke-width="1" fill="none" />
<path d="M911.9489361702128,693.8382978723404 L925.4751773049645,693.8382978723404" stroke="red" stroke-width="1" fill="none" />
<path d="M925.4751773049645,693.8382978723404 L925.4751773049645,734.4170212765957" stroke="red" stroke-width="1" fill="none" />
<path d="M925.4751773049645,734.4170212765957 L939.0014184397162,734.4170212765957" stroke="red" stroke-width="1" fill="none" />
<path d="M939.0014184397162,734.4170212765957 L939.0014184397162,693.8382978723404" stroke="red" stroke-width="1" fill="none" />
<path d="M722.5815602836878,802.0482269503545 L722.5815602836878,734.4170212765957" stroke="red" stroke-width="1" fill="none" />
<path d="M722.5815602836878,734.4170212765957 L803.7390070921986,734.4170212765957" stroke="red" stroke-width="1" fill="none" />
<path d="M817.2652482269503,829.1007092198581 L817.2652482269503,788.5219858156028" stroke="red" stroke-width="1" fill="none" />
<path d="M830.7914893617021,829.1007092198581 L817.2652482269503,829.1007092198581" stroke="red" stroke-width="1" fill="none" />
<path d="M830.7914893617021,788.5219858156028 L830.7914893617021,829.1007092198581" stroke="red" stroke-width="1" fill="none" />
<path d="M844.3177304964538,788.5219858156028 L830.7914893617021,788.5219858156028" stroke="red" stroke-width="1" fill="none" />
<path d="M844.3177304964538,829.1007092198581 L844.3177304964538,788.5219858156028" stroke="red" stroke-width="1" fill="none" />
<path d="M857.8439716312057,829.1007092198581 L844.3177304964538,829.1007092198581" stroke="red" stroke-width="1" fill="none" />
<path d="M857.8439716312057,788.5219858156028 L857.8439716312057,829.1007092198581" stroke="red" stroke-width="1" fill="none" />
<path d="M871.3702127659574,788.5219858156028 L857.8439716312057,788.5219858156028" stroke="red" stroke-width="1" fill="none" />
<path d="M871.3702127659574,829.1007092198581 L871.3702127659574,788.5219858156028" stroke="red" stroke-width="1" fill="none" />
<path d="M884.8964539007093,829.1007092198581 L871.3702127659574,829.1007092198581" stroke="red" stroke-width="1" fill="none" />
<path d="M884.8964539007093,788.5219858156028 L884.8964539007093,829.1007092198581" stroke="red" stroke-width="1" fill="none" />
<path d="M898.422695035461,788.5219858156028 L884.8964539007093,788.5219858156028" stroke="red" stroke-width="1" fill="none" />
<path d="M898.422695035461,829.1007092198581 L898.422695035461,788.5219858156028" stroke="red" stroke-width="1" fill="none" />
<path d="M911.9489361702128,829.1007092198581 L898.422695035461,829.1007092198581" stroke="red" stroke-width="1" fill="none" />
<path d="M911.9489361702128,788.5219858156028 L911.9489361702128,829.1007092198581" stroke="red" stroke-width="1" fill="none" />
<path d="M925.4751773049645,788.5219858156028 L911.9489361702128,788.5219858156028" stroke="red" stroke-width="1" fill="none" />
<path d="M925.4751773049645,829.1007092198581 L925.4751773049645,788.5219858156028" stroke="red" stroke-width="1" fill="none" />
<path d="M939.0014184397162,829.1007092198581 L925.4751773049645,829.1007092198581" stroke="red" stroke-width="1" fill="none" />
<path d="M939.0014184397162,788.5219858156028 L939.0014184397162,829.1007092198581" stroke="red" stroke-width="1" fill="none" />
<path d="M952.5276595744681,788.5219858156028 L939.0014184397162,788.5219858156028" stroke="red" stroke-width="1" fill="none" />
<path d="M952.5276595744681,829.1007092198581 L952.5276595744681,788.5219858156028" stroke="red" stroke-width="1" fill="none" />
<path d="M966.0539007092198,829.1007092198581 L952.5276595744681,829.1007092198581" stroke="red" stroke-width="1" fill="none" />
<path d="M966.0539007092198,788.5219858156028 L966.0539007092198,829.1007092198581" stroke="red" stroke-width="1" fill="none" />
<path d="M979.5801418439717,788.5219858156028 L966.0539007092198,788.5219858156028" stroke="red" stroke-width="1" fill="none" />
<path d="M979.5801418439717,829.1007092198581 L979.5801418439717,788.5219858156028" stroke="red" stroke-width="1" fill="none" />
<path d="M993.1063829787233,829.1007092198581 L979.5801418439717,829.1007092198581" stroke="red" stroke-width="1" fill="none" />
<path d="M993.1063829787233,788.5219858156028 L993.1063829787233,829.1007092198581" stroke="red" stroke-width="1" fill="none" />
<path d="M939.0014184397162,693.8382978723404 L952.5276595744681,693.8382978723404" stroke="red" stroke-width="1" fill="none" />
<path d="M952.5276595744681,693.8382978723404 L952.5276595744681,734.4170212765957" stroke="red" stroke-width="1" fill="none" />
<path d="M952.5276595744681,734.4170212765957 L966.0539007092198,734.4170212765957" stroke="red" stroke-width="1" fill="none" />
<path d="M966.0539007092198,734.4170212765957 L966.0539007092198,693.8382978723404" stroke="red" stroke-width="1" fill="none" />
<path d="M966.0539007092198,693.8382978723404 L979.5801418439717,693.8382978723404" stroke="red" stroke-width="1" fill="none" />
<path d="M979.5801418439717,693.8382978723404 L979.5801418439717,734.4170212765957" stroke="red" stroke-width="1" fill="none" />
<path d="M979.5801418439717,734.4170212765957 L993.1063829787233,734.4170212765957" stroke="red" stroke-width="1" fill="none" />
<path d="M993.1063829787233,734.4170212765957 L993.1063829787233,693.8382978723404" stroke="red" stroke-width="1" fill="none" />
<path d="M993.1063829787233,693.8382978723404 L1006.6326241134752,693.8382978723404" stroke="red" stroke-width="1" fill="none" />
<path d="M1006.6326241134752,693.8382978723404 L1006.6326241134752,734.4170212765957" stroke="red" stroke-width="1" fill="none" />
<path d="M1006.6326241134752,734.4170212765957 L1020.1588652482269,734.4170212765957" stroke="red" stroke-width="1" fill="none" />
<path d="M1020.1588652482269,734.4170212765957 L1020.1588652482269,693.8382978723404" stroke="red" stroke-width="1" fill="none" />
<path d="M1020.1588652482269,693.8382978723404 L1033.6851063829788,693.8382978723404" stroke="red" stroke-width="1" fill="none" />
<path d="M1033.6851063829788,693.8382978723404 L1033.6851063829788,734.4170212765957" stroke="red" stroke-width="1" fill="none" />
<path d="M1033.6851063829788,734.4170212765957 L1047.2113475177305,734.4170212765957" stroke="red" stroke-width="1" fill="none" />
<path d="M1060.7375886524821,693.8382978723404 L1060.7375886524821,747.9432624113474" stroke="red" stroke-width="1" fill="none" />
<path d="M1060.7375886524821,774.995744680851 L1060.7375886524821,788.5219858156028" stroke="red" stroke-width="1" fill="none" />
<path d="M1060.7375886524821,788.5219858156028 L1047.2113475177305,788.5219858156028" stroke="red" stroke-width="1" fill="none" />
<path d="M1047.2113475177305,788.5219858156028 L1047.2113475177305,829.1007092198581" stroke="red" stroke-width="1" fill="none" />
<path d="M1047.2113475177305,829.1007092198581 L1033.6851063829788,829.1007092198581" stroke="red" stroke-width="1" fill="none" />
<path d="M1033.6851063829788,829.1007092198581 L1033.6851063829788,788.5219858156028" stroke="red" stroke-width="1" fill="none" />
<path d="M1033.6851063829788,788.5219858156028 L1020.1588652482269,788.5219858156028" stroke="red" stroke-width="1" fill="none" />
<path d="M1020.1588652482269,788.5219858156028 L1020.1588652482269,829.1007092198581" stroke="red" stroke-width="1" fill="none" />
<path d="M1020.1588652482269,829.1007092198581 L1006.6326241134752,829.1007092198581" stroke="red" stroke-width="1" fill="none" />
<path d="M1006.6326241134752,829.1007092198581 L1006.6326241134752,788.5219858156028" stroke="red" stroke-width="1" fill="none" />
<path d="M1006.6326241134752,788.5219858156028 L993.1063829787233,788.5219858156028" stroke="red" stroke-width="1" fill="none" />
<path d="M1047.2113475177305,734.4170212765957 L1047.2113475177305,693.8382978723404" stroke="red" stroke-width="1" fill="none" />
<path d="M1047.2113475177305,693.8382978723404 L1060.7375886524821,693.8382978723404" stroke="red" stroke-width="1" fill="none" />
<path d="M1087.7900709219857,747.9432624113474 L1091.1716312056737,747.9432624113474" stroke="red" stroke-width="1" fill="none" />
<path d="M1091.1716312056737,774.995744680851 L1087.7900709219857,774.995744680851" stroke="red" stroke-width="1" fill="none" />
<path d="M1060.7375886524821,747.9432624113474 L1087.7900709219857,747.9432624113474" stroke="red" stroke-width="1" fill="none" />
<path d="M1087.7900709219857,774.995744680851 L1060.7375886524821,774.995744680851" stroke="red" stroke-width="1" fill="none" />
<path d="M1091.1716312056737,747.9432624113474 L1091.1716312056737,742.8709219858156" stroke="red" stroke-width="1" fill="none" />
<path d="M1091.1716312056737,780.0680851063829 L1091.1716312056737,774.995744680851" stroke="red" stroke-width="1" fill="none" />
<path d="M1091.1716312056737,742.8709219858156 L1101.3163120567376,693.8382978723404" stroke="red" stroke-width="1" fill="none" />
<path d="M1101.3163120567376,693.8382978723404 L1196.0,747.9432624113474" stroke="red" stroke-width="1" fill="none" />
<path d="M1196.0,747.9432624113474 L1196.0,774.995744680851" stroke="red" stroke-width="1" fill="none" />
<path d="M1196.0,774.995744680851 L1101.3163120567376,829.1007092198581" stroke="red" stroke-width="1" fill="none" />
<path d="M1101.3163120567376,829.1007092198581 L1091.1716312056737,780.0680851063829" stroke="red" stroke-width="1" fill="none" />
<path d="M587.3191489361702,585.6283687943262 L590.7007092198581,585.6283687943262" stroke="red" stroke-width="1" fill="none" />
<path d="M590.7007092198581,612.6808510638298 L587.3191489361702,612.6808510638298" stroke="red" stroke-width="1" fill="none" />
<path d="M590.7007092198581,585.6283687943262 L617.7531914893617,585.6283687943262" stroke="red" stroke-width="1" fill="none" />
<path d="M617.7531914893617,585.6283687943262 L617.7531914893617,612.6808510638298" stroke="red" stroke-width="1" fill="none" />
<path d="M617.7531914893617,612.6808510638298 L590.7007092198581,612.6808510638298" stroke="red" stroke-width="1" fill="none" />
<path d="M803.7390070921986,810.5021276595744 L803.7390070921986,829.1007092198581" stroke="red" stroke-width="1" fill="none" />
<path d="M803.7390070921986,829.1007092198581 L790.2127659574468,829.1007092198581" stroke="red" stroke-width="1" fill="none" />
</svg>