<?xml version="1.0" encoding="UTF-8"?>
<svg xmlns="http://www.w3.org/2000/svg" xmlns:xlink="http://www.w3.org/1999/xlink"
     width="1200" height="604" viewBox="0 0 1200 604">
<defs>
</defs>
<path d="M810.3529411764707,144.23529411764707 L705.1764705882354,144.23529411764707" stroke="yellow" stroke-width="2" fill="none" />
<path d="M705.1764705882354,196.82352941176472 L810.3529411764707,196.82352941176472" stroke="yellow" stroke-width="2" fill="none" />
<path d="M827.8823529411766,249.41176470588238 L827.8823529411766,266.9411764705883" stroke="yellow" stroke-width="2" fill="none" />
<path d="M827.8823529411766,266.9411764705883 L827.8823529411766,284.47058823529414" stroke="yellow" stroke-width="2" fill="none" />
<path d="M827.8823529411766,284.47058823529414 L827.8823529411766,302.0" stroke="yellow" stroke-width="2" fill="none" />
<path d="M827.8823529411766,302.0 L827.8823529411766,372.11764705882354" stroke="yellow" stroke-width="2" fill="none" />
<path d="M827.8823529411766,372.11764705882354 L827.8823529411766,389.64705882352945" stroke="yellow" stroke-width="2" fill="none" />
<path d="M827.8823529411766,389.64705882352945 L827.8823529411766,407.17647058823536" stroke="yellow" stroke-width="2" fill="none" />
<path d="M827.8823529411766,407.17647058823536 L827.8823529411766,424.7058823529412" stroke="yellow" stroke-width="2" fill="none" />
<path d="M876.0882352941178,424.7058823529412 L876.0882352941178,407.17647058823536" stroke="yellow" stroke-width="2" fill="none" />
<path d="M876.0882352941178,407.17647058823536 L876.0882352941178,389.64705882352945" stroke="yellow" stroke-width="2" fill="none" />
<path d="M876.0882352941178,389.64705882352945 L876.0882352941178,372.11764705882354" stroke="yellow" stroke-width="2" fill="none" />
<path d="M876.0882352941178,372.11764705882354 L876.0882352941178,302.0" stroke="yellow" stroke-width="2" fill="none" />
<path d="M876.0882352941178,302.0 L876.0882352941178,284.47058823529414" stroke="yellow" stroke-width="2" fill="none" />
<path d="M876.0882352941178,284.47058823529414 L876.0882352941178,266.9411764705883" stroke="yellow" stroke-width="2" fill="none" />
<path d="M876.0882352941178,266.9411764705883 L876.0882352941178,249.41176470588238" stroke="yellow" stroke-width="2" fill="none" />
<path d="M827.8823529411766,266.9411764705883 L876.0882352941178,266.9411764705883" stroke="yellow" stroke-width="2" fill="none" />
<path d="M827.8823529411766,284.47058823529414 L876.0882352941178,284.47058823529414" stroke="yellow" stroke-width="2" fill="none" />
<path d="M827.8823529411766,302.0 L876.0882352941178,302.0" stroke="yellow" stroke-width="2" fill="none" />
<path d="M876.0882352941178,372.11764705882354 L827.8823529411766,372.11764705882354" stroke="yellow" stroke-width="2" fill="none" />
<path d="M876.0882352941178,389.64705882352945 L827.8823529411766,389.64705882352945" stroke="yellow" stroke-width="2" fill="none" />
<path d="M876.0882352941178,407.17647058823536 L827.8823529411766,407.17647058823536" stroke="yellow" stroke-width="2" fill="none" />
<path d="M827.8823529411766,249.41176470588238 L876.0882352941178,249.41176470588238" stroke="yellow" stroke-width="2" fill="none" />
<path d="M876.0882352941178,249.41176470588238 L880.4705882352941,249.41176470588238" stroke="yellow" stroke-width="2" fill="none" />
<path d="M876.0882352941178,424.7058823529412 L862.9411764705883,424.7058823529412" stroke="yellow" stroke-width="2" fill="none" />
<path d="M862.9411764705883,424.7058823529412 L845.4117647058824,424.7058823529412" stroke="yellow" stroke-width="2" fill="none" />
<path d="M845.4117647058824,424.7058823529412 L827.8823529411766,424.7058823529412" stroke="yellow" stroke-width="2" fill="none" />
<path d="M827.8823529411766,437.8529411764706 L845.4117647058824,437.8529411764706" stroke="yellow" stroke-width="2" fill="none" />
<path d="M845.4117647058824,437.8529411764706 L862.9411764705883,437.8529411764706" stroke="yellow" stroke-width="2" fill="none" />
<path d="M862.9411764705883,437.8529411764706 L876.0882352941178,437.8529411764706" stroke="yellow" stroke-width="2" fill="none" />
<path d="M845.4117647058824,424.7058823529412 L845.4117647058824,437.8529411764706" stroke="yellow" stroke-width="2" fill="none" />
<path d="M862.9411764705883,437.8529411764706 L862.9411764705883,424.7058823529412" stroke="yellow" stroke-width="2" fill="none" />
<path d="M810.3529411764707,424.7058823529412 L801.5882352941178,424.7058823529412" stroke="yellow" stroke-width="2" fill="none" />
<path d="M801.5882352941178,424.7058823529412 L784.0588235294118,424.7058823529412" stroke="yellow" stroke-width="2" fill="none" />
<path d="M784.0588235294118,424.7058823529412 L775.2941176470589,424.7058823529412" stroke="yellow" stroke-width="2" fill="none" />
<path d="M740.2352941176471,424.7058823529412 L731.4705882352941,424.7058823529412" stroke="yellow" stroke-width="2" fill="none" />
<path d="M731.4705882352941,424.7058823529412 L713.9411764705883,424.7058823529412" stroke="yellow" stroke-width="2" fill="none" />
<path d="M713.9411764705883,424.7058823529412 L705.1764705882354,424.7058823529412" stroke="yellow" stroke-width="2" fill="none" />
<path d="M775.2941176470589,446.61764705882354 L784.0588235294118,446.61764705882354" stroke="yellow" stroke-width="2" fill="none" />
<path d="M784.0588235294118,446.61764705882354 L801.5882352941178,446.61764705882354" stroke="yellow" stroke-width="2" fill="none" />
<path d="M801.5882352941178,446.61764705882354 L810.3529411764707,446.61764705882354" stroke="yellow" stroke-width="2" fill="none" />
<path d="M705.1764705882354,446.61764705882354 L713.9411764705883,446.61764705882354" stroke="yellow" stroke-width="2" fill="none" />
<path d="M713.9411764705883,446.61764705882354 L731.4705882352941,446.61764705882354" stroke="yellow" stroke-width="2" fill="none" />
<path d="M731.4705882352941,446.61764705882354 L740.2352941176471,446.61764705882354" stroke="yellow" stroke-width="2" fill="none" />
<path d="M801.5882352941178,446.61764705882354 L801.5882352941178,424.7058823529412" stroke="yellow" stroke-width="2" fill="none" />
<path d="M784.0588235294118,424.7058823529412 L784.0588235294118,446.61764705882354" stroke="yellow" stroke-width="2" fill="none" />
<path d="M731.4705882352941,446.61764705882354 L731.4705882352941,424.7058823529412" stroke="yellow" stroke-width="2" fill="none" />
<path d="M713.9411764705883,424.7058823529412 L713.9411764705883,446.61764705882354" stroke="yellow" stroke-width="2" fill="none" />
<path d="M876.0882352941178,437.8529411764706 L810.3529411764707,529.8823529411766" stroke="yellow" stroke-width="2" fill="none" />
<path d="M792.8235294117648,529.8823529411766 L762.1470588235295,494.82352941176475" stroke="yellow" stroke-width="2" fill="none" />
<path d="M762.1470588235295,494.82352941176475 L722.7058823529412,529.8823529411766" stroke="yellow" stroke-width="2" fill="none" />
<path d="M705.1764705882354,529.8823529411766 L635.0588235294118,446.61764705882354" stroke="yellow" stroke-width="2" fill="none" />
<path d="M705.1764705882354,249.41176470588238 L827.8823529411766,249.41176470588238" stroke="yellow" stroke-width="2" fill="none" />
<path d="M705.1764705882354,319.5294117647059 L705.1764705882354,249.41176470588238" stroke="yellow" stroke-width="2" fill="none" />
<path d="M635.0588235294118,319.5294117647059 L635.0588235294118,249.41176470588238" stroke="yellow" stroke-width="2" fill="none" />
<path d="M639.4411764705883,319.5294117647059 L639.4411764705883,385.264705882353" stroke="lavender" stroke-width="2" fill="none" />
<path d="M639.4411764705883,385.264705882353 L705.1764705882354,385.264705882353" stroke="lavender" stroke-width="2" fill="none" />
<path d="M705.1764705882354,385.264705882353 L705.1764705882354,319.5294117647059" stroke="lavender" stroke-width="2" fill="none" />
<path d="M635.0588235294118,372.11764705882354 L635.0588235294118,332.67647058823536" stroke="yellow" stroke-width="2" fill="none" />
<path d="M617.529411764706,315.14705882352945 L630.6764705882354,315.14705882352945" stroke="yellow" stroke-width="2" fill="none" />
<path d="M630.6764705882354,315.14705882352945 L630.6764705882354,253.79411764705884" stroke="yellow" stroke-width="2" fill="none" />
<path d="M630.6764705882354,253.79411764705884 L617.529411764706,253.79411764705884" stroke="yellow" stroke-width="2" fill="none" />
<path d="M617.529411764706,253.79411764705884 L617.529411764706,315.14705882352945" stroke="lavender" stroke-width="2" fill="none" />
<path d="M635.0588235294118,319.5294117647059 L639.4411764705883,319.5294117647059" stroke="yellow" stroke-width="2" fill="none" />
<path d="M639.4411764705883,319.5294117647059 L705.1764705882354,319.5294117647059" stroke="yellow" stroke-width="2" fill="none" />
<path d="M845.4117647058824,196.82352941176472 L880.4705882352941,209.97058823529414" stroke="yellow" stroke-width="2" fill="none" />
<path d="M494.82352941176475,249.41176470588238 L494.82352941176475,319.5294117647059" stroke="yellow" stroke-width="2" fill="none" />
<path d="M249.41176470588238,109.1764705882353 L424.7058823529412,109.1764705882353" stroke="yellow" stroke-width="2" fill="none" />
<path d="M424.7058823529412,109.1764705882353 L459.764705882353,144.23529411764707" stroke="yellow" stroke-width="2" fill="none" />
<path d="M459.764705882353,144.23529411764707 L459.764705882353,424.7058823529412" stroke="yellow" stroke-width="2" fill="none" />
<path d="M459.764705882353,424.7058823529412 L424.7058823529412,459.764705882353" stroke="yellow" stroke-width="2" fill="none" />
<path d="M249.41176470588238,459.764705882353 L214.3529411764706,424.7058823529412" stroke="yellow" stroke-width="2" fill="none" />
<path d="M214.3529411764706,424.7058823529412 L214.3529411764706,144.23529411764707" stroke="yellow" stroke-width="2" fill="none" />
<path d="M214.3529411764706,144.23529411764707 L249.41176470588238,109.1764705882353" stroke="yellow" stroke-width="2" fill="none" />
<path d="M354.5882352941177,179.29411764705884 L319.5294117647059,179.29411764705884" stroke="yellow" stroke-width="2" fill="none" />
<path d="M354.5882352941177,196.82352941176472 L319.5294117647059,196.82352941176472" stroke="yellow" stroke-width="2" fill="none" />
<path d="M354.5882352941177,214.3529411764706 L319.5294117647059,214.3529411764706" stroke="yellow" stroke-width="2" fill="none" />
<path d="M354.5882352941177,231.8823529411765 L319.5294117647059,231.8823529411765" stroke="yellow" stroke-width="2" fill="none" />
<path d="M354.5882352941177,249.41176470588238 L319.5294117647059,249.41176470588238" stroke="yellow" stroke-width="2" fill="none" />
<path d="M424.7058823529412,319.5294117647059 L424.7058823529412,249.41176470588238" stroke="yellow" stroke-width="2" fill="none" />
<path d="M415.9411764705883,249.41176470588238 L415.9411764705883,319.5294117647059" stroke="yellow" stroke-width="2" fill="none" />
<path d="M389.64705882352945,319.5294117647059 L415.9411764705883,319.5294117647059" stroke="lavender" stroke-width="2" fill="none" />
<path d="M415.9411764705883,249.41176470588238 L389.64705882352945,249.41176470588238" stroke="lavender" stroke-width="2" fill="none" />
<path d="M389.64705882352945,249.41176470588238 L389.64705882352945,319.5294117647059" stroke="lavender" stroke-width="2" fill="none" />
<path d="M424.7058823529412,459.764705882353 L380.8823529411765,459.764705882353" stroke="yellow" stroke-width="2" fill="none" />
<path d="M293.2352941176471,459.764705882353 L249.41176470588238,459.764705882353" stroke="yellow" stroke-width="2" fill="none" />
<path d="M486.0588235294118,499.2058823529412 L389.64705882352945,499.2058823529412" stroke="yellow" stroke-width="2" fill="none" />
<path d="M486.0588235294118,494.82352941176475 L389.64705882352945,494.82352941176475" stroke="yellow" stroke-width="2" fill="none" />
<path d="M389.64705882352945,503.5882352941177 L486.0588235294118,503.5882352941177" stroke="yellow" stroke-width="2" fill="none" />
<path d="M306.3823529411765,503.5882352941177 L367.7352941176471,503.5882352941177" stroke="yellow" stroke-width="2" fill="none" />
<path d="M367.7352941176471,389.64705882352945 L306.3823529411765,389.64705882352945" stroke="yellow" stroke-width="2" fill="none" />
<path d="M367.7352941176471,424.7058823529412 L306.3823529411765,424.7058823529412" stroke="yellow" stroke-width="2" fill="none" />
<path d="M367.7352941176471,459.764705882353 L306.3823529411765,459.764705882353" stroke="yellow" stroke-width="2" fill="none" />
<path d="M354.5882352941177,600.0 L389.64705882352945,503.5882352941177" stroke="yellow" stroke-width="2" fill="none" />
<path d="M249.41176470588238,503.5882352941177 L284.47058823529414,503.5882352941177" stroke="lavender" stroke-width="2" fill="none" />
<path d="M284.47058823529414,494.82352941176475 L249.41176470588238,494.82352941176475" stroke="yellow" stroke-width="2" fill="none" />
<path d="M214.3529411764706,424.7058823529412 L144.23529411764707,424.7058823529412" stroke="yellow" stroke-width="2" fill="none" />
<path d="M880.4705882352941,302.0 L880.4705882352941,372.11764705882354" stroke="yellow" stroke-width="2" fill="none" />
<path d="M889.2352941176471,302.0 L889.2352941176471,372.11764705882354" stroke="lavender" stroke-width="2" fill="none" />
<path d="M898.0000000000001,372.11764705882354 L898.0000000000001,302.0" stroke="lavender" stroke-width="2" fill="none" />
<path d="M635.0588235294118,214.3529411764706 L670.1176470588236,196.82352941176472" stroke="yellow" stroke-width="2" fill="none" />
<path d="M635.0588235294118,148.61764705882354 L635.0588235294118,214.3529411764706" stroke="lavender" stroke-width="2" fill="none" />
<path d="M880.4705882352941,209.97058823529414 L880.4705882352941,148.61764705882354" stroke="lavender" stroke-width="2" fill="none" />
<path d="M1051.3823529411766,354.5882352941177 L1103.9705882352941,354.5882352941177" stroke="yellow" stroke-width="2" fill="none" />
<path d="M1103.9705882352941,354.5882352941177 L1103.9705882352941,245.0294117647059" stroke="yellow" stroke-width="2" fill="none" />
<path d="M1103.9705882352941,245.0294117647059 L1051.3823529411766,245.0294117647059" stroke="yellow" stroke-width="2" fill="none" />
<path d="M1051.3823529411766,245.0294117647059 L1051.3823529411766,354.5882352941177" stroke="lavender" stroke-width="2" fill="none" />
<path d="M1060.1470588235295,288.8529411764706 L1095.2058823529412,288.8529411764706" stroke="lavender" stroke-width="2" fill="none" />
<path d="M1095.2058823529412,288.8529411764706 L1095.2058823529412,284.47058823529414" stroke="lavender" stroke-width="2" fill="none" />
<path d="M1095.2058823529412,284.47058823529414 L1068.9117647058824,258.1764705882353" stroke="lavender" stroke-width="2" fill="none" />
<path d="M1068.9117647058824,258.1764705882353 L1095.2058823529412,258.1764705882353" stroke="lavender" stroke-width="2" fill="none" />
<path d="M1095.2058823529412,258.1764705882353 L1095.2058823529412,253.79411764705884" stroke="lavender" stroke-width="2" fill="none" />
<path d="M1095.2058823529412,253.79411764705884 L1060.1470588235295,253.79411764705884" stroke="lavender" stroke-width="2" fill="none" />
<path d="M1086.4411764705883,284.47058823529414 L1060.1470588235295,284.47058823529414" stroke="lavender" stroke-width="2" fill="none" />
<path d="M1060.1470588235295,284.47058823529414 L1060.1470588235295,288.8529411764706" stroke="lavender" stroke-width="2" fill="none" />
<path d="M1060.1470588235295,258.1764705882353 L1086.4411764705883,284.47058823529414" stroke="lavender" stroke-width="2" fill="none" />
<path d="M1060.1470588235295,253.79411764705884 L1060.1470588235295,258.1764705882353" stroke="lavender" stroke-width="2" fill="none" />
<path d="M1060.1470588235295,302.0 L1095.2058823529412,302.0" stroke="lavender" stroke-width="2" fill="none" />
<path d="M1095.2058823529412,302.0 L1095.2058823529412,297.61764705882354" stroke="lavender" stroke-width="2" fill="none" />
<path d="M1095.2058823529412,297.61764705882354 L1060.1470588235295,297.61764705882354" stroke="lavender" stroke-width="2" fill="none" />
<path d="M1060.1470588235295,297.61764705882354 L1060.1470588235295,302.0" stroke="lavender" stroke-width="2" fill="none" />
<path d="M1095.2058823529412,310.764705882353 L1060.1470588235295,310.764705882353" stroke="lavender" stroke-width="2" fill="none" />
<path d="M1095.2058823529412,315.14705882352945 L1095.2058823529412,310.764705882353" stroke="lavender" stroke-width="2" fill="none" />
<path d="M1060.1470588235295,310.764705882353 L1060.1470588235295,315.14705882352945" stroke="lavender" stroke-width="2" fill="none" />
<path d="M1060.1470588235295,315.14705882352945 L1086.4411764705883,315.14705882352945" stroke="lavender" stroke-width="2" fill="none" />
<path d="M1068.9117647058824,341.4411764705883 L1095.2058823529412,315.14705882352945" stroke="lavender" stroke-width="2" fill="none" />
<path d="M1095.2058823529412,341.4411764705883 L1068.9117647058824,341.4411764705883" stroke="lavender" stroke-width="2" fill="none" />
<path d="M1060.1470588235295,345.82352941176475 L1095.2058823529412,345.82352941176475" stroke="lavender" stroke-width="2" fill="none" />
<path d="M1095.2058823529412,345.82352941176475 L1095.2058823529412,341.4411764705883" stroke="lavender" stroke-width="2" fill="none" />
<path d="M1086.4411764705883,315.14705882352945 L1060.1470588235295,341.4411764705883" stroke="lavender" stroke-width="2" fill="none" />
<path d="M1060.1470588235295,341.4411764705883 L1060.1470588235295,345.82352941176475" stroke="lavender" stroke-width="2" fill="none" />
<path d="M919.9117647058824,231.8823529411765 L1112.7352941176473,231.8823529411765" stroke="yellow" stroke-width="2" fill="none" />
<path d="M1112.7352941176473,231.8823529411765 L1112.7352941176473,376.5" stroke="yellow" stroke-width="2" fill="none" />
<path d="M1112.7352941176473,376.5 L919.9117647058824,376.5" stroke="yellow" stroke-width="2" fill="none" />
<path d="M985.6470588235295,205.58823529411768 L1055.7647058823532,205.58823529411768" stroke="yellow" stroke-width="2" fill="none" />
<path d="M1055.7647058823532,398.4117647058824 L985.6470588235295,398.4117647058824" stroke="yellow" stroke-width="2" fill="none" />
<path d="M1073.294117647059,214.3529411764706 L1090.8235294117649,214.3529411764706" stroke="lavender" stroke-width="2" fill="none" />
<path d="M1090.8235294117649,389.64705882352945 L1073.294117647059,389.64705882352945" stroke="yellow" stroke-width="2" fill="none" />
<path d="M985.6470588235295,196.82352941176472 L1055.7647058823532,196.82352941176472" stroke="yellow" stroke-width="2" fill="none" />
<path d="M1055.7647058823532,174.91176470588238 L985.6470588235295,174.91176470588238" stroke="lavender" stroke-width="2" fill="none" />
<path d="M919.9117647058824,376.5 L919.9117647058824,284.47058823529414" stroke="yellow" stroke-width="2" fill="none" />
<path d="M919.9117647058824,284.47058823529414 L919.9117647058824,249.41176470588238" stroke="lavender" stroke-width="2" fill="none" />
<path d="M919.9117647058824,249.41176470588238 L919.9117647058824,231.8823529411765" stroke="yellow" stroke-width="2" fill="none" />
<path d="M1160.9411764705883,284.47058823529414 L1160.9411764705883,319.5294117647059" stroke="lavender" stroke-width="2" fill="none" />
<path d="M1055.7647058823532,407.17647058823536 L985.6470588235295,407.17647058823536" stroke="yellow" stroke-width="2" fill="none" />
<path d="M963.7352941176471,433.47058823529414 L1073.294117647059,433.47058823529414" stroke="lavender" stroke-width="2" fill="none" />
<path d="M963.7352941176471,499.2058823529412 L1073.294117647059,499.2058823529412" stroke="lavender" stroke-width="2" fill="none" />
<path d="M135.47058823529414,319.5294117647059 L135.47058823529414,249.41176470588238" stroke="lavender" stroke-width="2" fill="none" />
<path d="M126.70588235294122,249.41176470588238 L126.70588235294122,319.5294117647059" stroke="yellow" stroke-width="2" fill="none" />
<path d="M144.23529411764707,319.5294117647059 L144.23529411764707,249.41176470588238" stroke="yellow" stroke-width="2" fill="none" />
<path d="M494.82352941176475,516.7352941176471 L494.82352941176475,591.2352941176471" stroke="yellow" stroke-width="2" fill="none" />
<path d="M521.1176470588235,591.2352941176471 L521.1176470588235,516.7352941176471" stroke="lavender" stroke-width="2" fill="none" />
<path d="M600.0,372.11764705882354 L564.9411764705883,372.11764705882354" stroke="lavender" stroke-width="2" fill="none" />
<path d="M564.9411764705883,380.8823529411765 L600.0,380.8823529411765" stroke="lavender" stroke-width="2" fill="none" />
<path d="M600.0,389.64705882352945 L564.9411764705883,389.64705882352945" stroke="yellow" stroke-width="2" fill="none" />
<path d="M600.0,372.11764705882354 L600.0,332.67647058823536" stroke="yellow" stroke-width="2" fill="none" />
<path d="M529.8823529411766,494.82352941176475 L600.0,494.82352941176475" stroke="yellow" stroke-width="2" fill="none" />
<path d="M600.0,494.82352941176475 L600.0,459.764705882353" stroke="lavender" stroke-width="2" fill="none" />
<path d="M529.8823529411766,459.764705882353 L529.8823529411766,494.82352941176475" stroke="lavender" stroke-width="2" fill="none" />
<path d="M529.8823529411766,389.64705882352945 L547.4117647058824,389.64705882352945" stroke="yellow" stroke-width="2" fill="none" />
<path d="M600.0,459.764705882353 L564.9411764705883,459.764705882353" stroke="lavender" stroke-width="2" fill="none" />
<path d="M564.9411764705883,459.764705882353 L529.8823529411766,459.764705882353" stroke="lavender" stroke-width="2" fill="none" />
<path d="M209.97058823529414,586.8529411764707 L209.97058823529414,516.7352941176471" stroke="yellow" stroke-width="2" fill="none" />
<path d="M179.29411764705884,503.5882352941177 L179.29411764705884,600.0" stroke="lavender" stroke-width="2" fill="none" />
<path d="M39.058823529411825,319.5294117647059 L39.058823529411825,284.47058823529414" stroke="lavender" stroke-width="2" fill="none" />
<path d="M74.11764705882354,284.47058823529414 L74.11764705882354,302.0" stroke="yellow" stroke-width="2" fill="none" />
<path d="M74.11764705882354,302.0 L78.5,302.0" stroke="yellow" stroke-width="2" fill="none" />
<path d="M78.5,302.0 L78.5,284.47058823529414" stroke="yellow" stroke-width="2" fill="none" />
<path d="M78.5,284.47058823529414 L74.11764705882354,284.47058823529414" stroke="yellow" stroke-width="2" fill="none" />
<path d="M306.3823529411765,376.5 L367.7352941176471,376.5" stroke="lavender" stroke-width="2" fill="none" />
<path d="M906.764705882353,372.11764705882354 L906.764705882353,302.0" stroke="yellow" stroke-width="2" fill="none" />
<path d="M705.1764705882354,39.05882352941177 L705.1764705882354,4.0" stroke="red" stroke-width="2" fill="none" />
<path d="M705.1764705882354,4.0 L740.2352941176471,4.0" stroke="red" stroke-width="2" fill="none" />
<path d="M740.2352941176471,4.0 L740.2352941176471,39.05882352941177" stroke="red" stroke-width="2" fill="none" />
<path d="M740.2352941176471,39.05882352941177 L775.2941176470589,39.05882352941177" stroke="red" stroke-width="2" fill="none" />
<path d="M775.2941176470589,39.05882352941177 L775.2941176470589,4.0" stroke="red" stroke-width="2" fill="none" />
<path d="M775.2941176470589,4.0 L810.3529411764707,4.0" stroke="red" stroke-width="2" fill="none" />
<path d="M810.3529411764707,4.0 L810.3529411764707,39.05882352941177" stroke="red" stroke-width="2" fill="none" />
<path d="M810.3529411764707,39.05882352941177 L845.4117647058824,39.05882352941177" stroke="red" stroke-width="2" fill="none" />
<path d="M845.4117647058824,39.05882352941177 L845.4117647058824,74.11764705882354" stroke="red" stroke-width="2" fill="none" />
<path d="M845.4117647058824,74.11764705882354 L880.4705882352941,74.11764705882354" stroke="red" stroke-width="2" fill="none" />
<path d="M880.4705882352941,74.11764705882354 L880.4705882352941,109.1764705882353" stroke="red" stroke-width="2" fill="none" />
<path d="M880.4705882352941,109.1764705882353 L845.4117647058824,109.1764705882353" stroke="red" stroke-width="2" fill="none" />
<path d="M845.4117647058824,109.1764705882353 L845.4117647058824,144.23529411764707" stroke="red" stroke-width="2" fill="none" />
<path d="M845.4117647058824,144.23529411764707 L810.3529411764707,144.23529411764707" stroke="red" stroke-width="2" fill="none" />
<path d="M810.3529411764707,144.23529411764707 L792.8235294117648,161.76470588235296" stroke="red" stroke-width="2" fill="none" />
<path d="M722.7058823529412,161.76470588235296 L705.1764705882354,144.23529411764707" stroke="red" stroke-width="2" fill="none" />
<path d="M705.1764705882354,144.23529411764707 L670.1176470588236,144.23529411764707" stroke="red" stroke-width="2" fill="none" />
<path d="M670.1176470588236,144.23529411764707 L670.1176470588236,109.1764705882353" stroke="red" stroke-width="2" fill="none" />
<path d="M670.1176470588236,109.1764705882353 L635.0588235294118,109.1764705882353" stroke="red" stroke-width="2" fill="none" />
<path d="M635.0588235294118,109.1764705882353 L635.0588235294118,74.11764705882354" stroke="red" stroke-width="2" fill="none" />
<path d="M635.0588235294118,74.11764705882354 L670.1176470588236,74.11764705882354" stroke="red" stroke-width="2" fill="none" />
<path d="M670.1176470588236,74.11764705882354 L670.1176470588236,39.05882352941177" stroke="red" stroke-width="2" fill="none" />
<path d="M670.1176470588236,39.05882352941177 L705.1764705882354,39.05882352941177" stroke="red" stroke-width="2" fill="none" />
<path d="M792.8235294117648,161.76470588235296 L792.8235294117648,179.29411764705884" stroke="red" stroke-width="2" fill="none" />
<path d="M722.7058823529412,179.29411764705884 L722.7058823529412,161.76470588235296" stroke="red" stroke-width="2" fill="none" />
<path d="M792.8235294117648,179.29411764705884 L810.3529411764707,196.82352941176472" stroke="red" stroke-width="2" fill="none" />
<path d="M705.1764705882354,196.82352941176472 L722.7058823529412,179.29411764705884" stroke="red" stroke-width="2" fill="none" />
<path d="M880.4705882352941,424.7058823529412 L876.0882352941178,424.7058823529412" stroke="red" stroke-width="2" fill="none" />
<path d="M876.0882352941178,424.7058823529412 L876.0882352941178,437.8529411764706" stroke="red" stroke-width="2" fill="none" />
<path d="M827.8823529411766,437.8529411764706 L827.8823529411766,424.7058823529412" stroke="red" stroke-width="2" fill="none" />
<path d="M827.8823529411766,446.61764705882354 L827.8823529411766,437.8529411764706" stroke="red" stroke-width="2" fill="none" />
<path d="M810.3529411764707,446.61764705882354 L827.8823529411766,446.61764705882354" stroke="red" stroke-width="2" fill="none" />
<path d="M740.2352941176471,446.61764705882354 L775.2941176470589,446.61764705882354" stroke="red" stroke-width="2" fill="none" />
<path d="M635.0588235294118,446.61764705882354 L705.1764705882354,446.61764705882354" stroke="red" stroke-width="2" fill="none" />
<path d="M740.2352941176471,424.7058823529412 L740.2352941176471,446.61764705882354" stroke="red" stroke-width="2" fill="none" />
<path d="M775.2941176470589,446.61764705882354 L775.2941176470589,424.7058823529412" stroke="red" stroke-width="2" fill="none" />
<path d="M810.3529411764707,424.7058823529412 L810.3529411764707,446.61764705882354" stroke="red" stroke-width="2" fill="none" />
<path d="M827.8823529411766,424.7058823529412 L810.3529411764707,424.7058823529412" stroke="red" stroke-width="2" fill="none" />
<path d="M775.2941176470589,424.7058823529412 L740.2352941176471,424.7058823529412" stroke="red" stroke-width="2" fill="none" />
<path d="M705.1764705882354,424.7058823529412 L635.0588235294118,424.7058823529412" stroke="red" stroke-width="2" fill="none" />
<path d="M705.1764705882354,446.61764705882354 L705.1764705882354,424.7058823529412" stroke="red" stroke-width="2" fill="none" />
<path d="M876.0882352941178,529.8823529411766 L810.3529411764707,529.8823529411766" stroke="red" stroke-width="2" fill="none" />
<path d="M810.3529411764707,529.8823529411766 L810.3529411764707,547.4117647058824" stroke="red" stroke-width="2" fill="none" />
<path d="M810.3529411764707,547.4117647058824 L792.8235294117648,547.4117647058824" stroke="red" stroke-width="2" fill="none" />
<path d="M792.8235294117648,547.4117647058824 L792.8235294117648,529.8823529411766" stroke="red" stroke-width="2" fill="none" />
<path d="M792.8235294117648,529.8823529411766 L722.7058823529412,529.8823529411766" stroke="red" stroke-width="2" fill="none" />
<path d="M722.7058823529412,529.8823529411766 L722.7058823529412,547.4117647058824" stroke="red" stroke-width="2" fill="none" />
<path d="M722.7058823529412,547.4117647058824 L705.1764705882354,547.4117647058824" stroke="red" stroke-width="2" fill="none" />
<path d="M705.1764705882354,547.4117647058824 L705.1764705882354,529.8823529411766" stroke="red" stroke-width="2" fill="none" />
<path d="M705.1764705882354,529.8823529411766 L635.0588235294118,529.8823529411766" stroke="red" stroke-width="2" fill="none" />
<path d="M635.0588235294118,424.7058823529412 L635.0588235294118,372.11764705882354" stroke="red" stroke-width="2" fill="none" />
<path d="M556.1764705882354,372.11764705882354 L556.1764705882354,332.67647058823536" stroke="red" stroke-width="2" fill="none" />
<path d="M635.0588235294118,332.67647058823536 L635.0588235294118,319.5294117647059" stroke="red" stroke-width="2" fill="none" />
<path d="M810.3529411764707,196.82352941176472 L845.4117647058824,196.82352941176472" stroke="red" stroke-width="2" fill="none" />
<path d="M880.4705882352941,209.97058823529414 L880.4705882352941,249.41176470588238" stroke="red" stroke-width="2" fill="none" />
<path d="M845.4117647058824,196.82352941176472 L845.4117647058824,148.61764705882354" stroke="red" stroke-width="2" fill="none" />
<path d="M950.5882352941178,148.61764705882354 L950.5882352941178,209.97058823529414" stroke="red" stroke-width="2" fill="none" />
<path d="M635.0588235294118,529.8823529411766 L635.0588235294118,494.82352941176475" stroke="red" stroke-width="2" fill="none" />
<path d="M635.0588235294118,494.82352941176475 L626.2941176470589,494.82352941176475" stroke="red" stroke-width="2" fill="none" />
<path d="M626.2941176470589,494.82352941176475 L626.2941176470589,459.764705882353" stroke="lavender" stroke-width="2" fill="none" />
<path d="M626.2941176470589,459.764705882353 L635.0588235294118,459.764705882353" stroke="red" stroke-width="2" fill="none" />
<path d="M635.0588235294118,459.764705882353 L635.0588235294118,446.61764705882354" stroke="red" stroke-width="2" fill="none" />
<path d="M494.82352941176475,319.5294117647059 L494.82352941176475,494.82352941176475" stroke="red" stroke-width="2" fill="none" />
<path d="M494.82352941176475,74.11764705882354 L494.82352941176475,249.41176470588238" stroke="red" stroke-width="2" fill="none" />
<path d="M249.41176470588238,354.5882352941177 L284.47058823529414,389.64705882352945" stroke="red" stroke-width="2" fill="none" />
<path d="M389.64705882352945,389.64705882352945 L424.7058823529412,354.5882352941177" stroke="red" stroke-width="2" fill="none" />
<path d="M424.7058823529412,214.3529411764706 L389.64705882352945,179.29411764705884" stroke="red" stroke-width="2" fill="none" />
<path d="M284.47058823529414,179.29411764705884 L249.41176470588238,214.3529411764706" stroke="red" stroke-width="2" fill="none" />
<path d="M249.41176470588238,214.3529411764706 L249.41176470588238,354.5882352941177" stroke="red" stroke-width="2" fill="none" />
<path d="M389.64705882352945,179.29411764705884 L354.5882352941177,179.29411764705884" stroke="red" stroke-width="2" fill="none" />
<path d="M319.5294117647059,179.29411764705884 L284.47058823529414,179.29411764705884" stroke="red" stroke-width="2" fill="none" />
<path d="M354.5882352941177,196.82352941176472 L354.5882352941177,214.3529411764706" stroke="red" stroke-width="2" fill="none" />
<path d="M354.5882352941177,214.3529411764706 L354.5882352941177,231.8823529411765" stroke="red" stroke-width="2" fill="none" />
<path d="M354.5882352941177,231.8823529411765 L354.5882352941177,249.41176470588238" stroke="red" stroke-width="2" fill="none" />
<path d="M319.5294117647059,249.41176470588238 L319.5294117647059,231.8823529411765" stroke="red" stroke-width="2" fill="none" />
<path d="M319.5294117647059,231.8823529411765 L319.5294117647059,214.3529411764706" stroke="red" stroke-width="2" fill="none" />
<path d="M319.5294117647059,214.3529411764706 L319.5294117647059,196.82352941176472" stroke="red" stroke-width="2" fill="none" />
<path d="M310.764705882353,249.41176470588238 L319.5294117647059,249.41176470588238" stroke="red" stroke-width="2" fill="none" />
<path d="M310.764705882353,188.05882352941177 L310.764705882353,249.41176470588238" stroke="red" stroke-width="2" fill="none" />
<path d="M258.1764705882353,218.73529411764707 L288.8529411764706,188.05882352941177" stroke="red" stroke-width="2" fill="none" />
<path d="M288.8529411764706,188.05882352941177 L310.764705882353,188.05882352941177" stroke="red" stroke-width="2" fill="none" />
<path d="M258.1764705882353,345.82352941176475 L258.1764705882353,218.73529411764707" stroke="red" stroke-width="2" fill="none" />
<path d="M288.8529411764706,376.5 L258.1764705882353,345.82352941176475" stroke="red" stroke-width="2" fill="none" />
<path d="M415.9411764705883,350.2058823529412 L389.64705882352945,376.5" stroke="red" stroke-width="2" fill="none" />
<path d="M385.264705882353,188.05882352941177 L415.9411764705883,218.73529411764707" stroke="red" stroke-width="2" fill="none" />
<path d="M363.3529411764706,188.05882352941177 L385.264705882353,188.05882352941177" stroke="red" stroke-width="2" fill="none" />
<path d="M354.5882352941177,249.41176470588238 L363.3529411764706,249.41176470588238" stroke="red" stroke-width="2" fill="none" />
<path d="M363.3529411764706,249.41176470588238 L363.3529411764706,188.05882352941177" stroke="red" stroke-width="2" fill="none" />
<path d="M415.9411764705883,218.73529411764707 L415.9411764705883,249.41176470588238" stroke="red" stroke-width="2" fill="none" />
<path d="M415.9411764705883,319.5294117647059 L415.9411764705883,350.2058823529412" stroke="red" stroke-width="2" fill="none" />
<path d="M424.7058823529412,354.5882352941177 L424.7058823529412,319.5294117647059" stroke="red" stroke-width="2" fill="none" />
<path d="M424.7058823529412,249.41176470588238 L424.7058823529412,214.3529411764706" stroke="red" stroke-width="2" fill="none" />
<path d="M415.9411764705883,249.41176470588238 L424.7058823529412,249.41176470588238" stroke="red" stroke-width="2" fill="none" />
<path d="M424.7058823529412,319.5294117647059 L415.9411764705883,319.5294117647059" stroke="red" stroke-width="2" fill="none" />
<path d="M389.64705882352945,376.5 L367.7352941176471,376.5" stroke="red" stroke-width="2" fill="none" />
<path d="M306.3823529411765,376.5 L288.8529411764706,376.5" stroke="red" stroke-width="2" fill="none" />
<path d="M284.47058823529414,389.64705882352945 L293.2352941176471,389.64705882352945" stroke="red" stroke-width="2" fill="none" />
<path d="M380.8823529411765,389.64705882352945 L389.64705882352945,389.64705882352945" stroke="red" stroke-width="2" fill="none" />
<path d="M293.2352941176471,389.64705882352945 L293.2352941176471,459.764705882353" stroke="red" stroke-width="2" fill="none" />
<path d="M380.8823529411765,459.764705882353 L380.8823529411765,389.64705882352945" stroke="red" stroke-width="2" fill="none" />
<path d="M293.2352941176471,459.764705882353 L293.2352941176471,494.82352941176475" stroke="red" stroke-width="2" fill="none" />
<path d="M380.8823529411765,494.82352941176475 L380.8823529411765,459.764705882353" stroke="red" stroke-width="2" fill="none" />
<path d="M367.7352941176471,503.5882352941177 L389.64705882352945,503.5882352941177" stroke="red" stroke-width="2" fill="none" />
<path d="M486.0588235294118,503.5882352941177 L494.82352941176475,503.5882352941177" stroke="red" stroke-width="2" fill="none" />
<path d="M494.82352941176475,494.82352941176475 L486.0588235294118,494.82352941176475" stroke="red" stroke-width="2" fill="none" />
<path d="M389.64705882352945,494.82352941176475 L380.8823529411765,494.82352941176475" stroke="red" stroke-width="2" fill="none" />
<path d="M389.64705882352945,503.5882352941177 L389.64705882352945,499.2058823529412" stroke="red" stroke-width="2" fill="none" />
<path d="M389.64705882352945,499.2058823529412 L389.64705882352945,494.82352941176475" stroke="red" stroke-width="2" fill="none" />
<path d="M486.0588235294118,494.82352941176475 L486.0588235294118,499.2058823529412" stroke="red" stroke-width="2" fill="none" />
<path d="M486.0588235294118,499.2058823529412 L486.0588235294118,503.5882352941177" stroke="red" stroke-width="2" fill="none" />
<path d="M367.7352941176471,376.5 L367.7352941176471,389.64705882352945" stroke="red" stroke-width="2" fill="none" />
<path d="M367.7352941176471,389.64705882352945 L367.7352941176471,424.7058823529412" stroke="red" stroke-width="2" fill="none" />
<path d="M367.7352941176471,424.7058823529412 L367.7352941176471,459.764705882353" stroke="red" stroke-width="2" fill="none" />
<path d="M306.3823529411765,459.764705882353 L306.3823529411765,424.7058823529412" stroke="red" stroke-width="2" fill="none" />
<path d="M306.3823529411765,424.7058823529412 L306.3823529411765,389.64705882352945" stroke="red" stroke-width="2" fill="none" />
<path d="M306.3823529411765,389.64705882352945 L306.3823529411765,376.5" stroke="red" stroke-width="2" fill="none" />
<path d="M494.82352941176475,600.0 L354.5882352941177,600.0" stroke="red" stroke-width="2" fill="none" />
<path d="M354.5882352941177,600.0 L209.97058823529414,600.0" stroke="red" stroke-width="2" fill="none" />
<path d="M209.97058823529414,503.5882352941177 L249.41176470588238,503.5882352941177" stroke="red" stroke-width="2" fill="none" />
<path d="M284.47058823529414,503.5882352941177 L306.3823529411765,503.5882352941177" stroke="red" stroke-width="2" fill="none" />
<path d="M284.47058823529414,494.82352941176475 L284.47058823529414,503.5882352941177" stroke="red" stroke-width="2" fill="none" />
<path d="M249.41176470588238,503.5882352941177 L249.41176470588238,494.82352941176475" stroke="red" stroke-width="2" fill="none" />
<path d="M293.2352941176471,494.82352941176475 L284.47058823529414,494.82352941176475" stroke="red" stroke-width="2" fill="none" />
<path d="M249.41176470588238,494.82352941176475 L144.23529411764707,494.82352941176475" stroke="red" stroke-width="2" fill="none" />
<path d="M144.23529411764707,494.82352941176475 L144.23529411764707,424.7058823529412" stroke="red" stroke-width="2" fill="none" />
<path d="M880.4705882352941,249.41176470588238 L880.4705882352941,302.0" stroke="red" stroke-width="2" fill="none" />
<path d="M880.4705882352941,372.11764705882354 L880.4705882352941,424.7058823529412" stroke="red" stroke-width="2" fill="none" />
<path d="M880.4705882352941,302.0 L889.2352941176471,302.0" stroke="red" stroke-width="2" fill="none" />
<path d="M889.2352941176471,372.11764705882354 L880.4705882352941,372.11764705882354" stroke="red" stroke-width="2" fill="none" />
<path d="M889.2352941176471,302.0 L898.0000000000001,302.0" stroke="red" stroke-width="2" fill="none" />
<path d="M898.0000000000001,302.0 L906.764705882353,302.0" stroke="red" stroke-width="2" fill="none" />
<path d="M906.764705882353,372.11764705882354 L898.0000000000001,372.11764705882354" stroke="red" stroke-width="2" fill="none" />
<path d="M898.0000000000001,372.11764705882354 L889.2352941176471,372.11764705882354" stroke="red" stroke-width="2" fill="none" />
<path d="M906.764705882353,302.0 L906.764705882353,214.3529411764706" stroke="red" stroke-width="2" fill="none" />
<path d="M906.764705882353,389.64705882352945 L906.764705882353,372.11764705882354" stroke="red" stroke-width="2" fill="none" />
<path d="M635.0588235294118,249.41176470588238 L635.0588235294118,214.3529411764706" stroke="red" stroke-width="2" fill="none" />
<path d="M670.1176470588236,196.82352941176472 L705.1764705882354,196.82352941176472" stroke="red" stroke-width="2" fill="none" />
<path d="M635.0588235294118,214.3529411764706 L564.9411764705883,214.3529411764706" stroke="red" stroke-width="2" fill="none" />
<path d="M564.9411764705883,214.3529411764706 L564.9411764705883,148.61764705882354" stroke="red" stroke-width="2" fill="none" />
<path d="M670.1176470588236,148.61764705882354 L670.1176470588236,196.82352941176472" stroke="red" stroke-width="2" fill="none" />
<path d="M564.9411764705883,148.61764705882354 L635.0588235294118,148.61764705882354" stroke="red" stroke-width="2" fill="none" />
<path d="M635.0588235294118,148.61764705882354 L670.1176470588236,148.61764705882354" stroke="red" stroke-width="2" fill="none" />
<path d="M845.4117647058824,148.61764705882354 L880.4705882352941,148.61764705882354" stroke="red" stroke-width="2" fill="none" />
<path d="M880.4705882352941,148.61764705882354 L950.5882352941178,148.61764705882354" stroke="red" stroke-width="2" fill="none" />
<path d="M950.5882352941178,209.97058823529414 L880.4705882352941,209.97058823529414" stroke="red" stroke-width="2" fill="none" />
<path d="M516.7352941176471,249.41176470588238 L516.7352941176471,218.73529411764707" stroke="red" stroke-width="2" fill="none" />
<path d="M516.7352941176471,218.73529411764707 L600.0,218.73529411764707" stroke="red" stroke-width="2" fill="none" />
<path d="M600.0,218.73529411764707 L600.0,249.41176470588238" stroke="red" stroke-width="2" fill="none" />
<path d="M600.0,249.41176470588238 L635.0588235294118,249.41176470588238" stroke="red" stroke-width="2" fill="none" />
<path d="M906.764705882353,214.3529411764706 L985.6470588235295,214.3529411764706" stroke="red" stroke-width="2" fill="none" />
<path d="M985.6470588235295,214.3529411764706 L985.6470588235295,205.58823529411768" stroke="red" stroke-width="2" fill="none" />
<path d="M1055.7647058823532,205.58823529411768 L1055.7647058823532,214.3529411764706" stroke="red" stroke-width="2" fill="none" />
<path d="M1055.7647058823532,389.64705882352945 L1055.7647058823532,398.4117647058824" stroke="red" stroke-width="2" fill="none" />
<path d="M985.6470588235295,398.4117647058824 L985.6470588235295,389.64705882352945" stroke="red" stroke-width="2" fill="none" />
<path d="M985.6470588235295,389.64705882352945 L906.764705882353,389.64705882352945" stroke="red" stroke-width="2" fill="none" />
<path d="M1130.2647058823532,389.64705882352945 L1090.8235294117649,389.64705882352945" stroke="red" stroke-width="2" fill="none" />
<path d="M1090.8235294117649,389.64705882352945 L1090.8235294117649,407.17647058823536" stroke="red" stroke-width="2" fill="none" />
<path d="M1090.8235294117649,407.17647058823536 L1073.294117647059,407.17647058823536" stroke="red" stroke-width="2" fill="none" />
<path d="M1073.294117647059,407.17647058823536 L1073.294117647059,389.64705882352945" stroke="red" stroke-width="2" fill="none" />
<path d="M1073.294117647059,389.64705882352945 L1055.7647058823532,389.64705882352945" stroke="red" stroke-width="2" fill="none" />
<path d="M1055.7647058823532,214.3529411764706 L1073.294117647059,214.3529411764706" stroke="red" stroke-width="2" fill="none" />
<path d="M1073.294117647059,214.3529411764706 L1073.294117647059,196.82352941176472" stroke="red" stroke-width="2" fill="none" />
<path d="M1073.294117647059,196.82352941176472 L1090.8235294117649,196.82352941176472" stroke="red" stroke-width="2" fill="none" />
<path d="M1090.8235294117649,196.82352941176472 L1090.8235294117649,214.3529411764706" stroke="red" stroke-width="2" fill="none" />
<path d="M1090.8235294117649,214.3529411764706 L1130.2647058823532,214.3529411764706" stroke="red" stroke-width="2" fill="none" />
<path d="M985.6470588235295,205.58823529411768 L985.6470588235295,196.82352941176472" stroke="red" stroke-width="2" fill="none" />
<path d="M1055.7647058823532,196.82352941176472 L1055.7647058823532,205.58823529411768" stroke="red" stroke-width="2" fill="none" />
<path d="M985.6470588235295,117.94117647058825 L1055.7647058823532,117.94117647058825" stroke="red" stroke-width="2" fill="none" />
<path d="M985.6470588235295,196.82352941176472 L985.6470588235295,174.91176470588238" stroke="red" stroke-width="2" fill="none" />
<path d="M1055.7647058823532,174.91176470588238 L1055.7647058823532,196.82352941176472" stroke="red" stroke-width="2" fill="none" />
<path d="M985.6470588235295,174.91176470588238 L985.6470588235295,117.94117647058825" stroke="red" stroke-width="2" fill="none" />
<path d="M1055.7647058823532,117.94117647058825 L1055.7647058823532,174.91176470588238" stroke="red" stroke-width="2" fill="none" />
<path d="M1130.2647058823532,214.3529411764706 L1130.2647058823532,284.47058823529414" stroke="red" stroke-width="2" fill="none" />
<path d="M1196.0,284.47058823529414 L1196.0,319.5294117647059" stroke="red" stroke-width="2" fill="none" />
<path d="M1130.2647058823532,319.5294117647059 L1130.2647058823532,389.64705882352945" stroke="red" stroke-width="2" fill="none" />
<path d="M1130.2647058823532,284.47058823529414 L1160.9411764705883,284.47058823529414" stroke="red" stroke-width="2" fill="none" />
<path d="M1160.9411764705883,284.47058823529414 L1196.0,284.47058823529414" stroke="red" stroke-width="2" fill="none" />
<path d="M1196.0,319.5294117647059 L1160.9411764705883,319.5294117647059" stroke="red" stroke-width="2" fill="none" />
<path d="M1160.9411764705883,319.5294117647059 L1130.2647058823532,319.5294117647059" stroke="red" stroke-width="2" fill="none" />
<path d="M1055.7647058823532,398.4117647058824 L1055.7647058823532,407.17647058823536" stroke="red" stroke-width="2" fill="none" />
<path d="M985.6470588235295,407.17647058823536 L985.6470588235295,398.4117647058824" stroke="red" stroke-width="2" fill="none" />
<path d="M1055.7647058823532,407.17647058823536 L1073.294117647059,433.47058823529414" stroke="red" stroke-width="2" fill="none" />
<path d="M963.7352941176471,433.47058823529414 L985.6470588235295,407.17647058823536" stroke="red" stroke-width="2" fill="none" />
<path d="M1073.294117647059,578.0882352941177 L963.7352941176471,578.0882352941177" stroke="red" stroke-width="2" fill="none" />
<path d="M1073.294117647059,433.47058823529414 L1073.294117647059,499.2058823529412" stroke="red" stroke-width="2" fill="none" />
<path d="M1073.294117647059,499.2058823529412 L1073.294117647059,578.0882352941177" stroke="red" stroke-width="2" fill="none" />
<path d="M963.7352941176471,578.0882352941177 L963.7352941176471,499.2058823529412" stroke="red" stroke-width="2" fill="none" />
<path d="M963.7352941176471,499.2058823529412 L963.7352941176471,433.47058823529414" stroke="red" stroke-width="2" fill="none" />
<path d="M144.23529411764707,74.11764705882354 L494.82352941176475,74.11764705882354" stroke="red" stroke-width="2" fill="none" />
<path d="M144.23529411764707,424.7058823529412 L144.23529411764707,319.5294117647059" stroke="red" stroke-width="2" fill="none" />
<path d="M144.23529411764707,249.41176470588238 L144.23529411764707,74.11764705882354" stroke="red" stroke-width="2" fill="none" />
<path d="M144.23529411764707,319.5294117647059 L135.47058823529414,319.5294117647059" stroke="red" stroke-width="2" fill="none" />
<path d="M135.47058823529414,249.41176470588238 L144.23529411764707,249.41176470588238" stroke="red" stroke-width="2" fill="none" />
<path d="M126.70588235294122,249.41176470588238 L135.47058823529414,249.41176470588238" stroke="red" stroke-width="2" fill="none" />
<path d="M135.47058823529414,319.5294117647059 L126.70588235294122,319.5294117647059" stroke="red" stroke-width="2" fill="none" />
<path d="M126.70588235294122,319.5294117647059 L117.94117647058829,319.5294117647059" stroke="red" stroke-width="2" fill="none" />
<path d="M117.94117647058829,319.5294117647059 L117.94117647058829,354.5882352941177" stroke="red" stroke-width="2" fill="none" />
<path d="M117.94117647058829,214.3529411764706 L117.94117647058829,249.41176470588238" stroke="red" stroke-width="2" fill="none" />
<path d="M117.94117647058829,249.41176470588238 L126.70588235294122,249.41176470588238" stroke="red" stroke-width="2" fill="none" />
<path d="M494.82352941176475,503.5882352941177 L494.82352941176475,516.7352941176471" stroke="red" stroke-width="2" fill="none" />
<path d="M494.82352941176475,591.2352941176471 L494.82352941176475,600.0" stroke="red" stroke-width="2" fill="none" />
<path d="M494.82352941176475,516.7352941176471 L521.1176470588235,516.7352941176471" stroke="red" stroke-width="2" fill="none" />
<path d="M521.1176470588235,516.7352941176471 L630.6764705882354,516.7352941176471" stroke="red" stroke-width="2" fill="none" />
<path d="M630.6764705882354,516.7352941176471 L630.6764705882354,591.2352941176471" stroke="red" stroke-width="2" fill="none" />
<path d="M630.6764705882354,591.2352941176471 L521.1176470588235,591.2352941176471" stroke="red" stroke-width="2" fill="none" />
<path d="M521.1176470588235,591.2352941176471 L494.82352941176475,591.2352941176471" stroke="red" stroke-width="2" fill="none" />
<path d="M564.9411764705883,372.11764705882354 L556.1764705882354,372.11764705882354" stroke="red" stroke-width="2" fill="none" />
<path d="M600.0,372.11764705882354 L600.0,380.8823529411765" stroke="red" stroke-width="2" fill="none" />
<path d="M564.9411764705883,380.8823529411765 L564.9411764705883,372.11764705882354" stroke="red" stroke-width="2" fill="none" />
<path d="M600.0,380.8823529411765 L600.0,389.64705882352945" stroke="red" stroke-width="2" fill="none" />
<path d="M600.0,389.64705882352945 L621.9117647058824,389.64705882352945" stroke="red" stroke-width="2" fill="none" />
<path d="M621.9117647058824,389.64705882352945 L621.9117647058824,499.2058823529412" stroke="red" stroke-width="2" fill="none" />
<path d="M621.9117647058824,499.2058823529412 L507.97058823529414,499.2058823529412" stroke="red" stroke-width="2" fill="none" />
<path d="M507.97058823529414,499.2058823529412 L507.97058823529414,389.64705882352945" stroke="red" stroke-width="2" fill="none" />
<path d="M564.9411764705883,389.64705882352945 L564.9411764705883,380.8823529411765" stroke="red" stroke-width="2" fill="none" />
<path d="M556.1764705882354,332.67647058823536 L600.0,332.67647058823536" stroke="red" stroke-width="2" fill="none" />
<path d="M600.0,332.67647058823536 L621.9117647058824,332.67647058823536" stroke="red" stroke-width="2" fill="none" />
<path d="M621.9117647058824,332.67647058823536 L635.0588235294118,332.67647058823536" stroke="red" stroke-width="2" fill="none" />
<path d="M635.0588235294118,372.11764705882354 L621.9117647058824,372.11764705882354" stroke="red" stroke-width="2" fill="none" />
<path d="M621.9117647058824,372.11764705882354 L600.0,372.11764705882354" stroke="red" stroke-width="2" fill="none" />
<path d="M507.97058823529414,389.64705882352945 L529.8823529411766,389.64705882352945" stroke="red" stroke-width="2" fill="none" />
<path d="M529.8823529411766,389.64705882352945 L529.8823529411766,372.11764705882354" stroke="red" stroke-width="2" fill="none" />
<path d="M529.8823529411766,372.11764705882354 L547.4117647058824,372.11764705882354" stroke="red" stroke-width="2" fill="none" />
<path d="M547.4117647058824,372.11764705882354 L547.4117647058824,389.64705882352945" stroke="red" stroke-width="2" fill="none" />
<path d="M547.4117647058824,389.64705882352945 L564.9411764705883,389.64705882352945" stroke="red" stroke-width="2" fill="none" />
<path d="M499.2058823529412,529.8823529411766 L499.2058823529412,534.2647058823529" stroke="red" stroke-width="2" fill="none" />
<path d="M499.2058823529412,534.2647058823529 L503.5882352941177,534.2647058823529" stroke="red" stroke-width="2" fill="none" />
<path d="M503.5882352941177,534.2647058823529 L503.5882352941177,529.8823529411766" stroke="red" stroke-width="2" fill="none" />
<path d="M503.5882352941177,529.8823529411766 L499.2058823529412,529.8823529411766" stroke="red" stroke-width="2" fill="none" />
<path d="M499.2058823529412,547.4117647058824 L499.2058823529412,551.7941176470589" stroke="red" stroke-width="2" fill="none" />
<path d="M499.2058823529412,551.7941176470589 L503.5882352941177,551.7941176470589" stroke="red" stroke-width="2" fill="none" />
<path d="M503.5882352941177,551.7941176470589 L503.5882352941177,547.4117647058824" stroke="red" stroke-width="2" fill="none" />
<path d="M503.5882352941177,547.4117647058824 L499.2058823529412,547.4117647058824" stroke="red" stroke-width="2" fill="none" />
<path d="M499.2058823529412,564.9411764705883 L499.2058823529412,569.3235294117648" stroke="red" stroke-width="2" fill="none" />
<path d="M499.2058823529412,569.3235294117648 L503.5882352941177,569.3235294117648" stroke="red" stroke-width="2" fill="none" />
<path d="M503.5882352941177,569.3235294117648 L503.5882352941177,564.9411764705883" stroke="red" stroke-width="2" fill="none" />
<path d="M503.5882352941177,564.9411764705883 L499.2058823529412,564.9411764705883" stroke="red" stroke-width="2" fill="none" />
<path d="M499.2058823529412,578.0882352941177 L499.2058823529412,582.4705882352941" stroke="red" stroke-width="2" fill="none" />
<path d="M499.2058823529412,582.4705882352941 L503.5882352941177,582.4705882352941" stroke="red" stroke-width="2" fill="none" />
<path d="M503.5882352941177,582.4705882352941 L503.5882352941177,578.0882352941177" stroke="red" stroke-width="2" fill="none" />
<path d="M503.5882352941177,578.0882352941177 L499.2058823529412,578.0882352941177" stroke="red" stroke-width="2" fill="none" />
<path d="M209.97058823529414,516.7352941176471 L209.97058823529414,503.5882352941177" stroke="red" stroke-width="2" fill="none" />
<path d="M209.97058823529414,600.0 L209.97058823529414,586.8529411764707" stroke="red" stroke-width="2" fill="none" />
<path d="M209.97058823529414,600.0 L179.29411764705884,600.0" stroke="red" stroke-width="2" fill="none" />
<path d="M179.29411764705884,503.5882352941177 L209.97058823529414,503.5882352941177" stroke="red" stroke-width="2" fill="none" />
<path d="M179.29411764705884,600.0 L74.11764705882354,600.0" stroke="red" stroke-width="2" fill="none" />
<path d="M74.11764705882354,600.0 L74.11764705882354,503.5882352941177" stroke="red" stroke-width="2" fill="none" />
<path d="M74.11764705882354,503.5882352941177 L179.29411764705884,503.5882352941177" stroke="red" stroke-width="2" fill="none" />
<path d="M201.20588235294122,516.7352941176471 L201.20588235294122,521.1176470588236" stroke="red" stroke-width="2" fill="none" />
<path d="M201.20588235294122,521.1176470588236 L205.58823529411768,521.1176470588236" stroke="red" stroke-width="2" fill="none" />
<path d="M205.58823529411768,521.1176470588236 L205.58823529411768,516.7352941176471" stroke="red" stroke-width="2" fill="none" />
<path d="M205.58823529411768,516.7352941176471 L201.20588235294122,516.7352941176471" stroke="red" stroke-width="2" fill="none" />
<path d="M201.20588235294122,534.2647058823529 L201.20588235294122,538.6470588235295" stroke="red" stroke-width="2" fill="none" />
<path d="M201.20588235294122,538.6470588235295 L205.58823529411768,538.6470588235295" stroke="red" stroke-width="2" fill="none" />
<path d="M205.58823529411768,538.6470588235295 L205.58823529411768,534.2647058823529" stroke="red" stroke-width="2" fill="none" />
<path d="M205.58823529411768,534.2647058823529 L201.20588235294122,534.2647058823529" stroke="red" stroke-width="2" fill="none" />
<path d="M201.20588235294122,551.7941176470589 L201.20588235294122,556.1764705882354" stroke="red" stroke-width="2" fill="none" />
<path d="M201.20588235294122,556.1764705882354 L205.58823529411768,556.1764705882354" stroke="red" stroke-width="2" fill="none" />
<path d="M205.58823529411768,556.1764705882354 L205.58823529411768,551.7941176470589" stroke="red" stroke-width="2" fill="none" />
<path d="M205.58823529411768,551.7941176470589 L201.20588235294122,551.7941176470589" stroke="red" stroke-width="2" fill="none" />
<path d="M201.20588235294122,569.3235294117648 L201.20588235294122,573.7058823529412" stroke="red" stroke-width="2" fill="none" />
<path d="M201.20588235294122,573.7058823529412 L205.58823529411768,573.7058823529412" stroke="red" stroke-width="2" fill="none" />
<path d="M205.58823529411768,573.7058823529412 L205.58823529411768,569.3235294117648" stroke="red" stroke-width="2" fill="none" />
<path d="M205.58823529411768,569.3235294117648 L201.20588235294122,569.3235294117648" stroke="red" stroke-width="2" fill="none" />
<path d="M494.82352941176475,249.41176470588238 L507.97058823529414,249.41176470588238" stroke="red" stroke-width="2" fill="none" />
<path d="M507.97058823529414,249.41176470588238 L516.7352941176471,249.41176470588238" stroke="red" stroke-width="2" fill="none" />
<path d="M635.0588235294118,319.5294117647059 L507.97058823529414,319.5294117647059" stroke="red" stroke-width="2" fill="none" />
<path d="M507.97058823529414,319.5294117647059 L494.82352941176475,319.5294117647059" stroke="red" stroke-width="2" fill="none" />
<path d="M306.3823529411765,490.4411764705883 L306.3823529411765,459.764705882353" stroke="red" stroke-width="2" fill="none" />
<path d="M306.3823529411765,503.5882352941177 L306.3823529411765,490.4411764705883" stroke="red" stroke-width="2" fill="none" />
<path d="M367.7352941176471,459.764705882353 L367.7352941176471,490.4411764705883" stroke="red" stroke-width="2" fill="none" />
<path d="M367.7352941176471,490.4411764705883 L367.7352941176471,503.5882352941177" stroke="red" stroke-width="2" fill="none" />
<path d="M319.5294117647059,196.82352941176472 L319.5294117647059,192.44117647058826" stroke="red" stroke-width="2" fill="none" />
<path d="M319.5294117647059,192.44117647058826 L319.5294117647059,179.29411764705884" stroke="red" stroke-width="2" fill="none" />
<path d="M354.5882352941177,179.29411764705884 L354.5882352941177,192.44117647058826" stroke="red" stroke-width="2" fill="none" />
<path d="M354.5882352941177,192.44117647058826 L354.5882352941177,196.82352941176472" stroke="red" stroke-width="2" fill="none" />
<path d="M4.0,354.5882352941177 L4.0,319.5294117647059" stroke="red" stroke-width="2" fill="none" />
<path d="M4.0,319.5294117647059 L4.0,284.47058823529414" stroke="red" stroke-width="2" fill="none" />
<path d="M4.0,284.47058823529414 L4.0,214.3529411764706" stroke="red" stroke-width="2" fill="none" />
<path d="M4.0,214.3529411764706 L39.058823529411825,214.3529411764706" stroke="red" stroke-width="2" fill="none" />
<path d="M39.058823529411825,214.3529411764706 L39.058823529411825,196.82352941176472" stroke="red" stroke-width="2" fill="none" />
<path d="M39.058823529411825,196.82352941176472 L56.58823529411768,196.82352941176472" stroke="red" stroke-width="2" fill="none" />
<path d="M56.58823529411768,196.82352941176472 L56.58823529411768,214.3529411764706" stroke="red" stroke-width="2" fill="none" />
<path d="M56.58823529411768,214.3529411764706 L117.94117647058829,214.3529411764706" stroke="red" stroke-width="2" fill="none" />
<path d="M117.94117647058829,354.5882352941177 L56.58823529411768,354.5882352941177" stroke="red" stroke-width="2" fill="none" />
<path d="M56.58823529411768,354.5882352941177 L56.58823529411768,372.11764705882354" stroke="red" stroke-width="2" fill="none" />
<path d="M56.58823529411768,372.11764705882354 L39.058823529411825,372.11764705882354" stroke="red" stroke-width="2" fill="none" />
<path d="M39.058823529411825,372.11764705882354 L39.058823529411825,354.5882352941177" stroke="red" stroke-width="2" fill="none" />
<path d="M39.058823529411825,354.5882352941177 L4.0,354.5882352941177" stroke="red" stroke-width="2" fill="none" />
<path d="M39.058823529411825,275.7058823529412 L4.0,275.7058823529412" stroke="red" stroke-width="2" fill="none" />
<path d="M4.0,284.47058823529414 L39.058823529411825,284.47058823529414" stroke="red" stroke-width="2" fill="none" />
<path d="M39.058823529411825,284.47058823529414 L39.058823529411825,275.7058823529412" stroke="red" stroke-width="2" fill="none" />
<path d="M4.0,328.29411764705884 L39.058823529411825,328.29411764705884" stroke="red" stroke-width="2" fill="none" />
<path d="M39.058823529411825,328.29411764705884 L39.058823529411825,319.5294117647059" stroke="red" stroke-width="2" fill="none" />
<path d="M39.058823529411825,319.5294117647059 L4.0,319.5294117647059" stroke="red" stroke-width="2" fill="none" />
<path d="M876.0882352941178,437.8529411764706 L876.0882352941178,459.764705882353" stroke="red" stroke-width="2" fill="none" />
<path d="M876.0882352941178,459.764705882353 L880.4705882352941,459.764705882353" stroke="red" stroke-width="2" fill="none" />
<path d="M880.4705882352941,459.764705882353 L880.4705882352941,494.82352941176475" stroke="lavender" stroke-width="2" fill="none" />
<path d="M880.4705882352941,494.82352941176475 L876.0882352941178,494.82352941176475" stroke="red" stroke-width="2" fill="none" />
<path d="M876.0882352941178,494.82352941176475 L876.0882352941178,529.8823529411766" stroke="red" stroke-width="2" fill="none" />
</svg>