<?xml version="1.0" encoding="UTF-8"?>
<svg xmlns="http://www.w3.org/2000/svg" xmlns:xlink="http://www.w3.org/1999/xlink"
     width="1200" height="1442" viewBox="0 0 1200 1442">
<defs>
</defs>
<path d="M593.4981818181818,1334.7054545454546 L489.46909090909094,1334.7054545454546" stroke="yellow" stroke-width="1" fill="none" />
<path d="M628.1745454545455,1265.3527272727274 L628.1745454545455,1282.6909090909091" stroke="yellow" stroke-width="1" fill="none" />
<path d="M454.7927272727273,1282.6909090909091 L454.7927272727273,1265.3527272727274" stroke="yellow" stroke-width="1" fill="none" />
<path d="M437.4545454545455,1178.6618181818183 L454.7927272727273,1169.9927272727273" stroke="yellow" stroke-width="1" fill="none" />
<path d="M454.7927272727273,1169.9927272727273 L489.46909090909094,1169.9927272727273" stroke="yellow" stroke-width="1" fill="none" />
<path d="M489.46909090909094,1169.9927272727273 L506.80727272727273,1178.6618181818183" stroke="yellow" stroke-width="1" fill="none" />
<path d="M437.4545454545455,1165.658181818182 L454.7927272727273,1156.989090909091" stroke="yellow" stroke-width="1" fill="none" />
<path d="M454.7927272727273,1156.989090909091 L489.46909090909094,1156.989090909091" stroke="yellow" stroke-width="1" fill="none" />
<path d="M489.46909090909094,1156.989090909091 L506.80727272727273,1165.658181818182" stroke="yellow" stroke-width="1" fill="none" />
<path d="M437.4545454545455,1152.6545454545455 L454.7927272727273,1143.9854545454546" stroke="yellow" stroke-width="1" fill="none" />
<path d="M454.7927272727273,1143.9854545454546 L489.46909090909094,1143.9854545454546" stroke="yellow" stroke-width="1" fill="none" />
<path d="M489.46909090909094,1143.9854545454546 L506.80727272727273,1152.6545454545455" stroke="yellow" stroke-width="1" fill="none" />
<path d="M437.4545454545455,1139.6509090909092 L454.7927272727273,1130.9818181818182" stroke="yellow" stroke-width="1" fill="none" />
<path d="M454.7927272727273,1130.9818181818182 L489.46909090909094,1130.9818181818182" stroke="yellow" stroke-width="1" fill="none" />
<path d="M489.46909090909094,1130.9818181818182 L506.80727272727273,1139.6509090909092" stroke="yellow" stroke-width="1" fill="none" />
<path d="M437.4545454545455,1139.6509090909092 L437.4545454545455,1152.6545454545455" stroke="yellow" stroke-width="1" fill="none" />
<path d="M437.4545454545455,1152.6545454545455 L437.4545454545455,1165.658181818182" stroke="yellow" stroke-width="1" fill="none" />
<path d="M437.4545454545455,1165.658181818182 L437.4545454545455,1178.6618181818183" stroke="yellow" stroke-width="1" fill="none" />
<path d="M506.80727272727273,1178.6618181818183 L506.80727272727273,1165.658181818182" stroke="yellow" stroke-width="1" fill="none" />
<path d="M506.80727272727273,1165.658181818182 L506.80727272727273,1152.6545454545455" stroke="yellow" stroke-width="1" fill="none" />
<path d="M506.80727272727273,1152.6545454545455 L506.80727272727273,1139.6509090909092" stroke="yellow" stroke-width="1" fill="none" />
<path d="M437.4545454545455,1113.6436363636365 L437.4545454545455,1139.6509090909092" stroke="yellow" stroke-width="1" fill="none" />
<path d="M506.80727272727273,1139.6509090909092 L506.80727272727273,1113.6436363636365" stroke="yellow" stroke-width="1" fill="none" />
<path d="M454.7927272727273,1100.64 L437.4545454545455,1113.6436363636365" stroke="yellow" stroke-width="1" fill="none" />
<path d="M506.80727272727273,1113.6436363636365 L489.46909090909094,1100.64" stroke="yellow" stroke-width="1" fill="none" />
<path d="M489.46909090909094,1100.64 L454.7927272727273,1100.64" stroke="yellow" stroke-width="1" fill="none" />
<path d="M576.1600000000001,1178.6618181818183 L593.4981818181818,1169.9927272727273" stroke="yellow" stroke-width="1" fill="none" />
<path d="M593.4981818181818,1169.9927272727273 L628.1745454545455,1169.9927272727273" stroke="yellow" stroke-width="1" fill="none" />
<path d="M628.1745454545455,1169.9927272727273 L645.5127272727273,1178.6618181818183" stroke="yellow" stroke-width="1" fill="none" />
<path d="M576.1600000000001,1165.658181818182 L593.4981818181818,1156.989090909091" stroke="yellow" stroke-width="1" fill="none" />
<path d="M593.4981818181818,1156.989090909091 L628.1745454545455,1156.989090909091" stroke="yellow" stroke-width="1" fill="none" />
<path d="M628.1745454545455,1156.989090909091 L645.5127272727273,1165.658181818182" stroke="yellow" stroke-width="1" fill="none" />
<path d="M576.1600000000001,1152.6545454545455 L593.4981818181818,1143.9854545454546" stroke="yellow" stroke-width="1" fill="none" />
<path d="M593.4981818181818,1143.9854545454546 L628.1745454545455,1143.9854545454546" stroke="yellow" stroke-width="1" fill="none" />
<path d="M628.1745454545455,1143.9854545454546 L645.5127272727273,1152.6545454545455" stroke="yellow" stroke-width="1" fill="none" />
<path d="M576.1600000000001,1139.6509090909092 L593.4981818181818,1130.9818181818182" stroke="yellow" stroke-width="1" fill="none" />
<path d="M593.4981818181818,1130.9818181818182 L628.1745454545455,1130.9818181818182" stroke="yellow" stroke-width="1" fill="none" />
<path d="M628.1745454545455,1130.9818181818182 L645.5127272727273,1139.6509090909092" stroke="yellow" stroke-width="1" fill="none" />
<path d="M576.1600000000001,1139.6509090909092 L576.1600000000001,1152.6545454545455" stroke="yellow" stroke-width="1" fill="none" />
<path d="M576.1600000000001,1152.6545454545455 L576.1600000000001,1165.658181818182" stroke="yellow" stroke-width="1" fill="none" />
<path d="M576.1600000000001,1165.658181818182 L576.1600000000001,1178.6618181818183" stroke="yellow" stroke-width="1" fill="none" />
<path d="M645.5127272727273,1178.6618181818183 L645.5127272727273,1165.658181818182" stroke="yellow" stroke-width="1" fill="none" />
<path d="M645.5127272727273,1165.658181818182 L645.5127272727273,1152.6545454545455" stroke="yellow" stroke-width="1" fill="none" />
<path d="M645.5127272727273,1152.6545454545455 L645.5127272727273,1139.6509090909092" stroke="yellow" stroke-width="1" fill="none" />
<path d="M576.1600000000001,1113.6436363636365 L576.1600000000001,1139.6509090909092" stroke="yellow" stroke-width="1" fill="none" />
<path d="M645.5127272727273,1139.6509090909092 L645.5127272727273,1113.6436363636365" stroke="yellow" stroke-width="1" fill="none" />
<path d="M593.4981818181818,1100.64 L576.1600000000001,1113.6436363636365" stroke="yellow" stroke-width="1" fill="none" />
<path d="M645.5127272727273,1113.6436363636365 L628.1745454545455,1100.64" stroke="yellow" stroke-width="1" fill="none" />
<path d="M628.1745454545455,1100.64 L593.4981818181818,1100.64" stroke="yellow" stroke-width="1" fill="none" />
<path d="M714.8654545454547,1161.3236363636365 L680.189090909091,1139.6509090909092" stroke="yellow" stroke-width="1" fill="none" />
<path d="M680.189090909091,1139.6509090909092 L645.5127272727273,1139.6509090909092" stroke="yellow" stroke-width="1" fill="none" />
<path d="M437.4545454545455,1139.6509090909092 L402.77818181818185,1139.6509090909092" stroke="yellow" stroke-width="1" fill="none" />
<path d="M402.77818181818185,1139.6509090909092 L368.1018181818182,1161.3236363636365" stroke="yellow" stroke-width="1" fill="none" />
<path d="M576.1600000000001,1139.6509090909092 L506.80727272727273,1139.6509090909092" stroke="yellow" stroke-width="1" fill="none" />
<path d="M628.1745454545455,1230.6763636363637 L593.4981818181818,1213.338181818182" stroke="yellow" stroke-width="1" fill="none" />
<path d="M593.4981818181818,1213.338181818182 L489.46909090909094,1213.338181818182" stroke="yellow" stroke-width="1" fill="none" />
<path d="M489.46909090909094,1213.338181818182 L454.7927272727273,1230.6763636363637" stroke="yellow" stroke-width="1" fill="none" />
<path d="M420.11636363636364,1022.6181818181819 L524.1454545454545,1022.6181818181819" stroke="yellow" stroke-width="1" fill="none" />
<path d="M524.1454545454545,987.9418181818182 L489.46909090909094,987.9418181818182" stroke="yellow" stroke-width="1" fill="none" />
<path d="M489.46909090909094,987.9418181818182 L489.46909090909094,918.589090909091" stroke="yellow" stroke-width="1" fill="none" />
<path d="M489.46909090909094,918.589090909091 L454.7927272727273,918.589090909091" stroke="yellow" stroke-width="1" fill="none" />
<path d="M454.7927272727273,918.589090909091 L420.11636363636364,987.9418181818182" stroke="yellow" stroke-width="1" fill="none" />
<path d="M420.11636363636364,987.9418181818182 L420.11636363636364,1022.6181818181819" stroke="yellow" stroke-width="1" fill="none" />
<path d="M662.8509090909091,1022.6181818181819 L662.8509090909091,987.9418181818182" stroke="yellow" stroke-width="1" fill="none" />
<path d="M662.8509090909091,987.9418181818182 L628.1745454545455,918.589090909091" stroke="yellow" stroke-width="1" fill="none" />
<path d="M628.1745454545455,918.589090909091 L593.4981818181818,918.589090909091" stroke="yellow" stroke-width="1" fill="none" />
<path d="M593.4981818181818,918.589090909091 L593.4981818181818,987.9418181818182" stroke="yellow" stroke-width="1" fill="none" />
<path d="M524.1454545454545,814.5600000000001 L524.1454545454545,849.2363636363636" stroke="lavender" stroke-width="1" fill="none" />
<path d="M524.1454545454545,849.2363636363636 L558.8218181818182,849.2363636363636" stroke="yellow" stroke-width="1" fill="none" />
<path d="M558.8218181818182,849.2363636363636 L558.8218181818182,814.5600000000001" stroke="lavender" stroke-width="1" fill="none" />
<path d="M558.8218181818182,814.5600000000001 L524.1454545454545,814.5600000000001" stroke="yellow" stroke-width="1" fill="none" />
<path d="M506.80727272727273,814.5600000000001 L506.80727272727273,849.2363636363636" stroke="yellow" stroke-width="1" fill="none" />
<path d="M489.46909090909094,814.5600000000001 L489.46909090909094,849.2363636363636" stroke="yellow" stroke-width="1" fill="none" />
<path d="M576.1600000000001,849.2363636363636 L576.1600000000001,814.5600000000001" stroke="yellow" stroke-width="1" fill="none" />
<path d="M593.4981818181818,849.2363636363636 L593.4981818181818,814.5600000000001" stroke="yellow" stroke-width="1" fill="none" />
<path d="M558.8218181818182,849.2363636363636 L576.1600000000001,849.2363636363636" stroke="yellow" stroke-width="1" fill="none" />
<path d="M576.1600000000001,849.2363636363636 L593.4981818181818,849.2363636363636" stroke="yellow" stroke-width="1" fill="none" />
<path d="M593.4981818181818,814.5600000000001 L576.1600000000001,814.5600000000001" stroke="yellow" stroke-width="1" fill="none" />
<path d="M576.1600000000001,814.5600000000001 L558.8218181818182,814.5600000000001" stroke="yellow" stroke-width="1" fill="none" />
<path d="M506.80727272727273,849.2363636363636 L524.1454545454545,849.2363636363636" stroke="yellow" stroke-width="1" fill="none" />
<path d="M489.46909090909094,849.2363636363636 L506.80727272727273,849.2363636363636" stroke="yellow" stroke-width="1" fill="none" />
<path d="M524.1454545454545,814.5600000000001 L506.80727272727273,814.5600000000001" stroke="yellow" stroke-width="1" fill="none" />
<path d="M506.80727272727273,814.5600000000001 L489.46909090909094,814.5600000000001" stroke="yellow" stroke-width="1" fill="none" />
<path d="M454.7927272727273,866.5745454545455 L489.46909090909094,866.5745454545455" stroke="yellow" stroke-width="1" fill="none" />
<path d="M489.46909090909094,866.5745454545455 L489.46909090909094,849.2363636363636" stroke="yellow" stroke-width="1" fill="none" />
<path d="M593.4981818181818,849.2363636363636 L593.4981818181818,866.5745454545455" stroke="yellow" stroke-width="1" fill="none" />
<path d="M593.4981818181818,866.5745454545455 L628.1745454545455,866.5745454545455" stroke="yellow" stroke-width="1" fill="none" />
<path d="M628.1745454545455,866.5745454545455 L628.1745454545455,849.2363636363636" stroke="yellow" stroke-width="1" fill="none" />
<path d="M454.7927272727273,849.2363636363636 L454.7927272727273,866.5745454545455" stroke="yellow" stroke-width="1" fill="none" />
<path d="M385.44,849.2363636363636 L454.7927272727273,849.2363636363636" stroke="yellow" stroke-width="1" fill="none" />
<path d="M628.1745454545455,849.2363636363636 L697.5272727272727,849.2363636363636" stroke="yellow" stroke-width="1" fill="none" />
<path d="M697.5272727272727,849.2363636363636 L697.5272727272727,736.5381818181819" stroke="yellow" stroke-width="1" fill="none" />
<path d="M385.44,1022.6181818181819 L385.44,987.9418181818182" stroke="yellow" stroke-width="1" fill="none" />
<path d="M350.76363636363635,1022.6181818181819 L307.41818181818184,1065.9636363636364" stroke="yellow" stroke-width="1" fill="none" />
<path d="M307.41818181818184,1065.9636363636364 L307.41818181818184,1087.6363636363637" stroke="yellow" stroke-width="1" fill="none" />
<path d="M307.41818181818184,1087.6363636363637 L307.41818181818184,1169.9927272727273" stroke="yellow" stroke-width="1" fill="none" />
<path d="M307.41818181818184,1169.9927272727273 L281.41090909090906,1196.0" stroke="yellow" stroke-width="1" fill="none" />
<path d="M281.41090909090906,1196.0 L121.03272727272724,1196.0" stroke="yellow" stroke-width="1" fill="none" />
<path d="M121.03272727272724,1196.0 L73.35272727272724,1148.3200000000002" stroke="yellow" stroke-width="1" fill="none" />
<path d="M73.35272727272724,1148.3200000000002 L73.35272727272724,1009.6145454545456" stroke="yellow" stroke-width="1" fill="none" />
<path d="M142.70545454545453,987.9418181818182 L142.70545454545453,953.2654545454546" stroke="yellow" stroke-width="1" fill="none" />
<path d="M95.02545454545452,987.9418181818182 L142.70545454545453,987.9418181818182" stroke="yellow" stroke-width="1" fill="none" />
<path d="M73.35272727272724,1009.6145454545456 L95.02545454545452,987.9418181818182" stroke="yellow" stroke-width="1" fill="none" />
<path d="M177.38181818181818,953.2654545454546 L177.38181818181818,987.9418181818182" stroke="yellow" stroke-width="1" fill="none" />
<path d="M177.38181818181818,987.9418181818182 L272.7418181818182,987.9418181818182" stroke="yellow" stroke-width="1" fill="none" />
<path d="M272.7418181818182,987.9418181818182 L333.42545454545456,944.5963636363638" stroke="yellow" stroke-width="1" fill="none" />
<path d="M212.05818181818182,953.2654545454546 L272.7418181818182,987.9418181818182" stroke="lavender" stroke-width="1" fill="none" />
<path d="M489.46909090909094,814.5600000000001 L489.46909090909094,710.5309090909092" stroke="yellow" stroke-width="1" fill="none" />
<path d="M593.4981818181818,710.5309090909092 L593.4981818181818,814.5600000000001" stroke="yellow" stroke-width="1" fill="none" />
<path d="M307.41818181818184,1087.6363636363637 L342.0945454545455,1087.6363636363637" stroke="yellow" stroke-width="1" fill="none" />
<path d="M376.7709090909091,1022.6181818181819 L350.76363636363635,1022.6181818181819" stroke="yellow" stroke-width="1" fill="none" />
<path d="M350.76363636363635,987.9418181818182 L350.76363636363635,1022.6181818181819" stroke="lavender" stroke-width="1" fill="none" />
<path d="M272.7418181818182,987.9418181818182 L333.42545454545456,987.9418181818182" stroke="lavender" stroke-width="1" fill="none" />
<path d="M272.7418181818182,1022.6181818181819 L350.76363636363635,1022.6181818181819" stroke="yellow" stroke-width="1" fill="none" />
<path d="M272.7418181818182,987.9418181818182 L272.7418181818182,1022.6181818181819" stroke="yellow" stroke-width="1" fill="none" />
<path d="M142.70545454545453,918.589090909091 L177.38181818181818,918.589090909091" stroke="yellow" stroke-width="1" fill="none" />
<path d="M177.38181818181818,901.2509090909091 L142.70545454545453,901.2509090909091" stroke="yellow" stroke-width="1" fill="none" />
<path d="M142.70545454545453,883.9127272727274 L177.38181818181818,883.9127272727274" stroke="yellow" stroke-width="1" fill="none" />
<path d="M142.70545454545453,866.5745454545455 L177.38181818181818,866.5745454545455" stroke="yellow" stroke-width="1" fill="none" />
<path d="M142.70545454545453,849.2363636363636 L177.38181818181818,849.2363636363636" stroke="yellow" stroke-width="1" fill="none" />
<path d="M142.70545454545453,831.8981818181819 L177.38181818181818,831.8981818181819" stroke="yellow" stroke-width="1" fill="none" />
<path d="M142.70545454545453,814.5600000000001 L177.38181818181818,814.5600000000001" stroke="yellow" stroke-width="1" fill="none" />
<path d="M212.05818181818182,641.1781818181819 L212.05818181818182,745.2072727272728" stroke="yellow" stroke-width="1" fill="none" />
<path d="M108.02909090909088,745.2072727272728 L108.02909090909088,641.1781818181819" stroke="yellow" stroke-width="1" fill="none" />
<path d="M229.39636363636365,745.2072727272728 L229.39636363636365,641.1781818181819" stroke="yellow" stroke-width="1" fill="none" />
<path d="M90.69090909090909,641.1781818181819 L90.69090909090909,745.2072727272728" stroke="yellow" stroke-width="1" fill="none" />
<path d="M142.70545454545453,589.1636363636364 L142.70545454545453,554.4872727272727" stroke="lavender" stroke-width="1" fill="none" />
<path d="M134.0363636363636,554.4872727272727 L134.0363636363636,589.1636363636364" stroke="lavender" stroke-width="1" fill="none" />
<path d="M134.0363636363636,467.7963636363637 L134.0363636363636,502.4727272727273" stroke="lavender" stroke-width="1" fill="none" />
<path d="M142.70545454545453,537.149090909091 L177.38181818181818,537.149090909091" stroke="lavender" stroke-width="1" fill="none" />
<path d="M177.38181818181818,502.4727272727273 L142.70545454545453,502.4727272727273" stroke="lavender" stroke-width="1" fill="none" />
<path d="M142.70545454545453,606.5018181818182 L177.38181818181818,606.5018181818182" stroke="lavender" stroke-width="1" fill="none" />
<path d="M272.7418181818182,563.1563636363637 L324.75636363636363,511.14181818181817" stroke="yellow" stroke-width="1" fill="none" />
<path d="M489.46909090909094,1352.0436363636366 L593.4981818181818,1352.0436363636366" stroke="yellow" stroke-width="1" fill="none" />
<path d="M610.8363636363637,1369.3818181818183 L610.8363636363637,1404.058181818182" stroke="yellow" stroke-width="1" fill="none" />
<path d="M454.7927272727273,558.8218181818182 L489.46909090909094,571.8254545454546" stroke="yellow" stroke-width="1" fill="none" />
<path d="M437.4545454545455,537.149090909091 L454.7927272727273,558.8218181818182" stroke="yellow" stroke-width="1" fill="none" />
<path d="M437.4545454545455,515.4763636363637 L437.4545454545455,537.149090909091" stroke="yellow" stroke-width="1" fill="none" />
<path d="M420.11636363636364,493.80363636363643 L437.4545454545455,515.4763636363637" stroke="yellow" stroke-width="1" fill="none" />
<path d="M385.44,485.13454545454545 L420.11636363636364,493.80363636363643" stroke="yellow" stroke-width="1" fill="none" />
<path d="M593.4981818181818,571.8254545454546 L628.1745454545455,558.8218181818182" stroke="yellow" stroke-width="1" fill="none" />
<path d="M628.1745454545455,558.8218181818182 L645.5127272727273,537.149090909091" stroke="yellow" stroke-width="1" fill="none" />
<path d="M645.5127272727273,537.149090909091 L645.5127272727273,515.4763636363637" stroke="yellow" stroke-width="1" fill="none" />
<path d="M645.5127272727273,515.4763636363637 L662.8509090909091,493.80363636363643" stroke="yellow" stroke-width="1" fill="none" />
<path d="M662.8509090909091,493.80363636363643 L697.5272727272727,485.13454545454545" stroke="yellow" stroke-width="1" fill="none" />
<path d="M268.4072727272727,433.12 L268.4072727272727,450.45818181818186" stroke="yellow" stroke-width="1" fill="none" />
<path d="M268.4072727272727,450.45818181818186 L277.0763636363637,463.4618181818182" stroke="yellow" stroke-width="1" fill="none" />
<path d="M277.0763636363637,463.4618181818182 L294.4145454545454,476.4654545454546" stroke="yellow" stroke-width="1" fill="none" />
<path d="M294.4145454545454,476.4654545454546 L307.41818181818184,480.80000000000007" stroke="yellow" stroke-width="1" fill="none" />
<path d="M238.06545454545454,571.8254545454546 L238.06545454545454,558.8218181818182" stroke="yellow" stroke-width="1" fill="none" />
<path d="M238.06545454545454,558.8218181818182 L233.73090909090908,545.8181818181819" stroke="yellow" stroke-width="1" fill="none" />
<path d="M233.73090909090908,545.8181818181819 L225.06181818181818,532.8145454545455" stroke="yellow" stroke-width="1" fill="none" />
<path d="M225.06181818181818,532.8145454545455 L212.05818181818182,524.1454545454545" stroke="yellow" stroke-width="1" fill="none" />
<path d="M212.05818181818182,524.1454545454545 L194.71999999999997,519.8109090909091" stroke="yellow" stroke-width="1" fill="none" />
<path d="M194.71999999999997,467.7963636363637 L229.39636363636365,467.7963636363637" stroke="yellow" stroke-width="1" fill="none" />
<path d="M229.39636363636365,467.7963636363637 L229.39636363636365,433.12" stroke="yellow" stroke-width="1" fill="none" />
<path d="M246.73454545454547,883.9127272727274 L298.7490909090909,883.9127272727274" stroke="yellow" stroke-width="1" fill="none" />
<path d="M298.7490909090909,870.909090909091 L246.73454545454547,870.909090909091" stroke="yellow" stroke-width="1" fill="none" />
<path d="M281.41090909090906,1230.6763636363637 L142.70545454545453,1230.6763636363637" stroke="yellow" stroke-width="1" fill="none" />
<path d="M142.70545454545453,1243.68 L281.41090909090906,1243.68" stroke="yellow" stroke-width="1" fill="none" />
<path d="M368.1018181818182,710.5309090909092 L368.1018181818182,727.8690909090909" stroke="yellow" stroke-width="1" fill="none" />
<path d="M368.1018181818182,727.8690909090909 L385.44,727.8690909090909" stroke="yellow" stroke-width="1" fill="none" />
<path d="M385.44,727.8690909090909 L402.77818181818185,727.8690909090909" stroke="yellow" stroke-width="1" fill="none" />
<path d="M402.77818181818185,727.8690909090909 L402.77818181818185,710.5309090909092" stroke="yellow" stroke-width="1" fill="none" />
<path d="M402.77818181818185,710.5309090909092 L402.77818181818185,693.1927272727273" stroke="yellow" stroke-width="1" fill="none" />
<path d="M402.77818181818185,693.1927272727273 L385.44,693.1927272727273" stroke="yellow" stroke-width="1" fill="none" />
<path d="M385.44,727.8690909090909 L385.44,849.2363636363636" stroke="yellow" stroke-width="1" fill="none" />
<path d="M350.76363636363635,710.5309090909092 L368.1018181818182,710.5309090909092" stroke="yellow" stroke-width="1" fill="none" />
<path d="M350.76363636363635,675.8545454545455 L350.76363636363635,710.5309090909092" stroke="yellow" stroke-width="1" fill="none" />
<path d="M385.44,693.1927272727273 L385.44,675.8545454545455" stroke="yellow" stroke-width="1" fill="none" />
<path d="M368.1018181818182,710.5309090909092 L385.44,710.5309090909092" stroke="yellow" stroke-width="1" fill="none" />
<path d="M385.44,710.5309090909092 L385.44,693.1927272727273" stroke="yellow" stroke-width="1" fill="none" />
<path d="M350.76363636363635,675.8545454545455 L385.44,675.8545454545455" stroke="yellow" stroke-width="1" fill="none" />
<path d="M350.76363636363635,641.1781818181819 L350.76363636363635,675.8545454545455" stroke="yellow" stroke-width="1" fill="none" />
<path d="M368.1018181818182,641.1781818181819 L350.76363636363635,641.1781818181819" stroke="yellow" stroke-width="1" fill="none" />
<path d="M385.44,675.8545454545455 L385.44,658.5163636363637" stroke="yellow" stroke-width="1" fill="none" />
<path d="M368.1018181818182,658.5163636363637 L385.44,658.5163636363637" stroke="lavender" stroke-width="1" fill="none" />
<path d="M368.1018181818182,641.1781818181819 L368.1018181818182,658.5163636363637" stroke="lavender" stroke-width="1" fill="none" />
<path d="M385.44,658.5163636363637 L402.77818181818185,658.5163636363637" stroke="yellow" stroke-width="1" fill="none" />
<path d="M368.1018181818182,623.84 L368.1018181818182,641.1781818181819" stroke="yellow" stroke-width="1" fill="none" />
<path d="M402.77818181818185,623.84 L368.1018181818182,623.84" stroke="yellow" stroke-width="1" fill="none" />
<path d="M402.77818181818185,623.84 L402.77818181818185,658.5163636363637" stroke="yellow" stroke-width="1" fill="none" />
<path d="M402.77818181818185,658.5163636363637 L437.4545454545455,658.5163636363637" stroke="yellow" stroke-width="1" fill="none" />
<path d="M437.4545454545455,623.84 L402.77818181818185,623.84" stroke="yellow" stroke-width="1" fill="none" />
<path d="M437.4545454545455,658.5163636363637 L472.1309090909091,658.5163636363637" stroke="yellow" stroke-width="1" fill="none" />
<path d="M437.4545454545455,623.84 L437.4545454545455,658.5163636363637" stroke="yellow" stroke-width="1" fill="none" />
<path d="M472.1309090909091,606.5018181818182 L472.1309090909091,623.84" stroke="yellow" stroke-width="1" fill="none" />
<path d="M472.1309090909091,641.1781818181819 L506.80727272727273,641.1781818181819" stroke="yellow" stroke-width="1" fill="none" />
<path d="M506.80727272727273,606.5018181818182 L472.1309090909091,606.5018181818182" stroke="yellow" stroke-width="1" fill="none" />
<path d="M489.46909090909094,571.8254545454546 L558.8218181818182,571.8254545454546" stroke="yellow" stroke-width="1" fill="none" />
<path d="M558.8218181818182,571.8254545454546 L593.4981818181818,571.8254545454546" stroke="yellow" stroke-width="1" fill="none" />
<path d="M472.1309090909091,623.84 L472.1309090909091,641.1781818181819" stroke="yellow" stroke-width="1" fill="none" />
<path d="M472.1309090909091,623.84 L437.4545454545455,623.84" stroke="yellow" stroke-width="1" fill="none" />
<path d="M506.80727272727273,606.5018181818182 L506.80727272727273,641.1781818181819" stroke="yellow" stroke-width="1" fill="none" />
<path d="M472.1309090909091,658.5163636363637 L472.1309090909091,641.1781818181819" stroke="yellow" stroke-width="1" fill="none" />
<path d="M506.80727272727273,641.1781818181819 L541.4836363636364,641.1781818181819" stroke="yellow" stroke-width="1" fill="none" />
<path d="M541.4836363636364,606.5018181818182 L506.80727272727273,606.5018181818182" stroke="yellow" stroke-width="1" fill="none" />
<path d="M541.4836363636364,641.1781818181819 L576.1600000000001,641.1781818181819" stroke="yellow" stroke-width="1" fill="none" />
<path d="M558.8218181818182,606.5018181818182 L541.4836363636364,606.5018181818182" stroke="yellow" stroke-width="1" fill="none" />
<path d="M576.1600000000001,641.1781818181819 L576.1600000000001,623.84" stroke="yellow" stroke-width="1" fill="none" />
<path d="M558.8218181818182,606.5018181818182 L558.8218181818182,623.84" stroke="yellow" stroke-width="1" fill="none" />
<path d="M558.8218181818182,623.84 L576.1600000000001,623.84" stroke="yellow" stroke-width="1" fill="none" />
<path d="M576.1600000000001,623.84 L593.4981818181818,623.84" stroke="yellow" stroke-width="1" fill="none" />
<path d="M558.8218181818182,589.1636363636364 L558.8218181818182,606.5018181818182" stroke="yellow" stroke-width="1" fill="none" />
<path d="M593.4981818181818,623.84 L593.4981818181818,589.1636363636364" stroke="yellow" stroke-width="1" fill="none" />
<path d="M541.4836363636364,606.5018181818182 L541.4836363636364,641.1781818181819" stroke="yellow" stroke-width="1" fill="none" />
<path d="M558.8218181818182,571.8254545454546 L558.8218181818182,589.1636363636364" stroke="yellow" stroke-width="1" fill="none" />
<path d="M558.8218181818182,589.1636363636364 L593.4981818181818,589.1636363636364" stroke="yellow" stroke-width="1" fill="none" />
<path d="M593.4981818181818,589.1636363636364 L593.4981818181818,571.8254545454546" stroke="yellow" stroke-width="1" fill="none" />
<path d="M766.8800000000001,1213.338181818182 L732.2036363636364,1213.338181818182" stroke="yellow" stroke-width="1" fill="none" />
<path d="M766.8800000000001,1248.0145454545454 L732.2036363636364,1243.68" stroke="yellow" stroke-width="1" fill="none" />
<path d="M762.5454545454546,1287.0254545454547 L727.869090909091,1278.3563636363638" stroke="yellow" stroke-width="1" fill="none" />
<path d="M753.8763636363637,1321.7018181818182 L719.2,1304.3636363636365" stroke="yellow" stroke-width="1" fill="none" />
<path d="M736.5381818181818,1352.0436363636366 L706.1963636363637,1330.3709090909092" stroke="yellow" stroke-width="1" fill="none" />
<path d="M706.1963636363637,1382.3854545454546 L688.8581818181818,1352.0436363636366" stroke="yellow" stroke-width="1" fill="none" />
<path d="M667.1854545454546,1399.7236363636364 L662.8509090909091,1365.047272727273" stroke="lavender" stroke-width="1" fill="none" />
<path d="M623.84,1404.058181818182 L623.84,1369.3818181818183" stroke="yellow" stroke-width="1" fill="none" />
<path d="M766.8800000000001,1161.3236363636365 L732.2036363636364,1161.3236363636365" stroke="lavender" stroke-width="1" fill="none" />
<path d="M567.4909090909091,1022.6181818181819 L662.8509090909091,1022.6181818181819" stroke="yellow" stroke-width="1" fill="none" />
<path d="M593.4981818181818,987.9418181818182 L567.4909090909091,987.9418181818182" stroke="yellow" stroke-width="1" fill="none" />
<path d="M454.7927272727273,918.589090909091 L454.7927272727273,987.9418181818182" stroke="yellow" stroke-width="1" fill="none" />
<path d="M454.7927272727273,987.9418181818182 L420.11636363636364,987.9418181818182" stroke="yellow" stroke-width="1" fill="none" />
<path d="M662.8509090909091,987.9418181818182 L628.1745454545455,987.9418181818182" stroke="yellow" stroke-width="1" fill="none" />
<path d="M628.1745454545455,987.9418181818182 L628.1745454545455,918.589090909091" stroke="yellow" stroke-width="1" fill="none" />
<path d="M610.8363636363637,831.8981818181819 L610.8363636363637,727.8690909090909" stroke="yellow" stroke-width="1" fill="none" />
<path d="M610.8363636363637,727.8690909090909 L680.189090909091,727.8690909090909" stroke="yellow" stroke-width="1" fill="none" />
<path d="M680.189090909091,727.8690909090909 L680.189090909091,831.8981818181819" stroke="yellow" stroke-width="1" fill="none" />
<path d="M680.189090909091,831.8981818181819 L610.8363636363637,831.8981818181819" stroke="lavender" stroke-width="1" fill="none" />
<path d="M814.5600000000001,623.84 L784.2181818181818,645.5127272727273" stroke="yellow" stroke-width="1" fill="none" />
<path d="M784.2181818181818,645.5127272727273 L797.2218181818182,671.5200000000001" stroke="yellow" stroke-width="1" fill="none" />
<path d="M797.2218181818182,671.5200000000001 L831.8981818181819,654.1818181818182" stroke="yellow" stroke-width="1" fill="none" />
<path d="M740.8727272727274,706.1963636363637 L727.869090909091,680.189090909091" stroke="yellow" stroke-width="1" fill="none" />
<path d="M727.869090909091,680.189090909091 L680.189090909091,710.5309090909092" stroke="yellow" stroke-width="1" fill="none" />
<path d="M697.5272727272727,736.5381818181819 L740.8727272727274,706.1963636363637" stroke="yellow" stroke-width="1" fill="none" />
<path d="M909.9200000000001,662.8509090909091 L944.5963636363638,654.1818181818182" stroke="yellow" stroke-width="1" fill="none" />
<path d="M944.5963636363638,654.1818181818182 L953.2654545454545,623.84" stroke="yellow" stroke-width="1" fill="none" />
<path d="M953.2654545454545,623.84 L992.2763636363636,619.5054545454545" stroke="yellow" stroke-width="1" fill="none" />
<path d="M992.2763636363636,619.5054545454545 L992.2763636363636,576.1600000000001" stroke="yellow" stroke-width="1" fill="none" />
<path d="M1087.6363636363637,628.1745454545455 L1109.309090909091,641.1781818181819" stroke="yellow" stroke-width="1" fill="none" />
<path d="M1109.309090909091,641.1781818181819 L1113.6436363636365,667.1854545454546" stroke="yellow" stroke-width="1" fill="none" />
<path d="M1078.9672727272728,1100.64 L1009.6145454545456,1100.64" stroke="yellow" stroke-width="1" fill="none" />
<path d="M1078.9672727272728,1113.6436363636365 L1009.6145454545456,1126.6472727272728" stroke="yellow" stroke-width="1" fill="none" />
<path d="M1078.9672727272728,1126.6472727272728 L1022.6181818181819,1139.6509090909092" stroke="yellow" stroke-width="1" fill="none" />
<path d="M1083.3018181818184,1139.6509090909092 L1031.2872727272727,1152.6545454545455" stroke="yellow" stroke-width="1" fill="none" />
<path d="M1100.64,1152.6545454545455 L1048.6254545454547,1165.658181818182" stroke="yellow" stroke-width="1" fill="none" />
<path d="M1109.309090909091,1174.3272727272729 L1044.290909090909,1178.6618181818183" stroke="yellow" stroke-width="1" fill="none" />
<path d="M1109.309090909091,1200.3345454545456 L1022.6181818181819,1200.3345454545456" stroke="yellow" stroke-width="1" fill="none" />
<path d="M1100.64,1226.3418181818183 L1009.6145454545456,1217.6727272727273" stroke="yellow" stroke-width="1" fill="none" />
<path d="M1074.6327272727274,1256.6836363636364 L983.6072727272729,1239.3454545454547" stroke="yellow" stroke-width="1" fill="none" />
<path d="M870.909090909091,1265.3527272727274 L870.909090909091,1300.029090909091" stroke="lavender" stroke-width="1" fill="none" />
<path d="M870.909090909091,1300.029090909091 L905.5854545454546,1300.029090909091" stroke="lavender" stroke-width="1" fill="none" />
<path d="M905.5854545454546,1300.029090909091 L905.5854545454546,1265.3527272727274" stroke="lavender" stroke-width="1" fill="none" />
<path d="M905.5854545454546,1265.3527272727274 L870.909090909091,1265.3527272727274" stroke="lavender" stroke-width="1" fill="none" />
<path d="M979.2727272727273,840.5672727272728 L970.6036363636365,866.5745454545455" stroke="yellow" stroke-width="1" fill="none" />
<path d="M1000.9454545454546,818.8945454545456 L979.2727272727273,840.5672727272728" stroke="yellow" stroke-width="1" fill="none" />
<path d="M974.9381818181819,827.5636363636364 L996.6109090909092,810.2254545454546" stroke="yellow" stroke-width="1" fill="none" />
<path d="M961.9345454545455,857.9054545454546 L974.9381818181819,827.5636363636364" stroke="yellow" stroke-width="1" fill="none" />
<path d="M1122.3127272727274,940.2618181818182 L1096.3054545454547,931.5927272727274" stroke="yellow" stroke-width="1" fill="none" />
<path d="M1165.658181818182,935.9272727272728 L1122.3127272727274,940.2618181818182" stroke="yellow" stroke-width="1" fill="none" />
<path d="M1122.3127272727274,922.9236363636364 L1156.989090909091,918.589090909091" stroke="yellow" stroke-width="1" fill="none" />
<path d="M1083.3018181818184,909.9200000000001 L1122.3127272727274,922.9236363636364" stroke="yellow" stroke-width="1" fill="none" />
<path d="M957.6000000000001,1000.9454545454546 L914.2545454545455,1013.949090909091" stroke="yellow" stroke-width="1" fill="none" />
<path d="M1005.28,1013.949090909091 L957.6000000000001,1000.9454545454546" stroke="yellow" stroke-width="1" fill="none" />
<path d="M1039.9563636363637,1009.6145454545456 L1005.28,1013.949090909091" stroke="yellow" stroke-width="1" fill="none" />
<path d="M1009.6145454545456,996.6109090909092 L1031.2872727272727,992.2763636363637" stroke="yellow" stroke-width="1" fill="none" />
<path d="M953.2654545454545,983.6072727272729 L1009.6145454545456,996.6109090909092" stroke="yellow" stroke-width="1" fill="none" />
<path d="M905.5854545454546,1000.9454545454546 L953.2654545454545,983.6072727272729" stroke="yellow" stroke-width="1" fill="none" />
<path d="M1169.9927272727273,771.2145454545455 L1139.6509090909092,766.8800000000001" stroke="yellow" stroke-width="1" fill="none" />
<path d="M1139.6509090909092,766.8800000000001 L1100.64,784.2181818181818" stroke="yellow" stroke-width="1" fill="none" />
<path d="M1100.64,784.2181818181818 L1070.298181818182,784.2181818181818" stroke="yellow" stroke-width="1" fill="none" />
<path d="M1078.9672727272728,766.8800000000001 L1096.3054545454547,766.8800000000001" stroke="yellow" stroke-width="1" fill="none" />
<path d="M1096.3054545454547,766.8800000000001 L1139.6509090909092,749.5418181818183" stroke="yellow" stroke-width="1" fill="none" />
<path d="M1139.6509090909092,749.5418181818183 L1169.9927272727273,749.5418181818183" stroke="yellow" stroke-width="1" fill="none" />
<path d="M1022.6181818181819,684.5236363636365 L987.9418181818182,697.5272727272728" stroke="yellow" stroke-width="1" fill="none" />
<path d="M987.9418181818182,697.5272727272728 L966.2690909090909,723.5345454545455" stroke="yellow" stroke-width="1" fill="none" />
<path d="M1078.9672727272728,619.5054545454545 L1061.629090909091,649.8472727272728" stroke="yellow" stroke-width="1" fill="none" />
<path d="M1061.629090909091,649.8472727272728 L1026.9527272727273,675.8545454545455" stroke="yellow" stroke-width="1" fill="none" />
<path d="M1039.9563636363637,636.8436363636364 L1065.9636363636364,602.1672727272728" stroke="yellow" stroke-width="1" fill="none" />
<path d="M966.2690909090909,693.1927272727273 L1039.9563636363637,636.8436363636364" stroke="yellow" stroke-width="1" fill="none" />
<path d="M927.2581818181818,701.8618181818182 L966.2690909090909,693.1927272727273" stroke="yellow" stroke-width="1" fill="none" />
<path d="M420.11636363636364,398.4436363636364 L454.7927272727273,363.7672727272727" stroke="yellow" stroke-width="1" fill="none" />
<path d="M454.7927272727273,363.7672727272727 L489.46909090909094,398.4436363636364" stroke="yellow" stroke-width="1" fill="none" />
<path d="M489.46909090909094,398.4436363636364 L524.1454545454545,363.7672727272727" stroke="yellow" stroke-width="1" fill="none" />
<path d="M524.1454545454545,363.7672727272727 L558.8218181818182,398.4436363636364" stroke="yellow" stroke-width="1" fill="none" />
<path d="M558.8218181818182,398.4436363636364 L593.4981818181818,363.7672727272727" stroke="yellow" stroke-width="1" fill="none" />
<path d="M593.4981818181818,363.7672727272727 L628.1745454545455,398.4436363636364" stroke="yellow" stroke-width="1" fill="none" />
<path d="M489.46909090909094,329.090909090909 L558.8218181818182,329.090909090909" stroke="yellow" stroke-width="1" fill="none" />
<path d="M558.8218181818182,316.08727272727265 L489.46909090909094,316.08727272727265" stroke="lavender" stroke-width="1" fill="none" />
<path d="M420.11636363636364,225.06181818181813 L454.7927272727273,225.06181818181813" stroke="yellow" stroke-width="1" fill="none" />
<path d="M454.7927272727273,225.06181818181813 L476.4654545454546,181.71636363636367" stroke="yellow" stroke-width="1" fill="none" />
<path d="M476.4654545454546,181.71636363636367 L454.7927272727273,155.70909090909095" stroke="yellow" stroke-width="1" fill="none" />
<path d="M593.4981818181818,155.70909090909095 L571.8254545454546,181.71636363636367" stroke="yellow" stroke-width="1" fill="none" />
<path d="M571.8254545454546,181.71636363636367 L593.4981818181818,225.06181818181813" stroke="yellow" stroke-width="1" fill="none" />
<path d="M593.4981818181818,225.06181818181813 L628.1745454545455,225.06181818181813" stroke="yellow" stroke-width="1" fill="none" />
<path d="M558.8218181818182,51.680000000000064 L550.1527272727274,69.0181818181818" stroke="yellow" stroke-width="1" fill="none" />
<path d="M550.1527272727274,69.0181818181818 L571.8254545454546,95.02545454545452" stroke="yellow" stroke-width="1" fill="none" />
<path d="M571.8254545454546,95.02545454545452 L593.4981818181818,86.35636363636354" stroke="yellow" stroke-width="1" fill="none" />
<path d="M454.7927272727273,86.35636363636354 L476.4654545454546,95.02545454545452" stroke="yellow" stroke-width="1" fill="none" />
<path d="M476.4654545454546,95.02545454545452 L498.13818181818186,69.0181818181818" stroke="yellow" stroke-width="1" fill="none" />
<path d="M498.13818181818186,69.0181818181818 L489.46909090909094,51.680000000000064" stroke="yellow" stroke-width="1" fill="none" />
<path d="M593.4981818181818,316.08727272727265 L558.8218181818182,294.41454545454553" stroke="yellow" stroke-width="1" fill="none" />
<path d="M558.8218181818182,294.41454545454553 L489.46909090909094,294.41454545454553" stroke="yellow" stroke-width="1" fill="none" />
<path d="M489.46909090909094,294.41454545454553 L454.7927272727273,316.08727272727265" stroke="yellow" stroke-width="1" fill="none" />
<path d="M506.80727272727273,17.00363636363636 L541.4836363636364,17.00363636363636" stroke="yellow" stroke-width="1" fill="none" />
<path d="M437.4545454545455,515.4763636363637 L645.5127272727273,515.4763636363637" stroke="lavender" stroke-width="1" fill="none" />
<path d="M385.44,472.1309090909091 L385.44,398.4436363636364" stroke="yellow" stroke-width="1" fill="none" />
<path d="M372.43636363636364,398.4436363636364 L372.43636363636364,472.1309090909091" stroke="lavender" stroke-width="1" fill="none" />
<path d="M489.46909090909094,43.01090909090908 L489.46909090909094,25.672727272727343" stroke="yellow" stroke-width="1" fill="none" />
<path d="M558.8218181818182,25.672727272727343 L558.8218181818182,43.01090909090908" stroke="yellow" stroke-width="1" fill="none" />
<path d="M385.44,849.2363636363636 L454.7927272727273,918.589090909091" stroke="yellow" stroke-width="1" fill="none" />
<path d="M628.1745454545455,918.589090909091 L697.5272727272727,849.2363636363636" stroke="yellow" stroke-width="1" fill="none" />
<path d="M281.41090909090906,1243.68 L281.41090909090906,1282.6909090909091" stroke="lavender" stroke-width="1" fill="none" />
<path d="M290.08000000000004,1282.6909090909091 L290.08000000000004,1243.68" stroke="yellow" stroke-width="1" fill="none" />
<path d="M680.189090909091,710.5309090909092 L680.189090909091,719.2" stroke="yellow" stroke-width="1" fill="none" />
<path d="M680.189090909091,719.2 L610.8363636363637,719.2" stroke="yellow" stroke-width="1" fill="none" />
<path d="M610.8363636363637,719.2 L610.8363636363637,710.5309090909092" stroke="yellow" stroke-width="1" fill="none" />
<path d="M610.8363636363637,710.5309090909092 L593.4981818181818,710.5309090909092" stroke="yellow" stroke-width="1" fill="none" />
<path d="M680.189090909091,710.5309090909092 L610.8363636363637,710.5309090909092" stroke="yellow" stroke-width="1" fill="none" />
<path d="M489.46909090909094,710.5309090909092 L472.1309090909091,710.5309090909092" stroke="yellow" stroke-width="1" fill="none" />
<path d="M472.1309090909091,710.5309090909092 L472.1309090909091,727.8690909090909" stroke="yellow" stroke-width="1" fill="none" />
<path d="M472.1309090909091,727.8690909090909 L420.11636363636364,727.8690909090909" stroke="yellow" stroke-width="1" fill="none" />
<path d="M420.11636363636364,727.8690909090909 L420.11636363636364,710.5309090909092" stroke="yellow" stroke-width="1" fill="none" />
<path d="M420.11636363636364,710.5309090909092 L402.77818181818185,710.5309090909092" stroke="yellow" stroke-width="1" fill="none" />
<path d="M472.1309090909091,710.5309090909092 L420.11636363636364,710.5309090909092" stroke="yellow" stroke-width="1" fill="none" />
<path d="M264.07272727272726,814.5600000000001 L229.39636363636365,814.5600000000001" stroke="yellow" stroke-width="1" fill="none" />
<path d="M229.39636363636365,814.5600000000001 L229.39636363636365,779.8836363636365" stroke="yellow" stroke-width="1" fill="none" />
<path d="M216.39272727272726,788.5527272727273 L216.39272727272726,827.5636363636364" stroke="lavender" stroke-width="1" fill="none" />
<path d="M216.39272727272726,827.5636363636364 L225.06181818181818,827.5636363636364" stroke="lavender" stroke-width="1" fill="none" />
<path d="M225.06181818181818,849.2363636363636 L225.06181818181818,866.5745454545455" stroke="yellow" stroke-width="1" fill="none" />
<path d="M489.46909090909094,1334.7054545454546 L454.7927272727273,1300.029090909091" stroke="red" stroke-width="1" fill="none" />
<path d="M628.1745454545455,1300.029090909091 L593.4981818181818,1334.7054545454546" stroke="red" stroke-width="1" fill="none" />
<path d="M628.1745454545455,1265.3527272727274 L645.5127272727273,1265.3527272727274" stroke="red" stroke-width="1" fill="none" />
<path d="M645.5127272727273,1265.3527272727274 L645.5127272727273,1282.6909090909091" stroke="red" stroke-width="1" fill="none" />
<path d="M645.5127272727273,1282.6909090909091 L628.1745454545455,1282.6909090909091" stroke="red" stroke-width="1" fill="none" />
<path d="M628.1745454545455,1282.6909090909091 L628.1745454545455,1300.029090909091" stroke="red" stroke-width="1" fill="none" />
<path d="M454.7927272727273,1300.029090909091 L454.7927272727273,1282.6909090909091" stroke="red" stroke-width="1" fill="none" />
<path d="M454.7927272727273,1282.6909090909091 L437.4545454545455,1282.6909090909091" stroke="red" stroke-width="1" fill="none" />
<path d="M437.4545454545455,1282.6909090909091 L437.4545454545455,1265.3527272727274" stroke="red" stroke-width="1" fill="none" />
<path d="M437.4545454545455,1265.3527272727274 L454.7927272727273,1265.3527272727274" stroke="red" stroke-width="1" fill="none" />
<path d="M454.7927272727273,1265.3527272727274 L454.7927272727273,1230.6763636363637" stroke="red" stroke-width="1" fill="none" />
<path d="M628.1745454545455,1230.6763636363637 L628.1745454545455,1265.3527272727274" stroke="red" stroke-width="1" fill="none" />
<path d="M454.7927272727273,1230.6763636363637 L420.11636363636364,1230.6763636363637" stroke="red" stroke-width="1" fill="none" />
<path d="M420.11636363636364,1230.6763636363637 L385.44,1213.338181818182" stroke="red" stroke-width="1" fill="none" />
<path d="M385.44,1213.338181818182 L368.1018181818182,1161.3236363636365" stroke="red" stroke-width="1" fill="none" />
<path d="M697.5272727272727,1213.338181818182 L662.8509090909091,1230.6763636363637" stroke="red" stroke-width="1" fill="none" />
<path d="M714.8654545454547,1161.3236363636365 L697.5272727272727,1213.338181818182" stroke="red" stroke-width="1" fill="none" />
<path d="M662.8509090909091,1230.6763636363637 L628.1745454545455,1230.6763636363637" stroke="red" stroke-width="1" fill="none" />
<path d="M524.1454545454545,987.9418181818182 L524.1454545454545,1022.6181818181819" stroke="lavender" stroke-width="1" fill="none" />
<path d="M524.1454545454545,1022.6181818181819 L558.8218181818182,1022.6181818181819" stroke="red" stroke-width="1" fill="none" />
<path d="M558.8218181818182,1022.6181818181819 L558.8218181818182,987.9418181818182" stroke="lavender" stroke-width="1" fill="none" />
<path d="M558.8218181818182,987.9418181818182 L524.1454545454545,987.9418181818182" stroke="red" stroke-width="1" fill="none" />
<path d="M749.5418181818181,909.9200000000001 L740.8727272727274,901.2509090909091" stroke="red" stroke-width="1" fill="none" />
<path d="M740.8727272727274,901.2509090909091 L723.5345454545454,901.2509090909091" stroke="red" stroke-width="1" fill="none" />
<path d="M723.5345454545454,901.2509090909091 L714.8654545454547,909.9200000000001" stroke="red" stroke-width="1" fill="none" />
<path d="M714.8654545454547,909.9200000000001 L714.8654545454547,927.2581818181818" stroke="red" stroke-width="1" fill="none" />
<path d="M714.8654545454547,927.2581818181818 L723.5345454545454,935.9272727272728" stroke="red" stroke-width="1" fill="none" />
<path d="M723.5345454545454,935.9272727272728 L740.8727272727274,935.9272727272728" stroke="red" stroke-width="1" fill="none" />
<path d="M740.8727272727274,935.9272727272728 L749.5418181818181,927.2581818181818" stroke="red" stroke-width="1" fill="none" />
<path d="M749.5418181818181,927.2581818181818 L749.5418181818181,909.9200000000001" stroke="red" stroke-width="1" fill="none" />
<path d="M385.44,987.9418181818182 L385.44,927.2581818181818" stroke="red" stroke-width="1" fill="none" />
<path d="M385.44,1057.2945454545456 L385.44,1022.6181818181819" stroke="red" stroke-width="1" fill="none" />
<path d="M350.76363636363635,1091.9709090909091 L385.44,1057.2945454545456" stroke="red" stroke-width="1" fill="none" />
<path d="M385.44,1022.6181818181819 L376.7709090909091,1022.6181818181819" stroke="red" stroke-width="1" fill="none" />
<path d="M376.7709090909091,1022.6181818181819 L376.7709090909091,1052.96" stroke="red" stroke-width="1" fill="none" />
<path d="M376.7709090909091,1052.96 L342.0945454545455,1087.6363636363637" stroke="red" stroke-width="1" fill="none" />
<path d="M350.76363636363635,987.9418181818182 L385.44,987.9418181818182" stroke="red" stroke-width="1" fill="none" />
<path d="M368.1018181818182,1161.3236363636365 L350.76363636363635,1161.3236363636365" stroke="red" stroke-width="1" fill="none" />
<path d="M350.76363636363635,1161.3236363636365 L350.76363636363635,1091.9709090909091" stroke="red" stroke-width="1" fill="none" />
<path d="M342.0945454545455,1087.6363636363637 L342.0945454545455,1196.0" stroke="red" stroke-width="1" fill="none" />
<path d="M342.0945454545455,1196.0 L307.41818181818184,1230.6763636363637" stroke="red" stroke-width="1" fill="none" />
<path d="M108.02909090909088,1230.6763636363637 L38.67636363636365,1161.3236363636365" stroke="red" stroke-width="1" fill="none" />
<path d="M38.67636363636365,1161.3236363636365 L38.67636363636365,987.9418181818182" stroke="red" stroke-width="1" fill="none" />
<path d="M38.67636363636365,987.9418181818182 L73.35272727272724,953.2654545454546" stroke="red" stroke-width="1" fill="none" />
<path d="M142.70545454545453,953.2654545454546 L142.70545454545453,918.589090909091" stroke="red" stroke-width="1" fill="none" />
<path d="M177.38181818181818,918.589090909091 L177.38181818181818,953.2654545454546" stroke="red" stroke-width="1" fill="none" />
<path d="M177.38181818181818,953.2654545454546 L212.05818181818182,953.2654545454546" stroke="red" stroke-width="1" fill="none" />
<path d="M212.05818181818182,953.2654545454546 L212.05818181818182,918.589090909091" stroke="red" stroke-width="1" fill="none" />
<path d="M212.05818181818182,918.589090909091 L246.73454545454547,883.9127272727274" stroke="red" stroke-width="1" fill="none" />
<path d="M298.7490909090909,883.9127272727274 L333.42545454545456,918.589090909091" stroke="red" stroke-width="1" fill="none" />
<path d="M333.42545454545456,987.9418181818182 L350.76363636363635,987.9418181818182" stroke="red" stroke-width="1" fill="none" />
<path d="M333.42545454545456,918.589090909091 L333.42545454545456,944.5963636363638" stroke="red" stroke-width="1" fill="none" />
<path d="M333.42545454545456,944.5963636363638 L333.42545454545456,987.9418181818182" stroke="red" stroke-width="1" fill="none" />
<path d="M368.1018181818182,909.9200000000001 L350.76363636363635,909.9200000000001" stroke="red" stroke-width="1" fill="none" />
<path d="M350.76363636363635,909.9200000000001 L311.75272727272727,870.909090909091" stroke="red" stroke-width="1" fill="none" />
<path d="M73.35272727272724,953.2654545454546 L129.70181818181817,953.2654545454546" stroke="red" stroke-width="1" fill="none" />
<path d="M129.70181818181817,953.2654545454546 L142.70545454545453,953.2654545454546" stroke="red" stroke-width="1" fill="none" />
<path d="M177.38181818181818,901.2509090909091 L177.38181818181818,918.589090909091" stroke="red" stroke-width="1" fill="none" />
<path d="M142.70545454545453,918.589090909091 L142.70545454545453,901.2509090909091" stroke="red" stroke-width="1" fill="none" />
<path d="M142.70545454545453,901.2509090909091 L142.70545454545453,883.9127272727274" stroke="red" stroke-width="1" fill="none" />
<path d="M142.70545454545453,883.9127272727274 L142.70545454545453,866.5745454545455" stroke="red" stroke-width="1" fill="none" />
<path d="M142.70545454545453,866.5745454545455 L142.70545454545453,849.2363636363636" stroke="red" stroke-width="1" fill="none" />
<path d="M177.38181818181818,849.2363636363636 L177.38181818181818,866.5745454545455" stroke="red" stroke-width="1" fill="none" />
<path d="M177.38181818181818,866.5745454545455 L177.38181818181818,883.9127272727274" stroke="red" stroke-width="1" fill="none" />
<path d="M177.38181818181818,883.9127272727274 L177.38181818181818,901.2509090909091" stroke="red" stroke-width="1" fill="none" />
<path d="M142.70545454545453,849.2363636363636 L142.70545454545453,831.8981818181819" stroke="red" stroke-width="1" fill="none" />
<path d="M142.70545454545453,831.8981818181819 L142.70545454545453,814.5600000000001" stroke="red" stroke-width="1" fill="none" />
<path d="M177.38181818181818,814.5600000000001 L177.38181818181818,831.8981818181819" stroke="red" stroke-width="1" fill="none" />
<path d="M177.38181818181818,831.8981818181819 L177.38181818181818,849.2363636363636" stroke="red" stroke-width="1" fill="none" />
<path d="M212.05818181818182,779.8836363636365 L177.38181818181818,814.5600000000001" stroke="red" stroke-width="1" fill="none" />
<path d="M212.05818181818182,745.2072727272728 L212.05818181818182,779.8836363636365" stroke="red" stroke-width="1" fill="none" />
<path d="M142.70545454545453,814.5600000000001 L108.02909090909088,779.8836363636365" stroke="red" stroke-width="1" fill="none" />
<path d="M108.02909090909088,779.8836363636365 L108.02909090909088,745.2072727272728" stroke="red" stroke-width="1" fill="none" />
<path d="M212.05818181818182,606.5018181818182 L212.05818181818182,641.1781818181819" stroke="red" stroke-width="1" fill="none" />
<path d="M108.02909090909088,641.1781818181819 L108.02909090909088,606.5018181818182" stroke="red" stroke-width="1" fill="none" />
<path d="M229.39636363636365,641.1781818181819 L229.39636363636365,606.5018181818182" stroke="red" stroke-width="1" fill="none" />
<path d="M212.05818181818182,641.1781818181819 L229.39636363636365,641.1781818181819" stroke="red" stroke-width="1" fill="none" />
<path d="M229.39636363636365,745.2072727272728 L212.05818181818182,745.2072727272728" stroke="red" stroke-width="1" fill="none" />
<path d="M108.02909090909088,745.2072727272728 L90.69090909090909,745.2072727272728" stroke="red" stroke-width="1" fill="none" />
<path d="M90.69090909090909,641.1781818181819 L108.02909090909088,641.1781818181819" stroke="red" stroke-width="1" fill="none" />
<path d="M90.69090909090909,745.2072727272728 L56.01454545454544,779.8836363636365" stroke="red" stroke-width="1" fill="none" />
<path d="M56.01454545454544,779.8836363636365 L38.67636363636365,779.8836363636365" stroke="red" stroke-width="1" fill="none" />
<path d="M38.67636363636365,606.5018181818182 L56.01454545454544,606.5018181818182" stroke="red" stroke-width="1" fill="none" />
<path d="M56.01454545454544,606.5018181818182 L90.69090909090909,641.1781818181819" stroke="red" stroke-width="1" fill="none" />
<path d="M38.67636363636365,779.8836363636365 L4.0,745.2072727272728" stroke="red" stroke-width="1" fill="none" />
<path d="M4.0,745.2072727272728 L4.0,641.1781818181819" stroke="red" stroke-width="1" fill="none" />
<path d="M4.0,641.1781818181819 L38.67636363636365,606.5018181818182" stroke="red" stroke-width="1" fill="none" />
<path d="M108.02909090909088,606.5018181818182 L142.70545454545453,606.5018181818182" stroke="red" stroke-width="1" fill="none" />
<path d="M177.38181818181818,606.5018181818182 L212.05818181818182,606.5018181818182" stroke="red" stroke-width="1" fill="none" />
<path d="M142.70545454545453,554.4872727272727 L142.70545454545453,537.149090909091" stroke="red" stroke-width="1" fill="none" />
<path d="M142.70545454545453,537.149090909091 L142.70545454545453,502.4727272727273" stroke="red" stroke-width="1" fill="none" />
<path d="M177.38181818181818,502.4727272727273 L177.38181818181818,537.149090909091" stroke="red" stroke-width="1" fill="none" />
<path d="M177.38181818181818,467.7963636363637 L177.38181818181818,502.4727272727273" stroke="red" stroke-width="1" fill="none" />
<path d="M142.70545454545453,502.4727272727273 L134.0363636363636,502.4727272727273" stroke="red" stroke-width="1" fill="none" />
<path d="M134.0363636363636,554.4872727272727 L142.70545454545453,554.4872727272727" stroke="red" stroke-width="1" fill="none" />
<path d="M142.70545454545453,589.1636363636364 L134.0363636363636,589.1636363636364" stroke="red" stroke-width="1" fill="none" />
<path d="M134.0363636363636,589.1636363636364 L90.69090909090909,589.1636363636364" stroke="red" stroke-width="1" fill="none" />
<path d="M90.69090909090909,589.1636363636364 L90.69090909090909,467.7963636363637" stroke="red" stroke-width="1" fill="none" />
<path d="M90.69090909090909,467.7963636363637 L134.0363636363636,467.7963636363637" stroke="red" stroke-width="1" fill="none" />
<path d="M134.0363636363636,502.4727272727273 L134.0363636363636,554.4872727272727" stroke="red" stroke-width="1" fill="none" />
<path d="M177.38181818181818,537.149090909091 L177.38181818181818,593.4981818181818" stroke="red" stroke-width="1" fill="none" />
<path d="M177.38181818181818,593.4981818181818 L177.38181818181818,606.5018181818182" stroke="red" stroke-width="1" fill="none" />
<path d="M142.70545454545453,606.5018181818182 L142.70545454545453,593.4981818181818" stroke="red" stroke-width="1" fill="none" />
<path d="M142.70545454545453,593.4981818181818 L142.70545454545453,589.1636363636364" stroke="red" stroke-width="1" fill="none" />
<path d="M134.0363636363636,467.7963636363637 L142.70545454545453,467.7963636363637" stroke="red" stroke-width="1" fill="none" />
<path d="M142.70545454545453,467.7963636363637 L177.38181818181818,467.7963636363637" stroke="red" stroke-width="1" fill="none" />
<path d="M229.39636363636365,606.5018181818182 L272.7418181818182,563.1563636363637" stroke="red" stroke-width="1" fill="none" />
<path d="M272.7418181818182,563.1563636363637 L259.73818181818183,550.1527272727274" stroke="red" stroke-width="1" fill="none" />
<path d="M307.41818181818184,498.1381818181818 L324.75636363636363,511.14181818181817" stroke="red" stroke-width="1" fill="none" />
<path d="M324.75636363636363,511.14181818181817 L350.76363636363635,511.14181818181817" stroke="red" stroke-width="1" fill="none" />
<path d="M259.73818181818183,550.1527272727274 L238.06545454545454,571.8254545454546" stroke="red" stroke-width="1" fill="none" />
<path d="M238.06545454545454,571.8254545454546 L194.71999999999997,571.8254545454546" stroke="red" stroke-width="1" fill="none" />
<path d="M489.46909090909094,1352.0436363636366 L489.46909090909094,1334.7054545454546" stroke="red" stroke-width="1" fill="none" />
<path d="M593.4981818181818,1334.7054545454546 L593.4981818181818,1352.0436363636366" stroke="red" stroke-width="1" fill="none" />
<path d="M593.4981818181818,1352.0436363636366 L610.8363636363637,1369.3818181818183" stroke="red" stroke-width="1" fill="none" />
<path d="M472.1309090909091,1369.3818181818183 L489.46909090909094,1352.0436363636366" stroke="red" stroke-width="1" fill="none" />
<path d="M472.1309090909091,1404.058181818182 L472.1309090909091,1369.3818181818183" stroke="red" stroke-width="1" fill="none" />
<path d="M489.46909090909094,1421.3963636363637 L472.1309090909091,1404.058181818182" stroke="red" stroke-width="1" fill="none" />
<path d="M610.8363636363637,1404.058181818182 L593.4981818181818,1421.3963636363637" stroke="red" stroke-width="1" fill="none" />
<path d="M593.4981818181818,1421.3963636363637 L489.46909090909094,1421.3963636363637" stroke="red" stroke-width="1" fill="none" />
<path d="M350.76363636363635,511.14181818181817 L368.1018181818182,485.13454545454545" stroke="red" stroke-width="1" fill="none" />
<path d="M368.1018181818182,485.13454545454545 L385.44,485.13454545454545" stroke="red" stroke-width="1" fill="none" />
<path d="M385.44,485.13454545454545 L385.44,472.1309090909091" stroke="red" stroke-width="1" fill="none" />
<path d="M194.71999999999997,571.8254545454546 L194.71999999999997,519.8109090909091" stroke="red" stroke-width="1" fill="none" />
<path d="M268.4072727272727,433.12 L307.41818181818184,433.12" stroke="red" stroke-width="1" fill="none" />
<path d="M307.41818181818184,433.12 L307.41818181818184,480.80000000000007" stroke="red" stroke-width="1" fill="none" />
<path d="M307.41818181818184,480.80000000000007 L307.41818181818184,498.1381818181818" stroke="red" stroke-width="1" fill="none" />
<path d="M697.5272727272727,485.13454545454545 L753.8763636363637,489.46909090909094" stroke="red" stroke-width="1" fill="none" />
<path d="M194.71999999999997,519.8109090909091 L194.71999999999997,467.7963636363637" stroke="red" stroke-width="1" fill="none" />
<path d="M194.71999999999997,467.7963636363637 L194.71999999999997,433.12" stroke="red" stroke-width="1" fill="none" />
<path d="M194.71999999999997,433.12 L229.39636363636365,433.12" stroke="red" stroke-width="1" fill="none" />
<path d="M229.39636363636365,433.12 L268.4072727272727,433.12" stroke="red" stroke-width="1" fill="none" />
<path d="M697.5272727272727,472.1309090909091 L697.5272727272727,485.13454545454545" stroke="red" stroke-width="1" fill="none" />
<path d="M246.73454545454547,883.9127272727274 L246.73454545454547,870.909090909091" stroke="red" stroke-width="1" fill="none" />
<path d="M246.73454545454547,870.909090909091 L246.73454545454547,831.8981818181819" stroke="red" stroke-width="1" fill="none" />
<path d="M246.73454545454547,831.8981818181819 L298.7490909090909,831.8981818181819" stroke="red" stroke-width="1" fill="none" />
<path d="M298.7490909090909,831.8981818181819 L298.7490909090909,870.909090909091" stroke="red" stroke-width="1" fill="none" />
<path d="M298.7490909090909,870.909090909091 L298.7490909090909,883.9127272727274" stroke="red" stroke-width="1" fill="none" />
<path d="M311.75272727272727,870.909090909091 L311.75272727272727,814.5600000000001" stroke="red" stroke-width="1" fill="none" />
<path d="M307.41818181818184,1230.6763636363637 L281.41090909090906,1230.6763636363637" stroke="red" stroke-width="1" fill="none" />
<path d="M142.70545454545453,1230.6763636363637 L108.02909090909088,1230.6763636363637" stroke="red" stroke-width="1" fill="none" />
<path d="M281.41090909090906,1282.6909090909091 L142.70545454545453,1282.6909090909091" stroke="red" stroke-width="1" fill="none" />
<path d="M142.70545454545453,1282.6909090909091 L142.70545454545453,1243.68" stroke="red" stroke-width="1" fill="none" />
<path d="M142.70545454545453,1243.68 L142.70545454545453,1230.6763636363637" stroke="red" stroke-width="1" fill="none" />
<path d="M281.41090909090906,1230.6763636363637 L281.41090909090906,1243.68" stroke="red" stroke-width="1" fill="none" />
<path d="M732.2036363636364,1161.3236363636365 L714.8654545454547,1161.3236363636365" stroke="red" stroke-width="1" fill="none" />
<path d="M732.2036363636364,1174.3272727272729 L732.2036363636364,1161.3236363636365" stroke="red" stroke-width="1" fill="none" />
<path d="M766.8800000000001,1161.3236363636365 L766.8800000000001,1174.3272727272729" stroke="red" stroke-width="1" fill="none" />
<path d="M766.8800000000001,1174.3272727272729 L766.8800000000001,1213.338181818182" stroke="red" stroke-width="1" fill="none" />
<path d="M766.8800000000001,1213.338181818182 L766.8800000000001,1248.0145454545454" stroke="red" stroke-width="1" fill="none" />
<path d="M766.8800000000001,1248.0145454545454 L762.5454545454546,1287.0254545454547" stroke="red" stroke-width="1" fill="none" />
<path d="M762.5454545454546,1287.0254545454547 L753.8763636363637,1321.7018181818182" stroke="red" stroke-width="1" fill="none" />
<path d="M753.8763636363637,1321.7018181818182 L736.5381818181818,1352.0436363636366" stroke="red" stroke-width="1" fill="none" />
<path d="M736.5381818181818,1352.0436363636366 L706.1963636363637,1382.3854545454546" stroke="red" stroke-width="1" fill="none" />
<path d="M706.1963636363637,1382.3854545454546 L667.1854545454546,1399.7236363636364" stroke="red" stroke-width="1" fill="none" />
<path d="M667.1854545454546,1399.7236363636364 L623.84,1404.058181818182" stroke="red" stroke-width="1" fill="none" />
<path d="M623.84,1369.3818181818183 L662.8509090909091,1365.047272727273" stroke="red" stroke-width="1" fill="none" />
<path d="M662.8509090909091,1365.047272727273 L688.8581818181818,1352.0436363636366" stroke="red" stroke-width="1" fill="none" />
<path d="M688.8581818181818,1352.0436363636366 L706.1963636363637,1330.3709090909092" stroke="red" stroke-width="1" fill="none" />
<path d="M706.1963636363637,1330.3709090909092 L719.2,1304.3636363636365" stroke="red" stroke-width="1" fill="none" />
<path d="M719.2,1304.3636363636365 L727.869090909091,1278.3563636363638" stroke="red" stroke-width="1" fill="none" />
<path d="M727.869090909091,1278.3563636363638 L732.2036363636364,1243.68" stroke="red" stroke-width="1" fill="none" />
<path d="M732.2036363636364,1243.68 L732.2036363636364,1213.338181818182" stroke="red" stroke-width="1" fill="none" />
<path d="M732.2036363636364,1213.338181818182 L732.2036363636364,1174.3272727272729" stroke="red" stroke-width="1" fill="none" />
<path d="M623.84,1404.058181818182 L610.8363636363637,1404.058181818182" stroke="red" stroke-width="1" fill="none" />
<path d="M610.8363636363637,1369.3818181818183 L623.84,1369.3818181818183" stroke="red" stroke-width="1" fill="none" />
<path d="M558.8218181818182,1022.6181818181819 L558.8218181818182,1031.287272727273" stroke="red" stroke-width="1" fill="none" />
<path d="M558.8218181818182,1031.287272727273 L567.4909090909091,1031.287272727273" stroke="red" stroke-width="1" fill="none" />
<path d="M567.4909090909091,1031.287272727273 L567.4909090909091,1022.6181818181819" stroke="red" stroke-width="1" fill="none" />
<path d="M567.4909090909091,1022.6181818181819 L558.8218181818182,1022.6181818181819" stroke="red" stroke-width="1" fill="none" />
<path d="M558.8218181818182,979.2727272727274 L558.8218181818182,987.9418181818182" stroke="red" stroke-width="1" fill="none" />
<path d="M558.8218181818182,987.9418181818182 L567.4909090909091,987.9418181818182" stroke="red" stroke-width="1" fill="none" />
<path d="M567.4909090909091,987.9418181818182 L567.4909090909091,979.2727272727274" stroke="red" stroke-width="1" fill="none" />
<path d="M567.4909090909091,979.2727272727274 L558.8218181818182,979.2727272727274" stroke="red" stroke-width="1" fill="none" />
<path d="M372.43636363636364,472.1309090909091 L316.08727272727276,472.1309090909091" stroke="red" stroke-width="1" fill="none" />
<path d="M385.44,472.1309090909091 L372.43636363636364,472.1309090909091" stroke="red" stroke-width="1" fill="none" />
<path d="M316.08727272727276,472.1309090909091 L316.08727272727276,398.4436363636364" stroke="red" stroke-width="1" fill="none" />
<path d="M753.8763636363637,489.46909090909094 L797.2218181818182,519.8109090909091" stroke="red" stroke-width="1" fill="none" />
<path d="M840.5672727272728,953.2654545454546 L875.2436363636364,1013.949090909091" stroke="red" stroke-width="1" fill="none" />
<path d="M875.2436363636364,1013.949090909091 L870.909090909091,1091.9709090909091" stroke="red" stroke-width="1" fill="none" />
<path d="M870.909090909091,1091.9709090909091 L823.2290909090909,1148.3200000000002" stroke="red" stroke-width="1" fill="none" />
<path d="M823.2290909090909,1148.3200000000002 L766.8800000000001,1161.3236363636365" stroke="red" stroke-width="1" fill="none" />
<path d="M797.2218181818182,519.8109090909091 L818.8945454545456,563.1563636363637" stroke="red" stroke-width="1" fill="none" />
<path d="M818.8945454545456,563.1563636363637 L805.8909090909092,606.5018181818182" stroke="red" stroke-width="1" fill="none" />
<path d="M805.8909090909092,606.5018181818182 L814.5600000000001,623.84" stroke="red" stroke-width="1" fill="none" />
<path d="M831.8981818181819,654.1818181818182 L844.9018181818183,671.5200000000001" stroke="red" stroke-width="1" fill="none" />
<path d="M844.9018181818183,671.5200000000001 L888.2472727272727,684.5236363636365" stroke="red" stroke-width="1" fill="none" />
<path d="M888.2472727272727,684.5236363636365 L905.5854545454546,779.8836363636365" stroke="red" stroke-width="1" fill="none" />
<path d="M814.5600000000001,623.84 L827.5636363636364,615.1709090909092" stroke="red" stroke-width="1" fill="none" />
<path d="M844.9018181818183,645.5127272727273 L831.8981818181819,654.1818181818182" stroke="red" stroke-width="1" fill="none" />
<path d="M879.5781818181819,645.5127272727273 L844.9018181818183,645.5127272727273" stroke="red" stroke-width="1" fill="none" />
<path d="M827.5636363636364,615.1709090909092 L836.2327272727273,584.829090909091" stroke="red" stroke-width="1" fill="none" />
<path d="M905.5854545454546,779.8836363636365 L896.9163636363637,849.2363636363636" stroke="red" stroke-width="1" fill="none" />
<path d="M896.9163636363637,849.2363636363636 L853.5709090909091,896.9163636363637" stroke="red" stroke-width="1" fill="none" />
<path d="M853.5709090909091,896.9163636363637 L840.5672727272728,953.2654545454546" stroke="red" stroke-width="1" fill="none" />
<path d="M836.2327272727273,584.829090909091 L870.909090909091,554.4872727272727" stroke="red" stroke-width="1" fill="none" />
<path d="M870.909090909091,554.4872727272727 L914.2545454545455,545.8181818181819" stroke="red" stroke-width="1" fill="none" />
<path d="M914.2545454545455,545.8181818181819 L961.9345454545455,550.1527272727274" stroke="red" stroke-width="1" fill="none" />
<path d="M961.9345454545455,550.1527272727274 L992.2763636363636,576.1600000000001" stroke="red" stroke-width="1" fill="none" />
<path d="M909.9200000000001,662.8509090909091 L879.5781818181819,645.5127272727273" stroke="red" stroke-width="1" fill="none" />
<path d="M914.2545454545455,697.5272727272728 L909.9200000000001,662.8509090909091" stroke="red" stroke-width="1" fill="none" />
<path d="M992.2763636363636,576.1600000000001 L1052.96,584.829090909091" stroke="red" stroke-width="1" fill="none" />
<path d="M1087.6363636363637,628.1745454545455 L1117.9781818181818,602.1672727272728" stroke="red" stroke-width="1" fill="none" />
<path d="M1117.9781818181818,602.1672727272728 L1152.6545454545455,610.8363636363637" stroke="red" stroke-width="1" fill="none" />
<path d="M1152.6545454545455,610.8363636363637 L1161.3236363636365,649.8472727272728" stroke="red" stroke-width="1" fill="none" />
<path d="M1161.3236363636365,649.8472727272728 L1113.6436363636365,667.1854545454546" stroke="red" stroke-width="1" fill="none" />
<path d="M922.9236363636364,749.5418181818183 L966.2690909090909,723.5345454545455" stroke="red" stroke-width="1" fill="none" />
<path d="M948.9309090909092,788.5527272727273 L922.9236363636364,749.5418181818183" stroke="red" stroke-width="1" fill="none" />
<path d="M922.9236363636364,831.8981818181819 L948.9309090909092,788.5527272727273" stroke="red" stroke-width="1" fill="none" />
<path d="M1026.9527272727273,675.8545454545455 L1022.6181818181819,684.5236363636365" stroke="red" stroke-width="1" fill="none" />
<path d="M1022.6181818181819,684.5236363636365 L1074.6327272727274,736.5381818181819" stroke="red" stroke-width="1" fill="none" />
<path d="M1074.6327272727274,736.5381818181819 L1048.6254545454547,797.2218181818182" stroke="red" stroke-width="1" fill="none" />
<path d="M1048.6254545454547,797.2218181818182 L996.6109090909092,810.2254545454546" stroke="red" stroke-width="1" fill="none" />
<path d="M996.6109090909092,810.2254545454546 L1000.9454545454546,818.8945454545456" stroke="red" stroke-width="1" fill="none" />
<path d="M1000.9454545454546,818.8945454545456 L1052.96,814.5600000000001" stroke="red" stroke-width="1" fill="none" />
<path d="M1096.3054545454547,732.2036363636364 L1061.629090909091,688.8581818181818" stroke="red" stroke-width="1" fill="none" />
<path d="M1061.629090909091,688.8581818181818 L1026.9527272727273,675.8545454545455" stroke="red" stroke-width="1" fill="none" />
<path d="M1113.6436363636365,667.1854545454546 L1165.658181818182,701.8618181818182" stroke="red" stroke-width="1" fill="none" />
<path d="M1169.9927272727273,771.2145454545455 L1122.3127272727274,805.8909090909092" stroke="red" stroke-width="1" fill="none" />
<path d="M1122.3127272727274,805.8909090909092 L1161.3236363636365,844.9018181818183" stroke="red" stroke-width="1" fill="none" />
<path d="M1161.3236363636365,844.9018181818183 L1143.9854545454546,901.2509090909091" stroke="red" stroke-width="1" fill="none" />
<path d="M1061.629090909091,870.909090909091 L1052.96,870.909090909091" stroke="red" stroke-width="1" fill="none" />
<path d="M1052.96,870.909090909091 L1022.6181818181819,918.589090909091" stroke="red" stroke-width="1" fill="none" />
<path d="M1070.298181818182,987.9418181818182 L1096.3054545454547,931.5927272727274" stroke="red" stroke-width="1" fill="none" />
<path d="M1022.6181818181819,918.589090909091 L944.5963636363638,931.5927272727274" stroke="red" stroke-width="1" fill="none" />
<path d="M944.5963636363638,931.5927272727274 L935.9272727272728,944.5963636363638" stroke="red" stroke-width="1" fill="none" />
<path d="M935.9272727272728,944.5963636363638 L974.9381818181819,957.6000000000001" stroke="red" stroke-width="1" fill="none" />
<path d="M974.9381818181819,957.6000000000001 L1005.28,948.9309090909092" stroke="red" stroke-width="1" fill="none" />
<path d="M1122.3127272727274,996.6109090909092 L1070.298181818182,987.9418181818182" stroke="red" stroke-width="1" fill="none" />
<path d="M1039.9563636363637,1009.6145454545456 L1100.64,1013.949090909091" stroke="red" stroke-width="1" fill="none" />
<path d="M1100.64,1013.949090909091 L1122.3127272727274,996.6109090909092" stroke="red" stroke-width="1" fill="none" />
<path d="M892.5818181818182,888.2472727272727 L970.6036363636365,866.5745454545455" stroke="red" stroke-width="1" fill="none" />
<path d="M866.5745454545455,957.6000000000001 L892.5818181818182,888.2472727272727" stroke="red" stroke-width="1" fill="none" />
<path d="M909.9200000000001,1083.3018181818184 L914.2545454545455,1013.949090909091" stroke="red" stroke-width="1" fill="none" />
<path d="M1009.6145454545456,1100.64 L909.9200000000001,1083.3018181818184" stroke="red" stroke-width="1" fill="none" />
<path d="M1196.0,983.6072727272729 L1191.6654545454546,1057.2945454545456" stroke="red" stroke-width="1" fill="none" />
<path d="M1191.6654545454546,1057.2945454545456 L1078.9672727272728,1100.64" stroke="red" stroke-width="1" fill="none" />
<path d="M1078.9672727272728,1100.64 L1078.9672727272728,1113.6436363636365" stroke="red" stroke-width="1" fill="none" />
<path d="M1078.9672727272728,1113.6436363636365 L1078.9672727272728,1126.6472727272728" stroke="red" stroke-width="1" fill="none" />
<path d="M1078.9672727272728,1126.6472727272728 L1083.3018181818184,1139.6509090909092" stroke="red" stroke-width="1" fill="none" />
<path d="M1083.3018181818184,1139.6509090909092 L1100.64,1152.6545454545455" stroke="red" stroke-width="1" fill="none" />
<path d="M1100.64,1152.6545454545455 L1109.309090909091,1174.3272727272729" stroke="red" stroke-width="1" fill="none" />
<path d="M1109.309090909091,1174.3272727272729 L1109.309090909091,1200.3345454545456" stroke="red" stroke-width="1" fill="none" />
<path d="M1109.309090909091,1200.3345454545456 L1100.64,1226.3418181818183" stroke="red" stroke-width="1" fill="none" />
<path d="M1100.64,1226.3418181818183 L1074.6327272727274,1256.6836363636364" stroke="red" stroke-width="1" fill="none" />
<path d="M1074.6327272727274,1256.6836363636364 L1031.2872727272727,1278.3563636363638" stroke="red" stroke-width="1" fill="none" />
<path d="M1009.6145454545456,1126.6472727272728 L1009.6145454545456,1100.64" stroke="red" stroke-width="1" fill="none" />
<path d="M1022.6181818181819,1139.6509090909092 L1009.6145454545456,1126.6472727272728" stroke="red" stroke-width="1" fill="none" />
<path d="M1031.2872727272727,1152.6545454545455 L1022.6181818181819,1139.6509090909092" stroke="red" stroke-width="1" fill="none" />
<path d="M1048.6254545454547,1165.658181818182 L1031.2872727272727,1152.6545454545455" stroke="red" stroke-width="1" fill="none" />
<path d="M1044.290909090909,1178.6618181818183 L1048.6254545454547,1165.658181818182" stroke="red" stroke-width="1" fill="none" />
<path d="M1022.6181818181819,1200.3345454545456 L1044.290909090909,1178.6618181818183" stroke="red" stroke-width="1" fill="none" />
<path d="M1009.6145454545456,1217.6727272727273 L1022.6181818181819,1200.3345454545456" stroke="red" stroke-width="1" fill="none" />
<path d="M983.6072727272729,1239.3454545454547 L1009.6145454545456,1217.6727272727273" stroke="red" stroke-width="1" fill="none" />
<path d="M940.2618181818182,1248.0145454545454 L983.6072727272729,1239.3454545454547" stroke="red" stroke-width="1" fill="none" />
<path d="M1031.2872727272727,1278.3563636363638 L1035.6218181818183,1300.029090909091" stroke="red" stroke-width="1" fill="none" />
<path d="M1035.6218181818183,1300.029090909091 L1018.2836363636363,1330.3709090909092" stroke="red" stroke-width="1" fill="none" />
<path d="M1018.2836363636363,1330.3709090909092 L961.9345454545455,1343.3745454545456" stroke="red" stroke-width="1" fill="none" />
<path d="M862.24,1330.3709090909092 L831.8981818181819,1291.3600000000001" stroke="red" stroke-width="1" fill="none" />
<path d="M831.8981818181819,1291.3600000000001 L849.2363636363636,1243.68" stroke="red" stroke-width="1" fill="none" />
<path d="M849.2363636363636,1243.68 L905.5854545454546,1226.3418181818183" stroke="red" stroke-width="1" fill="none" />
<path d="M905.5854545454546,1226.3418181818183 L940.2618181818182,1248.0145454545454" stroke="red" stroke-width="1" fill="none" />
<path d="M914.2545454545455,1013.949090909091 L905.5854545454546,1000.9454545454546" stroke="red" stroke-width="1" fill="none" />
<path d="M905.5854545454546,1000.9454545454546 L866.5745454545455,957.6000000000001" stroke="red" stroke-width="1" fill="none" />
<path d="M1005.28,948.9309090909092 L1031.2872727272727,992.2763636363637" stroke="red" stroke-width="1" fill="none" />
<path d="M1031.2872727272727,992.2763636363637 L1039.9563636363637,1009.6145454545456" stroke="red" stroke-width="1" fill="none" />
<path d="M1096.3054545454547,931.5927272727274 L1083.3018181818184,918.589090909091" stroke="red" stroke-width="1" fill="none" />
<path d="M1083.3018181818184,918.589090909091 L1083.3018181818184,909.9200000000001" stroke="red" stroke-width="1" fill="none" />
<path d="M1083.3018181818184,909.9200000000001 L1061.629090909091,870.909090909091" stroke="red" stroke-width="1" fill="none" />
<path d="M1143.9854545454546,901.2509090909091 L1156.989090909091,918.589090909091" stroke="red" stroke-width="1" fill="none" />
<path d="M1156.989090909091,918.589090909091 L1165.658181818182,935.9272727272728" stroke="red" stroke-width="1" fill="none" />
<path d="M1165.658181818182,935.9272727272728 L1196.0,983.6072727272729" stroke="red" stroke-width="1" fill="none" />
<path d="M970.6036363636365,866.5745454545455 L961.9345454545455,857.9054545454546" stroke="red" stroke-width="1" fill="none" />
<path d="M961.9345454545455,857.9054545454546 L922.9236363636364,831.8981818181819" stroke="red" stroke-width="1" fill="none" />
<path d="M1165.658181818182,701.8618181818182 L1169.9927272727273,749.5418181818183" stroke="red" stroke-width="1" fill="none" />
<path d="M1169.9927272727273,749.5418181818183 L1169.9927272727273,771.2145454545455" stroke="red" stroke-width="1" fill="none" />
<path d="M1052.96,814.5600000000001 L1070.298181818182,784.2181818181818" stroke="red" stroke-width="1" fill="none" />
<path d="M1070.298181818182,784.2181818181818 L1078.9672727272728,766.8800000000001" stroke="red" stroke-width="1" fill="none" />
<path d="M1078.9672727272728,766.8800000000001 L1096.3054545454547,732.2036363636364" stroke="red" stroke-width="1" fill="none" />
<path d="M1052.96,584.829090909091 L1065.9636363636364,602.1672727272728" stroke="red" stroke-width="1" fill="none" />
<path d="M1065.9636363636364,602.1672727272728 L1078.9672727272728,619.5054545454545" stroke="red" stroke-width="1" fill="none" />
<path d="M1078.9672727272728,619.5054545454545 L1087.6363636363637,628.1745454545455" stroke="red" stroke-width="1" fill="none" />
<path d="M966.2690909090909,723.5345454545455 L927.2581818181818,701.8618181818182" stroke="red" stroke-width="1" fill="none" />
<path d="M927.2581818181818,701.8618181818182 L914.2545454545455,697.5272727272728" stroke="red" stroke-width="1" fill="none" />
<path d="M420.11636363636364,363.7672727272727 L454.7927272727273,329.090909090909" stroke="red" stroke-width="1" fill="none" />
<path d="M593.4981818181818,329.090909090909 L628.1745454545455,363.7672727272727" stroke="red" stroke-width="1" fill="none" />
<path d="M454.7927272727273,329.090909090909 L489.46909090909094,329.090909090909" stroke="red" stroke-width="1" fill="none" />
<path d="M558.8218181818182,329.090909090909 L593.4981818181818,329.090909090909" stroke="red" stroke-width="1" fill="none" />
<path d="M558.8218181818182,316.08727272727265 L558.8218181818182,329.090909090909" stroke="red" stroke-width="1" fill="none" />
<path d="M489.46909090909094,329.090909090909 L489.46909090909094,316.08727272727265" stroke="red" stroke-width="1" fill="none" />
<path d="M489.46909090909094,316.08727272727265 L454.7927272727273,316.08727272727265" stroke="red" stroke-width="1" fill="none" />
<path d="M593.4981818181818,316.08727272727265 L558.8218181818182,316.08727272727265" stroke="red" stroke-width="1" fill="none" />
<path d="M628.1745454545455,398.4436363636364 L697.5272727272727,433.12" stroke="red" stroke-width="1" fill="none" />
<path d="M697.5272727272727,433.12 L697.5272727272727,472.1309090909091" stroke="red" stroke-width="1" fill="none" />
<path d="M454.7927272727273,316.08727272727265 L420.11636363636364,294.41454545454553" stroke="red" stroke-width="1" fill="none" />
<path d="M420.11636363636364,294.41454545454553 L420.11636363636364,225.06181818181813" stroke="red" stroke-width="1" fill="none" />
<path d="M628.1745454545455,294.41454545454553 L593.4981818181818,316.08727272727265" stroke="red" stroke-width="1" fill="none" />
<path d="M628.1745454545455,225.06181818181813 L628.1745454545455,294.41454545454553" stroke="red" stroke-width="1" fill="none" />
<path d="M420.11636363636364,225.06181818181813 L454.7927272727273,155.70909090909095" stroke="red" stroke-width="1" fill="none" />
<path d="M593.4981818181818,155.70909090909095 L628.1745454545455,225.06181818181813" stroke="red" stroke-width="1" fill="none" />
<path d="M454.7927272727273,155.70909090909095 L454.7927272727273,86.35636363636354" stroke="red" stroke-width="1" fill="none" />
<path d="M454.7927272727273,86.35636363636354 L489.46909090909094,51.680000000000064" stroke="red" stroke-width="1" fill="none" />
<path d="M558.8218181818182,51.680000000000064 L593.4981818181818,86.35636363636354" stroke="red" stroke-width="1" fill="none" />
<path d="M593.4981818181818,86.35636363636354 L593.4981818181818,155.70909090909095" stroke="red" stroke-width="1" fill="none" />
<path d="M489.46909090909094,17.00363636363636 L506.80727272727273,17.00363636363636" stroke="red" stroke-width="1" fill="none" />
<path d="M541.4836363636364,17.00363636363636 L558.8218181818182,17.00363636363636" stroke="red" stroke-width="1" fill="none" />
<path d="M506.80727272727273,17.00363636363636 L506.80727272727273,4.0" stroke="red" stroke-width="1" fill="none" />
<path d="M506.80727272727273,4.0 L541.4836363636364,4.0" stroke="lavender" stroke-width="1" fill="none" />
<path d="M541.4836363636364,4.0 L541.4836363636364,17.00363636363636" stroke="red" stroke-width="1" fill="none" />
<path d="M316.08727272727276,398.4436363636364 L372.43636363636364,398.4436363636364" stroke="red" stroke-width="1" fill="none" />
<path d="M372.43636363636364,398.4436363636364 L385.44,398.4436363636364" stroke="red" stroke-width="1" fill="none" />
<path d="M385.44,398.4436363636364 L420.11636363636364,398.4436363636364" stroke="red" stroke-width="1" fill="none" />
<path d="M489.46909090909094,51.680000000000064 L489.46909090909094,43.01090909090908" stroke="red" stroke-width="1" fill="none" />
<path d="M489.46909090909094,25.672727272727343 L489.46909090909094,17.00363636363636" stroke="red" stroke-width="1" fill="none" />
<path d="M558.8218181818182,17.00363636363636 L558.8218181818182,25.672727272727343" stroke="red" stroke-width="1" fill="none" />
<path d="M558.8218181818182,43.01090909090908 L558.8218181818182,51.680000000000064" stroke="red" stroke-width="1" fill="none" />
<path d="M558.8218181818182,25.672727272727343 L563.1563636363637,25.672727272727343" stroke="red" stroke-width="1" fill="none" />
<path d="M563.1563636363637,25.672727272727343 L563.1563636363637,43.01090909090908" stroke="red" stroke-width="1" fill="none" />
<path d="M563.1563636363637,43.01090909090908 L558.8218181818182,43.01090909090908" stroke="red" stroke-width="1" fill="none" />
<path d="M489.46909090909094,43.01090909090908 L485.13454545454545,43.01090909090908" stroke="red" stroke-width="1" fill="none" />
<path d="M485.13454545454545,43.01090909090908 L485.13454545454545,25.672727272727343" stroke="red" stroke-width="1" fill="none" />
<path d="M485.13454545454545,25.672727272727343 L489.46909090909094,25.672727272727343" stroke="red" stroke-width="1" fill="none" />
<path d="M420.11636363636364,398.4436363636364 L420.11636363636364,385.44000000000005" stroke="red" stroke-width="1" fill="none" />
<path d="M420.11636363636364,385.44000000000005 L420.11636363636364,363.7672727272727" stroke="red" stroke-width="1" fill="none" />
<path d="M628.1745454545455,363.7672727272727 L628.1745454545455,385.44000000000005" stroke="red" stroke-width="1" fill="none" />
<path d="M628.1745454545455,385.44000000000005 L628.1745454545455,398.4436363636364" stroke="red" stroke-width="1" fill="none" />
<path d="M385.44,927.2581818181818 L368.1018181818182,909.9200000000001" stroke="red" stroke-width="1" fill="none" />
<path d="M961.9345454545455,1343.3745454545456 L931.5927272727274,1347.709090909091" stroke="red" stroke-width="1" fill="none" />
<path d="M931.5927272727274,1347.709090909091 L931.5927272727274,1369.3818181818183" stroke="red" stroke-width="1" fill="none" />
<path d="M931.5927272727274,1369.3818181818183 L948.9309090909092,1382.3854545454546" stroke="red" stroke-width="1" fill="none" />
<path d="M948.9309090909092,1382.3854545454546 L935.9272727272728,1434.4" stroke="red" stroke-width="1" fill="none" />
<path d="M935.9272727272728,1434.4 L909.9200000000001,1438.7345454545455" stroke="red" stroke-width="1" fill="none" />
<path d="M909.9200000000001,1438.7345454545455 L879.5781818181819,1430.0654545454547" stroke="red" stroke-width="1" fill="none" />
<path d="M879.5781818181819,1430.0654545454547 L875.2436363636364,1369.3818181818183" stroke="red" stroke-width="1" fill="none" />
<path d="M875.2436363636364,1369.3818181818183 L892.5818181818182,1352.0436363636366" stroke="red" stroke-width="1" fill="none" />
<path d="M892.5818181818182,1352.0436363636366 L888.2472727272727,1334.7054545454546" stroke="red" stroke-width="1" fill="none" />
<path d="M888.2472727272727,1334.7054545454546 L862.24,1330.3709090909092" stroke="red" stroke-width="1" fill="none" />
<path d="M290.08000000000004,1243.68 L316.08727272727276,1243.68" stroke="red" stroke-width="1" fill="none" />
<path d="M316.08727272727276,1243.68 L316.08727272727276,1282.6909090909091" stroke="lavender" stroke-width="1" fill="none" />
<path d="M316.08727272727276,1282.6909090909091 L290.08000000000004,1282.6909090909091" stroke="red" stroke-width="1" fill="none" />
<path d="M281.41090909090906,1243.68 L290.08000000000004,1243.68" stroke="red" stroke-width="1" fill="none" />
<path d="M290.08000000000004,1282.6909090909091 L281.41090909090906,1282.6909090909091" stroke="red" stroke-width="1" fill="none" />
<path d="M311.75272727272727,814.5600000000001 L264.07272727272726,814.5600000000001" stroke="red" stroke-width="1" fill="none" />
<path d="M229.39636363636365,779.8836363636365 L229.39636363636365,745.2072727272728" stroke="red" stroke-width="1" fill="none" />
<path d="M264.07272727272726,814.5600000000001 L264.07272727272726,827.5636363636364" stroke="red" stroke-width="1" fill="none" />
<path d="M264.07272727272726,827.5636363636364 L225.06181818181818,827.5636363636364" stroke="red" stroke-width="1" fill="none" />
<path d="M216.39272727272726,779.8836363636365 L229.39636363636365,779.8836363636365" stroke="red" stroke-width="1" fill="none" />
<path d="M216.39272727272726,788.5527272727273 L216.39272727272726,779.8836363636365" stroke="red" stroke-width="1" fill="none" />
<path d="M190.38545454545454,814.5600000000001 L216.39272727272726,788.5527272727273" stroke="red" stroke-width="1" fill="none" />
<path d="M190.38545454545454,883.9127272727274 L190.38545454545454,814.5600000000001" stroke="red" stroke-width="1" fill="none" />
<path d="M225.06181818181818,883.9127272727274 L190.38545454545454,883.9127272727274" stroke="lavender" stroke-width="1" fill="none" />
<path d="M225.06181818181818,827.5636363636364 L225.06181818181818,849.2363636363636" stroke="red" stroke-width="1" fill="none" />
<path d="M225.06181818181818,849.2363636363636 L233.73090909090908,849.2363636363636" stroke="red" stroke-width="1" fill="none" />
<path d="M233.73090909090908,849.2363636363636 L233.73090909090908,866.5745454545455" stroke="red" stroke-width="1" fill="none" />
<path d="M233.73090909090908,866.5745454545455 L225.06181818181818,866.5745454545455" stroke="red" stroke-width="1" fill="none" />
<path d="M225.06181818181818,866.5745454545455 L225.06181818181818,883.9127272727274" stroke="red" stroke-width="1" fill="none" />
</svg>