<?xml version="1.0" encoding="UTF-8"?>
<svg xmlns="http://www.w3.org/2000/svg" xmlns:xlink="http://www.w3.org/1999/xlink"
     width="1200" height="1104" viewBox="0 0 1200 1104">
<defs>
</defs>
<path d="M657.6133333333333,210.61333333333334 L687.4133333333333,206.64" stroke="yellow" stroke-width="1" fill="none" />
<path d="M687.4133333333333,206.64 L719.2,198.69333333333333" stroke="yellow" stroke-width="1" fill="none" />
<path d="M719.2,198.69333333333333 L747.0133333333333,182.8" stroke="yellow" stroke-width="1" fill="none" />
<path d="M592.0533333333333,206.64 L621.8533333333334,210.61333333333334" stroke="yellow" stroke-width="1" fill="none" />
<path d="M560.2666666666667,198.69333333333333 L592.0533333333333,206.64" stroke="yellow" stroke-width="1" fill="none" />
<path d="M532.4533333333334,182.8 L560.2666666666667,198.69333333333333" stroke="yellow" stroke-width="1" fill="none" />
<path d="M524.5066666666667,151.01333333333332 L532.4533333333334,182.8" stroke="yellow" stroke-width="1" fill="none" />
<path d="M520.5333333333333,119.22666666666669 L524.5066666666667,151.01333333333332" stroke="yellow" stroke-width="1" fill="none" />
<path d="M516.56,91.41333333333336 L520.5333333333333,119.22666666666669" stroke="yellow" stroke-width="1" fill="none" />
<path d="M754.96,151.01333333333332 L758.9333333333333,119.22666666666669" stroke="yellow" stroke-width="1" fill="none" />
<path d="M762.9066666666666,87.44 L750.9866666666667,67.57333333333332" stroke="yellow" stroke-width="1" fill="none" />
<path d="M750.9866666666667,67.57333333333332 L735.0933333333332,67.57333333333332" stroke="yellow" stroke-width="1" fill="none" />
<path d="M735.0933333333332,67.57333333333332 L719.2,83.4666666666667" stroke="yellow" stroke-width="1" fill="none" />
<path d="M719.2,83.4666666666667 L719.2,115.25333333333333" stroke="lavender" stroke-width="1" fill="none" />
<path d="M719.2,115.25333333333333 L687.4133333333333,131.14666666666665" stroke="yellow" stroke-width="1" fill="none" />
<path d="M528.48,67.57333333333332 L516.56,87.44" stroke="yellow" stroke-width="1" fill="none" />
<path d="M544.3733333333333,67.57333333333332 L528.48,67.57333333333332" stroke="yellow" stroke-width="1" fill="none" />
<path d="M560.2666666666667,83.4666666666667 L544.3733333333333,67.57333333333332" stroke="yellow" stroke-width="1" fill="none" />
<path d="M560.2666666666667,115.25333333333333 L560.2666666666667,83.4666666666667" stroke="lavender" stroke-width="1" fill="none" />
<path d="M592.0533333333333,131.14666666666665 L560.2666666666667,115.25333333333333" stroke="yellow" stroke-width="1" fill="none" />
<path d="M687.4133333333333,131.14666666666665 L592.0533333333333,131.14666666666665" stroke="yellow" stroke-width="1" fill="none" />
<path d="M719.2,83.4666666666667 L687.4133333333333,83.4666666666667" stroke="lavender" stroke-width="1" fill="none" />
<path d="M687.4133333333333,83.4666666666667 L687.4133333333333,115.25333333333333" stroke="lavender" stroke-width="1" fill="none" />
<path d="M592.0533333333333,115.25333333333333 L592.0533333333333,83.4666666666667" stroke="lavender" stroke-width="1" fill="none" />
<path d="M592.0533333333333,83.4666666666667 L560.2666666666667,83.4666666666667" stroke="lavender" stroke-width="1" fill="none" />
<path d="M625.8266666666666,278.15999999999997 L629.8,278.15999999999997" stroke="yellow" stroke-width="1" fill="none" />
<path d="M629.8,278.15999999999997 L629.8,270.21333333333337" stroke="yellow" stroke-width="1" fill="none" />
<path d="M629.8,270.21333333333337 L625.8266666666666,270.21333333333337" stroke="yellow" stroke-width="1" fill="none" />
<path d="M633.7733333333333,272.2 L633.7733333333333,276.1733333333333" stroke="lavender" stroke-width="1" fill="none" />
<path d="M633.7733333333333,276.1733333333333 L637.7466666666667,276.1733333333333" stroke="lavender" stroke-width="1" fill="none" />
<path d="M637.7466666666667,276.1733333333333 L637.7466666666667,272.2" stroke="lavender" stroke-width="1" fill="none" />
<path d="M637.7466666666667,272.2 L633.7733333333333,272.2" stroke="lavender" stroke-width="1" fill="none" />
<path d="M649.6666666666666,270.21333333333337 L649.6666666666666,278.15999999999997" stroke="yellow" stroke-width="1" fill="none" />
<path d="M649.6666666666666,278.15999999999997 L653.64,278.15999999999997" stroke="yellow" stroke-width="1" fill="none" />
<path d="M653.64,270.21333333333337 L649.6666666666666,270.21333333333337" stroke="yellow" stroke-width="1" fill="none" />
<path d="M641.72,272.2 L641.72,276.1733333333333" stroke="lavender" stroke-width="1" fill="none" />
<path d="M641.72,276.1733333333333 L645.6933333333333,276.1733333333333" stroke="lavender" stroke-width="1" fill="none" />
<path d="M645.6933333333333,276.1733333333333 L645.6933333333333,272.2" stroke="lavender" stroke-width="1" fill="none" />
<path d="M645.6933333333333,272.2 L641.72,272.2" stroke="lavender" stroke-width="1" fill="none" />
<path d="M621.8533333333334,337.76 L544.3733333333333,337.76" stroke="yellow" stroke-width="1" fill="none" />
<path d="M719.2,385.44 L657.6133333333333,337.76" stroke="yellow" stroke-width="1" fill="none" />
<path d="M735.0933333333332,385.44 L719.2,385.44" stroke="yellow" stroke-width="1" fill="none" />
<path d="M639.7333333333333,385.44 L576.16,385.44" stroke="yellow" stroke-width="1" fill="none" />
<path d="M703.3066666666666,433.12 L639.7333333333333,385.44" stroke="yellow" stroke-width="1" fill="none" />
<path d="M766.88,433.12 L750.9866666666667,433.12" stroke="yellow" stroke-width="1" fill="none" />
<path d="M687.4133333333333,115.25333333333333 L687.4133333333333,131.14666666666665" stroke="yellow" stroke-width="1" fill="none" />
<path d="M719.2,115.25333333333333 L687.4133333333333,115.25333333333333" stroke="lavender" stroke-width="1" fill="none" />
<path d="M592.0533333333333,131.14666666666665 L592.0533333333333,115.25333333333333" stroke="yellow" stroke-width="1" fill="none" />
<path d="M592.0533333333333,115.25333333333333 L560.2666666666667,115.25333333333333" stroke="lavender" stroke-width="1" fill="none" />
<path d="M649.6666666666666,270.21333333333337 L629.8,270.21333333333337" stroke="yellow" stroke-width="1" fill="none" />
<path d="M629.8,278.15999999999997 L649.6666666666666,278.15999999999997" stroke="yellow" stroke-width="1" fill="none" />
<path d="M625.8266666666666,270.21333333333337 L625.8266666666666,278.15999999999997" stroke="yellow" stroke-width="1" fill="none" />
<path d="M653.64,278.15999999999997 L653.64,270.21333333333337" stroke="yellow" stroke-width="1" fill="none" />
<path d="M625.8266666666666,337.76 L653.64,337.76" stroke="yellow" stroke-width="1" fill="none" />
<path d="M653.64,210.61333333333334 L625.8266666666666,210.61333333333334" stroke="yellow" stroke-width="1" fill="none" />
<path d="M623.84,218.56 L623.84,329.81333333333333" stroke="yellow" stroke-width="1" fill="none" />
<path d="M655.6266666666667,329.81333333333333 L655.6266666666667,218.56" stroke="yellow" stroke-width="1" fill="none" />
<path d="M480.79999999999995,218.56 L449.0133333333333,218.56" stroke="yellow" stroke-width="1" fill="none" />
<path d="M776.8133333333333,329.81333333333333 L808.5999999999999,329.81333333333333" stroke="yellow" stroke-width="1" fill="none" />
<path d="M480.79999999999995,234.45333333333332 L480.79999999999995,218.56" stroke="yellow" stroke-width="1" fill="none" />
<path d="M449.0133333333333,218.56 L449.0133333333333,234.45333333333332" stroke="yellow" stroke-width="1" fill="none" />
<path d="M449.0133333333333,234.45333333333332 L452.9866666666667,250.34666666666666" stroke="yellow" stroke-width="1" fill="none" />
<path d="M452.9866666666667,250.34666666666666 L476.82666666666665,250.34666666666666" stroke="yellow" stroke-width="1" fill="none" />
<path d="M476.82666666666665,250.34666666666666 L480.79999999999995,234.45333333333332" stroke="yellow" stroke-width="1" fill="none" />
<path d="M480.79999999999995,218.56 L480.79999999999995,210.61333333333334" stroke="yellow" stroke-width="1" fill="none" />
<path d="M480.79999999999995,210.61333333333334 L480.79999999999995,202.66666666666666" stroke="yellow" stroke-width="1" fill="none" />
<path d="M480.79999999999995,202.66666666666666 L480.79999999999995,194.72" stroke="yellow" stroke-width="1" fill="none" />
<path d="M480.79999999999995,194.72 L480.79999999999995,186.7733333333333" stroke="yellow" stroke-width="1" fill="none" />
<path d="M449.0133333333333,186.7733333333333 L449.0133333333333,194.72" stroke="yellow" stroke-width="1" fill="none" />
<path d="M449.0133333333333,194.72 L449.0133333333333,202.66666666666666" stroke="yellow" stroke-width="1" fill="none" />
<path d="M449.0133333333333,202.66666666666666 L449.0133333333333,210.61333333333334" stroke="yellow" stroke-width="1" fill="none" />
<path d="M449.0133333333333,210.61333333333334 L449.0133333333333,218.56" stroke="yellow" stroke-width="1" fill="none" />
<path d="M480.79999999999995,186.7733333333333 L449.0133333333333,186.7733333333333" stroke="yellow" stroke-width="1" fill="none" />
<path d="M480.79999999999995,194.72 L449.0133333333333,194.72" stroke="yellow" stroke-width="1" fill="none" />
<path d="M480.79999999999995,210.61333333333334 L449.0133333333333,210.61333333333334" stroke="yellow" stroke-width="1" fill="none" />
<path d="M480.79999999999995,202.66666666666666 L449.0133333333333,202.66666666666666" stroke="yellow" stroke-width="1" fill="none" />
<path d="M449.0133333333333,234.45333333333332 L480.79999999999995,234.45333333333332" stroke="yellow" stroke-width="1" fill="none" />
<path d="M480.79999999999995,218.56 L621.8533333333334,218.56" stroke="yellow" stroke-width="1" fill="none" />
<path d="M621.8533333333334,329.81333333333333 L258.29333333333335,329.81333333333333" stroke="yellow" stroke-width="1" fill="none" />
<path d="M808.5999999999999,361.6 L808.5999999999999,353.6533333333333" stroke="yellow" stroke-width="1" fill="none" />
<path d="M808.5999999999999,353.6533333333333 L808.5999999999999,345.70666666666665" stroke="yellow" stroke-width="1" fill="none" />
<path d="M808.5999999999999,345.70666666666665 L808.5999999999999,337.76" stroke="yellow" stroke-width="1" fill="none" />
<path d="M776.8133333333333,337.76 L776.8133333333333,345.70666666666665" stroke="yellow" stroke-width="1" fill="none" />
<path d="M776.8133333333333,345.70666666666665 L776.8133333333333,353.6533333333333" stroke="yellow" stroke-width="1" fill="none" />
<path d="M776.8133333333333,353.6533333333333 L776.8133333333333,361.6" stroke="yellow" stroke-width="1" fill="none" />
<path d="M776.8133333333333,337.76 L808.5999999999999,337.76" stroke="yellow" stroke-width="1" fill="none" />
<path d="M776.8133333333333,345.70666666666665 L808.5999999999999,345.70666666666665" stroke="yellow" stroke-width="1" fill="none" />
<path d="M776.8133333333333,361.6 L808.5999999999999,361.6" stroke="yellow" stroke-width="1" fill="none" />
<path d="M776.8133333333333,353.6533333333333 L808.5999999999999,353.6533333333333" stroke="yellow" stroke-width="1" fill="none" />
<path d="M776.8133333333333,329.81333333333333 L776.8133333333333,337.76" stroke="yellow" stroke-width="1" fill="none" />
<path d="M808.5999999999999,337.76 L808.5999999999999,329.81333333333333" stroke="yellow" stroke-width="1" fill="none" />
<path d="M776.8133333333333,313.91999999999996 L776.8133333333333,329.81333333333333" stroke="yellow" stroke-width="1" fill="none" />
<path d="M808.5999999999999,329.81333333333333 L808.5999999999999,313.91999999999996" stroke="yellow" stroke-width="1" fill="none" />
<path d="M808.5999999999999,313.91999999999996 L776.8133333333333,313.91999999999996" stroke="yellow" stroke-width="1" fill="none" />
<path d="M808.5999999999999,313.91999999999996 L804.6266666666667,298.02666666666664" stroke="yellow" stroke-width="1" fill="none" />
<path d="M804.6266666666667,298.02666666666664 L780.7866666666666,298.02666666666664" stroke="yellow" stroke-width="1" fill="none" />
<path d="M780.7866666666666,298.02666666666664 L776.8133333333333,313.91999999999996" stroke="yellow" stroke-width="1" fill="none" />
<path d="M417.2266666666667,385.44 L417.2266666666667,433.12" stroke="yellow" stroke-width="1" fill="none" />
<path d="M846.3466666666666,385.44 L846.3466666666666,433.12" stroke="yellow" stroke-width="1" fill="none" />
<path d="M941.7066666666667,385.44 L846.3466666666666,385.44" stroke="yellow" stroke-width="1" fill="none" />
<path d="M846.3466666666666,433.12 L909.92,433.12" stroke="yellow" stroke-width="1" fill="none" />
<path d="M909.92,433.12 L909.92,496.6933333333333" stroke="yellow" stroke-width="1" fill="none" />
<path d="M909.92,496.6933333333333 L957.5999999999999,496.6933333333333" stroke="yellow" stroke-width="1" fill="none" />
<path d="M957.5999999999999,496.6933333333333 L957.5999999999999,433.12" stroke="yellow" stroke-width="1" fill="none" />
<path d="M957.5999999999999,433.12 L957.5999999999999,401.3333333333333" stroke="yellow" stroke-width="1" fill="none" />
<path d="M909.92,433.12 L957.5999999999999,433.12" stroke="yellow" stroke-width="1" fill="none" />
<path d="M941.7066666666667,385.44 L941.7066666666667,401.3333333333333" stroke="yellow" stroke-width="1" fill="none" />
<path d="M941.7066666666667,401.3333333333333 L957.5999999999999,401.3333333333333" stroke="yellow" stroke-width="1" fill="none" />
<path d="M957.5999999999999,401.3333333333333 L957.5999999999999,385.44" stroke="yellow" stroke-width="1" fill="none" />
<path d="M957.5999999999999,385.44 L941.7066666666667,385.44" stroke="yellow" stroke-width="1" fill="none" />
<path d="M210.61333333333334,329.81333333333333 L242.39999999999998,329.81333333333333" stroke="yellow" stroke-width="1" fill="none" />
<path d="M353.6533333333333,369.5466666666666 L305.97333333333336,333.78666666666663" stroke="yellow" stroke-width="1" fill="none" />
<path d="M305.97333333333336,528.48 L305.97333333333336,480.8" stroke="yellow" stroke-width="1" fill="none" />
<path d="M417.2266666666667,385.44 L409.28,385.44" stroke="yellow" stroke-width="1" fill="none" />
<path d="M409.28,385.44 L409.28,433.12" stroke="yellow" stroke-width="1" fill="none" />
<path d="M409.28,433.12 L417.2266666666667,433.12" stroke="yellow" stroke-width="1" fill="none" />
<path d="M409.28,385.44 L401.3333333333333,385.44" stroke="yellow" stroke-width="1" fill="none" />
<path d="M401.3333333333333,385.44 L401.3333333333333,433.12" stroke="yellow" stroke-width="1" fill="none" />
<path d="M401.3333333333333,433.12 L409.28,433.12" stroke="yellow" stroke-width="1" fill="none" />
<path d="M401.3333333333333,385.44 L393.38666666666666,385.44" stroke="yellow" stroke-width="1" fill="none" />
<path d="M393.38666666666666,385.44 L393.38666666666666,433.12" stroke="yellow" stroke-width="1" fill="none" />
<path d="M393.38666666666666,433.12 L401.3333333333333,433.12" stroke="yellow" stroke-width="1" fill="none" />
<path d="M393.38666666666666,385.44 L385.44,385.44" stroke="yellow" stroke-width="1" fill="none" />
<path d="M385.44,385.44 L385.44,433.12" stroke="yellow" stroke-width="1" fill="none" />
<path d="M385.44,433.12 L393.38666666666666,433.12" stroke="yellow" stroke-width="1" fill="none" />
<path d="M353.6533333333333,449.0133333333333 L353.6533333333333,433.12" stroke="yellow" stroke-width="1" fill="none" />
<path d="M353.6533333333333,385.44 L353.6533333333333,369.5466666666666" stroke="yellow" stroke-width="1" fill="none" />
<path d="M385.44,385.44 L377.49333333333334,385.44" stroke="yellow" stroke-width="1" fill="none" />
<path d="M377.49333333333334,385.44 L377.49333333333334,433.12" stroke="yellow" stroke-width="1" fill="none" />
<path d="M377.49333333333334,433.12 L385.44,433.12" stroke="yellow" stroke-width="1" fill="none" />
<path d="M377.49333333333334,385.44 L369.5466666666666,385.44" stroke="yellow" stroke-width="1" fill="none" />
<path d="M369.5466666666666,385.44 L369.5466666666666,433.12" stroke="yellow" stroke-width="1" fill="none" />
<path d="M369.5466666666666,433.12 L377.49333333333334,433.12" stroke="yellow" stroke-width="1" fill="none" />
<path d="M369.5466666666666,385.44 L361.6,385.44" stroke="yellow" stroke-width="1" fill="none" />
<path d="M361.6,385.44 L361.6,433.12" stroke="yellow" stroke-width="1" fill="none" />
<path d="M361.6,433.12 L369.5466666666666,433.12" stroke="yellow" stroke-width="1" fill="none" />
<path d="M361.6,385.44 L353.6533333333333,385.44" stroke="yellow" stroke-width="1" fill="none" />
<path d="M353.6533333333333,433.12 L361.6,433.12" stroke="yellow" stroke-width="1" fill="none" />
<path d="M305.97333333333336,333.78666666666663 L210.61333333333334,333.78666666666663" stroke="yellow" stroke-width="1" fill="none" />
<path d="M258.29333333333335,329.81333333333333 L258.29333333333335,321.8666666666667" stroke="yellow" stroke-width="1" fill="none" />
<path d="M242.39999999999998,329.81333333333333 L242.39999999999998,321.8666666666667" stroke="yellow" stroke-width="1" fill="none" />
<path d="M758.9333333333333,119.22666666666669 L762.9066666666666,91.41333333333336" stroke="yellow" stroke-width="1" fill="none" />
<path d="M576.16,401.3333333333333 L576.16,385.44" stroke="yellow" stroke-width="1" fill="none" />
<path d="M544.3733333333333,337.76 L544.3733333333333,401.3333333333333" stroke="yellow" stroke-width="1" fill="none" />
<path d="M544.3733333333333,401.3333333333333 L576.16,401.3333333333333" stroke="yellow" stroke-width="1" fill="none" />
<path d="M305.97333333333336,480.8 L353.6533333333333,449.0133333333333" stroke="yellow" stroke-width="1" fill="none" />
<path d="M1001.3066666666666,528.48 L866.2133333333334,528.48" stroke="yellow" stroke-width="1" fill="none" />
<path d="M866.2133333333334,532.4533333333334 L1005.28,532.4533333333334" stroke="yellow" stroke-width="1" fill="none" />
<path d="M1009.2533333333333,528.48 L1009.2533333333333,369.5466666666666" stroke="yellow" stroke-width="1" fill="none" />
<path d="M1005.28,369.5466666666666 L1005.28,524.5066666666667" stroke="yellow" stroke-width="1" fill="none" />
<path d="M862.24,532.4533333333334 L862.24,639.7333333333333" stroke="yellow" stroke-width="1" fill="none" />
<path d="M1048.9866666666667,639.7333333333333 L866.2133333333334,639.7333333333333" stroke="yellow" stroke-width="1" fill="none" />
<path d="M866.2133333333334,643.7066666666667 L1048.9866666666667,643.7066666666667" stroke="yellow" stroke-width="1" fill="none" />
<path d="M866.2133333333334,639.7333333333333 L866.2133333333334,532.4533333333334" stroke="yellow" stroke-width="1" fill="none" />
<path d="M866.2133333333334,327.82666666666665 L808.5999999999999,329.81333333333333" stroke="yellow" stroke-width="1" fill="none" />
<path d="M923.8266666666666,319.88 L866.2133333333334,327.82666666666665" stroke="yellow" stroke-width="1" fill="none" />
<path d="M957.5999999999999,305.97333333333336 L923.8266666666666,319.88" stroke="yellow" stroke-width="1" fill="none" />
<path d="M959.5866666666666,311.93333333333334 L1009.2533333333333,311.93333333333334" stroke="lavender" stroke-width="1" fill="none" />
<path d="M1084.7466666666667,365.5733333333333 L1092.6933333333332,369.5466666666666" stroke="yellow" stroke-width="1" fill="none" />
<path d="M1092.6933333333332,369.5466666666666 L1102.6266666666666,371.5333333333333" stroke="yellow" stroke-width="1" fill="none" />
<path d="M1076.8,331.8 L1076.8,337.76" stroke="yellow" stroke-width="1" fill="none" />
<path d="M1076.8,337.76 L1076.8,341.73333333333335" stroke="yellow" stroke-width="1" fill="none" />
<path d="M1076.8,341.73333333333335 L1076.8,345.70666666666665" stroke="yellow" stroke-width="1" fill="none" />
<path d="M1076.8,345.70666666666665 L1076.8,351.66666666666663" stroke="yellow" stroke-width="1" fill="none" />
<path d="M1076.8,351.66666666666663 L1078.7866666666666,359.61333333333334" stroke="yellow" stroke-width="1" fill="none" />
<path d="M1078.7866666666666,359.61333333333334 L1084.7466666666667,365.5733333333333" stroke="yellow" stroke-width="1" fill="none" />
<path d="M1108.5866666666666,345.70666666666665 L1128.4533333333334,345.70666666666665" stroke="yellow" stroke-width="1" fill="none" />
<path d="M1108.5866666666666,337.76 L1128.4533333333334,337.76" stroke="yellow" stroke-width="1" fill="none" />
<path d="M1110.5733333333333,325.84 L1132.4266666666667,329.81333333333333" stroke="yellow" stroke-width="1" fill="none" />
<path d="M1102.6266666666666,371.5333333333333 L1112.56,369.5466666666666" stroke="yellow" stroke-width="1" fill="none" />
<path d="M1112.56,369.5466666666666 L1120.5066666666667,365.5733333333333" stroke="yellow" stroke-width="1" fill="none" />
<path d="M1120.5066666666667,365.5733333333333 L1126.4666666666667,359.61333333333334" stroke="yellow" stroke-width="1" fill="none" />
<path d="M1126.4666666666667,359.61333333333334 L1128.4533333333334,351.66666666666663" stroke="yellow" stroke-width="1" fill="none" />
<path d="M1128.4533333333334,351.66666666666663 L1128.4533333333334,345.70666666666665" stroke="yellow" stroke-width="1" fill="none" />
<path d="M1128.4533333333334,345.70666666666665 L1128.4533333333334,341.73333333333335" stroke="yellow" stroke-width="1" fill="none" />
<path d="M1128.4533333333334,341.73333333333335 L1128.4533333333334,337.76" stroke="yellow" stroke-width="1" fill="none" />
<path d="M1128.4533333333334,337.76 L1132.4266666666667,329.81333333333333" stroke="yellow" stroke-width="1" fill="none" />
<path d="M1132.4266666666667,329.81333333333333 L1150.3066666666666,329.81333333333333" stroke="yellow" stroke-width="1" fill="none" />
<path d="M1094.6799999999998,325.84 L1076.8,331.8" stroke="yellow" stroke-width="1" fill="none" />
<path d="M1096.6666666666665,337.76 L1076.8,337.76" stroke="yellow" stroke-width="1" fill="none" />
<path d="M1096.6666666666665,345.70666666666665 L1076.8,345.70666666666665" stroke="yellow" stroke-width="1" fill="none" />
<path d="M1096.6666666666665,349.68 L1078.7866666666666,359.61333333333334" stroke="yellow" stroke-width="1" fill="none" />
<path d="M1098.6533333333332,351.66666666666663 L1084.7466666666667,365.5733333333333" stroke="yellow" stroke-width="1" fill="none" />
<path d="M1100.6399999999999,353.6533333333333 L1092.6933333333332,369.5466666666666" stroke="yellow" stroke-width="1" fill="none" />
<path d="M1102.6266666666666,353.6533333333333 L1102.6266666666666,371.5333333333333" stroke="yellow" stroke-width="1" fill="none" />
<path d="M1104.6133333333332,353.6533333333333 L1112.56,369.5466666666666" stroke="yellow" stroke-width="1" fill="none" />
<path d="M1106.6,351.66666666666663 L1120.5066666666667,365.5733333333333" stroke="yellow" stroke-width="1" fill="none" />
<path d="M1108.5866666666666,349.68 L1126.4666666666667,359.61333333333334" stroke="yellow" stroke-width="1" fill="none" />
<path d="M1009.2533333333333,309.94666666666666 L959.5866666666666,309.94666666666666" stroke="lavender" stroke-width="1" fill="none" />
<path d="M1005.28,288.09333333333336 L959.5866666666666,305.97333333333336" stroke="yellow" stroke-width="1" fill="none" />
<path d="M959.5866666666666,313.91999999999996 L1009.2533333333333,313.91999999999996" stroke="yellow" stroke-width="1" fill="none" />
<path d="M1150.3066666666666,329.81333333333333 L1150.3066666666666,385.44" stroke="yellow" stroke-width="1" fill="none" />
<path d="M1150.3066666666666,385.44 L1134.4133333333334,385.44" stroke="yellow" stroke-width="1" fill="none" />
<path d="M1150.3066666666666,433.12 L1150.3066666666666,385.44" stroke="yellow" stroke-width="1" fill="none" />
<path d="M1134.4133333333334,433.12 L1134.4133333333334,385.44" stroke="yellow" stroke-width="1" fill="none" />
<path d="M1118.52,433.12 L1118.52,385.44" stroke="yellow" stroke-width="1" fill="none" />
<path d="M1102.6266666666666,433.12 L1102.6266666666666,385.44" stroke="yellow" stroke-width="1" fill="none" />
<path d="M1134.4133333333334,385.44 L1118.52,385.44" stroke="yellow" stroke-width="1" fill="none" />
<path d="M1118.52,385.44 L1102.6266666666666,385.44" stroke="yellow" stroke-width="1" fill="none" />
<path d="M1102.6266666666666,385.44 L1056.9333333333334,385.44" stroke="yellow" stroke-width="1" fill="none" />
<path d="M1132.4266666666667,337.76 L1132.4266666666667,353.6533333333333" stroke="lavender" stroke-width="1" fill="none" />
<path d="M1132.4266666666667,353.6533333333333 L1148.32,353.6533333333333" stroke="lavender" stroke-width="1" fill="none" />
<path d="M1148.32,353.6533333333333 L1148.32,337.76" stroke="lavender" stroke-width="1" fill="none" />
<path d="M1148.32,337.76 L1132.4266666666667,337.76" stroke="lavender" stroke-width="1" fill="none" />
<path d="M735.0933333333332,329.81333333333333 L657.6133333333333,329.81333333333333" stroke="yellow" stroke-width="1" fill="none" />
<path d="M758.9333333333333,325.84 L758.9333333333333,327.82666666666665" stroke="yellow" stroke-width="1" fill="none" />
<path d="M758.9333333333333,327.82666666666665 L774.8266666666666,327.82666666666665" stroke="yellow" stroke-width="1" fill="none" />
<path d="M774.8266666666666,327.82666666666665 L774.8266666666666,325.84" stroke="yellow" stroke-width="1" fill="none" />
<path d="M774.8266666666666,325.84 L758.9333333333333,325.84" stroke="lavender" stroke-width="1" fill="none" />
<path d="M810.5866666666666,325.84 L810.5866666666666,327.82666666666665" stroke="yellow" stroke-width="1" fill="none" />
<path d="M810.5866666666666,327.82666666666665 L826.48,327.82666666666665" stroke="yellow" stroke-width="1" fill="none" />
<path d="M826.48,327.82666666666665 L826.48,325.84" stroke="yellow" stroke-width="1" fill="none" />
<path d="M826.48,325.84 L810.5866666666666,325.84" stroke="lavender" stroke-width="1" fill="none" />
<path d="M766.88,433.12 L766.88,385.44" stroke="yellow" stroke-width="1" fill="none" />
<path d="M447.02666666666664,222.53333333333333 L447.02666666666664,220.54666666666665" stroke="yellow" stroke-width="1" fill="none" />
<path d="M447.02666666666664,220.54666666666665 L431.1333333333333,220.54666666666665" stroke="yellow" stroke-width="1" fill="none" />
<path d="M431.1333333333333,220.54666666666665 L431.1333333333333,222.53333333333333" stroke="yellow" stroke-width="1" fill="none" />
<path d="M431.1333333333333,222.53333333333333 L447.02666666666664,222.53333333333333" stroke="lavender" stroke-width="1" fill="none" />
<path d="M498.68,222.53333333333333 L498.68,220.54666666666665" stroke="yellow" stroke-width="1" fill="none" />
<path d="M498.68,220.54666666666665 L482.78666666666663,220.54666666666665" stroke="yellow" stroke-width="1" fill="none" />
<path d="M482.78666666666663,220.54666666666665 L482.78666666666663,222.53333333333333" stroke="yellow" stroke-width="1" fill="none" />
<path d="M482.78666666666663,222.53333333333333 L498.68,222.53333333333333" stroke="lavender" stroke-width="1" fill="none" />
<path d="M766.88,385.44 L739.0666666666666,385.44" stroke="yellow" stroke-width="1" fill="none" />
<path d="M776.8133333333333,329.81333333333333 L739.0666666666666,329.81333333333333" stroke="yellow" stroke-width="1" fill="none" />
<path d="M766.88,433.12 L846.3466666666666,433.12" stroke="yellow" stroke-width="1" fill="none" />
<path d="M846.3466666666666,385.44 L766.88,385.44" stroke="yellow" stroke-width="1" fill="none" />
<path d="M210.61333333333334,528.48 L258.29333333333335,528.48" stroke="yellow" stroke-width="1" fill="none" />
<path d="M210.61333333333334,536.4266666666666 L258.29333333333335,536.4266666666666" stroke="yellow" stroke-width="1" fill="none" />
<path d="M210.61333333333334,544.3733333333333 L258.29333333333335,544.3733333333333" stroke="yellow" stroke-width="1" fill="none" />
<path d="M210.61333333333334,552.3199999999999 L258.29333333333335,552.3199999999999" stroke="yellow" stroke-width="1" fill="none" />
<path d="M210.61333333333334,560.2666666666667 L258.29333333333335,560.2666666666667" stroke="yellow" stroke-width="1" fill="none" />
<path d="M210.61333333333334,568.2133333333334 L258.29333333333335,568.2133333333334" stroke="yellow" stroke-width="1" fill="none" />
<path d="M210.61333333333334,576.16 L258.29333333333335,576.16" stroke="yellow" stroke-width="1" fill="none" />
<path d="M210.61333333333334,584.1066666666667 L258.29333333333335,584.1066666666667" stroke="yellow" stroke-width="1" fill="none" />
<path d="M258.29333333333335,528.48 L258.29333333333335,536.4266666666666" stroke="yellow" stroke-width="1" fill="none" />
<path d="M258.29333333333335,536.4266666666666 L258.29333333333335,544.3733333333333" stroke="yellow" stroke-width="1" fill="none" />
<path d="M258.29333333333335,544.3733333333333 L258.29333333333335,552.3199999999999" stroke="yellow" stroke-width="1" fill="none" />
<path d="M258.29333333333335,552.3199999999999 L258.29333333333335,560.2666666666667" stroke="yellow" stroke-width="1" fill="none" />
<path d="M258.29333333333335,560.2666666666667 L258.29333333333335,568.2133333333334" stroke="yellow" stroke-width="1" fill="none" />
<path d="M258.29333333333335,568.2133333333334 L258.29333333333335,576.16" stroke="yellow" stroke-width="1" fill="none" />
<path d="M258.29333333333335,576.16 L258.29333333333335,584.1066666666667" stroke="yellow" stroke-width="1" fill="none" />
<path d="M258.29333333333335,584.1066666666667 L258.29333333333335,592.0533333333333" stroke="yellow" stroke-width="1" fill="none" />
<path d="M258.29333333333335,536.4266666666666 L305.97333333333336,536.4266666666666" stroke="yellow" stroke-width="1" fill="none" />
<path d="M258.29333333333335,544.3733333333333 L305.97333333333336,544.3733333333333" stroke="yellow" stroke-width="1" fill="none" />
<path d="M258.29333333333335,552.3199999999999 L305.97333333333336,552.3199999999999" stroke="yellow" stroke-width="1" fill="none" />
<path d="M258.29333333333335,560.2666666666667 L305.97333333333336,560.2666666666667" stroke="yellow" stroke-width="1" fill="none" />
<path d="M258.29333333333335,568.2133333333334 L305.97333333333336,568.2133333333334" stroke="yellow" stroke-width="1" fill="none" />
<path d="M258.29333333333335,576.16 L305.97333333333336,576.16" stroke="yellow" stroke-width="1" fill="none" />
<path d="M258.29333333333335,584.1066666666667 L305.97333333333336,584.1066666666667" stroke="yellow" stroke-width="1" fill="none" />
<path d="M258.29333333333335,528.48 L305.97333333333336,528.48" stroke="yellow" stroke-width="1" fill="none" />
<path d="M214.58666666666664,592.0533333333333 L252.33333333333331,592.0533333333333" stroke="yellow" stroke-width="1" fill="none" />
<path d="M264.25333333333333,592.0533333333333 L305.97333333333336,592.0533333333333" stroke="yellow" stroke-width="1" fill="none" />
<path d="M647.68,353.6533333333333 L631.7866666666666,353.6533333333333" stroke="yellow" stroke-width="1" fill="none" />
<path d="M647.68,369.5466666666666 L647.68,353.6533333333333" stroke="yellow" stroke-width="1" fill="none" />
<path d="M631.7866666666666,369.5466666666666 L647.68,369.5466666666666" stroke="yellow" stroke-width="1" fill="none" />
<path d="M631.7866666666666,353.6533333333333 L631.7866666666666,369.5466666666666" stroke="yellow" stroke-width="1" fill="none" />
<path d="M369.5466666666666,592.0533333333333 L401.3333333333333,592.0533333333333" stroke="lavender" stroke-width="1" fill="none" />
<path d="M401.3333333333333,588.0799999999999 L369.5466666666666,588.0799999999999" stroke="lavender" stroke-width="1" fill="none" />
<path d="M480.79999999999995,723.1733333333333 L480.79999999999995,762.9066666666666" stroke="yellow" stroke-width="1" fill="none" />
<path d="M488.74666666666667,719.2 L488.74666666666667,766.88" stroke="yellow" stroke-width="1" fill="none" />
<path d="M496.6933333333333,719.2 L496.6933333333333,766.88" stroke="yellow" stroke-width="1" fill="none" />
<path d="M504.64,719.2 L504.64,766.88" stroke="yellow" stroke-width="1" fill="none" />
<path d="M512.5866666666666,719.2 L512.5866666666666,766.88" stroke="yellow" stroke-width="1" fill="none" />
<path d="M750.9866666666667,480.8 L703.3066666666666,480.8" stroke="yellow" stroke-width="1" fill="none" />
<path d="M520.5333333333333,719.2 L520.5333333333333,766.88" stroke="yellow" stroke-width="1" fill="none" />
<path d="M528.48,719.2 L528.48,766.88" stroke="yellow" stroke-width="1" fill="none" />
<path d="M536.4266666666666,719.2 L536.4266666666666,766.88" stroke="yellow" stroke-width="1" fill="none" />
<path d="M544.3733333333333,719.2 L544.3733333333333,766.88" stroke="yellow" stroke-width="1" fill="none" />
<path d="M433.12,766.88 L290.08,766.88" stroke="yellow" stroke-width="1" fill="none" />
<path d="M361.6,719.2 L393.38666666666666,719.2" stroke="lavender" stroke-width="1" fill="none" />
<path d="M393.38666666666666,715.2266666666667 L361.6,715.2266666666667" stroke="lavender" stroke-width="1" fill="none" />
<path d="M290.08,766.88 L307.96000000000004,894.0266666666666" stroke="yellow" stroke-width="1" fill="none" />
<path d="M415.24,894.0266666666666 L433.12,766.88" stroke="yellow" stroke-width="1" fill="none" />
<path d="M425.1733333333333,774.8266666666666 L407.2933333333333,894.0266666666666" stroke="yellow" stroke-width="1" fill="none" />
<path d="M298.02666666666664,774.8266666666666 L425.1733333333333,774.8266666666666" stroke="yellow" stroke-width="1" fill="none" />
<path d="M315.90666666666664,894.0266666666666 L298.02666666666664,774.8266666666666" stroke="yellow" stroke-width="1" fill="none" />
<path d="M401.3333333333333,894.0266666666666 L321.8666666666667,894.0266666666666" stroke="yellow" stroke-width="1" fill="none" />
<path d="M321.8666666666667,898.0 L401.3333333333333,898.0" stroke="yellow" stroke-width="1" fill="none" />
<path d="M401.3333333333333,709.2666666666667 L353.6533333333333,709.2666666666667" stroke="lavender" stroke-width="1" fill="none" />
<path d="M480.79999999999995,766.88 L488.74666666666667,766.88" stroke="yellow" stroke-width="1" fill="none" />
<path d="M488.74666666666667,766.88 L496.6933333333333,766.88" stroke="yellow" stroke-width="1" fill="none" />
<path d="M496.6933333333333,766.88 L504.64,766.88" stroke="yellow" stroke-width="1" fill="none" />
<path d="M504.64,766.88 L512.5866666666666,766.88" stroke="yellow" stroke-width="1" fill="none" />
<path d="M512.5866666666666,766.88 L520.5333333333333,766.88" stroke="yellow" stroke-width="1" fill="none" />
<path d="M520.5333333333333,766.88 L528.48,766.88" stroke="yellow" stroke-width="1" fill="none" />
<path d="M528.48,766.88 L536.4266666666666,766.88" stroke="yellow" stroke-width="1" fill="none" />
<path d="M536.4266666666666,766.88 L544.3733333333333,766.88" stroke="yellow" stroke-width="1" fill="none" />
<path d="M385.44,806.6133333333332 L337.76,806.6133333333332" stroke="yellow" stroke-width="1" fill="none" />
<path d="M337.76,806.6133333333332 L337.76,854.2933333333333" stroke="yellow" stroke-width="1" fill="none" />
<path d="M337.76,854.2933333333333 L385.44,854.2933333333333" stroke="yellow" stroke-width="1" fill="none" />
<path d="M385.44,854.2933333333333 L385.44,806.6133333333332" stroke="yellow" stroke-width="1" fill="none" />
<path d="M369.5466666666666,903.96 L369.5466666666666,901.9733333333334" stroke="yellow" stroke-width="1" fill="none" />
<path d="M369.5466666666666,901.9733333333334 L353.6533333333333,901.9733333333334" stroke="yellow" stroke-width="1" fill="none" />
<path d="M353.6533333333333,901.9733333333334 L353.6533333333333,903.96" stroke="yellow" stroke-width="1" fill="none" />
<path d="M353.6533333333333,903.96 L369.5466666666666,903.96" stroke="lavender" stroke-width="1" fill="none" />
<path d="M899.9866666666667,588.0799999999999 L901.9733333333334,588.0799999999999" stroke="yellow" stroke-width="1" fill="none" />
<path d="M901.9733333333334,588.0799999999999 L901.9733333333334,580.1333333333333" stroke="yellow" stroke-width="1" fill="none" />
<path d="M901.9733333333334,580.1333333333333 L899.9866666666667,580.1333333333333" stroke="yellow" stroke-width="1" fill="none" />
<path d="M899.9866666666667,580.1333333333333 L899.9866666666667,588.0799999999999" stroke="yellow" stroke-width="1" fill="none" />
<path d="M878.1333333333333,576.16 L878.1333333333333,592.0533333333333" stroke="lavender" stroke-width="1" fill="none" />
<path d="M878.1333333333333,592.0533333333333 L894.0266666666666,592.0533333333333" stroke="lavender" stroke-width="1" fill="none" />
<path d="M894.0266666666666,592.0533333333333 L894.0266666666666,576.16" stroke="lavender" stroke-width="1" fill="none" />
<path d="M894.0266666666666,576.16 L878.1333333333333,576.16" stroke="lavender" stroke-width="1" fill="none" />
<path d="M890.0533333333333,570.2 L890.0533333333333,568.2133333333334" stroke="yellow" stroke-width="1" fill="none" />
<path d="M890.0533333333333,568.2133333333334 L882.1066666666666,568.2133333333334" stroke="yellow" stroke-width="1" fill="none" />
<path d="M882.1066666666666,568.2133333333334 L882.1066666666666,570.2" stroke="yellow" stroke-width="1" fill="none" />
<path d="M882.1066666666666,570.2 L890.0533333333333,570.2" stroke="yellow" stroke-width="1" fill="none" />
<path d="M882.1066666666666,598.0133333333333 L882.1066666666666,600.0" stroke="yellow" stroke-width="1" fill="none" />
<path d="M882.1066666666666,600.0 L890.0533333333333,600.0" stroke="yellow" stroke-width="1" fill="none" />
<path d="M890.0533333333333,600.0 L890.0533333333333,598.0133333333333" stroke="yellow" stroke-width="1" fill="none" />
<path d="M890.0533333333333,598.0133333333333 L882.1066666666666,598.0133333333333" stroke="yellow" stroke-width="1" fill="none" />
<path d="M1056.9333333333334,429.14666666666665 L1056.9333333333334,389.4133333333333" stroke="lavender" stroke-width="1" fill="none" />
<path d="M1052.96,389.4133333333333 L1052.96,429.14666666666665" stroke="lavender" stroke-width="1" fill="none" />
<path d="M194.72000000000003,925.8133333333333 L226.50666666666666,925.8133333333333" stroke="lavender" stroke-width="1" fill="none" />
<path d="M226.50666666666666,921.8399999999999 L194.72000000000003,921.8399999999999" stroke="lavender" stroke-width="1" fill="none" />
<path d="M194.72000000000003,715.2266666666667 L226.50666666666666,715.2266666666667" stroke="yellow" stroke-width="1" fill="none" />
<path d="M194.72000000000003,844.3599999999999 L226.50666666666666,844.3599999999999" stroke="yellow" stroke-width="1" fill="none" />
<path d="M194.72000000000003,836.4133333333333 L226.50666666666666,836.4133333333333" stroke="yellow" stroke-width="1" fill="none" />
<path d="M194.72000000000003,828.4666666666667 L226.50666666666666,828.4666666666667" stroke="yellow" stroke-width="1" fill="none" />
<path d="M194.72000000000003,820.52 L226.50666666666666,820.52" stroke="yellow" stroke-width="1" fill="none" />
<path d="M194.72000000000003,812.5733333333333 L226.50666666666666,812.5733333333333" stroke="yellow" stroke-width="1" fill="none" />
<path d="M194.72000000000003,804.6266666666667 L226.50666666666666,804.6266666666667" stroke="yellow" stroke-width="1" fill="none" />
<path d="M194.72000000000003,796.68 L226.50666666666666,796.68" stroke="yellow" stroke-width="1" fill="none" />
<path d="M194.72000000000003,788.7333333333333 L226.50666666666666,788.7333333333333" stroke="yellow" stroke-width="1" fill="none" />
<path d="M194.72000000000003,780.7866666666666 L226.50666666666666,780.7866666666666" stroke="yellow" stroke-width="1" fill="none" />
<path d="M194.72000000000003,772.8399999999999 L226.50666666666666,772.8399999999999" stroke="yellow" stroke-width="1" fill="none" />
<path d="M194.72000000000003,764.8933333333333 L226.50666666666666,764.8933333333333" stroke="yellow" stroke-width="1" fill="none" />
<path d="M194.72000000000003,756.9466666666667 L226.50666666666666,756.9466666666667" stroke="yellow" stroke-width="1" fill="none" />
<path d="M194.72000000000003,749.0 L226.50666666666666,749.0" stroke="yellow" stroke-width="1" fill="none" />
<path d="M194.72000000000003,741.0533333333333 L226.50666666666666,741.0533333333333" stroke="yellow" stroke-width="1" fill="none" />
<path d="M194.72000000000003,733.1066666666666 L226.50666666666666,733.1066666666666" stroke="yellow" stroke-width="1" fill="none" />
<path d="M194.72000000000003,725.16 L226.50666666666666,725.16" stroke="yellow" stroke-width="1" fill="none" />
<path d="M258.29333333333335,695.36 L258.29333333333335,715.2266666666667" stroke="yellow" stroke-width="1" fill="none" />
<path d="M353.6533333333333,433.12 L353.6533333333333,385.44" stroke="yellow" stroke-width="1" fill="none" />
<path d="M395.37333333333333,941.7066666666667 L363.5866666666667,941.7066666666667" stroke="yellow" stroke-width="1" fill="none" />
<path d="M359.61333333333334,941.7066666666667 L327.82666666666665,941.7066666666667" stroke="yellow" stroke-width="1" fill="none" />
<path d="M327.82666666666665,973.4933333333333 L353.6533333333333,973.4933333333333" stroke="yellow" stroke-width="1" fill="none" />
<path d="M369.5466666666666,973.4933333333333 L395.37333333333333,973.4933333333333" stroke="yellow" stroke-width="1" fill="none" />
<path d="M747.0133333333333,182.8 L754.96,151.01333333333332" stroke="yellow" stroke-width="1" fill="none" />
<path d="M210.61333333333334,449.0133333333333 L210.61333333333334,385.44" stroke="yellow" stroke-width="1" fill="none" />
<path d="M206.64,385.44 L206.64,449.0133333333333" stroke="yellow" stroke-width="1" fill="none" />
<path d="M405.3066666666667,174.85333333333335 L516.56,23.866666666666674" stroke="yellow" stroke-width="1" fill="none" />
<path d="M762.9066666666666,23.866666666666674 L858.2666666666667,174.85333333333335" stroke="yellow" stroke-width="1" fill="none" />
<path d="M858.2666666666667,174.85333333333335 L858.2666666666667,218.56" stroke="yellow" stroke-width="1" fill="none" />
<path d="M405.3066666666667,218.56 L405.3066666666667,174.85333333333335" stroke="yellow" stroke-width="1" fill="none" />
<path d="M405.3066666666667,218.56 L449.0133333333333,218.56" stroke="yellow" stroke-width="1" fill="none" />
<path d="M401.3333333333333,218.56 L405.3066666666667,218.56" stroke="yellow" stroke-width="1" fill="none" />
<path d="M858.2666666666667,218.56 L862.24,218.56" stroke="yellow" stroke-width="1" fill="none" />
<path d="M657.6133333333333,218.56 L858.2666666666667,218.56" stroke="yellow" stroke-width="1" fill="none" />
<path d="M516.56,23.866666666666674 L596.0266666666666,23.866666666666674" stroke="yellow" stroke-width="1" fill="none" />
<path d="M596.0266666666666,23.866666666666674 L611.92,7.973333333333358" stroke="yellow" stroke-width="1" fill="none" />
<path d="M611.92,7.973333333333358 L667.5466666666666,7.973333333333358" stroke="yellow" stroke-width="1" fill="none" />
<path d="M667.5466666666666,7.973333333333358 L683.4399999999999,23.866666666666674" stroke="yellow" stroke-width="1" fill="none" />
<path d="M683.4399999999999,23.866666666666674 L762.9066666666666,23.866666666666674" stroke="yellow" stroke-width="1" fill="none" />
<path d="M858.2666666666667,218.56 L858.2666666666667,222.53333333333333" stroke="yellow" stroke-width="1" fill="none" />
<path d="M858.2666666666667,222.53333333333333 L951.64,222.53333333333333" stroke="yellow" stroke-width="1" fill="none" />
<path d="M951.64,222.53333333333333 L973.4933333333333,210.61333333333334" stroke="yellow" stroke-width="1" fill="none" />
<path d="M973.4933333333333,210.61333333333334 L981.4399999999999,210.61333333333334" stroke="yellow" stroke-width="1" fill="none" />
<path d="M981.4399999999999,210.61333333333334 L1005.28,288.09333333333336" stroke="yellow" stroke-width="1" fill="none" />
<path d="M979.4533333333334,204.65333333333334 L981.4399999999999,210.61333333333334" stroke="yellow" stroke-width="1" fill="none" />
<path d="M315.90666666666664,212.6 L401.3333333333333,224.52" stroke="yellow" stroke-width="1" fill="none" />
<path d="M268.2266666666667,216.57333333333332 L315.90666666666664,212.6" stroke="yellow" stroke-width="1" fill="none" />
<path d="M232.46666666666664,236.44 L268.2266666666667,216.57333333333332" stroke="yellow" stroke-width="1" fill="none" />
<path d="M216.57333333333332,284.12 L232.46666666666664,236.44" stroke="yellow" stroke-width="1" fill="none" />
<path d="M210.61333333333334,329.81333333333333 L216.57333333333332,284.12" stroke="yellow" stroke-width="1" fill="none" />
<path d="M258.29333333333335,321.8666666666667 L242.39999999999998,321.8666666666667" stroke="yellow" stroke-width="1" fill="none" />
<path d="M401.3333333333333,224.52 L405.3066666666667,218.56" stroke="yellow" stroke-width="1" fill="none" />
<path d="M131.14666666666665,496.6933333333333 L83.4666666666667,496.6933333333333" stroke="yellow" stroke-width="1" fill="none" />
<path d="M353.6533333333333,1068.8533333333332 L353.6533333333333,1084.7466666666667" stroke="lavender" stroke-width="1" fill="none" />
<path d="M353.6533333333333,1084.7466666666667 L369.5466666666666,1084.7466666666667" stroke="lavender" stroke-width="1" fill="none" />
<path d="M369.5466666666666,1084.7466666666667 L369.5466666666666,1068.8533333333332" stroke="lavender" stroke-width="1" fill="none" />
<path d="M369.5466666666666,1068.8533333333332 L353.6533333333333,1068.8533333333332" stroke="lavender" stroke-width="1" fill="none" />
<path d="M242.39999999999998,973.4933333333333 L242.39999999999998,941.7066666666667" stroke="yellow" stroke-width="1" fill="none" />
<path d="M99.36000000000001,369.5466666666666 L115.25333333333333,369.5466666666666" stroke="lavender" stroke-width="1" fill="none" />
<path d="M226.50666666666666,941.7066666666667 L226.50666666666666,925.8133333333333" stroke="yellow" stroke-width="1" fill="none" />
<path d="M226.50666666666666,973.4933333333333 L226.50666666666666,941.7066666666667" stroke="lavender" stroke-width="1" fill="none" />
<path d="M226.50666666666666,989.3866666666667 L226.50666666666666,973.4933333333333" stroke="yellow" stroke-width="1" fill="none" />
<path d="M226.50666666666666,941.7066666666667 L242.39999999999998,941.7066666666667" stroke="yellow" stroke-width="1" fill="none" />
<path d="M242.39999999999998,973.4933333333333 L226.50666666666666,973.4933333333333" stroke="yellow" stroke-width="1" fill="none" />
<path d="M178.82666666666665,973.4933333333333 L178.82666666666665,941.7066666666667" stroke="lavender" stroke-width="1" fill="none" />
<path d="M174.85333333333335,941.7066666666667 L174.85333333333335,973.4933333333333" stroke="lavender" stroke-width="1" fill="none" />
<path d="M83.4666666666667,449.0133333333333 L131.14666666666665,449.0133333333333" stroke="lavender" stroke-width="1" fill="none" />
<path d="M158.95999999999998,421.2 L123.19999999999999,385.44" stroke="lavender" stroke-width="1" fill="none" />
<path d="M137.10666666666668,443.05333333333334 L153.0,427.15999999999997" stroke="lavender" stroke-width="1" fill="none" />
<path d="M61.613333333333344,427.15999999999997 L77.50666666666666,443.05333333333334" stroke="lavender" stroke-width="1" fill="none" />
<path d="M115.25333333333333,385.44 L99.36000000000001,385.44" stroke="lavender" stroke-width="1" fill="none" />
<path d="M91.41333333333336,385.44 L55.653333333333364,421.2" stroke="lavender" stroke-width="1" fill="none" />
<path d="M703.3066666666666,433.12 L750.9866666666667,433.12" stroke="yellow" stroke-width="1" fill="none" />
<path d="M750.9866666666667,449.0133333333333 L750.9866666666667,433.12" stroke="lavender" stroke-width="1" fill="none" />
<path d="M703.3066666666666,449.0133333333333 L750.9866666666667,449.0133333333333" stroke="lavender" stroke-width="1" fill="none" />
<path d="M703.3066666666666,433.12 L703.3066666666666,449.0133333333333" stroke="lavender" stroke-width="1" fill="none" />
<path d="M750.9866666666667,449.0133333333333 L750.9866666666667,480.8" stroke="yellow" stroke-width="1" fill="none" />
<path d="M178.82666666666665,1052.96 L162.93333333333334,1052.96" stroke="lavender" stroke-width="1" fill="none" />
<path d="M162.93333333333334,1021.1733333333333 L162.93333333333334,1052.96" stroke="lavender" stroke-width="1" fill="none" />
<path d="M536.4266666666666,91.41333333333336 L532.4533333333334,95.38666666666666" stroke="red" stroke-width="1" fill="none" />
<path d="M532.4533333333334,95.38666666666666 L532.4533333333334,99.36000000000001" stroke="red" stroke-width="1" fill="none" />
<path d="M532.4533333333334,99.36000000000001 L536.4266666666666,103.33333333333331" stroke="red" stroke-width="1" fill="none" />
<path d="M536.4266666666666,103.33333333333331 L540.4,103.33333333333331" stroke="red" stroke-width="1" fill="none" />
<path d="M540.4,103.33333333333331 L544.3733333333333,99.36000000000001" stroke="red" stroke-width="1" fill="none" />
<path d="M544.3733333333333,99.36000000000001 L544.3733333333333,95.38666666666666" stroke="red" stroke-width="1" fill="none" />
<path d="M540.4,91.41333333333336 L536.4266666666666,91.41333333333336" stroke="red" stroke-width="1" fill="none" />
<path d="M544.3733333333333,95.38666666666666 L540.4,91.41333333333336" stroke="red" stroke-width="1" fill="none" />
<path d="M558.28,156.97333333333336 L554.3066666666666,160.94666666666666" stroke="red" stroke-width="1" fill="none" />
<path d="M554.3066666666666,160.94666666666666 L554.3066666666666,164.92000000000002" stroke="red" stroke-width="1" fill="none" />
<path d="M554.3066666666666,164.92000000000002 L558.28,168.89333333333332" stroke="red" stroke-width="1" fill="none" />
<path d="M558.28,168.89333333333332 L562.2533333333333,168.89333333333332" stroke="red" stroke-width="1" fill="none" />
<path d="M562.2533333333333,168.89333333333332 L566.2266666666667,164.92000000000002" stroke="red" stroke-width="1" fill="none" />
<path d="M566.2266666666667,164.92000000000002 L566.2266666666667,160.94666666666666" stroke="red" stroke-width="1" fill="none" />
<path d="M562.2533333333333,156.97333333333336 L558.28,156.97333333333336" stroke="red" stroke-width="1" fill="none" />
<path d="M566.2266666666667,160.94666666666666 L562.2533333333333,156.97333333333336" stroke="red" stroke-width="1" fill="none" />
<path d="M717.2133333333334,156.97333333333336 L713.24,160.94666666666666" stroke="red" stroke-width="1" fill="none" />
<path d="M713.24,160.94666666666666 L713.24,164.92000000000002" stroke="red" stroke-width="1" fill="none" />
<path d="M713.24,164.92000000000002 L717.2133333333334,168.89333333333332" stroke="red" stroke-width="1" fill="none" />
<path d="M717.2133333333334,168.89333333333332 L721.1866666666666,168.89333333333332" stroke="red" stroke-width="1" fill="none" />
<path d="M721.1866666666666,168.89333333333332 L725.16,164.92000000000002" stroke="red" stroke-width="1" fill="none" />
<path d="M725.16,164.92000000000002 L725.16,160.94666666666666" stroke="red" stroke-width="1" fill="none" />
<path d="M721.1866666666666,156.97333333333336 L717.2133333333334,156.97333333333336" stroke="red" stroke-width="1" fill="none" />
<path d="M725.16,160.94666666666666 L721.1866666666666,156.97333333333336" stroke="red" stroke-width="1" fill="none" />
<path d="M739.0666666666666,89.42666666666668 L735.0933333333332,93.39999999999998" stroke="red" stroke-width="1" fill="none" />
<path d="M735.0933333333332,93.39999999999998 L735.0933333333332,97.37333333333333" stroke="red" stroke-width="1" fill="none" />
<path d="M735.0933333333332,97.37333333333333 L739.0666666666666,101.34666666666669" stroke="red" stroke-width="1" fill="none" />
<path d="M739.0666666666666,101.34666666666669 L743.04,101.34666666666669" stroke="red" stroke-width="1" fill="none" />
<path d="M743.04,101.34666666666669 L747.0133333333333,97.37333333333333" stroke="red" stroke-width="1" fill="none" />
<path d="M747.0133333333333,97.37333333333333 L747.0133333333333,93.39999999999998" stroke="red" stroke-width="1" fill="none" />
<path d="M743.04,89.42666666666668 L739.0666666666666,89.42666666666668" stroke="red" stroke-width="1" fill="none" />
<path d="M747.0133333333333,93.39999999999998 L743.04,89.42666666666668" stroke="red" stroke-width="1" fill="none" />
<path d="M637.7466666666667,156.97333333333336 L633.7733333333333,160.94666666666666" stroke="red" stroke-width="1" fill="none" />
<path d="M633.7733333333333,160.94666666666666 L633.7733333333333,164.92000000000002" stroke="red" stroke-width="1" fill="none" />
<path d="M633.7733333333333,164.92000000000002 L637.7466666666667,168.89333333333332" stroke="red" stroke-width="1" fill="none" />
<path d="M637.7466666666667,168.89333333333332 L641.72,168.89333333333332" stroke="red" stroke-width="1" fill="none" />
<path d="M641.72,168.89333333333332 L645.6933333333333,164.92000000000002" stroke="red" stroke-width="1" fill="none" />
<path d="M645.6933333333333,164.92000000000002 L645.6933333333333,160.94666666666666" stroke="red" stroke-width="1" fill="none" />
<path d="M641.72,156.97333333333336 L637.7466666666667,156.97333333333336" stroke="red" stroke-width="1" fill="none" />
<path d="M645.6933333333333,160.94666666666666 L641.72,156.97333333333336" stroke="red" stroke-width="1" fill="none" />
<path d="M621.8533333333334,210.61333333333334 L621.8533333333334,218.56" stroke="red" stroke-width="1" fill="none" />
<path d="M657.6133333333333,218.56 L657.6133333333333,210.61333333333334" stroke="red" stroke-width="1" fill="none" />
<path d="M657.6133333333333,337.76 L657.6133333333333,329.81333333333333" stroke="red" stroke-width="1" fill="none" />
<path d="M657.6133333333333,329.81333333333333 L655.6266666666667,329.81333333333333" stroke="red" stroke-width="1" fill="none" />
<path d="M653.64,329.81333333333333 L653.64,337.76" stroke="red" stroke-width="1" fill="none" />
<path d="M653.64,337.76 L657.6133333333333,337.76" stroke="red" stroke-width="1" fill="none" />
<path d="M621.8533333333334,337.76 L625.8266666666666,337.76" stroke="red" stroke-width="1" fill="none" />
<path d="M625.8266666666666,337.76 L625.8266666666666,329.81333333333333" stroke="red" stroke-width="1" fill="none" />
<path d="M623.84,329.81333333333333 L621.8533333333334,329.81333333333333" stroke="red" stroke-width="1" fill="none" />
<path d="M621.8533333333334,329.81333333333333 L621.8533333333334,337.76" stroke="red" stroke-width="1" fill="none" />
<path d="M655.6266666666667,329.81333333333333 L653.64,329.81333333333333" stroke="red" stroke-width="1" fill="none" />
<path d="M625.8266666666666,329.81333333333333 L623.84,329.81333333333333" stroke="red" stroke-width="1" fill="none" />
<path d="M625.8266666666666,210.61333333333334 L621.8533333333334,210.61333333333334" stroke="red" stroke-width="1" fill="none" />
<path d="M657.6133333333333,210.61333333333334 L653.64,210.61333333333334" stroke="red" stroke-width="1" fill="none" />
<path d="M653.64,218.56 L655.6266666666667,218.56" stroke="red" stroke-width="1" fill="none" />
<path d="M655.6266666666667,218.56 L657.6133333333333,218.56" stroke="red" stroke-width="1" fill="none" />
<path d="M621.8533333333334,218.56 L623.84,218.56" stroke="red" stroke-width="1" fill="none" />
<path d="M623.84,218.56 L625.8266666666666,218.56" stroke="red" stroke-width="1" fill="none" />
<path d="M625.8266666666666,218.56 L625.8266666666666,210.61333333333334" stroke="red" stroke-width="1" fill="none" />
<path d="M653.64,210.61333333333334 L653.64,218.56" stroke="red" stroke-width="1" fill="none" />
<path d="M764.8933333333333,91.41333333333336 L764.8933333333333,87.44" stroke="red" stroke-width="1" fill="none" />
<path d="M762.9066666666666,91.41333333333336 L764.8933333333333,91.41333333333336" stroke="red" stroke-width="1" fill="none" />
<path d="M762.9066666666666,87.44 L762.9066666666666,91.41333333333336" stroke="red" stroke-width="1" fill="none" />
<path d="M764.8933333333333,87.44 L762.9066666666666,87.44" stroke="red" stroke-width="1" fill="none" />
<path d="M516.56,91.41333333333336 L516.56,87.44" stroke="red" stroke-width="1" fill="none" />
<path d="M514.5733333333333,91.41333333333336 L516.56,91.41333333333336" stroke="red" stroke-width="1" fill="none" />
<path d="M514.5733333333333,87.44 L514.5733333333333,91.41333333333336" stroke="red" stroke-width="1" fill="none" />
<path d="M516.56,87.44 L514.5733333333333,87.44" stroke="red" stroke-width="1" fill="none" />
<path d="M552.3199999999999,385.44 L552.3199999999999,391.4" stroke="red" stroke-width="1" fill="none" />
<path d="M552.3199999999999,391.4 L568.2133333333334,391.4" stroke="red" stroke-width="1" fill="none" />
<path d="M568.2133333333334,391.4 L568.2133333333334,385.44" stroke="red" stroke-width="1" fill="none" />
<path d="M568.2133333333334,385.44 L552.3199999999999,385.44" stroke="lavender" stroke-width="1" fill="none" />
<path d="M1005.28,369.5466666666666 L1009.2533333333333,369.5466666666666" stroke="red" stroke-width="1" fill="none" />
<path d="M1009.2533333333333,369.5466666666666 L1052.96,369.5466666666666" stroke="red" stroke-width="1" fill="none" />
<path d="M1052.96,433.12 L1052.96,639.7333333333333" stroke="red" stroke-width="1" fill="none" />
<path d="M1052.96,643.7066666666667 L1052.96,703.3066666666666" stroke="red" stroke-width="1" fill="none" />
<path d="M1052.96,703.3066666666666 L782.7733333333333,703.3066666666666" stroke="red" stroke-width="1" fill="none" />
<path d="M782.7733333333333,703.3066666666666 L782.7733333333333,480.8" stroke="red" stroke-width="1" fill="none" />
<path d="M464.90666666666664,480.8 L464.90666666666664,528.48" stroke="red" stroke-width="1" fill="none" />
<path d="M464.90666666666664,528.48 L305.97333333333336,528.48" stroke="red" stroke-width="1" fill="none" />
<path d="M1005.28,524.5066666666667 L1001.3066666666666,528.48" stroke="red" stroke-width="1" fill="none" />
<path d="M1001.3066666666666,528.48 L1005.28,532.4533333333334" stroke="red" stroke-width="1" fill="none" />
<path d="M1005.28,532.4533333333334 L1009.2533333333333,528.48" stroke="red" stroke-width="1" fill="none" />
<path d="M1009.2533333333333,528.48 L1005.28,524.5066666666667" stroke="red" stroke-width="1" fill="none" />
<path d="M866.2133333333334,528.48 L862.24,528.48" stroke="red" stroke-width="1" fill="none" />
<path d="M862.24,528.48 L862.24,532.4533333333334" stroke="red" stroke-width="1" fill="none" />
<path d="M862.24,532.4533333333334 L866.2133333333334,532.4533333333334" stroke="red" stroke-width="1" fill="none" />
<path d="M866.2133333333334,532.4533333333334 L866.2133333333334,528.48" stroke="red" stroke-width="1" fill="none" />
<path d="M866.2133333333334,639.7333333333333 L862.24,639.7333333333333" stroke="red" stroke-width="1" fill="none" />
<path d="M862.24,639.7333333333333 L862.24,643.7066666666667" stroke="red" stroke-width="1" fill="none" />
<path d="M862.24,643.7066666666667 L866.2133333333334,643.7066666666667" stroke="red" stroke-width="1" fill="none" />
<path d="M866.2133333333334,643.7066666666667 L866.2133333333334,639.7333333333333" stroke="red" stroke-width="1" fill="none" />
<path d="M1048.9866666666667,639.7333333333333 L1048.9866666666667,643.7066666666667" stroke="red" stroke-width="1" fill="none" />
<path d="M1048.9866666666667,643.7066666666667 L1052.96,643.7066666666667" stroke="red" stroke-width="1" fill="none" />
<path d="M1052.96,639.7333333333333 L1048.9866666666667,639.7333333333333" stroke="red" stroke-width="1" fill="none" />
<path d="M957.5999999999999,305.97333333333336 L957.5999999999999,355.64" stroke="red" stroke-width="1" fill="none" />
<path d="M957.5999999999999,355.64 L1005.28,369.5466666666666" stroke="red" stroke-width="1" fill="none" />
<path d="M1005.28,367.56 L959.5866666666666,353.6533333333333" stroke="red" stroke-width="1" fill="none" />
<path d="M1094.6799999999998,325.84 L1096.6666666666665,331.8" stroke="red" stroke-width="1" fill="none" />
<path d="M1096.6666666666665,331.8 L1096.6666666666665,337.76" stroke="red" stroke-width="1" fill="none" />
<path d="M1096.6666666666665,337.76 L1096.6666666666665,345.70666666666665" stroke="red" stroke-width="1" fill="none" />
<path d="M1096.6666666666665,345.70666666666665 L1096.6666666666665,349.68" stroke="red" stroke-width="1" fill="none" />
<path d="M1096.6666666666665,349.68 L1098.6533333333332,351.66666666666663" stroke="red" stroke-width="1" fill="none" />
<path d="M1098.6533333333332,351.66666666666663 L1100.6399999999999,353.6533333333333" stroke="red" stroke-width="1" fill="none" />
<path d="M1100.6399999999999,353.6533333333333 L1102.6266666666666,353.6533333333333" stroke="red" stroke-width="1" fill="none" />
<path d="M1102.6266666666666,353.6533333333333 L1104.6133333333332,353.6533333333333" stroke="red" stroke-width="1" fill="none" />
<path d="M1104.6133333333332,353.6533333333333 L1106.6,351.66666666666663" stroke="red" stroke-width="1" fill="none" />
<path d="M1106.6,351.66666666666663 L1108.5866666666666,349.68" stroke="red" stroke-width="1" fill="none" />
<path d="M1108.5866666666666,349.68 L1108.5866666666666,345.70666666666665" stroke="red" stroke-width="1" fill="none" />
<path d="M1108.5866666666666,345.70666666666665 L1108.5866666666666,337.76" stroke="red" stroke-width="1" fill="none" />
<path d="M1108.5866666666666,337.76 L1108.5866666666666,331.8" stroke="red" stroke-width="1" fill="none" />
<path d="M1108.5866666666666,331.8 L1110.5733333333333,325.84" stroke="red" stroke-width="1" fill="none" />
<path d="M1110.5733333333333,325.84 L1114.5466666666666,319.88" stroke="red" stroke-width="1" fill="none" />
<path d="M1114.5466666666666,319.88 L1114.5466666666666,290.08" stroke="red" stroke-width="1" fill="none" />
<path d="M1114.5466666666666,290.08 L1180.1066666666666,290.08" stroke="red" stroke-width="1" fill="none" />
<path d="M1005.28,288.09333333333336 L1009.2533333333333,305.97333333333336" stroke="red" stroke-width="1" fill="none" />
<path d="M1009.2533333333333,309.94666666666666 L1009.2533333333333,311.93333333333334" stroke="red" stroke-width="1" fill="none" />
<path d="M959.5866666666666,311.93333333333334 L959.5866666666666,309.94666666666666" stroke="red" stroke-width="1" fill="none" />
<path d="M1094.6799999999998,313.91999999999996 L1094.6799999999998,325.84" stroke="red" stroke-width="1" fill="none" />
<path d="M1056.9333333333334,385.44 L1056.9333333333334,367.56" stroke="red" stroke-width="1" fill="none" />
<path d="M1056.9333333333334,367.56 L1005.28,367.56" stroke="red" stroke-width="1" fill="none" />
<path d="M959.5866666666666,309.94666666666666 L959.5866666666666,305.97333333333336" stroke="red" stroke-width="1" fill="none" />
<path d="M959.5866666666666,305.97333333333336 L957.5999999999999,305.97333333333336" stroke="red" stroke-width="1" fill="none" />
<path d="M1009.2533333333333,311.93333333333334 L1009.2533333333333,313.91999999999996" stroke="red" stroke-width="1" fill="none" />
<path d="M959.5866666666666,313.91999999999996 L959.5866666666666,311.93333333333334" stroke="red" stroke-width="1" fill="none" />
<path d="M959.5866666666666,353.6533333333333 L959.5866666666666,313.91999999999996" stroke="red" stroke-width="1" fill="none" />
<path d="M1180.1066666666666,290.08 L1196.0,305.97333333333336" stroke="red" stroke-width="1" fill="none" />
<path d="M1196.0,305.97333333333336 L1196.0,417.22666666666663" stroke="red" stroke-width="1" fill="none" />
<path d="M1196.0,417.22666666666663 L1180.1066666666666,433.12" stroke="red" stroke-width="1" fill="none" />
<path d="M1150.3066666666666,433.12 L1134.4133333333334,433.12" stroke="red" stroke-width="1" fill="none" />
<path d="M1134.4133333333334,433.12 L1118.52,433.12" stroke="red" stroke-width="1" fill="none" />
<path d="M1118.52,433.12 L1102.6266666666666,433.12" stroke="red" stroke-width="1" fill="none" />
<path d="M1102.6266666666666,433.12 L1056.9333333333334,433.12" stroke="red" stroke-width="1" fill="none" />
<path d="M1180.1066666666666,433.12 L1150.3066666666666,433.12" stroke="red" stroke-width="1" fill="none" />
<path d="M1052.96,369.5466666666666 L1052.96,385.44" stroke="red" stroke-width="1" fill="none" />
<path d="M735.0933333333332,329.81333333333333 L735.0933333333332,385.44" stroke="red" stroke-width="1" fill="none" />
<path d="M739.0666666666666,385.44 L739.0666666666666,329.81333333333333" stroke="red" stroke-width="1" fill="none" />
<path d="M739.0666666666666,329.81333333333333 L735.0933333333332,329.81333333333333" stroke="red" stroke-width="1" fill="none" />
<path d="M735.0933333333332,385.44 L739.0666666666666,385.44" stroke="red" stroke-width="1" fill="none" />
<path d="M1009.2533333333333,313.91999999999996 L1094.6799999999998,313.91999999999996" stroke="red" stroke-width="1" fill="none" />
<path d="M210.61333333333334,536.4266666666666 L210.61333333333334,528.48" stroke="red" stroke-width="1" fill="none" />
<path d="M210.61333333333334,544.3733333333333 L210.61333333333334,536.4266666666666" stroke="red" stroke-width="1" fill="none" />
<path d="M210.61333333333334,552.3199999999999 L210.61333333333334,544.3733333333333" stroke="red" stroke-width="1" fill="none" />
<path d="M210.61333333333334,560.2666666666667 L210.61333333333334,552.3199999999999" stroke="red" stroke-width="1" fill="none" />
<path d="M210.61333333333334,568.2133333333334 L210.61333333333334,560.2666666666667" stroke="red" stroke-width="1" fill="none" />
<path d="M210.61333333333334,576.16 L210.61333333333334,568.2133333333334" stroke="red" stroke-width="1" fill="none" />
<path d="M210.61333333333334,584.1066666666667 L210.61333333333334,576.16" stroke="red" stroke-width="1" fill="none" />
<path d="M210.61333333333334,592.0533333333333 L210.61333333333334,584.1066666666667" stroke="red" stroke-width="1" fill="none" />
<path d="M305.97333333333336,528.48 L305.97333333333336,536.4266666666666" stroke="red" stroke-width="1" fill="none" />
<path d="M305.97333333333336,536.4266666666666 L305.97333333333336,544.3733333333333" stroke="red" stroke-width="1" fill="none" />
<path d="M305.97333333333336,544.3733333333333 L305.97333333333336,552.3199999999999" stroke="red" stroke-width="1" fill="none" />
<path d="M305.97333333333336,552.3199999999999 L305.97333333333336,560.2666666666667" stroke="red" stroke-width="1" fill="none" />
<path d="M305.97333333333336,560.2666666666667 L305.97333333333336,568.2133333333334" stroke="red" stroke-width="1" fill="none" />
<path d="M305.97333333333336,568.2133333333334 L305.97333333333336,576.16" stroke="red" stroke-width="1" fill="none" />
<path d="M305.97333333333336,576.16 L305.97333333333336,584.1066666666667" stroke="red" stroke-width="1" fill="none" />
<path d="M305.97333333333336,584.1066666666667 L305.97333333333336,592.0533333333333" stroke="red" stroke-width="1" fill="none" />
<path d="M252.33333333333331,592.0533333333333 L252.33333333333331,596.0266666666666" stroke="red" stroke-width="1" fill="none" />
<path d="M210.61333333333334,596.0266666666666 L214.58666666666664,596.0266666666666" stroke="red" stroke-width="1" fill="none" />
<path d="M353.6533333333333,639.7333333333333 L262.26666666666665,639.7333333333333" stroke="red" stroke-width="1" fill="none" />
<path d="M262.26666666666665,639.7333333333333 L260.28,596.0266666666666" stroke="red" stroke-width="1" fill="none" />
<path d="M305.97333333333336,592.0533333333333 L369.5466666666666,592.0533333333333" stroke="red" stroke-width="1" fill="none" />
<path d="M401.3333333333333,588.0799999999999 L401.3333333333333,592.0533333333333" stroke="red" stroke-width="1" fill="none" />
<path d="M369.5466666666666,588.0799999999999 L369.5466666666666,544.3733333333333" stroke="red" stroke-width="1" fill="none" />
<path d="M369.5466666666666,544.3733333333333 L449.0133333333333,544.3733333333333" stroke="red" stroke-width="1" fill="none" />
<path d="M449.0133333333333,544.3733333333333 L449.0133333333333,623.8399999999999" stroke="red" stroke-width="1" fill="none" />
<path d="M449.0133333333333,623.8399999999999 L405.3066666666667,623.8399999999999" stroke="red" stroke-width="1" fill="none" />
<path d="M353.6533333333333,715.2266666666667 L353.6533333333333,709.2666666666667" stroke="red" stroke-width="1" fill="none" />
<path d="M401.3333333333333,623.8399999999999 L401.3333333333333,709.2666666666667" stroke="red" stroke-width="1" fill="none" />
<path d="M401.3333333333333,719.2 L476.82666666666665,719.2" stroke="red" stroke-width="1" fill="none" />
<path d="M274.18666666666667,719.2 L353.6533333333333,719.2" stroke="red" stroke-width="1" fill="none" />
<path d="M254.32,639.7333333333333 L254.32,687.4133333333333" stroke="red" stroke-width="1" fill="none" />
<path d="M242.39999999999998,862.24 L242.39999999999998,750.9866666666667" stroke="red" stroke-width="1" fill="none" />
<path d="M480.79999999999995,719.2 L488.74666666666667,719.2" stroke="red" stroke-width="1" fill="none" />
<path d="M488.74666666666667,719.2 L496.6933333333333,719.2" stroke="red" stroke-width="1" fill="none" />
<path d="M496.6933333333333,719.2 L504.64,719.2" stroke="red" stroke-width="1" fill="none" />
<path d="M504.64,719.2 L512.5866666666666,719.2" stroke="red" stroke-width="1" fill="none" />
<path d="M592.0533333333333,703.3066666666666 L592.0533333333333,766.88" stroke="red" stroke-width="1" fill="none" />
<path d="M544.3733333333333,719.2 L544.3733333333333,671.52" stroke="red" stroke-width="1" fill="none" />
<path d="M544.3733333333333,671.52 L578.1466666666666,623.8399999999999" stroke="red" stroke-width="1" fill="none" />
<path d="M615.8933333333333,671.52 L592.0533333333333,703.3066666666666" stroke="red" stroke-width="1" fill="none" />
<path d="M750.9866666666667,671.52 L615.8933333333333,671.52" stroke="red" stroke-width="1" fill="none" />
<path d="M578.1466666666666,623.8399999999999 L703.3066666666666,623.8399999999999" stroke="red" stroke-width="1" fill="none" />
<path d="M703.3066666666666,623.8399999999999 L703.3066666666666,480.8" stroke="red" stroke-width="1" fill="none" />
<path d="M750.9866666666667,480.8 L750.9866666666667,671.52" stroke="red" stroke-width="1" fill="none" />
<path d="M782.7733333333333,480.8 L750.9866666666667,480.8" stroke="red" stroke-width="1" fill="none" />
<path d="M703.3066666666666,480.8 L464.90666666666664,480.8" stroke="red" stroke-width="1" fill="none" />
<path d="M512.5866666666666,719.2 L520.5333333333333,719.2" stroke="red" stroke-width="1" fill="none" />
<path d="M520.5333333333333,719.2 L528.48,719.2" stroke="red" stroke-width="1" fill="none" />
<path d="M528.48,719.2 L536.4266666666666,719.2" stroke="red" stroke-width="1" fill="none" />
<path d="M536.4266666666666,719.2 L544.3733333333333,719.2" stroke="red" stroke-width="1" fill="none" />
<path d="M592.0533333333333,766.88 L544.3733333333333,766.88" stroke="red" stroke-width="1" fill="none" />
<path d="M254.32,687.4133333333333 L178.82666666666665,687.4133333333333" stroke="red" stroke-width="1" fill="none" />
<path d="M131.14666666666665,639.7333333333333 L210.61333333333334,639.7333333333333" stroke="red" stroke-width="1" fill="none" />
<path d="M401.3333333333333,709.2666666666667 L401.3333333333333,715.2266666666667" stroke="red" stroke-width="1" fill="none" />
<path d="M393.38666666666666,715.2266666666667 L393.38666666666666,719.2" stroke="red" stroke-width="1" fill="none" />
<path d="M361.6,719.2 L361.6,715.2266666666667" stroke="red" stroke-width="1" fill="none" />
<path d="M528.48,814.56 L496.6933333333333,830.4533333333334" stroke="red" stroke-width="1" fill="none" />
<path d="M496.6933333333333,830.4533333333334 L480.79999999999995,862.24" stroke="red" stroke-width="1" fill="none" />
<path d="M544.3733333333333,766.88 L528.48,814.56" stroke="red" stroke-width="1" fill="none" />
<path d="M307.96000000000004,894.0266666666666 L274.18666666666667,894.0266666666666" stroke="red" stroke-width="1" fill="none" />
<path d="M449.0133333333333,894.0266666666666 L415.24,894.0266666666666" stroke="red" stroke-width="1" fill="none" />
<path d="M274.18666666666667,898.0 L321.8666666666667,898.0" stroke="red" stroke-width="1" fill="none" />
<path d="M401.3333333333333,894.0266666666666 L401.3333333333333,898.0" stroke="red" stroke-width="1" fill="none" />
<path d="M256.3066666666667,596.0266666666666 L254.32,639.7333333333333" stroke="red" stroke-width="1" fill="none" />
<path d="M210.61333333333334,639.7333333333333 L210.61333333333334,596.0266666666666" stroke="red" stroke-width="1" fill="none" />
<path d="M476.82666666666665,719.2 L476.82666666666665,723.1733333333333" stroke="red" stroke-width="1" fill="none" />
<path d="M476.82666666666665,723.1733333333333 L480.79999999999995,723.1733333333333" stroke="red" stroke-width="1" fill="none" />
<path d="M480.79999999999995,723.1733333333333 L480.79999999999995,719.2" stroke="red" stroke-width="1" fill="none" />
<path d="M214.58666666666664,596.0266666666666 L214.58666666666664,592.0533333333333" stroke="red" stroke-width="1" fill="none" />
<path d="M214.58666666666664,592.0533333333333 L210.61333333333334,592.0533333333333" stroke="red" stroke-width="1" fill="none" />
<path d="M252.33333333333331,596.0266666666666 L256.3066666666667,596.0266666666666" stroke="red" stroke-width="1" fill="none" />
<path d="M258.29333333333335,592.0533333333333 L252.33333333333331,592.0533333333333" stroke="red" stroke-width="1" fill="none" />
<path d="M264.25333333333333,592.0533333333333 L258.29333333333335,592.0533333333333" stroke="red" stroke-width="1" fill="none" />
<path d="M264.25333333333333,596.0266666666666 L264.25333333333333,592.0533333333333" stroke="red" stroke-width="1" fill="none" />
<path d="M260.28,596.0266666666666 L264.25333333333333,596.0266666666666" stroke="red" stroke-width="1" fill="none" />
<path d="M480.79999999999995,766.88 L480.79999999999995,762.9066666666666" stroke="red" stroke-width="1" fill="none" />
<path d="M480.79999999999995,762.9066666666666 L476.82666666666665,762.9066666666666" stroke="red" stroke-width="1" fill="none" />
<path d="M476.82666666666665,762.9066666666666 L476.82666666666665,766.88" stroke="red" stroke-width="1" fill="none" />
<path d="M476.82666666666665,766.88 L480.79999999999995,766.88" stroke="red" stroke-width="1" fill="none" />
<path d="M1052.96,389.4133333333333 L1056.9333333333334,389.4133333333333" stroke="red" stroke-width="1" fill="none" />
<path d="M1056.9333333333334,429.14666666666665 L1052.96,429.14666666666665" stroke="red" stroke-width="1" fill="none" />
<path d="M1056.9333333333334,433.12 L1056.9333333333334,429.14666666666665" stroke="red" stroke-width="1" fill="none" />
<path d="M1052.96,429.14666666666665 L1052.96,433.12" stroke="red" stroke-width="1" fill="none" />
<path d="M1052.96,385.44 L1052.96,389.4133333333333" stroke="red" stroke-width="1" fill="none" />
<path d="M1056.9333333333334,389.4133333333333 L1056.9333333333334,385.44" stroke="red" stroke-width="1" fill="none" />
<path d="M194.72000000000003,925.8133333333333 L194.72000000000003,921.8399999999999" stroke="red" stroke-width="1" fill="none" />
<path d="M226.50666666666666,921.8399999999999 L226.50666666666666,925.8133333333333" stroke="red" stroke-width="1" fill="none" />
<path d="M194.72000000000003,921.8399999999999 L194.72000000000003,844.3599999999999" stroke="red" stroke-width="1" fill="none" />
<path d="M194.72000000000003,695.36 L258.29333333333335,695.36" stroke="red" stroke-width="1" fill="none" />
<path d="M258.29333333333335,695.36 L258.29333333333335,643.7066666666667" stroke="red" stroke-width="1" fill="none" />
<path d="M258.29333333333335,643.7066666666667 L349.68,643.7066666666667" stroke="red" stroke-width="1" fill="none" />
<path d="M349.68,643.7066666666667 L349.68,715.2266666666667" stroke="red" stroke-width="1" fill="none" />
<path d="M194.72000000000003,715.2266666666667 L194.72000000000003,695.36" stroke="red" stroke-width="1" fill="none" />
<path d="M226.50666666666666,844.3599999999999 L226.50666666666666,921.8399999999999" stroke="red" stroke-width="1" fill="none" />
<path d="M226.50666666666666,836.4133333333333 L226.50666666666666,844.3599999999999" stroke="red" stroke-width="1" fill="none" />
<path d="M194.72000000000003,844.3599999999999 L194.72000000000003,836.4133333333333" stroke="red" stroke-width="1" fill="none" />
<path d="M226.50666666666666,828.4666666666667 L226.50666666666666,836.4133333333333" stroke="red" stroke-width="1" fill="none" />
<path d="M194.72000000000003,836.4133333333333 L194.72000000000003,828.4666666666667" stroke="red" stroke-width="1" fill="none" />
<path d="M226.50666666666666,820.52 L226.50666666666666,828.4666666666667" stroke="red" stroke-width="1" fill="none" />
<path d="M194.72000000000003,828.4666666666667 L194.72000000000003,820.52" stroke="red" stroke-width="1" fill="none" />
<path d="M226.50666666666666,812.5733333333333 L226.50666666666666,820.52" stroke="red" stroke-width="1" fill="none" />
<path d="M194.72000000000003,820.52 L194.72000000000003,812.5733333333333" stroke="red" stroke-width="1" fill="none" />
<path d="M226.50666666666666,804.6266666666667 L226.50666666666666,812.5733333333333" stroke="red" stroke-width="1" fill="none" />
<path d="M194.72000000000003,812.5733333333333 L194.72000000000003,804.6266666666667" stroke="red" stroke-width="1" fill="none" />
<path d="M226.50666666666666,796.68 L226.50666666666666,804.6266666666667" stroke="red" stroke-width="1" fill="none" />
<path d="M194.72000000000003,804.6266666666667 L194.72000000000003,796.68" stroke="red" stroke-width="1" fill="none" />
<path d="M226.50666666666666,788.7333333333333 L226.50666666666666,796.68" stroke="red" stroke-width="1" fill="none" />
<path d="M194.72000000000003,796.68 L194.72000000000003,788.7333333333333" stroke="red" stroke-width="1" fill="none" />
<path d="M226.50666666666666,780.7866666666666 L226.50666666666666,788.7333333333333" stroke="red" stroke-width="1" fill="none" />
<path d="M194.72000000000003,788.7333333333333 L194.72000000000003,780.7866666666666" stroke="red" stroke-width="1" fill="none" />
<path d="M226.50666666666666,772.8399999999999 L226.50666666666666,780.7866666666666" stroke="red" stroke-width="1" fill="none" />
<path d="M194.72000000000003,780.7866666666666 L194.72000000000003,772.8399999999999" stroke="red" stroke-width="1" fill="none" />
<path d="M226.50666666666666,764.8933333333333 L226.50666666666666,772.8399999999999" stroke="red" stroke-width="1" fill="none" />
<path d="M194.72000000000003,772.8399999999999 L194.72000000000003,764.8933333333333" stroke="red" stroke-width="1" fill="none" />
<path d="M226.50666666666666,756.9466666666667 L226.50666666666666,764.8933333333333" stroke="red" stroke-width="1" fill="none" />
<path d="M194.72000000000003,764.8933333333333 L194.72000000000003,756.9466666666667" stroke="red" stroke-width="1" fill="none" />
<path d="M226.50666666666666,749.0 L226.50666666666666,756.9466666666667" stroke="red" stroke-width="1" fill="none" />
<path d="M194.72000000000003,756.9466666666667 L194.72000000000003,749.0" stroke="red" stroke-width="1" fill="none" />
<path d="M226.50666666666666,741.0533333333333 L226.50666666666666,749.0" stroke="red" stroke-width="1" fill="none" />
<path d="M194.72000000000003,749.0 L194.72000000000003,741.0533333333333" stroke="red" stroke-width="1" fill="none" />
<path d="M226.50666666666666,733.1066666666666 L226.50666666666666,741.0533333333333" stroke="red" stroke-width="1" fill="none" />
<path d="M194.72000000000003,741.0533333333333 L194.72000000000003,733.1066666666666" stroke="red" stroke-width="1" fill="none" />
<path d="M226.50666666666666,725.16 L226.50666666666666,733.1066666666666" stroke="red" stroke-width="1" fill="none" />
<path d="M194.72000000000003,733.1066666666666 L194.72000000000003,725.16" stroke="red" stroke-width="1" fill="none" />
<path d="M226.50666666666666,715.2266666666667 L226.50666666666666,725.16" stroke="red" stroke-width="1" fill="none" />
<path d="M194.72000000000003,725.16 L194.72000000000003,715.2266666666667" stroke="red" stroke-width="1" fill="none" />
<path d="M258.29333333333335,715.2266666666667 L226.50666666666666,715.2266666666667" stroke="red" stroke-width="1" fill="none" />
<path d="M349.68,715.2266666666667 L258.29333333333335,715.2266666666667" stroke="red" stroke-width="1" fill="none" />
<path d="M369.5466666666666,592.0533333333333 L369.5466666666666,588.0799999999999" stroke="red" stroke-width="1" fill="none" />
<path d="M401.3333333333333,715.2266666666667 L393.38666666666666,715.2266666666667" stroke="red" stroke-width="1" fill="none" />
<path d="M393.38666666666666,719.2 L401.3333333333333,719.2" stroke="red" stroke-width="1" fill="none" />
<path d="M361.6,715.2266666666667 L353.6533333333333,715.2266666666667" stroke="red" stroke-width="1" fill="none" />
<path d="M353.6533333333333,719.2 L361.6,719.2" stroke="red" stroke-width="1" fill="none" />
<path d="M353.6533333333333,709.2666666666667 L353.6533333333333,639.7333333333333" stroke="red" stroke-width="1" fill="none" />
<path d="M405.3066666666667,623.8399999999999 L405.3066666666667,588.0799999999999" stroke="red" stroke-width="1" fill="none" />
<path d="M405.3066666666667,588.0799999999999 L401.3333333333333,588.0799999999999" stroke="red" stroke-width="1" fill="none" />
<path d="M401.3333333333333,592.0533333333333 L401.3333333333333,623.8399999999999" stroke="red" stroke-width="1" fill="none" />
<path d="M315.90666666666664,894.0266666666666 L307.96000000000004,894.0266666666666" stroke="red" stroke-width="1" fill="none" />
<path d="M415.24,894.0266666666666 L407.2933333333333,894.0266666666666" stroke="red" stroke-width="1" fill="none" />
<path d="M321.8666666666667,894.0266666666666 L315.90666666666664,894.0266666666666" stroke="red" stroke-width="1" fill="none" />
<path d="M407.2933333333333,894.0266666666666 L401.3333333333333,894.0266666666666" stroke="red" stroke-width="1" fill="none" />
<path d="M242.39999999999998,750.9866666666667 L274.18666666666667,719.2" stroke="red" stroke-width="1" fill="none" />
<path d="M274.18666666666667,894.0266666666666 L242.39999999999998,862.24" stroke="red" stroke-width="1" fill="none" />
<path d="M480.79999999999995,862.24 L449.0133333333333,894.0266666666666" stroke="red" stroke-width="1" fill="none" />
<path d="M401.3333333333333,898.0 L449.0133333333333,898.0" stroke="red" stroke-width="1" fill="none" />
<path d="M321.8666666666667,898.0 L321.8666666666667,894.0266666666666" stroke="red" stroke-width="1" fill="none" />
<path d="M433.12,973.4933333333333 L401.3333333333333,941.7066666666667" stroke="red" stroke-width="1" fill="none" />
<path d="M321.8666666666667,941.7066666666667 L290.08,973.4933333333333" stroke="red" stroke-width="1" fill="none" />
<path d="M433.12,1021.1733333333333 L433.12,973.4933333333333" stroke="red" stroke-width="1" fill="none" />
<path d="M290.08,973.4933333333333 L290.08,1021.1733333333333" stroke="red" stroke-width="1" fill="none" />
<path d="M290.08,1021.1733333333333 L305.97333333333336,1021.1733333333333" stroke="red" stroke-width="1" fill="none" />
<path d="M305.97333333333336,1021.1733333333333 L321.8666666666667,989.3866666666667" stroke="red" stroke-width="1" fill="none" />
<path d="M321.8666666666667,989.3866666666667 L321.8666666666667,973.4933333333333" stroke="red" stroke-width="1" fill="none" />
<path d="M401.3333333333333,973.4933333333333 L401.3333333333333,989.3866666666667" stroke="red" stroke-width="1" fill="none" />
<path d="M401.3333333333333,989.3866666666667 L417.2266666666667,1021.1733333333333" stroke="red" stroke-width="1" fill="none" />
<path d="M417.2266666666667,1021.1733333333333 L433.12,1021.1733333333333" stroke="red" stroke-width="1" fill="none" />
<path d="M449.0133333333333,898.0 L480.79999999999995,925.8133333333333" stroke="red" stroke-width="1" fill="none" />
<path d="M242.39999999999998,925.8133333333333 L274.18666666666667,898.0" stroke="red" stroke-width="1" fill="none" />
<path d="M353.6533333333333,973.4933333333333 L369.5466666666666,973.4933333333333" stroke="red" stroke-width="1" fill="none" />
<path d="M480.79999999999995,925.8133333333333 L480.79999999999995,989.3866666666667" stroke="red" stroke-width="1" fill="none" />
<path d="M480.79999999999995,989.3866666666667 L464.90666666666664,1005.28" stroke="red" stroke-width="1" fill="none" />
<path d="M464.90666666666664,1005.28 L464.90666666666664,1068.8533333333332" stroke="red" stroke-width="1" fill="none" />
<path d="M258.29333333333335,1005.28 L242.39999999999998,989.3866666666667" stroke="red" stroke-width="1" fill="none" />
<path d="M258.29333333333335,1068.8533333333332 L258.29333333333335,1005.28" stroke="red" stroke-width="1" fill="none" />
<path d="M321.8666666666667,973.4933333333333 L327.82666666666665,973.4933333333333" stroke="red" stroke-width="1" fill="none" />
<path d="M395.37333333333333,973.4933333333333 L401.3333333333333,973.4933333333333" stroke="red" stroke-width="1" fill="none" />
<path d="M395.37333333333333,941.7066666666667 L395.37333333333333,973.4933333333333" stroke="red" stroke-width="1" fill="none" />
<path d="M401.3333333333333,941.7066666666667 L395.37333333333333,941.7066666666667" stroke="red" stroke-width="1" fill="none" />
<path d="M327.82666666666665,973.4933333333333 L327.82666666666665,941.7066666666667" stroke="red" stroke-width="1" fill="none" />
<path d="M327.82666666666665,941.7066666666667 L321.8666666666667,941.7066666666667" stroke="red" stroke-width="1" fill="none" />
<path d="M359.61333333333334,941.7066666666667 L353.6533333333333,973.4933333333333" stroke="red" stroke-width="1" fill="none" />
<path d="M369.5466666666666,973.4933333333333 L363.5866666666667,941.7066666666667" stroke="red" stroke-width="1" fill="none" />
<path d="M363.5866666666667,941.7066666666667 L359.61333333333334,941.7066666666667" stroke="red" stroke-width="1" fill="none" />
<path d="M401.3333333333333,170.88 L512.5866666666666,19.893333333333317" stroke="red" stroke-width="1" fill="none" />
<path d="M1009.2533333333333,242.4 L1023.16,280.14666666666665" stroke="red" stroke-width="1" fill="none" />
<path d="M1005.28,208.62666666666667 L1009.2533333333333,242.4" stroke="red" stroke-width="1" fill="none" />
<path d="M979.4533333333334,204.65333333333334 L1005.28,208.62666666666667" stroke="red" stroke-width="1" fill="none" />
<path d="M210.61333333333334,385.44 L210.61333333333334,333.78666666666663" stroke="red" stroke-width="1" fill="none" />
<path d="M210.61333333333334,528.48 L210.61333333333334,449.0133333333333" stroke="red" stroke-width="1" fill="none" />
<path d="M206.64,385.44 L210.61333333333334,385.44" stroke="red" stroke-width="1" fill="none" />
<path d="M210.61333333333334,449.0133333333333 L206.64,449.0133333333333" stroke="red" stroke-width="1" fill="none" />
<path d="M162.93333333333334,345.70666666666665 L206.64,385.44" stroke="red" stroke-width="1" fill="none" />
<path d="M766.88,19.893333333333317 L862.24,170.88" stroke="red" stroke-width="1" fill="none" />
<path d="M862.24,170.88 L862.24,218.56" stroke="red" stroke-width="1" fill="none" />
<path d="M401.3333333333333,218.56 L401.3333333333333,170.88" stroke="red" stroke-width="1" fill="none" />
<path d="M687.4133333333333,19.893333333333317 L766.88,19.893333333333317" stroke="red" stroke-width="1" fill="none" />
<path d="M512.5866666666666,19.893333333333317 L592.0533333333333,19.893333333333317" stroke="red" stroke-width="1" fill="none" />
<path d="M592.0533333333333,19.893333333333317 L607.9466666666666,4.0" stroke="red" stroke-width="1" fill="none" />
<path d="M607.9466666666666,4.0 L671.52,4.0" stroke="red" stroke-width="1" fill="none" />
<path d="M671.52,4.0 L687.4133333333333,19.893333333333317" stroke="red" stroke-width="1" fill="none" />
<path d="M862.24,218.56 L947.6666666666666,218.56" stroke="red" stroke-width="1" fill="none" />
<path d="M947.6666666666666,218.56 L973.4933333333333,204.65333333333334" stroke="red" stroke-width="1" fill="none" />
<path d="M973.4933333333333,204.65333333333334 L979.4533333333334,204.65333333333334" stroke="red" stroke-width="1" fill="none" />
<path d="M321.8666666666667,206.64 L401.3333333333333,218.56" stroke="red" stroke-width="1" fill="none" />
<path d="M266.24,210.61333333333334 L321.8666666666667,206.64" stroke="red" stroke-width="1" fill="none" />
<path d="M226.50666666666666,234.45333333333332 L266.24,210.61333333333334" stroke="red" stroke-width="1" fill="none" />
<path d="M210.61333333333334,284.12 L226.50666666666666,234.45333333333332" stroke="red" stroke-width="1" fill="none" />
<path d="M204.6533333333333,327.82666666666665 L210.61333333333334,284.12" stroke="red" stroke-width="1" fill="none" />
<path d="M210.61333333333334,329.81333333333333 L204.6533333333333,327.82666666666665" stroke="red" stroke-width="1" fill="none" />
<path d="M210.61333333333334,333.78666666666663 L210.61333333333334,329.81333333333333" stroke="red" stroke-width="1" fill="none" />
<path d="M131.14666666666665,496.6933333333333 L131.14666666666665,639.7333333333333" stroke="red" stroke-width="1" fill="none" />
<path d="M178.82666666666665,687.4133333333333 L131.14666666666665,719.2" stroke="red" stroke-width="1" fill="none" />
<path d="M131.14666666666665,719.2 L51.68000000000001,719.2" stroke="red" stroke-width="1" fill="none" />
<path d="M51.68000000000001,719.2 L4.0,687.4133333333333" stroke="red" stroke-width="1" fill="none" />
<path d="M4.0,687.4133333333333 L4.0,639.7333333333333" stroke="red" stroke-width="1" fill="none" />
<path d="M4.0,639.7333333333333 L19.893333333333317,592.0533333333333" stroke="red" stroke-width="1" fill="none" />
<path d="M19.893333333333317,592.0533333333333 L51.68000000000001,560.2666666666667" stroke="red" stroke-width="1" fill="none" />
<path d="M51.68000000000001,560.2666666666667 L83.4666666666667,560.2666666666667" stroke="red" stroke-width="1" fill="none" />
<path d="M83.4666666666667,560.2666666666667 L83.4666666666667,496.6933333333333" stroke="red" stroke-width="1" fill="none" />
<path d="M242.39999999999998,989.3866666666667 L242.39999999999998,973.4933333333333" stroke="red" stroke-width="1" fill="none" />
<path d="M242.39999999999998,941.7066666666667 L242.39999999999998,925.8133333333333" stroke="red" stroke-width="1" fill="none" />
<path d="M226.50666666666666,925.8133333333333 L242.39999999999998,941.7066666666667" stroke="red" stroke-width="1" fill="none" />
<path d="M242.39999999999998,973.4933333333333 L226.50666666666666,989.3866666666667" stroke="red" stroke-width="1" fill="none" />
<path d="M194.72000000000003,989.3866666666667 L178.82666666666665,973.4933333333333" stroke="red" stroke-width="1" fill="none" />
<path d="M178.82666666666665,941.7066666666667 L194.72000000000003,925.8133333333333" stroke="red" stroke-width="1" fill="none" />
<path d="M274.18666666666667,1084.7466666666667 L258.29333333333335,1068.8533333333332" stroke="red" stroke-width="1" fill="none" />
<path d="M464.90666666666664,1068.8533333333332 L449.0133333333333,1084.7466666666667" stroke="red" stroke-width="1" fill="none" />
<path d="M449.0133333333333,1084.7466666666667 L401.3333333333333,1100.6399999999999" stroke="red" stroke-width="1" fill="none" />
<path d="M401.3333333333333,1100.6399999999999 L321.8666666666667,1100.6399999999999" stroke="red" stroke-width="1" fill="none" />
<path d="M321.8666666666667,1100.6399999999999 L274.18666666666667,1084.7466666666667" stroke="red" stroke-width="1" fill="none" />
<path d="M218.56,989.3866666666667 L202.66666666666669,989.3866666666667" stroke="lavender" stroke-width="1" fill="none" />
<path d="M226.50666666666666,989.3866666666667 L218.56,989.3866666666667" stroke="red" stroke-width="1" fill="none" />
<path d="M202.66666666666669,989.3866666666667 L194.72000000000003,989.3866666666667" stroke="red" stroke-width="1" fill="none" />
<path d="M174.85333333333335,941.7066666666667 L178.82666666666665,941.7066666666667" stroke="red" stroke-width="1" fill="none" />
<path d="M178.82666666666665,973.4933333333333 L174.85333333333335,973.4933333333333" stroke="red" stroke-width="1" fill="none" />
<path d="M83.4666666666667,941.7066666666667 L174.85333333333335,941.7066666666667" stroke="red" stroke-width="1" fill="none" />
<path d="M174.85333333333335,973.4933333333333 L115.25333333333333,973.4933333333333" stroke="red" stroke-width="1" fill="none" />
<path d="M53.666666666666686,625.8266666666666 L45.72000000000003,651.6533333333333" stroke="red" stroke-width="1" fill="none" />
<path d="M45.72000000000003,651.6533333333333 L45.72000000000003,675.4933333333333" stroke="red" stroke-width="1" fill="none" />
<path d="M45.72000000000003,675.4933333333333 L69.56,691.3866666666667" stroke="red" stroke-width="1" fill="none" />
<path d="M69.56,691.3866666666667 L109.29333333333335,691.3866666666667" stroke="red" stroke-width="1" fill="none" />
<path d="M109.29333333333335,691.3866666666667 L133.13333333333333,675.4933333333333" stroke="red" stroke-width="1" fill="none" />
<path d="M133.13333333333333,675.4933333333333 L133.13333333333333,667.5466666666666" stroke="red" stroke-width="1" fill="none" />
<path d="M133.13333333333333,667.5466666666666 L93.39999999999998,667.5466666666666" stroke="red" stroke-width="1" fill="none" />
<path d="M93.39999999999998,667.5466666666666 L69.56,657.6133333333333" stroke="red" stroke-width="1" fill="none" />
<path d="M69.56,657.6133333333333 L61.613333333333344,625.8266666666666" stroke="red" stroke-width="1" fill="none" />
<path d="M55.653333333333364,490.73333333333335 L19.893333333333317,449.0133333333333" stroke="red" stroke-width="1" fill="none" />
<path d="M83.4666666666667,337.76 L131.14666666666665,337.76" stroke="red" stroke-width="1" fill="none" />
<path d="M194.72000000000003,449.0133333333333 L158.95999999999998,490.73333333333335" stroke="red" stroke-width="1" fill="none" />
<path d="M158.95999999999998,490.73333333333335 L131.14666666666665,496.6933333333333" stroke="red" stroke-width="1" fill="none" />
<path d="M83.4666666666667,496.6933333333333 L55.653333333333364,490.73333333333335" stroke="red" stroke-width="1" fill="none" />
<path d="M206.64,449.0133333333333 L194.72000000000003,449.0133333333333" stroke="red" stroke-width="1" fill="none" />
<path d="M19.893333333333317,449.0133333333333 L7.973333333333358,449.0133333333333" stroke="red" stroke-width="1" fill="none" />
<path d="M7.973333333333358,449.0133333333333 L7.973333333333358,385.44" stroke="red" stroke-width="1" fill="none" />
<path d="M7.973333333333358,385.44 L51.68000000000001,345.70666666666665" stroke="red" stroke-width="1" fill="none" />
<path d="M51.68000000000001,345.70666666666665 L83.4666666666667,337.76" stroke="red" stroke-width="1" fill="none" />
<path d="M131.14666666666665,337.76 L162.93333333333334,345.70666666666665" stroke="red" stroke-width="1" fill="none" />
<path d="M115.25333333333333,369.5466666666666 L115.25333333333333,385.44" stroke="red" stroke-width="1" fill="none" />
<path d="M99.36000000000001,385.44 L99.36000000000001,369.5466666666666" stroke="red" stroke-width="1" fill="none" />
<path d="M99.36000000000001,353.6533333333333 L115.25333333333333,353.6533333333333" stroke="red" stroke-width="1" fill="none" />
<path d="M153.0,427.15999999999997 L184.7866666666667,451.0" stroke="red" stroke-width="1" fill="none" />
<path d="M160.94666666666666,478.81333333333333 L137.10666666666668,443.05333333333334" stroke="red" stroke-width="1" fill="none" />
<path d="M184.7866666666667,451.0 L160.94666666666666,478.81333333333333" stroke="red" stroke-width="1" fill="none" />
<path d="M29.82666666666671,451.0 L61.613333333333344,427.15999999999997" stroke="red" stroke-width="1" fill="none" />
<path d="M53.666666666666686,478.81333333333333 L29.82666666666671,451.0" stroke="red" stroke-width="1" fill="none" />
<path d="M77.50666666666666,443.05333333333334 L53.666666666666686,478.81333333333333" stroke="red" stroke-width="1" fill="none" />
<path d="M194.72000000000003,449.0133333333333 L158.95999999999998,421.2" stroke="red" stroke-width="1" fill="none" />
<path d="M123.19999999999999,385.44 L131.14666666666665,337.76" stroke="red" stroke-width="1" fill="none" />
<path d="M83.4666666666667,337.76 L91.41333333333336,385.44" stroke="red" stroke-width="1" fill="none" />
<path d="M55.653333333333364,421.2 L19.893333333333317,449.0133333333333" stroke="red" stroke-width="1" fill="none" />
<path d="M55.653333333333364,490.73333333333335 L83.4666666666667,449.0133333333333" stroke="red" stroke-width="1" fill="none" />
<path d="M131.14666666666665,449.0133333333333 L158.95999999999998,490.73333333333335" stroke="red" stroke-width="1" fill="none" />
<path d="M83.4666666666667,592.0533333333333 L83.4666666666667,607.9466666666667" stroke="red" stroke-width="1" fill="none" />
<path d="M83.4666666666667,607.9466666666667 L87.44,625.8266666666666" stroke="red" stroke-width="1" fill="none" />
<path d="M87.44,625.8266666666666 L99.36000000000001,631.7866666666666" stroke="red" stroke-width="1" fill="none" />
<path d="M99.36000000000001,631.7866666666666 L109.29333333333335,631.7866666666666" stroke="red" stroke-width="1" fill="none" />
<path d="M109.29333333333335,631.7866666666666 L109.29333333333335,592.0533333333333" stroke="red" stroke-width="1" fill="none" />
<path d="M109.29333333333335,592.0533333333333 L83.4666666666667,592.0533333333333" stroke="red" stroke-width="1" fill="none" />
<path d="M83.4666666666667,449.0133333333333 L77.50666666666666,443.05333333333334" stroke="red" stroke-width="1" fill="none" />
<path d="M61.613333333333344,427.15999999999997 L55.653333333333364,421.2" stroke="red" stroke-width="1" fill="none" />
<path d="M158.95999999999998,421.2 L153.0,427.15999999999997" stroke="red" stroke-width="1" fill="none" />
<path d="M137.10666666666668,443.05333333333334 L131.14666666666665,449.0133333333333" stroke="red" stroke-width="1" fill="none" />
<path d="M115.25333333333333,385.44 L123.19999999999999,385.44" stroke="red" stroke-width="1" fill="none" />
<path d="M91.41333333333336,385.44 L99.36000000000001,385.44" stroke="red" stroke-width="1" fill="none" />
<path d="M61.613333333333344,625.8266666666666 L53.666666666666686,625.8266666666666" stroke="red" stroke-width="1" fill="none" />
<path d="M99.36000000000001,369.5466666666666 L99.36000000000001,353.6533333333333" stroke="red" stroke-width="1" fill="none" />
<path d="M115.25333333333333,353.6533333333333 L115.25333333333333,369.5466666666666" stroke="red" stroke-width="1" fill="none" />
<path d="M1023.16,280.14666666666665 L1005.28,288.09333333333336" stroke="red" stroke-width="1" fill="none" />
<path d="M1009.2533333333333,305.97333333333336 L1009.2533333333333,309.94666666666666" stroke="red" stroke-width="1" fill="none" />
<path d="M83.4666666666667,1052.96 L83.4666666666667,941.7066666666667" stroke="red" stroke-width="1" fill="none" />
<path d="M115.25333333333333,973.4933333333333 L115.25333333333333,1021.1733333333333" stroke="red" stroke-width="1" fill="none" />
<path d="M115.25333333333333,1021.1733333333333 L162.93333333333334,1021.1733333333333" stroke="red" stroke-width="1" fill="none" />
<path d="M162.93333333333334,1021.1733333333333 L178.82666666666665,1035.08" stroke="red" stroke-width="1" fill="none" />
<path d="M162.93333333333334,1068.8533333333332 L162.93333333333334,1052.96" stroke="red" stroke-width="1" fill="none" />
<path d="M178.82666666666665,1068.8533333333332 L162.93333333333334,1068.8533333333332" stroke="red" stroke-width="1" fill="none" />
<path d="M178.82666666666665,1052.96 L178.82666666666665,1068.8533333333332" stroke="red" stroke-width="1" fill="none" />
<path d="M178.82666666666665,1035.08 L178.82666666666665,1052.96" stroke="red" stroke-width="1" fill="none" />
<path d="M162.93333333333334,1052.96 L83.4666666666667,1052.96" stroke="red" stroke-width="1" fill="none" />
</svg>