<?xml version="1.0" encoding="UTF-8"?>
<svg xmlns="http://www.w3.org/2000/svg" xmlns:xlink="http://www.w3.org/1999/xlink"
     width="1200" height="1058" viewBox="0 0 1200 1058">
<defs>
</defs>
<path d="M101.64971751412429,785.1977401129944 L101.64971751412429,839.0734463276837" stroke="lavender" stroke-width="2" fill="none" />
<path d="M108.38418079096044,839.0734463276837 L108.38418079096044,785.1977401129944" stroke="lavender" stroke-width="2" fill="none" />
<path d="M10.734463276836209,812.135593220339 L10.734463276836209,785.1977401129944" stroke="yellow" stroke-width="2" fill="none" />
<path d="M232.9717514124294,785.1977401129944 L232.9717514124294,839.0734463276837" stroke="lavender" stroke-width="2" fill="none" />
<path d="M118.4858757062147,839.0734463276837 L118.4858757062147,785.1977401129944" stroke="yellow" stroke-width="2" fill="none" />
<path d="M243.07344632768365,785.1977401129944 L303.6836158192091,785.1977401129944" stroke="yellow" stroke-width="2" fill="none" />
<path d="M303.6836158192091,839.0734463276837 L243.07344632768365,839.0734463276837" stroke="yellow" stroke-width="2" fill="none" />
<path d="M310.4180790960452,785.1977401129944 L310.4180790960452,839.0734463276837" stroke="lavender" stroke-width="2" fill="none" />
<path d="M226.23728813559325,785.1977401129944 L226.23728813559325,839.0734463276837" stroke="yellow" stroke-width="2" fill="none" />
<path d="M185.83050847457628,650.5084745762713 L199.29943502824858,650.5084745762713" stroke="yellow" stroke-width="2" fill="none" />
<path d="M226.23728813559325,650.5084745762713 L239.70621468926555,650.5084745762713" stroke="yellow" stroke-width="2" fill="none" />
<path d="M226.23728813559325,721.2203389830509 L226.23728813559325,758.2598870056497" stroke="yellow" stroke-width="2" fill="none" />
<path d="M145.4237288135593,721.2203389830509 L226.23728813559325,721.2203389830509" stroke="yellow" stroke-width="2" fill="none" />
<path d="M303.6836158192091,785.1977401129944 L303.6836158192091,839.0734463276837" stroke="yellow" stroke-width="2" fill="none" />
<path d="M317.1525423728814,839.0734463276837 L317.1525423728814,785.1977401129944" stroke="lavender" stroke-width="2" fill="none" />
<path d="M226.23728813559325,879.4802259887006 L226.23728813559325,919.8870056497176" stroke="yellow" stroke-width="2" fill="none" />
<path d="M243.07344632768365,879.4802259887006 L303.6836158192091,879.4802259887006" stroke="yellow" stroke-width="2" fill="none" />
<path d="M243.07344632768365,919.8870056497176 L243.07344632768365,879.4802259887006" stroke="yellow" stroke-width="2" fill="none" />
<path d="M387.86440677966107,731.3220338983051 L360.9265536723164,677.4463276836159" stroke="yellow" stroke-width="2" fill="none" />
<path d="M387.86440677966107,842.4406779661017 L387.86440677966107,781.8305084745763" stroke="yellow" stroke-width="2" fill="none" />
<path d="M387.86440677966107,781.8305084745763 L387.86440677966107,764.9943502824859" stroke="yellow" stroke-width="2" fill="none" />
<path d="M387.86440677966107,764.9943502824859 L387.86440677966107,744.7909604519774" stroke="yellow" stroke-width="2" fill="none" />
<path d="M387.86440677966107,744.7909604519774 L387.86440677966107,731.3220338983051" stroke="yellow" stroke-width="2" fill="none" />
<path d="M387.86440677966107,859.2768361581922 L387.86440677966107,842.4406779661017" stroke="yellow" stroke-width="2" fill="none" />
<path d="M387.86440677966107,842.4406779661017 L397.96610169491527,839.0734463276837" stroke="yellow" stroke-width="2" fill="none" />
<path d="M397.96610169491527,839.0734463276837 L397.96610169491527,785.1977401129944" stroke="yellow" stroke-width="2" fill="none" />
<path d="M397.96610169491527,785.1977401129944 L387.86440677966107,781.8305084745763" stroke="yellow" stroke-width="2" fill="none" />
<path d="M387.86440677966107,859.2768361581922 L408.06779661016947,849.1751412429379" stroke="yellow" stroke-width="2" fill="none" />
<path d="M408.06779661016947,849.1751412429379 L408.06779661016947,775.0960451977402" stroke="yellow" stroke-width="2" fill="none" />
<path d="M408.06779661016947,775.0960451977402 L387.86440677966107,764.9943502824859" stroke="yellow" stroke-width="2" fill="none" />
<path d="M421.5367231638418,866.0112994350283 L421.5367231638418,758.2598870056497" stroke="yellow" stroke-width="2" fill="none" />
<path d="M421.5367231638418,758.2598870056497 L387.86440677966107,744.7909604519774" stroke="yellow" stroke-width="2" fill="none" />
<path d="M387.86440677966107,879.4802259887006 L387.86440677966107,859.2768361581922" stroke="yellow" stroke-width="2" fill="none" />
<path d="M387.86440677966107,892.949152542373 L387.86440677966107,879.4802259887006" stroke="yellow" stroke-width="2" fill="none" />
<path d="M360.9265536723164,946.8248587570622 L387.86440677966107,892.949152542373" stroke="yellow" stroke-width="2" fill="none" />
<path d="M387.86440677966107,879.4802259887006 L421.5367231638418,866.0112994350283" stroke="yellow" stroke-width="2" fill="none" />
<path d="M576.4293785310734,704.3841807909605 L630.3050847457628,677.4463276836159" stroke="yellow" stroke-width="2" fill="none" />
<path d="M495.61581920903956,677.4463276836159 L549.4915254237288,704.3841807909605" stroke="yellow" stroke-width="2" fill="none" />
<path d="M549.4915254237288,704.3841807909605 L576.4293785310734,704.3841807909605" stroke="yellow" stroke-width="2" fill="none" />
<path d="M549.4915254237288,616.8361581920905 L576.4293785310734,616.8361581920905" stroke="lavender" stroke-width="2" fill="none" />
<path d="M495.61581920903956,677.4463276836159 L522.5536723163842,663.9774011299436" stroke="yellow" stroke-width="2" fill="none" />
<path d="M522.5536723163842,663.9774011299436 L603.367231638418,663.9774011299436" stroke="yellow" stroke-width="2" fill="none" />
<path d="M603.367231638418,663.9774011299436 L630.3050847457628,677.4463276836159" stroke="yellow" stroke-width="2" fill="none" />
<path d="M549.4915254237288,623.5706214689266 L576.4293785310734,623.5706214689266" stroke="yellow" stroke-width="2" fill="none" />
<path d="M576.4293785310734,610.1016949152543 L549.4915254237288,610.1016949152543" stroke="lavender" stroke-width="2" fill="none" />
<path d="M576.4293785310734,603.3672316384182 L549.4915254237288,603.3672316384182" stroke="yellow" stroke-width="2" fill="none" />
<path d="M603.367231638418,946.8248587570622 L603.367231638418,892.949152542373" stroke="yellow" stroke-width="2" fill="none" />
<path d="M603.367231638418,892.949152542373 L657.2429378531074,839.0734463276837" stroke="yellow" stroke-width="2" fill="none" />
<path d="M657.2429378531074,839.0734463276837 L711.1186440677966,839.0734463276837" stroke="yellow" stroke-width="2" fill="none" />
<path d="M468.67796610169495,919.8870056497176 L468.67796610169495,946.8248587570622" stroke="yellow" stroke-width="2" fill="none" />
<path d="M441.7401129943503,892.949152542373 L468.67796610169495,919.8870056497176" stroke="yellow" stroke-width="2" fill="none" />
<path d="M387.86440677966107,892.949152542373 L441.7401129943503,892.949152542373" stroke="yellow" stroke-width="2" fill="none" />
<path d="M367.66101694915255,980.497175141243 L461.9435028248588,980.497175141243" stroke="yellow" stroke-width="2" fill="none" />
<path d="M461.9435028248588,973.7627118644068 L367.66101694915255,973.7627118644068" stroke="yellow" stroke-width="2" fill="none" />
<path d="M711.1186440677966,946.8248587570622 L610.1016949152543,946.8248587570622" stroke="yellow" stroke-width="2" fill="none" />
<path d="M610.1016949152543,953.5593220338984 L711.1186440677966,953.5593220338984" stroke="yellow" stroke-width="2" fill="none" />
<path d="M711.1186440677966,845.8079096045199 L711.1186440677966,946.8248587570622" stroke="yellow" stroke-width="2" fill="none" />
<path d="M717.8531073446328,946.8248587570622 L717.8531073446328,845.8079096045199" stroke="yellow" stroke-width="2" fill="none" />
<path d="M657.2429378531074,758.2598870056497 L711.1186440677966,758.2598870056497" stroke="yellow" stroke-width="2" fill="none" />
<path d="M711.1186440677966,812.135593220339 L657.2429378531074,812.135593220339" stroke="yellow" stroke-width="2" fill="none" />
<path d="M657.2429378531074,812.135593220339 L657.2429378531074,758.2598870056497" stroke="yellow" stroke-width="2" fill="none" />
<path d="M711.1186440677966,812.135593220339 L711.1186440677966,758.2598870056497" stroke="lavender" stroke-width="2" fill="none" />
<path d="M717.8531073446328,812.135593220339 L717.8531073446328,758.2598870056497" stroke="yellow" stroke-width="2" fill="none" />
<path d="M778.4632768361582,845.8079096045199 L717.8531073446328,845.8079096045199" stroke="yellow" stroke-width="2" fill="none" />
<path d="M778.4632768361582,835.7062146892656 L717.8531073446328,835.7062146892656" stroke="yellow" stroke-width="2" fill="none" />
<path d="M778.4632768361582,825.6045197740114 L717.8531073446328,825.6045197740114" stroke="lavender" stroke-width="2" fill="none" />
<path d="M125.22033898305085,650.5084745762713 L165.62711864406782,650.5084745762713" stroke="yellow" stroke-width="2" fill="none" />
<path d="M165.62711864406782,643.7740112994351 L125.22033898305085,643.7740112994351" stroke="yellow" stroke-width="2" fill="none" />
<path d="M145.4237288135593,704.3841807909605 L172.36158192090397,704.3841807909605" stroke="yellow" stroke-width="2" fill="none" />
<path d="M118.4858757062147,677.4463276836159 L118.4858757062147,663.9774011299436" stroke="lavender" stroke-width="2" fill="none" />
<path d="M172.36158192090397,704.3841807909605 L172.36158192090397,650.5084745762713" stroke="yellow" stroke-width="2" fill="none" />
<path d="M125.22033898305085,596.632768361582 L165.62711864406782,596.632768361582" stroke="yellow" stroke-width="2" fill="none" />
<path d="M165.62711864406782,589.8983050847457 L125.22033898305085,589.8983050847457" stroke="yellow" stroke-width="2" fill="none" />
<path d="M145.4237288135593,515.819209039548 L172.36158192090397,515.819209039548" stroke="lavender" stroke-width="2" fill="none" />
<path d="M118.4858757062147,637.0395480225989 L118.4858757062147,610.1016949152543" stroke="yellow" stroke-width="2" fill="none" />
<path d="M111.75141242937855,610.1016949152543 L111.75141242937855,637.0395480225989" stroke="yellow" stroke-width="2" fill="none" />
<path d="M64.61016949152543,569.6949152542373 L91.54802259887009,569.6949152542373" stroke="lavender" stroke-width="2" fill="none" />
<path d="M468.67796610169495,596.632768361582 L387.86440677966107,596.632768361582" stroke="yellow" stroke-width="2" fill="none" />
<path d="M387.86440677966107,677.4463276836159 L468.67796610169495,677.4463276836159" stroke="yellow" stroke-width="2" fill="none" />
<path d="M387.86440677966107,616.8361581920905 L468.67796610169495,616.8361581920905" stroke="yellow" stroke-width="2" fill="none" />
<path d="M414.8022598870057,650.5084745762713 L387.86440677966107,657.2429378531074" stroke="yellow" stroke-width="2" fill="none" />
<path d="M468.67796610169495,657.2429378531074 L441.7401129943503,650.5084745762713" stroke="yellow" stroke-width="2" fill="none" />
<path d="M441.7401129943503,650.5084745762713 L414.8022598870057,650.5084745762713" stroke="yellow" stroke-width="2" fill="none" />
<path d="M387.86440677966107,650.5084745762713 L387.86440677966107,623.5706214689266" stroke="yellow" stroke-width="2" fill="none" />
<path d="M414.8022598870057,515.819209039548 L414.8022598870057,542.7570621468926" stroke="lavender" stroke-width="2" fill="none" />
<path d="M414.8022598870057,542.7570621468926 L441.7401129943503,542.7570621468926" stroke="lavender" stroke-width="2" fill="none" />
<path d="M441.7401129943503,542.7570621468926 L441.7401129943503,515.819209039548" stroke="lavender" stroke-width="2" fill="none" />
<path d="M441.7401129943503,515.819209039548 L414.8022598870057,515.819209039548" stroke="lavender" stroke-width="2" fill="none" />
<path d="M360.9265536723164,583.1638418079096 L360.9265536723164,515.819209039548" stroke="yellow" stroke-width="2" fill="none" />
<path d="M347.45762711864404,515.819209039548 L347.45762711864404,583.1638418079096" stroke="yellow" stroke-width="2" fill="none" />
<path d="M576.4293785310734,946.8248587570622 L482.14689265536725,946.8248587570622" stroke="yellow" stroke-width="2" fill="none" />
<path d="M482.14689265536725,950.1920903954802 L576.4293785310734,950.1920903954802" stroke="yellow" stroke-width="2" fill="none" />
<path d="M495.61581920903956,785.1977401129944 L522.5536723163842,758.2598870056497" stroke="yellow" stroke-width="2" fill="none" />
<path d="M522.5536723163842,758.2598870056497 L549.4915254237288,758.2598870056497" stroke="yellow" stroke-width="2" fill="none" />
<path d="M549.4915254237288,758.2598870056497 L576.4293785310734,785.1977401129944" stroke="yellow" stroke-width="2" fill="none" />
<path d="M576.4293785310734,785.1977401129944 L576.4293785310734,812.135593220339" stroke="yellow" stroke-width="2" fill="none" />
<path d="M576.4293785310734,812.135593220339 L549.4915254237288,839.0734463276837" stroke="yellow" stroke-width="2" fill="none" />
<path d="M549.4915254237288,839.0734463276837 L522.5536723163842,839.0734463276837" stroke="yellow" stroke-width="2" fill="none" />
<path d="M522.5536723163842,839.0734463276837 L495.61581920903956,812.135593220339" stroke="yellow" stroke-width="2" fill="none" />
<path d="M495.61581920903956,812.135593220339 L495.61581920903956,785.1977401129944" stroke="yellow" stroke-width="2" fill="none" />
<path d="M711.1186440677966,731.3220338983051 L684.180790960452,731.3220338983051" stroke="yellow" stroke-width="2" fill="none" />
<path d="M684.180790960452,731.3220338983051 L657.2429378531074,704.3841807909605" stroke="yellow" stroke-width="2" fill="none" />
<path d="M657.2429378531074,704.3841807909605 L657.2429378531074,677.4463276836159" stroke="yellow" stroke-width="2" fill="none" />
<path d="M674.0790960451977,677.4463276836159 L711.1186440677966,677.4463276836159" stroke="yellow" stroke-width="2" fill="none" />
<path d="M711.1186440677966,603.3672316384182 L657.2429378531074,603.3672316384182" stroke="yellow" stroke-width="2" fill="none" />
<path d="M657.2429378531074,603.3672316384182 L657.2429378531074,569.6949152542373" stroke="yellow" stroke-width="2" fill="none" />
<path d="M657.2429378531074,569.6949152542373 L684.180790960452,542.7570621468926" stroke="yellow" stroke-width="2" fill="none" />
<path d="M684.180790960452,542.7570621468926 L711.1186440677966,542.7570621468926" stroke="yellow" stroke-width="2" fill="none" />
<path d="M603.367231638418,603.3672316384182 L603.367231638418,579.7966101694916" stroke="yellow" stroke-width="2" fill="none" />
<path d="M603.367231638418,579.7966101694916 L576.4293785310734,569.6949152542373" stroke="yellow" stroke-width="2" fill="none" />
<path d="M576.4293785310734,569.6949152542373 L549.4915254237288,569.6949152542373" stroke="yellow" stroke-width="2" fill="none" />
<path d="M549.4915254237288,569.6949152542373 L522.5536723163842,579.7966101694916" stroke="yellow" stroke-width="2" fill="none" />
<path d="M522.5536723163842,246.4406779661017 L576.4293785310734,273.3785310734463" stroke="yellow" stroke-width="2" fill="none" />
<path d="M576.4293785310734,273.3785310734463 L586.5310734463277,273.3785310734463" stroke="yellow" stroke-width="2" fill="none" />
<path d="M586.5310734463277,273.3785310734463 L647.1412429378531,273.3785310734463" stroke="yellow" stroke-width="2" fill="none" />
<path d="M647.1412429378531,273.3785310734463 L657.2429378531074,273.3785310734463" stroke="yellow" stroke-width="2" fill="none" />
<path d="M657.2429378531074,273.3785310734463 L711.1186440677966,246.4406779661017" stroke="yellow" stroke-width="2" fill="none" />
<path d="M586.5310734463277,273.3785310734463 L586.5310734463277,232.9717514124294" stroke="yellow" stroke-width="2" fill="none" />
<path d="M586.5310734463277,232.9717514124294 L647.1412429378531,232.9717514124294" stroke="yellow" stroke-width="2" fill="none" />
<path d="M647.1412429378531,232.9717514124294 L647.1412429378531,273.3785310734463" stroke="yellow" stroke-width="2" fill="none" />
<path d="M711.1186440677966,488.8813559322034 L711.1186440677966,515.819209039548" stroke="yellow" stroke-width="2" fill="none" />
<path d="M522.5536723163842,219.50282485875704 L522.5536723163842,192.56497175141243" stroke="lavender" stroke-width="2" fill="none" />
<path d="M711.1186440677966,192.56497175141243 L711.1186440677966,219.50282485875704" stroke="lavender" stroke-width="2" fill="none" />
<path d="M532.6553672316385,333.98870056497174 L522.5536723163842,327.2542372881356" stroke="yellow" stroke-width="2" fill="none" />
<path d="M522.5536723163842,354.1920903954802 L532.6553672316385,347.45762711864404" stroke="yellow" stroke-width="2" fill="none" />
<path d="M532.6553672316385,347.45762711864404 L532.6553672316385,333.98870056497174" stroke="yellow" stroke-width="2" fill="none" />
<path d="M522.5536723163842,461.94350282485874 L532.6553672316385,455.2090395480226" stroke="yellow" stroke-width="2" fill="none" />
<path d="M532.6553672316385,455.2090395480226 L532.6553672316385,441.7401129943503" stroke="yellow" stroke-width="2" fill="none" />
<path d="M532.6553672316385,441.7401129943503 L522.5536723163842,435.00564971751413" stroke="yellow" stroke-width="2" fill="none" />
<path d="M522.5536723163842,408.06779661016947 L532.6553672316385,401.3333333333333" stroke="yellow" stroke-width="2" fill="none" />
<path d="M532.6553672316385,401.3333333333333 L532.6553672316385,387.864406779661" stroke="yellow" stroke-width="2" fill="none" />
<path d="M532.6553672316385,387.864406779661 L522.5536723163842,381.12994350282486" stroke="yellow" stroke-width="2" fill="none" />
<path d="M711.1186440677966,327.2542372881356 L701.0169491525423,333.98870056497174" stroke="yellow" stroke-width="2" fill="none" />
<path d="M701.0169491525423,333.98870056497174 L701.0169491525423,347.45762711864404" stroke="yellow" stroke-width="2" fill="none" />
<path d="M701.0169491525423,347.45762711864404 L711.1186440677966,354.1920903954802" stroke="yellow" stroke-width="2" fill="none" />
<path d="M711.1186440677966,381.12994350282486 L701.0169491525423,387.864406779661" stroke="yellow" stroke-width="2" fill="none" />
<path d="M701.0169491525423,387.864406779661 L701.0169491525423,401.3333333333333" stroke="yellow" stroke-width="2" fill="none" />
<path d="M701.0169491525423,401.3333333333333 L711.1186440677966,408.06779661016947" stroke="yellow" stroke-width="2" fill="none" />
<path d="M711.1186440677966,435.00564971751413 L701.0169491525423,441.7401129943503" stroke="yellow" stroke-width="2" fill="none" />
<path d="M701.0169491525423,441.7401129943503 L701.0169491525423,455.2090395480226" stroke="yellow" stroke-width="2" fill="none" />
<path d="M701.0169491525423,455.2090395480226 L711.1186440677966,461.94350282485874" stroke="yellow" stroke-width="2" fill="none" />
<path d="M583.1638418079096,138.68926553672316 L583.1638418079096,155.52542372881356" stroke="yellow" stroke-width="2" fill="none" />
<path d="M583.1638418079096,155.52542372881356 L593.2655367231639,155.52542372881356" stroke="yellow" stroke-width="2" fill="none" />
<path d="M593.2655367231639,155.52542372881356 L593.2655367231639,138.68926553672316" stroke="yellow" stroke-width="2" fill="none" />
<path d="M593.2655367231639,138.68926553672316 L583.1638418079096,138.68926553672316" stroke="yellow" stroke-width="2" fill="none" />
<path d="M603.367231638418,138.68926553672316 L603.367231638418,155.52542372881356" stroke="yellow" stroke-width="2" fill="none" />
<path d="M603.367231638418,155.52542372881356 L613.4689265536723,155.52542372881356" stroke="yellow" stroke-width="2" fill="none" />
<path d="M613.4689265536723,155.52542372881356 L613.4689265536723,138.68926553672316" stroke="yellow" stroke-width="2" fill="none" />
<path d="M613.4689265536723,138.68926553672316 L603.367231638418,138.68926553672316" stroke="yellow" stroke-width="2" fill="none" />
<path d="M620.2033898305085,138.68926553672316 L620.2033898305085,155.52542372881356" stroke="yellow" stroke-width="2" fill="none" />
<path d="M620.2033898305085,155.52542372881356 L630.3050847457628,155.52542372881356" stroke="yellow" stroke-width="2" fill="none" />
<path d="M630.3050847457628,155.52542372881356 L630.3050847457628,138.68926553672316" stroke="yellow" stroke-width="2" fill="none" />
<path d="M630.3050847457628,138.68926553672316 L620.2033898305085,138.68926553672316" stroke="yellow" stroke-width="2" fill="none" />
<path d="M640.406779661017,138.68926553672316 L640.406779661017,155.52542372881356" stroke="yellow" stroke-width="2" fill="none" />
<path d="M640.406779661017,155.52542372881356 L650.5084745762712,155.52542372881356" stroke="yellow" stroke-width="2" fill="none" />
<path d="M650.5084745762712,155.52542372881356 L650.5084745762712,138.68926553672316" stroke="yellow" stroke-width="2" fill="none" />
<path d="M650.5084745762712,138.68926553672316 L640.406779661017,138.68926553672316" stroke="yellow" stroke-width="2" fill="none" />
<path d="M576.4293785310734,121.85310734463278 L657.2429378531074,121.85310734463278" stroke="yellow" stroke-width="2" fill="none" />
<path d="M589.8983050847457,57.87570621468926 L576.4293785310734,30.93785310734463" stroke="lavender" stroke-width="2" fill="none" />
<path d="M643.7740112994351,57.87570621468926 L589.8983050847457,57.87570621468926" stroke="lavender" stroke-width="2" fill="none" />
<path d="M657.2429378531074,30.93785310734463 L643.7740112994351,57.87570621468926" stroke="lavender" stroke-width="2" fill="none" />
<path d="M711.1186440677966,263.2768361581921 L711.1186440677966,317.1525423728814" stroke="yellow" stroke-width="2" fill="none" />
<path d="M721.2203389830509,317.1525423728814 L721.2203389830509,263.2768361581921" stroke="yellow" stroke-width="2" fill="none" />
<path d="M623.5706214689266,84.8135593220339 L630.3050847457628,84.8135593220339" stroke="yellow" stroke-width="2" fill="none" />
<path d="M630.3050847457628,84.8135593220339 L630.3050847457628,78.07909604519774" stroke="yellow" stroke-width="2" fill="none" />
<path d="M630.3050847457628,78.07909604519774 L623.5706214689266,78.07909604519774" stroke="yellow" stroke-width="2" fill="none" />
<path d="M623.5706214689266,78.07909604519774 L623.5706214689266,84.8135593220339" stroke="yellow" stroke-width="2" fill="none" />
<path d="M640.406779661017,78.07909604519774 L647.1412429378531,78.07909604519774" stroke="yellow" stroke-width="2" fill="none" />
<path d="M647.1412429378531,78.07909604519774 L647.1412429378531,71.34463276836158" stroke="yellow" stroke-width="2" fill="none" />
<path d="M647.1412429378531,71.34463276836158 L640.406779661017,71.34463276836158" stroke="yellow" stroke-width="2" fill="none" />
<path d="M640.406779661017,71.34463276836158 L640.406779661017,78.07909604519774" stroke="yellow" stroke-width="2" fill="none" />
<path d="M653.8757062146893,64.61016949152543 L660.6101694915254,64.61016949152543" stroke="yellow" stroke-width="2" fill="none" />
<path d="M660.6101694915254,64.61016949152543 L660.6101694915254,57.87570621468926" stroke="yellow" stroke-width="2" fill="none" />
<path d="M660.6101694915254,57.87570621468926 L653.8757062146893,57.87570621468926" stroke="yellow" stroke-width="2" fill="none" />
<path d="M653.8757062146893,57.87570621468926 L653.8757062146893,64.61016949152543" stroke="yellow" stroke-width="2" fill="none" />
<path d="M663.9774011299435,47.774011299435024 L670.7118644067797,47.774011299435024" stroke="yellow" stroke-width="2" fill="none" />
<path d="M670.7118644067797,47.774011299435024 L670.7118644067797,41.039548022598865" stroke="yellow" stroke-width="2" fill="none" />
<path d="M670.7118644067797,41.039548022598865 L663.9774011299435,41.039548022598865" stroke="yellow" stroke-width="2" fill="none" />
<path d="M663.9774011299435,41.039548022598865 L663.9774011299435,47.774011299435024" stroke="yellow" stroke-width="2" fill="none" />
<path d="M562.9604519774011,47.774011299435024 L569.6949152542373,47.774011299435024" stroke="yellow" stroke-width="2" fill="none" />
<path d="M569.6949152542373,47.774011299435024 L569.6949152542373,41.039548022598865" stroke="yellow" stroke-width="2" fill="none" />
<path d="M569.6949152542373,41.039548022598865 L562.9604519774011,41.039548022598865" stroke="yellow" stroke-width="2" fill="none" />
<path d="M562.9604519774011,41.039548022598865 L562.9604519774011,47.774011299435024" stroke="yellow" stroke-width="2" fill="none" />
<path d="M573.0621468926554,64.61016949152543 L579.7966101694915,64.61016949152543" stroke="yellow" stroke-width="2" fill="none" />
<path d="M579.7966101694915,64.61016949152543 L579.7966101694915,57.87570621468926" stroke="yellow" stroke-width="2" fill="none" />
<path d="M579.7966101694915,57.87570621468926 L573.0621468926554,57.87570621468926" stroke="yellow" stroke-width="2" fill="none" />
<path d="M573.0621468926554,57.87570621468926 L573.0621468926554,64.61016949152543" stroke="yellow" stroke-width="2" fill="none" />
<path d="M586.5310734463277,78.07909604519774 L593.2655367231639,78.07909604519774" stroke="yellow" stroke-width="2" fill="none" />
<path d="M593.2655367231639,78.07909604519774 L593.2655367231639,71.34463276836158" stroke="yellow" stroke-width="2" fill="none" />
<path d="M593.2655367231639,71.34463276836158 L586.5310734463277,71.34463276836158" stroke="yellow" stroke-width="2" fill="none" />
<path d="M586.5310734463277,71.34463276836158 L586.5310734463277,78.07909604519774" stroke="yellow" stroke-width="2" fill="none" />
<path d="M603.367231638418,84.8135593220339 L610.1016949152543,84.8135593220339" stroke="yellow" stroke-width="2" fill="none" />
<path d="M610.1016949152543,84.8135593220339 L610.1016949152543,78.07909604519774" stroke="yellow" stroke-width="2" fill="none" />
<path d="M610.1016949152543,78.07909604519774 L603.367231638418,78.07909604519774" stroke="yellow" stroke-width="2" fill="none" />
<path d="M603.367231638418,78.07909604519774 L603.367231638418,84.8135593220339" stroke="yellow" stroke-width="2" fill="none" />
<path d="M764.9943502824859,623.5706214689266 L764.9943502824859,650.5084745762713" stroke="lavender" stroke-width="2" fill="none" />
<path d="M711.1186440677966,650.5084745762713 L711.1186440677966,623.5706214689266" stroke="yellow" stroke-width="2" fill="none" />
<path d="M778.4632768361582,866.0112994350283 L778.4632768361582,919.8870056497176" stroke="yellow" stroke-width="2" fill="none" />
<path d="M791.9322033898305,919.8870056497176 L791.9322033898305,866.0112994350283" stroke="yellow" stroke-width="2" fill="none" />
<path d="M822.2372881355932,866.0112994350283 L822.2372881355932,919.8870056497176" stroke="lavender" stroke-width="2" fill="none" />
<path d="M828.9717514124294,919.8870056497176 L828.9717514124294,866.0112994350283" stroke="lavender" stroke-width="2" fill="none" />
<path d="M839.0734463276837,919.8870056497176 L839.0734463276837,866.0112994350283" stroke="yellow" stroke-width="2" fill="none" />
<path d="M812.1355932203389,866.0112994350283 L812.1355932203389,919.8870056497176" stroke="yellow" stroke-width="2" fill="none" />
<path d="M899.6836158192091,839.0734463276837 L899.6836158192091,812.135593220339" stroke="yellow" stroke-width="2" fill="none" />
<path d="M899.6836158192091,812.135593220339 L926.6214689265537,812.135593220339" stroke="yellow" stroke-width="2" fill="none" />
<path d="M926.6214689265537,812.135593220339 L926.6214689265537,839.0734463276837" stroke="yellow" stroke-width="2" fill="none" />
<path d="M926.6214689265537,839.0734463276837 L899.6836158192091,839.0734463276837" stroke="yellow" stroke-width="2" fill="none" />
<path d="M899.6836158192091,892.949152542373 L899.6836158192091,866.0112994350283" stroke="yellow" stroke-width="2" fill="none" />
<path d="M899.6836158192091,866.0112994350283 L926.6214689265537,866.0112994350283" stroke="yellow" stroke-width="2" fill="none" />
<path d="M926.6214689265537,866.0112994350283 L926.6214689265537,892.949152542373" stroke="yellow" stroke-width="2" fill="none" />
<path d="M926.6214689265537,892.949152542373 L899.6836158192091,892.949152542373" stroke="yellow" stroke-width="2" fill="none" />
<path d="M899.6836158192091,946.8248587570622 L899.6836158192091,919.8870056497176" stroke="yellow" stroke-width="2" fill="none" />
<path d="M899.6836158192091,919.8870056497176 L926.6214689265537,919.8870056497176" stroke="yellow" stroke-width="2" fill="none" />
<path d="M926.6214689265537,919.8870056497176 L926.6214689265537,946.8248587570622" stroke="yellow" stroke-width="2" fill="none" />
<path d="M926.6214689265537,946.8248587570622 L899.6836158192091,946.8248587570622" stroke="yellow" stroke-width="2" fill="none" />
<path d="M953.5593220338983,839.0734463276837 L953.5593220338983,812.135593220339" stroke="yellow" stroke-width="2" fill="none" />
<path d="M953.5593220338983,812.135593220339 L980.4971751412429,812.135593220339" stroke="yellow" stroke-width="2" fill="none" />
<path d="M980.4971751412429,812.135593220339 L980.4971751412429,839.0734463276837" stroke="yellow" stroke-width="2" fill="none" />
<path d="M980.4971751412429,839.0734463276837 L953.5593220338983,839.0734463276837" stroke="yellow" stroke-width="2" fill="none" />
<path d="M953.5593220338983,892.949152542373 L953.5593220338983,866.0112994350283" stroke="yellow" stroke-width="2" fill="none" />
<path d="M953.5593220338983,866.0112994350283 L980.4971751412429,866.0112994350283" stroke="lavender" stroke-width="2" fill="none" />
<path d="M980.4971751412429,866.0112994350283 L980.4971751412429,892.949152542373" stroke="yellow" stroke-width="2" fill="none" />
<path d="M980.4971751412429,892.949152542373 L953.5593220338983,892.949152542373" stroke="yellow" stroke-width="2" fill="none" />
<path d="M953.5593220338983,946.8248587570622 L953.5593220338983,919.8870056497176" stroke="yellow" stroke-width="2" fill="none" />
<path d="M953.5593220338983,919.8870056497176 L980.4971751412429,919.8870056497176" stroke="yellow" stroke-width="2" fill="none" />
<path d="M980.4971751412429,919.8870056497176 L980.4971751412429,946.8248587570622" stroke="yellow" stroke-width="2" fill="none" />
<path d="M980.4971751412429,946.8248587570622 L953.5593220338983,946.8248587570622" stroke="yellow" stroke-width="2" fill="none" />
<path d="M1007.4350282485875,946.8248587570622 L1007.4350282485875,919.8870056497176" stroke="yellow" stroke-width="2" fill="none" />
<path d="M1007.4350282485875,919.8870056497176 L1034.3728813559323,919.8870056497176" stroke="yellow" stroke-width="2" fill="none" />
<path d="M1034.3728813559323,919.8870056497176 L1034.3728813559323,946.8248587570622" stroke="yellow" stroke-width="2" fill="none" />
<path d="M1034.3728813559323,946.8248587570622 L1007.4350282485875,946.8248587570622" stroke="yellow" stroke-width="2" fill="none" />
<path d="M1007.4350282485875,892.949152542373 L1007.4350282485875,866.0112994350283" stroke="yellow" stroke-width="2" fill="none" />
<path d="M1007.4350282485875,866.0112994350283 L1034.3728813559323,866.0112994350283" stroke="yellow" stroke-width="2" fill="none" />
<path d="M1034.3728813559323,866.0112994350283 L1034.3728813559323,892.949152542373" stroke="yellow" stroke-width="2" fill="none" />
<path d="M1034.3728813559323,892.949152542373 L1007.4350282485875,892.949152542373" stroke="yellow" stroke-width="2" fill="none" />
<path d="M1007.4350282485875,839.0734463276837 L1007.4350282485875,812.135593220339" stroke="yellow" stroke-width="2" fill="none" />
<path d="M1007.4350282485875,812.135593220339 L1034.3728813559323,812.135593220339" stroke="yellow" stroke-width="2" fill="none" />
<path d="M1034.3728813559323,812.135593220339 L1034.3728813559323,839.0734463276837" stroke="yellow" stroke-width="2" fill="none" />
<path d="M1034.3728813559323,839.0734463276837 L1007.4350282485875,839.0734463276837" stroke="yellow" stroke-width="2" fill="none" />
<path d="M1061.3107344632767,892.949152542373 L1061.3107344632767,866.0112994350283" stroke="yellow" stroke-width="2" fill="none" />
<path d="M1061.3107344632767,866.0112994350283 L1088.2485875706216,866.0112994350283" stroke="yellow" stroke-width="2" fill="none" />
<path d="M1088.2485875706216,866.0112994350283 L1088.2485875706216,892.949152542373" stroke="yellow" stroke-width="2" fill="none" />
<path d="M1088.2485875706216,892.949152542373 L1061.3107344632767,892.949152542373" stroke="yellow" stroke-width="2" fill="none" />
<path d="M1061.3107344632767,946.8248587570622 L1061.3107344632767,919.8870056497176" stroke="yellow" stroke-width="2" fill="none" />
<path d="M1061.3107344632767,919.8870056497176 L1088.2485875706216,919.8870056497176" stroke="yellow" stroke-width="2" fill="none" />
<path d="M1088.2485875706216,919.8870056497176 L1088.2485875706216,946.8248587570622" stroke="yellow" stroke-width="2" fill="none" />
<path d="M1088.2485875706216,946.8248587570622 L1061.3107344632767,946.8248587570622" stroke="yellow" stroke-width="2" fill="none" />
<path d="M1169.0621468926554,839.0734463276837 L1142.1242937853108,839.0734463276837" stroke="yellow" stroke-width="2" fill="none" />
<path d="M1142.1242937853108,839.0734463276837 L1142.1242937853108,919.8870056497176" stroke="yellow" stroke-width="2" fill="none" />
<path d="M1142.1242937853108,919.8870056497176 L1169.0621468926554,919.8870056497176" stroke="yellow" stroke-width="2" fill="none" />
<path d="M1169.0621468926554,866.0112994350283 L1169.0621468926554,892.949152542373" stroke="lavender" stroke-width="2" fill="none" />
<path d="M522.5536723163842,313.7853107344633 L522.5536723163842,259.909604519774" stroke="yellow" stroke-width="2" fill="none" />
<path d="M512.45197740113,259.909604519774 L512.45197740113,313.7853107344633" stroke="yellow" stroke-width="2" fill="none" />
<path d="M670.7118644067797,165.6271186440678 L704.3841807909605,165.6271186440678" stroke="yellow" stroke-width="2" fill="none" />
<path d="M704.3841807909605,158.89265536723164 L670.7118644067797,158.89265536723164" stroke="yellow" stroke-width="2" fill="none" />
<path d="M529.2881355932203,165.6271186440678 L562.9604519774011,165.6271186440678" stroke="yellow" stroke-width="2" fill="none" />
<path d="M562.9604519774011,158.89265536723164 L529.2881355932203,158.89265536723164" stroke="yellow" stroke-width="2" fill="none" />
<path d="M610.1016949152543,165.6271186440678 L623.5706214689266,165.6271186440678" stroke="yellow" stroke-width="2" fill="none" />
<path d="M623.5706214689266,165.6271186440678 L623.5706214689266,162.25988700564972" stroke="yellow" stroke-width="2" fill="none" />
<path d="M623.5706214689266,162.25988700564972 L610.1016949152543,162.25988700564972" stroke="yellow" stroke-width="2" fill="none" />
<path d="M610.1016949152543,162.25988700564972 L610.1016949152543,165.6271186440678" stroke="yellow" stroke-width="2" fill="none" />
<path d="M441.7401129943503,1041.1073446327684 L428.271186440678,1041.1073446327684" stroke="yellow" stroke-width="2" fill="none" />
<path d="M360.9265536723164,1027.638418079096 L360.9265536723164,1014.1694915254238" stroke="yellow" stroke-width="2" fill="none" />
<path d="M778.4632768361582,946.8248587570622 L778.4632768361582,960.2937853107345" stroke="yellow" stroke-width="2" fill="none" />
<path d="M778.4632768361582,785.1977401129944 L778.4632768361582,798.6666666666667" stroke="yellow" stroke-width="2" fill="none" />
<path d="M468.67796610169495,488.8813559322034 L482.14689265536725,488.8813559322034" stroke="yellow" stroke-width="2" fill="none" />
<path d="M374.3954802259887,488.8813559322034 L387.86440677966107,488.8813559322034" stroke="yellow" stroke-width="2" fill="none" />
<path d="M495.61581920903956,596.632768361582 L482.14689265536725,596.632768361582" stroke="yellow" stroke-width="2" fill="none" />
<path d="M374.3954802259887,596.632768361582 L360.9265536723164,596.632768361582" stroke="yellow" stroke-width="2" fill="none" />
<path d="M1088.2485875706216,812.135593220339 L1061.3107344632767,812.135593220339" stroke="lavender" stroke-width="2" fill="none" />
<path d="M1061.3107344632767,812.135593220339 L1061.3107344632767,839.0734463276837" stroke="yellow" stroke-width="2" fill="none" />
<path d="M1088.2485875706216,839.0734463276837 L1088.2485875706216,812.135593220339" stroke="yellow" stroke-width="2" fill="none" />
<path d="M1061.3107344632767,839.0734463276837 L1088.2485875706216,839.0734463276837" stroke="yellow" stroke-width="2" fill="none" />
<path d="M953.5593220338983,973.7627118644068 L872.7457627118645,973.7627118644068" stroke="yellow" stroke-width="2" fill="none" />
<path d="M926.6214689265537,785.1977401129944 L953.5593220338983,785.1977401129944" stroke="yellow" stroke-width="2" fill="none" />
<path d="M953.5593220338983,778.4632768361582 L926.6214689265537,778.4632768361582" stroke="yellow" stroke-width="2" fill="none" />
<path d="M926.6214689265537,758.2598870056497 L953.5593220338983,758.2598870056497" stroke="lavender" stroke-width="2" fill="none" />
<path d="M10.734463276836209,744.7909604519774 L91.54802259887009,744.7909604519774" stroke="red" stroke-width="2" fill="none" />
<path d="M91.54802259887009,866.0112994350283 L10.734463276836209,866.0112994350283" stroke="red" stroke-width="2" fill="none" />
<path d="M91.54802259887009,785.1977401129944 L101.64971751412429,785.1977401129944" stroke="red" stroke-width="2" fill="none" />
<path d="M101.64971751412429,785.1977401129944 L108.38418079096044,785.1977401129944" stroke="red" stroke-width="2" fill="none" />
<path d="M108.38418079096044,785.1977401129944 L118.4858757062147,785.1977401129944" stroke="red" stroke-width="2" fill="none" />
<path d="M118.4858757062147,785.1977401129944 L118.4858757062147,758.2598870056497" stroke="red" stroke-width="2" fill="none" />
<path d="M118.4858757062147,946.8248587570622 L118.4858757062147,839.0734463276837" stroke="red" stroke-width="2" fill="none" />
<path d="M118.4858757062147,839.0734463276837 L108.38418079096044,839.0734463276837" stroke="red" stroke-width="2" fill="none" />
<path d="M108.38418079096044,839.0734463276837 L101.64971751412429,839.0734463276837" stroke="red" stroke-width="2" fill="none" />
<path d="M101.64971751412429,839.0734463276837 L91.54802259887009,839.0734463276837" stroke="red" stroke-width="2" fill="none" />
<path d="M91.54802259887009,839.0734463276837 L91.54802259887009,866.0112994350283" stroke="red" stroke-width="2" fill="none" />
<path d="M91.54802259887009,744.7909604519774 L91.54802259887009,758.2598870056497" stroke="red" stroke-width="2" fill="none" />
<path d="M91.54802259887009,758.2598870056497 L105.0169491525424,758.2598870056497" stroke="red" stroke-width="2" fill="none" />
<path d="M105.0169491525424,758.2598870056497 L105.0169491525424,771.7288135593221" stroke="red" stroke-width="2" fill="none" />
<path d="M105.0169491525424,771.7288135593221 L91.54802259887009,771.7288135593221" stroke="red" stroke-width="2" fill="none" />
<path d="M91.54802259887009,771.7288135593221 L91.54802259887009,785.1977401129944" stroke="red" stroke-width="2" fill="none" />
<path d="M10.734463276836209,866.0112994350283 L10.734463276836209,812.135593220339" stroke="red" stroke-width="2" fill="none" />
<path d="M10.734463276836209,812.135593220339 L4.0,812.135593220339" stroke="red" stroke-width="2" fill="none" />
<path d="M4.0,812.135593220339 L4.0,785.1977401129944" stroke="red" stroke-width="2" fill="none" />
<path d="M4.0,785.1977401129944 L10.734463276836209,785.1977401129944" stroke="red" stroke-width="2" fill="none" />
<path d="M10.734463276836209,785.1977401129944 L10.734463276836209,744.7909604519774" stroke="red" stroke-width="2" fill="none" />
<path d="M118.4858757062147,758.2598870056497 L145.4237288135593,758.2598870056497" stroke="red" stroke-width="2" fill="none" />
<path d="M226.23728813559325,785.1977401129944 L232.9717514124294,785.1977401129944" stroke="red" stroke-width="2" fill="none" />
<path d="M232.9717514124294,839.0734463276837 L226.23728813559325,839.0734463276837" stroke="red" stroke-width="2" fill="none" />
<path d="M226.23728813559325,933.3559322033899 L199.29943502824858,933.3559322033899" stroke="red" stroke-width="2" fill="none" />
<path d="M199.29943502824858,933.3559322033899 L199.29943502824858,946.8248587570622" stroke="red" stroke-width="2" fill="none" />
<path d="M199.29943502824858,946.8248587570622 L118.4858757062147,946.8248587570622" stroke="red" stroke-width="2" fill="none" />
<path d="M232.9717514124294,785.1977401129944 L243.07344632768365,785.1977401129944" stroke="red" stroke-width="2" fill="none" />
<path d="M243.07344632768365,839.0734463276837 L232.9717514124294,839.0734463276837" stroke="red" stroke-width="2" fill="none" />
<path d="M303.6836158192091,785.1977401129944 L310.4180790960452,785.1977401129944" stroke="red" stroke-width="2" fill="none" />
<path d="M310.4180790960452,839.0734463276837 L303.6836158192091,839.0734463276837" stroke="red" stroke-width="2" fill="none" />
<path d="M243.07344632768365,785.1977401129944 L243.07344632768365,758.2598870056497" stroke="red" stroke-width="2" fill="none" />
<path d="M243.07344632768365,721.2203389830509 L243.07344632768365,704.3841807909605" stroke="red" stroke-width="2" fill="none" />
<path d="M243.07344632768365,758.2598870056497 L226.23728813559325,758.2598870056497" stroke="red" stroke-width="2" fill="none" />
<path d="M226.23728813559325,721.2203389830509 L243.07344632768365,721.2203389830509" stroke="red" stroke-width="2" fill="none" />
<path d="M226.23728813559325,758.2598870056497 L226.23728813559325,785.1977401129944" stroke="red" stroke-width="2" fill="none" />
<path d="M243.07344632768365,704.3841807909605 L226.23728813559325,704.3841807909605" stroke="red" stroke-width="2" fill="none" />
<path d="M226.23728813559325,704.3841807909605 L226.23728813559325,721.2203389830509" stroke="red" stroke-width="2" fill="none" />
<path d="M145.4237288135593,704.3841807909605 L118.4858757062147,704.3841807909605" stroke="red" stroke-width="2" fill="none" />
<path d="M185.83050847457628,650.5084745762713 L185.83050847457628,637.0395480225989" stroke="red" stroke-width="2" fill="none" />
<path d="M185.83050847457628,637.0395480225989 L199.29943502824858,637.0395480225989" stroke="red" stroke-width="2" fill="none" />
<path d="M199.29943502824858,637.0395480225989 L199.29943502824858,650.5084745762713" stroke="red" stroke-width="2" fill="none" />
<path d="M199.29943502824858,650.5084745762713 L226.23728813559325,650.5084745762713" stroke="red" stroke-width="2" fill="none" />
<path d="M226.23728813559325,650.5084745762713 L226.23728813559325,637.0395480225989" stroke="red" stroke-width="2" fill="none" />
<path d="M226.23728813559325,637.0395480225989 L239.70621468926555,637.0395480225989" stroke="red" stroke-width="2" fill="none" />
<path d="M239.70621468926555,637.0395480225989 L239.70621468926555,650.5084745762713" stroke="red" stroke-width="2" fill="none" />
<path d="M239.70621468926555,650.5084745762713 L303.6836158192091,650.5084745762713" stroke="red" stroke-width="2" fill="none" />
<path d="M145.4237288135593,758.2598870056497 L145.4237288135593,721.2203389830509" stroke="red" stroke-width="2" fill="none" />
<path d="M145.4237288135593,721.2203389830509 L145.4237288135593,704.3841807909605" stroke="red" stroke-width="2" fill="none" />
<path d="M310.4180790960452,785.1977401129944 L317.1525423728814,785.1977401129944" stroke="red" stroke-width="2" fill="none" />
<path d="M317.1525423728814,785.1977401129944 L323.88700564971754,785.1977401129944" stroke="red" stroke-width="2" fill="none" />
<path d="M323.88700564971754,946.8248587570622 L323.88700564971754,839.0734463276837" stroke="red" stroke-width="2" fill="none" />
<path d="M323.88700564971754,839.0734463276837 L317.1525423728814,839.0734463276837" stroke="red" stroke-width="2" fill="none" />
<path d="M317.1525423728814,839.0734463276837 L310.4180790960452,839.0734463276837" stroke="red" stroke-width="2" fill="none" />
<path d="M243.07344632768365,879.4802259887006 L243.07344632768365,839.0734463276837" stroke="red" stroke-width="2" fill="none" />
<path d="M226.23728813559325,879.4802259887006 L243.07344632768365,879.4802259887006" stroke="red" stroke-width="2" fill="none" />
<path d="M226.23728813559325,839.0734463276837 L226.23728813559325,879.4802259887006" stroke="red" stroke-width="2" fill="none" />
<path d="M226.23728813559325,919.8870056497176 L226.23728813559325,933.3559322033899" stroke="red" stroke-width="2" fill="none" />
<path d="M303.6836158192091,839.0734463276837 L303.6836158192091,879.4802259887006" stroke="red" stroke-width="2" fill="none" />
<path d="M303.6836158192091,879.4802259887006 L303.6836158192091,919.8870056497176" stroke="red" stroke-width="2" fill="none" />
<path d="M303.6836158192091,919.8870056497176 L243.07344632768365,919.8870056497176" stroke="red" stroke-width="2" fill="none" />
<path d="M243.07344632768365,919.8870056497176 L226.23728813559325,919.8870056497176" stroke="red" stroke-width="2" fill="none" />
<path d="M323.88700564971754,785.1977401129944 L323.88700564971754,758.2598870056497" stroke="red" stroke-width="2" fill="none" />
<path d="M323.88700564971754,717.8531073446328 L323.88700564971754,677.4463276836159" stroke="red" stroke-width="2" fill="none" />
<path d="M303.6836158192091,650.5084745762713 L303.6836158192091,717.8531073446328" stroke="red" stroke-width="2" fill="none" />
<path d="M303.6836158192091,758.2598870056497 L303.6836158192091,785.1977401129944" stroke="red" stroke-width="2" fill="none" />
<path d="M303.6836158192091,717.8531073446328 L323.88700564971754,717.8531073446328" stroke="red" stroke-width="2" fill="none" />
<path d="M323.88700564971754,758.2598870056497 L303.6836158192091,758.2598870056497" stroke="red" stroke-width="2" fill="none" />
<path d="M317.1525423728814,724.587570621469 L313.7853107344633,724.587570621469" stroke="red" stroke-width="2" fill="none" />
<path d="M313.7853107344633,724.587570621469 L313.7853107344633,727.9548022598871" stroke="red" stroke-width="2" fill="none" />
<path d="M313.7853107344633,727.9548022598871 L317.1525423728814,727.9548022598871" stroke="red" stroke-width="2" fill="none" />
<path d="M317.1525423728814,727.9548022598871 L317.1525423728814,724.587570621469" stroke="red" stroke-width="2" fill="none" />
<path d="M317.1525423728814,734.6892655367233 L313.7853107344633,734.6892655367233" stroke="red" stroke-width="2" fill="none" />
<path d="M313.7853107344633,734.6892655367233 L313.7853107344633,741.4237288135594" stroke="red" stroke-width="2" fill="none" />
<path d="M313.7853107344633,741.4237288135594 L317.1525423728814,741.4237288135594" stroke="red" stroke-width="2" fill="none" />
<path d="M317.1525423728814,741.4237288135594 L317.1525423728814,734.6892655367233" stroke="red" stroke-width="2" fill="none" />
<path d="M317.1525423728814,748.1581920903956 L313.7853107344633,748.1581920903956" stroke="red" stroke-width="2" fill="none" />
<path d="M313.7853107344633,748.1581920903956 L313.7853107344633,751.5254237288136" stroke="red" stroke-width="2" fill="none" />
<path d="M313.7853107344633,751.5254237288136 L317.1525423728814,751.5254237288136" stroke="red" stroke-width="2" fill="none" />
<path d="M317.1525423728814,751.5254237288136 L317.1525423728814,748.1581920903956" stroke="red" stroke-width="2" fill="none" />
<path d="M323.88700564971754,677.4463276836159 L360.9265536723164,677.4463276836159" stroke="red" stroke-width="2" fill="none" />
<path d="M360.9265536723164,946.8248587570622 L323.88700564971754,946.8248587570622" stroke="red" stroke-width="2" fill="none" />
<path d="M495.61581920903956,677.4463276836159 L495.61581920903956,623.5706214689266" stroke="red" stroke-width="2" fill="none" />
<path d="M495.61581920903956,623.5706214689266 L549.4915254237288,623.5706214689266" stroke="red" stroke-width="2" fill="none" />
<path d="M576.4293785310734,623.5706214689266 L630.3050847457628,623.5706214689266" stroke="red" stroke-width="2" fill="none" />
<path d="M630.3050847457628,623.5706214689266 L630.3050847457628,677.4463276836159" stroke="red" stroke-width="2" fill="none" />
<path d="M549.4915254237288,623.5706214689266 L549.4915254237288,616.8361581920905" stroke="red" stroke-width="2" fill="none" />
<path d="M576.4293785310734,616.8361581920905 L576.4293785310734,623.5706214689266" stroke="red" stroke-width="2" fill="none" />
<path d="M549.4915254237288,616.8361581920905 L549.4915254237288,610.1016949152543" stroke="red" stroke-width="2" fill="none" />
<path d="M576.4293785310734,610.1016949152543 L576.4293785310734,616.8361581920905" stroke="red" stroke-width="2" fill="none" />
<path d="M549.4915254237288,610.1016949152543 L549.4915254237288,603.3672316384182" stroke="red" stroke-width="2" fill="none" />
<path d="M576.4293785310734,603.3672316384182 L576.4293785310734,610.1016949152543" stroke="red" stroke-width="2" fill="none" />
<path d="M468.67796610169495,946.8248587570622 L468.67796610169495,973.7627118644068" stroke="red" stroke-width="2" fill="none" />
<path d="M360.9265536723164,973.7627118644068 L360.9265536723164,946.8248587570622" stroke="red" stroke-width="2" fill="none" />
<path d="M576.4293785310734,973.7627118644068 L610.1016949152543,953.5593220338984" stroke="red" stroke-width="2" fill="none" />
<path d="M717.8531073446328,758.2598870056497 L778.4632768361582,758.2598870056497" stroke="red" stroke-width="2" fill="none" />
<path d="M711.1186440677966,953.5593220338984 L717.8531073446328,953.5593220338984" stroke="red" stroke-width="2" fill="none" />
<path d="M717.8531073446328,953.5593220338984 L717.8531073446328,946.8248587570622" stroke="red" stroke-width="2" fill="none" />
<path d="M717.8531073446328,946.8248587570622 L711.1186440677966,946.8248587570622" stroke="red" stroke-width="2" fill="none" />
<path d="M711.1186440677966,946.8248587570622 L711.1186440677966,953.5593220338984" stroke="red" stroke-width="2" fill="none" />
<path d="M468.67796610169495,980.497175141243 L495.61581920903956,973.7627118644068" stroke="red" stroke-width="2" fill="none" />
<path d="M495.61581920903956,973.7627118644068 L576.4293785310734,973.7627118644068" stroke="red" stroke-width="2" fill="none" />
<path d="M603.367231638418,1017.5367231638419 L576.4293785310734,1034.3728813559321" stroke="red" stroke-width="2" fill="none" />
<path d="M576.4293785310734,1034.3728813559321 L495.61581920903956,1034.3728813559321" stroke="red" stroke-width="2" fill="none" />
<path d="M495.61581920903956,1034.3728813559321 L468.67796610169495,1041.1073446327684" stroke="red" stroke-width="2" fill="none" />
<path d="M461.9435028248588,973.7627118644068 L461.9435028248588,980.497175141243" stroke="red" stroke-width="2" fill="none" />
<path d="M367.66101694915255,980.497175141243 L367.66101694915255,973.7627118644068" stroke="red" stroke-width="2" fill="none" />
<path d="M367.66101694915255,973.7627118644068 L360.9265536723164,973.7627118644068" stroke="red" stroke-width="2" fill="none" />
<path d="M468.67796610169495,973.7627118644068 L461.9435028248588,973.7627118644068" stroke="red" stroke-width="2" fill="none" />
<path d="M360.9265536723164,980.497175141243 L367.66101694915255,980.497175141243" stroke="red" stroke-width="2" fill="none" />
<path d="M461.9435028248588,980.497175141243 L468.67796610169495,980.497175141243" stroke="red" stroke-width="2" fill="none" />
<path d="M610.1016949152543,953.5593220338984 L610.1016949152543,946.8248587570622" stroke="red" stroke-width="2" fill="none" />
<path d="M610.1016949152543,946.8248587570622 L603.367231638418,946.8248587570622" stroke="red" stroke-width="2" fill="none" />
<path d="M711.1186440677966,845.8079096045199 L717.8531073446328,845.8079096045199" stroke="red" stroke-width="2" fill="none" />
<path d="M711.1186440677966,839.0734463276837 L711.1186440677966,845.8079096045199" stroke="red" stroke-width="2" fill="none" />
<path d="M711.1186440677966,812.135593220339 L711.1186440677966,839.0734463276837" stroke="red" stroke-width="2" fill="none" />
<path d="M717.8531073446328,812.135593220339 L711.1186440677966,812.135593220339" stroke="red" stroke-width="2" fill="none" />
<path d="M711.1186440677966,758.2598870056497 L717.8531073446328,758.2598870056497" stroke="red" stroke-width="2" fill="none" />
<path d="M717.8531073446328,845.8079096045199 L717.8531073446328,835.7062146892656" stroke="red" stroke-width="2" fill="none" />
<path d="M717.8531073446328,835.7062146892656 L717.8531073446328,825.6045197740114" stroke="red" stroke-width="2" fill="none" />
<path d="M717.8531073446328,825.6045197740114 L717.8531073446328,812.135593220339" stroke="red" stroke-width="2" fill="none" />
<path d="M778.4632768361582,812.135593220339 L778.4632768361582,825.6045197740114" stroke="red" stroke-width="2" fill="none" />
<path d="M778.4632768361582,825.6045197740114 L778.4632768361582,835.7062146892656" stroke="red" stroke-width="2" fill="none" />
<path d="M778.4632768361582,835.7062146892656 L778.4632768361582,845.8079096045199" stroke="red" stroke-width="2" fill="none" />
<path d="M118.4858757062147,704.3841807909605 L118.4858757062147,677.4463276836159" stroke="red" stroke-width="2" fill="none" />
<path d="M118.4858757062147,677.4463276836159 L105.0169491525424,677.4463276836159" stroke="red" stroke-width="2" fill="none" />
<path d="M105.0169491525424,677.4463276836159 L105.0169491525424,663.9774011299436" stroke="red" stroke-width="2" fill="none" />
<path d="M105.0169491525424,663.9774011299436 L118.4858757062147,663.9774011299436" stroke="red" stroke-width="2" fill="none" />
<path d="M118.4858757062147,663.9774011299436 L118.4858757062147,650.5084745762713" stroke="red" stroke-width="2" fill="none" />
<path d="M118.4858757062147,650.5084745762713 L125.22033898305085,650.5084745762713" stroke="red" stroke-width="2" fill="none" />
<path d="M125.22033898305085,650.5084745762713 L125.22033898305085,643.7740112994351" stroke="red" stroke-width="2" fill="none" />
<path d="M125.22033898305085,643.7740112994351 L118.4858757062147,643.7740112994351" stroke="red" stroke-width="2" fill="none" />
<path d="M172.36158192090397,596.632768361582 L172.36158192090397,643.7740112994351" stroke="red" stroke-width="2" fill="none" />
<path d="M172.36158192090397,643.7740112994351 L165.62711864406782,643.7740112994351" stroke="red" stroke-width="2" fill="none" />
<path d="M165.62711864406782,643.7740112994351 L165.62711864406782,650.5084745762713" stroke="red" stroke-width="2" fill="none" />
<path d="M165.62711864406782,650.5084745762713 L172.36158192090397,650.5084745762713" stroke="red" stroke-width="2" fill="none" />
<path d="M172.36158192090397,650.5084745762713 L185.83050847457628,650.5084745762713" stroke="red" stroke-width="2" fill="none" />
<path d="M118.4858757062147,596.632768361582 L125.22033898305085,596.632768361582" stroke="red" stroke-width="2" fill="none" />
<path d="M125.22033898305085,596.632768361582 L125.22033898305085,589.8983050847457" stroke="red" stroke-width="2" fill="none" />
<path d="M165.62711864406782,596.632768361582 L172.36158192090397,596.632768361582" stroke="red" stroke-width="2" fill="none" />
<path d="M165.62711864406782,589.8983050847457 L165.62711864406782,596.632768361582" stroke="red" stroke-width="2" fill="none" />
<path d="M125.22033898305085,589.8983050847457 L118.4858757062147,589.8983050847457" stroke="red" stroke-width="2" fill="none" />
<path d="M118.4858757062147,589.8983050847457 L118.4858757062147,515.819209039548" stroke="red" stroke-width="2" fill="none" />
<path d="M199.29943502824858,515.819209039548 L199.29943502824858,589.8983050847457" stroke="red" stroke-width="2" fill="none" />
<path d="M199.29943502824858,589.8983050847457 L165.62711864406782,589.8983050847457" stroke="red" stroke-width="2" fill="none" />
<path d="M145.4237288135593,488.8813559322034 L172.36158192090397,488.8813559322034" stroke="red" stroke-width="2" fill="none" />
<path d="M118.4858757062147,515.819209039548 L145.4237288135593,515.819209039548" stroke="red" stroke-width="2" fill="none" />
<path d="M172.36158192090397,515.819209039548 L199.29943502824858,515.819209039548" stroke="red" stroke-width="2" fill="none" />
<path d="M145.4237288135593,515.819209039548 L145.4237288135593,488.8813559322034" stroke="red" stroke-width="2" fill="none" />
<path d="M172.36158192090397,488.8813559322034 L172.36158192090397,515.819209039548" stroke="red" stroke-width="2" fill="none" />
<path d="M118.4858757062147,643.7740112994351 L118.4858757062147,637.0395480225989" stroke="red" stroke-width="2" fill="none" />
<path d="M118.4858757062147,610.1016949152543 L118.4858757062147,596.632768361582" stroke="red" stroke-width="2" fill="none" />
<path d="M118.4858757062147,637.0395480225989 L111.75141242937855,637.0395480225989" stroke="red" stroke-width="2" fill="none" />
<path d="M111.75141242937855,637.0395480225989 L111.75141242937855,650.5084745762713" stroke="red" stroke-width="2" fill="none" />
<path d="M111.75141242937855,650.5084745762713 L51.14124293785312,650.5084745762713" stroke="red" stroke-width="2" fill="none" />
<path d="M51.14124293785312,650.5084745762713 L51.14124293785312,569.6949152542373" stroke="red" stroke-width="2" fill="none" />
<path d="M111.75141242937855,569.6949152542373 L111.75141242937855,610.1016949152543" stroke="red" stroke-width="2" fill="none" />
<path d="M111.75141242937855,610.1016949152543 L118.4858757062147,610.1016949152543" stroke="red" stroke-width="2" fill="none" />
<path d="M51.14124293785312,569.6949152542373 L64.61016949152543,569.6949152542373" stroke="red" stroke-width="2" fill="none" />
<path d="M64.61016949152543,569.6949152542373 L64.61016949152543,542.7570621468926" stroke="red" stroke-width="2" fill="none" />
<path d="M64.61016949152543,542.7570621468926 L91.54802259887009,542.7570621468926" stroke="red" stroke-width="2" fill="none" />
<path d="M91.54802259887009,542.7570621468926 L91.54802259887009,569.6949152542373" stroke="red" stroke-width="2" fill="none" />
<path d="M91.54802259887009,569.6949152542373 L111.75141242937855,569.6949152542373" stroke="red" stroke-width="2" fill="none" />
<path d="M360.9265536723164,677.4463276836159 L387.86440677966107,677.4463276836159" stroke="red" stroke-width="2" fill="none" />
<path d="M468.67796610169495,677.4463276836159 L495.61581920903956,677.4463276836159" stroke="red" stroke-width="2" fill="none" />
<path d="M387.86440677966107,677.4463276836159 L387.86440677966107,657.2429378531074" stroke="red" stroke-width="2" fill="none" />
<path d="M387.86440677966107,616.8361581920905 L387.86440677966107,596.632768361582" stroke="red" stroke-width="2" fill="none" />
<path d="M468.67796610169495,596.632768361582 L468.67796610169495,616.8361581920905" stroke="red" stroke-width="2" fill="none" />
<path d="M468.67796610169495,616.8361581920905 L468.67796610169495,657.2429378531074" stroke="red" stroke-width="2" fill="none" />
<path d="M468.67796610169495,657.2429378531074 L468.67796610169495,677.4463276836159" stroke="red" stroke-width="2" fill="none" />
<path d="M387.86440677966107,657.2429378531074 L387.86440677966107,650.5084745762713" stroke="red" stroke-width="2" fill="none" />
<path d="M387.86440677966107,650.5084745762713 L333.98870056497174,650.5084745762713" stroke="red" stroke-width="2" fill="none" />
<path d="M333.98870056497174,650.5084745762713 L333.98870056497174,623.5706214689266" stroke="red" stroke-width="2" fill="none" />
<path d="M333.98870056497174,623.5706214689266 L387.86440677966107,623.5706214689266" stroke="red" stroke-width="2" fill="none" />
<path d="M387.86440677966107,623.5706214689266 L387.86440677966107,616.8361581920905" stroke="red" stroke-width="2" fill="none" />
<path d="M495.61581920903956,488.8813559322034 L495.61581920903956,596.632768361582" stroke="red" stroke-width="2" fill="none" />
<path d="M549.4915254237288,603.3672316384182 L522.5536723163842,603.3672316384182" stroke="red" stroke-width="2" fill="none" />
<path d="M401.33333333333337,478.77966101694915 L455.2090395480226,478.77966101694915" stroke="red" stroke-width="2" fill="none" />
<path d="M401.33333333333337,488.8813559322034 L401.33333333333337,478.77966101694915" stroke="red" stroke-width="2" fill="none" />
<path d="M455.2090395480226,478.77966101694915 L455.2090395480226,488.8813559322034" stroke="red" stroke-width="2" fill="none" />
<path d="M360.9265536723164,596.632768361582 L360.9265536723164,583.1638418079096" stroke="red" stroke-width="2" fill="none" />
<path d="M360.9265536723164,515.819209039548 L360.9265536723164,488.8813559322034" stroke="red" stroke-width="2" fill="none" />
<path d="M360.9265536723164,583.1638418079096 L347.45762711864404,583.1638418079096" stroke="red" stroke-width="2" fill="none" />
<path d="M347.45762711864404,515.819209039548 L360.9265536723164,515.819209039548" stroke="red" stroke-width="2" fill="none" />
<path d="M347.45762711864404,583.1638418079096 L347.45762711864404,603.3672316384182" stroke="red" stroke-width="2" fill="none" />
<path d="M347.45762711864404,509.08474576271186 L347.45762711864404,515.819209039548" stroke="red" stroke-width="2" fill="none" />
<path d="M253.17514124293785,509.08474576271186 L347.45762711864404,509.08474576271186" stroke="red" stroke-width="2" fill="none" />
<path d="M347.45762711864404,603.3672316384182 L253.17514124293785,603.3672316384182" stroke="red" stroke-width="2" fill="none" />
<path d="M253.17514124293785,603.3672316384182 L253.17514124293785,509.08474576271186" stroke="red" stroke-width="2" fill="none" />
<path d="M603.367231638418,946.8248587570622 L576.4293785310734,946.8248587570622" stroke="red" stroke-width="2" fill="none" />
<path d="M576.4293785310734,970.3954802259888 L482.14689265536725,970.3954802259888" stroke="red" stroke-width="2" fill="none" />
<path d="M482.14689265536725,946.8248587570622 L468.67796610169495,946.8248587570622" stroke="red" stroke-width="2" fill="none" />
<path d="M576.4293785310734,946.8248587570622 L576.4293785310734,950.1920903954802" stroke="red" stroke-width="2" fill="none" />
<path d="M576.4293785310734,950.1920903954802 L576.4293785310734,970.3954802259888" stroke="red" stroke-width="2" fill="none" />
<path d="M482.14689265536725,970.3954802259888 L482.14689265536725,950.1920903954802" stroke="red" stroke-width="2" fill="none" />
<path d="M482.14689265536725,950.1920903954802 L482.14689265536725,946.8248587570622" stroke="red" stroke-width="2" fill="none" />
<path d="M630.3050847457628,677.4463276836159 L657.2429378531074,677.4463276836159" stroke="red" stroke-width="2" fill="none" />
<path d="M711.1186440677966,677.4463276836159 L711.1186440677966,731.3220338983051" stroke="red" stroke-width="2" fill="none" />
<path d="M657.2429378531074,677.4463276836159 L674.0790960451977,677.4463276836159" stroke="red" stroke-width="2" fill="none" />
<path d="M674.0790960451977,677.4463276836159 L674.0790960451977,623.5706214689266" stroke="red" stroke-width="2" fill="none" />
<path d="M674.0790960451977,623.5706214689266 L657.2429378531074,603.3672316384182" stroke="red" stroke-width="2" fill="none" />
<path d="M711.1186440677966,542.7570621468926 L711.1186440677966,603.3672316384182" stroke="red" stroke-width="2" fill="none" />
<path d="M711.1186440677966,731.3220338983051 L711.1186440677966,758.2598870056497" stroke="red" stroke-width="2" fill="none" />
<path d="M657.2429378531074,603.3672316384182 L603.367231638418,603.3672316384182" stroke="red" stroke-width="2" fill="none" />
<path d="M603.367231638418,603.3672316384182 L576.4293785310734,603.3672316384182" stroke="red" stroke-width="2" fill="none" />
<path d="M522.5536723163842,603.3672316384182 L522.5536723163842,579.7966101694916" stroke="red" stroke-width="2" fill="none" />
<path d="M711.1186440677966,488.8813559322034 L717.8531073446328,488.8813559322034" stroke="red" stroke-width="2" fill="none" />
<path d="M717.8531073446328,488.8813559322034 L717.8531073446328,515.819209039548" stroke="lavender" stroke-width="2" fill="none" />
<path d="M717.8531073446328,515.819209039548 L711.1186440677966,515.819209039548" stroke="red" stroke-width="2" fill="none" />
<path d="M711.1186440677966,515.819209039548 L711.1186440677966,542.7570621468926" stroke="red" stroke-width="2" fill="none" />
<path d="M522.5536723163842,246.4406779661017 L522.5536723163842,219.50282485875704" stroke="red" stroke-width="2" fill="none" />
<path d="M522.5536723163842,192.56497175141243 L522.5536723163842,165.6271186440678" stroke="red" stroke-width="2" fill="none" />
<path d="M711.1186440677966,165.6271186440678 L711.1186440677966,192.56497175141243" stroke="red" stroke-width="2" fill="none" />
<path d="M711.1186440677966,219.50282485875704 L711.1186440677966,246.4406779661017" stroke="red" stroke-width="2" fill="none" />
<path d="M711.1186440677966,192.56497175141243 L738.0564971751412,192.56497175141243" stroke="red" stroke-width="2" fill="none" />
<path d="M738.0564971751412,192.56497175141243 L738.0564971751412,219.50282485875704" stroke="red" stroke-width="2" fill="none" />
<path d="M738.0564971751412,219.50282485875704 L711.1186440677966,219.50282485875704" stroke="red" stroke-width="2" fill="none" />
<path d="M522.5536723163842,219.50282485875704 L495.61581920903956,219.50282485875704" stroke="red" stroke-width="2" fill="none" />
<path d="M495.61581920903956,219.50282485875704 L495.61581920903956,192.56497175141243" stroke="red" stroke-width="2" fill="none" />
<path d="M495.61581920903956,192.56497175141243 L522.5536723163842,192.56497175141243" stroke="red" stroke-width="2" fill="none" />
<path d="M522.5536723163842,579.7966101694916 L522.5536723163842,461.94350282485874" stroke="red" stroke-width="2" fill="none" />
<path d="M522.5536723163842,461.94350282485874 L441.7401129943503,461.94350282485874" stroke="red" stroke-width="2" fill="none" />
<path d="M441.7401129943503,461.94350282485874 L441.7401129943503,327.2542372881356" stroke="red" stroke-width="2" fill="none" />
<path d="M791.9322033898305,327.2542372881356 L791.9322033898305,461.94350282485874" stroke="red" stroke-width="2" fill="none" />
<path d="M791.9322033898305,461.94350282485874 L711.1186440677966,461.94350282485874" stroke="red" stroke-width="2" fill="none" />
<path d="M711.1186440677966,461.94350282485874 L711.1186440677966,488.8813559322034" stroke="red" stroke-width="2" fill="none" />
<path d="M522.5536723163842,354.1920903954802 L509.08474576271186,354.1920903954802" stroke="red" stroke-width="2" fill="none" />
<path d="M509.08474576271186,354.1920903954802 L509.08474576271186,381.12994350282486" stroke="red" stroke-width="2" fill="none" />
<path d="M509.08474576271186,381.12994350282486 L522.5536723163842,381.12994350282486" stroke="red" stroke-width="2" fill="none" />
<path d="M522.5536723163842,381.12994350282486 L522.5536723163842,354.1920903954802" stroke="red" stroke-width="2" fill="none" />
<path d="M522.5536723163842,408.06779661016947 L509.08474576271186,408.06779661016947" stroke="red" stroke-width="2" fill="none" />
<path d="M509.08474576271186,408.06779661016947 L509.08474576271186,435.00564971751413" stroke="red" stroke-width="2" fill="none" />
<path d="M509.08474576271186,435.00564971751413 L522.5536723163842,435.00564971751413" stroke="red" stroke-width="2" fill="none" />
<path d="M522.5536723163842,435.00564971751413 L522.5536723163842,408.06779661016947" stroke="red" stroke-width="2" fill="none" />
<path d="M711.1186440677966,354.1920903954802 L711.1186440677966,381.12994350282486" stroke="red" stroke-width="2" fill="none" />
<path d="M711.1186440677966,408.06779661016947 L711.1186440677966,435.00564971751413" stroke="red" stroke-width="2" fill="none" />
<path d="M711.1186440677966,381.12994350282486 L724.587570621469,381.12994350282486" stroke="red" stroke-width="2" fill="none" />
<path d="M724.587570621469,381.12994350282486 L724.587570621469,354.1920903954802" stroke="red" stroke-width="2" fill="none" />
<path d="M724.587570621469,354.1920903954802 L711.1186440677966,354.1920903954802" stroke="red" stroke-width="2" fill="none" />
<path d="M711.1186440677966,435.00564971751413 L724.587570621469,435.00564971751413" stroke="red" stroke-width="2" fill="none" />
<path d="M724.587570621469,435.00564971751413 L724.587570621469,408.06779661016947" stroke="red" stroke-width="2" fill="none" />
<path d="M724.587570621469,408.06779661016947 L711.1186440677966,408.06779661016947" stroke="red" stroke-width="2" fill="none" />
<path d="M576.4293785310734,165.6271186440678 L576.4293785310734,121.85310734463278" stroke="red" stroke-width="2" fill="none" />
<path d="M657.2429378531074,121.85310734463278 L657.2429378531074,165.6271186440678" stroke="red" stroke-width="2" fill="none" />
<path d="M576.4293785310734,121.85310734463278 L549.4915254237288,84.8135593220339" stroke="red" stroke-width="2" fill="none" />
<path d="M549.4915254237288,84.8135593220339 L549.4915254237288,30.93785310734463" stroke="red" stroke-width="2" fill="none" />
<path d="M684.180790960452,30.93785310734463 L684.180790960452,84.8135593220339" stroke="red" stroke-width="2" fill="none" />
<path d="M684.180790960452,84.8135593220339 L657.2429378531074,121.85310734463278" stroke="red" stroke-width="2" fill="none" />
<path d="M549.4915254237288,30.93785310734463 L576.4293785310734,30.93785310734463" stroke="red" stroke-width="2" fill="none" />
<path d="M657.2429378531074,30.93785310734463 L684.180790960452,30.93785310734463" stroke="red" stroke-width="2" fill="none" />
<path d="M576.4293785310734,30.93785310734463 L589.8983050847457,4.0" stroke="red" stroke-width="2" fill="none" />
<path d="M589.8983050847457,4.0 L643.7740112994351,4.0" stroke="red" stroke-width="2" fill="none" />
<path d="M643.7740112994351,4.0 L657.2429378531074,30.93785310734463" stroke="red" stroke-width="2" fill="none" />
<path d="M441.7401129943503,327.2542372881356 L468.67796610169495,327.2542372881356" stroke="red" stroke-width="2" fill="none" />
<path d="M468.67796610169495,327.2542372881356 L468.67796610169495,320.51977401129943" stroke="red" stroke-width="2" fill="none" />
<path d="M468.67796610169495,320.51977401129943 L495.61581920903956,320.51977401129943" stroke="lavender" stroke-width="2" fill="none" />
<path d="M495.61581920903956,320.51977401129943 L495.61581920903956,327.2542372881356" stroke="red" stroke-width="2" fill="none" />
<path d="M495.61581920903956,327.2542372881356 L522.5536723163842,327.2542372881356" stroke="red" stroke-width="2" fill="none" />
<path d="M711.1186440677966,246.4406779661017 L711.1186440677966,263.2768361581921" stroke="red" stroke-width="2" fill="none" />
<path d="M711.1186440677966,317.1525423728814 L711.1186440677966,327.2542372881356" stroke="red" stroke-width="2" fill="none" />
<path d="M711.1186440677966,263.2768361581921 L721.2203389830509,263.2768361581921" stroke="red" stroke-width="2" fill="none" />
<path d="M721.2203389830509,263.2768361581921 L812.1355932203389,263.2768361581921" stroke="red" stroke-width="2" fill="none" />
<path d="M812.1355932203389,263.2768361581921 L812.1355932203389,317.1525423728814" stroke="red" stroke-width="2" fill="none" />
<path d="M812.1355932203389,317.1525423728814 L721.2203389830509,317.1525423728814" stroke="red" stroke-width="2" fill="none" />
<path d="M721.2203389830509,317.1525423728814 L711.1186440677966,317.1525423728814" stroke="red" stroke-width="2" fill="none" />
<path d="M711.1186440677966,327.2542372881356 L738.0564971751412,327.2542372881356" stroke="red" stroke-width="2" fill="none" />
<path d="M738.0564971751412,327.2542372881356 L738.0564971751412,320.51977401129943" stroke="red" stroke-width="2" fill="none" />
<path d="M738.0564971751412,320.51977401129943 L764.9943502824859,320.51977401129943" stroke="lavender" stroke-width="2" fill="none" />
<path d="M764.9943502824859,320.51977401129943 L764.9943502824859,327.2542372881356" stroke="red" stroke-width="2" fill="none" />
<path d="M764.9943502824859,327.2542372881356 L791.9322033898305,327.2542372881356" stroke="red" stroke-width="2" fill="none" />
<path d="M711.1186440677966,603.3672316384182 L711.1186440677966,623.5706214689266" stroke="red" stroke-width="2" fill="none" />
<path d="M711.1186440677966,623.5706214689266 L764.9943502824859,623.5706214689266" stroke="red" stroke-width="2" fill="none" />
<path d="M764.9943502824859,623.5706214689266 L791.9322033898305,623.5706214689266" stroke="red" stroke-width="2" fill="none" />
<path d="M791.9322033898305,623.5706214689266 L791.9322033898305,650.5084745762713" stroke="red" stroke-width="2" fill="none" />
<path d="M791.9322033898305,650.5084745762713 L764.9943502824859,650.5084745762713" stroke="red" stroke-width="2" fill="none" />
<path d="M764.9943502824859,650.5084745762713 L711.1186440677966,650.5084745762713" stroke="red" stroke-width="2" fill="none" />
<path d="M711.1186440677966,650.5084745762713 L711.1186440677966,677.4463276836159" stroke="red" stroke-width="2" fill="none" />
<path d="M778.4632768361582,845.8079096045199 L778.4632768361582,866.0112994350283" stroke="red" stroke-width="2" fill="none" />
<path d="M778.4632768361582,866.0112994350283 L791.9322033898305,866.0112994350283" stroke="red" stroke-width="2" fill="none" />
<path d="M791.9322033898305,919.8870056497176 L778.4632768361582,919.8870056497176" stroke="red" stroke-width="2" fill="none" />
<path d="M822.2372881355932,866.0112994350283 L828.9717514124294,866.0112994350283" stroke="red" stroke-width="2" fill="none" />
<path d="M828.9717514124294,866.0112994350283 L839.0734463276837,866.0112994350283" stroke="red" stroke-width="2" fill="none" />
<path d="M839.0734463276837,866.0112994350283 L839.0734463276837,785.1977401129944" stroke="red" stroke-width="2" fill="none" />
<path d="M839.0734463276837,919.8870056497176 L828.9717514124294,919.8870056497176" stroke="red" stroke-width="2" fill="none" />
<path d="M828.9717514124294,919.8870056497176 L822.2372881355932,919.8870056497176" stroke="red" stroke-width="2" fill="none" />
<path d="M839.0734463276837,973.7627118644068 L839.0734463276837,919.8870056497176" stroke="red" stroke-width="2" fill="none" />
<path d="M791.9322033898305,866.0112994350283 L812.1355932203389,866.0112994350283" stroke="red" stroke-width="2" fill="none" />
<path d="M812.1355932203389,866.0112994350283 L822.2372881355932,866.0112994350283" stroke="red" stroke-width="2" fill="none" />
<path d="M822.2372881355932,919.8870056497176 L812.1355932203389,919.8870056497176" stroke="red" stroke-width="2" fill="none" />
<path d="M812.1355932203389,919.8870056497176 L791.9322033898305,919.8870056497176" stroke="red" stroke-width="2" fill="none" />
<path d="M953.5593220338983,785.1977401129944 L1169.0621468926554,785.1977401129944" stroke="red" stroke-width="2" fill="none" />
<path d="M1169.0621468926554,973.7627118644068 L953.5593220338983,973.7627118644068" stroke="red" stroke-width="2" fill="none" />
<path d="M1169.0621468926554,785.1977401129944 L1169.0621468926554,839.0734463276837" stroke="red" stroke-width="2" fill="none" />
<path d="M1169.0621468926554,919.8870056497176 L1169.0621468926554,973.7627118644068" stroke="red" stroke-width="2" fill="none" />
<path d="M1169.0621468926554,839.0734463276837 L1169.0621468926554,866.0112994350283" stroke="red" stroke-width="2" fill="none" />
<path d="M1169.0621468926554,866.0112994350283 L1196.0,866.0112994350283" stroke="red" stroke-width="2" fill="none" />
<path d="M1196.0,866.0112994350283 L1196.0,892.949152542373" stroke="red" stroke-width="2" fill="none" />
<path d="M1196.0,892.949152542373 L1169.0621468926554,892.949152542373" stroke="red" stroke-width="2" fill="none" />
<path d="M1169.0621468926554,892.949152542373 L1169.0621468926554,919.8870056497176" stroke="red" stroke-width="2" fill="none" />
<path d="M522.5536723163842,327.2542372881356 L522.5536723163842,313.7853107344633" stroke="red" stroke-width="2" fill="none" />
<path d="M522.5536723163842,259.909604519774 L522.5536723163842,246.4406779661017" stroke="red" stroke-width="2" fill="none" />
<path d="M522.5536723163842,313.7853107344633 L512.45197740113,313.7853107344633" stroke="red" stroke-width="2" fill="none" />
<path d="M512.45197740113,313.7853107344633 L414.8022598870057,313.7853107344633" stroke="red" stroke-width="2" fill="none" />
<path d="M414.8022598870057,313.7853107344633 L414.8022598870057,259.909604519774" stroke="red" stroke-width="2" fill="none" />
<path d="M414.8022598870057,259.909604519774 L512.45197740113,259.909604519774" stroke="red" stroke-width="2" fill="none" />
<path d="M512.45197740113,259.909604519774 L522.5536723163842,259.909604519774" stroke="red" stroke-width="2" fill="none" />
<path d="M657.2429378531074,165.6271186440678 L670.7118644067797,165.6271186440678" stroke="red" stroke-width="2" fill="none" />
<path d="M704.3841807909605,165.6271186440678 L711.1186440677966,165.6271186440678" stroke="red" stroke-width="2" fill="none" />
<path d="M670.7118644067797,165.6271186440678 L670.7118644067797,158.89265536723164" stroke="red" stroke-width="2" fill="none" />
<path d="M670.7118644067797,158.89265536723164 L670.7118644067797,108.38418079096044" stroke="red" stroke-width="2" fill="none" />
<path d="M670.7118644067797,108.38418079096044 L704.3841807909605,108.38418079096044" stroke="red" stroke-width="2" fill="none" />
<path d="M704.3841807909605,108.38418079096044 L704.3841807909605,158.89265536723164" stroke="red" stroke-width="2" fill="none" />
<path d="M704.3841807909605,158.89265536723164 L704.3841807909605,165.6271186440678" stroke="red" stroke-width="2" fill="none" />
<path d="M522.5536723163842,165.6271186440678 L529.2881355932203,165.6271186440678" stroke="red" stroke-width="2" fill="none" />
<path d="M562.9604519774011,165.6271186440678 L576.4293785310734,165.6271186440678" stroke="red" stroke-width="2" fill="none" />
<path d="M529.2881355932203,165.6271186440678 L529.2881355932203,158.89265536723164" stroke="red" stroke-width="2" fill="none" />
<path d="M562.9604519774011,158.89265536723164 L562.9604519774011,165.6271186440678" stroke="red" stroke-width="2" fill="none" />
<path d="M529.2881355932203,158.89265536723164 L529.2881355932203,108.38418079096044" stroke="red" stroke-width="2" fill="none" />
<path d="M529.2881355932203,108.38418079096044 L562.9604519774011,108.38418079096044" stroke="red" stroke-width="2" fill="none" />
<path d="M562.9604519774011,108.38418079096044 L562.9604519774011,158.89265536723164" stroke="red" stroke-width="2" fill="none" />
<path d="M468.67796610169495,1041.1073446327684 L441.7401129943503,1041.1073446327684" stroke="red" stroke-width="2" fill="none" />
<path d="M428.271186440678,1041.1073446327684 L360.9265536723164,1041.1073446327684" stroke="red" stroke-width="2" fill="none" />
<path d="M441.7401129943503,1041.1073446327684 L441.7401129943503,1054.5762711864406" stroke="red" stroke-width="2" fill="none" />
<path d="M441.7401129943503,1054.5762711864406 L428.271186440678,1054.5762711864406" stroke="red" stroke-width="2" fill="none" />
<path d="M428.271186440678,1054.5762711864406 L428.271186440678,1041.1073446327684" stroke="red" stroke-width="2" fill="none" />
<path d="M360.9265536723164,1041.1073446327684 L360.9265536723164,1027.638418079096" stroke="red" stroke-width="2" fill="none" />
<path d="M360.9265536723164,1027.638418079096 L347.45762711864404,1027.638418079096" stroke="red" stroke-width="2" fill="none" />
<path d="M347.45762711864404,1027.638418079096 L347.45762711864404,1014.1694915254238" stroke="red" stroke-width="2" fill="none" />
<path d="M347.45762711864404,1014.1694915254238 L360.9265536723164,1014.1694915254238" stroke="red" stroke-width="2" fill="none" />
<path d="M360.9265536723164,1014.1694915254238 L360.9265536723164,980.497175141243" stroke="red" stroke-width="2" fill="none" />
<path d="M778.4632768361582,1017.5367231638419 L603.367231638418,1017.5367231638419" stroke="red" stroke-width="2" fill="none" />
<path d="M778.4632768361582,919.8870056497176 L778.4632768361582,946.8248587570622" stroke="red" stroke-width="2" fill="none" />
<path d="M778.4632768361582,946.8248587570622 L791.9322033898305,946.8248587570622" stroke="red" stroke-width="2" fill="none" />
<path d="M791.9322033898305,946.8248587570622 L791.9322033898305,960.2937853107345" stroke="red" stroke-width="2" fill="none" />
<path d="M791.9322033898305,960.2937853107345 L778.4632768361582,960.2937853107345" stroke="red" stroke-width="2" fill="none" />
<path d="M778.4632768361582,960.2937853107345 L778.4632768361582,1017.5367231638419" stroke="red" stroke-width="2" fill="none" />
<path d="M778.4632768361582,758.2598870056497 L778.4632768361582,785.1977401129944" stroke="red" stroke-width="2" fill="none" />
<path d="M778.4632768361582,785.1977401129944 L791.9322033898305,785.1977401129944" stroke="red" stroke-width="2" fill="none" />
<path d="M791.9322033898305,785.1977401129944 L791.9322033898305,798.6666666666667" stroke="red" stroke-width="2" fill="none" />
<path d="M791.9322033898305,798.6666666666667 L778.4632768361582,798.6666666666667" stroke="red" stroke-width="2" fill="none" />
<path d="M778.4632768361582,798.6666666666667 L778.4632768361582,812.135593220339" stroke="red" stroke-width="2" fill="none" />
<path d="M455.2090395480226,488.8813559322034 L468.67796610169495,488.8813559322034" stroke="red" stroke-width="2" fill="none" />
<path d="M468.67796610169495,488.8813559322034 L468.67796610169495,475.41242937853104" stroke="red" stroke-width="2" fill="none" />
<path d="M468.67796610169495,475.41242937853104 L482.14689265536725,475.41242937853104" stroke="red" stroke-width="2" fill="none" />
<path d="M482.14689265536725,475.41242937853104 L482.14689265536725,488.8813559322034" stroke="red" stroke-width="2" fill="none" />
<path d="M482.14689265536725,488.8813559322034 L495.61581920903956,488.8813559322034" stroke="red" stroke-width="2" fill="none" />
<path d="M360.9265536723164,488.8813559322034 L374.3954802259887,488.8813559322034" stroke="red" stroke-width="2" fill="none" />
<path d="M374.3954802259887,488.8813559322034 L374.3954802259887,475.41242937853104" stroke="red" stroke-width="2" fill="none" />
<path d="M374.3954802259887,475.41242937853104 L387.86440677966107,475.41242937853104" stroke="red" stroke-width="2" fill="none" />
<path d="M387.86440677966107,475.41242937853104 L387.86440677966107,488.8813559322034" stroke="red" stroke-width="2" fill="none" />
<path d="M387.86440677966107,488.8813559322034 L401.33333333333337,488.8813559322034" stroke="red" stroke-width="2" fill="none" />
<path d="M495.61581920903956,596.632768361582 L495.61581920903956,610.1016949152543" stroke="red" stroke-width="2" fill="none" />
<path d="M495.61581920903956,610.1016949152543 L482.14689265536725,610.1016949152543" stroke="red" stroke-width="2" fill="none" />
<path d="M482.14689265536725,610.1016949152543 L482.14689265536725,596.632768361582" stroke="red" stroke-width="2" fill="none" />
<path d="M482.14689265536725,596.632768361582 L468.67796610169495,596.632768361582" stroke="red" stroke-width="2" fill="none" />
<path d="M387.86440677966107,596.632768361582 L374.3954802259887,596.632768361582" stroke="red" stroke-width="2" fill="none" />
<path d="M374.3954802259887,596.632768361582 L374.3954802259887,610.1016949152543" stroke="red" stroke-width="2" fill="none" />
<path d="M374.3954802259887,610.1016949152543 L360.9265536723164,610.1016949152543" stroke="red" stroke-width="2" fill="none" />
<path d="M360.9265536723164,610.1016949152543 L360.9265536723164,596.632768361582" stroke="red" stroke-width="2" fill="none" />
<path d="M872.7457627118645,973.7627118644068 L839.0734463276837,973.7627118644068" stroke="red" stroke-width="2" fill="none" />
<path d="M953.5593220338983,973.7627118644068 L953.5593220338983,1027.638418079096" stroke="red" stroke-width="2" fill="none" />
<path d="M953.5593220338983,1027.638418079096 L872.7457627118645,1027.638418079096" stroke="red" stroke-width="2" fill="none" />
<path d="M872.7457627118645,1027.638418079096 L872.7457627118645,973.7627118644068" stroke="red" stroke-width="2" fill="none" />
<path d="M839.0734463276837,785.1977401129944 L926.6214689265537,785.1977401129944" stroke="red" stroke-width="2" fill="none" />
<path d="M926.6214689265537,785.1977401129944 L926.6214689265537,778.4632768361582" stroke="red" stroke-width="2" fill="none" />
<path d="M953.5593220338983,778.4632768361582 L953.5593220338983,785.1977401129944" stroke="red" stroke-width="2" fill="none" />
<path d="M926.6214689265537,731.3220338983051 L953.5593220338983,731.3220338983051" stroke="red" stroke-width="2" fill="none" />
<path d="M953.5593220338983,731.3220338983051 L953.5593220338983,758.2598870056497" stroke="red" stroke-width="2" fill="none" />
<path d="M953.5593220338983,758.2598870056497 L953.5593220338983,778.4632768361582" stroke="red" stroke-width="2" fill="none" />
<path d="M926.6214689265537,778.4632768361582 L926.6214689265537,758.2598870056497" stroke="red" stroke-width="2" fill="none" />
<path d="M926.6214689265537,758.2598870056497 L926.6214689265537,731.3220338983051" stroke="red" stroke-width="2" fill="none" />
</svg>