<?xml version="1.0" encoding="UTF-8"?>
<svg xmlns="http://www.w3.org/2000/svg" xmlns:xlink="http://www.w3.org/1999/xlink"
     width="1200" height="889" viewBox="0 0 1200 889">
<defs>
</defs>
<path d="M509.304347826087,68.78260869565224 L509.304347826087,198.3478260869565" stroke="lavender" stroke-width="2" fill="none" />
<path d="M509.304347826087,198.3478260869565 L535.2173913043479,198.3478260869565" stroke="lavender" stroke-width="2" fill="none" />
<path d="M535.2173913043479,198.3478260869565 L535.2173913043479,68.78260869565224" stroke="lavender" stroke-width="2" fill="none" />
<path d="M535.2173913043479,68.78260869565224 L509.304347826087,68.78260869565224" stroke="lavender" stroke-width="2" fill="none" />
<path d="M638.8695652173914,68.78260869565224 L638.8695652173914,198.3478260869565" stroke="lavender" stroke-width="2" fill="none" />
<path d="M638.8695652173914,198.3478260869565 L664.7826086956522,198.3478260869565" stroke="lavender" stroke-width="2" fill="none" />
<path d="M664.7826086956522,198.3478260869565 L664.7826086956522,68.78260869565224" stroke="lavender" stroke-width="2" fill="none" />
<path d="M664.7826086956522,68.78260869565224 L638.8695652173914,68.78260869565224" stroke="lavender" stroke-width="2" fill="none" />
<path d="M690.6956521739131,68.78260869565224 L690.6956521739131,198.3478260869565" stroke="lavender" stroke-width="2" fill="none" />
<path d="M690.6956521739131,198.3478260869565 L716.608695652174,198.3478260869565" stroke="lavender" stroke-width="2" fill="none" />
<path d="M716.608695652174,198.3478260869565 L716.608695652174,68.78260869565224" stroke="lavender" stroke-width="2" fill="none" />
<path d="M716.608695652174,68.78260869565224 L690.6956521739131,68.78260869565224" stroke="lavender" stroke-width="2" fill="none" />
<path d="M625.9130434782609,690.6956521739131 L625.9130434782609,820.2608695652175" stroke="lavender" stroke-width="2" fill="none" />
<path d="M625.9130434782609,820.2608695652175 L651.8260869565217,820.2608695652175" stroke="lavender" stroke-width="2" fill="none" />
<path d="M651.8260869565217,820.2608695652175 L651.8260869565217,690.6956521739131" stroke="lavender" stroke-width="2" fill="none" />
<path d="M651.8260869565217,690.6956521739131 L625.9130434782609,690.6956521739131" stroke="lavender" stroke-width="2" fill="none" />
<path d="M470.4347826086957,820.2608695652175 L509.304347826087,820.2608695652175" stroke="lavender" stroke-width="2" fill="none" />
<path d="M561.1304347826087,820.2608695652175 L600.0,820.2608695652175" stroke="lavender" stroke-width="2" fill="none" />
<path d="M600.0,820.2608695652175 L561.1304347826087,690.6956521739131" stroke="lavender" stroke-width="2" fill="none" />
<path d="M561.1304347826087,690.6956521739131 L509.304347826087,690.6956521739131" stroke="lavender" stroke-width="2" fill="none" />
<path d="M509.304347826087,690.6956521739131 L470.4347826086957,820.2608695652175" stroke="lavender" stroke-width="2" fill="none" />
<path d="M509.304347826087,820.2608695652175 L535.2173913043479,742.5217391304349" stroke="lavender" stroke-width="2" fill="none" />
<path d="M535.2173913043479,742.5217391304349 L561.1304347826087,820.2608695652175" stroke="lavender" stroke-width="2" fill="none" />
<path d="M625.9130434782609,859.1304347826089 L574.0869565217392,859.1304347826089" stroke="lavender" stroke-width="2" fill="none" />
<path d="M29.913043478260875,470.43478260869574 L29.913043478260875,418.608695652174" stroke="lavender" stroke-width="2" fill="none" />
<path d="M496.34782608695656,29.913043478260988 L548.1739130434783,29.913043478260988" stroke="lavender" stroke-width="2" fill="none" />
<path d="M651.8260869565217,29.913043478260988 L703.6521739130435,29.913043478260988" stroke="lavender" stroke-width="2" fill="none" />
<path d="M1170.0869565217392,418.608695652174 L1170.0869565217392,470.43478260869574" stroke="lavender" stroke-width="2" fill="none" />
<path d="M833.2173913043479,535.217391304348 L833.2173913043479,366.78260869565224" stroke="lavender" stroke-width="2" fill="none" />
<path d="M340.8695652173913,535.217391304348 L340.8695652173913,353.82608695652186" stroke="lavender" stroke-width="2" fill="none" />
<path d="M340.8695652173913,353.82608695652186 L29.913043478260875,237.21739130434798" stroke="lavender" stroke-width="2" fill="none" />
<path d="M353.82608695652175,237.21739130434798 L340.8695652173913,353.82608695652186" stroke="lavender" stroke-width="2" fill="none" />
<path d="M392.69565217391306,29.913043478260988 L353.82608695652175,237.21739130434798" stroke="lavender" stroke-width="2" fill="none" />
<path d="M833.2173913043479,535.217391304348 L1170.0869565217392,651.8260869565219" stroke="lavender" stroke-width="2" fill="none" />
<path d="M353.82608695652175,237.21739130434798 L600.0,237.21739130434798" stroke="lavender" stroke-width="2" fill="none" />
<path d="M600.0,237.21739130434798 L820.2608695652175,237.21739130434798" stroke="lavender" stroke-width="2" fill="none" />
<path d="M600.0,29.913043478260988 L600.0,237.21739130434798" stroke="lavender" stroke-width="2" fill="none" />
<path d="M820.2608695652175,651.8260869565219 L587.0434782608696,651.8260869565219" stroke="lavender" stroke-width="2" fill="none" />
<path d="M587.0434782608696,651.8260869565219 L353.82608695652175,651.8260869565219" stroke="lavender" stroke-width="2" fill="none" />
<path d="M392.69565217391306,859.1304347826089 L353.82608695652175,651.8260869565219" stroke="lavender" stroke-width="2" fill="none" />
<path d="M353.82608695652175,651.8260869565219 L340.8695652173913,535.217391304348" stroke="lavender" stroke-width="2" fill="none" />
<path d="M833.2173913043479,535.217391304348 L820.2608695652175,651.8260869565219" stroke="lavender" stroke-width="2" fill="none" />
<path d="M820.2608695652175,651.8260869565219 L807.304347826087,859.1304347826089" stroke="lavender" stroke-width="2" fill="none" />
<path d="M29.913043478260875,651.8260869565219 L340.8695652173913,535.217391304348" stroke="lavender" stroke-width="2" fill="none" />
<path d="M833.2173913043479,366.78260869565224 L1170.0869565217392,237.21739130434798" stroke="lavender" stroke-width="2" fill="none" />
<path d="M833.2173913043479,366.78260869565224 L820.2608695652175,237.21739130434798" stroke="lavender" stroke-width="2" fill="none" />
<path d="M820.2608695652175,237.21739130434798 L807.304347826087,29.913043478260988" stroke="lavender" stroke-width="2" fill="none" />
<path d="M457.47826086956525,496.3478260869566 L457.47826086956525,405.6521739130436" stroke="lavender" stroke-width="2" fill="none" />
<path d="M457.47826086956525,405.6521739130436 L587.0434782608696,340.8695652173915" stroke="lavender" stroke-width="2" fill="none" />
<path d="M587.0434782608696,340.8695652173915 L716.608695652174,405.6521739130436" stroke="lavender" stroke-width="2" fill="none" />
<path d="M716.608695652174,405.6521739130436 L716.608695652174,496.3478260869566" stroke="lavender" stroke-width="2" fill="none" />
<path d="M716.608695652174,496.3478260869566 L587.0434782608696,548.1739130434784" stroke="lavender" stroke-width="2" fill="none" />
<path d="M587.0434782608696,548.1739130434784 L457.47826086956525,496.3478260869566" stroke="lavender" stroke-width="2" fill="none" />
<path d="M587.0434782608696,651.8260869565219 L587.0434782608696,548.1739130434784" stroke="lavender" stroke-width="2" fill="none" />
<path d="M340.8695652173913,535.217391304348 L457.47826086956525,496.3478260869566" stroke="lavender" stroke-width="2" fill="none" />
<path d="M716.608695652174,405.6521739130436 L833.2173913043479,366.78260869565224" stroke="lavender" stroke-width="2" fill="none" />
<path d="M833.2173913043479,535.217391304348 L716.608695652174,496.3478260869566" stroke="lavender" stroke-width="2" fill="none" />
<path d="M457.47826086956525,405.6521739130436 L340.8695652173913,353.82608695652186" stroke="lavender" stroke-width="2" fill="none" />
<path d="M587.0434782608696,340.8695652173915 L600.0,237.21739130434798" stroke="lavender" stroke-width="2" fill="none" />
<path d="M587.0434782608696,548.1739130434784 L587.0434782608696,444.52173913043487" stroke="lavender" stroke-width="2" fill="none" />
<path d="M587.0434782608696,444.52173913043487 L587.0434782608696,340.8695652173915" stroke="lavender" stroke-width="2" fill="none" />
<path d="M716.608695652174,405.6521739130436 L587.0434782608696,444.52173913043487" stroke="lavender" stroke-width="2" fill="none" />
<path d="M716.608695652174,496.3478260869566 L587.0434782608696,444.52173913043487" stroke="lavender" stroke-width="2" fill="none" />
<path d="M587.0434782608696,444.52173913043487 L457.47826086956525,405.6521739130436" stroke="lavender" stroke-width="2" fill="none" />
<path d="M457.47826086956525,496.3478260869566 L587.0434782608696,444.52173913043487" stroke="lavender" stroke-width="2" fill="none" />
<path d="M68.78260869565213,509.3043478260871 L198.3478260869565,470.43478260869574" stroke="lavender" stroke-width="2" fill="none" />
<path d="M198.3478260869565,470.43478260869574 L198.3478260869565,418.608695652174" stroke="lavender" stroke-width="2" fill="none" />
<path d="M198.3478260869565,418.608695652174 L68.78260869565213,379.73913043478274" stroke="lavender" stroke-width="2" fill="none" />
<path d="M68.78260869565213,379.73913043478274 L68.78260869565213,418.608695652174" stroke="lavender" stroke-width="2" fill="none" />
<path d="M68.78260869565213,418.608695652174 L146.52173913043475,444.52173913043487" stroke="lavender" stroke-width="2" fill="none" />
<path d="M146.52173913043475,444.52173913043487 L68.78260869565213,470.43478260869574" stroke="lavender" stroke-width="2" fill="none" />
<path d="M68.78260869565213,470.43478260869574 L68.78260869565213,509.3043478260871" stroke="lavender" stroke-width="2" fill="none" />
<path d="M1001.6521739130435,379.73913043478274 L1131.217391304348,379.73913043478274" stroke="lavender" stroke-width="2" fill="none" />
<path d="M1131.217391304348,379.73913043478274 L1131.217391304348,405.6521739130436" stroke="lavender" stroke-width="2" fill="none" />
<path d="M1131.217391304348,405.6521739130436 L1001.6521739130435,405.6521739130436" stroke="lavender" stroke-width="2" fill="none" />
<path d="M1001.6521739130435,405.6521739130436 L1001.6521739130435,379.73913043478274" stroke="lavender" stroke-width="2" fill="none" />
<path d="M1001.6521739130435,431.5652173913045 L1131.217391304348,431.5652173913045" stroke="lavender" stroke-width="2" fill="none" />
<path d="M1131.217391304348,431.5652173913045 L1131.217391304348,457.47826086956536" stroke="lavender" stroke-width="2" fill="none" />
<path d="M1131.217391304348,457.47826086956536 L1001.6521739130435,457.47826086956536" stroke="lavender" stroke-width="2" fill="none" />
<path d="M1001.6521739130435,457.47826086956536 L1001.6521739130435,431.5652173913045" stroke="lavender" stroke-width="2" fill="none" />
<path d="M1001.6521739130435,483.39130434782624 L1131.217391304348,483.39130434782624" stroke="lavender" stroke-width="2" fill="none" />
<path d="M1131.217391304348,483.39130434782624 L1131.217391304348,509.3043478260871" stroke="lavender" stroke-width="2" fill="none" />
<path d="M1131.217391304348,509.3043478260871 L1001.6521739130435,509.3043478260871" stroke="lavender" stroke-width="2" fill="none" />
<path d="M1001.6521739130435,509.3043478260871 L1001.6521739130435,483.39130434782624" stroke="lavender" stroke-width="2" fill="none" />
<path d="M29.913043478260875,237.21739130434798 L392.69565217391306,29.913043478260988" stroke="lavender" stroke-width="2" fill="none" />
<path d="M807.304347826087,29.913043478260988 L1170.0869565217392,237.21739130434798" stroke="lavender" stroke-width="2" fill="none" />
<path d="M1170.0869565217392,651.8260869565219 L807.304347826087,859.1304347826089" stroke="lavender" stroke-width="2" fill="none" />
<path d="M392.69565217391306,859.1304347826089 L29.913043478260875,651.8260869565219" stroke="lavender" stroke-width="2" fill="none" />
<path d="M392.69565217391306,29.913043478260988 L496.34782608695656,29.913043478260988" stroke="lavender" stroke-width="2" fill="none" />
<path d="M496.34782608695656,29.913043478260988 L496.34782608695656,4.0" stroke="red" stroke-width="2" fill="none" />
<path d="M496.34782608695656,4.0 L548.1739130434783,4.0" stroke="red" stroke-width="2" fill="none" />
<path d="M548.1739130434783,4.0 L548.1739130434783,29.913043478260988" stroke="red" stroke-width="2" fill="none" />
<path d="M651.8260869565217,29.913043478260988 L651.8260869565217,4.0" stroke="red" stroke-width="2" fill="none" />
<path d="M651.8260869565217,4.0 L703.6521739130435,4.0" stroke="red" stroke-width="2" fill="none" />
<path d="M703.6521739130435,4.0 L703.6521739130435,29.913043478260988" stroke="red" stroke-width="2" fill="none" />
<path d="M703.6521739130435,29.913043478260988 L807.304347826087,29.913043478260988" stroke="lavender" stroke-width="2" fill="none" />
<path d="M1170.0869565217392,237.21739130434798 L1170.0869565217392,418.608695652174" stroke="lavender" stroke-width="2" fill="none" />
<path d="M1170.0869565217392,418.608695652174 L1196.0,418.608695652174" stroke="red" stroke-width="2" fill="none" />
<path d="M1196.0,418.608695652174 L1196.0,470.43478260869574" stroke="red" stroke-width="2" fill="none" />
<path d="M1196.0,470.43478260869574 L1170.0869565217392,470.43478260869574" stroke="red" stroke-width="2" fill="none" />
<path d="M1170.0869565217392,470.43478260869574 L1170.0869565217392,651.8260869565219" stroke="lavender" stroke-width="2" fill="none" />
<path d="M807.304347826087,859.1304347826089 L625.9130434782609,859.1304347826089" stroke="lavender" stroke-width="2" fill="none" />
<path d="M625.9130434782609,859.1304347826089 L625.9130434782609,885.0434782608697" stroke="red" stroke-width="2" fill="none" />
<path d="M625.9130434782609,885.0434782608697 L574.0869565217392,885.0434782608697" stroke="red" stroke-width="2" fill="none" />
<path d="M574.0869565217392,885.0434782608697 L574.0869565217392,859.1304347826089" stroke="red" stroke-width="2" fill="none" />
<path d="M574.0869565217392,859.1304347826089 L392.69565217391306,859.1304347826089" stroke="lavender" stroke-width="2" fill="none" />
<path d="M29.913043478260875,651.8260869565219 L29.913043478260875,470.43478260869574" stroke="lavender" stroke-width="2" fill="none" />
<path d="M29.913043478260875,470.43478260869574 L4.0,470.43478260869574" stroke="red" stroke-width="2" fill="none" />
<path d="M4.0,470.43478260869574 L4.0,418.608695652174" stroke="red" stroke-width="2" fill="none" />
<path d="M4.0,418.608695652174 L29.913043478260875,418.608695652174" stroke="red" stroke-width="2" fill="none" />
<path d="M29.913043478260875,418.608695652174 L29.913043478260875,237.21739130434798" stroke="lavender" stroke-width="2" fill="none" />
<path d="M548.1739130434783,29.913043478260988 L600.0,29.913043478260988" stroke="lavender" stroke-width="2" fill="none" />
<path d="M600.0,29.913043478260988 L651.8260869565217,29.913043478260988" stroke="lavender" stroke-width="2" fill="none" />
</svg>