<?xml version="1.0" encoding="UTF-8"?>
<svg xmlns="http://www.w3.org/2000/svg" xmlns:xlink="http://www.w3.org/1999/xlink"
     width="1200" height="1244" viewBox="0 0 1200 1244">
<defs>
</defs>
<path d="M427.0989761092151,561.3515358361775 L463.7133105802048,561.3515358361775" stroke="yellow" stroke-width="1" fill="none" />
<path d="M414.89419795221846,569.4880546075085 L427.0989761092151,561.3515358361775" stroke="yellow" stroke-width="1" fill="none" />
<path d="M410.8259385665529,610.1706484641638 L414.89419795221846,569.4880546075085" stroke="yellow" stroke-width="1" fill="none" />
<path d="M418.962457337884,622.3754266211604 L410.8259385665529,610.1706484641638" stroke="yellow" stroke-width="1" fill="none" />
<path d="M488.12286689419795,602.0341296928327 L475.9180887372014,630.5119453924915" stroke="yellow" stroke-width="1" fill="none" />
<path d="M463.7133105802048,561.3515358361775 L484.05460750853246,577.6245733788396" stroke="yellow" stroke-width="1" fill="none" />
<path d="M435.2354948805461,630.5119453924915 L418.962457337884,622.3754266211604" stroke="yellow" stroke-width="1" fill="none" />
<path d="M475.9180887372014,630.5119453924915 L435.2354948805461,630.5119453924915" stroke="yellow" stroke-width="1" fill="none" />
<path d="M410.8259385665529,561.3515358361775 L418.962457337884,545.0784982935154" stroke="yellow" stroke-width="1" fill="none" />
<path d="M414.89419795221846,569.4880546075085 L410.8259385665529,561.3515358361775" stroke="yellow" stroke-width="1" fill="none" />
<path d="M512.5324232081912,602.0341296928327 L512.5324232081912,634.580204778157" stroke="yellow" stroke-width="1" fill="none" />
<path d="M516.6006825938567,573.5563139931742 L512.5324232081912,602.0341296928327" stroke="yellow" stroke-width="1" fill="none" />
<path d="M512.5324232081912,634.580204778157 L488.12286689419795,650.8532423208192" stroke="yellow" stroke-width="1" fill="none" />
<path d="M439.3037542662116,654.9215017064846 L406.7576791808874,638.6484641638226" stroke="yellow" stroke-width="1" fill="none" />
<path d="M488.12286689419795,650.8532423208192 L439.3037542662116,654.9215017064846" stroke="yellow" stroke-width="1" fill="none" />
<path d="M362.0068259385666,577.6245733788396 L382.34812286689424,553.2150170648465" stroke="yellow" stroke-width="1" fill="none" />
<path d="M362.0068259385666,614.2389078498294 L362.0068259385666,577.6245733788396" stroke="yellow" stroke-width="1" fill="none" />
<path d="M406.7576791808874,626.443686006826 L362.0068259385666,614.2389078498294" stroke="yellow" stroke-width="1" fill="none" />
<path d="M406.7576791808874,638.6484641638226 L406.7576791808874,626.443686006826" stroke="yellow" stroke-width="1" fill="none" />
<path d="M541.0102389078498,504.3959044368601 L541.0102389078498,541.0102389078498" stroke="yellow" stroke-width="1" fill="none" />
<path d="M500.32764505119457,471.84982935153585 L541.0102389078498,504.3959044368601" stroke="yellow" stroke-width="1" fill="none" />
<path d="M451.50853242320824,475.9180887372014 L500.32764505119457,471.84982935153585" stroke="yellow" stroke-width="1" fill="none" />
<path d="M541.0102389078498,541.0102389078498 L516.6006825938567,573.5563139931742" stroke="yellow" stroke-width="1" fill="none" />
<path d="M398.62116040955635,508.4641638225256 L451.50853242320824,475.9180887372014" stroke="yellow" stroke-width="1" fill="none" />
<path d="M378.2798634812287,528.8054607508533 L398.62116040955635,508.4641638225256" stroke="yellow" stroke-width="1" fill="none" />
<path d="M382.34812286689424,553.2150170648465 L378.2798634812287,528.8054607508533" stroke="yellow" stroke-width="1" fill="none" />
<path d="M602.0341296928328,532.8737201365188 L606.1023890784984,565.4197952218431" stroke="yellow" stroke-width="1" fill="none" />
<path d="M569.4880546075085,496.25938566552907 L602.0341296928328,532.8737201365188" stroke="yellow" stroke-width="1" fill="none" />
<path d="M606.1023890784984,565.4197952218431 L606.1023890784984,589.8293515358362" stroke="yellow" stroke-width="1" fill="none" />
<path d="M606.1023890784984,589.8293515358362 L602.0341296928328,610.1706484641638" stroke="yellow" stroke-width="1" fill="none" />
<path d="M602.0341296928328,610.1706484641638 L553.2150170648465,638.6484641638226" stroke="yellow" stroke-width="1" fill="none" />
<path d="M435.2354948805461,663.0580204778157 L370.14334470989763,671.1945392491468" stroke="yellow" stroke-width="1" fill="none" />
<path d="M439.3037542662116,654.9215017064846 L435.2354948805461,663.0580204778157" stroke="yellow" stroke-width="1" fill="none" />
<path d="M333.52901023890786,650.8532423208192 L313.18771331058025,626.443686006826" stroke="yellow" stroke-width="1" fill="none" />
<path d="M370.14334470989763,671.1945392491468 L333.52901023890786,650.8532423208192" stroke="yellow" stroke-width="1" fill="none" />
<path d="M313.18771331058025,626.443686006826 L317.25597269624575,557.283276450512" stroke="yellow" stroke-width="1" fill="none" />
<path d="M317.25597269624575,557.283276450512 L353.8703071672355,528.8054607508533" stroke="yellow" stroke-width="1" fill="none" />
<path d="M353.8703071672355,528.8054607508533 L378.2798634812287,528.8054607508533" stroke="yellow" stroke-width="1" fill="none" />
<path d="M349.80204778156997,500.3276450511946 L374.2116040955632,479.98634812286696" stroke="yellow" stroke-width="1" fill="none" />
<path d="M378.2798634812287,463.71331058020485 L414.89419795221846,435.23549488054607" stroke="yellow" stroke-width="1" fill="none" />
<path d="M451.50853242320824,423.0307167235495 L524.7372013651877,423.0307167235495" stroke="yellow" stroke-width="1" fill="none" />
<path d="M414.89419795221846,435.23549488054607 L451.50853242320824,423.0307167235495" stroke="yellow" stroke-width="1" fill="none" />
<path d="M382.34812286689424,707.8088737201365 L382.34812286689424,695.6040955631399" stroke="yellow" stroke-width="1" fill="none" />
<path d="M382.34812286689424,695.6040955631399 L370.14334470989763,671.1945392491468" stroke="yellow" stroke-width="1" fill="none" />
<path d="M512.5324232081912,711.8771331058022 L431.1672354948806,715.9453924914676" stroke="yellow" stroke-width="1" fill="none" />
<path d="M431.1672354948806,715.9453924914676 L382.34812286689424,707.8088737201365" stroke="yellow" stroke-width="1" fill="none" />
<path d="M536.9419795221843,687.4675767918089 L512.5324232081912,711.8771331058022" stroke="yellow" stroke-width="1" fill="none" />
<path d="M553.2150170648465,638.6484641638226 L557.283276450512,654.9215017064846" stroke="yellow" stroke-width="1" fill="none" />
<path d="M557.283276450512,654.9215017064846 L536.9419795221843,687.4675767918089" stroke="yellow" stroke-width="1" fill="none" />
<path d="M382.34812286689424,707.8088737201365 L349.80204778156997,711.8771331058022" stroke="yellow" stroke-width="1" fill="none" />
<path d="M256.23208191126287,667.1262798634813 L235.89078498293517,589.8293515358362" stroke="yellow" stroke-width="1" fill="none" />
<path d="M321.3242320819113,711.8771331058022 L256.23208191126287,667.1262798634813" stroke="yellow" stroke-width="1" fill="none" />
<path d="M349.80204778156997,711.8771331058022 L321.3242320819113,711.8771331058022" stroke="yellow" stroke-width="1" fill="none" />
<path d="M235.89078498293517,589.8293515358362 L244.02730375426623,557.283276450512" stroke="yellow" stroke-width="1" fill="none" />
<path d="M244.02730375426623,557.283276450512 L305.0511945392492,508.4641638225256" stroke="yellow" stroke-width="1" fill="none" />
<path d="M305.0511945392492,508.4641638225256 L337.5972696245734,500.3276450511946" stroke="yellow" stroke-width="1" fill="none" />
<path d="M337.5972696245734,500.3276450511946 L349.80204778156997,500.3276450511946" stroke="yellow" stroke-width="1" fill="none" />
<path d="M646.7849829351536,516.6006825938566 L658.9897610921503,549.1467576791808" stroke="yellow" stroke-width="1" fill="none" />
<path d="M658.9897610921503,549.1467576791808 L658.9897610921503,565.4197952218431" stroke="yellow" stroke-width="1" fill="none" />
<path d="M646.7849829351536,610.1706484641638 L618.307167235495,634.580204778157" stroke="yellow" stroke-width="1" fill="none" />
<path d="M618.307167235495,634.580204778157 L569.4880546075085,663.0580204778157" stroke="yellow" stroke-width="1" fill="none" />
<path d="M581.6928327645052,459.6450511945393 L646.7849829351536,516.6006825938566" stroke="yellow" stroke-width="1" fill="none" />
<path d="M451.50853242320824,776.9692832764506 L362.0068259385666,768.8327645051195" stroke="yellow" stroke-width="1" fill="none" />
<path d="M362.0068259385666,768.8327645051195 L357.9385665529011,781.037542662116" stroke="yellow" stroke-width="1" fill="none" />
<path d="M549.146757679181,736.2866894197953 L451.50853242320824,776.9692832764506" stroke="yellow" stroke-width="1" fill="none" />
<path d="M565.4197952218431,707.8088737201365 L549.146757679181,736.2866894197953" stroke="yellow" stroke-width="1" fill="none" />
<path d="M569.4880546075085,663.0580204778157 L565.4197952218431,707.8088737201365" stroke="yellow" stroke-width="1" fill="none" />
<path d="M321.3242320819113,740.3549488054607 L321.3242320819113,711.8771331058022" stroke="yellow" stroke-width="1" fill="none" />
<path d="M170.7986348122867,557.283276450512 L211.481228668942,516.6006825938566" stroke="yellow" stroke-width="1" fill="none" />
<path d="M211.481228668942,516.6006825938566 L248.09556313993176,471.84982935153585" stroke="yellow" stroke-width="1" fill="none" />
<path d="M321.3242320819113,740.3549488054607 L280.641638225256,736.2866894197953" stroke="yellow" stroke-width="1" fill="none" />
<path d="M280.641638225256,736.2866894197953 L219.61774744027306,707.8088737201365" stroke="yellow" stroke-width="1" fill="none" />
<path d="M219.61774744027306,707.8088737201365 L195.2081911262799,675.2627986348123" stroke="yellow" stroke-width="1" fill="none" />
<path d="M195.2081911262799,675.2627986348123 L170.7986348122867,622.3754266211604" stroke="yellow" stroke-width="1" fill="none" />
<path d="M170.7986348122867,622.3754266211604 L170.7986348122867,557.283276450512" stroke="yellow" stroke-width="1" fill="none" />
<path d="M345.73378839590447,805.4470989761093 L357.9385665529011,781.037542662116" stroke="yellow" stroke-width="1" fill="none" />
<path d="M154.5255972696246,630.5119453924915 L170.7986348122867,622.3754266211604" stroke="yellow" stroke-width="1" fill="none" />
<path d="M142.320819112628,691.5358361774745 L142.320819112628,675.2627986348123" stroke="yellow" stroke-width="1" fill="none" />
<path d="M142.320819112628,675.2627986348123 L154.5255972696246,630.5119453924915" stroke="yellow" stroke-width="1" fill="none" />
<path d="M321.3242320819113,455.57679180887374 L333.52901023890786,427.0989761092151" stroke="yellow" stroke-width="1" fill="none" />
<path d="M366.07508532423213,394.55290102389085 L410.8259385665529,362.00682593856664" stroke="yellow" stroke-width="1" fill="none" />
<path d="M333.52901023890786,427.0989761092151 L366.07508532423213,394.55290102389085" stroke="yellow" stroke-width="1" fill="none" />
<path d="M410.8259385665529,362.00682593856664 L492.1911262798635,353.8703071672355" stroke="yellow" stroke-width="1" fill="none" />
<path d="M524.7372013651877,366.0750853242321 L569.4880546075085,390.4846416382253" stroke="yellow" stroke-width="1" fill="none" />
<path d="M492.1911262798635,353.8703071672355 L524.7372013651877,366.0750853242321" stroke="yellow" stroke-width="1" fill="none" />
<path d="M569.4880546075085,390.4846416382253 L585.7610921501707,439.3037542662116" stroke="yellow" stroke-width="1" fill="none" />
<path d="M585.7610921501707,439.3037542662116 L581.6928327645052,459.6450511945393" stroke="yellow" stroke-width="1" fill="none" />
<path d="M846.1296928327645,654.9215017064846 L846.1296928327645,687.4675767918089" stroke="yellow" stroke-width="1" fill="none" />
<path d="M842.061433447099,504.3959044368601 L850.1979522184301,581.6928327645052" stroke="yellow" stroke-width="1" fill="none" />
<path d="M492.1911262798635,353.8703071672355 L516.6006825938567,317.25597269624575" stroke="yellow" stroke-width="1" fill="none" />
<path d="M516.6006825938567,317.25597269624575 L516.6006825938567,300.98293515358364" stroke="yellow" stroke-width="1" fill="none" />
<path d="M146.38907849829354,488.12286689419795 L130.11604095563143,484.0546075085324" stroke="yellow" stroke-width="1" fill="none" />
<path d="M170.7986348122867,557.283276450512 L146.38907849829354,488.12286689419795" stroke="yellow" stroke-width="1" fill="none" />
<path d="M65.02389078498294,614.2389078498294 L65.02389078498294,577.6245733788396" stroke="yellow" stroke-width="1" fill="none" />
<path d="M622.3754266211604,402.68941979522185 L650.8532423208192,427.0989761092151" stroke="yellow" stroke-width="1" fill="none" />
<path d="M593.8976109215017,386.41638225255974 L622.3754266211604,402.68941979522185" stroke="yellow" stroke-width="1" fill="none" />
<path d="M569.4880546075085,390.4846416382253 L593.8976109215017,386.41638225255974" stroke="yellow" stroke-width="1" fill="none" />
<path d="M650.8532423208192,427.0989761092151 L679.3310580204779,484.0546075085324" stroke="yellow" stroke-width="1" fill="none" />
<path d="M679.3310580204779,484.0546075085324 L671.1945392491468,541.0102389078498" stroke="yellow" stroke-width="1" fill="none" />
<path d="M671.1945392491468,541.0102389078498 L658.9897610921503,549.1467576791808" stroke="yellow" stroke-width="1" fill="none" />
<path d="M260.30034129692837,370.14334470989763 L341.66552901023897,341.66552901023897" stroke="yellow" stroke-width="1" fill="none" />
<path d="M378.2798634812287,345.7337883959044 L410.8259385665529,362.00682593856664" stroke="yellow" stroke-width="1" fill="none" />
<path d="M341.66552901023897,341.66552901023897 L378.2798634812287,345.7337883959044" stroke="yellow" stroke-width="1" fill="none" />
<path d="M231.82252559726965,447.44027303754274 L260.30034129692837,370.14334470989763" stroke="yellow" stroke-width="1" fill="none" />
<path d="M248.09556313993176,471.84982935153585 L231.82252559726965,447.44027303754274" stroke="yellow" stroke-width="1" fill="none" />
<path d="M512.5324232081912,634.580204778157 L553.2150170648465,638.6484641638226" stroke="yellow" stroke-width="1" fill="none" />
<path d="M557.283276450512,654.9215017064846 L569.4880546075085,663.0580204778157" stroke="yellow" stroke-width="1" fill="none" />
<path d="M516.6006825938567,573.5563139931742 L496.25938566552907,536.9419795221843" stroke="yellow" stroke-width="1" fill="none" />
<path d="M496.25938566552907,536.9419795221843 L435.2354948805461,532.8737201365188" stroke="yellow" stroke-width="1" fill="none" />
<path d="M435.2354948805461,532.8737201365188 L418.962457337884,545.0784982935154" stroke="yellow" stroke-width="1" fill="none" />
<path d="M418.962457337884,545.0784982935154 L398.62116040955635,545.0784982935154" stroke="yellow" stroke-width="1" fill="none" />
<path d="M398.62116040955635,545.0784982935154 L382.34812286689424,553.2150170648465" stroke="yellow" stroke-width="1" fill="none" />
<path d="M406.7576791808874,626.443686006826 L418.962457337884,622.3754266211604" stroke="yellow" stroke-width="1" fill="none" />
<path d="M374.2116040955632,479.98634812286696 L378.2798634812287,463.71331058020485" stroke="yellow" stroke-width="1" fill="none" />
<path d="M378.2798634812287,463.71331058020485 L321.3242320819113,455.57679180887374" stroke="yellow" stroke-width="1" fill="none" />
<path d="M321.3242320819113,455.57679180887374 L272.505119453925,471.84982935153585" stroke="yellow" stroke-width="1" fill="none" />
<path d="M272.505119453925,471.84982935153585 L248.09556313993176,471.84982935153585" stroke="yellow" stroke-width="1" fill="none" />
<path d="M353.8703071672355,528.8054607508533 L349.80204778156997,500.3276450511946" stroke="yellow" stroke-width="1" fill="none" />
<path d="M687.4675767918089,776.9692832764506 L679.3310580204779,748.4914675767918" stroke="yellow" stroke-width="1" fill="none" />
<path d="M679.3310580204779,679.3310580204778 L646.7849829351536,610.1706484641638" stroke="yellow" stroke-width="1" fill="none" />
<path d="M679.3310580204779,748.4914675767918 L679.3310580204779,679.3310580204778" stroke="yellow" stroke-width="1" fill="none" />
<path d="M813.5836177474403,581.6928327645052 L785.1058020477816,581.6928327645052" stroke="yellow" stroke-width="1" fill="none" />
<path d="M785.1058020477816,581.6928327645052 L711.8771331058022,597.9658703071673" stroke="yellow" stroke-width="1" fill="none" />
<path d="M711.8771331058022,597.9658703071673 L650.8532423208192,597.9658703071673" stroke="yellow" stroke-width="1" fill="none" />
<path d="M658.9897610921503,565.4197952218431 L650.8532423208192,597.9658703071673" stroke="yellow" stroke-width="1" fill="none" />
<path d="M650.8532423208192,597.9658703071673 L646.7849829351536,610.1706484641638" stroke="yellow" stroke-width="1" fill="none" />
<path d="M756.6279863481229,557.283276450512 L805.4470989761093,516.6006825938566" stroke="yellow" stroke-width="1" fill="none" />
<path d="M711.8771331058022,553.2150170648465 L756.6279863481229,557.283276450512" stroke="yellow" stroke-width="1" fill="none" />
<path d="M658.9897610921503,565.4197952218431 L711.8771331058022,553.2150170648465" stroke="yellow" stroke-width="1" fill="none" />
<path d="M650.8532423208192,597.9658703071673 L606.1023890784984,589.8293515358362" stroke="yellow" stroke-width="1" fill="none" />
<path d="M606.1023890784984,565.4197952218431 L658.9897610921503,565.4197952218431" stroke="yellow" stroke-width="1" fill="none" />
<path d="M549.146757679181,610.1706484641638 L512.5324232081912,602.0341296928327" stroke="yellow" stroke-width="1" fill="none" />
<path d="M516.6006825938567,573.5563139931742 L565.4197952218431,577.6245733788396" stroke="yellow" stroke-width="1" fill="none" />
<path d="M606.1023890784984,589.8293515358362 L549.146757679181,610.1706484641638" stroke="yellow" stroke-width="1" fill="none" />
<path d="M565.4197952218431,577.6245733788396 L606.1023890784984,565.4197952218431" stroke="yellow" stroke-width="1" fill="none" />
<path d="M512.5324232081912,602.0341296928327 L488.12286689419795,602.0341296928327" stroke="yellow" stroke-width="1" fill="none" />
<path d="M484.05460750853246,577.6245733788396 L516.6006825938567,573.5563139931742" stroke="yellow" stroke-width="1" fill="none" />
<path d="M850.1979522184301,581.6928327645052 L813.5836177474403,581.6928327645052" stroke="yellow" stroke-width="1" fill="none" />
<path d="M805.4470989761093,516.6006825938566 L842.061433447099,504.3959044368601" stroke="yellow" stroke-width="1" fill="none" />
<path d="M427.0989761092151,589.8293515358362 L431.1672354948806,606.1023890784984" stroke="yellow" stroke-width="1" fill="none" />
<path d="M431.1672354948806,606.1023890784984 L455.57679180887374,614.2389078498294" stroke="yellow" stroke-width="1" fill="none" />
<path d="M455.57679180887374,614.2389078498294 L467.78156996587035,597.9658703071673" stroke="yellow" stroke-width="1" fill="none" />
<path d="M467.78156996587035,597.9658703071673 L459.6450511945393,577.6245733788396" stroke="yellow" stroke-width="1" fill="none" />
<path d="M459.6450511945393,577.6245733788396 L435.2354948805461,573.5563139931742" stroke="yellow" stroke-width="1" fill="none" />
<path d="M435.2354948805461,573.5563139931742 L427.0989761092151,589.8293515358362" stroke="yellow" stroke-width="1" fill="none" />
<path d="M569.4880546075085,496.25938566552907 L541.0102389078498,504.3959044368601" stroke="yellow" stroke-width="1" fill="none" />
<path d="M524.7372013651877,423.0307167235495 L581.6928327645052,459.6450511945393" stroke="yellow" stroke-width="1" fill="none" />
<path d="M581.6928327645052,459.6450511945393 L569.4880546075085,496.25938566552907" stroke="yellow" stroke-width="1" fill="none" />
<path d="M894.9488054607509,532.8737201365188 L899.0170648464164,524.7372013651877" stroke="yellow" stroke-width="1" fill="none" />
<path d="M899.0170648464164,524.7372013651877 L911.221843003413,520.6689419795223" stroke="yellow" stroke-width="1" fill="none" />
<path d="M903.085324232082,545.0784982935154 L894.9488054607509,532.8737201365188" stroke="yellow" stroke-width="1" fill="none" />
<path d="M911.221843003413,545.0784982935154 L903.085324232082,545.0784982935154" stroke="yellow" stroke-width="1" fill="none" />
<path d="M911.221843003413,520.6689419795223 L919.358361774744,532.8737201365188" stroke="yellow" stroke-width="1" fill="none" />
<path d="M919.358361774744,532.8737201365188 L911.221843003413,545.0784982935154" stroke="yellow" stroke-width="1" fill="none" />
<path d="M561.3515358361775,325.39249146757686 L516.6006825938567,317.25597269624575" stroke="yellow" stroke-width="1" fill="none" />
<path d="M618.307167235495,325.39249146757686 L561.3515358361775,325.39249146757686" stroke="yellow" stroke-width="1" fill="none" />
<path d="M683.3993174061434,357.9385665529011 L618.307167235495,325.39249146757686" stroke="yellow" stroke-width="1" fill="none" />
<path d="M736.2866894197953,390.4846416382253 L683.3993174061434,357.9385665529011" stroke="yellow" stroke-width="1" fill="none" />
<path d="M772.901023890785,715.9453924914676 L809.5153583617748,650.8532423208192" stroke="yellow" stroke-width="1" fill="none" />
<path d="M805.4470989761093,516.6006825938566 L793.2423208191126,475.9180887372014" stroke="yellow" stroke-width="1" fill="none" />
<path d="M809.5153583617748,650.8532423208192 L813.5836177474403,581.6928327645052" stroke="yellow" stroke-width="1" fill="none" />
<path d="M793.2423208191126,475.9180887372014 L764.764505119454,435.23549488054607" stroke="yellow" stroke-width="1" fill="none" />
<path d="M764.764505119454,435.23549488054607 L736.2866894197953,390.4846416382253" stroke="yellow" stroke-width="1" fill="none" />
<path d="M679.3310580204779,748.4914675767918 L772.901023890785,715.9453924914676" stroke="yellow" stroke-width="1" fill="none" />
<path d="M614.2389078498294,797.3105802047783 L679.3310580204779,748.4914675767918" stroke="yellow" stroke-width="1" fill="none" />
<path d="M536.9419795221843,846.1296928327645 L614.2389078498294,797.3105802047783" stroke="yellow" stroke-width="1" fill="none" />
<path d="M459.6450511945393,850.1979522184301 L536.9419795221843,846.1296928327645" stroke="yellow" stroke-width="1" fill="none" />
<path d="M374.2116040955632,785.1058020477816 L459.6450511945393,850.1979522184301" stroke="yellow" stroke-width="1" fill="none" />
<path d="M357.9385665529011,781.037542662116 L374.2116040955632,785.1058020477816" stroke="yellow" stroke-width="1" fill="none" />
<path d="M142.320819112628,675.2627986348123 L183.0034129692833,703.740614334471" stroke="yellow" stroke-width="1" fill="none" />
<path d="M183.0034129692833,703.740614334471 L203.34470989761095,736.2866894197953" stroke="yellow" stroke-width="1" fill="none" />
<path d="M203.34470989761095,736.2866894197953 L272.505119453925,776.9692832764506" stroke="yellow" stroke-width="1" fill="none" />
<path d="M272.505119453925,776.9692832764506 L357.9385665529011,781.037542662116" stroke="yellow" stroke-width="1" fill="none" />
<path d="M146.38907849829354,488.12286689419795 L105.70648464163827,553.2150170648465" stroke="yellow" stroke-width="1" fill="none" />
<path d="M105.70648464163827,553.2150170648465 L101.63822525597271,646.7849829351536" stroke="yellow" stroke-width="1" fill="none" />
<path d="M101.63822525597271,646.7849829351536 L142.320819112628,675.2627986348123" stroke="yellow" stroke-width="1" fill="none" />
<path d="M463.7133105802048,296.9146757679181 L414.89419795221846,264.36860068259386" stroke="yellow" stroke-width="1" fill="none" />
<path d="M516.6006825938567,317.25597269624575 L463.7133105802048,296.9146757679181" stroke="yellow" stroke-width="1" fill="none" />
<path d="M414.89419795221846,264.36860068259386 L370.14334470989763,252.1638225255973" stroke="yellow" stroke-width="1" fill="none" />
<path d="M370.14334470989763,252.1638225255973 L292.8464163822526,252.1638225255973" stroke="yellow" stroke-width="1" fill="none" />
<path d="M166.73037542662118,394.55290102389085 L146.38907849829354,488.12286689419795" stroke="yellow" stroke-width="1" fill="none" />
<path d="M187.07167235494882,333.52901023890786 L166.73037542662118,394.55290102389085" stroke="yellow" stroke-width="1" fill="none" />
<path d="M223.6860068259386,280.641638225256 L187.07167235494882,333.52901023890786" stroke="yellow" stroke-width="1" fill="none" />
<path d="M292.8464163822526,252.1638225255973 L223.6860068259386,280.641638225256" stroke="yellow" stroke-width="1" fill="none" />
<path d="M479.98634812286696,882.7440273037544 L447.4402730375427,882.7440273037544" stroke="yellow" stroke-width="1" fill="none" />
<path d="M447.4402730375427,899.0170648464164 L479.98634812286696,899.0170648464164" stroke="yellow" stroke-width="1" fill="none" />
<path d="M927.4948805460751,654.9215017064846 L903.085324232082,728.1501706484642" stroke="yellow" stroke-width="1" fill="none" />
<path d="M903.085324232082,728.1501706484642 L862.4027303754267,740.3549488054607" stroke="yellow" stroke-width="1" fill="none" />
<path d="M899.0170648464164,622.3754266211604 L927.4948805460751,654.9215017064846" stroke="yellow" stroke-width="1" fill="none" />
<path d="M911.221843003413,658.9897610921503 L890.8805460750854,715.9453924914676" stroke="yellow" stroke-width="1" fill="none" />
<path d="M890.8805460750854,715.9453924914676 L862.4027303754267,715.9453924914676" stroke="yellow" stroke-width="1" fill="none" />
<path d="M878.6757679180888,630.5119453924915 L911.221843003413,658.9897610921503" stroke="yellow" stroke-width="1" fill="none" />
<path d="M894.9488054607509,663.0580204778157 L882.7440273037544,703.740614334471" stroke="yellow" stroke-width="1" fill="none" />
<path d="M882.7440273037544,703.740614334471 L862.4027303754267,703.740614334471" stroke="yellow" stroke-width="1" fill="none" />
<path d="M870.5392491467578,642.716723549488 L894.9488054607509,663.0580204778157" stroke="yellow" stroke-width="1" fill="none" />
<path d="M862.4027303754267,687.4675767918089 L862.4027303754267,654.9215017064846" stroke="yellow" stroke-width="1" fill="none" />
<path d="M626.4436860068259,878.6757679180888 L634.580204778157,903.0853242320819" stroke="yellow" stroke-width="1" fill="none" />
<path d="M634.580204778157,903.0853242320819 L634.580204778157,939.6996587030717" stroke="yellow" stroke-width="1" fill="none" />
<path d="M634.580204778157,939.6996587030717 L658.9897610921503,972.2457337883959" stroke="yellow" stroke-width="1" fill="none" />
<path d="M658.9897610921503,972.2457337883959 L691.5358361774745,984.4505119453926" stroke="yellow" stroke-width="1" fill="none" />
<path d="M691.5358361774745,984.4505119453926 L736.2866894197953,992.5870307167236" stroke="yellow" stroke-width="1" fill="none" />
<path d="M736.2866894197953,992.5870307167236 L764.764505119454,980.382252559727" stroke="yellow" stroke-width="1" fill="none" />
<path d="M768.8327645051195,964.1092150170649 L793.2423208191126,955.9726962457338" stroke="yellow" stroke-width="1" fill="none" />
<path d="M833.9249146757679,821.7201365187714 L781.037542662116,781.037542662116" stroke="yellow" stroke-width="1" fill="none" />
<path d="M833.9249146757679,919.358361774744 L833.9249146757679,821.7201365187714" stroke="yellow" stroke-width="1" fill="none" />
<path d="M634.580204778157,903.0853242320819 L663.0580204778157,894.9488054607509" stroke="yellow" stroke-width="1" fill="none" />
<path d="M646.7849829351536,874.6075085324233 L663.0580204778157,894.9488054607509" stroke="yellow" stroke-width="1" fill="none" />
<path d="M663.0580204778157,894.9488054607509 L671.1945392491468,931.5631399317407" stroke="yellow" stroke-width="1" fill="none" />
<path d="M671.1945392491468,931.5631399317407 L699.6723549488055,960.0409556313994" stroke="yellow" stroke-width="1" fill="none" />
<path d="M699.6723549488055,960.0409556313994 L732.2184300341297,972.2457337883959" stroke="yellow" stroke-width="1" fill="none" />
<path d="M809.5153583617748,968.1774744027305 L833.9249146757679,919.358361774744" stroke="yellow" stroke-width="1" fill="none" />
<path d="M793.2423208191126,955.9726962457338 L813.5836177474403,919.358361774744" stroke="yellow" stroke-width="1" fill="none" />
<path d="M813.5836177474403,919.358361774744 L813.5836177474403,890.8805460750854" stroke="yellow" stroke-width="1" fill="none" />
<path d="M813.5836177474403,890.8805460750854 L805.4470989761093,858.3344709897611" stroke="yellow" stroke-width="1" fill="none" />
<path d="M805.4470989761093,858.3344709897611 L781.037542662116,842.061433447099" stroke="yellow" stroke-width="1" fill="none" />
<path d="M760.6962457337884,829.8566552901025 L736.2866894197953,805.4470989761093" stroke="yellow" stroke-width="1" fill="none" />
<path d="M781.037542662116,842.061433447099 L760.6962457337884,829.8566552901025" stroke="yellow" stroke-width="1" fill="none" />
<path d="M663.0580204778157,894.9488054607509 L687.4675767918089,886.8122866894198" stroke="yellow" stroke-width="1" fill="none" />
<path d="M671.1945392491468,931.5631399317407 L703.740614334471,911.221843003413" stroke="yellow" stroke-width="1" fill="none" />
<path d="M699.6723549488055,960.0409556313994 L732.2184300341297,931.5631399317407" stroke="yellow" stroke-width="1" fill="none" />
<path d="M768.8327645051195,964.1092150170649 L764.764505119454,927.4948805460751" stroke="yellow" stroke-width="1" fill="none" />
<path d="M768.8327645051195,907.1535836177475 L813.5836177474403,919.358361774744" stroke="yellow" stroke-width="1" fill="none" />
<path d="M768.8327645051195,886.8122866894198 L813.5836177474403,890.8805460750854" stroke="yellow" stroke-width="1" fill="none" />
<path d="M752.5597269624574,870.5392491467577 L781.037542662116,842.061433447099" stroke="yellow" stroke-width="1" fill="none" />
<path d="M736.2866894197953,858.3344709897611 L760.6962457337884,829.8566552901025" stroke="yellow" stroke-width="1" fill="none" />
<path d="M671.1945392491468,862.4027303754267 L687.4675767918089,886.8122866894198" stroke="yellow" stroke-width="1" fill="none" />
<path d="M687.4675767918089,886.8122866894198 L703.740614334471,911.221843003413" stroke="lavender" stroke-width="1" fill="none" />
<path d="M703.740614334471,911.221843003413 L732.2184300341297,931.5631399317407" stroke="lavender" stroke-width="1" fill="none" />
<path d="M732.2184300341297,931.5631399317407 L764.764505119454,927.4948805460751" stroke="lavender" stroke-width="1" fill="none" />
<path d="M764.764505119454,927.4948805460751 L768.8327645051195,907.1535836177475" stroke="lavender" stroke-width="1" fill="none" />
<path d="M768.8327645051195,907.1535836177475 L768.8327645051195,886.8122866894198" stroke="lavender" stroke-width="1" fill="none" />
<path d="M768.8327645051195,886.8122866894198 L752.5597269624574,870.5392491467577" stroke="lavender" stroke-width="1" fill="none" />
<path d="M752.5597269624574,870.5392491467577 L736.2866894197953,858.3344709897611" stroke="lavender" stroke-width="1" fill="none" />
<path d="M736.2866894197953,858.3344709897611 L687.4675767918089,886.8122866894198" stroke="lavender" stroke-width="1" fill="none" />
<path d="M732.2184300341297,972.2457337883959 L768.8327645051195,964.1092150170649" stroke="yellow" stroke-width="1" fill="none" />
<path d="M764.764505119454,980.382252559727 L768.8327645051195,964.1092150170649" stroke="yellow" stroke-width="1" fill="none" />
<path d="M793.2423208191126,955.9726962457338 L809.5153583617748,968.1774744027305" stroke="yellow" stroke-width="1" fill="none" />
<path d="M565.4197952218431,903.0853242320819 L675.2627986348123,1118.703071672355" stroke="yellow" stroke-width="1" fill="none" />
<path d="M427.0989761092151,907.1535836177475 L427.0989761092151,947.8361774744028" stroke="yellow" stroke-width="1" fill="none" />
<path d="M427.0989761092151,947.8361774744028 L500.32764505119457,947.8361774744028" stroke="yellow" stroke-width="1" fill="none" />
<path d="M500.32764505119457,947.8361774744028 L500.32764505119457,907.1535836177475" stroke="yellow" stroke-width="1" fill="none" />
<path d="M447.4402730375427,899.0170648464164 L447.4402730375427,931.5631399317407" stroke="yellow" stroke-width="1" fill="none" />
<path d="M447.4402730375427,931.5631399317407 L479.98634812286696,931.5631399317407" stroke="yellow" stroke-width="1" fill="none" />
<path d="M479.98634812286696,931.5631399317407 L479.98634812286696,899.0170648464164" stroke="yellow" stroke-width="1" fill="none" />
<path d="M903.085324232082,1037.3378839590443 L772.901023890785,1037.3378839590443" stroke="yellow" stroke-width="1" fill="none" />
<path d="M772.901023890785,1045.4744027303755 L789.1740614334472,1045.4744027303755" stroke="yellow" stroke-width="1" fill="none" />
<path d="M772.901023890785,1151.2491467576792 L903.085324232082,1151.2491467576792" stroke="yellow" stroke-width="1" fill="none" />
<path d="M911.221843003413,1143.1126279863481 L911.221843003413,1045.4744027303755" stroke="yellow" stroke-width="1" fill="none" />
<path d="M903.085324232082,1045.4744027303755 L903.085324232082,1143.1126279863481" stroke="yellow" stroke-width="1" fill="none" />
<path d="M772.901023890785,1143.1126279863481 L772.901023890785,1045.4744027303755" stroke="yellow" stroke-width="1" fill="none" />
<path d="M764.764505119454,1045.4744027303755 L764.764505119454,1143.1126279863481" stroke="yellow" stroke-width="1" fill="none" />
<path d="M797.3105802047783,1045.4744027303755 L813.5836177474403,1045.4744027303755" stroke="yellow" stroke-width="1" fill="none" />
<path d="M862.4027303754267,1045.4744027303755 L878.6757679180888,1045.4744027303755" stroke="yellow" stroke-width="1" fill="none" />
<path d="M886.8122866894198,1045.4744027303755 L903.085324232082,1045.4744027303755" stroke="yellow" stroke-width="1" fill="none" />
<path d="M797.3105802047783,1143.1126279863481 L797.3105802047783,1045.4744027303755" stroke="yellow" stroke-width="1" fill="none" />
<path d="M789.1740614334472,1045.4744027303755 L789.1740614334472,1143.1126279863481" stroke="yellow" stroke-width="1" fill="none" />
<path d="M821.7201365187714,1143.1126279863481 L821.7201365187714,1045.4744027303755" stroke="yellow" stroke-width="1" fill="none" />
<path d="M813.5836177474403,1045.4744027303755 L813.5836177474403,1143.1126279863481" stroke="yellow" stroke-width="1" fill="none" />
<path d="M842.061433447099,1143.1126279863481 L842.061433447099,1045.4744027303755" stroke="yellow" stroke-width="1" fill="none" />
<path d="M833.9249146757679,1045.4744027303755 L833.9249146757679,1143.1126279863481" stroke="yellow" stroke-width="1" fill="none" />
<path d="M862.4027303754267,1143.1126279863481 L862.4027303754267,1045.4744027303755" stroke="yellow" stroke-width="1" fill="none" />
<path d="M854.2662116040956,1045.4744027303755 L854.2662116040956,1143.1126279863481" stroke="yellow" stroke-width="1" fill="none" />
<path d="M886.8122866894198,1143.1126279863481 L886.8122866894198,1045.4744027303755" stroke="yellow" stroke-width="1" fill="none" />
<path d="M878.6757679180888,1045.4744027303755 L878.6757679180888,1143.1126279863481" stroke="yellow" stroke-width="1" fill="none" />
<path d="M842.061433447099,1045.4744027303755 L854.2662116040956,1045.4744027303755" stroke="yellow" stroke-width="1" fill="none" />
<path d="M821.7201365187714,1045.4744027303755 L833.9249146757679,1045.4744027303755" stroke="yellow" stroke-width="1" fill="none" />
<path d="M789.1740614334472,1143.1126279863481 L772.901023890785,1143.1126279863481" stroke="yellow" stroke-width="1" fill="none" />
<path d="M813.5836177474403,1143.1126279863481 L797.3105802047783,1143.1126279863481" stroke="yellow" stroke-width="1" fill="none" />
<path d="M878.6757679180888,1143.1126279863481 L862.4027303754267,1143.1126279863481" stroke="yellow" stroke-width="1" fill="none" />
<path d="M903.085324232082,1143.1126279863481 L886.8122866894198,1143.1126279863481" stroke="yellow" stroke-width="1" fill="none" />
<path d="M854.2662116040956,1143.1126279863481 L842.061433447099,1143.1126279863481" stroke="yellow" stroke-width="1" fill="none" />
<path d="M833.9249146757679,1143.1126279863481 L821.7201365187714,1143.1126279863481" stroke="yellow" stroke-width="1" fill="none" />
<path d="M1008.8600682593858,1012.9283276450512 L687.4675767918089,1012.9283276450512" stroke="yellow" stroke-width="1" fill="none" />
<path d="M687.4675767918089,1012.9283276450512 L687.4675767918089,1106.4982935153585" stroke="yellow" stroke-width="1" fill="none" />
<path d="M658.9897610921503,1126.8395904436861 L597.9658703071673,1126.8395904436861" stroke="yellow" stroke-width="1" fill="none" />
<path d="M597.9658703071673,1126.8395904436861 L597.9658703071673,1200.0682593856657" stroke="yellow" stroke-width="1" fill="none" />
<path d="M675.2627986348123,1118.703071672355 L732.2184300341297,1224.4778156996588" stroke="yellow" stroke-width="1" fill="none" />
<path d="M687.4675767918089,1106.4982935153585 L756.6279863481229,1228.5460750853242" stroke="yellow" stroke-width="1" fill="none" />
<path d="M687.4675767918089,1106.4982935153585 L675.2627986348123,1118.703071672355" stroke="yellow" stroke-width="1" fill="none" />
<path d="M675.2627986348123,1175.6587030716723 L642.716723549488,1175.6587030716723" stroke="lavender" stroke-width="1" fill="none" />
<path d="M642.716723549488,1208.2047781569966 L675.2627986348123,1208.2047781569966" stroke="lavender" stroke-width="1" fill="none" />
<path d="M642.716723549488,1175.6587030716723 L642.716723549488,1208.2047781569966" stroke="lavender" stroke-width="1" fill="none" />
<path d="M675.2627986348123,1208.2047781569966 L675.2627986348123,1175.6587030716723" stroke="lavender" stroke-width="1" fill="none" />
<path d="M650.8532423208192,1183.7952218430034 L658.9897610921503,1179.726962457338" stroke="yellow" stroke-width="1" fill="none" />
<path d="M646.7849829351536,1191.9317406143346 L650.8532423208192,1183.7952218430034" stroke="yellow" stroke-width="1" fill="none" />
<path d="M650.8532423208192,1200.0682593856657 L646.7849829351536,1191.9317406143346" stroke="yellow" stroke-width="1" fill="none" />
<path d="M658.9897610921503,1204.136518771331 L650.8532423208192,1200.0682593856657" stroke="yellow" stroke-width="1" fill="none" />
<path d="M658.9897610921503,1179.726962457338 L667.1262798634813,1183.7952218430034" stroke="yellow" stroke-width="1" fill="none" />
<path d="M667.1262798634813,1200.0682593856657 L658.9897610921503,1204.136518771331" stroke="yellow" stroke-width="1" fill="none" />
<path d="M671.1945392491468,1191.9317406143346 L667.1262798634813,1200.0682593856657" stroke="yellow" stroke-width="1" fill="none" />
<path d="M667.1262798634813,1183.7952218430034 L671.1945392491468,1191.9317406143346" stroke="yellow" stroke-width="1" fill="none" />
<path d="M720.0136518771332,1232.61433447099 L658.9897610921503,1126.8395904436861" stroke="yellow" stroke-width="1" fill="none" />
<path d="M675.2627986348123,1118.703071672355 L658.9897610921503,1126.8395904436861" stroke="yellow" stroke-width="1" fill="none" />
<path d="M1086.1569965870308,1057.679180887372 L1114.6348122866896,1065.8156996587031" stroke="lavender" stroke-width="1" fill="none" />
<path d="M1114.6348122866896,1065.8156996587031 L1143.1126279863481,1057.679180887372" stroke="lavender" stroke-width="1" fill="none" />
<path d="M1114.6348122866896,992.5870307167236 L1086.1569965870308,1000.7235494880547" stroke="lavender" stroke-width="1" fill="none" />
<path d="M1143.1126279863481,1000.7235494880547 L1114.6348122866896,992.5870307167236" stroke="lavender" stroke-width="1" fill="none" />
<path d="M1086.1569965870308,1000.7235494880547 L1078.0204778156997,1029.2013651877135" stroke="lavender" stroke-width="1" fill="none" />
<path d="M1078.0204778156997,1029.2013651877135 L1086.1569965870308,1057.679180887372" stroke="lavender" stroke-width="1" fill="none" />
<path d="M1151.2491467576792,1029.2013651877135 L1143.1126279863481,1000.7235494880547" stroke="lavender" stroke-width="1" fill="none" />
<path d="M1143.1126279863481,1057.679180887372 L1151.2491467576792,1029.2013651877135" stroke="lavender" stroke-width="1" fill="none" />
<path d="M1094.293515358362,1049.542662116041 L1086.1569965870308,1029.2013651877135" stroke="yellow" stroke-width="1" fill="none" />
<path d="M1114.6348122866896,1057.679180887372 L1094.293515358362,1049.542662116041" stroke="yellow" stroke-width="1" fill="none" />
<path d="M1094.293515358362,1008.8600682593857 L1114.6348122866896,1000.7235494880547" stroke="yellow" stroke-width="1" fill="none" />
<path d="M1134.9761092150172,1008.8600682593857 L1143.1126279863481,1029.2013651877135" stroke="yellow" stroke-width="1" fill="none" />
<path d="M1086.1569965870308,1029.2013651877135 L1094.293515358362,1008.8600682593857" stroke="yellow" stroke-width="1" fill="none" />
<path d="M1143.1126279863481,1029.2013651877135 L1134.9761092150172,1049.542662116041" stroke="yellow" stroke-width="1" fill="none" />
<path d="M1134.9761092150172,1049.542662116041 L1114.6348122866896,1057.679180887372" stroke="yellow" stroke-width="1" fill="none" />
<path d="M1114.6348122866896,1000.7235494880547 L1134.9761092150172,1008.8600682593857" stroke="yellow" stroke-width="1" fill="none" />
<path d="M471.84982935153585,1183.7952218430034 L463.7133105802048,1106.4982935153585" stroke="yellow" stroke-width="1" fill="none" />
<path d="M463.7133105802048,1106.4982935153585 L484.05460750853246,1016.9965870307168" stroke="yellow" stroke-width="1" fill="none" />
<path d="M484.05460750853246,1016.9965870307168 L516.6006825938567,939.6996587030717" stroke="yellow" stroke-width="1" fill="none" />
<path d="M516.6006825938567,939.6996587030717 L520.6689419795222,903.0853242320819" stroke="yellow" stroke-width="1" fill="none" />
<path d="M549.146757679181,939.6996587030717 L541.0102389078498,1025.1331058020478" stroke="yellow" stroke-width="1" fill="none" />
<path d="M549.146757679181,903.0853242320819 L549.146757679181,939.6996587030717" stroke="yellow" stroke-width="1" fill="none" />
<path d="M545.0784982935154,1134.976109215017 L532.8737201365188,1196.0" stroke="yellow" stroke-width="1" fill="none" />
<path d="M541.0102389078498,1025.1331058020478 L545.0784982935154,1134.976109215017" stroke="yellow" stroke-width="1" fill="none" />
<path d="M134.18430034129693,691.5358361774745 L101.63822525597271,691.5358361774745" stroke="yellow" stroke-width="1" fill="none" />
<path d="M101.63822525597271,703.740614334471 L134.18430034129693,703.740614334471" stroke="yellow" stroke-width="1" fill="none" />
<path d="M296.9146757679181,223.68600682593853 L329.46075085324236,223.68600682593853" stroke="yellow" stroke-width="1" fill="none" />
<path d="M329.46075085324236,211.48122866894198 L296.9146757679181,211.48122866894198" stroke="yellow" stroke-width="1" fill="none" />
<path d="M589.8293515358362,288.7781569965871 L622.3754266211604,288.7781569965871" stroke="yellow" stroke-width="1" fill="none" />
<path d="M622.3754266211604,276.5733788395904 L589.8293515358362,276.5733788395904" stroke="yellow" stroke-width="1" fill="none" />
<path d="M1000.7235494880547,329.4607508532423 L968.1774744027305,329.4607508532423" stroke="lavender" stroke-width="1" fill="none" />
<path d="M968.1774744027305,362.00682593856664 L1000.7235494880547,362.00682593856664" stroke="lavender" stroke-width="1" fill="none" />
<path d="M968.1774744027305,329.4607508532423 L968.1774744027305,362.00682593856664" stroke="lavender" stroke-width="1" fill="none" />
<path d="M1000.7235494880547,362.00682593856664 L1000.7235494880547,329.4607508532423" stroke="lavender" stroke-width="1" fill="none" />
<path d="M976.3139931740616,337.5972696245734 L984.4505119453925,333.52901023890786" stroke="yellow" stroke-width="1" fill="none" />
<path d="M972.2457337883959,345.7337883959044 L976.3139931740616,337.5972696245734" stroke="yellow" stroke-width="1" fill="none" />
<path d="M976.3139931740616,353.8703071672355 L972.2457337883959,345.7337883959044" stroke="yellow" stroke-width="1" fill="none" />
<path d="M984.4505119453925,357.9385665529011 L976.3139931740616,353.8703071672355" stroke="yellow" stroke-width="1" fill="none" />
<path d="M984.4505119453925,333.52901023890786 L992.5870307167236,337.5972696245734" stroke="yellow" stroke-width="1" fill="none" />
<path d="M992.5870307167236,353.8703071672355 L984.4505119453925,357.9385665529011" stroke="yellow" stroke-width="1" fill="none" />
<path d="M996.655290102389,345.7337883959044 L992.5870307167236,353.8703071672355" stroke="yellow" stroke-width="1" fill="none" />
<path d="M992.5870307167236,337.5972696245734 L996.655290102389,345.7337883959044" stroke="yellow" stroke-width="1" fill="none" />
<path d="M1130.9078498293516,329.4607508532423 L1098.3617747440273,329.4607508532423" stroke="lavender" stroke-width="1" fill="none" />
<path d="M1098.3617747440273,362.00682593856664 L1130.9078498293516,362.00682593856664" stroke="lavender" stroke-width="1" fill="none" />
<path d="M1098.3617747440273,329.4607508532423 L1098.3617747440273,362.00682593856664" stroke="lavender" stroke-width="1" fill="none" />
<path d="M1130.9078498293516,362.00682593856664 L1130.9078498293516,329.4607508532423" stroke="lavender" stroke-width="1" fill="none" />
<path d="M1106.4982935153585,337.5972696245734 L1114.6348122866896,333.52901023890786" stroke="yellow" stroke-width="1" fill="none" />
<path d="M1102.4300341296928,345.7337883959044 L1106.4982935153585,337.5972696245734" stroke="yellow" stroke-width="1" fill="none" />
<path d="M1106.4982935153585,353.8703071672355 L1102.4300341296928,345.7337883959044" stroke="yellow" stroke-width="1" fill="none" />
<path d="M1114.6348122866896,357.9385665529011 L1106.4982935153585,353.8703071672355" stroke="yellow" stroke-width="1" fill="none" />
<path d="M1114.6348122866896,333.52901023890786 L1122.7713310580205,337.5972696245734" stroke="yellow" stroke-width="1" fill="none" />
<path d="M1122.7713310580205,353.8703071672355 L1114.6348122866896,357.9385665529011" stroke="yellow" stroke-width="1" fill="none" />
<path d="M1126.8395904436861,345.7337883959044 L1122.7713310580205,353.8703071672355" stroke="yellow" stroke-width="1" fill="none" />
<path d="M1122.7713310580205,337.5972696245734 L1126.8395904436861,345.7337883959044" stroke="yellow" stroke-width="1" fill="none" />
<path d="M1000.7235494880547,36.54607508532422 L968.1774744027305,36.54607508532422" stroke="lavender" stroke-width="1" fill="none" />
<path d="M968.1774744027305,69.09215017064844 L1000.7235494880547,69.09215017064844" stroke="lavender" stroke-width="1" fill="none" />
<path d="M968.1774744027305,36.54607508532422 L968.1774744027305,69.09215017064844" stroke="lavender" stroke-width="1" fill="none" />
<path d="M1000.7235494880547,69.09215017064844 L1000.7235494880547,36.54607508532422" stroke="lavender" stroke-width="1" fill="none" />
<path d="M976.3139931740616,44.68259385665533 L984.4505119453925,40.614334470989775" stroke="yellow" stroke-width="1" fill="none" />
<path d="M972.2457337883959,52.81911262798633 L976.3139931740616,44.68259385665533" stroke="yellow" stroke-width="1" fill="none" />
<path d="M976.3139931740616,60.95563139931744 L972.2457337883959,52.81911262798633" stroke="yellow" stroke-width="1" fill="none" />
<path d="M984.4505119453925,65.023890784983 L976.3139931740616,60.95563139931744" stroke="yellow" stroke-width="1" fill="none" />
<path d="M984.4505119453925,40.614334470989775 L992.5870307167236,44.68259385665533" stroke="yellow" stroke-width="1" fill="none" />
<path d="M992.5870307167236,60.95563139931744 L984.4505119453925,65.023890784983" stroke="yellow" stroke-width="1" fill="none" />
<path d="M996.655290102389,52.81911262798633 L992.5870307167236,60.95563139931744" stroke="yellow" stroke-width="1" fill="none" />
<path d="M992.5870307167236,44.68259385665533 L996.655290102389,52.81911262798633" stroke="yellow" stroke-width="1" fill="none" />
<path d="M1130.9078498293516,36.54607508532422 L1098.3617747440273,36.54607508532422" stroke="lavender" stroke-width="1" fill="none" />
<path d="M1098.3617747440273,69.09215017064844 L1130.9078498293516,69.09215017064844" stroke="lavender" stroke-width="1" fill="none" />
<path d="M1098.3617747440273,36.54607508532422 L1098.3617747440273,69.09215017064844" stroke="lavender" stroke-width="1" fill="none" />
<path d="M1130.9078498293516,69.09215017064844 L1130.9078498293516,36.54607508532422" stroke="lavender" stroke-width="1" fill="none" />
<path d="M1106.4982935153585,44.68259385665533 L1114.6348122866896,40.614334470989775" stroke="yellow" stroke-width="1" fill="none" />
<path d="M1102.4300341296928,52.81911262798633 L1106.4982935153585,44.68259385665533" stroke="yellow" stroke-width="1" fill="none" />
<path d="M1106.4982935153585,60.95563139931744 L1102.4300341296928,52.81911262798633" stroke="yellow" stroke-width="1" fill="none" />
<path d="M1114.6348122866896,65.023890784983 L1106.4982935153585,60.95563139931744" stroke="yellow" stroke-width="1" fill="none" />
<path d="M1114.6348122866896,40.614334470989775 L1122.7713310580205,44.68259385665533" stroke="yellow" stroke-width="1" fill="none" />
<path d="M1122.7713310580205,60.95563139931744 L1114.6348122866896,65.023890784983" stroke="yellow" stroke-width="1" fill="none" />
<path d="M1126.8395904436861,52.81911262798633 L1122.7713310580205,60.95563139931744" stroke="yellow" stroke-width="1" fill="none" />
<path d="M1122.7713310580205,44.68259385665533 L1126.8395904436861,52.81911262798633" stroke="yellow" stroke-width="1" fill="none" />
<path d="M1057.679180887372,394.55290102389085 L1041.40614334471,394.55290102389085" stroke="lavender" stroke-width="1" fill="none" />
<path d="M313.18771331058025,382.3481228668942 L284.70989761092153,378.27986348122874" stroke="lavender" stroke-width="1" fill="none" />
<path d="M284.70989761092153,378.27986348122874 L264.36860068259386,398.6211604095563" stroke="lavender" stroke-width="1" fill="none" />
<path d="M264.36860068259386,398.6211604095563 L272.505119453925,423.0307167235495" stroke="lavender" stroke-width="1" fill="none" />
<path d="M272.505119453925,423.0307167235495 L292.8464163822526,431.16723549488063" stroke="lavender" stroke-width="1" fill="none" />
<path d="M292.8464163822526,431.16723549488063 L313.18771331058025,423.0307167235495" stroke="lavender" stroke-width="1" fill="none" />
<path d="M325.3924914675768,402.68941979522185 L313.18771331058025,382.3481228668942" stroke="lavender" stroke-width="1" fill="none" />
<path d="M313.18771331058025,423.0307167235495 L325.3924914675768,402.68941979522185" stroke="lavender" stroke-width="1" fill="none" />
<path d="M362.0068259385666,768.8327645051195 L321.3242320819113,740.3549488054607" stroke="yellow" stroke-width="1" fill="none" />
<path d="M687.4675767918089,776.9692832764506 L650.8532423208192,805.4470989761093" stroke="red" stroke-width="1" fill="none" />
<path d="M577.6245733788396,866.4709897610921 L508.4641638225256,878.6757679180888" stroke="red" stroke-width="1" fill="none" />
<path d="M650.8532423208192,805.4470989761093 L577.6245733788396,866.4709897610921" stroke="red" stroke-width="1" fill="none" />
<path d="M508.4641638225256,878.6757679180888 L479.98634812286696,882.7440273037544" stroke="red" stroke-width="1" fill="none" />
<path d="M423.0307167235495,878.6757679180888 L386.41638225255974,858.3344709897611" stroke="red" stroke-width="1" fill="none" />
<path d="M386.41638225255974,858.3344709897611 L345.73378839590447,805.4470989761093" stroke="red" stroke-width="1" fill="none" />
<path d="M227.75426621160412,793.2423208191127 L142.320819112628,691.5358361774745" stroke="red" stroke-width="1" fill="none" />
<path d="M345.73378839590447,805.4470989761093 L227.75426621160412,793.2423208191127" stroke="red" stroke-width="1" fill="none" />
<path d="M711.8771331058022,776.9692832764506 L687.4675767918089,776.9692832764506" stroke="red" stroke-width="1" fill="none" />
<path d="M825.7883959044369,736.2866894197953 L711.8771331058022,776.9692832764506" stroke="red" stroke-width="1" fill="none" />
<path d="M850.1979522184301,581.6928327645052 L842.061433447099,634.580204778157" stroke="red" stroke-width="1" fill="none" />
<path d="M821.7201365187714,451.5085324232082 L842.061433447099,504.3959044368601" stroke="red" stroke-width="1" fill="none" />
<path d="M516.6006825938567,300.98293515358364 L577.6245733788396,288.7781569965871" stroke="red" stroke-width="1" fill="none" />
<path d="M577.6245733788396,288.7781569965871 L589.8293515358362,288.7781569965871" stroke="red" stroke-width="1" fill="none" />
<path d="M756.6279863481229,366.0750853242321 L821.7201365187714,451.5085324232082" stroke="red" stroke-width="1" fill="none" />
<path d="M634.580204778157,288.7781569965871 L699.6723549488055,325.39249146757686" stroke="red" stroke-width="1" fill="none" />
<path d="M699.6723549488055,325.39249146757686 L756.6279863481229,366.0750853242321" stroke="red" stroke-width="1" fill="none" />
<path d="M431.1672354948806,231.82252559726965 L488.12286689419795,268.4368600682594" stroke="red" stroke-width="1" fill="none" />
<path d="M488.12286689419795,268.4368600682594 L516.6006825938567,300.98293515358364" stroke="red" stroke-width="1" fill="none" />
<path d="M357.9385665529011,223.68600682593853 L431.1672354948806,231.82252559726965" stroke="red" stroke-width="1" fill="none" />
<path d="M284.70989761092153,223.68600682593853 L296.9146757679181,223.68600682593853" stroke="red" stroke-width="1" fill="none" />
<path d="M130.11604095563143,484.0546075085324 L130.11604095563143,435.23549488054607" stroke="red" stroke-width="1" fill="none" />
<path d="M130.11604095563143,435.23549488054607 L142.320819112628,378.27986348122874" stroke="red" stroke-width="1" fill="none" />
<path d="M142.320819112628,378.27986348122874 L162.66211604095565,317.25597269624575" stroke="red" stroke-width="1" fill="none" />
<path d="M162.66211604095565,317.25597269624575 L199.27645051194543,264.36860068259386" stroke="red" stroke-width="1" fill="none" />
<path d="M199.27645051194543,264.36860068259386 L284.70989761092153,223.68600682593853" stroke="red" stroke-width="1" fill="none" />
<path d="M101.63822525597271,508.4641638225256 L130.11604095563143,484.0546075085324" stroke="red" stroke-width="1" fill="none" />
<path d="M77.22866894197955,654.9215017064846 L73.160409556314,614.2389078498294" stroke="red" stroke-width="1" fill="none" />
<path d="M73.160409556314,577.6245733788396 L101.63822525597271,508.4641638225256" stroke="red" stroke-width="1" fill="none" />
<path d="M93.50170648464166,691.5358361774745 L77.22866894197955,654.9215017064846" stroke="red" stroke-width="1" fill="none" />
<path d="M101.63822525597271,691.5358361774745 L93.50170648464166,691.5358361774745" stroke="red" stroke-width="1" fill="none" />
<path d="M842.061433447099,504.3959044368601 L854.2662116040956,504.3959044368601" stroke="red" stroke-width="1" fill="none" />
<path d="M862.4027303754267,581.6928327645052 L850.1979522184301,581.6928327645052" stroke="red" stroke-width="1" fill="none" />
<path d="M870.5392491467578,602.0341296928327 L862.4027303754267,581.6928327645052" stroke="red" stroke-width="1" fill="none" />
<path d="M854.2662116040956,504.3959044368601 L858.3344709897611,484.0546075085324" stroke="red" stroke-width="1" fill="none" />
<path d="M919.358361774744,606.1023890784984 L870.5392491467578,602.0341296928327" stroke="red" stroke-width="1" fill="none" />
<path d="M960.0409556313994,589.8293515358362 L919.358361774744,606.1023890784984" stroke="red" stroke-width="1" fill="none" />
<path d="M858.3344709897611,484.0546075085324 L890.8805460750854,467.7815699658703" stroke="red" stroke-width="1" fill="none" />
<path d="M890.8805460750854,467.7815699658703 L931.5631399317406,467.7815699658703" stroke="red" stroke-width="1" fill="none" />
<path d="M931.5631399317406,467.7815699658703 L947.8361774744028,484.0546075085324" stroke="red" stroke-width="1" fill="none" />
<path d="M947.8361774744028,484.0546075085324 L960.0409556313994,536.9419795221843" stroke="red" stroke-width="1" fill="none" />
<path d="M960.0409556313994,536.9419795221843 L960.0409556313994,589.8293515358362" stroke="red" stroke-width="1" fill="none" />
<path d="M65.02389078498294,614.2389078498294 L48.75085324232083,614.2389078498294" stroke="red" stroke-width="1" fill="none" />
<path d="M48.75085324232083,577.6245733788396 L65.02389078498294,577.6245733788396" stroke="red" stroke-width="1" fill="none" />
<path d="M48.75085324232083,614.2389078498294 L32.47781569965872,626.443686006826" stroke="red" stroke-width="1" fill="none" />
<path d="M24.341296928327665,524.7372013651877 L32.47781569965872,557.283276450512" stroke="red" stroke-width="1" fill="none" />
<path d="M24.341296928327665,663.0580204778157 L32.47781569965872,687.4675767918089" stroke="red" stroke-width="1" fill="none" />
<path d="M32.47781569965872,557.283276450512 L48.75085324232083,577.6245733788396" stroke="red" stroke-width="1" fill="none" />
<path d="M32.47781569965872,496.25938566552907 L24.341296928327665,524.7372013651877" stroke="red" stroke-width="1" fill="none" />
<path d="M32.47781569965872,626.443686006826 L24.341296928327665,663.0580204778157" stroke="red" stroke-width="1" fill="none" />
<path d="M12.136518771331055,687.4675767918089 L4.0,663.0580204778157" stroke="red" stroke-width="1" fill="none" />
<path d="M4.0,663.0580204778157 L4.0,524.7372013651877" stroke="red" stroke-width="1" fill="none" />
<path d="M4.0,524.7372013651877 L12.136518771331055,496.25938566552907" stroke="red" stroke-width="1" fill="none" />
<path d="M32.47781569965872,687.4675767918089 L12.136518771331055,687.4675767918089" stroke="red" stroke-width="1" fill="none" />
<path d="M12.136518771331055,496.25938566552907 L32.47781569965872,496.25938566552907" stroke="red" stroke-width="1" fill="none" />
<path d="M65.02389078498294,577.6245733788396 L73.160409556314,577.6245733788396" stroke="red" stroke-width="1" fill="none" />
<path d="M73.160409556314,614.2389078498294 L65.02389078498294,614.2389078498294" stroke="red" stroke-width="1" fill="none" />
<path d="M447.4402730375427,882.7440273037544 L423.0307167235495,878.6757679180888" stroke="red" stroke-width="1" fill="none" />
<path d="M447.4402730375427,899.0170648464164 L447.4402730375427,882.7440273037544" stroke="red" stroke-width="1" fill="none" />
<path d="M479.98634812286696,882.7440273037544 L479.98634812286696,899.0170648464164" stroke="red" stroke-width="1" fill="none" />
<path d="M842.061433447099,703.740614334471 L825.7883959044369,736.2866894197953" stroke="red" stroke-width="1" fill="none" />
<path d="M846.1296928327645,687.4675767918089 L842.061433447099,703.740614334471" stroke="red" stroke-width="1" fill="none" />
<path d="M842.061433447099,634.580204778157 L846.1296928327645,654.9215017064846" stroke="red" stroke-width="1" fill="none" />
<path d="M862.4027303754267,687.4675767918089 L846.1296928327645,687.4675767918089" stroke="red" stroke-width="1" fill="none" />
<path d="M846.1296928327645,654.9215017064846 L862.4027303754267,654.9215017064846" stroke="red" stroke-width="1" fill="none" />
<path d="M427.0989761092151,907.1535836177475 L447.4402730375427,899.0170648464164" stroke="red" stroke-width="1" fill="none" />
<path d="M479.98634812286696,899.0170648464164 L500.32764505119457,907.1535836177475" stroke="red" stroke-width="1" fill="none" />
<path d="M374.2116040955632,960.0409556313994 L427.0989761092151,907.1535836177475" stroke="red" stroke-width="1" fill="none" />
<path d="M362.0068259385666,1078.0204778156997 L374.2116040955632,960.0409556313994" stroke="red" stroke-width="1" fill="none" />
<path d="M414.89419795221846,1175.6587030716723 L362.0068259385666,1078.0204778156997" stroke="red" stroke-width="1" fill="none" />
<path d="M471.84982935153585,1183.7952218430034 L414.89419795221846,1175.6587030716723" stroke="red" stroke-width="1" fill="none" />
<path d="M500.32764505119457,907.1535836177475 L520.6689419795222,903.0853242320819" stroke="red" stroke-width="1" fill="none" />
<path d="M565.4197952218431,903.0853242320819 L626.4436860068259,878.6757679180888" stroke="red" stroke-width="1" fill="none" />
<path d="M626.4436860068259,878.6757679180888 L646.7849829351536,874.6075085324233" stroke="red" stroke-width="1" fill="none" />
<path d="M646.7849829351536,874.6075085324233 L671.1945392491468,862.4027303754267" stroke="red" stroke-width="1" fill="none" />
<path d="M671.1945392491468,862.4027303754267 L736.2866894197953,805.4470989761093" stroke="red" stroke-width="1" fill="none" />
<path d="M736.2866894197953,805.4470989761093 L781.037542662116,781.037542662116" stroke="red" stroke-width="1" fill="none" />
<path d="M781.037542662116,781.037542662116 L801.3788395904437,760.6962457337884" stroke="red" stroke-width="1" fill="none" />
<path d="M801.3788395904437,760.6962457337884 L862.4027303754267,740.3549488054607" stroke="red" stroke-width="1" fill="none" />
<path d="M862.4027303754267,703.740614334471 L862.4027303754267,687.4675767918089" stroke="red" stroke-width="1" fill="none" />
<path d="M862.4027303754267,654.9215017064846 L870.5392491467578,642.716723549488" stroke="red" stroke-width="1" fill="none" />
<path d="M899.0170648464164,622.3754266211604 L964.1092150170648,618.307167235495" stroke="red" stroke-width="1" fill="none" />
<path d="M964.1092150170648,618.307167235495 L1049.542662116041,703.740614334471" stroke="red" stroke-width="1" fill="none" />
<path d="M1049.542662116041,703.740614334471 L1041.40614334471,789.1740614334472" stroke="red" stroke-width="1" fill="none" />
<path d="M1041.40614334471,789.1740614334472 L1041.40614334471,817.6518771331058" stroke="red" stroke-width="1" fill="none" />
<path d="M1041.40614334471,817.6518771331058 L1021.0648464163824,858.3344709897611" stroke="red" stroke-width="1" fill="none" />
<path d="M1021.0648464163824,858.3344709897611 L1033.269624573379,890.8805460750854" stroke="red" stroke-width="1" fill="none" />
<path d="M1033.269624573379,890.8805460750854 L1049.542662116041,923.4266211604096" stroke="red" stroke-width="1" fill="none" />
<path d="M1049.542662116041,923.4266211604096 L1037.3378839590443,968.1774744027305" stroke="red" stroke-width="1" fill="none" />
<path d="M1037.3378839590443,968.1774744027305 L1008.8600682593858,984.4505119453926" stroke="red" stroke-width="1" fill="none" />
<path d="M1008.8600682593858,1045.4744027303755 L1029.2013651877135,1061.7474402730377" stroke="red" stroke-width="1" fill="none" />
<path d="M1029.2013651877135,1061.7474402730377 L1045.4744027303755,1057.679180887372" stroke="red" stroke-width="1" fill="none" />
<path d="M1045.4744027303755,1057.679180887372 L1049.542662116041,1029.2013651877135" stroke="red" stroke-width="1" fill="none" />
<path d="M1049.542662116041,1029.2013651877135 L1057.679180887372,992.5870307167236" stroke="red" stroke-width="1" fill="none" />
<path d="M1086.1569965870308,1090.2252559726962 L1069.8839590443686,1114.6348122866896" stroke="red" stroke-width="1" fill="none" />
<path d="M1143.1126279863481,1114.6348122866896 L1086.1569965870308,1090.2252559726962" stroke="red" stroke-width="1" fill="none" />
<path d="M1196.0,1053.6109215017066 L1143.1126279863481,1114.6348122866896" stroke="red" stroke-width="1" fill="none" />
<path d="M1167.5221843003415,960.0409556313994 L1196.0,1053.6109215017066" stroke="red" stroke-width="1" fill="none" />
<path d="M1057.679180887372,992.5870307167236 L1090.2252559726962,955.9726962457338" stroke="red" stroke-width="1" fill="none" />
<path d="M1090.2252559726962,955.9726962457338 L1167.5221843003415,960.0409556313994" stroke="red" stroke-width="1" fill="none" />
<path d="M1069.8839590443686,1114.6348122866896 L1053.6109215017066,1139.0443686006827" stroke="red" stroke-width="1" fill="none" />
<path d="M1053.6109215017066,1139.0443686006827 L756.6279863481229,1228.5460750853242" stroke="red" stroke-width="1" fill="none" />
<path d="M870.5392491467578,642.716723549488 L878.6757679180888,630.5119453924915" stroke="red" stroke-width="1" fill="none" />
<path d="M878.6757679180888,630.5119453924915 L899.0170648464164,622.3754266211604" stroke="red" stroke-width="1" fill="none" />
<path d="M862.4027303754267,715.9453924914676 L862.4027303754267,703.740614334471" stroke="red" stroke-width="1" fill="none" />
<path d="M862.4027303754267,740.3549488054607 L862.4027303754267,715.9453924914676" stroke="red" stroke-width="1" fill="none" />
<path d="M764.764505119454,1143.1126279863481 L764.764505119454,1151.2491467576792" stroke="red" stroke-width="1" fill="none" />
<path d="M772.901023890785,1143.1126279863481 L764.764505119454,1143.1126279863481" stroke="red" stroke-width="1" fill="none" />
<path d="M772.901023890785,1151.2491467576792 L772.901023890785,1143.1126279863481" stroke="red" stroke-width="1" fill="none" />
<path d="M764.764505119454,1151.2491467576792 L772.901023890785,1151.2491467576792" stroke="red" stroke-width="1" fill="none" />
<path d="M903.085324232082,1143.1126279863481 L903.085324232082,1151.2491467576792" stroke="red" stroke-width="1" fill="none" />
<path d="M911.221843003413,1143.1126279863481 L903.085324232082,1143.1126279863481" stroke="red" stroke-width="1" fill="none" />
<path d="M911.221843003413,1151.2491467576792 L911.221843003413,1143.1126279863481" stroke="red" stroke-width="1" fill="none" />
<path d="M903.085324232082,1151.2491467576792 L911.221843003413,1151.2491467576792" stroke="red" stroke-width="1" fill="none" />
<path d="M903.085324232082,1037.3378839590443 L903.085324232082,1045.4744027303755" stroke="red" stroke-width="1" fill="none" />
<path d="M911.221843003413,1037.3378839590443 L903.085324232082,1037.3378839590443" stroke="red" stroke-width="1" fill="none" />
<path d="M911.221843003413,1045.4744027303755 L911.221843003413,1037.3378839590443" stroke="red" stroke-width="1" fill="none" />
<path d="M903.085324232082,1045.4744027303755 L911.221843003413,1045.4744027303755" stroke="red" stroke-width="1" fill="none" />
<path d="M764.764505119454,1037.3378839590443 L764.764505119454,1045.4744027303755" stroke="red" stroke-width="1" fill="none" />
<path d="M772.901023890785,1037.3378839590443 L764.764505119454,1037.3378839590443" stroke="red" stroke-width="1" fill="none" />
<path d="M772.901023890785,1045.4744027303755 L772.901023890785,1037.3378839590443" stroke="red" stroke-width="1" fill="none" />
<path d="M764.764505119454,1045.4744027303755 L772.901023890785,1045.4744027303755" stroke="red" stroke-width="1" fill="none" />
<path d="M658.9897610921503,1240.7508532423208 L597.9658703071673,1200.0682593856657" stroke="red" stroke-width="1" fill="none" />
<path d="M756.6279863481229,1228.5460750853242 L732.2184300341297,1224.4778156996588" stroke="red" stroke-width="1" fill="none" />
<path d="M732.2184300341297,1224.4778156996588 L720.0136518771332,1232.61433447099" stroke="red" stroke-width="1" fill="none" />
<path d="M720.0136518771332,1232.61433447099 L658.9897610921503,1240.7508532423208" stroke="red" stroke-width="1" fill="none" />
<path d="M520.6689419795222,903.0853242320819 L549.146757679181,903.0853242320819" stroke="red" stroke-width="1" fill="none" />
<path d="M549.146757679181,903.0853242320819 L565.4197952218431,903.0853242320819" stroke="red" stroke-width="1" fill="none" />
<path d="M532.8737201365188,1196.0 L471.84982935153585,1183.7952218430034" stroke="red" stroke-width="1" fill="none" />
<path d="M597.9658703071673,1200.0682593856657 L532.8737201365188,1196.0" stroke="red" stroke-width="1" fill="none" />
<path d="M142.320819112628,691.5358361774745 L134.18430034129693,691.5358361774745" stroke="red" stroke-width="1" fill="none" />
<path d="M24.341296928327665,703.740614334471 L101.63822525597271,703.740614334471" stroke="red" stroke-width="1" fill="none" />
<path d="M101.63822525597271,703.740614334471 L101.63822525597271,691.5358361774745" stroke="red" stroke-width="1" fill="none" />
<path d="M134.18430034129693,691.5358361774745 L134.18430034129693,703.740614334471" stroke="red" stroke-width="1" fill="none" />
<path d="M134.18430034129693,703.740614334471 L146.38907849829354,703.740614334471" stroke="red" stroke-width="1" fill="none" />
<path d="M24.341296928327665,785.1058020477816 L24.341296928327665,703.740614334471" stroke="red" stroke-width="1" fill="none" />
<path d="M146.38907849829354,785.1058020477816 L24.341296928327665,785.1058020477816" stroke="red" stroke-width="1" fill="none" />
<path d="M146.38907849829354,703.740614334471 L146.38907849829354,785.1058020477816" stroke="red" stroke-width="1" fill="none" />
<path d="M329.46075085324236,223.68600682593853 L357.9385665529011,223.68600682593853" stroke="red" stroke-width="1" fill="none" />
<path d="M296.9146757679181,223.68600682593853 L296.9146757679181,211.48122866894198" stroke="red" stroke-width="1" fill="none" />
<path d="M329.46075085324236,211.48122866894198 L329.46075085324236,223.68600682593853" stroke="red" stroke-width="1" fill="none" />
<path d="M296.9146757679181,211.48122866894198 L231.82252559726965,211.48122866894198" stroke="red" stroke-width="1" fill="none" />
<path d="M349.80204778156997,211.48122866894198 L329.46075085324236,211.48122866894198" stroke="red" stroke-width="1" fill="none" />
<path d="M231.82252559726965,134.184300341297 L349.80204778156997,134.184300341297" stroke="red" stroke-width="1" fill="none" />
<path d="M231.82252559726965,211.48122866894198 L231.82252559726965,134.184300341297" stroke="red" stroke-width="1" fill="none" />
<path d="M349.80204778156997,134.184300341297 L349.80204778156997,211.48122866894198" stroke="red" stroke-width="1" fill="none" />
<path d="M622.3754266211604,288.7781569965871 L634.580204778157,288.7781569965871" stroke="red" stroke-width="1" fill="none" />
<path d="M589.8293515358362,288.7781569965871 L589.8293515358362,276.5733788395904" stroke="red" stroke-width="1" fill="none" />
<path d="M622.3754266211604,276.5733788395904 L622.3754266211604,288.7781569965871" stroke="red" stroke-width="1" fill="none" />
<path d="M577.6245733788396,276.5733788395904 L577.6245733788396,199.27645051194543" stroke="red" stroke-width="1" fill="none" />
<path d="M695.6040955631399,199.27645051194543 L695.6040955631399,276.5733788395904" stroke="red" stroke-width="1" fill="none" />
<path d="M695.6040955631399,276.5733788395904 L622.3754266211604,276.5733788395904" stroke="red" stroke-width="1" fill="none" />
<path d="M589.8293515358362,276.5733788395904 L577.6245733788396,276.5733788395904" stroke="red" stroke-width="1" fill="none" />
<path d="M577.6245733788396,199.27645051194543 L695.6040955631399,199.27645051194543" stroke="red" stroke-width="1" fill="none" />
<path d="M935.6313993174062,4.0 L1163.4539249146758,4.0" stroke="red" stroke-width="1" fill="none" />
<path d="M1163.4539249146758,4.0 L1163.4539249146758,101.63822525597266" stroke="red" stroke-width="1" fill="none" />
<path d="M935.6313993174062,101.63822525597266 L935.6313993174062,4.0" stroke="red" stroke-width="1" fill="none" />
<path d="M1163.4539249146758,296.9146757679181 L1163.4539249146758,394.55290102389085" stroke="red" stroke-width="1" fill="none" />
<path d="M935.6313993174062,394.55290102389085 L935.6313993174062,296.9146757679181" stroke="red" stroke-width="1" fill="none" />
<path d="M935.6313993174062,296.9146757679181 L1000.7235494880547,296.9146757679181" stroke="red" stroke-width="1" fill="none" />
<path d="M1098.3617747440273,296.9146757679181 L1163.4539249146758,296.9146757679181" stroke="red" stroke-width="1" fill="none" />
<path d="M1000.7235494880547,101.63822525597266 L935.6313993174062,101.63822525597266" stroke="red" stroke-width="1" fill="none" />
<path d="M1163.4539249146758,101.63822525597266 L1098.3617747440273,101.63822525597266" stroke="red" stroke-width="1" fill="none" />
<path d="M1098.3617747440273,101.63822525597266 L1098.3617747440273,166.7303754266212" stroke="red" stroke-width="1" fill="none" />
<path d="M1000.7235494880547,166.7303754266212 L1000.7235494880547,101.63822525597266" stroke="red" stroke-width="1" fill="none" />
<path d="M1098.3617747440273,231.82252559726965 L1098.3617747440273,296.9146757679181" stroke="red" stroke-width="1" fill="none" />
<path d="M1000.7235494880547,296.9146757679181 L1000.7235494880547,231.82252559726965" stroke="red" stroke-width="1" fill="none" />
<path d="M1000.7235494880547,231.82252559726965 L935.6313993174062,231.82252559726965" stroke="red" stroke-width="1" fill="none" />
<path d="M935.6313993174062,166.7303754266212 L1000.7235494880547,166.7303754266212" stroke="red" stroke-width="1" fill="none" />
<path d="M1163.4539249146758,231.82252559726965 L1098.3617747440273,231.82252559726965" stroke="red" stroke-width="1" fill="none" />
<path d="M1098.3617747440273,166.7303754266212 L1163.4539249146758,166.7303754266212" stroke="red" stroke-width="1" fill="none" />
<path d="M1163.4539249146758,166.7303754266212 L1163.4539249146758,231.82252559726965" stroke="red" stroke-width="1" fill="none" />
<path d="M935.6313993174062,231.82252559726965 L935.6313993174062,166.7303754266212" stroke="red" stroke-width="1" fill="none" />
<path d="M1163.4539249146758,394.55290102389085 L1057.679180887372,394.55290102389085" stroke="red" stroke-width="1" fill="none" />
<path d="M1057.679180887372,394.55290102389085 L1057.679180887372,402.68941979522185" stroke="red" stroke-width="1" fill="none" />
<path d="M1057.679180887372,402.68941979522185 L1041.40614334471,402.68941979522185" stroke="red" stroke-width="1" fill="none" />
<path d="M1041.40614334471,402.68941979522185 L1041.40614334471,394.55290102389085" stroke="red" stroke-width="1" fill="none" />
<path d="M1041.40614334471,394.55290102389085 L935.6313993174062,394.55290102389085" stroke="red" stroke-width="1" fill="none" />
<path d="M1008.8600682593858,984.4505119453926 L1008.8600682593858,1012.9283276450512" stroke="red" stroke-width="1" fill="none" />
<path d="M1008.8600682593858,1012.9283276450512 L1008.8600682593858,1045.4744027303755" stroke="red" stroke-width="1" fill="none" />
</svg>