<?xml version="1.0" encoding="UTF-8"?>
<svg xmlns="http://www.w3.org/2000/svg" xmlns:xlink="http://www.w3.org/1999/xlink"
     width="1200" height="1148" viewBox="0 0 1200 1148">
<defs>
</defs>
<path d="M505.8947368421052,323.3875598086124 L551.5215311004785,323.3875598086124" stroke="yellow" stroke-width="1" fill="none" />
<path d="M642.7751196172248,369.0143540669857 L688.401913875598,414.6411483253588" stroke="yellow" stroke-width="1" fill="none" />
<path d="M734.0287081339712,505.89473684210526 L734.0287081339712,551.5215311004785" stroke="yellow" stroke-width="1" fill="none" />
<path d="M688.401913875598,642.7751196172248 L642.7751196172248,688.4019138755981" stroke="yellow" stroke-width="1" fill="none" />
<path d="M551.5215311004785,734.0287081339712 L505.8947368421052,734.0287081339712" stroke="yellow" stroke-width="1" fill="none" />
<path d="M414.6411483253588,688.4019138755981 L369.01435406698556,642.7751196172248" stroke="yellow" stroke-width="1" fill="none" />
<path d="M323.3875598086124,551.5215311004785 L323.3875598086124,505.89473684210526" stroke="yellow" stroke-width="1" fill="none" />
<path d="M369.01435406698556,414.6411483253588 L414.6411483253588,369.0143540669857" stroke="yellow" stroke-width="1" fill="none" />
<path d="M779.6555023923445,1007.7894736842104 L505.8947368421052,1007.7894736842104" stroke="yellow" stroke-width="1" fill="none" />
<path d="M1007.7894736842104,688.4019138755981 L1007.7894736842104,779.6555023923445" stroke="yellow" stroke-width="1" fill="none" />
<path d="M756.8421052631578,939.3492822966507 L802.4688995215311,984.9760765550238" stroke="yellow" stroke-width="1" fill="none" />
<path d="M779.6555023923445,916.5358851674641 L825.2822966507176,962.1626794258373" stroke="yellow" stroke-width="1" fill="none" />
<path d="M802.4688995215311,893.7224880382774 L848.0956937799042,939.3492822966507" stroke="yellow" stroke-width="1" fill="none" />
<path d="M825.2822966507176,870.9090909090909 L870.9090909090908,916.5358851674641" stroke="yellow" stroke-width="1" fill="none" />
<path d="M848.0956937799042,848.0956937799042 L893.7224880382774,893.7224880382774" stroke="yellow" stroke-width="1" fill="none" />
<path d="M870.9090909090908,825.2822966507176 L916.535885167464,870.9090909090909" stroke="yellow" stroke-width="1" fill="none" />
<path d="M893.7224880382774,802.4688995215311 L939.3492822966507,848.0956937799042" stroke="yellow" stroke-width="1" fill="none" />
<path d="M460.267942583732,277.7607655502392 L460.267942583732,186.50717703349284" stroke="yellow" stroke-width="1" fill="none" />
<path d="M597.1483253588516,186.50717703349284 L597.1483253588516,277.7607655502392" stroke="yellow" stroke-width="1" fill="none" />
<path d="M186.50717703349278,825.2822966507176 L140.88038277511959,779.6555023923445" stroke="yellow" stroke-width="1" fill="none" />
<path d="M232.13397129186598,870.9090909090909 L186.50717703349278,825.2822966507176" stroke="yellow" stroke-width="1" fill="none" />
<path d="M734.0287081339712,95.25358851674645 L870.9090909090908,232.13397129186603" stroke="yellow" stroke-width="1" fill="none" />
<path d="M186.50717703349278,232.13397129186603 L323.3875598086124,95.25358851674645" stroke="yellow" stroke-width="1" fill="none" />
<path d="M688.401913875598,140.88038277511964 L688.401913875598,95.25358851674645" stroke="yellow" stroke-width="1" fill="none" />
<path d="M642.7751196172248,140.88038277511964 L642.7751196172248,95.25358851674645" stroke="yellow" stroke-width="1" fill="none" />
<path d="M597.1483253588516,140.88038277511964 L597.1483253588516,95.25358851674645" stroke="yellow" stroke-width="1" fill="none" />
<path d="M551.5215311004785,140.88038277511964 L551.5215311004785,95.25358851674645" stroke="yellow" stroke-width="1" fill="none" />
<path d="M505.8947368421052,140.88038277511964 L505.8947368421052,95.25358851674645" stroke="yellow" stroke-width="1" fill="none" />
<path d="M460.267942583732,140.88038277511964 L460.267942583732,95.25358851674645" stroke="yellow" stroke-width="1" fill="none" />
<path d="M414.6411483253588,140.88038277511964 L414.6411483253588,95.25358851674645" stroke="yellow" stroke-width="1" fill="none" />
<path d="M369.01435406698556,140.88038277511964 L369.01435406698556,95.25358851674645" stroke="yellow" stroke-width="1" fill="none" />
<path d="M779.6555023923445,642.7751196172248 L825.2822966507176,642.7751196172248" stroke="yellow" stroke-width="1" fill="none" />
<path d="M825.2822966507176,688.4019138755981 L825.2822966507176,779.6555023923445" stroke="yellow" stroke-width="1" fill="none" />
<path d="M779.6555023923445,825.2822966507176 L688.401913875598,825.2822966507176" stroke="yellow" stroke-width="1" fill="none" />
<path d="M642.7751196172248,825.2822966507176 L642.7751196172248,779.6555023923445" stroke="yellow" stroke-width="1" fill="none" />
<path d="M505.8947368421052,186.50717703349284 L505.8947368421052,232.13397129186603" stroke="yellow" stroke-width="1" fill="none" />
<path d="M505.8947368421052,232.13397129186603 L551.5215311004785,232.13397129186603" stroke="yellow" stroke-width="1" fill="none" />
<path d="M551.5215311004785,232.13397129186603 L551.5215311004785,186.50717703349284" stroke="yellow" stroke-width="1" fill="none" />
<path d="M528.7081339712918,192.21052631578948 L540.1148325358851,197.91387559808612" stroke="yellow" stroke-width="1" fill="none" />
<path d="M540.1148325358851,197.91387559808612 L545.8181818181818,209.32057416267946" stroke="yellow" stroke-width="1" fill="none" />
<path d="M545.8181818181818,209.32057416267946 L540.1148325358851,220.72727272727275" stroke="yellow" stroke-width="1" fill="none" />
<path d="M540.1148325358851,220.72727272727275 L528.7081339712918,226.4306220095694" stroke="yellow" stroke-width="1" fill="none" />
<path d="M528.7081339712918,226.4306220095694 L517.3014354066985,220.72727272727275" stroke="yellow" stroke-width="1" fill="none" />
<path d="M517.3014354066985,220.72727272727275 L511.59808612440185,209.32057416267946" stroke="yellow" stroke-width="1" fill="none" />
<path d="M511.59808612440185,209.32057416267946 L517.3014354066985,197.91387559808612" stroke="yellow" stroke-width="1" fill="none" />
<path d="M517.3014354066985,197.91387559808612 L528.7081339712918,192.21052631578948" stroke="yellow" stroke-width="1" fill="none" />
<path d="M916.535885167464,779.6555023923445 L962.1626794258373,825.2822966507176" stroke="yellow" stroke-width="1" fill="none" />
<path d="M232.13397129186598,779.6555023923445 L186.50717703349278,825.2822966507176" stroke="yellow" stroke-width="1" fill="none" />
<path d="M186.50717703349278,734.0287081339712 L140.88038277511959,779.6555023923445" stroke="lavender" stroke-width="1" fill="none" />
<path d="M825.2822966507176,779.6555023923445 L779.6555023923445,779.6555023923445" stroke="lavender" stroke-width="1" fill="none" />
<path d="M802.4688995215311,785.3588516746411 L813.8755980861243,791.0622009569378" stroke="yellow" stroke-width="1" fill="none" />
<path d="M813.8755980861243,791.0622009569378 L819.578947368421,802.4688995215311" stroke="yellow" stroke-width="1" fill="none" />
<path d="M819.578947368421,802.4688995215311 L813.8755980861243,813.8755980861243" stroke="yellow" stroke-width="1" fill="none" />
<path d="M813.8755980861243,813.8755980861243 L802.4688995215311,819.578947368421" stroke="yellow" stroke-width="1" fill="none" />
<path d="M802.4688995215311,819.578947368421 L791.0622009569377,813.8755980861243" stroke="yellow" stroke-width="1" fill="none" />
<path d="M791.0622009569377,813.8755980861243 L785.3588516746411,802.4688995215311" stroke="yellow" stroke-width="1" fill="none" />
<path d="M785.3588516746411,802.4688995215311 L791.0622009569377,791.0622009569378" stroke="yellow" stroke-width="1" fill="none" />
<path d="M791.0622009569377,791.0622009569378 L802.4688995215311,785.3588516746411" stroke="yellow" stroke-width="1" fill="none" />
<path d="M779.6555023923445,779.6555023923445 L779.6555023923445,825.2822966507176" stroke="lavender" stroke-width="1" fill="none" />
<path d="M505.8947368421052,1053.4162679425835 L734.0287081339712,1053.4162679425835" stroke="yellow" stroke-width="1" fill="none" />
<path d="M505.8947368421052,916.5358851674641 L505.8947368421052,825.2822966507176" stroke="yellow" stroke-width="1" fill="none" />
<path d="M688.401913875598,870.9090909090909 L734.0287081339712,870.9090909090909" stroke="yellow" stroke-width="1" fill="none" />
<path d="M870.9090909090908,734.0287081339712 L870.9090909090908,688.4019138755981" stroke="yellow" stroke-width="1" fill="none" />
<path d="M1007.7894736842104,505.89473684210526 L1007.7894736842104,551.5215311004785" stroke="yellow" stroke-width="1" fill="none" />
<path d="M1007.7894736842104,597.1483253588517 L1007.7894736842104,642.7751196172248" stroke="yellow" stroke-width="1" fill="none" />
<path d="M1053.4162679425835,551.5215311004785 L1053.4162679425835,505.89473684210526" stroke="yellow" stroke-width="1" fill="none" />
<path d="M1053.4162679425835,779.6555023923445 L1053.4162679425835,688.4019138755981" stroke="yellow" stroke-width="1" fill="none" />
<path d="M916.535885167464,232.13397129186603 L779.6555023923445,95.25358851674645" stroke="yellow" stroke-width="1" fill="none" />
<path d="M825.2822966507176,277.7607655502392 L779.6555023923445,323.3875598086124" stroke="yellow" stroke-width="1" fill="none" />
<path d="M277.76076555023917,323.3875598086124 L232.13397129186598,277.7607655502392" stroke="yellow" stroke-width="1" fill="none" />
<path d="M277.76076555023917,49.62679425837325 L140.88038277511959,186.50717703349284" stroke="yellow" stroke-width="1" fill="none" />
<path d="M140.88038277511959,642.7751196172248 L140.88038277511959,597.1483253588517" stroke="yellow" stroke-width="1" fill="none" />
<path d="M140.88038277511959,551.5215311004785 L140.88038277511959,505.89473684210526" stroke="yellow" stroke-width="1" fill="none" />
<path d="M95.25358851674639,505.89473684210526 L95.25358851674639,551.5215311004785" stroke="yellow" stroke-width="1" fill="none" />
<path d="M175.1004784688995,859.5023923444976 L232.13397129186598,916.5358851674641" stroke="yellow" stroke-width="1" fill="none" />
<path d="M825.2822966507176,654.1818181818181 L825.2822966507176,676.9952153110048" stroke="lavender" stroke-width="1" fill="none" />
<path d="M460.267942583732,323.3875598086124 L505.8947368421052,323.3875598086124" stroke="red" stroke-width="1" fill="none" />
<path d="M551.5215311004785,323.3875598086124 L597.1483253588516,323.3875598086124" stroke="red" stroke-width="1" fill="none" />
<path d="M597.1483253588516,323.3875598086124 L642.7751196172248,369.0143540669857" stroke="red" stroke-width="1" fill="none" />
<path d="M688.401913875598,414.6411483253588 L734.0287081339712,460.26794258373207" stroke="red" stroke-width="1" fill="none" />
<path d="M734.0287081339712,460.26794258373207 L734.0287081339712,505.89473684210526" stroke="red" stroke-width="1" fill="none" />
<path d="M734.0287081339712,551.5215311004785 L734.0287081339712,597.1483253588517" stroke="red" stroke-width="1" fill="none" />
<path d="M734.0287081339712,597.1483253588517 L688.401913875598,642.7751196172248" stroke="red" stroke-width="1" fill="none" />
<path d="M642.7751196172248,688.4019138755981 L597.1483253588516,734.0287081339712" stroke="red" stroke-width="1" fill="none" />
<path d="M597.1483253588516,734.0287081339712 L551.5215311004785,734.0287081339712" stroke="red" stroke-width="1" fill="none" />
<path d="M505.8947368421052,734.0287081339712 L460.267942583732,734.0287081339712" stroke="red" stroke-width="1" fill="none" />
<path d="M460.267942583732,734.0287081339712 L414.6411483253588,688.4019138755981" stroke="red" stroke-width="1" fill="none" />
<path d="M369.01435406698556,642.7751196172248 L323.3875598086124,597.1483253588517" stroke="red" stroke-width="1" fill="none" />
<path d="M323.3875598086124,597.1483253588517 L323.3875598086124,551.5215311004785" stroke="red" stroke-width="1" fill="none" />
<path d="M323.3875598086124,505.89473684210526 L323.3875598086124,460.26794258373207" stroke="red" stroke-width="1" fill="none" />
<path d="M323.3875598086124,460.26794258373207 L369.01435406698556,414.6411483253588" stroke="red" stroke-width="1" fill="none" />
<path d="M414.6411483253588,369.0143540669857 L460.267942583732,323.3875598086124" stroke="red" stroke-width="1" fill="none" />
<path d="M551.5215311004785,734.0287081339712 L551.5215311004785,962.1626794258373" stroke="red" stroke-width="1" fill="none" />
<path d="M551.5215311004785,962.1626794258373 L734.0287081339712,962.1626794258373" stroke="red" stroke-width="1" fill="none" />
<path d="M962.1626794258373,734.0287081339712 L962.1626794258373,551.5215311004785" stroke="red" stroke-width="1" fill="none" />
<path d="M962.1626794258373,551.5215311004785 L734.0287081339712,551.5215311004785" stroke="red" stroke-width="1" fill="none" />
<path d="M802.4688995215311,984.9760765550238 L779.6555023923445,1007.7894736842104" stroke="red" stroke-width="1" fill="none" />
<path d="M505.8947368421052,825.2822966507176 L505.8947368421052,734.0287081339712" stroke="red" stroke-width="1" fill="none" />
<path d="M734.0287081339712,505.89473684210526 L1007.7894736842104,505.89473684210526" stroke="red" stroke-width="1" fill="none" />
<path d="M597.1483253588516,277.7607655502392 L551.5215311004785,277.7607655502392" stroke="red" stroke-width="1" fill="none" />
<path d="M551.5215311004785,277.7607655502392 L551.5215311004785,323.3875598086124" stroke="red" stroke-width="1" fill="none" />
<path d="M505.8947368421052,323.3875598086124 L505.8947368421052,277.7607655502392" stroke="red" stroke-width="1" fill="none" />
<path d="M505.8947368421052,277.7607655502392 L460.267942583732,277.7607655502392" stroke="red" stroke-width="1" fill="none" />
<path d="M323.3875598086124,551.5215311004785 L186.50717703349278,551.5215311004785" stroke="red" stroke-width="1" fill="none" />
<path d="M140.88038277511959,505.89473684210526 L323.3875598086124,505.89473684210526" stroke="red" stroke-width="1" fill="none" />
<path d="M734.0287081339712,962.1626794258373 L756.8421052631578,939.3492822966507" stroke="red" stroke-width="1" fill="none" />
<path d="M688.401913875598,734.0287081339712 L642.7751196172248,688.4019138755981" stroke="red" stroke-width="1" fill="none" />
<path d="M688.401913875598,642.7751196172248 L734.0287081339712,688.4019138755981" stroke="red" stroke-width="1" fill="none" />
<path d="M277.76076555023917,232.13397129186603 L414.6411483253588,369.0143540669857" stroke="red" stroke-width="1" fill="none" />
<path d="M825.2822966507176,962.1626794258373 L802.4688995215311,984.9760765550238" stroke="red" stroke-width="1" fill="none" />
<path d="M756.8421052631578,939.3492822966507 L779.6555023923445,916.5358851674641" stroke="red" stroke-width="1" fill="none" />
<path d="M848.0956937799042,939.3492822966507 L825.2822966507176,962.1626794258373" stroke="red" stroke-width="1" fill="none" />
<path d="M779.6555023923445,916.5358851674641 L802.4688995215311,893.7224880382774" stroke="red" stroke-width="1" fill="none" />
<path d="M870.9090909090908,916.5358851674641 L848.0956937799042,939.3492822966507" stroke="red" stroke-width="1" fill="none" />
<path d="M802.4688995215311,893.7224880382774 L825.2822966507176,870.9090909090909" stroke="red" stroke-width="1" fill="none" />
<path d="M893.7224880382774,893.7224880382774 L870.9090909090908,916.5358851674641" stroke="red" stroke-width="1" fill="none" />
<path d="M825.2822966507176,870.9090909090909 L848.0956937799042,848.0956937799042" stroke="red" stroke-width="1" fill="none" />
<path d="M916.535885167464,870.9090909090909 L893.7224880382774,893.7224880382774" stroke="red" stroke-width="1" fill="none" />
<path d="M848.0956937799042,848.0956937799042 L870.9090909090908,825.2822966507176" stroke="red" stroke-width="1" fill="none" />
<path d="M939.3492822966507,848.0956937799042 L916.535885167464,870.9090909090909" stroke="red" stroke-width="1" fill="none" />
<path d="M870.9090909090908,825.2822966507176 L893.7224880382774,802.4688995215311" stroke="red" stroke-width="1" fill="none" />
<path d="M916.535885167464,779.6555023923445 L962.1626794258373,734.0287081339712" stroke="red" stroke-width="1" fill="none" />
<path d="M1007.7894736842104,779.6555023923445 L962.1626794258373,825.2822966507176" stroke="red" stroke-width="1" fill="none" />
<path d="M460.267942583732,186.50717703349284 L505.8947368421052,186.50717703349284" stroke="red" stroke-width="1" fill="none" />
<path d="M505.8947368421052,186.50717703349284 L551.5215311004785,186.50717703349284" stroke="red" stroke-width="1" fill="none" />
<path d="M551.5215311004785,186.50717703349284 L597.1483253588516,186.50717703349284" stroke="red" stroke-width="1" fill="none" />
<path d="M186.50717703349278,734.0287081339712 L232.13397129186598,779.6555023923445" stroke="red" stroke-width="1" fill="none" />
<path d="M186.50717703349278,551.5215311004785 L186.50717703349278,734.0287081339712" stroke="red" stroke-width="1" fill="none" />
<path d="M232.13397129186598,779.6555023923445 L369.01435406698556,642.7751196172248" stroke="red" stroke-width="1" fill="none" />
<path d="M642.7751196172248,369.0143540669857 L779.6555023923445,232.13397129186603" stroke="red" stroke-width="1" fill="none" />
<path d="M779.6555023923445,232.13397129186603 L688.401913875598,140.88038277511964" stroke="red" stroke-width="1" fill="none" />
<path d="M779.6555023923445,323.3875598086124 L688.401913875598,414.6411483253588" stroke="red" stroke-width="1" fill="none" />
<path d="M369.01435406698556,140.88038277511964 L277.76076555023917,232.13397129186603" stroke="red" stroke-width="1" fill="none" />
<path d="M323.3875598086124,95.25358851674645 L369.01435406698556,95.25358851674645" stroke="red" stroke-width="1" fill="none" />
<path d="M688.401913875598,95.25358851674645 L734.0287081339712,95.25358851674645" stroke="red" stroke-width="1" fill="none" />
<path d="M369.01435406698556,95.25358851674645 L414.6411483253588,95.25358851674645" stroke="red" stroke-width="1" fill="none" />
<path d="M414.6411483253588,95.25358851674645 L460.267942583732,95.25358851674645" stroke="red" stroke-width="1" fill="none" />
<path d="M460.267942583732,95.25358851674645 L505.8947368421052,95.25358851674645" stroke="red" stroke-width="1" fill="none" />
<path d="M505.8947368421052,95.25358851674645 L551.5215311004785,95.25358851674645" stroke="red" stroke-width="1" fill="none" />
<path d="M551.5215311004785,95.25358851674645 L597.1483253588516,95.25358851674645" stroke="red" stroke-width="1" fill="none" />
<path d="M597.1483253588516,95.25358851674645 L642.7751196172248,95.25358851674645" stroke="red" stroke-width="1" fill="none" />
<path d="M642.7751196172248,95.25358851674645 L688.401913875598,95.25358851674645" stroke="red" stroke-width="1" fill="none" />
<path d="M414.6411483253588,140.88038277511964 L369.01435406698556,140.88038277511964" stroke="red" stroke-width="1" fill="none" />
<path d="M460.267942583732,140.88038277511964 L414.6411483253588,140.88038277511964" stroke="red" stroke-width="1" fill="none" />
<path d="M505.8947368421052,140.88038277511964 L460.267942583732,140.88038277511964" stroke="red" stroke-width="1" fill="none" />
<path d="M551.5215311004785,140.88038277511964 L505.8947368421052,140.88038277511964" stroke="red" stroke-width="1" fill="none" />
<path d="M597.1483253588516,140.88038277511964 L551.5215311004785,140.88038277511964" stroke="red" stroke-width="1" fill="none" />
<path d="M642.7751196172248,140.88038277511964 L597.1483253588516,140.88038277511964" stroke="red" stroke-width="1" fill="none" />
<path d="M688.401913875598,140.88038277511964 L642.7751196172248,140.88038277511964" stroke="red" stroke-width="1" fill="none" />
<path d="M734.0287081339712,688.4019138755981 L779.6555023923445,642.7751196172248" stroke="red" stroke-width="1" fill="none" />
<path d="M688.401913875598,825.2822966507176 L642.7751196172248,825.2822966507176" stroke="red" stroke-width="1" fill="none" />
<path d="M642.7751196172248,779.6555023923445 L688.401913875598,734.0287081339712" stroke="red" stroke-width="1" fill="none" />
<path d="M962.1626794258373,825.2822966507176 L939.3492822966507,848.0956937799042" stroke="red" stroke-width="1" fill="none" />
<path d="M893.7224880382774,802.4688995215311 L916.535885167464,779.6555023923445" stroke="red" stroke-width="1" fill="none" />
<path d="M825.2822966507176,779.6555023923445 L825.2822966507176,825.2822966507176" stroke="red" stroke-width="1" fill="none" />
<path d="M825.2822966507176,825.2822966507176 L779.6555023923445,825.2822966507176" stroke="red" stroke-width="1" fill="none" />
<path d="M505.8947368421052,1007.7894736842104 L505.8947368421052,916.5358851674641" stroke="red" stroke-width="1" fill="none" />
<path d="M505.8947368421052,916.5358851674641 L460.267942583732,916.5358851674641" stroke="red" stroke-width="1" fill="none" />
<path d="M460.267942583732,916.5358851674641 L414.6411483253588,962.1626794258373" stroke="red" stroke-width="1" fill="none" />
<path d="M414.6411483253588,1053.4162679425835 L277.76076555023917,916.5358851674641" stroke="red" stroke-width="1" fill="none" />
<path d="M277.76076555023917,916.5358851674641 L277.76076555023917,870.9090909090909" stroke="red" stroke-width="1" fill="none" />
<path d="M277.76076555023917,870.9090909090909 L414.6411483253588,734.0287081339712" stroke="red" stroke-width="1" fill="none" />
<path d="M414.6411483253588,734.0287081339712 L460.267942583732,779.6555023923445" stroke="red" stroke-width="1" fill="none" />
<path d="M460.267942583732,779.6555023923445 L460.267942583732,825.2822966507176" stroke="red" stroke-width="1" fill="none" />
<path d="M460.267942583732,825.2822966507176 L505.8947368421052,825.2822966507176" stroke="red" stroke-width="1" fill="none" />
<path d="M414.6411483253588,688.4019138755981 L232.13397129186598,870.9090909090909" stroke="red" stroke-width="1" fill="none" />
<path d="M414.6411483253588,962.1626794258373 L460.267942583732,1007.7894736842104" stroke="red" stroke-width="1" fill="none" />
<path d="M460.267942583732,1007.7894736842104 L460.267942583732,1053.4162679425835" stroke="red" stroke-width="1" fill="none" />
<path d="M460.267942583732,1053.4162679425835 L505.8947368421052,1053.4162679425835" stroke="red" stroke-width="1" fill="none" />
<path d="M505.8947368421052,1053.4162679425835 L505.8947368421052,1007.7894736842104" stroke="red" stroke-width="1" fill="none" />
<path d="M779.6555023923445,1007.7894736842104 L734.0287081339712,1053.4162679425835" stroke="red" stroke-width="1" fill="none" />
<path d="M734.0287081339712,1053.4162679425835 L734.0287081339712,1099.043062200957" stroke="red" stroke-width="1" fill="none" />
<path d="M734.0287081339712,1099.043062200957 L688.401913875598,1144.66985645933" stroke="red" stroke-width="1" fill="none" />
<path d="M688.401913875598,1144.66985645933 L460.267942583732,1144.66985645933" stroke="red" stroke-width="1" fill="none" />
<path d="M460.267942583732,1144.66985645933 L414.6411483253588,1099.043062200957" stroke="red" stroke-width="1" fill="none" />
<path d="M414.6411483253588,1099.043062200957 L414.6411483253588,1053.4162679425835" stroke="red" stroke-width="1" fill="none" />
<path d="M734.0287081339712,916.5358851674641 L597.1483253588516,916.5358851674641" stroke="red" stroke-width="1" fill="none" />
<path d="M597.1483253588516,916.5358851674641 L597.1483253588516,779.6555023923445" stroke="red" stroke-width="1" fill="none" />
<path d="M597.1483253588516,779.6555023923445 L642.7751196172248,779.6555023923445" stroke="red" stroke-width="1" fill="none" />
<path d="M779.6555023923445,642.7751196172248 L779.6555023923445,597.1483253588517" stroke="red" stroke-width="1" fill="none" />
<path d="M779.6555023923445,597.1483253588517 L916.535885167464,597.1483253588517" stroke="red" stroke-width="1" fill="none" />
<path d="M916.535885167464,597.1483253588517 L916.535885167464,734.0287081339712" stroke="red" stroke-width="1" fill="none" />
<path d="M779.6555023923445,825.2822966507176 L734.0287081339712,870.9090909090909" stroke="red" stroke-width="1" fill="none" />
<path d="M734.0287081339712,870.9090909090909 L734.0287081339712,916.5358851674641" stroke="red" stroke-width="1" fill="none" />
<path d="M642.7751196172248,825.2822966507176 L642.7751196172248,870.9090909090909" stroke="red" stroke-width="1" fill="none" />
<path d="M642.7751196172248,870.9090909090909 L688.401913875598,870.9090909090909" stroke="red" stroke-width="1" fill="none" />
<path d="M688.401913875598,870.9090909090909 L688.401913875598,825.2822966507176" stroke="red" stroke-width="1" fill="none" />
<path d="M825.2822966507176,688.4019138755981 L870.9090909090908,688.4019138755981" stroke="red" stroke-width="1" fill="none" />
<path d="M870.9090909090908,688.4019138755981 L870.9090909090908,642.7751196172248" stroke="red" stroke-width="1" fill="none" />
<path d="M870.9090909090908,642.7751196172248 L825.2822966507176,642.7751196172248" stroke="red" stroke-width="1" fill="none" />
<path d="M916.535885167464,734.0287081339712 L870.9090909090908,734.0287081339712" stroke="red" stroke-width="1" fill="none" />
<path d="M870.9090909090908,734.0287081339712 L825.2822966507176,779.6555023923445" stroke="red" stroke-width="1" fill="none" />
<path d="M1007.7894736842104,642.7751196172248 L1007.7894736842104,688.4019138755981" stroke="red" stroke-width="1" fill="none" />
<path d="M1007.7894736842104,551.5215311004785 L1007.7894736842104,597.1483253588517" stroke="red" stroke-width="1" fill="none" />
<path d="M1053.4162679425835,551.5215311004785 L1007.7894736842104,551.5215311004785" stroke="red" stroke-width="1" fill="none" />
<path d="M1007.7894736842104,505.89473684210526 L1053.4162679425835,505.89473684210526" stroke="red" stroke-width="1" fill="none" />
<path d="M1007.7894736842104,688.4019138755981 L1053.4162679425835,688.4019138755981" stroke="red" stroke-width="1" fill="none" />
<path d="M1053.4162679425835,779.6555023923445 L1007.7894736842104,779.6555023923445" stroke="red" stroke-width="1" fill="none" />
<path d="M1053.4162679425835,688.4019138755981 L1053.4162679425835,642.7751196172248" stroke="red" stroke-width="1" fill="none" />
<path d="M1053.4162679425835,642.7751196172248 L1007.7894736842104,642.7751196172248" stroke="red" stroke-width="1" fill="none" />
<path d="M1007.7894736842104,597.1483253588517 L1053.4162679425835,597.1483253588517" stroke="red" stroke-width="1" fill="none" />
<path d="M1053.4162679425835,597.1483253588517 L1053.4162679425835,551.5215311004785" stroke="red" stroke-width="1" fill="none" />
<path d="M1053.4162679425835,505.89473684210526 L1099.0430622009567,505.89473684210526" stroke="red" stroke-width="1" fill="none" />
<path d="M1099.0430622009567,505.89473684210526 L1144.66985645933,551.5215311004785" stroke="red" stroke-width="1" fill="none" />
<path d="M1144.66985645933,551.5215311004785 L1144.66985645933,597.1483253588517" stroke="red" stroke-width="1" fill="none" />
<path d="M1144.66985645933,597.1483253588517 L1196.0,642.7751196172248" stroke="red" stroke-width="1" fill="none" />
<path d="M1196.0,642.7751196172248 L1144.66985645933,688.4019138755981" stroke="red" stroke-width="1" fill="none" />
<path d="M1144.66985645933,688.4019138755981 L1144.66985645933,734.0287081339712" stroke="red" stroke-width="1" fill="none" />
<path d="M1144.66985645933,734.0287081339712 L1099.0430622009567,779.6555023923445" stroke="red" stroke-width="1" fill="none" />
<path d="M1099.0430622009567,779.6555023923445 L1053.4162679425835,779.6555023923445" stroke="red" stroke-width="1" fill="none" />
<path d="M734.0287081339712,95.25358851674645 L779.6555023923445,95.25358851674645" stroke="red" stroke-width="1" fill="none" />
<path d="M779.6555023923445,95.25358851674645 L870.9090909090908,95.25358851674645" stroke="red" stroke-width="1" fill="none" />
<path d="M870.9090909090908,95.25358851674645 L962.1626794258373,186.50717703349284" stroke="red" stroke-width="1" fill="none" />
<path d="M962.1626794258373,186.50717703349284 L962.1626794258373,323.3875598086124" stroke="red" stroke-width="1" fill="none" />
<path d="M916.535885167464,277.7607655502392 L916.535885167464,232.13397129186603" stroke="red" stroke-width="1" fill="none" />
<path d="M916.535885167464,232.13397129186603 L870.9090909090908,232.13397129186603" stroke="red" stroke-width="1" fill="none" />
<path d="M870.9090909090908,232.13397129186603 L825.2822966507176,277.7607655502392" stroke="red" stroke-width="1" fill="none" />
<path d="M825.2822966507176,277.7607655502392 L870.9090909090908,323.3875598086124" stroke="red" stroke-width="1" fill="none" />
<path d="M870.9090909090908,323.3875598086124 L916.535885167464,277.7607655502392" stroke="red" stroke-width="1" fill="none" />
<path d="M962.1626794258373,323.3875598086124 L870.9090909090908,414.6411483253588" stroke="red" stroke-width="1" fill="none" />
<path d="M870.9090909090908,414.6411483253588 L779.6555023923445,323.3875598086124" stroke="red" stroke-width="1" fill="none" />
<path d="M597.1483253588516,186.50717703349284 L642.7751196172248,186.50717703349284" stroke="red" stroke-width="1" fill="none" />
<path d="M642.7751196172248,186.50717703349284 L688.401913875598,232.13397129186603" stroke="red" stroke-width="1" fill="none" />
<path d="M688.401913875598,232.13397129186603 L642.7751196172248,277.7607655502392" stroke="red" stroke-width="1" fill="none" />
<path d="M642.7751196172248,277.7607655502392 L597.1483253588516,277.7607655502392" stroke="red" stroke-width="1" fill="none" />
<path d="M460.267942583732,277.7607655502392 L414.6411483253588,277.7607655502392" stroke="red" stroke-width="1" fill="none" />
<path d="M414.6411483253588,277.7607655502392 L369.01435406698556,232.13397129186603" stroke="red" stroke-width="1" fill="none" />
<path d="M369.01435406698556,232.13397129186603 L414.6411483253588,186.50717703349284" stroke="red" stroke-width="1" fill="none" />
<path d="M414.6411483253588,186.50717703349284 L460.267942583732,186.50717703349284" stroke="red" stroke-width="1" fill="none" />
<path d="M369.01435406698556,414.6411483253588 L277.76076555023917,323.3875598086124" stroke="red" stroke-width="1" fill="none" />
<path d="M232.13397129186598,277.7607655502392 L186.50717703349278,232.13397129186603" stroke="red" stroke-width="1" fill="none" />
<path d="M277.76076555023917,323.3875598086124 L186.50717703349278,414.6411483253588" stroke="red" stroke-width="1" fill="none" />
<path d="M186.50717703349278,323.3875598086124 L232.13397129186598,277.7607655502392" stroke="red" stroke-width="1" fill="none" />
<path d="M186.50717703349278,232.13397129186603 L140.88038277511959,186.50717703349284" stroke="red" stroke-width="1" fill="none" />
<path d="M140.88038277511959,186.50717703349284 L95.25358851674639,232.13397129186603" stroke="red" stroke-width="1" fill="none" />
<path d="M95.25358851674639,232.13397129186603 L186.50717703349278,323.3875598086124" stroke="red" stroke-width="1" fill="none" />
<path d="M186.50717703349278,414.6411483253588 L4.0,232.13397129186603" stroke="red" stroke-width="1" fill="none" />
<path d="M4.0,232.13397129186603 L232.13397129186598,4.0" stroke="red" stroke-width="1" fill="none" />
<path d="M232.13397129186598,4.0 L277.76076555023917,49.62679425837325" stroke="red" stroke-width="1" fill="none" />
<path d="M277.76076555023917,49.62679425837325 L323.3875598086124,95.25358851674645" stroke="red" stroke-width="1" fill="none" />
<path d="M140.88038277511959,779.6555023923445 L140.88038277511959,642.7751196172248" stroke="red" stroke-width="1" fill="none" />
<path d="M140.88038277511959,597.1483253588517 L140.88038277511959,551.5215311004785" stroke="red" stroke-width="1" fill="none" />
<path d="M140.88038277511959,551.5215311004785 L95.25358851674639,551.5215311004785" stroke="red" stroke-width="1" fill="none" />
<path d="M95.25358851674639,551.5215311004785 L95.25358851674639,597.1483253588517" stroke="red" stroke-width="1" fill="none" />
<path d="M95.25358851674639,597.1483253588517 L140.88038277511959,597.1483253588517" stroke="red" stroke-width="1" fill="none" />
<path d="M140.88038277511959,642.7751196172248 L49.626794258373195,642.7751196172248" stroke="red" stroke-width="1" fill="none" />
<path d="M49.626794258373195,642.7751196172248 L49.626794258373195,505.89473684210526" stroke="red" stroke-width="1" fill="none" />
<path d="M49.626794258373195,505.89473684210526 L95.25358851674639,505.89473684210526" stroke="red" stroke-width="1" fill="none" />
<path d="M95.25358851674639,505.89473684210526 L140.88038277511959,505.89473684210526" stroke="red" stroke-width="1" fill="none" />
<path d="M186.50717703349278,825.2822966507176 L140.88038277511959,825.2822966507176" stroke="red" stroke-width="1" fill="none" />
<path d="M95.25358851674639,962.1626794258373 L95.25358851674639,779.6555023923445" stroke="red" stroke-width="1" fill="none" />
<path d="M95.25358851674639,779.6555023923445 L140.88038277511959,779.6555023923445" stroke="red" stroke-width="1" fill="none" />
<path d="M232.13397129186598,870.9090909090909 L232.13397129186598,916.5358851674641" stroke="red" stroke-width="1" fill="none" />
<path d="M232.13397129186598,916.5358851674641 L232.13397129186598,962.1626794258373" stroke="red" stroke-width="1" fill="none" />
<path d="M232.13397129186598,962.1626794258373 L95.25358851674639,962.1626794258373" stroke="red" stroke-width="1" fill="none" />
<path d="M140.88038277511959,825.2822966507176 L140.88038277511959,870.9090909090909" stroke="red" stroke-width="1" fill="none" />
<path d="M140.88038277511959,870.9090909090909 L175.1004784688995,859.5023923444976" stroke="red" stroke-width="1" fill="none" />
<path d="M175.1004784688995,859.5023923444976 L186.50717703349278,825.2822966507176" stroke="red" stroke-width="1" fill="none" />
<path d="M825.2822966507176,642.7751196172248 L825.2822966507176,654.1818181818181" stroke="red" stroke-width="1" fill="none" />
<path d="M825.2822966507176,654.1818181818181 L836.6889952153109,654.1818181818181" stroke="red" stroke-width="1" fill="none" />
<path d="M836.6889952153109,654.1818181818181 L836.6889952153109,676.9952153110048" stroke="red" stroke-width="1" fill="none" />
<path d="M836.6889952153109,676.9952153110048 L825.2822966507176,676.9952153110048" stroke="red" stroke-width="1" fill="none" />
<path d="M825.2822966507176,676.9952153110048 L825.2822966507176,688.4019138755981" stroke="red" stroke-width="1" fill="none" />
</svg>