<?xml version="1.0" encoding="UTF-8"?>
<svg xmlns="http://www.w3.org/2000/svg" xmlns:xlink="http://www.w3.org/1999/xlink"
     width="1200" height="1172" viewBox="0 0 1200 1172">
<defs>
</defs>
<path d="M518.7272727272726,139.45454545454538 L545.8181818181818,166.5454545454545" stroke="lavender" stroke-width="1" fill="none" />
<path d="M545.8181818181818,166.5454545454545 L572.9090909090909,139.45454545454538" stroke="lavender" stroke-width="1" fill="none" />
<path d="M572.9090909090909,139.45454545454538 L545.8181818181818,112.36363636363637" stroke="lavender" stroke-width="1" fill="none" />
<path d="M762.5454545454545,383.27272727272725 L816.7272727272726,383.27272727272725" stroke="yellow" stroke-width="1" fill="none" />
<path d="M762.5454545454545,356.18181818181813 L816.7272727272726,356.18181818181813" stroke="yellow" stroke-width="1" fill="none" />
<path d="M762.5454545454545,329.09090909090907 L816.7272727272726,329.09090909090907" stroke="yellow" stroke-width="1" fill="none" />
<path d="M762.5454545454545,301.99999999999994 L816.7272727272726,301.99999999999994" stroke="yellow" stroke-width="1" fill="none" />
<path d="M762.5454545454545,274.9090909090909 L816.7272727272726,274.9090909090909" stroke="yellow" stroke-width="1" fill="none" />
<path d="M762.5454545454545,247.81818181818176 L816.7272727272726,247.81818181818176" stroke="yellow" stroke-width="1" fill="none" />
<path d="M762.5454545454545,220.7272727272727 L816.7272727272726,220.7272727272727" stroke="yellow" stroke-width="1" fill="none" />
<path d="M762.5454545454545,193.63636363636363 L816.7272727272726,193.63636363636363" stroke="yellow" stroke-width="1" fill="none" />
<path d="M762.5454545454545,166.5454545454545 L816.7272727272726,166.5454545454545" stroke="yellow" stroke-width="1" fill="none" />
<path d="M708.3636363636363,898.0 L654.1818181818181,843.8181818181818" stroke="yellow" stroke-width="1" fill="none" />
<path d="M383.2727272727272,681.2727272727273 L437.4545454545454,627.090909090909" stroke="yellow" stroke-width="1" fill="none" />
<path d="M545.8181818181818,410.3636363636363 L600.0,356.18181818181813" stroke="yellow" stroke-width="1" fill="none" />
<path d="M870.9090909090908,518.7272727272727 L925.090909090909,572.9090909090909" stroke="yellow" stroke-width="1" fill="none" />
<path d="M410.3636363636363,518.7272727272727 L410.3636363636363,464.5454545454545" stroke="yellow" stroke-width="1" fill="none" />
<path d="M897.9999999999999,735.4545454545454 L897.9999999999999,789.6363636363635" stroke="yellow" stroke-width="1" fill="none" />
<path d="M545.8181818181818,870.9090909090909 L491.63636363636357,870.9090909090909" stroke="yellow" stroke-width="1" fill="none" />
<path d="M545.8181818181818,112.36363636363637 L518.7272727272726,139.45454545454538" stroke="lavender" stroke-width="1" fill="none" />
<path d="M925.090909090909,735.4545454545454 L925.090909090909,789.6363636363635" stroke="yellow" stroke-width="1" fill="none" />
<path d="M952.1818181818181,735.4545454545454 L952.1818181818181,789.6363636363635" stroke="yellow" stroke-width="1" fill="none" />
<path d="M979.2727272727273,735.4545454545454 L979.2727272727273,789.6363636363635" stroke="yellow" stroke-width="1" fill="none" />
<path d="M1006.3636363636363,735.4545454545454 L1006.3636363636363,789.6363636363635" stroke="yellow" stroke-width="1" fill="none" />
<path d="M1033.4545454545455,735.4545454545454 L1033.4545454545455,789.6363636363635" stroke="yellow" stroke-width="1" fill="none" />
<path d="M1060.5454545454545,735.4545454545454 L1060.5454545454545,789.6363636363635" stroke="yellow" stroke-width="1" fill="none" />
<path d="M1087.6363636363635,735.4545454545454 L1087.6363636363635,789.6363636363635" stroke="yellow" stroke-width="1" fill="none" />
<path d="M1114.7272727272725,735.4545454545454 L1114.7272727272725,789.6363636363635" stroke="yellow" stroke-width="1" fill="none" />
<path d="M220.72727272727263,518.7272727272727 L220.72727272727263,464.5454545454545" stroke="yellow" stroke-width="1" fill="none" />
<path d="M247.81818181818176,518.7272727272727 L247.81818181818176,464.5454545454545" stroke="yellow" stroke-width="1" fill="none" />
<path d="M274.9090909090909,518.7272727272727 L274.9090909090909,464.5454545454545" stroke="yellow" stroke-width="1" fill="none" />
<path d="M301.99999999999994,518.7272727272727 L301.99999999999994,464.5454545454545" stroke="yellow" stroke-width="1" fill="none" />
<path d="M329.090909090909,518.7272727272727 L329.090909090909,464.5454545454545" stroke="yellow" stroke-width="1" fill="none" />
<path d="M356.18181818181813,518.7272727272727 L356.18181818181813,464.5454545454545" stroke="yellow" stroke-width="1" fill="none" />
<path d="M383.2727272727272,518.7272727272727 L383.2727272727272,464.5454545454545" stroke="yellow" stroke-width="1" fill="none" />
<path d="M193.63636363636363,518.7272727272727 L193.63636363636363,464.5454545454545" stroke="yellow" stroke-width="1" fill="none" />
<path d="M545.8181818181818,1060.5454545454545 L491.63636363636357,1060.5454545454545" stroke="yellow" stroke-width="1" fill="none" />
<path d="M545.8181818181818,1033.4545454545455 L491.63636363636357,1033.4545454545455" stroke="yellow" stroke-width="1" fill="none" />
<path d="M545.8181818181818,1006.3636363636363 L491.63636363636357,1006.3636363636363" stroke="yellow" stroke-width="1" fill="none" />
<path d="M545.8181818181818,979.2727272727273 L491.63636363636357,979.2727272727273" stroke="yellow" stroke-width="1" fill="none" />
<path d="M545.8181818181818,952.1818181818181 L491.63636363636357,952.1818181818181" stroke="yellow" stroke-width="1" fill="none" />
<path d="M545.8181818181818,925.090909090909 L491.63636363636357,925.090909090909" stroke="yellow" stroke-width="1" fill="none" />
<path d="M545.8181818181818,898.0 L491.63636363636357,898.0" stroke="yellow" stroke-width="1" fill="none" />
<path d="M545.8181818181818,1087.6363636363635 L491.63636363636357,1087.6363636363635" stroke="yellow" stroke-width="1" fill="none" />
<path d="M491.63636363636357,762.5454545454545 L545.8181818181818,762.5454545454545" stroke="yellow" stroke-width="1" fill="none" />
<path d="M545.8181818181818,762.5454545454545 L545.8181818181818,681.2727272727273" stroke="yellow" stroke-width="1" fill="none" />
<path d="M518.7272727272726,464.5454545454545 L518.7272727272726,518.7272727272727" stroke="yellow" stroke-width="1" fill="none" />
<path d="M518.7272727272726,518.7272727272727 L600.0,518.7272727272727" stroke="yellow" stroke-width="1" fill="none" />
<path d="M816.7272727272726,491.6363636363636 L762.5454545454545,491.6363636363636" stroke="yellow" stroke-width="1" fill="none" />
<path d="M762.5454545454545,491.6363636363636 L762.5454545454545,572.9090909090909" stroke="yellow" stroke-width="1" fill="none" />
<path d="M789.6363636363635,789.6363636363635 L789.6363636363635,735.4545454545454" stroke="yellow" stroke-width="1" fill="none" />
<path d="M789.6363636363635,735.4545454545454 L708.3636363636363,735.4545454545454" stroke="yellow" stroke-width="1" fill="none" />
<path d="M261.3636363636363,694.8181818181818 L288.4545454545454,721.9090909090909" stroke="lavender" stroke-width="1" fill="none" />
<path d="M315.5454545454545,694.8181818181818 L288.4545454545454,667.7272727272726" stroke="lavender" stroke-width="1" fill="none" />
<path d="M112.36363636363626,600.0 L85.27272727272725,627.090909090909" stroke="yellow" stroke-width="1" fill="none" />
<path d="M85.27272727272725,627.090909090909 L139.45454545454538,681.2727272727273" stroke="yellow" stroke-width="1" fill="none" />
<path d="M139.45454545454538,681.2727272727273 L85.27272727272725,735.4545454545454" stroke="yellow" stroke-width="1" fill="none" />
<path d="M85.27272727272725,735.4545454545454 L112.36363636363626,762.5454545454545" stroke="yellow" stroke-width="1" fill="none" />
<path d="M112.36363636363626,762.5454545454545 L166.5454545454545,708.3636363636363" stroke="yellow" stroke-width="1" fill="none" />
<path d="M166.5454545454545,708.3636363636363 L274.9090909090909,816.7272727272726" stroke="yellow" stroke-width="1" fill="none" />
<path d="M274.9090909090909,816.7272727272726 L220.72727272727263,870.9090909090909" stroke="yellow" stroke-width="1" fill="none" />
<path d="M220.72727272727263,870.9090909090909 L247.81818181818176,898.0" stroke="yellow" stroke-width="1" fill="none" />
<path d="M247.81818181818176,898.0 L301.99999999999994,843.8181818181818" stroke="yellow" stroke-width="1" fill="none" />
<path d="M301.99999999999994,843.8181818181818 L356.18181818181813,898.0" stroke="yellow" stroke-width="1" fill="none" />
<path d="M356.18181818181813,898.0 L383.2727272727272,870.9090909090909" stroke="lavender" stroke-width="1" fill="none" />
<path d="M383.2727272727272,870.9090909090909 L329.090909090909,816.7272727272726" stroke="yellow" stroke-width="1" fill="none" />
<path d="M329.090909090909,816.7272727272726 L383.2727272727272,762.5454545454545" stroke="yellow" stroke-width="1" fill="none" />
<path d="M383.2727272727272,762.5454545454545 L356.18181818181813,735.4545454545454" stroke="yellow" stroke-width="1" fill="none" />
<path d="M356.18181818181813,735.4545454545454 L301.99999999999994,789.6363636363635" stroke="yellow" stroke-width="1" fill="none" />
<path d="M301.99999999999994,789.6363636363635 L193.63636363636363,681.2727272727273" stroke="yellow" stroke-width="1" fill="none" />
<path d="M193.63636363636363,681.2727272727273 L247.81818181818176,627.090909090909" stroke="yellow" stroke-width="1" fill="none" />
<path d="M247.81818181818176,627.090909090909 L220.72727272727263,600.0" stroke="yellow" stroke-width="1" fill="none" />
<path d="M220.72727272727263,600.0 L166.5454545454545,654.1818181818181" stroke="yellow" stroke-width="1" fill="none" />
<path d="M166.5454545454545,654.1818181818181 L112.36363636363626,600.0" stroke="yellow" stroke-width="1" fill="none" />
<path d="M979.2727272727273,572.9090909090909 L979.2727272727273,518.7272727272727" stroke="lavender" stroke-width="1" fill="none" />
<path d="M952.1818181818181,518.7272727272727 L952.1818181818181,572.9090909090909" stroke="lavender" stroke-width="1" fill="none" />
<path d="M600.0,898.0 L654.1818181818181,952.1818181818181" stroke="lavender" stroke-width="1" fill="none" />
<path d="M681.2727272727273,925.090909090909 L627.090909090909,870.9090909090909" stroke="lavender" stroke-width="1" fill="none" />
<path d="M471.31818181818176,735.4545454545454 L457.7727272727272,735.4545454545454" stroke="lavender" stroke-width="1" fill="none" />
<path d="M600.0,112.36363636363637 L654.1818181818181,166.5454545454545" stroke="red" stroke-width="1" fill="none" />
<path d="M654.1818181818181,166.5454545454545 L681.2727272727273,139.45454545454538" stroke="red" stroke-width="1" fill="none" />
<path d="M681.2727272727273,139.45454545454538 L735.4545454545454,193.63636363636363" stroke="red" stroke-width="1" fill="none" />
<path d="M735.4545454545454,193.63636363636363 L627.090909090909,301.99999999999994" stroke="red" stroke-width="1" fill="none" />
<path d="M627.090909090909,301.99999999999994 L600.0,274.9090909090909" stroke="red" stroke-width="1" fill="none" />
<path d="M600.0,274.9090909090909 L572.9090909090909,301.99999999999994" stroke="red" stroke-width="1" fill="none" />
<path d="M572.9090909090909,301.99999999999994 L464.5454545454545,193.63636363636363" stroke="red" stroke-width="1" fill="none" />
<path d="M464.5454545454545,193.63636363636363 L518.7272727272726,139.45454545454538" stroke="red" stroke-width="1" fill="none" />
<path d="M545.8181818181818,112.36363636363637 L654.1818181818181,4.0" stroke="red" stroke-width="1" fill="none" />
<path d="M654.1818181818181,4.0 L816.7272727272726,166.5454545454545" stroke="red" stroke-width="1" fill="none" />
<path d="M762.5454545454545,166.5454545454545 L654.1818181818181,58.18181818181813" stroke="red" stroke-width="1" fill="none" />
<path d="M654.1818181818181,58.18181818181813 L600.0,112.36363636363637" stroke="red" stroke-width="1" fill="none" />
<path d="M816.7272727272726,166.5454545454545 L816.7272727272726,193.63636363636363" stroke="red" stroke-width="1" fill="none" />
<path d="M816.7272727272726,193.63636363636363 L816.7272727272726,220.7272727272727" stroke="red" stroke-width="1" fill="none" />
<path d="M816.7272727272726,220.7272727272727 L816.7272727272726,247.81818181818176" stroke="red" stroke-width="1" fill="none" />
<path d="M816.7272727272726,247.81818181818176 L816.7272727272726,274.9090909090909" stroke="red" stroke-width="1" fill="none" />
<path d="M816.7272727272726,274.9090909090909 L816.7272727272726,301.99999999999994" stroke="red" stroke-width="1" fill="none" />
<path d="M816.7272727272726,301.99999999999994 L816.7272727272726,329.09090909090907" stroke="red" stroke-width="1" fill="none" />
<path d="M816.7272727272726,329.09090909090907 L816.7272727272726,356.18181818181813" stroke="red" stroke-width="1" fill="none" />
<path d="M816.7272727272726,356.18181818181813 L816.7272727272726,383.27272727272725" stroke="red" stroke-width="1" fill="none" />
<path d="M762.5454545454545,193.63636363636363 L762.5454545454545,166.5454545454545" stroke="red" stroke-width="1" fill="none" />
<path d="M762.5454545454545,220.7272727272727 L762.5454545454545,193.63636363636363" stroke="red" stroke-width="1" fill="none" />
<path d="M762.5454545454545,247.81818181818176 L762.5454545454545,220.7272727272727" stroke="red" stroke-width="1" fill="none" />
<path d="M762.5454545454545,274.9090909090909 L762.5454545454545,247.81818181818176" stroke="red" stroke-width="1" fill="none" />
<path d="M762.5454545454545,301.99999999999994 L762.5454545454545,274.9090909090909" stroke="red" stroke-width="1" fill="none" />
<path d="M762.5454545454545,329.09090909090907 L762.5454545454545,301.99999999999994" stroke="red" stroke-width="1" fill="none" />
<path d="M762.5454545454545,356.18181818181813 L762.5454545454545,329.09090909090907" stroke="red" stroke-width="1" fill="none" />
<path d="M762.5454545454545,383.27272727272725 L762.5454545454545,356.18181818181813" stroke="red" stroke-width="1" fill="none" />
<path d="M762.5454545454545,843.8181818181818 L708.3636363636363,898.0" stroke="red" stroke-width="1" fill="none" />
<path d="M654.1818181818181,843.8181818181818 L735.4545454545454,762.5454545454545" stroke="red" stroke-width="1" fill="none" />
<path d="M735.4545454545454,762.5454545454545 L708.3636363636363,735.4545454545454" stroke="red" stroke-width="1" fill="none" />
<path d="M708.3636363636363,735.4545454545454 L572.9090909090909,870.9090909090909" stroke="red" stroke-width="1" fill="none" />
<path d="M572.9090909090909,870.9090909090909 L545.8181818181818,870.9090909090909" stroke="red" stroke-width="1" fill="none" />
<path d="M437.4545454545454,735.4545454545454 L383.2727272727272,681.2727272727273" stroke="red" stroke-width="1" fill="none" />
<path d="M437.4545454545454,627.090909090909 L518.7272727272726,708.3636363636363" stroke="red" stroke-width="1" fill="none" />
<path d="M518.7272727272726,708.3636363636363 L545.8181818181818,681.2727272727273" stroke="red" stroke-width="1" fill="none" />
<path d="M545.8181818181818,681.2727272727273 L410.3636363636363,545.8181818181818" stroke="red" stroke-width="1" fill="none" />
<path d="M410.3636363636363,545.8181818181818 L410.3636363636363,518.7272727272727" stroke="red" stroke-width="1" fill="none" />
<path d="M600.0,356.18181818181813 L654.1818181818181,410.3636363636363" stroke="red" stroke-width="1" fill="none" />
<path d="M654.1818181818181,410.3636363636363 L572.9090909090909,491.6363636363636" stroke="red" stroke-width="1" fill="none" />
<path d="M572.9090909090909,491.6363636363636 L600.0,518.7272727272727" stroke="red" stroke-width="1" fill="none" />
<path d="M600.0,518.7272727272727 L735.4545454545454,383.27272727272725" stroke="red" stroke-width="1" fill="none" />
<path d="M735.4545454545454,383.27272727272725 L762.5454545454545,383.27272727272725" stroke="red" stroke-width="1" fill="none" />
<path d="M925.090909090909,572.9090909090909 L870.9090909090908,627.090909090909" stroke="red" stroke-width="1" fill="none" />
<path d="M870.9090909090908,627.090909090909 L789.6363636363635,545.8181818181818" stroke="red" stroke-width="1" fill="none" />
<path d="M789.6363636363635,545.8181818181818 L762.5454545454545,572.9090909090909" stroke="red" stroke-width="1" fill="none" />
<path d="M762.5454545454545,572.9090909090909 L897.9999999999999,708.3636363636363" stroke="red" stroke-width="1" fill="none" />
<path d="M897.9999999999999,708.3636363636363 L897.9999999999999,735.4545454545454" stroke="red" stroke-width="1" fill="none" />
<path d="M816.7272727272726,383.27272727272725 L870.9090909090908,437.4545454545454" stroke="red" stroke-width="1" fill="none" />
<path d="M870.9090909090908,437.4545454545454 L816.7272727272726,491.6363636363636" stroke="red" stroke-width="1" fill="none" />
<path d="M816.7272727272726,491.6363636363636 L816.7272727272726,518.7272727272727" stroke="red" stroke-width="1" fill="none" />
<path d="M816.7272727272726,518.7272727272727 L870.9090909090908,518.7272727272727" stroke="red" stroke-width="1" fill="none" />
<path d="M762.5454545454545,789.6363636363635 L762.5454545454545,843.8181818181818" stroke="red" stroke-width="1" fill="none" />
<path d="M789.6363636363635,789.6363636363635 L762.5454545454545,789.6363636363635" stroke="red" stroke-width="1" fill="none" />
<path d="M843.8181818181818,843.8181818181818 L789.6363636363635,789.6363636363635" stroke="red" stroke-width="1" fill="none" />
<path d="M897.9999999999999,789.6363636363635 L843.8181818181818,843.8181818181818" stroke="red" stroke-width="1" fill="none" />
<path d="M491.63636363636357,762.5454545454545 L491.63636363636357,735.4545454545454" stroke="red" stroke-width="1" fill="none" />
<path d="M437.4545454545454,816.7272727272726 L491.63636363636357,762.5454545454545" stroke="red" stroke-width="1" fill="none" />
<path d="M491.63636363636357,870.9090909090909 L437.4545454545454,816.7272727272726" stroke="red" stroke-width="1" fill="none" />
<path d="M545.8181818181818,464.5454545454545 L545.8181818181818,410.3636363636363" stroke="red" stroke-width="1" fill="none" />
<path d="M518.7272727272726,464.5454545454545 L545.8181818181818,464.5454545454545" stroke="red" stroke-width="1" fill="none" />
<path d="M464.5454545454545,410.3636363636363 L518.7272727272726,464.5454545454545" stroke="red" stroke-width="1" fill="none" />
<path d="M410.3636363636363,464.5454545454545 L464.5454545454545,410.3636363636363" stroke="red" stroke-width="1" fill="none" />
<path d="M1114.7272727272725,789.6363636363635 L1087.6363636363635,789.6363636363635" stroke="red" stroke-width="1" fill="none" />
<path d="M1087.6363636363635,789.6363636363635 L1060.5454545454545,789.6363636363635" stroke="red" stroke-width="1" fill="none" />
<path d="M1060.5454545454545,789.6363636363635 L1033.4545454545455,789.6363636363635" stroke="red" stroke-width="1" fill="none" />
<path d="M1033.4545454545455,789.6363636363635 L1006.3636363636363,789.6363636363635" stroke="red" stroke-width="1" fill="none" />
<path d="M1006.3636363636363,789.6363636363635 L979.2727272727273,789.6363636363635" stroke="red" stroke-width="1" fill="none" />
<path d="M979.2727272727273,789.6363636363635 L952.1818181818181,789.6363636363635" stroke="red" stroke-width="1" fill="none" />
<path d="M952.1818181818181,789.6363636363635 L925.090909090909,789.6363636363635" stroke="red" stroke-width="1" fill="none" />
<path d="M925.090909090909,789.6363636363635 L897.9999999999999,789.6363636363635" stroke="red" stroke-width="1" fill="none" />
<path d="M1087.6363636363635,735.4545454545454 L1114.7272727272725,735.4545454545454" stroke="red" stroke-width="1" fill="none" />
<path d="M1060.5454545454545,735.4545454545454 L1087.6363636363635,735.4545454545454" stroke="red" stroke-width="1" fill="none" />
<path d="M1033.4545454545455,735.4545454545454 L1060.5454545454545,735.4545454545454" stroke="red" stroke-width="1" fill="none" />
<path d="M1006.3636363636363,735.4545454545454 L1033.4545454545455,735.4545454545454" stroke="red" stroke-width="1" fill="none" />
<path d="M979.2727272727273,735.4545454545454 L1006.3636363636363,735.4545454545454" stroke="red" stroke-width="1" fill="none" />
<path d="M952.1818181818181,735.4545454545454 L979.2727272727273,735.4545454545454" stroke="red" stroke-width="1" fill="none" />
<path d="M925.090909090909,735.4545454545454 L952.1818181818181,735.4545454545454" stroke="red" stroke-width="1" fill="none" />
<path d="M897.9999999999999,735.4545454545454 L925.090909090909,735.4545454545454" stroke="red" stroke-width="1" fill="none" />
<path d="M410.3636363636363,518.7272727272727 L383.2727272727272,518.7272727272727" stroke="red" stroke-width="1" fill="none" />
<path d="M383.2727272727272,518.7272727272727 L356.18181818181813,518.7272727272727" stroke="red" stroke-width="1" fill="none" />
<path d="M356.18181818181813,518.7272727272727 L329.090909090909,518.7272727272727" stroke="red" stroke-width="1" fill="none" />
<path d="M329.090909090909,518.7272727272727 L301.99999999999994,518.7272727272727" stroke="red" stroke-width="1" fill="none" />
<path d="M301.99999999999994,518.7272727272727 L274.9090909090909,518.7272727272727" stroke="red" stroke-width="1" fill="none" />
<path d="M274.9090909090909,518.7272727272727 L247.81818181818176,518.7272727272727" stroke="red" stroke-width="1" fill="none" />
<path d="M247.81818181818176,518.7272727272727 L220.72727272727263,518.7272727272727" stroke="red" stroke-width="1" fill="none" />
<path d="M220.72727272727263,518.7272727272727 L193.63636363636363,518.7272727272727" stroke="red" stroke-width="1" fill="none" />
<path d="M383.2727272727272,464.5454545454545 L410.3636363636363,464.5454545454545" stroke="red" stroke-width="1" fill="none" />
<path d="M356.18181818181813,464.5454545454545 L383.2727272727272,464.5454545454545" stroke="red" stroke-width="1" fill="none" />
<path d="M329.090909090909,464.5454545454545 L356.18181818181813,464.5454545454545" stroke="red" stroke-width="1" fill="none" />
<path d="M301.99999999999994,464.5454545454545 L329.090909090909,464.5454545454545" stroke="red" stroke-width="1" fill="none" />
<path d="M274.9090909090909,464.5454545454545 L301.99999999999994,464.5454545454545" stroke="red" stroke-width="1" fill="none" />
<path d="M247.81818181818176,464.5454545454545 L274.9090909090909,464.5454545454545" stroke="red" stroke-width="1" fill="none" />
<path d="M220.72727272727263,464.5454545454545 L247.81818181818176,464.5454545454545" stroke="red" stroke-width="1" fill="none" />
<path d="M193.63636363636363,464.5454545454545 L220.72727272727263,464.5454545454545" stroke="red" stroke-width="1" fill="none" />
<path d="M545.8181818181818,870.9090909090909 L545.8181818181818,898.0" stroke="red" stroke-width="1" fill="none" />
<path d="M545.8181818181818,898.0 L545.8181818181818,925.090909090909" stroke="red" stroke-width="1" fill="none" />
<path d="M545.8181818181818,925.090909090909 L545.8181818181818,952.1818181818181" stroke="red" stroke-width="1" fill="none" />
<path d="M545.8181818181818,952.1818181818181 L545.8181818181818,979.2727272727273" stroke="red" stroke-width="1" fill="none" />
<path d="M545.8181818181818,979.2727272727273 L545.8181818181818,1006.3636363636363" stroke="red" stroke-width="1" fill="none" />
<path d="M545.8181818181818,1006.3636363636363 L545.8181818181818,1033.4545454545455" stroke="red" stroke-width="1" fill="none" />
<path d="M545.8181818181818,1033.4545454545455 L545.8181818181818,1060.5454545454545" stroke="red" stroke-width="1" fill="none" />
<path d="M545.8181818181818,1060.5454545454545 L545.8181818181818,1087.6363636363635" stroke="red" stroke-width="1" fill="none" />
<path d="M491.63636363636357,898.0 L491.63636363636357,870.9090909090909" stroke="red" stroke-width="1" fill="none" />
<path d="M491.63636363636357,925.090909090909 L491.63636363636357,898.0" stroke="red" stroke-width="1" fill="none" />
<path d="M491.63636363636357,952.1818181818181 L491.63636363636357,925.090909090909" stroke="red" stroke-width="1" fill="none" />
<path d="M491.63636363636357,979.2727272727273 L491.63636363636357,952.1818181818181" stroke="red" stroke-width="1" fill="none" />
<path d="M491.63636363636357,1006.3636363636363 L491.63636363636357,979.2727272727273" stroke="red" stroke-width="1" fill="none" />
<path d="M491.63636363636357,1033.4545454545455 L491.63636363636357,1006.3636363636363" stroke="red" stroke-width="1" fill="none" />
<path d="M491.63636363636357,1060.5454545454545 L491.63636363636357,1033.4545454545455" stroke="red" stroke-width="1" fill="none" />
<path d="M491.63636363636357,1087.6363636363635 L491.63636363636357,1060.5454545454545" stroke="red" stroke-width="1" fill="none" />
<path d="M545.8181818181818,1087.6363636363635 L572.9090909090909,1114.7272727272725" stroke="red" stroke-width="1" fill="none" />
<path d="M572.9090909090909,1114.7272727272725 L627.090909090909,1060.5454545454545" stroke="red" stroke-width="1" fill="none" />
<path d="M627.090909090909,1060.5454545454545 L572.9090909090909,1006.3636363636363" stroke="red" stroke-width="1" fill="none" />
<path d="M572.9090909090909,1006.3636363636363 L572.9090909090909,898.0" stroke="red" stroke-width="1" fill="none" />
<path d="M572.9090909090909,898.0 L600.0,898.0" stroke="red" stroke-width="1" fill="none" />
<path d="M789.6363636363635,898.0 L816.7272727272726,898.0" stroke="red" stroke-width="1" fill="none" />
<path d="M816.7272727272726,898.0 L816.7272727272726,1006.3636363636363" stroke="red" stroke-width="1" fill="none" />
<path d="M816.7272727272726,1006.3636363636363 L762.5454545454545,1060.5454545454545" stroke="red" stroke-width="1" fill="none" />
<path d="M762.5454545454545,1060.5454545454545 L816.7272727272726,1114.7272727272725" stroke="red" stroke-width="1" fill="none" />
<path d="M816.7272727272726,1114.7272727272725 L762.5454545454545,1168.909090909091" stroke="red" stroke-width="1" fill="none" />
<path d="M762.5454545454545,1168.909090909091 L708.3636363636363,1114.7272727272725" stroke="red" stroke-width="1" fill="none" />
<path d="M708.3636363636363,1114.7272727272725 L681.2727272727273,1114.7272727272725" stroke="red" stroke-width="1" fill="none" />
<path d="M681.2727272727273,1114.7272727272725 L627.090909090909,1168.909090909091" stroke="red" stroke-width="1" fill="none" />
<path d="M627.090909090909,1168.909090909091 L572.9090909090909,1168.909090909091" stroke="red" stroke-width="1" fill="none" />
<path d="M572.9090909090909,1168.909090909091 L491.63636363636357,1087.6363636363635" stroke="red" stroke-width="1" fill="none" />
<path d="M1114.7272727272725,735.4545454545454 L1141.8181818181818,708.3636363636363" stroke="red" stroke-width="1" fill="none" />
<path d="M1141.8181818181818,708.3636363636363 L1141.8181818181818,681.2727272727273" stroke="red" stroke-width="1" fill="none" />
<path d="M1141.8181818181818,681.2727272727273 L1114.7272727272725,654.1818181818181" stroke="red" stroke-width="1" fill="none" />
<path d="M1114.7272727272725,654.1818181818181 L1087.6363636363635,681.2727272727273" stroke="red" stroke-width="1" fill="none" />
<path d="M1087.6363636363635,681.2727272727273 L979.2727272727273,572.9090909090909" stroke="red" stroke-width="1" fill="none" />
<path d="M979.2727272727273,518.7272727272727 L1087.6363636363635,406.9772727272727" stroke="red" stroke-width="1" fill="none" />
<path d="M1087.6363636363635,406.9772727272727 L1196.0,518.7272727272727" stroke="red" stroke-width="1" fill="none" />
<path d="M1196.0,518.7272727272727 L1196.0,572.9090909090909" stroke="red" stroke-width="1" fill="none" />
<path d="M1196.0,572.9090909090909 L1141.8181818181818,627.090909090909" stroke="red" stroke-width="1" fill="none" />
<path d="M1141.8181818181818,627.090909090909 L1196.0,681.2727272727273" stroke="red" stroke-width="1" fill="none" />
<path d="M1196.0,681.2727272727273 L1196.0,708.3636363636363" stroke="red" stroke-width="1" fill="none" />
<path d="M1196.0,708.3636363636363 L1114.7272727272725,789.6363636363635" stroke="red" stroke-width="1" fill="none" />
<path d="M193.63636363636363,518.7272727272727 L139.45454545454538,572.9090909090909" stroke="red" stroke-width="1" fill="none" />
<path d="M139.45454545454538,572.9090909090909 L166.5454545454545,600.0" stroke="red" stroke-width="1" fill="none" />
<path d="M166.5454545454545,600.0 L220.72727272727263,545.8181818181818" stroke="red" stroke-width="1" fill="none" />
<path d="M220.72727272727263,545.8181818181818 L301.99999999999994,627.090909090909" stroke="red" stroke-width="1" fill="none" />
<path d="M301.99999999999994,627.090909090909 L247.81818181818176,681.2727272727273" stroke="red" stroke-width="1" fill="none" />
<path d="M301.99999999999994,735.4545454545454 L356.18181818181813,681.2727272727273" stroke="red" stroke-width="1" fill="none" />
<path d="M356.18181818181813,681.2727272727273 L437.4545454545454,762.5454545454545" stroke="red" stroke-width="1" fill="none" />
<path d="M437.4545454545454,762.5454545454545 L383.2727272727272,816.7272727272726" stroke="red" stroke-width="1" fill="none" />
<path d="M383.2727272727272,816.7272727272726 L437.4545454545454,870.9090909090909" stroke="red" stroke-width="1" fill="none" />
<path d="M437.4545454545454,870.9090909090909 L356.18181818181813,952.1818181818181" stroke="red" stroke-width="1" fill="none" />
<path d="M356.18181818181813,952.1818181818181 L301.99999999999994,894.6136363636363" stroke="red" stroke-width="1" fill="none" />
<path d="M301.99999999999994,894.6136363636363 L247.81818181818176,948.7954545454545" stroke="red" stroke-width="1" fill="none" />
<path d="M247.81818181818176,948.7954545454545 L166.5454545454545,870.9090909090909" stroke="red" stroke-width="1" fill="none" />
<path d="M166.5454545454545,870.9090909090909 L220.72727272727263,816.7272727272726" stroke="red" stroke-width="1" fill="none" />
<path d="M220.72727272727263,816.7272727272726 L166.5454545454545,762.5454545454545" stroke="red" stroke-width="1" fill="none" />
<path d="M166.5454545454545,762.5454545454545 L112.36363636363626,816.7272727272726" stroke="red" stroke-width="1" fill="none" />
<path d="M112.36363636363626,816.7272727272726 L31.09090909090901,735.4545454545454" stroke="red" stroke-width="1" fill="none" />
<path d="M31.09090909090901,735.4545454545454 L85.27272727272725,681.2727272727273" stroke="red" stroke-width="1" fill="none" />
<path d="M85.27272727272725,681.2727272727273 L4.0,600.0" stroke="red" stroke-width="1" fill="none" />
<path d="M4.0,600.0 L139.45454545454538,464.5454545454545" stroke="red" stroke-width="1" fill="none" />
<path d="M139.45454545454538,464.5454545454545 L193.63636363636363,464.5454545454545" stroke="red" stroke-width="1" fill="none" />
<path d="M518.7272727272726,139.45454545454538 L491.63636363636357,112.36363636363637" stroke="red" stroke-width="1" fill="none" />
<path d="M491.63636363636357,112.36363636363637 L410.3636363636363,193.63636363636363" stroke="red" stroke-width="1" fill="none" />
<path d="M410.3636363636363,193.63636363636363 L572.9090909090909,356.18181818181813" stroke="red" stroke-width="1" fill="none" />
<path d="M572.9090909090909,356.18181818181813 L600.0,356.18181818181813" stroke="red" stroke-width="1" fill="none" />
<path d="M491.63636363636357,58.18181818181813 L545.8181818181818,112.36363636363637" stroke="red" stroke-width="1" fill="none" />
<path d="M356.18181818181813,193.63636363636363 L491.63636363636357,58.18181818181813" stroke="red" stroke-width="1" fill="none" />
<path d="M545.8181818181818,383.27272727272725 L356.18181818181813,193.63636363636363" stroke="red" stroke-width="1" fill="none" />
<path d="M545.8181818181818,410.3636363636363 L545.8181818181818,383.27272727272725" stroke="red" stroke-width="1" fill="none" />
<path d="M247.81818181818176,681.2727272727273 L261.3636363636363,694.8181818181818" stroke="red" stroke-width="1" fill="none" />
<path d="M288.4545454545454,721.9090909090909 L301.99999999999994,735.4545454545454" stroke="red" stroke-width="1" fill="none" />
<path d="M261.3636363636363,694.8181818181818 L288.4545454545454,667.7272727272726" stroke="red" stroke-width="1" fill="none" />
<path d="M315.5454545454545,694.8181818181818 L288.4545454545454,721.9090909090909" stroke="red" stroke-width="1" fill="none" />
<path d="M383.2727272727272,681.2727272727273 L356.18181818181813,654.1818181818181" stroke="red" stroke-width="1" fill="none" />
<path d="M356.18181818181813,654.1818181818181 L315.5454545454545,694.8181818181818" stroke="red" stroke-width="1" fill="none" />
<path d="M288.4545454545454,667.7272727272726 L356.18181818181813,600.0" stroke="red" stroke-width="1" fill="none" />
<path d="M356.18181818181813,600.0 L410.3636363636363,600.0" stroke="red" stroke-width="1" fill="none" />
<path d="M410.3636363636363,600.0 L437.4545454545454,627.090909090909" stroke="red" stroke-width="1" fill="none" />
<path d="M979.2727272727273,572.9090909090909 L952.1818181818181,572.9090909090909" stroke="red" stroke-width="1" fill="none" />
<path d="M952.1818181818181,572.9090909090909 L925.090909090909,572.9090909090909" stroke="red" stroke-width="1" fill="none" />
<path d="M870.9090909090908,518.7272727272727 L952.1818181818181,518.7272727272727" stroke="red" stroke-width="1" fill="none" />
<path d="M952.1818181818181,518.7272727272727 L979.2727272727273,518.7272727272727" stroke="red" stroke-width="1" fill="none" />
<path d="M627.090909090909,870.9090909090909 L654.1818181818181,843.8181818181818" stroke="red" stroke-width="1" fill="none" />
<path d="M708.3636363636363,898.0 L681.2727272727273,925.090909090909" stroke="red" stroke-width="1" fill="none" />
<path d="M600.0,898.0 L627.090909090909,870.9090909090909" stroke="red" stroke-width="1" fill="none" />
<path d="M681.2727272727273,925.090909090909 L654.1818181818181,952.1818181818181" stroke="red" stroke-width="1" fill="none" />
<path d="M654.1818181818181,952.1818181818181 L654.1818181818181,979.2727272727273" stroke="red" stroke-width="1" fill="none" />
<path d="M654.1818181818181,979.2727272727273 L681.2727272727273,1006.3636363636363" stroke="red" stroke-width="1" fill="none" />
<path d="M681.2727272727273,1006.3636363636363 L708.3636363636363,1006.3636363636363" stroke="red" stroke-width="1" fill="none" />
<path d="M708.3636363636363,1006.3636363636363 L735.4545454545454,979.2727272727273" stroke="red" stroke-width="1" fill="none" />
<path d="M735.4545454545454,979.2727272727273 L735.4545454545454,952.1818181818181" stroke="red" stroke-width="1" fill="none" />
<path d="M735.4545454545454,952.1818181818181 L789.6363636363635,898.0" stroke="red" stroke-width="1" fill="none" />
<path d="M1060.5454545454545,566.1363636363636 L1053.7727272727273,572.9090909090909" stroke="red" stroke-width="1" fill="none" />
<path d="M1053.7727272727273,572.9090909090909 L1060.5454545454545,579.6818181818181" stroke="red" stroke-width="1" fill="none" />
<path d="M1060.5454545454545,579.6818181818181 L1067.3181818181818,572.9090909090909" stroke="red" stroke-width="1" fill="none" />
<path d="M1067.3181818181818,572.9090909090909 L1060.5454545454545,566.1363636363636" stroke="red" stroke-width="1" fill="none" />
<path d="M1087.6363636363635,539.0454545454545 L1080.8636363636363,545.8181818181818" stroke="red" stroke-width="1" fill="none" />
<path d="M1080.8636363636363,545.8181818181818 L1087.6363636363635,552.590909090909" stroke="red" stroke-width="1" fill="none" />
<path d="M1087.6363636363635,552.590909090909 L1094.4090909090908,545.8181818181818" stroke="red" stroke-width="1" fill="none" />
<path d="M1094.4090909090908,545.8181818181818 L1087.6363636363635,539.0454545454545" stroke="red" stroke-width="1" fill="none" />
<path d="M1033.4545454545455,539.0454545454545 L1026.681818181818,545.8181818181818" stroke="red" stroke-width="1" fill="none" />
<path d="M1026.681818181818,545.8181818181818 L1033.4545454545455,552.590909090909" stroke="red" stroke-width="1" fill="none" />
<path d="M1033.4545454545455,552.590909090909 L1040.2272727272725,545.8181818181818" stroke="red" stroke-width="1" fill="none" />
<path d="M1040.2272727272725,545.8181818181818 L1033.4545454545455,539.0454545454545" stroke="red" stroke-width="1" fill="none" />
<path d="M1060.5454545454545,511.9545454545454 L1053.7727272727273,518.7272727272727" stroke="red" stroke-width="1" fill="none" />
<path d="M1053.7727272727273,518.7272727272727 L1060.5454545454545,525.5" stroke="red" stroke-width="1" fill="none" />
<path d="M1060.5454545454545,525.5 L1067.3181818181818,518.7272727272727" stroke="red" stroke-width="1" fill="none" />
<path d="M1067.3181818181818,518.7272727272727 L1060.5454545454545,511.9545454545454" stroke="red" stroke-width="1" fill="none" />
<path d="M1087.6363636363635,484.8636363636363 L1080.8636363636363,491.6363636363636" stroke="red" stroke-width="1" fill="none" />
<path d="M1080.8636363636363,491.6363636363636 L1087.6363636363635,498.4090909090909" stroke="red" stroke-width="1" fill="none" />
<path d="M1087.6363636363635,498.4090909090909 L1094.4090909090908,491.6363636363636" stroke="red" stroke-width="1" fill="none" />
<path d="M1094.4090909090908,491.6363636363636 L1087.6363636363635,484.8636363636363" stroke="red" stroke-width="1" fill="none" />
<path d="M1114.7272727272725,511.9545454545454 L1107.9545454545455,518.7272727272727" stroke="red" stroke-width="1" fill="none" />
<path d="M1107.9545454545455,518.7272727272727 L1114.7272727272725,525.5" stroke="red" stroke-width="1" fill="none" />
<path d="M1114.7272727272725,525.5 L1121.5,518.7272727272727" stroke="red" stroke-width="1" fill="none" />
<path d="M1121.5,518.7272727272727 L1114.7272727272725,511.9545454545454" stroke="red" stroke-width="1" fill="none" />
<path d="M1087.6363636363635,593.2272727272726 L1080.8636363636363,600.0" stroke="red" stroke-width="1" fill="none" />
<path d="M1080.8636363636363,600.0 L1087.6363636363635,606.7727272727273" stroke="red" stroke-width="1" fill="none" />
<path d="M1087.6363636363635,606.7727272727273 L1094.4090909090908,600.0" stroke="red" stroke-width="1" fill="none" />
<path d="M1094.4090909090908,600.0 L1087.6363636363635,593.2272727272726" stroke="red" stroke-width="1" fill="none" />
<path d="M1114.7272727272725,566.1363636363636 L1107.9545454545455,572.9090909090909" stroke="red" stroke-width="1" fill="none" />
<path d="M1107.9545454545455,572.9090909090909 L1114.7272727272725,579.6818181818181" stroke="red" stroke-width="1" fill="none" />
<path d="M1114.7272727272725,579.6818181818181 L1121.5,572.9090909090909" stroke="red" stroke-width="1" fill="none" />
<path d="M1121.5,572.9090909090909 L1114.7272727272725,566.1363636363636" stroke="red" stroke-width="1" fill="none" />
<path d="M1141.8181818181818,539.0454545454545 L1135.0454545454545,545.8181818181818" stroke="red" stroke-width="1" fill="none" />
<path d="M1135.0454545454545,545.8181818181818 L1141.8181818181818,552.590909090909" stroke="red" stroke-width="1" fill="none" />
<path d="M1141.8181818181818,552.590909090909 L1148.590909090909,545.8181818181818" stroke="red" stroke-width="1" fill="none" />
<path d="M1148.590909090909,545.8181818181818 L1141.8181818181818,539.0454545454545" stroke="red" stroke-width="1" fill="none" />
<path d="M600.0,227.49999999999994 L593.2272727272726,234.27272727272725" stroke="red" stroke-width="1" fill="none" />
<path d="M593.2272727272726,234.27272727272725 L600.0,241.0454545454545" stroke="red" stroke-width="1" fill="none" />
<path d="M600.0,241.0454545454545 L606.7727272727273,234.27272727272725" stroke="red" stroke-width="1" fill="none" />
<path d="M606.7727272727273,234.27272727272725 L600.0,227.49999999999994" stroke="red" stroke-width="1" fill="none" />
<path d="M627.090909090909,200.40909090909088 L620.3181818181818,207.18181818181813" stroke="red" stroke-width="1" fill="none" />
<path d="M620.3181818181818,207.18181818181813 L627.090909090909,213.95454545454544" stroke="red" stroke-width="1" fill="none" />
<path d="M627.090909090909,213.95454545454544 L633.8636363636363,207.18181818181813" stroke="red" stroke-width="1" fill="none" />
<path d="M633.8636363636363,207.18181818181813 L627.090909090909,200.40909090909088" stroke="red" stroke-width="1" fill="none" />
<path d="M572.9090909090909,200.40909090909088 L566.1363636363635,207.18181818181813" stroke="red" stroke-width="1" fill="none" />
<path d="M566.1363636363635,207.18181818181813 L572.9090909090909,213.95454545454544" stroke="red" stroke-width="1" fill="none" />
<path d="M572.9090909090909,213.95454545454544 L579.6818181818181,207.18181818181813" stroke="red" stroke-width="1" fill="none" />
<path d="M579.6818181818181,207.18181818181813 L572.9090909090909,200.40909090909088" stroke="red" stroke-width="1" fill="none" />
<path d="M600.0,173.31818181818176 L593.2272727272726,180.09090909090907" stroke="red" stroke-width="1" fill="none" />
<path d="M593.2272727272726,180.09090909090907 L600.0,186.86363636363632" stroke="red" stroke-width="1" fill="none" />
<path d="M600.0,186.86363636363632 L606.7727272727273,180.09090909090907" stroke="red" stroke-width="1" fill="none" />
<path d="M606.7727272727273,180.09090909090907 L600.0,173.31818181818176" stroke="red" stroke-width="1" fill="none" />
<path d="M694.8181818181818,1080.8636363636363 L688.0454545454545,1087.6363636363635" stroke="red" stroke-width="1" fill="none" />
<path d="M688.0454545454545,1087.6363636363635 L694.8181818181818,1094.4090909090908" stroke="red" stroke-width="1" fill="none" />
<path d="M694.8181818181818,1094.4090909090908 L701.590909090909,1087.6363636363635" stroke="red" stroke-width="1" fill="none" />
<path d="M701.590909090909,1087.6363636363635 L694.8181818181818,1080.8636363636363" stroke="red" stroke-width="1" fill="none" />
<path d="M721.9090909090909,1053.7727272727273 L715.1363636363635,1060.5454545454545" stroke="red" stroke-width="1" fill="none" />
<path d="M715.1363636363635,1060.5454545454545 L721.9090909090909,1067.3181818181818" stroke="red" stroke-width="1" fill="none" />
<path d="M721.9090909090909,1067.3181818181818 L728.6818181818181,1060.5454545454545" stroke="red" stroke-width="1" fill="none" />
<path d="M728.6818181818181,1060.5454545454545 L721.9090909090909,1053.7727272727273" stroke="red" stroke-width="1" fill="none" />
<path d="M667.7272727272726,1053.7727272727273 L660.9545454545454,1060.5454545454545" stroke="red" stroke-width="1" fill="none" />
<path d="M660.9545454545454,1060.5454545454545 L667.7272727272726,1067.3181818181818" stroke="red" stroke-width="1" fill="none" />
<path d="M667.7272727272726,1067.3181818181818 L674.4999999999999,1060.5454545454545" stroke="red" stroke-width="1" fill="none" />
<path d="M674.4999999999999,1060.5454545454545 L667.7272727272726,1053.7727272727273" stroke="red" stroke-width="1" fill="none" />
<path d="M694.8181818181818,1026.681818181818 L688.0454545454545,1033.4545454545455" stroke="red" stroke-width="1" fill="none" />
<path d="M688.0454545454545,1033.4545454545455 L694.8181818181818,1040.2272727272725" stroke="red" stroke-width="1" fill="none" />
<path d="M694.8181818181818,1040.2272727272725 L701.590909090909,1033.4545454545455" stroke="red" stroke-width="1" fill="none" />
<path d="M701.590909090909,1033.4545454545455 L694.8181818181818,1026.681818181818" stroke="red" stroke-width="1" fill="none" />
<path d="M491.63636363636357,735.4545454545454 L471.31818181818176,735.4545454545454" stroke="red" stroke-width="1" fill="none" />
<path d="M471.31818181818176,735.4545454545454 L471.31818181818176,742.2272727272726" stroke="red" stroke-width="1" fill="none" />
<path d="M471.31818181818176,742.2272727272726 L457.7727272727272,742.2272727272726" stroke="red" stroke-width="1" fill="none" />
<path d="M457.7727272727272,742.2272727272726 L457.7727272727272,735.4545454545454" stroke="red" stroke-width="1" fill="none" />
<path d="M457.7727272727272,735.4545454545454 L437.4545454545454,735.4545454545454" stroke="red" stroke-width="1" fill="none" />
</svg>