<?xml version="1.0" encoding="UTF-8"?>
<svg xmlns="http://www.w3.org/2000/svg" xmlns:xlink="http://www.w3.org/1999/xlink"
     width="1200" height="1430" viewBox="0 0 1200 1430">
<defs>
</defs>
<path d="M622.35,838.4 L778.8,838.4" stroke="yellow" stroke-width="2" fill="none" />
<path d="M778.8,823.5 L622.35,823.5" stroke="yellow" stroke-width="2" fill="none" />
<path d="M592.55,853.3 L592.55,1009.75" stroke="yellow" stroke-width="2" fill="none" />
<path d="M607.45,1009.75 L607.45,853.3" stroke="yellow" stroke-width="2" fill="none" />
<path d="M421.2,838.4 L577.65,838.4" stroke="yellow" stroke-width="2" fill="none" />
<path d="M577.65,823.5 L421.2,823.5" stroke="yellow" stroke-width="2" fill="none" />
<path d="M607.45,808.6 L607.45,652.15" stroke="yellow" stroke-width="2" fill="none" />
<path d="M592.55,652.15 L592.55,808.6" stroke="yellow" stroke-width="2" fill="none" />
<path d="M622.35,823.5 L734.1,711.75" stroke="yellow" stroke-width="2" fill="none" />
<path d="M719.2,696.8499999999999 L607.45,808.6" stroke="yellow" stroke-width="2" fill="none" />
<path d="M480.8,965.05 L592.55,853.3" stroke="yellow" stroke-width="2" fill="none" />
<path d="M577.65,838.4 L465.90000000000003,950.15" stroke="yellow" stroke-width="2" fill="none" />
<path d="M607.45,853.3 L719.2,965.05" stroke="yellow" stroke-width="2" fill="none" />
<path d="M734.1,950.15 L622.35,838.4" stroke="yellow" stroke-width="2" fill="none" />
<path d="M465.90000000000003,711.75 L577.65,823.5" stroke="yellow" stroke-width="2" fill="none" />
<path d="M592.55,808.6 L480.8,696.8499999999999" stroke="yellow" stroke-width="2" fill="none" />
<path d="M592.55,1009.75 L480.8,965.05" stroke="yellow" stroke-width="2" fill="none" />
<path d="M465.90000000000003,950.15 L421.2,838.4" stroke="yellow" stroke-width="2" fill="none" />
<path d="M421.2,823.5 L465.90000000000003,711.75" stroke="yellow" stroke-width="2" fill="none" />
<path d="M480.8,696.8499999999999 L592.55,652.15" stroke="yellow" stroke-width="2" fill="none" />
<path d="M607.45,652.15 L719.2,696.8499999999999" stroke="yellow" stroke-width="2" fill="none" />
<path d="M734.1,711.75 L778.8,823.5" stroke="yellow" stroke-width="2" fill="none" />
<path d="M778.8,838.4 L734.1,950.15" stroke="yellow" stroke-width="2" fill="none" />
<path d="M719.2,965.05 L607.45,1009.75" stroke="yellow" stroke-width="2" fill="none" />
<path d="M607.45,1032.1 L734.1,979.95" stroke="yellow" stroke-width="2" fill="none" />
<path d="M749.0,965.05 L801.1500000000001,838.4" stroke="yellow" stroke-width="2" fill="none" />
<path d="M801.1500000000001,823.5 L749.0,696.8499999999999" stroke="yellow" stroke-width="2" fill="none" />
<path d="M734.1,681.95 L607.45,629.8" stroke="yellow" stroke-width="2" fill="none" />
<path d="M592.55,629.8 L465.90000000000003,681.95" stroke="yellow" stroke-width="2" fill="none" />
<path d="M451.0,696.8499999999999 L398.85,823.5" stroke="yellow" stroke-width="2" fill="none" />
<path d="M398.85,838.4 L451.0,965.05" stroke="yellow" stroke-width="2" fill="none" />
<path d="M465.90000000000003,979.95 L592.55,1032.1" stroke="yellow" stroke-width="2" fill="none" />
<path d="M592.55,1032.1 L592.55,1136.4" stroke="yellow" stroke-width="2" fill="none" />
<path d="M607.45,1136.4 L607.45,1032.1" stroke="yellow" stroke-width="2" fill="none" />
<path d="M592.55,525.5 L592.55,629.8" stroke="yellow" stroke-width="2" fill="none" />
<path d="M607.45,629.8 L607.45,525.5" stroke="yellow" stroke-width="2" fill="none" />
<path d="M801.1500000000001,838.4 L905.45,838.4" stroke="yellow" stroke-width="2" fill="none" />
<path d="M905.45,823.5 L801.1500000000001,823.5" stroke="yellow" stroke-width="2" fill="none" />
<path d="M294.55,838.4 L398.85,838.4" stroke="yellow" stroke-width="2" fill="none" />
<path d="M398.85,823.5 L294.55,823.5" stroke="yellow" stroke-width="2" fill="none" />
<path d="M391.4,1054.45 L465.90000000000003,979.95" stroke="yellow" stroke-width="2" fill="none" />
<path d="M451.0,965.05 L376.5,1039.55" stroke="yellow" stroke-width="2" fill="none" />
<path d="M749.0,696.8499999999999 L823.5,622.3499999999999" stroke="yellow" stroke-width="2" fill="none" />
<path d="M808.6,607.45 L734.1,681.95" stroke="yellow" stroke-width="2" fill="none" />
<path d="M734.1,979.95 L808.6,1054.45" stroke="yellow" stroke-width="2" fill="none" />
<path d="M823.5,1039.55 L749.0,965.05" stroke="yellow" stroke-width="2" fill="none" />
<path d="M376.5,622.3499999999999 L451.0,696.8499999999999" stroke="yellow" stroke-width="2" fill="none" />
<path d="M465.90000000000003,681.95 L391.4,607.45" stroke="yellow" stroke-width="2" fill="none" />
<path d="M391.4,607.45 L592.55,525.5" stroke="yellow" stroke-width="2" fill="none" />
<path d="M607.45,525.5 L808.6,607.45" stroke="yellow" stroke-width="2" fill="none" />
<path d="M823.5,622.3499999999999 L905.45,823.5" stroke="yellow" stroke-width="2" fill="none" />
<path d="M905.45,838.4 L823.5,1039.55" stroke="yellow" stroke-width="2" fill="none" />
<path d="M808.6,1054.45 L607.45,1136.4" stroke="yellow" stroke-width="2" fill="none" />
<path d="M592.55,1136.4 L391.4,1054.45" stroke="yellow" stroke-width="2" fill="none" />
<path d="M376.5,1039.55 L294.55,838.4" stroke="yellow" stroke-width="2" fill="none" />
<path d="M294.55,823.5 L376.5,622.3499999999999" stroke="yellow" stroke-width="2" fill="none" />
<path d="M607.45,1158.75 L823.5,1069.35" stroke="yellow" stroke-width="2" fill="none" />
<path d="M838.4000000000001,1054.45 L927.8,838.4" stroke="yellow" stroke-width="2" fill="none" />
<path d="M927.8,823.5 L838.4000000000001,607.45" stroke="yellow" stroke-width="2" fill="none" />
<path d="M823.5,592.55 L607.45,503.15" stroke="yellow" stroke-width="2" fill="none" />
<path d="M592.55,503.15 L376.5,592.55" stroke="yellow" stroke-width="2" fill="none" />
<path d="M361.6,607.45 L272.20000000000005,823.5" stroke="yellow" stroke-width="2" fill="none" />
<path d="M272.20000000000005,838.4 L361.6,1054.45" stroke="yellow" stroke-width="2" fill="none" />
<path d="M376.5,1069.35 L592.55,1158.75" stroke="yellow" stroke-width="2" fill="none" />
<path d="M592.55,1158.75 L592.55,1263.05" stroke="yellow" stroke-width="2" fill="none" />
<path d="M607.45,1263.05 L607.45,1158.75" stroke="yellow" stroke-width="2" fill="none" />
<path d="M592.55,398.85 L592.55,503.15" stroke="yellow" stroke-width="2" fill="none" />
<path d="M607.45,503.15 L607.45,398.85" stroke="yellow" stroke-width="2" fill="none" />
<path d="M927.8,838.4 L1032.1000000000001,838.4" stroke="yellow" stroke-width="2" fill="none" />
<path d="M1032.1000000000001,823.5 L927.8,823.5" stroke="yellow" stroke-width="2" fill="none" />
<path d="M167.89999999999998,838.4 L272.20000000000005,838.4" stroke="yellow" stroke-width="2" fill="none" />
<path d="M272.20000000000005,823.5 L167.89999999999998,823.5" stroke="yellow" stroke-width="2" fill="none" />
<path d="M302.0,1143.85 L376.5,1069.35" stroke="yellow" stroke-width="2" fill="none" />
<path d="M361.6,1054.45 L287.1,1128.95" stroke="yellow" stroke-width="2" fill="none" />
<path d="M838.4000000000001,607.45 L912.9000000000001,532.95" stroke="yellow" stroke-width="2" fill="none" />
<path d="M898.0,518.05 L823.5,592.55" stroke="yellow" stroke-width="2" fill="none" />
<path d="M823.5,1069.35 L898.0,1143.85" stroke="yellow" stroke-width="2" fill="none" />
<path d="M912.9000000000001,1128.95 L838.4000000000001,1054.45" stroke="yellow" stroke-width="2" fill="none" />
<path d="M287.1,532.95 L361.6,607.45" stroke="yellow" stroke-width="2" fill="none" />
<path d="M376.5,592.55 L302.0,518.05" stroke="yellow" stroke-width="2" fill="none" />
<path d="M592.55,1263.05 L302.0,1143.85" stroke="yellow" stroke-width="2" fill="none" />
<path d="M898.0,1143.85 L607.45,1263.05" stroke="yellow" stroke-width="2" fill="none" />
<path d="M1032.1000000000001,838.4 L912.9000000000001,1128.95" stroke="yellow" stroke-width="2" fill="none" />
<path d="M912.9000000000001,532.95 L1032.1000000000001,823.5" stroke="yellow" stroke-width="2" fill="none" />
<path d="M607.45,398.85 L898.0,518.05" stroke="yellow" stroke-width="2" fill="none" />
<path d="M302.0,518.05 L592.55,398.85" stroke="yellow" stroke-width="2" fill="none" />
<path d="M167.89999999999998,823.5 L287.1,532.95" stroke="yellow" stroke-width="2" fill="none" />
<path d="M287.1,1128.95 L167.89999999999998,838.4" stroke="yellow" stroke-width="2" fill="none" />
<path d="M607.45,1285.4 L912.9000000000001,1158.75" stroke="yellow" stroke-width="2" fill="none" />
<path d="M927.8,1143.85 L1054.45,838.4" stroke="yellow" stroke-width="2" fill="none" />
<path d="M1054.45,823.5 L927.8,518.05" stroke="yellow" stroke-width="2" fill="none" />
<path d="M912.9000000000001,503.15 L607.45,376.5" stroke="yellow" stroke-width="2" fill="none" />
<path d="M592.55,376.5 L287.1,503.15" stroke="yellow" stroke-width="2" fill="none" />
<path d="M272.20000000000005,518.05 L145.55,823.5" stroke="yellow" stroke-width="2" fill="none" />
<path d="M145.55,838.4 L272.20000000000005,1143.85" stroke="yellow" stroke-width="2" fill="none" />
<path d="M287.1,1158.75 L592.55,1285.4" stroke="yellow" stroke-width="2" fill="none" />
<path d="M145.55,823.5 L145.55,838.4" stroke="yellow" stroke-width="2" fill="none" />
<path d="M287.1,503.15 L272.20000000000005,518.05" stroke="yellow" stroke-width="2" fill="none" />
<path d="M607.45,376.5 L592.55,376.5" stroke="yellow" stroke-width="2" fill="none" />
<path d="M272.20000000000005,1143.85 L287.1,1158.75" stroke="yellow" stroke-width="2" fill="none" />
<path d="M592.55,1285.4 L607.45,1285.4" stroke="yellow" stroke-width="2" fill="none" />
<path d="M912.9000000000001,1158.75 L927.8,1143.85" stroke="yellow" stroke-width="2" fill="none" />
<path d="M1054.45,838.4 L1054.45,823.5" stroke="yellow" stroke-width="2" fill="none" />
<path d="M927.8,518.05 L912.9000000000001,503.15" stroke="yellow" stroke-width="2" fill="none" />
<path d="M480.8,234.94999999999993 L540.4,234.94999999999993" stroke="yellow" stroke-width="2" fill="none" />
<path d="M570.2,234.94999999999993 L629.8,234.94999999999993" stroke="yellow" stroke-width="2" fill="none" />
<path d="M659.6,234.94999999999993 L719.2,234.94999999999993" stroke="yellow" stroke-width="2" fill="none" />
<path d="M659.6,220.04999999999995 L719.2,220.04999999999995" stroke="yellow" stroke-width="2" fill="none" />
<path d="M719.2,205.14999999999998 L659.6,205.14999999999998" stroke="yellow" stroke-width="2" fill="none" />
<path d="M629.8,205.14999999999998 L570.2,205.14999999999998" stroke="yellow" stroke-width="2" fill="none" />
<path d="M570.2,220.04999999999995 L629.8,220.04999999999995" stroke="yellow" stroke-width="2" fill="none" />
<path d="M480.8,220.04999999999995 L540.4,220.04999999999995" stroke="yellow" stroke-width="2" fill="none" />
<path d="M540.4,205.14999999999998 L480.8,205.14999999999998" stroke="yellow" stroke-width="2" fill="none" />
<path d="M570.2,115.75 L629.8,115.75" stroke="yellow" stroke-width="2" fill="none" />
<path d="M629.8,100.85000000000002 L570.2,100.85000000000002" stroke="yellow" stroke-width="2" fill="none" />
<path d="M570.2,71.04999999999995 L629.8,71.04999999999995" stroke="lavender" stroke-width="2" fill="none" />
<path d="M570.2,63.60000000000002 L629.8,63.60000000000002" stroke="lavender" stroke-width="2" fill="none" />
<path d="M778.8,234.94999999999993 L1196.0,652.15" stroke="red" stroke-width="2" fill="none" />
<path d="M1196.0,652.15 L1196.0,1009.75" stroke="red" stroke-width="2" fill="none" />
<path d="M1196.0,1009.75 L778.8,1426.95" stroke="red" stroke-width="2" fill="none" />
<path d="M778.8,1426.95 L421.2,1426.95" stroke="red" stroke-width="2" fill="none" />
<path d="M421.2,1426.95 L4.0,1009.75" stroke="red" stroke-width="2" fill="none" />
<path d="M4.0,1009.75 L4.0,652.15" stroke="red" stroke-width="2" fill="none" />
<path d="M4.0,652.15 L421.2,234.94999999999993" stroke="red" stroke-width="2" fill="none" />
<path d="M421.2,234.94999999999993 L480.8,234.94999999999993" stroke="red" stroke-width="2" fill="none" />
<path d="M480.8,234.94999999999993 L480.8,220.04999999999995" stroke="red" stroke-width="2" fill="none" />
<path d="M480.8,220.04999999999995 L480.8,205.14999999999998" stroke="red" stroke-width="2" fill="none" />
<path d="M480.8,205.14999999999998 L480.8,115.75" stroke="red" stroke-width="2" fill="none" />
<path d="M480.8,115.75 L540.4,115.75" stroke="red" stroke-width="2" fill="none" />
<path d="M540.4,115.75 L540.4,205.14999999999998" stroke="red" stroke-width="2" fill="none" />
<path d="M540.4,205.14999999999998 L540.4,220.04999999999995" stroke="red" stroke-width="2" fill="none" />
<path d="M540.4,220.04999999999995 L540.4,234.94999999999993" stroke="red" stroke-width="2" fill="none" />
<path d="M540.4,234.94999999999993 L570.2,234.94999999999993" stroke="red" stroke-width="2" fill="none" />
<path d="M570.2,234.94999999999993 L570.2,220.04999999999995" stroke="red" stroke-width="2" fill="none" />
<path d="M570.2,220.04999999999995 L570.2,205.14999999999998" stroke="red" stroke-width="2" fill="none" />
<path d="M570.2,205.14999999999998 L570.2,115.75" stroke="red" stroke-width="2" fill="none" />
<path d="M629.8,115.75 L629.8,205.14999999999998" stroke="red" stroke-width="2" fill="none" />
<path d="M629.8,205.14999999999998 L629.8,220.04999999999995" stroke="red" stroke-width="2" fill="none" />
<path d="M629.8,220.04999999999995 L629.8,234.94999999999993" stroke="red" stroke-width="2" fill="none" />
<path d="M629.8,234.94999999999993 L659.6,234.94999999999993" stroke="red" stroke-width="2" fill="none" />
<path d="M659.6,234.94999999999993 L659.6,220.04999999999995" stroke="red" stroke-width="2" fill="none" />
<path d="M659.6,220.04999999999995 L659.6,205.14999999999998" stroke="red" stroke-width="2" fill="none" />
<path d="M659.6,205.14999999999998 L659.6,115.75" stroke="red" stroke-width="2" fill="none" />
<path d="M659.6,115.75 L719.2,115.75" stroke="red" stroke-width="2" fill="none" />
<path d="M719.2,115.75 L719.2,205.14999999999998" stroke="red" stroke-width="2" fill="none" />
<path d="M719.2,205.14999999999998 L719.2,220.04999999999995" stroke="red" stroke-width="2" fill="none" />
<path d="M719.2,220.04999999999995 L719.2,234.94999999999993" stroke="red" stroke-width="2" fill="none" />
<path d="M719.2,234.94999999999993 L778.8,234.94999999999993" stroke="red" stroke-width="2" fill="none" />
<path d="M570.2,115.75 L555.3,115.75" stroke="red" stroke-width="2" fill="none" />
<path d="M555.3,115.75 L555.3,100.85000000000002" stroke="red" stroke-width="2" fill="none" />
<path d="M555.3,100.85000000000002 L570.2,100.85000000000002" stroke="red" stroke-width="2" fill="none" />
<path d="M570.2,100.85000000000002 L570.2,71.04999999999995" stroke="red" stroke-width="2" fill="none" />
<path d="M570.2,71.04999999999995 L570.2,63.60000000000002" stroke="red" stroke-width="2" fill="none" />
<path d="M570.2,63.60000000000002 L570.2,4.0" stroke="red" stroke-width="2" fill="none" />
<path d="M570.2,4.0 L629.8,4.0" stroke="red" stroke-width="2" fill="none" />
<path d="M629.8,4.0 L629.8,63.60000000000002" stroke="red" stroke-width="2" fill="none" />
<path d="M629.8,63.60000000000002 L629.8,71.04999999999995" stroke="red" stroke-width="2" fill="none" />
<path d="M629.8,71.04999999999995 L629.8,100.85000000000002" stroke="red" stroke-width="2" fill="none" />
<path d="M629.8,100.85000000000002 L644.7,100.85000000000002" stroke="red" stroke-width="2" fill="none" />
<path d="M644.7,100.85000000000002 L644.7,115.75" stroke="red" stroke-width="2" fill="none" />
<path d="M644.7,115.75 L629.8,115.75" stroke="red" stroke-width="2" fill="none" />
</svg>