<?xml version="1.0" encoding="UTF-8"?>
<svg xmlns="http://www.w3.org/2000/svg" xmlns:xlink="http://www.w3.org/1999/xlink"
     width="1200" height="972" viewBox="0 0 1200 972">
<defs>
</defs>
<path d="M676.5291828793775,263.7354085603114 L676.5291828793775,412.15564202334633" stroke="yellow" stroke-width="2" fill="none" />
<path d="M685.8054474708172,263.7354085603114 L685.8054474708172,412.15564202334633" stroke="yellow" stroke-width="2" fill="none" />
<path d="M565.2140077821012,226.63035019455265 L676.5291828793775,263.7354085603114" stroke="yellow" stroke-width="2" fill="none" />
<path d="M676.5291828793775,412.15564202334633 L565.2140077821012,449.2607003891052" stroke="yellow" stroke-width="2" fill="none" />
<path d="M555.9377431906615,375.0505836575876 L555.9377431906615,337.94552529182886" stroke="lavender" stroke-width="2" fill="none" />
<path d="M551.2996108949417,337.94552529182886 L551.2996108949417,375.0505836575876" stroke="lavender" stroke-width="2" fill="none" />
<path d="M467.8132295719845,375.0505836575876 L467.8132295719845,337.94552529182886" stroke="lavender" stroke-width="2" fill="none" />
<path d="M463.17509727626464,337.94552529182886 L463.17509727626464,375.0505836575876" stroke="lavender" stroke-width="2" fill="none" />
<path d="M695.0817120622569,500.2801556420235 L862.0544747081713,500.2801556420235" stroke="yellow" stroke-width="2" fill="none" />
<path d="M862.0544747081713,500.2801556420235 L899.1595330739301,597.6809338521401" stroke="yellow" stroke-width="2" fill="none" />
<path d="M987.2840466926071,523.4708171206227 L987.2840466926071,560.5758754863814" stroke="lavender" stroke-width="2" fill="none" />
<path d="M991.922178988327,560.5758754863814 L991.922178988327,523.4708171206227" stroke="lavender" stroke-width="2" fill="none" />
<path d="M973.3696498054476,560.5758754863814 L959.455252918288,597.6809338521401" stroke="yellow" stroke-width="2" fill="none" />
<path d="M959.455252918288,500.2801556420235 L973.3696498054476,523.4708171206227" stroke="yellow" stroke-width="2" fill="none" />
<path d="M899.1595330739301,597.6809338521401 L940.9027237354087,500.2801556420235" stroke="yellow" stroke-width="2" fill="none" />
<path d="M750.739299610895,695.0817120622569 L639.4241245136187,695.0817120622569" stroke="yellow" stroke-width="2" fill="none" />
<path d="M750.739299610895,681.1673151750974 L639.4241245136187,681.1673151750974" stroke="yellow" stroke-width="2" fill="none" />
<path d="M750.739299610895,662.614785992218 L639.4241245136187,662.614785992218" stroke="yellow" stroke-width="2" fill="none" />
<path d="M750.739299610895,644.0622568093386 L639.4241245136187,644.0622568093386" stroke="yellow" stroke-width="2" fill="none" />
<path d="M750.739299610895,625.5097276264593 L639.4241245136187,625.5097276264593" stroke="yellow" stroke-width="2" fill="none" />
<path d="M750.739299610895,611.5953307392997 L639.4241245136187,611.5953307392997" stroke="yellow" stroke-width="2" fill="none" />
<path d="M769.2918287937744,708.9961089494165 L769.2918287937744,806.3968871595332" stroke="yellow" stroke-width="2" fill="none" />
<path d="M778.5680933852141,806.3968871595332 L778.5680933852141,708.9961089494165" stroke="yellow" stroke-width="2" fill="none" />
<path d="M1084.684824902724,634.7859922178989 L1010.4747081712063,634.7859922178989" stroke="yellow" stroke-width="2" fill="none" />
<path d="M1010.4747081712063,662.614785992218 L1010.4747081712063,746.1011673151752" stroke="yellow" stroke-width="2" fill="none" />
<path d="M1010.4747081712063,746.1011673151752 L880.6070038910507,746.1011673151752" stroke="yellow" stroke-width="2" fill="none" />
<path d="M862.0544747081713,764.6536964980546 L862.0544747081713,820.3112840466927" stroke="yellow" stroke-width="2" fill="none" />
<path d="M880.6070038910507,746.1011673151752 L862.0544747081713,764.6536964980546" stroke="yellow" stroke-width="2" fill="none" />
<path d="M1084.684824902724,671.8910505836577 L1084.684824902724,681.1673151750974" stroke="yellow" stroke-width="2" fill="none" />
<path d="M1084.684824902724,746.1011673151752 L1084.684824902724,755.3774319066149" stroke="yellow" stroke-width="2" fill="none" />
<path d="M1047.579766536965,820.3112840466927 L1038.3035019455253,820.3112840466927" stroke="yellow" stroke-width="2" fill="none" />
<path d="M973.3696498054476,820.3112840466927 L964.0933852140079,820.3112840466927" stroke="yellow" stroke-width="2" fill="none" />
<path d="M1084.684824902724,681.1673151750974 L1024.3891050583659,708.9961089494165" stroke="yellow" stroke-width="2" fill="none" />
<path d="M1024.3891050583659,708.9961089494165 L1084.684824902724,746.1011673151752" stroke="yellow" stroke-width="2" fill="none" />
<path d="M1084.684824902724,755.3774319066149 L1047.579766536965,820.3112840466927" stroke="yellow" stroke-width="2" fill="none" />
<path d="M1038.3035019455253,820.3112840466927 L1005.8365758754865,760.0155642023348" stroke="yellow" stroke-width="2" fill="none" />
<path d="M1005.8365758754865,760.0155642023348 L973.3696498054476,820.3112840466927" stroke="yellow" stroke-width="2" fill="none" />
<path d="M964.0933852140079,820.3112840466927 L880.6070038910507,746.1011673151752" stroke="yellow" stroke-width="2" fill="none" />
<path d="M936.2645914396888,820.3112840466927 L862.0544747081713,820.3112840466927" stroke="yellow" stroke-width="2" fill="none" />
<path d="M1084.684824902724,634.7859922178989 L1084.684824902724,644.0622568093386" stroke="yellow" stroke-width="2" fill="none" />
<path d="M1010.4747081712063,644.0622568093386 L1010.4747081712063,634.7859922178989" stroke="yellow" stroke-width="2" fill="none" />
<path d="M862.0544747081713,662.614785992218 L899.1595330739301,662.614785992218" stroke="lavender" stroke-width="2" fill="none" />
<path d="M899.1595330739301,657.9766536964981 L862.0544747081713,657.9766536964981" stroke="lavender" stroke-width="2" fill="none" />
<path d="M824.9494163424126,602.31906614786 L862.0544747081713,602.31906614786" stroke="lavender" stroke-width="2" fill="none" />
<path d="M862.0544747081713,597.6809338521401 L824.9494163424126,597.6809338521401" stroke="yellow" stroke-width="2" fill="none" />
<path d="M862.0544747081713,653.3385214007783 L862.0544747081713,644.0622568093386" stroke="yellow" stroke-width="2" fill="none" />
<path d="M862.0544747081713,644.0622568093386 L862.0544747081713,634.7859922178989" stroke="yellow" stroke-width="2" fill="none" />
<path d="M862.0544747081713,634.7859922178989 L862.0544747081713,625.5097276264593" stroke="yellow" stroke-width="2" fill="none" />
<path d="M862.0544747081713,625.5097276264593 L899.1595330739301,625.5097276264593" stroke="yellow" stroke-width="2" fill="none" />
<path d="M899.1595330739301,625.5097276264593 L899.1595330739301,634.7859922178989" stroke="yellow" stroke-width="2" fill="none" />
<path d="M862.0544747081713,634.7859922178989 L899.1595330739301,634.7859922178989" stroke="yellow" stroke-width="2" fill="none" />
<path d="M899.1595330739301,634.7859922178989 L899.1595330739301,644.0622568093386" stroke="yellow" stroke-width="2" fill="none" />
<path d="M862.0544747081713,644.0622568093386 L899.1595330739301,644.0622568093386" stroke="yellow" stroke-width="2" fill="none" />
<path d="M899.1595330739301,644.0622568093386 L899.1595330739301,653.3385214007783" stroke="yellow" stroke-width="2" fill="none" />
<path d="M862.0544747081713,653.3385214007783 L899.1595330739301,653.3385214007783" stroke="yellow" stroke-width="2" fill="none" />
<path d="M922.3501945525293,945.5408560311286 L843.501945525292,875.9688715953308" stroke="yellow" stroke-width="2" fill="none" />
<path d="M750.739299610895,866.6926070038912 L602.31906614786,866.6926070038912" stroke="yellow" stroke-width="2" fill="none" />
<path d="M602.31906614786,875.9688715953308 L750.739299610895,875.9688715953308" stroke="yellow" stroke-width="2" fill="none" />
<path d="M565.2140077821012,783.206225680934 L565.2140077821012,746.1011673151752" stroke="yellow" stroke-width="2" fill="none" />
<path d="M565.2140077821012,857.4163424124515 L565.2140077821012,820.3112840466927" stroke="yellow" stroke-width="2" fill="none" />
<path d="M690.4435797665371,412.15564202334633 L690.4435797665371,263.7354085603114" stroke="yellow" stroke-width="2" fill="none" />
<path d="M699.7198443579767,412.15564202334633 L699.7198443579767,263.7354085603114" stroke="yellow" stroke-width="2" fill="none" />
<path d="M862.0544747081713,477.0894941634242 L695.0817120622569,477.0894941634242" stroke="yellow" stroke-width="2" fill="none" />
<path d="M862.0544747081713,486.3657587548639 L695.0817120622569,486.3657587548639" stroke="yellow" stroke-width="2" fill="none" />
<path d="M695.0817120622569,491.0038910505838 L862.0544747081713,491.0038910505838" stroke="yellow" stroke-width="2" fill="none" />
<path d="M792.4824902723736,375.0505836575876 L792.4824902723736,412.15564202334633" stroke="lavender" stroke-width="2" fill="none" />
<path d="M797.1206225680935,412.15564202334633 L797.1206225680935,375.0505836575876" stroke="lavender" stroke-width="2" fill="none" />
<path d="M676.5291828793775,263.7354085603114 L565.2140077821012,337.94552529182886" stroke="yellow" stroke-width="2" fill="none" />
<path d="M899.1595330739301,500.2801556420235 L936.2645914396888,500.2801556420235" stroke="lavender" stroke-width="2" fill="none" />
<path d="M936.2645914396888,495.64202334630363 L899.1595330739301,495.64202334630363" stroke="lavender" stroke-width="2" fill="none" />
<path d="M685.8054474708172,968.7315175097277 L685.8054474708172,931.626459143969" stroke="lavender" stroke-width="2" fill="none" />
<path d="M685.8054474708172,931.626459143969 L667.2529182879379,931.626459143969" stroke="lavender" stroke-width="2" fill="none" />
<path d="M667.2529182879379,931.626459143969 L667.2529182879379,968.7315175097277" stroke="lavender" stroke-width="2" fill="none" />
<path d="M1029.0272373540856,820.3112840466927 L982.6459143968873,820.3112840466927" stroke="yellow" stroke-width="2" fill="none" />
<path d="M982.6459143968873,824.9494163424126 L1029.0272373540856,824.9494163424126" stroke="yellow" stroke-width="2" fill="none" />
<path d="M602.31906614786,203.43968871595337 L639.4241245136187,203.43968871595337" stroke="lavender" stroke-width="2" fill="none" />
<path d="M639.4241245136187,198.8015564202335 L602.31906614786,198.8015564202335" stroke="lavender" stroke-width="2" fill="none" />
<path d="M639.4241245136187,226.63035019455265 L602.31906614786,226.63035019455265" stroke="lavender" stroke-width="2" fill="none" />
<path d="M639.4241245136187,597.6809338521401 L695.0817120622569,500.2801556420235" stroke="yellow" stroke-width="2" fill="none" />
<path d="M602.31906614786,115.31517509727632 L639.4241245136187,115.31517509727632" stroke="yellow" stroke-width="2" fill="none" />
<path d="M1019.750972762646,504.91828793774323 L1056.8560311284048,504.91828793774323" stroke="lavender" stroke-width="2" fill="none" />
<path d="M1056.8560311284048,500.2801556420235 L1019.750972762646,500.2801556420235" stroke="lavender" stroke-width="2" fill="none" />
<path d="M1056.8560311284048,500.2801556420235 L1010.4747081712063,477.0894941634242" stroke="yellow" stroke-width="2" fill="none" />
<path d="M1103.2373540856033,449.2607003891052 L1121.7898832684825,467.8132295719845" stroke="yellow" stroke-width="2" fill="none" />
<path d="M1121.7898832684825,477.0894941634242 L1066.1322957198445,486.3657587548639" stroke="yellow" stroke-width="2" fill="none" />
<path d="M1010.4747081712063,467.8132295719845 L1038.3035019455253,444.6225680933853" stroke="yellow" stroke-width="2" fill="none" />
<path d="M1038.3035019455253,444.6225680933853 L1010.4747081712063,430.70817120622576" stroke="yellow" stroke-width="2" fill="none" />
<path d="M1010.4747081712063,421.43190661478604 L1038.3035019455253,402.87937743190673" stroke="yellow" stroke-width="2" fill="none" />
<path d="M1038.3035019455253,402.87937743190673 L1010.4747081712063,393.603112840467" stroke="yellow" stroke-width="2" fill="none" />
<path d="M1121.7898832684825,356.4980544747083 L1103.2373540856033,375.0505836575876" stroke="yellow" stroke-width="2" fill="none" />
<path d="M1103.2373540856033,375.0505836575876 L1121.7898832684825,384.3268482490273" stroke="yellow" stroke-width="2" fill="none" />
<path d="M1121.7898832684825,393.603112840467 L1103.2373540856033,412.15564202334633" stroke="yellow" stroke-width="2" fill="none" />
<path d="M1103.2373540856033,412.15564202334633 L1121.7898832684825,421.43190661478604" stroke="yellow" stroke-width="2" fill="none" />
<path d="M1121.7898832684825,430.70817120622576 L1103.2373540856033,449.2607003891052" stroke="yellow" stroke-width="2" fill="none" />
<path d="M991.922178988327,337.94552529182886 L1121.7898832684825,347.22178988326857" stroke="yellow" stroke-width="2" fill="none" />
<path d="M1001.1984435797667,245.18287937743196 L973.3696498054476,337.94552529182886" stroke="yellow" stroke-width="2" fill="none" />
<path d="M964.0933852140079,337.94552529182886 L945.5408560311286,319.39299610894943" stroke="yellow" stroke-width="2" fill="none" />
<path d="M945.5408560311286,319.39299610894943 L926.9883268482491,337.94552529182886" stroke="yellow" stroke-width="2" fill="none" />
<path d="M899.1595330739301,337.94552529182886 L913.0739299610896,300.8404669260701" stroke="yellow" stroke-width="2" fill="none" />
<path d="M913.0739299610896,300.8404669260701 L899.1595330739301,208.07782101167322" stroke="yellow" stroke-width="2" fill="none" />
<path d="M899.1595330739301,208.07782101167322 L787.8443579766538,198.8015564202335" stroke="yellow" stroke-width="2" fill="none" />
<path d="M787.8443579766538,189.5252918287938 L806.3968871595332,175.61089494163434" stroke="yellow" stroke-width="2" fill="none" />
<path d="M806.3968871595332,175.61089494163434 L787.8443579766538,161.69649805447477" stroke="yellow" stroke-width="2" fill="none" />
<path d="M787.8443579766538,152.42023346303506 L899.1595330739301,115.31517509727632" stroke="yellow" stroke-width="2" fill="none" />
<path d="M1033.6653696498056,245.18287937743196 L1061.4941634241247,245.18287937743196" stroke="yellow" stroke-width="2" fill="none" />
<path d="M1061.4941634241247,226.63035019455265 L1033.6653696498056,226.63035019455265" stroke="yellow" stroke-width="2" fill="none" />
<path d="M824.9494163424126,106.03891050583661 L862.0544747081713,106.03891050583661" stroke="lavender" stroke-width="2" fill="none" />
<path d="M862.0544747081713,101.40077821011675 L824.9494163424126,101.40077821011675" stroke="lavender" stroke-width="2" fill="none" />
<path d="M913.0739299610896,92.12451361867716 L913.0739299610896,4.0" stroke="yellow" stroke-width="2" fill="none" />
<path d="M991.922178988327,115.31517509727632 L954.8171206225682,115.31517509727632" stroke="yellow" stroke-width="2" fill="none" />
<path d="M954.8171206225682,115.31517509727632 L954.8171206225682,152.42023346303506" stroke="yellow" stroke-width="2" fill="none" />
<path d="M954.8171206225682,152.42023346303506 L991.922178988327,152.42023346303506" stroke="yellow" stroke-width="2" fill="none" />
<path d="M991.922178988327,152.42023346303506 L991.922178988327,115.31517509727632" stroke="yellow" stroke-width="2" fill="none" />
<path d="M792.4824902723736,8.63813229571997 L792.4824902723736,17.914396887159683" stroke="yellow" stroke-width="2" fill="none" />
<path d="M792.4824902723736,17.914396887159683 L801.7587548638134,17.914396887159683" stroke="lavender" stroke-width="2" fill="none" />
<path d="M801.7587548638134,17.914396887159683 L801.7587548638134,8.63813229571997" stroke="lavender" stroke-width="2" fill="none" />
<path d="M801.7587548638134,8.63813229571997 L792.4824902723736,8.63813229571997" stroke="yellow" stroke-width="2" fill="none" />
<path d="M1010.4747081712063,78.21011673151747 L1010.4747081712063,115.31517509727632" stroke="yellow" stroke-width="2" fill="none" />
<path d="M1010.4747081712063,115.31517509727632 L1047.579766536965,115.31517509727632" stroke="yellow" stroke-width="2" fill="none" />
<path d="M1047.579766536965,115.31517509727632 L1047.579766536965,78.21011673151747" stroke="yellow" stroke-width="2" fill="none" />
<path d="M1047.579766536965,78.21011673151747 L1010.4747081712063,78.21011673151747" stroke="yellow" stroke-width="2" fill="none" />
<path d="M1080.046692607004,129.2295719844359 L1042.9416342412453,129.2295719844359" stroke="yellow" stroke-width="2" fill="none" />
<path d="M1042.9416342412453,129.2295719844359 L1042.9416342412453,166.33463035019463" stroke="yellow" stroke-width="2" fill="none" />
<path d="M1042.9416342412453,166.33463035019463 L1080.046692607004,166.33463035019463" stroke="yellow" stroke-width="2" fill="none" />
<path d="M1080.046692607004,166.33463035019463 L1080.046692607004,129.2295719844359" stroke="yellow" stroke-width="2" fill="none" />
<path d="M1038.3035019455253,217.35408560311294 L1075.4085603112842,217.35408560311294" stroke="yellow" stroke-width="2" fill="none" />
<path d="M1075.4085603112842,217.35408560311294 L1075.4085603112842,180.2490272373542" stroke="yellow" stroke-width="2" fill="none" />
<path d="M1075.4085603112842,180.2490272373542 L1038.3035019455253,180.2490272373542" stroke="yellow" stroke-width="2" fill="none" />
<path d="M1038.3035019455253,180.2490272373542 L1038.3035019455253,217.35408560311294" stroke="yellow" stroke-width="2" fill="none" />
<path d="M1196.0000000000002,152.42023346303506 L1158.8949416342414,152.42023346303506" stroke="yellow" stroke-width="2" fill="none" />
<path d="M936.2645914396888,4.0 L936.2645914396888,41.10505836575885" stroke="yellow" stroke-width="2" fill="none" />
<path d="M936.2645914396888,41.10505836575885 L973.3696498054476,41.10505836575885" stroke="yellow" stroke-width="2" fill="none" />
<path d="M973.3696498054476,41.10505836575885 L973.3696498054476,4.0" stroke="yellow" stroke-width="2" fill="none" />
<path d="M1010.4747081712063,4.0 L1010.4747081712063,41.10505836575885" stroke="yellow" stroke-width="2" fill="none" />
<path d="M1010.4747081712063,41.10505836575885 L1047.579766536965,41.10505836575885" stroke="yellow" stroke-width="2" fill="none" />
<path d="M1047.579766536965,41.10505836575885 L1047.579766536965,4.0" stroke="yellow" stroke-width="2" fill="none" />
<path d="M1121.7898832684825,41.10505836575885 L1196.0000000000002,41.10505836575885" stroke="yellow" stroke-width="2" fill="none" />
<path d="M1121.7898832684825,4.0 L1121.7898832684825,41.10505836575885" stroke="yellow" stroke-width="2" fill="none" />
<path d="M1196.0000000000002,78.21011673151747 L1121.7898832684825,78.21011673151747" stroke="yellow" stroke-width="2" fill="none" />
<path d="M1121.7898832684825,115.31517509727632 L1196.0000000000002,115.31517509727632" stroke="yellow" stroke-width="2" fill="none" />
<path d="M1121.7898832684825,78.21011673151747 L1121.7898832684825,115.31517509727632" stroke="yellow" stroke-width="2" fill="none" />
<path d="M1158.8949416342414,152.42023346303506 L1084.684824902724,152.42023346303506" stroke="yellow" stroke-width="2" fill="none" />
<path d="M1084.684824902724,152.42023346303506 L1084.684824902724,189.5252918287938" stroke="yellow" stroke-width="2" fill="none" />
<path d="M1084.684824902724,189.5252918287938 L1158.8949416342414,189.5252918287938" stroke="yellow" stroke-width="2" fill="none" />
<path d="M1158.8949416342414,189.5252918287938 L1196.0000000000002,189.5252918287938" stroke="yellow" stroke-width="2" fill="none" />
<path d="M1158.8949416342414,189.5252918287938 L1158.8949416342414,226.63035019455265" stroke="lavender" stroke-width="2" fill="none" />
<path d="M416.7937743190662,263.7354085603114 L416.7937743190662,337.94552529182886" stroke="yellow" stroke-width="2" fill="none" />
<path d="M416.7937743190662,375.0505836575876 L416.7937743190662,449.2607003891052" stroke="yellow" stroke-width="2" fill="none" />
<path d="M119.95330739299607,337.94552529182886 L119.95330739299607,263.7354085603114" stroke="yellow" stroke-width="2" fill="none" />
<path d="M119.95330739299607,449.2607003891052 L119.95330739299607,375.0505836575876" stroke="yellow" stroke-width="2" fill="none" />
<path d="M268.37354085603124,263.7354085603114 L379.68871595330745,263.7354085603114" stroke="yellow" stroke-width="2" fill="none" />
<path d="M314.7548638132296,189.5252918287938 L333.307392996109,189.5252918287938" stroke="yellow" stroke-width="2" fill="none" />
<path d="M268.37354085603124,263.7354085603114 L314.7548638132296,189.5252918287938" stroke="yellow" stroke-width="2" fill="none" />
<path d="M333.307392996109,189.5252918287938 L379.68871595330745,263.7354085603114" stroke="yellow" stroke-width="2" fill="none" />
<path d="M268.37354085603124,449.2607003891052 L157.05836575875492,449.2607003891052" stroke="yellow" stroke-width="2" fill="none" />
<path d="M268.37354085603124,449.2607003891052 L221.9922178988328,523.4708171206227" stroke="yellow" stroke-width="2" fill="none" />
<path d="M203.43968871595337,523.4708171206227 L157.05836575875492,449.2607003891052" stroke="yellow" stroke-width="2" fill="none" />
<path d="M402.87937743190673,449.2607003891052 L342.5836575875487,449.2607003891052" stroke="lavender" stroke-width="2" fill="none" />
<path d="M268.37354085603124,523.4708171206227 L231.2684824902724,523.4708171206227" stroke="yellow" stroke-width="2" fill="none" />
<path d="M231.2684824902724,528.1089494163425 L268.37354085603124,528.1089494163425" stroke="yellow" stroke-width="2" fill="none" />
<path d="M194.16342412451365,523.4708171206227 L157.05836575875492,523.4708171206227" stroke="yellow" stroke-width="2" fill="none" />
<path d="M157.05836575875492,528.1089494163425 L194.16342412451365,528.1089494163425" stroke="yellow" stroke-width="2" fill="none" />
<path d="M342.5836575875487,189.5252918287938 L379.68871595330745,189.5252918287938" stroke="yellow" stroke-width="2" fill="none" />
<path d="M379.68871595330745,184.88715953307394 L342.5836575875487,184.88715953307394" stroke="yellow" stroke-width="2" fill="none" />
<path d="M268.37354085603124,189.5252918287938 L305.47859922179,189.5252918287938" stroke="yellow" stroke-width="2" fill="none" />
<path d="M305.47859922179,184.88715953307394 L268.37354085603124,184.88715953307394" stroke="yellow" stroke-width="2" fill="none" />
<path d="M416.7937743190662,337.94552529182886 L305.47859922179,337.94552529182886" stroke="yellow" stroke-width="2" fill="none" />
<path d="M119.95330739299607,375.0505836575876 L268.37354085603124,375.0505836575876" stroke="yellow" stroke-width="2" fill="none" />
<path d="M268.37354085603124,375.0505836575876 L305.47859922179,375.0505836575876" stroke="yellow" stroke-width="2" fill="none" />
<path d="M305.47859922179,375.0505836575876 L416.7937743190662,375.0505836575876" stroke="yellow" stroke-width="2" fill="none" />
<path d="M305.47859922179,337.94552529182886 L268.37354085603124,337.94552529182886" stroke="yellow" stroke-width="2" fill="none" />
<path d="M268.37354085603124,337.94552529182886 L119.95330739299607,337.94552529182886" stroke="yellow" stroke-width="2" fill="none" />
<path d="M305.47859922179,375.0505836575876 L305.47859922179,337.94552529182886" stroke="lavender" stroke-width="2" fill="none" />
<path d="M268.37354085603124,337.94552529182886 L268.37354085603124,375.0505836575876" stroke="lavender" stroke-width="2" fill="none" />
<path d="M305.47859922179,671.8910505836577 L305.47859922179,634.7859922178989" stroke="lavender" stroke-width="2" fill="none" />
<path d="M143.14396887159535,263.7354085603114 L194.16342412451365,263.7354085603114" stroke="lavender" stroke-width="2" fill="none" />
<path d="M231.2684824902724,41.10505836575885 L231.2684824902724,78.21011673151747" stroke="lavender" stroke-width="2" fill="none" />
<path d="M221.9922178988328,523.4708171206227 L203.43968871595337,523.4708171206227" stroke="yellow" stroke-width="2" fill="none" />
<path d="M73.57198443579773,375.0505836575876 L73.57198443579773,337.94552529182886" stroke="lavender" stroke-width="2" fill="none" />
<path d="M119.95330739299607,375.0505836575876 L119.95330739299607,337.94552529182886" stroke="yellow" stroke-width="2" fill="none" />
<path d="M342.5836575875487,115.31517509727632 L379.68871595330745,115.31517509727632" stroke="lavender" stroke-width="2" fill="none" />
<path d="M194.16342412451365,597.6809338521401 L157.05836575875492,597.6809338521401" stroke="lavender" stroke-width="2" fill="none" />
<path d="M68.93385214007776,337.94552529182886 L68.93385214007776,375.0505836575876" stroke="lavender" stroke-width="2" fill="none" />
<path d="M101.40077821011687,347.22178988326857 L96.7626459143969,347.22178988326857" stroke="yellow" stroke-width="2" fill="none" />
<path d="M96.7626459143969,365.7743190661479 L101.40077821011687,365.7743190661479" stroke="yellow" stroke-width="2" fill="none" />
<path d="M101.40077821011687,365.7743190661479 L101.40077821011687,347.22178988326857" stroke="yellow" stroke-width="2" fill="none" />
<path d="M96.7626459143969,347.22178988326857 L96.7626459143969,365.7743190661479" stroke="yellow" stroke-width="2" fill="none" />
<path d="M1084.684824902724,189.5252918287938 L1075.4085603112842,180.2490272373542" stroke="yellow" stroke-width="2" fill="none" />
<path d="M1075.4085603112842,217.35408560311294 L1061.4941634241247,226.63035019455265" stroke="yellow" stroke-width="2" fill="none" />
<path d="M676.5291828793775,226.63035019455265 L676.5291828793775,263.7354085603114" stroke="red" stroke-width="2" fill="none" />
<path d="M676.5291828793775,412.15564202334633 L676.5291828793775,486.3657587548639" stroke="red" stroke-width="2" fill="none" />
<path d="M676.5291828793775,263.7354085603114 L685.8054474708172,263.7354085603114" stroke="red" stroke-width="2" fill="none" />
<path d="M685.8054474708172,412.15564202334633 L676.5291828793775,412.15564202334633" stroke="red" stroke-width="2" fill="none" />
<path d="M565.2140077821012,486.3657587548639 L565.2140077821012,449.2607003891052" stroke="red" stroke-width="2" fill="none" />
<path d="M583.7665369649807,560.5758754863814 L565.2140077821012,486.3657587548639" stroke="red" stroke-width="2" fill="none" />
<path d="M639.4241245136187,597.6809338521401 L583.7665369649807,560.5758754863814" stroke="red" stroke-width="2" fill="none" />
<path d="M676.5291828793775,486.3657587548639 L695.0817120622569,500.2801556420235" stroke="red" stroke-width="2" fill="none" />
<path d="M565.2140077821012,337.94552529182886 L565.2140077821012,226.63035019455265" stroke="red" stroke-width="2" fill="none" />
<path d="M565.2140077821012,449.2607003891052 L565.2140077821012,375.0505836575876" stroke="red" stroke-width="2" fill="none" />
<path d="M565.2140077821012,375.0505836575876 L555.9377431906615,375.0505836575876" stroke="red" stroke-width="2" fill="none" />
<path d="M555.9377431906615,337.94552529182886 L565.2140077821012,337.94552529182886" stroke="red" stroke-width="2" fill="none" />
<path d="M551.2996108949417,337.94552529182886 L555.9377431906615,337.94552529182886" stroke="red" stroke-width="2" fill="none" />
<path d="M555.9377431906615,375.0505836575876 L551.2996108949417,375.0505836575876" stroke="red" stroke-width="2" fill="none" />
<path d="M463.17509727626464,337.94552529182886 L467.8132295719845,337.94552529182886" stroke="red" stroke-width="2" fill="none" />
<path d="M467.8132295719845,375.0505836575876 L463.17509727626464,375.0505836575876" stroke="red" stroke-width="2" fill="none" />
<path d="M695.0817120622569,500.2801556420235 L695.0817120622569,491.0038910505838" stroke="red" stroke-width="2" fill="none" />
<path d="M862.0544747081713,491.0038910505838 L862.0544747081713,500.2801556420235" stroke="red" stroke-width="2" fill="none" />
<path d="M973.3696498054476,500.2801556420235 L973.3696498054476,523.4708171206227" stroke="red" stroke-width="2" fill="none" />
<path d="M973.3696498054476,560.5758754863814 L973.3696498054476,597.6809338521401" stroke="red" stroke-width="2" fill="none" />
<path d="M973.3696498054476,523.4708171206227 L987.2840466926071,523.4708171206227" stroke="red" stroke-width="2" fill="none" />
<path d="M987.2840466926071,560.5758754863814 L973.3696498054476,560.5758754863814" stroke="red" stroke-width="2" fill="none" />
<path d="M987.2840466926071,523.4708171206227 L991.922178988327,523.4708171206227" stroke="red" stroke-width="2" fill="none" />
<path d="M991.922178988327,523.4708171206227 L1010.4747081712063,523.4708171206227" stroke="red" stroke-width="2" fill="none" />
<path d="M1010.4747081712063,523.4708171206227 L1010.4747081712063,504.91828793774323" stroke="red" stroke-width="2" fill="none" />
<path d="M1010.4747081712063,634.7859922178989 L1010.4747081712063,560.5758754863814" stroke="red" stroke-width="2" fill="none" />
<path d="M1010.4747081712063,560.5758754863814 L991.922178988327,560.5758754863814" stroke="red" stroke-width="2" fill="none" />
<path d="M940.9027237354087,500.2801556420235 L940.9027237354087,481.72762645914406" stroke="red" stroke-width="2" fill="none" />
<path d="M940.9027237354087,481.72762645914406 L959.455252918288,481.72762645914406" stroke="red" stroke-width="2" fill="none" />
<path d="M959.455252918288,481.72762645914406 L959.455252918288,500.2801556420235" stroke="red" stroke-width="2" fill="none" />
<path d="M959.455252918288,500.2801556420235 L973.3696498054476,500.2801556420235" stroke="red" stroke-width="2" fill="none" />
<path d="M973.3696498054476,597.6809338521401 L959.455252918288,597.6809338521401" stroke="red" stroke-width="2" fill="none" />
<path d="M959.455252918288,597.6809338521401 L959.455252918288,616.2334630350196" stroke="red" stroke-width="2" fill="none" />
<path d="M959.455252918288,616.2334630350196 L940.9027237354087,616.2334630350196" stroke="red" stroke-width="2" fill="none" />
<path d="M940.9027237354087,616.2334630350196 L940.9027237354087,597.6809338521401" stroke="red" stroke-width="2" fill="none" />
<path d="M940.9027237354087,597.6809338521401 L899.1595330739301,597.6809338521401" stroke="red" stroke-width="2" fill="none" />
<path d="M750.739299610895,597.6809338521401 L750.739299610895,611.5953307392997" stroke="red" stroke-width="2" fill="none" />
<path d="M750.739299610895,611.5953307392997 L750.739299610895,625.5097276264593" stroke="red" stroke-width="2" fill="none" />
<path d="M750.739299610895,644.0622568093386 L750.739299610895,662.614785992218" stroke="red" stroke-width="2" fill="none" />
<path d="M750.739299610895,662.614785992218 L750.739299610895,681.1673151750974" stroke="red" stroke-width="2" fill="none" />
<path d="M750.739299610895,681.1673151750974 L750.739299610895,695.0817120622569" stroke="red" stroke-width="2" fill="none" />
<path d="M639.4241245136187,695.0817120622569 L639.4241245136187,681.1673151750974" stroke="red" stroke-width="2" fill="none" />
<path d="M639.4241245136187,681.1673151750974 L639.4241245136187,662.614785992218" stroke="red" stroke-width="2" fill="none" />
<path d="M639.4241245136187,662.614785992218 L639.4241245136187,644.0622568093386" stroke="red" stroke-width="2" fill="none" />
<path d="M639.4241245136187,625.5097276264593 L639.4241245136187,611.5953307392997" stroke="red" stroke-width="2" fill="none" />
<path d="M639.4241245136187,611.5953307392997 L639.4241245136187,597.6809338521401" stroke="red" stroke-width="2" fill="none" />
<path d="M750.739299610895,695.0817120622569 L769.2918287937744,695.0817120622569" stroke="red" stroke-width="2" fill="none" />
<path d="M769.2918287937744,695.0817120622569 L769.2918287937744,708.9961089494165" stroke="red" stroke-width="2" fill="none" />
<path d="M769.2918287937744,708.9961089494165 L778.5680933852141,708.9961089494165" stroke="red" stroke-width="2" fill="none" />
<path d="M778.5680933852141,708.9961089494165 L778.5680933852141,662.614785992218" stroke="red" stroke-width="2" fill="none" />
<path d="M565.2140077821012,695.0817120622569 L639.4241245136187,695.0817120622569" stroke="red" stroke-width="2" fill="none" />
<path d="M778.5680933852141,806.3968871595332 L769.2918287937744,806.3968871595332" stroke="red" stroke-width="2" fill="none" />
<path d="M778.5680933852141,820.3112840466927 L778.5680933852141,806.3968871595332" stroke="red" stroke-width="2" fill="none" />
<path d="M634.7859922178989,644.0622568093386 L634.7859922178989,625.5097276264593" stroke="red" stroke-width="2" fill="none" />
<path d="M634.7859922178989,625.5097276264593 L639.4241245136187,625.5097276264593" stroke="red" stroke-width="2" fill="none" />
<path d="M639.4241245136187,644.0622568093386 L634.7859922178989,644.0622568093386" stroke="red" stroke-width="2" fill="none" />
<path d="M755.3774319066149,625.5097276264593 L755.3774319066149,644.0622568093386" stroke="red" stroke-width="2" fill="none" />
<path d="M750.739299610895,625.5097276264593 L755.3774319066149,625.5097276264593" stroke="red" stroke-width="2" fill="none" />
<path d="M755.3774319066149,644.0622568093386 L750.739299610895,644.0622568093386" stroke="red" stroke-width="2" fill="none" />
<path d="M991.922178988327,560.5758754863814 L987.2840466926071,560.5758754863814" stroke="red" stroke-width="2" fill="none" />
<path d="M1084.684824902724,523.4708171206227 L1084.684824902724,634.7859922178989" stroke="red" stroke-width="2" fill="none" />
<path d="M862.0544747081713,820.3112840466927 L778.5680933852141,820.3112840466927" stroke="red" stroke-width="2" fill="none" />
<path d="M936.2645914396888,820.3112840466927 L936.2645914396888,931.626459143969" stroke="red" stroke-width="2" fill="none" />
<path d="M862.0544747081713,857.4163424124515 L862.0544747081713,820.3112840466927" stroke="red" stroke-width="2" fill="none" />
<path d="M1084.684824902724,671.8910505836577 L1089.3229571984436,671.8910505836577" stroke="red" stroke-width="2" fill="none" />
<path d="M1089.3229571984436,671.8910505836577 L1089.3229571984436,681.1673151750974" stroke="red" stroke-width="2" fill="none" />
<path d="M1089.3229571984436,681.1673151750974 L1084.684824902724,681.1673151750974" stroke="red" stroke-width="2" fill="none" />
<path d="M1084.684824902724,681.1673151750974 L1084.684824902724,746.1011673151752" stroke="red" stroke-width="2" fill="none" />
<path d="M1084.684824902724,746.1011673151752 L1089.3229571984436,746.1011673151752" stroke="red" stroke-width="2" fill="none" />
<path d="M1089.3229571984436,746.1011673151752 L1089.3229571984436,755.3774319066149" stroke="red" stroke-width="2" fill="none" />
<path d="M1089.3229571984436,755.3774319066149 L1084.684824902724,755.3774319066149" stroke="red" stroke-width="2" fill="none" />
<path d="M1084.684824902724,755.3774319066149 L1084.684824902724,820.3112840466927" stroke="red" stroke-width="2" fill="none" />
<path d="M1084.684824902724,820.3112840466927 L1047.579766536965,820.3112840466927" stroke="red" stroke-width="2" fill="none" />
<path d="M1047.579766536965,820.3112840466927 L1047.579766536965,824.9494163424126" stroke="red" stroke-width="2" fill="none" />
<path d="M1047.579766536965,824.9494163424126 L1038.3035019455253,824.9494163424126" stroke="red" stroke-width="2" fill="none" />
<path d="M1038.3035019455253,824.9494163424126 L1038.3035019455253,820.3112840466927" stroke="red" stroke-width="2" fill="none" />
<path d="M973.3696498054476,820.3112840466927 L973.3696498054476,824.9494163424126" stroke="red" stroke-width="2" fill="none" />
<path d="M973.3696498054476,824.9494163424126 L964.0933852140079,824.9494163424126" stroke="red" stroke-width="2" fill="none" />
<path d="M964.0933852140079,824.9494163424126 L964.0933852140079,820.3112840466927" stroke="red" stroke-width="2" fill="none" />
<path d="M964.0933852140079,820.3112840466927 L936.2645914396888,820.3112840466927" stroke="red" stroke-width="2" fill="none" />
<path d="M1089.3229571984436,644.0622568093386 L1084.684824902724,644.0622568093386" stroke="red" stroke-width="2" fill="none" />
<path d="M1084.684824902724,644.0622568093386 L1084.684824902724,671.8910505836577" stroke="red" stroke-width="2" fill="none" />
<path d="M1084.684824902724,634.7859922178989 L1089.3229571984436,634.7859922178989" stroke="red" stroke-width="2" fill="none" />
<path d="M1089.3229571984436,634.7859922178989 L1089.3229571984436,644.0622568093386" stroke="red" stroke-width="2" fill="none" />
<path d="M1010.4747081712063,662.614785992218 L1010.4747081712063,644.0622568093386" stroke="red" stroke-width="2" fill="none" />
<path d="M1010.4747081712063,644.0622568093386 L1005.8365758754865,644.0622568093386" stroke="red" stroke-width="2" fill="none" />
<path d="M1005.8365758754865,644.0622568093386 L1005.8365758754865,634.7859922178989" stroke="red" stroke-width="2" fill="none" />
<path d="M1005.8365758754865,634.7859922178989 L1010.4747081712063,634.7859922178989" stroke="red" stroke-width="2" fill="none" />
<path d="M778.5680933852141,662.614785992218 L862.0544747081713,662.614785992218" stroke="red" stroke-width="2" fill="none" />
<path d="M899.1595330739301,662.614785992218 L1010.4747081712063,662.614785992218" stroke="red" stroke-width="2" fill="none" />
<path d="M862.0544747081713,662.614785992218 L862.0544747081713,657.9766536964981" stroke="red" stroke-width="2" fill="none" />
<path d="M899.1595330739301,657.9766536964981 L899.1595330739301,662.614785992218" stroke="red" stroke-width="2" fill="none" />
<path d="M862.0544747081713,657.9766536964981 L862.0544747081713,653.3385214007783" stroke="red" stroke-width="2" fill="none" />
<path d="M899.1595330739301,653.3385214007783 L899.1595330739301,657.9766536964981" stroke="red" stroke-width="2" fill="none" />
<path d="M908.4357976653698,653.3385214007783 L899.1595330739301,653.3385214007783" stroke="red" stroke-width="2" fill="none" />
<path d="M862.0544747081713,653.3385214007783 L787.8443579766538,653.3385214007783" stroke="red" stroke-width="2" fill="none" />
<path d="M787.8443579766538,653.3385214007783 L787.8443579766538,606.9571984435798" stroke="red" stroke-width="2" fill="none" />
<path d="M908.4357976653698,606.9571984435798 L908.4357976653698,653.3385214007783" stroke="red" stroke-width="2" fill="none" />
<path d="M787.8443579766538,606.9571984435798 L824.9494163424126,606.9571984435798" stroke="red" stroke-width="2" fill="none" />
<path d="M824.9494163424126,606.9571984435798 L824.9494163424126,602.31906614786" stroke="red" stroke-width="2" fill="none" />
<path d="M862.0544747081713,602.31906614786 L862.0544747081713,606.9571984435798" stroke="red" stroke-width="2" fill="none" />
<path d="M862.0544747081713,606.9571984435798 L908.4357976653698,606.9571984435798" stroke="red" stroke-width="2" fill="none" />
<path d="M899.1595330739301,597.6809338521401 L862.0544747081713,597.6809338521401" stroke="red" stroke-width="2" fill="none" />
<path d="M824.9494163424126,597.6809338521401 L750.739299610895,597.6809338521401" stroke="red" stroke-width="2" fill="none" />
<path d="M862.0544747081713,597.6809338521401 L862.0544747081713,602.31906614786" stroke="red" stroke-width="2" fill="none" />
<path d="M824.9494163424126,602.31906614786 L824.9494163424126,597.6809338521401" stroke="red" stroke-width="2" fill="none" />
<path d="M922.3501945525293,945.5408560311286 L713.6342412451363,945.5408560311286" stroke="red" stroke-width="2" fill="none" />
<path d="M936.2645914396888,931.626459143969 L940.9027237354087,936.2645914396888" stroke="red" stroke-width="2" fill="none" />
<path d="M940.9027237354087,936.2645914396888 L926.9883268482491,950.1789883268484" stroke="red" stroke-width="2" fill="none" />
<path d="M926.9883268482491,950.1789883268484 L922.3501945525293,945.5408560311286" stroke="red" stroke-width="2" fill="none" />
<path d="M843.501945525292,875.9688715953308 L862.0544747081713,857.4163424124515" stroke="red" stroke-width="2" fill="none" />
<path d="M602.31906614786,866.6926070038912 L565.2140077821012,866.6926070038912" stroke="red" stroke-width="2" fill="none" />
<path d="M769.2918287937744,866.6926070038912 L750.739299610895,866.6926070038912" stroke="red" stroke-width="2" fill="none" />
<path d="M602.31906614786,875.9688715953308 L602.31906614786,866.6926070038912" stroke="red" stroke-width="2" fill="none" />
<path d="M565.2140077821012,875.9688715953308 L602.31906614786,875.9688715953308" stroke="red" stroke-width="2" fill="none" />
<path d="M750.739299610895,875.9688715953308 L843.501945525292,875.9688715953308" stroke="red" stroke-width="2" fill="none" />
<path d="M750.739299610895,866.6926070038912 L750.739299610895,875.9688715953308" stroke="red" stroke-width="2" fill="none" />
<path d="M565.2140077821012,866.6926070038912 L565.2140077821012,857.4163424124515" stroke="red" stroke-width="2" fill="none" />
<path d="M565.2140077821012,857.4163424124515 L560.5758754863814,857.4163424124515" stroke="red" stroke-width="2" fill="none" />
<path d="M560.5758754863814,857.4163424124515 L560.5758754863814,820.3112840466927" stroke="red" stroke-width="2" fill="none" />
<path d="M560.5758754863814,820.3112840466927 L565.2140077821012,820.3112840466927" stroke="red" stroke-width="2" fill="none" />
<path d="M565.2140077821012,820.3112840466927 L565.2140077821012,783.206225680934" stroke="red" stroke-width="2" fill="none" />
<path d="M565.2140077821012,783.206225680934 L560.5758754863814,783.206225680934" stroke="red" stroke-width="2" fill="none" />
<path d="M560.5758754863814,783.206225680934 L560.5758754863814,746.1011673151752" stroke="red" stroke-width="2" fill="none" />
<path d="M560.5758754863814,746.1011673151752 L565.2140077821012,746.1011673151752" stroke="red" stroke-width="2" fill="none" />
<path d="M690.4435797665371,263.7354085603114 L699.7198443579767,263.7354085603114" stroke="red" stroke-width="2" fill="none" />
<path d="M699.7198443579767,263.7354085603114 L699.7198443579767,249.82101167315182" stroke="red" stroke-width="2" fill="none" />
<path d="M685.8054474708172,263.7354085603114 L690.4435797665371,263.7354085603114" stroke="red" stroke-width="2" fill="none" />
<path d="M690.4435797665371,412.15564202334633 L685.8054474708172,412.15564202334633" stroke="red" stroke-width="2" fill="none" />
<path d="M699.7198443579767,249.82101167315182 L787.8443579766538,249.82101167315182" stroke="red" stroke-width="2" fill="none" />
<path d="M787.8443579766538,249.82101167315182 L787.8443579766538,375.0505836575876" stroke="red" stroke-width="2" fill="none" />
<path d="M699.7198443579767,421.43190661478604 L699.7198443579767,412.15564202334633" stroke="red" stroke-width="2" fill="none" />
<path d="M699.7198443579767,412.15564202334633 L690.4435797665371,412.15564202334633" stroke="red" stroke-width="2" fill="none" />
<path d="M695.0817120622569,491.0038910505838 L695.0817120622569,486.3657587548639" stroke="red" stroke-width="2" fill="none" />
<path d="M862.0544747081713,486.3657587548639 L862.0544747081713,491.0038910505838" stroke="red" stroke-width="2" fill="none" />
<path d="M695.0817120622569,486.3657587548639 L695.0817120622569,477.0894941634242" stroke="red" stroke-width="2" fill="none" />
<path d="M862.0544747081713,477.0894941634242 L862.0544747081713,486.3657587548639" stroke="red" stroke-width="2" fill="none" />
<path d="M695.0817120622569,477.0894941634242 L685.8054474708172,477.0894941634242" stroke="red" stroke-width="2" fill="none" />
<path d="M685.8054474708172,477.0894941634242 L685.8054474708172,426.0700389105059" stroke="red" stroke-width="2" fill="none" />
<path d="M685.8054474708172,426.0700389105059 L801.7587548638134,426.0700389105059" stroke="red" stroke-width="2" fill="none" />
<path d="M936.2645914396888,426.0700389105059 L936.2645914396888,477.0894941634242" stroke="red" stroke-width="2" fill="none" />
<path d="M787.8443579766538,375.0505836575876 L792.4824902723736,375.0505836575876" stroke="red" stroke-width="2" fill="none" />
<path d="M792.4824902723736,375.0505836575876 L797.1206225680935,375.0505836575876" stroke="red" stroke-width="2" fill="none" />
<path d="M797.1206225680935,375.0505836575876 L862.0544747081713,375.0505836575876" stroke="red" stroke-width="2" fill="none" />
<path d="M801.7587548638134,426.0700389105059 L801.7587548638134,412.15564202334633" stroke="red" stroke-width="2" fill="none" />
<path d="M801.7587548638134,412.15564202334633 L797.1206225680935,412.15564202334633" stroke="red" stroke-width="2" fill="none" />
<path d="M797.1206225680935,412.15564202334633 L792.4824902723736,412.15564202334633" stroke="red" stroke-width="2" fill="none" />
<path d="M792.4824902723736,412.15564202334633 L787.8443579766538,412.15564202334633" stroke="red" stroke-width="2" fill="none" />
<path d="M862.0544747081713,426.0700389105059 L936.2645914396888,426.0700389105059" stroke="red" stroke-width="2" fill="none" />
<path d="M862.0544747081713,375.0505836575876 L862.0544747081713,426.0700389105059" stroke="red" stroke-width="2" fill="none" />
<path d="M787.8443579766538,421.43190661478604 L699.7198443579767,421.43190661478604" stroke="red" stroke-width="2" fill="none" />
<path d="M787.8443579766538,412.15564202334633 L787.8443579766538,421.43190661478604" stroke="red" stroke-width="2" fill="none" />
<path d="M936.2645914396888,477.0894941634242 L936.2645914396888,495.64202334630363" stroke="red" stroke-width="2" fill="none" />
<path d="M936.2645914396888,495.64202334630363 L936.2645914396888,500.2801556420235" stroke="red" stroke-width="2" fill="none" />
<path d="M899.1595330739301,500.2801556420235 L899.1595330739301,495.64202334630363" stroke="red" stroke-width="2" fill="none" />
<path d="M899.1595330739301,495.64202334630363 L899.1595330739301,477.0894941634242" stroke="red" stroke-width="2" fill="none" />
<path d="M899.1595330739301,477.0894941634242 L862.0544747081713,477.0894941634242" stroke="red" stroke-width="2" fill="none" />
<path d="M862.0544747081713,500.2801556420235 L899.1595330739301,500.2801556420235" stroke="red" stroke-width="2" fill="none" />
<path d="M936.2645914396888,500.2801556420235 L940.9027237354087,500.2801556420235" stroke="red" stroke-width="2" fill="none" />
<path d="M565.2140077821012,945.5408560311286 L565.2140077821012,875.9688715953308" stroke="red" stroke-width="2" fill="none" />
<path d="M639.4241245136187,945.5408560311286 L565.2140077821012,945.5408560311286" stroke="red" stroke-width="2" fill="none" />
<path d="M639.4241245136187,968.7315175097277 L639.4241245136187,945.5408560311286" stroke="red" stroke-width="2" fill="none" />
<path d="M713.6342412451363,945.5408560311286 L713.6342412451363,968.7315175097277" stroke="red" stroke-width="2" fill="none" />
<path d="M713.6342412451363,968.7315175097277 L685.8054474708172,968.7315175097277" stroke="red" stroke-width="2" fill="none" />
<path d="M667.2529182879379,968.7315175097277 L639.4241245136187,968.7315175097277" stroke="red" stroke-width="2" fill="none" />
<path d="M685.8054474708172,968.7315175097277 L667.2529182879379,968.7315175097277" stroke="red" stroke-width="2" fill="none" />
<path d="M565.2140077821012,746.1011673151752 L565.2140077821012,695.0817120622569" stroke="red" stroke-width="2" fill="none" />
<path d="M769.2918287937744,806.3968871595332 L769.2918287937744,820.3112840466927" stroke="red" stroke-width="2" fill="none" />
<path d="M769.2918287937744,820.3112840466927 L773.9299610894943,820.3112840466927" stroke="red" stroke-width="2" fill="none" />
<path d="M773.9299610894943,857.4163424124515 L769.2918287937744,857.4163424124515" stroke="red" stroke-width="2" fill="none" />
<path d="M769.2918287937744,857.4163424124515 L769.2918287937744,866.6926070038912" stroke="red" stroke-width="2" fill="none" />
<path d="M773.9299610894943,820.3112840466927 L773.9299610894943,857.4163424124515" stroke="lavender" stroke-width="2" fill="none" />
<path d="M1038.3035019455253,820.3112840466927 L1029.0272373540856,820.3112840466927" stroke="red" stroke-width="2" fill="none" />
<path d="M1029.0272373540856,820.3112840466927 L1029.0272373540856,824.9494163424126" stroke="red" stroke-width="2" fill="none" />
<path d="M1029.0272373540856,824.9494163424126 L1033.6653696498056,824.9494163424126" stroke="red" stroke-width="2" fill="none" />
<path d="M1033.6653696498056,824.9494163424126 L1033.6653696498056,894.5214007782102" stroke="red" stroke-width="2" fill="none" />
<path d="M1033.6653696498056,894.5214007782102 L978.0077821011674,894.5214007782102" stroke="red" stroke-width="2" fill="none" />
<path d="M978.0077821011674,894.5214007782102 L978.0077821011674,824.9494163424126" stroke="red" stroke-width="2" fill="none" />
<path d="M978.0077821011674,824.9494163424126 L982.6459143968873,824.9494163424126" stroke="red" stroke-width="2" fill="none" />
<path d="M982.6459143968873,824.9494163424126 L982.6459143968873,820.3112840466927" stroke="red" stroke-width="2" fill="none" />
<path d="M982.6459143968873,820.3112840466927 L973.3696498054476,820.3112840466927" stroke="red" stroke-width="2" fill="none" />
<path d="M565.2140077821012,226.63035019455265 L602.31906614786,226.63035019455265" stroke="red" stroke-width="2" fill="none" />
<path d="M602.31906614786,226.63035019455265 L602.31906614786,203.43968871595337" stroke="red" stroke-width="2" fill="none" />
<path d="M639.4241245136187,203.43968871595337 L639.4241245136187,226.63035019455265" stroke="red" stroke-width="2" fill="none" />
<path d="M639.4241245136187,226.63035019455265 L676.5291828793775,226.63035019455265" stroke="red" stroke-width="2" fill="none" />
<path d="M602.31906614786,203.43968871595337 L602.31906614786,198.8015564202335" stroke="red" stroke-width="2" fill="none" />
<path d="M639.4241245136187,198.8015564202335 L639.4241245136187,203.43968871595337" stroke="red" stroke-width="2" fill="none" />
<path d="M602.31906614786,198.8015564202335 L602.31906614786,189.5252918287938" stroke="red" stroke-width="2" fill="none" />
<path d="M639.4241245136187,189.5252918287938 L639.4241245136187,198.8015564202335" stroke="red" stroke-width="2" fill="none" />
<path d="M602.31906614786,189.5252918287938 L565.2140077821012,189.5252918287938" stroke="red" stroke-width="2" fill="none" />
<path d="M565.2140077821012,189.5252918287938 L565.2140077821012,115.31517509727632" stroke="red" stroke-width="2" fill="none" />
<path d="M676.5291828793775,115.31517509727632 L676.5291828793775,189.5252918287938" stroke="red" stroke-width="2" fill="none" />
<path d="M676.5291828793775,189.5252918287938 L639.4241245136187,189.5252918287938" stroke="red" stroke-width="2" fill="none" />
<path d="M542.0233463035021,337.94552529182886 L551.2996108949417,337.94552529182886" stroke="red" stroke-width="2" fill="none" />
<path d="M551.2996108949417,375.0505836575876 L542.0233463035021,375.0505836575876" stroke="red" stroke-width="2" fill="none" />
<path d="M477.0894941634242,337.94552529182886 L542.0233463035021,337.94552529182886" stroke="red" stroke-width="2" fill="none" />
<path d="M542.0233463035021,375.0505836575876 L477.0894941634242,375.0505836575876" stroke="red" stroke-width="2" fill="none" />
<path d="M477.0894941634242,375.0505836575876 L467.8132295719845,375.0505836575876" stroke="red" stroke-width="2" fill="none" />
<path d="M467.8132295719845,337.94552529182886 L477.0894941634242,337.94552529182886" stroke="red" stroke-width="2" fill="none" />
<path d="M463.17509727626464,375.0505836575876 L453.8988326848249,375.0505836575876" stroke="red" stroke-width="2" fill="none" />
<path d="M453.8988326848249,375.0505836575876 L453.8988326848249,449.2607003891052" stroke="red" stroke-width="2" fill="none" />
<path d="M453.8988326848249,263.7354085603114 L453.8988326848249,337.94552529182886" stroke="red" stroke-width="2" fill="none" />
<path d="M453.8988326848249,337.94552529182886 L463.17509727626464,337.94552529182886" stroke="red" stroke-width="2" fill="none" />
<path d="M565.2140077821012,115.31517509727632 L602.31906614786,115.31517509727632" stroke="red" stroke-width="2" fill="none" />
<path d="M602.31906614786,115.31517509727632 L602.31906614786,106.03891050583661" stroke="red" stroke-width="2" fill="none" />
<path d="M602.31906614786,106.03891050583661 L639.4241245136187,106.03891050583661" stroke="red" stroke-width="2" fill="none" />
<path d="M639.4241245136187,106.03891050583661 L639.4241245136187,115.31517509727632" stroke="red" stroke-width="2" fill="none" />
<path d="M639.4241245136187,115.31517509727632 L676.5291828793775,115.31517509727632" stroke="red" stroke-width="2" fill="none" />
<path d="M1010.4747081712063,504.91828793774323 L1019.750972762646,504.91828793774323" stroke="red" stroke-width="2" fill="none" />
<path d="M1056.8560311284048,504.91828793774323 L1066.1322957198445,504.91828793774323" stroke="red" stroke-width="2" fill="none" />
<path d="M1019.750972762646,504.91828793774323 L1019.750972762646,500.2801556420235" stroke="red" stroke-width="2" fill="none" />
<path d="M1019.750972762646,500.2801556420235 L1010.4747081712063,500.2801556420235" stroke="red" stroke-width="2" fill="none" />
<path d="M1066.1322957198445,500.2801556420235 L1056.8560311284048,500.2801556420235" stroke="red" stroke-width="2" fill="none" />
<path d="M1056.8560311284048,500.2801556420235 L1056.8560311284048,504.91828793774323" stroke="red" stroke-width="2" fill="none" />
<path d="M1010.4747081712063,477.0894941634242 L1005.8365758754865,477.0894941634242" stroke="red" stroke-width="2" fill="none" />
<path d="M1005.8365758754865,477.0894941634242 L1005.8365758754865,467.8132295719845" stroke="red" stroke-width="2" fill="none" />
<path d="M1005.8365758754865,467.8132295719845 L1010.4747081712063,467.8132295719845" stroke="red" stroke-width="2" fill="none" />
<path d="M1066.1322957198445,486.3657587548639 L1066.1322957198445,500.2801556420235" stroke="red" stroke-width="2" fill="none" />
<path d="M1121.7898832684825,477.0894941634242 L1121.7898832684825,486.3657587548639" stroke="red" stroke-width="2" fill="none" />
<path d="M1126.4280155642025,467.8132295719845 L1126.4280155642025,477.0894941634242" stroke="red" stroke-width="2" fill="none" />
<path d="M1126.4280155642025,477.0894941634242 L1121.7898832684825,477.0894941634242" stroke="red" stroke-width="2" fill="none" />
<path d="M1121.7898832684825,467.8132295719845 L1126.4280155642025,467.8132295719845" stroke="red" stroke-width="2" fill="none" />
<path d="M1066.1322957198445,504.91828793774323 L1066.1322957198445,523.4708171206227" stroke="red" stroke-width="2" fill="none" />
<path d="M1066.1322957198445,523.4708171206227 L1084.684824902724,523.4708171206227" stroke="red" stroke-width="2" fill="none" />
<path d="M1084.684824902724,263.7354085603114 L1121.7898832684825,337.94552529182886" stroke="red" stroke-width="2" fill="none" />
<path d="M1010.4747081712063,356.4980544747083 L991.922178988327,337.94552529182886" stroke="red" stroke-width="2" fill="none" />
<path d="M899.1595330739301,337.94552529182886 L824.9494163424126,300.8404669260701" stroke="red" stroke-width="2" fill="none" />
<path d="M824.9494163424126,300.8404669260701 L787.8443579766538,226.63035019455265" stroke="red" stroke-width="2" fill="none" />
<path d="M899.1595330739301,115.31517509727632 L899.1595330739301,208.07782101167322" stroke="red" stroke-width="2" fill="none" />
<path d="M899.1595330739301,208.07782101167322 L917.7120622568094,226.63035019455265" stroke="red" stroke-width="2" fill="none" />
<path d="M991.922178988327,337.94552529182886 L973.3696498054476,337.94552529182886" stroke="red" stroke-width="2" fill="none" />
<path d="M1010.4747081712063,500.2801556420235 L1010.4747081712063,477.0894941634242" stroke="red" stroke-width="2" fill="none" />
<path d="M1121.7898832684825,337.94552529182886 L1121.7898832684825,347.22178988326857" stroke="red" stroke-width="2" fill="none" />
<path d="M1121.7898832684825,347.22178988326857 L1126.4280155642025,347.22178988326857" stroke="red" stroke-width="2" fill="none" />
<path d="M1126.4280155642025,347.22178988326857 L1126.4280155642025,356.4980544747083" stroke="red" stroke-width="2" fill="none" />
<path d="M1126.4280155642025,356.4980544747083 L1121.7898832684825,356.4980544747083" stroke="red" stroke-width="2" fill="none" />
<path d="M1121.7898832684825,356.4980544747083 L1121.7898832684825,384.3268482490273" stroke="red" stroke-width="2" fill="none" />
<path d="M1121.7898832684825,384.3268482490273 L1126.4280155642025,384.3268482490273" stroke="red" stroke-width="2" fill="none" />
<path d="M1126.4280155642025,384.3268482490273 L1126.4280155642025,393.603112840467" stroke="red" stroke-width="2" fill="none" />
<path d="M1126.4280155642025,393.603112840467 L1121.7898832684825,393.603112840467" stroke="red" stroke-width="2" fill="none" />
<path d="M1121.7898832684825,393.603112840467 L1121.7898832684825,421.43190661478604" stroke="red" stroke-width="2" fill="none" />
<path d="M1121.7898832684825,421.43190661478604 L1126.4280155642025,421.43190661478604" stroke="red" stroke-width="2" fill="none" />
<path d="M1126.4280155642025,421.43190661478604 L1126.4280155642025,430.70817120622576" stroke="red" stroke-width="2" fill="none" />
<path d="M1126.4280155642025,430.70817120622576 L1121.7898832684825,430.70817120622576" stroke="red" stroke-width="2" fill="none" />
<path d="M1121.7898832684825,430.70817120622576 L1121.7898832684825,467.8132295719845" stroke="red" stroke-width="2" fill="none" />
<path d="M1010.4747081712063,467.8132295719845 L1010.4747081712063,430.70817120622576" stroke="red" stroke-width="2" fill="none" />
<path d="M1010.4747081712063,430.70817120622576 L1005.8365758754865,430.70817120622576" stroke="red" stroke-width="2" fill="none" />
<path d="M1005.8365758754865,430.70817120622576 L1005.8365758754865,421.43190661478604" stroke="red" stroke-width="2" fill="none" />
<path d="M1005.8365758754865,421.43190661478604 L1010.4747081712063,421.43190661478604" stroke="red" stroke-width="2" fill="none" />
<path d="M1010.4747081712063,421.43190661478604 L1010.4747081712063,393.603112840467" stroke="red" stroke-width="2" fill="none" />
<path d="M1010.4747081712063,393.603112840467 L1005.8365758754865,393.603112840467" stroke="red" stroke-width="2" fill="none" />
<path d="M1005.8365758754865,393.603112840467 L1005.8365758754865,384.3268482490273" stroke="red" stroke-width="2" fill="none" />
<path d="M1005.8365758754865,384.3268482490273 L1010.4747081712063,384.3268482490273" stroke="red" stroke-width="2" fill="none" />
<path d="M1010.4747081712063,384.3268482490273 L1010.4747081712063,356.4980544747083" stroke="red" stroke-width="2" fill="none" />
<path d="M973.3696498054476,337.94552529182886 L973.3696498054476,342.5836575875487" stroke="red" stroke-width="2" fill="none" />
<path d="M973.3696498054476,342.5836575875487 L964.0933852140079,342.5836575875487" stroke="red" stroke-width="2" fill="none" />
<path d="M964.0933852140079,342.5836575875487 L964.0933852140079,337.94552529182886" stroke="red" stroke-width="2" fill="none" />
<path d="M964.0933852140079,337.94552529182886 L926.9883268482491,337.94552529182886" stroke="red" stroke-width="2" fill="none" />
<path d="M926.9883268482491,337.94552529182886 L926.9883268482491,342.5836575875487" stroke="red" stroke-width="2" fill="none" />
<path d="M926.9883268482491,342.5836575875487 L917.7120622568094,342.5836575875487" stroke="red" stroke-width="2" fill="none" />
<path d="M917.7120622568094,342.5836575875487 L917.7120622568094,337.94552529182886" stroke="red" stroke-width="2" fill="none" />
<path d="M917.7120622568094,337.94552529182886 L899.1595330739301,337.94552529182886" stroke="red" stroke-width="2" fill="none" />
<path d="M917.7120622568094,226.63035019455265 L936.2645914396888,226.63035019455265" stroke="red" stroke-width="2" fill="none" />
<path d="M936.2645914396888,226.63035019455265 L936.2645914396888,221.9922178988328" stroke="red" stroke-width="2" fill="none" />
<path d="M936.2645914396888,221.9922178988328 L945.5408560311286,221.9922178988328" stroke="red" stroke-width="2" fill="none" />
<path d="M945.5408560311286,221.9922178988328 L945.5408560311286,226.63035019455265" stroke="red" stroke-width="2" fill="none" />
<path d="M945.5408560311286,226.63035019455265 L1001.1984435797667,245.18287937743196" stroke="red" stroke-width="2" fill="none" />
<path d="M787.8443579766538,226.63035019455265 L787.8443579766538,198.8015564202335" stroke="red" stroke-width="2" fill="none" />
<path d="M787.8443579766538,198.8015564202335 L783.2062256809339,198.8015564202335" stroke="red" stroke-width="2" fill="none" />
<path d="M783.2062256809339,198.8015564202335 L783.2062256809339,189.5252918287938" stroke="red" stroke-width="2" fill="none" />
<path d="M783.2062256809339,189.5252918287938 L787.8443579766538,189.5252918287938" stroke="red" stroke-width="2" fill="none" />
<path d="M787.8443579766538,189.5252918287938 L787.8443579766538,161.69649805447477" stroke="red" stroke-width="2" fill="none" />
<path d="M787.8443579766538,161.69649805447477 L783.2062256809339,161.69649805447477" stroke="red" stroke-width="2" fill="none" />
<path d="M783.2062256809339,161.69649805447477 L783.2062256809339,152.42023346303506" stroke="red" stroke-width="2" fill="none" />
<path d="M783.2062256809339,152.42023346303506 L787.8443579766538,152.42023346303506" stroke="red" stroke-width="2" fill="none" />
<path d="M787.8443579766538,152.42023346303506 L787.8443579766538,115.31517509727632" stroke="red" stroke-width="2" fill="none" />
<path d="M1061.4941634241247,245.18287937743196 L1084.684824902724,263.7354085603114" stroke="red" stroke-width="2" fill="none" />
<path d="M1001.1984435797667,245.18287937743196 L1033.6653696498056,245.18287937743196" stroke="red" stroke-width="2" fill="none" />
<path d="M1033.6653696498056,245.18287937743196 L1033.6653696498056,226.63035019455265" stroke="red" stroke-width="2" fill="none" />
<path d="M1061.4941634241247,226.63035019455265 L1061.4941634241247,245.18287937743196" stroke="red" stroke-width="2" fill="none" />
<path d="M787.8443579766538,115.31517509727632 L824.9494163424126,115.31517509727632" stroke="red" stroke-width="2" fill="none" />
<path d="M824.9494163424126,115.31517509727632 L824.9494163424126,106.03891050583661" stroke="red" stroke-width="2" fill="none" />
<path d="M862.0544747081713,106.03891050583661 L862.0544747081713,115.31517509727632" stroke="red" stroke-width="2" fill="none" />
<path d="M862.0544747081713,115.31517509727632 L899.1595330739301,115.31517509727632" stroke="red" stroke-width="2" fill="none" />
<path d="M824.9494163424126,106.03891050583661 L824.9494163424126,101.40077821011675" stroke="red" stroke-width="2" fill="none" />
<path d="M862.0544747081713,101.40077821011675 L862.0544747081713,106.03891050583661" stroke="red" stroke-width="2" fill="none" />
<path d="M824.9494163424126,101.40077821011675 L824.9494163424126,92.12451361867716" stroke="red" stroke-width="2" fill="none" />
<path d="M824.9494163424126,92.12451361867716 L787.8443579766538,92.12451361867716" stroke="red" stroke-width="2" fill="none" />
<path d="M1033.6653696498056,226.63035019455265 L1010.4747081712063,226.63035019455265" stroke="red" stroke-width="2" fill="none" />
<path d="M1010.4747081712063,189.5252918287938 L913.0739299610896,189.5252918287938" stroke="red" stroke-width="2" fill="none" />
<path d="M913.0739299610896,189.5252918287938 L913.0739299610896,92.12451361867716" stroke="red" stroke-width="2" fill="none" />
<path d="M913.0739299610896,92.12451361867716 L862.0544747081713,92.12451361867716" stroke="red" stroke-width="2" fill="none" />
<path d="M862.0544747081713,92.12451361867716 L862.0544747081713,101.40077821011675" stroke="red" stroke-width="2" fill="none" />
<path d="M787.8443579766538,4.0 L913.0739299610896,4.0" stroke="red" stroke-width="2" fill="none" />
<path d="M1196.0000000000002,226.63035019455265 L1158.8949416342414,226.63035019455265" stroke="red" stroke-width="2" fill="none" />
<path d="M1158.8949416342414,226.63035019455265 L1061.4941634241247,226.63035019455265" stroke="red" stroke-width="2" fill="none" />
<path d="M787.8443579766538,31.828793774319138 L787.8443579766538,4.0" stroke="red" stroke-width="2" fill="none" />
<path d="M787.8443579766538,92.12451361867716 L787.8443579766538,68.93385214007776" stroke="red" stroke-width="2" fill="none" />
<path d="M787.8443579766538,68.93385214007776 L783.2062256809339,68.93385214007776" stroke="red" stroke-width="2" fill="none" />
<path d="M783.2062256809339,68.93385214007776 L783.2062256809339,31.828793774319138" stroke="lavender" stroke-width="2" fill="none" />
<path d="M783.2062256809339,31.828793774319138 L787.8443579766538,31.828793774319138" stroke="red" stroke-width="2" fill="none" />
<path d="M913.0739299610896,4.0 L936.2645914396888,4.0" stroke="red" stroke-width="2" fill="none" />
<path d="M936.2645914396888,4.0 L973.3696498054476,4.0" stroke="red" stroke-width="2" fill="none" />
<path d="M973.3696498054476,4.0 L1010.4747081712063,4.0" stroke="red" stroke-width="2" fill="none" />
<path d="M1010.4747081712063,4.0 L1047.579766536965,4.0" stroke="red" stroke-width="2" fill="none" />
<path d="M1047.579766536965,4.0 L1121.7898832684825,4.0" stroke="red" stroke-width="2" fill="none" />
<path d="M1121.7898832684825,4.0 L1196.0000000000002,4.0" stroke="red" stroke-width="2" fill="none" />
<path d="M1196.0000000000002,4.0 L1196.0000000000002,41.10505836575885" stroke="red" stroke-width="2" fill="none" />
<path d="M1196.0000000000002,41.10505836575885 L1196.0000000000002,78.21011673151747" stroke="red" stroke-width="2" fill="none" />
<path d="M1196.0000000000002,78.21011673151747 L1196.0000000000002,115.31517509727632" stroke="red" stroke-width="2" fill="none" />
<path d="M1196.0000000000002,115.31517509727632 L1196.0000000000002,152.42023346303506" stroke="red" stroke-width="2" fill="none" />
<path d="M1010.4747081712063,226.63035019455265 L1010.4747081712063,189.5252918287938" stroke="red" stroke-width="2" fill="none" />
<path d="M1196.0000000000002,189.5252918287938 L1196.0000000000002,226.63035019455265" stroke="red" stroke-width="2" fill="none" />
<path d="M1196.0000000000002,152.42023346303506 L1196.0000000000002,189.5252918287938" stroke="red" stroke-width="2" fill="none" />
<path d="M453.8988326848249,449.2607003891052 L416.7937743190662,449.2607003891052" stroke="red" stroke-width="2" fill="none" />
<path d="M416.7937743190662,263.7354085603114 L453.8988326848249,263.7354085603114" stroke="red" stroke-width="2" fill="none" />
<path d="M82.84824902723744,263.7354085603114 L119.95330739299607,263.7354085603114" stroke="red" stroke-width="2" fill="none" />
<path d="M119.95330739299607,449.2607003891052 L82.84824902723744,449.2607003891052" stroke="red" stroke-width="2" fill="none" />
<path d="M268.37354085603124,263.7354085603114 L268.37354085603124,189.5252918287938" stroke="red" stroke-width="2" fill="none" />
<path d="M379.68871595330745,189.5252918287938 L379.68871595330745,263.7354085603114" stroke="red" stroke-width="2" fill="none" />
<path d="M379.68871595330745,263.7354085603114 L416.7937743190662,263.7354085603114" stroke="red" stroke-width="2" fill="none" />
<path d="M314.7548638132296,189.5252918287938 L314.7548638132296,170.9727626459145" stroke="red" stroke-width="2" fill="none" />
<path d="M314.7548638132296,170.9727626459145 L333.307392996109,170.9727626459145" stroke="red" stroke-width="2" fill="none" />
<path d="M333.307392996109,170.9727626459145 L333.307392996109,189.5252918287938" stroke="red" stroke-width="2" fill="none" />
<path d="M268.37354085603124,449.2607003891052 L268.37354085603124,523.4708171206227" stroke="red" stroke-width="2" fill="none" />
<path d="M157.05836575875492,449.2607003891052 L119.95330739299607,449.2607003891052" stroke="red" stroke-width="2" fill="none" />
<path d="M221.9922178988328,523.4708171206227 L221.9922178988328,542.0233463035021" stroke="red" stroke-width="2" fill="none" />
<path d="M221.9922178988328,542.0233463035021 L203.43968871595337,542.0233463035021" stroke="red" stroke-width="2" fill="none" />
<path d="M203.43968871595337,542.0233463035021 L203.43968871595337,523.4708171206227" stroke="red" stroke-width="2" fill="none" />
<path d="M416.7937743190662,449.2607003891052 L402.87937743190673,449.2607003891052" stroke="red" stroke-width="2" fill="none" />
<path d="M402.87937743190673,449.2607003891052 L402.87937743190673,671.8910505836577" stroke="red" stroke-width="2" fill="none" />
<path d="M231.2684824902724,523.4708171206227 L221.9922178988328,523.4708171206227" stroke="red" stroke-width="2" fill="none" />
<path d="M268.37354085603124,597.6809338521401 L231.2684824902724,597.6809338521401" stroke="red" stroke-width="2" fill="none" />
<path d="M268.37354085603124,523.4708171206227 L268.37354085603124,528.1089494163425" stroke="red" stroke-width="2" fill="none" />
<path d="M268.37354085603124,528.1089494163425 L268.37354085603124,597.6809338521401" stroke="red" stroke-width="2" fill="none" />
<path d="M231.2684824902724,597.6809338521401 L231.2684824902724,528.1089494163425" stroke="red" stroke-width="2" fill="none" />
<path d="M231.2684824902724,528.1089494163425 L231.2684824902724,523.4708171206227" stroke="red" stroke-width="2" fill="none" />
<path d="M203.43968871595337,523.4708171206227 L194.16342412451365,523.4708171206227" stroke="red" stroke-width="2" fill="none" />
<path d="M194.16342412451365,523.4708171206227 L194.16342412451365,528.1089494163425" stroke="red" stroke-width="2" fill="none" />
<path d="M194.16342412451365,528.1089494163425 L194.16342412451365,597.6809338521401" stroke="red" stroke-width="2" fill="none" />
<path d="M157.05836575875492,597.6809338521401 L157.05836575875492,528.1089494163425" stroke="red" stroke-width="2" fill="none" />
<path d="M157.05836575875492,528.1089494163425 L157.05836575875492,523.4708171206227" stroke="red" stroke-width="2" fill="none" />
<path d="M333.307392996109,189.5252918287938 L342.5836575875487,189.5252918287938" stroke="red" stroke-width="2" fill="none" />
<path d="M342.5836575875487,189.5252918287938 L342.5836575875487,184.88715953307394" stroke="red" stroke-width="2" fill="none" />
<path d="M342.5836575875487,184.88715953307394 L342.5836575875487,115.31517509727632" stroke="red" stroke-width="2" fill="none" />
<path d="M379.68871595330745,115.31517509727632 L379.68871595330745,184.88715953307394" stroke="red" stroke-width="2" fill="none" />
<path d="M379.68871595330745,184.88715953307394 L379.68871595330745,189.5252918287938" stroke="red" stroke-width="2" fill="none" />
<path d="M305.47859922179,189.5252918287938 L314.7548638132296,189.5252918287938" stroke="red" stroke-width="2" fill="none" />
<path d="M268.37354085603124,189.5252918287938 L268.37354085603124,184.88715953307394" stroke="red" stroke-width="2" fill="none" />
<path d="M268.37354085603124,184.88715953307394 L268.37354085603124,115.31517509727632" stroke="red" stroke-width="2" fill="none" />
<path d="M268.37354085603124,115.31517509727632 L305.47859922179,115.31517509727632" stroke="red" stroke-width="2" fill="none" />
<path d="M305.47859922179,115.31517509727632 L305.47859922179,184.88715953307394" stroke="red" stroke-width="2" fill="none" />
<path d="M305.47859922179,184.88715953307394 L305.47859922179,189.5252918287938" stroke="red" stroke-width="2" fill="none" />
<path d="M342.5836575875487,634.7859922178989 L342.5836575875487,449.2607003891052" stroke="red" stroke-width="2" fill="none" />
<path d="M305.47859922179,671.8910505836577 L268.37354085603124,671.8910505836577" stroke="red" stroke-width="2" fill="none" />
<path d="M268.37354085603124,671.8910505836577 L268.37354085603124,634.7859922178989" stroke="red" stroke-width="2" fill="none" />
<path d="M268.37354085603124,634.7859922178989 L305.47859922179,634.7859922178989" stroke="red" stroke-width="2" fill="none" />
<path d="M305.47859922179,634.7859922178989 L342.5836575875487,634.7859922178989" stroke="red" stroke-width="2" fill="none" />
<path d="M119.95330739299607,263.7354085603114 L143.14396887159535,263.7354085603114" stroke="red" stroke-width="2" fill="none" />
<path d="M143.14396887159535,263.7354085603114 L143.14396887159535,41.10505836575885" stroke="red" stroke-width="2" fill="none" />
<path d="M143.14396887159535,41.10505836575885 L231.2684824902724,41.10505836575885" stroke="red" stroke-width="2" fill="none" />
<path d="M231.2684824902724,41.10505836575885 L268.37354085603124,41.10505836575885" stroke="red" stroke-width="2" fill="none" />
<path d="M268.37354085603124,41.10505836575885 L268.37354085603124,78.21011673151747" stroke="red" stroke-width="2" fill="none" />
<path d="M268.37354085603124,78.21011673151747 L231.2684824902724,78.21011673151747" stroke="red" stroke-width="2" fill="none" />
<path d="M231.2684824902724,78.21011673151747 L194.16342412451365,78.21011673151747" stroke="red" stroke-width="2" fill="none" />
<path d="M194.16342412451365,78.21011673151747 L194.16342412451365,263.7354085603114" stroke="red" stroke-width="2" fill="none" />
<path d="M82.84824902723744,449.2607003891052 L82.84824902723744,375.0505836575876" stroke="red" stroke-width="2" fill="none" />
<path d="M82.84824902723744,375.0505836575876 L73.57198443579773,375.0505836575876" stroke="red" stroke-width="2" fill="none" />
<path d="M73.57198443579773,337.94552529182886 L82.84824902723744,337.94552529182886" stroke="red" stroke-width="2" fill="none" />
<path d="M82.84824902723744,337.94552529182886 L82.84824902723744,263.7354085603114" stroke="red" stroke-width="2" fill="none" />
<path d="M157.05836575875492,523.4708171206227 L157.05836575875492,509.5564202334631" stroke="red" stroke-width="2" fill="none" />
<path d="M157.05836575875492,472.45136186770435 L157.05836575875492,449.2607003891052" stroke="red" stroke-width="2" fill="none" />
<path d="M157.05836575875492,509.5564202334631 L152.42023346303506,509.5564202334631" stroke="red" stroke-width="2" fill="none" />
<path d="M152.42023346303506,509.5564202334631 L152.42023346303506,472.45136186770435" stroke="lavender" stroke-width="2" fill="none" />
<path d="M152.42023346303506,472.45136186770435 L157.05836575875492,472.45136186770435" stroke="red" stroke-width="2" fill="none" />
<path d="M402.87937743190673,671.8910505836577 L305.47859922179,671.8910505836577" stroke="red" stroke-width="2" fill="none" />
<path d="M342.5836575875487,449.2607003891052 L268.37354085603124,449.2607003891052" stroke="red" stroke-width="2" fill="none" />
<path d="M194.16342412451365,263.7354085603114 L268.37354085603124,263.7354085603114" stroke="red" stroke-width="2" fill="none" />
<path d="M342.5836575875487,115.31517509727632 L342.5836575875487,78.21011673151747" stroke="red" stroke-width="2" fill="none" />
<path d="M342.5836575875487,78.21011673151747 L379.68871595330745,78.21011673151747" stroke="red" stroke-width="2" fill="none" />
<path d="M379.68871595330745,78.21011673151747 L379.68871595330745,115.31517509727632" stroke="red" stroke-width="2" fill="none" />
<path d="M194.16342412451365,597.6809338521401 L194.16342412451365,634.7859922178989" stroke="red" stroke-width="2" fill="none" />
<path d="M194.16342412451365,634.7859922178989 L157.05836575875492,634.7859922178989" stroke="red" stroke-width="2" fill="none" />
<path d="M157.05836575875492,634.7859922178989 L157.05836575875492,597.6809338521401" stroke="red" stroke-width="2" fill="none" />
<path d="M73.57198443579773,375.0505836575876 L68.93385214007776,375.0505836575876" stroke="red" stroke-width="2" fill="none" />
<path d="M68.93385214007776,337.94552529182886 L73.57198443579773,337.94552529182886" stroke="red" stroke-width="2" fill="none" />
<path d="M68.93385214007776,375.0505836575876 L59.657587548638276,375.0505836575876" stroke="red" stroke-width="2" fill="none" />
<path d="M59.657587548638276,375.0505836575876 L59.657587548638276,393.603112840467" stroke="red" stroke-width="2" fill="none" />
<path d="M59.657587548638276,393.603112840467 L8.63813229571997,393.603112840467" stroke="red" stroke-width="2" fill="none" />
<path d="M8.63813229571997,393.603112840467 L8.63813229571997,375.0505836575876" stroke="red" stroke-width="2" fill="none" />
<path d="M8.63813229571997,375.0505836575876 L4.0,375.0505836575876" stroke="red" stroke-width="2" fill="none" />
<path d="M4.0,375.0505836575876 L4.0,337.94552529182886" stroke="lavender" stroke-width="2" fill="none" />
<path d="M4.0,337.94552529182886 L8.63813229571997,337.94552529182886" stroke="red" stroke-width="2" fill="none" />
<path d="M8.63813229571997,337.94552529182886 L8.63813229571997,319.39299610894943" stroke="red" stroke-width="2" fill="none" />
<path d="M8.63813229571997,319.39299610894943 L59.657587548638276,319.39299610894943" stroke="red" stroke-width="2" fill="none" />
<path d="M59.657587548638276,319.39299610894943 L59.657587548638276,337.94552529182886" stroke="red" stroke-width="2" fill="none" />
<path d="M59.657587548638276,337.94552529182886 L68.93385214007776,337.94552529182886" stroke="red" stroke-width="2" fill="none" />
<path d="M1121.7898832684825,486.3657587548639 L1112.5136186770428,486.3657587548639" stroke="red" stroke-width="2" fill="none" />
<path d="M1112.5136186770428,486.3657587548639 L1112.5136186770428,491.0038910505838" stroke="red" stroke-width="2" fill="none" />
<path d="M1075.4085603112842,491.0038910505838 L1075.4085603112842,486.3657587548639" stroke="red" stroke-width="2" fill="none" />
<path d="M1075.4085603112842,486.3657587548639 L1066.1322957198445,486.3657587548639" stroke="red" stroke-width="2" fill="none" />
<path d="M1112.5136186770428,491.0038910505838 L1075.4085603112842,491.0038910505838" stroke="lavender" stroke-width="2" fill="none" />
</svg>