<?xml version="1.0" encoding="UTF-8"?>
<svg xmlns="http://www.w3.org/2000/svg" xmlns:xlink="http://www.w3.org/1999/xlink"
     width="1200" height="1006" viewBox="0 0 1200 1006">
<defs>
</defs>
<path d="M938.2702702702703,422.8108108108108 L954.3783783783784,422.8108108108108" stroke="yellow" stroke-width="2" fill="none" />
<path d="M954.3783783783784,422.8108108108108 L970.4864864864866,422.8108108108108" stroke="yellow" stroke-width="2" fill="none" />
<path d="M970.4864864864866,422.8108108108108 L970.4864864864866,583.8918918918919" stroke="yellow" stroke-width="2" fill="none" />
<path d="M970.4864864864866,583.8918918918919 L954.3783783783784,583.8918918918919" stroke="yellow" stroke-width="2" fill="none" />
<path d="M954.3783783783784,583.8918918918919 L938.2702702702703,583.8918918918919" stroke="yellow" stroke-width="2" fill="none" />
<path d="M954.3783783783784,422.8108108108108 L954.3783783783784,583.8918918918919" stroke="yellow" stroke-width="2" fill="none" />
<path d="M938.2702702702703,422.8108108108108 L938.2702702702703,583.8918918918919" stroke="yellow" stroke-width="2" fill="none" />
<path d="M906.0540540540542,229.5135135135135 L906.0540540540542,390.5945945945946" stroke="yellow" stroke-width="2" fill="none" />
<path d="M906.0540540540542,616.1081081081081 L906.0540540540542,777.1891891891892" stroke="yellow" stroke-width="2" fill="none" />
<path d="M422.81081081081084,777.1891891891892 L422.81081081081084,616.1081081081081" stroke="yellow" stroke-width="2" fill="none" />
<path d="M390.5945945945947,583.8918918918919 L374.48648648648657,583.8918918918919" stroke="yellow" stroke-width="2" fill="none" />
<path d="M374.48648648648657,583.8918918918919 L358.37837837837844,583.8918918918919" stroke="yellow" stroke-width="2" fill="none" />
<path d="M358.37837837837844,583.8918918918919 L358.37837837837844,422.8108108108108" stroke="yellow" stroke-width="2" fill="none" />
<path d="M358.37837837837844,422.8108108108108 L374.48648648648657,422.8108108108108" stroke="yellow" stroke-width="2" fill="none" />
<path d="M374.48648648648657,422.8108108108108 L390.5945945945947,422.8108108108108" stroke="yellow" stroke-width="2" fill="none" />
<path d="M422.81081081081084,390.5945945945946 L422.81081081081084,229.5135135135135" stroke="yellow" stroke-width="2" fill="none" />
<path d="M374.48648648648657,583.8918918918919 L374.48648648648657,422.8108108108108" stroke="yellow" stroke-width="2" fill="none" />
<path d="M390.5945945945947,583.8918918918919 L390.5945945945947,422.8108108108108" stroke="yellow" stroke-width="2" fill="none" />
<path d="M906.0540540540542,777.1891891891892 L873.8378378378379,777.1891891891892" stroke="yellow" stroke-width="2" fill="none" />
<path d="M777.1891891891893,777.1891891891892 L551.6756756756757,777.1891891891892" stroke="yellow" stroke-width="2" fill="none" />
<path d="M455.0270270270271,777.1891891891892 L422.81081081081084,777.1891891891892" stroke="yellow" stroke-width="2" fill="none" />
<path d="M777.1891891891893,809.4054054054054 L777.1891891891893,873.8378378378379" stroke="yellow" stroke-width="2" fill="none" />
<path d="M551.6756756756757,873.8378378378379 L551.6756756756757,809.4054054054054" stroke="yellow" stroke-width="2" fill="none" />
<path d="M777.1891891891893,873.8378378378379 L551.6756756756757,873.8378378378379" stroke="yellow" stroke-width="2" fill="none" />
<path d="M551.6756756756757,877.8648648648649 L777.1891891891893,877.8648648648649" stroke="yellow" stroke-width="2" fill="none" />
<path d="M422.81081081081084,229.5135135135135 L455.0270270270271,229.5135135135135" stroke="yellow" stroke-width="2" fill="none" />
<path d="M873.8378378378379,229.5135135135135 L906.0540540540542,229.5135135135135" stroke="yellow" stroke-width="2" fill="none" />
<path d="M551.6756756756757,229.5135135135135 L777.1891891891893,229.5135135135135" stroke="yellow" stroke-width="2" fill="none" />
<path d="M777.1891891891893,132.86486486486484 L777.1891891891893,197.2972972972973" stroke="yellow" stroke-width="2" fill="none" />
<path d="M551.6756756756757,197.2972972972973 L551.6756756756757,132.86486486486484" stroke="yellow" stroke-width="2" fill="none" />
<path d="M551.6756756756757,132.86486486486484 L777.1891891891893,132.86486486486484" stroke="yellow" stroke-width="2" fill="none" />
<path d="M777.1891891891893,128.8378378378378 L551.6756756756757,128.8378378378378" stroke="yellow" stroke-width="2" fill="none" />
<path d="M1034.918918918919,422.8108108108108 L1034.918918918919,583.8918918918919" stroke="yellow" stroke-width="2" fill="none" />
<path d="M1038.945945945946,583.8918918918919 L1038.945945945946,422.8108108108108" stroke="yellow" stroke-width="2" fill="none" />
<path d="M1051.027027027027,583.8918918918919 L1051.027027027027,422.8108108108108" stroke="yellow" stroke-width="2" fill="none" />
<path d="M1051.027027027027,583.8918918918919 L1067.1351351351352,583.8918918918919" stroke="yellow" stroke-width="2" fill="none" />
<path d="M1067.1351351351352,583.8918918918919 L1083.2432432432433,583.8918918918919" stroke="yellow" stroke-width="2" fill="none" />
<path d="M1083.2432432432433,422.8108108108108 L1067.1351351351352,422.8108108108108" stroke="yellow" stroke-width="2" fill="none" />
<path d="M1067.1351351351352,422.8108108108108 L1051.027027027027,422.8108108108108" stroke="yellow" stroke-width="2" fill="none" />
<path d="M1067.1351351351352,583.8918918918919 L1067.1351351351352,422.8108108108108" stroke="yellow" stroke-width="2" fill="none" />
<path d="M1083.2432432432433,583.8918918918919 L1083.2432432432433,422.8108108108108" stroke="yellow" stroke-width="2" fill="none" />
<path d="M261.7297297297298,583.8918918918919 L261.7297297297298,422.8108108108108" stroke="yellow" stroke-width="2" fill="none" />
<path d="M257.7027027027027,422.8108108108108 L257.7027027027027,583.8918918918919" stroke="yellow" stroke-width="2" fill="none" />
<path d="M245.62162162162167,422.8108108108108 L245.62162162162167,583.8918918918919" stroke="yellow" stroke-width="2" fill="none" />
<path d="M245.62162162162167,422.8108108108108 L229.51351351351354,422.8108108108108" stroke="yellow" stroke-width="2" fill="none" />
<path d="M229.51351351351354,422.8108108108108 L213.40540540540542,422.8108108108108" stroke="yellow" stroke-width="2" fill="none" />
<path d="M213.40540540540542,583.8918918918919 L229.51351351351354,583.8918918918919" stroke="yellow" stroke-width="2" fill="none" />
<path d="M229.51351351351354,583.8918918918919 L245.62162162162167,583.8918918918919" stroke="yellow" stroke-width="2" fill="none" />
<path d="M229.51351351351354,422.8108108108108 L229.51351351351354,583.8918918918919" stroke="yellow" stroke-width="2" fill="none" />
<path d="M213.40540540540542,422.8108108108108 L213.40540540540542,583.8918918918919" stroke="yellow" stroke-width="2" fill="none" />
<path d="M841.6216216216217,293.94594594594594 L744.972972972973,293.94594594594594" stroke="yellow" stroke-width="2" fill="none" />
<path d="M744.972972972973,293.94594594594594 L744.972972972973,390.5945945945946" stroke="yellow" stroke-width="2" fill="none" />
<path d="M744.972972972973,390.5945945945946 L841.6216216216217,390.5945945945946" stroke="yellow" stroke-width="2" fill="none" />
<path d="M841.6216216216217,390.5945945945946 L841.6216216216217,293.94594594594594" stroke="yellow" stroke-width="2" fill="none" />
<path d="M487.2432432432433,293.94594594594594 L487.2432432432433,390.5945945945946" stroke="yellow" stroke-width="2" fill="none" />
<path d="M487.2432432432433,390.5945945945946 L583.891891891892,390.5945945945946" stroke="yellow" stroke-width="2" fill="none" />
<path d="M583.891891891892,390.5945945945946 L583.891891891892,293.94594594594594" stroke="yellow" stroke-width="2" fill="none" />
<path d="M583.891891891892,293.94594594594594 L487.2432432432433,293.94594594594594" stroke="yellow" stroke-width="2" fill="none" />
<path d="M487.2432432432433,616.1081081081081 L487.2432432432433,712.7567567567568" stroke="yellow" stroke-width="2" fill="none" />
<path d="M487.2432432432433,712.7567567567568 L583.891891891892,712.7567567567568" stroke="yellow" stroke-width="2" fill="none" />
<path d="M583.891891891892,712.7567567567568 L583.891891891892,616.1081081081081" stroke="yellow" stroke-width="2" fill="none" />
<path d="M583.891891891892,616.1081081081081 L487.2432432432433,616.1081081081081" stroke="yellow" stroke-width="2" fill="none" />
<path d="M744.972972972973,616.1081081081081 L744.972972972973,712.7567567567568" stroke="yellow" stroke-width="2" fill="none" />
<path d="M744.972972972973,712.7567567567568 L841.6216216216217,712.7567567567568" stroke="yellow" stroke-width="2" fill="none" />
<path d="M841.6216216216217,712.7567567567568 L841.6216216216217,616.1081081081081" stroke="yellow" stroke-width="2" fill="none" />
<path d="M841.6216216216217,616.1081081081081 L744.972972972973,616.1081081081081" stroke="yellow" stroke-width="2" fill="none" />
<path d="M648.3243243243244,487.2432432432432 L680.5405405405406,487.2432432432432" stroke="lavender" stroke-width="2" fill="none" />
<path d="M680.5405405405406,487.2432432432432 L680.5405405405406,455.02702702702703" stroke="lavender" stroke-width="2" fill="none" />
<path d="M680.5405405405406,455.02702702702703 L648.3243243243244,455.02702702702703" stroke="lavender" stroke-width="2" fill="none" />
<path d="M648.3243243243244,455.02702702702703 L648.3243243243244,487.2432432432432" stroke="lavender" stroke-width="2" fill="none" />
<path d="M1026.864864864865,422.8108108108108 L978.5405405405406,422.8108108108108" stroke="yellow" stroke-width="2" fill="none" />
<path d="M978.5405405405406,422.8108108108108 L978.5405405405406,583.8918918918919" stroke="yellow" stroke-width="2" fill="none" />
<path d="M978.5405405405406,583.8918918918919 L1026.864864864865,583.8918918918919" stroke="yellow" stroke-width="2" fill="none" />
<path d="M1026.864864864865,583.8918918918919 L1026.864864864865,422.8108108108108" stroke="yellow" stroke-width="2" fill="none" />
<path d="M982.5675675675676,426.8378378378378 L1022.8378378378379,426.8378378378378" stroke="yellow" stroke-width="2" fill="none" />
<path d="M1022.8378378378379,426.8378378378378 L1022.8378378378379,579.8648648648649" stroke="yellow" stroke-width="2" fill="none" />
<path d="M1022.8378378378379,579.8648648648649 L982.5675675675676,579.8648648648649" stroke="yellow" stroke-width="2" fill="none" />
<path d="M982.5675675675676,487.2432432432432 L982.5675675675676,426.8378378378378" stroke="yellow" stroke-width="2" fill="none" />
<path d="M982.5675675675676,579.8648648648649 L982.5675675675676,519.4594594594595" stroke="yellow" stroke-width="2" fill="none" />
<path d="M982.5675675675676,519.4594594594595 L982.5675675675676,487.2432432432432" stroke="lavender" stroke-width="2" fill="none" />
<path d="M100.64864864864865,165.08108108108107 L100.64864864864865,4.0" stroke="yellow" stroke-width="2" fill="none" />
<path d="M96.62162162162167,4.0 L96.62162162162167,165.08108108108107" stroke="lavender" stroke-width="2" fill="none" />
<path d="M68.4324324324325,4.0 L68.4324324324325,165.08108108108107" stroke="lavender" stroke-width="2" fill="none" />
<path d="M616.1081081081081,519.4594594594595 L712.7567567567569,519.4594594594595" stroke="yellow" stroke-width="2" fill="none" />
<path d="M712.7567567567569,519.4594594594595 L712.7567567567569,422.8108108108108" stroke="yellow" stroke-width="2" fill="none" />
<path d="M712.7567567567569,422.8108108108108 L616.1081081081081,422.8108108108108" stroke="yellow" stroke-width="2" fill="none" />
<path d="M616.1081081081081,422.8108108108108 L616.1081081081081,519.4594594594595" stroke="yellow" stroke-width="2" fill="none" />
<path d="M600.0,535.5675675675675 L728.8648648648649,535.5675675675675" stroke="yellow" stroke-width="2" fill="none" />
<path d="M728.8648648648649,535.5675675675675 L728.8648648648649,406.7027027027027" stroke="yellow" stroke-width="2" fill="none" />
<path d="M728.8648648648649,406.7027027027027 L600.0,406.7027027027027" stroke="yellow" stroke-width="2" fill="none" />
<path d="M600.0,406.7027027027027 L600.0,535.5675675675675" stroke="yellow" stroke-width="2" fill="none" />
<path d="M12.054054054054063,92.59459459459458 L16.08108108108115,92.59459459459458" stroke="yellow" stroke-width="2" fill="none" />
<path d="M16.08108108108115,92.59459459459458 L16.08108108108115,76.48648648648646" stroke="yellow" stroke-width="2" fill="none" />
<path d="M16.08108108108115,76.48648648648646 L12.054054054054063,76.48648648648646" stroke="yellow" stroke-width="2" fill="none" />
<path d="M12.054054054054063,76.48648648648646 L12.054054054054063,92.59459459459458" stroke="yellow" stroke-width="2" fill="none" />
<path d="M938.2702702702703,583.8918918918919 L906.0540540540542,583.8918918918919" stroke="red" stroke-width="2" fill="none" />
<path d="M422.81081081081084,583.8918918918919 L390.5945945945947,583.8918918918919" stroke="red" stroke-width="2" fill="none" />
<path d="M390.5945945945947,422.8108108108108 L422.81081081081084,422.8108108108108" stroke="red" stroke-width="2" fill="none" />
<path d="M906.0540540540542,390.5945945945946 L906.0540540540542,422.8108108108108" stroke="red" stroke-width="2" fill="none" />
<path d="M906.0540540540542,422.8108108108108 L938.2702702702703,422.8108108108108" stroke="red" stroke-width="2" fill="none" />
<path d="M938.2702702702703,422.8108108108108 L938.2702702702703,390.5945945945946" stroke="red" stroke-width="2" fill="none" />
<path d="M938.2702702702703,390.5945945945946 L906.0540540540542,390.5945945945946" stroke="red" stroke-width="2" fill="none" />
<path d="M906.0540540540542,583.8918918918919 L906.0540540540542,616.1081081081081" stroke="red" stroke-width="2" fill="none" />
<path d="M906.0540540540542,616.1081081081081 L938.2702702702703,616.1081081081081" stroke="red" stroke-width="2" fill="none" />
<path d="M938.2702702702703,616.1081081081081 L938.2702702702703,583.8918918918919" stroke="red" stroke-width="2" fill="none" />
<path d="M390.5945945945947,390.5945945945946 L390.5945945945947,422.8108108108108" stroke="red" stroke-width="2" fill="none" />
<path d="M422.81081081081084,422.8108108108108 L422.81081081081084,390.5945945945946" stroke="red" stroke-width="2" fill="none" />
<path d="M422.81081081081084,390.5945945945946 L390.5945945945947,390.5945945945946" stroke="red" stroke-width="2" fill="none" />
<path d="M390.5945945945947,583.8918918918919 L390.5945945945947,616.1081081081081" stroke="red" stroke-width="2" fill="none" />
<path d="M390.5945945945947,616.1081081081081 L422.81081081081084,616.1081081081081" stroke="red" stroke-width="2" fill="none" />
<path d="M422.81081081081084,616.1081081081081 L422.81081081081084,583.8918918918919" stroke="red" stroke-width="2" fill="none" />
<path d="M777.1891891891893,873.8378378378379 L777.1891891891893,877.8648648648649" stroke="red" stroke-width="2" fill="none" />
<path d="M777.1891891891893,877.8648648648649 L777.1891891891893,889.9459459459459" stroke="red" stroke-width="2" fill="none" />
<path d="M777.1891891891893,889.9459459459459 L1051.027027027027,889.9459459459459" stroke="red" stroke-width="2" fill="none" />
<path d="M1196.0,1002.7027027027027 L100.64864864864865,1002.7027027027027" stroke="red" stroke-width="2" fill="none" />
<path d="M245.62162162162167,889.9459459459459 L551.6756756756757,889.9459459459459" stroke="red" stroke-width="2" fill="none" />
<path d="M551.6756756756757,889.9459459459459 L551.6756756756757,877.8648648648649" stroke="red" stroke-width="2" fill="none" />
<path d="M551.6756756756757,877.8648648648649 L551.6756756756757,873.8378378378379" stroke="red" stroke-width="2" fill="none" />
<path d="M551.6756756756757,132.86486486486484 L551.6756756756757,128.8378378378378" stroke="red" stroke-width="2" fill="none" />
<path d="M777.1891891891893,128.8378378378378 L777.1891891891893,132.86486486486484" stroke="red" stroke-width="2" fill="none" />
<path d="M777.1891891891893,116.75675675675672 L777.1891891891893,128.8378378378378" stroke="red" stroke-width="2" fill="none" />
<path d="M551.6756756756757,128.8378378378378 L551.6756756756757,116.75675675675672" stroke="red" stroke-width="2" fill="none" />
<path d="M1051.027027027027,116.75675675675672 L777.1891891891893,116.75675675675672" stroke="red" stroke-width="2" fill="none" />
<path d="M551.6756756756757,116.75675675675672 L245.62162162162167,116.75675675675672" stroke="red" stroke-width="2" fill="none" />
<path d="M100.64864864864865,4.0 L1196.0,4.0" stroke="red" stroke-width="2" fill="none" />
<path d="M1196.0,4.0 L1196.0,1002.7027027027027" stroke="red" stroke-width="2" fill="none" />
<path d="M777.1891891891893,777.1891891891892 L777.1891891891893,809.4054054054054" stroke="red" stroke-width="2" fill="none" />
<path d="M777.1891891891893,809.4054054054054 L873.8378378378379,809.4054054054054" stroke="red" stroke-width="2" fill="none" />
<path d="M873.8378378378379,809.4054054054054 L873.8378378378379,777.1891891891892" stroke="red" stroke-width="2" fill="none" />
<path d="M873.8378378378379,777.1891891891892 L777.1891891891893,777.1891891891892" stroke="red" stroke-width="2" fill="none" />
<path d="M455.0270270270271,777.1891891891892 L455.0270270270271,809.4054054054054" stroke="red" stroke-width="2" fill="none" />
<path d="M455.0270270270271,809.4054054054054 L551.6756756756757,809.4054054054054" stroke="red" stroke-width="2" fill="none" />
<path d="M551.6756756756757,809.4054054054054 L551.6756756756757,777.1891891891892" stroke="red" stroke-width="2" fill="none" />
<path d="M551.6756756756757,777.1891891891892 L455.0270270270271,777.1891891891892" stroke="red" stroke-width="2" fill="none" />
<path d="M777.1891891891893,197.2972972972973 L777.1891891891893,229.5135135135135" stroke="red" stroke-width="2" fill="none" />
<path d="M777.1891891891893,229.5135135135135 L873.8378378378379,229.5135135135135" stroke="red" stroke-width="2" fill="none" />
<path d="M873.8378378378379,229.5135135135135 L873.8378378378379,197.2972972972973" stroke="red" stroke-width="2" fill="none" />
<path d="M873.8378378378379,197.2972972972973 L777.1891891891893,197.2972972972973" stroke="red" stroke-width="2" fill="none" />
<path d="M455.0270270270271,197.2972972972973 L455.0270270270271,229.5135135135135" stroke="red" stroke-width="2" fill="none" />
<path d="M455.0270270270271,229.5135135135135 L551.6756756756757,229.5135135135135" stroke="red" stroke-width="2" fill="none" />
<path d="M551.6756756756757,229.5135135135135 L551.6756756756757,197.2972972972973" stroke="red" stroke-width="2" fill="none" />
<path d="M551.6756756756757,197.2972972972973 L455.0270270270271,197.2972972972973" stroke="red" stroke-width="2" fill="none" />
<path d="M1034.918918918919,132.86486486486484 L1034.918918918919,422.8108108108108" stroke="red" stroke-width="2" fill="none" />
<path d="M1034.918918918919,583.8918918918919 L1034.918918918919,873.8378378378379" stroke="red" stroke-width="2" fill="none" />
<path d="M1051.027027027027,889.9459459459459 L1051.027027027027,583.8918918918919" stroke="red" stroke-width="2" fill="none" />
<path d="M1051.027027027027,422.8108108108108 L1051.027027027027,116.75675675675672" stroke="red" stroke-width="2" fill="none" />
<path d="M1038.945945945946,422.8108108108108 L1051.027027027027,422.8108108108108" stroke="red" stroke-width="2" fill="none" />
<path d="M1051.027027027027,583.8918918918919 L1038.945945945946,583.8918918918919" stroke="red" stroke-width="2" fill="none" />
<path d="M1034.918918918919,422.8108108108108 L1038.945945945946,422.8108108108108" stroke="red" stroke-width="2" fill="none" />
<path d="M1038.945945945946,583.8918918918919 L1034.918918918919,583.8918918918919" stroke="red" stroke-width="2" fill="none" />
<path d="M261.7297297297298,873.8378378378379 L261.7297297297298,583.8918918918919" stroke="red" stroke-width="2" fill="none" />
<path d="M261.7297297297298,422.8108108108108 L261.7297297297298,132.86486486486484" stroke="red" stroke-width="2" fill="none" />
<path d="M245.62162162162167,116.75675675675672 L245.62162162162167,422.8108108108108" stroke="red" stroke-width="2" fill="none" />
<path d="M245.62162162162167,583.8918918918919 L245.62162162162167,889.9459459459459" stroke="red" stroke-width="2" fill="none" />
<path d="M257.7027027027027,422.8108108108108 L261.7297297297298,422.8108108108108" stroke="red" stroke-width="2" fill="none" />
<path d="M261.7297297297298,583.8918918918919 L257.7027027027027,583.8918918918919" stroke="red" stroke-width="2" fill="none" />
<path d="M245.62162162162167,422.8108108108108 L257.7027027027027,422.8108108108108" stroke="red" stroke-width="2" fill="none" />
<path d="M257.7027027027027,583.8918918918919 L245.62162162162167,583.8918918918919" stroke="red" stroke-width="2" fill="none" />
<path d="M777.1891891891893,132.86486486486484 L841.6216216216217,132.86486486486484" stroke="red" stroke-width="2" fill="none" />
<path d="M841.6216216216217,132.86486486486484 L841.6216216216217,128.8378378378378" stroke="red" stroke-width="2" fill="none" />
<path d="M841.6216216216217,128.8378378378378 L873.8378378378379,128.8378378378378" stroke="lavender" stroke-width="2" fill="none" />
<path d="M873.8378378378379,128.8378378378378 L873.8378378378379,132.86486486486484" stroke="red" stroke-width="2" fill="none" />
<path d="M873.8378378378379,132.86486486486484 L1034.918918918919,132.86486486486484" stroke="red" stroke-width="2" fill="none" />
<path d="M261.7297297297298,132.86486486486484 L455.0270270270271,132.86486486486484" stroke="red" stroke-width="2" fill="none" />
<path d="M455.0270270270271,132.86486486486484 L455.0270270270271,128.8378378378378" stroke="red" stroke-width="2" fill="none" />
<path d="M455.0270270270271,128.8378378378378 L487.2432432432433,128.8378378378378" stroke="lavender" stroke-width="2" fill="none" />
<path d="M487.2432432432433,128.8378378378378 L487.2432432432433,132.86486486486484" stroke="red" stroke-width="2" fill="none" />
<path d="M487.2432432432433,132.86486486486484 L551.6756756756757,132.86486486486484" stroke="red" stroke-width="2" fill="none" />
<path d="M551.6756756756757,873.8378378378379 L487.2432432432433,873.8378378378379" stroke="red" stroke-width="2" fill="none" />
<path d="M487.2432432432433,873.8378378378379 L487.2432432432433,877.8648648648649" stroke="red" stroke-width="2" fill="none" />
<path d="M487.2432432432433,877.8648648648649 L455.0270270270271,877.8648648648649" stroke="lavender" stroke-width="2" fill="none" />
<path d="M455.0270270270271,877.8648648648649 L455.0270270270271,873.8378378378379" stroke="red" stroke-width="2" fill="none" />
<path d="M455.0270270270271,873.8378378378379 L261.7297297297298,873.8378378378379" stroke="red" stroke-width="2" fill="none" />
<path d="M1034.918918918919,873.8378378378379 L873.8378378378379,873.8378378378379" stroke="red" stroke-width="2" fill="none" />
<path d="M873.8378378378379,873.8378378378379 L873.8378378378379,877.8648648648649" stroke="red" stroke-width="2" fill="none" />
<path d="M873.8378378378379,877.8648648648649 L841.6216216216217,877.8648648648649" stroke="lavender" stroke-width="2" fill="none" />
<path d="M841.6216216216217,877.8648648648649 L841.6216216216217,873.8378378378379" stroke="red" stroke-width="2" fill="none" />
<path d="M841.6216216216217,873.8378378378379 L777.1891891891893,873.8378378378379" stroke="red" stroke-width="2" fill="none" />
<path d="M100.64864864864865,1002.7027027027027 L100.64864864864865,165.08108108108107" stroke="red" stroke-width="2" fill="none" />
<path d="M100.64864864864865,165.08108108108107 L96.62162162162167,165.08108108108107" stroke="red" stroke-width="2" fill="none" />
<path d="M96.62162162162167,165.08108108108107 L68.4324324324325,165.08108108108107" stroke="red" stroke-width="2" fill="none" />
<path d="M68.4324324324325,4.0 L96.62162162162167,4.0" stroke="red" stroke-width="2" fill="none" />
<path d="M96.62162162162167,4.0 L100.64864864864865,4.0" stroke="red" stroke-width="2" fill="none" />
<path d="M68.4324324324325,165.08108108108107 L4.0,165.08108108108107" stroke="red" stroke-width="2" fill="none" />
<path d="M4.0,4.0 L68.4324324324325,4.0" stroke="red" stroke-width="2" fill="none" />
<path d="M4.0,165.08108108108107 L4.0,100.64864864864865" stroke="red" stroke-width="2" fill="none" />
<path d="M4.0,100.64864864864865 L4.0,68.43243243243239" stroke="lavender" stroke-width="2" fill="none" />
<path d="M4.0,68.43243243243239 L4.0,4.0" stroke="red" stroke-width="2" fill="none" />
</svg>