<?xml version="1.0" encoding="UTF-8"?>
<svg xmlns="http://www.w3.org/2000/svg" xmlns:xlink="http://www.w3.org/1999/xlink"
     width="1200" height="1160" viewBox="0 0 1200 1160">
<defs>
</defs>
<path d="M389.9344262295081,937.0819672131148 L363.06557377049177,910.2131147540983" stroke="yellow" stroke-width="1" fill="none" />
<path d="M355.73770491803276,893.1147540983607 L355.73770491803276,854.032786885246" stroke="yellow" stroke-width="1" fill="none" />
<path d="M358.18032786885243,836.9344262295082 L389.9344262295081,805.1803278688525" stroke="yellow" stroke-width="1" fill="none" />
<path d="M404.59016393442624,805.1803278688525 L443.67213114754094,805.1803278688525" stroke="yellow" stroke-width="1" fill="none" />
<path d="M460.7704918032786,812.5081967213115 L487.6393442622951,839.3770491803278" stroke="yellow" stroke-width="1" fill="none" />
<path d="M492.5245901639344,854.032786885246 L492.5245901639344,893.1147540983607" stroke="yellow" stroke-width="1" fill="none" />
<path d="M485.1967213114754,910.2131147540983 L458.32786885245895,937.0819672131148" stroke="yellow" stroke-width="1" fill="none" />
<path d="M443.67213114754094,941.9672131147541 L404.59016393442624,941.9672131147541" stroke="yellow" stroke-width="1" fill="none" />
<path d="M345.9672131147541,854.032786885246 L345.9672131147541,893.1147540983607" stroke="yellow" stroke-width="1" fill="none" />
<path d="M348.40983606557376,854.032786885246 L348.40983606557376,893.1147540983607" stroke="yellow" stroke-width="1" fill="none" />
<path d="M350.8524590163934,893.1147540983607 L350.8524590163934,854.032786885246" stroke="lavender" stroke-width="1" fill="none" />
<path d="M404.59016393442624,802.7377049180328 L443.67213114754094,802.7377049180328" stroke="lavender" stroke-width="1" fill="none" />
<path d="M443.67213114754094,800.2950819672132 L404.59016393442624,800.2950819672132" stroke="lavender" stroke-width="1" fill="none" />
<path d="M443.67213114754094,944.4098360655738 L404.59016393442624,944.4098360655738" stroke="lavender" stroke-width="1" fill="none" />
<path d="M404.59016393442624,946.8524590163935 L443.67213114754094,946.8524590163935" stroke="yellow" stroke-width="1" fill="none" />
<path d="M494.9672131147541,854.032786885246 L494.9672131147541,893.1147540983607" stroke="lavender" stroke-width="1" fill="none" />
<path d="M497.40983606557376,893.1147540983607 L497.40983606557376,854.032786885246" stroke="lavender" stroke-width="1" fill="none" />
<path d="M404.59016393442624,949.2950819672132 L443.67213114754094,949.2950819672132" stroke="yellow" stroke-width="1" fill="none" />
<path d="M465.65573770491795,807.6229508196722 L492.5245901639344,834.4918032786885" stroke="lavender" stroke-width="1" fill="none" />
<path d="M497.40983606557376,829.6065573770492 L470.5409836065573,802.7377049180328" stroke="yellow" stroke-width="1" fill="none" />
<path d="M502.2950819672131,824.7213114754098 L475.42622950819674,797.8524590163935" stroke="yellow" stroke-width="1" fill="none" />
<path d="M121.24590163934425,951.7377049180328 L121.24590163934425,922.4262295081967" stroke="lavender" stroke-width="1" fill="none" />
<path d="M490.08196721311475,915.0983606557377 L463.2131147540983,941.9672131147541" stroke="lavender" stroke-width="1" fill="none" />
<path d="M468.0983606557376,946.8524590163935 L494.9672131147541,919.983606557377" stroke="yellow" stroke-width="1" fill="none" />
<path d="M385.0491803278688,941.9672131147541 L358.18032786885243,915.0983606557377" stroke="lavender" stroke-width="1" fill="none" />
<path d="M353.2950819672131,919.983606557377 L380.16393442622945,946.8524590163935" stroke="lavender" stroke-width="1" fill="none" />
<path d="M348.40983606557376,924.8688524590165 L375.2786885245901,951.7377049180328" stroke="yellow" stroke-width="1" fill="none" />
<path d="M358.18032786885243,832.0491803278688 L385.0491803278688,805.1803278688525" stroke="lavender" stroke-width="1" fill="none" />
<path d="M380.16393442622945,800.2950819672132 L353.2950819672131,827.1639344262295" stroke="yellow" stroke-width="1" fill="none" />
<path d="M394.81967213114757,844.2622950819673 L453.4426229508196,844.2622950819673" stroke="yellow" stroke-width="1" fill="none" />
<path d="M394.81967213114757,902.8852459016393 L394.81967213114757,844.2622950819673" stroke="yellow" stroke-width="1" fill="none" />
<path d="M453.4426229508196,902.8852459016393 L394.81967213114757,902.8852459016393" stroke="yellow" stroke-width="1" fill="none" />
<path d="M453.4426229508196,844.2622950819673 L453.4426229508196,902.8852459016393" stroke="yellow" stroke-width="1" fill="none" />
<path d="M453.4426229508196,785.6393442622951 L394.81967213114757,785.6393442622951" stroke="yellow" stroke-width="1" fill="none" />
<path d="M453.4426229508196,727.016393442623 L394.81967213114757,727.016393442623" stroke="yellow" stroke-width="1" fill="none" />
<path d="M472.98360655737696,707.4754098360656 L375.2786885245901,707.4754098360656" stroke="yellow" stroke-width="1" fill="none" />
<path d="M472.98360655737696,648.8524590163935 L375.2786885245901,648.8524590163935" stroke="yellow" stroke-width="1" fill="none" />
<path d="M492.5245901639344,629.311475409836 L355.73770491803276,629.311475409836" stroke="yellow" stroke-width="1" fill="none" />
<path d="M355.73770491803276,629.311475409836 L355.73770491803276,609.7704918032787" stroke="yellow" stroke-width="1" fill="none" />
<path d="M355.73770491803276,590.2295081967213 L355.73770491803276,570.688524590164" stroke="yellow" stroke-width="1" fill="none" />
<path d="M355.73770491803276,541.377049180328 L355.73770491803276,521.8360655737706" stroke="yellow" stroke-width="1" fill="none" />
<path d="M355.73770491803276,472.983606557377 L355.73770491803276,453.44262295081967" stroke="yellow" stroke-width="1" fill="none" />
<path d="M492.5245901639344,433.9016393442623 L492.5245901639344,453.44262295081967" stroke="yellow" stroke-width="1" fill="none" />
<path d="M492.5245901639344,482.7540983606557 L492.5245901639344,502.29508196721326" stroke="yellow" stroke-width="1" fill="none" />
<path d="M492.5245901639344,551.1475409836066 L492.5245901639344,570.688524590164" stroke="yellow" stroke-width="1" fill="none" />
<path d="M492.5245901639344,590.2295081967213 L492.5245901639344,609.7704918032787" stroke="yellow" stroke-width="1" fill="none" />
<path d="M385.0491803278688,258.03278688524597 L404.59016393442624,258.03278688524597" stroke="yellow" stroke-width="1" fill="none" />
<path d="M707.4754098360656,553.5901639344263 L746.5573770491803,553.5901639344263" stroke="yellow" stroke-width="1" fill="none" />
<path d="M824.7213114754097,844.2622950819673 L727.016393442623,844.2622950819673" stroke="yellow" stroke-width="1" fill="none" />
<path d="M727.016393442623,844.2622950819673 L629.311475409836,844.2622950819673" stroke="yellow" stroke-width="1" fill="none" />
<path d="M863.8032786885246,707.4754098360656 L590.2295081967213,707.4754098360656" stroke="yellow" stroke-width="1" fill="none" />
<path d="M727.016393442623,727.016393442623 L590.2295081967213,785.6393442622951" stroke="yellow" stroke-width="1" fill="none" />
<path d="M824.7213114754097,844.2622950819673 L727.016393442623,805.1803278688525" stroke="yellow" stroke-width="1" fill="none" />
<path d="M590.2295081967213,707.4754098360656 L590.2295081967213,785.6393442622951" stroke="yellow" stroke-width="1" fill="none" />
<path d="M590.2295081967213,785.6393442622951 L609.7704918032787,824.7213114754098" stroke="yellow" stroke-width="1" fill="none" />
<path d="M727.016393442623,766.0983606557377 L609.7704918032787,824.7213114754098" stroke="yellow" stroke-width="1" fill="none" />
<path d="M668.3934426229507,590.2295081967213 L785.639344262295,590.2295081967213" stroke="lavender" stroke-width="1" fill="none" />
<path d="M727.016393442623,668.3934426229508 L590.2295081967213,707.4754098360656" stroke="yellow" stroke-width="1" fill="none" />
<path d="M863.8032786885246,707.4754098360656 L727.016393442623,668.3934426229508" stroke="yellow" stroke-width="1" fill="none" />
<path d="M707.4754098360656,531.6065573770493 L746.5573770491803,531.6065573770493" stroke="yellow" stroke-width="1" fill="none" />
<path d="M746.5573770491803,551.1475409836066 L707.4754098360656,551.1475409836066" stroke="yellow" stroke-width="1" fill="none" />
<path d="M707.4754098360656,512.0655737704919 L746.5573770491803,512.0655737704919" stroke="yellow" stroke-width="1" fill="none" />
<path d="M707.4754098360656,504.73770491803293 L746.5573770491803,504.73770491803293" stroke="yellow" stroke-width="1" fill="none" />
<path d="M844.2622950819673,824.7213114754098 L727.016393442623,766.0983606557377" stroke="yellow" stroke-width="1" fill="none" />
<path d="M863.8032786885246,785.6393442622951 L727.016393442623,727.016393442623" stroke="yellow" stroke-width="1" fill="none" />
<path d="M727.016393442623,805.1803278688525 L629.311475409836,844.2622950819673" stroke="yellow" stroke-width="1" fill="none" />
<path d="M590.2295081967213,863.8032786885246 L570.688524590164,863.8032786885246" stroke="lavender" stroke-width="1" fill="none" />
<path d="M551.1475409836066,883.344262295082 L551.1475409836066,902.8852459016393" stroke="lavender" stroke-width="1" fill="none" />
<path d="M570.688524590164,922.4262295081967 L590.2295081967213,922.4262295081967" stroke="lavender" stroke-width="1" fill="none" />
<path d="M570.688524590164,883.344262295082 L570.688524590164,902.8852459016393" stroke="lavender" stroke-width="1" fill="none" />
<path d="M981.049180327869,824.7213114754098 L1000.5901639344263,824.7213114754098" stroke="yellow" stroke-width="1" fill="none" />
<path d="M1039.672131147541,844.2622950819673 L1098.295081967213,902.8852459016393" stroke="lavender" stroke-width="1" fill="none" />
<path d="M1098.295081967213,1000.5901639344263 L1039.672131147541,1059.2131147540983" stroke="yellow" stroke-width="1" fill="none" />
<path d="M1000.5901639344263,1078.7540983606557 L981.049180327869,1078.7540983606557" stroke="yellow" stroke-width="1" fill="none" />
<path d="M941.967213114754,1059.2131147540983 L883.344262295082,1000.5901639344263" stroke="yellow" stroke-width="1" fill="none" />
<path d="M883.344262295082,902.8852459016393 L941.967213114754,844.2622950819673" stroke="yellow" stroke-width="1" fill="none" />
<path d="M981.049180327869,844.2622950819673 L1000.5901639344263,844.2622950819673" stroke="yellow" stroke-width="1" fill="none" />
<path d="M1039.672131147541,844.2622950819673 L1039.672131147541,883.344262295082" stroke="yellow" stroke-width="1" fill="none" />
<path d="M1059.2131147540983,902.8852459016393 L1098.295081967213,902.8852459016393" stroke="yellow" stroke-width="1" fill="none" />
<path d="M1098.295081967213,1000.5901639344263 L1059.2131147540983,1000.5901639344263" stroke="yellow" stroke-width="1" fill="none" />
<path d="M1039.672131147541,1020.1311475409836 L1039.672131147541,1059.2131147540983" stroke="yellow" stroke-width="1" fill="none" />
<path d="M941.967213114754,1059.2131147540983 L941.967213114754,1020.1311475409836" stroke="yellow" stroke-width="1" fill="none" />
<path d="M922.4262295081967,1000.5901639344263 L883.344262295082,1000.5901639344263" stroke="yellow" stroke-width="1" fill="none" />
<path d="M1098.295081967213,941.9672131147541 L1098.295081967213,961.5081967213115" stroke="lavender" stroke-width="1" fill="none" />
<path d="M1000.5901639344263,1059.2131147540983 L981.049180327869,1059.2131147540983" stroke="yellow" stroke-width="1" fill="none" />
<path d="M883.344262295082,961.5081967213115 L883.344262295082,941.9672131147541" stroke="lavender" stroke-width="1" fill="none" />
<path d="M883.344262295082,902.8852459016393 L922.4262295081967,902.8852459016393" stroke="yellow" stroke-width="1" fill="none" />
<path d="M941.967213114754,883.344262295082 L941.967213114754,844.2622950819673" stroke="yellow" stroke-width="1" fill="none" />
<path d="M922.4262295081967,902.8852459016393 L941.967213114754,902.8852459016393" stroke="yellow" stroke-width="1" fill="none" />
<path d="M941.967213114754,902.8852459016393 L941.967213114754,883.344262295082" stroke="yellow" stroke-width="1" fill="none" />
<path d="M1039.672131147541,883.344262295082 L1039.672131147541,902.8852459016393" stroke="yellow" stroke-width="1" fill="none" />
<path d="M1039.672131147541,902.8852459016393 L1059.2131147540983,902.8852459016393" stroke="yellow" stroke-width="1" fill="none" />
<path d="M1059.2131147540983,1000.5901639344263 L1039.672131147541,1000.5901639344263" stroke="yellow" stroke-width="1" fill="none" />
<path d="M1039.672131147541,1000.5901639344263 L1039.672131147541,1020.1311475409836" stroke="yellow" stroke-width="1" fill="none" />
<path d="M941.967213114754,1020.1311475409836 L941.967213114754,1000.5901639344263" stroke="yellow" stroke-width="1" fill="none" />
<path d="M941.967213114754,1000.5901639344263 L922.4262295081967,1000.5901639344263" stroke="yellow" stroke-width="1" fill="none" />
<path d="M1039.672131147541,1000.5901639344263 L1039.672131147541,902.8852459016393" stroke="yellow" stroke-width="1" fill="none" />
<path d="M1059.2131147540983,902.8852459016393 L1059.2131147540983,1000.5901639344263" stroke="lavender" stroke-width="1" fill="none" />
<path d="M1156.9180327868853,746.5573770491803 L1176.4590163934427,746.5573770491803" stroke="lavender" stroke-width="1" fill="none" />
<path d="M1176.4590163934427,746.5573770491803 L1176.4590163934427,727.016393442623" stroke="lavender" stroke-width="1" fill="none" />
<path d="M1086.0819672131147,880.9016393442623 L1064.0983606557377,858.9180327868853" stroke="lavender" stroke-width="1" fill="none" />
<path d="M668.3934426229507,1156.9180327868853 L668.3934426229507,1000.5901639344263" stroke="lavender" stroke-width="1" fill="none" />
<path d="M658.622950819672,1156.9180327868853 L658.622950819672,1000.5901639344263" stroke="yellow" stroke-width="1" fill="none" />
<path d="M814.950819672131,1049.4426229508197 L814.950819672131,1068.983606557377" stroke="yellow" stroke-width="1" fill="none" />
<path d="M814.950819672131,1088.5245901639346 L814.950819672131,1108.065573770492" stroke="yellow" stroke-width="1" fill="none" />
<path d="M355.73770491803276,1078.7540983606557 L375.2786885245901,1078.7540983606557" stroke="yellow" stroke-width="1" fill="none" />
<path d="M336.1967213114754,1059.2131147540983 L355.73770491803276,1078.7540983606557" stroke="lavender" stroke-width="1" fill="none" />
<path d="M336.1967213114754,1039.672131147541 L336.1967213114754,1059.2131147540983" stroke="lavender" stroke-width="1" fill="none" />
<path d="M355.73770491803276,1020.1311475409836 L336.1967213114754,1039.672131147541" stroke="lavender" stroke-width="1" fill="none" />
<path d="M375.2786885245901,1020.1311475409836 L355.73770491803276,1020.1311475409836" stroke="yellow" stroke-width="1" fill="none" />
<path d="M375.2786885245901,981.0491803278688 L375.2786885245901,1020.1311475409836" stroke="yellow" stroke-width="1" fill="none" />
<path d="M375.2786885245901,1078.7540983606557 L375.2786885245901,1117.8360655737706" stroke="yellow" stroke-width="1" fill="none" />
<path d="M470.5409836065573,1039.672131147541 L394.81967213114757,961.5081967213115" stroke="yellow" stroke-width="1" fill="none" />
<path d="M199.40983606557376,1059.2131147540983 L199.40983606557376,1039.672131147541" stroke="yellow" stroke-width="1" fill="none" />
<path d="M355.73770491803276,1020.1311475409836 L355.73770491803276,1078.7540983606557" stroke="yellow" stroke-width="1" fill="none" />
<path d="M394.81967213114757,1098.2950819672133 L414.3606557377049,1098.2950819672133" stroke="yellow" stroke-width="1" fill="none" />
<path d="M414.3606557377049,1098.2950819672133 L414.3606557377049,1078.7540983606557" stroke="yellow" stroke-width="1" fill="none" />
<path d="M414.3606557377049,1078.7540983606557 L394.81967213114757,1078.7540983606557" stroke="yellow" stroke-width="1" fill="none" />
<path d="M394.81967213114757,1078.7540983606557 L394.81967213114757,1098.2950819672133" stroke="yellow" stroke-width="1" fill="none" />
<path d="M394.81967213114757,1020.1311475409836 L414.3606557377049,1020.1311475409836" stroke="yellow" stroke-width="1" fill="none" />
<path d="M414.3606557377049,1020.1311475409836 L414.3606557377049,1000.5901639344263" stroke="yellow" stroke-width="1" fill="none" />
<path d="M414.3606557377049,1000.5901639344263 L394.81967213114757,1000.5901639344263" stroke="yellow" stroke-width="1" fill="none" />
<path d="M394.81967213114757,1000.5901639344263 L394.81967213114757,1020.1311475409836" stroke="yellow" stroke-width="1" fill="none" />
<path d="M375.2786885245901,1059.2131147540983 L394.81967213114757,1059.2131147540983" stroke="yellow" stroke-width="1" fill="none" />
<path d="M394.81967213114757,1059.2131147540983 L394.81967213114757,1039.672131147541" stroke="yellow" stroke-width="1" fill="none" />
<path d="M394.81967213114757,1039.672131147541 L375.2786885245901,1039.672131147541" stroke="yellow" stroke-width="1" fill="none" />
<path d="M375.2786885245901,1039.672131147541 L375.2786885245901,1059.2131147540983" stroke="yellow" stroke-width="1" fill="none" />
<path d="M316.655737704918,1020.1311475409836 L336.1967213114754,1020.1311475409836" stroke="yellow" stroke-width="1" fill="none" />
<path d="M336.1967213114754,1020.1311475409836 L336.1967213114754,1000.5901639344263" stroke="yellow" stroke-width="1" fill="none" />
<path d="M336.1967213114754,1000.5901639344263 L316.655737704918,1000.5901639344263" stroke="yellow" stroke-width="1" fill="none" />
<path d="M316.655737704918,1000.5901639344263 L316.655737704918,1020.1311475409836" stroke="yellow" stroke-width="1" fill="none" />
<path d="M258.0327868852459,1059.2131147540983 L277.57377049180326,1059.2131147540983" stroke="yellow" stroke-width="1" fill="none" />
<path d="M277.57377049180326,1059.2131147540983 L277.57377049180326,1039.672131147541" stroke="yellow" stroke-width="1" fill="none" />
<path d="M277.57377049180326,1039.672131147541 L258.0327868852459,1039.672131147541" stroke="yellow" stroke-width="1" fill="none" />
<path d="M258.0327868852459,1039.672131147541 L258.0327868852459,1059.2131147540983" stroke="yellow" stroke-width="1" fill="none" />
<path d="M316.655737704918,1098.2950819672133 L336.1967213114754,1098.2950819672133" stroke="yellow" stroke-width="1" fill="none" />
<path d="M336.1967213114754,1098.2950819672133 L336.1967213114754,1078.7540983606557" stroke="yellow" stroke-width="1" fill="none" />
<path d="M336.1967213114754,1078.7540983606557 L316.655737704918,1078.7540983606557" stroke="yellow" stroke-width="1" fill="none" />
<path d="M316.655737704918,1078.7540983606557 L316.655737704918,1098.2950819672133" stroke="yellow" stroke-width="1" fill="none" />
<path d="M1000.5901639344263,822.2786885245902 L981.049180327869,822.2786885245902" stroke="yellow" stroke-width="1" fill="none" />
<path d="M981.049180327869,1081.1967213114754 L1000.5901639344263,1081.1967213114754" stroke="yellow" stroke-width="1" fill="none" />
<path d="M707.4754098360656,394.8196721311476 L629.311475409836,316.655737704918" stroke="yellow" stroke-width="1" fill="none" />
<path d="M629.311475409836,316.655737704918 L707.4754098360656,238.49180327868862" stroke="yellow" stroke-width="1" fill="none" />
<path d="M707.4754098360656,238.49180327868862 L746.5573770491803,238.49180327868862" stroke="lavender" stroke-width="1" fill="none" />
<path d="M746.5573770491803,238.49180327868862 L824.7213114754097,316.655737704918" stroke="yellow" stroke-width="1" fill="none" />
<path d="M824.7213114754097,316.655737704918 L746.5573770491803,394.8196721311476" stroke="yellow" stroke-width="1" fill="none" />
<path d="M746.5573770491803,502.29508196721326 L707.4754098360656,502.29508196721326" stroke="yellow" stroke-width="1" fill="none" />
<path d="M668.3934426229507,179.86885245901635 L668.3934426229507,140.78688524590166" stroke="yellow" stroke-width="1" fill="none" />
<path d="M648.8524590163934,23.540983606557575 L687.9344262295081,23.540983606557575" stroke="yellow" stroke-width="1" fill="none" />
<path d="M829.6065573770491,394.8196721311476 L829.6065573770491,238.49180327868862" stroke="yellow" stroke-width="1" fill="none" />
<path d="M624.4262295081967,238.49180327868862 L624.4262295081967,394.8196721311476" stroke="yellow" stroke-width="1" fill="none" />
<path d="M941.967213114754,297.11475409836066 L941.967213114754,336.1967213114756" stroke="lavender" stroke-width="1" fill="none" />
<path d="M944.4098360655737,336.1967213114756 L944.4098360655737,297.11475409836066" stroke="yellow" stroke-width="1" fill="none" />
<path d="M766.0983606557377,23.540983606557575 L805.1803278688524,23.540983606557575" stroke="yellow" stroke-width="1" fill="none" />
<path d="M785.639344262295,140.78688524590166 L785.639344262295,179.86885245901635" stroke="yellow" stroke-width="1" fill="none" />
<path d="M74.8360655737705,922.4262295081967 L74.8360655737705,951.7377049180328" stroke="lavender" stroke-width="1" fill="none" />
<path d="M77.27868852459017,951.7377049180328 L77.27868852459017,922.4262295081967" stroke="yellow" stroke-width="1" fill="none" />
<path d="M238.4918032786885,766.0983606557377 L258.0327868852459,766.0983606557377" stroke="lavender" stroke-width="1" fill="none" />
<path d="M258.0327868852459,763.655737704918 L238.4918032786885,763.655737704918" stroke="lavender" stroke-width="1" fill="none" />
<path d="M238.4918032786885,773.4262295081968 L258.0327868852459,773.4262295081968" stroke="yellow" stroke-width="1" fill="none" />
<path d="M267.8032786885246,668.3934426229508 L297.1147540983606,658.6229508196722" stroke="yellow" stroke-width="1" fill="none" />
<path d="M101.7049180327869,629.311475409836 L140.7868852459016,629.311475409836" stroke="yellow" stroke-width="1" fill="none" />
<path d="M140.7868852459016,629.311475409836 L140.7868852459016,590.2295081967213" stroke="yellow" stroke-width="1" fill="none" />
<path d="M140.7868852459016,590.2295081967213 L101.7049180327869,590.2295081967213" stroke="yellow" stroke-width="1" fill="none" />
<path d="M62.62295081967213,551.1475409836066 L101.7049180327869,551.1475409836066" stroke="yellow" stroke-width="1" fill="none" />
<path d="M101.7049180327869,551.1475409836066 L101.7049180327869,512.0655737704919" stroke="yellow" stroke-width="1" fill="none" />
<path d="M101.7049180327869,512.0655737704919 L62.62295081967213,512.0655737704919" stroke="yellow" stroke-width="1" fill="none" />
<path d="M101.7049180327869,512.0655737704919 L140.7868852459016,512.0655737704919" stroke="yellow" stroke-width="1" fill="none" />
<path d="M140.7868852459016,512.0655737704919 L140.7868852459016,472.983606557377" stroke="yellow" stroke-width="1" fill="none" />
<path d="M160.327868852459,472.983606557377 L160.327868852459,512.0655737704919" stroke="yellow" stroke-width="1" fill="none" />
<path d="M160.327868852459,512.0655737704919 L199.40983606557376,512.0655737704919" stroke="yellow" stroke-width="1" fill="none" />
<path d="M199.40983606557376,512.0655737704919 L199.40983606557376,472.983606557377" stroke="yellow" stroke-width="1" fill="none" />
<path d="M218.9508196721311,472.983606557377 L218.9508196721311,512.0655737704919" stroke="yellow" stroke-width="1" fill="none" />
<path d="M218.9508196721311,512.0655737704919 L258.0327868852459,512.0655737704919" stroke="yellow" stroke-width="1" fill="none" />
<path d="M258.0327868852459,512.0655737704919 L258.0327868852459,472.983606557377" stroke="yellow" stroke-width="1" fill="none" />
<path d="M297.1147540983606,512.0655737704919 L258.0327868852459,512.0655737704919" stroke="yellow" stroke-width="1" fill="none" />
<path d="M258.0327868852459,512.0655737704919 L258.0327868852459,551.1475409836066" stroke="yellow" stroke-width="1" fill="none" />
<path d="M258.0327868852459,551.1475409836066 L297.1147540983606,551.1475409836066" stroke="yellow" stroke-width="1" fill="none" />
<path d="M160.327868852459,668.3934426229508 L140.7868852459016,668.3934426229508" stroke="lavender" stroke-width="1" fill="none" />
<path d="M199.40983606557376,609.7704918032787 L140.7868852459016,590.2295081967213" stroke="lavender" stroke-width="1" fill="none" />
<path d="M375.2786885245901,795.4098360655738 L348.40983606557376,822.2786885245902" stroke="yellow" stroke-width="1" fill="none" />
<path d="M299.55737704918033,819.8360655737705 L343.5245901639344,819.8360655737705" stroke="yellow" stroke-width="1" fill="none" />
<path d="M343.5245901639344,819.8360655737705 L372.83606557377044,790.5245901639345" stroke="yellow" stroke-width="1" fill="none" />
<path d="M372.83606557377044,790.5245901639345 L372.83606557377044,734.344262295082" stroke="yellow" stroke-width="1" fill="none" />
<path d="M372.83606557377044,734.344262295082 L297.1147540983606,658.6229508196722" stroke="yellow" stroke-width="1" fill="none" />
<path d="M267.8032786885246,668.3934426229508 L299.55737704918033,700.1475409836066" stroke="yellow" stroke-width="1" fill="none" />
<path d="M299.55737704918033,700.1475409836066 L299.55737704918033,819.8360655737705" stroke="yellow" stroke-width="1" fill="none" />
<path d="M101.7049180327869,472.983606557377 L101.7049180327869,512.0655737704919" stroke="yellow" stroke-width="1" fill="none" />
<path d="M316.655737704918,883.344262295082 L336.1967213114754,883.344262295082" stroke="yellow" stroke-width="1" fill="none" />
<path d="M336.1967213114754,883.344262295082 L336.1967213114754,863.8032786885246" stroke="lavender" stroke-width="1" fill="none" />
<path d="M336.1967213114754,863.8032786885246 L316.655737704918,863.8032786885246" stroke="yellow" stroke-width="1" fill="none" />
<path d="M316.655737704918,863.8032786885246 L316.655737704918,883.344262295082" stroke="yellow" stroke-width="1" fill="none" />
<path d="M287.34426229508193,883.344262295082 L306.88524590163934,883.344262295082" stroke="yellow" stroke-width="1" fill="none" />
<path d="M306.88524590163934,883.344262295082 L306.88524590163934,863.8032786885246" stroke="lavender" stroke-width="1" fill="none" />
<path d="M306.88524590163934,863.8032786885246 L287.34426229508193,863.8032786885246" stroke="yellow" stroke-width="1" fill="none" />
<path d="M287.34426229508193,863.8032786885246 L287.34426229508193,883.344262295082" stroke="yellow" stroke-width="1" fill="none" />
<path d="M258.0327868852459,883.344262295082 L277.57377049180326,883.344262295082" stroke="yellow" stroke-width="1" fill="none" />
<path d="M277.57377049180326,883.344262295082 L277.57377049180326,863.8032786885246" stroke="lavender" stroke-width="1" fill="none" />
<path d="M277.57377049180326,863.8032786885246 L258.0327868852459,844.2622950819673" stroke="yellow" stroke-width="1" fill="none" />
<path d="M258.0327868852459,844.2622950819673 L238.4918032786885,844.2622950819673" stroke="yellow" stroke-width="1" fill="none" />
<path d="M238.4918032786885,844.2622950819673 L238.4918032786885,863.8032786885246" stroke="yellow" stroke-width="1" fill="none" />
<path d="M238.4918032786885,863.8032786885246 L258.0327868852459,883.344262295082" stroke="yellow" stroke-width="1" fill="none" />
<path d="M238.4918032786885,834.4918032786885 L258.0327868852459,834.4918032786885" stroke="lavender" stroke-width="1" fill="none" />
<path d="M258.0327868852459,834.4918032786885 L258.0327868852459,814.9508196721312" stroke="yellow" stroke-width="1" fill="none" />
<path d="M258.0327868852459,814.9508196721312 L238.4918032786885,814.9508196721312" stroke="yellow" stroke-width="1" fill="none" />
<path d="M238.4918032786885,814.9508196721312 L238.4918032786885,834.4918032786885" stroke="yellow" stroke-width="1" fill="none" />
<path d="M238.4918032786885,805.1803278688525 L258.0327868852459,805.1803278688525" stroke="lavender" stroke-width="1" fill="none" />
<path d="M258.0327868852459,805.1803278688525 L258.0327868852459,785.6393442622951" stroke="yellow" stroke-width="1" fill="none" />
<path d="M258.0327868852459,785.6393442622951 L238.4918032786885,785.6393442622951" stroke="yellow" stroke-width="1" fill="none" />
<path d="M238.4918032786885,785.6393442622951 L238.4918032786885,805.1803278688525" stroke="yellow" stroke-width="1" fill="none" />
<path d="M258.0327868852459,668.3934426229508 L267.8032786885246,668.3934426229508" stroke="yellow" stroke-width="1" fill="none" />
<path d="M297.1147540983606,658.6229508196722 L297.1147540983606,648.8524590163935" stroke="yellow" stroke-width="1" fill="none" />
<path d="M218.9508196721311,590.2295081967213 L258.0327868852459,551.1475409836066" stroke="lavender" stroke-width="1" fill="none" />
<path d="M453.4426229508196,746.5573770491803 L453.4426229508196,766.0983606557377" stroke="lavender" stroke-width="1" fill="none" />
<path d="M341.08196721311475,902.8852459016393 L341.08196721311475,844.2622950819673" stroke="lavender" stroke-width="1" fill="none" />
<path d="M394.81967213114757,766.0983606557377 L394.81967213114757,746.5573770491803" stroke="lavender" stroke-width="1" fill="none" />
<path d="M570.688524590164,883.344262295082 L590.2295081967213,883.344262295082" stroke="yellow" stroke-width="1" fill="none" />
<path d="M590.2295081967213,902.8852459016393 L570.688524590164,902.8852459016393" stroke="yellow" stroke-width="1" fill="none" />
<path d="M551.1475409836066,648.8524590163935 L863.8032786885246,648.8524590163935" stroke="lavender" stroke-width="1" fill="none" />
<path d="M404.59016393442624,941.9672131147541 L394.81967213114757,941.9672131147541" stroke="red" stroke-width="1" fill="none" />
<path d="M394.81967213114757,941.9672131147541 L389.9344262295081,937.0819672131148" stroke="red" stroke-width="1" fill="none" />
<path d="M363.06557377049177,910.2131147540983 L355.73770491803276,902.8852459016393" stroke="red" stroke-width="1" fill="none" />
<path d="M355.73770491803276,902.8852459016393 L355.73770491803276,893.1147540983607" stroke="red" stroke-width="1" fill="none" />
<path d="M355.73770491803276,854.032786885246 L358.18032786885243,844.2622950819673" stroke="red" stroke-width="1" fill="none" />
<path d="M358.18032786885243,844.2622950819673 L358.18032786885243,836.9344262295082" stroke="red" stroke-width="1" fill="none" />
<path d="M389.9344262295081,805.1803278688525 L394.81967213114757,805.1803278688525" stroke="red" stroke-width="1" fill="none" />
<path d="M394.81967213114757,805.1803278688525 L404.59016393442624,805.1803278688525" stroke="red" stroke-width="1" fill="none" />
<path d="M443.67213114754094,805.1803278688525 L453.4426229508196,805.1803278688525" stroke="red" stroke-width="1" fill="none" />
<path d="M453.4426229508196,805.1803278688525 L460.7704918032786,812.5081967213115" stroke="red" stroke-width="1" fill="none" />
<path d="M487.6393442622951,839.3770491803278 L492.5245901639344,844.2622950819673" stroke="red" stroke-width="1" fill="none" />
<path d="M492.5245901639344,844.2622950819673 L492.5245901639344,854.032786885246" stroke="red" stroke-width="1" fill="none" />
<path d="M492.5245901639344,893.1147540983607 L492.5245901639344,902.8852459016393" stroke="red" stroke-width="1" fill="none" />
<path d="M492.5245901639344,902.8852459016393 L485.1967213114754,910.2131147540983" stroke="red" stroke-width="1" fill="none" />
<path d="M458.32786885245895,937.0819672131148 L453.4426229508196,941.9672131147541" stroke="red" stroke-width="1" fill="none" />
<path d="M453.4426229508196,941.9672131147541 L443.67213114754094,941.9672131147541" stroke="red" stroke-width="1" fill="none" />
<path d="M404.59016393442624,805.1803278688525 L404.59016393442624,802.7377049180328" stroke="red" stroke-width="1" fill="none" />
<path d="M404.59016393442624,802.7377049180328 L404.59016393442624,800.2950819672132" stroke="red" stroke-width="1" fill="none" />
<path d="M404.59016393442624,800.2950819672132 L394.81967213114757,785.6393442622951" stroke="red" stroke-width="1" fill="none" />
<path d="M453.4426229508196,785.6393442622951 L443.67213114754094,800.2950819672132" stroke="red" stroke-width="1" fill="none" />
<path d="M443.67213114754094,800.2950819672132 L443.67213114754094,802.7377049180328" stroke="red" stroke-width="1" fill="none" />
<path d="M443.67213114754094,802.7377049180328 L443.67213114754094,805.1803278688525" stroke="red" stroke-width="1" fill="none" />
<path d="M492.5245901639344,854.032786885246 L494.9672131147541,854.032786885246" stroke="red" stroke-width="1" fill="none" />
<path d="M494.9672131147541,854.032786885246 L497.40983606557376,854.032786885246" stroke="red" stroke-width="1" fill="none" />
<path d="M497.40983606557376,854.032786885246 L512.0655737704917,844.2622950819673" stroke="red" stroke-width="1" fill="none" />
<path d="M531.6065573770491,941.9672131147541 L497.40983606557376,893.1147540983607" stroke="red" stroke-width="1" fill="none" />
<path d="M497.40983606557376,893.1147540983607 L494.9672131147541,893.1147540983607" stroke="red" stroke-width="1" fill="none" />
<path d="M494.9672131147541,893.1147540983607 L492.5245901639344,893.1147540983607" stroke="red" stroke-width="1" fill="none" />
<path d="M512.0655737704917,844.2622950819673 L590.2295081967213,844.2622950819673" stroke="red" stroke-width="1" fill="none" />
<path d="M590.2295081967213,844.2622950819673 L590.2295081967213,863.8032786885246" stroke="red" stroke-width="1" fill="none" />
<path d="M590.2295081967213,941.9672131147541 L531.6065573770491,941.9672131147541" stroke="red" stroke-width="1" fill="none" />
<path d="M443.67213114754094,941.9672131147541 L443.67213114754094,944.4098360655738" stroke="red" stroke-width="1" fill="none" />
<path d="M443.67213114754094,944.4098360655738 L443.67213114754094,946.8524590163935" stroke="red" stroke-width="1" fill="none" />
<path d="M443.67213114754094,946.8524590163935 L443.67213114754094,949.2950819672132" stroke="red" stroke-width="1" fill="none" />
<path d="M443.67213114754094,949.2950819672132 L470.5409836065573,971.2786885245902" stroke="red" stroke-width="1" fill="none" />
<path d="M470.5409836065573,971.2786885245902 L470.5409836065573,1039.672131147541" stroke="red" stroke-width="1" fill="none" />
<path d="M394.81967213114757,961.5081967213115 L404.59016393442624,949.2950819672132" stroke="red" stroke-width="1" fill="none" />
<path d="M404.59016393442624,949.2950819672132 L404.59016393442624,946.8524590163935" stroke="red" stroke-width="1" fill="none" />
<path d="M404.59016393442624,946.8524590163935 L404.59016393442624,944.4098360655738" stroke="red" stroke-width="1" fill="none" />
<path d="M404.59016393442624,944.4098360655738 L404.59016393442624,941.9672131147541" stroke="red" stroke-width="1" fill="none" />
<path d="M355.73770491803276,893.1147540983607 L350.8524590163934,893.1147540983607" stroke="red" stroke-width="1" fill="none" />
<path d="M350.8524590163934,893.1147540983607 L348.40983606557376,893.1147540983607" stroke="red" stroke-width="1" fill="none" />
<path d="M348.40983606557376,893.1147540983607 L345.9672131147541,893.1147540983607" stroke="red" stroke-width="1" fill="none" />
<path d="M345.9672131147541,893.1147540983607 L341.08196721311475,902.8852459016393" stroke="red" stroke-width="1" fill="none" />
<path d="M341.08196721311475,902.8852459016393 L258.0327868852459,902.8852459016393" stroke="red" stroke-width="1" fill="none" />
<path d="M277.57377049180326,844.2622950819673 L341.08196721311475,844.2622950819673" stroke="red" stroke-width="1" fill="none" />
<path d="M341.08196721311475,844.2622950819673 L345.9672131147541,854.032786885246" stroke="red" stroke-width="1" fill="none" />
<path d="M345.9672131147541,854.032786885246 L348.40983606557376,854.032786885246" stroke="red" stroke-width="1" fill="none" />
<path d="M348.40983606557376,854.032786885246 L350.8524590163934,854.032786885246" stroke="red" stroke-width="1" fill="none" />
<path d="M350.8524590163934,854.032786885246 L355.73770491803276,854.032786885246" stroke="red" stroke-width="1" fill="none" />
<path d="M460.7704918032786,812.5081967213115 L465.65573770491795,807.6229508196722" stroke="red" stroke-width="1" fill="none" />
<path d="M465.65573770491795,807.6229508196722 L470.5409836065573,802.7377049180328" stroke="red" stroke-width="1" fill="none" />
<path d="M470.5409836065573,802.7377049180328 L475.42622950819674,797.8524590163935" stroke="red" stroke-width="1" fill="none" />
<path d="M475.42622950819674,797.8524590163935 L551.1475409836066,648.8524590163935" stroke="red" stroke-width="1" fill="none" />
<path d="M609.7704918032787,824.7213114754098 L502.2950819672131,824.7213114754098" stroke="red" stroke-width="1" fill="none" />
<path d="M502.2950819672131,824.7213114754098 L497.40983606557376,829.6065573770492" stroke="red" stroke-width="1" fill="none" />
<path d="M497.40983606557376,829.6065573770492 L492.5245901639344,834.4918032786885" stroke="red" stroke-width="1" fill="none" />
<path d="M492.5245901639344,834.4918032786885 L487.6393442622951,839.3770491803278" stroke="red" stroke-width="1" fill="none" />
<path d="M485.1967213114754,910.2131147540983 L490.08196721311475,915.0983606557377" stroke="red" stroke-width="1" fill="none" />
<path d="M490.08196721311475,915.0983606557377 L494.9672131147541,919.983606557377" stroke="red" stroke-width="1" fill="none" />
<path d="M494.9672131147541,919.983606557377 L499.8524590163934,924.8688524590165" stroke="red" stroke-width="1" fill="none" />
<path d="M499.8524590163934,924.8688524590165 L512.0655737704917,924.8688524590165" stroke="red" stroke-width="1" fill="none" />
<path d="M512.0655737704917,924.8688524590165 L531.6065573770491,1020.1311475409836" stroke="red" stroke-width="1" fill="none" />
<path d="M472.98360655737696,1137.377049180328 L472.98360655737696,951.7377049180328" stroke="red" stroke-width="1" fill="none" />
<path d="M472.98360655737696,951.7377049180328 L468.0983606557376,946.8524590163935" stroke="red" stroke-width="1" fill="none" />
<path d="M468.0983606557376,946.8524590163935 L463.2131147540983,941.9672131147541" stroke="red" stroke-width="1" fill="none" />
<path d="M463.2131147540983,941.9672131147541 L458.32786885245895,937.0819672131148" stroke="red" stroke-width="1" fill="none" />
<path d="M358.18032786885243,915.0983606557377 L363.06557377049177,910.2131147540983" stroke="red" stroke-width="1" fill="none" />
<path d="M353.2950819672131,919.983606557377 L358.18032786885243,915.0983606557377" stroke="red" stroke-width="1" fill="none" />
<path d="M348.40983606557376,924.8688524590165 L353.2950819672131,919.983606557377" stroke="red" stroke-width="1" fill="none" />
<path d="M121.24590163934425,922.4262295081967 L348.40983606557376,924.8688524590165" stroke="red" stroke-width="1" fill="none" />
<path d="M375.2786885245901,951.7377049180328 L121.24590163934425,951.7377049180328" stroke="red" stroke-width="1" fill="none" />
<path d="M380.16393442622945,946.8524590163935 L375.2786885245901,951.7377049180328" stroke="red" stroke-width="1" fill="none" />
<path d="M385.0491803278688,941.9672131147541 L380.16393442622945,946.8524590163935" stroke="red" stroke-width="1" fill="none" />
<path d="M389.9344262295081,937.0819672131148 L385.0491803278688,941.9672131147541" stroke="red" stroke-width="1" fill="none" />
<path d="M358.18032786885243,836.9344262295082 L358.18032786885243,832.0491803278688" stroke="red" stroke-width="1" fill="none" />
<path d="M358.18032786885243,832.0491803278688 L353.2950819672131,827.1639344262295" stroke="red" stroke-width="1" fill="none" />
<path d="M353.2950819672131,827.1639344262295 L348.40983606557376,822.2786885245902" stroke="red" stroke-width="1" fill="none" />
<path d="M348.40983606557376,822.2786885245902 L297.1147540983606,822.2786885245902" stroke="red" stroke-width="1" fill="none" />
<path d="M297.1147540983606,648.8524590163935 L375.2786885245901,727.016393442623" stroke="red" stroke-width="1" fill="none" />
<path d="M375.2786885245901,727.016393442623 L375.2786885245901,795.4098360655738" stroke="red" stroke-width="1" fill="none" />
<path d="M375.2786885245901,795.4098360655738 L380.16393442622945,800.2950819672132" stroke="red" stroke-width="1" fill="none" />
<path d="M380.16393442622945,800.2950819672132 L385.0491803278688,805.1803278688525" stroke="red" stroke-width="1" fill="none" />
<path d="M385.0491803278688,805.1803278688525 L389.9344262295081,805.1803278688525" stroke="red" stroke-width="1" fill="none" />
<path d="M394.81967213114757,727.016393442623 L375.2786885245901,707.4754098360656" stroke="red" stroke-width="1" fill="none" />
<path d="M375.2786885245901,707.4754098360656 L375.2786885245901,648.8524590163935" stroke="red" stroke-width="1" fill="none" />
<path d="M375.2786885245901,648.8524590163935 L355.73770491803276,629.311475409836" stroke="red" stroke-width="1" fill="none" />
<path d="M472.98360655737696,707.4754098360656 L453.4426229508196,727.016393442623" stroke="red" stroke-width="1" fill="none" />
<path d="M472.98360655737696,648.8524590163935 L472.98360655737696,707.4754098360656" stroke="red" stroke-width="1" fill="none" />
<path d="M492.5245901639344,629.311475409836 L472.98360655737696,648.8524590163935" stroke="red" stroke-width="1" fill="none" />
<path d="M355.73770491803276,609.7704918032787 L355.73770491803276,590.2295081967213" stroke="red" stroke-width="1" fill="none" />
<path d="M355.73770491803276,570.688524590164 L355.73770491803276,541.377049180328" stroke="red" stroke-width="1" fill="none" />
<path d="M355.73770491803276,521.8360655737706 L355.73770491803276,472.983606557377" stroke="red" stroke-width="1" fill="none" />
<path d="M355.73770491803276,453.44262295081967 L355.73770491803276,258.03278688524597" stroke="red" stroke-width="1" fill="none" />
<path d="M404.59016393442624,258.03278688524597 L492.5245901639344,258.03278688524597" stroke="red" stroke-width="1" fill="none" />
<path d="M492.5245901639344,258.03278688524597 L492.5245901639344,433.9016393442623" stroke="red" stroke-width="1" fill="none" />
<path d="M492.5245901639344,453.44262295081967 L492.5245901639344,482.7540983606557" stroke="red" stroke-width="1" fill="none" />
<path d="M492.5245901639344,502.29508196721326 L492.5245901639344,551.1475409836066" stroke="red" stroke-width="1" fill="none" />
<path d="M492.5245901639344,570.688524590164 L492.5245901639344,590.2295081967213" stroke="red" stroke-width="1" fill="none" />
<path d="M492.5245901639344,609.7704918032787 L492.5245901639344,629.311475409836" stroke="red" stroke-width="1" fill="none" />
<path d="M531.6065573770491,609.7704918032787 L492.5245901639344,609.7704918032787" stroke="red" stroke-width="1" fill="none" />
<path d="M531.6065573770491,590.2295081967213 L531.6065573770491,609.7704918032787" stroke="red" stroke-width="1" fill="none" />
<path d="M492.5245901639344,590.2295081967213 L531.6065573770491,590.2295081967213" stroke="red" stroke-width="1" fill="none" />
<path d="M355.73770491803276,629.311475409836 L316.655737704918,629.311475409836" stroke="red" stroke-width="1" fill="none" />
<path d="M316.655737704918,629.311475409836 L316.655737704918,609.7704918032787" stroke="red" stroke-width="1" fill="none" />
<path d="M316.655737704918,609.7704918032787 L355.73770491803276,609.7704918032787" stroke="red" stroke-width="1" fill="none" />
<path d="M355.73770491803276,590.2295081967213 L316.655737704918,590.2295081967213" stroke="red" stroke-width="1" fill="none" />
<path d="M316.655737704918,590.2295081967213 L316.655737704918,570.688524590164" stroke="red" stroke-width="1" fill="none" />
<path d="M316.655737704918,570.688524590164 L355.73770491803276,570.688524590164" stroke="red" stroke-width="1" fill="none" />
<path d="M355.73770491803276,541.377049180328 L316.655737704918,541.377049180328" stroke="red" stroke-width="1" fill="none" />
<path d="M316.655737704918,541.377049180328 L316.655737704918,521.8360655737706" stroke="red" stroke-width="1" fill="none" />
<path d="M316.655737704918,521.8360655737706 L355.73770491803276,521.8360655737706" stroke="red" stroke-width="1" fill="none" />
<path d="M355.73770491803276,472.983606557377 L316.655737704918,472.983606557377" stroke="red" stroke-width="1" fill="none" />
<path d="M316.655737704918,472.983606557377 L316.655737704918,453.44262295081967" stroke="red" stroke-width="1" fill="none" />
<path d="M316.655737704918,453.44262295081967 L355.73770491803276,453.44262295081967" stroke="red" stroke-width="1" fill="none" />
<path d="M492.5245901639344,433.9016393442623 L531.6065573770491,433.9016393442623" stroke="red" stroke-width="1" fill="none" />
<path d="M531.6065573770491,433.9016393442623 L531.6065573770491,453.44262295081967" stroke="red" stroke-width="1" fill="none" />
<path d="M531.6065573770491,453.44262295081967 L492.5245901639344,453.44262295081967" stroke="red" stroke-width="1" fill="none" />
<path d="M492.5245901639344,482.7540983606557 L531.6065573770491,482.7540983606557" stroke="red" stroke-width="1" fill="none" />
<path d="M531.6065573770491,482.7540983606557 L531.6065573770491,502.29508196721326" stroke="red" stroke-width="1" fill="none" />
<path d="M531.6065573770491,502.29508196721326 L492.5245901639344,502.29508196721326" stroke="red" stroke-width="1" fill="none" />
<path d="M492.5245901639344,551.1475409836066 L531.6065573770491,551.1475409836066" stroke="red" stroke-width="1" fill="none" />
<path d="M531.6065573770491,551.1475409836066 L531.6065573770491,570.688524590164" stroke="red" stroke-width="1" fill="none" />
<path d="M531.6065573770491,570.688524590164 L492.5245901639344,570.688524590164" stroke="red" stroke-width="1" fill="none" />
<path d="M385.0491803278688,326.4262295081967 L404.59016393442624,326.4262295081967" stroke="lavender" stroke-width="1" fill="none" />
<path d="M404.59016393442624,326.4262295081967 L404.59016393442624,306.88524590163934" stroke="lavender" stroke-width="1" fill="none" />
<path d="M404.59016393442624,306.88524590163934 L385.0491803278688,306.88524590163934" stroke="lavender" stroke-width="1" fill="none" />
<path d="M385.0491803278688,306.88524590163934 L385.0491803278688,326.4262295081967" stroke="lavender" stroke-width="1" fill="none" />
<path d="M443.67213114754094,326.4262295081967 L463.2131147540983,326.4262295081967" stroke="lavender" stroke-width="1" fill="none" />
<path d="M463.2131147540983,326.4262295081967 L463.2131147540983,306.88524590163934" stroke="lavender" stroke-width="1" fill="none" />
<path d="M463.2131147540983,306.88524590163934 L443.67213114754094,306.88524590163934" stroke="lavender" stroke-width="1" fill="none" />
<path d="M443.67213114754094,306.88524590163934 L443.67213114754094,326.4262295081967" stroke="lavender" stroke-width="1" fill="none" />
<path d="M355.73770491803276,258.03278688524597 L385.0491803278688,258.03278688524597" stroke="red" stroke-width="1" fill="none" />
<path d="M385.0491803278688,258.03278688524597 L385.0491803278688,253.14754098360663" stroke="red" stroke-width="1" fill="none" />
<path d="M385.0491803278688,253.14754098360663 L404.59016393442624,253.14754098360663" stroke="lavender" stroke-width="1" fill="none" />
<path d="M404.59016393442624,253.14754098360663 L404.59016393442624,258.03278688524597" stroke="red" stroke-width="1" fill="none" />
<path d="M551.1475409836066,648.8524590163935 L668.3934426229507,590.2295081967213" stroke="red" stroke-width="1" fill="none" />
<path d="M668.3934426229507,590.2295081967213 L668.3934426229507,551.1475409836066" stroke="red" stroke-width="1" fill="none" />
<path d="M668.3934426229507,551.1475409836066 L697.7049180327867,551.1475409836066" stroke="red" stroke-width="1" fill="none" />
<path d="M697.7049180327867,551.1475409836066 L697.7049180327867,580.4590163934427" stroke="red" stroke-width="1" fill="none" />
<path d="M697.7049180327867,580.4590163934427 L707.4754098360656,580.4590163934427" stroke="red" stroke-width="1" fill="none" />
<path d="M707.4754098360656,580.4590163934427 L707.4754098360656,553.5901639344263" stroke="red" stroke-width="1" fill="none" />
<path d="M746.5573770491803,553.5901639344263 L746.5573770491803,580.4590163934427" stroke="red" stroke-width="1" fill="none" />
<path d="M746.5573770491803,580.4590163934427 L756.327868852459,580.4590163934427" stroke="red" stroke-width="1" fill="none" />
<path d="M756.327868852459,580.4590163934427 L756.327868852459,551.1475409836066" stroke="red" stroke-width="1" fill="none" />
<path d="M756.327868852459,551.1475409836066 L785.639344262295,551.1475409836066" stroke="red" stroke-width="1" fill="none" />
<path d="M785.639344262295,551.1475409836066 L785.639344262295,590.2295081967213" stroke="red" stroke-width="1" fill="none" />
<path d="M785.639344262295,590.2295081967213 L863.8032786885246,648.8524590163935" stroke="red" stroke-width="1" fill="none" />
<path d="M844.2622950819673,824.7213114754098 L824.7213114754097,844.2622950819673" stroke="red" stroke-width="1" fill="none" />
<path d="M629.311475409836,844.2622950819673 L609.7704918032787,824.7213114754098" stroke="red" stroke-width="1" fill="none" />
<path d="M727.016393442623,844.2622950819673 L687.9344262295081,883.344262295082" stroke="red" stroke-width="1" fill="none" />
<path d="M687.9344262295081,883.344262295082 L668.3934426229507,922.4262295081967" stroke="red" stroke-width="1" fill="none" />
<path d="M668.3934426229507,922.4262295081967 L648.8524590163934,922.4262295081967" stroke="lavender" stroke-width="1" fill="none" />
<path d="M648.8524590163934,922.4262295081967 L629.311475409836,883.344262295082" stroke="red" stroke-width="1" fill="none" />
<path d="M629.311475409836,883.344262295082 L629.311475409836,844.2622950819673" stroke="red" stroke-width="1" fill="none" />
<path d="M785.639344262295,922.4262295081967 L766.0983606557377,883.344262295082" stroke="red" stroke-width="1" fill="none" />
<path d="M766.0983606557377,883.344262295082 L727.016393442623,844.2622950819673" stroke="red" stroke-width="1" fill="none" />
<path d="M824.7213114754097,844.2622950819673 L824.7213114754097,883.344262295082" stroke="red" stroke-width="1" fill="none" />
<path d="M824.7213114754097,883.344262295082 L805.1803278688524,922.4262295081967" stroke="red" stroke-width="1" fill="none" />
<path d="M805.1803278688524,922.4262295081967 L785.639344262295,922.4262295081967" stroke="lavender" stroke-width="1" fill="none" />
<path d="M707.4754098360656,553.5901639344263 L707.4754098360656,551.1475409836066" stroke="red" stroke-width="1" fill="none" />
<path d="M746.5573770491803,551.1475409836066 L746.5573770491803,553.5901639344263" stroke="red" stroke-width="1" fill="none" />
<path d="M707.4754098360656,551.1475409836066 L707.4754098360656,531.6065573770493" stroke="red" stroke-width="1" fill="none" />
<path d="M746.5573770491803,531.6065573770493 L746.5573770491803,551.1475409836066" stroke="red" stroke-width="1" fill="none" />
<path d="M707.4754098360656,531.6065573770493 L707.4754098360656,512.0655737704919" stroke="red" stroke-width="1" fill="none" />
<path d="M746.5573770491803,512.0655737704919 L746.5573770491803,531.6065573770493" stroke="red" stroke-width="1" fill="none" />
<path d="M707.4754098360656,512.0655737704919 L707.4754098360656,504.73770491803293" stroke="red" stroke-width="1" fill="none" />
<path d="M746.5573770491803,504.73770491803293 L746.5573770491803,512.0655737704919" stroke="red" stroke-width="1" fill="none" />
<path d="M863.8032786885246,707.4754098360656 L863.8032786885246,785.6393442622951" stroke="red" stroke-width="1" fill="none" />
<path d="M863.8032786885246,785.6393442622951 L844.2622950819673,824.7213114754098" stroke="red" stroke-width="1" fill="none" />
<path d="M863.8032786885246,648.8524590163935 L863.8032786885246,707.4754098360656" stroke="red" stroke-width="1" fill="none" />
<path d="M590.2295081967213,902.8852459016393 L590.2295081967213,922.4262295081967" stroke="red" stroke-width="1" fill="none" />
<path d="M551.1475409836066,883.344262295082 L570.688524590164,883.344262295082" stroke="red" stroke-width="1" fill="none" />
<path d="M570.688524590164,883.344262295082 L570.688524590164,863.8032786885246" stroke="red" stroke-width="1" fill="none" />
<path d="M570.688524590164,863.8032786885246 L551.1475409836066,863.8032786885246" stroke="red" stroke-width="1" fill="none" />
<path d="M551.1475409836066,863.8032786885246 L551.1475409836066,883.344262295082" stroke="red" stroke-width="1" fill="none" />
<path d="M551.1475409836066,902.8852459016393 L551.1475409836066,922.4262295081967" stroke="red" stroke-width="1" fill="none" />
<path d="M551.1475409836066,922.4262295081967 L570.688524590164,922.4262295081967" stroke="red" stroke-width="1" fill="none" />
<path d="M570.688524590164,922.4262295081967 L570.688524590164,902.8852459016393" stroke="red" stroke-width="1" fill="none" />
<path d="M570.688524590164,902.8852459016393 L551.1475409836066,902.8852459016393" stroke="red" stroke-width="1" fill="none" />
<path d="M590.2295081967213,922.4262295081967 L590.2295081967213,941.9672131147541" stroke="red" stroke-width="1" fill="none" />
<path d="M590.2295081967213,883.344262295082 L590.2295081967213,902.8852459016393" stroke="red" stroke-width="1" fill="none" />
<path d="M590.2295081967213,863.8032786885246 L590.2295081967213,883.344262295082" stroke="red" stroke-width="1" fill="none" />
<path d="M941.967213114754,844.2622950819673 L981.049180327869,844.2622950819673" stroke="red" stroke-width="1" fill="none" />
<path d="M981.049180327869,844.2622950819673 L981.049180327869,824.7213114754098" stroke="red" stroke-width="1" fill="none" />
<path d="M1000.5901639344263,824.7213114754098 L1000.5901639344263,844.2622950819673" stroke="red" stroke-width="1" fill="none" />
<path d="M1000.5901639344263,844.2622950819673 L1039.672131147541,844.2622950819673" stroke="red" stroke-width="1" fill="none" />
<path d="M1098.295081967213,902.8852459016393 L1098.295081967213,941.9672131147541" stroke="red" stroke-width="1" fill="none" />
<path d="M1098.295081967213,941.9672131147541 L1117.8360655737704,941.9672131147541" stroke="red" stroke-width="1" fill="none" />
<path d="M1117.8360655737704,941.9672131147541 L1117.8360655737704,961.5081967213115" stroke="red" stroke-width="1" fill="none" />
<path d="M1117.8360655737704,961.5081967213115 L1098.295081967213,961.5081967213115" stroke="red" stroke-width="1" fill="none" />
<path d="M1098.295081967213,961.5081967213115 L1098.295081967213,1000.5901639344263" stroke="red" stroke-width="1" fill="none" />
<path d="M1039.672131147541,1059.2131147540983 L1000.5901639344263,1059.2131147540983" stroke="red" stroke-width="1" fill="none" />
<path d="M1000.5901639344263,1059.2131147540983 L1000.5901639344263,1078.7540983606557" stroke="red" stroke-width="1" fill="none" />
<path d="M981.049180327869,1078.7540983606557 L981.049180327869,1059.2131147540983" stroke="red" stroke-width="1" fill="none" />
<path d="M981.049180327869,1059.2131147540983 L941.967213114754,1059.2131147540983" stroke="red" stroke-width="1" fill="none" />
<path d="M883.344262295082,1000.5901639344263 L883.344262295082,961.5081967213115" stroke="red" stroke-width="1" fill="none" />
<path d="M883.344262295082,961.5081967213115 L863.8032786885246,961.5081967213115" stroke="red" stroke-width="1" fill="none" />
<path d="M863.8032786885246,961.5081967213115 L863.8032786885246,941.9672131147541" stroke="red" stroke-width="1" fill="none" />
<path d="M863.8032786885246,941.9672131147541 L883.344262295082,941.9672131147541" stroke="red" stroke-width="1" fill="none" />
<path d="M883.344262295082,941.9672131147541 L883.344262295082,902.8852459016393" stroke="red" stroke-width="1" fill="none" />
<path d="M1039.672131147541,844.2622950819673 L1044.5573770491803,839.3770491803278" stroke="red" stroke-width="1" fill="none" />
<path d="M1044.5573770491803,839.3770491803278 L1064.0983606557377,858.9180327868853" stroke="red" stroke-width="1" fill="none" />
<path d="M1103.1803278688524,898.0 L1098.295081967213,902.8852459016393" stroke="red" stroke-width="1" fill="none" />
<path d="M1098.295081967213,1000.5901639344263 L1103.1803278688524,1005.4754098360656" stroke="red" stroke-width="1" fill="none" />
<path d="M1103.1803278688524,1005.4754098360656 L1044.5573770491803,1064.0983606557377" stroke="red" stroke-width="1" fill="none" />
<path d="M1044.5573770491803,1064.0983606557377 L1039.672131147541,1059.2131147540983" stroke="red" stroke-width="1" fill="none" />
<path d="M1086.0819672131147,880.9016393442623 L1103.1803278688524,898.0" stroke="red" stroke-width="1" fill="none" />
<path d="M1064.0983606557377,858.9180327868853 L1078.7540983606557,844.2622950819673" stroke="red" stroke-width="1" fill="none" />
<path d="M1078.7540983606557,844.2622950819673 L1078.7540983606557,805.1803278688525" stroke="red" stroke-width="1" fill="none" />
<path d="M1078.7540983606557,805.1803278688525 L1059.2131147540983,785.6393442622951" stroke="red" stroke-width="1" fill="none" />
<path d="M1059.2131147540983,785.6393442622951 L1044.5573770491803,790.5245901639345" stroke="red" stroke-width="1" fill="none" />
<path d="M1044.5573770491803,790.5245901639345 L1044.5573770491803,805.1803278688525" stroke="red" stroke-width="1" fill="none" />
<path d="M1044.5573770491803,805.1803278688525 L1064.0983606557377,817.3934426229508" stroke="red" stroke-width="1" fill="none" />
<path d="M1064.0983606557377,817.3934426229508 L1039.672131147541,834.4918032786885" stroke="red" stroke-width="1" fill="none" />
<path d="M1039.672131147541,834.4918032786885 L1020.1311475409836,824.7213114754098" stroke="red" stroke-width="1" fill="none" />
<path d="M1020.1311475409836,824.7213114754098 L1025.016393442623,766.0983606557377" stroke="red" stroke-width="1" fill="none" />
<path d="M1025.016393442623,766.0983606557377 L1059.2131147540983,766.0983606557377" stroke="red" stroke-width="1" fill="none" />
<path d="M1059.2131147540983,766.0983606557377 L1078.7540983606557,746.5573770491803" stroke="red" stroke-width="1" fill="none" />
<path d="M1078.7540983606557,746.5573770491803 L1078.7540983606557,668.3934426229508" stroke="red" stroke-width="1" fill="none" />
<path d="M1078.7540983606557,668.3934426229508 L1137.3770491803277,668.3934426229508" stroke="red" stroke-width="1" fill="none" />
<path d="M1137.3770491803277,668.3934426229508 L1156.9180327868853,707.4754098360656" stroke="red" stroke-width="1" fill="none" />
<path d="M1156.9180327868853,707.4754098360656 L1137.3770491803277,727.016393442623" stroke="red" stroke-width="1" fill="none" />
<path d="M1137.3770491803277,727.016393442623 L1108.0655737704917,727.016393442623" stroke="red" stroke-width="1" fill="none" />
<path d="M1108.0655737704917,727.016393442623 L1108.0655737704917,707.4754098360656" stroke="red" stroke-width="1" fill="none" />
<path d="M1108.0655737704917,707.4754098360656 L1127.606557377049,700.1475409836066" stroke="red" stroke-width="1" fill="none" />
<path d="M1127.606557377049,700.1475409836066 L1098.295081967213,687.9344262295083" stroke="red" stroke-width="1" fill="none" />
<path d="M1098.295081967213,687.9344262295083 L1098.295081967213,746.5573770491803" stroke="red" stroke-width="1" fill="none" />
<path d="M1098.295081967213,746.5573770491803 L1117.8360655737704,766.0983606557377" stroke="red" stroke-width="1" fill="none" />
<path d="M1117.8360655737704,766.0983606557377 L1139.8196721311476,766.0983606557377" stroke="red" stroke-width="1" fill="none" />
<path d="M1139.8196721311476,766.0983606557377 L1149.5901639344263,839.3770491803278" stroke="red" stroke-width="1" fill="none" />
<path d="M1149.5901639344263,839.3770491803278 L1174.016393442623,817.3934426229508" stroke="red" stroke-width="1" fill="none" />
<path d="M1174.016393442623,817.3934426229508 L1156.9180327868853,746.5573770491803" stroke="red" stroke-width="1" fill="none" />
<path d="M1156.9180327868853,746.5573770491803 L1156.9180327868853,727.016393442623" stroke="red" stroke-width="1" fill="none" />
<path d="M1156.9180327868853,727.016393442623 L1176.4590163934427,727.016393442623" stroke="red" stroke-width="1" fill="none" />
<path d="M1196.0,727.016393442623 L1196.0,844.2622950819673" stroke="red" stroke-width="1" fill="none" />
<path d="M1196.0,844.2622950819673 L1147.1475409836066,871.1311475409836" stroke="red" stroke-width="1" fill="none" />
<path d="M1147.1475409836066,871.1311475409836 L1117.8360655737704,844.2622950819673" stroke="red" stroke-width="1" fill="none" />
<path d="M1117.8360655737704,844.2622950819673 L1086.0819672131147,880.9016393442623" stroke="red" stroke-width="1" fill="none" />
<path d="M1176.4590163934427,727.016393442623 L1196.0,727.016393442623" stroke="red" stroke-width="1" fill="none" />
<path d="M531.6065573770491,1020.1311475409836 L600.0,1020.1311475409836" stroke="red" stroke-width="1" fill="none" />
<path d="M600.0,1020.1311475409836 L619.5409836065573,1020.1311475409836" stroke="red" stroke-width="1" fill="none" />
<path d="M619.5409836065573,1020.1311475409836 L658.622950819672,1000.5901639344263" stroke="red" stroke-width="1" fill="none" />
<path d="M658.622950819672,1000.5901639344263 L668.3934426229507,1000.5901639344263" stroke="red" stroke-width="1" fill="none" />
<path d="M668.3934426229507,1156.9180327868853 L658.622950819672,1156.9180327868853" stroke="red" stroke-width="1" fill="none" />
<path d="M658.622950819672,1156.9180327868853 L619.5409836065573,1137.377049180328" stroke="red" stroke-width="1" fill="none" />
<path d="M619.5409836065573,1137.377049180328 L600.0,1137.377049180328" stroke="red" stroke-width="1" fill="none" />
<path d="M600.0,1137.377049180328 L472.98360655737696,1137.377049180328" stroke="red" stroke-width="1" fill="none" />
<path d="M668.3934426229507,1000.5901639344263 L814.950819672131,1000.5901639344263" stroke="red" stroke-width="1" fill="none" />
<path d="M814.950819672131,1000.5901639344263 L814.950819672131,1049.4426229508197" stroke="red" stroke-width="1" fill="none" />
<path d="M814.950819672131,1156.9180327868853 L668.3934426229507,1156.9180327868853" stroke="red" stroke-width="1" fill="none" />
<path d="M814.950819672131,1049.4426229508197 L834.4918032786886,1049.4426229508197" stroke="red" stroke-width="1" fill="none" />
<path d="M834.4918032786886,1049.4426229508197 L834.4918032786886,1068.983606557377" stroke="lavender" stroke-width="1" fill="none" />
<path d="M834.4918032786886,1068.983606557377 L814.950819672131,1068.983606557377" stroke="red" stroke-width="1" fill="none" />
<path d="M814.950819672131,1108.065573770492 L814.950819672131,1156.9180327868853" stroke="red" stroke-width="1" fill="none" />
<path d="M883.344262295082,1108.065573770492 L814.950819672131,1108.065573770492" stroke="red" stroke-width="1" fill="none" />
<path d="M883.344262295082,1088.5245901639346 L883.344262295082,1108.065573770492" stroke="red" stroke-width="1" fill="none" />
<path d="M814.950819672131,1088.5245901639346 L883.344262295082,1088.5245901639346" stroke="red" stroke-width="1" fill="none" />
<path d="M814.950819672131,1068.983606557377 L814.950819672131,1088.5245901639346" stroke="red" stroke-width="1" fill="none" />
<path d="M941.967213114754,1059.2131147540983 L902.8852459016393,1098.2950819672133" stroke="red" stroke-width="1" fill="none" />
<path d="M902.8852459016393,1098.2950819672133 L844.2622950819673,1039.672131147541" stroke="red" stroke-width="1" fill="none" />
<path d="M844.2622950819673,1039.672131147541 L883.344262295082,1000.5901639344263" stroke="red" stroke-width="1" fill="none" />
<path d="M883.344262295082,902.8852459016393 L844.2622950819673,863.8032786885246" stroke="red" stroke-width="1" fill="none" />
<path d="M844.2622950819673,863.8032786885246 L902.8852459016393,805.1803278688525" stroke="red" stroke-width="1" fill="none" />
<path d="M902.8852459016393,805.1803278688525 L941.967213114754,844.2622950819673" stroke="red" stroke-width="1" fill="none" />
<path d="M961.5081967213114,961.5081967213115 L981.049180327869,961.5081967213115" stroke="lavender" stroke-width="1" fill="none" />
<path d="M981.049180327869,961.5081967213115 L981.049180327869,941.9672131147541" stroke="red" stroke-width="1" fill="none" />
<path d="M981.049180327869,941.9672131147541 L961.5081967213114,941.9672131147541" stroke="lavender" stroke-width="1" fill="none" />
<path d="M961.5081967213114,941.9672131147541 L961.5081967213114,961.5081967213115" stroke="red" stroke-width="1" fill="none" />
<path d="M470.5409836065573,1039.672131147541 L414.3606557377049,1117.8360655737706" stroke="red" stroke-width="1" fill="none" />
<path d="M414.3606557377049,1117.8360655737706 L375.2786885245901,1117.8360655737706" stroke="red" stroke-width="1" fill="none" />
<path d="M375.2786885245901,981.0491803278688 L394.81967213114757,961.5081967213115" stroke="red" stroke-width="1" fill="none" />
<path d="M375.2786885245901,1117.8360655737706 L365.50819672131144,1117.8360655737706" stroke="red" stroke-width="1" fill="none" />
<path d="M277.57377049180326,1117.8360655737706 L238.4918032786885,1078.7540983606557" stroke="red" stroke-width="1" fill="none" />
<path d="M238.4918032786885,1078.7540983606557 L199.40983606557376,1078.7540983606557" stroke="red" stroke-width="1" fill="none" />
<path d="M199.40983606557376,1029.9016393442623 L199.40983606557376,1020.1311475409836" stroke="red" stroke-width="1" fill="none" />
<path d="M199.40983606557376,1020.1311475409836 L238.4918032786885,1020.1311475409836" stroke="red" stroke-width="1" fill="none" />
<path d="M238.4918032786885,1020.1311475409836 L277.57377049180326,981.0491803278688" stroke="red" stroke-width="1" fill="none" />
<path d="M365.50819672131144,981.0491803278688 L375.2786885245901,981.0491803278688" stroke="red" stroke-width="1" fill="none" />
<path d="M277.57377049180326,981.0491803278688 L297.1147540983606,981.0491803278688" stroke="red" stroke-width="1" fill="none" />
<path d="M297.1147540983606,981.0491803278688 L306.88524590163934,981.0491803278688" stroke="red" stroke-width="1" fill="none" />
<path d="M306.88524590163934,981.0491803278688 L355.73770491803276,981.0491803278688" stroke="red" stroke-width="1" fill="none" />
<path d="M355.73770491803276,981.0491803278688 L365.50819672131144,981.0491803278688" stroke="red" stroke-width="1" fill="none" />
<path d="M365.50819672131144,1117.8360655737706 L355.73770491803276,1117.8360655737706" stroke="red" stroke-width="1" fill="none" />
<path d="M355.73770491803276,1117.8360655737706 L326.42622950819674,1117.8360655737706" stroke="red" stroke-width="1" fill="none" />
<path d="M326.42622950819674,1117.8360655737706 L316.655737704918,1117.8360655737706" stroke="red" stroke-width="1" fill="none" />
<path d="M316.655737704918,1117.8360655737706 L277.57377049180326,1117.8360655737706" stroke="red" stroke-width="1" fill="none" />
<path d="M199.40983606557376,1039.672131147541 L199.40983606557376,1029.9016393442623" stroke="red" stroke-width="1" fill="none" />
<path d="M189.63934426229508,1039.672131147541 L199.40983606557376,1039.672131147541" stroke="red" stroke-width="1" fill="none" />
<path d="M179.8688524590164,1039.672131147541 L189.63934426229508,1039.672131147541" stroke="red" stroke-width="1" fill="none" />
<path d="M179.8688524590164,1059.2131147540983 L179.8688524590164,1039.672131147541" stroke="lavender" stroke-width="1" fill="none" />
<path d="M189.63934426229508,1059.2131147540983 L179.8688524590164,1059.2131147540983" stroke="red" stroke-width="1" fill="none" />
<path d="M199.40983606557376,1059.2131147540983 L189.63934426229508,1059.2131147540983" stroke="red" stroke-width="1" fill="none" />
<path d="M199.40983606557376,1068.983606557377 L199.40983606557376,1059.2131147540983" stroke="red" stroke-width="1" fill="none" />
<path d="M199.40983606557376,1078.7540983606557 L199.40983606557376,1068.983606557377" stroke="red" stroke-width="1" fill="none" />
<path d="M981.049180327869,824.7213114754098 L981.049180327869,822.2786885245902" stroke="red" stroke-width="1" fill="none" />
<path d="M981.049180327869,822.2786885245902 L981.049180327869,805.1803278688525" stroke="red" stroke-width="1" fill="none" />
<path d="M981.049180327869,805.1803278688525 L1000.5901639344263,805.1803278688525" stroke="red" stroke-width="1" fill="none" />
<path d="M1000.5901639344263,805.1803278688525 L1000.5901639344263,822.2786885245902" stroke="red" stroke-width="1" fill="none" />
<path d="M1000.5901639344263,822.2786885245902 L1000.5901639344263,824.7213114754098" stroke="red" stroke-width="1" fill="none" />
<path d="M1000.5901639344263,1078.7540983606557 L1000.5901639344263,1081.1967213114754" stroke="red" stroke-width="1" fill="none" />
<path d="M1000.5901639344263,1081.1967213114754 L1000.5901639344263,1108.065573770492" stroke="red" stroke-width="1" fill="none" />
<path d="M1000.5901639344263,1108.065573770492 L981.049180327869,1108.065573770492" stroke="red" stroke-width="1" fill="none" />
<path d="M981.049180327869,1108.065573770492 L981.049180327869,1081.1967213114754" stroke="red" stroke-width="1" fill="none" />
<path d="M981.049180327869,1081.1967213114754 L981.049180327869,1078.7540983606557" stroke="red" stroke-width="1" fill="none" />
<path d="M707.4754098360656,502.29508196721326 L707.4754098360656,472.983606557377" stroke="red" stroke-width="1" fill="none" />
<path d="M707.4754098360656,472.983606557377 L707.4754098360656,453.44262295081967" stroke="red" stroke-width="1" fill="none" />
<path d="M707.4754098360656,453.44262295081967 L707.4754098360656,414.360655737705" stroke="red" stroke-width="1" fill="none" />
<path d="M707.4754098360656,414.360655737705 L707.4754098360656,394.8196721311476" stroke="red" stroke-width="1" fill="none" />
<path d="M746.5573770491803,394.8196721311476 L746.5573770491803,414.360655737705" stroke="red" stroke-width="1" fill="none" />
<path d="M746.5573770491803,414.360655737705 L746.5573770491803,453.44262295081967" stroke="red" stroke-width="1" fill="none" />
<path d="M746.5573770491803,453.44262295081967 L746.5573770491803,472.983606557377" stroke="red" stroke-width="1" fill="none" />
<path d="M746.5573770491803,472.983606557377 L746.5573770491803,502.29508196721326" stroke="red" stroke-width="1" fill="none" />
<path d="M746.5573770491803,502.29508196721326 L746.5573770491803,504.73770491803293" stroke="red" stroke-width="1" fill="none" />
<path d="M707.4754098360656,504.73770491803293 L707.4754098360656,502.29508196721326" stroke="red" stroke-width="1" fill="none" />
<path d="M707.4754098360656,238.49180327868862 L707.4754098360656,218.95081967213127" stroke="red" stroke-width="1" fill="none" />
<path d="M746.5573770491803,218.95081967213127 L746.5573770491803,238.49180327868862" stroke="red" stroke-width="1" fill="none" />
<path d="M707.4754098360656,218.95081967213127 L707.4754098360656,199.40983606557393" stroke="red" stroke-width="1" fill="none" />
<path d="M687.9344262295081,179.86885245901635 L668.3934426229507,179.86885245901635" stroke="red" stroke-width="1" fill="none" />
<path d="M668.3934426229507,140.78688524590166 L687.9344262295081,140.78688524590166" stroke="red" stroke-width="1" fill="none" />
<path d="M648.8524590163934,43.08196721311492 L648.8524590163934,23.540983606557575" stroke="red" stroke-width="1" fill="none" />
<path d="M687.9344262295081,23.540983606557575 L687.9344262295081,43.08196721311492" stroke="red" stroke-width="1" fill="none" />
<path d="M668.3934426229507,179.86885245901635 L648.8524590163934,170.09836065573768" stroke="red" stroke-width="1" fill="none" />
<path d="M648.8524590163934,170.09836065573768 L648.8524590163934,150.55737704918033" stroke="red" stroke-width="1" fill="none" />
<path d="M648.8524590163934,150.55737704918033 L668.3934426229507,140.78688524590166" stroke="red" stroke-width="1" fill="none" />
<path d="M648.8524590163934,23.540983606557575 L658.622950819672,4.0" stroke="red" stroke-width="1" fill="none" />
<path d="M658.622950819672,4.0 L678.1639344262294,4.0" stroke="red" stroke-width="1" fill="none" />
<path d="M678.1639344262294,4.0 L687.9344262295081,23.540983606557575" stroke="red" stroke-width="1" fill="none" />
<path d="M746.5573770491803,238.49180327868862 L829.6065573770491,238.49180327868862" stroke="red" stroke-width="1" fill="none" />
<path d="M829.6065573770491,394.8196721311476 L746.5573770491803,394.8196721311476" stroke="red" stroke-width="1" fill="none" />
<path d="M707.4754098360656,394.8196721311476 L624.4262295081967,394.8196721311476" stroke="red" stroke-width="1" fill="none" />
<path d="M624.4262295081967,238.49180327868862 L707.4754098360656,238.49180327868862" stroke="red" stroke-width="1" fill="none" />
<path d="M624.4262295081967,394.8196721311476 L609.7704918032787,394.8196721311476" stroke="red" stroke-width="1" fill="none" />
<path d="M609.7704918032787,394.8196721311476 L590.2295081967213,394.8196721311476" stroke="red" stroke-width="1" fill="none" />
<path d="M590.2295081967213,394.8196721311476 L512.0655737704917,336.1967213114756" stroke="red" stroke-width="1" fill="none" />
<path d="M512.0655737704917,336.1967213114756 L512.0655737704917,297.11475409836066" stroke="red" stroke-width="1" fill="none" />
<path d="M512.0655737704917,297.11475409836066 L590.2295081967213,238.49180327868862" stroke="red" stroke-width="1" fill="none" />
<path d="M590.2295081967213,238.49180327868862 L609.7704918032787,238.49180327868862" stroke="red" stroke-width="1" fill="none" />
<path d="M609.7704918032787,238.49180327868862 L624.4262295081967,238.49180327868862" stroke="red" stroke-width="1" fill="none" />
<path d="M829.6065573770491,238.49180327868862 L844.2622950819673,238.49180327868862" stroke="red" stroke-width="1" fill="none" />
<path d="M844.2622950819673,238.49180327868862 L863.8032786885246,238.49180327868862" stroke="red" stroke-width="1" fill="none" />
<path d="M863.8032786885246,238.49180327868862 L941.967213114754,297.11475409836066" stroke="red" stroke-width="1" fill="none" />
<path d="M941.967213114754,336.1967213114756 L863.8032786885246,394.8196721311476" stroke="red" stroke-width="1" fill="none" />
<path d="M863.8032786885246,394.8196721311476 L844.2622950819673,394.8196721311476" stroke="red" stroke-width="1" fill="none" />
<path d="M844.2622950819673,394.8196721311476 L829.6065573770491,394.8196721311476" stroke="red" stroke-width="1" fill="none" />
<path d="M941.967213114754,297.11475409836066 L944.4098360655737,297.11475409836066" stroke="red" stroke-width="1" fill="none" />
<path d="M944.4098360655737,297.11475409836066 L961.5081967213114,297.11475409836066" stroke="red" stroke-width="1" fill="none" />
<path d="M961.5081967213114,297.11475409836066 L961.5081967213114,336.1967213114756" stroke="red" stroke-width="1" fill="none" />
<path d="M961.5081967213114,336.1967213114756 L944.4098360655737,336.1967213114756" stroke="red" stroke-width="1" fill="none" />
<path d="M944.4098360655737,336.1967213114756 L941.967213114754,336.1967213114756" stroke="red" stroke-width="1" fill="none" />
<path d="M707.4754098360656,121.24590163934431 L648.8524590163934,43.08196721311492" stroke="red" stroke-width="1" fill="none" />
<path d="M687.9344262295081,43.08196721311492 L717.2459016393443,82.16393442622962" stroke="red" stroke-width="1" fill="none" />
<path d="M717.2459016393443,82.16393442622962 L736.7868852459017,82.16393442622962" stroke="red" stroke-width="1" fill="none" />
<path d="M766.0983606557377,43.08196721311492 L766.0983606557377,23.540983606557575" stroke="red" stroke-width="1" fill="none" />
<path d="M766.0983606557377,23.540983606557575 L775.8688524590164,4.0" stroke="red" stroke-width="1" fill="none" />
<path d="M775.8688524590164,4.0 L795.4098360655737,4.0" stroke="red" stroke-width="1" fill="none" />
<path d="M795.4098360655737,4.0 L805.1803278688524,23.540983606557575" stroke="red" stroke-width="1" fill="none" />
<path d="M805.1803278688524,23.540983606557575 L805.1803278688524,43.08196721311492" stroke="red" stroke-width="1" fill="none" />
<path d="M805.1803278688524,43.08196721311492 L746.5573770491803,121.24590163934431" stroke="red" stroke-width="1" fill="none" />
<path d="M766.0983606557377,140.78688524590166 L785.639344262295,140.78688524590166" stroke="red" stroke-width="1" fill="none" />
<path d="M785.639344262295,140.78688524590166 L805.1803278688524,150.55737704918033" stroke="red" stroke-width="1" fill="none" />
<path d="M805.1803278688524,150.55737704918033 L805.1803278688524,170.09836065573768" stroke="red" stroke-width="1" fill="none" />
<path d="M805.1803278688524,170.09836065573768 L785.639344262295,179.86885245901635" stroke="red" stroke-width="1" fill="none" />
<path d="M785.639344262295,179.86885245901635 L766.0983606557377,179.86885245901635" stroke="red" stroke-width="1" fill="none" />
<path d="M746.5573770491803,199.40983606557393 L746.5573770491803,218.95081967213127" stroke="red" stroke-width="1" fill="none" />
<path d="M707.4754098360656,199.40983606557393 L707.4754098360656,179.86885245901635" stroke="red" stroke-width="1" fill="none" />
<path d="M707.4754098360656,179.86885245901635 L687.9344262295081,179.86885245901635" stroke="red" stroke-width="1" fill="none" />
<path d="M746.5573770491803,179.86885245901635 L746.5573770491803,199.40983606557393" stroke="red" stroke-width="1" fill="none" />
<path d="M766.0983606557377,179.86885245901635 L746.5573770491803,179.86885245901635" stroke="red" stroke-width="1" fill="none" />
<path d="M687.9344262295081,140.78688524590166 L707.4754098360656,140.78688524590166" stroke="red" stroke-width="1" fill="none" />
<path d="M746.5573770491803,140.78688524590166 L766.0983606557377,140.78688524590166" stroke="red" stroke-width="1" fill="none" />
<path d="M736.7868852459017,82.16393442622962 L766.0983606557377,43.08196721311492" stroke="red" stroke-width="1" fill="none" />
<path d="M707.4754098360656,140.78688524590166 L707.4754098360656,121.24590163934431" stroke="red" stroke-width="1" fill="none" />
<path d="M746.5573770491803,121.24590163934431 L746.5573770491803,140.78688524590166" stroke="red" stroke-width="1" fill="none" />
<path d="M121.24590163934425,951.7377049180328 L77.27868852459017,951.7377049180328" stroke="red" stroke-width="1" fill="none" />
<path d="M77.27868852459017,951.7377049180328 L74.8360655737705,951.7377049180328" stroke="red" stroke-width="1" fill="none" />
<path d="M74.8360655737705,922.4262295081967 L77.27868852459017,922.4262295081967" stroke="red" stroke-width="1" fill="none" />
<path d="M77.27868852459017,922.4262295081967 L121.24590163934425,922.4262295081967" stroke="red" stroke-width="1" fill="none" />
<path d="M4.0,922.4262295081967 L74.8360655737705,922.4262295081967" stroke="red" stroke-width="1" fill="none" />
<path d="M4.0,951.7377049180328 L4.0,922.4262295081967" stroke="red" stroke-width="1" fill="none" />
<path d="M74.8360655737705,951.7377049180328 L4.0,951.7377049180328" stroke="red" stroke-width="1" fill="none" />
<path d="M258.0327868852459,902.8852459016393 L218.9508196721311,863.8032786885246" stroke="red" stroke-width="1" fill="none" />
<path d="M218.9508196721311,863.8032786885246 L218.9508196721311,785.6393442622951" stroke="red" stroke-width="1" fill="none" />
<path d="M238.4918032786885,773.4262295081968 L238.4918032786885,766.0983606557377" stroke="red" stroke-width="1" fill="none" />
<path d="M258.0327868852459,766.0983606557377 L258.0327868852459,773.4262295081968" stroke="red" stroke-width="1" fill="none" />
<path d="M277.57377049180326,785.6393442622951 L277.57377049180326,844.2622950819673" stroke="red" stroke-width="1" fill="none" />
<path d="M238.4918032786885,766.0983606557377 L238.4918032786885,763.655737704918" stroke="red" stroke-width="1" fill="none" />
<path d="M218.9508196721311,727.016393442623 L243.37704918032784,707.4754098360656" stroke="red" stroke-width="1" fill="none" />
<path d="M243.37704918032784,707.4754098360656 L253.14754098360652,707.4754098360656" stroke="lavender" stroke-width="1" fill="none" />
<path d="M253.14754098360652,707.4754098360656 L277.57377049180326,727.016393442623" stroke="red" stroke-width="1" fill="none" />
<path d="M277.57377049180326,727.016393442623 L258.0327868852459,763.655737704918" stroke="red" stroke-width="1" fill="none" />
<path d="M258.0327868852459,763.655737704918 L258.0327868852459,766.0983606557377" stroke="red" stroke-width="1" fill="none" />
<path d="M218.9508196721311,785.6393442622951 L238.4918032786885,773.4262295081968" stroke="red" stroke-width="1" fill="none" />
<path d="M258.0327868852459,773.4262295081968 L277.57377049180326,785.6393442622951" stroke="red" stroke-width="1" fill="none" />
<path d="M297.1147540983606,707.4754098360656 L258.0327868852459,668.3934426229508" stroke="red" stroke-width="1" fill="none" />
<path d="M258.0327868852459,668.3934426229508 L238.4918032786885,609.7704918032787" stroke="red" stroke-width="1" fill="none" />
<path d="M238.4918032786885,609.7704918032787 L218.9508196721311,590.2295081967213" stroke="red" stroke-width="1" fill="none" />
<path d="M218.9508196721311,590.2295081967213 L199.40983606557376,609.7704918032787" stroke="red" stroke-width="1" fill="none" />
<path d="M199.40983606557376,609.7704918032787 L160.327868852459,668.3934426229508" stroke="red" stroke-width="1" fill="none" />
<path d="M160.327868852459,668.3934426229508 L160.327868852459,687.9344262295083" stroke="red" stroke-width="1" fill="none" />
<path d="M160.327868852459,687.9344262295083 L140.7868852459016,687.9344262295083" stroke="red" stroke-width="1" fill="none" />
<path d="M140.7868852459016,687.9344262295083 L140.7868852459016,668.3934426229508" stroke="red" stroke-width="1" fill="none" />
<path d="M140.7868852459016,668.3934426229508 L101.7049180327869,648.8524590163935" stroke="red" stroke-width="1" fill="none" />
<path d="M101.7049180327869,648.8524590163935 L101.7049180327869,629.311475409836" stroke="red" stroke-width="1" fill="none" />
<path d="M101.7049180327869,590.2295081967213 L62.62295081967213,551.1475409836066" stroke="red" stroke-width="1" fill="none" />
<path d="M62.62295081967213,512.0655737704919 L62.62295081967213,492.52459016393436" stroke="lavender" stroke-width="1" fill="none" />
<path d="M140.7868852459016,472.983606557377 L160.327868852459,472.983606557377" stroke="red" stroke-width="1" fill="none" />
<path d="M199.40983606557376,472.983606557377 L218.9508196721311,472.983606557377" stroke="red" stroke-width="1" fill="none" />
<path d="M258.0327868852459,472.983606557377 L297.1147540983606,492.52459016393436" stroke="red" stroke-width="1" fill="none" />
<path d="M297.1147540983606,492.52459016393436 L297.1147540983606,512.0655737704919" stroke="red" stroke-width="1" fill="none" />
<path d="M297.1147540983606,551.1475409836066 L297.1147540983606,648.8524590163935" stroke="red" stroke-width="1" fill="none" />
<path d="M101.7049180327869,629.311475409836 L101.7049180327869,590.2295081967213" stroke="red" stroke-width="1" fill="none" />
<path d="M62.62295081967213,551.1475409836066 L62.62295081967213,512.0655737704919" stroke="red" stroke-width="1" fill="none" />
<path d="M62.62295081967213,492.52459016393436 L101.7049180327869,472.983606557377" stroke="red" stroke-width="1" fill="none" />
<path d="M101.7049180327869,472.983606557377 L140.7868852459016,472.983606557377" stroke="red" stroke-width="1" fill="none" />
<path d="M160.327868852459,472.983606557377 L199.40983606557376,472.983606557377" stroke="red" stroke-width="1" fill="none" />
<path d="M218.9508196721311,472.983606557377 L258.0327868852459,472.983606557377" stroke="red" stroke-width="1" fill="none" />
<path d="M297.1147540983606,512.0655737704919 L297.1147540983606,551.1475409836066" stroke="red" stroke-width="1" fill="none" />
<path d="M238.4918032786885,763.655737704918 L218.9508196721311,727.016393442623" stroke="red" stroke-width="1" fill="none" />
<path d="M297.1147540983606,822.2786885245902 L297.1147540983606,707.4754098360656" stroke="red" stroke-width="1" fill="none" />
<path d="M453.4426229508196,727.016393442623 L453.4426229508196,746.5573770491803" stroke="red" stroke-width="1" fill="none" />
<path d="M453.4426229508196,746.5573770491803 L472.98360655737696,746.5573770491803" stroke="red" stroke-width="1" fill="none" />
<path d="M472.98360655737696,746.5573770491803 L472.98360655737696,766.0983606557377" stroke="red" stroke-width="1" fill="none" />
<path d="M472.98360655737696,766.0983606557377 L453.4426229508196,766.0983606557377" stroke="red" stroke-width="1" fill="none" />
<path d="M453.4426229508196,766.0983606557377 L453.4426229508196,785.6393442622951" stroke="red" stroke-width="1" fill="none" />
<path d="M394.81967213114757,785.6393442622951 L394.81967213114757,766.0983606557377" stroke="red" stroke-width="1" fill="none" />
<path d="M394.81967213114757,766.0983606557377 L377.7213114754098,766.0983606557377" stroke="red" stroke-width="1" fill="none" />
<path d="M377.7213114754098,766.0983606557377 L377.7213114754098,746.5573770491803" stroke="red" stroke-width="1" fill="none" />
<path d="M377.7213114754098,746.5573770491803 L394.81967213114757,746.5573770491803" stroke="red" stroke-width="1" fill="none" />
<path d="M394.81967213114757,746.5573770491803 L394.81967213114757,727.016393442623" stroke="red" stroke-width="1" fill="none" />
</svg>