<?xml version="1.0" encoding="UTF-8"?>
<svg xmlns="http://www.w3.org/2000/svg" xmlns:xlink="http://www.w3.org/1999/xlink"
     width="1200" height="1127" viewBox="0 0 1200 1127">
<defs>
</defs>
<path d="M700.6233766233767,906.2931354359926 L612.1632653061224,906.2931354359926" stroke="yellow" stroke-width="1" fill="none" />
<path d="M736.0074211502783,817.8330241187384 L736.0074211502783,906.2931354359926" stroke="yellow" stroke-width="1" fill="none" />
<path d="M647.5473098330241,782.4489795918367 L736.0074211502783,782.4489795918367" stroke="yellow" stroke-width="1" fill="none" />
<path d="M612.1632653061224,870.9090909090909 L612.1632653061224,782.4489795918367" stroke="yellow" stroke-width="1" fill="none" />
<path d="M612.1632653061224,782.4489795918367 L647.5473098330241,782.4489795918367" stroke="lavender" stroke-width="1" fill="none" />
<path d="M612.1632653061224,747.0649350649351 L647.5473098330241,747.0649350649351" stroke="yellow" stroke-width="1" fill="none" />
<path d="M647.5473098330241,747.0649350649351 L647.5473098330241,782.4489795918367" stroke="yellow" stroke-width="1" fill="none" />
<path d="M736.0074211502783,782.4489795918367 L736.0074211502783,817.8330241187384" stroke="lavender" stroke-width="1" fill="none" />
<path d="M771.39146567718,782.4489795918367 L771.39146567718,817.8330241187384" stroke="yellow" stroke-width="1" fill="none" />
<path d="M771.39146567718,817.8330241187384 L736.0074211502783,817.8330241187384" stroke="yellow" stroke-width="1" fill="none" />
<path d="M736.0074211502783,941.6771799628942 L700.6233766233767,941.6771799628942" stroke="yellow" stroke-width="1" fill="none" />
<path d="M700.6233766233767,941.6771799628942 L700.6233766233767,906.2931354359926" stroke="yellow" stroke-width="1" fill="none" />
<path d="M576.7792207792209,906.2931354359926 L576.7792207792209,870.9090909090909" stroke="yellow" stroke-width="1" fill="none" />
<path d="M576.7792207792209,870.9090909090909 L612.1632653061224,870.9090909090909" stroke="yellow" stroke-width="1" fill="none" />
<path d="M736.0074211502783,906.2931354359926 L700.6233766233767,906.2931354359926" stroke="lavender" stroke-width="1" fill="none" />
<path d="M612.1632653061224,906.2931354359926 L612.1632653061224,870.9090909090909" stroke="lavender" stroke-width="1" fill="none" />
<path d="M605.5287569573284,640.91280148423 L605.5287569573284,623.2207792207791" stroke="lavender" stroke-width="1" fill="none" />
<path d="M682.9313543599258,587.8367346938776 L682.9313543599258,499.3766233766234" stroke="yellow" stroke-width="1" fill="none" />
<path d="M736.0074211502783,570.1447124304267 L736.0074211502783,623.2207792207791" stroke="yellow" stroke-width="1" fill="none" />
<path d="M736.0074211502783,623.2207792207791 L789.0834879406308,623.2207792207791" stroke="yellow" stroke-width="1" fill="none" />
<path d="M789.0834879406308,623.2207792207791 L789.0834879406308,676.2968460111317" stroke="yellow" stroke-width="1" fill="none" />
<path d="M789.0834879406308,676.2968460111317 L824.4675324675325,676.2968460111317" stroke="yellow" stroke-width="1" fill="none" />
<path d="M824.4675324675325,676.2968460111317 L824.4675324675325,623.2207792207791" stroke="yellow" stroke-width="1" fill="none" />
<path d="M736.0074211502783,623.2207792207791 L736.0074211502783,711.6808905380334" stroke="yellow" stroke-width="1" fill="none" />
<path d="M603.317254174397,623.2207792207791 L603.317254174397,640.91280148423" stroke="lavender" stroke-width="1" fill="none" />
<path d="M576.7792207792209,640.91280148423 L541.3951762523192,640.91280148423" stroke="yellow" stroke-width="1" fill="none" />
<path d="M647.5473098330241,853.2170686456401 L665.239332096475,853.2170686456401" stroke="yellow" stroke-width="1" fill="none" />
<path d="M665.239332096475,853.2170686456401 L665.239332096475,870.9090909090909" stroke="yellow" stroke-width="1" fill="none" />
<path d="M665.239332096475,870.9090909090909 L682.9313543599258,870.9090909090909" stroke="yellow" stroke-width="1" fill="none" />
<path d="M682.9313543599258,870.9090909090909 L682.9313543599258,853.2170686456401" stroke="yellow" stroke-width="1" fill="none" />
<path d="M682.9313543599258,853.2170686456401 L700.6233766233767,853.2170686456401" stroke="yellow" stroke-width="1" fill="none" />
<path d="M700.6233766233767,853.2170686456401 L700.6233766233767,835.5250463821892" stroke="yellow" stroke-width="1" fill="none" />
<path d="M700.6233766233767,835.5250463821892 L682.9313543599258,835.5250463821892" stroke="yellow" stroke-width="1" fill="none" />
<path d="M682.9313543599258,835.5250463821892 L682.9313543599258,817.8330241187384" stroke="yellow" stroke-width="1" fill="none" />
<path d="M682.9313543599258,817.8330241187384 L665.239332096475,817.8330241187384" stroke="yellow" stroke-width="1" fill="none" />
<path d="M665.239332096475,817.8330241187384 L665.239332096475,835.5250463821892" stroke="yellow" stroke-width="1" fill="none" />
<path d="M665.239332096475,835.5250463821892 L647.5473098330241,835.5250463821892" stroke="yellow" stroke-width="1" fill="none" />
<path d="M647.5473098330241,835.5250463821892 L647.5473098330241,853.2170686456401" stroke="yellow" stroke-width="1" fill="none" />
<path d="M647.5473098330241,463.9925788497217 L647.5473098330241,517.0686456400742" stroke="yellow" stroke-width="1" fill="none" />
<path d="M435.24304267161415,481.68460111317256 L559.08719851577,375.53246753246754" stroke="yellow" stroke-width="1" fill="none" />
<path d="M541.3951762523192,676.2968460111317 L541.3951762523192,640.91280148423" stroke="yellow" stroke-width="1" fill="none" />
<path d="M539.1836734693878,640.91280148423 L539.1836734693878,676.2968460111317" stroke="lavender" stroke-width="1" fill="none" />
<path d="M523.7031539888683,640.91280148423 L523.7031539888683,676.2968460111317" stroke="yellow" stroke-width="1" fill="none" />
<path d="M514.8571428571429,640.91280148423 L514.8571428571429,676.2968460111317" stroke="yellow" stroke-width="1" fill="none" />
<path d="M506.01113172541744,640.91280148423 L506.01113172541744,676.2968460111317" stroke="yellow" stroke-width="1" fill="none" />
<path d="M497.16512059369205,640.91280148423 L497.16512059369205,676.2968460111317" stroke="yellow" stroke-width="1" fill="none" />
<path d="M612.1632653061224,640.91280148423 L612.1632653061224,623.2207792207791" stroke="yellow" stroke-width="1" fill="none" />
<path d="M594.4712430426716,623.2207792207791 L576.7792207792209,640.91280148423" stroke="yellow" stroke-width="1" fill="none" />
<path d="M488.3191094619666,640.91280148423 L488.3191094619666,676.2968460111317" stroke="yellow" stroke-width="1" fill="none" />
<path d="M479.4730983302412,640.91280148423 L479.4730983302412,676.2968460111317" stroke="yellow" stroke-width="1" fill="none" />
<path d="M470.6270871985158,640.91280148423 L470.6270871985158,676.2968460111317" stroke="yellow" stroke-width="1" fill="none" />
<path d="M470.6270871985158,587.8367346938776 L435.24304267161415,587.8367346938776" stroke="yellow" stroke-width="1" fill="none" />
<path d="M470.6270871985158,517.0686456400742 L435.24304267161415,481.68460111317256" stroke="yellow" stroke-width="1" fill="none" />
<path d="M470.6270871985158,552.4526901669758 L470.6270871985158,517.0686456400742" stroke="yellow" stroke-width="1" fill="none" />
<path d="M435.24304267161415,552.4526901669758 L470.6270871985158,552.4526901669758" stroke="yellow" stroke-width="1" fill="none" />
<path d="M506.01113172541744,587.8367346938776 L506.01113172541744,552.4526901669758" stroke="yellow" stroke-width="1" fill="none" />
<path d="M506.01113172541744,552.4526901669758 L470.6270871985158,517.0686456400742" stroke="yellow" stroke-width="1" fill="none" />
<path d="M806.7755102040817,570.1447124304267 L789.0834879406308,570.1447124304267" stroke="yellow" stroke-width="1" fill="none" />
<path d="M736.0074211502783,570.1447124304267 L682.9313543599258,499.3766233766234" stroke="yellow" stroke-width="1" fill="none" />
<path d="M682.9313543599258,587.8367346938776 L736.0074211502783,623.2207792207791" stroke="yellow" stroke-width="1" fill="none" />
<path d="M736.0074211502783,481.68460111317256 L806.7755102040817,481.68460111317256" stroke="yellow" stroke-width="1" fill="none" />
<path d="M733.795918367347,499.3766233766234 L731.5844155844156,521.4916512059369" stroke="lavender" stroke-width="1" fill="none" />
<path d="M731.5844155844156,521.4916512059369 L806.7755102040817,517.0686456400742" stroke="lavender" stroke-width="1" fill="none" />
<path d="M740.430426716141,618.7977736549165 L740.430426716141,574.5677179962895" stroke="yellow" stroke-width="1" fill="none" />
<path d="M789.0834879406308,618.7977736549165 L740.430426716141,618.7977736549165" stroke="yellow" stroke-width="1" fill="none" />
<path d="M784.6604823747681,587.8367346938776 L789.0834879406308,605.5287569573284" stroke="lavender" stroke-width="1" fill="none" />
<path d="M678.5083487940631,499.3766233766234 L678.5083487940631,583.4137291280149" stroke="yellow" stroke-width="1" fill="none" />
<path d="M651.9703153988869,517.0686456400742 L651.9703153988869,463.9925788497217" stroke="yellow" stroke-width="1" fill="none" />
<path d="M629.8552875695733,463.9925788497217 L629.8552875695733,446.3005565862709" stroke="yellow" stroke-width="1" fill="none" />
<path d="M576.7792207792209,463.9925788497217 L629.8552875695733,463.9925788497217" stroke="lavender" stroke-width="1" fill="none" />
<path d="M576.7792207792209,410.9165120593692 L576.7792207792209,463.9925788497217" stroke="lavender" stroke-width="1" fill="none" />
<path d="M594.4712430426716,410.9165120593692 L576.7792207792209,410.9165120593692" stroke="yellow" stroke-width="1" fill="none" />
<path d="M647.5473098330241,618.7977736549165 L647.5473098330241,614.3747680890538" stroke="yellow" stroke-width="1" fill="none" />
<path d="M647.5473098330241,614.3747680890538 L647.5473098330241,609.9517625231911" stroke="yellow" stroke-width="1" fill="none" />
<path d="M647.5473098330241,609.9517625231911 L647.5473098330241,605.5287569573284" stroke="yellow" stroke-width="1" fill="none" />
<path d="M647.5473098330241,605.5287569573284 L682.9313543599258,605.5287569573284" stroke="yellow" stroke-width="1" fill="none" />
<path d="M682.9313543599258,605.5287569573284 L682.9313543599258,587.8367346938776" stroke="yellow" stroke-width="1" fill="none" />
<path d="M612.1632653061224,605.5287569573284 L647.5473098330241,605.5287569573284" stroke="yellow" stroke-width="1" fill="none" />
<path d="M612.1632653061224,609.9517625231911 L647.5473098330241,609.9517625231911" stroke="yellow" stroke-width="1" fill="none" />
<path d="M612.1632653061224,618.7977736549165 L647.5473098330241,618.7977736549165" stroke="yellow" stroke-width="1" fill="none" />
<path d="M612.1632653061224,614.3747680890538 L647.5473098330241,614.3747680890538" stroke="yellow" stroke-width="1" fill="none" />
<path d="M612.1632653061224,428.60853432282 L629.8552875695733,446.3005565862709" stroke="yellow" stroke-width="1" fill="none" />
<path d="M559.08719851577,463.9925788497217 L576.7792207792209,463.9925788497217" stroke="yellow" stroke-width="1" fill="none" />
<path d="M559.08719851577,375.53246753246754 L559.08719851577,463.9925788497217" stroke="yellow" stroke-width="1" fill="none" />
<path d="M362.26345083487945,853.2170686456401 L258.32282003710577,853.2170686456401" stroke="yellow" stroke-width="1" fill="none" />
<path d="M258.32282003710577,853.2170686456401 L258.32282003710577,729.3729128014843" stroke="yellow" stroke-width="1" fill="none" />
<path d="M276.0148423005566,729.3729128014843 L276.0148423005566,835.5250463821892" stroke="yellow" stroke-width="1" fill="none" />
<path d="M276.0148423005566,835.5250463821892 L362.26345083487945,835.5250463821892" stroke="yellow" stroke-width="1" fill="none" />
<path d="M523.7031539888683,853.2170686456401 L523.7031539888683,835.5250463821892" stroke="yellow" stroke-width="1" fill="none" />
<path d="M521.4916512059369,835.5250463821892 L521.4916512059369,853.2170686456401" stroke="lavender" stroke-width="1" fill="none" />
<path d="M470.6270871985158,853.2170686456401 L470.6270871985158,835.5250463821892" stroke="yellow" stroke-width="1" fill="none" />
<path d="M468.4155844155844,835.5250463821892 L468.4155844155844,853.2170686456401" stroke="lavender" stroke-width="1" fill="none" />
<path d="M417.55102040816325,853.2170686456401 L417.55102040816325,835.5250463821892" stroke="yellow" stroke-width="1" fill="none" />
<path d="M415.3395176252319,835.5250463821892 L415.3395176252319,853.2170686456401" stroke="lavender" stroke-width="1" fill="none" />
<path d="M364.4749536178108,853.2170686456401 L364.4749536178108,835.5250463821892" stroke="yellow" stroke-width="1" fill="none" />
<path d="M362.26345083487945,835.5250463821892 L362.26345083487945,853.2170686456401" stroke="lavender" stroke-width="1" fill="none" />
<path d="M541.3951762523192,853.2170686456401 L541.3951762523192,835.5250463821892" stroke="lavender" stroke-width="1" fill="none" />
<path d="M258.32282003710577,729.3729128014843 L276.0148423005566,729.3729128014843" stroke="lavender" stroke-width="1" fill="none" />
<path d="M362.26345083487945,833.3135435992579 L329.0909090909091,833.3135435992579" stroke="yellow" stroke-width="1" fill="none" />
<path d="M278.22634508348796,782.4489795918367 L278.22634508348796,729.3729128014843" stroke="yellow" stroke-width="1" fill="none" />
<path d="M329.0909090909091,693.9888682745825 L393.22448979591843,693.9888682745825" stroke="yellow" stroke-width="1" fill="none" />
<path d="M417.55102040816325,720.5269016697588 L417.55102040816325,782.4489795918367" stroke="yellow" stroke-width="1" fill="none" />
<path d="M382.16697588126164,747.0649350649351 L417.55102040816325,782.4489795918367" stroke="yellow" stroke-width="1" fill="none" />
<path d="M895.2356215213358,463.9925788497217 L948.3116883116884,552.4526901669758" stroke="yellow" stroke-width="1" fill="none" />
<path d="M948.3116883116884,552.4526901669758 L1054.4638218923933,552.4526901669758" stroke="yellow" stroke-width="1" fill="none" />
<path d="M1054.4638218923933,552.4526901669758 L1107.5398886827459,463.9925788497217" stroke="yellow" stroke-width="1" fill="none" />
<path d="M1107.5398886827459,463.9925788497217 L1054.4638218923933,375.53246753246754" stroke="yellow" stroke-width="1" fill="none" />
<path d="M1054.4638218923933,375.53246753246754 L948.3116883116884,375.53246753246754" stroke="yellow" stroke-width="1" fill="none" />
<path d="M948.3116883116884,375.53246753246754 L895.2356215213358,463.9925788497217" stroke="yellow" stroke-width="1" fill="none" />
<path d="M1072.155844155844,587.8367346938776 L930.6196660482375,587.8367346938776" stroke="lavender" stroke-width="1" fill="none" />
<path d="M930.6196660482375,587.8367346938776 L859.8515769944341,463.9925788497217" stroke="lavender" stroke-width="1" fill="none" />
<path d="M859.8515769944341,463.9925788497217 L930.6196660482375,340.14842300556586" stroke="lavender" stroke-width="1" fill="none" />
<path d="M930.6196660482375,340.14842300556586 L1072.155844155844,340.14842300556586" stroke="lavender" stroke-width="1" fill="none" />
<path d="M1072.155844155844,340.14842300556586 L1142.9239332096477,463.9925788497217" stroke="lavender" stroke-width="1" fill="none" />
<path d="M1142.9239332096477,463.9925788497217 L1072.155844155844,587.8367346938776" stroke="lavender" stroke-width="1" fill="none" />
<path d="M895.2356215213358,711.6808905380334 L824.4675324675325,623.2207792207791" stroke="lavender" stroke-width="1" fill="none" />
<path d="M806.7755102040817,479.4730983302412 L736.0074211502783,479.4730983302412" stroke="yellow" stroke-width="1" fill="none" />
<path d="M1010.2337662337662,413.12801484230056 L992.5417439703153,413.12801484230056" stroke="lavender" stroke-width="1" fill="none" />
<path d="M1010.2337662337662,410.9165120593692 L992.5417439703153,410.9165120593692" stroke="yellow" stroke-width="1" fill="none" />
<path d="M999.1762523191094,459.569573283859 L999.1762523191094,441.8775510204082" stroke="lavender" stroke-width="1" fill="none" />
<path d="M992.5417439703153,415.3395176252319 L1010.2337662337662,415.3395176252319" stroke="yellow" stroke-width="1" fill="none" />
<path d="M992.5417439703153,417.55102040816325 L1010.2337662337662,417.55102040816325" stroke="yellow" stroke-width="1" fill="none" />
<path d="M996.964749536178,444.08905380333954 L996.964749536178,459.569573283859" stroke="yellow" stroke-width="1" fill="none" />
<path d="M972.6382189239332,444.08905380333954 L996.964749536178,444.08905380333954" stroke="yellow" stroke-width="1" fill="none" />
<path d="M999.1762523191094,441.8775510204082 L972.6382189239332,441.8775510204082" stroke="lavender" stroke-width="1" fill="none" />
<path d="M329.0909090909091,833.3135435992579 L278.22634508348796,833.3135435992579" stroke="yellow" stroke-width="1" fill="none" />
<path d="M278.22634508348796,833.3135435992579 L278.22634508348796,782.4489795918367" stroke="yellow" stroke-width="1" fill="none" />
<path d="M329.0909090909091,693.9888682745825 L364.4749536178108,729.3729128014843" stroke="yellow" stroke-width="1" fill="none" />
<path d="M364.4749536178108,729.3729128014843 L382.16697588126164,747.0649350649351" stroke="lavender" stroke-width="1" fill="none" />
<path d="M329.0909090909091,833.3135435992579 L382.16697588126164,747.0649350649351" stroke="yellow" stroke-width="1" fill="none" />
<path d="M364.4749536178108,729.3729128014843 L278.22634508348796,782.4489795918367" stroke="yellow" stroke-width="1" fill="none" />
<path d="M256.1113172541744,729.3729128014843 L256.1113172541744,855.4285714285714" stroke="yellow" stroke-width="1" fill="none" />
<path d="M256.1113172541744,855.4285714285714 L362.26345083487945,855.4285714285714" stroke="yellow" stroke-width="1" fill="none" />
<path d="M393.22448979591843,691.7773654916512 L329.0909090909091,691.7773654916512" stroke="yellow" stroke-width="1" fill="none" />
<path d="M433.0315398886828,780.2374768089054 L433.0315398886828,782.4489795918367" stroke="yellow" stroke-width="1" fill="none" />
<path d="M419.7625231910946,782.4489795918367 L419.7625231910946,720.5269016697588" stroke="yellow" stroke-width="1" fill="none" />
<path d="M550.2411873840446,375.53246753246754 L435.24304267161415,472.8385899814471" stroke="lavender" stroke-width="1" fill="none" />
<path d="M344.5714285714286,306.97588126159553 L368.8979591836735,282.6493506493507" stroke="yellow" stroke-width="1" fill="none" />
<path d="M364.4749536178108,278.2263450834879 L340.14842300556586,302.55287569573284" stroke="lavender" stroke-width="1" fill="none" />
<path d="M384.378478664193,430.8200371057514 L360.0519480519481,406.4935064935065" stroke="yellow" stroke-width="1" fill="none" />
<path d="M355.6289424860854,410.9165120593692 L379.95547309833023,435.2430426716141" stroke="yellow" stroke-width="1" fill="none" />
<path d="M468.4155844155844,302.55287569573284 L492.7421150278293,326.8794063079778" stroke="yellow" stroke-width="1" fill="none" />
<path d="M497.16512059369205,322.4564007421151 L472.83858998144717,298.12987012987014" stroke="lavender" stroke-width="1" fill="none" />
<path d="M446.3005565862709,368.8979591836735 L428.60853432282005,360.0519480519481" stroke="lavender" stroke-width="1" fill="none" />
<path d="M424.18552875695735,362.26345083487945 L426.3970315398887,382.1669758812616" stroke="lavender" stroke-width="1" fill="none" />
<path d="M430.82003710575145,384.3784786641929 L446.3005565862709,373.3209647495362" stroke="lavender" stroke-width="1" fill="none" />
<path d="M426.3970315398887,382.1669758812616 L430.82003710575145,384.3784786641929" stroke="yellow" stroke-width="1" fill="none" />
<path d="M446.3005565862709,373.3209647495362 L446.3005565862709,368.8979591836735" stroke="yellow" stroke-width="1" fill="none" />
<path d="M428.60853432282005,360.0519480519481 L424.18552875695735,362.26345083487945" stroke="yellow" stroke-width="1" fill="none" />
<path d="M510.4341372912802,428.60853432282 L488.3191094619666,444.08905380333954" stroke="yellow" stroke-width="1" fill="none" />
<path d="M517.0686456400742,430.8200371057514 L510.4341372912802,428.60853432282" stroke="yellow" stroke-width="1" fill="none" />
<path d="M523.7031539888683,433.03153988868274 L517.0686456400742,430.8200371057514" stroke="yellow" stroke-width="1" fill="none" />
<path d="M530.3376623376623,435.2430426716141 L523.7031539888683,433.03153988868274" stroke="yellow" stroke-width="1" fill="none" />
<path d="M488.3191094619666,488.3191094619666 L530.3376623376623,435.2430426716141" stroke="yellow" stroke-width="1" fill="none" />
<path d="M488.3191094619666,470.62708719851577 L488.3191094619666,488.3191094619666" stroke="yellow" stroke-width="1" fill="none" />
<path d="M488.3191094619666,455.1465677179963 L488.3191094619666,470.62708719851577" stroke="yellow" stroke-width="1" fill="none" />
<path d="M488.3191094619666,444.08905380333954 L488.3191094619666,455.1465677179963" stroke="yellow" stroke-width="1" fill="none" />
<path d="M488.3191094619666,455.1465677179963 L517.0686456400742,430.8200371057514" stroke="yellow" stroke-width="1" fill="none" />
<path d="M488.3191094619666,470.62708719851577 L523.7031539888683,433.03153988868274" stroke="yellow" stroke-width="1" fill="none" />
<path d="M541.3951762523192,481.68460111317256 L541.3951762523192,499.3766233766234" stroke="yellow" stroke-width="1" fill="none" />
<path d="M541.3951762523192,499.3766233766234 L559.08719851577,499.3766233766234" stroke="yellow" stroke-width="1" fill="none" />
<path d="M559.08719851577,499.3766233766234 L559.08719851577,481.68460111317256" stroke="yellow" stroke-width="1" fill="none" />
<path d="M559.08719851577,481.68460111317256 L541.3951762523192,481.68460111317256" stroke="yellow" stroke-width="1" fill="none" />
<path d="M559.08719851577,481.68460111317256 L541.3951762523192,499.3766233766234" stroke="lavender" stroke-width="1" fill="none" />
<path d="M236.20779220779224,410.9165120593692 L335.72541743970316,532.5491651205937" stroke="yellow" stroke-width="1" fill="none" />
<path d="M315.821892393321,587.8367346938776 L280.4378478664193,634.278293135436" stroke="yellow" stroke-width="1" fill="none" />
<path d="M158.80519480519484,503.7996289424861 L198.61224489795921,437.45454545454544" stroke="yellow" stroke-width="1" fill="none" />
<path d="M196.40074211502787,634.278293135436 L138.90166975881266,556.8756957328386" stroke="yellow" stroke-width="1" fill="none" />
<path d="M152.1706864564008,702.834879406308 L17.2690166975882,598.8942486085343" stroke="yellow" stroke-width="1" fill="none" />
<path d="M674.0853432282004,410.9165120593692 L674.0853432282004,428.60853432282" stroke="lavender" stroke-width="1" fill="none" />
<path d="M676.2968460111317,428.60853432282 L676.2968460111317,410.9165120593692" stroke="yellow" stroke-width="1" fill="none" />
<path d="M293.70686456400745,180.92022263450838 L242.84230055658628,229.57328385899814" stroke="yellow" stroke-width="1" fill="none" />
<path d="M183.13172541743972,249.47680890538038 L127.84415584415586,216.30426716141005" stroke="yellow" stroke-width="1" fill="none" />
<path d="M594.4712430426716,233.99628942486083 L594.4712430426716,180.92022263450838" stroke="yellow" stroke-width="1" fill="none" />
<path d="M647.5473098330241,233.99628942486083 L647.5473098330241,180.92022263450838" stroke="yellow" stroke-width="1" fill="none" />
<path d="M700.6233766233767,233.99628942486083 L700.6233766233767,180.92022263450838" stroke="yellow" stroke-width="1" fill="none" />
<path d="M771.39146567718,233.99628942486083 L753.6994434137291,180.92022263450838" stroke="yellow" stroke-width="1" fill="none" />
<path d="M647.5473098330241,4.0 L647.5473098330241,57.07606679035257" stroke="lavender" stroke-width="1" fill="none" />
<path d="M576.7792207792209,4.0 L594.4712430426716,57.07606679035257" stroke="lavender" stroke-width="1" fill="none" />
<path d="M506.01113172541744,74.76808905380335 L559.08719851577,92.46011131725425" stroke="lavender" stroke-width="1" fill="none" />
<path d="M506.01113172541744,145.5361781076067 L559.08719851577,145.5361781076067" stroke="lavender" stroke-width="1" fill="none" />
<path d="M506.01113172541744,180.92022263450838 L559.08719851577,180.92022263450838" stroke="lavender" stroke-width="1" fill="none" />
<path d="M594.4712430426716,180.92022263450838 L559.08719851577,180.92022263450838" stroke="yellow" stroke-width="1" fill="none" />
<path d="M647.5473098330241,180.92022263450838 L594.4712430426716,180.92022263450838" stroke="yellow" stroke-width="1" fill="none" />
<path d="M700.6233766233767,180.92022263450838 L647.5473098330241,180.92022263450838" stroke="yellow" stroke-width="1" fill="none" />
<path d="M753.6994434137291,180.92022263450838 L700.6233766233767,180.92022263450838" stroke="yellow" stroke-width="1" fill="none" />
<path d="M789.0834879406308,145.5361781076067 L753.6994434137291,180.92022263450838" stroke="yellow" stroke-width="1" fill="none" />
<path d="M753.6994434137291,57.07606679035257 L789.0834879406308,92.46011131725425" stroke="lavender" stroke-width="1" fill="none" />
<path d="M700.6233766233767,57.07606679035257 L753.6994434137291,57.07606679035257" stroke="yellow" stroke-width="1" fill="none" />
<path d="M594.4712430426716,57.07606679035257 L647.5473098330241,57.07606679035257" stroke="yellow" stroke-width="1" fill="none" />
<path d="M559.08719851577,92.46011131725425 L594.4712430426716,57.07606679035257" stroke="yellow" stroke-width="1" fill="none" />
<path d="M559.08719851577,180.92022263450838 L559.08719851577,145.5361781076067" stroke="yellow" stroke-width="1" fill="none" />
<path d="M771.39146567718,4.0 L753.6994434137291,57.07606679035257" stroke="yellow" stroke-width="1" fill="none" />
<path d="M647.5473098330241,57.07606679035257 L700.6233766233767,57.07606679035257" stroke="yellow" stroke-width="1" fill="none" />
<path d="M700.6233766233767,4.0 L700.6233766233767,57.07606679035257" stroke="yellow" stroke-width="1" fill="none" />
<path d="M789.0834879406308,145.5361781076067 L842.1595547309832,163.22820037105748" stroke="lavender" stroke-width="1" fill="none" />
<path d="M842.1595547309832,74.76808905380335 L789.0834879406308,92.46011131725425" stroke="yellow" stroke-width="1" fill="none" />
<path d="M789.0834879406308,57.07606679035257 L806.7755102040817,57.07606679035257" stroke="lavender" stroke-width="1" fill="none" />
<path d="M806.7755102040817,57.07606679035257 L806.7755102040817,39.384044526901675" stroke="lavender" stroke-width="1" fill="none" />
<path d="M806.7755102040817,39.384044526901675 L789.0834879406308,39.384044526901675" stroke="lavender" stroke-width="1" fill="none" />
<path d="M789.0834879406308,39.384044526901675 L789.0834879406308,57.07606679035257" stroke="lavender" stroke-width="1" fill="none" />
<path d="M718.3153988868274,163.22820037105748 L736.0074211502783,163.22820037105748" stroke="lavender" stroke-width="1" fill="none" />
<path d="M736.0074211502783,163.22820037105748 L736.0074211502783,145.5361781076067" stroke="lavender" stroke-width="1" fill="none" />
<path d="M736.0074211502783,145.5361781076067 L718.3153988868274,145.5361781076067" stroke="lavender" stroke-width="1" fill="none" />
<path d="M718.3153988868274,145.5361781076067 L718.3153988868274,163.22820037105748" stroke="lavender" stroke-width="1" fill="none" />
<path d="M612.1632653061224,163.22820037105748 L629.8552875695733,163.22820037105748" stroke="lavender" stroke-width="1" fill="none" />
<path d="M629.8552875695733,163.22820037105748 L629.8552875695733,145.5361781076067" stroke="lavender" stroke-width="1" fill="none" />
<path d="M629.8552875695733,145.5361781076067 L612.1632653061224,145.5361781076067" stroke="lavender" stroke-width="1" fill="none" />
<path d="M612.1632653061224,145.5361781076067 L612.1632653061224,163.22820037105748" stroke="lavender" stroke-width="1" fill="none" />
<path d="M844.3710575139146,826.6790352504638 L844.3710575139146,862.0630797773655" stroke="lavender" stroke-width="1" fill="none" />
<path d="M700.6233766233767,961.5807050092765 L665.239332096475,961.5807050092765" stroke="lavender" stroke-width="1" fill="none" />
<path d="M1038.9833024118739,1078.7903525046381 L1027.9257884972171,1092.0593692022262" stroke="lavender" stroke-width="1" fill="none" />
<path d="M665.239332096475,963.7922077922078 L700.6233766233767,963.7922077922078" stroke="lavender" stroke-width="1" fill="none" />
<path d="M930.6196660482375,1118.5974025974026 L824.4675324675325,977.0612244897959" stroke="lavender" stroke-width="1" fill="none" />
<path d="M877.543599257885,923.9851576994434 L1056.6753246753246,943.8886827458256" stroke="lavender" stroke-width="1" fill="none" />
<path d="M824.4675324675325,977.0612244897959 L877.543599257885,977.0612244897959" stroke="lavender" stroke-width="1" fill="none" />
<path d="M877.543599257885,977.0612244897959 L877.543599257885,923.9851576994434" stroke="lavender" stroke-width="1" fill="none" />
<path d="M846.582560296846,862.0630797773655 L846.582560296846,826.6790352504638" stroke="lavender" stroke-width="1" fill="none" />
<path d="M851.0055658627087,862.0630797773655 L851.0055658627087,826.6790352504638" stroke="yellow" stroke-width="1" fill="none" />
<path d="M1034.5602968460112,1074.3673469387754 L1021.2912801484231,1092.0593692022262" stroke="yellow" stroke-width="1" fill="none" />
<path d="M1032.3487940630798,1096.482374768089 L1043.4063079777366,1083.2133580705008" stroke="lavender" stroke-width="1" fill="none" />
<path d="M957.1576994434138,1065.52133580705 L966.0037105751392,1030.1372912801485" stroke="yellow" stroke-width="1" fill="none" />
<path d="M966.0037105751392,1030.1372912801485 L1001.3877551020408,1021.291280148423" stroke="yellow" stroke-width="1" fill="none" />
<path d="M1001.3877551020408,1021.291280148423 L966.0037105751392,1012.4452690166976" stroke="yellow" stroke-width="1" fill="none" />
<path d="M966.0037105751392,1012.4452690166976 L957.1576994434138,977.0612244897959" stroke="yellow" stroke-width="1" fill="none" />
<path d="M957.1576994434138,977.0612244897959 L948.3116883116884,1012.4452690166976" stroke="yellow" stroke-width="1" fill="none" />
<path d="M948.3116883116884,1012.4452690166976 L912.9276437847866,1021.291280148423" stroke="yellow" stroke-width="1" fill="none" />
<path d="M912.9276437847866,1021.291280148423 L948.3116883116884,1030.1372912801485" stroke="yellow" stroke-width="1" fill="none" />
<path d="M948.3116883116884,1030.1372912801485 L957.1576994434138,1065.52133580705" stroke="yellow" stroke-width="1" fill="none" />
<path d="M506.01113172541744,782.4489795918367 L506.01113172541744,780.2374768089054" stroke="yellow" stroke-width="1" fill="none" />
<path d="M541.3951762523192,817.8330241187384 L541.3951762523192,693.9888682745825" stroke="yellow" stroke-width="1" fill="none" />
<path d="M539.1836734693878,693.9888682745825 L539.1836734693878,817.8330241187384" stroke="yellow" stroke-width="1" fill="none" />
<path d="M329.0909090909091,782.4489795918367 L346.78293135435996,782.4489795918367" stroke="lavender" stroke-width="1" fill="none" />
<path d="M346.78293135435996,782.4489795918367 L346.78293135435996,764.7569573283859" stroke="lavender" stroke-width="1" fill="none" />
<path d="M346.78293135435996,764.7569573283859 L329.0909090909091,764.7569573283859" stroke="lavender" stroke-width="1" fill="none" />
<path d="M329.0909090909091,764.7569573283859 L329.0909090909091,782.4489795918367" stroke="lavender" stroke-width="1" fill="none" />
<path d="M278.22634508348796,782.4489795918367 L329.0909090909091,833.3135435992579" stroke="lavender" stroke-width="1" fill="none" />
<path d="M612.1632653061224,778.025974025974 L612.1632653061224,747.0649350649351" stroke="red" stroke-width="1" fill="none" />
<path d="M740.430426716141,782.4489795918367 L771.39146567718,782.4489795918367" stroke="red" stroke-width="1" fill="none" />
<path d="M736.0074211502783,910.7161410018552 L736.0074211502783,941.6771799628942" stroke="red" stroke-width="1" fill="none" />
<path d="M607.7402597402597,906.2931354359926 L576.7792207792209,906.2931354359926" stroke="red" stroke-width="1" fill="none" />
<path d="M612.1632653061224,747.0649350649351 L612.1632653061224,693.9888682745825" stroke="red" stroke-width="1" fill="none" />
<path d="M612.1632653061224,693.9888682745825 L665.239332096475,693.9888682745825" stroke="red" stroke-width="1" fill="none" />
<path d="M665.239332096475,693.9888682745825 L665.239332096475,658.6048237476809" stroke="red" stroke-width="1" fill="none" />
<path d="M665.239332096475,658.6048237476809 L612.1632653061224,658.6048237476809" stroke="red" stroke-width="1" fill="none" />
<path d="M612.1632653061224,658.6048237476809 L612.1632653061224,640.91280148423" stroke="red" stroke-width="1" fill="none" />
<path d="M612.1632653061224,640.91280148423 L605.5287569573284,640.91280148423" stroke="red" stroke-width="1" fill="none" />
<path d="M605.5287569573284,623.2207792207791 L612.1632653061224,623.2207792207791" stroke="red" stroke-width="1" fill="none" />
<path d="M612.1632653061224,623.2207792207791 L612.1632653061224,618.7977736549165" stroke="red" stroke-width="1" fill="none" />
<path d="M612.1632653061224,587.8367346938776 L682.9313543599258,587.8367346938776" stroke="red" stroke-width="1" fill="none" />
<path d="M682.9313543599258,499.3766233766234 L733.795918367347,499.3766233766234" stroke="red" stroke-width="1" fill="none" />
<path d="M806.7755102040817,517.0686456400742 L806.7755102040817,570.1447124304267" stroke="red" stroke-width="1" fill="none" />
<path d="M789.0834879406308,570.1447124304267 L736.0074211502783,570.1447124304267" stroke="red" stroke-width="1" fill="none" />
<path d="M824.4675324675325,623.2207792207791 L824.4675324675325,269.3803339517625" stroke="red" stroke-width="1" fill="none" />
<path d="M1107.5398886827459,623.2207792207791 L895.2356215213358,711.6808905380334" stroke="red" stroke-width="1" fill="none" />
<path d="M895.2356215213358,711.6808905380334 L736.0074211502783,711.6808905380334" stroke="red" stroke-width="1" fill="none" />
<path d="M736.0074211502783,711.6808905380334 L736.0074211502783,778.025974025974" stroke="red" stroke-width="1" fill="none" />
<path d="M771.39146567718,782.4489795918367 L842.1595547309832,782.4489795918367" stroke="red" stroke-width="1" fill="none" />
<path d="M842.1595547309832,906.2931354359926 L740.430426716141,906.2931354359926" stroke="red" stroke-width="1" fill="none" />
<path d="M576.7792207792209,906.2931354359926 L541.3951762523192,906.2931354359926" stroke="red" stroke-width="1" fill="none" />
<path d="M541.3951762523192,693.9888682745825 L541.3951762523192,676.2968460111317" stroke="red" stroke-width="1" fill="none" />
<path d="M594.4712430426716,623.2207792207791 L603.317254174397,623.2207792207791" stroke="red" stroke-width="1" fill="none" />
<path d="M603.317254174397,623.2207792207791 L605.5287569573284,623.2207792207791" stroke="red" stroke-width="1" fill="none" />
<path d="M605.5287569573284,640.91280148423 L603.317254174397,640.91280148423" stroke="red" stroke-width="1" fill="none" />
<path d="M603.317254174397,640.91280148423 L576.7792207792209,640.91280148423" stroke="red" stroke-width="1" fill="none" />
<path d="M576.7792207792209,645.3358070500927 L576.7792207792209,782.4489795918367" stroke="red" stroke-width="1" fill="none" />
<path d="M576.7792207792209,782.4489795918367 L607.7402597402597,782.4489795918367" stroke="red" stroke-width="1" fill="none" />
<path d="M736.0074211502783,941.6771799628942 L736.0074211502783,959.369202226345" stroke="red" stroke-width="1" fill="none" />
<path d="M612.1632653061224,959.369202226345 L612.1632653061224,910.7161410018552" stroke="red" stroke-width="1" fill="none" />
<path d="M612.1632653061224,782.4489795918367 L612.1632653061224,778.025974025974" stroke="red" stroke-width="1" fill="none" />
<path d="M736.0074211502783,782.4489795918367 L740.430426716141,782.4489795918367" stroke="red" stroke-width="1" fill="none" />
<path d="M736.0074211502783,906.2931354359926 L736.0074211502783,910.7161410018552" stroke="red" stroke-width="1" fill="none" />
<path d="M612.1632653061224,906.2931354359926 L607.7402597402597,906.2931354359926" stroke="red" stroke-width="1" fill="none" />
<path d="M612.1632653061224,910.7161410018552 L612.1632653061224,906.2931354359926" stroke="lavender" stroke-width="1" fill="none" />
<path d="M740.430426716141,906.2931354359926 L736.0074211502783,906.2931354359926" stroke="lavender" stroke-width="1" fill="none" />
<path d="M736.0074211502783,778.025974025974 L736.0074211502783,782.4489795918367" stroke="lavender" stroke-width="1" fill="none" />
<path d="M607.7402597402597,782.4489795918367 L612.1632653061224,782.4489795918367" stroke="lavender" stroke-width="1" fill="none" />
<path d="M541.3951762523192,636.4897959183673 L541.3951762523192,621.0092764378478" stroke="red" stroke-width="1" fill="none" />
<path d="M541.3951762523192,621.0092764378478 L506.01113172541744,587.8367346938776" stroke="red" stroke-width="1" fill="none" />
<path d="M506.01113172541744,587.8367346938776 L470.6270871985158,587.8367346938776" stroke="red" stroke-width="1" fill="none" />
<path d="M497.16512059369205,640.91280148423 L506.01113172541744,640.91280148423" stroke="red" stroke-width="1" fill="none" />
<path d="M506.01113172541744,640.91280148423 L514.8571428571429,640.91280148423" stroke="red" stroke-width="1" fill="none" />
<path d="M514.8571428571429,640.91280148423 L523.7031539888683,640.91280148423" stroke="red" stroke-width="1" fill="none" />
<path d="M594.4712430426716,570.1447124304267 L594.4712430426716,623.2207792207791" stroke="red" stroke-width="1" fill="none" />
<path d="M647.5473098330241,517.0686456400742 L594.4712430426716,570.1447124304267" stroke="red" stroke-width="1" fill="none" />
<path d="M629.8552875695733,446.3005565862709 L647.5473098330241,463.9925788497217" stroke="red" stroke-width="1" fill="none" />
<path d="M435.24304267161415,587.8367346938776 L435.24304267161415,552.4526901669758" stroke="red" stroke-width="1" fill="none" />
<path d="M506.01113172541744,676.2968460111317 L497.16512059369205,676.2968460111317" stroke="red" stroke-width="1" fill="none" />
<path d="M514.8571428571429,676.2968460111317 L506.01113172541744,676.2968460111317" stroke="red" stroke-width="1" fill="none" />
<path d="M523.7031539888683,676.2968460111317 L514.8571428571429,676.2968460111317" stroke="red" stroke-width="1" fill="none" />
<path d="M539.1836734693878,676.2968460111317 L523.7031539888683,676.2968460111317" stroke="red" stroke-width="1" fill="none" />
<path d="M523.7031539888683,640.91280148423 L539.1836734693878,640.91280148423" stroke="red" stroke-width="1" fill="none" />
<path d="M539.1836734693878,640.91280148423 L541.3951762523192,640.91280148423" stroke="red" stroke-width="1" fill="none" />
<path d="M541.3951762523192,676.2968460111317 L539.1836734693878,676.2968460111317" stroke="red" stroke-width="1" fill="none" />
<path d="M435.24304267161415,676.2968460111317 L435.24304267161415,596.682745825603" stroke="red" stroke-width="1" fill="none" />
<path d="M435.24304267161415,596.682745825603 L435.24304267161415,587.8367346938776" stroke="red" stroke-width="1" fill="none" />
<path d="M497.16512059369205,676.2968460111317 L488.3191094619666,676.2968460111317" stroke="red" stroke-width="1" fill="none" />
<path d="M488.3191094619666,676.2968460111317 L479.4730983302412,676.2968460111317" stroke="red" stroke-width="1" fill="none" />
<path d="M479.4730983302412,676.2968460111317 L470.6270871985158,676.2968460111317" stroke="red" stroke-width="1" fill="none" />
<path d="M470.6270871985158,640.91280148423 L479.4730983302412,640.91280148423" stroke="red" stroke-width="1" fill="none" />
<path d="M479.4730983302412,640.91280148423 L488.3191094619666,640.91280148423" stroke="red" stroke-width="1" fill="none" />
<path d="M488.3191094619666,640.91280148423 L497.16512059369205,640.91280148423" stroke="red" stroke-width="1" fill="none" />
<path d="M470.6270871985158,587.8367346938776 L470.6270871985158,596.682745825603" stroke="red" stroke-width="1" fill="none" />
<path d="M470.6270871985158,596.682745825603 L470.6270871985158,640.91280148423" stroke="red" stroke-width="1" fill="none" />
<path d="M470.6270871985158,676.2968460111317 L435.24304267161415,676.2968460111317" stroke="red" stroke-width="1" fill="none" />
<path d="M806.7755102040817,570.1447124304267 L806.7755102040817,572.356215213358" stroke="red" stroke-width="1" fill="none" />
<path d="M806.7755102040817,572.356215213358 L789.0834879406308,572.356215213358" stroke="lavender" stroke-width="1" fill="none" />
<path d="M789.0834879406308,572.356215213358 L789.0834879406308,570.1447124304267" stroke="red" stroke-width="1" fill="none" />
<path d="M733.795918367347,499.3766233766234 L736.0074211502783,481.68460111317256" stroke="lavender" stroke-width="1" fill="none" />
<path d="M806.7755102040817,481.68460111317256 L806.7755102040817,517.0686456400742" stroke="red" stroke-width="1" fill="none" />
<path d="M736.0074211502783,570.1447124304267 L740.430426716141,574.5677179962895" stroke="red" stroke-width="1" fill="none" />
<path d="M789.0834879406308,618.7977736549165 L789.0834879406308,623.2207792207791" stroke="red" stroke-width="1" fill="none" />
<path d="M740.430426716141,574.5677179962895 L784.6604823747681,574.5677179962895" stroke="red" stroke-width="1" fill="none" />
<path d="M784.6604823747681,574.5677179962895 L784.6604823747681,587.8367346938776" stroke="red" stroke-width="1" fill="none" />
<path d="M784.6604823747681,587.8367346938776 L806.7755102040817,587.8367346938776" stroke="red" stroke-width="1" fill="none" />
<path d="M806.7755102040817,587.8367346938776 L806.7755102040817,605.5287569573284" stroke="lavender" stroke-width="1" fill="none" />
<path d="M806.7755102040817,605.5287569573284 L789.0834879406308,605.5287569573284" stroke="red" stroke-width="1" fill="none" />
<path d="M789.0834879406308,605.5287569573284 L789.0834879406308,618.7977736549165" stroke="red" stroke-width="1" fill="none" />
<path d="M682.9313543599258,587.8367346938776 L678.5083487940631,583.4137291280149" stroke="red" stroke-width="1" fill="none" />
<path d="M678.5083487940631,499.3766233766234 L682.9313543599258,499.3766233766234" stroke="red" stroke-width="1" fill="none" />
<path d="M678.5083487940631,583.4137291280149 L647.5473098330241,583.4137291280149" stroke="red" stroke-width="1" fill="none" />
<path d="M647.5473098330241,583.4137291280149 L629.8552875695733,570.1447124304267" stroke="red" stroke-width="1" fill="none" />
<path d="M629.8552875695733,570.1447124304267 L629.8552875695733,552.4526901669758" stroke="red" stroke-width="1" fill="none" />
<path d="M629.8552875695733,552.4526901669758 L651.9703153988869,530.3376623376623" stroke="red" stroke-width="1" fill="none" />
<path d="M651.9703153988869,530.3376623376623 L651.9703153988869,517.0686456400742" stroke="red" stroke-width="1" fill="none" />
<path d="M651.9703153988869,517.0686456400742 L647.5473098330241,517.0686456400742" stroke="red" stroke-width="1" fill="none" />
<path d="M647.5473098330241,463.9925788497217 L651.9703153988869,463.9925788497217" stroke="red" stroke-width="1" fill="none" />
<path d="M651.9703153988869,463.9925788497217 L669.6623376623377,463.9925788497217" stroke="lavender" stroke-width="1" fill="none" />
<path d="M669.6623376623377,463.9925788497217 L678.5083487940631,499.3766233766234" stroke="red" stroke-width="1" fill="none" />
<path d="M789.0834879406308,623.2207792207791 L824.4675324675325,623.2207792207791" stroke="red" stroke-width="1" fill="none" />
<path d="M559.08719851577,375.53246753246754 L594.4712430426716,410.9165120593692" stroke="red" stroke-width="1" fill="none" />
<path d="M594.4712430426716,410.9165120593692 L612.1632653061224,428.60853432282" stroke="red" stroke-width="1" fill="none" />
<path d="M612.1632653061224,605.5287569573284 L612.1632653061224,587.8367346938776" stroke="red" stroke-width="1" fill="none" />
<path d="M612.1632653061224,618.7977736549165 L612.1632653061224,614.3747680890538" stroke="red" stroke-width="1" fill="none" />
<path d="M612.1632653061224,614.3747680890538 L612.1632653061224,609.9517625231911" stroke="red" stroke-width="1" fill="none" />
<path d="M612.1632653061224,609.9517625231911 L612.1632653061224,605.5287569573284" stroke="red" stroke-width="1" fill="none" />
<path d="M612.1632653061224,428.60853432282 L629.8552875695733,428.60853432282" stroke="lavender" stroke-width="1" fill="none" />
<path d="M576.7792207792209,640.91280148423 L576.7792207792209,645.3358070500927" stroke="red" stroke-width="1" fill="none" />
<path d="M541.3951762523192,906.2931354359926 L541.3951762523192,853.2170686456401" stroke="red" stroke-width="1" fill="none" />
<path d="M541.3951762523192,853.2170686456401 L523.7031539888683,853.2170686456401" stroke="red" stroke-width="1" fill="none" />
<path d="M523.7031539888683,853.2170686456401 L521.4916512059369,853.2170686456401" stroke="red" stroke-width="1" fill="none" />
<path d="M521.4916512059369,853.2170686456401 L470.6270871985158,853.2170686456401" stroke="red" stroke-width="1" fill="none" />
<path d="M470.6270871985158,853.2170686456401 L468.4155844155844,853.2170686456401" stroke="red" stroke-width="1" fill="none" />
<path d="M468.4155844155844,853.2170686456401 L417.55102040816325,853.2170686456401" stroke="red" stroke-width="1" fill="none" />
<path d="M417.55102040816325,853.2170686456401 L415.3395176252319,853.2170686456401" stroke="red" stroke-width="1" fill="none" />
<path d="M415.3395176252319,853.2170686456401 L364.4749536178108,853.2170686456401" stroke="red" stroke-width="1" fill="none" />
<path d="M364.4749536178108,853.2170686456401 L362.26345083487945,853.2170686456401" stroke="red" stroke-width="1" fill="none" />
<path d="M258.32282003710577,729.3729128014843 L258.32282003710577,711.6808905380334" stroke="lavender" stroke-width="1" fill="none" />
<path d="M258.32282003710577,711.6808905380334 L276.0148423005566,711.6808905380334" stroke="red" stroke-width="1" fill="none" />
<path d="M276.0148423005566,711.6808905380334 L276.0148423005566,729.3729128014843" stroke="red" stroke-width="1" fill="none" />
<path d="M362.26345083487945,835.5250463821892 L364.4749536178108,835.5250463821892" stroke="red" stroke-width="1" fill="none" />
<path d="M364.4749536178108,835.5250463821892 L415.3395176252319,835.5250463821892" stroke="red" stroke-width="1" fill="none" />
<path d="M415.3395176252319,835.5250463821892 L417.55102040816325,835.5250463821892" stroke="red" stroke-width="1" fill="none" />
<path d="M417.55102040816325,835.5250463821892 L468.4155844155844,835.5250463821892" stroke="red" stroke-width="1" fill="none" />
<path d="M468.4155844155844,835.5250463821892 L470.6270871985158,835.5250463821892" stroke="red" stroke-width="1" fill="none" />
<path d="M470.6270871985158,835.5250463821892 L521.4916512059369,835.5250463821892" stroke="red" stroke-width="1" fill="none" />
<path d="M521.4916512059369,835.5250463821892 L523.7031539888683,835.5250463821892" stroke="red" stroke-width="1" fill="none" />
<path d="M523.7031539888683,835.5250463821892 L541.3951762523192,835.5250463821892" stroke="red" stroke-width="1" fill="none" />
<path d="M276.0148423005566,729.3729128014843 L278.22634508348796,729.3729128014843" stroke="red" stroke-width="1" fill="none" />
<path d="M278.22634508348796,729.3729128014843 L329.0909090909091,693.9888682745825" stroke="red" stroke-width="1" fill="none" />
<path d="M417.55102040816325,782.4489795918367 L362.26345083487945,833.3135435992579" stroke="red" stroke-width="1" fill="none" />
<path d="M362.26345083487945,833.3135435992579 L362.26345083487945,835.5250463821892" stroke="red" stroke-width="1" fill="none" />
<path d="M393.22448979591843,693.9888682745825 L417.55102040816325,720.5269016697588" stroke="red" stroke-width="1" fill="none" />
<path d="M966.0037105751392,410.9165120593692 L930.6196660482375,463.9925788497217" stroke="red" stroke-width="1" fill="none" />
<path d="M1036.7717996289425,410.9165120593692 L1010.2337662337662,410.9165120593692" stroke="red" stroke-width="1" fill="none" />
<path d="M1072.155844155844,463.9925788497217 L1036.7717996289425,410.9165120593692" stroke="red" stroke-width="1" fill="none" />
<path d="M1036.7717996289425,517.0686456400742 L1072.155844155844,463.9925788497217" stroke="red" stroke-width="1" fill="none" />
<path d="M966.0037105751392,517.0686456400742 L1036.7717996289425,517.0686456400742" stroke="red" stroke-width="1" fill="none" />
<path d="M930.6196660482375,463.9925788497217 L966.0037105751392,517.0686456400742" stroke="red" stroke-width="1" fill="none" />
<path d="M1196.0,463.9925788497217 L1107.5398886827459,623.2207792207791" stroke="red" stroke-width="1" fill="none" />
<path d="M1196.0,269.3803339517625 L1196.0,463.9925788497217" stroke="red" stroke-width="1" fill="none" />
<path d="M824.4675324675325,269.3803339517625 L1196.0,269.3803339517625" stroke="red" stroke-width="1" fill="none" />
<path d="M736.0074211502783,481.68460111317256 L736.0074211502783,479.4730983302412" stroke="red" stroke-width="1" fill="none" />
<path d="M736.0074211502783,479.4730983302412 L736.0074211502783,463.9925788497217" stroke="red" stroke-width="1" fill="none" />
<path d="M736.0074211502783,463.9925788497217 L806.7755102040817,463.9925788497217" stroke="red" stroke-width="1" fill="none" />
<path d="M806.7755102040817,463.9925788497217 L806.7755102040817,479.4730983302412" stroke="red" stroke-width="1" fill="none" />
<path d="M806.7755102040817,479.4730983302412 L806.7755102040817,481.68460111317256" stroke="red" stroke-width="1" fill="none" />
<path d="M1010.2337662337662,410.9165120593692 L1010.2337662337662,413.12801484230056" stroke="red" stroke-width="1" fill="none" />
<path d="M992.5417439703153,413.12801484230056 L992.5417439703153,410.9165120593692" stroke="red" stroke-width="1" fill="none" />
<path d="M992.5417439703153,410.9165120593692 L966.0037105751392,410.9165120593692" stroke="red" stroke-width="1" fill="none" />
<path d="M1010.2337662337662,413.12801484230056 L1010.2337662337662,415.3395176252319" stroke="red" stroke-width="1" fill="none" />
<path d="M1010.2337662337662,415.3395176252319 L1010.2337662337662,417.55102040816325" stroke="red" stroke-width="1" fill="none" />
<path d="M1010.2337662337662,417.55102040816325 L1030.1372912801485,417.55102040816325" stroke="red" stroke-width="1" fill="none" />
<path d="M1030.1372912801485,417.55102040816325 L1054.4638218923933,446.3005565862709" stroke="red" stroke-width="1" fill="none" />
<path d="M1054.4638218923933,446.3005565862709 L1054.4638218923933,481.68460111317256" stroke="red" stroke-width="1" fill="none" />
<path d="M1054.4638218923933,481.68460111317256 L1036.7717996289425,499.3766233766234" stroke="red" stroke-width="1" fill="none" />
<path d="M1036.7717996289425,499.3766233766234 L1019.0797773654916,499.3766233766234" stroke="red" stroke-width="1" fill="none" />
<path d="M1019.0797773654916,499.3766233766234 L1019.0797773654916,481.68460111317256" stroke="red" stroke-width="1" fill="none" />
<path d="M1019.0797773654916,481.68460111317256 L1036.7717996289425,463.9925788497217" stroke="red" stroke-width="1" fill="none" />
<path d="M1036.7717996289425,463.9925788497217 L1036.7717996289425,461.7810760667904" stroke="red" stroke-width="1" fill="none" />
<path d="M1036.7717996289425,461.7810760667904 L1016.8682745825603,461.7810760667904" stroke="red" stroke-width="1" fill="none" />
<path d="M1016.8682745825603,461.7810760667904 L1016.8682745825603,514.8571428571429" stroke="red" stroke-width="1" fill="none" />
<path d="M1016.8682745825603,514.8571428571429 L972.6382189239332,514.8571428571429" stroke="red" stroke-width="1" fill="none" />
<path d="M972.6382189239332,514.8571428571429 L966.0037105751392,481.68460111317256" stroke="red" stroke-width="1" fill="none" />
<path d="M966.0037105751392,481.68460111317256 L948.3116883116884,481.68460111317256" stroke="red" stroke-width="1" fill="none" />
<path d="M948.3116883116884,481.68460111317256 L939.4656771799629,463.9925788497217" stroke="red" stroke-width="1" fill="none" />
<path d="M939.4656771799629,463.9925788497217 L948.3116883116884,446.3005565862709" stroke="red" stroke-width="1" fill="none" />
<path d="M948.3116883116884,446.3005565862709 L966.0037105751392,446.3005565862709" stroke="red" stroke-width="1" fill="none" />
<path d="M966.0037105751392,446.3005565862709 L966.0037105751392,463.9925788497217" stroke="red" stroke-width="1" fill="none" />
<path d="M966.0037105751392,463.9925788497217 L983.69573283859,463.9925788497217" stroke="red" stroke-width="1" fill="none" />
<path d="M983.69573283859,481.68460111317256 L992.5417439703153,490.53061224489795" stroke="red" stroke-width="1" fill="none" />
<path d="M992.5417439703153,490.53061224489795 L999.1762523191094,483.8961038961039" stroke="red" stroke-width="1" fill="none" />
<path d="M999.1762523191094,483.8961038961039 L999.1762523191094,459.569573283859" stroke="red" stroke-width="1" fill="none" />
<path d="M972.6382189239332,441.8775510204082 L954.9461966604824,441.8775510204082" stroke="red" stroke-width="1" fill="none" />
<path d="M954.9461966604824,441.8775510204082 L968.2152133580705,417.55102040816325" stroke="red" stroke-width="1" fill="none" />
<path d="M968.2152133580705,417.55102040816325 L992.5417439703153,417.55102040816325" stroke="red" stroke-width="1" fill="none" />
<path d="M992.5417439703153,417.55102040816325 L992.5417439703153,415.3395176252319" stroke="red" stroke-width="1" fill="none" />
<path d="M992.5417439703153,415.3395176252319 L992.5417439703153,413.12801484230056" stroke="red" stroke-width="1" fill="none" />
<path d="M983.69573283859,463.9925788497217 L983.69573283859,481.68460111317256" stroke="red" stroke-width="1" fill="none" />
<path d="M999.1762523191094,459.569573283859 L996.964749536178,459.569573283859" stroke="red" stroke-width="1" fill="none" />
<path d="M972.6382189239332,444.08905380333954 L972.6382189239332,441.8775510204082" stroke="red" stroke-width="1" fill="none" />
<path d="M996.964749536178,459.569573283859 L972.6382189239332,459.569573283859" stroke="red" stroke-width="1" fill="none" />
<path d="M972.6382189239332,459.569573283859 L972.6382189239332,444.08905380333954" stroke="red" stroke-width="1" fill="none" />
<path d="M362.26345083487945,853.2170686456401 L362.26345083487945,855.4285714285714" stroke="red" stroke-width="1" fill="none" />
<path d="M362.26345083487945,855.4285714285714 L362.26345083487945,873.1205936920222" stroke="red" stroke-width="1" fill="none" />
<path d="M362.26345083487945,873.1205936920222 L238.41929499072359,870.9090909090909" stroke="red" stroke-width="1" fill="none" />
<path d="M238.41929499072359,870.9090909090909 L238.41929499072359,729.3729128014843" stroke="red" stroke-width="1" fill="none" />
<path d="M238.41929499072359,729.3729128014843 L256.1113172541744,729.3729128014843" stroke="red" stroke-width="1" fill="none" />
<path d="M256.1113172541744,729.3729128014843 L258.32282003710577,729.3729128014843" stroke="red" stroke-width="1" fill="none" />
<path d="M329.0909090909091,693.9888682745825 L329.0909090909091,691.7773654916512" stroke="red" stroke-width="1" fill="none" />
<path d="M329.0909090909091,691.7773654916512 L329.0909090909091,678.5083487940631" stroke="red" stroke-width="1" fill="none" />
<path d="M329.0909090909091,678.5083487940631 L393.22448979591843,678.5083487940631" stroke="red" stroke-width="1" fill="none" />
<path d="M393.22448979591843,678.5083487940631 L393.22448979591843,691.7773654916512" stroke="red" stroke-width="1" fill="none" />
<path d="M393.22448979591843,691.7773654916512 L393.22448979591843,693.9888682745825" stroke="red" stroke-width="1" fill="none" />
<path d="M417.55102040816325,720.5269016697588 L419.7625231910946,720.5269016697588" stroke="red" stroke-width="1" fill="none" />
<path d="M419.7625231910946,720.5269016697588 L433.0315398886828,720.5269016697588" stroke="red" stroke-width="1" fill="none" />
<path d="M433.0315398886828,782.4489795918367 L419.7625231910946,782.4489795918367" stroke="red" stroke-width="1" fill="none" />
<path d="M419.7625231910946,782.4489795918367 L417.55102040816325,782.4489795918367" stroke="red" stroke-width="1" fill="none" />
<path d="M435.24304267161415,481.68460111317256 L435.24304267161415,472.8385899814471" stroke="red" stroke-width="1" fill="none" />
<path d="M550.2411873840446,375.53246753246754 L559.08719851577,375.53246753246754" stroke="red" stroke-width="1" fill="none" />
<path d="M435.24304267161415,472.8385899814471 L433.0315398886828,430.8200371057514" stroke="red" stroke-width="1" fill="none" />
<path d="M379.95547309833023,435.2430426716141 L399.8589981447125,503.7996289424861" stroke="red" stroke-width="1" fill="none" />
<path d="M295.9183673469388,371.10946196660484 L355.6289424860854,410.9165120593692" stroke="red" stroke-width="1" fill="none" />
<path d="M340.14842300556586,302.55287569573284 L269.38033395176257,313.6103896103896" stroke="red" stroke-width="1" fill="none" />
<path d="M269.38033395176257,313.6103896103896 L242.84230055658628,229.57328385899814" stroke="red" stroke-width="1" fill="none" />
<path d="M293.70686456400745,180.92022263450838 L377.7439703153989,207.45825602968466" stroke="red" stroke-width="1" fill="none" />
<path d="M377.7439703153989,207.45825602968466 L364.4749536178108,278.2263450834879" stroke="red" stroke-width="1" fill="none" />
<path d="M368.8979591836735,282.6493506493507 L468.4155844155844,302.55287569573284" stroke="red" stroke-width="1" fill="none" />
<path d="M435.24304267161415,233.99628942486083 L506.01113172541744,180.92022263450838" stroke="red" stroke-width="1" fill="none" />
<path d="M594.4712430426716,233.99628942486083 L559.08719851577,357.84044526901675" stroke="red" stroke-width="1" fill="none" />
<path d="M490.53061224489795,373.3209647495362 L550.2411873840446,375.53246753246754" stroke="red" stroke-width="1" fill="none" />
<path d="M433.0315398886828,430.8200371057514 L384.378478664193,430.8200371057514" stroke="red" stroke-width="1" fill="none" />
<path d="M384.378478664193,430.8200371057514 L379.95547309833023,435.2430426716141" stroke="red" stroke-width="1" fill="none" />
<path d="M355.6289424860854,410.9165120593692 L360.0519480519481,406.4935064935065" stroke="red" stroke-width="1" fill="none" />
<path d="M360.0519480519481,406.4935064935065 L344.5714285714286,306.97588126159553" stroke="red" stroke-width="1" fill="none" />
<path d="M344.5714285714286,306.97588126159553 L340.14842300556586,302.55287569573284" stroke="red" stroke-width="1" fill="none" />
<path d="M559.08719851577,357.84044526901675 L497.16512059369205,322.4564007421151" stroke="red" stroke-width="1" fill="none" />
<path d="M497.16512059369205,322.4564007421151 L492.7421150278293,326.8794063079778" stroke="red" stroke-width="1" fill="none" />
<path d="M492.7421150278293,326.8794063079778 L490.53061224489795,373.3209647495362" stroke="red" stroke-width="1" fill="none" />
<path d="M468.4155844155844,302.55287569573284 L472.83858998144717,298.12987012987014" stroke="red" stroke-width="1" fill="none" />
<path d="M472.83858998144717,298.12987012987014 L435.24304267161415,233.99628942486083" stroke="red" stroke-width="1" fill="none" />
<path d="M364.4749536178108,278.2263450834879 L368.8979591836735,282.6493506493507" stroke="red" stroke-width="1" fill="none" />
<path d="M541.3951762523192,640.91280148423 L541.3951762523192,636.4897959183673" stroke="red" stroke-width="1" fill="none" />
<path d="M435.24304267161415,552.4526901669758 L435.24304267161415,481.68460111317256" stroke="red" stroke-width="1" fill="none" />
<path d="M399.8589981447125,503.7996289424861 L335.72541743970316,532.5491651205937" stroke="red" stroke-width="1" fill="none" />
<path d="M335.72541743970316,532.5491651205937 L318.0333951762523,550.2411873840445" stroke="red" stroke-width="1" fill="none" />
<path d="M318.0333951762523,550.2411873840445 L313.61038961038963,567.9332096474953" stroke="red" stroke-width="1" fill="none" />
<path d="M313.61038961038963,567.9332096474953 L315.821892393321,587.8367346938776" stroke="red" stroke-width="1" fill="none" />
<path d="M315.821892393321,587.8367346938776 L331.30241187384047,598.8942486085343" stroke="red" stroke-width="1" fill="none" />
<path d="M331.30241187384047,598.8942486085343 L355.6289424860854,603.317254174397" stroke="red" stroke-width="1" fill="none" />
<path d="M355.6289424860854,603.317254174397 L371.10946196660484,587.8367346938776" stroke="red" stroke-width="1" fill="none" />
<path d="M371.10946196660484,587.8367346938776 L379.95547309833023,565.721706864564" stroke="red" stroke-width="1" fill="none" />
<path d="M379.95547309833023,565.721706864564 L388.8014842300557,550.2411873840445" stroke="red" stroke-width="1" fill="none" />
<path d="M388.8014842300557,550.2411873840445 L421.974025974026,563.5102040816327" stroke="red" stroke-width="1" fill="none" />
<path d="M421.974025974026,581.2022263450835 L410.9165120593692,614.3747680890538" stroke="red" stroke-width="1" fill="none" />
<path d="M410.9165120593692,614.3747680890538 L415.3395176252319,629.8552875695732" stroke="red" stroke-width="1" fill="none" />
<path d="M415.3395176252319,629.8552875695732 L410.9165120593692,643.1243042671614" stroke="red" stroke-width="1" fill="none" />
<path d="M410.9165120593692,643.1243042671614 L393.22448979591843,658.6048237476809" stroke="red" stroke-width="1" fill="none" />
<path d="M393.22448979591843,658.6048237476809 L351.20593692022265,656.3933209647496" stroke="red" stroke-width="1" fill="none" />
<path d="M351.20593692022265,656.3933209647496 L313.61038961038963,663.0278293135436" stroke="red" stroke-width="1" fill="none" />
<path d="M313.61038961038963,663.0278293135436 L280.4378478664193,634.278293135436" stroke="red" stroke-width="1" fill="none" />
<path d="M280.4378478664193,634.278293135436 L240.63079777365493,623.2207792207791" stroke="red" stroke-width="1" fill="none" />
<path d="M240.63079777365493,623.2207792207791 L196.40074211502787,634.278293135436" stroke="red" stroke-width="1" fill="none" />
<path d="M196.40074211502787,634.278293135436 L189.76623376623382,663.0278293135436" stroke="red" stroke-width="1" fill="none" />
<path d="M189.76623376623382,663.0278293135436 L218.5157699443414,687.3543599257885" stroke="red" stroke-width="1" fill="none" />
<path d="M218.5157699443414,687.3543599257885 L245.05380333951763,693.9888682745825" stroke="red" stroke-width="1" fill="none" />
<path d="M245.05380333951763,693.9888682745825 L242.84230055658628,711.6808905380334" stroke="lavender" stroke-width="1" fill="none" />
<path d="M242.84230055658628,711.6808905380334 L209.669758812616,711.6808905380334" stroke="red" stroke-width="1" fill="none" />
<path d="M209.669758812616,711.6808905380334 L152.1706864564008,702.834879406308" stroke="red" stroke-width="1" fill="none" />
<path d="M17.2690166975882,598.8942486085343 L4.0,545.8181818181818" stroke="red" stroke-width="1" fill="none" />
<path d="M4.0,545.8181818181818 L12.846011131725504,501.58812615955475" stroke="red" stroke-width="1" fill="none" />
<path d="M12.846011131725504,501.58812615955475 L26.11502782931359,479.4730983302412" stroke="red" stroke-width="1" fill="none" />
<path d="M26.11502782931359,479.4730983302412 L54.86456400742122,472.8385899814471" stroke="red" stroke-width="1" fill="none" />
<path d="M54.86456400742122,472.8385899814471 L68.13358070500931,483.8961038961039" stroke="lavender" stroke-width="1" fill="none" />
<path d="M68.13358070500931,483.8961038961039 L70.34508348794066,499.3766233766234" stroke="red" stroke-width="1" fill="none" />
<path d="M70.34508348794066,499.3766233766234 L57.07606679035257,530.3376623376623" stroke="red" stroke-width="1" fill="none" />
<path d="M57.07606679035257,530.3376623376623 L70.34508348794066,556.8756957328386" stroke="red" stroke-width="1" fill="none" />
<path d="M70.34508348794066,556.8756957328386 L105.72912801484233,567.9332096474953" stroke="red" stroke-width="1" fill="none" />
<path d="M105.72912801484233,567.9332096474953 L138.90166975881266,556.8756957328386" stroke="red" stroke-width="1" fill="none" />
<path d="M138.90166975881266,556.8756957328386 L158.80519480519484,534.760667903525" stroke="red" stroke-width="1" fill="none" />
<path d="M158.80519480519484,534.760667903525 L158.80519480519484,503.7996289424861" stroke="red" stroke-width="1" fill="none" />
<path d="M158.80519480519484,503.7996289424861 L123.42115027829317,455.1465677179963" stroke="red" stroke-width="1" fill="none" />
<path d="M123.42115027829317,455.1465677179963 L79.19109461966605,435.2430426716141" stroke="red" stroke-width="1" fill="none" />
<path d="M79.19109461966605,435.2430426716141 L65.92207792207796,391.01298701298697" stroke="red" stroke-width="1" fill="none" />
<path d="M65.92207792207796,391.01298701298697 L76.9795918367347,351.2059369202226" stroke="red" stroke-width="1" fill="none" />
<path d="M76.9795918367347,351.2059369202226 L103.51762523191098,324.6679035250464" stroke="red" stroke-width="1" fill="none" />
<path d="M103.51762523191098,324.6679035250464 L125.63265306122452,320.24489795918373" stroke="red" stroke-width="1" fill="none" />
<path d="M125.63265306122452,320.24489795918373 L152.1706864564008,333.5139146567718" stroke="red" stroke-width="1" fill="none" />
<path d="M152.1706864564008,333.5139146567718 L158.80519480519484,346.7829313543599" stroke="red" stroke-width="1" fill="none" />
<path d="M158.80519480519484,346.7829313543599 L161.0166975881262,366.68645640074214" stroke="red" stroke-width="1" fill="none" />
<path d="M161.0166975881262,366.68645640074214 L152.1706864564008,386.5899814471243" stroke="red" stroke-width="1" fill="none" />
<path d="M152.1706864564008,386.5899814471243 L152.1706864564008,402.0705009276438" stroke="lavender" stroke-width="1" fill="none" />
<path d="M152.1706864564008,402.0705009276438 L169.86270871985164,424.1855287569573" stroke="red" stroke-width="1" fill="none" />
<path d="M169.86270871985164,424.1855287569573 L198.61224489795921,437.45454545454544" stroke="red" stroke-width="1" fill="none" />
<path d="M198.61224489795921,437.45454545454544 L222.9387755102041,437.45454545454544" stroke="red" stroke-width="1" fill="none" />
<path d="M222.9387755102041,437.45454545454544 L236.20779220779224,410.9165120593692" stroke="red" stroke-width="1" fill="none" />
<path d="M236.20779220779224,410.9165120593692 L295.9183673469388,371.10946196660484" stroke="red" stroke-width="1" fill="none" />
<path d="M152.1706864564008,702.834879406308 L118.99814471243047,713.8923933209647" stroke="red" stroke-width="1" fill="none" />
<path d="M118.99814471243047,713.8923933209647 L50.44155844155853,696.2003710575138" stroke="red" stroke-width="1" fill="none" />
<path d="M50.44155844155853,696.2003710575138 L17.2690166975882,634.278293135436" stroke="red" stroke-width="1" fill="none" />
<path d="M17.2690166975882,634.278293135436 L17.2690166975882,598.8942486085343" stroke="red" stroke-width="1" fill="none" />
<path d="M421.974025974026,563.5102040816327 L421.974025974026,581.2022263450835" stroke="lavender" stroke-width="1" fill="none" />
<path d="M629.8552875695733,428.60853432282 L647.5473098330241,410.9165120593692" stroke="red" stroke-width="1" fill="none" />
<path d="M660.8163265306123,410.9165120593692 L674.0853432282004,410.9165120593692" stroke="red" stroke-width="1" fill="none" />
<path d="M674.0853432282004,428.60853432282 L656.3933209647496,446.3005565862709" stroke="red" stroke-width="1" fill="none" />
<path d="M656.3933209647496,446.3005565862709 L629.8552875695733,446.3005565862709" stroke="red" stroke-width="1" fill="none" />
<path d="M647.5473098330241,410.9165120593692 L656.3933209647496,410.9165120593692" stroke="red" stroke-width="1" fill="none" />
<path d="M656.3933209647496,410.9165120593692 L656.3933209647496,415.3395176252319" stroke="red" stroke-width="1" fill="none" />
<path d="M656.3933209647496,415.3395176252319 L660.8163265306123,415.3395176252319" stroke="red" stroke-width="1" fill="none" />
<path d="M660.8163265306123,415.3395176252319 L660.8163265306123,410.9165120593692" stroke="red" stroke-width="1" fill="none" />
<path d="M674.0853432282004,410.9165120593692 L676.2968460111317,410.9165120593692" stroke="red" stroke-width="1" fill="none" />
<path d="M676.2968460111317,410.9165120593692 L682.9313543599258,410.9165120593692" stroke="red" stroke-width="1" fill="none" />
<path d="M682.9313543599258,410.9165120593692 L682.9313543599258,428.60853432282" stroke="lavender" stroke-width="1" fill="none" />
<path d="M682.9313543599258,428.60853432282 L676.2968460111317,428.60853432282" stroke="red" stroke-width="1" fill="none" />
<path d="M676.2968460111317,428.60853432282 L674.0853432282004,428.60853432282" stroke="red" stroke-width="1" fill="none" />
<path d="M242.84230055658628,229.57328385899814 L227.36178107606685,227.3617810760668" stroke="red" stroke-width="1" fill="none" />
<path d="M227.36178107606685,227.3617810760668 L211.88126159554736,227.3617810760668" stroke="red" stroke-width="1" fill="none" />
<path d="M211.88126159554736,227.3617810760668 L191.97773654916517,233.99628942486083" stroke="red" stroke-width="1" fill="none" />
<path d="M191.97773654916517,233.99628942486083 L183.13172541743972,249.47680890538038" stroke="red" stroke-width="1" fill="none" />
<path d="M183.13172541743972,249.47680890538038 L180.92022263450838,262.74582560296847" stroke="red" stroke-width="1" fill="none" />
<path d="M180.92022263450838,262.74582560296847 L189.76623376623382,278.2263450834879" stroke="red" stroke-width="1" fill="none" />
<path d="M189.76623376623382,278.2263450834879 L203.0352504638219,278.2263450834879" stroke="red" stroke-width="1" fill="none" />
<path d="M203.0352504638219,278.2263450834879 L211.88126159554736,271.59183673469386" stroke="red" stroke-width="1" fill="none" />
<path d="M211.88126159554736,271.59183673469386 L214.0927643784787,256.1113172541744" stroke="red" stroke-width="1" fill="none" />
<path d="M214.0927643784787,256.1113172541744 L231.78478664192954,253.89981447124308" stroke="lavender" stroke-width="1" fill="none" />
<path d="M231.78478664192954,253.89981447124308 L238.41929499072359,264.9573283858998" stroke="red" stroke-width="1" fill="none" />
<path d="M238.41929499072359,264.9573283858998 L242.84230055658628,289.28385899814475" stroke="red" stroke-width="1" fill="none" />
<path d="M242.84230055658628,289.28385899814475 L227.36178107606685,309.1873840445269" stroke="red" stroke-width="1" fill="none" />
<path d="M227.36178107606685,309.1873840445269 L191.97773654916517,326.8794063079778" stroke="red" stroke-width="1" fill="none" />
<path d="M191.97773654916517,326.8794063079778 L165.4397031539889,322.4564007421151" stroke="red" stroke-width="1" fill="none" />
<path d="M165.4397031539889,322.4564007421151 L141.113172541744,306.97588126159553" stroke="red" stroke-width="1" fill="none" />
<path d="M141.113172541744,306.97588126159553 L125.63265306122452,251.68831168831173" stroke="red" stroke-width="1" fill="none" />
<path d="M125.63265306122452,251.68831168831173 L127.84415584415586,216.30426716141005" stroke="red" stroke-width="1" fill="none" />
<path d="M127.84415584415586,216.30426716141005 L138.90166975881266,174.28571428571433" stroke="red" stroke-width="1" fill="none" />
<path d="M138.90166975881266,174.28571428571433 L185.34322820037107,107.94063079777368" stroke="red" stroke-width="1" fill="none" />
<path d="M185.34322820037107,107.94063079777368 L278.22634508348796,68.13358070500931" stroke="red" stroke-width="1" fill="none" />
<path d="M278.22634508348796,68.13358070500931 L315.821892393321,68.13358070500931" stroke="red" stroke-width="1" fill="none" />
<path d="M315.821892393321,68.13358070500931 L329.0909090909091,81.4025974025974" stroke="red" stroke-width="1" fill="none" />
<path d="M329.0909090909091,81.4025974025974 L335.72541743970316,101.30612244897964" stroke="red" stroke-width="1" fill="none" />
<path d="M335.72541743970316,101.30612244897964 L331.30241187384047,123.42115027829311" stroke="red" stroke-width="1" fill="none" />
<path d="M331.30241187384047,123.42115027829311 L311.3988868274583,141.113172541744" stroke="red" stroke-width="1" fill="none" />
<path d="M311.3988868274583,141.113172541744 L291.4953617810761,147.74768089053805" stroke="red" stroke-width="1" fill="none" />
<path d="M291.4953617810761,147.74768089053805 L287.0723562152134,163.22820037105748" stroke="red" stroke-width="1" fill="none" />
<path d="M287.0723562152134,163.22820037105748 L287.0723562152134,174.28571428571433" stroke="red" stroke-width="1" fill="none" />
<path d="M287.0723562152134,174.28571428571433 L293.70686456400745,180.92022263450838" stroke="red" stroke-width="1" fill="none" />
<path d="M506.01113172541744,180.92022263450838 L506.01113172541744,145.5361781076067" stroke="red" stroke-width="1" fill="none" />
<path d="M506.01113172541744,145.5361781076067 L506.01113172541744,74.76808905380335" stroke="red" stroke-width="1" fill="none" />
<path d="M506.01113172541744,74.76808905380335 L576.7792207792209,4.0" stroke="red" stroke-width="1" fill="none" />
<path d="M576.7792207792209,4.0 L647.5473098330241,4.0" stroke="red" stroke-width="1" fill="none" />
<path d="M700.6233766233767,4.0 L771.39146567718,4.0" stroke="red" stroke-width="1" fill="none" />
<path d="M806.7755102040817,39.384044526901675 L842.1595547309832,74.76808905380335" stroke="red" stroke-width="1" fill="none" />
<path d="M842.1595547309832,74.76808905380335 L842.1595547309832,163.22820037105748" stroke="red" stroke-width="1" fill="none" />
<path d="M842.1595547309832,163.22820037105748 L771.39146567718,233.99628942486083" stroke="red" stroke-width="1" fill="none" />
<path d="M771.39146567718,233.99628942486083 L700.6233766233767,233.99628942486083" stroke="red" stroke-width="1" fill="none" />
<path d="M700.6233766233767,233.99628942486083 L647.5473098330241,233.99628942486083" stroke="red" stroke-width="1" fill="none" />
<path d="M647.5473098330241,233.99628942486083 L594.4712430426716,233.99628942486083" stroke="red" stroke-width="1" fill="none" />
<path d="M594.4712430426716,110.15213358070503 L559.08719851577,92.46011131725425" stroke="red" stroke-width="1" fill="none" />
<path d="M753.6994434137291,110.15213358070503 L594.4712430426716,110.15213358070503" stroke="red" stroke-width="1" fill="none" />
<path d="M789.0834879406308,92.46011131725425 L753.6994434137291,110.15213358070503" stroke="red" stroke-width="1" fill="none" />
<path d="M559.08719851577,145.5361781076067 L594.4712430426716,127.84415584415581" stroke="red" stroke-width="1" fill="none" />
<path d="M594.4712430426716,127.84415584415581 L753.6994434137291,127.84415584415581" stroke="red" stroke-width="1" fill="none" />
<path d="M753.6994434137291,127.84415584415581 L789.0834879406308,145.5361781076067" stroke="red" stroke-width="1" fill="none" />
<path d="M559.08719851577,92.46011131725425 L559.08719851577,145.5361781076067" stroke="red" stroke-width="1" fill="none" />
<path d="M789.0834879406308,145.5361781076067 L789.0834879406308,92.46011131725425" stroke="red" stroke-width="1" fill="none" />
<path d="M647.5473098330241,4.0 L700.6233766233767,4.0" stroke="red" stroke-width="1" fill="none" />
<path d="M771.39146567718,4.0 L806.7755102040817,39.384044526901675" stroke="red" stroke-width="1" fill="none" />
<path d="M842.1595547309832,782.4489795918367 L842.1595547309832,826.6790352504638" stroke="red" stroke-width="1" fill="none" />
<path d="M842.1595547309832,826.6790352504638 L844.3710575139146,826.6790352504638" stroke="red" stroke-width="1" fill="none" />
<path d="M844.3710575139146,862.0630797773655 L842.1595547309832,862.0630797773655" stroke="red" stroke-width="1" fill="none" />
<path d="M842.1595547309832,862.0630797773655 L842.1595547309832,906.2931354359926" stroke="red" stroke-width="1" fill="none" />
<path d="M736.0074211502783,959.369202226345 L700.6233766233767,959.369202226345" stroke="red" stroke-width="1" fill="none" />
<path d="M700.6233766233767,959.369202226345 L700.6233766233767,961.5807050092765" stroke="red" stroke-width="1" fill="none" />
<path d="M665.239332096475,961.5807050092765 L665.239332096475,959.369202226345" stroke="red" stroke-width="1" fill="none" />
<path d="M665.239332096475,959.369202226345 L612.1632653061224,959.369202226345" stroke="red" stroke-width="1" fill="none" />
<path d="M700.6233766233767,961.5807050092765 L700.6233766233767,963.7922077922078" stroke="red" stroke-width="1" fill="none" />
<path d="M700.6233766233767,963.7922077922078 L718.3153988868274,977.0612244897959" stroke="red" stroke-width="1" fill="none" />
<path d="M718.3153988868274,977.0612244897959 L824.4675324675325,977.0612244897959" stroke="red" stroke-width="1" fill="none" />
<path d="M824.4675324675325,977.0612244897959 L877.543599257885,923.9851576994434" stroke="red" stroke-width="1" fill="none" />
<path d="M877.543599257885,923.9851576994434 L877.543599257885,864.2745825602968" stroke="red" stroke-width="1" fill="none" />
<path d="M877.543599257885,864.2745825602968 L851.0055658627087,862.0630797773655" stroke="red" stroke-width="1" fill="none" />
<path d="M851.0055658627087,862.0630797773655 L846.582560296846,862.0630797773655" stroke="red" stroke-width="1" fill="none" />
<path d="M846.582560296846,862.0630797773655 L844.3710575139146,862.0630797773655" stroke="red" stroke-width="1" fill="none" />
<path d="M844.3710575139146,826.6790352504638 L846.582560296846,826.6790352504638" stroke="red" stroke-width="1" fill="none" />
<path d="M846.582560296846,826.6790352504638 L851.0055658627087,826.6790352504638" stroke="red" stroke-width="1" fill="none" />
<path d="M851.0055658627087,826.6790352504638 L897.4471243042672,782.4489795918367" stroke="red" stroke-width="1" fill="none" />
<path d="M897.4471243042672,782.4489795918367 L1016.8682745825603,800.1410018552875" stroke="red" stroke-width="1" fill="none" />
<path d="M1016.8682745825603,800.1410018552875 L1056.6753246753246,943.8886827458256" stroke="red" stroke-width="1" fill="none" />
<path d="M1056.6753246753246,943.8886827458256 L1054.4638218923933,1047.8293135435993" stroke="red" stroke-width="1" fill="none" />
<path d="M1054.4638218923933,1047.8293135435993 L1034.5602968460112,1074.3673469387754" stroke="red" stroke-width="1" fill="none" />
<path d="M1034.5602968460112,1074.3673469387754 L1038.9833024118739,1078.7903525046381" stroke="red" stroke-width="1" fill="none" />
<path d="M1027.9257884972171,1092.0593692022262 L1021.2912801484231,1092.0593692022262" stroke="red" stroke-width="1" fill="none" />
<path d="M1021.2912801484231,1092.0593692022262 L999.1762523191094,1118.5974025974026" stroke="red" stroke-width="1" fill="none" />
<path d="M999.1762523191094,1118.5974025974026 L930.6196660482375,1118.5974025974026" stroke="red" stroke-width="1" fill="none" />
<path d="M930.6196660482375,1118.5974025974026 L786.8719851576994,1118.5974025974026" stroke="red" stroke-width="1" fill="none" />
<path d="M786.8719851576994,1118.5974025974026 L665.239332096475,1012.4452690166976" stroke="red" stroke-width="1" fill="none" />
<path d="M665.239332096475,1012.4452690166976 L665.239332096475,963.7922077922078" stroke="red" stroke-width="1" fill="none" />
<path d="M665.239332096475,963.7922077922078 L665.239332096475,961.5807050092765" stroke="red" stroke-width="1" fill="none" />
<path d="M820.0445269016698,1016.8682745825603 L833.3135435992579,1027.9257884972171" stroke="red" stroke-width="1" fill="none" />
<path d="M833.3135435992579,1027.9257884972171 L837.7365491651206,1023.5027829313543" stroke="red" stroke-width="1" fill="none" />
<path d="M837.7365491651206,1023.5027829313543 L824.4675324675325,1012.4452690166976" stroke="red" stroke-width="1" fill="none" />
<path d="M824.4675324675325,1012.4452690166976 L820.0445269016698,1016.8682745825603" stroke="red" stroke-width="1" fill="none" />
<path d="M862.0630797773655,1074.3673469387754 L875.3320964749537,1085.4248608534322" stroke="red" stroke-width="1" fill="none" />
<path d="M875.3320964749537,1085.4248608534322 L879.7551020408164,1081.0018552875695" stroke="red" stroke-width="1" fill="none" />
<path d="M879.7551020408164,1081.0018552875695 L866.4860853432282,1069.9443413729127" stroke="red" stroke-width="1" fill="none" />
<path d="M866.4860853432282,1069.9443413729127 L862.0630797773655,1074.3673469387754" stroke="red" stroke-width="1" fill="none" />
<path d="M912.9276437847866,919.5621521335806 L930.6196660482375,919.5621521335806" stroke="red" stroke-width="1" fill="none" />
<path d="M930.6196660482375,919.5621521335806 L930.6196660482375,912.9276437847866" stroke="red" stroke-width="1" fill="none" />
<path d="M930.6196660482375,912.9276437847866 L912.9276437847866,912.9276437847866" stroke="red" stroke-width="1" fill="none" />
<path d="M912.9276437847866,912.9276437847866 L912.9276437847866,919.5621521335806" stroke="red" stroke-width="1" fill="none" />
<path d="M990.330241187384,928.4081632653061 L1008.0222634508349,928.4081632653061" stroke="red" stroke-width="1" fill="none" />
<path d="M1008.0222634508349,928.4081632653061 L1008.0222634508349,921.773654916512" stroke="red" stroke-width="1" fill="none" />
<path d="M1008.0222634508349,921.773654916512 L990.330241187384,921.773654916512" stroke="red" stroke-width="1" fill="none" />
<path d="M990.330241187384,921.773654916512 L990.330241187384,928.4081632653061" stroke="red" stroke-width="1" fill="none" />
<path d="M1038.9833024118739,1078.7903525046381 L1043.4063079777366,1083.2133580705008" stroke="red" stroke-width="1" fill="none" />
<path d="M1043.4063079777366,1083.2133580705008 L1072.155844155844,1083.2133580705008" stroke="red" stroke-width="1" fill="none" />
<path d="M1072.155844155844,1083.2133580705008 L1072.155844155844,1116.3858998144713" stroke="red" stroke-width="1" fill="none" />
<path d="M1072.155844155844,1116.3858998144713 L1065.52133580705,1123.0204081632653" stroke="lavender" stroke-width="1" fill="none" />
<path d="M1065.52133580705,1123.0204081632653 L1032.3487940630798,1123.0204081632653" stroke="red" stroke-width="1" fill="none" />
<path d="M1032.3487940630798,1123.0204081632653 L1032.3487940630798,1096.482374768089" stroke="red" stroke-width="1" fill="none" />
<path d="M1032.3487940630798,1096.482374768089 L1027.9257884972171,1092.0593692022262" stroke="red" stroke-width="1" fill="none" />
<path d="M541.3951762523192,817.8330241187384 L539.1836734693878,817.8330241187384" stroke="red" stroke-width="1" fill="none" />
<path d="M539.1836734693878,817.8330241187384 L506.01113172541744,817.8330241187384" stroke="red" stroke-width="1" fill="none" />
<path d="M506.01113172541744,817.8330241187384 L506.01113172541744,782.4489795918367" stroke="red" stroke-width="1" fill="none" />
<path d="M506.01113172541744,782.4489795918367 L433.0315398886828,782.4489795918367" stroke="red" stroke-width="1" fill="none" />
<path d="M433.0315398886828,720.5269016697588 L433.0315398886828,780.2374768089054" stroke="red" stroke-width="1" fill="none" />
<path d="M433.0315398886828,780.2374768089054 L506.01113172541744,780.2374768089054" stroke="red" stroke-width="1" fill="none" />
<path d="M541.3951762523192,835.5250463821892 L541.3951762523192,817.8330241187384" stroke="red" stroke-width="1" fill="none" />
<path d="M506.01113172541744,780.2374768089054 L506.01113172541744,693.9888682745825" stroke="red" stroke-width="1" fill="none" />
<path d="M506.01113172541744,693.9888682745825 L539.1836734693878,693.9888682745825" stroke="red" stroke-width="1" fill="none" />
<path d="M539.1836734693878,693.9888682745825 L541.3951762523192,693.9888682745825" stroke="red" stroke-width="1" fill="none" />
</svg>