<?xml version="1.0" encoding="UTF-8"?>
<svg xmlns="http://www.w3.org/2000/svg" xmlns:xlink="http://www.w3.org/1999/xlink"
     width="1200" height="1210" viewBox="0 0 1200 1210">
<defs>
</defs>
<path d="M630.3050847457627,99.96610169491532 L731.322033898305,99.96610169491532" stroke="yellow" stroke-width="1" fill="none" />
<path d="M731.322033898305,190.8813559322034 L635.3559322033898,190.8813559322034" stroke="yellow" stroke-width="1" fill="none" />
<path d="M635.3559322033898,190.8813559322034 L635.3559322033898,206.0338983050849" stroke="yellow" stroke-width="1" fill="none" />
<path d="M635.3559322033898,206.0338983050849 L731.322033898305,206.0338983050849" stroke="yellow" stroke-width="1" fill="none" />
<path d="M448.47457627118644,206.0338983050849 L549.4915254237287,206.0338983050849" stroke="yellow" stroke-width="1" fill="none" />
<path d="M549.4915254237287,206.0338983050849 L549.4915254237287,190.8813559322034" stroke="yellow" stroke-width="1" fill="none" />
<path d="M549.4915254237287,190.8813559322034 L448.47457627118644,190.8813559322034" stroke="yellow" stroke-width="1" fill="none" />
<path d="M635.3559322033898,190.8813559322034 L549.4915254237287,190.8813559322034" stroke="yellow" stroke-width="1" fill="none" />
<path d="M635.3559322033898,206.0338983050849 L549.4915254237287,206.0338983050849" stroke="yellow" stroke-width="1" fill="none" />
<path d="M731.322033898305,84.81355932203405 L630.3050847457627,84.81355932203405" stroke="yellow" stroke-width="1" fill="none" />
<path d="M630.3050847457627,84.81355932203405 L630.3050847457627,99.96610169491532" stroke="yellow" stroke-width="1" fill="none" />
<path d="M549.4915254237287,99.96610169491532 L630.3050847457627,99.96610169491532" stroke="yellow" stroke-width="1" fill="none" />
<path d="M549.4915254237287,99.96610169491532 L549.4915254237287,84.81355932203405" stroke="yellow" stroke-width="1" fill="none" />
<path d="M549.4915254237287,84.81355932203405 L448.47457627118644,84.81355932203405" stroke="yellow" stroke-width="1" fill="none" />
<path d="M448.47457627118644,99.96610169491532 L549.4915254237287,99.96610169491532" stroke="yellow" stroke-width="1" fill="none" />
<path d="M549.4915254237287,84.81355932203405 L630.3050847457627,84.81355932203405" stroke="yellow" stroke-width="1" fill="none" />
<path d="M852.5423728813558,99.96610169491532 L812.1355932203389,190.8813559322034" stroke="yellow" stroke-width="1" fill="none" />
<path d="M731.322033898305,125.22033898305085 L731.322033898305,165.62711864406788" stroke="yellow" stroke-width="1" fill="none" />
<path d="M731.322033898305,165.62711864406788 L741.4237288135593,165.62711864406788" stroke="yellow" stroke-width="1" fill="none" />
<path d="M741.4237288135593,165.62711864406788 L741.4237288135593,125.22033898305085" stroke="yellow" stroke-width="1" fill="none" />
<path d="M741.4237288135593,125.22033898305085 L731.322033898305,125.22033898305085" stroke="yellow" stroke-width="1" fill="none" />
<path d="M488.88135593220335,266.6440677966102 L448.47457627118644,266.6440677966102" stroke="yellow" stroke-width="1" fill="none" />
<path d="M488.88135593220335,327.25423728813564 L448.47457627118644,327.25423728813564" stroke="yellow" stroke-width="1" fill="none" />
<path d="M488.88135593220335,281.7966101694916 L488.88135593220335,266.6440677966102" stroke="yellow" stroke-width="1" fill="none" />
<path d="M488.88135593220335,281.7966101694916 L448.47457627118644,281.7966101694916" stroke="yellow" stroke-width="1" fill="none" />
<path d="M488.88135593220335,296.949152542373 L488.88135593220335,281.7966101694916" stroke="yellow" stroke-width="1" fill="none" />
<path d="M488.88135593220335,296.949152542373 L448.47457627118644,296.949152542373" stroke="yellow" stroke-width="1" fill="none" />
<path d="M488.88135593220335,312.10169491525437 L488.88135593220335,296.949152542373" stroke="yellow" stroke-width="1" fill="none" />
<path d="M488.88135593220335,312.10169491525437 L448.47457627118644,312.10169491525437" stroke="yellow" stroke-width="1" fill="none" />
<path d="M488.88135593220335,327.25423728813564 L488.88135593220335,312.10169491525437" stroke="yellow" stroke-width="1" fill="none" />
<path d="M731.322033898305,266.6440677966102 L569.6949152542372,266.6440677966102" stroke="yellow" stroke-width="1" fill="none" />
<path d="M569.6949152542372,266.6440677966102 L569.6949152542372,296.949152542373" stroke="yellow" stroke-width="1" fill="none" />
<path d="M620.2033898305084,367.66101694915267 L579.7966101694915,367.66101694915267" stroke="yellow" stroke-width="1" fill="none" />
<path d="M519.1864406779661,367.66101694915267 L478.7796610169492,367.66101694915267" stroke="yellow" stroke-width="1" fill="none" />
<path d="M569.6949152542372,367.66101694915267 L529.2881355932203,367.66101694915267" stroke="yellow" stroke-width="1" fill="none" />
<path d="M579.7966101694915,397.9661016949153 L620.2033898305084,397.9661016949153" stroke="yellow" stroke-width="1" fill="none" />
<path d="M478.7796610169492,397.9661016949153 L519.1864406779661,397.9661016949153" stroke="yellow" stroke-width="1" fill="none" />
<path d="M569.6949152542372,382.81355932203394 L529.2881355932203,382.81355932203394" stroke="lavender" stroke-width="1" fill="none" />
<path d="M529.2881355932203,387.86440677966107 L569.6949152542372,387.86440677966107" stroke="lavender" stroke-width="1" fill="none" />
<path d="M625.2542372881355,397.9661016949153 L625.2542372881355,478.77966101694926" stroke="yellow" stroke-width="1" fill="none" />
<path d="M473.7288135593221,478.77966101694926 L473.7288135593221,397.9661016949153" stroke="yellow" stroke-width="1" fill="none" />
<path d="M529.2881355932203,397.9661016949153 L569.6949152542372,397.9661016949153" stroke="yellow" stroke-width="1" fill="none" />
<path d="M403.0169491525424,478.77966101694926 L392.91525423728814,478.77966101694926" stroke="lavender" stroke-width="1" fill="none" />
<path d="M403.0169491525424,483.8305084745764 L403.0169491525424,478.77966101694926" stroke="lavender" stroke-width="1" fill="none" />
<path d="M392.91525423728814,478.77966101694926 L392.91525423728814,483.8305084745764" stroke="lavender" stroke-width="1" fill="none" />
<path d="M392.91525423728814,483.8305084745764 L403.0169491525424,483.8305084745764" stroke="lavender" stroke-width="1" fill="none" />
<path d="M408.0677966101695,478.77966101694926 L408.0677966101695,483.8305084745764" stroke="lavender" stroke-width="1" fill="none" />
<path d="M408.0677966101695,483.8305084745764 L418.1694915254237,483.8305084745764" stroke="lavender" stroke-width="1" fill="none" />
<path d="M418.1694915254237,483.8305084745764 L418.1694915254237,478.77966101694926" stroke="lavender" stroke-width="1" fill="none" />
<path d="M418.1694915254237,478.77966101694926 L408.0677966101695,478.77966101694926" stroke="lavender" stroke-width="1" fill="none" />
<path d="M428.271186440678,478.77966101694926 L428.271186440678,483.8305084745764" stroke="lavender" stroke-width="1" fill="none" />
<path d="M428.271186440678,483.8305084745764 L438.3728813559322,483.8305084745764" stroke="lavender" stroke-width="1" fill="none" />
<path d="M438.3728813559322,483.8305084745764 L438.3728813559322,478.77966101694926" stroke="lavender" stroke-width="1" fill="none" />
<path d="M438.3728813559322,478.77966101694926 L428.271186440678,478.77966101694926" stroke="lavender" stroke-width="1" fill="none" />
<path d="M443.4237288135593,478.77966101694926 L443.4237288135593,483.8305084745764" stroke="lavender" stroke-width="1" fill="none" />
<path d="M443.4237288135593,483.8305084745764 L453.52542372881356,483.8305084745764" stroke="lavender" stroke-width="1" fill="none" />
<path d="M453.52542372881356,483.8305084745764 L453.52542372881356,478.77966101694926" stroke="lavender" stroke-width="1" fill="none" />
<path d="M453.52542372881356,478.77966101694926 L443.4237288135593,478.77966101694926" stroke="lavender" stroke-width="1" fill="none" />
<path d="M650.5084745762712,529.2881355932204 L650.5084745762712,493.93220338983065" stroke="yellow" stroke-width="1" fill="none" />
<path d="M701.0169491525423,534.3389830508476 L670.7118644067796,534.3389830508476" stroke="yellow" stroke-width="1" fill="none" />
<path d="M327.2542372881356,190.8813559322034 L327.2542372881356,99.96610169491532" stroke="lavender" stroke-width="1" fill="none" />
<path d="M448.47457627118644,165.62711864406788 L448.47457627118644,125.22033898305085" stroke="yellow" stroke-width="1" fill="none" />
<path d="M438.3728813559322,125.22033898305085 L438.3728813559322,165.62711864406788" stroke="yellow" stroke-width="1" fill="none" />
<path d="M448.47457627118644,125.22033898305085 L438.3728813559322,125.22033898305085" stroke="yellow" stroke-width="1" fill="none" />
<path d="M438.3728813559322,165.62711864406788 L448.47457627118644,165.62711864406788" stroke="yellow" stroke-width="1" fill="none" />
<path d="M690.9152542372881,650.5084745762713 L690.9152542372881,660.6101694915255" stroke="yellow" stroke-width="1" fill="none" />
<path d="M690.9152542372881,660.6101694915255 L690.9152542372881,670.7118644067798" stroke="yellow" stroke-width="1" fill="none" />
<path d="M690.9152542372881,670.7118644067798 L690.9152542372881,680.8135593220339" stroke="yellow" stroke-width="1" fill="none" />
<path d="M690.9152542372881,680.8135593220339 L610.1016949152541,680.8135593220339" stroke="yellow" stroke-width="1" fill="none" />
<path d="M690.9152542372881,670.7118644067798 L610.1016949152541,670.7118644067798" stroke="yellow" stroke-width="1" fill="none" />
<path d="M690.9152542372881,660.6101694915255 L610.1016949152541,660.6101694915255" stroke="yellow" stroke-width="1" fill="none" />
<path d="M690.9152542372881,650.5084745762713 L610.1016949152541,650.5084745762713" stroke="yellow" stroke-width="1" fill="none" />
<path d="M610.1016949152541,680.8135593220339 L610.1016949152541,670.7118644067798" stroke="yellow" stroke-width="1" fill="none" />
<path d="M610.1016949152541,670.7118644067798 L610.1016949152541,660.6101694915255" stroke="yellow" stroke-width="1" fill="none" />
<path d="M610.1016949152541,660.6101694915255 L610.1016949152541,650.5084745762713" stroke="yellow" stroke-width="1" fill="none" />
<path d="M771.728813559322,650.5084745762713 L690.9152542372881,650.5084745762713" stroke="yellow" stroke-width="1" fill="none" />
<path d="M610.1016949152541,650.5084745762713 L579.7966101694915,650.5084745762713" stroke="yellow" stroke-width="1" fill="none" />
<path d="M579.7966101694915,660.6101694915255 L610.1016949152541,660.6101694915255" stroke="yellow" stroke-width="1" fill="none" />
<path d="M690.9152542372881,660.6101694915255 L771.728813559322,660.6101694915255" stroke="yellow" stroke-width="1" fill="none" />
<path d="M579.7966101694915,650.5084745762713 L579.7966101694915,630.3050847457628" stroke="yellow" stroke-width="1" fill="none" />
<path d="M579.7966101694915,630.3050847457628 L564.6440677966101,630.3050847457628" stroke="yellow" stroke-width="1" fill="none" />
<path d="M564.6440677966101,630.3050847457628 L564.6440677966101,650.5084745762713" stroke="yellow" stroke-width="1" fill="none" />
<path d="M564.6440677966101,650.5084745762713 L448.47457627118644,650.5084745762713" stroke="yellow" stroke-width="1" fill="none" />
<path d="M569.6949152542372,812.135593220339 L690.9152542372881,812.135593220339" stroke="yellow" stroke-width="1" fill="none" />
<path d="M569.6949152542372,832.3389830508476 L690.9152542372881,832.3389830508476" stroke="yellow" stroke-width="1" fill="none" />
<path d="M690.9152542372881,832.3389830508476 L690.9152542372881,812.135593220339" stroke="yellow" stroke-width="1" fill="none" />
<path d="M569.6949152542372,847.491525423729 L690.9152542372881,847.491525423729" stroke="yellow" stroke-width="1" fill="none" />
<path d="M690.9152542372881,847.491525423729 L690.9152542372881,832.3389830508476" stroke="yellow" stroke-width="1" fill="none" />
<path d="M569.6949152542372,862.6440677966102 L690.9152542372881,862.6440677966102" stroke="yellow" stroke-width="1" fill="none" />
<path d="M690.9152542372881,862.6440677966102 L690.9152542372881,847.491525423729" stroke="yellow" stroke-width="1" fill="none" />
<path d="M569.6949152542372,877.7966101694916 L690.9152542372881,877.7966101694916" stroke="yellow" stroke-width="1" fill="none" />
<path d="M690.9152542372881,877.7966101694916 L690.9152542372881,862.6440677966102" stroke="yellow" stroke-width="1" fill="none" />
<path d="M569.6949152542372,892.949152542373 L690.9152542372881,892.949152542373" stroke="yellow" stroke-width="1" fill="none" />
<path d="M690.9152542372881,892.949152542373 L690.9152542372881,877.7966101694916" stroke="yellow" stroke-width="1" fill="none" />
<path d="M852.5423728813558,812.135593220339 L852.5423728813558,1206.1016949152543" stroke="lavender" stroke-width="1" fill="none" />
<path d="M690.9152542372881,812.135593220339 L852.5423728813558,812.135593220339" stroke="yellow" stroke-width="1" fill="none" />
<path d="M650.5084745762712,973.7627118644068 L680.8135593220338,973.7627118644068" stroke="lavender" stroke-width="1" fill="none" />
<path d="M680.8135593220338,933.3559322033899 L650.5084745762712,933.3559322033899" stroke="yellow" stroke-width="1" fill="none" />
<path d="M746.4745762711864,973.7627118644068 L781.8305084745762,973.7627118644068" stroke="yellow" stroke-width="1" fill="none" />
<path d="M791.9322033898304,1155.5932203389832 L791.9322033898304,1094.9830508474577" stroke="yellow" stroke-width="1" fill="none" />
<path d="M781.8305084745762,1094.9830508474577 L781.8305084745762,1155.5932203389832" stroke="yellow" stroke-width="1" fill="none" />
<path d="M781.8305084745762,1094.9830508474577 L650.5084745762712,1094.9830508474577" stroke="yellow" stroke-width="1" fill="none" />
<path d="M620.2033898305084,1094.9830508474577 L650.5084745762712,1094.9830508474577" stroke="yellow" stroke-width="1" fill="none" />
<path d="M620.2033898305084,1079.8305084745764 L650.5084745762712,1079.8305084745764" stroke="yellow" stroke-width="1" fill="none" />
<path d="M650.5084745762712,1094.9830508474577 L650.5084745762712,1079.8305084745764" stroke="yellow" stroke-width="1" fill="none" />
<path d="M620.2033898305084,1064.677966101695 L650.5084745762712,1064.677966101695" stroke="yellow" stroke-width="1" fill="none" />
<path d="M650.5084745762712,1079.8305084745764 L650.5084745762712,1064.677966101695" stroke="yellow" stroke-width="1" fill="none" />
<path d="M620.2033898305084,1049.5254237288136 L650.5084745762712,1049.5254237288136" stroke="yellow" stroke-width="1" fill="none" />
<path d="M650.5084745762712,1064.677966101695 L650.5084745762712,1049.5254237288136" stroke="yellow" stroke-width="1" fill="none" />
<path d="M620.2033898305084,1034.3728813559323 L650.5084745762712,1034.3728813559323" stroke="yellow" stroke-width="1" fill="none" />
<path d="M650.5084745762712,1049.5254237288136 L650.5084745762712,1034.3728813559323" stroke="yellow" stroke-width="1" fill="none" />
<path d="M650.5084745762712,1034.3728813559323 L650.5084745762712,999.0169491525425" stroke="yellow" stroke-width="1" fill="none" />
<path d="M650.5084745762712,999.0169491525425 L680.8135593220338,999.0169491525425" stroke="yellow" stroke-width="1" fill="none" />
<path d="M680.8135593220338,999.0169491525425 L680.8135593220338,973.7627118644068" stroke="yellow" stroke-width="1" fill="none" />
<path d="M620.2033898305084,1034.3728813559323 L620.2033898305084,973.7627118644068" stroke="lavender" stroke-width="1" fill="none" />
<path d="M650.5084745762712,973.7627118644068 L650.5084745762712,999.0169491525425" stroke="yellow" stroke-width="1" fill="none" />
<path d="M781.8305084745762,933.3559322033899 L746.4745762711864,933.3559322033899" stroke="yellow" stroke-width="1" fill="none" />
<path d="M771.728813559322,690.9152542372882 L771.728813559322,731.3220338983052" stroke="yellow" stroke-width="1" fill="none" />
<path d="M771.728813559322,731.3220338983052 L892.9491525423729,731.3220338983052" stroke="yellow" stroke-width="1" fill="none" />
<path d="M892.9491525423729,721.220338983051 L781.8305084745762,721.220338983051" stroke="yellow" stroke-width="1" fill="none" />
<path d="M781.8305084745762,721.220338983051 L781.8305084745762,690.9152542372882" stroke="yellow" stroke-width="1" fill="none" />
<path d="M569.6949152542372,812.135593220339 L569.6949152542372,746.4745762711865" stroke="yellow" stroke-width="1" fill="none" />
<path d="M559.593220338983,746.4745762711865 L559.593220338983,812.135593220339" stroke="yellow" stroke-width="1" fill="none" />
<path d="M615.1525423728813,973.7627118644068 L615.1525423728813,1034.3728813559323" stroke="lavender" stroke-width="1" fill="none" />
<path d="M605.050847457627,933.3559322033899 L579.7966101694915,933.3559322033899" stroke="yellow" stroke-width="1" fill="none" />
<path d="M579.7966101694915,953.5593220338984 L605.050847457627,953.5593220338984" stroke="yellow" stroke-width="1" fill="none" />
<path d="M438.3728813559322,534.3389830508476 L408.0677966101695,534.3389830508476" stroke="yellow" stroke-width="1" fill="none" />
<path d="M387.864406779661,524.2372881355933 L387.864406779661,493.93220338983065" stroke="yellow" stroke-width="1" fill="none" />
<path d="M448.47457627118644,690.9152542372882 L488.88135593220335,690.9152542372882" stroke="yellow" stroke-width="1" fill="none" />
<path d="M488.88135593220335,690.9152542372882 L488.88135593220335,731.3220338983052" stroke="yellow" stroke-width="1" fill="none" />
<path d="M246.4406779661017,731.3220338983052 L246.4406779661017,690.9152542372882" stroke="yellow" stroke-width="1" fill="none" />
<path d="M246.4406779661017,690.9152542372882 L286.8474576271187,690.9152542372882" stroke="yellow" stroke-width="1" fill="none" />
<path d="M286.8474576271187,690.9152542372882 L286.8474576271187,731.3220338983052" stroke="yellow" stroke-width="1" fill="none" />
<path d="M286.8474576271187,731.3220338983052 L246.4406779661017,731.3220338983052" stroke="yellow" stroke-width="1" fill="none" />
<path d="M246.4406779661017,812.135593220339 L286.8474576271187,812.135593220339" stroke="yellow" stroke-width="1" fill="none" />
<path d="M286.8474576271187,812.135593220339 L286.8474576271187,852.542372881356" stroke="yellow" stroke-width="1" fill="none" />
<path d="M246.4406779661017,852.542372881356 L246.4406779661017,812.135593220339" stroke="yellow" stroke-width="1" fill="none" />
<path d="M286.8474576271187,852.542372881356 L246.4406779661017,852.542372881356" stroke="yellow" stroke-width="1" fill="none" />
<path d="M286.8474576271187,286.84745762711873 L286.8474576271187,367.66101694915267" stroke="yellow" stroke-width="1" fill="none" />
<path d="M312.10169491525426,367.66101694915267 L312.10169491525426,286.84745762711873" stroke="yellow" stroke-width="1" fill="none" />
<path d="M302.0,286.84745762711873 L302.0,367.66101694915267" stroke="lavender" stroke-width="1" fill="none" />
<path d="M165.62711864406782,807.0847457627119 L206.03389830508473,807.0847457627119" stroke="lavender" stroke-width="1" fill="none" />
<path d="M206.03389830508473,802.0338983050849 L165.62711864406782,802.0338983050849" stroke="lavender" stroke-width="1" fill="none" />
<path d="M852.5423728813558,488.8813559322035 L852.5423728813558,408.0677966101696" stroke="yellow" stroke-width="1" fill="none" />
<path d="M847.4915254237287,408.0677966101696 L847.4915254237287,488.8813559322035" stroke="yellow" stroke-width="1" fill="none" />
<path d="M271.6949152542373,887.8983050847459 L488.88135593220335,887.8983050847459" stroke="yellow" stroke-width="1" fill="none" />
<path d="M488.88135593220335,887.8983050847459 L488.88135593220335,958.6101694915255" stroke="yellow" stroke-width="1" fill="none" />
<path d="M488.88135593220335,958.6101694915255 L140.37288135593218,958.6101694915255" stroke="yellow" stroke-width="1" fill="none" />
<path d="M140.37288135593218,958.6101694915255 L140.37288135593218,832.3389830508476" stroke="yellow" stroke-width="1" fill="none" />
<path d="M140.37288135593218,832.3389830508476 L231.28813559322037,832.3389830508476" stroke="yellow" stroke-width="1" fill="none" />
<path d="M231.28813559322037,832.3389830508476 L231.28813559322037,867.6949152542373" stroke="yellow" stroke-width="1" fill="none" />
<path d="M231.28813559322037,867.6949152542373 L271.6949152542373,867.6949152542373" stroke="yellow" stroke-width="1" fill="none" />
<path d="M271.6949152542373,867.6949152542373 L271.6949152542373,887.8983050847459" stroke="yellow" stroke-width="1" fill="none" />
<path d="M216.135593220339,776.7796610169493 L19.152542372881356,776.7796610169493" stroke="yellow" stroke-width="1" fill="none" />
<path d="M19.152542372881356,776.7796610169493 L19.152542372881356,463.6271186440679" stroke="yellow" stroke-width="1" fill="none" />
<path d="M69.66101694915254,675.7627118644068 L236.33898305084745,675.7627118644068" stroke="yellow" stroke-width="1" fill="none" />
<path d="M216.135593220339,716.1694915254238 L216.135593220339,776.7796610169493" stroke="yellow" stroke-width="1" fill="none" />
<path d="M236.33898305084745,716.1694915254238 L216.135593220339,716.1694915254238" stroke="yellow" stroke-width="1" fill="none" />
<path d="M236.33898305084745,675.7627118644068 L236.33898305084745,716.1694915254238" stroke="yellow" stroke-width="1" fill="none" />
<path d="M69.66101694915254,463.6271186440679 L69.66101694915254,675.7627118644068" stroke="yellow" stroke-width="1" fill="none" />
<path d="M19.152542372881356,463.6271186440679 L69.66101694915254,463.6271186440679" stroke="yellow" stroke-width="1" fill="none" />
<path d="M84.8135593220339,448.4745762711865 L84.8135593220339,529.2881355932204" stroke="lavender" stroke-width="1" fill="none" />
<path d="M125.22033898305084,423.22033898305096 L125.22033898305084,544.4406779661018" stroke="yellow" stroke-width="1" fill="none" />
<path d="M94.91525423728812,529.2881355932204 L94.91525423728812,448.4745762711865" stroke="lavender" stroke-width="1" fill="none" />
<path d="M140.37288135593218,423.22033898305096 L140.37288135593218,544.4406779661018" stroke="yellow" stroke-width="1" fill="none" />
<path d="M155.52542372881356,423.22033898305096 L155.52542372881356,544.4406779661018" stroke="yellow" stroke-width="1" fill="none" />
<path d="M170.6779661016949,423.22033898305096 L170.6779661016949,544.4406779661018" stroke="yellow" stroke-width="1" fill="none" />
<path d="M185.83050847457628,423.22033898305096 L185.83050847457628,544.4406779661018" stroke="yellow" stroke-width="1" fill="none" />
<path d="M206.03389830508473,423.22033898305096 L206.03389830508473,544.4406779661018" stroke="yellow" stroke-width="1" fill="none" />
<path d="M529.2881355932203,1049.5254237288136 L529.2881355932203,1009.1186440677967" stroke="lavender" stroke-width="1" fill="none" />
<path d="M362.6101694915254,317.1525423728815 L362.6101694915254,337.3559322033899" stroke="yellow" stroke-width="1" fill="none" />
<path d="M362.6101694915254,337.3559322033899 L367.66101694915255,337.3559322033899" stroke="yellow" stroke-width="1" fill="none" />
<path d="M367.66101694915255,337.3559322033899 L367.66101694915255,317.1525423728815" stroke="yellow" stroke-width="1" fill="none" />
<path d="M367.66101694915255,317.1525423728815 L362.6101694915254,317.1525423728815" stroke="yellow" stroke-width="1" fill="none" />
<path d="M569.6949152542372,296.949152542373 L488.88135593220335,296.949152542373" stroke="yellow" stroke-width="1" fill="none" />
<path d="M953.5593220338982,488.8813559322035 L973.7627118644067,408.0677966101696" stroke="yellow" stroke-width="1" fill="none" />
<path d="M973.7627118644067,498.98305084745766 L1014.1694915254237,423.22033898305096" stroke="yellow" stroke-width="1" fill="none" />
<path d="M978.8135593220339,514.135593220339 L1049.5254237288136,448.4745762711865" stroke="yellow" stroke-width="1" fill="none" />
<path d="M933.3559322033898,408.0677966101696 L933.3559322033898,488.8813559322035" stroke="yellow" stroke-width="1" fill="none" />
<path d="M978.8135593220339,534.3389830508476 L1059.6271186440679,534.3389830508476" stroke="lavender" stroke-width="1" fill="none" />
<path d="M1059.6271186440679,524.2372881355933 L978.8135593220339,524.2372881355933" stroke="lavender" stroke-width="1" fill="none" />
<path d="M1014.1694915254237,569.6949152542373 L1054.5762711864406,569.6949152542373" stroke="yellow" stroke-width="1" fill="none" />
<path d="M1054.5762711864406,569.6949152542373 L1054.5762711864406,690.9152542372882" stroke="yellow" stroke-width="1" fill="none" />
<path d="M1054.5762711864406,690.9152542372882 L1014.1694915254237,690.9152542372882" stroke="yellow" stroke-width="1" fill="none" />
<path d="M1014.1694915254237,690.9152542372882 L1014.1694915254237,569.6949152542373" stroke="yellow" stroke-width="1" fill="none" />
<path d="M1135.3898305084747,569.6949152542373 L1175.7966101694915,569.6949152542373" stroke="yellow" stroke-width="1" fill="none" />
<path d="M1175.7966101694915,569.6949152542373 L1175.7966101694915,690.9152542372882" stroke="yellow" stroke-width="1" fill="none" />
<path d="M1175.7966101694915,690.9152542372882 L1135.3898305084747,690.9152542372882" stroke="yellow" stroke-width="1" fill="none" />
<path d="M1135.3898305084747,690.9152542372882 L1135.3898305084747,569.6949152542373" stroke="yellow" stroke-width="1" fill="none" />
<path d="M408.0677966101695,256.54237288135596 L408.0677966101695,276.7457627118645" stroke="yellow" stroke-width="1" fill="none" />
<path d="M387.864406779661,488.8813559322035 L458.5762711864407,488.8813559322035" stroke="yellow" stroke-width="1" fill="none" />
<path d="M650.5084745762712,488.8813559322035 L721.2203389830507,488.8813559322035" stroke="yellow" stroke-width="1" fill="none" />
<path d="M448.47457627118644,4.0 L731.322033898305,4.0" stroke="red" stroke-width="1" fill="none" />
<path d="M731.322033898305,4.0 L731.322033898305,84.81355932203405" stroke="red" stroke-width="1" fill="none" />
<path d="M731.322033898305,84.81355932203405 L731.322033898305,99.96610169491532" stroke="red" stroke-width="1" fill="none" />
<path d="M731.322033898305,190.8813559322034 L731.322033898305,206.0338983050849" stroke="red" stroke-width="1" fill="none" />
<path d="M448.47457627118644,206.0338983050849 L448.47457627118644,190.8813559322034" stroke="red" stroke-width="1" fill="none" />
<path d="M448.47457627118644,99.96610169491532 L448.47457627118644,84.81355932203405" stroke="red" stroke-width="1" fill="none" />
<path d="M448.47457627118644,84.81355932203405 L448.47457627118644,4.0" stroke="red" stroke-width="1" fill="none" />
<path d="M852.5423728813558,99.96610169491532 L933.3559322033898,246.4406779661017" stroke="red" stroke-width="1" fill="none" />
<path d="M852.5423728813558,246.4406779661017 L812.1355932203389,190.8813559322034" stroke="red" stroke-width="1" fill="none" />
<path d="M731.322033898305,99.96610169491532 L731.322033898305,110.06779661016958" stroke="red" stroke-width="1" fill="none" />
<path d="M731.322033898305,110.06779661016958 L741.4237288135593,110.06779661016958" stroke="red" stroke-width="1" fill="none" />
<path d="M741.4237288135593,110.06779661016958 L741.4237288135593,84.81355932203405" stroke="red" stroke-width="1" fill="none" />
<path d="M741.4237288135593,84.81355932203405 L751.5254237288135,84.81355932203405" stroke="red" stroke-width="1" fill="none" />
<path d="M751.5254237288135,84.81355932203405 L751.5254237288135,99.96610169491532" stroke="red" stroke-width="1" fill="none" />
<path d="M751.5254237288135,99.96610169491532 L771.728813559322,99.96610169491532" stroke="red" stroke-width="1" fill="none" />
<path d="M812.1355932203389,99.96610169491532 L852.5423728813558,99.96610169491532" stroke="red" stroke-width="1" fill="none" />
<path d="M771.728813559322,99.96610169491532 L812.1355932203389,99.96610169491532" stroke="red" stroke-width="1" fill="none" />
<path d="M812.1355932203389,190.8813559322034 L791.9322033898304,190.8813559322034" stroke="red" stroke-width="1" fill="none" />
<path d="M791.9322033898304,190.8813559322034 L751.5254237288135,190.8813559322034" stroke="red" stroke-width="1" fill="none" />
<path d="M751.5254237288135,190.8813559322034 L751.5254237288135,206.0338983050849" stroke="red" stroke-width="1" fill="none" />
<path d="M751.5254237288135,206.0338983050849 L741.4237288135593,206.0338983050849" stroke="red" stroke-width="1" fill="none" />
<path d="M741.4237288135593,206.0338983050849 L741.4237288135593,180.77966101694915" stroke="red" stroke-width="1" fill="none" />
<path d="M741.4237288135593,180.77966101694915 L731.322033898305,180.77966101694915" stroke="red" stroke-width="1" fill="none" />
<path d="M731.322033898305,180.77966101694915 L731.322033898305,190.8813559322034" stroke="red" stroke-width="1" fill="none" />
<path d="M448.47457627118644,266.6440677966102 L448.47457627118644,206.0338983050849" stroke="red" stroke-width="1" fill="none" />
<path d="M448.47457627118644,367.66101694915267 L448.47457627118644,327.25423728813564" stroke="red" stroke-width="1" fill="none" />
<path d="M448.47457627118644,327.25423728813564 L448.47457627118644,312.10169491525437" stroke="red" stroke-width="1" fill="none" />
<path d="M448.47457627118644,312.10169491525437 L448.47457627118644,296.949152542373" stroke="red" stroke-width="1" fill="none" />
<path d="M448.47457627118644,296.949152542373 L448.47457627118644,281.7966101694916" stroke="red" stroke-width="1" fill="none" />
<path d="M448.47457627118644,281.7966101694916 L448.47457627118644,266.6440677966102" stroke="red" stroke-width="1" fill="none" />
<path d="M731.322033898305,206.0338983050849 L731.322033898305,266.6440677966102" stroke="red" stroke-width="1" fill="none" />
<path d="M478.7796610169492,367.66101694915267 L448.47457627118644,367.66101694915267" stroke="red" stroke-width="1" fill="none" />
<path d="M620.2033898305084,367.66101694915267 L620.2033898305084,377.7627118644069" stroke="red" stroke-width="1" fill="none" />
<path d="M620.2033898305084,377.7627118644069 L579.7966101694915,377.7627118644069" stroke="red" stroke-width="1" fill="none" />
<path d="M579.7966101694915,377.7627118644069 L579.7966101694915,367.66101694915267" stroke="red" stroke-width="1" fill="none" />
<path d="M519.1864406779661,367.66101694915267 L519.1864406779661,377.7627118644069" stroke="red" stroke-width="1" fill="none" />
<path d="M519.1864406779661,377.7627118644069 L478.7796610169492,377.7627118644069" stroke="red" stroke-width="1" fill="none" />
<path d="M478.7796610169492,377.7627118644069 L478.7796610169492,367.66101694915267" stroke="red" stroke-width="1" fill="none" />
<path d="M741.4237288135593,367.66101694915267 L731.322033898305,367.66101694915267" stroke="red" stroke-width="1" fill="none" />
<path d="M741.4237288135593,286.84745762711873 L741.4237288135593,367.66101694915267" stroke="red" stroke-width="1" fill="none" />
<path d="M731.322033898305,367.66101694915267 L731.322033898305,377.7627118644069" stroke="red" stroke-width="1" fill="none" />
<path d="M731.322033898305,377.7627118644069 L650.5084745762712,377.7627118644069" stroke="red" stroke-width="1" fill="none" />
<path d="M650.5084745762712,377.7627118644069 L650.5084745762712,367.66101694915267" stroke="red" stroke-width="1" fill="none" />
<path d="M650.5084745762712,367.66101694915267 L620.2033898305084,367.66101694915267" stroke="red" stroke-width="1" fill="none" />
<path d="M529.2881355932203,367.66101694915267 L519.1864406779661,367.66101694915267" stroke="red" stroke-width="1" fill="none" />
<path d="M579.7966101694915,367.66101694915267 L569.6949152542372,367.66101694915267" stroke="red" stroke-width="1" fill="none" />
<path d="M731.322033898305,387.86440677966107 L731.322033898305,468.677966101695" stroke="red" stroke-width="1" fill="none" />
<path d="M367.66101694915255,468.677966101695 L367.66101694915255,387.86440677966107" stroke="red" stroke-width="1" fill="none" />
<path d="M569.6949152542372,397.9661016949153 L579.7966101694915,397.9661016949153" stroke="red" stroke-width="1" fill="none" />
<path d="M579.7966101694915,397.9661016949153 L579.7966101694915,387.86440677966107" stroke="red" stroke-width="1" fill="none" />
<path d="M579.7966101694915,387.86440677966107 L620.2033898305084,387.86440677966107" stroke="red" stroke-width="1" fill="none" />
<path d="M620.2033898305084,387.86440677966107 L620.2033898305084,397.9661016949153" stroke="red" stroke-width="1" fill="none" />
<path d="M478.7796610169492,397.9661016949153 L478.7796610169492,387.86440677966107" stroke="red" stroke-width="1" fill="none" />
<path d="M478.7796610169492,387.86440677966107 L519.1864406779661,387.86440677966107" stroke="red" stroke-width="1" fill="none" />
<path d="M519.1864406779661,387.86440677966107 L519.1864406779661,397.9661016949153" stroke="red" stroke-width="1" fill="none" />
<path d="M519.1864406779661,397.9661016949153 L529.2881355932203,397.9661016949153" stroke="red" stroke-width="1" fill="none" />
<path d="M620.2033898305084,397.9661016949153 L625.2542372881355,397.9661016949153" stroke="red" stroke-width="1" fill="none" />
<path d="M473.7288135593221,397.9661016949153 L478.7796610169492,397.9661016949153" stroke="red" stroke-width="1" fill="none" />
<path d="M569.6949152542372,367.66101694915267 L569.6949152542372,382.81355932203394" stroke="red" stroke-width="1" fill="none" />
<path d="M569.6949152542372,382.81355932203394 L569.6949152542372,387.86440677966107" stroke="red" stroke-width="1" fill="none" />
<path d="M569.6949152542372,387.86440677966107 L569.6949152542372,397.9661016949153" stroke="red" stroke-width="1" fill="none" />
<path d="M529.2881355932203,397.9661016949153 L529.2881355932203,387.86440677966107" stroke="red" stroke-width="1" fill="none" />
<path d="M529.2881355932203,387.86440677966107 L529.2881355932203,382.81355932203394" stroke="red" stroke-width="1" fill="none" />
<path d="M529.2881355932203,382.81355932203394 L529.2881355932203,367.66101694915267" stroke="red" stroke-width="1" fill="none" />
<path d="M625.2542372881355,478.77966101694926 L473.7288135593221,478.77966101694926" stroke="red" stroke-width="1" fill="none" />
<path d="M650.5084745762712,478.77966101694926 L625.2542372881355,478.77966101694926" stroke="red" stroke-width="1" fill="none" />
<path d="M731.322033898305,468.677966101695 L721.2203389830507,468.677966101695" stroke="red" stroke-width="1" fill="none" />
<path d="M473.7288135593221,478.77966101694926 L458.5762711864407,478.77966101694926" stroke="red" stroke-width="1" fill="none" />
<path d="M387.864406779661,468.677966101695 L367.66101694915255,468.677966101695" stroke="red" stroke-width="1" fill="none" />
<path d="M670.7118644067796,534.3389830508476 L650.5084745762712,534.3389830508476" stroke="red" stroke-width="1" fill="none" />
<path d="M721.2203389830507,534.3389830508476 L701.0169491525423,534.3389830508476" stroke="red" stroke-width="1" fill="none" />
<path d="M701.0169491525423,534.3389830508476 L701.0169491525423,544.4406779661018" stroke="red" stroke-width="1" fill="none" />
<path d="M701.0169491525423,544.4406779661018 L670.7118644067796,544.4406779661018" stroke="lavender" stroke-width="1" fill="none" />
<path d="M670.7118644067796,544.4406779661018 L670.7118644067796,534.3389830508476" stroke="red" stroke-width="1" fill="none" />
<path d="M640.4067796610169,493.93220338983065 L650.5084745762712,493.93220338983065" stroke="red" stroke-width="1" fill="none" />
<path d="M640.4067796610169,529.2881355932204 L640.4067796610169,493.93220338983065" stroke="red" stroke-width="1" fill="none" />
<path d="M650.5084745762712,529.2881355932204 L640.4067796610169,529.2881355932204" stroke="red" stroke-width="1" fill="none" />
<path d="M852.5423728813558,367.66101694915267 L852.5423728813558,327.25423728813564" stroke="red" stroke-width="1" fill="none" />
<path d="M852.5423728813558,286.84745762711873 L852.5423728813558,246.4406779661017" stroke="red" stroke-width="1" fill="none" />
<path d="M812.1355932203389,286.84745762711873 L852.5423728813558,286.84745762711873" stroke="red" stroke-width="1" fill="none" />
<path d="M852.5423728813558,327.25423728813564 L812.1355932203389,327.25423728813564" stroke="red" stroke-width="1" fill="none" />
<path d="M771.728813559322,286.84745762711873 L812.1355932203389,286.84745762711873" stroke="red" stroke-width="1" fill="none" />
<path d="M812.1355932203389,327.25423728813564 L771.728813559322,327.25423728813564" stroke="red" stroke-width="1" fill="none" />
<path d="M448.47457627118644,190.8813559322034 L448.47457627118644,180.77966101694915" stroke="red" stroke-width="1" fill="none" />
<path d="M448.47457627118644,180.77966101694915 L438.3728813559322,180.77966101694915" stroke="red" stroke-width="1" fill="none" />
<path d="M438.3728813559322,180.77966101694915 L438.3728813559322,206.0338983050849" stroke="red" stroke-width="1" fill="none" />
<path d="M438.3728813559322,206.0338983050849 L428.271186440678,206.0338983050849" stroke="red" stroke-width="1" fill="none" />
<path d="M428.271186440678,206.0338983050849 L428.271186440678,190.8813559322034" stroke="red" stroke-width="1" fill="none" />
<path d="M448.47457627118644,110.06779661016958 L448.47457627118644,99.96610169491532" stroke="red" stroke-width="1" fill="none" />
<path d="M438.3728813559322,110.06779661016958 L448.47457627118644,110.06779661016958" stroke="red" stroke-width="1" fill="none" />
<path d="M438.3728813559322,84.81355932203405 L438.3728813559322,110.06779661016958" stroke="red" stroke-width="1" fill="none" />
<path d="M428.271186440678,84.81355932203405 L438.3728813559322,84.81355932203405" stroke="red" stroke-width="1" fill="none" />
<path d="M428.271186440678,99.96610169491532 L428.271186440678,84.81355932203405" stroke="red" stroke-width="1" fill="none" />
<path d="M327.2542372881356,99.96610169491532 L428.271186440678,99.96610169491532" stroke="red" stroke-width="1" fill="none" />
<path d="M428.271186440678,190.8813559322034 L327.2542372881356,190.8813559322034" stroke="red" stroke-width="1" fill="none" />
<path d="M933.3559322033898,569.6949152542373 L852.5423728813558,650.5084745762713" stroke="red" stroke-width="1" fill="none" />
<path d="M776.779661016949,569.6949152542373 L852.5423728813558,529.2881355932204" stroke="red" stroke-width="1" fill="none" />
<path d="M286.8474576271187,529.2881355932204 L367.66101694915255,569.6949152542373" stroke="red" stroke-width="1" fill="none" />
<path d="M286.8474576271187,408.0677966101696 L286.8474576271187,529.2881355932204" stroke="red" stroke-width="1" fill="none" />
<path d="M286.8474576271187,650.5084745762713 L206.03389830508473,569.6949152542373" stroke="red" stroke-width="1" fill="none" />
<path d="M327.2542372881356,190.8813559322034 L286.8474576271187,246.4406779661017" stroke="red" stroke-width="1" fill="none" />
<path d="M206.03389830508473,165.62711864406788 L327.2542372881356,99.96610169491532" stroke="red" stroke-width="1" fill="none" />
<path d="M206.03389830508473,423.22033898305096 L206.03389830508473,165.62711864406788" stroke="red" stroke-width="1" fill="none" />
<path d="M286.8474576271187,246.4406779661017 L286.8474576271187,286.84745762711873" stroke="red" stroke-width="1" fill="none" />
<path d="M286.8474576271187,367.66101694915267 L286.8474576271187,408.0677966101696" stroke="red" stroke-width="1" fill="none" />
<path d="M327.2542372881356,286.84745762711873 L327.2542372881356,206.0338983050849" stroke="red" stroke-width="1" fill="none" />
<path d="M327.2542372881356,206.0338983050849 L408.0677966101695,206.0338983050849" stroke="red" stroke-width="1" fill="none" />
<path d="M408.0677966101695,367.66101694915267 L317.1525423728814,367.66101694915267" stroke="red" stroke-width="1" fill="none" />
<path d="M367.66101694915255,569.6949152542373 L564.6440677966101,569.6949152542373" stroke="red" stroke-width="1" fill="none" />
<path d="M579.7966101694915,569.6949152542373 L776.779661016949,569.6949152542373" stroke="red" stroke-width="1" fill="none" />
<path d="M771.728813559322,650.5084745762713 L771.728813559322,660.6101694915255" stroke="red" stroke-width="1" fill="none" />
<path d="M579.7966101694915,731.3220338983052 L579.7966101694915,660.6101694915255" stroke="red" stroke-width="1" fill="none" />
<path d="M579.7966101694915,660.6101694915255 L579.7966101694915,650.5084745762713" stroke="red" stroke-width="1" fill="none" />
<path d="M852.5423728813558,650.5084745762713 L812.1355932203389,650.5084745762713" stroke="red" stroke-width="1" fill="none" />
<path d="M812.1355932203389,650.5084745762713 L796.9830508474575,650.5084745762713" stroke="red" stroke-width="1" fill="none" />
<path d="M796.9830508474575,650.5084745762713 L796.9830508474575,665.6610169491527" stroke="red" stroke-width="1" fill="none" />
<path d="M796.9830508474575,665.6610169491527 L786.8813559322033,665.6610169491527" stroke="red" stroke-width="1" fill="none" />
<path d="M786.8813559322033,665.6610169491527 L786.8813559322033,640.406779661017" stroke="red" stroke-width="1" fill="none" />
<path d="M786.8813559322033,640.406779661017 L771.728813559322,640.406779661017" stroke="red" stroke-width="1" fill="none" />
<path d="M771.728813559322,640.406779661017 L771.728813559322,650.5084745762713" stroke="red" stroke-width="1" fill="none" />
<path d="M579.7966101694915,610.1016949152544 L579.7966101694915,569.6949152542373" stroke="red" stroke-width="1" fill="none" />
<path d="M564.6440677966101,569.6949152542373 L564.6440677966101,610.1016949152544" stroke="red" stroke-width="1" fill="none" />
<path d="M564.6440677966101,610.1016949152544 L579.7966101694915,610.1016949152544" stroke="red" stroke-width="1" fill="none" />
<path d="M564.6440677966101,650.5084745762713 L564.6440677966101,731.3220338983052" stroke="red" stroke-width="1" fill="none" />
<path d="M564.6440677966101,731.3220338983052 L488.88135593220335,731.3220338983052" stroke="red" stroke-width="1" fill="none" />
<path d="M933.3559322033898,731.3220338983052 L933.3559322033898,1206.1016949152543" stroke="red" stroke-width="1" fill="none" />
<path d="M569.6949152542372,746.4745762711865 L579.7966101694915,746.4745762711865" stroke="red" stroke-width="1" fill="none" />
<path d="M579.7966101694915,746.4745762711865 L579.7966101694915,731.3220338983052" stroke="red" stroke-width="1" fill="none" />
<path d="M569.6949152542372,832.3389830508476 L569.6949152542372,812.135593220339" stroke="red" stroke-width="1" fill="none" />
<path d="M569.6949152542372,892.949152542373 L569.6949152542372,877.7966101694916" stroke="red" stroke-width="1" fill="none" />
<path d="M569.6949152542372,877.7966101694916 L569.6949152542372,862.6440677966102" stroke="red" stroke-width="1" fill="none" />
<path d="M569.6949152542372,862.6440677966102 L569.6949152542372,847.491525423729" stroke="red" stroke-width="1" fill="none" />
<path d="M569.6949152542372,847.491525423729 L569.6949152542372,832.3389830508476" stroke="red" stroke-width="1" fill="none" />
<path d="M933.3559322033898,1206.1016949152543 L852.5423728813558,1206.1016949152543" stroke="red" stroke-width="1" fill="none" />
<path d="M791.9322033898304,1094.9830508474577 L791.9322033898304,933.3559322033899" stroke="red" stroke-width="1" fill="none" />
<path d="M791.9322033898304,933.3559322033899 L781.8305084745762,933.3559322033899" stroke="red" stroke-width="1" fill="none" />
<path d="M746.4745762711864,973.7627118644068 L746.4745762711864,933.3559322033899" stroke="red" stroke-width="1" fill="none" />
<path d="M781.8305084745762,933.3559322033899 L781.8305084745762,973.7627118644068" stroke="red" stroke-width="1" fill="none" />
<path d="M781.8305084745762,973.7627118644068 L781.8305084745762,1094.9830508474577" stroke="red" stroke-width="1" fill="none" />
<path d="M781.8305084745762,1206.1016949152543 L620.2033898305084,1206.1016949152543" stroke="red" stroke-width="1" fill="none" />
<path d="M746.4745762711864,933.3559322033899 L680.8135593220338,933.3559322033899" stroke="red" stroke-width="1" fill="none" />
<path d="M680.8135593220338,933.3559322033899 L680.8135593220338,973.7627118644068" stroke="red" stroke-width="1" fill="none" />
<path d="M650.5084745762712,973.7627118644068 L650.5084745762712,933.3559322033899" stroke="red" stroke-width="1" fill="none" />
<path d="M680.8135593220338,973.7627118644068 L746.4745762711864,973.7627118644068" stroke="red" stroke-width="1" fill="none" />
<path d="M620.2033898305084,973.7627118644068 L650.5084745762712,973.7627118644068" stroke="red" stroke-width="1" fill="none" />
<path d="M781.8305084745762,1155.5932203389832 L781.8305084745762,1206.1016949152543" stroke="red" stroke-width="1" fill="none" />
<path d="M791.9322033898304,1206.1016949152543 L791.9322033898304,1155.5932203389832" stroke="red" stroke-width="1" fill="none" />
<path d="M791.9322033898304,1155.5932203389832 L781.8305084745762,1155.5932203389832" stroke="red" stroke-width="1" fill="none" />
<path d="M781.8305084745762,1094.9830508474577 L791.9322033898304,1094.9830508474577" stroke="red" stroke-width="1" fill="none" />
<path d="M620.2033898305084,1206.1016949152543 L620.2033898305084,1094.9830508474577" stroke="red" stroke-width="1" fill="none" />
<path d="M620.2033898305084,1094.9830508474577 L620.2033898305084,1079.8305084745764" stroke="red" stroke-width="1" fill="none" />
<path d="M620.2033898305084,1079.8305084745764 L620.2033898305084,1064.677966101695" stroke="red" stroke-width="1" fill="none" />
<path d="M620.2033898305084,1064.677966101695 L620.2033898305084,1049.5254237288136" stroke="red" stroke-width="1" fill="none" />
<path d="M620.2033898305084,1049.5254237288136 L620.2033898305084,1034.3728813559323" stroke="red" stroke-width="1" fill="none" />
<path d="M852.5423728813558,1206.1016949152543 L791.9322033898304,1206.1016949152543" stroke="red" stroke-width="1" fill="none" />
<path d="M569.6949152542372,933.3559322033899 L569.6949152542372,892.949152542373" stroke="red" stroke-width="1" fill="none" />
<path d="M771.728813559322,660.6101694915255 L771.728813559322,690.9152542372882" stroke="red" stroke-width="1" fill="none" />
<path d="M892.9491525423729,731.3220338983052 L933.3559322033898,731.3220338983052" stroke="red" stroke-width="1" fill="none" />
<path d="M892.9491525423729,721.220338983051 L892.9491525423729,731.3220338983052" stroke="red" stroke-width="1" fill="none" />
<path d="M771.728813559322,690.9152542372882 L781.8305084745762,690.9152542372882" stroke="red" stroke-width="1" fill="none" />
<path d="M938.4067796610169,721.220338983051 L892.9491525423729,721.220338983051" stroke="red" stroke-width="1" fill="none" />
<path d="M938.4067796610169,670.7118644067798 L938.4067796610169,721.220338983051" stroke="red" stroke-width="1" fill="none" />
<path d="M781.8305084745762,690.9152542372882 L781.8305084745762,670.7118644067798" stroke="red" stroke-width="1" fill="none" />
<path d="M781.8305084745762,670.7118644067798 L938.4067796610169,670.7118644067798" stroke="red" stroke-width="1" fill="none" />
<path d="M569.6949152542372,812.135593220339 L559.593220338983,812.135593220339" stroke="red" stroke-width="1" fill="none" />
<path d="M559.593220338983,746.4745762711865 L569.6949152542372,746.4745762711865" stroke="red" stroke-width="1" fill="none" />
<path d="M559.593220338983,812.135593220339 L408.0677966101695,812.135593220339" stroke="red" stroke-width="1" fill="none" />
<path d="M408.0677966101695,812.135593220339 L408.0677966101695,746.4745762711865" stroke="red" stroke-width="1" fill="none" />
<path d="M408.0677966101695,746.4745762711865 L559.593220338983,746.4745762711865" stroke="red" stroke-width="1" fill="none" />
<path d="M615.1525423728813,973.7627118644068 L620.2033898305084,973.7627118644068" stroke="red" stroke-width="1" fill="none" />
<path d="M620.2033898305084,1034.3728813559323 L615.1525423728813,1034.3728813559323" stroke="red" stroke-width="1" fill="none" />
<path d="M605.050847457627,973.7627118644068 L615.1525423728813,973.7627118644068" stroke="red" stroke-width="1" fill="none" />
<path d="M605.050847457627,953.5593220338984 L605.050847457627,973.7627118644068" stroke="red" stroke-width="1" fill="none" />
<path d="M615.1525423728813,1034.3728813559323 L605.050847457627,1034.3728813559323" stroke="red" stroke-width="1" fill="none" />
<path d="M605.050847457627,1034.3728813559323 L605.050847457627,1105.084745762712" stroke="red" stroke-width="1" fill="none" />
<path d="M650.5084745762712,933.3559322033899 L605.050847457627,933.3559322033899" stroke="red" stroke-width="1" fill="none" />
<path d="M605.050847457627,933.3559322033899 L605.050847457627,953.5593220338984" stroke="red" stroke-width="1" fill="none" />
<path d="M554.5423728813558,953.5593220338984 L579.7966101694915,953.5593220338984" stroke="red" stroke-width="1" fill="none" />
<path d="M579.7966101694915,953.5593220338984 L579.7966101694915,933.3559322033899" stroke="red" stroke-width="1" fill="none" />
<path d="M579.7966101694915,933.3559322033899 L569.6949152542372,933.3559322033899" stroke="red" stroke-width="1" fill="none" />
<path d="M458.5762711864407,534.3389830508476 L438.3728813559322,534.3389830508476" stroke="red" stroke-width="1" fill="none" />
<path d="M438.3728813559322,534.3389830508476 L438.3728813559322,544.4406779661018" stroke="red" stroke-width="1" fill="none" />
<path d="M408.0677966101695,544.4406779661018 L408.0677966101695,534.3389830508476" stroke="red" stroke-width="1" fill="none" />
<path d="M408.0677966101695,534.3389830508476 L387.864406779661,534.3389830508476" stroke="red" stroke-width="1" fill="none" />
<path d="M438.3728813559322,544.4406779661018 L408.0677966101695,544.4406779661018" stroke="lavender" stroke-width="1" fill="none" />
<path d="M387.864406779661,529.2881355932204 L377.7627118644068,529.2881355932204" stroke="red" stroke-width="1" fill="none" />
<path d="M377.7627118644068,529.2881355932204 L377.7627118644068,493.93220338983065" stroke="red" stroke-width="1" fill="none" />
<path d="M377.7627118644068,493.93220338983065 L387.864406779661,493.93220338983065" stroke="red" stroke-width="1" fill="none" />
<path d="M408.0677966101695,650.5084745762713 L286.8474576271187,650.5084745762713" stroke="red" stroke-width="1" fill="none" />
<path d="M448.47457627118644,650.5084745762713 L408.0677966101695,650.5084745762713" stroke="red" stroke-width="1" fill="none" />
<path d="M438.3728813559322,731.3220338983052 L397.96610169491527,731.3220338983052" stroke="red" stroke-width="1" fill="none" />
<path d="M408.0677966101695,690.9152542372882 L448.47457627118644,690.9152542372882" stroke="red" stroke-width="1" fill="none" />
<path d="M448.47457627118644,690.9152542372882 L448.47457627118644,650.5084745762713" stroke="red" stroke-width="1" fill="none" />
<path d="M397.96610169491527,731.3220338983052 L397.96610169491527,852.542372881356" stroke="red" stroke-width="1" fill="none" />
<path d="M286.8474576271187,690.9152542372882 L408.0677966101695,690.9152542372882" stroke="red" stroke-width="1" fill="none" />
<path d="M397.96610169491527,852.542372881356 L286.8474576271187,852.542372881356" stroke="red" stroke-width="1" fill="none" />
<path d="M246.4406779661017,812.135593220339 L246.4406779661017,731.3220338983052" stroke="red" stroke-width="1" fill="none" />
<path d="M286.8474576271187,660.6101694915255 L286.8474576271187,690.9152542372882" stroke="red" stroke-width="1" fill="none" />
<path d="M84.8135593220339,660.6101694915255 L286.8474576271187,660.6101694915255" stroke="red" stroke-width="1" fill="none" />
<path d="M4.0,796.9830508474577 L4.0,423.22033898305096" stroke="red" stroke-width="1" fill="none" />
<path d="M246.4406779661017,731.3220338983052 L231.28813559322037,731.3220338983052" stroke="red" stroke-width="1" fill="none" />
<path d="M231.28813559322037,731.3220338983052 L231.28813559322037,796.9830508474577" stroke="red" stroke-width="1" fill="none" />
<path d="M125.22033898305084,973.7627118644068 L125.22033898305084,812.135593220339" stroke="red" stroke-width="1" fill="none" />
<path d="M529.2881355932203,973.7627118644068 L125.22033898305084,973.7627118644068" stroke="red" stroke-width="1" fill="none" />
<path d="M302.0,367.66101694915267 L296.9491525423729,367.66101694915267" stroke="red" stroke-width="1" fill="none" />
<path d="M296.9491525423729,367.66101694915267 L286.8474576271187,367.66101694915267" stroke="red" stroke-width="1" fill="none" />
<path d="M286.8474576271187,286.84745762711873 L296.9491525423729,286.84745762711873" stroke="red" stroke-width="1" fill="none" />
<path d="M296.9491525423729,286.84745762711873 L302.0,286.84745762711873" stroke="red" stroke-width="1" fill="none" />
<path d="M312.10169491525426,367.66101694915267 L302.0,367.66101694915267" stroke="red" stroke-width="1" fill="none" />
<path d="M302.0,286.84745762711873 L312.10169491525426,286.84745762711873" stroke="red" stroke-width="1" fill="none" />
<path d="M312.10169491525426,286.84745762711873 L317.1525423728814,286.84745762711873" stroke="red" stroke-width="1" fill="none" />
<path d="M317.1525423728814,367.66101694915267 L312.10169491525426,367.66101694915267" stroke="red" stroke-width="1" fill="none" />
<path d="M317.1525423728814,286.84745762711873 L327.2542372881356,286.84745762711873" stroke="red" stroke-width="1" fill="none" />
<path d="M165.62711864406782,796.9830508474577 L4.0,796.9830508474577" stroke="red" stroke-width="1" fill="none" />
<path d="M231.28813559322037,796.9830508474577 L206.03389830508473,796.9830508474577" stroke="red" stroke-width="1" fill="none" />
<path d="M165.62711864406782,807.0847457627119 L165.62711864406782,802.0338983050849" stroke="red" stroke-width="1" fill="none" />
<path d="M206.03389830508473,802.0338983050849 L206.03389830508473,807.0847457627119" stroke="red" stroke-width="1" fill="none" />
<path d="M852.5423728813558,529.2881355932204 L852.5423728813558,488.8813559322035" stroke="red" stroke-width="1" fill="none" />
<path d="M852.5423728813558,488.8813559322035 L847.4915254237287,488.8813559322035" stroke="red" stroke-width="1" fill="none" />
<path d="M847.4915254237287,408.0677966101696 L852.5423728813558,408.0677966101696" stroke="red" stroke-width="1" fill="none" />
<path d="M852.5423728813558,408.0677966101696 L852.5423728813558,367.66101694915267" stroke="red" stroke-width="1" fill="none" />
<path d="M847.4915254237287,488.8813559322035 L771.728813559322,488.8813559322035" stroke="red" stroke-width="1" fill="none" />
<path d="M771.728813559322,488.8813559322035 L771.728813559322,408.0677966101696" stroke="red" stroke-width="1" fill="none" />
<path d="M771.728813559322,408.0677966101696 L847.4915254237287,408.0677966101696" stroke="red" stroke-width="1" fill="none" />
<path d="M579.7966101694915,650.5084745762713 L564.6440677966101,650.5084745762713" stroke="red" stroke-width="1" fill="none" />
<path d="M286.8474576271187,852.542372881356 L286.8474576271187,872.7457627118645" stroke="red" stroke-width="1" fill="none" />
<path d="M286.8474576271187,872.7457627118645 L529.2881355932203,872.7457627118645" stroke="red" stroke-width="1" fill="none" />
<path d="M529.2881355932203,872.7457627118645 L529.2881355932203,973.7627118644068" stroke="red" stroke-width="1" fill="none" />
<path d="M4.0,423.22033898305096 L84.8135593220339,423.22033898305096" stroke="red" stroke-width="1" fill="none" />
<path d="M84.8135593220339,448.4745762711865 L94.91525423728812,448.4745762711865" stroke="red" stroke-width="1" fill="none" />
<path d="M94.91525423728812,423.22033898305096 L125.22033898305084,423.22033898305096" stroke="red" stroke-width="1" fill="none" />
<path d="M125.22033898305084,544.4406779661018 L94.91525423728812,544.4406779661018" stroke="red" stroke-width="1" fill="none" />
<path d="M94.91525423728812,529.2881355932204 L84.8135593220339,529.2881355932204" stroke="red" stroke-width="1" fill="none" />
<path d="M125.22033898305084,423.22033898305096 L140.37288135593218,423.22033898305096" stroke="red" stroke-width="1" fill="none" />
<path d="M140.37288135593218,423.22033898305096 L155.52542372881356,423.22033898305096" stroke="red" stroke-width="1" fill="none" />
<path d="M155.52542372881356,423.22033898305096 L170.6779661016949,423.22033898305096" stroke="red" stroke-width="1" fill="none" />
<path d="M170.6779661016949,423.22033898305096 L185.83050847457628,423.22033898305096" stroke="red" stroke-width="1" fill="none" />
<path d="M185.83050847457628,423.22033898305096 L206.03389830508473,423.22033898305096" stroke="red" stroke-width="1" fill="none" />
<path d="M206.03389830508473,544.4406779661018 L185.83050847457628,544.4406779661018" stroke="red" stroke-width="1" fill="none" />
<path d="M185.83050847457628,544.4406779661018 L170.6779661016949,544.4406779661018" stroke="red" stroke-width="1" fill="none" />
<path d="M170.6779661016949,544.4406779661018 L155.52542372881356,544.4406779661018" stroke="red" stroke-width="1" fill="none" />
<path d="M155.52542372881356,544.4406779661018 L140.37288135593218,544.4406779661018" stroke="red" stroke-width="1" fill="none" />
<path d="M140.37288135593218,544.4406779661018 L125.22033898305084,544.4406779661018" stroke="red" stroke-width="1" fill="none" />
<path d="M206.03389830508473,569.6949152542373 L206.03389830508473,544.4406779661018" stroke="red" stroke-width="1" fill="none" />
<path d="M84.8135593220339,423.22033898305096 L84.8135593220339,443.42372881355936" stroke="red" stroke-width="1" fill="none" />
<path d="M94.91525423728812,443.42372881355936 L94.91525423728812,423.22033898305096" stroke="red" stroke-width="1" fill="none" />
<path d="M84.8135593220339,443.42372881355936 L84.8135593220339,448.4745762711865" stroke="red" stroke-width="1" fill="none" />
<path d="M94.91525423728812,448.4745762711865 L94.91525423728812,443.42372881355936" stroke="red" stroke-width="1" fill="none" />
<path d="M84.8135593220339,534.3389830508476 L84.8135593220339,660.6101694915255" stroke="red" stroke-width="1" fill="none" />
<path d="M94.91525423728812,544.4406779661018 L94.91525423728812,534.3389830508476" stroke="red" stroke-width="1" fill="none" />
<path d="M94.91525423728812,534.3389830508476 L94.91525423728812,529.2881355932204" stroke="red" stroke-width="1" fill="none" />
<path d="M84.8135593220339,529.2881355932204 L84.8135593220339,534.3389830508476" stroke="red" stroke-width="1" fill="none" />
<path d="M554.5423728813558,1009.1186440677967 L554.5423728813558,953.5593220338984" stroke="red" stroke-width="1" fill="none" />
<path d="M488.88135593220335,1049.5254237288136 L488.88135593220335,1009.1186440677967" stroke="red" stroke-width="1" fill="none" />
<path d="M529.2881355932203,1009.1186440677967 L554.5423728813558,1009.1186440677967" stroke="red" stroke-width="1" fill="none" />
<path d="M554.5423728813558,1049.5254237288136 L529.2881355932203,1049.5254237288136" stroke="red" stroke-width="1" fill="none" />
<path d="M529.2881355932203,1049.5254237288136 L488.88135593220335,1049.5254237288136" stroke="red" stroke-width="1" fill="none" />
<path d="M488.88135593220335,1009.1186440677967 L529.2881355932203,1009.1186440677967" stroke="red" stroke-width="1" fill="none" />
<path d="M554.5423728813558,1105.084745762712 L554.5423728813558,1049.5254237288136" stroke="red" stroke-width="1" fill="none" />
<path d="M605.050847457627,1105.084745762712 L554.5423728813558,1105.084745762712" stroke="red" stroke-width="1" fill="none" />
<path d="M933.3559322033898,246.4406779661017 L933.3559322033898,408.0677966101696" stroke="red" stroke-width="1" fill="none" />
<path d="M933.3559322033898,488.8813559322035 L933.3559322033898,569.6949152542373" stroke="red" stroke-width="1" fill="none" />
<path d="M933.3559322033898,408.0677966101696 L973.7627118644067,408.0677966101696" stroke="red" stroke-width="1" fill="none" />
<path d="M973.7627118644067,408.0677966101696 L1014.1694915254237,423.22033898305096" stroke="red" stroke-width="1" fill="none" />
<path d="M1014.1694915254237,423.22033898305096 L1049.5254237288136,448.4745762711865" stroke="red" stroke-width="1" fill="none" />
<path d="M1049.5254237288136,448.4745762711865 L1059.6271186440679,473.72881355932213" stroke="red" stroke-width="1" fill="none" />
<path d="M953.5593220338982,488.8813559322035 L933.3559322033898,488.8813559322035" stroke="red" stroke-width="1" fill="none" />
<path d="M973.7627118644067,498.98305084745766 L953.5593220338982,488.8813559322035" stroke="red" stroke-width="1" fill="none" />
<path d="M978.8135593220339,514.135593220339 L973.7627118644067,498.98305084745766" stroke="red" stroke-width="1" fill="none" />
<path d="M978.8135593220339,544.4406779661018 L978.8135593220339,534.3389830508476" stroke="red" stroke-width="1" fill="none" />
<path d="M1196.0,731.3220338983052 L948.5084745762712,731.3220338983052" stroke="red" stroke-width="1" fill="none" />
<path d="M1059.6271186440679,473.72881355932213 L1059.6271186440679,514.135593220339" stroke="red" stroke-width="1" fill="none" />
<path d="M1059.6271186440679,514.135593220339 L1074.7796610169491,514.135593220339" stroke="red" stroke-width="1" fill="none" />
<path d="M963.6610169491524,514.135593220339 L978.8135593220339,514.135593220339" stroke="red" stroke-width="1" fill="none" />
<path d="M1074.7796610169491,514.135593220339 L1074.7796610169491,524.2372881355933" stroke="red" stroke-width="1" fill="none" />
<path d="M1074.7796610169491,524.2372881355933 L1059.6271186440679,524.2372881355933" stroke="red" stroke-width="1" fill="none" />
<path d="M1059.6271186440679,524.2372881355933 L1059.6271186440679,534.3389830508476" stroke="red" stroke-width="1" fill="none" />
<path d="M978.8135593220339,534.3389830508476 L978.8135593220339,524.2372881355933" stroke="red" stroke-width="1" fill="none" />
<path d="M978.8135593220339,524.2372881355933 L963.6610169491524,524.2372881355933" stroke="red" stroke-width="1" fill="none" />
<path d="M963.6610169491524,524.2372881355933 L963.6610169491524,514.135593220339" stroke="red" stroke-width="1" fill="none" />
<path d="M1094.9830508474577,544.4406779661018 L1094.9830508474577,584.8474576271187" stroke="red" stroke-width="1" fill="none" />
<path d="M1094.9830508474577,584.8474576271187 L1084.8813559322034,584.8474576271187" stroke="red" stroke-width="1" fill="none" />
<path d="M1084.8813559322034,584.8474576271187 L1084.8813559322034,665.6610169491527" stroke="red" stroke-width="1" fill="none" />
<path d="M1084.8813559322034,665.6610169491527 L1115.1864406779662,665.6610169491527" stroke="red" stroke-width="1" fill="none" />
<path d="M948.5084745762712,731.3220338983052 L948.5084745762712,665.6610169491527" stroke="red" stroke-width="1" fill="none" />
<path d="M948.5084745762712,665.6610169491527 L958.6101694915254,665.6610169491527" stroke="red" stroke-width="1" fill="none" />
<path d="M958.6101694915254,665.6610169491527 L958.6101694915254,584.8474576271187" stroke="red" stroke-width="1" fill="none" />
<path d="M958.6101694915254,584.8474576271187 L948.5084745762712,584.8474576271187" stroke="red" stroke-width="1" fill="none" />
<path d="M1059.6271186440679,534.3389830508476 L1059.6271186440679,544.4406779661018" stroke="red" stroke-width="1" fill="none" />
<path d="M1059.6271186440679,544.4406779661018 L1094.9830508474577,544.4406779661018" stroke="red" stroke-width="1" fill="none" />
<path d="M948.5084745762712,584.8474576271187 L948.5084745762712,544.4406779661018" stroke="red" stroke-width="1" fill="none" />
<path d="M948.5084745762712,544.4406779661018 L978.8135593220339,544.4406779661018" stroke="red" stroke-width="1" fill="none" />
<path d="M1196.0,625.2542372881356 L1196.0,731.3220338983052" stroke="red" stroke-width="1" fill="none" />
<path d="M1115.1864406779662,665.6610169491527 L1115.1864406779662,584.8474576271187" stroke="red" stroke-width="1" fill="none" />
<path d="M1115.1864406779662,584.8474576271187 L1105.084745762712,584.8474576271187" stroke="red" stroke-width="1" fill="none" />
<path d="M1105.084745762712,584.8474576271187 L1105.084745762712,544.4406779661018" stroke="red" stroke-width="1" fill="none" />
<path d="M1105.084745762712,544.4406779661018 L1185.8983050847457,544.4406779661018" stroke="red" stroke-width="1" fill="none" />
<path d="M1185.8983050847457,544.4406779661018 L1185.8983050847457,625.2542372881356" stroke="red" stroke-width="1" fill="none" />
<path d="M1185.8983050847457,625.2542372881356 L1196.0,625.2542372881356" stroke="red" stroke-width="1" fill="none" />
<path d="M731.322033898305,286.84745762711873 L741.4237288135593,286.84745762711873" stroke="red" stroke-width="1" fill="none" />
<path d="M731.322033898305,266.6440677966102 L731.322033898305,286.84745762711873" stroke="red" stroke-width="1" fill="none" />
<path d="M650.5084745762712,534.3389830508476 L650.5084745762712,529.2881355932204" stroke="red" stroke-width="1" fill="none" />
<path d="M387.864406779661,534.3389830508476 L387.864406779661,524.2372881355933" stroke="red" stroke-width="1" fill="none" />
<path d="M408.0677966101695,276.7457627118645 L408.0677966101695,367.66101694915267" stroke="red" stroke-width="1" fill="none" />
<path d="M408.0677966101695,206.0338983050849 L408.0677966101695,256.54237288135596" stroke="red" stroke-width="1" fill="none" />
<path d="M408.0677966101695,256.54237288135596 L418.1694915254237,256.54237288135596" stroke="red" stroke-width="1" fill="none" />
<path d="M418.1694915254237,256.54237288135596 L418.1694915254237,276.7457627118645" stroke="lavender" stroke-width="1" fill="none" />
<path d="M418.1694915254237,276.7457627118645 L408.0677966101695,276.7457627118645" stroke="red" stroke-width="1" fill="none" />
<path d="M367.66101694915255,387.86440677966107 L473.7288135593221,387.86440677966107" stroke="red" stroke-width="1" fill="none" />
<path d="M473.7288135593221,387.86440677966107 L473.7288135593221,397.9661016949153" stroke="red" stroke-width="1" fill="none" />
<path d="M625.2542372881355,387.86440677966107 L731.322033898305,387.86440677966107" stroke="red" stroke-width="1" fill="none" />
<path d="M625.2542372881355,397.9661016949153 L625.2542372881355,387.86440677966107" stroke="red" stroke-width="1" fill="none" />
<path d="M438.3728813559322,741.4237288135594 L438.3728813559322,731.3220338983052" stroke="red" stroke-width="1" fill="none" />
<path d="M448.47457627118644,741.4237288135594 L438.3728813559322,741.4237288135594" stroke="red" stroke-width="1" fill="none" />
<path d="M488.88135593220335,731.3220338983052 L448.47457627118644,731.3220338983052" stroke="red" stroke-width="1" fill="none" />
<path d="M448.47457627118644,731.3220338983052 L448.47457627118644,741.4237288135594" stroke="red" stroke-width="1" fill="none" />
<path d="M165.62711864406782,812.135593220339 L165.62711864406782,807.0847457627119" stroke="red" stroke-width="1" fill="none" />
<path d="M125.22033898305084,812.135593220339 L165.62711864406782,812.135593220339" stroke="red" stroke-width="1" fill="none" />
<path d="M206.03389830508473,807.0847457627119 L206.03389830508473,812.135593220339" stroke="red" stroke-width="1" fill="none" />
<path d="M206.03389830508473,812.135593220339 L246.4406779661017,812.135593220339" stroke="red" stroke-width="1" fill="none" />
<path d="M165.62711864406782,802.0338983050849 L165.62711864406782,796.9830508474577" stroke="red" stroke-width="1" fill="none" />
<path d="M206.03389830508473,796.9830508474577 L206.03389830508473,802.0338983050849" stroke="red" stroke-width="1" fill="none" />
<path d="M771.728813559322,327.25423728813564 L771.728813559322,286.84745762711873" stroke="red" stroke-width="1" fill="none" />
<path d="M387.864406779661,493.93220338983065 L387.864406779661,488.8813559322035" stroke="red" stroke-width="1" fill="none" />
<path d="M387.864406779661,488.8813559322035 L387.864406779661,468.677966101695" stroke="red" stroke-width="1" fill="none" />
<path d="M458.5762711864407,478.77966101694926 L458.5762711864407,488.8813559322035" stroke="red" stroke-width="1" fill="none" />
<path d="M458.5762711864407,488.8813559322035 L458.5762711864407,534.3389830508476" stroke="red" stroke-width="1" fill="none" />
<path d="M650.5084745762712,493.93220338983065 L650.5084745762712,488.8813559322035" stroke="red" stroke-width="1" fill="none" />
<path d="M650.5084745762712,488.8813559322035 L650.5084745762712,478.77966101694926" stroke="red" stroke-width="1" fill="none" />
<path d="M721.2203389830507,468.677966101695 L721.2203389830507,488.8813559322035" stroke="red" stroke-width="1" fill="none" />
<path d="M721.2203389830507,488.8813559322035 L721.2203389830507,534.3389830508476" stroke="red" stroke-width="1" fill="none" />
</svg>