<?xml version="1.0" encoding="UTF-8"?>
<svg xmlns="http://www.w3.org/2000/svg" xmlns:xlink="http://www.w3.org/1999/xlink"
     width="1200" height="1296" viewBox="0 0 1200 1296">
<defs>
</defs>
<path d="M484.18957345971563,707.3364928909953 L484.18957345971563,729.9336492890995" stroke="yellow" stroke-width="2" fill="none" />
<path d="M487.01421800947867,659.3175355450237 L396.62559241706157,659.3175355450237" stroke="yellow" stroke-width="2" fill="none" />
<path d="M419.22274881516586,501.13744075829385 L464.4170616113744,501.13744075829385" stroke="yellow" stroke-width="2" fill="none" />
<path d="M419.22274881516586,501.13744075829385 L441.8199052132701,523.7345971563981" stroke="yellow" stroke-width="2" fill="none" />
<path d="M441.8199052132701,523.7345971563981 L464.4170616113744,501.13744075829385" stroke="yellow" stroke-width="2" fill="none" />
<path d="M407.9241706161137,501.13744075829385 L441.8199052132701,546.3317535545024" stroke="yellow" stroke-width="2" fill="none" />
<path d="M441.8199052132701,546.3317535545024 L475.7156398104265,501.13744075829385" stroke="yellow" stroke-width="2" fill="none" />
<path d="M396.62559241706157,501.13744075829385 L441.8199052132701,568.9289099526065" stroke="yellow" stroke-width="2" fill="none" />
<path d="M441.8199052132701,568.9289099526065 L487.01421800947867,501.13744075829385" stroke="yellow" stroke-width="2" fill="none" />
<path d="M385.3270142180095,501.13744075829385 L441.8199052132701,591.5260663507108" stroke="yellow" stroke-width="2" fill="none" />
<path d="M441.8199052132701,591.5260663507108 L498.31279620853076,501.13744075829385" stroke="yellow" stroke-width="2" fill="none" />
<path d="M374.02843601895734,501.13744075829385 L441.8199052132701,614.1232227488151" stroke="yellow" stroke-width="2" fill="none" />
<path d="M441.8199052132701,614.1232227488151 L509.6113744075829,501.13744075829385" stroke="yellow" stroke-width="2" fill="none" />
<path d="M509.6113744075829,320.3601895734597 L554.8056872037914,320.3601895734597" stroke="lavender" stroke-width="2" fill="none" />
<path d="M724.2843601895734,376.85308056872043 L724.2843601895734,399.4502369668246" stroke="yellow" stroke-width="2" fill="none" />
<path d="M622.5971563981043,26.59715639810429 L667.7914691943128,71.79146919431287" stroke="yellow" stroke-width="2" fill="none" />
<path d="M554.8056872037914,317.5355450236967 L509.6113744075829,317.5355450236967" stroke="yellow" stroke-width="2" fill="none" />
<path d="M554.8056872037914,314.71090047393363 L509.6113744075829,314.71090047393363" stroke="yellow" stroke-width="2" fill="none" />
<path d="M600.0,94.38862559241704 L554.8056872037914,94.38862559241704" stroke="yellow" stroke-width="2" fill="none" />
<path d="M554.8056872037914,94.38862559241704 L554.8056872037914,116.98578199052133" stroke="yellow" stroke-width="2" fill="none" />
<path d="M577.4028436018957,116.98578199052133 L600.0,116.98578199052133" stroke="yellow" stroke-width="2" fill="none" />
<path d="M600.0,116.98578199052133 L600.0,94.38862559241704" stroke="yellow" stroke-width="2" fill="none" />
<path d="M554.8056872037914,139.58293838862562 L554.8056872037914,162.1800947867299" stroke="lavender" stroke-width="2" fill="none" />
<path d="M554.8056872037914,162.1800947867299 L600.0,162.1800947867299" stroke="yellow" stroke-width="2" fill="none" />
<path d="M600.0,162.1800947867299 L600.0,139.58293838862562" stroke="yellow" stroke-width="2" fill="none" />
<path d="M600.0,139.58293838862562 L577.4028436018957,139.58293838862562" stroke="yellow" stroke-width="2" fill="none" />
<path d="M464.4170616113744,94.38862559241704 L464.4170616113744,116.98578199052133" stroke="yellow" stroke-width="2" fill="none" />
<path d="M464.4170616113744,116.98578199052133 L487.01421800947867,116.98578199052133" stroke="yellow" stroke-width="2" fill="none" />
<path d="M509.6113744075829,116.98578199052133 L509.6113744075829,94.38862559241704" stroke="lavender" stroke-width="2" fill="none" />
<path d="M509.6113744075829,94.38862559241704 L464.4170616113744,94.38862559241704" stroke="yellow" stroke-width="2" fill="none" />
<path d="M487.01421800947867,139.58293838862562 L464.4170616113744,139.58293838862562" stroke="yellow" stroke-width="2" fill="none" />
<path d="M464.4170616113744,139.58293838862562 L464.4170616113744,162.1800947867299" stroke="yellow" stroke-width="2" fill="none" />
<path d="M464.4170616113744,162.1800947867299 L509.6113744075829,162.1800947867299" stroke="yellow" stroke-width="2" fill="none" />
<path d="M509.6113744075829,162.1800947867299 L509.6113744075829,139.58293838862562" stroke="yellow" stroke-width="2" fill="none" />
<path d="M509.6113744075829,94.38862559241704 L509.6113744075829,71.79146919431287" stroke="yellow" stroke-width="2" fill="none" />
<path d="M509.6113744075829,71.79146919431287 L441.8199052132701,71.79146919431287" stroke="yellow" stroke-width="2" fill="none" />
<path d="M441.8199052132701,71.79146919431287 L441.8199052132701,184.77725118483409" stroke="yellow" stroke-width="2" fill="none" />
<path d="M441.8199052132701,184.77725118483409 L509.6113744075829,184.77725118483409" stroke="yellow" stroke-width="2" fill="none" />
<path d="M509.6113744075829,184.77725118483409 L509.6113744075829,162.1800947867299" stroke="yellow" stroke-width="2" fill="none" />
<path d="M554.8056872037914,162.1800947867299 L554.8056872037914,184.77725118483409" stroke="yellow" stroke-width="2" fill="none" />
<path d="M554.8056872037914,184.77725118483409 L622.5971563981043,184.77725118483409" stroke="yellow" stroke-width="2" fill="none" />
<path d="M622.5971563981043,184.77725118483409 L622.5971563981043,71.79146919431287" stroke="yellow" stroke-width="2" fill="none" />
<path d="M622.5971563981043,71.79146919431287 L554.8056872037914,71.79146919431287" stroke="yellow" stroke-width="2" fill="none" />
<path d="M554.8056872037914,71.79146919431287 L554.8056872037914,94.38862559241704" stroke="yellow" stroke-width="2" fill="none" />
<path d="M554.8056872037914,365.5545023696683 L509.6113744075829,365.5545023696683" stroke="yellow" stroke-width="2" fill="none" />
<path d="M438.9952606635071,187.60189573459718 L512.4360189573459,187.60189573459718" stroke="yellow" stroke-width="2" fill="none" />
<path d="M512.4360189573459,187.60189573459718 L512.4360189573459,68.96682464454977" stroke="yellow" stroke-width="2" fill="none" />
<path d="M512.4360189573459,68.96682464454977 L438.9952606635071,68.96682464454977" stroke="yellow" stroke-width="2" fill="none" />
<path d="M438.9952606635071,68.96682464454977 L438.9952606635071,187.60189573459718" stroke="yellow" stroke-width="2" fill="none" />
<path d="M551.9810426540284,187.60189573459718 L625.4218009478673,187.60189573459718" stroke="yellow" stroke-width="2" fill="none" />
<path d="M625.4218009478673,187.60189573459718 L625.4218009478673,68.96682464454977" stroke="yellow" stroke-width="2" fill="none" />
<path d="M625.4218009478673,68.96682464454977 L551.9810426540284,68.96682464454977" stroke="yellow" stroke-width="2" fill="none" />
<path d="M551.9810426540284,68.96682464454977 L551.9810426540284,187.60189573459718" stroke="yellow" stroke-width="2" fill="none" />
<path d="M673.4407582938388,66.1421800947868 L628.2464454976302,20.947867298578217" stroke="yellow" stroke-width="2" fill="none" />
<path d="M487.01421800947867,729.9336492890995 L487.01421800947867,707.3364928909953" stroke="lavender" stroke-width="2" fill="none" />
<path d="M529.3838862559242,729.9336492890995 L529.3838862559242,707.3364928909953" stroke="lavender" stroke-width="2" fill="none" />
<path d="M645.1943127962085,410.74881516587675 L645.1943127962085,365.5545023696683" stroke="yellow" stroke-width="2" fill="none" />
<path d="M803.3744075829384,614.1232227488151 L825.9715639810427,614.1232227488151" stroke="yellow" stroke-width="2" fill="none" />
<path d="M780.7772511848341,772.303317535545 L712.9857819905212,772.303317535545" stroke="yellow" stroke-width="2" fill="none" />
<path d="M803.3744075829384,583.0521327014218 L825.9715639810427,583.0521327014218" stroke="lavender" stroke-width="2" fill="none" />
<path d="M825.9715639810427,580.2274881516587 L803.3744075829384,580.2274881516587" stroke="lavender" stroke-width="2" fill="none" />
<path d="M803.3744075829384,591.5260663507108 L825.9715639810427,591.5260663507108" stroke="yellow" stroke-width="2" fill="none" />
<path d="M871.1658767772511,636.7203791469194 L871.1658767772511,659.3175355450237" stroke="yellow" stroke-width="2" fill="none" />
<path d="M871.1658767772511,727.1090047393365 L871.1658767772511,749.7061611374407" stroke="lavender" stroke-width="2" fill="none" />
<path d="M873.9905213270142,749.7061611374407 L873.9905213270142,727.1090047393365" stroke="lavender" stroke-width="2" fill="none" />
<path d="M916.3601895734596,659.3175355450237 L913.5355450236966,659.3175355450237" stroke="yellow" stroke-width="2" fill="none" />
<path d="M913.5355450236966,727.1090047393365 L916.3601895734596,727.1090047393365" stroke="yellow" stroke-width="2" fill="none" />
<path d="M622.5971563981043,410.74881516587675 L577.4028436018957,410.74881516587675" stroke="yellow" stroke-width="2" fill="none" />
<path d="M809.0236966824643,588.7014218009479 L820.3222748815165,588.7014218009479" stroke="yellow" stroke-width="2" fill="none" />
<path d="M820.3222748815165,588.7014218009479 L820.3222748815165,585.8767772511849" stroke="yellow" stroke-width="2" fill="none" />
<path d="M820.3222748815165,585.8767772511849 L809.0236966824643,585.8767772511849" stroke="yellow" stroke-width="2" fill="none" />
<path d="M809.0236966824643,585.8767772511849 L809.0236966824643,588.7014218009479" stroke="yellow" stroke-width="2" fill="none" />
<path d="M577.4028436018957,636.7203791469194 L622.5971563981043,614.1232227488151" stroke="yellow" stroke-width="2" fill="none" />
<path d="M577.4028436018957,501.13744075829385 L622.5971563981043,501.13744075829385" stroke="yellow" stroke-width="2" fill="none" />
<path d="M789.2511848341233,803.3744075829384 L814.6729857819905,803.3744075829384" stroke="yellow" stroke-width="2" fill="none" />
<path d="M712.9857819905212,777.9526066350711 L780.7772511848341,777.9526066350711" stroke="yellow" stroke-width="2" fill="none" />
<path d="M938.9573459715639,817.4976303317535 L916.3601895734596,772.303317535545" stroke="yellow" stroke-width="2" fill="none" />
<path d="M938.9573459715639,907.8862559241705 L938.9573459715639,817.4976303317535" stroke="yellow" stroke-width="2" fill="none" />
<path d="M848.568720379147,1046.2938388625591 L938.9573459715639,907.8862559241705" stroke="yellow" stroke-width="2" fill="none" />
<path d="M667.7914691943128,1068.8909952606634 L848.568720379147,1046.2938388625591" stroke="yellow" stroke-width="2" fill="none" />
<path d="M509.6113744075829,1043.4691943127962 L667.7914691943128,1068.8909952606634" stroke="yellow" stroke-width="2" fill="none" />
<path d="M944.6066350710901,749.7061611374407 L998.2748815165876,809.0236966824644" stroke="yellow" stroke-width="2" fill="none" />
<path d="M998.2748815165876,809.0236966824644 L1009.5734597156397,913.5355450236966" stroke="yellow" stroke-width="2" fill="none" />
<path d="M1009.5734597156397,913.5355450236966 L910.7109004739336,1116.909952606635" stroke="yellow" stroke-width="2" fill="none" />
<path d="M910.7109004739336,1116.909952606635 L648.0189573459716,1190.3507109004738" stroke="yellow" stroke-width="2" fill="none" />
<path d="M648.0189573459716,1190.3507109004738 L487.01421800947867,1088.6635071090047" stroke="yellow" stroke-width="2" fill="none" />
<path d="M814.6729857819905,794.9004739336492 L792.0758293838862,794.9004739336492" stroke="yellow" stroke-width="2" fill="none" />
<path d="M780.7772511848341,794.9004739336492 L766.654028436019,817.4976303317535" stroke="yellow" stroke-width="2" fill="none" />
<path d="M766.654028436019,817.4976303317535 L780.7772511848341,840.0947867298578" stroke="yellow" stroke-width="2" fill="none" />
<path d="M825.9715639810427,817.4976303317535 L814.6729857819905,803.3744075829384" stroke="yellow" stroke-width="2" fill="none" />
<path d="M712.9857819905212,794.9004739336492 L780.7772511848341,862.6919431279621" stroke="yellow" stroke-width="2" fill="none" />
<path d="M780.7772511848341,862.6919431279621 L848.568720379147,862.6919431279621" stroke="yellow" stroke-width="2" fill="none" />
<path d="M848.568720379147,862.6919431279621 L876.8151658767772,803.3744075829384" stroke="yellow" stroke-width="2" fill="none" />
<path d="M780.7772511848341,840.0947867298578 L803.3744075829384,840.0947867298578" stroke="yellow" stroke-width="2" fill="none" />
<path d="M803.3744075829384,840.0947867298578 L825.9715639810427,817.4976303317535" stroke="yellow" stroke-width="2" fill="none" />
<path d="M789.2511848341233,803.3744075829384 L800.5497630331753,817.4976303317535" stroke="yellow" stroke-width="2" fill="none" />
<path d="M800.5497630331753,817.4976303317535 L814.6729857819905,803.3744075829384" stroke="yellow" stroke-width="2" fill="none" />
<path d="M600.0,727.1090047393365 L622.5971563981043,727.1090047393365" stroke="yellow" stroke-width="2" fill="none" />
<path d="M622.5971563981043,727.1090047393365 L622.5971563981043,704.5118483412323" stroke="yellow" stroke-width="2" fill="none" />
<path d="M622.5971563981043,704.5118483412323 L600.0,704.5118483412323" stroke="yellow" stroke-width="2" fill="none" />
<path d="M600.0,704.5118483412323 L600.0,727.1090047393365" stroke="lavender" stroke-width="2" fill="none" />
<path d="M600.0,738.4075829383886 L622.5971563981043,738.4075829383886" stroke="yellow" stroke-width="2" fill="none" />
<path d="M622.5971563981043,738.4075829383886 L633.8957345971563,727.1090047393365" stroke="yellow" stroke-width="2" fill="none" />
<path d="M633.8957345971563,727.1090047393365 L633.8957345971563,704.5118483412323" stroke="yellow" stroke-width="2" fill="none" />
<path d="M633.8957345971563,704.5118483412323 L622.5971563981043,693.2132701421801" stroke="yellow" stroke-width="2" fill="none" />
<path d="M622.5971563981043,693.2132701421801 L600.0,693.2132701421801" stroke="yellow" stroke-width="2" fill="none" />
<path d="M600.0,693.2132701421801 L588.7014218009479,704.5118483412323" stroke="yellow" stroke-width="2" fill="none" />
<path d="M588.7014218009479,704.5118483412323 L588.7014218009479,727.1090047393365" stroke="yellow" stroke-width="2" fill="none" />
<path d="M588.7014218009479,727.1090047393365 L600.0,738.4075829383886" stroke="yellow" stroke-width="2" fill="none" />
<path d="M780.7772511848341,704.5118483412323 L803.3744075829384,704.5118483412323" stroke="yellow" stroke-width="2" fill="none" />
<path d="M803.3744075829384,704.5118483412323 L803.3744075829384,681.914691943128" stroke="yellow" stroke-width="2" fill="none" />
<path d="M803.3744075829384,681.914691943128 L780.7772511848341,681.914691943128" stroke="yellow" stroke-width="2" fill="none" />
<path d="M780.7772511848341,681.914691943128 L780.7772511848341,704.5118483412323" stroke="yellow" stroke-width="2" fill="none" />
<path d="M780.7772511848341,715.8104265402843 L803.3744075829384,715.8104265402843" stroke="yellow" stroke-width="2" fill="none" />
<path d="M803.3744075829384,715.8104265402843 L814.6729857819905,704.5118483412323" stroke="yellow" stroke-width="2" fill="none" />
<path d="M814.6729857819905,704.5118483412323 L814.6729857819905,681.914691943128" stroke="yellow" stroke-width="2" fill="none" />
<path d="M814.6729857819905,681.914691943128 L803.3744075829384,670.6161137440758" stroke="yellow" stroke-width="2" fill="none" />
<path d="M803.3744075829384,670.6161137440758 L780.7772511848341,670.6161137440758" stroke="yellow" stroke-width="2" fill="none" />
<path d="M780.7772511848341,670.6161137440758 L769.4786729857819,681.914691943128" stroke="yellow" stroke-width="2" fill="none" />
<path d="M769.4786729857819,681.914691943128 L769.4786729857819,704.5118483412323" stroke="yellow" stroke-width="2" fill="none" />
<path d="M769.4786729857819,704.5118483412323 L780.7772511848341,715.8104265402843" stroke="yellow" stroke-width="2" fill="none" />
<path d="M727.1090047393365,399.4502369668246 L727.1090047393365,376.85308056872043" stroke="yellow" stroke-width="2" fill="none" />
<path d="M789.2511848341233,752.5308056872038 L780.7772511848341,727.1090047393365" stroke="yellow" stroke-width="2" fill="none" />
<path d="M780.7772511848341,727.1090047393365 L758.1800947867298,715.8104265402843" stroke="yellow" stroke-width="2" fill="none" />
<path d="M758.1800947867298,715.8104265402843 L744.0568720379147,704.5118483412323" stroke="yellow" stroke-width="2" fill="none" />
<path d="M744.0568720379147,704.5118483412323 L735.5829383886255,681.914691943128" stroke="yellow" stroke-width="2" fill="none" />
<path d="M735.5829383886255,681.914691943128 L712.9857819905212,659.3175355450237" stroke="yellow" stroke-width="2" fill="none" />
<path d="M712.9857819905212,659.3175355450237 L690.388625592417,650.8436018957345" stroke="yellow" stroke-width="2" fill="none" />
<path d="M690.388625592417,650.8436018957345 L659.3175355450237,656.4928909952607" stroke="yellow" stroke-width="2" fill="none" />
<path d="M659.3175355450237,656.4928909952607 L653.6682464454976,670.6161137440758" stroke="yellow" stroke-width="2" fill="none" />
<path d="M653.6682464454976,670.6161137440758 L684.739336492891,684.739336492891" stroke="yellow" stroke-width="2" fill="none" />
<path d="M712.9857819905212,721.4597156398104 L712.9857819905212,735.5829383886255" stroke="yellow" stroke-width="2" fill="none" />
<path d="M712.9857819905212,735.5829383886255 L704.5118483412322,752.5308056872038" stroke="yellow" stroke-width="2" fill="none" />
<path d="M684.739336492891,684.739336492891 L712.9857819905212,721.4597156398104" stroke="yellow" stroke-width="2" fill="none" />
<path d="M780.7772511848341,761.0047393364929 L775.127962085308,746.8815165876777" stroke="yellow" stroke-width="2" fill="none" />
<path d="M775.127962085308,746.8815165876777 L761.0047393364928,735.5829383886255" stroke="yellow" stroke-width="2" fill="none" />
<path d="M761.0047393364928,735.5829383886255 L738.4075829383886,735.5829383886255" stroke="yellow" stroke-width="2" fill="none" />
<path d="M738.4075829383886,735.5829383886255 L721.4597156398104,744.0568720379147" stroke="yellow" stroke-width="2" fill="none" />
<path d="M721.4597156398104,744.0568720379147 L712.9857819905212,761.0047393364929" stroke="yellow" stroke-width="2" fill="none" />
<path d="M1068.8909952606634,636.7203791469194 L1068.8909952606634,933.3080568720379" stroke="yellow" stroke-width="2" fill="none" />
<path d="M1068.8909952606634,933.3080568720379 L916.3601895734596,1241.1943127962086" stroke="yellow" stroke-width="2" fill="none" />
<path d="M916.3601895734596,1241.1943127962086 L503.9620853080568,1241.1943127962086" stroke="yellow" stroke-width="2" fill="none" />
<path d="M503.9620853080568,1241.1943127962086 L427.69668246445497,1181.8767772511849" stroke="yellow" stroke-width="2" fill="none" />
<path d="M306.2369668246445,749.7061611374407 L261.042654028436,704.5118483412323" stroke="yellow" stroke-width="2" fill="none" />
<path d="M261.042654028436,704.5118483412323 L283.6398104265403,636.7203791469194" stroke="yellow" stroke-width="2" fill="none" />
<path d="M300.58767772511845,862.6919431279621 L116.98578199052133,862.6919431279621" stroke="yellow" stroke-width="2" fill="none" />
<path d="M116.98578199052133,862.6919431279621 L60.492890995260666,704.5118483412323" stroke="yellow" stroke-width="2" fill="none" />
<path d="M60.492890995260666,704.5118483412323 L150.8815165876777,546.3317535545024" stroke="yellow" stroke-width="2" fill="none" />
<path d="M150.8815165876777,546.3317535545024 L283.6398104265403,546.3317535545024" stroke="yellow" stroke-width="2" fill="none" />
<path d="M283.6398104265403,546.3317535545024 L300.58767772511845,523.7345971563981" stroke="yellow" stroke-width="2" fill="none" />
<path d="M283.6398104265403,885.2890995260664 L94.38862559241704,885.2890995260664" stroke="yellow" stroke-width="2" fill="none" />
<path d="M94.38862559241704,885.2890995260664 L26.597156398104232,704.5118483412323" stroke="yellow" stroke-width="2" fill="none" />
<path d="M26.597156398104232,704.5118483412323 L139.58293838862556,501.13744075829385" stroke="yellow" stroke-width="2" fill="none" />
<path d="M139.58293838862556,501.13744075829385 L283.6398104265403,501.13744075829385" stroke="yellow" stroke-width="2" fill="none" />
<path d="M283.6398104265403,501.13744075829385 L300.58767772511845,478.54028436018956" stroke="yellow" stroke-width="2" fill="none" />
<path d="M300.58767772511845,907.8862559241705 L283.6398104265403,885.2890995260664" stroke="yellow" stroke-width="2" fill="none" />
<path d="M419.22274881516586,704.5118483412323 L396.62559241706157,681.914691943128" stroke="yellow" stroke-width="2" fill="none" />
<path d="M306.2369668246445,681.914691943128 L306.2369668246445,749.7061611374407" stroke="yellow" stroke-width="2" fill="none" />
<path d="M283.6398104265403,636.7203791469194 L306.2369668246445,636.7203791469194" stroke="yellow" stroke-width="2" fill="none" />
<path d="M306.2369668246445,681.914691943128 L396.62559241706157,681.914691943128" stroke="red" stroke-width="2" fill="none" />
<path d="M441.8199052132701,704.5118483412323 L419.22274881516586,704.5118483412323" stroke="red" stroke-width="2" fill="none" />
<path d="M487.01421800947867,681.914691943128 L441.8199052132701,704.5118483412323" stroke="red" stroke-width="2" fill="none" />
<path d="M441.8199052132701,729.9336492890995 L441.8199052132701,707.3364928909953" stroke="lavender" stroke-width="2" fill="none" />
<path d="M441.8199052132701,707.3364928909953 L484.18957345971563,707.3364928909953" stroke="red" stroke-width="2" fill="none" />
<path d="M484.18957345971563,729.9336492890995 L441.8199052132701,729.9336492890995" stroke="red" stroke-width="2" fill="none" />
<path d="M487.01421800947867,659.3175355450237 L487.01421800947867,681.914691943128" stroke="red" stroke-width="2" fill="none" />
<path d="M374.02843601895734,659.3175355450237 L328.83412322274876,614.1232227488151" stroke="red" stroke-width="2" fill="none" />
<path d="M328.83412322274876,614.1232227488151 L351.43127962085305,501.13744075829385" stroke="red" stroke-width="2" fill="none" />
<path d="M509.6113744075829,501.13744075829385 L532.2085308056871,501.13744075829385" stroke="red" stroke-width="2" fill="none" />
<path d="M532.2085308056871,501.13744075829385 L554.8056872037914,614.1232227488151" stroke="red" stroke-width="2" fill="none" />
<path d="M554.8056872037914,614.1232227488151 L509.6113744075829,659.3175355450237" stroke="red" stroke-width="2" fill="none" />
<path d="M509.6113744075829,659.3175355450237 L487.01421800947867,659.3175355450237" stroke="red" stroke-width="2" fill="none" />
<path d="M396.62559241706157,659.3175355450237 L374.02843601895734,659.3175355450237" stroke="red" stroke-width="2" fill="none" />
<path d="M351.43127962085305,501.13744075829385 L374.02843601895734,501.13744075829385" stroke="red" stroke-width="2" fill="none" />
<path d="M374.02843601895734,501.13744075829385 L385.3270142180095,501.13744075829385" stroke="red" stroke-width="2" fill="none" />
<path d="M385.3270142180095,501.13744075829385 L396.62559241706157,501.13744075829385" stroke="red" stroke-width="2" fill="none" />
<path d="M396.62559241706157,501.13744075829385 L407.9241706161137,501.13744075829385" stroke="red" stroke-width="2" fill="none" />
<path d="M407.9241706161137,501.13744075829385 L419.22274881516586,501.13744075829385" stroke="red" stroke-width="2" fill="none" />
<path d="M464.4170616113744,501.13744075829385 L475.7156398104265,501.13744075829385" stroke="red" stroke-width="2" fill="none" />
<path d="M475.7156398104265,501.13744075829385 L487.01421800947867,501.13744075829385" stroke="red" stroke-width="2" fill="none" />
<path d="M487.01421800947867,501.13744075829385 L498.31279620853076,501.13744075829385" stroke="red" stroke-width="2" fill="none" />
<path d="M498.31279620853076,501.13744075829385 L509.6113744075829,501.13744075829385" stroke="red" stroke-width="2" fill="none" />
<path d="M487.01421800947867,365.5545023696683 L509.6113744075829,365.5545023696683" stroke="red" stroke-width="2" fill="none" />
<path d="M487.01421800947867,614.1232227488151 L509.6113744075829,614.1232227488151" stroke="red" stroke-width="2" fill="none" />
<path d="M487.01421800947867,591.5260663507108 L487.01421800947867,614.1232227488151" stroke="red" stroke-width="2" fill="none" />
<path d="M509.6113744075829,591.5260663507108 L487.01421800947867,591.5260663507108" stroke="red" stroke-width="2" fill="none" />
<path d="M509.6113744075829,614.1232227488151 L509.6113744075829,591.5260663507108" stroke="red" stroke-width="2" fill="none" />
<path d="M374.02843601895734,614.1232227488151 L396.62559241706157,614.1232227488151" stroke="red" stroke-width="2" fill="none" />
<path d="M374.02843601895734,591.5260663507108 L374.02843601895734,614.1232227488151" stroke="red" stroke-width="2" fill="none" />
<path d="M396.62559241706157,591.5260663507108 L374.02843601895734,591.5260663507108" stroke="red" stroke-width="2" fill="none" />
<path d="M396.62559241706157,614.1232227488151 L396.62559241706157,591.5260663507108" stroke="red" stroke-width="2" fill="none" />
<path d="M396.62559241706157,681.914691943128 L396.62559241706157,659.3175355450237" stroke="red" stroke-width="2" fill="none" />
<path d="M577.4028436018957,410.74881516587675 L554.8056872037914,410.74881516587675" stroke="red" stroke-width="2" fill="none" />
<path d="M622.5971563981043,365.5545023696683 L645.1943127962085,365.5545023696683" stroke="red" stroke-width="2" fill="none" />
<path d="M667.7914691943128,342.957345971564 L690.388625592417,342.957345971564" stroke="red" stroke-width="2" fill="none" />
<path d="M690.388625592417,342.957345971564 L724.2843601895734,376.85308056872043" stroke="red" stroke-width="2" fill="none" />
<path d="M724.2843601895734,399.4502369668246 L690.388625592417,433.34597156398104" stroke="red" stroke-width="2" fill="none" />
<path d="M690.388625592417,433.34597156398104 L667.7914691943128,433.34597156398104" stroke="red" stroke-width="2" fill="none" />
<path d="M645.1943127962085,410.74881516587675 L622.5971563981043,410.74881516587675" stroke="red" stroke-width="2" fill="none" />
<path d="M509.6113744075829,320.3601895734597 L509.6113744075829,317.5355450236967" stroke="red" stroke-width="2" fill="none" />
<path d="M509.6113744075829,317.5355450236967 L509.6113744075829,314.71090047393363" stroke="red" stroke-width="2" fill="none" />
<path d="M509.6113744075829,314.71090047393363 L436.1706161137441,314.71090047393363" stroke="red" stroke-width="2" fill="none" />
<path d="M436.1706161137441,314.71090047393363 L396.62559241706157,229.97156398104266" stroke="red" stroke-width="2" fill="none" />
<path d="M396.62559241706157,229.97156398104266 L396.62559241706157,71.79146919431287" stroke="red" stroke-width="2" fill="none" />
<path d="M396.62559241706157,71.79146919431287 L441.8199052132701,26.59715639810429" stroke="red" stroke-width="2" fill="none" />
<path d="M441.8199052132701,26.59715639810429 L622.5971563981043,26.59715639810429" stroke="red" stroke-width="2" fill="none" />
<path d="M667.7914691943128,71.79146919431287 L667.7914691943128,229.97156398104266" stroke="red" stroke-width="2" fill="none" />
<path d="M667.7914691943128,229.97156398104266 L628.2464454976302,314.71090047393363" stroke="red" stroke-width="2" fill="none" />
<path d="M628.2464454976302,314.71090047393363 L554.8056872037914,314.71090047393363" stroke="red" stroke-width="2" fill="none" />
<path d="M554.8056872037914,314.71090047393363 L554.8056872037914,317.5355450236967" stroke="red" stroke-width="2" fill="none" />
<path d="M554.8056872037914,317.5355450236967 L554.8056872037914,320.3601895734597" stroke="red" stroke-width="2" fill="none" />
<path d="M554.8056872037914,116.98578199052133 L554.8056872037914,139.58293838862562" stroke="red" stroke-width="2" fill="none" />
<path d="M577.4028436018957,139.58293838862562 L577.4028436018957,116.98578199052133" stroke="red" stroke-width="2" fill="none" />
<path d="M577.4028436018957,116.98578199052133 L554.8056872037914,116.98578199052133" stroke="red" stroke-width="2" fill="none" />
<path d="M554.8056872037914,139.58293838862562 L577.4028436018957,139.58293838862562" stroke="red" stroke-width="2" fill="none" />
<path d="M487.01421800947867,116.98578199052133 L487.01421800947867,139.58293838862562" stroke="red" stroke-width="2" fill="none" />
<path d="M509.6113744075829,139.58293838862562 L509.6113744075829,116.98578199052133" stroke="red" stroke-width="2" fill="none" />
<path d="M509.6113744075829,116.98578199052133 L487.01421800947867,116.98578199052133" stroke="red" stroke-width="2" fill="none" />
<path d="M487.01421800947867,139.58293838862562 L509.6113744075829,139.58293838862562" stroke="red" stroke-width="2" fill="none" />
<path d="M529.3838862559242,707.3364928909953 L577.4028436018957,636.7203791469194" stroke="red" stroke-width="2" fill="none" />
<path d="M622.5971563981043,26.59715639810429 L628.2464454976302,20.947867298578217" stroke="red" stroke-width="2" fill="none" />
<path d="M673.4407582938388,66.1421800947868 L667.7914691943128,71.79146919431287" stroke="red" stroke-width="2" fill="none" />
<path d="M628.2464454976302,20.947867298578217 L628.2464454976302,4.0" stroke="red" stroke-width="2" fill="none" />
<path d="M628.2464454976302,4.0 L690.388625592417,4.0" stroke="red" stroke-width="2" fill="none" />
<path d="M690.388625592417,4.0 L690.388625592417,66.1421800947868" stroke="red" stroke-width="2" fill="none" />
<path d="M690.388625592417,66.1421800947868 L673.4407582938388,66.1421800947868" stroke="red" stroke-width="2" fill="none" />
<path d="M487.01421800947867,707.3364928909953 L529.3838862559242,707.3364928909953" stroke="red" stroke-width="2" fill="none" />
<path d="M484.18957345971563,707.3364928909953 L487.01421800947867,707.3364928909953" stroke="red" stroke-width="2" fill="none" />
<path d="M487.01421800947867,729.9336492890995 L484.18957345971563,729.9336492890995" stroke="red" stroke-width="2" fill="none" />
<path d="M529.3838862559242,729.9336492890995 L487.01421800947867,729.9336492890995" stroke="red" stroke-width="2" fill="none" />
<path d="M622.5971563981043,614.1232227488151 L803.3744075829384,614.1232227488151" stroke="red" stroke-width="2" fill="none" />
<path d="M803.3744075829384,614.1232227488151 L803.3744075829384,591.5260663507108" stroke="red" stroke-width="2" fill="none" />
<path d="M803.3744075829384,591.5260663507108 L803.3744075829384,583.0521327014218" stroke="red" stroke-width="2" fill="none" />
<path d="M803.3744075829384,583.0521327014218 L803.3744075829384,580.2274881516587" stroke="red" stroke-width="2" fill="none" />
<path d="M825.9715639810427,580.2274881516587 L825.9715639810427,583.0521327014218" stroke="red" stroke-width="2" fill="none" />
<path d="M825.9715639810427,583.0521327014218 L825.9715639810427,591.5260663507108" stroke="red" stroke-width="2" fill="none" />
<path d="M825.9715639810427,591.5260663507108 L825.9715639810427,614.1232227488151" stroke="red" stroke-width="2" fill="none" />
<path d="M825.9715639810427,614.1232227488151 L871.1658767772511,636.7203791469194" stroke="red" stroke-width="2" fill="none" />
<path d="M871.1658767772511,636.7203791469194 L916.3601895734596,636.7203791469194" stroke="red" stroke-width="2" fill="none" />
<path d="M916.3601895734596,636.7203791469194 L916.3601895734596,659.3175355450237" stroke="red" stroke-width="2" fill="none" />
<path d="M913.5355450236966,659.3175355450237 L871.1658767772511,659.3175355450237" stroke="red" stroke-width="2" fill="none" />
<path d="M871.1658767772511,659.3175355450237 L871.1658767772511,727.1090047393365" stroke="red" stroke-width="2" fill="none" />
<path d="M873.9905213270142,727.1090047393365 L913.5355450236966,727.1090047393365" stroke="red" stroke-width="2" fill="none" />
<path d="M916.3601895734596,727.1090047393365 L916.3601895734596,749.7061611374407" stroke="red" stroke-width="2" fill="none" />
<path d="M916.3601895734596,749.7061611374407 L873.9905213270142,749.7061611374407" stroke="red" stroke-width="2" fill="none" />
<path d="M871.1658767772511,749.7061611374407 L848.568720379147,794.9004739336492" stroke="red" stroke-width="2" fill="none" />
<path d="M848.568720379147,794.9004739336492 L814.6729857819905,794.9004739336492" stroke="red" stroke-width="2" fill="none" />
<path d="M792.0758293838862,794.9004739336492 L792.0758293838862,780.7772511848341" stroke="red" stroke-width="2" fill="none" />
<path d="M792.0758293838862,780.7772511848341 L800.5497630331753,780.7772511848341" stroke="red" stroke-width="2" fill="none" />
<path d="M800.5497630331753,780.7772511848341 L809.0236966824643,772.303317535545" stroke="red" stroke-width="2" fill="none" />
<path d="M789.2511848341233,752.5308056872038 L780.7772511848341,761.0047393364929" stroke="red" stroke-width="2" fill="none" />
<path d="M780.7772511848341,761.0047393364929 L780.7772511848341,772.303317535545" stroke="red" stroke-width="2" fill="none" />
<path d="M712.9857819905212,772.303317535545 L712.9857819905212,761.0047393364929" stroke="red" stroke-width="2" fill="none" />
<path d="M712.9857819905212,761.0047393364929 L704.5118483412322,752.5308056872038" stroke="red" stroke-width="2" fill="none" />
<path d="M704.5118483412322,752.5308056872038 L693.21327014218,752.5308056872038" stroke="red" stroke-width="2" fill="none" />
<path d="M693.21327014218,780.7772511848341 L701.6872037914692,780.7772511848341" stroke="red" stroke-width="2" fill="none" />
<path d="M701.6872037914692,780.7772511848341 L701.6872037914692,794.9004739336492" stroke="red" stroke-width="2" fill="none" />
<path d="M701.6872037914692,794.9004739336492 L574.5781990521326,794.9004739336492" stroke="red" stroke-width="2" fill="none" />
<path d="M574.5781990521326,794.9004739336492 L529.3838862559242,729.9336492890995" stroke="red" stroke-width="2" fill="none" />
<path d="M803.3744075829384,580.2274881516587 L780.7772511848341,568.9289099526065" stroke="red" stroke-width="2" fill="none" />
<path d="M780.7772511848341,568.9289099526065 L780.7772511848341,546.3317535545024" stroke="red" stroke-width="2" fill="none" />
<path d="M780.7772511848341,546.3317535545024 L803.3744075829384,523.7345971563981" stroke="red" stroke-width="2" fill="none" />
<path d="M803.3744075829384,523.7345971563981 L825.9715639810427,523.7345971563981" stroke="lavender" stroke-width="2" fill="none" />
<path d="M825.9715639810427,523.7345971563981 L848.568720379147,546.3317535545024" stroke="red" stroke-width="2" fill="none" />
<path d="M848.568720379147,546.3317535545024 L848.568720379147,568.9289099526065" stroke="red" stroke-width="2" fill="none" />
<path d="M848.568720379147,568.9289099526065 L825.9715639810427,580.2274881516587" stroke="red" stroke-width="2" fill="none" />
<path d="M871.1658767772511,727.1090047393365 L873.9905213270142,727.1090047393365" stroke="red" stroke-width="2" fill="none" />
<path d="M873.9905213270142,749.7061611374407 L871.1658767772511,749.7061611374407" stroke="red" stroke-width="2" fill="none" />
<path d="M916.3601895734596,659.3175355450237 L916.3601895734596,727.1090047393365" stroke="red" stroke-width="2" fill="none" />
<path d="M913.5355450236966,727.1090047393365 L913.5355450236966,659.3175355450237" stroke="red" stroke-width="2" fill="none" />
<path d="M684.739336492891,772.303317535545 L693.21327014218,780.7772511848341" stroke="red" stroke-width="2" fill="none" />
<path d="M684.739336492891,761.0047393364929 L684.739336492891,772.303317535545" stroke="red" stroke-width="2" fill="none" />
<path d="M693.21327014218,752.5308056872038 L684.739336492891,761.0047393364929" stroke="red" stroke-width="2" fill="none" />
<path d="M809.0236966824643,772.303317535545 L809.0236966824643,761.0047393364929" stroke="red" stroke-width="2" fill="none" />
<path d="M809.0236966824643,761.0047393364929 L800.5497630331753,752.5308056872038" stroke="red" stroke-width="2" fill="none" />
<path d="M800.5497630331753,752.5308056872038 L789.2511848341233,752.5308056872038" stroke="red" stroke-width="2" fill="none" />
<path d="M780.7772511848341,772.303317535545 L780.7772511848341,777.9526066350711" stroke="red" stroke-width="2" fill="none" />
<path d="M780.7772511848341,777.9526066350711 L780.7772511848341,794.9004739336492" stroke="red" stroke-width="2" fill="none" />
<path d="M780.7772511848341,794.9004739336492 L789.2511848341233,803.3744075829384" stroke="red" stroke-width="2" fill="none" />
<path d="M712.9857819905212,777.9526066350711 L712.9857819905212,772.303317535545" stroke="red" stroke-width="2" fill="none" />
<path d="M712.9857819905212,794.9004739336492 L712.9857819905212,777.9526066350711" stroke="red" stroke-width="2" fill="none" />
<path d="M704.5118483412322,803.3744075829384 L712.9857819905212,794.9004739336492" stroke="red" stroke-width="2" fill="none" />
<path d="M566.1042654028436,803.3744075829384 L704.5118483412322,803.3744075829384" stroke="red" stroke-width="2" fill="none" />
<path d="M509.6113744075829,1292.0379146919431 L280.8151658767772,1218.5971563981043" stroke="red" stroke-width="2" fill="none" />
<path d="M986.9763033175354,1292.0379146919431 L509.6113744075829,1292.0379146919431" stroke="red" stroke-width="2" fill="none" />
<path d="M1196.0,916.3601895734597 L986.9763033175354,1292.0379146919431" stroke="red" stroke-width="2" fill="none" />
<path d="M1196.0,492.66350710900474 L1196.0,916.3601895734597" stroke="red" stroke-width="2" fill="none" />
<path d="M1068.8909952606634,410.74881516587675 L1196.0,492.66350710900474" stroke="red" stroke-width="2" fill="none" />
<path d="M1068.8909952606634,636.7203791469194 L1068.8909952606634,410.74881516587675" stroke="red" stroke-width="2" fill="none" />
<path d="M944.6066350710901,749.7061611374407 L1068.8909952606634,636.7203791469194" stroke="red" stroke-width="2" fill="none" />
<path d="M916.3601895734596,772.303317535545 L944.6066350710901,749.7061611374407" stroke="red" stroke-width="2" fill="none" />
<path d="M876.8151658767772,803.3744075829384 L916.3601895734596,772.303317535545" stroke="red" stroke-width="2" fill="none" />
<path d="M487.01421800947867,1088.6635071090047 L509.6113744075829,1043.4691943127962" stroke="red" stroke-width="2" fill="none" />
<path d="M509.6113744075829,862.6919431279621 L566.1042654028436,803.3744075829384" stroke="red" stroke-width="2" fill="none" />
<path d="M509.6113744075829,1043.4691943127962 L509.6113744075829,862.6919431279621" stroke="red" stroke-width="2" fill="none" />
<path d="M280.8151658767772,1179.0521327014217 L427.69668246445497,1181.8767772511849" stroke="red" stroke-width="2" fill="none" />
<path d="M280.8151658767772,1218.5971563981043 L280.8151658767772,1179.0521327014217" stroke="red" stroke-width="2" fill="none" />
<path d="M814.6729857819905,803.3744075829384 L876.8151658767772,803.3744075829384" stroke="red" stroke-width="2" fill="none" />
<path d="M789.2511848341233,803.3744075829384 L792.0758293838862,794.9004739336492" stroke="red" stroke-width="2" fill="none" />
<path d="M814.6729857819905,794.9004739336492 L814.6729857819905,803.3744075829384" stroke="red" stroke-width="2" fill="none" />
<path d="M427.69668246445497,1181.8767772511849 L487.01421800947867,1088.6635071090047" stroke="red" stroke-width="2" fill="none" />
<path d="M724.2843601895734,376.85308056872043 L727.1090047393365,376.85308056872043" stroke="red" stroke-width="2" fill="none" />
<path d="M727.1090047393365,376.85308056872043 L735.5829383886255,354.25592417061614" stroke="red" stroke-width="2" fill="none" />
<path d="M735.5829383886255,354.25592417061614 L758.1800947867298,354.25592417061614" stroke="red" stroke-width="2" fill="none" />
<path d="M758.1800947867298,354.25592417061614 L789.2511848341233,388.15165876777246" stroke="red" stroke-width="2" fill="none" />
<path d="M789.2511848341233,388.15165876777246 L758.1800947867298,422.0473933649289" stroke="red" stroke-width="2" fill="none" />
<path d="M758.1800947867298,422.0473933649289 L735.5829383886255,422.0473933649289" stroke="red" stroke-width="2" fill="none" />
<path d="M735.5829383886255,422.0473933649289 L727.1090047393365,399.4502369668246" stroke="red" stroke-width="2" fill="none" />
<path d="M727.1090047393365,399.4502369668246 L724.2843601895734,399.4502369668246" stroke="red" stroke-width="2" fill="none" />
<path d="M487.01421800947867,410.74881516587675 L464.4170616113744,410.74881516587675" stroke="red" stroke-width="2" fill="none" />
<path d="M464.4170616113744,410.74881516587675 L464.4170616113744,433.34597156398104" stroke="red" stroke-width="2" fill="none" />
<path d="M464.4170616113744,433.34597156398104 L464.4170616113744,455.9431279620853" stroke="red" stroke-width="2" fill="none" />
<path d="M464.4170616113744,455.9431279620853 L464.4170616113744,478.54028436018956" stroke="red" stroke-width="2" fill="none" />
<path d="M419.22274881516586,478.54028436018956 L419.22274881516586,455.9431279620853" stroke="red" stroke-width="2" fill="none" />
<path d="M419.22274881516586,455.9431279620853 L419.22274881516586,433.34597156398104" stroke="red" stroke-width="2" fill="none" />
<path d="M419.22274881516586,433.34597156398104 L419.22274881516586,410.74881516587675" stroke="red" stroke-width="2" fill="none" />
<path d="M419.22274881516586,410.74881516587675 L419.22274881516586,388.15165876777246" stroke="red" stroke-width="2" fill="none" />
<path d="M419.22274881516586,388.15165876777246 L419.22274881516586,365.5545023696683" stroke="red" stroke-width="2" fill="none" />
<path d="M419.22274881516586,365.5545023696683 L441.8199052132701,365.5545023696683" stroke="red" stroke-width="2" fill="none" />
<path d="M441.8199052132701,365.5545023696683 L464.4170616113744,365.5545023696683" stroke="red" stroke-width="2" fill="none" />
<path d="M464.4170616113744,365.5545023696683 L487.01421800947867,365.5545023696683" stroke="red" stroke-width="2" fill="none" />
<path d="M600.0,365.5545023696683 L622.5971563981043,365.5545023696683" stroke="red" stroke-width="2" fill="none" />
<path d="M577.4028436018957,365.5545023696683 L600.0,365.5545023696683" stroke="red" stroke-width="2" fill="none" />
<path d="M554.8056872037914,365.5545023696683 L577.4028436018957,365.5545023696683" stroke="red" stroke-width="2" fill="none" />
<path d="M554.8056872037914,410.74881516587675 L532.2085308056871,410.74881516587675" stroke="red" stroke-width="2" fill="none" />
<path d="M532.2085308056871,410.74881516587675 L509.6113744075829,410.74881516587675" stroke="red" stroke-width="2" fill="none" />
<path d="M509.6113744075829,410.74881516587675 L487.01421800947867,410.74881516587675" stroke="red" stroke-width="2" fill="none" />
<path d="M509.6113744075829,365.5545023696683 L509.6113744075829,342.957345971564" stroke="red" stroke-width="2" fill="none" />
<path d="M509.6113744075829,342.957345971564 L509.6113744075829,320.3601895734597" stroke="red" stroke-width="2" fill="none" />
<path d="M554.8056872037914,320.3601895734597 L554.8056872037914,342.957345971564" stroke="red" stroke-width="2" fill="none" />
<path d="M554.8056872037914,342.957345971564 L554.8056872037914,365.5545023696683" stroke="red" stroke-width="2" fill="none" />
<path d="M622.5971563981043,410.74881516587675 L622.5971563981043,433.34597156398104" stroke="red" stroke-width="2" fill="none" />
<path d="M622.5971563981043,433.34597156398104 L622.5971563981043,455.9431279620853" stroke="red" stroke-width="2" fill="none" />
<path d="M622.5971563981043,455.9431279620853 L622.5971563981043,478.54028436018956" stroke="red" stroke-width="2" fill="none" />
<path d="M622.5971563981043,478.54028436018956 L622.5971563981043,501.13744075829385" stroke="red" stroke-width="2" fill="none" />
<path d="M622.5971563981043,501.13744075829385 L622.5971563981043,523.7345971563981" stroke="red" stroke-width="2" fill="none" />
<path d="M622.5971563981043,523.7345971563981 L622.5971563981043,546.3317535545024" stroke="red" stroke-width="2" fill="none" />
<path d="M622.5971563981043,546.3317535545024 L622.5971563981043,568.9289099526065" stroke="red" stroke-width="2" fill="none" />
<path d="M622.5971563981043,568.9289099526065 L622.5971563981043,591.5260663507108" stroke="red" stroke-width="2" fill="none" />
<path d="M577.4028436018957,614.1232227488151 L577.4028436018957,591.5260663507108" stroke="red" stroke-width="2" fill="none" />
<path d="M577.4028436018957,591.5260663507108 L577.4028436018957,568.9289099526065" stroke="red" stroke-width="2" fill="none" />
<path d="M577.4028436018957,568.9289099526065 L577.4028436018957,546.3317535545024" stroke="red" stroke-width="2" fill="none" />
<path d="M577.4028436018957,546.3317535545024 L577.4028436018957,523.7345971563981" stroke="red" stroke-width="2" fill="none" />
<path d="M577.4028436018957,523.7345971563981 L577.4028436018957,501.13744075829385" stroke="red" stroke-width="2" fill="none" />
<path d="M577.4028436018957,501.13744075829385 L577.4028436018957,478.54028436018956" stroke="red" stroke-width="2" fill="none" />
<path d="M577.4028436018957,478.54028436018956 L577.4028436018957,453.1184834123223" stroke="red" stroke-width="2" fill="none" />
<path d="M577.4028436018957,453.1184834123223 L577.4028436018957,433.34597156398104" stroke="red" stroke-width="2" fill="none" />
<path d="M577.4028436018957,433.34597156398104 L577.4028436018957,410.74881516587675" stroke="red" stroke-width="2" fill="none" />
<path d="M419.22274881516586,704.5118483412323 L374.02843601895734,749.7061611374407" stroke="red" stroke-width="2" fill="none" />
<path d="M374.02843601895734,749.7061611374407 L306.2369668246445,749.7061611374407" stroke="red" stroke-width="2" fill="none" />
<path d="M306.2369668246445,749.7061611374407 L300.58767772511845,862.6919431279621" stroke="red" stroke-width="2" fill="none" />
<path d="M300.58767772511845,862.6919431279621 L300.58767772511845,907.8862559241705" stroke="red" stroke-width="2" fill="none" />
<path d="M4.0,478.54028436018956 L300.58767772511845,478.54028436018956" stroke="red" stroke-width="2" fill="none" />
<path d="M300.58767772511845,478.54028436018956 L300.58767772511845,523.7345971563981" stroke="red" stroke-width="2" fill="none" />
<path d="M300.58767772511845,523.7345971563981 L306.2369668246445,636.7203791469194" stroke="red" stroke-width="2" fill="none" />
<path d="M300.58767772511845,907.8862559241705 L4.0,907.8862559241705" stroke="red" stroke-width="2" fill="none" />
<path d="M4.0,907.8862559241705 L4.0,478.54028436018956" stroke="red" stroke-width="2" fill="none" />
<path d="M419.22274881516586,501.13744075829385 L419.22274881516586,495.4881516587678" stroke="red" stroke-width="2" fill="none" />
<path d="M419.22274881516586,495.4881516587678 L419.22274881516586,478.54028436018956" stroke="red" stroke-width="2" fill="none" />
<path d="M464.4170616113744,478.54028436018956 L464.4170616113744,495.4881516587678" stroke="red" stroke-width="2" fill="none" />
<path d="M464.4170616113744,495.4881516587678 L464.4170616113744,501.13744075829385" stroke="red" stroke-width="2" fill="none" />
<path d="M577.4028436018957,636.7203791469194 L577.4028436018957,631.0710900473933" stroke="red" stroke-width="2" fill="none" />
<path d="M577.4028436018957,631.0710900473933 L577.4028436018957,614.1232227488151" stroke="red" stroke-width="2" fill="none" />
<path d="M622.5971563981043,591.5260663507108 L622.5971563981043,608.4739336492892" stroke="red" stroke-width="2" fill="none" />
<path d="M622.5971563981043,608.4739336492892 L622.5971563981043,614.1232227488151" stroke="red" stroke-width="2" fill="none" />
<path d="M645.1943127962085,365.5545023696683 L653.6682464454976,357.0805687203791" stroke="red" stroke-width="2" fill="none" />
<path d="M653.6682464454976,357.0805687203791 L667.7914691943128,342.957345971564" stroke="red" stroke-width="2" fill="none" />
<path d="M667.7914691943128,433.34597156398104 L653.6682464454976,419.2227488151659" stroke="red" stroke-width="2" fill="none" />
<path d="M653.6682464454976,419.2227488151659 L645.1943127962085,410.74881516587675" stroke="red" stroke-width="2" fill="none" />
<path d="M306.2369668246445,636.7203791469194 L306.2369668246445,681.914691943128" stroke="red" stroke-width="2" fill="none" />
</svg>