<?xml version="1.0" encoding="UTF-8"?>
<svg xmlns="http://www.w3.org/2000/svg" xmlns:xlink="http://www.w3.org/1999/xlink"
     width="1200" height="800" viewBox="0 0 1200 800">
<defs>
</defs>
<path d="M182.95978552278825,269.24396782841814 L208.52546916890083,269.24396782841814" stroke="yellow" stroke-width="1" fill="none" />
<path d="M218.1126005361931,294.80965147453094 L189.3512064343164,294.80965147453094" stroke="yellow" stroke-width="1" fill="none" />
<path d="M285.22252010723867,294.80965147453094 L275.6353887399464,294.80965147453094" stroke="yellow" stroke-width="1" fill="none" />
<path d="M275.6353887399464,294.80965147453094 L266.04825737265423,294.80965147453094" stroke="yellow" stroke-width="1" fill="none" />
<path d="M266.04825737265423,294.80965147453094 L256.46112600536196,294.80965147453094" stroke="yellow" stroke-width="1" fill="none" />
<path d="M256.46112600536196,294.80965147453094 L246.8739946380697,294.80965147453094" stroke="yellow" stroke-width="1" fill="none" />
<path d="M246.8739946380697,294.80965147453094 L237.28686327077753,294.80965147453094" stroke="yellow" stroke-width="1" fill="none" />
<path d="M237.28686327077753,294.80965147453094 L227.69973190348526,294.80965147453094" stroke="yellow" stroke-width="1" fill="none" />
<path d="M227.69973190348526,294.80965147453094 L218.1126005361931,294.80965147453094" stroke="yellow" stroke-width="1" fill="none" />
<path d="M218.1126005361931,269.24396782841814 L218.1126005361931,294.80965147453094" stroke="yellow" stroke-width="1" fill="none" />
<path d="M227.69973190348526,269.24396782841814 L227.69973190348526,294.80965147453094" stroke="yellow" stroke-width="1" fill="none" />
<path d="M237.28686327077753,269.24396782841814 L237.28686327077753,294.80965147453094" stroke="yellow" stroke-width="1" fill="none" />
<path d="M246.8739946380697,269.24396782841814 L246.8739946380697,294.80965147453094" stroke="yellow" stroke-width="1" fill="none" />
<path d="M256.46112600536196,269.24396782841814 L256.46112600536196,294.80965147453094" stroke="yellow" stroke-width="1" fill="none" />
<path d="M266.04825737265423,269.24396782841814 L266.04825737265423,294.80965147453094" stroke="yellow" stroke-width="1" fill="none" />
<path d="M275.6353887399464,269.24396782841814 L275.6353887399464,294.80965147453094" stroke="yellow" stroke-width="1" fill="none" />
<path d="M285.22252010723867,269.24396782841814 L285.22252010723867,294.80965147453094" stroke="yellow" stroke-width="1" fill="none" />
<path d="M208.52546916890083,262.8525469168901 L182.95978552278825,262.8525469168901" stroke="yellow" stroke-width="1" fill="none" />
<path d="M189.3512064343164,294.80965147453094 L182.95978552278825,288.4182305630027" stroke="yellow" stroke-width="1" fill="none" />
<path d="M278.8310991957105,192.5469168900804 L278.8310991957105,218.11260053619299" stroke="yellow" stroke-width="1" fill="none" />
<path d="M285.22252010723867,218.11260053619299 L285.22252010723867,192.5469168900804" stroke="yellow" stroke-width="1" fill="none" />
<path d="M195.74262734584454,122.24128686327072 L214.91689008042897,122.24128686327072" stroke="lavender" stroke-width="1" fill="none" />
<path d="M214.91689008042897,115.84986595174269 L195.74262734584454,115.84986595174269" stroke="yellow" stroke-width="1" fill="none" />
<path d="M195.74262734584454,115.84986595174269 L195.74262734584454,64.71849865951754" stroke="yellow" stroke-width="1" fill="none" />
<path d="M214.91689008042897,64.71849865951754 L214.91689008042897,115.84986595174269" stroke="yellow" stroke-width="1" fill="none" />
<path d="M195.74262734584454,64.71849865951754 L214.91689008042897,64.71849865951754" stroke="yellow" stroke-width="1" fill="none" />
<path d="M189.3512064343164,138.21983914209113 L195.74262734584454,122.24128686327072" stroke="yellow" stroke-width="1" fill="none" />
<path d="M214.91689008042897,122.24128686327072 L221.30831099195711,138.21983914209113" stroke="yellow" stroke-width="1" fill="none" />
<path d="M192.5469168900804,147.8069705093833 L189.3512064343164,138.21983914209113" stroke="yellow" stroke-width="1" fill="none" />
<path d="M221.30831099195711,138.21983914209113 L218.1126005361931,147.8069705093833" stroke="yellow" stroke-width="1" fill="none" />
<path d="M218.1126005361931,147.8069705093833 L208.52546916890083,154.19839142091155" stroke="yellow" stroke-width="1" fill="none" />
<path d="M208.52546916890083,154.19839142091155 L202.13404825737268,154.19839142091155" stroke="yellow" stroke-width="1" fill="none" />
<path d="M202.13404825737268,154.19839142091155 L192.5469168900804,147.8069705093833" stroke="yellow" stroke-width="1" fill="none" />
<path d="M224.50402144772124,122.24128686327072 L230.8954423592494,138.21983914209113" stroke="yellow" stroke-width="1" fill="none" />
<path d="M230.8954423592494,138.21983914209113 L227.69973190348526,151.00268096514742" stroke="yellow" stroke-width="1" fill="none" />
<path d="M227.69973190348526,151.00268096514742 L211.72117962466496,163.7855227882037" stroke="yellow" stroke-width="1" fill="none" />
<path d="M211.72117962466496,163.7855227882037 L198.93833780160855,163.7855227882037" stroke="yellow" stroke-width="1" fill="none" />
<path d="M198.93833780160855,163.7855227882037 L182.95978552278825,151.00268096514742" stroke="yellow" stroke-width="1" fill="none" />
<path d="M182.95978552278825,151.00268096514742 L179.76407506702412,138.21983914209113" stroke="yellow" stroke-width="1" fill="none" />
<path d="M179.76407506702412,138.21983914209113 L186.15549597855227,122.24128686327072" stroke="yellow" stroke-width="1" fill="none" />
<path d="M802.9276139410189,269.24396782841814 L879.6246648793566,294.80965147453094" stroke="yellow" stroke-width="1" fill="none" />
<path d="M879.6246648793566,294.80965147453094 L905.1903485254692,320.3753351206435" stroke="yellow" stroke-width="1" fill="none" />
<path d="M905.1903485254692,320.3753351206435 L930.7560321715818,397.07238605898124" stroke="yellow" stroke-width="1" fill="none" />
<path d="M1007.4530831099195,397.07238605898124 L1033.0187667560322,320.3753351206435" stroke="yellow" stroke-width="1" fill="none" />
<path d="M1058.5844504021447,294.80965147453094 L1135.2815013404825,275.6353887399464" stroke="yellow" stroke-width="1" fill="none" />
<path d="M1135.2815013404825,186.15549597855238 L1058.5844504021447,166.98123324396784" stroke="yellow" stroke-width="1" fill="none" />
<path d="M1033.0187667560322,141.41554959785526 L1007.4530831099195,64.71849865951754" stroke="yellow" stroke-width="1" fill="none" />
<path d="M930.7560321715818,64.71849865951754 L905.1903485254692,141.41554959785526" stroke="yellow" stroke-width="1" fill="none" />
<path d="M905.1903485254692,141.41554959785526 L879.6246648793566,166.98123324396784" stroke="yellow" stroke-width="1" fill="none" />
<path d="M879.6246648793566,166.98123324396784 L802.9276139410189,192.5469168900804" stroke="yellow" stroke-width="1" fill="none" />
<path d="M368.31099195710465,256.46112600536185 L368.31099195710465,205.3297587131367" stroke="lavender" stroke-width="1" fill="none" />
<path d="M349.1367292225201,205.3297587131367 L349.1367292225201,256.46112600536185" stroke="lavender" stroke-width="1" fill="none" />
<path d="M1058.5844504021447,243.67828418230556 L1058.5844504021447,218.11260053619299" stroke="yellow" stroke-width="1" fill="none" />
<path d="M879.6246648793566,218.11260053619299 L879.6246648793566,243.67828418230556" stroke="yellow" stroke-width="1" fill="none" />
<path d="M1033.0187667560322,218.11260053619299 L1033.0187667560322,243.67828418230556" stroke="yellow" stroke-width="1" fill="none" />
<path d="M905.1903485254692,243.67828418230556 L905.1903485254692,218.11260053619299" stroke="yellow" stroke-width="1" fill="none" />
<path d="M1036.2144772117963,317.1796246648794 L1055.3887399463806,298.00536193029484" stroke="yellow" stroke-width="1" fill="none" />
<path d="M1017.0402144772119,259.656836461126 L997.8659517426273,278.8310991957105" stroke="yellow" stroke-width="1" fill="none" />
<path d="M1055.3887399463806,163.7855227882037 L1036.2144772117963,144.6112600536194" stroke="yellow" stroke-width="1" fill="none" />
<path d="M997.8659517426273,182.95978552278825 L1017.0402144772119,202.13404825737257" stroke="yellow" stroke-width="1" fill="none" />
<path d="M1135.2815013404825,186.15549597855238 L1135.2815013404825,224.50402144772124" stroke="yellow" stroke-width="1" fill="none" />
<path d="M879.6246648793566,243.67828418230556 L870.0375335120644,243.67828418230556" stroke="yellow" stroke-width="1" fill="none" />
<path d="M870.0375335120644,243.67828418230556 L860.450402144772,243.67828418230556" stroke="yellow" stroke-width="1" fill="none" />
<path d="M860.450402144772,243.67828418230556 L850.8632707774799,243.67828418230556" stroke="yellow" stroke-width="1" fill="none" />
<path d="M850.8632707774799,243.67828418230556 L841.2761394101877,243.67828418230556" stroke="yellow" stroke-width="1" fill="none" />
<path d="M841.2761394101877,218.11260053619299 L850.8632707774799,218.11260053619299" stroke="yellow" stroke-width="1" fill="none" />
<path d="M850.8632707774799,218.11260053619299 L860.450402144772,218.11260053619299" stroke="yellow" stroke-width="1" fill="none" />
<path d="M860.450402144772,218.11260053619299 L870.0375335120644,218.11260053619299" stroke="yellow" stroke-width="1" fill="none" />
<path d="M870.0375335120644,218.11260053619299 L879.6246648793566,218.11260053619299" stroke="yellow" stroke-width="1" fill="none" />
<path d="M870.0375335120644,243.67828418230556 L870.0375335120644,218.11260053619299" stroke="yellow" stroke-width="1" fill="none" />
<path d="M860.450402144772,243.67828418230556 L860.450402144772,218.11260053619299" stroke="yellow" stroke-width="1" fill="none" />
<path d="M850.8632707774799,243.67828418230556 L850.8632707774799,218.11260053619299" stroke="yellow" stroke-width="1" fill="none" />
<path d="M841.2761394101877,243.67828418230556 L841.2761394101877,218.11260053619299" stroke="yellow" stroke-width="1" fill="none" />
<path d="M889.2117962466488,243.67828418230556 L889.2117962466488,218.11260053619299" stroke="yellow" stroke-width="1" fill="none" />
<path d="M898.7989276139409,243.67828418230556 L898.7989276139409,218.11260053619299" stroke="yellow" stroke-width="1" fill="none" />
<path d="M1039.4101876675604,218.11260053619299 L1039.4101876675604,243.67828418230556" stroke="yellow" stroke-width="1" fill="none" />
<path d="M1048.9973190348524,218.11260053619299 L1048.9973190348524,243.67828418230556" stroke="yellow" stroke-width="1" fill="none" />
<path d="M1058.5844504021447,218.11260053619299 L1068.1715817694371,218.11260053619299" stroke="yellow" stroke-width="1" fill="none" />
<path d="M1068.1715817694371,218.11260053619299 L1077.758713136729,218.11260053619299" stroke="yellow" stroke-width="1" fill="none" />
<path d="M1077.758713136729,218.11260053619299 L1087.3458445040214,218.11260053619299" stroke="yellow" stroke-width="1" fill="none" />
<path d="M1087.3458445040214,218.11260053619299 L1096.9329758713138,218.11260053619299" stroke="yellow" stroke-width="1" fill="none" />
<path d="M1096.9329758713138,243.67828418230556 L1087.3458445040214,243.67828418230556" stroke="yellow" stroke-width="1" fill="none" />
<path d="M1087.3458445040214,243.67828418230556 L1077.758713136729,243.67828418230556" stroke="yellow" stroke-width="1" fill="none" />
<path d="M1077.758713136729,243.67828418230556 L1068.1715817694371,243.67828418230556" stroke="yellow" stroke-width="1" fill="none" />
<path d="M1068.1715817694371,243.67828418230556 L1058.5844504021447,243.67828418230556" stroke="yellow" stroke-width="1" fill="none" />
<path d="M1068.1715817694371,218.11260053619299 L1068.1715817694371,243.67828418230556" stroke="yellow" stroke-width="1" fill="none" />
<path d="M1077.758713136729,218.11260053619299 L1077.758713136729,243.67828418230556" stroke="yellow" stroke-width="1" fill="none" />
<path d="M1087.3458445040214,218.11260053619299 L1087.3458445040214,243.67828418230556" stroke="yellow" stroke-width="1" fill="none" />
<path d="M1096.9329758713138,218.11260053619299 L1096.9329758713138,243.67828418230556" stroke="yellow" stroke-width="1" fill="none" />
<path d="M802.9276139410189,192.5469168900804 L802.9276139410189,205.3297587131367" stroke="yellow" stroke-width="1" fill="none" />
<path d="M802.9276139410189,205.3297587131367 L802.9276139410189,256.46112600536185" stroke="yellow" stroke-width="1" fill="none" />
<path d="M802.9276139410189,256.46112600536185 L802.9276139410189,269.24396782841814" stroke="yellow" stroke-width="1" fill="none" />
<path d="M802.9276139410189,192.5469168900804 L675.0991957104558,192.5469168900804" stroke="yellow" stroke-width="1" fill="none" />
<path d="M675.0991957104558,192.5469168900804 L675.0991957104558,205.3297587131367" stroke="yellow" stroke-width="1" fill="none" />
<path d="M675.0991957104558,256.46112600536185 L675.0991957104558,269.24396782841814" stroke="yellow" stroke-width="1" fill="none" />
<path d="M675.0991957104558,269.24396782841814 L802.9276139410189,269.24396782841814" stroke="yellow" stroke-width="1" fill="none" />
<path d="M675.0991957104558,205.3297587131367 L687.8820375335121,205.3297587131367" stroke="yellow" stroke-width="1" fill="none" />
<path d="M687.8820375335121,205.3297587131367 L700.6648793565683,205.3297587131367" stroke="yellow" stroke-width="1" fill="none" />
<path d="M700.6648793565683,205.3297587131367 L713.4477211796246,205.3297587131367" stroke="yellow" stroke-width="1" fill="none" />
<path d="M713.4477211796246,205.3297587131367 L726.2305630026809,205.3297587131367" stroke="yellow" stroke-width="1" fill="none" />
<path d="M726.2305630026809,205.3297587131367 L739.0134048257372,205.3297587131367" stroke="yellow" stroke-width="1" fill="none" />
<path d="M739.0134048257372,205.3297587131367 L751.7962466487935,205.3297587131367" stroke="yellow" stroke-width="1" fill="none" />
<path d="M751.7962466487935,205.3297587131367 L764.5790884718498,205.3297587131367" stroke="yellow" stroke-width="1" fill="none" />
<path d="M764.5790884718498,256.46112600536185 L751.7962466487935,256.46112600536185" stroke="yellow" stroke-width="1" fill="none" />
<path d="M751.7962466487935,256.46112600536185 L739.0134048257372,256.46112600536185" stroke="yellow" stroke-width="1" fill="none" />
<path d="M739.0134048257372,256.46112600536185 L726.2305630026809,256.46112600536185" stroke="yellow" stroke-width="1" fill="none" />
<path d="M726.2305630026809,256.46112600536185 L713.4477211796246,256.46112600536185" stroke="yellow" stroke-width="1" fill="none" />
<path d="M713.4477211796246,256.46112600536185 L700.6648793565683,256.46112600536185" stroke="yellow" stroke-width="1" fill="none" />
<path d="M700.6648793565683,256.46112600536185 L687.8820375335121,256.46112600536185" stroke="yellow" stroke-width="1" fill="none" />
<path d="M687.8820375335121,256.46112600536185 L675.0991957104558,256.46112600536185" stroke="yellow" stroke-width="1" fill="none" />
<path d="M687.8820375335121,205.3297587131367 L687.8820375335121,256.46112600536185" stroke="yellow" stroke-width="1" fill="none" />
<path d="M700.6648793565683,205.3297587131367 L700.6648793565683,256.46112600536185" stroke="yellow" stroke-width="1" fill="none" />
<path d="M713.4477211796246,205.3297587131367 L713.4477211796246,256.46112600536185" stroke="yellow" stroke-width="1" fill="none" />
<path d="M726.2305630026809,205.3297587131367 L726.2305630026809,256.46112600536185" stroke="yellow" stroke-width="1" fill="none" />
<path d="M739.0134048257372,205.3297587131367 L739.0134048257372,256.46112600536185" stroke="yellow" stroke-width="1" fill="none" />
<path d="M751.7962466487935,205.3297587131367 L751.7962466487935,256.46112600536185" stroke="yellow" stroke-width="1" fill="none" />
<path d="M764.5790884718498,205.3297587131367 L764.5790884718498,256.46112600536185" stroke="yellow" stroke-width="1" fill="none" />
<path d="M764.5790884718498,205.3297587131367 L802.9276139410189,205.3297587131367" stroke="yellow" stroke-width="1" fill="none" />
<path d="M802.9276139410189,256.46112600536185 L764.5790884718498,256.46112600536185" stroke="yellow" stroke-width="1" fill="none" />
<path d="M1058.5844504021447,64.71849865951754 L1084.1501340482573,64.71849865951754" stroke="yellow" stroke-width="1" fill="none" />
<path d="M1109.71581769437,64.71849865951754 L1135.2815013404825,64.71849865951754" stroke="yellow" stroke-width="1" fill="none" />
<path d="M1135.2815013404825,64.71849865951754 L1135.2815013404825,90.28418230563011" stroke="yellow" stroke-width="1" fill="none" />
<path d="M1135.2815013404825,115.84986595174269 L1135.2815013404825,141.41554959785526" stroke="yellow" stroke-width="1" fill="none" />
<path d="M1007.4530831099195,397.07238605898124 L969.1045576407506,397.07238605898124" stroke="yellow" stroke-width="1" fill="none" />
<path d="M1135.2815013404825,320.3753351206435 L1135.2815013404825,345.9410187667561" stroke="yellow" stroke-width="1" fill="none" />
<path d="M1135.2815013404825,371.50670241286866 L1135.2815013404825,397.07238605898124" stroke="yellow" stroke-width="1" fill="none" />
<path d="M1135.2815013404825,397.07238605898124 L1109.71581769437,397.07238605898124" stroke="yellow" stroke-width="1" fill="none" />
<path d="M1084.1501340482573,397.07238605898124 L1058.5844504021447,397.07238605898124" stroke="yellow" stroke-width="1" fill="none" />
<path d="M1135.2815013404825,237.28686327077753 L1135.2815013404825,275.6353887399464" stroke="yellow" stroke-width="1" fill="none" />
<path d="M1144.8686327077749,224.50402144772124 L1144.8686327077749,186.15549597855238" stroke="lavender" stroke-width="1" fill="none" />
<path d="M1141.6729222520107,186.15549597855238 L1141.6729222520107,224.50402144772124" stroke="lavender" stroke-width="1" fill="none" />
<path d="M969.1045576407506,406.6595174262734 L1007.4530831099195,406.6595174262734" stroke="lavender" stroke-width="1" fill="none" />
<path d="M1007.4530831099195,403.46380697050927 L969.1045576407506,403.46380697050927" stroke="lavender" stroke-width="1" fill="none" />
<path d="M879.6246648793566,397.07238605898124 L854.058981233244,397.07238605898124" stroke="yellow" stroke-width="1" fill="none" />
<path d="M521.7050938337801,269.24396782841814 L649.5335120643432,269.24396782841814" stroke="yellow" stroke-width="1" fill="none" />
<path d="M649.5335120643432,269.24396782841814 L649.5335120643432,256.46112600536185" stroke="yellow" stroke-width="1" fill="none" />
<path d="M521.7050938337801,256.46112600536185 L521.7050938337801,269.24396782841814" stroke="yellow" stroke-width="1" fill="none" />
<path d="M649.5335120643432,256.46112600536185 L636.7506702412869,256.46112600536185" stroke="yellow" stroke-width="1" fill="none" />
<path d="M636.7506702412869,256.46112600536185 L623.9678284182306,256.46112600536185" stroke="yellow" stroke-width="1" fill="none" />
<path d="M623.9678284182306,256.46112600536185 L611.1849865951743,256.46112600536185" stroke="yellow" stroke-width="1" fill="none" />
<path d="M611.1849865951743,256.46112600536185 L598.402144772118,256.46112600536185" stroke="yellow" stroke-width="1" fill="none" />
<path d="M598.402144772118,256.46112600536185 L585.6193029490618,256.46112600536185" stroke="yellow" stroke-width="1" fill="none" />
<path d="M585.6193029490618,256.46112600536185 L572.8364611260055,256.46112600536185" stroke="yellow" stroke-width="1" fill="none" />
<path d="M649.5335120643432,205.3297587131367 L649.5335120643432,192.5469168900804" stroke="yellow" stroke-width="1" fill="none" />
<path d="M572.8364611260055,205.3297587131367 L585.6193029490618,205.3297587131367" stroke="yellow" stroke-width="1" fill="none" />
<path d="M585.6193029490618,205.3297587131367 L598.402144772118,205.3297587131367" stroke="yellow" stroke-width="1" fill="none" />
<path d="M598.402144772118,205.3297587131367 L611.1849865951743,205.3297587131367" stroke="yellow" stroke-width="1" fill="none" />
<path d="M611.1849865951743,205.3297587131367 L623.9678284182306,205.3297587131367" stroke="yellow" stroke-width="1" fill="none" />
<path d="M623.9678284182306,205.3297587131367 L636.7506702412869,205.3297587131367" stroke="yellow" stroke-width="1" fill="none" />
<path d="M636.7506702412869,205.3297587131367 L649.5335120643432,205.3297587131367" stroke="yellow" stroke-width="1" fill="none" />
<path d="M636.7506702412869,256.46112600536185 L636.7506702412869,205.3297587131367" stroke="yellow" stroke-width="1" fill="none" />
<path d="M623.9678284182306,256.46112600536185 L623.9678284182306,205.3297587131367" stroke="yellow" stroke-width="1" fill="none" />
<path d="M611.1849865951743,256.46112600536185 L611.1849865951743,205.3297587131367" stroke="yellow" stroke-width="1" fill="none" />
<path d="M598.402144772118,256.46112600536185 L598.402144772118,205.3297587131367" stroke="yellow" stroke-width="1" fill="none" />
<path d="M585.6193029490618,256.46112600536185 L585.6193029490618,205.3297587131367" stroke="yellow" stroke-width="1" fill="none" />
<path d="M572.8364611260055,256.46112600536185 L572.8364611260055,205.3297587131367" stroke="yellow" stroke-width="1" fill="none" />
<path d="M521.7050938337801,192.5469168900804 L496.1394101876675,115.84986595174269" stroke="yellow" stroke-width="1" fill="none" />
<path d="M496.1394101876675,115.84986595174269 L470.57372654155495,90.28418230563011" stroke="yellow" stroke-width="1" fill="none" />
<path d="M496.1394101876675,345.9410187667561 L521.7050938337801,269.24396782841814" stroke="yellow" stroke-width="1" fill="none" />
<path d="M470.57372654155495,371.50670241286866 L496.1394101876675,345.9410187667561" stroke="yellow" stroke-width="1" fill="none" />
<path d="M521.7050938337801,205.3297587131367 L572.8364611260055,205.3297587131367" stroke="yellow" stroke-width="1" fill="none" />
<path d="M572.8364611260055,256.46112600536185 L521.7050938337801,256.46112600536185" stroke="yellow" stroke-width="1" fill="none" />
<path d="M521.7050938337801,192.5469168900804 L521.7050938337801,205.3297587131367" stroke="yellow" stroke-width="1" fill="none" />
<path d="M112.65415549597856,186.15549597855238 L112.65415549597856,147.8069705093833" stroke="yellow" stroke-width="1" fill="none" />
<path d="M93.47989276139413,141.41554959785526 L67.91420911528155,141.41554959785526" stroke="yellow" stroke-width="1" fill="none" />
<path d="M67.91420911528155,147.8069705093833 L93.47989276139413,147.8069705093833" stroke="yellow" stroke-width="1" fill="none" />
<path d="M103.0670241286864,186.15549597855238 L103.0670241286864,147.8069705093833" stroke="lavender" stroke-width="1" fill="none" />
<path d="M99.87131367292227,147.8069705093833 L99.87131367292227,186.15549597855238" stroke="lavender" stroke-width="1" fill="none" />
<path d="M138.21983914209113,147.8069705093833 L112.65415549597856,147.8069705093833" stroke="yellow" stroke-width="1" fill="none" />
<path d="M138.21983914209113,192.5469168900804 L138.21983914209113,147.8069705093833" stroke="yellow" stroke-width="1" fill="none" />
<path d="M138.21983914209113,202.13404825737257 L138.21983914209113,192.5469168900804" stroke="yellow" stroke-width="1" fill="none" />
<path d="M138.21983914209113,211.72117962466496 L138.21983914209113,202.13404825737257" stroke="yellow" stroke-width="1" fill="none" />
<path d="M138.21983914209113,221.30831099195711 L138.21983914209113,211.72117962466496" stroke="yellow" stroke-width="1" fill="none" />
<path d="M138.21983914209113,230.89544235924927 L138.21983914209113,221.30831099195711" stroke="yellow" stroke-width="1" fill="none" />
<path d="M112.65415549597856,230.89544235924927 L138.21983914209113,230.89544235924927" stroke="yellow" stroke-width="1" fill="none" />
<path d="M112.65415549597856,221.30831099195711 L138.21983914209113,221.30831099195711" stroke="yellow" stroke-width="1" fill="none" />
<path d="M112.65415549597856,211.72117962466496 L138.21983914209113,211.72117962466496" stroke="yellow" stroke-width="1" fill="none" />
<path d="M112.65415549597856,202.13404825737257 L138.21983914209113,202.13404825737257" stroke="yellow" stroke-width="1" fill="none" />
<path d="M112.65415549597856,192.5469168900804 L138.21983914209113,192.5469168900804" stroke="yellow" stroke-width="1" fill="none" />
<path d="M342.7453083109921,320.3753351206435 L317.17962466487927,345.9410187667561" stroke="yellow" stroke-width="1" fill="none" />
<path d="M342.7453083109921,320.3753351206435 L285.22252010723867,269.24396782841814" stroke="lavender" stroke-width="1" fill="none" />
<path d="M285.22252010723867,115.84986595174269 L342.7453083109921,90.28418230563011" stroke="lavender" stroke-width="1" fill="none" />
<path d="M1144.8686327077749,275.6353887399464 L1144.8686327077749,237.28686327077753" stroke="lavender" stroke-width="1" fill="none" />
<path d="M1141.6729222520107,237.28686327077753 L1141.6729222520107,275.6353887399464" stroke="lavender" stroke-width="1" fill="none" />
<path d="M170.17694369973196,269.24396782841814 L122.24128686327083,269.24396782841814" stroke="yellow" stroke-width="1" fill="none" />
<path d="M122.24128686327083,272.43967828418226 L170.17694369973196,272.43967828418226" stroke="yellow" stroke-width="1" fill="none" />
<path d="M170.17694369973196,262.8525469168901 L122.24128686327083,262.8525469168901" stroke="yellow" stroke-width="1" fill="none" />
<path d="M969.1045576407506,58.32707774798928 L1007.4530831099195,58.32707774798928" stroke="lavender" stroke-width="1" fill="none" />
<path d="M1007.4530831099195,55.13136729222515 L969.1045576407506,55.13136729222515" stroke="lavender" stroke-width="1" fill="none" />
<path d="M975.4959785522789,224.50402144772124 L962.7131367292226,224.50402144772124" stroke="yellow" stroke-width="1" fill="none" />
<path d="M962.7131367292226,224.50402144772124 L962.7131367292226,237.28686327077753" stroke="yellow" stroke-width="1" fill="none" />
<path d="M962.7131367292226,237.28686327077753 L975.4959785522789,237.28686327077753" stroke="yellow" stroke-width="1" fill="none" />
<path d="M975.4959785522789,237.28686327077753 L975.4959785522789,224.50402144772124" stroke="yellow" stroke-width="1" fill="none" />
<path d="M854.058981233244,422.6380697050938 L854.058981233244,448.2037533512064" stroke="lavender" stroke-width="1" fill="none" />
<path d="M854.058981233244,448.2037533512064 L879.6246648793566,448.2037533512064" stroke="lavender" stroke-width="1" fill="none" />
<path d="M879.6246648793566,448.2037533512064 L879.6246648793566,422.6380697050938" stroke="lavender" stroke-width="1" fill="none" />
<path d="M879.6246648793566,422.6380697050938 L854.058981233244,422.6380697050938" stroke="lavender" stroke-width="1" fill="none" />
<path d="M691.0777479892762,80.69705093833772 L681.490616621984,90.28418230563011" stroke="yellow" stroke-width="1" fill="none" />
<path d="M681.490616621984,90.28418230563011 L681.490616621984,103.0670241286864" stroke="yellow" stroke-width="1" fill="none" />
<path d="M681.490616621984,103.0670241286864 L691.0777479892762,112.65415549597856" stroke="yellow" stroke-width="1" fill="none" />
<path d="M691.0777479892762,112.65415549597856 L703.8605898123325,112.65415549597856" stroke="yellow" stroke-width="1" fill="none" />
<path d="M703.8605898123325,112.65415549597856 L713.4477211796246,103.0670241286864" stroke="yellow" stroke-width="1" fill="none" />
<path d="M713.4477211796246,103.0670241286864 L713.4477211796246,90.28418230563011" stroke="yellow" stroke-width="1" fill="none" />
<path d="M713.4477211796246,90.28418230563011 L703.8605898123325,80.69705093833772" stroke="yellow" stroke-width="1" fill="none" />
<path d="M703.8605898123325,80.69705093833772 L691.0777479892762,80.69705093833772" stroke="yellow" stroke-width="1" fill="none" />
<path d="M614.3806970509385,371.50670241286866 L614.3806970509385,397.07238605898124" stroke="yellow" stroke-width="1" fill="none" />
<path d="M710.2520107238605,397.07238605898124 L710.2520107238605,371.50670241286866" stroke="yellow" stroke-width="1" fill="none" />
<path d="M710.2520107238605,371.50670241286866 L691.0777479892762,352.3324396782841" stroke="yellow" stroke-width="1" fill="none" />
<path d="M691.0777479892762,352.3324396782841 L633.5549597855228,352.3324396782841" stroke="yellow" stroke-width="1" fill="none" />
<path d="M633.5549597855228,352.3324396782841 L614.3806970509385,371.50670241286866" stroke="yellow" stroke-width="1" fill="none" />
<path d="M623.9678284182306,397.07238605898124 L623.9678284182306,377.8981233243967" stroke="yellow" stroke-width="1" fill="none" />
<path d="M623.9678284182306,377.8981233243967 L636.7506702412869,361.9195710455765" stroke="yellow" stroke-width="1" fill="none" />
<path d="M636.7506702412869,361.9195710455765 L687.8820375335121,361.9195710455765" stroke="yellow" stroke-width="1" fill="none" />
<path d="M687.8820375335121,361.9195710455765 L700.6648793565683,374.7024128686328" stroke="yellow" stroke-width="1" fill="none" />
<path d="M700.6648793565683,374.7024128686328 L700.6648793565683,397.07238605898124" stroke="yellow" stroke-width="1" fill="none" />
<path d="M700.6648793565683,397.07238605898124 L623.9678284182306,397.07238605898124" stroke="yellow" stroke-width="1" fill="none" />
<path d="M675.0991957104558,473.76943699731896 L649.5335120643432,473.76943699731896" stroke="lavender" stroke-width="1" fill="none" />
<path d="M649.5335120643432,473.76943699731896 L649.5335120643432,499.33512064343154" stroke="lavender" stroke-width="1" fill="none" />
<path d="M649.5335120643432,499.33512064343154 L675.0991957104558,499.33512064343154" stroke="lavender" stroke-width="1" fill="none" />
<path d="M675.0991957104558,499.33512064343154 L675.0991957104558,473.76943699731896" stroke="lavender" stroke-width="1" fill="none" />
<path d="M182.95978552278825,262.8525469168901 L182.95978552278825,151.00268096514742" stroke="yellow" stroke-width="1" fill="none" />
<path d="M617.5764075067024,192.5469168900804 L617.5764075067024,64.71849865951754" stroke="yellow" stroke-width="1" fill="none" />
<path d="M604.7935656836461,64.71849865951754 L604.7935656836461,192.5469168900804" stroke="yellow" stroke-width="1" fill="none" />
<path d="M604.7935656836461,192.5469168900804 L521.7050938337801,192.5469168900804" stroke="yellow" stroke-width="1" fill="none" />
<path d="M649.5335120643432,192.5469168900804 L617.5764075067024,192.5469168900804" stroke="yellow" stroke-width="1" fill="none" />
<path d="M598.402144772118,64.71849865951754 L604.7935656836461,64.71849865951754" stroke="yellow" stroke-width="1" fill="none" />
<path d="M604.7935656836461,64.71849865951754 L617.5764075067024,64.71849865951754" stroke="lavender" stroke-width="1" fill="none" />
<path d="M617.5764075067024,64.71849865951754 L623.9678284182306,64.71849865951754" stroke="yellow" stroke-width="1" fill="none" />
<path d="M470.57372654155495,90.28418230563011 L470.57372654155495,64.71849865951754" stroke="yellow" stroke-width="1" fill="none" />
<path d="M956.3217158176943,10.391420911528257 L933.9517426273459,10.391420911528257" stroke="yellow" stroke-width="1" fill="none" />
<path d="M933.9517426273459,10.391420911528257 L933.9517426273459,45.54423592493299" stroke="yellow" stroke-width="1" fill="none" />
<path d="M933.9517426273459,45.54423592493299 L956.3217158176943,45.54423592493299" stroke="yellow" stroke-width="1" fill="none" />
<path d="M956.3217158176943,45.54423592493299 L956.3217158176943,39.152815013404734" stroke="yellow" stroke-width="1" fill="none" />
<path d="M956.3217158176943,39.152815013404734 L949.9302949061663,39.152815013404734" stroke="yellow" stroke-width="1" fill="none" />
<path d="M949.9302949061663,39.152815013404734 L949.9302949061663,16.782841823056287" stroke="lavender" stroke-width="1" fill="none" />
<path d="M949.9302949061663,16.782841823056287 L956.3217158176943,16.782841823056287" stroke="yellow" stroke-width="1" fill="none" />
<path d="M956.3217158176943,16.782841823056287 L956.3217158176943,10.391420911528257" stroke="yellow" stroke-width="1" fill="none" />
<path d="M617.5764075067024,192.5469168900804 L604.7935656836461,192.5469168900804" stroke="yellow" stroke-width="1" fill="none" />
<path d="M470.57372654155495,397.07238605898124 L470.57372654155495,371.50670241286866" stroke="yellow" stroke-width="1" fill="none" />
<path d="M368.31099195710465,448.2037533512064 L342.7453083109921,448.2037533512064" stroke="lavender" stroke-width="1" fill="none" />
<path d="M342.7453083109921,451.3994638069705 L368.31099195710465,451.3994638069705" stroke="lavender" stroke-width="1" fill="none" />
<path d="M189.3512064343164,489.7479892761394 L521.7050938337801,489.7479892761394" stroke="lavender" stroke-width="1" fill="none" />
<path d="M496.1394101876675,524.9008042895443 L496.1394101876675,576.0321715817694" stroke="lavender" stroke-width="1" fill="none" />
<path d="M496.1394101876675,576.0321715817694 L521.7050938337801,576.0321715817694" stroke="yellow" stroke-width="1" fill="none" />
<path d="M521.7050938337801,524.9008042895443 L496.1394101876675,524.9008042895443" stroke="lavender" stroke-width="1" fill="none" />
<path d="M393.8766756032172,710.2520107238606 L317.17962466487927,710.2520107238606" stroke="lavender" stroke-width="1" fill="none" />
<path d="M342.7453083109921,627.1635388739946 L368.31099195710465,627.1635388739946" stroke="yellow" stroke-width="1" fill="none" />
<path d="M368.31099195710465,627.1635388739946 L368.31099195710465,652.7292225201072" stroke="yellow" stroke-width="1" fill="none" />
<path d="M368.31099195710465,652.7292225201072 L342.7453083109921,652.7292225201072" stroke="yellow" stroke-width="1" fill="none" />
<path d="M342.7453083109921,652.7292225201072 L342.7453083109921,627.1635388739946" stroke="yellow" stroke-width="1" fill="none" />
<path d="M374.7024128686327,620.7721179624665 L336.3538873994638,620.7721179624665" stroke="yellow" stroke-width="1" fill="none" />
<path d="M336.3538873994638,620.7721179624665 L336.3538873994638,659.1206434316354" stroke="yellow" stroke-width="1" fill="none" />
<path d="M336.3538873994638,659.1206434316354 L374.7024128686327,659.1206434316354" stroke="yellow" stroke-width="1" fill="none" />
<path d="M374.7024128686327,659.1206434316354 L374.7024128686327,620.7721179624665" stroke="yellow" stroke-width="1" fill="none" />
<path d="M227.69973190348526,601.5978552278821 L266.04825737265423,601.5978552278821" stroke="yellow" stroke-width="1" fill="none" />
<path d="M266.04825737265423,601.5978552278821 L266.04825737265423,652.7292225201072" stroke="yellow" stroke-width="1" fill="none" />
<path d="M266.04825737265423,652.7292225201072 L227.69973190348526,652.7292225201072" stroke="yellow" stroke-width="1" fill="none" />
<path d="M227.69973190348526,652.7292225201072 L227.69973190348526,601.5978552278821" stroke="yellow" stroke-width="1" fill="none" />
<path d="M272.4396782841824,595.2064343163539 L221.30831099195711,595.2064343163539" stroke="yellow" stroke-width="1" fill="none" />
<path d="M221.30831099195711,595.2064343163539 L221.30831099195711,659.1206434316354" stroke="yellow" stroke-width="1" fill="none" />
<path d="M221.30831099195711,659.1206434316354 L272.4396782841824,659.1206434316354" stroke="yellow" stroke-width="1" fill="none" />
<path d="M272.4396782841824,659.1206434316354 L272.4396782841824,595.2064343163539" stroke="yellow" stroke-width="1" fill="none" />
<path d="M368.31099195710465,595.2064343163539 L368.31099195710465,569.6407506702412" stroke="lavender" stroke-width="1" fill="none" />
<path d="M368.31099195710465,569.6407506702412 L342.7453083109921,569.6407506702412" stroke="lavender" stroke-width="1" fill="none" />
<path d="M342.7453083109921,569.6407506702412 L342.7453083109921,595.2064343163539" stroke="lavender" stroke-width="1" fill="none" />
<path d="M342.7453083109921,595.2064343163539 L368.31099195710465,595.2064343163539" stroke="lavender" stroke-width="1" fill="none" />
<path d="M189.3512064343164,607.9892761394102 L189.3512064343164,544.0750670241287" stroke="lavender" stroke-width="1" fill="none" />
<path d="M445.0080428954424,601.5978552278821 L496.1394101876675,601.5978552278821" stroke="yellow" stroke-width="1" fill="none" />
<path d="M496.1394101876675,601.5978552278821 L496.1394101876675,652.7292225201072" stroke="yellow" stroke-width="1" fill="none" />
<path d="M496.1394101876675,652.7292225201072 L445.0080428954424,652.7292225201072" stroke="yellow" stroke-width="1" fill="none" />
<path d="M445.0080428954424,652.7292225201072 L445.0080428954424,601.5978552278821" stroke="yellow" stroke-width="1" fill="none" />
<path d="M502.5308310991958,595.2064343163539 L438.61662198391434,595.2064343163539" stroke="yellow" stroke-width="1" fill="none" />
<path d="M438.61662198391434,595.2064343163539 L438.61662198391434,659.1206434316354" stroke="yellow" stroke-width="1" fill="none" />
<path d="M438.61662198391434,659.1206434316354 L502.5308310991958,659.1206434316354" stroke="yellow" stroke-width="1" fill="none" />
<path d="M502.5308310991958,659.1206434316354 L502.5308310991958,595.2064343163539" stroke="yellow" stroke-width="1" fill="none" />
<path d="M521.7050938337801,678.2949061662198 L214.91689008042897,678.2949061662198" stroke="lavender" stroke-width="1" fill="none" />
<path d="M214.91689008042897,678.2949061662198 L214.91689008042897,652.7292225201072" stroke="yellow" stroke-width="1" fill="none" />
<path d="M214.91689008042897,652.7292225201072 L189.3512064343164,652.7292225201072" stroke="yellow" stroke-width="1" fill="none" />
<path d="M214.91689008042897,678.2949061662198 L189.3512064343164,678.2949061662198" stroke="yellow" stroke-width="1" fill="none" />
<path d="M528.0965147453084,588.8150134048258 L528.0965147453084,665.5120643431635" stroke="yellow" stroke-width="1" fill="none" />
<path d="M534.4879356568364,665.5120643431635 L534.4879356568364,588.8150134048258" stroke="yellow" stroke-width="1" fill="none" />
<path d="M317.17962466487927,716.6434316353888 L393.8766756032172,716.6434316353888" stroke="yellow" stroke-width="1" fill="none" />
<path d="M521.7050938337801,703.8605898123325 L496.1394101876675,703.8605898123325" stroke="lavender" stroke-width="1" fill="none" />
<path d="M445.0080428954424,90.28418230563011 L445.0080428954424,64.71849865951754" stroke="lavender" stroke-width="1" fill="none" />
<path d="M464.1823056300269,64.71849865951754 L464.1823056300269,90.28418230563011" stroke="yellow" stroke-width="1" fill="none" />
<path d="M969.1045576407506,64.71849865951754 L1007.4530831099195,64.71849865951754" stroke="yellow" stroke-width="1" fill="none" />
<path d="M521.7050938337801,588.8150134048258 L521.7050938337801,665.5120643431635" stroke="yellow" stroke-width="1" fill="none" />
<path d="M349.1367292225201,754.9919571045576 L361.9195710455764,754.9919571045576" stroke="yellow" stroke-width="1" fill="none" />
<path d="M361.9195710455764,754.9919571045576 L361.9195710455764,751.7962466487935" stroke="yellow" stroke-width="1" fill="none" />
<path d="M361.9195710455764,751.7962466487935 L349.1367292225201,751.7962466487935" stroke="yellow" stroke-width="1" fill="none" />
<path d="M349.1367292225201,751.7962466487935 L349.1367292225201,754.9919571045576" stroke="yellow" stroke-width="1" fill="none" />
<path d="M969.1045576407506,48.73994638069712 L969.1045576407506,4.0" stroke="lavender" stroke-width="1" fill="none" />
<path d="M214.91689008042897,703.8605898123325 L214.91689008042897,678.2949061662198" stroke="yellow" stroke-width="1" fill="none" />
<path d="M464.1823056300269,397.07238605898124 L464.1823056300269,371.50670241286866" stroke="lavender" stroke-width="1" fill="none" />
<path d="M457.79088471849866,371.50670241286866 L457.79088471849866,397.07238605898124" stroke="lavender" stroke-width="1" fill="none" />
<path d="M467.3780160857908,371.50670241286866 L467.3780160857908,397.07238605898124" stroke="yellow" stroke-width="1" fill="none" />
<path d="M445.0080428954424,397.07238605898124 L445.0080428954424,371.50670241286866" stroke="yellow" stroke-width="1" fill="none" />
<path d="M163.78552278820382,345.9410187667561 L138.21983914209113,345.9410187667561" stroke="yellow" stroke-width="1" fill="none" />
<path d="M138.21983914209113,352.3324396782841 L163.78552278820382,352.3324396782841" stroke="yellow" stroke-width="1" fill="none" />
<path d="M163.78552278820382,371.50670241286866 L138.21983914209113,371.50670241286866" stroke="lavender" stroke-width="1" fill="none" />
<path d="M317.17962466487927,345.9410187667561 L182.95978552278825,345.9410187667561" stroke="red" stroke-width="1" fill="none" />
<path d="M80.69705093833784,64.71849865951754 L195.74262734584454,64.71849865951754" stroke="red" stroke-width="1" fill="none" />
<path d="M182.95978552278825,269.24396782841814 L182.95978552278825,262.8525469168901" stroke="red" stroke-width="1" fill="none" />
<path d="M278.8310991957105,262.8525469168901 L208.52546916890083,262.8525469168901" stroke="red" stroke-width="1" fill="none" />
<path d="M208.52546916890083,262.8525469168901 L208.52546916890083,269.24396782841814" stroke="red" stroke-width="1" fill="none" />
<path d="M208.52546916890083,269.24396782841814 L218.1126005361931,269.24396782841814" stroke="red" stroke-width="1" fill="none" />
<path d="M218.1126005361931,269.24396782841814 L227.69973190348526,269.24396782841814" stroke="red" stroke-width="1" fill="none" />
<path d="M227.69973190348526,269.24396782841814 L237.28686327077753,269.24396782841814" stroke="red" stroke-width="1" fill="none" />
<path d="M237.28686327077753,269.24396782841814 L246.8739946380697,269.24396782841814" stroke="red" stroke-width="1" fill="none" />
<path d="M246.8739946380697,269.24396782841814 L256.46112600536196,269.24396782841814" stroke="red" stroke-width="1" fill="none" />
<path d="M256.46112600536196,269.24396782841814 L266.04825737265423,269.24396782841814" stroke="red" stroke-width="1" fill="none" />
<path d="M266.04825737265423,269.24396782841814 L275.6353887399464,269.24396782841814" stroke="red" stroke-width="1" fill="none" />
<path d="M275.6353887399464,269.24396782841814 L285.22252010723867,269.24396782841814" stroke="red" stroke-width="1" fill="none" />
<path d="M278.8310991957105,122.24128686327072 L278.8310991957105,192.5469168900804" stroke="red" stroke-width="1" fill="none" />
<path d="M278.8310991957105,218.11260053619299 L278.8310991957105,262.8525469168901" stroke="red" stroke-width="1" fill="none" />
<path d="M285.22252010723867,269.24396782841814 L285.22252010723867,218.11260053619299" stroke="red" stroke-width="1" fill="none" />
<path d="M285.22252010723867,218.11260053619299 L278.8310991957105,218.11260053619299" stroke="red" stroke-width="1" fill="none" />
<path d="M285.22252010723867,192.5469168900804 L285.22252010723867,115.84986595174269" stroke="red" stroke-width="1" fill="none" />
<path d="M278.8310991957105,192.5469168900804 L285.22252010723867,192.5469168900804" stroke="red" stroke-width="1" fill="none" />
<path d="M285.22252010723867,115.84986595174269 L214.91689008042897,115.84986595174269" stroke="red" stroke-width="1" fill="none" />
<path d="M214.91689008042897,115.84986595174269 L214.91689008042897,122.24128686327072" stroke="red" stroke-width="1" fill="none" />
<path d="M195.74262734584454,122.24128686327072 L195.74262734584454,115.84986595174269" stroke="red" stroke-width="1" fill="none" />
<path d="M195.74262734584454,115.84986595174269 L106.26273458445041,115.84986595174269" stroke="red" stroke-width="1" fill="none" />
<path d="M214.91689008042897,64.71849865951754 L317.17962466487927,64.71849865951754" stroke="red" stroke-width="1" fill="none" />
<path d="M195.74262734584454,64.71849865951754 L198.93833780160855,39.152815013404734" stroke="red" stroke-width="1" fill="none" />
<path d="M198.93833780160855,39.152815013404734 L211.72117962466496,39.152815013404734" stroke="red" stroke-width="1" fill="none" />
<path d="M211.72117962466496,39.152815013404734 L214.91689008042897,64.71849865951754" stroke="red" stroke-width="1" fill="none" />
<path d="M112.65415549597856,122.24128686327072 L186.15549597855227,122.24128686327072" stroke="red" stroke-width="1" fill="none" />
<path d="M224.50402144772124,122.24128686327072 L278.8310991957105,122.24128686327072" stroke="red" stroke-width="1" fill="none" />
<path d="M186.15549597855227,122.24128686327072 L195.74262734584454,122.24128686327072" stroke="red" stroke-width="1" fill="none" />
<path d="M214.91689008042897,122.24128686327072 L224.50402144772124,122.24128686327072" stroke="red" stroke-width="1" fill="none" />
<path d="M1033.0187667560322,320.3753351206435 L1036.2144772117963,317.1796246648794" stroke="red" stroke-width="1" fill="none" />
<path d="M342.7453083109921,256.46112600536185 L342.7453083109921,320.3753351206435" stroke="red" stroke-width="1" fill="none" />
<path d="M342.7453083109921,90.28418230563011 L342.7453083109921,205.3297587131367" stroke="red" stroke-width="1" fill="none" />
<path d="M349.1367292225201,205.3297587131367 L368.31099195710465,205.3297587131367" stroke="red" stroke-width="1" fill="none" />
<path d="M368.31099195710465,256.46112600536185 L349.1367292225201,256.46112600536185" stroke="red" stroke-width="1" fill="none" />
<path d="M879.6246648793566,211.72117962466496 L879.6246648793566,218.11260053619299" stroke="red" stroke-width="1" fill="none" />
<path d="M949.9302949061663,141.41554959785526 L879.6246648793566,211.72117962466496" stroke="red" stroke-width="1" fill="none" />
<path d="M879.6246648793566,243.67828418230556 L879.6246648793566,250.06970509383382" stroke="red" stroke-width="1" fill="none" />
<path d="M879.6246648793566,250.06970509383382 L949.9302949061663,320.3753351206435" stroke="red" stroke-width="1" fill="none" />
<path d="M905.1903485254692,218.11260053619299 L956.3217158176943,166.98123324396784" stroke="red" stroke-width="1" fill="none" />
<path d="M956.3217158176943,294.80965147453094 L905.1903485254692,243.67828418230556" stroke="red" stroke-width="1" fill="none" />
<path d="M1058.5844504021447,218.11260053619299 L1058.5844504021447,211.72117962466496" stroke="red" stroke-width="1" fill="none" />
<path d="M1058.5844504021447,250.06970509383382 L1058.5844504021447,243.67828418230556" stroke="red" stroke-width="1" fill="none" />
<path d="M623.9678284182306,64.71849865951754 L930.7560321715818,64.71849865951754" stroke="red" stroke-width="1" fill="none" />
<path d="M854.058981233244,397.07238605898124 L710.2520107238605,397.07238605898124" stroke="red" stroke-width="1" fill="none" />
<path d="M1055.3887399463806,298.00536193029484 L1058.5844504021447,294.80965147453094" stroke="red" stroke-width="1" fill="none" />
<path d="M988.2788203753352,320.3753351206435 L1010.6487935656836,298.00536193029484" stroke="red" stroke-width="1" fill="none" />
<path d="M1010.6487935656836,298.00536193029484 L1033.0187667560322,320.3753351206435" stroke="red" stroke-width="1" fill="none" />
<path d="M1058.5844504021447,294.80965147453094 L1036.2144772117963,272.43967828418226" stroke="red" stroke-width="1" fill="none" />
<path d="M1036.2144772117963,272.43967828418226 L1058.5844504021447,250.06970509383382" stroke="red" stroke-width="1" fill="none" />
<path d="M1033.0187667560322,243.67828418230556 L1017.0402144772119,259.656836461126" stroke="red" stroke-width="1" fill="none" />
<path d="M997.8659517426273,278.8310991957105 L981.8873994638069,294.80965147453094" stroke="red" stroke-width="1" fill="none" />
<path d="M1036.2144772117963,144.6112600536194 L1033.0187667560322,141.41554959785526" stroke="red" stroke-width="1" fill="none" />
<path d="M1058.5844504021447,166.98123324396784 L1055.3887399463806,163.7855227882037" stroke="red" stroke-width="1" fill="none" />
<path d="M1058.5844504021447,211.72117962466496 L1036.2144772117963,189.35120643431628" stroke="red" stroke-width="1" fill="none" />
<path d="M1036.2144772117963,189.35120643431628 L1058.5844504021447,166.98123324396784" stroke="red" stroke-width="1" fill="none" />
<path d="M1055.3887399463806,163.7855227882037 L1017.0402144772119,202.13404825737257" stroke="red" stroke-width="1" fill="none" />
<path d="M1017.0402144772119,259.656836461126 L1055.3887399463806,298.00536193029484" stroke="red" stroke-width="1" fill="none" />
<path d="M1036.2144772117963,317.1796246648794 L997.8659517426273,278.8310991957105" stroke="red" stroke-width="1" fill="none" />
<path d="M1017.0402144772119,202.13404825737257 L1033.0187667560322,218.11260053619299" stroke="red" stroke-width="1" fill="none" />
<path d="M997.8659517426273,182.95978552278825 L1036.2144772117963,144.6112600536194" stroke="red" stroke-width="1" fill="none" />
<path d="M981.8873994638069,166.98123324396784 L997.8659517426273,182.95978552278825" stroke="red" stroke-width="1" fill="none" />
<path d="M1010.6487935656836,163.7855227882037 L988.2788203753352,141.41554959785526" stroke="red" stroke-width="1" fill="none" />
<path d="M1033.0187667560322,141.41554959785526 L1010.6487935656836,163.7855227882037" stroke="red" stroke-width="1" fill="none" />
<path d="M969.1045576407506,4.0 L1192.8042895442359,4.0" stroke="red" stroke-width="1" fill="none" />
<path d="M1192.8042895442359,4.0 L1192.8042895442359,224.50402144772124" stroke="red" stroke-width="1" fill="none" />
<path d="M930.7560321715818,64.71849865951754 L969.1045576407506,64.71849865951754" stroke="red" stroke-width="1" fill="none" />
<path d="M879.6246648793566,218.11260053619299 L889.2117962466488,218.11260053619299" stroke="red" stroke-width="1" fill="none" />
<path d="M889.2117962466488,218.11260053619299 L898.7989276139409,218.11260053619299" stroke="red" stroke-width="1" fill="none" />
<path d="M898.7989276139409,218.11260053619299 L905.1903485254692,218.11260053619299" stroke="red" stroke-width="1" fill="none" />
<path d="M905.1903485254692,243.67828418230556 L898.7989276139409,243.67828418230556" stroke="red" stroke-width="1" fill="none" />
<path d="M898.7989276139409,243.67828418230556 L889.2117962466488,243.67828418230556" stroke="red" stroke-width="1" fill="none" />
<path d="M889.2117962466488,243.67828418230556 L879.6246648793566,243.67828418230556" stroke="red" stroke-width="1" fill="none" />
<path d="M1033.0187667560322,218.11260053619299 L1039.4101876675604,218.11260053619299" stroke="red" stroke-width="1" fill="none" />
<path d="M1039.4101876675604,218.11260053619299 L1048.9973190348524,218.11260053619299" stroke="red" stroke-width="1" fill="none" />
<path d="M1048.9973190348524,218.11260053619299 L1058.5844504021447,218.11260053619299" stroke="red" stroke-width="1" fill="none" />
<path d="M1058.5844504021447,243.67828418230556 L1048.9973190348524,243.67828418230556" stroke="red" stroke-width="1" fill="none" />
<path d="M1048.9973190348524,243.67828418230556 L1039.4101876675604,243.67828418230556" stroke="red" stroke-width="1" fill="none" />
<path d="M1039.4101876675604,243.67828418230556 L1033.0187667560322,243.67828418230556" stroke="red" stroke-width="1" fill="none" />
<path d="M1007.4530831099195,64.71849865951754 L1058.5844504021447,64.71849865951754" stroke="red" stroke-width="1" fill="none" />
<path d="M1084.1501340482573,64.71849865951754 L1109.71581769437,64.71849865951754" stroke="red" stroke-width="1" fill="none" />
<path d="M1058.5844504021447,48.73994638069712 L1007.4530831099195,48.73994638069712" stroke="red" stroke-width="1" fill="none" />
<path d="M1058.5844504021447,64.71849865951754 L1058.5844504021447,48.73994638069712" stroke="red" stroke-width="1" fill="none" />
<path d="M1084.1501340482573,48.73994638069712 L1084.1501340482573,64.71849865951754" stroke="red" stroke-width="1" fill="none" />
<path d="M1109.71581769437,64.71849865951754 L1109.71581769437,48.73994638069712" stroke="red" stroke-width="1" fill="none" />
<path d="M1109.71581769437,48.73994638069712 L1084.1501340482573,48.73994638069712" stroke="red" stroke-width="1" fill="none" />
<path d="M1135.2815013404825,90.28418230563011 L1135.2815013404825,115.84986595174269" stroke="red" stroke-width="1" fill="none" />
<path d="M1135.2815013404825,115.84986595174269 L1151.260053619303,115.84986595174269" stroke="red" stroke-width="1" fill="none" />
<path d="M1151.260053619303,115.84986595174269 L1151.260053619303,90.28418230563011" stroke="red" stroke-width="1" fill="none" />
<path d="M1151.260053619303,90.28418230563011 L1135.2815013404825,90.28418230563011" stroke="red" stroke-width="1" fill="none" />
<path d="M1135.2815013404825,141.41554959785526 L1135.2815013404825,186.15549597855238" stroke="red" stroke-width="1" fill="none" />
<path d="M1151.260053619303,186.15549597855238 L1151.260053619303,141.41554959785526" stroke="red" stroke-width="1" fill="none" />
<path d="M1151.260053619303,141.41554959785526 L1135.2815013404825,141.41554959785526" stroke="red" stroke-width="1" fill="none" />
<path d="M1135.2815013404825,224.50402144772124 L1135.2815013404825,237.28686327077753" stroke="red" stroke-width="1" fill="none" />
<path d="M1196.0,237.28686327077753 L1196.0,480.1608579088472" stroke="red" stroke-width="1" fill="none" />
<path d="M1196.0,480.1608579088472 L828.4932975871315,480.1608579088472" stroke="red" stroke-width="1" fill="none" />
<path d="M969.1045576407506,397.07238605898124 L930.7560321715818,397.07238605898124" stroke="red" stroke-width="1" fill="none" />
<path d="M1135.2815013404825,275.6353887399464 L1135.2815013404825,320.3753351206435" stroke="red" stroke-width="1" fill="none" />
<path d="M1135.2815013404825,320.3753351206435 L1151.260053619303,320.3753351206435" stroke="red" stroke-width="1" fill="none" />
<path d="M1151.260053619303,320.3753351206435 L1151.260053619303,275.6353887399464" stroke="red" stroke-width="1" fill="none" />
<path d="M1135.2815013404825,345.9410187667561 L1135.2815013404825,371.50670241286866" stroke="red" stroke-width="1" fill="none" />
<path d="M1135.2815013404825,371.50670241286866 L1148.064343163539,371.50670241286866" stroke="red" stroke-width="1" fill="none" />
<path d="M1148.064343163539,371.50670241286866 L1148.064343163539,345.9410187667561" stroke="red" stroke-width="1" fill="none" />
<path d="M1148.064343163539,345.9410187667561 L1135.2815013404825,345.9410187667561" stroke="red" stroke-width="1" fill="none" />
<path d="M1109.71581769437,397.07238605898124 L1084.1501340482573,397.07238605898124" stroke="red" stroke-width="1" fill="none" />
<path d="M1084.1501340482573,397.07238605898124 L1084.1501340482573,413.05093833780165" stroke="red" stroke-width="1" fill="none" />
<path d="M1084.1501340482573,413.05093833780165 L1109.71581769437,413.05093833780165" stroke="red" stroke-width="1" fill="none" />
<path d="M1109.71581769437,413.05093833780165 L1109.71581769437,397.07238605898124" stroke="red" stroke-width="1" fill="none" />
<path d="M1058.5844504021447,397.07238605898124 L1007.4530831099195,397.07238605898124" stroke="red" stroke-width="1" fill="none" />
<path d="M1007.4530831099195,413.05093833780165 L1058.5844504021447,413.05093833780165" stroke="red" stroke-width="1" fill="none" />
<path d="M1058.5844504021447,413.05093833780165 L1058.5844504021447,397.07238605898124" stroke="red" stroke-width="1" fill="none" />
<path d="M956.3217158176943,166.98123324396784 L981.8873994638069,166.98123324396784" stroke="red" stroke-width="1" fill="none" />
<path d="M988.2788203753352,141.41554959785526 L949.9302949061663,141.41554959785526" stroke="red" stroke-width="1" fill="none" />
<path d="M981.8873994638069,294.80965147453094 L956.3217158176943,294.80965147453094" stroke="red" stroke-width="1" fill="none" />
<path d="M1151.260053619303,237.28686327077753 L1196.0,237.28686327077753" stroke="red" stroke-width="1" fill="none" />
<path d="M1141.6729222520107,237.28686327077753 L1144.8686327077749,237.28686327077753" stroke="red" stroke-width="1" fill="none" />
<path d="M1135.2815013404825,237.28686327077753 L1141.6729222520107,237.28686327077753" stroke="red" stroke-width="1" fill="none" />
<path d="M1144.8686327077749,275.6353887399464 L1141.6729222520107,275.6353887399464" stroke="red" stroke-width="1" fill="none" />
<path d="M1141.6729222520107,275.6353887399464 L1135.2815013404825,275.6353887399464" stroke="red" stroke-width="1" fill="none" />
<path d="M1135.2815013404825,186.15549597855238 L1141.6729222520107,186.15549597855238" stroke="red" stroke-width="1" fill="none" />
<path d="M1141.6729222520107,186.15549597855238 L1144.8686327077749,186.15549597855238" stroke="red" stroke-width="1" fill="none" />
<path d="M1192.8042895442359,224.50402144772124 L1151.260053619303,224.50402144772124" stroke="red" stroke-width="1" fill="none" />
<path d="M1144.8686327077749,224.50402144772124 L1141.6729222520107,224.50402144772124" stroke="red" stroke-width="1" fill="none" />
<path d="M1141.6729222520107,224.50402144772124 L1135.2815013404825,224.50402144772124" stroke="red" stroke-width="1" fill="none" />
<path d="M1007.4530831099195,397.07238605898124 L1007.4530831099195,403.46380697050927" stroke="red" stroke-width="1" fill="none" />
<path d="M1007.4530831099195,403.46380697050927 L1007.4530831099195,406.6595174262734" stroke="red" stroke-width="1" fill="none" />
<path d="M969.1045576407506,406.6595174262734 L969.1045576407506,403.46380697050927" stroke="red" stroke-width="1" fill="none" />
<path d="M969.1045576407506,403.46380697050927 L969.1045576407506,397.07238605898124" stroke="red" stroke-width="1" fill="none" />
<path d="M879.6246648793566,413.05093833780165 L969.1045576407506,413.05093833780165" stroke="red" stroke-width="1" fill="none" />
<path d="M828.4932975871315,413.05093833780165 L854.058981233244,413.05093833780165" stroke="red" stroke-width="1" fill="none" />
<path d="M828.4932975871315,480.1608579088472 L828.4932975871315,413.05093833780165" stroke="red" stroke-width="1" fill="none" />
<path d="M879.6246648793566,397.07238605898124 L879.6246648793566,413.05093833780165" stroke="red" stroke-width="1" fill="none" />
<path d="M854.058981233244,413.05093833780165 L854.058981233244,397.07238605898124" stroke="red" stroke-width="1" fill="none" />
<path d="M930.7560321715818,397.07238605898124 L879.6246648793566,397.07238605898124" stroke="red" stroke-width="1" fill="none" />
<path d="M368.31099195710465,205.3297587131367 L470.57372654155495,90.28418230563011" stroke="red" stroke-width="1" fill="none" />
<path d="M470.57372654155495,371.50670241286866 L368.31099195710465,256.46112600536185" stroke="red" stroke-width="1" fill="none" />
<path d="M112.65415549597856,186.15549597855238 L103.0670241286864,186.15549597855238" stroke="red" stroke-width="1" fill="none" />
<path d="M112.65415549597856,147.8069705093833 L112.65415549597856,122.24128686327072" stroke="red" stroke-width="1" fill="none" />
<path d="M106.26273458445041,115.84986595174269 L106.26273458445041,141.41554959785526" stroke="red" stroke-width="1" fill="none" />
<path d="M103.0670241286864,147.8069705093833 L112.65415549597856,147.8069705093833" stroke="red" stroke-width="1" fill="none" />
<path d="M55.131367292225264,141.41554959785526 L55.131367292225264,90.28418230563011" stroke="red" stroke-width="1" fill="none" />
<path d="M10.391420911528144,154.19839142091155 L10.391420911528144,147.8069705093833" stroke="red" stroke-width="1" fill="none" />
<path d="M10.391420911528144,186.15549597855238 L10.391420911528144,179.76407506702412" stroke="red" stroke-width="1" fill="none" />
<path d="M4.0,154.19839142091155 L10.391420911528144,154.19839142091155" stroke="red" stroke-width="1" fill="none" />
<path d="M10.391420911528144,179.76407506702412 L4.0,179.76407506702412" stroke="red" stroke-width="1" fill="none" />
<path d="M4.0,179.76407506702412 L4.0,154.19839142091155" stroke="red" stroke-width="1" fill="none" />
<path d="M106.26273458445041,141.41554959785526 L93.47989276139413,141.41554959785526" stroke="red" stroke-width="1" fill="none" />
<path d="M67.91420911528155,141.41554959785526 L55.131367292225264,141.41554959785526" stroke="red" stroke-width="1" fill="none" />
<path d="M10.391420911528144,147.8069705093833 L67.91420911528155,147.8069705093833" stroke="red" stroke-width="1" fill="none" />
<path d="M99.87131367292227,147.8069705093833 L103.0670241286864,147.8069705093833" stroke="red" stroke-width="1" fill="none" />
<path d="M103.0670241286864,186.15549597855238 L99.87131367292227,186.15549597855238" stroke="red" stroke-width="1" fill="none" />
<path d="M99.87131367292227,186.15549597855238 L10.391420911528144,186.15549597855238" stroke="red" stroke-width="1" fill="none" />
<path d="M93.47989276139413,141.41554959785526 L93.47989276139413,147.8069705093833" stroke="red" stroke-width="1" fill="none" />
<path d="M67.91420911528155,147.8069705093833 L67.91420911528155,141.41554959785526" stroke="red" stroke-width="1" fill="none" />
<path d="M93.47989276139413,147.8069705093833 L99.87131367292227,147.8069705093833" stroke="red" stroke-width="1" fill="none" />
<path d="M112.65415549597856,192.5469168900804 L112.65415549597856,186.15549597855238" stroke="red" stroke-width="1" fill="none" />
<path d="M112.65415549597856,262.8525469168901 L112.65415549597856,230.89544235924927" stroke="red" stroke-width="1" fill="none" />
<path d="M112.65415549597856,230.89544235924927 L112.65415549597856,221.30831099195711" stroke="red" stroke-width="1" fill="none" />
<path d="M112.65415549597856,221.30831099195711 L112.65415549597856,211.72117962466496" stroke="red" stroke-width="1" fill="none" />
<path d="M112.65415549597856,211.72117962466496 L112.65415549597856,202.13404825737257" stroke="red" stroke-width="1" fill="none" />
<path d="M112.65415549597856,202.13404825737257 L112.65415549597856,192.5469168900804" stroke="red" stroke-width="1" fill="none" />
<path d="M317.17962466487927,64.71849865951754 L342.7453083109921,90.28418230563011" stroke="red" stroke-width="1" fill="none" />
<path d="M55.131367292225264,90.28418230563011 L80.69705093833784,64.71849865951754" stroke="red" stroke-width="1" fill="none" />
<path d="M182.95978552278825,345.9410187667561 L182.95978552278825,288.4182305630027" stroke="red" stroke-width="1" fill="none" />
<path d="M182.95978552278825,288.4182305630027 L182.95978552278825,269.24396782841814" stroke="red" stroke-width="1" fill="none" />
<path d="M176.5683646112601,272.43967828418226 L176.5683646112601,345.9410187667561" stroke="red" stroke-width="1" fill="none" />
<path d="M115.84986595174269,345.9410187667561 L115.84986595174269,272.43967828418226" stroke="red" stroke-width="1" fill="none" />
<path d="M115.84986595174269,272.43967828418226 L122.24128686327083,272.43967828418226" stroke="red" stroke-width="1" fill="none" />
<path d="M122.24128686327083,272.43967828418226 L122.24128686327083,269.24396782841814" stroke="red" stroke-width="1" fill="none" />
<path d="M122.24128686327083,262.8525469168901 L112.65415549597856,262.8525469168901" stroke="red" stroke-width="1" fill="none" />
<path d="M182.95978552278825,262.8525469168901 L170.17694369973196,262.8525469168901" stroke="red" stroke-width="1" fill="none" />
<path d="M170.17694369973196,272.43967828418226 L176.5683646112601,272.43967828418226" stroke="red" stroke-width="1" fill="none" />
<path d="M170.17694369973196,269.24396782841814 L170.17694369973196,272.43967828418226" stroke="red" stroke-width="1" fill="none" />
<path d="M170.17694369973196,262.8525469168901 L170.17694369973196,269.24396782841814" stroke="red" stroke-width="1" fill="none" />
<path d="M122.24128686327083,269.24396782841814 L122.24128686327083,262.8525469168901" stroke="red" stroke-width="1" fill="none" />
<path d="M969.1045576407506,64.71849865951754 L969.1045576407506,58.32707774798928" stroke="red" stroke-width="1" fill="none" />
<path d="M969.1045576407506,58.32707774798928 L969.1045576407506,55.13136729222515" stroke="red" stroke-width="1" fill="none" />
<path d="M1007.4530831099195,55.13136729222515 L1007.4530831099195,58.32707774798928" stroke="red" stroke-width="1" fill="none" />
<path d="M1007.4530831099195,58.32707774798928 L1007.4530831099195,64.71849865951754" stroke="red" stroke-width="1" fill="none" />
<path d="M614.3806970509385,397.07238605898124 L470.57372654155495,397.07238605898124" stroke="red" stroke-width="1" fill="none" />
<path d="M623.9678284182306,397.07238605898124 L614.3806970509385,397.07238605898124" stroke="red" stroke-width="1" fill="none" />
<path d="M710.2520107238605,397.07238605898124 L700.6648793565683,397.07238605898124" stroke="red" stroke-width="1" fill="none" />
<path d="M623.9678284182306,473.76943699731896 L623.9678284182306,397.07238605898124" stroke="red" stroke-width="1" fill="none" />
<path d="M700.6648793565683,397.07238605898124 L700.6648793565683,473.76943699731896" stroke="red" stroke-width="1" fill="none" />
<path d="M598.402144772118,473.76943699731896 L623.9678284182306,473.76943699731896" stroke="red" stroke-width="1" fill="none" />
<path d="M598.402144772118,502.53083109919567 L598.402144772118,473.76943699731896" stroke="red" stroke-width="1" fill="none" />
<path d="M700.6648793565683,473.76943699731896 L726.2305630026809,473.76943699731896" stroke="red" stroke-width="1" fill="none" />
<path d="M726.2305630026809,473.76943699731896 L726.2305630026809,502.53083109919567" stroke="red" stroke-width="1" fill="none" />
<path d="M726.2305630026809,502.53083109919567 L598.402144772118,502.53083109919567" stroke="red" stroke-width="1" fill="none" />
<path d="M949.9302949061663,320.3753351206435 L988.2788203753352,320.3753351206435" stroke="red" stroke-width="1" fill="none" />
<path d="M470.57372654155495,64.71849865951754 L598.402144772118,64.71849865951754" stroke="red" stroke-width="1" fill="none" />
<path d="M623.9678284182306,39.152815013404734 L623.9678284182306,64.71849865951754" stroke="red" stroke-width="1" fill="none" />
<path d="M598.402144772118,39.152815013404734 L623.9678284182306,39.152815013404734" stroke="red" stroke-width="1" fill="none" />
<path d="M598.402144772118,64.71849865951754 L598.402144772118,39.152815013404734" stroke="red" stroke-width="1" fill="none" />
<path d="M969.1045576407506,48.73994638069712 L930.7560321715818,48.73994638069712" stroke="red" stroke-width="1" fill="none" />
<path d="M930.7560321715818,48.73994638069712 L930.7560321715818,4.0" stroke="red" stroke-width="1" fill="none" />
<path d="M342.7453083109921,320.3753351206435 L393.8766756032172,320.3753351206435" stroke="red" stroke-width="1" fill="none" />
<path d="M393.8766756032172,320.3753351206435 L393.8766756032172,441.81233243967836" stroke="red" stroke-width="1" fill="none" />
<path d="M317.17962466487927,441.81233243967836 L317.17962466487927,345.9410187667561" stroke="red" stroke-width="1" fill="none" />
<path d="M393.8766756032172,441.81233243967836 L368.31099195710465,441.81233243967836" stroke="red" stroke-width="1" fill="none" />
<path d="M368.31099195710465,448.2037533512064 L368.31099195710465,451.3994638069705" stroke="red" stroke-width="1" fill="none" />
<path d="M368.31099195710465,454.59517426273464 L521.7050938337801,454.59517426273464" stroke="red" stroke-width="1" fill="none" />
<path d="M189.3512064343164,454.59517426273464 L342.7453083109921,454.59517426273464" stroke="red" stroke-width="1" fill="none" />
<path d="M342.7453083109921,451.3994638069705 L342.7453083109921,448.2037533512064" stroke="red" stroke-width="1" fill="none" />
<path d="M342.7453083109921,441.81233243967836 L317.17962466487927,441.81233243967836" stroke="red" stroke-width="1" fill="none" />
<path d="M521.7050938337801,454.59517426273464 L521.7050938337801,489.7479892761394" stroke="red" stroke-width="1" fill="none" />
<path d="M521.7050938337801,678.2949061662198 L521.7050938337801,703.8605898123325" stroke="red" stroke-width="1" fill="none" />
<path d="M189.3512064343164,489.7479892761394 L189.3512064343164,454.59517426273464" stroke="red" stroke-width="1" fill="none" />
<path d="M189.3512064343164,703.8605898123325 L189.3512064343164,678.2949061662198" stroke="red" stroke-width="1" fill="none" />
<path d="M521.7050938337801,489.7479892761394 L521.7050938337801,524.9008042895443" stroke="red" stroke-width="1" fill="none" />
<path d="M521.7050938337801,524.9008042895443 L521.7050938337801,576.0321715817694" stroke="red" stroke-width="1" fill="none" />
<path d="M393.8766756032172,703.8605898123325 L393.8766756032172,710.2520107238606" stroke="red" stroke-width="1" fill="none" />
<path d="M317.17962466487927,710.2520107238606 L317.17962466487927,703.8605898123325" stroke="red" stroke-width="1" fill="none" />
<path d="M189.3512064343164,544.0750670241287 L189.3512064343164,489.7479892761394" stroke="red" stroke-width="1" fill="none" />
<path d="M189.3512064343164,652.7292225201072 L189.3512064343164,607.9892761394102" stroke="red" stroke-width="1" fill="none" />
<path d="M189.3512064343164,607.9892761394102 L179.76407506702412,607.9892761394102" stroke="red" stroke-width="1" fill="none" />
<path d="M179.76407506702412,544.0750670241287 L189.3512064343164,544.0750670241287" stroke="red" stroke-width="1" fill="none" />
<path d="M189.3512064343164,678.2949061662198 L189.3512064343164,652.7292225201072" stroke="red" stroke-width="1" fill="none" />
<path d="M179.76407506702412,569.6407506702412 L179.76407506702412,544.0750670241287" stroke="lavender" stroke-width="1" fill="none" />
<path d="M186.15549597855227,569.6407506702412 L179.76407506702412,569.6407506702412" stroke="red" stroke-width="1" fill="none" />
<path d="M179.76407506702412,607.9892761394102 L179.76407506702412,582.4235924932976" stroke="lavender" stroke-width="1" fill="none" />
<path d="M179.76407506702412,582.4235924932976 L186.15549597855227,582.4235924932976" stroke="red" stroke-width="1" fill="none" />
<path d="M186.15549597855227,582.4235924932976 L186.15549597855227,569.6407506702412" stroke="red" stroke-width="1" fill="none" />
<path d="M521.7050938337801,665.5120643431635 L521.7050938337801,678.2949061662198" stroke="red" stroke-width="1" fill="none" />
<path d="M521.7050938337801,576.0321715817694 L521.7050938337801,588.8150134048258" stroke="red" stroke-width="1" fill="none" />
<path d="M528.0965147453084,588.8150134048258 L534.4879356568364,588.8150134048258" stroke="red" stroke-width="1" fill="none" />
<path d="M534.4879356568364,588.8150134048258 L588.8150134048257,588.8150134048258" stroke="red" stroke-width="1" fill="none" />
<path d="M588.8150134048257,588.8150134048258 L588.8150134048257,665.5120643431635" stroke="red" stroke-width="1" fill="none" />
<path d="M588.8150134048257,665.5120643431635 L534.4879356568364,665.5120643431635" stroke="red" stroke-width="1" fill="none" />
<path d="M534.4879356568364,665.5120643431635 L528.0965147453084,665.5120643431635" stroke="red" stroke-width="1" fill="none" />
<path d="M317.17962466487927,716.6434316353888 L317.17962466487927,710.2520107238606" stroke="red" stroke-width="1" fill="none" />
<path d="M393.8766756032172,710.2520107238606 L393.8766756032172,716.6434316353888" stroke="red" stroke-width="1" fill="none" />
<path d="M393.8766756032172,716.6434316353888 L393.8766756032172,723.0348525469169" stroke="red" stroke-width="1" fill="none" />
<path d="M291.6139410187668,790.1447721179625 L291.6139410187668,723.0348525469169" stroke="red" stroke-width="1" fill="none" />
<path d="M291.6139410187668,723.0348525469169 L317.17962466487927,723.0348525469169" stroke="red" stroke-width="1" fill="none" />
<path d="M317.17962466487927,723.0348525469169 L317.17962466487927,716.6434316353888" stroke="red" stroke-width="1" fill="none" />
<path d="M393.8766756032172,723.0348525469169 L419.4423592493298,723.0348525469169" stroke="red" stroke-width="1" fill="none" />
<path d="M419.4423592493298,723.0348525469169 L419.4423592493298,790.1447721179625" stroke="red" stroke-width="1" fill="none" />
<path d="M496.1394101876675,703.8605898123325 L393.8766756032172,703.8605898123325" stroke="red" stroke-width="1" fill="none" />
<path d="M521.7050938337801,703.8605898123325 L521.7050938337801,729.426273458445" stroke="red" stroke-width="1" fill="none" />
<path d="M521.7050938337801,729.426273458445 L496.1394101876675,729.426273458445" stroke="red" stroke-width="1" fill="none" />
<path d="M496.1394101876675,729.426273458445 L496.1394101876675,703.8605898123325" stroke="red" stroke-width="1" fill="none" />
<path d="M464.1823056300269,64.71849865951754 L470.57372654155495,64.71849865951754" stroke="red" stroke-width="1" fill="none" />
<path d="M445.0080428954424,64.71849865951754 L464.1823056300269,64.71849865951754" stroke="red" stroke-width="1" fill="none" />
<path d="M464.1823056300269,90.28418230563011 L445.0080428954424,90.28418230563011" stroke="red" stroke-width="1" fill="none" />
<path d="M470.57372654155495,90.28418230563011 L464.1823056300269,90.28418230563011" stroke="red" stroke-width="1" fill="none" />
<path d="M445.0080428954424,90.28418230563011 L419.4423592493298,90.28418230563011" stroke="red" stroke-width="1" fill="none" />
<path d="M419.4423592493298,90.28418230563011 L419.4423592493298,64.71849865951754" stroke="red" stroke-width="1" fill="none" />
<path d="M419.4423592493298,64.71849865951754 L445.0080428954424,64.71849865951754" stroke="red" stroke-width="1" fill="none" />
<path d="M969.1045576407506,413.05093833780165 L969.1045576407506,406.6595174262734" stroke="red" stroke-width="1" fill="none" />
<path d="M1007.4530831099195,406.6595174262734 L1007.4530831099195,413.05093833780165" stroke="red" stroke-width="1" fill="none" />
<path d="M1151.260053619303,275.6353887399464 L1144.8686327077749,275.6353887399464" stroke="red" stroke-width="1" fill="none" />
<path d="M1144.8686327077749,186.15549597855238 L1151.260053619303,186.15549597855238" stroke="red" stroke-width="1" fill="none" />
<path d="M1007.4530831099195,48.73994638069712 L1007.4530831099195,55.13136729222515" stroke="red" stroke-width="1" fill="none" />
<path d="M969.1045576407506,55.13136729222515 L969.1045576407506,48.73994638069712" stroke="red" stroke-width="1" fill="none" />
<path d="M1144.8686327077749,237.28686327077753 L1151.260053619303,237.28686327077753" stroke="red" stroke-width="1" fill="none" />
<path d="M1151.260053619303,224.50402144772124 L1144.8686327077749,224.50402144772124" stroke="red" stroke-width="1" fill="none" />
<path d="M349.1367292225201,256.46112600536185 L342.7453083109921,256.46112600536185" stroke="red" stroke-width="1" fill="none" />
<path d="M342.7453083109921,205.3297587131367 L349.1367292225201,205.3297587131367" stroke="red" stroke-width="1" fill="none" />
<path d="M342.7453083109921,448.2037533512064 L342.7453083109921,441.81233243967836" stroke="red" stroke-width="1" fill="none" />
<path d="M368.31099195710465,441.81233243967836 L368.31099195710465,448.2037533512064" stroke="red" stroke-width="1" fill="none" />
<path d="M528.0965147453084,665.5120643431635 L521.7050938337801,665.5120643431635" stroke="red" stroke-width="1" fill="none" />
<path d="M521.7050938337801,588.8150134048258 L528.0965147453084,588.8150134048258" stroke="red" stroke-width="1" fill="none" />
<path d="M342.7453083109921,790.1447721179625 L291.6139410187668,790.1447721179625" stroke="red" stroke-width="1" fill="none" />
<path d="M419.4423592493298,790.1447721179625 L368.31099195710465,790.1447721179625" stroke="red" stroke-width="1" fill="none" />
<path d="M368.31099195710465,790.1447721179625 L368.31099195710465,796.5361930294906" stroke="red" stroke-width="1" fill="none" />
<path d="M368.31099195710465,796.5361930294906 L342.7453083109921,796.5361930294906" stroke="lavender" stroke-width="1" fill="none" />
<path d="M342.7453083109921,796.5361930294906 L342.7453083109921,790.1447721179625" stroke="red" stroke-width="1" fill="none" />
<path d="M930.7560321715818,4.0 L969.1045576407506,4.0" stroke="red" stroke-width="1" fill="none" />
<path d="M342.7453083109921,454.59517426273464 L342.7453083109921,451.3994638069705" stroke="red" stroke-width="1" fill="none" />
<path d="M368.31099195710465,451.3994638069705 L368.31099195710465,454.59517426273464" stroke="red" stroke-width="1" fill="none" />
<path d="M317.17962466487927,703.8605898123325 L214.91689008042897,703.8605898123325" stroke="red" stroke-width="1" fill="none" />
<path d="M214.91689008042897,703.8605898123325 L189.3512064343164,703.8605898123325" stroke="red" stroke-width="1" fill="none" />
<path d="M464.1823056300269,397.07238605898124 L457.79088471849866,397.07238605898124" stroke="red" stroke-width="1" fill="none" />
<path d="M457.79088471849866,371.50670241286866 L464.1823056300269,371.50670241286866" stroke="red" stroke-width="1" fill="none" />
<path d="M409.85522788203764,397.07238605898124 L409.85522788203764,371.50670241286866" stroke="red" stroke-width="1" fill="none" />
<path d="M464.1823056300269,371.50670241286866 L467.3780160857908,371.50670241286866" stroke="red" stroke-width="1" fill="none" />
<path d="M467.3780160857908,371.50670241286866 L470.57372654155495,371.50670241286866" stroke="red" stroke-width="1" fill="none" />
<path d="M470.57372654155495,397.07238605898124 L467.3780160857908,397.07238605898124" stroke="red" stroke-width="1" fill="none" />
<path d="M467.3780160857908,397.07238605898124 L464.1823056300269,397.07238605898124" stroke="red" stroke-width="1" fill="none" />
<path d="M409.85522788203764,371.50670241286866 L445.0080428954424,371.50670241286866" stroke="red" stroke-width="1" fill="none" />
<path d="M445.0080428954424,371.50670241286866 L457.79088471849866,371.50670241286866" stroke="red" stroke-width="1" fill="none" />
<path d="M457.79088471849866,397.07238605898124 L445.0080428954424,397.07238605898124" stroke="red" stroke-width="1" fill="none" />
<path d="M445.0080428954424,397.07238605898124 L409.85522788203764,397.07238605898124" stroke="red" stroke-width="1" fill="none" />
<path d="M176.5683646112601,345.9410187667561 L163.78552278820382,345.9410187667561" stroke="red" stroke-width="1" fill="none" />
<path d="M138.21983914209113,345.9410187667561 L115.84986595174269,345.9410187667561" stroke="red" stroke-width="1" fill="none" />
<path d="M163.78552278820382,345.9410187667561 L163.78552278820382,352.3324396782841" stroke="red" stroke-width="1" fill="none" />
<path d="M138.21983914209113,352.3324396782841 L138.21983914209113,345.9410187667561" stroke="red" stroke-width="1" fill="none" />
<path d="M163.78552278820382,397.07238605898124 L138.21983914209113,397.07238605898124" stroke="red" stroke-width="1" fill="none" />
<path d="M163.78552278820382,352.3324396782841 L163.78552278820382,371.50670241286866" stroke="red" stroke-width="1" fill="none" />
<path d="M163.78552278820382,371.50670241286866 L163.78552278820382,397.07238605898124" stroke="red" stroke-width="1" fill="none" />
<path d="M138.21983914209113,397.07238605898124 L138.21983914209113,371.50670241286866" stroke="red" stroke-width="1" fill="none" />
<path d="M138.21983914209113,371.50670241286866 L138.21983914209113,352.3324396782841" stroke="red" stroke-width="1" fill="none" />
</svg>