<?xml version="1.0" encoding="UTF-8"?>
<svg xmlns="http://www.w3.org/2000/svg" xmlns:xlink="http://www.w3.org/1999/xlink"
     width="1200" height="1215" viewBox="0 0 1200 1215">
<defs>
</defs>
<path d="M639.7333333333333,623.84 L655.6266666666667,623.84" stroke="yellow" stroke-width="1" fill="none" />
<path d="M655.6266666666667,623.84 L655.6266666666667,615.8933333333333" stroke="yellow" stroke-width="1" fill="none" />
<path d="M655.6266666666667,615.8933333333333 L655.6266666666667,607.9466666666667" stroke="yellow" stroke-width="1" fill="none" />
<path d="M655.6266666666667,607.9466666666667 L655.6266666666667,600.0" stroke="yellow" stroke-width="1" fill="none" />
<path d="M655.6266666666667,600.0 L655.6266666666667,592.0533333333333" stroke="yellow" stroke-width="1" fill="none" />
<path d="M655.6266666666667,592.0533333333333 L655.6266666666667,584.1066666666667" stroke="yellow" stroke-width="1" fill="none" />
<path d="M655.6266666666667,584.1066666666667 L655.6266666666667,576.16" stroke="yellow" stroke-width="1" fill="none" />
<path d="M719.2,576.16 L735.0933333333334,576.16" stroke="yellow" stroke-width="1" fill="none" />
<path d="M719.2,631.7866666666666 L735.0933333333334,631.7866666666666" stroke="yellow" stroke-width="1" fill="none" />
<path d="M735.0933333333334,631.7866666666666 L735.0933333333334,623.84" stroke="yellow" stroke-width="1" fill="none" />
<path d="M735.0933333333334,623.84 L735.0933333333334,615.8933333333333" stroke="yellow" stroke-width="1" fill="none" />
<path d="M735.0933333333334,615.8933333333333 L735.0933333333334,607.9466666666667" stroke="yellow" stroke-width="1" fill="none" />
<path d="M735.0933333333334,607.9466666666667 L735.0933333333334,600.0" stroke="yellow" stroke-width="1" fill="none" />
<path d="M735.0933333333334,600.0 L735.0933333333334,592.0533333333333" stroke="yellow" stroke-width="1" fill="none" />
<path d="M735.0933333333334,592.0533333333333 L735.0933333333334,584.1066666666667" stroke="yellow" stroke-width="1" fill="none" />
<path d="M735.0933333333334,584.1066666666667 L735.0933333333334,576.16" stroke="yellow" stroke-width="1" fill="none" />
<path d="M719.2,623.84 L735.0933333333334,623.84" stroke="yellow" stroke-width="1" fill="none" />
<path d="M719.2,615.8933333333333 L735.0933333333334,615.8933333333333" stroke="yellow" stroke-width="1" fill="none" />
<path d="M719.2,607.9466666666667 L735.0933333333334,607.9466666666667" stroke="yellow" stroke-width="1" fill="none" />
<path d="M719.2,600.0 L735.0933333333334,600.0" stroke="yellow" stroke-width="1" fill="none" />
<path d="M719.2,592.0533333333333 L735.0933333333334,592.0533333333333" stroke="yellow" stroke-width="1" fill="none" />
<path d="M719.2,584.1066666666667 L735.0933333333334,584.1066666666667" stroke="yellow" stroke-width="1" fill="none" />
<path d="M671.52,663.5733333333334 L671.52,647.68" stroke="yellow" stroke-width="1" fill="none" />
<path d="M669.5333333333333,663.5733333333334 L669.5333333333333,647.68" stroke="lavender" stroke-width="1" fill="none" />
<path d="M667.5466666666666,647.68 L667.5466666666666,663.5733333333334" stroke="lavender" stroke-width="1" fill="none" />
<path d="M665.56,647.68 L665.56,663.5733333333334" stroke="yellow" stroke-width="1" fill="none" />
<path d="M671.52,546.36 L703.3066666666666,546.36" stroke="yellow" stroke-width="1" fill="none" />
<path d="M703.3066666666666,544.3733333333333 L671.52,544.3733333333333" stroke="yellow" stroke-width="1" fill="none" />
<path d="M735.0933333333334,570.2 L735.0933333333334,576.16" stroke="yellow" stroke-width="1" fill="none" />
<path d="M749.0,570.2 L735.0933333333334,570.2" stroke="yellow" stroke-width="1" fill="none" />
<path d="M735.0933333333334,576.16 L749.0,576.16" stroke="yellow" stroke-width="1" fill="none" />
<path d="M639.7333333333333,615.8933333333333 L655.6266666666667,615.8933333333333" stroke="yellow" stroke-width="1" fill="none" />
<path d="M639.7333333333333,607.9466666666667 L655.6266666666667,607.9466666666667" stroke="yellow" stroke-width="1" fill="none" />
<path d="M639.7333333333333,600.0 L655.6266666666667,600.0" stroke="yellow" stroke-width="1" fill="none" />
<path d="M639.7333333333333,592.0533333333333 L655.6266666666667,592.0533333333333" stroke="yellow" stroke-width="1" fill="none" />
<path d="M639.7333333333333,584.1066666666667 L655.6266666666667,584.1066666666667" stroke="yellow" stroke-width="1" fill="none" />
<path d="M639.7333333333333,576.16 L655.6266666666667,576.16" stroke="yellow" stroke-width="1" fill="none" />
<path d="M617.88,576.16 L633.7733333333333,576.16" stroke="yellow" stroke-width="1" fill="none" />
<path d="M655.6266666666667,576.16 L687.4133333333333,576.16" stroke="yellow" stroke-width="1" fill="none" />
<path d="M687.4133333333333,576.16 L703.3066666666666,576.16" stroke="yellow" stroke-width="1" fill="none" />
<path d="M703.3066666666666,576.16 L717.2133333333334,576.16" stroke="yellow" stroke-width="1" fill="none" />
<path d="M657.6133333333333,782.7733333333333 L657.6133333333333,766.88" stroke="lavender" stroke-width="1" fill="none" />
<path d="M655.6266666666667,766.88 L655.6266666666667,782.7733333333333" stroke="lavender" stroke-width="1" fill="none" />
<path d="M711.2533333333333,852.3066666666666 L727.1466666666666,852.3066666666666" stroke="lavender" stroke-width="1" fill="none" />
<path d="M727.1466666666666,850.3199999999999 L711.2533333333333,850.3199999999999" stroke="lavender" stroke-width="1" fill="none" />
<path d="M727.1466666666666,848.3333333333333 L711.2533333333333,848.3333333333333" stroke="yellow" stroke-width="1" fill="none" />
<path d="M639.7333333333333,764.8933333333333 L655.6266666666667,764.8933333333333" stroke="lavender" stroke-width="1" fill="none" />
<path d="M655.6266666666667,762.9066666666666 L639.7333333333333,762.9066666666666" stroke="lavender" stroke-width="1" fill="none" />
<path d="M655.6266666666667,760.92 L639.7333333333333,760.92" stroke="yellow" stroke-width="1" fill="none" />
<path d="M611.92,830.4533333333334 L643.7066666666667,830.4533333333334" stroke="yellow" stroke-width="1" fill="none" />
<path d="M611.92,828.4666666666667 L643.7066666666667,828.4666666666667" stroke="lavender" stroke-width="1" fill="none" />
<path d="M643.7066666666667,826.48 L611.92,826.48" stroke="lavender" stroke-width="1" fill="none" />
<path d="M643.7066666666667,824.4933333333333 L611.92,824.4933333333333" stroke="yellow" stroke-width="1" fill="none" />
<path d="M711.2533333333333,854.2933333333333 L711.2533333333333,866.2133333333334" stroke="yellow" stroke-width="1" fill="none" />
<path d="M711.2533333333333,866.2133333333334 L727.1466666666666,882.1066666666667" stroke="yellow" stroke-width="1" fill="none" />
<path d="M727.1466666666666,882.1066666666667 L727.1466666666666,854.2933333333333" stroke="yellow" stroke-width="1" fill="none" />
<path d="M723.1733333333333,814.56 L731.12,814.56" stroke="lavender" stroke-width="1" fill="none" />
<path d="M731.12,814.56 L731.12,790.72" stroke="lavender" stroke-width="1" fill="none" />
<path d="M731.12,790.72 L723.1733333333333,790.72" stroke="lavender" stroke-width="1" fill="none" />
<path d="M723.1733333333333,790.72 L723.1733333333333,814.56" stroke="lavender" stroke-width="1" fill="none" />
<path d="M659.6,766.88 L703.3066666666666,766.88" stroke="lavender" stroke-width="1" fill="none" />
<path d="M703.3066666666666,766.88 L703.3066666666666,758.9333333333333" stroke="lavender" stroke-width="1" fill="none" />
<path d="M703.3066666666666,758.9333333333333 L659.6,758.9333333333333" stroke="lavender" stroke-width="1" fill="none" />
<path d="M735.0933333333334,705.2933333333333 L709.2666666666667,679.4666666666667" stroke="yellow" stroke-width="1" fill="none" />
<path d="M705.2933333333333,683.44 L731.12,709.2666666666667" stroke="yellow" stroke-width="1" fill="none" />
<path d="M747.0133333333333,752.9733333333334 L747.0133333333333,768.8666666666667" stroke="yellow" stroke-width="1" fill="none" />
<path d="M749.0,768.8666666666667 L749.0,752.9733333333334" stroke="yellow" stroke-width="1" fill="none" />
<path d="M705.2933333333333,709.2666666666667 L731.12,709.2666666666667" stroke="yellow" stroke-width="1" fill="none" />
<path d="M705.2933333333333,713.24 L731.12,713.24" stroke="yellow" stroke-width="1" fill="none" />
<path d="M705.2933333333333,717.2133333333334 L731.12,717.2133333333334" stroke="yellow" stroke-width="1" fill="none" />
<path d="M705.2933333333333,721.1866666666667 L731.12,721.1866666666667" stroke="yellow" stroke-width="1" fill="none" />
<path d="M705.2933333333333,725.16 L731.12,725.16" stroke="yellow" stroke-width="1" fill="none" />
<path d="M774.8266666666666,832.44 L758.9333333333333,832.44" stroke="yellow" stroke-width="1" fill="none" />
<path d="M758.9333333333333,832.44 L758.9333333333333,848.3333333333333" stroke="yellow" stroke-width="1" fill="none" />
<path d="M774.8266666666666,803.1366666666667 L774.8266666666666,806.1166666666667" stroke="yellow" stroke-width="1" fill="none" />
<path d="M639.7333333333333,782.7733333333333 L655.6266666666667,782.7733333333333" stroke="lavender" stroke-width="1" fill="none" />
<path d="M659.6,782.7733333333333 L659.6,766.88" stroke="yellow" stroke-width="1" fill="none" />
<path d="M774.8266666666666,848.3333333333333 L774.8266666666666,832.44" stroke="yellow" stroke-width="1" fill="none" />
<path d="M758.9333333333333,848.3333333333333 L774.8266666666666,848.3333333333333" stroke="yellow" stroke-width="1" fill="none" />
<path d="M705.2933333333333,848.3333333333333 L699.3333333333334,840.3866666666667" stroke="yellow" stroke-width="1" fill="none" />
<path d="M699.3333333333334,840.3866666666667 L691.3866666666667,840.3866666666667" stroke="yellow" stroke-width="1" fill="none" />
<path d="M691.3866666666667,840.3866666666667 L685.4266666666666,848.3333333333333" stroke="yellow" stroke-width="1" fill="none" />
<path d="M659.6,830.4533333333334 L667.5466666666666,830.4533333333334" stroke="yellow" stroke-width="1" fill="none" />
<path d="M667.5466666666666,830.4533333333334 L667.5466666666666,822.5066666666667" stroke="lavender" stroke-width="1" fill="none" />
<path d="M667.5466666666666,822.5066666666667 L659.6,822.5066666666667" stroke="yellow" stroke-width="1" fill="none" />
<path d="M659.6,810.5866666666666 L671.52,802.64" stroke="yellow" stroke-width="1" fill="none" />
<path d="M671.52,802.64 L659.6,794.6933333333334" stroke="yellow" stroke-width="1" fill="none" />
<path d="M674.5,725.16 L684.4333333333333,725.16" stroke="yellow" stroke-width="1" fill="none" />
<path d="M711.2533333333333,637.7466666666667 L675.4933333333333,637.7466666666667" stroke="yellow" stroke-width="1" fill="none" />
<path d="M675.4933333333333,639.7333333333333 L711.2533333333333,639.7333333333333" stroke="yellow" stroke-width="1" fill="none" />
<path d="M701.3199999999999,693.3733333333333 L701.3199999999999,709.2666666666667" stroke="yellow" stroke-width="1" fill="none" />
<path d="M705.2933333333333,709.2666666666667 L705.2933333333333,693.3733333333333" stroke="yellow" stroke-width="1" fill="none" />
<path d="M615.8933333333333,294.05333333333334 L631.7866666666666,294.05333333333334" stroke="yellow" stroke-width="1" fill="none" />
<path d="M607.9466666666667,226.50666666666666 L747.0133333333333,226.50666666666666" stroke="yellow" stroke-width="1" fill="none" />
<path d="M747.0133333333333,226.50666666666666 L747.0133333333333,290.08000000000004" stroke="yellow" stroke-width="1" fill="none" />
<path d="M750.9866666666667,290.08000000000004 L750.9866666666667,222.53333333333336" stroke="yellow" stroke-width="1" fill="none" />
<path d="M750.9866666666667,222.53333333333336 L607.9466666666667,222.53333333333336" stroke="yellow" stroke-width="1" fill="none" />
<path d="M464.90666666666664,226.50666666666666 L449.0133333333333,258.29333333333335" stroke="yellow" stroke-width="1" fill="none" />
<path d="M449.0133333333333,258.29333333333335 L464.90666666666664,288.09333333333336" stroke="yellow" stroke-width="1" fill="none" />
<path d="M464.90666666666664,288.09333333333336 L496.6933333333333,288.09333333333336" stroke="yellow" stroke-width="1" fill="none" />
<path d="M496.6933333333333,288.09333333333336 L512.5866666666667,258.29333333333335" stroke="yellow" stroke-width="1" fill="none" />
<path d="M512.5866666666667,258.29333333333335 L496.6933333333333,226.50666666666666" stroke="yellow" stroke-width="1" fill="none" />
<path d="M472.85333333333335,242.40000000000003 L488.74666666666667,242.40000000000003" stroke="lavender" stroke-width="1" fill="none" />
<path d="M401.33333333333337,367.56 L401.33333333333337,337.76" stroke="lavender" stroke-width="1" fill="none" />
<path d="M397.36,337.76 L397.36,367.56" stroke="yellow" stroke-width="1" fill="none" />
<path d="M449.0133333333333,321.8666666666667 L433.12,321.8666666666667" stroke="yellow" stroke-width="1" fill="none" />
<path d="M449.0133333333333,325.84000000000003 L433.12,325.84000000000003" stroke="lavender" stroke-width="1" fill="none" />
<path d="M433.12,327.82666666666665 L449.0133333333333,327.82666666666665" stroke="yellow" stroke-width="1" fill="none" />
<path d="M433.12,329.81333333333333 L449.0133333333333,329.81333333333333" stroke="yellow" stroke-width="1" fill="none" />
<path d="M464.90666666666664,369.5466666666667 L480.8,369.5466666666667" stroke="yellow" stroke-width="1" fill="none" />
<path d="M480.8,359.61333333333334 L464.90666666666664,359.61333333333334" stroke="yellow" stroke-width="1" fill="none" />
<path d="M357.62666666666667,345.7066666666667 L357.62666666666667,313.92" stroke="yellow" stroke-width="1" fill="none" />
<path d="M353.65333333333336,313.92 L353.65333333333336,345.7066666666667" stroke="yellow" stroke-width="1" fill="none" />
<path d="M433.12,222.53333333333336 L385.44,222.53333333333336" stroke="yellow" stroke-width="1" fill="none" />
<path d="M385.44,226.50666666666666 L433.12,226.50666666666666" stroke="yellow" stroke-width="1" fill="none" />
<path d="M576.16,222.53333333333336 L528.48,222.53333333333336" stroke="yellow" stroke-width="1" fill="none" />
<path d="M528.48,226.50666666666666 L576.16,226.50666666666666" stroke="yellow" stroke-width="1" fill="none" />
<path d="M601.9866666666667,242.40000000000003 L601.9866666666667,274.18666666666667" stroke="yellow" stroke-width="1" fill="none" />
<path d="M603.9733333333334,242.40000000000003 L603.9733333333334,274.18666666666667" stroke="lavender" stroke-width="1" fill="none" />
<path d="M605.96,274.18666666666667 L605.96,242.40000000000003" stroke="lavender" stroke-width="1" fill="none" />
<path d="M607.9466666666667,274.18666666666667 L607.9466666666667,242.40000000000003" stroke="yellow" stroke-width="1" fill="none" />
<path d="M631.7866666666666,290.08000000000004 L615.8933333333333,290.08000000000004" stroke="yellow" stroke-width="1" fill="none" />
<path d="M671.52,369.5466666666667 L735.0933333333334,369.5466666666667" stroke="yellow" stroke-width="1" fill="none" />
<path d="M671.52,369.5466666666667 L671.52,385.44" stroke="yellow" stroke-width="1" fill="none" />
<path d="M671.52,385.44 L679.4666666666667,385.44" stroke="yellow" stroke-width="1" fill="none" />
<path d="M679.4666666666667,385.44 L679.4666666666667,401.33333333333337" stroke="yellow" stroke-width="1" fill="none" />
<path d="M679.4666666666667,401.33333333333337 L687.4133333333333,401.33333333333337" stroke="yellow" stroke-width="1" fill="none" />
<path d="M687.4133333333333,401.33333333333337 L687.4133333333333,417.2266666666667" stroke="yellow" stroke-width="1" fill="none" />
<path d="M687.4133333333333,417.2266666666667 L695.36,417.2266666666667" stroke="yellow" stroke-width="1" fill="none" />
<path d="M695.36,417.2266666666667 L695.36,433.12" stroke="yellow" stroke-width="1" fill="none" />
<path d="M695.36,433.12 L711.2533333333333,433.12" stroke="yellow" stroke-width="1" fill="none" />
<path d="M711.2533333333333,433.12 L711.2533333333333,417.2266666666667" stroke="yellow" stroke-width="1" fill="none" />
<path d="M711.2533333333333,417.2266666666667 L719.2,417.2266666666667" stroke="yellow" stroke-width="1" fill="none" />
<path d="M719.2,417.2266666666667 L719.2,401.33333333333337" stroke="yellow" stroke-width="1" fill="none" />
<path d="M719.2,401.33333333333337 L727.1466666666666,401.33333333333337" stroke="yellow" stroke-width="1" fill="none" />
<path d="M727.1466666666666,401.33333333333337 L727.1466666666666,385.44" stroke="yellow" stroke-width="1" fill="none" />
<path d="M727.1466666666666,385.44 L735.0933333333334,385.44" stroke="yellow" stroke-width="1" fill="none" />
<path d="M735.0933333333334,385.44 L735.0933333333334,369.5466666666667" stroke="yellow" stroke-width="1" fill="none" />
<path d="M695.36,417.2266666666667 L711.2533333333333,417.2266666666667" stroke="yellow" stroke-width="1" fill="none" />
<path d="M687.4133333333333,401.33333333333337 L719.2,401.33333333333337" stroke="yellow" stroke-width="1" fill="none" />
<path d="M679.4666666666667,385.44 L727.1466666666666,385.44" stroke="yellow" stroke-width="1" fill="none" />
<path d="M957.5999999999999,894.0266666666666 L989.3866666666667,894.0266666666666" stroke="yellow" stroke-width="1" fill="none" />
<path d="M989.3866666666667,894.0266666666666 L1005.28,866.2133333333334" stroke="yellow" stroke-width="1" fill="none" />
<path d="M1005.28,866.2133333333334 L1005.28,834.4266666666666" stroke="yellow" stroke-width="1" fill="none" />
<path d="M1005.28,834.4266666666666 L977.4666666666667,818.5333333333333" stroke="yellow" stroke-width="1" fill="none" />
<path d="M977.4666666666667,818.5333333333333 L945.6800000000001,818.5333333333333" stroke="yellow" stroke-width="1" fill="none" />
<path d="M945.6800000000001,818.5333333333333 L929.7866666666666,846.3466666666667" stroke="yellow" stroke-width="1" fill="none" />
<path d="M929.7866666666666,846.3466666666667 L929.7866666666666,878.1333333333333" stroke="yellow" stroke-width="1" fill="none" />
<path d="M929.7866666666666,878.1333333333333 L957.5999999999999,894.0266666666666" stroke="yellow" stroke-width="1" fill="none" />
<path d="M951.64,834.4266666666666 L945.6800000000001,834.4266666666666" stroke="yellow" stroke-width="1" fill="none" />
<path d="M951.64,840.3866666666667 L951.64,834.4266666666666" stroke="yellow" stroke-width="1" fill="none" />
<path d="M945.6800000000001,840.3866666666667 L951.64,840.3866666666667" stroke="yellow" stroke-width="1" fill="none" />
<path d="M945.6800000000001,834.4266666666666 L945.6800000000001,840.3866666666667" stroke="yellow" stroke-width="1" fill="none" />
<path d="M985.4133333333333,834.4266666666666 L979.4533333333334,834.4266666666666" stroke="yellow" stroke-width="1" fill="none" />
<path d="M985.4133333333333,840.3866666666667 L985.4133333333333,834.4266666666666" stroke="yellow" stroke-width="1" fill="none" />
<path d="M979.4533333333334,840.3866666666667 L985.4133333333333,840.3866666666667" stroke="yellow" stroke-width="1" fill="none" />
<path d="M979.4533333333334,834.4266666666666 L979.4533333333334,840.3866666666667" stroke="yellow" stroke-width="1" fill="none" />
<path d="M985.4133333333333,868.2 L979.4533333333334,868.2" stroke="yellow" stroke-width="1" fill="none" />
<path d="M985.4133333333333,874.16 L985.4133333333333,868.2" stroke="yellow" stroke-width="1" fill="none" />
<path d="M979.4533333333334,874.16 L985.4133333333333,874.16" stroke="yellow" stroke-width="1" fill="none" />
<path d="M979.4533333333334,868.2 L979.4533333333334,874.16" stroke="yellow" stroke-width="1" fill="none" />
<path d="M951.64,868.2 L945.6800000000001,868.2" stroke="yellow" stroke-width="1" fill="none" />
<path d="M951.64,874.16 L951.64,868.2" stroke="yellow" stroke-width="1" fill="none" />
<path d="M945.6800000000001,874.16 L951.64,874.16" stroke="yellow" stroke-width="1" fill="none" />
<path d="M945.6800000000001,868.2 L945.6800000000001,874.16" stroke="yellow" stroke-width="1" fill="none" />
<path d="M639.7333333333333,480.8 L735.0933333333334,480.8" stroke="yellow" stroke-width="1" fill="none" />
<path d="M735.0933333333334,464.90666666666664 L639.7333333333333,464.90666666666664" stroke="yellow" stroke-width="1" fill="none" />
<path d="M687.4133333333333,957.5999999999999 L719.2,957.5999999999999" stroke="yellow" stroke-width="1" fill="none" />
<path d="M719.2,941.7066666666667 L687.4133333333333,941.7066666666667" stroke="yellow" stroke-width="1" fill="none" />
<path d="M590.0666666666666,347.6933333333333 L611.92,329.81333333333333" stroke="yellow" stroke-width="1" fill="none" />
<path d="M627.8133333333333,345.7066666666667 L590.0666666666666,347.6933333333333" stroke="yellow" stroke-width="1" fill="none" />
<path d="M639.7333333333333,302.0 L627.8133333333333,345.7066666666667" stroke="yellow" stroke-width="1" fill="none" />
<path d="M590.0666666666666,302.0 L639.7333333333333,302.0" stroke="yellow" stroke-width="1" fill="none" />
<path d="M568.2133333333334,270.21333333333337 L590.0666666666666,302.0" stroke="yellow" stroke-width="1" fill="none" />
<path d="M578.1466666666666,238.42666666666668 L568.2133333333334,270.21333333333337" stroke="yellow" stroke-width="1" fill="none" />
<path d="M534.44,252.33333333333337 L578.1466666666666,238.42666666666668" stroke="yellow" stroke-width="1" fill="none" />
<path d="M530.4666666666667,280.1466666666667 L534.44,252.33333333333337" stroke="yellow" stroke-width="1" fill="none" />
<path d="M611.92,329.81333333333333 L530.4666666666667,280.1466666666667" stroke="yellow" stroke-width="1" fill="none" />
<path d="M639.7333333333333,782.7733333333333 L623.84,782.7733333333333" stroke="lavender" stroke-width="1" fill="none" />
<path d="M607.9466666666667,782.7733333333333 L594.04,782.7733333333333" stroke="lavender" stroke-width="1" fill="none" />
<path d="M607.9466666666667,782.7733333333333 L623.84,782.7733333333333" stroke="lavender" stroke-width="1" fill="none" />
<path d="M508.61333333333334,1168.1866666666665 L496.6933333333333,1168.1866666666665" stroke="yellow" stroke-width="1" fill="none" />
<path d="M170.88,925.8133333333333 L162.93333333333334,909.92" stroke="yellow" stroke-width="1" fill="none" />
<path d="M162.93333333333334,909.92 L254.32,886.0799999999999" stroke="yellow" stroke-width="1" fill="none" />
<path d="M254.32,886.0799999999999 L371.53333333333336,890.0533333333333" stroke="yellow" stroke-width="1" fill="none" />
<path d="M371.53333333333336,890.0533333333333 L512.5866666666667,1005.28" stroke="yellow" stroke-width="1" fill="none" />
<path d="M512.5866666666667,1005.28 L508.61333333333334,1168.1866666666665" stroke="yellow" stroke-width="1" fill="none" />
<path d="M337.76,1132.4266666666667 L385.44,1132.4266666666667" stroke="yellow" stroke-width="1" fill="none" />
<path d="M385.44,1132.4266666666667 L385.44,1106.6" stroke="yellow" stroke-width="1" fill="none" />
<path d="M385.44,1106.6 L367.56,1078.7866666666666" stroke="yellow" stroke-width="1" fill="none" />
<path d="M367.56,1078.7866666666666 L335.77333333333337,1064.88" stroke="yellow" stroke-width="1" fill="none" />
<path d="M335.77333333333337,1064.88 L307.96000000000004,1070.84" stroke="yellow" stroke-width="1" fill="none" />
<path d="M307.96000000000004,1070.84 L294.05333333333334,1090.7066666666667" stroke="yellow" stroke-width="1" fill="none" />
<path d="M294.05333333333334,1090.7066666666667 L288.09333333333336,1114.5466666666666" stroke="yellow" stroke-width="1" fill="none" />
<path d="M288.09333333333336,1114.5466666666666 L305.97333333333336,1146.3333333333333" stroke="yellow" stroke-width="1" fill="none" />
<path d="M305.97333333333336,1146.3333333333333 L337.76,1148.32" stroke="yellow" stroke-width="1" fill="none" />
<path d="M337.76,1148.32 L337.76,1132.4266666666667" stroke="yellow" stroke-width="1" fill="none" />
<path d="M337.76,1132.4266666666667 L353.65333333333336,1114.5466666666666" stroke="lavender" stroke-width="1" fill="none" />
<path d="M353.65333333333336,1114.5466666666666 L349.68,1098.6533333333332" stroke="yellow" stroke-width="1" fill="none" />
<path d="M349.68,1098.6533333333332 L333.7866666666667,1088.72" stroke="yellow" stroke-width="1" fill="none" />
<path d="M333.7866666666667,1088.72 L317.8933333333334,1094.68" stroke="yellow" stroke-width="1" fill="none" />
<path d="M317.8933333333334,1094.68 L307.96000000000004,1110.5733333333333" stroke="yellow" stroke-width="1" fill="none" />
<path d="M307.96000000000004,1114.5466666666666 L317.8933333333334,1128.4533333333334" stroke="lavender" stroke-width="1" fill="none" />
<path d="M317.8933333333334,1128.4533333333334 L337.76,1132.4266666666667" stroke="lavender" stroke-width="1" fill="none" />
<path d="M353.65333333333336,1114.5466666666666 L385.44,1106.6" stroke="yellow" stroke-width="1" fill="none" />
<path d="M349.68,1098.6533333333332 L367.56,1078.7866666666666" stroke="yellow" stroke-width="1" fill="none" />
<path d="M333.7866666666667,1088.72 L335.77333333333337,1064.88" stroke="yellow" stroke-width="1" fill="none" />
<path d="M317.8933333333334,1094.68 L307.96000000000004,1070.84" stroke="yellow" stroke-width="1" fill="none" />
<path d="M307.96000000000004,1110.5733333333333 L294.05333333333334,1090.7066666666667" stroke="yellow" stroke-width="1" fill="none" />
<path d="M307.96000000000004,1114.5466666666666 L288.09333333333336,1114.5466666666666" stroke="yellow" stroke-width="1" fill="none" />
<path d="M317.8933333333334,1128.4533333333334 L305.97333333333336,1146.3333333333333" stroke="yellow" stroke-width="1" fill="none" />
<path d="M633.7733333333333,574.1733333333333 L617.88,574.1733333333333" stroke="yellow" stroke-width="1" fill="none" />
<path d="M4.0,941.7066666666667 L35.78666666666675,973.4933333333333" stroke="lavender" stroke-width="1" fill="none" />
<path d="M35.78666666666675,973.4933333333333 L67.57333333333338,973.4933333333333" stroke="lavender" stroke-width="1" fill="none" />
<path d="M9.960000000000036,977.4666666666667 L9.960000000000036,989.3866666666667" stroke="yellow" stroke-width="1" fill="none" />
<path d="M9.960000000000036,989.3866666666667 L95.38666666666666,989.3866666666667" stroke="yellow" stroke-width="1" fill="none" />
<path d="M95.38666666666666,989.3866666666667 L95.38666666666666,977.4666666666667" stroke="yellow" stroke-width="1" fill="none" />
<path d="M95.38666666666666,977.4666666666667 L9.960000000000036,977.4666666666667" stroke="yellow" stroke-width="1" fill="none" />
<path d="M67.57333333333338,973.4933333333333 L99.36000000000001,965.5466666666666" stroke="lavender" stroke-width="1" fill="none" />
<path d="M85.45333333333338,945.6800000000001 L99.36000000000001,965.5466666666666" stroke="yellow" stroke-width="1" fill="none" />
<path d="M151.01333333333338,1192.0266666666666 L158.96000000000004,1192.0266666666666" stroke="yellow" stroke-width="1" fill="none" />
<path d="M158.96000000000004,1192.0266666666666 L158.96000000000004,995.3466666666666" stroke="yellow" stroke-width="1" fill="none" />
<path d="M158.96000000000004,995.3466666666666 L151.01333333333338,995.3466666666666" stroke="yellow" stroke-width="1" fill="none" />
<path d="M151.01333333333338,995.3466666666666 L151.01333333333338,1192.0266666666666" stroke="yellow" stroke-width="1" fill="none" />
<path d="M178.8266666666667,989.3866666666667 L162.93333333333334,1021.1733333333333" stroke="lavender" stroke-width="1" fill="none" />
<path d="M162.93333333333334,1021.1733333333333 L162.93333333333334,1092.6933333333334" stroke="lavender" stroke-width="1" fill="none" />
<path d="M162.93333333333334,1092.6933333333334 L162.93333333333334,1164.2133333333334" stroke="lavender" stroke-width="1" fill="none" />
<path d="M162.93333333333334,1164.2133333333334 L178.8266666666667,1196.0" stroke="lavender" stroke-width="1" fill="none" />
<path d="M186.77333333333337,496.6933333333333 L464.90666666666664,552.32" stroke="yellow" stroke-width="1" fill="none" />
<path d="M568.2133333333334,957.5999999999999 L512.5866666666667,1005.28" stroke="yellow" stroke-width="1" fill="none" />
<path d="M464.90666666666664,854.2933333333333 L371.53333333333336,890.0533333333333" stroke="yellow" stroke-width="1" fill="none" />
<path d="M307.96000000000004,1110.5733333333333 L307.96000000000004,1114.5466666666666" stroke="yellow" stroke-width="1" fill="none" />
<path d="M1100.6399999999999,719.2 L1029.12,623.84" stroke="lavender" stroke-width="1" fill="none" />
<path d="M1029.12,623.84 L1100.6399999999999,528.48" stroke="lavender" stroke-width="1" fill="none" />
<path d="M1021.1733333333333,727.1466666666666 L1037.0666666666666,727.1466666666666" stroke="yellow" stroke-width="1" fill="none" />
<path d="M1021.1733333333333,725.16 L1037.0666666666666,725.16" stroke="lavender" stroke-width="1" fill="none" />
<path d="M1037.0666666666666,723.1733333333333 L1021.1733333333333,723.1733333333333" stroke="yellow" stroke-width="1" fill="none" />
<path d="M1021.1733333333333,524.5066666666667 L1037.0666666666666,524.5066666666667" stroke="yellow" stroke-width="1" fill="none" />
<path d="M1037.0666666666666,522.52 L1021.1733333333333,522.52" stroke="lavender" stroke-width="1" fill="none" />
<path d="M1037.0666666666666,520.5333333333333 L1021.1733333333333,520.5333333333333" stroke="yellow" stroke-width="1" fill="none" />
<path d="M949.6533333333333,615.8933333333333 L949.6533333333333,631.7866666666666" stroke="yellow" stroke-width="1" fill="none" />
<path d="M951.64,615.8933333333333 L951.64,631.7866666666666" stroke="lavender" stroke-width="1" fill="none" />
<path d="M953.6266666666667,631.7866666666666 L953.6266666666667,615.8933333333333" stroke="yellow" stroke-width="1" fill="none" />
<path d="M1102.6266666666666,631.7866666666666 L1102.6266666666666,615.8933333333333" stroke="yellow" stroke-width="1" fill="none" />
<path d="M1106.6,631.7866666666666 L1106.6,615.8933333333333" stroke="lavender" stroke-width="1" fill="none" />
<path d="M1108.5866666666666,631.7866666666666 L1108.5866666666666,615.8933333333333" stroke="yellow" stroke-width="1" fill="none" />
<path d="M1104.6133333333332,615.8933333333333 L1104.6133333333332,631.7866666666666" stroke="yellow" stroke-width="1" fill="none" />
<path d="M1013.2266666666667,655.6266666666667 L1029.12,635.76" stroke="yellow" stroke-width="1" fill="none" />
<path d="M1086.7333333333333,715.2266666666667 L1005.28,715.2266666666667" stroke="yellow" stroke-width="1" fill="none" />
<path d="M1029.12,635.76 L1086.7333333333333,715.2266666666667" stroke="yellow" stroke-width="1" fill="none" />
<path d="M1003.2933333333333,657.6133333333333 L991.3733333333333,673.5066666666667" stroke="lavender" stroke-width="1" fill="none" />
<path d="M989.3866666666667,687.4133333333333 L1003.2933333333333,669.5333333333333" stroke="yellow" stroke-width="1" fill="none" />
<path d="M1003.2933333333333,669.5333333333333 L1013.2266666666667,655.6266666666667" stroke="lavender" stroke-width="1" fill="none" />
<path d="M536.4266666666667,178.8266666666667 L552.32,178.8266666666667" stroke="yellow" stroke-width="1" fill="none" />
<path d="M552.32,178.8266666666667 L584.1066666666667,147.04000000000002" stroke="yellow" stroke-width="1" fill="none" />
<path d="M504.64,147.04000000000002 L536.4266666666667,178.8266666666667" stroke="yellow" stroke-width="1" fill="none" />
<path d="M536.4266666666667,121.21333333333337 L552.32,121.21333333333337" stroke="yellow" stroke-width="1" fill="none" />
<path d="M552.32,115.25333333333333 L536.4266666666667,115.25333333333333" stroke="yellow" stroke-width="1" fill="none" />
<path d="M552.32,115.25333333333333 L552.32,99.36000000000001" stroke="yellow" stroke-width="1" fill="none" />
<path d="M552.32,99.36000000000001 L536.4266666666667,99.36000000000001" stroke="yellow" stroke-width="1" fill="none" />
<path d="M536.4266666666667,99.36000000000001 L520.5333333333333,99.36000000000001" stroke="yellow" stroke-width="1" fill="none" />
<path d="M520.5333333333333,99.36000000000001 L520.5333333333333,115.25333333333333" stroke="yellow" stroke-width="1" fill="none" />
<path d="M536.4266666666667,99.36000000000001 L536.4266666666667,115.25333333333333" stroke="yellow" stroke-width="1" fill="none" />
<path d="M393.38666666666666,178.8266666666667 L409.28,178.8266666666667" stroke="yellow" stroke-width="1" fill="none" />
<path d="M409.28,178.8266666666667 L441.06666666666666,147.04000000000002" stroke="yellow" stroke-width="1" fill="none" />
<path d="M361.6,147.04000000000002 L393.38666666666666,178.8266666666667" stroke="yellow" stroke-width="1" fill="none" />
<path d="M393.38666666666666,121.21333333333337 L409.28,121.21333333333337" stroke="yellow" stroke-width="1" fill="none" />
<path d="M409.28,115.25333333333333 L393.38666666666666,115.25333333333333" stroke="yellow" stroke-width="1" fill="none" />
<path d="M409.28,115.25333333333333 L409.28,99.36000000000001" stroke="yellow" stroke-width="1" fill="none" />
<path d="M409.28,99.36000000000001 L393.38666666666666,99.36000000000001" stroke="yellow" stroke-width="1" fill="none" />
<path d="M393.38666666666666,99.36000000000001 L377.49333333333334,99.36000000000001" stroke="yellow" stroke-width="1" fill="none" />
<path d="M377.49333333333334,99.36000000000001 L377.49333333333334,115.25333333333333" stroke="yellow" stroke-width="1" fill="none" />
<path d="M393.38666666666666,99.36000000000001 L393.38666666666666,115.25333333333333" stroke="yellow" stroke-width="1" fill="none" />
<path d="M369.5466666666667,147.04000000000002 L433.12,147.04000000000002" stroke="yellow" stroke-width="1" fill="none" />
<path d="M512.5866666666667,147.04000000000002 L576.16,147.04000000000002" stroke="yellow" stroke-width="1" fill="none" />
<path d="M1005.28,715.2266666666667 L989.3866666666667,687.4133333333333" stroke="yellow" stroke-width="1" fill="none" />
<path d="M878.1333333333333,99.36000000000001 L878.1333333333333,131.14666666666665" stroke="yellow" stroke-width="1" fill="none" />
<path d="M989.3866666666667,226.50666666666666 L1021.1733333333333,226.50666666666666" stroke="yellow" stroke-width="1" fill="none" />
<path d="M878.1333333333333,131.14666666666665 L878.1333333333333,162.93333333333334" stroke="yellow" stroke-width="1" fill="none" />
<path d="M878.1333333333333,162.93333333333334 L925.8133333333333,162.93333333333334" stroke="yellow" stroke-width="1" fill="none" />
<path d="M925.8133333333333,162.93333333333334 L957.5999999999999,162.93333333333334" stroke="yellow" stroke-width="1" fill="none" />
<path d="M957.5999999999999,162.93333333333334 L957.5999999999999,194.72000000000003" stroke="yellow" stroke-width="1" fill="none" />
<path d="M957.5999999999999,194.72000000000003 L957.5999999999999,226.50666666666666" stroke="yellow" stroke-width="1" fill="none" />
<path d="M957.5999999999999,226.50666666666666 L989.3866666666667,226.50666666666666" stroke="yellow" stroke-width="1" fill="none" />
<path d="M957.5999999999999,131.14666666666665 L957.5999999999999,162.93333333333334" stroke="lavender" stroke-width="1" fill="none" />
<path d="M957.5999999999999,162.93333333333334 L989.3866666666667,162.93333333333334" stroke="lavender" stroke-width="1" fill="none" />
<path d="M925.8133333333333,162.93333333333334 L925.8133333333333,194.72000000000003" stroke="lavender" stroke-width="1" fill="none" />
<path d="M925.8133333333333,194.72000000000003 L957.5999999999999,194.72000000000003" stroke="lavender" stroke-width="1" fill="none" />
<path d="M878.1333333333333,131.14666666666665 L925.8133333333333,131.14666666666665" stroke="yellow" stroke-width="1" fill="none" />
<path d="M925.8133333333333,131.14666666666665 L957.5999999999999,131.14666666666665" stroke="yellow" stroke-width="1" fill="none" />
<path d="M925.8133333333333,162.93333333333334 L925.8133333333333,131.14666666666665" stroke="yellow" stroke-width="1" fill="none" />
<path d="M989.3866666666667,162.93333333333334 L989.3866666666667,194.72000000000003" stroke="yellow" stroke-width="1" fill="none" />
<path d="M989.3866666666667,194.72000000000003 L989.3866666666667,226.50666666666666" stroke="yellow" stroke-width="1" fill="none" />
<path d="M989.3866666666667,194.72000000000003 L957.5999999999999,194.72000000000003" stroke="yellow" stroke-width="1" fill="none" />
<path d="M894.0266666666666,99.36000000000001 L1021.1733333333333,99.36000000000001" stroke="yellow" stroke-width="1" fill="none" />
<path d="M1021.1733333333333,99.36000000000001 L1021.1733333333333,210.61333333333334" stroke="yellow" stroke-width="1" fill="none" />
<path d="M1037.0666666666666,210.61333333333334 L1037.0666666666666,83.4666666666667" stroke="lavender" stroke-width="1" fill="none" />
<path d="M1037.0666666666666,83.4666666666667 L894.0266666666666,83.4666666666667" stroke="lavender" stroke-width="1" fill="none" />
<path d="M1068.8533333333332,35.78666666666675 L1076.8,35.78666666666675" stroke="lavender" stroke-width="1" fill="none" />
<path d="M1076.8,35.78666666666675 L1076.8,27.840000000000032" stroke="yellow" stroke-width="1" fill="none" />
<path d="M1076.8,27.840000000000032 L1068.8533333333332,27.840000000000032" stroke="yellow" stroke-width="1" fill="none" />
<path d="M1068.8533333333332,27.840000000000032 L1068.8533333333332,35.78666666666675" stroke="lavender" stroke-width="1" fill="none" />
<path d="M250.3466666666667,649.6666666666666 L258.29333333333335,578.1466666666666" stroke="yellow" stroke-width="1" fill="none" />
<path d="M212.60000000000002,790.72 L280.1466666666667,750.9866666666667" stroke="yellow" stroke-width="1" fill="none" />
<path d="M1068.8533333333332,19.893333333333317 L1068.8533333333332,27.840000000000032" stroke="yellow" stroke-width="1" fill="none" />
<path d="M1076.8,35.78666666666675 L1084.7466666666667,35.78666666666675" stroke="yellow" stroke-width="1" fill="none" />
<path d="M989.3866666666667,131.14666666666665 L957.5999999999999,131.14666666666665" stroke="lavender" stroke-width="1" fill="none" />
<path d="M989.3866666666667,162.93333333333334 L989.3866666666667,131.14666666666665" stroke="lavender" stroke-width="1" fill="none" />
<path d="M1084.7466666666667,4.0 L1084.7466666666667,19.893333333333317" stroke="lavender" stroke-width="1" fill="none" />
<path d="M1084.7466666666667,19.893333333333317 L1100.6399999999999,19.893333333333317" stroke="lavender" stroke-width="1" fill="none" />
<path d="M637.7466666666667,671.52 L671.52,671.52" stroke="red" stroke-width="1" fill="none" />
<path d="M637.7466666666667,576.16 L637.7466666666667,671.52" stroke="red" stroke-width="1" fill="none" />
<path d="M607.9466666666667,544.3733333333333 L607.9466666666667,576.16" stroke="red" stroke-width="1" fill="none" />
<path d="M750.9866666666667,576.16 L750.9866666666667,544.3733333333333" stroke="red" stroke-width="1" fill="none" />
<path d="M671.52,671.52 L671.52,663.5733333333334" stroke="red" stroke-width="1" fill="none" />
<path d="M671.52,663.5733333333334 L669.5333333333333,663.5733333333334" stroke="red" stroke-width="1" fill="none" />
<path d="M669.5333333333333,663.5733333333334 L667.5466666666666,663.5733333333334" stroke="red" stroke-width="1" fill="none" />
<path d="M667.5466666666666,663.5733333333334 L665.56,663.5733333333334" stroke="red" stroke-width="1" fill="none" />
<path d="M665.56,663.5733333333334 L665.56,669.5333333333333" stroke="red" stroke-width="1" fill="none" />
<path d="M665.56,669.5333333333333 L639.7333333333333,669.5333333333333" stroke="red" stroke-width="1" fill="none" />
<path d="M639.7333333333333,669.5333333333333 L639.7333333333333,623.84" stroke="red" stroke-width="1" fill="none" />
<path d="M719.2,576.16 L717.2133333333334,576.16" stroke="red" stroke-width="1" fill="none" />
<path d="M639.7333333333333,623.84 L639.7333333333333,615.8933333333333" stroke="red" stroke-width="1" fill="none" />
<path d="M639.7333333333333,615.8933333333333 L639.7333333333333,607.9466666666667" stroke="red" stroke-width="1" fill="none" />
<path d="M639.7333333333333,607.9466666666667 L639.7333333333333,600.0" stroke="red" stroke-width="1" fill="none" />
<path d="M639.7333333333333,600.0 L639.7333333333333,592.0533333333333" stroke="red" stroke-width="1" fill="none" />
<path d="M639.7333333333333,592.0533333333333 L639.7333333333333,584.1066666666667" stroke="red" stroke-width="1" fill="none" />
<path d="M639.7333333333333,584.1066666666667 L639.7333333333333,576.16" stroke="red" stroke-width="1" fill="none" />
<path d="M639.7333333333333,576.16 L639.7333333333333,574.1733333333333" stroke="red" stroke-width="1" fill="none" />
<path d="M633.7733333333333,576.16 L637.7466666666667,576.16" stroke="red" stroke-width="1" fill="none" />
<path d="M717.2133333333334,576.16 L717.2133333333334,637.7466666666667" stroke="red" stroke-width="1" fill="none" />
<path d="M665.56,637.7466666666667 L665.56,647.68" stroke="red" stroke-width="1" fill="none" />
<path d="M671.52,647.68 L671.52,639.7333333333333" stroke="red" stroke-width="1" fill="none" />
<path d="M669.5333333333333,647.68 L671.52,647.68" stroke="red" stroke-width="1" fill="none" />
<path d="M667.5466666666666,647.68 L669.5333333333333,647.68" stroke="red" stroke-width="1" fill="none" />
<path d="M665.56,647.68 L667.5466666666666,647.68" stroke="red" stroke-width="1" fill="none" />
<path d="M719.2,639.7333333333333 L719.2,631.7866666666666" stroke="red" stroke-width="1" fill="none" />
<path d="M719.2,631.7866666666666 L719.2,623.84" stroke="red" stroke-width="1" fill="none" />
<path d="M719.2,623.84 L719.2,615.8933333333333" stroke="red" stroke-width="1" fill="none" />
<path d="M719.2,615.8933333333333 L719.2,607.9466666666667" stroke="red" stroke-width="1" fill="none" />
<path d="M719.2,607.9466666666667 L719.2,600.0" stroke="red" stroke-width="1" fill="none" />
<path d="M719.2,600.0 L719.2,592.0533333333333" stroke="red" stroke-width="1" fill="none" />
<path d="M719.2,592.0533333333333 L719.2,584.1066666666667" stroke="red" stroke-width="1" fill="none" />
<path d="M719.2,584.1066666666667 L719.2,576.16" stroke="red" stroke-width="1" fill="none" />
<path d="M609.9333333333334,574.1733333333333 L609.9333333333334,546.36" stroke="red" stroke-width="1" fill="none" />
<path d="M625.8266666666667,546.36 L671.52,546.36" stroke="red" stroke-width="1" fill="none" />
<path d="M749.0,546.36 L749.0,570.2" stroke="red" stroke-width="1" fill="none" />
<path d="M750.9866666666667,544.3733333333333 L703.3066666666666,544.3733333333333" stroke="red" stroke-width="1" fill="none" />
<path d="M671.52,544.3733333333333 L607.9466666666667,544.3733333333333" stroke="red" stroke-width="1" fill="none" />
<path d="M671.52,546.36 L671.52,544.3733333333333" stroke="red" stroke-width="1" fill="none" />
<path d="M703.3066666666666,544.3733333333333 L703.3066666666666,546.36" stroke="red" stroke-width="1" fill="none" />
<path d="M749.0,570.2 L749.0,576.16" stroke="red" stroke-width="1" fill="none" />
<path d="M749.0,576.16 L750.9866666666667,576.16" stroke="red" stroke-width="1" fill="none" />
<path d="M607.9466666666667,576.16 L617.88,576.16" stroke="red" stroke-width="1" fill="none" />
<path d="M609.9333333333334,546.36 L625.8266666666667,546.36" stroke="red" stroke-width="1" fill="none" />
<path d="M703.3066666666666,546.36 L715.2266666666667,546.36" stroke="red" stroke-width="1" fill="none" />
<path d="M715.2266666666667,546.36 L731.12,546.36" stroke="red" stroke-width="1" fill="none" />
<path d="M731.12,546.36 L749.0,546.36" stroke="red" stroke-width="1" fill="none" />
<path d="M1196.0,792.7066666666667 L878.1333333333333,1168.1866666666665" stroke="red" stroke-width="1" fill="none" />
<path d="M878.1333333333333,1168.1866666666665 L508.61333333333334,1168.1866666666665" stroke="red" stroke-width="1" fill="none" />
<path d="M186.77333333333337,496.6933333333333 L210.61333333333334,83.4666666666667" stroke="red" stroke-width="1" fill="none" />
<path d="M607.9466666666667,83.4666666666667 L878.1333333333333,83.4666666666667" stroke="red" stroke-width="1" fill="none" />
<path d="M1037.0666666666666,226.50666666666666 L1196.0,792.7066666666667" stroke="red" stroke-width="1" fill="none" />
<path d="M639.7333333333333,574.1733333333333 L633.7733333333333,574.1733333333333" stroke="red" stroke-width="1" fill="none" />
<path d="M617.88,574.1733333333333 L609.9333333333334,574.1733333333333" stroke="red" stroke-width="1" fill="none" />
<path d="M633.7733333333333,574.1733333333333 L633.7733333333333,576.16" stroke="red" stroke-width="1" fill="none" />
<path d="M617.88,576.16 L617.88,574.1733333333333" stroke="red" stroke-width="1" fill="none" />
<path d="M782.7733333333333,723.1733333333333 L735.0933333333334,723.1733333333333" stroke="red" stroke-width="1" fill="none" />
<path d="M735.0933333333334,723.1733333333333 L735.0933333333334,705.2933333333333" stroke="red" stroke-width="1" fill="none" />
<path d="M701.3199999999999,719.2 L655.6266666666667,719.2" stroke="red" stroke-width="1" fill="none" />
<path d="M655.6266666666667,719.2 L655.6266666666667,760.92" stroke="red" stroke-width="1" fill="none" />
<path d="M655.6266666666667,760.92 L655.6266666666667,762.9066666666666" stroke="red" stroke-width="1" fill="none" />
<path d="M655.6266666666667,762.9066666666666 L655.6266666666667,764.8933333333333" stroke="red" stroke-width="1" fill="none" />
<path d="M655.6266666666667,764.8933333333333 L655.6266666666667,766.88" stroke="red" stroke-width="1" fill="none" />
<path d="M655.6266666666667,766.88 L657.6133333333333,766.88" stroke="red" stroke-width="1" fill="none" />
<path d="M659.6,758.9333333333333 L659.6,725.16" stroke="red" stroke-width="1" fill="none" />
<path d="M684.4333333333333,725.16 L705.2933333333333,725.16" stroke="red" stroke-width="1" fill="none" />
<path d="M655.6266666666667,782.7733333333333 L655.6266666666667,824.4933333333333" stroke="red" stroke-width="1" fill="none" />
<path d="M655.6266666666667,824.4933333333333 L643.7066666666667,824.4933333333333" stroke="red" stroke-width="1" fill="none" />
<path d="M643.7066666666667,824.4933333333333 L643.7066666666667,826.48" stroke="red" stroke-width="1" fill="none" />
<path d="M643.7066666666667,826.48 L643.7066666666667,828.4666666666667" stroke="red" stroke-width="1" fill="none" />
<path d="M643.7066666666667,828.4666666666667 L643.7066666666667,830.4533333333334" stroke="red" stroke-width="1" fill="none" />
<path d="M643.7066666666667,830.4533333333334 L655.6266666666667,830.4533333333334" stroke="red" stroke-width="1" fill="none" />
<path d="M655.6266666666667,830.4533333333334 L655.6266666666667,854.2933333333333" stroke="red" stroke-width="1" fill="none" />
<path d="M655.6266666666667,854.2933333333333 L711.2533333333333,854.2933333333333" stroke="red" stroke-width="1" fill="none" />
<path d="M711.2533333333333,854.2933333333333 L711.2533333333333,852.3066666666666" stroke="red" stroke-width="1" fill="none" />
<path d="M711.2533333333333,852.3066666666666 L711.2533333333333,850.3199999999999" stroke="red" stroke-width="1" fill="none" />
<path d="M711.2533333333333,850.3199999999999 L711.2533333333333,848.3333333333333" stroke="red" stroke-width="1" fill="none" />
<path d="M711.2533333333333,848.3333333333333 L705.2933333333333,848.3333333333333" stroke="red" stroke-width="1" fill="none" />
<path d="M657.6133333333333,782.7733333333333 L655.6266666666667,782.7733333333333" stroke="red" stroke-width="1" fill="none" />
<path d="M727.1466666666666,854.2933333333333 L782.7733333333333,854.2933333333333" stroke="red" stroke-width="1" fill="none" />
<path d="M727.1466666666666,848.3333333333333 L727.1466666666666,850.3199999999999" stroke="red" stroke-width="1" fill="none" />
<path d="M727.1466666666666,850.3199999999999 L727.1466666666666,852.3066666666666" stroke="red" stroke-width="1" fill="none" />
<path d="M727.1466666666666,852.3066666666666 L727.1466666666666,854.2933333333333" stroke="red" stroke-width="1" fill="none" />
<path d="M731.12,725.16 L780.7866666666666,725.16" stroke="red" stroke-width="1" fill="none" />
<path d="M780.7866666666666,725.16 L780.7866666666666,750.9866666666667" stroke="red" stroke-width="1" fill="none" />
<path d="M780.7866666666666,750.9866666666667 L750.9866666666667,750.9866666666667" stroke="red" stroke-width="1" fill="none" />
<path d="M750.9866666666667,750.9866666666667 L750.9866666666667,737.08" stroke="red" stroke-width="1" fill="none" />
<path d="M750.9866666666667,737.08 L747.0133333333333,737.08" stroke="red" stroke-width="1" fill="none" />
<path d="M747.0133333333333,737.08 L747.0133333333333,752.9733333333334" stroke="red" stroke-width="1" fill="none" />
<path d="M747.0133333333333,752.9733333333334 L749.0,752.9733333333334" stroke="red" stroke-width="1" fill="none" />
<path d="M749.0,752.9733333333334 L780.7866666666666,752.9733333333334" stroke="red" stroke-width="1" fill="none" />
<path d="M780.7866666666666,752.9733333333334 L780.7866666666666,768.8666666666667" stroke="red" stroke-width="1" fill="none" />
<path d="M780.7866666666666,768.8666666666667 L749.0,768.8666666666667" stroke="red" stroke-width="1" fill="none" />
<path d="M749.0,768.8666666666667 L747.0133333333333,768.8666666666667" stroke="red" stroke-width="1" fill="none" />
<path d="M747.0133333333333,768.8666666666667 L727.1466666666666,768.8666666666667" stroke="red" stroke-width="1" fill="none" />
<path d="M727.1466666666666,768.8666666666667 L727.1466666666666,772.84" stroke="red" stroke-width="1" fill="none" />
<path d="M727.1466666666666,772.84 L774.8266666666666,772.84" stroke="red" stroke-width="1" fill="none" />
<path d="M774.8266666666666,806.1166666666667 L774.8266666666666,832.44" stroke="red" stroke-width="1" fill="none" />
<path d="M758.9333333333333,848.3333333333333 L727.1466666666666,848.3333333333333" stroke="red" stroke-width="1" fill="none" />
<path d="M639.7333333333333,764.8933333333333 L639.7333333333333,762.9066666666666" stroke="red" stroke-width="1" fill="none" />
<path d="M639.7333333333333,762.9066666666666 L639.7333333333333,760.92" stroke="red" stroke-width="1" fill="none" />
<path d="M639.7333333333333,760.92 L592.0533333333333,760.92" stroke="red" stroke-width="1" fill="none" />
<path d="M592.0533333333333,760.92 L592.0533333333333,830.4533333333334" stroke="red" stroke-width="1" fill="none" />
<path d="M592.0533333333333,830.4533333333334 L611.92,830.4533333333334" stroke="red" stroke-width="1" fill="none" />
<path d="M594.04,764.8933333333333 L639.7333333333333,764.8933333333333" stroke="red" stroke-width="1" fill="none" />
<path d="M611.92,824.4933333333333 L594.04,824.4933333333333" stroke="red" stroke-width="1" fill="none" />
<path d="M611.92,826.48 L611.92,824.4933333333333" stroke="red" stroke-width="1" fill="none" />
<path d="M611.92,828.4666666666667 L611.92,826.48" stroke="red" stroke-width="1" fill="none" />
<path d="M611.92,830.4533333333334 L611.92,828.4666666666667" stroke="red" stroke-width="1" fill="none" />
<path d="M705.2933333333333,683.44 L709.2666666666667,679.4666666666667" stroke="red" stroke-width="1" fill="none" />
<path d="M709.2666666666667,679.4666666666667 L701.3199999999999,671.52" stroke="red" stroke-width="1" fill="none" />
<path d="M731.12,709.2666666666667 L731.12,713.24" stroke="red" stroke-width="1" fill="none" />
<path d="M731.12,713.24 L731.12,717.2133333333334" stroke="red" stroke-width="1" fill="none" />
<path d="M731.12,717.2133333333334 L731.12,721.1866666666667" stroke="red" stroke-width="1" fill="none" />
<path d="M731.12,721.1866666666667 L731.12,725.16" stroke="red" stroke-width="1" fill="none" />
<path d="M705.2933333333333,725.16 L705.2933333333333,721.1866666666667" stroke="red" stroke-width="1" fill="none" />
<path d="M705.2933333333333,721.1866666666667 L705.2933333333333,717.2133333333334" stroke="red" stroke-width="1" fill="none" />
<path d="M705.2933333333333,717.2133333333334 L705.2933333333333,713.24" stroke="red" stroke-width="1" fill="none" />
<path d="M705.2933333333333,713.24 L705.2933333333333,709.2666666666667" stroke="red" stroke-width="1" fill="none" />
<path d="M735.0933333333334,705.2933333333333 L731.12,709.2666666666667" stroke="red" stroke-width="1" fill="none" />
<path d="M782.7733333333333,854.2933333333333 L782.7733333333333,766.88" stroke="red" stroke-width="1" fill="none" />
<path d="M782.7733333333333,766.88 L782.7733333333333,750.9866666666667" stroke="red" stroke-width="1" fill="none" />
<path d="M782.7733333333333,750.9866666666667 L782.7733333333333,723.1733333333333" stroke="red" stroke-width="1" fill="none" />
<path d="M774.8266666666666,772.84 L774.8266666666666,803.1366666666667" stroke="red" stroke-width="1" fill="none" />
<path d="M774.8266666666666,803.1366666666667 L778.8,803.1366666666667" stroke="red" stroke-width="1" fill="none" />
<path d="M778.8,803.1366666666667 L778.8,806.1166666666667" stroke="lavender" stroke-width="1" fill="none" />
<path d="M778.8,806.1166666666667 L774.8266666666666,806.1166666666667" stroke="red" stroke-width="1" fill="none" />
<path d="M594.04,824.4933333333333 L594.04,782.7733333333333" stroke="red" stroke-width="1" fill="none" />
<path d="M594.04,782.7733333333333 L594.04,764.8933333333333" stroke="red" stroke-width="1" fill="none" />
<path d="M657.6133333333333,766.88 L659.6,766.88" stroke="red" stroke-width="1" fill="none" />
<path d="M659.6,766.88 L659.6,758.9333333333333" stroke="red" stroke-width="1" fill="none" />
<path d="M659.6,782.7733333333333 L657.6133333333333,782.7733333333333" stroke="red" stroke-width="1" fill="none" />
<path d="M774.8266666666666,832.44 L778.8,832.44" stroke="red" stroke-width="1" fill="none" />
<path d="M778.8,832.44 L778.8,848.3333333333333" stroke="red" stroke-width="1" fill="none" />
<path d="M774.8266666666666,852.3066666666666 L758.9333333333333,852.3066666666666" stroke="red" stroke-width="1" fill="none" />
<path d="M758.9333333333333,852.3066666666666 L758.9333333333333,848.3333333333333" stroke="red" stroke-width="1" fill="none" />
<path d="M705.2933333333333,693.3733333333333 L705.2933333333333,683.44" stroke="red" stroke-width="1" fill="none" />
<path d="M778.8,848.3333333333333 L778.8,852.3066666666666" stroke="red" stroke-width="1" fill="none" />
<path d="M778.8,852.3066666666666 L774.8266666666666,852.3066666666666" stroke="red" stroke-width="1" fill="none" />
<path d="M705.2933333333333,848.3333333333333 L685.4266666666666,848.3333333333333" stroke="red" stroke-width="1" fill="none" />
<path d="M685.4266666666666,848.3333333333333 L659.6,848.3333333333333" stroke="red" stroke-width="1" fill="none" />
<path d="M659.6,848.3333333333333 L659.6,830.4533333333334" stroke="red" stroke-width="1" fill="none" />
<path d="M659.6,830.4533333333334 L659.6,822.5066666666667" stroke="red" stroke-width="1" fill="none" />
<path d="M659.6,822.5066666666667 L659.6,810.5866666666666" stroke="red" stroke-width="1" fill="none" />
<path d="M659.6,810.5866666666666 L659.6,794.6933333333334" stroke="red" stroke-width="1" fill="none" />
<path d="M659.6,794.6933333333334 L659.6,782.7733333333333" stroke="red" stroke-width="1" fill="none" />
<path d="M684.4333333333333,721.1866666666667 L684.4333333333333,725.16" stroke="red" stroke-width="1" fill="none" />
<path d="M674.5,721.1866666666667 L684.4333333333333,721.1866666666667" stroke="lavender" stroke-width="1" fill="none" />
<path d="M674.5,725.16 L674.5,721.1866666666667" stroke="red" stroke-width="1" fill="none" />
<path d="M659.6,725.16 L674.5,725.16" stroke="red" stroke-width="1" fill="none" />
<path d="M717.2133333333334,637.7466666666667 L711.2533333333333,637.7466666666667" stroke="red" stroke-width="1" fill="none" />
<path d="M675.4933333333333,637.7466666666667 L665.56,637.7466666666667" stroke="red" stroke-width="1" fill="none" />
<path d="M671.52,639.7333333333333 L675.4933333333333,639.7333333333333" stroke="red" stroke-width="1" fill="none" />
<path d="M711.2533333333333,639.7333333333333 L719.2,639.7333333333333" stroke="red" stroke-width="1" fill="none" />
<path d="M711.2533333333333,637.7466666666667 L711.2533333333333,639.7333333333333" stroke="red" stroke-width="1" fill="none" />
<path d="M675.4933333333333,639.7333333333333 L675.4933333333333,637.7466666666667" stroke="red" stroke-width="1" fill="none" />
<path d="M701.3199999999999,671.52 L701.3199999999999,693.3733333333333" stroke="red" stroke-width="1" fill="none" />
<path d="M701.3199999999999,709.2666666666667 L701.3199999999999,719.2" stroke="red" stroke-width="1" fill="none" />
<path d="M701.3199999999999,693.3733333333333 L705.2933333333333,693.3733333333333" stroke="red" stroke-width="1" fill="none" />
<path d="M705.2933333333333,709.2666666666667 L701.3199999999999,709.2666666666667" stroke="red" stroke-width="1" fill="none" />
<path d="M560.2666666666667,480.8 L639.7333333333333,480.8" stroke="red" stroke-width="1" fill="none" />
<path d="M480.8,560.2666666666667 L560.2666666666667,480.8" stroke="red" stroke-width="1" fill="none" />
<path d="M480.8,846.3466666666667 L480.8,560.2666666666667" stroke="red" stroke-width="1" fill="none" />
<path d="M576.16,941.7066666666667 L480.8,846.3466666666667" stroke="red" stroke-width="1" fill="none" />
<path d="M687.4133333333333,941.7066666666667 L576.16,941.7066666666667" stroke="red" stroke-width="1" fill="none" />
<path d="M687.4133333333333,957.5999999999999 L687.4133333333333,941.7066666666667" stroke="red" stroke-width="1" fill="none" />
<path d="M568.2133333333334,957.5999999999999 L687.4133333333333,957.5999999999999" stroke="red" stroke-width="1" fill="none" />
<path d="M464.90666666666664,854.2933333333333 L568.2133333333334,957.5999999999999" stroke="red" stroke-width="1" fill="none" />
<path d="M464.90666666666664,552.32 L464.90666666666664,854.2933333333333" stroke="red" stroke-width="1" fill="none" />
<path d="M552.32,464.90666666666664 L464.90666666666664,552.32" stroke="red" stroke-width="1" fill="none" />
<path d="M639.7333333333333,464.90666666666664 L552.32,464.90666666666664" stroke="red" stroke-width="1" fill="none" />
<path d="M639.7333333333333,480.8 L639.7333333333333,464.90666666666664" stroke="red" stroke-width="1" fill="none" />
<path d="M735.0933333333334,464.90666666666664 L735.0933333333334,480.8" stroke="red" stroke-width="1" fill="none" />
<path d="M735.0933333333334,480.8 L766.88,480.8" stroke="red" stroke-width="1" fill="none" />
<path d="M766.88,480.8 L830.4533333333334,560.2666666666667" stroke="red" stroke-width="1" fill="none" />
<path d="M830.4533333333334,560.2666666666667 L830.4533333333334,862.24" stroke="red" stroke-width="1" fill="none" />
<path d="M830.4533333333334,862.24 L750.9866666666667,941.7066666666667" stroke="red" stroke-width="1" fill="none" />
<path d="M750.9866666666667,941.7066666666667 L719.2,941.7066666666667" stroke="red" stroke-width="1" fill="none" />
<path d="M719.2,941.7066666666667 L719.2,957.5999999999999" stroke="red" stroke-width="1" fill="none" />
<path d="M719.2,957.5999999999999 L758.9333333333333,957.5999999999999" stroke="red" stroke-width="1" fill="none" />
<path d="M758.9333333333333,957.5999999999999 L846.3466666666667,870.1866666666667" stroke="red" stroke-width="1" fill="none" />
<path d="M846.3466666666667,870.1866666666667 L846.3466666666667,552.32" stroke="red" stroke-width="1" fill="none" />
<path d="M846.3466666666667,552.32 L774.8266666666666,464.90666666666664" stroke="red" stroke-width="1" fill="none" />
<path d="M774.8266666666666,464.90666666666664 L735.0933333333334,464.90666666666664" stroke="red" stroke-width="1" fill="none" />
<path d="M735.0933333333334,369.5466666666667 L750.9866666666667,369.5466666666667" stroke="red" stroke-width="1" fill="none" />
<path d="M750.9866666666667,369.5466666666667 L750.9866666666667,290.08000000000004" stroke="red" stroke-width="1" fill="none" />
<path d="M711.2533333333333,290.08000000000004 L711.2533333333333,294.05333333333334" stroke="red" stroke-width="1" fill="none" />
<path d="M711.2533333333333,294.05333333333334 L749.0,294.05333333333334" stroke="red" stroke-width="1" fill="none" />
<path d="M749.0,294.05333333333334 L749.0,365.5733333333333" stroke="red" stroke-width="1" fill="none" />
<path d="M749.0,365.5733333333333 L735.0933333333334,365.5733333333333" stroke="red" stroke-width="1" fill="none" />
<path d="M735.0933333333334,365.5733333333333 L735.0933333333334,369.5466666666667" stroke="red" stroke-width="1" fill="none" />
<path d="M671.52,369.5466666666667 L671.52,365.5733333333333" stroke="red" stroke-width="1" fill="none" />
<path d="M671.52,365.5733333333333 L655.6266666666667,365.5733333333333" stroke="red" stroke-width="1" fill="none" />
<path d="M655.6266666666667,365.5733333333333 L655.6266666666667,294.05333333333334" stroke="red" stroke-width="1" fill="none" />
<path d="M653.64,294.05333333333334 L653.64,367.56" stroke="red" stroke-width="1" fill="none" />
<path d="M655.6266666666667,294.05333333333334 L687.4133333333333,294.05333333333334" stroke="red" stroke-width="1" fill="none" />
<path d="M687.4133333333333,294.05333333333334 L687.4133333333333,290.08000000000004" stroke="red" stroke-width="1" fill="none" />
<path d="M671.52,290.08000000000004 L631.7866666666666,290.08000000000004" stroke="red" stroke-width="1" fill="none" />
<path d="M607.9466666666667,290.08000000000004 L607.9466666666667,274.18666666666667" stroke="red" stroke-width="1" fill="none" />
<path d="M607.9466666666667,274.18666666666667 L605.96,274.18666666666667" stroke="red" stroke-width="1" fill="none" />
<path d="M605.96,274.18666666666667 L603.9733333333334,274.18666666666667" stroke="red" stroke-width="1" fill="none" />
<path d="M603.9733333333334,274.18666666666667 L601.9866666666667,274.18666666666667" stroke="red" stroke-width="1" fill="none" />
<path d="M601.9866666666667,274.18666666666667 L601.9866666666667,294.05333333333334" stroke="red" stroke-width="1" fill="none" />
<path d="M601.9866666666667,294.05333333333334 L615.8933333333333,294.05333333333334" stroke="red" stroke-width="1" fill="none" />
<path d="M631.7866666666666,294.05333333333334 L653.64,294.05333333333334" stroke="red" stroke-width="1" fill="none" />
<path d="M601.9866666666667,242.40000000000003 L603.9733333333334,242.40000000000003" stroke="red" stroke-width="1" fill="none" />
<path d="M603.9733333333334,242.40000000000003 L605.96,242.40000000000003" stroke="red" stroke-width="1" fill="none" />
<path d="M605.96,242.40000000000003 L607.9466666666667,242.40000000000003" stroke="red" stroke-width="1" fill="none" />
<path d="M607.9466666666667,242.40000000000003 L607.9466666666667,226.50666666666666" stroke="red" stroke-width="1" fill="none" />
<path d="M747.0133333333333,290.08000000000004 L711.2533333333333,290.08000000000004" stroke="red" stroke-width="1" fill="none" />
<path d="M750.9866666666667,290.08000000000004 L747.0133333333333,290.08000000000004" stroke="red" stroke-width="1" fill="none" />
<path d="M607.9466666666667,226.50666666666666 L607.9466666666667,222.53333333333336" stroke="red" stroke-width="1" fill="none" />
<path d="M576.16,222.53333333333336 L576.16,226.50666666666666" stroke="red" stroke-width="1" fill="none" />
<path d="M576.16,226.50666666666666 L601.9866666666667,226.50666666666666" stroke="red" stroke-width="1" fill="none" />
<path d="M601.9866666666667,226.50666666666666 L601.9866666666667,242.40000000000003" stroke="red" stroke-width="1" fill="none" />
<path d="M528.48,222.53333333333336 L433.12,222.53333333333336" stroke="red" stroke-width="1" fill="none" />
<path d="M496.6933333333333,226.50666666666666 L528.48,226.50666666666666" stroke="red" stroke-width="1" fill="none" />
<path d="M528.48,226.50666666666666 L528.48,222.53333333333336" stroke="red" stroke-width="1" fill="none" />
<path d="M464.90666666666664,226.50666666666666 L468.88,242.40000000000003" stroke="red" stroke-width="1" fill="none" />
<path d="M468.88,242.40000000000003 L472.85333333333335,242.40000000000003" stroke="red" stroke-width="1" fill="none" />
<path d="M472.85333333333335,242.40000000000003 L472.85333333333335,226.50666666666666" stroke="red" stroke-width="1" fill="none" />
<path d="M472.85333333333335,226.50666666666666 L488.74666666666667,226.50666666666666" stroke="red" stroke-width="1" fill="none" />
<path d="M488.74666666666667,226.50666666666666 L488.74666666666667,242.40000000000003" stroke="red" stroke-width="1" fill="none" />
<path d="M488.74666666666667,242.40000000000003 L492.72,242.40000000000003" stroke="red" stroke-width="1" fill="none" />
<path d="M492.72,242.40000000000003 L496.6933333333333,226.50666666666666" stroke="red" stroke-width="1" fill="none" />
<path d="M433.12,222.53333333333336 L433.12,226.50666666666666" stroke="red" stroke-width="1" fill="none" />
<path d="M433.12,226.50666666666666 L464.90666666666664,226.50666666666666" stroke="red" stroke-width="1" fill="none" />
<path d="M385.44,222.53333333333336 L353.65333333333336,222.53333333333336" stroke="red" stroke-width="1" fill="none" />
<path d="M353.65333333333336,222.53333333333336 L353.65333333333336,313.92" stroke="red" stroke-width="1" fill="none" />
<path d="M357.62666666666667,284.12 L357.62666666666667,226.50666666666666" stroke="red" stroke-width="1" fill="none" />
<path d="M357.62666666666667,226.50666666666666 L385.44,226.50666666666666" stroke="red" stroke-width="1" fill="none" />
<path d="M385.44,226.50666666666666 L385.44,222.53333333333336" stroke="red" stroke-width="1" fill="none" />
<path d="M357.62666666666667,288.09333333333336 L449.0133333333333,288.09333333333336" stroke="red" stroke-width="1" fill="none" />
<path d="M449.0133333333333,288.09333333333336 L449.0133333333333,284.12" stroke="red" stroke-width="1" fill="none" />
<path d="M449.0133333333333,284.12 L357.62666666666667,284.12" stroke="red" stroke-width="1" fill="none" />
<path d="M653.64,367.56 L580.1333333333333,367.56" stroke="red" stroke-width="1" fill="none" />
<path d="M580.1333333333333,367.56 L580.1333333333333,321.8666666666667" stroke="red" stroke-width="1" fill="none" />
<path d="M580.1333333333333,321.8666666666667 L576.16,321.8666666666667" stroke="red" stroke-width="1" fill="none" />
<path d="M576.16,321.8666666666667 L576.16,367.56" stroke="red" stroke-width="1" fill="none" />
<path d="M576.16,367.56 L506.62666666666667,367.56" stroke="red" stroke-width="1" fill="none" />
<path d="M480.8,369.5466666666667 L671.52,369.5466666666667" stroke="red" stroke-width="1" fill="none" />
<path d="M506.62666666666667,367.56 L506.62666666666667,321.8666666666667" stroke="red" stroke-width="1" fill="none" />
<path d="M506.62666666666667,321.8666666666667 L449.0133333333333,321.8666666666667" stroke="red" stroke-width="1" fill="none" />
<path d="M449.0133333333333,321.8666666666667 L449.0133333333333,325.84000000000003" stroke="red" stroke-width="1" fill="none" />
<path d="M449.0133333333333,325.84000000000003 L449.0133333333333,327.82666666666665" stroke="red" stroke-width="1" fill="none" />
<path d="M449.0133333333333,327.82666666666665 L449.0133333333333,329.81333333333333" stroke="red" stroke-width="1" fill="none" />
<path d="M449.0133333333333,329.81333333333333 L504.64,329.81333333333333" stroke="red" stroke-width="1" fill="none" />
<path d="M480.8,359.61333333333334 L480.8,369.5466666666667" stroke="lavender" stroke-width="1" fill="none" />
<path d="M504.64,359.61333333333334 L480.8,359.61333333333334" stroke="red" stroke-width="1" fill="none" />
<path d="M504.64,329.81333333333333 L504.64,359.61333333333334" stroke="red" stroke-width="1" fill="none" />
<path d="M433.12,321.8666666666667 L429.14666666666665,321.8666666666667" stroke="red" stroke-width="1" fill="none" />
<path d="M429.14666666666665,321.8666666666667 L429.14666666666665,367.56" stroke="red" stroke-width="1" fill="none" />
<path d="M429.14666666666665,367.56 L401.33333333333337,367.56" stroke="red" stroke-width="1" fill="none" />
<path d="M401.33333333333337,367.56 L397.36,367.56" stroke="red" stroke-width="1" fill="none" />
<path d="M397.36,367.56 L357.62666666666667,367.56" stroke="red" stroke-width="1" fill="none" />
<path d="M357.62666666666667,367.56 L357.62666666666667,345.7066666666667" stroke="red" stroke-width="1" fill="none" />
<path d="M357.62666666666667,345.7066666666667 L353.65333333333336,345.7066666666667" stroke="red" stroke-width="1" fill="none" />
<path d="M353.65333333333336,345.7066666666667 L353.65333333333336,369.5466666666667" stroke="red" stroke-width="1" fill="none" />
<path d="M353.65333333333336,369.5466666666667 L464.90666666666664,369.5466666666667" stroke="red" stroke-width="1" fill="none" />
<path d="M464.90666666666664,369.5466666666667 L464.90666666666664,359.61333333333334" stroke="red" stroke-width="1" fill="none" />
<path d="M464.90666666666664,359.61333333333334 L433.12,359.61333333333334" stroke="red" stroke-width="1" fill="none" />
<path d="M433.12,359.61333333333334 L433.12,329.81333333333333" stroke="red" stroke-width="1" fill="none" />
<path d="M433.12,329.81333333333333 L433.12,327.82666666666665" stroke="red" stroke-width="1" fill="none" />
<path d="M433.12,327.82666666666665 L433.12,325.84000000000003" stroke="red" stroke-width="1" fill="none" />
<path d="M433.12,325.84000000000003 L433.12,321.8666666666667" stroke="red" stroke-width="1" fill="none" />
<path d="M401.33333333333337,337.76 L401.33333333333337,321.8666666666667" stroke="red" stroke-width="1" fill="none" />
<path d="M397.36,337.76 L401.33333333333337,337.76" stroke="red" stroke-width="1" fill="none" />
<path d="M397.36,321.8666666666667 L397.36,337.76" stroke="red" stroke-width="1" fill="none" />
<path d="M401.33333333333337,321.8666666666667 L397.36,321.8666666666667" stroke="red" stroke-width="1" fill="none" />
<path d="M353.65333333333336,313.92 L357.62666666666667,313.92" stroke="red" stroke-width="1" fill="none" />
<path d="M357.62666666666667,313.92 L357.62666666666667,288.09333333333336" stroke="red" stroke-width="1" fill="none" />
<path d="M399.3466666666667,305.97333333333336 L401.33333333333337,305.97333333333336" stroke="red" stroke-width="1" fill="none" />
<path d="M401.33333333333337,305.97333333333336 L401.33333333333337,303.9866666666667" stroke="red" stroke-width="1" fill="none" />
<path d="M401.33333333333337,303.9866666666667 L399.3466666666667,303.9866666666667" stroke="red" stroke-width="1" fill="none" />
<path d="M399.3466666666667,303.9866666666667 L399.3466666666667,305.97333333333336" stroke="red" stroke-width="1" fill="none" />
<path d="M399.3466666666667,300.0133333333333 L401.33333333333337,300.0133333333333" stroke="red" stroke-width="1" fill="none" />
<path d="M401.33333333333337,300.0133333333333 L401.33333333333337,298.0266666666667" stroke="red" stroke-width="1" fill="none" />
<path d="M401.33333333333337,298.0266666666667 L399.3466666666667,298.0266666666667" stroke="red" stroke-width="1" fill="none" />
<path d="M399.3466666666667,298.0266666666667 L399.3466666666667,300.0133333333333" stroke="red" stroke-width="1" fill="none" />
<path d="M399.3466666666667,294.05333333333334 L401.33333333333337,294.05333333333334" stroke="red" stroke-width="1" fill="none" />
<path d="M401.33333333333337,294.05333333333334 L401.33333333333337,292.06666666666666" stroke="red" stroke-width="1" fill="none" />
<path d="M401.33333333333337,292.06666666666666 L399.3466666666667,292.06666666666666" stroke="red" stroke-width="1" fill="none" />
<path d="M399.3466666666667,292.06666666666666 L399.3466666666667,294.05333333333334" stroke="red" stroke-width="1" fill="none" />
<path d="M399.3466666666667,311.93333333333334 L401.33333333333337,311.93333333333334" stroke="red" stroke-width="1" fill="none" />
<path d="M401.33333333333337,311.93333333333334 L401.33333333333337,309.94666666666666" stroke="red" stroke-width="1" fill="none" />
<path d="M401.33333333333337,309.94666666666666 L399.3466666666667,309.94666666666666" stroke="red" stroke-width="1" fill="none" />
<path d="M399.3466666666667,309.94666666666666 L399.3466666666667,311.93333333333334" stroke="red" stroke-width="1" fill="none" />
<path d="M399.3466666666667,317.8933333333334 L401.33333333333337,317.8933333333334" stroke="red" stroke-width="1" fill="none" />
<path d="M401.33333333333337,317.8933333333334 L401.33333333333337,315.9066666666667" stroke="red" stroke-width="1" fill="none" />
<path d="M401.33333333333337,315.9066666666667 L399.3466666666667,315.9066666666667" stroke="red" stroke-width="1" fill="none" />
<path d="M399.3466666666667,315.9066666666667 L399.3466666666667,317.8933333333334" stroke="red" stroke-width="1" fill="none" />
<path d="M615.8933333333333,290.08000000000004 L607.9466666666667,290.08000000000004" stroke="red" stroke-width="1" fill="none" />
<path d="M615.8933333333333,294.05333333333334 L615.8933333333333,290.08000000000004" stroke="red" stroke-width="1" fill="none" />
<path d="M631.7866666666666,290.08000000000004 L631.7866666666666,294.05333333333334" stroke="red" stroke-width="1" fill="none" />
<path d="M687.4133333333333,290.08000000000004 L671.52,290.08000000000004" stroke="red" stroke-width="1" fill="none" />
<path d="M496.6933333333333,1168.1866666666665 L302.0,1168.1866666666665" stroke="red" stroke-width="1" fill="none" />
<path d="M302.0,1168.1866666666665 L170.88,925.8133333333333" stroke="red" stroke-width="1" fill="none" />
<path d="M508.61333333333334,1168.1866666666665 L508.61333333333334,1211.8933333333334" stroke="red" stroke-width="1" fill="none" />
<path d="M496.6933333333333,1211.8933333333334 L496.6933333333333,1168.1866666666665" stroke="red" stroke-width="1" fill="none" />
<path d="M508.61333333333334,1211.8933333333334 L496.6933333333333,1211.8933333333334" stroke="red" stroke-width="1" fill="none" />
<path d="M170.88,925.8133333333333 L99.36000000000001,965.5466666666666" stroke="red" stroke-width="1" fill="none" />
<path d="M85.45333333333338,945.6800000000001 L162.93333333333334,909.92" stroke="red" stroke-width="1" fill="none" />
<path d="M99.36000000000001,965.5466666666666 L99.36000000000001,989.3866666666667" stroke="red" stroke-width="1" fill="none" />
<path d="M99.36000000000001,989.3866666666667 L178.8266666666667,989.3866666666667" stroke="red" stroke-width="1" fill="none" />
<path d="M178.8266666666667,989.3866666666667 L178.8266666666667,1196.0" stroke="red" stroke-width="1" fill="none" />
<path d="M178.8266666666667,1196.0 L4.0,1196.0" stroke="red" stroke-width="1" fill="none" />
<path d="M4.0,1196.0 L4.0,941.7066666666667" stroke="red" stroke-width="1" fill="none" />
<path d="M4.0,941.7066666666667 L85.45333333333338,945.6800000000001" stroke="red" stroke-width="1" fill="none" />
<path d="M1100.6399999999999,719.2 L957.5999999999999,719.2" stroke="red" stroke-width="1" fill="none" />
<path d="M957.5999999999999,719.2 L957.5999999999999,528.48" stroke="red" stroke-width="1" fill="none" />
<path d="M957.5999999999999,528.48 L1100.6399999999999,528.48" stroke="red" stroke-width="1" fill="none" />
<path d="M1037.0666666666666,727.1466666666666 L1108.5866666666666,727.1466666666666" stroke="red" stroke-width="1" fill="none" />
<path d="M1108.5866666666666,520.5333333333333 L1037.0666666666666,520.5333333333333" stroke="red" stroke-width="1" fill="none" />
<path d="M949.6533333333333,727.1466666666666 L1021.1733333333333,727.1466666666666" stroke="red" stroke-width="1" fill="none" />
<path d="M1021.1733333333333,727.1466666666666 L1021.1733333333333,725.16" stroke="red" stroke-width="1" fill="none" />
<path d="M1037.0666666666666,725.16 L1037.0666666666666,727.1466666666666" stroke="red" stroke-width="1" fill="none" />
<path d="M1021.1733333333333,725.16 L1021.1733333333333,723.1733333333333" stroke="red" stroke-width="1" fill="none" />
<path d="M1021.1733333333333,723.1733333333333 L1021.1733333333333,721.1866666666667" stroke="red" stroke-width="1" fill="none" />
<path d="M1021.1733333333333,721.1866666666667 L1037.0666666666666,721.1866666666667" stroke="red" stroke-width="1" fill="none" />
<path d="M1037.0666666666666,721.1866666666667 L1037.0666666666666,723.1733333333333" stroke="red" stroke-width="1" fill="none" />
<path d="M1037.0666666666666,723.1733333333333 L1037.0666666666666,725.16" stroke="red" stroke-width="1" fill="none" />
<path d="M1037.0666666666666,520.5333333333333 L1037.0666666666666,522.52" stroke="red" stroke-width="1" fill="none" />
<path d="M1037.0666666666666,522.52 L1037.0666666666666,524.5066666666667" stroke="red" stroke-width="1" fill="none" />
<path d="M1037.0666666666666,524.5066666666667 L1037.0666666666666,526.4933333333333" stroke="red" stroke-width="1" fill="none" />
<path d="M1037.0666666666666,526.4933333333333 L1021.1733333333333,526.4933333333333" stroke="red" stroke-width="1" fill="none" />
<path d="M1021.1733333333333,526.4933333333333 L1021.1733333333333,524.5066666666667" stroke="red" stroke-width="1" fill="none" />
<path d="M1021.1733333333333,524.5066666666667 L1021.1733333333333,522.52" stroke="red" stroke-width="1" fill="none" />
<path d="M1021.1733333333333,522.52 L1021.1733333333333,520.5333333333333" stroke="red" stroke-width="1" fill="none" />
<path d="M1021.1733333333333,520.5333333333333 L949.6533333333333,520.5333333333333" stroke="red" stroke-width="1" fill="none" />
<path d="M949.6533333333333,520.5333333333333 L949.6533333333333,615.8933333333333" stroke="red" stroke-width="1" fill="none" />
<path d="M949.6533333333333,615.8933333333333 L951.64,615.8933333333333" stroke="red" stroke-width="1" fill="none" />
<path d="M951.64,615.8933333333333 L953.6266666666667,615.8933333333333" stroke="red" stroke-width="1" fill="none" />
<path d="M953.6266666666667,615.8933333333333 L955.6133333333333,615.8933333333333" stroke="red" stroke-width="1" fill="none" />
<path d="M955.6133333333333,615.8933333333333 L955.6133333333333,631.7866666666666" stroke="red" stroke-width="1" fill="none" />
<path d="M955.6133333333333,631.7866666666666 L953.6266666666667,631.7866666666666" stroke="red" stroke-width="1" fill="none" />
<path d="M953.6266666666667,631.7866666666666 L951.64,631.7866666666666" stroke="red" stroke-width="1" fill="none" />
<path d="M951.64,631.7866666666666 L949.6533333333333,631.7866666666666" stroke="red" stroke-width="1" fill="none" />
<path d="M949.6533333333333,631.7866666666666 L949.6533333333333,727.1466666666666" stroke="red" stroke-width="1" fill="none" />
<path d="M1108.5866666666666,727.1466666666666 L1108.5866666666666,631.7866666666666" stroke="red" stroke-width="1" fill="none" />
<path d="M1108.5866666666666,631.7866666666666 L1106.6,631.7866666666666" stroke="red" stroke-width="1" fill="none" />
<path d="M1106.6,631.7866666666666 L1104.6133333333332,631.7866666666666" stroke="red" stroke-width="1" fill="none" />
<path d="M1104.6133333333332,631.7866666666666 L1102.6266666666666,631.7866666666666" stroke="red" stroke-width="1" fill="none" />
<path d="M1102.6266666666666,615.8933333333333 L1104.6133333333332,615.8933333333333" stroke="red" stroke-width="1" fill="none" />
<path d="M1104.6133333333332,615.8933333333333 L1106.6,615.8933333333333" stroke="red" stroke-width="1" fill="none" />
<path d="M1106.6,615.8933333333333 L1108.5866666666666,615.8933333333333" stroke="red" stroke-width="1" fill="none" />
<path d="M1108.5866666666666,615.8933333333333 L1108.5866666666666,520.5333333333333" stroke="red" stroke-width="1" fill="none" />
<path d="M1100.6399999999999,528.48 L1102.6266666666666,615.8933333333333" stroke="red" stroke-width="1" fill="none" />
<path d="M1102.6266666666666,631.7866666666666 L1100.6399999999999,719.2" stroke="red" stroke-width="1" fill="none" />
<path d="M991.3733333333333,673.5066666666667 L987.4,669.5333333333333" stroke="red" stroke-width="1" fill="none" />
<path d="M987.4,669.5333333333333 L959.5866666666666,669.5333333333333" stroke="red" stroke-width="1" fill="none" />
<path d="M959.5866666666666,669.5333333333333 L959.5866666666666,639.7333333333333" stroke="red" stroke-width="1" fill="none" />
<path d="M959.5866666666666,639.7333333333333 L999.3199999999999,639.7333333333333" stroke="red" stroke-width="1" fill="none" />
<path d="M999.3199999999999,639.7333333333333 L999.3199999999999,653.64" stroke="red" stroke-width="1" fill="none" />
<path d="M999.3199999999999,653.64 L1003.2933333333333,657.6133333333333" stroke="red" stroke-width="1" fill="none" />
<path d="M957.5999999999999,719.2 L991.3733333333333,673.5066666666667" stroke="red" stroke-width="1" fill="none" />
<path d="M1003.2933333333333,657.6133333333333 L1029.12,623.84" stroke="red" stroke-width="1" fill="none" />
<path d="M1029.12,623.84 L957.5999999999999,528.48" stroke="red" stroke-width="1" fill="none" />
<path d="M607.9466666666667,222.53333333333336 L607.9466666666667,83.4666666666667" stroke="red" stroke-width="1" fill="none" />
<path d="M210.61333333333334,83.4666666666667 L601.9866666666667,83.4666666666667" stroke="red" stroke-width="1" fill="none" />
<path d="M601.9866666666667,222.53333333333336 L576.16,222.53333333333336" stroke="red" stroke-width="1" fill="none" />
<path d="M601.9866666666667,83.4666666666667 L601.9866666666667,222.53333333333336" stroke="red" stroke-width="1" fill="none" />
<path d="M584.1066666666667,147.04000000000002 L568.2133333333334,115.25333333333333" stroke="red" stroke-width="1" fill="none" />
<path d="M568.2133333333334,115.25333333333333 L552.32,115.25333333333333" stroke="red" stroke-width="1" fill="none" />
<path d="M536.4266666666667,115.25333333333333 L520.5333333333333,115.25333333333333" stroke="red" stroke-width="1" fill="none" />
<path d="M520.5333333333333,115.25333333333333 L504.64,147.04000000000002" stroke="red" stroke-width="1" fill="none" />
<path d="M504.64,147.04000000000002 L512.5866666666667,147.04000000000002" stroke="red" stroke-width="1" fill="none" />
<path d="M512.5866666666667,147.04000000000002 L526.4933333333333,121.21333333333337" stroke="red" stroke-width="1" fill="none" />
<path d="M526.4933333333333,121.21333333333337 L536.4266666666667,121.21333333333337" stroke="red" stroke-width="1" fill="none" />
<path d="M552.32,121.21333333333337 L562.2533333333333,121.21333333333337" stroke="red" stroke-width="1" fill="none" />
<path d="M562.2533333333333,121.21333333333337 L576.16,147.04000000000002" stroke="red" stroke-width="1" fill="none" />
<path d="M576.16,147.04000000000002 L584.1066666666667,147.04000000000002" stroke="red" stroke-width="1" fill="none" />
<path d="M536.4266666666667,121.21333333333337 L536.4266666666667,115.25333333333333" stroke="red" stroke-width="1" fill="none" />
<path d="M552.32,115.25333333333333 L552.32,121.21333333333337" stroke="red" stroke-width="1" fill="none" />
<path d="M441.06666666666666,147.04000000000002 L425.17333333333335,115.25333333333333" stroke="red" stroke-width="1" fill="none" />
<path d="M425.17333333333335,115.25333333333333 L409.28,115.25333333333333" stroke="red" stroke-width="1" fill="none" />
<path d="M393.38666666666666,115.25333333333333 L377.49333333333334,115.25333333333333" stroke="red" stroke-width="1" fill="none" />
<path d="M377.49333333333334,115.25333333333333 L361.6,147.04000000000002" stroke="red" stroke-width="1" fill="none" />
<path d="M361.6,147.04000000000002 L369.5466666666667,147.04000000000002" stroke="red" stroke-width="1" fill="none" />
<path d="M369.5466666666667,147.04000000000002 L383.4533333333333,121.21333333333337" stroke="red" stroke-width="1" fill="none" />
<path d="M383.4533333333333,121.21333333333337 L393.38666666666666,121.21333333333337" stroke="red" stroke-width="1" fill="none" />
<path d="M409.28,121.21333333333337 L419.21333333333337,121.21333333333337" stroke="red" stroke-width="1" fill="none" />
<path d="M419.21333333333337,121.21333333333337 L433.12,147.04000000000002" stroke="red" stroke-width="1" fill="none" />
<path d="M433.12,147.04000000000002 L441.06666666666666,147.04000000000002" stroke="red" stroke-width="1" fill="none" />
<path d="M393.38666666666666,121.21333333333337 L393.38666666666666,115.25333333333333" stroke="red" stroke-width="1" fill="none" />
<path d="M409.28,115.25333333333333 L409.28,121.21333333333337" stroke="red" stroke-width="1" fill="none" />
<path d="M894.0266666666666,83.4666666666667 L894.0266666666666,19.893333333333317" stroke="red" stroke-width="1" fill="none" />
<path d="M894.0266666666666,19.893333333333317 L1068.8533333333332,19.893333333333317" stroke="red" stroke-width="1" fill="none" />
<path d="M1084.7466666666667,35.78666666666675 L1084.7466666666667,210.61333333333334" stroke="red" stroke-width="1" fill="none" />
<path d="M1084.7466666666667,210.61333333333334 L1037.0666666666666,210.61333333333334" stroke="red" stroke-width="1" fill="none" />
<path d="M1021.1733333333333,226.50666666666666 L1037.0666666666666,226.50666666666666" stroke="red" stroke-width="1" fill="none" />
<path d="M1021.1733333333333,210.61333333333334 L1021.1733333333333,226.50666666666666" stroke="red" stroke-width="1" fill="none" />
<path d="M1037.0666666666666,210.61333333333334 L1021.1733333333333,210.61333333333334" stroke="red" stroke-width="1" fill="none" />
<path d="M894.0266666666666,99.36000000000001 L894.0266666666666,83.4666666666667" stroke="red" stroke-width="1" fill="none" />
<path d="M878.1333333333333,99.36000000000001 L894.0266666666666,99.36000000000001" stroke="red" stroke-width="1" fill="none" />
<path d="M878.1333333333333,83.4666666666667 L878.1333333333333,99.36000000000001" stroke="red" stroke-width="1" fill="none" />
<path d="M162.93333333333334,909.92 L147.04000000000002,882.1066666666667" stroke="red" stroke-width="1" fill="none" />
<path d="M147.04000000000002,882.1066666666667 L147.04000000000002,846.3466666666667" stroke="red" stroke-width="1" fill="none" />
<path d="M147.04000000000002,846.3466666666667 L168.89333333333337,820.52" stroke="red" stroke-width="1" fill="none" />
<path d="M168.89333333333337,820.52 L194.72000000000003,816.5466666666666" stroke="red" stroke-width="1" fill="none" />
<path d="M194.72000000000003,816.5466666666666 L212.60000000000002,830.4533333333334" stroke="red" stroke-width="1" fill="none" />
<path d="M212.60000000000002,830.4533333333334 L226.50666666666666,822.5066666666667" stroke="red" stroke-width="1" fill="none" />
<path d="M226.50666666666666,822.5066666666667 L212.60000000000002,790.72" stroke="red" stroke-width="1" fill="none" />
<path d="M212.60000000000002,790.72 L180.81333333333333,780.7866666666666" stroke="red" stroke-width="1" fill="none" />
<path d="M180.81333333333333,780.7866666666666 L154.98666666666668,784.76" stroke="red" stroke-width="1" fill="none" />
<path d="M154.98666666666668,784.76 L137.10666666666668,774.8266666666666" stroke="red" stroke-width="1" fill="none" />
<path d="M137.10666666666668,774.8266666666666 L131.14666666666665,739.0666666666666" stroke="red" stroke-width="1" fill="none" />
<path d="M131.14666666666665,739.0666666666666 L143.06666666666672,697.3466666666667" stroke="red" stroke-width="1" fill="none" />
<path d="M143.06666666666672,697.3466666666667 L172.86666666666667,689.4" stroke="red" stroke-width="1" fill="none" />
<path d="M172.86666666666667,689.4 L214.5866666666667,689.4" stroke="red" stroke-width="1" fill="none" />
<path d="M214.5866666666667,689.4 L246.37333333333333,703.3066666666666" stroke="red" stroke-width="1" fill="none" />
<path d="M246.37333333333333,703.3066666666666 L280.1466666666667,750.9866666666667" stroke="red" stroke-width="1" fill="none" />
<path d="M280.1466666666667,750.9866666666667 L309.94666666666666,733.1066666666667" stroke="red" stroke-width="1" fill="none" />
<path d="M309.94666666666666,733.1066666666667 L286.1066666666667,675.4933333333333" stroke="red" stroke-width="1" fill="none" />
<path d="M286.1066666666667,675.4933333333333 L250.3466666666667,649.6666666666666" stroke="red" stroke-width="1" fill="none" />
<path d="M250.3466666666667,649.6666666666666 L192.73333333333335,639.7333333333333" stroke="red" stroke-width="1" fill="none" />
<path d="M192.73333333333335,639.7333333333333 L154.98666666666668,643.7066666666667" stroke="red" stroke-width="1" fill="none" />
<path d="M154.98666666666668,643.7066666666667 L127.1733333333334,635.76" stroke="red" stroke-width="1" fill="none" />
<path d="M127.1733333333334,635.76 L121.21333333333337,594.04" stroke="red" stroke-width="1" fill="none" />
<path d="M121.21333333333337,594.04 L154.98666666666668,568.2133333333334" stroke="red" stroke-width="1" fill="none" />
<path d="M154.98666666666668,568.2133333333334 L192.73333333333335,568.2133333333334" stroke="red" stroke-width="1" fill="none" />
<path d="M192.73333333333335,568.2133333333334 L224.52000000000004,594.04" stroke="red" stroke-width="1" fill="none" />
<path d="M224.52000000000004,594.04 L258.29333333333335,578.1466666666666" stroke="red" stroke-width="1" fill="none" />
<path d="M258.29333333333335,578.1466666666666 L248.36,540.4" stroke="red" stroke-width="1" fill="none" />
<path d="M248.36,540.4 L218.56,520.5333333333333" stroke="red" stroke-width="1" fill="none" />
<path d="M218.56,520.5333333333333 L176.84000000000003,522.52" stroke="red" stroke-width="1" fill="none" />
<path d="M176.84000000000003,522.52 L186.77333333333337,496.6933333333333" stroke="red" stroke-width="1" fill="none" />
<path d="M719.2,1021.1733333333333 L703.3066666666666,1035.08" stroke="red" stroke-width="1" fill="none" />
<path d="M703.3066666666666,1035.08 L703.3066666666666,1048.9866666666667" stroke="red" stroke-width="1" fill="none" />
<path d="M703.3066666666666,1048.9866666666667 L717.2133333333334,1058.92" stroke="red" stroke-width="1" fill="none" />
<path d="M717.2133333333334,1058.92 L729.1333333333333,1054.9466666666667" stroke="red" stroke-width="1" fill="none" />
<path d="M729.1333333333333,1054.9466666666667 L737.08,1043.0266666666666" stroke="red" stroke-width="1" fill="none" />
<path d="M737.08,1043.0266666666666 L735.0933333333334,1025.1466666666665" stroke="red" stroke-width="1" fill="none" />
<path d="M735.0933333333334,1025.1466666666665 L719.2,1021.1733333333333" stroke="red" stroke-width="1" fill="none" />
<path d="M772.84,1082.76 L756.9466666666667,1084.7466666666667" stroke="red" stroke-width="1" fill="none" />
<path d="M756.9466666666667,1084.7466666666667 L752.9733333333334,1092.6933333333334" stroke="red" stroke-width="1" fill="none" />
<path d="M752.9733333333334,1092.6933333333334 L758.9333333333333,1102.6266666666666" stroke="red" stroke-width="1" fill="none" />
<path d="M758.9333333333333,1102.6266666666666 L774.8266666666666,1108.5866666666666" stroke="red" stroke-width="1" fill="none" />
<path d="M774.8266666666666,1108.5866666666666 L784.76,1100.6399999999999" stroke="red" stroke-width="1" fill="none" />
<path d="M784.76,1100.6399999999999 L782.7733333333333,1086.7333333333333" stroke="red" stroke-width="1" fill="none" />
<path d="M782.7733333333333,1086.7333333333333 L772.84,1082.76" stroke="red" stroke-width="1" fill="none" />
<path d="M810.5866666666666,1001.3066666666666 L792.7066666666667,1005.28" stroke="red" stroke-width="1" fill="none" />
<path d="M792.7066666666667,1005.28 L786.7466666666667,1019.1866666666667" stroke="red" stroke-width="1" fill="none" />
<path d="M786.7466666666667,1019.1866666666667 L798.6666666666666,1043.0266666666666" stroke="red" stroke-width="1" fill="none" />
<path d="M798.6666666666666,1043.0266666666666 L810.5866666666666,1039.0533333333333" stroke="red" stroke-width="1" fill="none" />
<path d="M810.5866666666666,1039.0533333333333 L820.52,1027.1333333333332" stroke="red" stroke-width="1" fill="none" />
<path d="M820.52,1027.1333333333332 L818.5333333333333,1011.24" stroke="red" stroke-width="1" fill="none" />
<path d="M818.5333333333333,1011.24 L810.5866666666666,1001.3066666666666" stroke="red" stroke-width="1" fill="none" />
<path d="M1068.8533333333332,19.893333333333317 L1084.7466666666667,4.0" stroke="red" stroke-width="1" fill="none" />
<path d="M1100.6399999999999,19.893333333333317 L1084.7466666666667,35.78666666666675" stroke="red" stroke-width="1" fill="none" />
<path d="M808.6,337.76 L814.56,363.5866666666667" stroke="red" stroke-width="1" fill="none" />
<path d="M814.56,363.5866666666667 L832.44,383.4533333333333" stroke="red" stroke-width="1" fill="none" />
<path d="M832.44,383.4533333333333 L850.3199999999999,395.37333333333333" stroke="red" stroke-width="1" fill="none" />
<path d="M850.3199999999999,395.37333333333333 L884.0933333333334,403.32000000000005" stroke="red" stroke-width="1" fill="none" />
<path d="M884.0933333333334,403.32000000000005 L915.88,401.33333333333337" stroke="red" stroke-width="1" fill="none" />
<path d="M915.88,401.33333333333337 L929.7866666666666,389.41333333333336" stroke="red" stroke-width="1" fill="none" />
<path d="M929.7866666666666,389.41333333333336 L925.8133333333333,381.4666666666667" stroke="red" stroke-width="1" fill="none" />
<path d="M925.8133333333333,381.4666666666667 L911.9066666666666,391.40000000000003" stroke="red" stroke-width="1" fill="none" />
<path d="M911.9066666666666,391.40000000000003 L886.0799999999999,395.37333333333333" stroke="red" stroke-width="1" fill="none" />
<path d="M886.0799999999999,395.37333333333333 L854.2933333333333,387.4266666666667" stroke="red" stroke-width="1" fill="none" />
<path d="M854.2933333333333,387.4266666666667 L838.4,377.49333333333334" stroke="red" stroke-width="1" fill="none" />
<path d="M838.4,377.49333333333334 L822.5066666666667,357.62666666666667" stroke="red" stroke-width="1" fill="none" />
<path d="M822.5066666666667,357.62666666666667 L816.5466666666666,337.76" stroke="red" stroke-width="1" fill="none" />
<path d="M816.5466666666666,337.76 L818.5333333333333,309.94666666666666" stroke="red" stroke-width="1" fill="none" />
<path d="M818.5333333333333,309.94666666666666 L808.6,309.94666666666666" stroke="red" stroke-width="1" fill="none" />
<path d="M808.6,309.94666666666666 L808.6,337.76" stroke="red" stroke-width="1" fill="none" />
<path d="M1084.7466666666667,4.0 L1100.6399999999999,4.0" stroke="red" stroke-width="1" fill="none" />
<path d="M1100.6399999999999,4.0 L1100.6399999999999,19.893333333333317" stroke="red" stroke-width="1" fill="none" />
</svg>