<?xml version="1.0" encoding="UTF-8"?>
<svg xmlns="http://www.w3.org/2000/svg" xmlns:xlink="http://www.w3.org/1999/xlink"
     width="1200" height="1349" viewBox="0 0 1200 1349">
<defs>
</defs>
<path d="M515.4685816876122,314.3052064631957 L515.4685816876122,331.42549371633754" stroke="yellow" stroke-width="1" fill="none" />
<path d="M408.4667863554758,290.7648114901257 L412.7468581687612,260.8043087971275" stroke="yellow" stroke-width="1" fill="none" />
<path d="M464.1077199281867,247.9640933572711 L485.50807899461404,258.66427289048477" stroke="yellow" stroke-width="1" fill="none" />
<path d="M280.064631956912,331.42549371633754 L271.50448833034113,369.94614003590664" stroke="yellow" stroke-width="1" fill="none" />
<path d="M271.50448833034113,369.94614003590664 L275.78456014362655,412.74685816876126" stroke="yellow" stroke-width="1" fill="none" />
<path d="M275.78456014362655,412.74685816876126 L297.18491921005386,442.7073608617594" stroke="yellow" stroke-width="1" fill="none" />
<path d="M481.22800718132856,434.1472172351885 L506.9084380610413,421.30700179533216" stroke="yellow" stroke-width="1" fill="none" />
<path d="M543.2890484739677,427.72710951526034 L558.2692998204668,438.427289048474" stroke="yellow" stroke-width="1" fill="none" />
<path d="M575.3895870736086,588.2298025134651 L575.3895870736086,558.2692998204668" stroke="yellow" stroke-width="1" fill="none" />
<path d="M382.786355475763,489.78815080789946 L369.94614003590664,451.26750448833036" stroke="yellow" stroke-width="1" fill="none" />
<path d="M357.1059245960503,549.709156193896 L382.786355475763,489.78815080789946" stroke="yellow" stroke-width="1" fill="none" />
<path d="M297.18491921005386,592.5098743267505 L357.1059245960503,549.709156193896" stroke="yellow" stroke-width="1" fill="none" />
<path d="M220.14362657091561,609.6301615798923 L297.18491921005386,592.5098743267505" stroke="yellow" stroke-width="1" fill="none" />
<path d="M177.34290843806104,601.0700179533214 L220.14362657091561,609.6301615798923" stroke="yellow" stroke-width="1" fill="none" />
<path d="M143.10233393177737,652.4308797127469 L155.94254937163373,635.310592459605" stroke="yellow" stroke-width="1" fill="none" />
<path d="M138.8222621184919,673.8312387791741 L143.10233393177737,652.4308797127469" stroke="yellow" stroke-width="1" fill="none" />
<path d="M155.94254937163373,690.951526032316 L138.8222621184919,673.8312387791741" stroke="yellow" stroke-width="1" fill="none" />
<path d="M173.06283662477557,686.6714542190306 L155.94254937163373,690.951526032316" stroke="yellow" stroke-width="1" fill="none" />
<path d="M185.90305206463194,669.5511669658888 L173.06283662477557,686.6714542190306" stroke="yellow" stroke-width="1" fill="none" />
<path d="M185.90305206463194,652.4308797127469 L185.90305206463194,669.5511669658888" stroke="yellow" stroke-width="1" fill="none" />
<path d="M215.86355475763014,643.870736086176 L185.90305206463194,652.4308797127469" stroke="yellow" stroke-width="1" fill="none" />
<path d="M237.26391382405745,648.1508078994614 L215.86355475763014,643.870736086176" stroke="yellow" stroke-width="1" fill="none" />
<path d="M241.5439856373429,656.7109515260324 L237.26391382405745,648.1508078994614" stroke="yellow" stroke-width="1" fill="none" />
<path d="M258.66427289048477,656.7109515260324 L241.5439856373429,656.7109515260324" stroke="yellow" stroke-width="1" fill="none" />
<path d="M258.66427289048477,643.870736086176 L258.66427289048477,656.7109515260324" stroke="yellow" stroke-width="1" fill="none" />
<path d="M245.82405745062835,626.7504488330342 L258.66427289048477,643.870736086176" stroke="yellow" stroke-width="1" fill="none" />
<path d="M215.86355475763014,622.4703770197486 L245.82405745062835,626.7504488330342" stroke="yellow" stroke-width="1" fill="none" />
<path d="M190.1831238779174,626.7504488330342 L215.86355475763014,622.4703770197486" stroke="yellow" stroke-width="1" fill="none" />
<path d="M181.6229802513465,635.310592459605 L190.1831238779174,626.7504488330342" stroke="yellow" stroke-width="1" fill="none" />
<path d="M421.30700179533216,879.2746858168762 L421.30700179533216,892.1149012567325" stroke="yellow" stroke-width="1" fill="none" />
<path d="M547.5691202872531,528.3087971274686 L534.7289048473967,515.4685816876122" stroke="yellow" stroke-width="1" fill="none" />
<path d="M564.689407540395,524.0287253141831 L547.5691202872531,528.3087971274686" stroke="yellow" stroke-width="1" fill="none" />
<path d="M566.8294434470376,500.48833034111317 L564.689407540395,524.0287253141831" stroke="yellow" stroke-width="1" fill="none" />
<path d="M551.8491921005386,487.64811490125675 L566.8294434470376,500.48833034111317" stroke="yellow" stroke-width="1" fill="none" />
<path d="M532.5888689407541,494.06822262118493 L543.2890484739677,487.64811490125675" stroke="yellow" stroke-width="1" fill="none" />
<path d="M534.7289048473967,515.4685816876122 L532.5888689407541,494.06822262118493" stroke="yellow" stroke-width="1" fill="none" />
<path d="M622.4703770197486,710.2118491921005 L611.770197486535,690.951526032316" stroke="yellow" stroke-width="1" fill="none" />
<path d="M622.4703770197486,682.3913824057452 L639.5906642728905,690.951526032316" stroke="yellow" stroke-width="1" fill="none" />
<path d="M650.2908438061041,708.0718132854579 L620.330341113106,761.572710951526" stroke="yellow" stroke-width="1" fill="none" />
<path d="M620.330341113106,761.572710951526 L547.5691202872531,815.0736086175943" stroke="yellow" stroke-width="1" fill="none" />
<path d="M547.5691202872531,815.0736086175943 L485.50807899461404,827.9138240574507" stroke="yellow" stroke-width="1" fill="none" />
<path d="M474.8078994614004,827.9138240574507 L481.22800718132856,815.0736086175943" stroke="yellow" stroke-width="1" fill="none" />
<path d="M481.22800718132856,815.0736086175943 L496.20825852782764,806.5134649910234" stroke="yellow" stroke-width="1" fill="none" />
<path d="M496.20825852782764,806.5134649910234 L504.7684021543986,810.7935368043088" stroke="yellow" stroke-width="1" fill="none" />
<path d="M504.7684021543986,810.7935368043088 L541.1490125673249,802.2333931777379" stroke="yellow" stroke-width="1" fill="none" />
<path d="M541.1490125673249,802.2333931777379 L592.5098743267505,765.8527827648115" stroke="yellow" stroke-width="1" fill="none" />
<path d="M592.5098743267505,765.8527827648115 L622.4703770197486,727.3321364452424" stroke="yellow" stroke-width="1" fill="none" />
<path d="M622.4703770197486,727.3321364452424 L622.4703770197486,710.2118491921005" stroke="yellow" stroke-width="1" fill="none" />
<path d="M327.14542190305207,733.7522441651706 L374.2262118491921,699.511669658887" stroke="yellow" stroke-width="1" fill="none" />
<path d="M155.94254937163373,635.310592459605 L181.6229802513465,635.310592459605" stroke="yellow" stroke-width="1" fill="none" />
<path d="M506.9084380610413,421.30700179533216 L528.3087971274686,425.58707360861763" stroke="yellow" stroke-width="1" fill="none" />
<path d="M543.2890484739677,487.64811490125675 L543.2890484739677,470.5278276481149" stroke="yellow" stroke-width="1" fill="none" />
<path d="M543.2890484739677,470.5278276481149 L532.5888689407541,455.54757630161583" stroke="yellow" stroke-width="1" fill="none" />
<path d="M532.5888689407541,455.54757630161583 L526.1687612208259,436.28725314183123" stroke="yellow" stroke-width="1" fill="none" />
<path d="M526.1687612208259,436.28725314183123 L528.3087971274686,425.58707360861763" stroke="yellow" stroke-width="1" fill="none" />
<path d="M543.2890484739677,427.72710951526034 L539.0089766606823,438.427289048474" stroke="yellow" stroke-width="1" fill="none" />
<path d="M539.0089766606823,438.427289048474 L543.2890484739677,455.54757630161583" stroke="yellow" stroke-width="1" fill="none" />
<path d="M543.2890484739677,455.54757630161583 L551.8491921005386,466.2477558348295" stroke="yellow" stroke-width="1" fill="none" />
<path d="M551.8491921005386,466.2477558348295 L551.8491921005386,487.64811490125675" stroke="yellow" stroke-width="1" fill="none" />
<path d="M528.3087971274686,425.58707360861763 L543.2890484739677,427.72710951526034" stroke="yellow" stroke-width="1" fill="none" />
<path d="M611.770197486535,690.951526032316 L579.6696588868941,671.6912028725314" stroke="yellow" stroke-width="1" fill="none" />
<path d="M579.6696588868941,671.6912028725314 L536.8689407540395,667.4111310592459" stroke="yellow" stroke-width="1" fill="none" />
<path d="M536.8689407540395,667.4111310592459 L498.3482944344704,671.6912028725314" stroke="yellow" stroke-width="1" fill="none" />
<path d="M498.3482944344704,671.6912028725314 L487.64811490125675,690.951526032316" stroke="yellow" stroke-width="1" fill="none" />
<path d="M487.64811490125675,690.951526032316 L489.78815080789946,716.6319569120287" stroke="yellow" stroke-width="1" fill="none" />
<path d="M489.78815080789946,716.6319569120287 L509.048473967684,720.9120287253143" stroke="yellow" stroke-width="1" fill="none" />
<path d="M509.048473967684,720.9120287253143 L506.9084380610413,725.1921005385997" stroke="yellow" stroke-width="1" fill="none" />
<path d="M506.9084380610413,725.1921005385997 L483.3680430879713,725.1921005385997" stroke="yellow" stroke-width="1" fill="none" />
<path d="M483.3680430879713,725.1921005385997 L470.5278276481149,710.2118491921005" stroke="yellow" stroke-width="1" fill="none" />
<path d="M470.5278276481149,710.2118491921005 L474.8078994614004,693.0915619389588" stroke="yellow" stroke-width="1" fill="none" />
<path d="M474.8078994614004,693.0915619389588 L468.3877917414722,660.9910233393177" stroke="yellow" stroke-width="1" fill="none" />
<path d="M468.3877917414722,660.9910233393177 L425.5870736086176,628.8904847396768" stroke="yellow" stroke-width="1" fill="none" />
<path d="M425.5870736086176,628.8904847396768 L389.2064631956912,620.330341113106" stroke="yellow" stroke-width="1" fill="none" />
<path d="M389.2064631956912,620.330341113106 L359.245960502693,631.0305206463196" stroke="yellow" stroke-width="1" fill="none" />
<path d="M359.245960502693,631.0305206463196 L359.245960502693,624.6104129263914" stroke="yellow" stroke-width="1" fill="none" />
<path d="M359.245960502693,624.6104129263914 L378.5062836624776,607.4901256732496" stroke="yellow" stroke-width="1" fill="none" />
<path d="M378.5062836624776,607.4901256732496 L406.326750448833,607.4901256732496" stroke="yellow" stroke-width="1" fill="none" />
<path d="M406.326750448833,607.4901256732496 L440.5673249551167,613.9102333931778" stroke="yellow" stroke-width="1" fill="none" />
<path d="M440.5673249551167,613.9102333931778 L474.8078994614004,646.0107719928187" stroke="yellow" stroke-width="1" fill="none" />
<path d="M474.8078994614004,646.0107719928187 L509.048473967684,658.8509874326751" stroke="yellow" stroke-width="1" fill="none" />
<path d="M509.048473967684,658.8509874326751 L547.5691202872531,656.7109515260324" stroke="yellow" stroke-width="1" fill="none" />
<path d="M547.5691202872531,656.7109515260324 L594.6499102333933,660.9910233393177" stroke="yellow" stroke-width="1" fill="none" />
<path d="M594.6499102333933,660.9910233393177 L622.4703770197486,682.3913824057452" stroke="yellow" stroke-width="1" fill="none" />
<path d="M622.4703770197486,797.9533213644524 L616.0502692998205,802.2333931777379" stroke="yellow" stroke-width="1" fill="none" />
<path d="M616.0502692998205,802.2333931777379 L611.770197486535,806.5134649910234" stroke="yellow" stroke-width="1" fill="none" />
<path d="M611.770197486535,806.5134649910234 L605.3500897666069,810.7935368043088" stroke="yellow" stroke-width="1" fill="none" />
<path d="M605.3500897666069,810.7935368043088 L594.6499102333933,823.6337522441652" stroke="yellow" stroke-width="1" fill="none" />
<path d="M594.6499102333933,823.6337522441652 L588.2298025134651,827.9138240574507" stroke="yellow" stroke-width="1" fill="none" />
<path d="M588.2298025134651,827.9138240574507 L581.8096947935368,830.0538599640934" stroke="yellow" stroke-width="1" fill="none" />
<path d="M588.2298025134651,827.9138240574507 L590.3698384201077,832.1938958707361" stroke="yellow" stroke-width="1" fill="none" />
<path d="M594.6499102333933,823.6337522441652 L598.9299820466787,827.9138240574507" stroke="yellow" stroke-width="1" fill="none" />
<path d="M605.3500897666069,810.7935368043088 L609.6301615798923,815.0736086175943" stroke="yellow" stroke-width="1" fill="none" />
<path d="M611.770197486535,806.5134649910234 L616.0502692998205,810.7935368043088" stroke="yellow" stroke-width="1" fill="none" />
<path d="M616.0502692998205,802.2333931777379 L620.330341113106,806.5134649910234" stroke="yellow" stroke-width="1" fill="none" />
<path d="M421.30700179533216,879.2746858168762 L412.7468581687612,879.2746858168762" stroke="yellow" stroke-width="1" fill="none" />
<path d="M361.38599640933575,857.8743267504489 L314.3052064631957,815.0736086175943" stroke="yellow" stroke-width="1" fill="none" />
<path d="M412.7468581687612,879.2746858168762 L361.38599640933575,857.8743267504489" stroke="yellow" stroke-width="1" fill="none" />
<path d="M412.7468581687612,900.6750448833035 L412.7468581687612,879.2746858168762" stroke="yellow" stroke-width="1" fill="none" />
<path d="M464.1077199281867,864.294434470377 L457.68761220825854,866.4344703770198" stroke="yellow" stroke-width="1" fill="none" />
<path d="M457.68761220825854,866.4344703770198 L440.5673249551167,872.854578096948" stroke="yellow" stroke-width="1" fill="none" />
<path d="M440.5673249551167,872.854578096948 L434.1472172351885,874.9946140035908" stroke="yellow" stroke-width="1" fill="none" />
<path d="M434.1472172351885,874.9946140035908 L421.30700179533216,879.2746858168762" stroke="yellow" stroke-width="1" fill="none" />
<path d="M472.6678635547576,862.1543985637344 L464.1077199281867,864.294434470377" stroke="yellow" stroke-width="1" fill="none" />
<path d="M434.1472172351885,874.9946140035908 L436.28725314183123,883.5547576301616" stroke="yellow" stroke-width="1" fill="none" />
<path d="M440.5673249551167,872.854578096948 L444.8473967684022,881.4147217235189" stroke="yellow" stroke-width="1" fill="none" />
<path d="M457.68761220825854,866.4344703770198 L461.96768402154396,874.9946140035908" stroke="yellow" stroke-width="1" fill="none" />
<path d="M464.1077199281867,864.294434470377 L468.3877917414722,872.854578096948" stroke="yellow" stroke-width="1" fill="none" />
<path d="M485.50807899461404,827.9138240574507 L472.6678635547576,842.8940754039497" stroke="yellow" stroke-width="1" fill="none" />
<path d="M472.6678635547576,842.8940754039497 L470.5278276481149,851.4542190305207" stroke="yellow" stroke-width="1" fill="none" />
<path d="M470.5278276481149,851.4542190305207 L472.6678635547576,862.1543985637344" stroke="yellow" stroke-width="1" fill="none" />
<path d="M464.1077199281867,864.294434470377 L461.96768402154396,847.1741472172353" stroke="yellow" stroke-width="1" fill="none" />
<path d="M461.96768402154396,847.1741472172353 L446.9874326750449,838.6140035906643" stroke="yellow" stroke-width="1" fill="none" />
<path d="M446.9874326750449,838.6140035906643 L429.86714542190305,838.6140035906643" stroke="yellow" stroke-width="1" fill="none" />
<path d="M429.86714542190305,838.6140035906643 L429.86714542190305,834.3339317773789" stroke="yellow" stroke-width="1" fill="none" />
<path d="M429.86714542190305,834.3339317773789 L449.1274685816876,832.1938958707361" stroke="yellow" stroke-width="1" fill="none" />
<path d="M449.1274685816876,832.1938958707361 L464.1077199281867,838.6140035906643" stroke="yellow" stroke-width="1" fill="none" />
<path d="M464.1077199281867,838.6140035906643 L474.8078994614004,827.9138240574507" stroke="yellow" stroke-width="1" fill="none" />
<path d="M675.9712746858169,669.5511669658888 L693.0915619389586,667.4111310592459" stroke="yellow" stroke-width="1" fill="none" />
<path d="M639.5906642728905,690.951526032316 L654.5709156193896,690.951526032316" stroke="yellow" stroke-width="1" fill="none" />
<path d="M654.5709156193896,690.951526032316 L671.6912028725314,684.5314183123878" stroke="yellow" stroke-width="1" fill="none" />
<path d="M673.8312387791741,708.0718132854579 L650.2908438061041,708.0718132854579" stroke="yellow" stroke-width="1" fill="none" />
<path d="M675.9712746858169,669.5511669658888 L671.6912028725314,684.5314183123878" stroke="yellow" stroke-width="1" fill="none" />
<path d="M673.8312387791741,708.0718132854579 L669.5511669658887,729.4721723518851" stroke="yellow" stroke-width="1" fill="none" />
<path d="M654.5709156193896,646.0107719928187 L658.8509874326751,650.2908438061041" stroke="yellow" stroke-width="1" fill="none" />
<path d="M658.8509874326751,650.2908438061041 L663.1310592459605,654.5709156193896" stroke="yellow" stroke-width="1" fill="none" />
<path d="M663.1310592459605,654.5709156193896 L669.5511669658887,658.8509874326751" stroke="yellow" stroke-width="1" fill="none" />
<path d="M669.5511669658887,658.8509874326751 L675.9712746858169,669.5511669658888" stroke="yellow" stroke-width="1" fill="none" />
<path d="M669.5511669658887,658.8509874326751 L680.2513464991023,650.2908438061041" stroke="yellow" stroke-width="1" fill="none" />
<path d="M663.1310592459605,654.5709156193896 L673.8312387791741,646.0107719928187" stroke="yellow" stroke-width="1" fill="none" />
<path d="M658.8509874326751,650.2908438061041 L669.5511669658887,641.7307001795332" stroke="yellow" stroke-width="1" fill="none" />
<path d="M748.7324955116696,802.2333931777379 L785.1131059245961,785.1131059245961" stroke="yellow" stroke-width="1" fill="none" />
<path d="M785.1131059245961,785.1131059245961 L800.0933572710951,748.7324955116696" stroke="yellow" stroke-width="1" fill="none" />
<path d="M800.0933572710951,748.7324955116696 L785.1131059245961,716.6319569120287" stroke="yellow" stroke-width="1" fill="none" />
<path d="M746.592459605027,838.6140035906643 L785.1131059245961,825.773788150808" stroke="yellow" stroke-width="1" fill="none" />
<path d="M785.1131059245961,825.773788150808 L827.9138240574507,834.3339317773789" stroke="yellow" stroke-width="1" fill="none" />
<path d="M827.9138240574507,834.3339317773789 L862.1543985637343,864.294434470377" stroke="yellow" stroke-width="1" fill="none" />
<path d="M862.1543985637343,864.294434470377 L874.9946140035906,919.935368043088" stroke="yellow" stroke-width="1" fill="none" />
<path d="M962.7360861759425,872.854578096948 L932.7755834829444,845.0341113105925" stroke="yellow" stroke-width="1" fill="none" />
<path d="M932.7755834829444,845.0341113105925 L922.0754039497308,780.8330341113106" stroke="yellow" stroke-width="1" fill="none" />
<path d="M922.0754039497308,780.8330341113106 L881.4147217235188,770.1328545780971" stroke="yellow" stroke-width="1" fill="none" />
<path d="M881.4147217235188,770.1328545780971 L874.9946140035906,705.9317773788151" stroke="yellow" stroke-width="1" fill="none" />
<path d="M874.9946140035906,705.9317773788151 L830.0538599640934,684.5314183123878" stroke="yellow" stroke-width="1" fill="none" />
<path d="M650.2908438061041,708.0718132854579 L654.5709156193896,690.951526032316" stroke="yellow" stroke-width="1" fill="none" />
<path d="M673.8312387791741,708.0718132854579 L671.6912028725314,684.5314183123878" stroke="lavender" stroke-width="1" fill="none" />
<path d="M725.1921005385997,759.4326750448834 L716.6319569120287,753.0125673249552" stroke="yellow" stroke-width="1" fill="none" />
<path d="M723.0520646319569,774.4129263913824 L725.1921005385997,759.4326750448834" stroke="yellow" stroke-width="1" fill="none" />
<path d="M883.5547576301616,1183.1597845601436 L870.7145421903052,1110.3985637342907" stroke="lavender" stroke-width="1" fill="none" />
<path d="M494.06822262118493,1285.8815080789946 L494.06822262118493,1251.640933572711" stroke="yellow" stroke-width="1" fill="none" />
<path d="M605.3500897666069,1189.5798922800718 L571.1095152603232,1189.5798922800718" stroke="yellow" stroke-width="1" fill="none" />
<path d="M571.1095152603232,1191.7199281867147 L605.3500897666069,1191.7199281867147" stroke="yellow" stroke-width="1" fill="none" />
<path d="M793.6732495511669,1243.0807899461402 L793.6732495511669,1294.4416517055656" stroke="yellow" stroke-width="1" fill="none" />
<path d="M553.9892280071813,1345.802513464991 L588.2298025134651,1294.4416517055656" stroke="yellow" stroke-width="1" fill="none" />
<path d="M588.2298025134651,1294.4416517055656 L588.2298025134651,1243.0807899461402" stroke="yellow" stroke-width="1" fill="none" />
<path d="M588.2298025134651,1243.0807899461402 L553.9892280071813,1191.7199281867147" stroke="yellow" stroke-width="1" fill="none" />
<path d="M622.4703770197486,1225.9605026929983 L639.5906642728905,1225.9605026929983" stroke="lavender" stroke-width="1" fill="none" />
<path d="M639.5906642728905,1225.9605026929983 L639.5906642728905,1208.8402154398564" stroke="lavender" stroke-width="1" fill="none" />
<path d="M639.5906642728905,1208.8402154398564 L622.4703770197486,1208.8402154398564" stroke="lavender" stroke-width="1" fill="none" />
<path d="M622.4703770197486,1208.8402154398564 L622.4703770197486,1225.9605026929983" stroke="lavender" stroke-width="1" fill="none" />
<path d="M725.1921005385997,1225.9605026929983 L742.3123877917415,1225.9605026929983" stroke="lavender" stroke-width="1" fill="none" />
<path d="M742.3123877917415,1225.9605026929983 L742.3123877917415,1208.8402154398564" stroke="lavender" stroke-width="1" fill="none" />
<path d="M742.3123877917415,1208.8402154398564 L725.1921005385997,1208.8402154398564" stroke="lavender" stroke-width="1" fill="none" />
<path d="M725.1921005385997,1208.8402154398564 L725.1921005385997,1225.9605026929983" stroke="lavender" stroke-width="1" fill="none" />
<path d="M622.4703770197486,1328.6822262118494 L639.5906642728905,1328.6822262118494" stroke="lavender" stroke-width="1" fill="none" />
<path d="M639.5906642728905,1328.6822262118494 L639.5906642728905,1311.5619389587073" stroke="lavender" stroke-width="1" fill="none" />
<path d="M639.5906642728905,1311.5619389587073 L622.4703770197486,1311.5619389587073" stroke="lavender" stroke-width="1" fill="none" />
<path d="M622.4703770197486,1311.5619389587073 L622.4703770197486,1328.6822262118494" stroke="lavender" stroke-width="1" fill="none" />
<path d="M725.1921005385997,1328.6822262118494 L742.3123877917415,1328.6822262118494" stroke="lavender" stroke-width="1" fill="none" />
<path d="M742.3123877917415,1328.6822262118494 L742.3123877917415,1311.5619389587073" stroke="lavender" stroke-width="1" fill="none" />
<path d="M742.3123877917415,1311.5619389587073 L725.1921005385997,1311.5619389587073" stroke="lavender" stroke-width="1" fill="none" />
<path d="M725.1921005385997,1311.5619389587073 L725.1921005385997,1328.6822262118494" stroke="lavender" stroke-width="1" fill="none" />
<path d="M673.8312387791741,1290.16157989228 L690.951526032316,1290.16157989228" stroke="yellow" stroke-width="1" fill="none" />
<path d="M690.951526032316,1290.16157989228 L703.7917414721724,1277.3213644524237" stroke="yellow" stroke-width="1" fill="none" />
<path d="M703.7917414721724,1277.3213644524237 L703.7917414721724,1260.2010771992818" stroke="yellow" stroke-width="1" fill="none" />
<path d="M703.7917414721724,1260.2010771992818 L690.951526032316,1247.3608617594255" stroke="yellow" stroke-width="1" fill="none" />
<path d="M690.951526032316,1247.3608617594255 L673.8312387791741,1247.3608617594255" stroke="yellow" stroke-width="1" fill="none" />
<path d="M673.8312387791741,1247.3608617594255 L660.9910233393177,1260.2010771992818" stroke="yellow" stroke-width="1" fill="none" />
<path d="M660.9910233393177,1260.2010771992818 L660.9910233393177,1277.3213644524237" stroke="yellow" stroke-width="1" fill="none" />
<path d="M660.9910233393177,1277.3213644524237 L673.8312387791741,1290.16157989228" stroke="yellow" stroke-width="1" fill="none" />
<path d="M793.6732495511669,1294.4416517055656 L690.951526032316,1294.4416517055656" stroke="yellow" stroke-width="1" fill="none" />
<path d="M690.951526032316,1243.0807899461402 L793.6732495511669,1243.0807899461402" stroke="yellow" stroke-width="1" fill="none" />
<path d="M536.8689407540395,1281.6014362657093 L553.9892280071813,1281.6014362657093" stroke="yellow" stroke-width="1" fill="none" />
<path d="M553.9892280071813,1281.6014362657093 L553.9892280071813,1277.3213644524237" stroke="yellow" stroke-width="1" fill="none" />
<path d="M553.9892280071813,1277.3213644524237 L541.1490125673249,1277.3213644524237" stroke="yellow" stroke-width="1" fill="none" />
<path d="M541.1490125673249,1277.3213644524237 L541.1490125673249,1260.2010771992818" stroke="yellow" stroke-width="1" fill="none" />
<path d="M541.1490125673249,1260.2010771992818 L553.9892280071813,1260.2010771992818" stroke="yellow" stroke-width="1" fill="none" />
<path d="M553.9892280071813,1260.2010771992818 L553.9892280071813,1255.9210053859965" stroke="yellow" stroke-width="1" fill="none" />
<path d="M553.9892280071813,1255.9210053859965 L536.8689407540395,1255.9210053859965" stroke="yellow" stroke-width="1" fill="none" />
<path d="M536.8689407540395,1255.9210053859965 L536.8689407540395,1281.6014362657093" stroke="yellow" stroke-width="1" fill="none" />
<path d="M553.9892280071813,1277.3213644524237 L553.9892280071813,1260.2010771992818" stroke="lavender" stroke-width="1" fill="none" />
<path d="M588.2298025134651,1243.0807899461402 L673.8312387791741,1243.0807899461402" stroke="yellow" stroke-width="1" fill="none" />
<path d="M673.8312387791741,1243.0807899461402 L690.951526032316,1243.0807899461402" stroke="lavender" stroke-width="1" fill="none" />
<path d="M690.951526032316,1294.4416517055656 L673.8312387791741,1294.4416517055656" stroke="lavender" stroke-width="1" fill="none" />
<path d="M673.8312387791741,1294.4416517055656 L588.2298025134651,1294.4416517055656" stroke="yellow" stroke-width="1" fill="none" />
<path d="M468.3877917414722,1277.3213644524237 L468.3877917414722,1260.2010771992818" stroke="lavender" stroke-width="1" fill="none" />
<path d="M571.1095152603232,1174.5996409335728 L605.3500897666069,1174.5996409335728" stroke="yellow" stroke-width="1" fill="none" />
<path d="M793.6732495511669,1208.8402154398564 L776.5529622980251,1191.7199281867147" stroke="lavender" stroke-width="1" fill="none" />
<path d="M802.233393177738,1187.4398563734292 L785.1131059245961,1166.039497307002" stroke="yellow" stroke-width="1" fill="none" />
<path d="M832.1938958707361,1170.3195691202873 L812.9335727109515,1133.938958707361" stroke="lavender" stroke-width="1" fill="none" />
<path d="M857.8743267504489,1168.1795332136446 L838.6140035906643,1110.3985637342907" stroke="yellow" stroke-width="1" fill="none" />
<path d="M947.7558348294435,894.2549371633753 L913.5152603231597,915.6552962298026" stroke="yellow" stroke-width="1" fill="none" />
<path d="M896.394973070018,977.7163375224417 L949.8958707360862,992.6965888689408" stroke="yellow" stroke-width="1" fill="none" />
<path d="M913.5152603231597,945.6157989228008 L956.3159784560144,926.3554757630162" stroke="yellow" stroke-width="1" fill="none" />
<path d="M857.8743267504489,1007.6768402154399 L862.1543985637343,1007.6768402154399" stroke="yellow" stroke-width="1" fill="none" />
<path d="M862.1543985637343,1007.6768402154399 L862.1543985637343,1003.3967684021544" stroke="yellow" stroke-width="1" fill="none" />
<path d="M862.1543985637343,1003.3967684021544 L857.8743267504489,1003.3967684021544" stroke="yellow" stroke-width="1" fill="none" />
<path d="M857.8743267504489,1003.3967684021544 L857.8743267504489,1007.6768402154399" stroke="yellow" stroke-width="1" fill="none" />
<path d="M892.1149012567325,1046.197486535009 L896.394973070018,1046.197486535009" stroke="yellow" stroke-width="1" fill="none" />
<path d="M896.394973070018,1046.197486535009 L896.394973070018,1041.9174147217236" stroke="yellow" stroke-width="1" fill="none" />
<path d="M896.394973070018,1041.9174147217236 L892.1149012567325,1041.9174147217236" stroke="yellow" stroke-width="1" fill="none" />
<path d="M892.1149012567325,1041.9174147217236 L892.1149012567325,1046.197486535009" stroke="yellow" stroke-width="1" fill="none" />
<path d="M872.854578096948,994.8366247755836 L866.4344703770198,999.116696588869" stroke="yellow" stroke-width="1" fill="none" />
<path d="M866.4344703770198,999.116696588869 L898.5350089766607,1037.637342908438" stroke="yellow" stroke-width="1" fill="none" />
<path d="M898.5350089766607,1037.637342908438 L904.9551166965889,1033.3572710951526" stroke="yellow" stroke-width="1" fill="none" />
<path d="M872.854578096948,994.8366247755836 L904.9551166965889,1033.3572710951526" stroke="lavender" stroke-width="1" fill="none" />
<path d="M909.2351885098744,1026.9371633752244 L879.2746858168762,990.556552962298" stroke="yellow" stroke-width="1" fill="none" />
<path d="M913.5152603231597,922.0754039497308 L952.035906642729,898.5350089766607" stroke="lavender" stroke-width="1" fill="none" />
<path d="M911.3752244165171,962.7360861759425 L962.7360861759425,958.4560143626571" stroke="yellow" stroke-width="1" fill="none" />
<path d="M588.2298025134651,164.50269299820468 L571.1095152603232,164.50269299820468" stroke="lavender" stroke-width="1" fill="none" />
<path d="M656.7109515260323,215.86355475763017 L656.7109515260323,198.74326750448833" stroke="lavender" stroke-width="1" fill="none" />
<path d="M588.2298025134651,198.74326750448833 L588.2298025134651,215.86355475763017" stroke="yellow" stroke-width="1" fill="none" />
<path d="M656.7109515260323,190.1831238779174 L673.8312387791741,207.30341113105925" stroke="lavender" stroke-width="1" fill="none" />
<path d="M673.8312387791741,207.30341113105925 L656.7109515260323,226.5637342908438" stroke="lavender" stroke-width="1" fill="none" />
<path d="M592.5098743267505,215.86355475763017 L592.5098743267505,198.74326750448833" stroke="yellow" stroke-width="1" fill="none" />
<path d="M690.951526032316,320.7253141831239 L690.951526032316,348.5457809694794" stroke="lavender" stroke-width="1" fill="none" />
<path d="M690.951526032316,318.5852782764812 L656.7109515260323,318.5852782764812" stroke="lavender" stroke-width="1" fill="none" />
<path d="M656.7109515260323,320.7253141831239 L690.951526032316,320.7253141831239" stroke="yellow" stroke-width="1" fill="none" />
<path d="M830.0538599640934,267.22441651705566 L862.1543985637343,267.22441651705566" stroke="lavender" stroke-width="1" fill="none" />
<path d="M827.9138240574507,267.22441651705566 L827.9138240574507,318.5852782764812" stroke="lavender" stroke-width="1" fill="none" />
<path d="M830.0538599640934,318.5852782764812 L830.0538599640934,267.22441651705566" stroke="yellow" stroke-width="1" fill="none" />
<path d="M827.9138240574507,4.0 L827.9138240574507,36.10053859964094" stroke="lavender" stroke-width="1" fill="none" />
<path d="M827.9138240574507,36.10053859964094 L793.6732495511669,36.10053859964094" stroke="yellow" stroke-width="1" fill="none" />
<path d="M793.6732495511669,38.24057450628365 L827.9138240574507,38.24057450628365" stroke="lavender" stroke-width="1" fill="none" />
<path d="M862.1543985637343,265.08438061041295 L830.0538599640934,265.08438061041295" stroke="yellow" stroke-width="1" fill="none" />
<path d="M830.0538599640934,36.10053859964094 L830.0538599640934,4.0" stroke="yellow" stroke-width="1" fill="none" />
<path d="M693.0915619389586,348.5457809694794 L693.0915619389586,320.7253141831239" stroke="yellow" stroke-width="1" fill="none" />
<path d="M622.4703770197486,61.78096947935367 L622.4703770197486,78.90125673249551" stroke="yellow" stroke-width="1" fill="none" />
<path d="M539.0089766606823,81.04129263913825 L539.0089766606823,61.78096947935367" stroke="lavender" stroke-width="1" fill="none" />
<path d="M519.7486535008977,76.76122082585277 L534.7289048473967,76.76122082585277" stroke="lavender" stroke-width="1" fill="none" />
<path d="M534.7289048473967,76.76122082585277 L534.7289048473967,61.78096947935367" stroke="lavender" stroke-width="1" fill="none" />
<path d="M519.7486535008977,81.04129263913825 L539.0089766606823,81.04129263913825" stroke="lavender" stroke-width="1" fill="none" />
<path d="M519.7486535008977,164.50269299820468 L519.7486535008977,96.02154398563735" stroke="yellow" stroke-width="1" fill="none" />
<path d="M622.4703770197486,96.02154398563735 L622.4703770197486,113.14183123877916" stroke="yellow" stroke-width="1" fill="none" />
<path d="M571.1095152603232,166.6427289048474 L588.2298025134651,166.6427289048474" stroke="lavender" stroke-width="1" fill="none" />
<path d="M590.3698384201077,198.74326750448833 L590.3698384201077,215.86355475763017" stroke="yellow" stroke-width="1" fill="none" />
<path d="M280.064631956912,883.5547576301616 L247.96409335727108,883.5547576301616" stroke="yellow" stroke-width="1" fill="none" />
<path d="M226.5637342908438,883.5547576301616 L194.46319569120286,883.5547576301616" stroke="yellow" stroke-width="1" fill="none" />
<path d="M247.96409335727108,889.9748653500898 L280.064631956912,889.9748653500898" stroke="lavender" stroke-width="1" fill="none" />
<path d="M91.74147217235185,990.556552962298 L23.260323159784548,990.556552962298" stroke="yellow" stroke-width="1" fill="none" />
<path d="M211.5834829443447,977.7163375224417 L194.46319569120286,977.7163375224417" stroke="yellow" stroke-width="1" fill="none" />
<path d="M211.5834829443447,960.5960502692999 L211.5834829443447,977.7163375224417" stroke="yellow" stroke-width="1" fill="none" />
<path d="M194.46319569120286,960.5960502692999 L211.5834829443447,960.5960502692999" stroke="yellow" stroke-width="1" fill="none" />
<path d="M194.46319569120286,977.7163375224417 L194.46319569120286,960.5960502692999" stroke="yellow" stroke-width="1" fill="none" />
<path d="M160.2226211849192,977.7163375224417 L143.10233393177737,977.7163375224417" stroke="yellow" stroke-width="1" fill="none" />
<path d="M160.2226211849192,960.5960502692999 L160.2226211849192,977.7163375224417" stroke="yellow" stroke-width="1" fill="none" />
<path d="M143.10233393177737,960.5960502692999 L160.2226211849192,960.5960502692999" stroke="yellow" stroke-width="1" fill="none" />
<path d="M143.10233393177737,977.7163375224417 L143.10233393177737,960.5960502692999" stroke="yellow" stroke-width="1" fill="none" />
<path d="M91.74147217235185,977.7163375224417 L74.62118491921001,977.7163375224417" stroke="yellow" stroke-width="1" fill="none" />
<path d="M91.74147217235185,960.5960502692999 L91.74147217235185,977.7163375224417" stroke="yellow" stroke-width="1" fill="none" />
<path d="M74.62118491921001,960.5960502692999 L91.74147217235185,960.5960502692999" stroke="yellow" stroke-width="1" fill="none" />
<path d="M74.62118491921001,977.7163375224417 L74.62118491921001,960.5960502692999" stroke="yellow" stroke-width="1" fill="none" />
<path d="M228.70377019748653,866.4344703770198 L245.82405745062835,866.4344703770198" stroke="lavender" stroke-width="1" fill="none" />
<path d="M245.82405745062835,866.4344703770198 L245.82405745062835,849.3141831238779" stroke="lavender" stroke-width="1" fill="none" />
<path d="M245.82405745062835,849.3141831238779 L228.70377019748653,849.3141831238779" stroke="lavender" stroke-width="1" fill="none" />
<path d="M228.70377019748653,849.3141831238779 L228.70377019748653,866.4344703770198" stroke="lavender" stroke-width="1" fill="none" />
<path d="M230.84380610412924,851.4542190305207 L243.68402154398564,851.4542190305207" stroke="yellow" stroke-width="1" fill="none" />
<path d="M230.84380610412924,864.294434470377 L230.84380610412924,851.4542190305207" stroke="yellow" stroke-width="1" fill="none" />
<path d="M243.68402154398564,864.294434470377 L230.84380610412924,864.294434470377" stroke="yellow" stroke-width="1" fill="none" />
<path d="M243.68402154398564,851.4542190305207 L243.68402154398564,864.294434470377" stroke="yellow" stroke-width="1" fill="none" />
<path d="M284.3447037701975,969.1561938958708 L284.3447037701975,1020.5170556552963" stroke="lavender" stroke-width="1" fill="none" />
<path d="M194.46319569120286,900.6750448833035 L228.70377019748653,900.6750448833035" stroke="yellow" stroke-width="1" fill="none" />
<path d="M23.260323159784548,960.5960502692999 L23.260323159784548,926.3554757630162" stroke="lavender" stroke-width="1" fill="none" />
<path d="M260.8043087971275,789.3931777378816 L224.42369838420106,770.1328545780971" stroke="yellow" stroke-width="1" fill="none" />
<path d="M256.524236983842,815.0736086175943 L218.00359066427288,815.0736086175943" stroke="yellow" stroke-width="1" fill="none" />
<path d="M605.3500897666069,1172.4596050269301 L571.1095152603232,1172.4596050269301" stroke="yellow" stroke-width="1" fill="none" />
<path d="M284.3447037701975,1106.1184919210054 L245.82405745062835,1106.1184919210054" stroke="lavender" stroke-width="1" fill="none" />
<path d="M795.8132854578098,667.4111310592459 L819.3536804308798,669.5511669658888" stroke="yellow" stroke-width="1" fill="none" />
<path d="M780.8330341113106,650.2908438061041 L795.8132854578098,667.4111310592459" stroke="yellow" stroke-width="1" fill="none" />
<path d="M776.5529622980251,626.7504488330342 L780.8330341113106,650.2908438061041" stroke="yellow" stroke-width="1" fill="none" />
<path d="M571.1095152603232,1155.3393177737883 L605.3500897666069,1155.3393177737883" stroke="lavender" stroke-width="1" fill="none" />
<path d="M553.9892280071813,1140.3590664272892 L605.3500897666069,1106.1184919210054" stroke="lavender" stroke-width="1" fill="none" />
<path d="M536.8689407540395,1140.3590664272892 L571.1095152603232,1088.9982046678638" stroke="lavender" stroke-width="1" fill="none" />
<path d="M519.7486535008977,1140.3590664272892 L530.4488330341113,1088.9982046678638" stroke="lavender" stroke-width="1" fill="none" />
<path d="M134.54219030520647,1037.637342908438 L117.42190305206464,1037.637342908438" stroke="lavender" stroke-width="1" fill="none" />
<path d="M108.86175942549369,1123.238779174147 L119.56193895870734,1103.9784560143626" stroke="lavender" stroke-width="1" fill="none" />
<path d="M119.56193895870734,1103.9784560143626 L100.3016157989228,1084.718132854578" stroke="lavender" stroke-width="1" fill="none" />
<path d="M100.3016157989228,1084.718132854578 L113.14183123877916,1067.5978456014363" stroke="lavender" stroke-width="1" fill="none" />
<path d="M113.14183123877916,1067.5978456014363 L138.8222621184919,1067.5978456014363" stroke="lavender" stroke-width="1" fill="none" />
<path d="M138.8222621184919,1067.5978456014363 L151.66247755834826,1084.718132854578" stroke="lavender" stroke-width="1" fill="none" />
<path d="M151.66247755834826,1084.718132854578 L132.4021543985637,1103.9784560143626" stroke="lavender" stroke-width="1" fill="none" />
<path d="M132.4021543985637,1103.9784560143626 L143.10233393177737,1123.238779174147" stroke="lavender" stroke-width="1" fill="none" />
<path d="M117.42190305206464,1037.637342908438 L117.42190305206464,1041.9174147217236" stroke="yellow" stroke-width="1" fill="none" />
<path d="M117.42190305206464,1041.9174147217236 L134.54219030520647,1041.9174147217236" stroke="yellow" stroke-width="1" fill="none" />
<path d="M134.54219030520647,1041.9174147217236 L134.54219030520647,1037.637342908438" stroke="yellow" stroke-width="1" fill="none" />
<path d="M123.84201077199282,1014.0969479353681 L128.12208258527824,1014.0969479353681" stroke="yellow" stroke-width="1" fill="none" />
<path d="M128.12208258527824,1014.0969479353681 L128.12208258527824,1009.8168761220826" stroke="yellow" stroke-width="1" fill="none" />
<path d="M128.12208258527824,1009.8168761220826 L123.84201077199282,1009.8168761220826" stroke="yellow" stroke-width="1" fill="none" />
<path d="M123.84201077199282,1009.8168761220826 L123.84201077199282,1014.0969479353681" stroke="yellow" stroke-width="1" fill="none" />
<path d="M519.7486535008977,314.3052064631957 L519.7486535008977,331.42549371633754" stroke="lavender" stroke-width="1" fill="none" />
<path d="M536.8689407540395,301.46499102333934 L553.9892280071813,322.8653500897666" stroke="yellow" stroke-width="1" fill="none" />
<path d="M553.9892280071813,322.8653500897666 L536.8689407540395,344.2657091561939" stroke="yellow" stroke-width="1" fill="none" />
<path d="M521.8886894075404,331.42549371633754 L521.8886894075404,314.3052064631957" stroke="yellow" stroke-width="1" fill="none" />
<path d="M357.1059245960503,549.709156193896 L395.62657091561937,553.9892280071813" stroke="lavender" stroke-width="1" fill="none" />
<path d="M395.62657091561937,553.9892280071813 L414.886894075404,534.7289048473967" stroke="lavender" stroke-width="1" fill="none" />
<path d="M414.886894075404,534.7289048473967 L410.6068222621185,511.18850987432677" stroke="lavender" stroke-width="1" fill="none" />
<path d="M410.6068222621185,511.18850987432677 L382.786355475763,489.78815080789946" stroke="lavender" stroke-width="1" fill="none" />
<path d="M297.18491921005386,352.82585278276485 L280.064631956912,331.42549371633754" stroke="yellow" stroke-width="1" fill="none" />
<path d="M297.18491921005386,442.7073608617594 L297.18491921005386,352.82585278276485" stroke="yellow" stroke-width="1" fill="none" />
<path d="M536.8689407540395,301.46499102333934 L536.8689407540395,344.2657091561939" stroke="lavender" stroke-width="1" fill="none" />
<path d="M558.2692998204668,299.32495511669663 L536.8689407540395,299.32495511669663" stroke="yellow" stroke-width="1" fill="none" />
<path d="M558.2692998204668,346.4057450628366 L558.2692998204668,299.32495511669663" stroke="yellow" stroke-width="1" fill="none" />
<path d="M536.8689407540395,346.4057450628366 L558.2692998204668,346.4057450628366" stroke="yellow" stroke-width="1" fill="none" />
<path d="M23.260323159784548,994.8366247755836 L87.46140035906643,994.8366247755836" stroke="yellow" stroke-width="1" fill="none" />
<path d="M485.50807899461404,267.22441651705566 L504.7684021543986,282.2046678635548" stroke="red" stroke-width="1" fill="none" />
<path d="M504.7684021543986,282.2046678635548 L515.4685816876122,314.3052064631957" stroke="red" stroke-width="1" fill="none" />
<path d="M461.96768402154396,361.38599640933575 L423.44703770197486,342.1256732495512" stroke="red" stroke-width="1" fill="none" />
<path d="M423.44703770197486,342.1256732495512 L406.326750448833,320.7253141831239" stroke="red" stroke-width="1" fill="none" />
<path d="M406.326750448833,320.7253141831239 L408.4667863554758,290.7648114901257" stroke="red" stroke-width="1" fill="none" />
<path d="M408.4667863554758,290.7648114901257 L348.5457809694793,284.3447037701975" stroke="red" stroke-width="1" fill="none" />
<path d="M365.66606822262116,232.983842010772 L412.7468581687612,260.8043087971275" stroke="red" stroke-width="1" fill="none" />
<path d="M412.7468581687612,260.8043087971275 L464.1077199281867,247.9640933572711" stroke="red" stroke-width="1" fill="none" />
<path d="M464.1077199281867,247.9640933572711 L519.7486535008977,168.78276481149013" stroke="red" stroke-width="1" fill="none" />
<path d="M485.50807899461404,258.66427289048477 L485.50807899461404,267.22441651705566" stroke="red" stroke-width="1" fill="none" />
<path d="M571.1095152603232,215.86355475763017 L485.50807899461404,258.66427289048477" stroke="red" stroke-width="1" fill="none" />
<path d="M348.5457809694793,284.3447037701975 L305.74506283662475,297.18491921005386" stroke="red" stroke-width="1" fill="none" />
<path d="M305.74506283662475,297.18491921005386 L280.064631956912,331.42549371633754" stroke="red" stroke-width="1" fill="none" />
<path d="M297.18491921005386,442.7073608617594 L331.42549371633754,451.26750448833036" stroke="red" stroke-width="1" fill="none" />
<path d="M331.42549371633754,451.26750448833036 L369.94614003590664,451.26750448833036" stroke="red" stroke-width="1" fill="none" />
<path d="M177.34290843806104,601.0700179533214 L134.54219030520647,532.5888689407541" stroke="red" stroke-width="1" fill="none" />
<path d="M134.54219030520647,532.5888689407541 L134.54219030520647,421.30700179533216" stroke="red" stroke-width="1" fill="none" />
<path d="M134.54219030520647,421.30700179533216 L168.78276481149013,331.42549371633754" stroke="red" stroke-width="1" fill="none" />
<path d="M168.78276481149013,331.42549371633754 L207.30341113105925,275.7845601436266" stroke="red" stroke-width="1" fill="none" />
<path d="M207.30341113105925,275.7845601436266 L314.3052064631957,224.4236983842011" stroke="red" stroke-width="1" fill="none" />
<path d="M314.3052064631957,224.4236983842011 L365.66606822262116,232.983842010772" stroke="red" stroke-width="1" fill="none" />
<path d="M369.94614003590664,451.26750448833036 L399.90664272890484,429.86714542190305" stroke="red" stroke-width="1" fill="none" />
<path d="M399.90664272890484,429.86714542190305 L434.1472172351885,434.1472172351885" stroke="red" stroke-width="1" fill="none" />
<path d="M434.1472172351885,434.1472172351885 L468.3877917414722,472.6678635547577" stroke="red" stroke-width="1" fill="none" />
<path d="M468.3877917414722,472.6678635547577 L464.1077199281867,506.90843806104135" stroke="red" stroke-width="1" fill="none" />
<path d="M464.1077199281867,506.90843806104135 L442.7073608617594,528.3087971274686" stroke="red" stroke-width="1" fill="none" />
<path d="M442.7073608617594,528.3087971274686 L446.9874326750449,541.1490125673249" stroke="red" stroke-width="1" fill="none" />
<path d="M446.9874326750449,541.1490125673249 L481.22800718132856,541.1490125673249" stroke="red" stroke-width="1" fill="none" />
<path d="M481.22800718132856,541.1490125673249 L498.3482944344704,519.7486535008977" stroke="red" stroke-width="1" fill="none" />
<path d="M498.3482944344704,519.7486535008977 L494.06822262118493,498.3482944344704" stroke="red" stroke-width="1" fill="none" />
<path d="M494.06822262118493,498.3482944344704 L494.06822262118493,464.1077199281867" stroke="red" stroke-width="1" fill="none" />
<path d="M494.06822262118493,464.1077199281867 L481.22800718132856,434.1472172351885" stroke="red" stroke-width="1" fill="none" />
<path d="M558.2692998204668,438.427289048474 L613.9102333931778,502.6283662477558" stroke="red" stroke-width="1" fill="none" />
<path d="M613.9102333931778,502.6283662477558 L626.7504488330342,553.9892280071813" stroke="red" stroke-width="1" fill="none" />
<path d="M626.7504488330342,553.9892280071813 L613.9102333931778,601.0700179533214" stroke="red" stroke-width="1" fill="none" />
<path d="M613.9102333931778,601.0700179533214 L575.3895870736086,588.2298025134651" stroke="red" stroke-width="1" fill="none" />
<path d="M575.3895870736086,558.2692998204668 L553.9892280071813,549.709156193896" stroke="red" stroke-width="1" fill="none" />
<path d="M553.9892280071813,549.709156193896 L528.3087971274686,575.3895870736087" stroke="red" stroke-width="1" fill="none" />
<path d="M528.3087971274686,575.3895870736087 L519.7486535008977,605.3500897666069" stroke="red" stroke-width="1" fill="none" />
<path d="M519.7486535008977,605.3500897666069 L536.8689407540395,626.7504488330342" stroke="red" stroke-width="1" fill="none" />
<path d="M536.8689407540395,626.7504488330342 L558.2692998204668,609.6301615798923" stroke="red" stroke-width="1" fill="none" />
<path d="M558.2692998204668,609.6301615798923 L583.9497307001795,618.1903052064632" stroke="red" stroke-width="1" fill="none" />
<path d="M583.9497307001795,618.1903052064632 L622.4703770197486,648.1508078994614" stroke="red" stroke-width="1" fill="none" />
<path d="M622.4703770197486,648.1508078994614 L639.5906642728905,626.7504488330342" stroke="red" stroke-width="1" fill="none" />
<path d="M669.5511669658887,729.4721723518851 L622.4703770197486,797.9533213644524" stroke="red" stroke-width="1" fill="none" />
<path d="M581.8096947935368,830.0538599640934 L472.6678635547576,862.1543985637344" stroke="red" stroke-width="1" fill="none" />
<path d="M314.3052064631957,815.0736086175943 L331.42549371633754,789.3931777378816" stroke="red" stroke-width="1" fill="none" />
<path d="M331.42549371633754,789.3931777378816 L348.5457809694793,780.8330341113106" stroke="red" stroke-width="1" fill="none" />
<path d="M348.5457809694793,780.8330341113106 L352.8258527827648,759.4326750448834" stroke="red" stroke-width="1" fill="none" />
<path d="M352.8258527827648,759.4326750448834 L327.14542190305207,733.7522441651706" stroke="red" stroke-width="1" fill="none" />
<path d="M327.14542190305207,733.7522441651706 L310.0251346499102,738.032315978456" stroke="red" stroke-width="1" fill="none" />
<path d="M310.0251346499102,738.032315978456 L305.74506283662475,750.8725314183124" stroke="red" stroke-width="1" fill="none" />
<path d="M305.74506283662475,750.8725314183124 L314.3052064631957,759.4326750448834" stroke="red" stroke-width="1" fill="none" />
<path d="M314.3052064631957,759.4326750448834 L331.42549371633754,755.1526032315978" stroke="red" stroke-width="1" fill="none" />
<path d="M331.42549371633754,755.1526032315978 L335.70556552962296,763.7127468581688" stroke="red" stroke-width="1" fill="none" />
<path d="M335.70556552962296,763.7127468581688 L314.3052064631957,785.1131059245961" stroke="red" stroke-width="1" fill="none" />
<path d="M314.3052064631957,785.1131059245961 L269.36445242369837,789.3931777378816" stroke="red" stroke-width="1" fill="none" />
<path d="M224.42369838420106,759.4326750448834 L224.42369838420106,703.7917414721724" stroke="red" stroke-width="1" fill="none" />
<path d="M224.42369838420106,703.7917414721724 L262.9443447037702,682.3913824057452" stroke="red" stroke-width="1" fill="none" />
<path d="M262.9443447037702,682.3913824057452 L301.4649910233393,682.3913824057452" stroke="red" stroke-width="1" fill="none" />
<path d="M301.4649910233393,682.3913824057452 L374.2262118491921,699.511669658887" stroke="red" stroke-width="1" fill="none" />
<path d="M374.2262118491921,699.511669658887 L387.0664272890485,759.4326750448834" stroke="red" stroke-width="1" fill="none" />
<path d="M387.0664272890485,759.4326750448834 L404.1867145421903,759.4326750448834" stroke="red" stroke-width="1" fill="none" />
<path d="M404.1867145421903,759.4326750448834 L417.0269299820467,712.3518850987433" stroke="red" stroke-width="1" fill="none" />
<path d="M417.0269299820467,712.3518850987433 L399.90664272890484,686.6714542190306" stroke="red" stroke-width="1" fill="none" />
<path d="M399.90664272890484,686.6714542190306 L327.14542190305207,665.2710951526033" stroke="red" stroke-width="1" fill="none" />
<path d="M327.14542190305207,665.2710951526033 L224.42369838420106,678.1113105924596" stroke="red" stroke-width="1" fill="none" />
<path d="M224.42369838420106,678.1113105924596 L198.74326750448833,699.511669658887" stroke="red" stroke-width="1" fill="none" />
<path d="M198.74326750448833,699.511669658887 L177.34290843806104,725.1921005385997" stroke="red" stroke-width="1" fill="none" />
<path d="M177.34290843806104,725.1921005385997 L194.46319569120286,759.4326750448834" stroke="red" stroke-width="1" fill="none" />
<path d="M194.46319569120286,759.4326750448834 L155.94254937163373,755.1526032315978" stroke="red" stroke-width="1" fill="none" />
<path d="M155.94254937163373,755.1526032315978 L117.42190305206464,699.511669658887" stroke="red" stroke-width="1" fill="none" />
<path d="M117.42190305206464,699.511669658887 L117.42190305206464,631.0305206463196" stroke="red" stroke-width="1" fill="none" />
<path d="M117.42190305206464,631.0305206463196 L177.34290843806104,601.0700179533214" stroke="red" stroke-width="1" fill="none" />
<path d="M575.3895870736086,695.2315978456015 L553.9892280071813,695.2315978456015" stroke="red" stroke-width="1" fill="none" />
<path d="M553.9892280071813,695.2315978456015 L532.5888689407541,720.9120287253143" stroke="red" stroke-width="1" fill="none" />
<path d="M532.5888689407541,720.9120287253143 L541.1490125673249,746.592459605027" stroke="red" stroke-width="1" fill="none" />
<path d="M541.1490125673249,746.592459605027 L575.3895870736086,750.8725314183124" stroke="red" stroke-width="1" fill="none" />
<path d="M575.3895870736086,750.8725314183124 L596.7899461400359,725.1921005385997" stroke="red" stroke-width="1" fill="none" />
<path d="M596.7899461400359,725.1921005385997 L575.3895870736086,695.2315978456015" stroke="red" stroke-width="1" fill="none" />
<path d="M446.9874326750449,789.3931777378816 L421.30700179533216,797.9533213644524" stroke="red" stroke-width="1" fill="none" />
<path d="M421.30700179533216,797.9533213644524 L425.5870736086176,819.3536804308798" stroke="red" stroke-width="1" fill="none" />
<path d="M425.5870736086176,819.3536804308798 L455.5475763016158,823.6337522441652" stroke="red" stroke-width="1" fill="none" />
<path d="M455.5475763016158,823.6337522441652 L455.5475763016158,815.0736086175943" stroke="red" stroke-width="1" fill="none" />
<path d="M455.5475763016158,815.0736086175943 L434.1472172351885,810.7935368043088" stroke="red" stroke-width="1" fill="none" />
<path d="M434.1472172351885,810.7935368043088 L438.427289048474,802.2333931777379" stroke="red" stroke-width="1" fill="none" />
<path d="M438.427289048474,802.2333931777379 L459.82764811490125,793.673249551167" stroke="red" stroke-width="1" fill="none" />
<path d="M459.82764811490125,793.673249551167 L468.3877917414722,772.2728904847397" stroke="red" stroke-width="1" fill="none" />
<path d="M468.3877917414722,772.2728904847397 L485.50807899461404,759.4326750448834" stroke="red" stroke-width="1" fill="none" />
<path d="M485.50807899461404,759.4326750448834 L494.06822262118493,776.5529622980252" stroke="red" stroke-width="1" fill="none" />
<path d="M494.06822262118493,776.5529622980252 L502.6283662477558,772.2728904847397" stroke="red" stroke-width="1" fill="none" />
<path d="M502.6283662477558,772.2728904847397 L489.78815080789946,746.592459605027" stroke="red" stroke-width="1" fill="none" />
<path d="M489.78815080789946,746.592459605027 L455.5475763016158,759.4326750448834" stroke="red" stroke-width="1" fill="none" />
<path d="M455.5475763016158,759.4326750448834 L446.9874326750449,789.3931777378816" stroke="red" stroke-width="1" fill="none" />
<path d="M297.18491921005386,819.3536804308798 L314.3052064631957,815.0736086175943" stroke="red" stroke-width="1" fill="none" />
<path d="M288.6247755834829,832.1938958707361 L297.18491921005386,819.3536804308798" stroke="red" stroke-width="1" fill="none" />
<path d="M288.6247755834829,849.3141831238779 L288.6247755834829,832.1938958707361" stroke="red" stroke-width="1" fill="none" />
<path d="M305.74506283662475,866.4344703770198 L288.6247755834829,849.3141831238779" stroke="red" stroke-width="1" fill="none" />
<path d="M352.8258527827648,892.1149012567325 L305.74506283662475,866.4344703770198" stroke="red" stroke-width="1" fill="none" />
<path d="M412.7468581687612,900.6750448833035 L352.8258527827648,892.1149012567325" stroke="red" stroke-width="1" fill="none" />
<path d="M421.30700179533216,892.1149012567325 L412.7468581687612,900.6750448833035" stroke="red" stroke-width="1" fill="none" />
<path d="M575.3895870736086,588.2298025134651 L571.1095152603232,588.2298025134651" stroke="red" stroke-width="1" fill="none" />
<path d="M571.1095152603232,588.2298025134651 L553.9892280071813,575.3895870736087" stroke="red" stroke-width="1" fill="none" />
<path d="M553.9892280071813,575.3895870736087 L575.3895870736086,558.2692998204668" stroke="red" stroke-width="1" fill="none" />
<path d="M481.22800718132856,434.1472172351885 L468.3877917414722,429.86714542190305" stroke="red" stroke-width="1" fill="none" />
<path d="M468.3877917414722,429.86714542190305 L459.82764811490125,412.74685816876126" stroke="red" stroke-width="1" fill="none" />
<path d="M459.82764811490125,412.74685816876126 L472.6678635547576,387.0664272890485" stroke="red" stroke-width="1" fill="none" />
<path d="M472.6678635547576,387.0664272890485 L502.6283662477558,382.786355475763" stroke="red" stroke-width="1" fill="none" />
<path d="M502.6283662477558,382.786355475763 L545.4290843806104,395.6265709156194" stroke="red" stroke-width="1" fill="none" />
<path d="M545.4290843806104,395.6265709156194 L566.8294434470376,421.30700179533216" stroke="red" stroke-width="1" fill="none" />
<path d="M566.8294434470376,421.30700179533216 L558.2692998204668,438.427289048474" stroke="red" stroke-width="1" fill="none" />
<path d="M622.4703770197486,797.9533213644524 L626.7504488330342,802.2333931777379" stroke="red" stroke-width="1" fill="none" />
<path d="M626.7504488330342,802.2333931777379 L620.330341113106,806.5134649910234" stroke="red" stroke-width="1" fill="none" />
<path d="M620.330341113106,806.5134649910234 L616.0502692998205,810.7935368043088" stroke="red" stroke-width="1" fill="none" />
<path d="M616.0502692998205,810.7935368043088 L609.6301615798923,815.0736086175943" stroke="red" stroke-width="1" fill="none" />
<path d="M609.6301615798923,815.0736086175943 L598.9299820466787,827.9138240574507" stroke="red" stroke-width="1" fill="none" />
<path d="M598.9299820466787,827.9138240574507 L590.3698384201077,832.1938958707361" stroke="red" stroke-width="1" fill="none" />
<path d="M590.3698384201077,832.1938958707361 L583.9497307001795,834.3339317773789" stroke="red" stroke-width="1" fill="none" />
<path d="M583.9497307001795,834.3339317773789 L581.8096947935368,830.0538599640934" stroke="red" stroke-width="1" fill="none" />
<path d="M472.6678635547576,862.1543985637344 L474.8078994614004,868.5745062836626" stroke="red" stroke-width="1" fill="none" />
<path d="M474.8078994614004,868.5745062836626 L468.3877917414722,872.854578096948" stroke="red" stroke-width="1" fill="none" />
<path d="M468.3877917414722,872.854578096948 L461.96768402154396,874.9946140035908" stroke="red" stroke-width="1" fill="none" />
<path d="M461.96768402154396,874.9946140035908 L444.8473967684022,881.4147217235189" stroke="red" stroke-width="1" fill="none" />
<path d="M444.8473967684022,881.4147217235189 L436.28725314183123,883.5547576301616" stroke="red" stroke-width="1" fill="none" />
<path d="M436.28725314183123,883.5547576301616 L421.30700179533216,892.1149012567325" stroke="red" stroke-width="1" fill="none" />
<path d="M675.9712746858169,735.8922800718133 L669.5511669658887,729.4721723518851" stroke="red" stroke-width="1" fill="none" />
<path d="M697.3716337522442,725.1921005385997 L688.8114901256733,735.8922800718133" stroke="red" stroke-width="1" fill="none" />
<path d="M699.5116696588868,686.6714542190306 L697.3716337522442,725.1921005385997" stroke="red" stroke-width="1" fill="none" />
<path d="M693.0915619389586,667.4111310592459 L699.5116696588868,686.6714542190306" stroke="red" stroke-width="1" fill="none" />
<path d="M639.5906642728905,626.7504488330342 L654.5709156193896,646.0107719928187" stroke="red" stroke-width="1" fill="none" />
<path d="M654.5709156193896,646.0107719928187 L663.1310592459605,637.4506283662478" stroke="red" stroke-width="1" fill="none" />
<path d="M663.1310592459605,637.4506283662478 L669.5511669658887,641.7307001795332" stroke="red" stroke-width="1" fill="none" />
<path d="M669.5511669658887,641.7307001795332 L673.8312387791741,646.0107719928187" stroke="red" stroke-width="1" fill="none" />
<path d="M673.8312387791741,646.0107719928187 L680.2513464991023,650.2908438061041" stroke="red" stroke-width="1" fill="none" />
<path d="M680.2513464991023,650.2908438061041 L693.0915619389586,667.4111310592459" stroke="red" stroke-width="1" fill="none" />
<path d="M688.8114901256733,735.8922800718133 L688.8114901256733,746.592459605027" stroke="red" stroke-width="1" fill="none" />
<path d="M688.8114901256733,746.592459605027 L693.0915619389586,755.1526032315978" stroke="red" stroke-width="1" fill="none" />
<path d="M693.0915619389586,755.1526032315978 L708.0718132854579,757.2926391382406" stroke="red" stroke-width="1" fill="none" />
<path d="M708.0718132854579,757.2926391382406 L716.6319569120287,753.0125673249552" stroke="red" stroke-width="1" fill="none" />
<path d="M716.6319569120287,753.0125673249552 L718.7719928186715,746.592459605027" stroke="red" stroke-width="1" fill="none" />
<path d="M718.7719928186715,746.592459605027 L712.3518850987433,740.1723518850988" stroke="red" stroke-width="1" fill="none" />
<path d="M712.3518850987433,740.1723518850988 L708.0718132854579,720.9120287253143" stroke="red" stroke-width="1" fill="none" />
<path d="M708.0718132854579,720.9120287253143 L716.6319569120287,699.511669658887" stroke="red" stroke-width="1" fill="none" />
<path d="M716.6319569120287,699.511669658887 L725.1921005385997,695.2315978456015" stroke="red" stroke-width="1" fill="none" />
<path d="M725.1921005385997,695.2315978456015 L725.1921005385997,667.4111310592459" stroke="red" stroke-width="1" fill="none" />
<path d="M671.6912028725314,583.9497307001795 L690.951526032316,568.9694793536805" stroke="red" stroke-width="1" fill="none" />
<path d="M690.951526032316,568.9694793536805 L725.1921005385997,564.689407540395" stroke="red" stroke-width="1" fill="none" />
<path d="M725.1921005385997,564.689407540395 L744.4524236983842,571.1095152603232" stroke="red" stroke-width="1" fill="none" />
<path d="M744.4524236983842,620.330341113106 L757.2926391382406,626.7504488330342" stroke="red" stroke-width="1" fill="none" />
<path d="M780.8330341113106,697.3716337522442 L785.1131059245961,716.6319569120287" stroke="red" stroke-width="1" fill="none" />
<path d="M785.1131059245961,716.6319569120287 L808.6535008976662,712.3518850987433" stroke="red" stroke-width="1" fill="none" />
<path d="M808.6535008976662,712.3518850987433 L815.0736086175943,697.3716337522442" stroke="red" stroke-width="1" fill="none" />
<path d="M815.0736086175943,697.3716337522442 L830.0538599640934,684.5314183123878" stroke="red" stroke-width="1" fill="none" />
<path d="M830.0538599640934,684.5314183123878 L838.6140035906643,635.310592459605" stroke="red" stroke-width="1" fill="none" />
<path d="M838.6140035906643,635.310592459605 L902.8150807899463,558.2692998204668" stroke="red" stroke-width="1" fill="none" />
<path d="M902.8150807899463,558.2692998204668 L994.8366247755836,571.1095152603232" stroke="red" stroke-width="1" fill="none" />
<path d="M994.8366247755836,571.1095152603232 L1110.3985637342907,663.1310592459606" stroke="red" stroke-width="1" fill="none" />
<path d="M1110.3985637342907,663.1310592459606 L1133.938958707361,797.9533213644524" stroke="red" stroke-width="1" fill="none" />
<path d="M874.9946140035906,919.935368043088 L872.854578096948,994.8366247755836" stroke="red" stroke-width="1" fill="none" />
<path d="M821.4937163375225,1078.2980251346498 L710.2118491921005,1123.238779174147" stroke="red" stroke-width="1" fill="none" />
<path d="M710.2118491921005,1123.238779174147 L528.3087971274686,1061.1777378815082" stroke="red" stroke-width="1" fill="none" />
<path d="M536.8689407540395,958.4560143626571 L590.3698384201077,868.5745062836626" stroke="red" stroke-width="1" fill="none" />
<path d="M590.3698384201077,868.5745062836626 L684.5314183123878,836.4739676840215" stroke="red" stroke-width="1" fill="none" />
<path d="M684.5314183123878,836.4739676840215 L746.592459605027,838.6140035906643" stroke="red" stroke-width="1" fill="none" />
<path d="M746.592459605027,838.6140035906643 L748.7324955116696,802.2333931777379" stroke="red" stroke-width="1" fill="none" />
<path d="M748.7324955116696,802.2333931777379 L723.0520646319569,774.4129263913824" stroke="red" stroke-width="1" fill="none" />
<path d="M723.0520646319569,774.4129263913824 L708.0718132854579,772.2728904847397" stroke="red" stroke-width="1" fill="none" />
<path d="M708.0718132854579,772.2728904847397 L690.951526032316,776.5529622980252" stroke="red" stroke-width="1" fill="none" />
<path d="M690.951526032316,776.5529622980252 L671.6912028725314,776.5529622980252" stroke="red" stroke-width="1" fill="none" />
<path d="M671.6912028725314,776.5529622980252 L663.1310592459605,761.572710951526" stroke="red" stroke-width="1" fill="none" />
<path d="M663.1310592459605,761.572710951526 L669.5511669658887,744.4524236983842" stroke="red" stroke-width="1" fill="none" />
<path d="M669.5511669658887,744.4524236983842 L675.9712746858169,735.8922800718133" stroke="red" stroke-width="1" fill="none" />
<path d="M528.3087971274686,1061.1777378815082 L536.8689407540395,958.4560143626571" stroke="red" stroke-width="1" fill="none" />
<path d="M904.9551166965889,1033.3572710951526 L973.4362657091563,1033.3572710951526" stroke="red" stroke-width="1" fill="none" />
<path d="M973.4362657091563,1033.3572710951526 L1024.7971274685817,969.1561938958708" stroke="red" stroke-width="1" fill="none" />
<path d="M1024.7971274685817,969.1561938958708 L1024.7971274685817,896.394973070018" stroke="red" stroke-width="1" fill="none" />
<path d="M1024.7971274685817,896.394973070018 L962.7360861759425,872.854578096948" stroke="red" stroke-width="1" fill="none" />
<path d="M1133.938958707361,797.9533213644524 L1193.8599640933573,872.854578096948" stroke="red" stroke-width="1" fill="none" />
<path d="M1193.8599640933573,872.854578096948 L1196.0,999.116696588869" stroke="red" stroke-width="1" fill="none" />
<path d="M1196.0,999.116696588869 L1108.2585278276483,1155.3393177737883" stroke="red" stroke-width="1" fill="none" />
<path d="M1108.2585278276483,1155.3393177737883 L883.5547576301616,1183.1597845601436" stroke="red" stroke-width="1" fill="none" />
<path d="M605.3500897666069,1191.7199281867147 L776.5529622980251,1191.7199281867147" stroke="red" stroke-width="1" fill="none" />
<path d="M605.3500897666069,1189.5798922800718 L605.3500897666069,1191.7199281867147" stroke="red" stroke-width="1" fill="none" />
<path d="M793.6732495511669,1208.8402154398564 L793.6732495511669,1243.0807899461402" stroke="red" stroke-width="1" fill="none" />
<path d="M793.6732495511669,1243.0807899461402 L819.3536804308798,1251.640933572711" stroke="red" stroke-width="1" fill="none" />
<path d="M819.3536804308798,1251.640933572711 L819.3536804308798,1285.8815080789946" stroke="red" stroke-width="1" fill="none" />
<path d="M819.3536804308798,1285.8815080789946 L793.6732495511669,1294.4416517055656" stroke="red" stroke-width="1" fill="none" />
<path d="M793.6732495511669,1294.4416517055656 L793.6732495511669,1328.6822262118494" stroke="red" stroke-width="1" fill="none" />
<path d="M776.5529622980251,1345.802513464991 L553.9892280071813,1345.802513464991" stroke="red" stroke-width="1" fill="none" />
<path d="M553.9892280071813,1345.802513464991 L494.06822262118493,1285.8815080789946" stroke="red" stroke-width="1" fill="none" />
<path d="M494.06822262118493,1251.640933572711 L553.9892280071813,1191.7199281867147" stroke="red" stroke-width="1" fill="none" />
<path d="M553.9892280071813,1191.7199281867147 L571.1095152603232,1191.7199281867147" stroke="red" stroke-width="1" fill="none" />
<path d="M571.1095152603232,1191.7199281867147 L571.1095152603232,1189.5798922800718" stroke="red" stroke-width="1" fill="none" />
<path d="M793.6732495511669,1328.6822262118494 L776.5529622980251,1345.802513464991" stroke="red" stroke-width="1" fill="none" />
<path d="M494.06822262118493,1285.8815080789946 L468.3877917414722,1277.3213644524237" stroke="red" stroke-width="1" fill="none" />
<path d="M468.3877917414722,1260.2010771992818 L494.06822262118493,1251.640933572711" stroke="red" stroke-width="1" fill="none" />
<path d="M571.1095152603232,1189.5798922800718 L571.1095152603232,1174.5996409335728" stroke="red" stroke-width="1" fill="none" />
<path d="M605.3500897666069,1174.5996409335728 L605.3500897666069,1189.5798922800718" stroke="red" stroke-width="1" fill="none" />
<path d="M468.3877917414722,1277.3213644524237 L451.26750448833036,1277.3213644524237" stroke="red" stroke-width="1" fill="none" />
<path d="M451.26750448833036,1277.3213644524237 L451.26750448833036,1260.2010771992818" stroke="red" stroke-width="1" fill="none" />
<path d="M451.26750448833036,1260.2010771992818 L468.3877917414722,1260.2010771992818" stroke="red" stroke-width="1" fill="none" />
<path d="M883.5547576301616,1183.1597845601436 L857.8743267504489,1168.1795332136446" stroke="red" stroke-width="1" fill="none" />
<path d="M857.8743267504489,1168.1795332136446 L832.1938958707361,1170.3195691202873" stroke="red" stroke-width="1" fill="none" />
<path d="M832.1938958707361,1170.3195691202873 L802.233393177738,1187.4398563734292" stroke="red" stroke-width="1" fill="none" />
<path d="M802.233393177738,1187.4398563734292 L793.6732495511669,1208.8402154398564" stroke="red" stroke-width="1" fill="none" />
<path d="M776.5529622980251,1191.7199281867147 L785.1131059245961,1166.039497307002" stroke="red" stroke-width="1" fill="none" />
<path d="M785.1131059245961,1166.039497307002 L812.9335727109515,1133.938958707361" stroke="red" stroke-width="1" fill="none" />
<path d="M812.9335727109515,1133.938958707361 L838.6140035906643,1110.3985637342907" stroke="red" stroke-width="1" fill="none" />
<path d="M838.6140035906643,1110.3985637342907 L870.7145421903052,1110.3985637342907" stroke="red" stroke-width="1" fill="none" />
<path d="M872.854578096948,994.8366247755836 L879.2746858168762,990.556552962298" stroke="red" stroke-width="1" fill="none" />
<path d="M909.2351885098744,1026.9371633752244 L904.9551166965889,1033.3572710951526" stroke="red" stroke-width="1" fill="none" />
<path d="M879.2746858168762,990.556552962298 L896.394973070018,977.7163375224417" stroke="red" stroke-width="1" fill="none" />
<path d="M962.7360861759425,872.854578096948 L947.7558348294435,894.2549371633753" stroke="red" stroke-width="1" fill="none" />
<path d="M913.5152603231597,915.6552962298026 L874.9946140035906,919.935368043088" stroke="red" stroke-width="1" fill="none" />
<path d="M949.8958707360862,992.6965888689408 L909.2351885098744,1026.9371633752244" stroke="red" stroke-width="1" fill="none" />
<path d="M913.5152603231597,945.6157989228008 L913.5152603231597,922.0754039497308" stroke="red" stroke-width="1" fill="none" />
<path d="M913.5152603231597,922.0754039497308 L913.5152603231597,915.6552962298026" stroke="red" stroke-width="1" fill="none" />
<path d="M947.7558348294435,894.2549371633753 L952.035906642729,898.5350089766607" stroke="red" stroke-width="1" fill="none" />
<path d="M952.035906642729,898.5350089766607 L956.3159784560144,926.3554757630162" stroke="red" stroke-width="1" fill="none" />
<path d="M870.7145421903052,1110.3985637342907 L870.7145421903052,1106.1184919210054" stroke="red" stroke-width="1" fill="none" />
<path d="M870.7145421903052,1106.1184919210054 L821.4937163375225,1078.2980251346498" stroke="red" stroke-width="1" fill="none" />
<path d="M956.3159784560144,926.3554757630162 L962.7360861759425,958.4560143626571" stroke="red" stroke-width="1" fill="none" />
<path d="M962.7360861759425,958.4560143626571 L949.8958707360862,992.6965888689408" stroke="red" stroke-width="1" fill="none" />
<path d="M896.394973070018,977.7163375224417 L911.3752244165171,962.7360861759425" stroke="red" stroke-width="1" fill="none" />
<path d="M911.3752244165171,962.7360861759425 L913.5152603231597,945.6157989228008" stroke="red" stroke-width="1" fill="none" />
<path d="M571.1095152603232,164.50269299820468 L519.7486535008977,164.50269299820468" stroke="red" stroke-width="1" fill="none" />
<path d="M519.7486535008977,96.02154398563735 L519.7486535008977,81.04129263913825" stroke="red" stroke-width="1" fill="none" />
<path d="M539.0089766606823,61.78096947935367 L622.4703770197486,61.78096947935367" stroke="red" stroke-width="1" fill="none" />
<path d="M622.4703770197486,78.90125673249551 L622.4703770197486,96.02154398563735" stroke="red" stroke-width="1" fill="none" />
<path d="M622.4703770197486,164.50269299820468 L588.2298025134651,164.50269299820468" stroke="red" stroke-width="1" fill="none" />
<path d="M588.2298025134651,166.6427289048474 L588.2298025134651,198.74326750448833" stroke="red" stroke-width="1" fill="none" />
<path d="M592.5098743267505,198.74326750448833 L656.7109515260323,198.74326750448833" stroke="red" stroke-width="1" fill="none" />
<path d="M656.7109515260323,190.1831238779174 L656.7109515260323,38.24057450628365" stroke="red" stroke-width="1" fill="none" />
<path d="M656.7109515260323,38.24057450628365 L793.6732495511669,38.24057450628365" stroke="red" stroke-width="1" fill="none" />
<path d="M827.9138240574507,38.24057450628365 L827.9138240574507,267.22441651705566" stroke="red" stroke-width="1" fill="none" />
<path d="M827.9138240574507,318.5852782764812 L690.951526032316,318.5852782764812" stroke="red" stroke-width="1" fill="none" />
<path d="M656.7109515260323,318.5852782764812 L656.7109515260323,226.5637342908438" stroke="red" stroke-width="1" fill="none" />
<path d="M656.7109515260323,215.86355475763017 L592.5098743267505,215.86355475763017" stroke="red" stroke-width="1" fill="none" />
<path d="M695.2315978456015,290.7648114901257 L703.7917414721724,290.7648114901257" stroke="red" stroke-width="1" fill="none" />
<path d="M703.7917414721724,290.7648114901257 L708.0718132854579,284.3447037701975" stroke="red" stroke-width="1" fill="none" />
<path d="M708.0718132854579,284.3447037701975 L708.0718132854579,275.7845601436266" stroke="red" stroke-width="1" fill="none" />
<path d="M708.0718132854579,275.7845601436266 L703.7917414721724,269.36445242369837" stroke="red" stroke-width="1" fill="none" />
<path d="M703.7917414721724,269.36445242369837 L695.2315978456015,269.36445242369837" stroke="red" stroke-width="1" fill="none" />
<path d="M695.2315978456015,269.36445242369837 L690.951526032316,275.7845601436266" stroke="red" stroke-width="1" fill="none" />
<path d="M690.951526032316,275.7845601436266 L690.951526032316,284.3447037701975" stroke="red" stroke-width="1" fill="none" />
<path d="M690.951526032316,284.3447037701975 L695.2315978456015,290.7648114901257" stroke="red" stroke-width="1" fill="none" />
<path d="M695.2315978456015,196.6032315978456 L703.7917414721724,196.6032315978456" stroke="red" stroke-width="1" fill="none" />
<path d="M703.7917414721724,196.6032315978456 L708.0718132854579,190.1831238779174" stroke="red" stroke-width="1" fill="none" />
<path d="M708.0718132854579,190.1831238779174 L708.0718132854579,181.62298025134652" stroke="red" stroke-width="1" fill="none" />
<path d="M708.0718132854579,181.62298025134652 L703.7917414721724,175.20287253141834" stroke="red" stroke-width="1" fill="none" />
<path d="M703.7917414721724,175.20287253141834 L695.2315978456015,175.20287253141834" stroke="red" stroke-width="1" fill="none" />
<path d="M695.2315978456015,175.20287253141834 L690.951526032316,181.62298025134652" stroke="red" stroke-width="1" fill="none" />
<path d="M690.951526032316,181.62298025134652 L690.951526032316,190.1831238779174" stroke="red" stroke-width="1" fill="none" />
<path d="M690.951526032316,190.1831238779174 L695.2315978456015,196.6032315978456" stroke="red" stroke-width="1" fill="none" />
<path d="M746.592459605027,243.68402154398564 L755.1526032315978,243.68402154398564" stroke="red" stroke-width="1" fill="none" />
<path d="M755.1526032315978,243.68402154398564 L759.4326750448834,237.26391382405745" stroke="red" stroke-width="1" fill="none" />
<path d="M759.4326750448834,237.26391382405745 L759.4326750448834,228.70377019748653" stroke="red" stroke-width="1" fill="none" />
<path d="M759.4326750448834,228.70377019748653 L755.1526032315978,222.28366247755835" stroke="red" stroke-width="1" fill="none" />
<path d="M755.1526032315978,222.28366247755835 L746.592459605027,222.28366247755835" stroke="red" stroke-width="1" fill="none" />
<path d="M746.592459605027,222.28366247755835 L742.3123877917415,228.70377019748653" stroke="red" stroke-width="1" fill="none" />
<path d="M742.3123877917415,228.70377019748653 L742.3123877917415,237.26391382405745" stroke="red" stroke-width="1" fill="none" />
<path d="M742.3123877917415,237.26391382405745 L746.592459605027,243.68402154398564" stroke="red" stroke-width="1" fill="none" />
<path d="M588.2298025134651,198.74326750448833 L590.3698384201077,198.74326750448833" stroke="red" stroke-width="1" fill="none" />
<path d="M590.3698384201077,215.86355475763017 L588.2298025134651,215.86355475763017" stroke="red" stroke-width="1" fill="none" />
<path d="M656.7109515260323,320.7253141831239 L656.7109515260323,318.5852782764812" stroke="red" stroke-width="1" fill="none" />
<path d="M656.7109515260323,348.5457809694794 L656.7109515260323,320.7253141831239" stroke="red" stroke-width="1" fill="none" />
<path d="M690.951526032316,348.5457809694794 L656.7109515260323,348.5457809694794" stroke="red" stroke-width="1" fill="none" />
<path d="M690.951526032316,318.5852782764812 L690.951526032316,320.7253141831239" stroke="red" stroke-width="1" fill="none" />
<path d="M830.0538599640934,318.5852782764812 L827.9138240574507,318.5852782764812" stroke="red" stroke-width="1" fill="none" />
<path d="M862.1543985637343,318.5852782764812 L830.0538599640934,318.5852782764812" stroke="red" stroke-width="1" fill="none" />
<path d="M862.1543985637343,267.22441651705566 L862.1543985637343,318.5852782764812" stroke="red" stroke-width="1" fill="none" />
<path d="M827.9138240574507,267.22441651705566 L830.0538599640934,267.22441651705566" stroke="red" stroke-width="1" fill="none" />
<path d="M793.6732495511669,38.24057450628365 L793.6732495511669,36.10053859964094" stroke="red" stroke-width="1" fill="none" />
<path d="M793.6732495511669,36.10053859964094 L793.6732495511669,4.0" stroke="red" stroke-width="1" fill="none" />
<path d="M793.6732495511669,4.0 L827.9138240574507,4.0" stroke="red" stroke-width="1" fill="none" />
<path d="M827.9138240574507,36.10053859964094 L827.9138240574507,38.24057450628365" stroke="red" stroke-width="1" fill="none" />
<path d="M690.951526032316,320.7253141831239 L693.0915619389586,320.7253141831239" stroke="red" stroke-width="1" fill="none" />
<path d="M693.0915619389586,348.5457809694794 L690.951526032316,348.5457809694794" stroke="red" stroke-width="1" fill="none" />
<path d="M693.0915619389586,320.7253141831239 L708.0718132854579,320.7253141831239" stroke="red" stroke-width="1" fill="none" />
<path d="M708.0718132854579,320.7253141831239 L708.0718132854579,348.5457809694794" stroke="red" stroke-width="1" fill="none" />
<path d="M708.0718132854579,348.5457809694794 L693.0915619389586,348.5457809694794" stroke="red" stroke-width="1" fill="none" />
<path d="M830.0538599640934,267.22441651705566 L830.0538599640934,265.08438061041295" stroke="red" stroke-width="1" fill="none" />
<path d="M830.0538599640934,265.08438061041295 L830.0538599640934,232.983842010772" stroke="red" stroke-width="1" fill="none" />
<path d="M830.0538599640934,232.983842010772 L862.1543985637343,232.983842010772" stroke="red" stroke-width="1" fill="none" />
<path d="M862.1543985637343,232.983842010772 L862.1543985637343,265.08438061041295" stroke="red" stroke-width="1" fill="none" />
<path d="M862.1543985637343,265.08438061041295 L862.1543985637343,267.22441651705566" stroke="red" stroke-width="1" fill="none" />
<path d="M830.0538599640934,36.10053859964094 L827.9138240574507,36.10053859964094" stroke="red" stroke-width="1" fill="none" />
<path d="M862.1543985637343,36.10053859964094 L830.0538599640934,36.10053859964094" stroke="red" stroke-width="1" fill="none" />
<path d="M862.1543985637343,4.0 L862.1543985637343,36.10053859964094" stroke="red" stroke-width="1" fill="none" />
<path d="M830.0538599640934,4.0 L862.1543985637343,4.0" stroke="red" stroke-width="1" fill="none" />
<path d="M827.9138240574507,4.0 L830.0538599640934,4.0" stroke="red" stroke-width="1" fill="none" />
<path d="M519.7486535008977,76.76122082585277 L519.7486535008977,61.78096947935367" stroke="red" stroke-width="1" fill="none" />
<path d="M519.7486535008977,61.78096947935367 L534.7289048473967,61.78096947935367" stroke="red" stroke-width="1" fill="none" />
<path d="M622.4703770197486,61.78096947935367 L639.5906642728905,61.78096947935367" stroke="red" stroke-width="1" fill="none" />
<path d="M639.5906642728905,61.78096947935367 L639.5906642728905,78.90125673249551" stroke="lavender" stroke-width="1" fill="none" />
<path d="M639.5906642728905,78.90125673249551 L622.4703770197486,78.90125673249551" stroke="red" stroke-width="1" fill="none" />
<path d="M519.7486535008977,81.04129263913825 L519.7486535008977,76.76122082585277" stroke="red" stroke-width="1" fill="none" />
<path d="M534.7289048473967,61.78096947935367 L539.0089766606823,61.78096947935367" stroke="red" stroke-width="1" fill="none" />
<path d="M656.7109515260323,226.5637342908438 L656.7109515260323,215.86355475763017" stroke="red" stroke-width="1" fill="none" />
<path d="M656.7109515260323,198.74326750448833 L656.7109515260323,190.1831238779174" stroke="red" stroke-width="1" fill="none" />
<path d="M622.4703770197486,96.02154398563735 L639.5906642728905,96.02154398563735" stroke="red" stroke-width="1" fill="none" />
<path d="M639.5906642728905,96.02154398563735 L639.5906642728905,113.14183123877916" stroke="lavender" stroke-width="1" fill="none" />
<path d="M639.5906642728905,113.14183123877916 L622.4703770197486,113.14183123877916" stroke="red" stroke-width="1" fill="none" />
<path d="M622.4703770197486,113.14183123877916 L622.4703770197486,164.50269299820468" stroke="red" stroke-width="1" fill="none" />
<path d="M519.7486535008977,164.50269299820468 L485.50807899461404,164.50269299820468" stroke="red" stroke-width="1" fill="none" />
<path d="M485.50807899461404,164.50269299820468 L485.50807899461404,96.02154398563735" stroke="red" stroke-width="1" fill="none" />
<path d="M485.50807899461404,96.02154398563735 L519.7486535008977,96.02154398563735" stroke="red" stroke-width="1" fill="none" />
<path d="M588.2298025134651,164.50269299820468 L588.2298025134651,166.6427289048474" stroke="red" stroke-width="1" fill="none" />
<path d="M571.1095152603232,166.6427289048474 L571.1095152603232,164.50269299820468" stroke="red" stroke-width="1" fill="none" />
<path d="M590.3698384201077,198.74326750448833 L592.5098743267505,198.74326750448833" stroke="red" stroke-width="1" fill="none" />
<path d="M592.5098743267505,215.86355475763017 L590.3698384201077,215.86355475763017" stroke="red" stroke-width="1" fill="none" />
<path d="M588.2298025134651,215.86355475763017 L571.1095152603232,215.86355475763017" stroke="red" stroke-width="1" fill="none" />
<path d="M519.7486535008977,168.78276481149013 L571.1095152603232,168.78276481149013" stroke="red" stroke-width="1" fill="none" />
<path d="M571.1095152603232,168.78276481149013 L571.1095152603232,166.6427289048474" stroke="red" stroke-width="1" fill="none" />
<path d="M269.36445242369837,789.3931777378816 L260.8043087971275,789.3931777378816" stroke="red" stroke-width="1" fill="none" />
<path d="M260.8043087971275,789.3931777378816 L256.524236983842,815.0736086175943" stroke="red" stroke-width="1" fill="none" />
<path d="M280.064631956912,860.0143626570916 L280.064631956912,883.5547576301616" stroke="red" stroke-width="1" fill="none" />
<path d="M284.3447037701975,892.1149012567325 L284.3447037701975,969.1561938958708" stroke="lavender" stroke-width="1" fill="none" />
<path d="M284.3447037701975,1020.5170556552963 L284.3447037701975,1071.8779174147217" stroke="lavender" stroke-width="1" fill="none" />
<path d="M245.82405745062835,1106.1184919210054 L245.82405745062835,892.1149012567325" stroke="lavender" stroke-width="1" fill="none" />
<path d="M247.96409335727108,883.5547576301616 L226.5637342908438,883.5547576301616" stroke="lavender" stroke-width="1" fill="none" />
<path d="M23.260323159784548,990.556552962298 L23.260323159784548,960.5960502692999" stroke="red" stroke-width="1" fill="none" />
<path d="M23.260323159784548,926.3554757630162 L23.260323159784548,900.6750448833035" stroke="red" stroke-width="1" fill="none" />
<path d="M228.70377019748653,990.556552962298 L160.2226211849192,990.556552962298" stroke="red" stroke-width="1" fill="none" />
<path d="M224.42369838420106,770.1328545780971 L224.42369838420106,759.4326750448834" stroke="red" stroke-width="1" fill="none" />
<path d="M218.00359066427288,815.0736086175943 L224.42369838420106,770.1328545780971" stroke="red" stroke-width="1" fill="none" />
<path d="M194.46319569120286,883.5547576301616 L194.46319569120286,862.1543985637344" stroke="red" stroke-width="1" fill="none" />
<path d="M194.46319569120286,862.1543985637344 L194.46319569120286,838.6140035906643" stroke="lavender" stroke-width="1" fill="none" />
<path d="M194.46319569120286,838.6140035906643 L194.46319569120286,815.0736086175943" stroke="red" stroke-width="1" fill="none" />
<path d="M280.064631956912,815.0736086175943 L280.064631956912,836.4739676840215" stroke="red" stroke-width="1" fill="none" />
<path d="M280.064631956912,836.4739676840215 L280.064631956912,860.0143626570916" stroke="lavender" stroke-width="1" fill="none" />
<path d="M194.46319569120286,815.0736086175943 L218.00359066427288,815.0736086175943" stroke="red" stroke-width="1" fill="none" />
<path d="M256.524236983842,815.0736086175943 L280.064631956912,815.0736086175943" stroke="red" stroke-width="1" fill="none" />
<path d="M280.064631956912,883.5547576301616 L280.064631956912,889.9748653500898" stroke="red" stroke-width="1" fill="none" />
<path d="M247.96409335727108,889.9748653500898 L247.96409335727108,883.5547576301616" stroke="red" stroke-width="1" fill="none" />
<path d="M228.70377019748653,900.6750448833035 L228.70377019748653,990.556552962298" stroke="red" stroke-width="1" fill="none" />
<path d="M284.3447037701975,969.1561938958708 L365.66606822262116,969.1561938958708" stroke="red" stroke-width="1" fill="none" />
<path d="M365.66606822262116,969.1561938958708 L365.66606822262116,1020.5170556552963" stroke="red" stroke-width="1" fill="none" />
<path d="M365.66606822262116,1020.5170556552963 L284.3447037701975,1020.5170556552963" stroke="red" stroke-width="1" fill="none" />
<path d="M280.064631956912,889.9748653500898 L282.20466786355473,892.1149012567325" stroke="red" stroke-width="1" fill="none" />
<path d="M282.20466786355473,892.1149012567325 L284.3447037701975,892.1149012567325" stroke="red" stroke-width="1" fill="none" />
<path d="M245.82405745062835,892.1149012567325 L247.96409335727108,892.1149012567325" stroke="red" stroke-width="1" fill="none" />
<path d="M247.96409335727108,892.1149012567325 L247.96409335727108,889.9748653500898" stroke="red" stroke-width="1" fill="none" />
<path d="M194.46319569120286,900.6750448833035 L194.46319569120286,883.5547576301616" stroke="red" stroke-width="1" fill="none" />
<path d="M226.5637342908438,883.5547576301616 L228.70377019748653,900.6750448833035" stroke="red" stroke-width="1" fill="none" />
<path d="M23.260323159784548,960.5960502692999 L4.0,960.5960502692999" stroke="red" stroke-width="1" fill="none" />
<path d="M4.0,960.5960502692999 L4.0,926.3554757630162" stroke="red" stroke-width="1" fill="none" />
<path d="M4.0,926.3554757630162 L23.260323159784548,926.3554757630162" stroke="red" stroke-width="1" fill="none" />
<path d="M451.26750448833036,1106.1184919210054 L284.3447037701975,1106.1184919210054" stroke="lavender" stroke-width="1" fill="none" />
<path d="M284.3447037701975,1071.8779174147217 L468.3877917414722,1071.8779174147217" stroke="lavender" stroke-width="1" fill="none" />
<path d="M605.3500897666069,1172.4596050269301 L605.3500897666069,1174.5996409335728" stroke="red" stroke-width="1" fill="none" />
<path d="M571.1095152603232,1174.5996409335728 L571.1095152603232,1172.4596050269301" stroke="red" stroke-width="1" fill="none" />
<path d="M23.260323159784548,900.6750448833035 L91.74147217235185,900.6750448833035" stroke="red" stroke-width="1" fill="none" />
<path d="M91.74147217235185,900.6750448833035 L194.46319569120286,900.6750448833035" stroke="red" stroke-width="1" fill="none" />
<path d="M284.3447037701975,1106.1184919210054 L284.3447037701975,1140.3590664272892" stroke="red" stroke-width="1" fill="none" />
<path d="M284.3447037701975,1140.3590664272892 L245.82405745062835,1140.3590664272892" stroke="red" stroke-width="1" fill="none" />
<path d="M245.82405745062835,1140.3590664272892 L245.82405745062835,1106.1184919210054" stroke="red" stroke-width="1" fill="none" />
<path d="M900.6750448833034,879.2746858168762 L917.7953321364453,879.2746858168762" stroke="red" stroke-width="1" fill="none" />
<path d="M917.7953321364453,879.2746858168762 L922.0754039497308,870.7145421903052" stroke="red" stroke-width="1" fill="none" />
<path d="M922.0754039497308,870.7145421903052 L913.5152603231597,860.0143626570916" stroke="red" stroke-width="1" fill="none" />
<path d="M913.5152603231597,860.0143626570916 L898.5350089766607,862.1543985637344" stroke="red" stroke-width="1" fill="none" />
<path d="M898.5350089766607,862.1543985637344 L900.6750448833034,879.2746858168762" stroke="red" stroke-width="1" fill="none" />
<path d="M725.1921005385997,667.4111310592459 L716.6319569120287,639.5906642728905" stroke="red" stroke-width="1" fill="none" />
<path d="M716.6319569120287,639.5906642728905 L697.3716337522442,620.330341113106" stroke="red" stroke-width="1" fill="none" />
<path d="M697.3716337522442,620.330341113106 L671.6912028725314,616.0502692998205" stroke="red" stroke-width="1" fill="none" />
<path d="M671.6912028725314,616.0502692998205 L671.6912028725314,583.9497307001795" stroke="red" stroke-width="1" fill="none" />
<path d="M744.4524236983842,571.1095152603232 L753.0125673249552,592.5098743267505" stroke="red" stroke-width="1" fill="none" />
<path d="M753.0125673249552,592.5098743267505 L744.4524236983842,609.6301615798923" stroke="red" stroke-width="1" fill="none" />
<path d="M744.4524236983842,609.6301615798923 L744.4524236983842,620.330341113106" stroke="red" stroke-width="1" fill="none" />
<path d="M757.2926391382406,626.7504488330342 L776.5529622980251,626.7504488330342" stroke="red" stroke-width="1" fill="none" />
<path d="M776.5529622980251,626.7504488330342 L802.233393177738,626.7504488330342" stroke="red" stroke-width="1" fill="none" />
<path d="M802.233393177738,626.7504488330342 L817.213644524237,641.7307001795332" stroke="red" stroke-width="1" fill="none" />
<path d="M817.213644524237,641.7307001795332 L819.3536804308798,669.5511669658888" stroke="red" stroke-width="1" fill="none" />
<path d="M819.3536804308798,669.5511669658888 L802.233393177738,693.0915619389588" stroke="red" stroke-width="1" fill="none" />
<path d="M802.233393177738,693.0915619389588 L780.8330341113106,697.3716337522442" stroke="red" stroke-width="1" fill="none" />
<path d="M746.592459605027,149.52244165170558 L755.1526032315978,149.52244165170558" stroke="red" stroke-width="1" fill="none" />
<path d="M755.1526032315978,149.52244165170558 L759.4326750448834,143.1023339317774" stroke="red" stroke-width="1" fill="none" />
<path d="M759.4326750448834,143.1023339317774 L759.4326750448834,134.54219030520647" stroke="red" stroke-width="1" fill="none" />
<path d="M759.4326750448834,134.54219030520647 L755.1526032315978,128.1220825852783" stroke="red" stroke-width="1" fill="none" />
<path d="M755.1526032315978,128.1220825852783 L746.592459605027,128.1220825852783" stroke="red" stroke-width="1" fill="none" />
<path d="M746.592459605027,128.1220825852783 L742.3123877917415,134.54219030520647" stroke="red" stroke-width="1" fill="none" />
<path d="M742.3123877917415,134.54219030520647 L742.3123877917415,143.1023339317774" stroke="red" stroke-width="1" fill="none" />
<path d="M742.3123877917415,143.1023339317774 L746.592459605027,149.52244165170558" stroke="red" stroke-width="1" fill="none" />
<path d="M695.2315978456015,102.44165170556553 L703.7917414721724,102.44165170556553" stroke="red" stroke-width="1" fill="none" />
<path d="M703.7917414721724,102.44165170556553 L708.0718132854579,96.02154398563735" stroke="red" stroke-width="1" fill="none" />
<path d="M708.0718132854579,96.02154398563735 L708.0718132854579,87.46140035906643" stroke="red" stroke-width="1" fill="none" />
<path d="M708.0718132854579,87.46140035906643 L703.7917414721724,81.04129263913825" stroke="red" stroke-width="1" fill="none" />
<path d="M703.7917414721724,81.04129263913825 L695.2315978456015,81.04129263913825" stroke="red" stroke-width="1" fill="none" />
<path d="M695.2315978456015,81.04129263913825 L690.951526032316,87.46140035906643" stroke="red" stroke-width="1" fill="none" />
<path d="M690.951526032316,87.46140035906643 L690.951526032316,96.02154398563735" stroke="red" stroke-width="1" fill="none" />
<path d="M690.951526032316,96.02154398563735 L695.2315978456015,102.44165170556553" stroke="red" stroke-width="1" fill="none" />
<path d="M571.1095152603232,1172.4596050269301 L571.1095152603232,1155.3393177737883" stroke="red" stroke-width="1" fill="none" />
<path d="M571.1095152603232,1155.3393177737883 L553.9892280071813,1140.3590664272892" stroke="red" stroke-width="1" fill="none" />
<path d="M553.9892280071813,1140.3590664272892 L536.8689407540395,1140.3590664272892" stroke="red" stroke-width="1" fill="none" />
<path d="M536.8689407540395,1140.3590664272892 L519.7486535008977,1140.3590664272892" stroke="red" stroke-width="1" fill="none" />
<path d="M519.7486535008977,1140.3590664272892 L451.26750448833036,1106.1184919210054" stroke="lavender" stroke-width="1" fill="none" />
<path d="M468.3877917414722,1071.8779174147217 L530.4488330341113,1088.9982046678638" stroke="lavender" stroke-width="1" fill="none" />
<path d="M530.4488330341113,1088.9982046678638 L571.1095152603232,1088.9982046678638" stroke="red" stroke-width="1" fill="none" />
<path d="M571.1095152603232,1088.9982046678638 L605.3500897666069,1106.1184919210054" stroke="red" stroke-width="1" fill="none" />
<path d="M605.3500897666069,1106.1184919210054 L605.3500897666069,1155.3393177737883" stroke="red" stroke-width="1" fill="none" />
<path d="M605.3500897666069,1155.3393177737883 L605.3500897666069,1172.4596050269301" stroke="red" stroke-width="1" fill="none" />
<path d="M160.2226211849192,990.556552962298 L134.54219030520647,1037.637342908438" stroke="red" stroke-width="1" fill="none" />
<path d="M117.42190305206464,1037.637342908438 L91.74147217235185,990.556552962298" stroke="red" stroke-width="1" fill="none" />
<path d="M108.86175942549369,1123.238779174147 L74.62118491921001,1088.9982046678638" stroke="red" stroke-width="1" fill="none" />
<path d="M74.62118491921001,1088.9982046678638 L100.3016157989228,1037.637342908438" stroke="red" stroke-width="1" fill="none" />
<path d="M100.3016157989228,1037.637342908438 L117.42190305206464,1037.637342908438" stroke="red" stroke-width="1" fill="none" />
<path d="M177.34290843806104,1088.9982046678638 L143.10233393177737,1123.238779174147" stroke="red" stroke-width="1" fill="none" />
<path d="M151.66247755834826,1037.637342908438 L177.34290843806104,1088.9982046678638" stroke="red" stroke-width="1" fill="none" />
<path d="M134.54219030520647,1037.637342908438 L151.66247755834826,1037.637342908438" stroke="red" stroke-width="1" fill="none" />
<path d="M143.10233393177737,1123.238779174147 L108.86175942549369,1123.238779174147" stroke="red" stroke-width="1" fill="none" />
<path d="M515.4685816876122,314.3052064631957 L519.7486535008977,314.3052064631957" stroke="red" stroke-width="1" fill="none" />
<path d="M519.7486535008977,331.42549371633754 L515.4685816876122,331.42549371633754" stroke="red" stroke-width="1" fill="none" />
<path d="M515.4685816876122,331.42549371633754 L502.6283662477558,352.82585278276485" stroke="red" stroke-width="1" fill="none" />
<path d="M502.6283662477558,352.82585278276485 L461.96768402154396,361.38599640933575" stroke="red" stroke-width="1" fill="none" />
<path d="M519.7486535008977,314.3052064631957 L521.8886894075404,314.3052064631957" stroke="red" stroke-width="1" fill="none" />
<path d="M521.8886894075404,314.3052064631957 L536.8689407540395,301.46499102333934" stroke="red" stroke-width="1" fill="none" />
<path d="M536.8689407540395,344.2657091561939 L521.8886894075404,331.42549371633754" stroke="red" stroke-width="1" fill="none" />
<path d="M521.8886894075404,331.42549371633754 L519.7486535008977,331.42549371633754" stroke="red" stroke-width="1" fill="none" />
<path d="M280.064631956912,331.42549371633754 L348.5457809694793,331.42549371633754" stroke="red" stroke-width="1" fill="none" />
<path d="M348.5457809694793,331.42549371633754 L348.5457809694793,421.30700179533216" stroke="red" stroke-width="1" fill="none" />
<path d="M348.5457809694793,421.30700179533216 L297.18491921005386,442.7073608617594" stroke="red" stroke-width="1" fill="none" />
<path d="M536.8689407540395,301.46499102333934 L536.8689407540395,299.32495511669663" stroke="red" stroke-width="1" fill="none" />
<path d="M536.8689407540395,299.32495511669663 L571.1095152603232,250.10412926391382" stroke="red" stroke-width="1" fill="none" />
<path d="M571.1095152603232,250.10412926391382 L605.3500897666069,267.22441651705566" stroke="red" stroke-width="1" fill="none" />
<path d="M605.3500897666069,267.22441651705566 L605.3500897666069,369.94614003590664" stroke="red" stroke-width="1" fill="none" />
<path d="M605.3500897666069,369.94614003590664 L571.1095152603232,387.0664272890485" stroke="red" stroke-width="1" fill="none" />
<path d="M571.1095152603232,387.0664272890485 L536.8689407540395,346.4057450628366" stroke="red" stroke-width="1" fill="none" />
<path d="M536.8689407540395,346.4057450628366 L536.8689407540395,344.2657091561939" stroke="red" stroke-width="1" fill="none" />
<path d="M91.74147217235185,990.556552962298 L87.46140035906643,994.8366247755836" stroke="red" stroke-width="1" fill="none" />
<path d="M87.46140035906643,994.8366247755836 L87.46140035906643,1020.5170556552963" stroke="red" stroke-width="1" fill="none" />
<path d="M87.46140035906643,1020.5170556552963 L23.260323159784548,1020.5170556552963" stroke="red" stroke-width="1" fill="none" />
<path d="M23.260323159784548,1020.5170556552963 L23.260323159784548,994.8366247755836" stroke="red" stroke-width="1" fill="none" />
<path d="M23.260323159784548,994.8366247755836 L23.260323159784548,990.556552962298" stroke="red" stroke-width="1" fill="none" />
</svg>