<?xml version="1.0" encoding="UTF-8"?>
<svg xmlns="http://www.w3.org/2000/svg" xmlns:xlink="http://www.w3.org/1999/xlink"
     width="1200" height="1016" viewBox="0 0 1200 1016">
<defs>
</defs>
<path d="M802.3119266055046,813.2477064220184 L824.1834862385322,813.2477064220184" stroke="lavender" stroke-width="2" fill="none" />
<path d="M824.1834862385322,813.2477064220184 L824.1834862385322,791.376146788991" stroke="lavender" stroke-width="2" fill="none" />
<path d="M824.1834862385322,791.376146788991 L802.3119266055046,791.376146788991" stroke="lavender" stroke-width="2" fill="none" />
<path d="M802.3119266055046,791.376146788991 L802.3119266055046,813.2477064220184" stroke="lavender" stroke-width="2" fill="none" />
<path d="M802.3119266055046,966.3486238532112 L824.1834862385322,966.3486238532112" stroke="lavender" stroke-width="2" fill="none" />
<path d="M824.1834862385322,966.3486238532112 L824.1834862385322,944.4770642201836" stroke="lavender" stroke-width="2" fill="none" />
<path d="M824.1834862385322,944.4770642201836 L802.3119266055046,944.4770642201836" stroke="lavender" stroke-width="2" fill="none" />
<path d="M802.3119266055046,944.4770642201836 L802.3119266055046,966.3486238532112" stroke="lavender" stroke-width="2" fill="none" />
<path d="M714.8256880733945,200.84403669724793 L736.6972477064221,200.84403669724793" stroke="lavender" stroke-width="2" fill="none" />
<path d="M736.6972477064221,200.84403669724793 L736.6972477064221,178.97247706422036" stroke="lavender" stroke-width="2" fill="none" />
<path d="M736.6972477064221,178.97247706422036 L714.8256880733945,178.97247706422036" stroke="lavender" stroke-width="2" fill="none" />
<path d="M714.8256880733945,178.97247706422036 L714.8256880733945,200.84403669724793" stroke="lavender" stroke-width="2" fill="none" />
<path d="M649.211009174312,375.81651376146806 L671.0825688073394,375.81651376146806" stroke="lavender" stroke-width="2" fill="none" />
<path d="M671.0825688073394,353.9449541284405 L649.211009174312,353.9449541284405" stroke="lavender" stroke-width="2" fill="none" />
<path d="M649.211009174312,353.9449541284405 L649.211009174312,375.81651376146806" stroke="lavender" stroke-width="2" fill="none" />
<path d="M671.0825688073394,375.81651376146806 L671.0825688073394,353.9449541284405" stroke="lavender" stroke-width="2" fill="none" />
<path d="M539.8532110091743,528.9174311926606 L539.8532110091743,550.7889908256882" stroke="lavender" stroke-width="2" fill="none" />
<path d="M561.7247706422019,528.9174311926606 L539.8532110091743,528.9174311926606" stroke="lavender" stroke-width="2" fill="none" />
<path d="M517.9816513761468,660.1467889908258 L496.11009174311926,660.1467889908258" stroke="lavender" stroke-width="2" fill="none" />
<path d="M496.11009174311926,660.1467889908258 L496.11009174311926,682.0183486238534" stroke="lavender" stroke-width="2" fill="none" />
<path d="M408.6238532110092,791.376146788991 L430.49541284403665,791.376146788991" stroke="lavender" stroke-width="2" fill="none" />
<path d="M430.49541284403665,791.376146788991 L430.49541284403665,769.5045871559635" stroke="lavender" stroke-width="2" fill="none" />
<path d="M430.49541284403665,769.5045871559635 L408.6238532110092,769.5045871559635" stroke="lavender" stroke-width="2" fill="none" />
<path d="M408.6238532110092,769.5045871559635 L408.6238532110092,791.376146788991" stroke="lavender" stroke-width="2" fill="none" />
<path d="M977.2844036697247,288.330275229358 L955.4128440366972,288.330275229358" stroke="lavender" stroke-width="2" fill="none" />
<path d="M977.2844036697247,310.20183486238557 L977.2844036697247,288.330275229358" stroke="lavender" stroke-width="2" fill="none" />
<path d="M977.2844036697247,791.376146788991 L999.1559633027523,791.376146788991" stroke="lavender" stroke-width="2" fill="none" />
<path d="M999.1559633027523,791.376146788991 L999.1559633027523,769.5045871559635" stroke="lavender" stroke-width="2" fill="none" />
<path d="M999.1559633027523,769.5045871559635 L977.2844036697247,769.5045871559635" stroke="lavender" stroke-width="2" fill="none" />
<path d="M977.2844036697247,769.5045871559635 L977.2844036697247,791.376146788991" stroke="lavender" stroke-width="2" fill="none" />
<path d="M933.5412844036698,835.119266055046 L955.4128440366972,835.119266055046" stroke="lavender" stroke-width="2" fill="none" />
<path d="M955.4128440366972,813.2477064220184 L933.5412844036698,813.2477064220184" stroke="lavender" stroke-width="2" fill="none" />
<path d="M933.5412844036698,813.2477064220184 L933.5412844036698,835.119266055046" stroke="lavender" stroke-width="2" fill="none" />
<path d="M977.2844036697247,944.4770642201836 L1108.51376146789,944.4770642201836" stroke="yellow" stroke-width="2" fill="none" />
<path d="M977.2844036697247,813.2477064220184 L977.2844036697247,944.4770642201836" stroke="yellow" stroke-width="2" fill="none" />
<path d="M1108.51376146789,813.2477064220184 L977.2844036697247,813.2477064220184" stroke="yellow" stroke-width="2" fill="none" />
<path d="M1108.51376146789,944.4770642201836 L1108.51376146789,813.2477064220184" stroke="yellow" stroke-width="2" fill="none" />
<path d="M955.4128440366972,835.119266055046 L955.4128440366972,813.2477064220184" stroke="lavender" stroke-width="2" fill="none" />
<path d="M600.0,192.6422018348626 L643.7431192660551,129.76146788990832" stroke="yellow" stroke-width="2" fill="none" />
<path d="M630.0733944954129,239.11926605504595 L600.0,192.6422018348626" stroke="yellow" stroke-width="2" fill="none" />
<path d="M709.3577981651376,277.3944954128442 L630.0733944954129,239.11926605504595" stroke="yellow" stroke-width="2" fill="none" />
<path d="M774.9724770642201,266.4587155963304 L709.3577981651376,277.3944954128442" stroke="yellow" stroke-width="2" fill="none" />
<path d="M815.9816513761468,217.24770642201838 L774.9724770642201,266.4587155963304" stroke="yellow" stroke-width="2" fill="none" />
<path d="M802.3119266055046,187.1743119266057 L815.9816513761468,217.24770642201838" stroke="yellow" stroke-width="2" fill="none" />
<path d="M810.5137614678899,181.7064220183488 L802.3119266055046,187.1743119266057" stroke="yellow" stroke-width="2" fill="none" />
<path d="M829.6513761467891,219.98165137614683 L810.5137614678899,181.7064220183488" stroke="yellow" stroke-width="2" fill="none" />
<path d="M785.9082568807339,280.12844036697265 L829.6513761467891,219.98165137614683" stroke="yellow" stroke-width="2" fill="none" />
<path d="M703.8899082568807,302.0000000000002 L785.9082568807339,280.12844036697265" stroke="yellow" stroke-width="2" fill="none" />
<path d="M624.605504587156,250.05504587155974 L703.8899082568807,302.0000000000002" stroke="yellow" stroke-width="2" fill="none" />
<path d="M580.8623853211009,189.90825688073414 L624.605504587156,250.05504587155974" stroke="yellow" stroke-width="2" fill="none" />
<path d="M635.5412844036698,121.55963302752298 L580.8623853211009,189.90825688073414" stroke="yellow" stroke-width="2" fill="none" />
<path d="M643.7431192660551,129.76146788990832 L635.5412844036698,121.55963302752298" stroke="yellow" stroke-width="2" fill="none" />
<path d="M785.9082568807339,375.81651376146806 L668.3486238532109,392.22018348623874" stroke="yellow" stroke-width="2" fill="none" />
<path d="M668.3486238532109,392.22018348623874 L578.1284403669724,340.27522935779825" stroke="yellow" stroke-width="2" fill="none" />
<path d="M624.605504587156,250.05504587155974 L578.1284403669724,340.27522935779825" stroke="lavender" stroke-width="2" fill="none" />
<path d="M785.9082568807339,375.81651376146806 L785.9082568807339,280.12844036697265" stroke="lavender" stroke-width="2" fill="none" />
<path d="M665.6146788990825,405.889908256881 L785.9082568807339,381.28440366972495" stroke="yellow" stroke-width="2" fill="none" />
<path d="M578.1284403669724,348.4770642201836 L665.6146788990825,405.889908256881" stroke="yellow" stroke-width="2" fill="none" />
<path d="M1031.9633027522937,780.4403669724772 L1053.834862385321,780.4403669724772" stroke="yellow" stroke-width="2" fill="none" />
<path d="M1053.834862385321,780.4403669724772 L1053.834862385321,758.5688073394497" stroke="yellow" stroke-width="2" fill="none" />
<path d="M1053.834862385321,758.5688073394497 L1031.9633027522937,758.5688073394497" stroke="yellow" stroke-width="2" fill="none" />
<path d="M1031.9633027522937,758.5688073394497 L1031.9633027522937,780.4403669724772" stroke="yellow" stroke-width="2" fill="none" />
<path d="M255.52293577981652,1010.0917431192661 L310.20183486238534,966.3486238532112" stroke="yellow" stroke-width="2" fill="none" />
<path d="M310.20183486238534,966.3486238532112 L310.20183486238534,802.3119266055048" stroke="yellow" stroke-width="2" fill="none" />
<path d="M310.20183486238534,802.3119266055048 L517.9816513761468,802.3119266055048" stroke="yellow" stroke-width="2" fill="none" />
<path d="M364.88073394495416,813.2477064220184 L343.0091743119266,813.2477064220184" stroke="lavender" stroke-width="2" fill="none" />
<path d="M343.0091743119266,813.2477064220184 L321.1376146788991,813.2477064220184" stroke="lavender" stroke-width="2" fill="none" />
<path d="M321.1376146788991,813.2477064220184 L321.1376146788991,835.119266055046" stroke="lavender" stroke-width="2" fill="none" />
<path d="M321.1376146788991,835.119266055046 L321.1376146788991,856.9908256880735" stroke="lavender" stroke-width="2" fill="none" />
<path d="M321.1376146788991,856.9908256880735 L364.88073394495416,813.2477064220184" stroke="yellow" stroke-width="2" fill="none" />
<path d="M517.9816513761468,802.3119266055048 L517.9816513761468,944.4770642201836" stroke="yellow" stroke-width="2" fill="none" />
<path d="M517.9816513761468,944.4770642201836 L517.9816513761468,1010.0917431192661" stroke="yellow" stroke-width="2" fill="none" />
<path d="M583.5963302752293,1010.0917431192661 L583.5963302752293,747.6330275229359" stroke="yellow" stroke-width="2" fill="none" />
<path d="M517.9816513761468,747.6330275229359 L517.9816513761468,802.3119266055048" stroke="yellow" stroke-width="2" fill="none" />
<path d="M517.9816513761468,944.4770642201836 L463.302752293578,955.4128440366974" stroke="yellow" stroke-width="2" fill="none" />
<path d="M463.302752293578,955.4128440366974 L452.3669724770642,1010.0917431192661" stroke="yellow" stroke-width="2" fill="none" />
<path d="M517.9816513761468,944.4770642201836 L496.11009174311926,922.605504587156" stroke="yellow" stroke-width="2" fill="none" />
<path d="M496.11009174311926,922.605504587156 L430.49541284403665,922.605504587156" stroke="yellow" stroke-width="2" fill="none" />
<path d="M430.49541284403665,922.605504587156 L430.49541284403665,988.2201834862387" stroke="yellow" stroke-width="2" fill="none" />
<path d="M430.49541284403665,988.2201834862387 L452.3669724770642,1010.0917431192661" stroke="yellow" stroke-width="2" fill="none" />
<path d="M496.11009174311926,922.605504587156 L474.2385321100917,900.7339449541287" stroke="yellow" stroke-width="2" fill="none" />
<path d="M474.2385321100917,900.7339449541287 L397.6880733944954,889.7981651376149" stroke="yellow" stroke-width="2" fill="none" />
<path d="M397.6880733944954,889.7981651376149 L408.6238532110092,966.3486238532112" stroke="yellow" stroke-width="2" fill="none" />
<path d="M408.6238532110092,966.3486238532112 L430.49541284403665,988.2201834862387" stroke="yellow" stroke-width="2" fill="none" />
<path d="M474.2385321100917,900.7339449541287 L474.2385321100917,878.8623853211011" stroke="yellow" stroke-width="2" fill="none" />
<path d="M474.2385321100917,878.8623853211011 L364.88073394495416,856.9908256880735" stroke="lavender" stroke-width="2" fill="none" />
<path d="M364.88073394495416,856.9908256880735 L386.7522935779816,966.3486238532112" stroke="lavender" stroke-width="2" fill="none" />
<path d="M386.7522935779816,966.3486238532112 L408.6238532110092,966.3486238532112" stroke="yellow" stroke-width="2" fill="none" />
<path d="M649.211009174312,1010.0917431192661 L649.211009174312,747.6330275229359" stroke="yellow" stroke-width="2" fill="none" />
<path d="M714.8256880733945,1010.0917431192661 L714.8256880733945,747.6330275229359" stroke="yellow" stroke-width="2" fill="none" />
<path d="M780.440366972477,1010.0917431192661 L780.440366972477,747.6330275229359" stroke="yellow" stroke-width="2" fill="none" />
<path d="M1086.6422018348624,594.5321100917433 L1021.0275229357799,594.5321100917433" stroke="lavender" stroke-width="2" fill="none" />
<path d="M1021.0275229357799,594.5321100917433 L1021.0275229357799,528.9174311926606" stroke="lavender" stroke-width="2" fill="none" />
<path d="M1021.0275229357799,528.9174311926606 L1086.6422018348624,528.9174311926606" stroke="lavender" stroke-width="2" fill="none" />
<path d="M1086.6422018348624,528.9174311926606 L1086.6422018348624,594.5321100917433" stroke="lavender" stroke-width="2" fill="none" />
<path d="M1015.559633027523,600.0000000000002 L1092.1100917431193,600.0000000000002" stroke="yellow" stroke-width="2" fill="none" />
<path d="M1092.1100917431193,600.0000000000002 L1092.1100917431193,523.4495412844037" stroke="yellow" stroke-width="2" fill="none" />
<path d="M1092.1100917431193,523.4495412844037 L1015.559633027523,523.4495412844037" stroke="yellow" stroke-width="2" fill="none" />
<path d="M1015.559633027523,523.4495412844037 L1015.559633027523,600.0000000000002" stroke="yellow" stroke-width="2" fill="none" />
<path d="M1152.2568807339449,660.1467889908258 L955.4128440366972,660.1467889908258" stroke="yellow" stroke-width="2" fill="none" />
<path d="M955.4128440366972,660.1467889908258 L955.4128440366972,463.3027522935781" stroke="yellow" stroke-width="2" fill="none" />
<path d="M955.4128440366972,463.3027522935781 L1152.2568807339449,463.3027522935781" stroke="yellow" stroke-width="2" fill="none" />
<path d="M1152.2568807339449,463.3027522935781 L1152.2568807339449,660.1467889908258" stroke="yellow" stroke-width="2" fill="none" />
<path d="M949.9449541284403,457.83486238532123 L949.9449541284403,665.6146788990827" stroke="yellow" stroke-width="2" fill="none" />
<path d="M1157.7247706422017,457.83486238532123 L949.9449541284403,457.83486238532123" stroke="yellow" stroke-width="2" fill="none" />
<path d="M949.9449541284403,665.6146788990827 L1157.7247706422017,665.6146788990827" stroke="yellow" stroke-width="2" fill="none" />
<path d="M1157.7247706422017,665.6146788990827 L1157.7247706422017,457.83486238532123" stroke="yellow" stroke-width="2" fill="none" />
<path d="M1174.1284403669724,375.81651376146806 L1174.1284403669724,397.68807339449563" stroke="yellow" stroke-width="2" fill="none" />
<path d="M1174.1284403669724,397.68807339449563 L1196.0,397.68807339449563" stroke="yellow" stroke-width="2" fill="none" />
<path d="M889.7981651376147,725.7614678899083 L889.7981651376147,703.889908256881" stroke="lavender" stroke-width="2" fill="none" />
<path d="M889.7981651376147,703.889908256881 L867.9266055045871,703.889908256881" stroke="lavender" stroke-width="2" fill="none" />
<path d="M846.0550458715597,856.9908256880735 L846.0550458715597,900.7339449541287" stroke="yellow" stroke-width="2" fill="none" />
<path d="M911.6697247706422,900.7339449541287 L911.6697247706422,856.9908256880735" stroke="yellow" stroke-width="2" fill="none" />
<path d="M867.9266055045871,878.8623853211011 L846.0550458715597,856.9908256880735" stroke="yellow" stroke-width="2" fill="none" />
<path d="M846.0550458715597,900.7339449541287 L867.9266055045871,878.8623853211011" stroke="yellow" stroke-width="2" fill="none" />
<path d="M889.7981651376147,878.8623853211011 L911.6697247706422,900.7339449541287" stroke="yellow" stroke-width="2" fill="none" />
<path d="M911.6697247706422,856.9908256880735 L889.7981651376147,878.8623853211011" stroke="yellow" stroke-width="2" fill="none" />
<path d="M977.2844036697247,485.1743119266057 L1130.3853211009175,485.1743119266057" stroke="lavender" stroke-width="2" fill="none" />
<path d="M1130.3853211009175,485.1743119266057 L1130.3853211009175,638.2752293577983" stroke="lavender" stroke-width="2" fill="none" />
<path d="M1130.3853211009175,638.2752293577983 L977.2844036697247,638.2752293577983" stroke="lavender" stroke-width="2" fill="none" />
<path d="M977.2844036697247,638.2752293577983 L977.2844036697247,485.1743119266057" stroke="lavender" stroke-width="2" fill="none" />
<path d="M531.651376146789,548.0550458715597 L534.3853211009174,548.0550458715597" stroke="yellow" stroke-width="2" fill="none" />
<path d="M534.3853211009174,548.0550458715597 L534.3853211009174,528.9174311926606" stroke="lavender" stroke-width="2" fill="none" />
<path d="M534.3853211009174,528.9174311926606 L531.651376146789,528.9174311926606" stroke="lavender" stroke-width="2" fill="none" />
<path d="M531.651376146789,528.9174311926606 L531.651376146789,548.0550458715597" stroke="lavender" stroke-width="2" fill="none" />
<path d="M539.8532110091743,523.4495412844037 L558.9908256880734,523.4495412844037" stroke="lavender" stroke-width="2" fill="none" />
<path d="M558.9908256880734,523.4495412844037 L558.9908256880734,520.7155963302753" stroke="lavender" stroke-width="2" fill="none" />
<path d="M558.9908256880734,520.7155963302753 L539.8532110091743,520.7155963302753" stroke="lavender" stroke-width="2" fill="none" />
<path d="M539.8532110091743,520.7155963302753 L539.8532110091743,523.4495412844037" stroke="lavender" stroke-width="2" fill="none" />
<path d="M605.4678899082569,682.0183486238534 L616.4036697247707,649.211009174312" stroke="yellow" stroke-width="2" fill="none" />
<path d="M616.4036697247707,649.211009174312 L616.4036697247707,485.1743119266057" stroke="yellow" stroke-width="2" fill="none" />
<path d="M616.4036697247707,485.1743119266057 L474.2385321100917,485.1743119266057" stroke="yellow" stroke-width="2" fill="none" />
<path d="M474.2385321100917,485.1743119266057 L474.2385321100917,616.4036697247707" stroke="yellow" stroke-width="2" fill="none" />
<path d="M474.2385321100917,616.4036697247707 L452.3669724770642,616.4036697247707" stroke="yellow" stroke-width="2" fill="none" />
<path d="M452.3669724770642,616.4036697247707 L386.7522935779816,725.7614678899083" stroke="yellow" stroke-width="2" fill="none" />
<path d="M255.52293577981652,528.9174311926606 L277.394495412844,528.9174311926606" stroke="lavender" stroke-width="2" fill="none" />
<path d="M277.394495412844,528.9174311926606 L299.26605504587155,507.04587155963327" stroke="lavender" stroke-width="2" fill="none" />
<path d="M299.26605504587155,507.04587155963327 L277.394495412844,485.1743119266057" stroke="lavender" stroke-width="2" fill="none" />
<path d="M277.394495412844,485.1743119266057 L255.52293577981652,485.1743119266057" stroke="lavender" stroke-width="2" fill="none" />
<path d="M255.52293577981652,485.1743119266057 L255.52293577981652,528.9174311926606" stroke="lavender" stroke-width="2" fill="none" />
<path d="M299.26605504587155,310.20183486238557 L277.394495412844,332.0733944954129" stroke="lavender" stroke-width="2" fill="none" />
<path d="M277.394495412844,332.0733944954129 L288.33027522935777,364.8807339449543" stroke="lavender" stroke-width="2" fill="none" />
<path d="M288.33027522935777,364.8807339449543 L321.1376146788991,375.81651376146806" stroke="lavender" stroke-width="2" fill="none" />
<path d="M321.1376146788991,375.81651376146806 L343.0091743119266,353.9449541284405" stroke="lavender" stroke-width="2" fill="none" />
<path d="M343.0091743119266,353.9449541284405 L332.0733944954128,321.1376146788991" stroke="lavender" stroke-width="2" fill="none" />
<path d="M332.0733944954128,321.1376146788991 L299.26605504587155,310.20183486238557" stroke="lavender" stroke-width="2" fill="none" />
<path d="M736.6972477064221,430.49541284403676 L736.6972477064221,496.1100917431195" stroke="yellow" stroke-width="2" fill="none" />
<path d="M736.6972477064221,496.1100917431195 L758.5688073394494,539.8532110091744" stroke="yellow" stroke-width="2" fill="none" />
<path d="M758.5688073394494,539.8532110091744 L791.3761467889908,550.7889908256882" stroke="yellow" stroke-width="2" fill="none" />
<path d="M791.3761467889908,550.7889908256882 L835.119266055046,528.9174311926606" stroke="yellow" stroke-width="2" fill="none" />
<path d="M452.3669724770642,244.58715596330285 L430.49541284403665,244.58715596330285" stroke="yellow" stroke-width="2" fill="none" />
<path d="M430.49541284403665,244.58715596330285 L408.6238532110092,266.4587155963304" stroke="yellow" stroke-width="2" fill="none" />
<path d="M408.6238532110092,266.4587155963304 L386.7522935779816,332.0733944954129" stroke="yellow" stroke-width="2" fill="none" />
<path d="M386.7522935779816,332.0733944954129 L430.49541284403665,419.559633027523" stroke="yellow" stroke-width="2" fill="none" />
<path d="M430.49541284403665,419.559633027523 L496.11009174311926,463.3027522935781" stroke="yellow" stroke-width="2" fill="none" />
<path d="M496.11009174311926,463.3027522935781 L561.7247706422019,463.3027522935781" stroke="yellow" stroke-width="2" fill="none" />
<path d="M561.7247706422019,463.3027522935781 L561.7247706422019,441.43119266055055" stroke="yellow" stroke-width="2" fill="none" />
<path d="M233.65137614678895,627.3394495412845 L211.7798165137615,638.2752293577983" stroke="lavender" stroke-width="2" fill="none" />
<path d="M211.7798165137615,638.2752293577983 L211.7798165137615,660.1467889908258" stroke="lavender" stroke-width="2" fill="none" />
<path d="M211.7798165137615,660.1467889908258 L244.58715596330273,660.1467889908258" stroke="lavender" stroke-width="2" fill="none" />
<path d="M244.58715596330273,660.1467889908258 L233.65137614678895,627.3394495412845" stroke="lavender" stroke-width="2" fill="none" />
<path d="M211.7798165137615,135.2293577981652 L168.03669724770646,146.165137614679" stroke="lavender" stroke-width="2" fill="none" />
<path d="M168.03669724770646,146.165137614679 L157.10091743119267,168.03669724770657" stroke="lavender" stroke-width="2" fill="none" />
<path d="M157.10091743119267,168.03669724770657 L168.03669724770646,200.84403669724793" stroke="lavender" stroke-width="2" fill="none" />
<path d="M168.03669724770646,200.84403669724793 L211.7798165137615,200.84403669724793" stroke="lavender" stroke-width="2" fill="none" />
<path d="M211.7798165137615,200.84403669724793 L233.65137614678895,168.03669724770657" stroke="lavender" stroke-width="2" fill="none" />
<path d="M233.65137614678895,168.03669724770657 L211.7798165137615,135.2293577981652" stroke="lavender" stroke-width="2" fill="none" />
<path d="M408.6238532110092,91.48623853211029 L364.88073394495416,91.48623853211029" stroke="lavender" stroke-width="2" fill="none" />
<path d="M364.88073394495416,91.48623853211029 L364.88073394495416,146.165137614679" stroke="lavender" stroke-width="2" fill="none" />
<path d="M364.88073394495416,146.165137614679 L419.559633027523,132.49541284403676" stroke="lavender" stroke-width="2" fill="none" />
<path d="M419.559633027523,132.49541284403676 L408.6238532110092,91.48623853211029" stroke="lavender" stroke-width="2" fill="none" />
<path d="M124.29357798165142,69.61467889908272 L80.55045871559633,14.935779816513786" stroke="yellow" stroke-width="2" fill="none" />
<path d="M124.29357798165142,178.97247706422036 L124.29357798165142,69.61467889908272" stroke="yellow" stroke-width="2" fill="none" />
<path d="M58.67889908256882,288.330275229358 L124.29357798165142,178.97247706422036" stroke="yellow" stroke-width="2" fill="none" />
<path d="M4.0,288.330275229358 L58.67889908256882,288.330275229358" stroke="yellow" stroke-width="2" fill="none" />
<path d="M157.10091743119267,463.3027522935781 L168.03669724770646,441.43119266055055" stroke="lavender" stroke-width="2" fill="none" />
<path d="M102.42201834862385,485.1743119266057 L157.10091743119267,463.3027522935781" stroke="lavender" stroke-width="2" fill="none" />
<path d="M69.61467889908255,441.43119266055055 L102.42201834862385,485.1743119266057" stroke="lavender" stroke-width="2" fill="none" />
<path d="M69.61467889908255,397.68807339449563 L69.61467889908255,441.43119266055055" stroke="lavender" stroke-width="2" fill="none" />
<path d="M113.35779816513764,364.8807339449543 L69.61467889908255,397.68807339449563" stroke="lavender" stroke-width="2" fill="none" />
<path d="M168.03669724770646,375.81651376146806 L113.35779816513764,364.8807339449543" stroke="lavender" stroke-width="2" fill="none" />
<path d="M168.03669724770646,441.43119266055055 L168.03669724770646,375.81651376146806" stroke="lavender" stroke-width="2" fill="none" />
<path d="M714.8256880733945,703.889908256881 L695.6880733944954,668.3486238532112" stroke="yellow" stroke-width="2" fill="none" />
<path d="M695.6880733944954,668.3486238532112 L654.6788990825687,668.3486238532112" stroke="yellow" stroke-width="2" fill="none" />
<path d="M654.6788990825687,668.3486238532112 L630.0733944954129,687.4862385321103" stroke="yellow" stroke-width="2" fill="none" />
<path d="M630.0733944954129,687.4862385321103 L627.3394495412845,714.8256880733945" stroke="yellow" stroke-width="2" fill="none" />
<path d="M517.9816513761468,545.3211009174313 L520.7155963302753,545.3211009174313" stroke="lavender" stroke-width="2" fill="none" />
<path d="M520.7155963302753,545.3211009174313 L520.7155963302753,520.7155963302753" stroke="lavender" stroke-width="2" fill="none" />
<path d="M520.7155963302753,520.7155963302753 L517.9816513761468,520.7155963302753" stroke="lavender" stroke-width="2" fill="none" />
<path d="M517.9816513761468,520.7155963302753 L517.9816513761468,545.3211009174313" stroke="lavender" stroke-width="2" fill="none" />
<path d="M531.651376146789,509.7798165137617 L569.9266055045872,509.7798165137617" stroke="lavender" stroke-width="2" fill="none" />
<path d="M531.651376146789,507.04587155963327 L531.651376146789,509.7798165137617" stroke="lavender" stroke-width="2" fill="none" />
<path d="M572.6605504587156,507.04587155963327 L531.651376146789,507.04587155963327" stroke="lavender" stroke-width="2" fill="none" />
<path d="M569.9266055045872,509.7798165137617 L569.9266055045872,523.4495412844037" stroke="lavender" stroke-width="2" fill="none" />
<path d="M569.9266055045872,523.4495412844037 L572.6605504587156,523.4495412844037" stroke="lavender" stroke-width="2" fill="none" />
<path d="M572.6605504587156,523.4495412844037 L572.6605504587156,507.04587155963327" stroke="lavender" stroke-width="2" fill="none" />
<path d="M343.0091743119266,703.889908256881 L364.88073394495416,703.889908256881" stroke="lavender" stroke-width="2" fill="none" />
<path d="M364.88073394495416,703.889908256881 L386.7522935779816,682.0183486238534" stroke="lavender" stroke-width="2" fill="none" />
<path d="M386.7522935779816,682.0183486238534 L364.88073394495416,660.1467889908258" stroke="lavender" stroke-width="2" fill="none" />
<path d="M364.88073394495416,660.1467889908258 L343.0091743119266,660.1467889908258" stroke="lavender" stroke-width="2" fill="none" />
<path d="M343.0091743119266,660.1467889908258 L343.0091743119266,703.889908256881" stroke="lavender" stroke-width="2" fill="none" />
<path d="M474.2385321100917,671.0825688073396 L476.97247706422013,671.0825688073396" stroke="yellow" stroke-width="2" fill="none" />
<path d="M474.2385321100917,651.9449541284405 L474.2385321100917,671.0825688073396" stroke="lavender" stroke-width="2" fill="none" />
<path d="M476.97247706422013,651.9449541284405 L474.2385321100917,651.9449541284405" stroke="lavender" stroke-width="2" fill="none" />
<path d="M476.97247706422013,671.0825688073396 L476.97247706422013,651.9449541284405" stroke="lavender" stroke-width="2" fill="none" />
<path d="M507.04587155963304,643.7431192660551 L507.04587155963304,641.0091743119267" stroke="yellow" stroke-width="2" fill="none" />
<path d="M485.17431192660547,643.7431192660551 L507.04587155963304,643.7431192660551" stroke="lavender" stroke-width="2" fill="none" />
<path d="M485.17431192660547,641.0091743119267 L485.17431192660547,643.7431192660551" stroke="lavender" stroke-width="2" fill="none" />
<path d="M507.04587155963304,641.0091743119267 L485.17431192660547,641.0091743119267" stroke="lavender" stroke-width="2" fill="none" />
<path d="M1021.0275229357799,244.58715596330285 L1064.7706422018348,244.58715596330285" stroke="lavender" stroke-width="2" fill="none" />
<path d="M1021.0275229357799,200.84403669724793 L1021.0275229357799,244.58715596330285" stroke="lavender" stroke-width="2" fill="none" />
<path d="M846.0550458715597,900.7339449541287 L846.0550458715597,1010.0917431192661" stroke="red" stroke-width="2" fill="none" />
<path d="M1064.7706422018348,310.20183486238557 L977.2844036697247,310.20183486238557" stroke="red" stroke-width="2" fill="none" />
<path d="M955.4128440366972,288.330275229358 L955.4128440366972,200.84403669724793" stroke="red" stroke-width="2" fill="none" />
<path d="M1174.1284403669724,747.6330275229359 L1174.1284403669724,1010.0917431192661" stroke="red" stroke-width="2" fill="none" />
<path d="M1174.1284403669724,1010.0917431192661 L911.6697247706422,1010.0917431192661" stroke="red" stroke-width="2" fill="none" />
<path d="M911.6697247706422,747.6330275229359 L1174.1284403669724,747.6330275229359" stroke="red" stroke-width="2" fill="none" />
<path d="M654.6788990825687,200.84403669724793 L662.880733944954,200.84403669724793" stroke="red" stroke-width="2" fill="none" />
<path d="M662.880733944954,200.84403669724793 L684.7522935779816,162.56880733944968" stroke="red" stroke-width="2" fill="none" />
<path d="M684.7522935779816,162.56880733944968 L706.6238532110092,157.10091743119278" stroke="red" stroke-width="2" fill="none" />
<path d="M706.6238532110092,157.10091743119278 L750.3669724770641,159.83486238532123" stroke="red" stroke-width="2" fill="none" />
<path d="M750.3669724770641,159.83486238532123 L764.0366972477063,189.90825688073414" stroke="red" stroke-width="2" fill="none" />
<path d="M764.0366972477063,189.90825688073414 L750.3669724770641,219.98165137614683" stroke="red" stroke-width="2" fill="none" />
<path d="M750.3669724770641,219.98165137614683 L728.4954128440368,219.98165137614683" stroke="red" stroke-width="2" fill="none" />
<path d="M728.4954128440368,219.98165137614683 L728.4954128440368,228.18348623853217" stroke="red" stroke-width="2" fill="none" />
<path d="M728.4954128440368,228.18348623853217 L761.3027522935779,228.18348623853217" stroke="red" stroke-width="2" fill="none" />
<path d="M761.3027522935779,228.18348623853217 L777.7064220183486,187.1743119266057" stroke="red" stroke-width="2" fill="none" />
<path d="M777.7064220183486,187.1743119266057 L764.0366972477063,157.10091743119278" stroke="red" stroke-width="2" fill="none" />
<path d="M764.0366972477063,157.10091743119278 L723.0275229357799,140.6972477064221" stroke="red" stroke-width="2" fill="none" />
<path d="M723.0275229357799,140.6972477064221 L671.0825688073394,157.10091743119278" stroke="red" stroke-width="2" fill="none" />
<path d="M671.0825688073394,157.10091743119278 L654.6788990825687,200.84403669724793" stroke="red" stroke-width="2" fill="none" />
<path d="M873.394495412844,293.7981651376149 L785.9082568807339,375.81651376146806" stroke="red" stroke-width="2" fill="none" />
<path d="M578.1284403669724,340.27522935779825 L531.651376146789,178.97247706422036" stroke="red" stroke-width="2" fill="none" />
<path d="M531.651376146789,178.97247706422036 L600.0,47.743119266055146" stroke="red" stroke-width="2" fill="none" />
<path d="M600.0,47.743119266055146 L725.7614678899083,31.339449541284466" stroke="red" stroke-width="2" fill="none" />
<path d="M725.7614678899083,31.339449541284466 L829.6513761467891,80.5504587155965" stroke="red" stroke-width="2" fill="none" />
<path d="M829.6513761467891,80.5504587155965 L873.394495412844,219.98165137614683" stroke="red" stroke-width="2" fill="none" />
<path d="M873.394495412844,219.98165137614683 L873.394495412844,293.7981651376149" stroke="red" stroke-width="2" fill="none" />
<path d="M785.9082568807339,375.81651376146806 L785.9082568807339,381.28440366972495" stroke="red" stroke-width="2" fill="none" />
<path d="M578.1284403669724,348.4770642201836 L578.1284403669724,340.27522935779825" stroke="red" stroke-width="2" fill="none" />
<path d="M785.9082568807339,381.28440366972495 L785.9082568807339,416.82568807339453" stroke="red" stroke-width="2" fill="none" />
<path d="M785.9082568807339,416.82568807339453 L578.1284403669724,416.82568807339453" stroke="red" stroke-width="2" fill="none" />
<path d="M578.1284403669724,394.9541284403672 L578.1284403669724,348.4770642201836" stroke="red" stroke-width="2" fill="none" />
<path d="M583.5963302752293,1010.0917431192661 L517.9816513761468,1010.0917431192661" stroke="red" stroke-width="2" fill="none" />
<path d="M255.52293577981652,1010.0917431192661 L255.52293577981652,944.4770642201836" stroke="red" stroke-width="2" fill="none" />
<path d="M255.52293577981652,944.4770642201836 L255.52293577981652,922.605504587156" stroke="red" stroke-width="2" fill="none" />
<path d="M255.52293577981652,922.605504587156 L255.52293577981652,856.9908256880735" stroke="red" stroke-width="2" fill="none" />
<path d="M255.52293577981652,856.9908256880735 L255.52293577981652,835.119266055046" stroke="red" stroke-width="2" fill="none" />
<path d="M255.52293577981652,835.119266055046 L255.52293577981652,769.5045871559635" stroke="red" stroke-width="2" fill="none" />
<path d="M255.52293577981652,769.5045871559635 L255.52293577981652,747.6330275229359" stroke="red" stroke-width="2" fill="none" />
<path d="M255.52293577981652,747.6330275229359 L277.394495412844,747.6330275229359" stroke="red" stroke-width="2" fill="none" />
<path d="M277.394495412844,747.6330275229359 L343.0091743119266,747.6330275229359" stroke="red" stroke-width="2" fill="none" />
<path d="M343.0091743119266,747.6330275229359 L364.88073394495416,747.6330275229359" stroke="red" stroke-width="2" fill="none" />
<path d="M364.88073394495416,747.6330275229359 L430.49541284403665,747.6330275229359" stroke="red" stroke-width="2" fill="none" />
<path d="M430.49541284403665,747.6330275229359 L452.3669724770642,747.6330275229359" stroke="red" stroke-width="2" fill="none" />
<path d="M452.3669724770642,747.6330275229359 L517.9816513761468,747.6330275229359" stroke="red" stroke-width="2" fill="none" />
<path d="M517.9816513761468,747.6330275229359 L583.5963302752293,747.6330275229359" stroke="red" stroke-width="2" fill="none" />
<path d="M517.9816513761468,1010.0917431192661 L452.3669724770642,1010.0917431192661" stroke="red" stroke-width="2" fill="none" />
<path d="M452.3669724770642,1010.0917431192661 L255.52293577981652,1010.0917431192661" stroke="red" stroke-width="2" fill="none" />
<path d="M583.5963302752293,747.6330275229359 L649.211009174312,747.6330275229359" stroke="red" stroke-width="2" fill="none" />
<path d="M649.211009174312,747.6330275229359 L714.8256880733945,747.6330275229359" stroke="red" stroke-width="2" fill="none" />
<path d="M714.8256880733945,747.6330275229359 L780.440366972477,747.6330275229359" stroke="red" stroke-width="2" fill="none" />
<path d="M780.440366972477,747.6330275229359 L824.1834862385322,747.6330275229359" stroke="red" stroke-width="2" fill="none" />
<path d="M824.1834862385322,1010.0917431192661 L780.440366972477,1010.0917431192661" stroke="red" stroke-width="2" fill="none" />
<path d="M780.440366972477,1010.0917431192661 L714.8256880733945,1010.0917431192661" stroke="red" stroke-width="2" fill="none" />
<path d="M714.8256880733945,1010.0917431192661 L649.211009174312,1010.0917431192661" stroke="red" stroke-width="2" fill="none" />
<path d="M649.211009174312,1010.0917431192661 L583.5963302752293,1010.0917431192661" stroke="red" stroke-width="2" fill="none" />
<path d="M1196.0,725.7614678899083 L889.7981651376147,725.7614678899083" stroke="red" stroke-width="2" fill="none" />
<path d="M867.9266055045871,703.889908256881 L867.9266055045871,375.81651376146806" stroke="red" stroke-width="2" fill="none" />
<path d="M867.9266055045871,375.81651376146806 L1174.1284403669724,375.81651376146806" stroke="red" stroke-width="2" fill="none" />
<path d="M1196.0,397.68807339449563 L1196.0,725.7614678899083" stroke="red" stroke-width="2" fill="none" />
<path d="M1174.1284403669724,375.81651376146806 L1196.0,375.81651376146806" stroke="red" stroke-width="2" fill="none" />
<path d="M1196.0,375.81651376146806 L1196.0,397.68807339449563" stroke="red" stroke-width="2" fill="none" />
<path d="M846.0550458715597,1010.0917431192661 L846.0550458715597,1012.8256880733945" stroke="red" stroke-width="2" fill="none" />
<path d="M846.0550458715597,1012.8256880733945 L824.1834862385322,1012.8256880733945" stroke="lavender" stroke-width="2" fill="none" />
<path d="M824.1834862385322,1012.8256880733945 L824.1834862385322,1010.0917431192661" stroke="red" stroke-width="2" fill="none" />
<path d="M889.7981651376147,725.7614678899083 L867.9266055045871,725.7614678899083" stroke="red" stroke-width="2" fill="none" />
<path d="M867.9266055045871,725.7614678899083 L867.9266055045871,703.889908256881" stroke="red" stroke-width="2" fill="none" />
<path d="M578.1284403669724,416.82568807339453 L578.1284403669724,394.9541284403672" stroke="lavender" stroke-width="2" fill="none" />
<path d="M824.1834862385322,747.6330275229359 L824.1834862385322,744.8990825688074" stroke="red" stroke-width="2" fill="none" />
<path d="M846.0550458715597,744.8990825688074 L846.0550458715597,747.6330275229359" stroke="red" stroke-width="2" fill="none" />
<path d="M824.1834862385322,744.8990825688074 L846.0550458715597,744.8990825688074" stroke="lavender" stroke-width="2" fill="none" />
<path d="M846.0550458715597,747.6330275229359 L846.0550458715597,856.9908256880735" stroke="red" stroke-width="2" fill="none" />
<path d="M911.6697247706422,1010.0917431192661 L911.6697247706422,900.7339449541287" stroke="red" stroke-width="2" fill="none" />
<path d="M911.6697247706422,856.9908256880735 L911.6697247706422,747.6330275229359" stroke="red" stroke-width="2" fill="none" />
<path d="M846.0550458715597,856.9908256880735 L911.6697247706422,856.9908256880735" stroke="red" stroke-width="2" fill="none" />
<path d="M911.6697247706422,900.7339449541287 L846.0550458715597,900.7339449541287" stroke="red" stroke-width="2" fill="none" />
<path d="M561.7247706422019,528.9174311926606 L561.7247706422019,550.7889908256882" stroke="red" stroke-width="2" fill="none" />
<path d="M561.7247706422019,550.7889908256882 L539.8532110091743,550.7889908256882" stroke="red" stroke-width="2" fill="none" />
<path d="M517.9816513761468,682.0183486238534 L496.11009174311926,682.0183486238534" stroke="red" stroke-width="2" fill="none" />
<path d="M517.9816513761468,660.1467889908258 L517.9816513761468,682.0183486238534" stroke="red" stroke-width="2" fill="none" />
<path d="M496.11009174311926,682.0183486238534 L452.3669724770642,682.0183486238534" stroke="red" stroke-width="2" fill="none" />
<path d="M517.9816513761468,550.7889908256882 L517.9816513761468,660.1467889908258" stroke="red" stroke-width="2" fill="none" />
<path d="M539.8532110091743,550.7889908256882 L517.9816513761468,550.7889908256882" stroke="red" stroke-width="2" fill="none" />
<path d="M583.5963302752293,682.0183486238534 L583.5963302752293,528.9174311926606" stroke="red" stroke-width="2" fill="none" />
<path d="M583.5963302752293,528.9174311926606 L561.7247706422019,528.9174311926606" stroke="red" stroke-width="2" fill="none" />
<path d="M452.3669724770642,682.0183486238534 L452.3669724770642,725.7614678899083" stroke="red" stroke-width="2" fill="none" />
<path d="M736.6972477064221,430.49541284403676 L802.3119266055046,452.36697247706434" stroke="red" stroke-width="2" fill="none" />
<path d="M802.3119266055046,452.36697247706434 L835.119266055046,528.9174311926606" stroke="red" stroke-width="2" fill="none" />
<path d="M835.119266055046,528.9174311926606 L824.1834862385322,605.4678899082571" stroke="red" stroke-width="2" fill="none" />
<path d="M824.1834862385322,605.4678899082571 L791.3761467889908,660.1467889908258" stroke="red" stroke-width="2" fill="none" />
<path d="M791.3761467889908,660.1467889908258 L714.8256880733945,703.889908256881" stroke="red" stroke-width="2" fill="none" />
<path d="M627.3394495412845,714.8256880733945 L605.4678899082569,682.0183486238534" stroke="red" stroke-width="2" fill="none" />
<path d="M605.4678899082569,682.0183486238534 L583.5963302752293,682.0183486238534" stroke="red" stroke-width="2" fill="none" />
<path d="M452.3669724770642,725.7614678899083 L386.7522935779816,725.7614678899083" stroke="red" stroke-width="2" fill="none" />
<path d="M386.7522935779816,725.7614678899083 L233.65137614678895,725.7614678899083" stroke="red" stroke-width="2" fill="none" />
<path d="M233.65137614678895,725.7614678899083 L4.0,517.9816513761468" stroke="red" stroke-width="2" fill="none" />
<path d="M4.0,517.9816513761468 L4.0,288.330275229358" stroke="red" stroke-width="2" fill="none" />
<path d="M4.0,288.330275229358 L80.55045871559633,14.935779816513786" stroke="red" stroke-width="2" fill="none" />
<path d="M80.55045871559633,14.935779816513786 L397.6880733944954,4.0" stroke="red" stroke-width="2" fill="none" />
<path d="M397.6880733944954,4.0 L496.11009174311926,58.67889908256893" stroke="red" stroke-width="2" fill="none" />
<path d="M496.11009174311926,58.67889908256893 L507.04587155963304,146.165137614679" stroke="red" stroke-width="2" fill="none" />
<path d="M507.04587155963304,146.165137614679 L452.3669724770642,244.58715596330285" stroke="red" stroke-width="2" fill="none" />
<path d="M452.3669724770642,244.58715596330285 L441.43119266055044,353.9449541284405" stroke="red" stroke-width="2" fill="none" />
<path d="M474.2385321100917,419.559633027523 L561.7247706422019,441.43119266055055" stroke="red" stroke-width="2" fill="none" />
<path d="M561.7247706422019,441.43119266055055 L736.6972477064221,430.49541284403676" stroke="red" stroke-width="2" fill="none" />
<path d="M441.43119266055044,353.9449541284405 L474.2385321100917,419.559633027523" stroke="red" stroke-width="2" fill="none" />
<path d="M714.8256880733945,703.889908256881 L701.1559633027523,709.3577981651379" stroke="red" stroke-width="2" fill="none" />
<path d="M701.1559633027523,709.3577981651379 L701.1559633027523,731.2293577981652" stroke="lavender" stroke-width="2" fill="none" />
<path d="M701.1559633027523,731.2293577981652 L660.1467889908256,739.4311926605506" stroke="red" stroke-width="2" fill="none" />
<path d="M660.1467889908256,739.4311926605506 L627.3394495412845,714.8256880733945" stroke="red" stroke-width="2" fill="none" />
<path d="M955.4128440366972,200.84403669724793 L1021.0275229357799,200.84403669724793" stroke="red" stroke-width="2" fill="none" />
<path d="M1064.7706422018348,244.58715596330285 L1064.7706422018348,310.20183486238557" stroke="red" stroke-width="2" fill="none" />
<path d="M1021.0275229357799,200.84403669724793 L1064.7706422018348,200.84403669724793" stroke="red" stroke-width="2" fill="none" />
<path d="M1064.7706422018348,200.84403669724793 L1064.7706422018348,244.58715596330285" stroke="red" stroke-width="2" fill="none" />
<path d="M977.2844036697247,310.20183486238557 L955.4128440366972,310.20183486238557" stroke="red" stroke-width="2" fill="none" />
<path d="M955.4128440366972,310.20183486238557 L955.4128440366972,288.330275229358" stroke="red" stroke-width="2" fill="none" />
</svg>