<?xml version="1.0" encoding="UTF-8"?>
<svg xmlns="http://www.w3.org/2000/svg" xmlns:xlink="http://www.w3.org/1999/xlink"
     width="1200" height="978" viewBox="0 0 1200 978">
<defs>
</defs>
<path d="M439.696551724138,538.344827586207 L538.344827586207,538.344827586207" stroke="yellow" stroke-width="1" fill="none" />
<path d="M538.344827586207,538.344827586207 L571.2275862068966,505.46206896551723" stroke="yellow" stroke-width="1" fill="none" />
<path d="M571.2275862068966,505.46206896551723 L571.2275862068966,439.696551724138" stroke="yellow" stroke-width="1" fill="none" />
<path d="M571.2275862068966,439.696551724138 L538.344827586207,406.8137931034483" stroke="yellow" stroke-width="1" fill="none" />
<path d="M538.344827586207,406.8137931034483 L439.696551724138,406.8137931034483" stroke="yellow" stroke-width="1" fill="none" />
<path d="M439.696551724138,406.8137931034483 L406.81379310344835,439.696551724138" stroke="yellow" stroke-width="1" fill="none" />
<path d="M406.81379310344835,505.46206896551723 L439.696551724138,538.344827586207" stroke="yellow" stroke-width="1" fill="none" />
<path d="M341.04827586206903,373.9310344827586 L341.04827586206903,341.048275862069" stroke="yellow" stroke-width="1" fill="none" />
<path d="M341.04827586206903,341.048275862069 L373.9310344827587,341.048275862069" stroke="yellow" stroke-width="1" fill="none" />
<path d="M341.04827586206903,373.9310344827586 L373.9310344827587,373.9310344827586" stroke="lavender" stroke-width="1" fill="none" />
<path d="M373.9310344827587,373.9310344827586 L373.9310344827587,341.048275862069" stroke="lavender" stroke-width="1" fill="none" />
<path d="M636.993103448276,571.2275862068966 L636.993103448276,604.1103448275862" stroke="yellow" stroke-width="1" fill="none" />
<path d="M636.993103448276,604.1103448275862 L604.1103448275862,604.1103448275862" stroke="yellow" stroke-width="1" fill="none" />
<path d="M604.1103448275862,341.048275862069 L604.1103448275862,373.9310344827586" stroke="lavender" stroke-width="1" fill="none" />
<path d="M604.1103448275862,373.9310344827586 L636.993103448276,373.9310344827586" stroke="lavender" stroke-width="1" fill="none" />
<path d="M604.1103448275862,571.2275862068966 L604.1103448275862,604.1103448275862" stroke="lavender" stroke-width="1" fill="none" />
<path d="M636.993103448276,571.2275862068966 L604.1103448275862,571.2275862068966" stroke="lavender" stroke-width="1" fill="none" />
<path d="M373.9310344827587,571.2275862068966 L341.04827586206903,571.2275862068966" stroke="lavender" stroke-width="1" fill="none" />
<path d="M373.9310344827587,604.1103448275862 L373.9310344827587,571.2275862068966" stroke="lavender" stroke-width="1" fill="none" />
<path d="M505.46206896551735,604.1103448275862 L439.696551724138,604.1103448275862" stroke="yellow" stroke-width="1" fill="none" />
<path d="M353.3793103448277,608.2206896551725 L345.1586206896552,608.2206896551725" stroke="yellow" stroke-width="1" fill="none" />
<path d="M345.1586206896552,608.2206896551725 L345.1586206896552,616.4413793103448" stroke="yellow" stroke-width="1" fill="none" />
<path d="M345.1586206896552,616.4413793103448 L353.3793103448277,616.4413793103448" stroke="yellow" stroke-width="1" fill="none" />
<path d="M353.3793103448277,616.4413793103448 L353.3793103448277,608.2206896551725" stroke="yellow" stroke-width="1" fill="none" />
<path d="M336.93793103448286,600.0 L336.93793103448286,591.7793103448276" stroke="yellow" stroke-width="1" fill="none" />
<path d="M336.93793103448286,591.7793103448276 L328.7172413793104,591.7793103448276" stroke="yellow" stroke-width="1" fill="none" />
<path d="M328.7172413793104,591.7793103448276 L328.7172413793104,600.0" stroke="yellow" stroke-width="1" fill="none" />
<path d="M328.7172413793104,600.0 L336.93793103448286,600.0" stroke="yellow" stroke-width="1" fill="none" />
<path d="M341.04827586206903,571.2275862068966 L341.04827586206903,604.1103448275862" stroke="lavender" stroke-width="1" fill="none" />
<path d="M341.04827586206903,604.1103448275862 L373.9310344827587,604.1103448275862" stroke="lavender" stroke-width="1" fill="none" />
<path d="M636.993103448276,341.048275862069 L612.3310344827587,341.048275862069" stroke="lavender" stroke-width="1" fill="none" />
<path d="M636.993103448276,373.9310344827586 L636.993103448276,341.048275862069" stroke="lavender" stroke-width="1" fill="none" />
<path d="M406.81379310344835,439.696551724138 L406.81379310344835,464.3586206896552" stroke="yellow" stroke-width="1" fill="none" />
<path d="M406.81379310344835,480.8 L406.81379310344835,505.46206896551723" stroke="yellow" stroke-width="1" fill="none" />
<path d="M406.81379310344835,464.3586206896552 L406.81379310344835,480.8" stroke="yellow" stroke-width="1" fill="none" />
<path d="M406.81379310344835,464.3586206896552 L275.2827586206897,464.3586206896552" stroke="yellow" stroke-width="1" fill="none" />
<path d="M275.2827586206897,480.8 L406.81379310344835,480.8" stroke="yellow" stroke-width="1" fill="none" />
<path d="M275.2827586206897,464.3586206896552 L275.2827586206897,447.9172413793103" stroke="yellow" stroke-width="1" fill="none" />
<path d="M275.2827586206897,480.8 L275.2827586206897,464.3586206896552" stroke="yellow" stroke-width="1" fill="none" />
<path d="M275.2827586206897,497.2413793103449 L275.2827586206897,480.8" stroke="yellow" stroke-width="1" fill="none" />
<path d="M439.696551724138,176.63448275862072 L505.46206896551735,209.51724137931035" stroke="yellow" stroke-width="1" fill="none" />
<path d="M538.344827586207,209.51724137931035 L604.1103448275862,176.63448275862072" stroke="yellow" stroke-width="1" fill="none" />
<path d="M505.46206896551735,209.51724137931035 L538.344827586207,209.51724137931035" stroke="yellow" stroke-width="1" fill="none" />
<path d="M604.1103448275862,328.71724137931034 L439.696551724138,328.71724137931034" stroke="yellow" stroke-width="1" fill="none" />
<path d="M439.696551724138,304.0551724137931 L604.1103448275862,304.0551724137931" stroke="yellow" stroke-width="1" fill="none" />
<path d="M604.1103448275862,291.7241379310345 L439.696551724138,291.7241379310345" stroke="yellow" stroke-width="1" fill="none" />
<path d="M439.696551724138,271.17241379310343 L604.1103448275862,271.17241379310343" stroke="yellow" stroke-width="1" fill="none" />
<path d="M604.1103448275862,258.84137931034485 L439.696551724138,258.84137931034485" stroke="yellow" stroke-width="1" fill="none" />
<path d="M439.696551724138,242.39999999999998 L604.1103448275862,242.39999999999998" stroke="yellow" stroke-width="1" fill="none" />
<path d="M604.1103448275862,230.0689655172414 L439.696551724138,230.0689655172414" stroke="yellow" stroke-width="1" fill="none" />
<path d="M308.16551724137935,308.16551724137935 L308.16551724137935,373.9310344827586" stroke="yellow" stroke-width="1" fill="none" />
<path d="M110.86896551724146,341.048275862069 L110.86896551724146,242.39999999999998" stroke="yellow" stroke-width="1" fill="none" />
<path d="M193.0758620689656,341.048275862069 L193.0758620689656,242.39999999999998" stroke="yellow" stroke-width="1" fill="none" />
<path d="M176.63448275862072,341.048275862069 L176.63448275862072,242.39999999999998" stroke="yellow" stroke-width="1" fill="none" />
<path d="M160.1931034482759,341.048275862069 L160.1931034482759,242.39999999999998" stroke="yellow" stroke-width="1" fill="none" />
<path d="M143.7517241379311,341.048275862069 L143.7517241379311,242.39999999999998" stroke="yellow" stroke-width="1" fill="none" />
<path d="M127.31034482758628,341.048275862069 L127.31034482758628,242.39999999999998" stroke="yellow" stroke-width="1" fill="none" />
<path d="M209.5172413793104,341.048275862069 L209.5172413793104,242.39999999999998" stroke="yellow" stroke-width="1" fill="none" />
<path d="M406.81379310344835,242.39999999999998 L308.16551724137935,308.16551724137935" stroke="yellow" stroke-width="1" fill="none" />
<path d="M242.4000000000001,12.220689655172464 L242.4000000000001,110.86896551724135" stroke="yellow" stroke-width="1" fill="none" />
<path d="M258.8413793103449,12.220689655172464 L258.8413793103449,110.86896551724135" stroke="yellow" stroke-width="1" fill="none" />
<path d="M505.46206896551735,135.53103448275863 L538.344827586207,135.53103448275863" stroke="lavender" stroke-width="1" fill="none" />
<path d="M538.344827586207,127.31034482758622 L505.46206896551735,127.31034482758622" stroke="lavender" stroke-width="1" fill="none" />
<path d="M505.46206896551735,110.86896551724135 L538.344827586207,110.86896551724135" stroke="lavender" stroke-width="1" fill="none" />
<path d="M538.344827586207,77.98620689655172 L505.46206896551735,77.98620689655172" stroke="lavender" stroke-width="1" fill="none" />
<path d="M735.641379310345,480.8 L735.641379310345,513.6827586206897" stroke="yellow" stroke-width="1" fill="none" />
<path d="M735.641379310345,431.4758620689655 L735.641379310345,464.3586206896552" stroke="yellow" stroke-width="1" fill="none" />
<path d="M735.641379310345,464.3586206896552 L735.641379310345,480.8" stroke="yellow" stroke-width="1" fill="none" />
<path d="M735.641379310345,464.3586206896552 L636.993103448276,464.3586206896552" stroke="yellow" stroke-width="1" fill="none" />
<path d="M636.993103448276,464.3586206896552 L636.993103448276,480.8" stroke="yellow" stroke-width="1" fill="none" />
<path d="M636.993103448276,480.8 L735.641379310345,480.8" stroke="yellow" stroke-width="1" fill="none" />
<path d="M801.4068965517242,332.82758620689657 L809.6275862068967,324.60689655172416" stroke="yellow" stroke-width="1" fill="none" />
<path d="M809.6275862068967,324.60689655172416 L801.4068965517242,316.38620689655176" stroke="yellow" stroke-width="1" fill="none" />
<path d="M801.4068965517242,316.38620689655176 L793.1862068965518,324.60689655172416" stroke="yellow" stroke-width="1" fill="none" />
<path d="M793.1862068965518,324.60689655172416 L801.4068965517242,332.82758620689657" stroke="yellow" stroke-width="1" fill="none" />
<path d="M801.4068965517242,299.9448275862069 L809.6275862068967,291.7241379310345" stroke="yellow" stroke-width="1" fill="none" />
<path d="M809.6275862068967,291.7241379310345 L801.4068965517242,283.50344827586207" stroke="yellow" stroke-width="1" fill="none" />
<path d="M801.4068965517242,283.50344827586207 L793.1862068965518,291.7241379310345" stroke="yellow" stroke-width="1" fill="none" />
<path d="M793.1862068965518,291.7241379310345 L801.4068965517242,299.9448275862069" stroke="yellow" stroke-width="1" fill="none" />
<path d="M801.4068965517242,267.06206896551726 L809.6275862068967,258.84137931034485" stroke="yellow" stroke-width="1" fill="none" />
<path d="M809.6275862068967,258.84137931034485 L801.4068965517242,250.62068965517244" stroke="yellow" stroke-width="1" fill="none" />
<path d="M801.4068965517242,250.62068965517244 L793.1862068965518,258.84137931034485" stroke="yellow" stroke-width="1" fill="none" />
<path d="M793.1862068965518,258.84137931034485 L801.4068965517242,267.06206896551726" stroke="yellow" stroke-width="1" fill="none" />
<path d="M801.4068965517242,234.17931034482757 L809.6275862068967,225.95862068965516" stroke="yellow" stroke-width="1" fill="none" />
<path d="M809.6275862068967,225.95862068965516 L801.4068965517242,217.73793103448276" stroke="yellow" stroke-width="1" fill="none" />
<path d="M801.4068965517242,217.73793103448276 L793.1862068965518,225.95862068965516" stroke="yellow" stroke-width="1" fill="none" />
<path d="M793.1862068965518,225.95862068965516 L801.4068965517242,234.17931034482757" stroke="yellow" stroke-width="1" fill="none" />
<path d="M768.5241379310346,201.29655172413794 L801.4068965517242,201.29655172413794" stroke="lavender" stroke-width="1" fill="none" />
<path d="M801.4068965517242,193.07586206896553 L768.5241379310346,193.07586206896553" stroke="yellow" stroke-width="1" fill="none" />
<path d="M747.9724137931036,143.75172413793103 L747.9724137931036,184.85517241379313" stroke="yellow" stroke-width="1" fill="none" />
<path d="M1101.4620689655173,373.9310344827586 L998.7034482758622,373.9310344827586" stroke="yellow" stroke-width="1" fill="none" />
<path d="M998.7034482758622,382.15172413793107 L1101.4620689655173,382.15172413793107" stroke="yellow" stroke-width="1" fill="none" />
<path d="M1068.5793103448277,308.16551724137935 L998.7034482758622,373.9310344827586" stroke="lavender" stroke-width="1" fill="none" />
<path d="M1097.3517241379311,176.63448275862072 L1097.3517241379311,242.39999999999998" stroke="yellow" stroke-width="1" fill="none" />
<path d="M900.0551724137932,258.84137931034485 L900.0551724137932,250.62068965517244" stroke="yellow" stroke-width="1" fill="none" />
<path d="M900.0551724137932,271.17241379310343 L900.0551724137932,258.84137931034485" stroke="yellow" stroke-width="1" fill="none" />
<path d="M900.0551724137932,279.3931034482759 L900.0551724137932,271.17241379310343" stroke="yellow" stroke-width="1" fill="none" />
<path d="M900.0551724137932,291.7241379310345 L900.0551724137932,279.3931034482759" stroke="yellow" stroke-width="1" fill="none" />
<path d="M900.0551724137932,299.9448275862069 L900.0551724137932,291.7241379310345" stroke="yellow" stroke-width="1" fill="none" />
<path d="M900.0551724137932,258.84137931034485 L1064.4689655172415,258.84137931034485" stroke="yellow" stroke-width="1" fill="none" />
<path d="M900.0551724137932,271.17241379310343 L1064.4689655172415,271.17241379310343" stroke="yellow" stroke-width="1" fill="none" />
<path d="M1064.4689655172415,279.3931034482759 L900.0551724137932,279.3931034482759" stroke="yellow" stroke-width="1" fill="none" />
<path d="M1064.4689655172415,291.7241379310345 L900.0551724137932,291.7241379310345" stroke="yellow" stroke-width="1" fill="none" />
<path d="M406.81379310344835,505.46206896551723 L439.696551724138,505.46206896551723" stroke="yellow" stroke-width="1" fill="none" />
<path d="M439.696551724138,505.46206896551723 L439.696551724138,538.344827586207" stroke="yellow" stroke-width="1" fill="none" />
<path d="M538.344827586207,439.696551724138 L538.344827586207,406.8137931034483" stroke="yellow" stroke-width="1" fill="none" />
<path d="M571.2275862068966,439.696551724138 L538.344827586207,439.696551724138" stroke="yellow" stroke-width="1" fill="none" />
<path d="M604.1103448275862,735.6413793103449 L604.1103448275862,669.8758620689655" stroke="lavender" stroke-width="1" fill="none" />
<path d="M595.8896551724139,669.8758620689655 L595.8896551724139,735.6413793103449" stroke="lavender" stroke-width="1" fill="none" />
<path d="M900.0551724137932,176.63448275862072 L900.0551724137932,242.39999999999998" stroke="yellow" stroke-width="1" fill="none" />
<path d="M1031.5862068965519,242.39999999999998 L998.7034482758622,242.39999999999998" stroke="yellow" stroke-width="1" fill="none" />
<path d="M1105.5724137931036,242.39999999999998 L1105.5724137931036,176.63448275862072" stroke="yellow" stroke-width="1" fill="none" />
<path d="M965.8206896551725,176.63448275862072 L998.7034482758622,176.63448275862072" stroke="yellow" stroke-width="1" fill="none" />
<path d="M1163.1172413793106,242.39999999999998 L1130.2344827586207,242.39999999999998" stroke="yellow" stroke-width="1" fill="none" />
<path d="M908.2758620689656,184.85517241379313 L908.2758620689656,234.17931034482757" stroke="yellow" stroke-width="1" fill="none" />
<path d="M908.2758620689656,234.17931034482757 L932.9379310344829,234.17931034482757" stroke="yellow" stroke-width="1" fill="none" />
<path d="M932.9379310344829,234.17931034482757 L932.9379310344829,184.85517241379313" stroke="yellow" stroke-width="1" fill="none" />
<path d="M932.9379310344829,184.85517241379313 L908.2758620689656,184.85517241379313" stroke="yellow" stroke-width="1" fill="none" />
<path d="M900.0551724137932,176.63448275862072 L945.2689655172414,176.63448275862072" stroke="yellow" stroke-width="1" fill="none" />
<path d="M1130.2344827586207,176.63448275862072 L1163.1172413793106,176.63448275862072" stroke="yellow" stroke-width="1" fill="none" />
<path d="M834.2896551724139,176.63448275862072 L867.1724137931035,176.63448275862072" stroke="yellow" stroke-width="1" fill="none" />
<path d="M867.1724137931035,168.41379310344826 L834.2896551724139,168.41379310344826" stroke="lavender" stroke-width="1" fill="none" />
<path d="M439.696551724138,439.696551724138 L406.81379310344835,439.696551724138" stroke="yellow" stroke-width="1" fill="none" />
<path d="M439.696551724138,406.8137931034483 L439.696551724138,439.696551724138" stroke="yellow" stroke-width="1" fill="none" />
<path d="M538.344827586207,538.344827586207 L538.344827586207,505.46206896551723" stroke="yellow" stroke-width="1" fill="none" />
<path d="M538.344827586207,505.46206896551723 L571.2275862068966,505.46206896551723" stroke="yellow" stroke-width="1" fill="none" />
<path d="M341.04827586206903,423.2551724137931 L439.696551724138,341.048275862069" stroke="yellow" stroke-width="1" fill="none" />
<path d="M439.696551724138,604.1103448275862 L341.04827586206903,521.903448275862" stroke="yellow" stroke-width="1" fill="none" />
<path d="M538.344827586207,341.048275862069 L636.993103448276,423.2551724137931" stroke="yellow" stroke-width="1" fill="none" />
<path d="M439.696551724138,341.048275862069 L538.344827586207,341.048275862069" stroke="yellow" stroke-width="1" fill="none" />
<path d="M538.344827586207,341.048275862069 L604.1103448275862,341.048275862069" stroke="yellow" stroke-width="1" fill="none" />
<path d="M636.993103448276,521.903448275862 L538.344827586207,604.1103448275862" stroke="yellow" stroke-width="1" fill="none" />
<path d="M472.57931034482766,747.9724137931034 L439.696551724138,747.9724137931034" stroke="lavender" stroke-width="1" fill="none" />
<path d="M439.696551724138,756.1931034482759 L472.57931034482766,756.1931034482759" stroke="lavender" stroke-width="1" fill="none" />
<path d="M1064.4689655172415,176.63448275862072 L1064.4689655172415,242.39999999999998" stroke="yellow" stroke-width="1" fill="none" />
<path d="M143.7517241379311,669.8758620689655 L143.7517241379311,636.9931034482759" stroke="yellow" stroke-width="1" fill="none" />
<path d="M143.7517241379311,530.1241379310345 L176.63448275862072,530.1241379310345" stroke="lavender" stroke-width="1" fill="none" />
<path d="M123.20000000000005,452.02758620689656 L114.97931034482764,452.02758620689656" stroke="yellow" stroke-width="1" fill="none" />
<path d="M114.97931034482764,452.02758620689656 L114.97931034482764,460.248275862069" stroke="yellow" stroke-width="1" fill="none" />
<path d="M114.97931034482764,460.248275862069 L123.20000000000005,460.248275862069" stroke="yellow" stroke-width="1" fill="none" />
<path d="M123.20000000000005,460.248275862069 L123.20000000000005,452.02758620689656" stroke="yellow" stroke-width="1" fill="none" />
<path d="M135.53103448275868,460.248275862069 L143.7517241379311,460.248275862069" stroke="yellow" stroke-width="1" fill="none" />
<path d="M143.7517241379311,460.248275862069 L143.7517241379311,452.02758620689656" stroke="yellow" stroke-width="1" fill="none" />
<path d="M143.7517241379311,452.02758620689656 L135.53103448275868,452.02758620689656" stroke="yellow" stroke-width="1" fill="none" />
<path d="M135.53103448275868,452.02758620689656 L135.53103448275868,460.248275862069" stroke="yellow" stroke-width="1" fill="none" />
<path d="M156.08275862068973,460.248275862069 L164.30344827586214,460.248275862069" stroke="yellow" stroke-width="1" fill="none" />
<path d="M164.30344827586214,460.248275862069 L164.30344827586214,452.02758620689656" stroke="yellow" stroke-width="1" fill="none" />
<path d="M164.30344827586214,452.02758620689656 L156.08275862068973,452.02758620689656" stroke="yellow" stroke-width="1" fill="none" />
<path d="M176.63448275862072,460.248275862069 L184.85517241379318,460.248275862069" stroke="yellow" stroke-width="1" fill="none" />
<path d="M184.85517241379318,460.248275862069 L184.85517241379318,452.02758620689656" stroke="yellow" stroke-width="1" fill="none" />
<path d="M184.85517241379318,452.02758620689656 L176.63448275862072,452.02758620689656" stroke="yellow" stroke-width="1" fill="none" />
<path d="M176.63448275862072,452.02758620689656 L176.63448275862072,460.248275862069" stroke="yellow" stroke-width="1" fill="none" />
<path d="M197.18620689655177,460.248275862069 L205.40689655172417,460.248275862069" stroke="yellow" stroke-width="1" fill="none" />
<path d="M205.40689655172417,460.248275862069 L205.40689655172417,452.02758620689656" stroke="yellow" stroke-width="1" fill="none" />
<path d="M205.40689655172417,452.02758620689656 L197.18620689655177,452.02758620689656" stroke="yellow" stroke-width="1" fill="none" />
<path d="M197.18620689655177,452.02758620689656 L197.18620689655177,460.248275862069" stroke="yellow" stroke-width="1" fill="none" />
<path d="M156.08275862068973,452.02758620689656 L156.08275862068973,460.248275862069" stroke="yellow" stroke-width="1" fill="none" />
<path d="M114.97931034482764,480.8 L123.20000000000005,480.8" stroke="yellow" stroke-width="1" fill="none" />
<path d="M123.20000000000005,480.8 L123.20000000000005,472.5793103448276" stroke="yellow" stroke-width="1" fill="none" />
<path d="M123.20000000000005,472.5793103448276 L114.97931034482764,472.5793103448276" stroke="yellow" stroke-width="1" fill="none" />
<path d="M114.97931034482764,472.5793103448276 L114.97931034482764,480.8" stroke="yellow" stroke-width="1" fill="none" />
<path d="M135.53103448275868,480.8 L143.7517241379311,480.8" stroke="yellow" stroke-width="1" fill="none" />
<path d="M143.7517241379311,480.8 L143.7517241379311,472.5793103448276" stroke="yellow" stroke-width="1" fill="none" />
<path d="M143.7517241379311,472.5793103448276 L135.53103448275868,472.5793103448276" stroke="yellow" stroke-width="1" fill="none" />
<path d="M135.53103448275868,472.5793103448276 L135.53103448275868,480.8" stroke="yellow" stroke-width="1" fill="none" />
<path d="M156.08275862068973,480.8 L164.30344827586214,480.8" stroke="yellow" stroke-width="1" fill="none" />
<path d="M164.30344827586214,480.8 L164.30344827586214,472.5793103448276" stroke="yellow" stroke-width="1" fill="none" />
<path d="M164.30344827586214,472.5793103448276 L156.08275862068973,472.5793103448276" stroke="yellow" stroke-width="1" fill="none" />
<path d="M156.08275862068973,472.5793103448276 L156.08275862068973,480.8" stroke="yellow" stroke-width="1" fill="none" />
<path d="M176.63448275862072,480.8 L184.85517241379318,480.8" stroke="yellow" stroke-width="1" fill="none" />
<path d="M184.85517241379318,480.8 L184.85517241379318,472.5793103448276" stroke="yellow" stroke-width="1" fill="none" />
<path d="M184.85517241379318,472.5793103448276 L176.63448275862072,472.5793103448276" stroke="yellow" stroke-width="1" fill="none" />
<path d="M176.63448275862072,472.5793103448276 L176.63448275862072,480.8" stroke="yellow" stroke-width="1" fill="none" />
<path d="M197.18620689655177,480.8 L205.40689655172417,480.8" stroke="yellow" stroke-width="1" fill="none" />
<path d="M205.40689655172417,480.8 L205.40689655172417,472.5793103448276" stroke="yellow" stroke-width="1" fill="none" />
<path d="M205.40689655172417,472.5793103448276 L197.18620689655177,472.5793103448276" stroke="yellow" stroke-width="1" fill="none" />
<path d="M197.18620689655177,472.5793103448276 L197.18620689655177,480.8" stroke="yellow" stroke-width="1" fill="none" />
<path d="M114.97931034482764,501.35172413793106 L123.20000000000005,501.35172413793106" stroke="yellow" stroke-width="1" fill="none" />
<path d="M123.20000000000005,501.35172413793106 L123.20000000000005,493.13103448275865" stroke="yellow" stroke-width="1" fill="none" />
<path d="M123.20000000000005,493.13103448275865 L114.97931034482764,493.13103448275865" stroke="yellow" stroke-width="1" fill="none" />
<path d="M114.97931034482764,493.13103448275865 L114.97931034482764,501.35172413793106" stroke="yellow" stroke-width="1" fill="none" />
<path d="M135.53103448275868,501.35172413793106 L143.7517241379311,501.35172413793106" stroke="yellow" stroke-width="1" fill="none" />
<path d="M143.7517241379311,501.35172413793106 L143.7517241379311,493.13103448275865" stroke="yellow" stroke-width="1" fill="none" />
<path d="M143.7517241379311,493.13103448275865 L135.53103448275868,493.13103448275865" stroke="yellow" stroke-width="1" fill="none" />
<path d="M135.53103448275868,493.13103448275865 L135.53103448275868,501.35172413793106" stroke="yellow" stroke-width="1" fill="none" />
<path d="M156.08275862068973,501.35172413793106 L164.30344827586214,501.35172413793106" stroke="yellow" stroke-width="1" fill="none" />
<path d="M164.30344827586214,501.35172413793106 L164.30344827586214,493.13103448275865" stroke="yellow" stroke-width="1" fill="none" />
<path d="M164.30344827586214,493.13103448275865 L156.08275862068973,493.13103448275865" stroke="yellow" stroke-width="1" fill="none" />
<path d="M156.08275862068973,493.13103448275865 L156.08275862068973,501.35172413793106" stroke="yellow" stroke-width="1" fill="none" />
<path d="M176.63448275862072,501.35172413793106 L184.85517241379318,501.35172413793106" stroke="yellow" stroke-width="1" fill="none" />
<path d="M184.85517241379318,501.35172413793106 L184.85517241379318,493.13103448275865" stroke="yellow" stroke-width="1" fill="none" />
<path d="M184.85517241379318,493.13103448275865 L176.63448275862072,493.13103448275865" stroke="yellow" stroke-width="1" fill="none" />
<path d="M176.63448275862072,493.13103448275865 L176.63448275862072,501.35172413793106" stroke="yellow" stroke-width="1" fill="none" />
<path d="M197.18620689655177,501.35172413793106 L205.40689655172417,501.35172413793106" stroke="yellow" stroke-width="1" fill="none" />
<path d="M205.40689655172417,501.35172413793106 L205.40689655172417,493.13103448275865" stroke="yellow" stroke-width="1" fill="none" />
<path d="M205.40689655172417,493.13103448275865 L197.18620689655177,493.13103448275865" stroke="yellow" stroke-width="1" fill="none" />
<path d="M197.18620689655177,493.13103448275865 L197.18620689655177,501.35172413793106" stroke="yellow" stroke-width="1" fill="none" />
<path d="M143.7517241379311,538.344827586207 L176.63448275862072,538.344827586207" stroke="yellow" stroke-width="1" fill="none" />
<path d="M176.63448275862072,521.903448275862 L143.7517241379311,521.903448275862" stroke="lavender" stroke-width="1" fill="none" />
<path d="M209.5172413793104,242.39999999999998 L406.81379310344835,209.51724137931035" stroke="yellow" stroke-width="1" fill="none" />
<path d="M945.2689655172414,110.86896551724135 L945.2689655172414,143.75172413793103" stroke="lavender" stroke-width="1" fill="none" />
<path d="M953.4896551724139,143.75172413793103 L953.4896551724139,110.86896551724135" stroke="lavender" stroke-width="1" fill="none" />
<path d="M965.8206896551725,110.86896551724135 L965.8206896551725,143.75172413793103" stroke="lavender" stroke-width="1" fill="none" />
<path d="M472.57931034482766,735.6413793103449 L439.696551724138,735.6413793103449" stroke="yellow" stroke-width="1" fill="none" />
<path d="M439.696551724138,768.5241379310345 L472.57931034482766,768.5241379310345" stroke="yellow" stroke-width="1" fill="none" />
<path d="M406.81379310344835,780.8551724137931 L415.03448275862075,780.8551724137931" stroke="yellow" stroke-width="1" fill="none" />
<path d="M415.03448275862075,780.8551724137931 L423.25517241379316,780.8551724137931" stroke="yellow" stroke-width="1" fill="none" />
<path d="M423.25517241379316,780.8551724137931 L431.4758620689656,780.8551724137931" stroke="yellow" stroke-width="1" fill="none" />
<path d="M431.4758620689656,780.8551724137931 L439.696551724138,780.8551724137931" stroke="yellow" stroke-width="1" fill="none" />
<path d="M439.696551724138,780.8551724137931 L447.91724137931044,780.8551724137931" stroke="yellow" stroke-width="1" fill="none" />
<path d="M464.35862068965525,780.8551724137931 L472.57931034482766,780.8551724137931" stroke="yellow" stroke-width="1" fill="none" />
<path d="M472.57931034482766,780.8551724137931 L480.80000000000007,780.8551724137931" stroke="yellow" stroke-width="1" fill="none" />
<path d="M480.80000000000007,780.8551724137931 L489.0206896551725,780.8551724137931" stroke="yellow" stroke-width="1" fill="none" />
<path d="M489.0206896551725,780.8551724137931 L497.2413793103449,780.8551724137931" stroke="yellow" stroke-width="1" fill="none" />
<path d="M497.2413793103449,780.8551724137931 L505.46206896551735,780.8551724137931" stroke="yellow" stroke-width="1" fill="none" />
<path d="M497.2413793103449,780.8551724137931 L497.2413793103449,965.8206896551725" stroke="yellow" stroke-width="1" fill="none" />
<path d="M415.03448275862075,965.8206896551725 L415.03448275862075,780.8551724137931" stroke="yellow" stroke-width="1" fill="none" />
<path d="M489.0206896551725,780.8551724137931 L489.0206896551725,965.8206896551725" stroke="yellow" stroke-width="1" fill="none" />
<path d="M423.25517241379316,965.8206896551725 L423.25517241379316,780.8551724137931" stroke="yellow" stroke-width="1" fill="none" />
<path d="M480.80000000000007,780.8551724137931 L480.80000000000007,965.8206896551725" stroke="yellow" stroke-width="1" fill="none" />
<path d="M431.4758620689656,965.8206896551725 L431.4758620689656,780.8551724137931" stroke="yellow" stroke-width="1" fill="none" />
<path d="M472.57931034482766,780.8551724137931 L472.57931034482766,965.8206896551725" stroke="yellow" stroke-width="1" fill="none" />
<path d="M439.696551724138,965.8206896551725 L439.696551724138,780.8551724137931" stroke="yellow" stroke-width="1" fill="none" />
<path d="M464.35862068965525,780.8551724137931 L464.35862068965525,965.8206896551725" stroke="yellow" stroke-width="1" fill="none" />
<path d="M447.91724137931044,965.8206896551725 L447.91724137931044,780.8551724137931" stroke="yellow" stroke-width="1" fill="none" />
<path d="M447.91724137931044,780.8551724137931 L464.35862068965525,780.8551724137931" stroke="yellow" stroke-width="1" fill="none" />
<path d="M464.35862068965525,965.8206896551725 L447.91724137931044,965.8206896551725" stroke="yellow" stroke-width="1" fill="none" />
<path d="M12.220689655172464,275.28275862068966 L110.86896551724146,242.39999999999998" stroke="yellow" stroke-width="1" fill="none" />
<path d="M110.86896551724146,110.86896551724135 L12.220689655172464,77.98620689655172" stroke="yellow" stroke-width="1" fill="none" />
<path d="M406.81379310344835,275.28275862068966 L406.81379310344835,308.16551724137935" stroke="yellow" stroke-width="1" fill="none" />
<path d="M341.04827586206903,110.86896551724135 L406.81379310344835,12.220689655172464" stroke="yellow" stroke-width="1" fill="none" />
<path d="M439.696551724138,12.220689655172464 L493.1310344827587,45.10344827586209" stroke="yellow" stroke-width="1" fill="none" />
<path d="M406.81379310344835,143.75172413793103 L341.04827586206903,176.63448275862072" stroke="yellow" stroke-width="1" fill="none" />
<path d="M550.6758620689656,127.31034482758622 L604.1103448275862,12.220689655172464" stroke="yellow" stroke-width="1" fill="none" />
<path d="M636.993103448276,12.220689655172464 L702.7586206896552,176.63448275862072" stroke="yellow" stroke-width="1" fill="none" />
<path d="M702.7586206896552,176.63448275862072 L636.993103448276,143.75172413793103" stroke="yellow" stroke-width="1" fill="none" />
<path d="M275.2827586206897,447.9172413793103 L275.2827586206897,439.696551724138" stroke="yellow" stroke-width="1" fill="none" />
<path d="M275.2827586206897,505.46206896551723 L275.2827586206897,497.2413793103449" stroke="yellow" stroke-width="1" fill="none" />
<path d="M612.3310344827587,341.048275862069 L604.1103448275862,341.048275862069" stroke="yellow" stroke-width="1" fill="none" />
<path d="M735.641379310345,423.2551724137931 L735.641379310345,431.4758620689655" stroke="yellow" stroke-width="1" fill="none" />
<path d="M735.641379310345,513.6827586206897 L735.641379310345,521.903448275862" stroke="yellow" stroke-width="1" fill="none" />
<path d="M201.296551724138,719.2 L180.74482758620695,719.2" stroke="yellow" stroke-width="1" fill="none" />
<path d="M201.296551724138,702.7586206896552 L180.74482758620695,702.7586206896552" stroke="yellow" stroke-width="1" fill="none" />
<path d="M234.17931034482763,702.7586206896552 L217.7379310344828,702.7586206896552" stroke="yellow" stroke-width="1" fill="none" />
<path d="M267.0620689655173,702.7586206896552 L250.6206896551725,702.7586206896552" stroke="lavender" stroke-width="1" fill="none" />
<path d="M299.944827586207,702.7586206896552 L283.5034482758621,702.7586206896552" stroke="yellow" stroke-width="1" fill="none" />
<path d="M336.93793103448286,702.7586206896552 L316.3862068965518,702.7586206896552" stroke="yellow" stroke-width="1" fill="none" />
<path d="M234.17931034482763,719.2 L217.7379310344828,719.2" stroke="yellow" stroke-width="1" fill="none" />
<path d="M336.93793103448286,719.2 L316.3862068965518,719.2" stroke="yellow" stroke-width="1" fill="none" />
<path d="M316.3862068965518,719.2 L316.3862068965518,702.7586206896552" stroke="yellow" stroke-width="1" fill="none" />
<path d="M299.944827586207,702.7586206896552 L299.944827586207,719.2" stroke="yellow" stroke-width="1" fill="none" />
<path d="M299.944827586207,719.2 L283.5034482758621,719.2" stroke="yellow" stroke-width="1" fill="none" />
<path d="M267.0620689655173,719.2 L250.6206896551725,719.2" stroke="yellow" stroke-width="1" fill="none" />
<path d="M180.74482758620695,538.344827586207 L205.40689655172417,538.344827586207" stroke="yellow" stroke-width="1" fill="none" />
<path d="M213.62758620689664,538.344827586207 L238.28965517241386,538.344827586207" stroke="yellow" stroke-width="1" fill="none" />
<path d="M246.51034482758627,538.344827586207 L271.1724137931035,538.344827586207" stroke="yellow" stroke-width="1" fill="none" />
<path d="M373.9310344827587,608.2206896551725 L373.9310344827587,632.8827586206896" stroke="yellow" stroke-width="1" fill="none" />
<path d="M373.9310344827587,641.1034482758621 L373.9310344827587,665.7655172413794" stroke="yellow" stroke-width="1" fill="none" />
<path d="M373.9310344827587,673.9862068965517 L373.9310344827587,698.648275862069" stroke="yellow" stroke-width="1" fill="none" />
<path d="M341.04827586206903,735.6413793103449 L341.04827586206903,768.5241379310345" stroke="lavender" stroke-width="1" fill="none" />
<path d="M768.5241379310346,143.75172413793103 L801.4068965517242,143.75172413793103" stroke="yellow" stroke-width="1" fill="none" />
<path d="M172.52413793103455,702.7586206896552 L151.9724137931035,702.7586206896552" stroke="yellow" stroke-width="1" fill="none" />
<path d="M180.74482758620695,768.5241379310345 L180.74482758620695,735.6413793103449" stroke="yellow" stroke-width="1" fill="none" />
<path d="M447.91724137931044,727.4206896551725 L447.91724137931044,731.5310344827586" stroke="yellow" stroke-width="1" fill="none" />
<path d="M447.91724137931044,731.5310344827586 L464.35862068965525,731.5310344827586" stroke="yellow" stroke-width="1" fill="none" />
<path d="M464.35862068965525,731.5310344827586 L464.35862068965525,727.4206896551725" stroke="yellow" stroke-width="1" fill="none" />
<path d="M464.35862068965525,727.4206896551725 L447.91724137931044,727.4206896551725" stroke="yellow" stroke-width="1" fill="none" />
<path d="M476.68965517241384,410.92413793103447 L476.68965517241384,439.696551724138" stroke="yellow" stroke-width="1" fill="none" />
<path d="M476.68965517241384,439.696551724138 L484.9103448275863,439.696551724138" stroke="yellow" stroke-width="1" fill="none" />
<path d="M484.9103448275863,439.696551724138 L484.9103448275863,427.36551724137934" stroke="yellow" stroke-width="1" fill="none" />
<path d="M484.9103448275863,427.36551724137934 L493.1310344827587,439.696551724138" stroke="yellow" stroke-width="1" fill="none" />
<path d="M493.1310344827587,439.696551724138 L501.3517241379311,439.696551724138" stroke="yellow" stroke-width="1" fill="none" />
<path d="M501.3517241379311,439.696551724138 L501.3517241379311,410.92413793103447" stroke="yellow" stroke-width="1" fill="none" />
<path d="M501.3517241379311,410.92413793103447 L493.1310344827587,410.92413793103447" stroke="yellow" stroke-width="1" fill="none" />
<path d="M493.1310344827587,410.92413793103447 L493.1310344827587,423.2551724137931" stroke="yellow" stroke-width="1" fill="none" />
<path d="M493.1310344827587,423.2551724137931 L476.68965517241384,410.92413793103447" stroke="yellow" stroke-width="1" fill="none" />
<path d="M476.68965517241384,526.0137931034483 L501.3517241379311,526.0137931034483" stroke="yellow" stroke-width="1" fill="none" />
<path d="M501.3517241379311,526.0137931034483 L493.1310344827587,472.5793103448276" stroke="yellow" stroke-width="1" fill="none" />
<path d="M493.1310344827587,472.5793103448276 L513.6827586206898,476.68965517241384" stroke="yellow" stroke-width="1" fill="none" />
<path d="M513.6827586206898,476.68965517241384 L489.0206896551725,443.80689655172415" stroke="yellow" stroke-width="1" fill="none" />
<path d="M489.0206896551725,443.80689655172415 L464.35862068965525,476.68965517241384" stroke="yellow" stroke-width="1" fill="none" />
<path d="M464.35862068965525,476.68965517241384 L484.9103448275863,472.5793103448276" stroke="yellow" stroke-width="1" fill="none" />
<path d="M484.9103448275863,472.5793103448276 L476.68965517241384,526.0137931034483" stroke="yellow" stroke-width="1" fill="none" />
<path d="M669.8758620689656,538.344827586207 L735.641379310345,538.344827586207" stroke="red" stroke-width="1" fill="none" />
<path d="M768.5241379310346,768.5241379310345 L604.1103448275862,768.5241379310345" stroke="red" stroke-width="1" fill="none" />
<path d="M636.993103448276,242.39999999999998 L636.993103448276,209.51724137931035" stroke="red" stroke-width="1" fill="none" />
<path d="M439.696551724138,604.1103448275862 L373.9310344827587,604.1103448275862" stroke="red" stroke-width="1" fill="none" />
<path d="M439.696551724138,735.6413793103449 L439.696551724138,604.1103448275862" stroke="red" stroke-width="1" fill="none" />
<path d="M505.46206896551735,604.1103448275862 L505.46206896551735,669.8758620689655" stroke="red" stroke-width="1" fill="none" />
<path d="M604.1103448275862,661.6551724137931 L604.1103448275862,612.3310344827587" stroke="red" stroke-width="1" fill="none" />
<path d="M604.1103448275862,768.5241379310345 L604.1103448275862,743.8620689655172" stroke="red" stroke-width="1" fill="none" />
<path d="M369.8206896551725,616.4413793103448 L369.8206896551725,608.2206896551725" stroke="red" stroke-width="1" fill="none" />
<path d="M361.6000000000001,616.4413793103448 L369.8206896551725,616.4413793103448" stroke="red" stroke-width="1" fill="none" />
<path d="M361.6000000000001,608.2206896551725 L361.6000000000001,616.4413793103448" stroke="red" stroke-width="1" fill="none" />
<path d="M369.8206896551725,608.2206896551725 L361.6000000000001,608.2206896551725" stroke="red" stroke-width="1" fill="none" />
<path d="M336.93793103448286,583.5586206896552 L336.93793103448286,575.3379310344828" stroke="red" stroke-width="1" fill="none" />
<path d="M336.93793103448286,575.3379310344828 L328.7172413793104,575.3379310344828" stroke="red" stroke-width="1" fill="none" />
<path d="M328.7172413793104,575.3379310344828 L328.7172413793104,583.5586206896552" stroke="red" stroke-width="1" fill="none" />
<path d="M328.7172413793104,583.5586206896552 L336.93793103448286,583.5586206896552" stroke="red" stroke-width="1" fill="none" />
<path d="M341.04827586206903,571.2275862068966 L341.04827586206903,530.1241379310345" stroke="red" stroke-width="1" fill="none" />
<path d="M242.4000000000001,439.696551724138 L275.2827586206897,439.696551724138" stroke="red" stroke-width="1" fill="none" />
<path d="M242.4000000000001,505.46206896551723 L242.4000000000001,439.696551724138" stroke="red" stroke-width="1" fill="none" />
<path d="M275.2827586206897,505.46206896551723 L242.4000000000001,505.46206896551723" stroke="red" stroke-width="1" fill="none" />
<path d="M283.5034482758621,435.58620689655174 L332.8275862068966,427.36551724137934" stroke="red" stroke-width="1" fill="none" />
<path d="M332.8275862068966,517.7931034482759 L283.5034482758621,509.57241379310346" stroke="red" stroke-width="1" fill="none" />
<path d="M386.2620689655173,341.048275862069 L431.4758620689656,341.048275862069" stroke="red" stroke-width="1" fill="none" />
<path d="M636.993103448276,143.75172413793103 L636.993103448276,127.31034482758622" stroke="red" stroke-width="1" fill="none" />
<path d="M439.696551724138,332.82758620689657 L439.696551724138,328.71724137931034" stroke="red" stroke-width="1" fill="none" />
<path d="M439.696551724138,328.71724137931034 L439.696551724138,304.0551724137931" stroke="red" stroke-width="1" fill="none" />
<path d="M439.696551724138,304.0551724137931 L439.696551724138,291.7241379310345" stroke="red" stroke-width="1" fill="none" />
<path d="M439.696551724138,291.7241379310345 L439.696551724138,271.17241379310343" stroke="red" stroke-width="1" fill="none" />
<path d="M439.696551724138,271.17241379310343 L439.696551724138,258.84137931034485" stroke="red" stroke-width="1" fill="none" />
<path d="M439.696551724138,258.84137931034485 L439.696551724138,242.39999999999998" stroke="red" stroke-width="1" fill="none" />
<path d="M439.696551724138,242.39999999999998 L439.696551724138,230.0689655172414" stroke="red" stroke-width="1" fill="none" />
<path d="M604.1103448275862,184.85517241379313 L604.1103448275862,230.0689655172414" stroke="red" stroke-width="1" fill="none" />
<path d="M604.1103448275862,230.0689655172414 L604.1103448275862,242.39999999999998" stroke="red" stroke-width="1" fill="none" />
<path d="M604.1103448275862,242.39999999999998 L604.1103448275862,258.84137931034485" stroke="red" stroke-width="1" fill="none" />
<path d="M604.1103448275862,258.84137931034485 L604.1103448275862,271.17241379310343" stroke="red" stroke-width="1" fill="none" />
<path d="M604.1103448275862,271.17241379310343 L604.1103448275862,291.7241379310345" stroke="red" stroke-width="1" fill="none" />
<path d="M604.1103448275862,291.7241379310345 L604.1103448275862,304.0551724137931" stroke="red" stroke-width="1" fill="none" />
<path d="M604.1103448275862,304.0551724137931 L604.1103448275862,328.71724137931034" stroke="red" stroke-width="1" fill="none" />
<path d="M604.1103448275862,328.71724137931034 L604.1103448275862,332.82758620689657" stroke="red" stroke-width="1" fill="none" />
<path d="M439.696551724138,230.0689655172414 L439.696551724138,184.85517241379313" stroke="red" stroke-width="1" fill="none" />
<path d="M636.993103448276,373.9310344827586 L636.993103448276,415.0344827586207" stroke="red" stroke-width="1" fill="none" />
<path d="M636.993103448276,530.1241379310345 L636.993103448276,563.0068965517241" stroke="red" stroke-width="1" fill="none" />
<path d="M727.4206896551725,521.903448275862 L645.2137931034483,521.903448275862" stroke="red" stroke-width="1" fill="none" />
<path d="M645.2137931034483,423.2551724137931 L727.4206896551725,423.2551724137931" stroke="red" stroke-width="1" fill="none" />
<path d="M801.4068965517242,349.2689655172414 L801.4068965517242,505.46206896551723" stroke="red" stroke-width="1" fill="none" />
<path d="M308.16551724137935,373.9310344827586 L209.5172413793104,373.9310344827586" stroke="red" stroke-width="1" fill="none" />
<path d="M209.5172413793104,209.51724137931035 L406.81379310344835,209.51724137931035" stroke="red" stroke-width="1" fill="none" />
<path d="M209.5172413793104,242.39999999999998 L209.5172413793104,209.51724137931035" stroke="red" stroke-width="1" fill="none" />
<path d="M209.5172413793104,373.9310344827586 L209.5172413793104,341.048275862069" stroke="red" stroke-width="1" fill="none" />
<path d="M209.5172413793104,341.048275862069 L193.0758620689656,341.048275862069" stroke="red" stroke-width="1" fill="none" />
<path d="M193.0758620689656,242.39999999999998 L209.5172413793104,242.39999999999998" stroke="red" stroke-width="1" fill="none" />
<path d="M193.0758620689656,341.048275862069 L176.63448275862072,341.048275862069" stroke="red" stroke-width="1" fill="none" />
<path d="M176.63448275862072,242.39999999999998 L193.0758620689656,242.39999999999998" stroke="red" stroke-width="1" fill="none" />
<path d="M176.63448275862072,341.048275862069 L160.1931034482759,341.048275862069" stroke="red" stroke-width="1" fill="none" />
<path d="M160.1931034482759,242.39999999999998 L176.63448275862072,242.39999999999998" stroke="red" stroke-width="1" fill="none" />
<path d="M160.1931034482759,341.048275862069 L143.7517241379311,341.048275862069" stroke="red" stroke-width="1" fill="none" />
<path d="M143.7517241379311,242.39999999999998 L160.1931034482759,242.39999999999998" stroke="red" stroke-width="1" fill="none" />
<path d="M143.7517241379311,341.048275862069 L127.31034482758628,341.048275862069" stroke="red" stroke-width="1" fill="none" />
<path d="M127.31034482758628,242.39999999999998 L143.7517241379311,242.39999999999998" stroke="red" stroke-width="1" fill="none" />
<path d="M127.31034482758628,341.048275862069 L110.86896551724146,341.048275862069" stroke="red" stroke-width="1" fill="none" />
<path d="M110.86896551724146,242.39999999999998 L127.31034482758628,242.39999999999998" stroke="red" stroke-width="1" fill="none" />
<path d="M415.03448275862075,275.28275862068966 L415.03448275862075,308.16551724137935" stroke="lavender" stroke-width="1" fill="none" />
<path d="M406.81379310344835,308.16551724137935 L382.15172413793107,332.82758620689657" stroke="red" stroke-width="1" fill="none" />
<path d="M406.81379310344835,209.51724137931035 L406.81379310344835,242.39999999999998" stroke="red" stroke-width="1" fill="none" />
<path d="M406.81379310344835,242.39999999999998 L406.81379310344835,275.28275862068966" stroke="red" stroke-width="1" fill="none" />
<path d="M110.86896551724146,341.048275862069 L77.98620689655178,341.048275862069" stroke="red" stroke-width="1" fill="none" />
<path d="M77.98620689655178,341.048275862069 L12.220689655172464,308.16551724137935" stroke="red" stroke-width="1" fill="none" />
<path d="M110.86896551724146,110.86896551724135 L110.86896551724146,242.39999999999998" stroke="red" stroke-width="1" fill="none" />
<path d="M12.220689655172464,45.10344827586209 L77.98620689655178,12.220689655172464" stroke="red" stroke-width="1" fill="none" />
<path d="M242.4000000000001,110.86896551724135 L110.86896551724146,110.86896551724135" stroke="red" stroke-width="1" fill="none" />
<path d="M77.98620689655178,12.220689655172464 L242.4000000000001,12.220689655172464" stroke="red" stroke-width="1" fill="none" />
<path d="M341.04827586206903,176.63448275862072 L341.04827586206903,110.86896551724135" stroke="red" stroke-width="1" fill="none" />
<path d="M258.8413793103449,110.86896551724135 L242.4000000000001,110.86896551724135" stroke="red" stroke-width="1" fill="none" />
<path d="M242.4000000000001,12.220689655172464 L258.8413793103449,12.220689655172464" stroke="red" stroke-width="1" fill="none" />
<path d="M341.04827586206903,110.86896551724135 L258.8413793103449,110.86896551724135" stroke="red" stroke-width="1" fill="none" />
<path d="M538.344827586207,135.53103448275863 L538.344827586207,143.75172413793103" stroke="red" stroke-width="1" fill="none" />
<path d="M538.344827586207,143.75172413793103 L636.993103448276,143.75172413793103" stroke="red" stroke-width="1" fill="none" />
<path d="M505.46206896551735,143.75172413793103 L505.46206896551735,135.53103448275863" stroke="red" stroke-width="1" fill="none" />
<path d="M406.81379310344835,127.31034482758622 L406.81379310344835,143.75172413793103" stroke="red" stroke-width="1" fill="none" />
<path d="M406.81379310344835,143.75172413793103 L505.46206896551735,143.75172413793103" stroke="red" stroke-width="1" fill="none" />
<path d="M636.993103448276,127.31034482758622 L550.6758620689656,127.31034482758622" stroke="red" stroke-width="1" fill="none" />
<path d="M493.1310344827587,127.31034482758622 L406.81379310344835,127.31034482758622" stroke="red" stroke-width="1" fill="none" />
<path d="M550.6758620689656,127.31034482758622 L550.6758620689656,45.10344827586209" stroke="red" stroke-width="1" fill="none" />
<path d="M493.1310344827587,45.10344827586209 L493.1310344827587,127.31034482758622" stroke="red" stroke-width="1" fill="none" />
<path d="M550.6758620689656,45.10344827586209 L493.1310344827587,45.10344827586209" stroke="red" stroke-width="1" fill="none" />
<path d="M505.46206896551735,57.434482758620675 L538.344827586207,57.434482758620675" stroke="red" stroke-width="1" fill="none" />
<path d="M538.344827586207,57.434482758620675 L538.344827586207,77.98620689655172" stroke="red" stroke-width="1" fill="none" />
<path d="M538.344827586207,77.98620689655172 L538.344827586207,110.86896551724135" stroke="red" stroke-width="1" fill="none" />
<path d="M538.344827586207,119.08965517241381 L538.344827586207,127.31034482758622" stroke="red" stroke-width="1" fill="none" />
<path d="M505.46206896551735,127.31034482758622 L505.46206896551735,119.08965517241381" stroke="red" stroke-width="1" fill="none" />
<path d="M505.46206896551735,110.86896551724135 L505.46206896551735,77.98620689655172" stroke="red" stroke-width="1" fill="none" />
<path d="M505.46206896551735,77.98620689655172 L505.46206896551735,57.434482758620675" stroke="red" stroke-width="1" fill="none" />
<path d="M538.344827586207,127.31034482758622 L538.344827586207,135.53103448275863" stroke="red" stroke-width="1" fill="none" />
<path d="M505.46206896551735,135.53103448275863 L505.46206896551735,127.31034482758622" stroke="red" stroke-width="1" fill="none" />
<path d="M735.641379310345,423.2551724137931 L735.641379310345,349.2689655172414" stroke="red" stroke-width="1" fill="none" />
<path d="M735.641379310345,349.2689655172414 L801.4068965517242,349.2689655172414" stroke="red" stroke-width="1" fill="none" />
<path d="M801.4068965517242,505.46206896551723 L735.641379310345,521.903448275862" stroke="red" stroke-width="1" fill="none" />
<path d="M604.1103448275862,341.048275862069 L612.3310344827587,332.82758620689657" stroke="red" stroke-width="1" fill="none" />
<path d="M612.3310344827587,332.82758620689657 L612.3310344827587,275.28275862068966" stroke="red" stroke-width="1" fill="none" />
<path d="M702.7586206896552,373.9310344827586 L636.993103448276,373.9310344827586" stroke="red" stroke-width="1" fill="none" />
<path d="M735.641379310345,341.048275862069 L702.7586206896552,373.9310344827586" stroke="red" stroke-width="1" fill="none" />
<path d="M768.5241379310346,135.53103448275863 L801.4068965517242,135.53103448275863" stroke="lavender" stroke-width="1" fill="none" />
<path d="M612.3310344827587,275.28275862068966 L636.993103448276,242.39999999999998" stroke="red" stroke-width="1" fill="none" />
<path d="M636.993103448276,209.51724137931035 L710.9793103448277,209.51724137931035" stroke="red" stroke-width="1" fill="none" />
<path d="M710.9793103448277,209.51724137931035 L710.9793103448277,143.75172413793103" stroke="red" stroke-width="1" fill="none" />
<path d="M801.4068965517242,201.29655172413794 L801.4068965517242,209.51724137931035" stroke="red" stroke-width="1" fill="none" />
<path d="M801.4068965517242,193.07586206896553 L801.4068965517242,201.29655172413794" stroke="red" stroke-width="1" fill="none" />
<path d="M768.5241379310346,201.29655172413794 L768.5241379310346,193.07586206896553" stroke="red" stroke-width="1" fill="none" />
<path d="M768.5241379310346,209.51724137931035 L768.5241379310346,201.29655172413794" stroke="red" stroke-width="1" fill="none" />
<path d="M747.9724137931036,209.51724137931035 L768.5241379310346,209.51724137931035" stroke="red" stroke-width="1" fill="none" />
<path d="M747.9724137931036,184.85517241379313 L747.9724137931036,209.51724137931035" stroke="red" stroke-width="1" fill="none" />
<path d="M768.5241379310346,184.85517241379313 L747.9724137931036,184.85517241379313" stroke="red" stroke-width="1" fill="none" />
<path d="M768.5241379310346,193.07586206896553 L768.5241379310346,184.85517241379313" stroke="red" stroke-width="1" fill="none" />
<path d="M801.4068965517242,143.75172413793103 L801.4068965517242,184.85517241379313" stroke="red" stroke-width="1" fill="none" />
<path d="M801.4068965517242,184.85517241379313 L801.4068965517242,193.07586206896553" stroke="red" stroke-width="1" fill="none" />
<path d="M710.9793103448277,143.75172413793103 L747.9724137931036,143.75172413793103" stroke="red" stroke-width="1" fill="none" />
<path d="M747.9724137931036,143.75172413793103 L768.5241379310346,143.75172413793103" stroke="red" stroke-width="1" fill="none" />
<path d="M801.4068965517242,209.51724137931035 L834.2896551724139,209.51724137931035" stroke="red" stroke-width="1" fill="none" />
<path d="M834.2896551724139,341.048275862069 L735.641379310345,341.048275862069" stroke="red" stroke-width="1" fill="none" />
<path d="M1101.4620689655173,373.9310344827586 L1101.4620689655173,382.15172413793107" stroke="red" stroke-width="1" fill="none" />
<path d="M998.7034482758622,382.15172413793107 L998.7034482758622,373.9310344827586" stroke="red" stroke-width="1" fill="none" />
<path d="M998.7034482758622,439.696551724138 L998.7034482758622,382.15172413793107" stroke="red" stroke-width="1" fill="none" />
<path d="M1101.4620689655173,382.15172413793107 L1101.4620689655173,439.696551724138" stroke="red" stroke-width="1" fill="none" />
<path d="M900.0551724137932,242.39999999999998 L900.0551724137932,250.62068965517244" stroke="red" stroke-width="1" fill="none" />
<path d="M900.0551724137932,308.16551724137935 L1068.5793103448277,308.16551724137935" stroke="red" stroke-width="1" fill="none" />
<path d="M900.0551724137932,299.9448275862069 L900.0551724137932,308.16551724137935" stroke="red" stroke-width="1" fill="none" />
<path d="M1064.4689655172415,299.9448275862069 L900.0551724137932,299.9448275862069" stroke="red" stroke-width="1" fill="none" />
<path d="M1068.5793103448277,308.16551724137935 L1068.5793103448277,250.62068965517244" stroke="red" stroke-width="1" fill="none" />
<path d="M1101.4620689655173,250.62068965517244 L1101.4620689655173,373.9310344827586" stroke="red" stroke-width="1" fill="none" />
<path d="M1097.3517241379311,242.39999999999998 L1101.4620689655173,250.62068965517244" stroke="red" stroke-width="1" fill="none" />
<path d="M1068.5793103448277,250.62068965517244 L1101.4620689655173,250.62068965517244" stroke="lavender" stroke-width="1" fill="none" />
<path d="M1064.4689655172415,250.62068965517244 L1064.4689655172415,258.84137931034485" stroke="red" stroke-width="1" fill="none" />
<path d="M1064.4689655172415,258.84137931034485 L1064.4689655172415,271.17241379310343" stroke="red" stroke-width="1" fill="none" />
<path d="M1064.4689655172415,271.17241379310343 L1064.4689655172415,279.3931034482759" stroke="red" stroke-width="1" fill="none" />
<path d="M1064.4689655172415,279.3931034482759 L1064.4689655172415,291.7241379310345" stroke="red" stroke-width="1" fill="none" />
<path d="M1064.4689655172415,291.7241379310345 L1064.4689655172415,299.9448275862069" stroke="red" stroke-width="1" fill="none" />
<path d="M834.2896551724139,209.51724137931035 L834.2896551724139,176.63448275862072" stroke="red" stroke-width="1" fill="none" />
<path d="M538.344827586207,110.86896551724135 L538.344827586207,119.08965517241381" stroke="red" stroke-width="1" fill="none" />
<path d="M505.46206896551735,119.08965517241381 L505.46206896551735,110.86896551724135" stroke="red" stroke-width="1" fill="none" />
<path d="M834.2896551724139,373.9310344827586 L834.2896551724139,341.048275862069" stroke="red" stroke-width="1" fill="none" />
<path d="M998.7034482758622,373.9310344827586 L834.2896551724139,373.9310344827586" stroke="red" stroke-width="1" fill="none" />
<path d="M1101.4620689655173,439.696551724138 L998.7034482758622,439.696551724138" stroke="red" stroke-width="1" fill="none" />
<path d="M595.8896551724139,669.8758620689655 L604.1103448275862,669.8758620689655" stroke="red" stroke-width="1" fill="none" />
<path d="M604.1103448275862,735.6413793103449 L595.8896551724139,735.6413793103449" stroke="red" stroke-width="1" fill="none" />
<path d="M604.1103448275862,669.8758620689655 L604.1103448275862,661.6551724137931" stroke="red" stroke-width="1" fill="none" />
<path d="M604.1103448275862,743.8620689655172 L604.1103448275862,735.6413793103449" stroke="red" stroke-width="1" fill="none" />
<path d="M505.46206896551735,669.8758620689655 L587.6689655172414,669.8758620689655" stroke="red" stroke-width="1" fill="none" />
<path d="M587.6689655172414,669.8758620689655 L595.8896551724139,669.8758620689655" stroke="red" stroke-width="1" fill="none" />
<path d="M595.8896551724139,735.6413793103449 L587.6689655172414,735.6413793103449" stroke="red" stroke-width="1" fill="none" />
<path d="M900.0551724137932,250.62068965517244 L998.7034482758622,250.62068965517244" stroke="red" stroke-width="1" fill="none" />
<path d="M1031.5862068965519,250.62068965517244 L1064.4689655172415,250.62068965517244" stroke="red" stroke-width="1" fill="none" />
<path d="M998.7034482758622,242.39999999999998 L900.0551724137932,242.39999999999998" stroke="red" stroke-width="1" fill="none" />
<path d="M998.7034482758622,250.62068965517244 L998.7034482758622,242.39999999999998" stroke="red" stroke-width="1" fill="none" />
<path d="M1031.5862068965519,242.39999999999998 L1031.5862068965519,250.62068965517244" stroke="red" stroke-width="1" fill="none" />
<path d="M1196.0,176.63448275862072 L1196.0,242.39999999999998" stroke="red" stroke-width="1" fill="none" />
<path d="M1097.3517241379311,176.63448275862072 L1105.5724137931036,176.63448275862072" stroke="red" stroke-width="1" fill="none" />
<path d="M1105.5724137931036,242.39999999999998 L1097.3517241379311,242.39999999999998" stroke="red" stroke-width="1" fill="none" />
<path d="M965.8206896551725,168.41379310344826 L998.7034482758622,168.41379310344826" stroke="lavender" stroke-width="1" fill="none" />
<path d="M998.7034482758622,168.41379310344826 L998.7034482758622,176.63448275862072" stroke="red" stroke-width="1" fill="none" />
<path d="M965.8206896551725,176.63448275862072 L965.8206896551725,168.41379310344826" stroke="red" stroke-width="1" fill="none" />
<path d="M1130.2344827586207,242.39999999999998 L1105.5724137931036,242.39999999999998" stroke="red" stroke-width="1" fill="none" />
<path d="M1196.0,242.39999999999998 L1163.1172413793106,242.39999999999998" stroke="red" stroke-width="1" fill="none" />
<path d="M1163.1172413793106,250.62068965517244 L1130.2344827586207,250.62068965517244" stroke="lavender" stroke-width="1" fill="none" />
<path d="M1130.2344827586207,250.62068965517244 L1130.2344827586207,242.39999999999998" stroke="red" stroke-width="1" fill="none" />
<path d="M1163.1172413793106,242.39999999999998 L1163.1172413793106,250.62068965517244" stroke="red" stroke-width="1" fill="none" />
<path d="M945.2689655172414,176.63448275862072 L965.8206896551725,176.63448275862072" stroke="red" stroke-width="1" fill="none" />
<path d="M834.2896551724139,110.86896551724135 L945.2689655172414,110.86896551724135" stroke="red" stroke-width="1" fill="none" />
<path d="M1105.5724137931036,176.63448275862072 L1130.2344827586207,176.63448275862072" stroke="red" stroke-width="1" fill="none" />
<path d="M1163.1172413793106,176.63448275862072 L1196.0,176.63448275862072" stroke="red" stroke-width="1" fill="none" />
<path d="M1130.2344827586207,168.41379310344826 L1163.1172413793106,168.41379310344826" stroke="lavender" stroke-width="1" fill="none" />
<path d="M1130.2344827586207,176.63448275862072 L1130.2344827586207,168.41379310344826" stroke="red" stroke-width="1" fill="none" />
<path d="M1163.1172413793106,168.41379310344826 L1163.1172413793106,176.63448275862072" stroke="red" stroke-width="1" fill="none" />
<path d="M900.0551724137932,176.63448275862072 L900.0551724137932,143.75172413793103" stroke="red" stroke-width="1" fill="none" />
<path d="M900.0551724137932,143.75172413793103 L867.1724137931035,143.75172413793103" stroke="red" stroke-width="1" fill="none" />
<path d="M867.1724137931035,176.63448275862072 L900.0551724137932,176.63448275862072" stroke="red" stroke-width="1" fill="none" />
<path d="M834.2896551724139,176.63448275862072 L834.2896551724139,168.41379310344826" stroke="red" stroke-width="1" fill="none" />
<path d="M867.1724137931035,168.41379310344826 L867.1724137931035,176.63448275862072" stroke="red" stroke-width="1" fill="none" />
<path d="M867.1724137931035,143.75172413793103 L867.1724137931035,168.41379310344826" stroke="red" stroke-width="1" fill="none" />
<path d="M834.2896551724139,168.41379310344826 L834.2896551724139,110.86896551724135" stroke="red" stroke-width="1" fill="none" />
<path d="M538.344827586207,604.1103448275862 L505.46206896551735,604.1103448275862" stroke="red" stroke-width="1" fill="none" />
<path d="M595.8896551724139,604.1103448275862 L538.344827586207,604.1103448275862" stroke="red" stroke-width="1" fill="none" />
<path d="M587.6689655172414,735.6413793103449 L472.57931034482766,735.6413793103449" stroke="red" stroke-width="1" fill="none" />
<path d="M439.696551724138,756.1931034482759 L439.696551724138,747.9724137931034" stroke="red" stroke-width="1" fill="none" />
<path d="M472.57931034482766,747.9724137931034 L472.57931034482766,756.1931034482759" stroke="red" stroke-width="1" fill="none" />
<path d="M472.57931034482766,768.5241379310345 L505.46206896551735,768.5241379310345" stroke="red" stroke-width="1" fill="none" />
<path d="M406.81379310344835,768.5241379310345 L439.696551724138,768.5241379310345" stroke="red" stroke-width="1" fill="none" />
<path d="M998.7034482758622,176.63448275862072 L1064.4689655172415,176.63448275862072" stroke="red" stroke-width="1" fill="none" />
<path d="M1064.4689655172415,242.39999999999998 L1031.5862068965519,242.39999999999998" stroke="red" stroke-width="1" fill="none" />
<path d="M1097.3517241379311,242.39999999999998 L1064.4689655172415,242.39999999999998" stroke="red" stroke-width="1" fill="none" />
<path d="M1064.4689655172415,176.63448275862072 L1097.3517241379311,176.63448275862072" stroke="red" stroke-width="1" fill="none" />
<path d="M143.7517241379311,636.9931034482759 L143.7517241379311,538.344827586207" stroke="red" stroke-width="1" fill="none" />
<path d="M135.53103448275868,636.9931034482759 L143.7517241379311,636.9931034482759" stroke="red" stroke-width="1" fill="none" />
<path d="M135.53103448275868,669.8758620689655 L135.53103448275868,636.9931034482759" stroke="red" stroke-width="1" fill="none" />
<path d="M143.7517241379311,669.8758620689655 L135.53103448275868,669.8758620689655" stroke="red" stroke-width="1" fill="none" />
<path d="M308.16551724137935,538.344827586207 L341.04827586206903,571.2275862068966" stroke="red" stroke-width="1" fill="none" />
<path d="M143.7517241379311,702.7586206896552 L143.7517241379311,669.8758620689655" stroke="red" stroke-width="1" fill="none" />
<path d="M176.63448275862072,530.1241379310345 L176.63448275862072,538.344827586207" stroke="red" stroke-width="1" fill="none" />
<path d="M143.7517241379311,538.344827586207 L143.7517241379311,530.1241379310345" stroke="red" stroke-width="1" fill="none" />
<path d="M209.5172413793104,447.9172413793103 L209.5172413793104,505.46206896551723" stroke="red" stroke-width="1" fill="none" />
<path d="M110.86896551724146,447.9172413793103 L209.5172413793104,447.9172413793103" stroke="red" stroke-width="1" fill="none" />
<path d="M110.86896551724146,505.46206896551723 L110.86896551724146,447.9172413793103" stroke="red" stroke-width="1" fill="none" />
<path d="M176.63448275862072,521.903448275862 L176.63448275862072,530.1241379310345" stroke="red" stroke-width="1" fill="none" />
<path d="M143.7517241379311,530.1241379310345 L143.7517241379311,521.903448275862" stroke="red" stroke-width="1" fill="none" />
<path d="M209.5172413793104,505.46206896551723 L176.63448275862072,521.903448275862" stroke="red" stroke-width="1" fill="none" />
<path d="M143.7517241379311,521.903448275862 L110.86896551724146,505.46206896551723" stroke="red" stroke-width="1" fill="none" />
<path d="M945.2689655172414,143.75172413793103 L945.2689655172414,176.63448275862072" stroke="red" stroke-width="1" fill="none" />
<path d="M945.2689655172414,110.86896551724135 L953.4896551724139,110.86896551724135" stroke="red" stroke-width="1" fill="none" />
<path d="M998.7034482758622,110.86896551724135 L998.7034482758622,143.75172413793103" stroke="red" stroke-width="1" fill="none" />
<path d="M953.4896551724139,143.75172413793103 L945.2689655172414,143.75172413793103" stroke="red" stroke-width="1" fill="none" />
<path d="M953.4896551724139,110.86896551724135 L965.8206896551725,110.86896551724135" stroke="red" stroke-width="1" fill="none" />
<path d="M965.8206896551725,110.86896551724135 L998.7034482758622,110.86896551724135" stroke="red" stroke-width="1" fill="none" />
<path d="M998.7034482758622,143.75172413793103 L965.8206896551725,143.75172413793103" stroke="red" stroke-width="1" fill="none" />
<path d="M965.8206896551725,143.75172413793103 L953.4896551724139,143.75172413793103" stroke="red" stroke-width="1" fill="none" />
<path d="M472.57931034482766,735.6413793103449 L472.57931034482766,747.9724137931034" stroke="red" stroke-width="1" fill="none" />
<path d="M439.696551724138,747.9724137931034 L439.696551724138,735.6413793103449" stroke="red" stroke-width="1" fill="none" />
<path d="M472.57931034482766,756.1931034482759 L472.57931034482766,768.5241379310345" stroke="red" stroke-width="1" fill="none" />
<path d="M439.696551724138,768.5241379310345 L439.696551724138,756.1931034482759" stroke="red" stroke-width="1" fill="none" />
<path d="M415.03448275862075,965.8206896551725 L406.81379310344835,965.8206896551725" stroke="red" stroke-width="1" fill="none" />
<path d="M505.46206896551735,965.8206896551725 L497.2413793103449,965.8206896551725" stroke="red" stroke-width="1" fill="none" />
<path d="M497.2413793103449,965.8206896551725 L489.0206896551725,965.8206896551725" stroke="red" stroke-width="1" fill="none" />
<path d="M489.0206896551725,965.8206896551725 L480.80000000000007,965.8206896551725" stroke="red" stroke-width="1" fill="none" />
<path d="M480.80000000000007,965.8206896551725 L472.57931034482766,965.8206896551725" stroke="red" stroke-width="1" fill="none" />
<path d="M472.57931034482766,965.8206896551725 L464.35862068965525,965.8206896551725" stroke="red" stroke-width="1" fill="none" />
<path d="M447.91724137931044,965.8206896551725 L439.696551724138,965.8206896551725" stroke="red" stroke-width="1" fill="none" />
<path d="M439.696551724138,965.8206896551725 L431.4758620689656,965.8206896551725" stroke="red" stroke-width="1" fill="none" />
<path d="M431.4758620689656,965.8206896551725 L423.25517241379316,965.8206896551725" stroke="red" stroke-width="1" fill="none" />
<path d="M423.25517241379316,965.8206896551725 L415.03448275862075,965.8206896551725" stroke="red" stroke-width="1" fill="none" />
<path d="M406.81379310344835,780.8551724137931 L406.81379310344835,768.5241379310345" stroke="red" stroke-width="1" fill="none" />
<path d="M406.81379310344835,965.8206896551725 L406.81379310344835,780.8551724137931" stroke="red" stroke-width="1" fill="none" />
<path d="M505.46206896551735,768.5241379310345 L505.46206896551735,780.8551724137931" stroke="red" stroke-width="1" fill="none" />
<path d="M505.46206896551735,780.8551724137931 L505.46206896551735,965.8206896551725" stroke="red" stroke-width="1" fill="none" />
<path d="M464.35862068965525,965.8206896551725 L464.35862068965525,974.0413793103448" stroke="red" stroke-width="1" fill="none" />
<path d="M464.35862068965525,974.0413793103448 L447.91724137931044,974.0413793103448" stroke="lavender" stroke-width="1" fill="none" />
<path d="M447.91724137931044,974.0413793103448 L447.91724137931044,965.8206896551725" stroke="red" stroke-width="1" fill="none" />
<path d="M653.4344827586208,571.2275862068966 L669.8758620689656,538.344827586207" stroke="red" stroke-width="1" fill="none" />
<path d="M645.2137931034483,571.2275862068966 L653.4344827586208,571.2275862068966" stroke="red" stroke-width="1" fill="none" />
<path d="M431.4758620689656,176.63448275862072 L341.04827586206903,176.63448275862072" stroke="red" stroke-width="1" fill="none" />
<path d="M439.696551724138,176.63448275862072 L431.4758620689656,176.63448275862072" stroke="red" stroke-width="1" fill="none" />
<path d="M439.696551724138,184.85517241379313 L439.696551724138,176.63448275862072" stroke="red" stroke-width="1" fill="none" />
<path d="M702.7586206896552,176.63448275862072 L612.3310344827587,176.63448275862072" stroke="red" stroke-width="1" fill="none" />
<path d="M612.3310344827587,176.63448275862072 L604.1103448275862,176.63448275862072" stroke="red" stroke-width="1" fill="none" />
<path d="M604.1103448275862,176.63448275862072 L604.1103448275862,184.85517241379313" stroke="red" stroke-width="1" fill="none" />
<path d="M12.220689655172464,275.28275862068966 L12.220689655172464,209.51724137931035" stroke="red" stroke-width="1" fill="none" />
<path d="M12.220689655172464,209.51724137931035 L12.220689655172464,110.86896551724135" stroke="red" stroke-width="1" fill="none" />
<path d="M12.220689655172464,110.86896551724135 L12.220689655172464,77.98620689655172" stroke="red" stroke-width="1" fill="none" />
<path d="M4.0,275.28275862068966 L12.220689655172464,275.28275862068966" stroke="red" stroke-width="1" fill="none" />
<path d="M4.0,308.16551724137935 L4.0,275.28275862068966" stroke="red" stroke-width="1" fill="none" />
<path d="M12.220689655172464,308.16551724137935 L4.0,308.16551724137935" stroke="red" stroke-width="1" fill="none" />
<path d="M328.7172413793104,373.9310344827586 L308.16551724137935,373.9310344827586" stroke="red" stroke-width="1" fill="none" />
<path d="M341.04827586206903,373.9310344827586 L328.7172413793104,373.9310344827586" stroke="red" stroke-width="1" fill="none" />
<path d="M341.04827586206903,415.0344827586207 L341.04827586206903,386.26206896551724" stroke="red" stroke-width="1" fill="none" />
<path d="M341.04827586206903,386.26206896551724 L341.04827586206903,373.9310344827586" stroke="red" stroke-width="1" fill="none" />
<path d="M373.9310344827587,341.048275862069 L386.2620689655173,341.048275862069" stroke="red" stroke-width="1" fill="none" />
<path d="M382.15172413793107,332.82758620689657 L373.9310344827587,332.82758620689657" stroke="red" stroke-width="1" fill="none" />
<path d="M4.0,45.10344827586209 L12.220689655172464,45.10344827586209" stroke="red" stroke-width="1" fill="none" />
<path d="M12.220689655172464,77.98620689655172 L4.0,77.98620689655172" stroke="red" stroke-width="1" fill="none" />
<path d="M4.0,77.98620689655172 L4.0,45.10344827586209" stroke="red" stroke-width="1" fill="none" />
<path d="M406.81379310344835,275.28275862068966 L415.03448275862075,275.28275862068966" stroke="red" stroke-width="1" fill="none" />
<path d="M415.03448275862075,308.16551724137935 L406.81379310344835,308.16551724137935" stroke="red" stroke-width="1" fill="none" />
<path d="M373.9310344827587,332.82758620689657 L373.9310344827587,341.048275862069" stroke="red" stroke-width="1" fill="none" />
<path d="M258.8413793103449,12.220689655172464 L406.81379310344835,12.220689655172464" stroke="red" stroke-width="1" fill="none" />
<path d="M406.81379310344835,4.0 L439.696551724138,4.0" stroke="red" stroke-width="1" fill="none" />
<path d="M439.696551724138,12.220689655172464 L604.1103448275862,12.220689655172464" stroke="red" stroke-width="1" fill="none" />
<path d="M604.1103448275862,4.0 L636.993103448276,4.0" stroke="red" stroke-width="1" fill="none" />
<path d="M636.993103448276,12.220689655172464 L702.7586206896552,12.220689655172464" stroke="red" stroke-width="1" fill="none" />
<path d="M439.696551724138,4.0 L439.696551724138,12.220689655172464" stroke="red" stroke-width="1" fill="none" />
<path d="M406.81379310344835,12.220689655172464 L406.81379310344835,4.0" stroke="red" stroke-width="1" fill="none" />
<path d="M636.993103448276,4.0 L636.993103448276,12.220689655172464" stroke="red" stroke-width="1" fill="none" />
<path d="M604.1103448275862,12.220689655172464 L604.1103448275862,4.0" stroke="red" stroke-width="1" fill="none" />
<path d="M341.04827586206903,423.2551724137931 L341.04827586206903,415.0344827586207" stroke="red" stroke-width="1" fill="none" />
<path d="M332.8275862068966,427.36551724137934 L341.04827586206903,423.2551724137931" stroke="red" stroke-width="1" fill="none" />
<path d="M341.04827586206903,521.903448275862 L332.8275862068966,517.7931034482759" stroke="red" stroke-width="1" fill="none" />
<path d="M341.04827586206903,530.1241379310345 L341.04827586206903,521.903448275862" stroke="red" stroke-width="1" fill="none" />
<path d="M645.2137931034483,521.903448275862 L636.993103448276,521.903448275862" stroke="red" stroke-width="1" fill="none" />
<path d="M636.993103448276,521.903448275862 L636.993103448276,530.1241379310345" stroke="red" stroke-width="1" fill="none" />
<path d="M636.993103448276,415.0344827586207 L636.993103448276,423.2551724137931" stroke="red" stroke-width="1" fill="none" />
<path d="M636.993103448276,423.2551724137931 L645.2137931034483,423.2551724137931" stroke="red" stroke-width="1" fill="none" />
<path d="M604.1103448275862,612.3310344827587 L604.1103448275862,604.1103448275862" stroke="red" stroke-width="1" fill="none" />
<path d="M604.1103448275862,604.1103448275862 L595.8896551724139,604.1103448275862" stroke="red" stroke-width="1" fill="none" />
<path d="M636.993103448276,563.0068965517241 L636.993103448276,571.2275862068966" stroke="red" stroke-width="1" fill="none" />
<path d="M636.993103448276,571.2275862068966 L645.2137931034483,571.2275862068966" stroke="red" stroke-width="1" fill="none" />
<path d="M275.2827586206897,439.696551724138 L283.5034482758621,435.58620689655174" stroke="red" stroke-width="1" fill="none" />
<path d="M283.5034482758621,509.57241379310346 L275.2827586206897,505.46206896551723" stroke="red" stroke-width="1" fill="none" />
<path d="M431.4758620689656,341.048275862069 L439.696551724138,341.048275862069" stroke="red" stroke-width="1" fill="none" />
<path d="M439.696551724138,341.048275862069 L439.696551724138,332.82758620689657" stroke="red" stroke-width="1" fill="none" />
<path d="M604.1103448275862,332.82758620689657 L604.1103448275862,341.048275862069" stroke="red" stroke-width="1" fill="none" />
<path d="M727.4206896551725,423.2551724137931 L735.641379310345,423.2551724137931" stroke="red" stroke-width="1" fill="none" />
<path d="M735.641379310345,521.903448275862 L727.4206896551725,521.903448275862" stroke="red" stroke-width="1" fill="none" />
<path d="M180.74482758620695,719.2 L180.74482758620695,702.7586206896552" stroke="red" stroke-width="1" fill="none" />
<path d="M201.296551724138,702.7586206896552 L201.296551724138,719.2" stroke="red" stroke-width="1" fill="none" />
<path d="M373.9310344827587,702.7586206896552 L336.93793103448286,702.7586206896552" stroke="red" stroke-width="1" fill="none" />
<path d="M217.7379310344828,719.2 L217.7379310344828,702.7586206896552" stroke="red" stroke-width="1" fill="none" />
<path d="M234.17931034482763,702.7586206896552 L234.17931034482763,719.2" stroke="red" stroke-width="1" fill="none" />
<path d="M336.93793103448286,702.7586206896552 L336.93793103448286,719.2" stroke="red" stroke-width="1" fill="none" />
<path d="M283.5034482758621,719.2 L283.5034482758621,702.7586206896552" stroke="red" stroke-width="1" fill="none" />
<path d="M267.0620689655173,702.7586206896552 L267.0620689655173,719.2" stroke="red" stroke-width="1" fill="none" />
<path d="M250.6206896551725,719.2 L250.6206896551725,702.7586206896552" stroke="red" stroke-width="1" fill="none" />
<path d="M176.63448275862072,538.344827586207 L180.74482758620695,538.344827586207" stroke="red" stroke-width="1" fill="none" />
<path d="M205.40689655172417,538.344827586207 L213.62758620689664,538.344827586207" stroke="red" stroke-width="1" fill="none" />
<path d="M238.28965517241386,538.344827586207 L246.51034482758627,538.344827586207" stroke="red" stroke-width="1" fill="none" />
<path d="M271.1724137931035,538.344827586207 L308.16551724137935,538.344827586207" stroke="red" stroke-width="1" fill="none" />
<path d="M180.74482758620695,538.344827586207 L180.74482758620695,521.903448275862" stroke="red" stroke-width="1" fill="none" />
<path d="M180.74482758620695,521.903448275862 L205.40689655172417,521.903448275862" stroke="red" stroke-width="1" fill="none" />
<path d="M205.40689655172417,521.903448275862 L205.40689655172417,538.344827586207" stroke="red" stroke-width="1" fill="none" />
<path d="M213.62758620689664,538.344827586207 L213.62758620689664,521.903448275862" stroke="red" stroke-width="1" fill="none" />
<path d="M213.62758620689664,521.903448275862 L238.28965517241386,521.903448275862" stroke="red" stroke-width="1" fill="none" />
<path d="M238.28965517241386,521.903448275862 L238.28965517241386,538.344827586207" stroke="red" stroke-width="1" fill="none" />
<path d="M246.51034482758627,538.344827586207 L246.51034482758627,521.903448275862" stroke="red" stroke-width="1" fill="none" />
<path d="M246.51034482758627,521.903448275862 L271.1724137931035,521.903448275862" stroke="red" stroke-width="1" fill="none" />
<path d="M271.1724137931035,521.903448275862 L271.1724137931035,538.344827586207" stroke="red" stroke-width="1" fill="none" />
<path d="M373.9310344827587,698.648275862069 L373.9310344827587,702.7586206896552" stroke="red" stroke-width="1" fill="none" />
<path d="M373.9310344827587,604.1103448275862 L373.9310344827587,608.2206896551725" stroke="red" stroke-width="1" fill="none" />
<path d="M373.9310344827587,632.8827586206896 L373.9310344827587,641.1034482758621" stroke="red" stroke-width="1" fill="none" />
<path d="M373.9310344827587,665.7655172413794 L373.9310344827587,673.9862068965517" stroke="red" stroke-width="1" fill="none" />
<path d="M373.9310344827587,608.2206896551725 L390.37241379310353,608.2206896551725" stroke="red" stroke-width="1" fill="none" />
<path d="M390.37241379310353,608.2206896551725 L390.37241379310353,632.8827586206896" stroke="red" stroke-width="1" fill="none" />
<path d="M390.37241379310353,632.8827586206896 L373.9310344827587,632.8827586206896" stroke="red" stroke-width="1" fill="none" />
<path d="M373.9310344827587,641.1034482758621 L390.37241379310353,641.1034482758621" stroke="red" stroke-width="1" fill="none" />
<path d="M390.37241379310353,641.1034482758621 L390.37241379310353,665.7655172413794" stroke="red" stroke-width="1" fill="none" />
<path d="M390.37241379310353,665.7655172413794 L373.9310344827587,665.7655172413794" stroke="red" stroke-width="1" fill="none" />
<path d="M373.9310344827587,673.9862068965517 L390.37241379310353,673.9862068965517" stroke="red" stroke-width="1" fill="none" />
<path d="M390.37241379310353,673.9862068965517 L390.37241379310353,698.648275862069" stroke="red" stroke-width="1" fill="none" />
<path d="M390.37241379310353,698.648275862069 L373.9310344827587,698.648275862069" stroke="red" stroke-width="1" fill="none" />
<path d="M336.93793103448286,801.4068965517242 L180.74482758620695,801.4068965517242" stroke="red" stroke-width="1" fill="none" />
<path d="M304.0551724137932,702.7586206896552 L299.944827586207,702.7586206896552" stroke="red" stroke-width="1" fill="none" />
<path d="M304.0551724137932,723.3103448275863 L304.0551724137932,702.7586206896552" stroke="red" stroke-width="1" fill="none" />
<path d="M279.39310344827595,702.7586206896552 L279.39310344827595,723.3103448275863" stroke="red" stroke-width="1" fill="none" />
<path d="M283.5034482758621,702.7586206896552 L279.39310344827595,702.7586206896552" stroke="red" stroke-width="1" fill="none" />
<path d="M271.1724137931035,723.3103448275863 L271.1724137931035,702.7586206896552" stroke="red" stroke-width="1" fill="none" />
<path d="M271.1724137931035,702.7586206896552 L267.0620689655173,702.7586206896552" stroke="red" stroke-width="1" fill="none" />
<path d="M250.6206896551725,702.7586206896552 L246.51034482758627,702.7586206896552" stroke="red" stroke-width="1" fill="none" />
<path d="M246.51034482758627,702.7586206896552 L246.51034482758627,723.3103448275863" stroke="red" stroke-width="1" fill="none" />
<path d="M238.28965517241386,723.3103448275863 L238.28965517241386,702.7586206896552" stroke="red" stroke-width="1" fill="none" />
<path d="M238.28965517241386,702.7586206896552 L234.17931034482763,702.7586206896552" stroke="red" stroke-width="1" fill="none" />
<path d="M217.7379310344828,702.7586206896552 L213.62758620689664,702.7586206896552" stroke="red" stroke-width="1" fill="none" />
<path d="M213.62758620689664,702.7586206896552 L213.62758620689664,723.3103448275863" stroke="red" stroke-width="1" fill="none" />
<path d="M205.40689655172417,723.3103448275863 L205.40689655172417,702.7586206896552" stroke="red" stroke-width="1" fill="none" />
<path d="M205.40689655172417,702.7586206896552 L201.296551724138,702.7586206896552" stroke="red" stroke-width="1" fill="none" />
<path d="M316.3862068965518,702.7586206896552 L312.2758620689656,702.7586206896552" stroke="red" stroke-width="1" fill="none" />
<path d="M312.2758620689656,702.7586206896552 L312.2758620689656,723.3103448275863" stroke="red" stroke-width="1" fill="none" />
<path d="M336.93793103448286,768.5241379310345 L336.93793103448286,801.4068965517242" stroke="red" stroke-width="1" fill="none" />
<path d="M373.9310344827587,735.6413793103449 L373.9310344827587,768.5241379310345" stroke="red" stroke-width="1" fill="none" />
<path d="M336.93793103448286,735.6413793103449 L341.04827586206903,735.6413793103449" stroke="red" stroke-width="1" fill="none" />
<path d="M341.04827586206903,735.6413793103449 L373.9310344827587,735.6413793103449" stroke="red" stroke-width="1" fill="none" />
<path d="M373.9310344827587,768.5241379310345 L341.04827586206903,768.5241379310345" stroke="red" stroke-width="1" fill="none" />
<path d="M341.04827586206903,768.5241379310345 L336.93793103448286,768.5241379310345" stroke="red" stroke-width="1" fill="none" />
<path d="M180.74482758620695,723.3103448275863 L205.40689655172417,723.3103448275863" stroke="red" stroke-width="1" fill="none" />
<path d="M180.74482758620695,723.3103448275863 L180.74482758620695,719.2" stroke="red" stroke-width="1" fill="none" />
<path d="M213.62758620689664,723.3103448275863 L238.28965517241386,723.3103448275863" stroke="red" stroke-width="1" fill="none" />
<path d="M246.51034482758627,723.3103448275863 L271.1724137931035,723.3103448275863" stroke="red" stroke-width="1" fill="none" />
<path d="M336.93793103448286,719.2 L336.93793103448286,723.3103448275863" stroke="red" stroke-width="1" fill="none" />
<path d="M336.93793103448286,723.3103448275863 L336.93793103448286,735.6413793103449" stroke="red" stroke-width="1" fill="none" />
<path d="M312.2758620689656,723.3103448275863 L336.93793103448286,723.3103448275863" stroke="red" stroke-width="1" fill="none" />
<path d="M279.39310344827595,723.3103448275863 L304.0551724137932,723.3103448275863" stroke="red" stroke-width="1" fill="none" />
<path d="M768.5241379310346,143.75172413793103 L768.5241379310346,135.53103448275863" stroke="red" stroke-width="1" fill="none" />
<path d="M801.4068965517242,135.53103448275863 L801.4068965517242,143.75172413793103" stroke="red" stroke-width="1" fill="none" />
<path d="M180.74482758620695,702.7586206896552 L172.52413793103455,702.7586206896552" stroke="red" stroke-width="1" fill="none" />
<path d="M172.52413793103455,702.7586206896552 L172.52413793103455,735.6413793103449" stroke="red" stroke-width="1" fill="none" />
<path d="M151.9724137931035,702.7586206896552 L143.7517241379311,702.7586206896552" stroke="red" stroke-width="1" fill="none" />
<path d="M151.9724137931035,768.5241379310345 L151.9724137931035,702.7586206896552" stroke="red" stroke-width="1" fill="none" />
<path d="M172.52413793103455,735.6413793103449 L180.74482758620695,735.6413793103449" stroke="red" stroke-width="1" fill="none" />
<path d="M180.74482758620695,768.5241379310345 L151.9724137931035,768.5241379310345" stroke="red" stroke-width="1" fill="none" />
<path d="M180.74482758620695,735.6413793103449 L180.74482758620695,723.3103448275863" stroke="red" stroke-width="1" fill="none" />
<path d="M180.74482758620695,801.4068965517242 L180.74482758620695,768.5241379310345" stroke="red" stroke-width="1" fill="none" />
<path d="M735.641379310345,538.344827586207 L735.641379310345,636.9931034482759" stroke="red" stroke-width="1" fill="none" />
<path d="M735.641379310345,636.9931034482759 L669.8758620689656,636.9931034482759" stroke="red" stroke-width="1" fill="none" />
<path d="M669.8758620689656,636.9931034482759 L669.8758620689656,669.8758620689655" stroke="red" stroke-width="1" fill="none" />
<path d="M669.8758620689656,669.8758620689655 L768.5241379310346,669.8758620689655" stroke="red" stroke-width="1" fill="none" />
<path d="M768.5241379310346,669.8758620689655 L768.5241379310346,768.5241379310345" stroke="red" stroke-width="1" fill="none" />
<path d="M702.7586206896552,12.220689655172464 L702.7586206896552,45.10344827586209" stroke="red" stroke-width="1" fill="none" />
<path d="M702.7586206896552,45.10344827586209 L710.9793103448277,45.10344827586209" stroke="red" stroke-width="1" fill="none" />
<path d="M710.9793103448277,45.10344827586209 L710.9793103448277,110.86896551724135" stroke="red" stroke-width="1" fill="none" />
<path d="M710.9793103448277,110.86896551724135 L702.7586206896552,110.86896551724135" stroke="red" stroke-width="1" fill="none" />
<path d="M702.7586206896552,110.86896551724135 L702.7586206896552,176.63448275862072" stroke="red" stroke-width="1" fill="none" />
</svg>