<?xml version="1.0" encoding="UTF-8"?>
<svg xmlns="http://www.w3.org/2000/svg" xmlns:xlink="http://www.w3.org/1999/xlink"
     width="1200" height="1391" viewBox="0 0 1200 1391">
<defs>
</defs>
<path d="M335.23217550274217,681.7184643510054 L370.0987202925045,681.7184643510054" stroke="lavender" stroke-width="2" fill="none" />
<path d="M370.0987202925045,681.7184643510054 L370.0987202925045,646.8519195612431" stroke="lavender" stroke-width="2" fill="none" />
<path d="M370.0987202925045,646.8519195612431 L335.23217550274217,646.8519195612431" stroke="lavender" stroke-width="2" fill="none" />
<path d="M335.23217550274217,646.8519195612431 L335.23217550274217,681.7184643510054" stroke="lavender" stroke-width="2" fill="none" />
<path d="M370.0987202925045,1196.0 L335.23217550274217,1196.0" stroke="lavender" stroke-width="2" fill="none" />
<path d="M300.36563071297985,1178.5667276051188 L300.36563071297985,568.4021937842779" stroke="yellow" stroke-width="2" fill="none" />
<path d="M404.96526508226685,568.4021937842779 L404.96526508226685,1174.2084095063985" stroke="lavender" stroke-width="2" fill="none" />
<path d="M319.97806215722113,618.5228519195613 L319.97806215722113,550.9689213893968" stroke="yellow" stroke-width="2" fill="none" />
<path d="M385.3528336380255,618.5228519195613 L319.97806215722113,618.5228519195613" stroke="yellow" stroke-width="2" fill="none" />
<path d="M385.3528336380255,550.9689213893968 L385.3528336380255,618.5228519195613" stroke="yellow" stroke-width="2" fill="none" />
<path d="M317.798903107861,550.9689213893968 L317.798903107861,620.7020109689214" stroke="yellow" stroke-width="2" fill="none" />
<path d="M317.798903107861,620.7020109689214 L387.5319926873857,620.7020109689214" stroke="yellow" stroke-width="2" fill="none" />
<path d="M387.5319926873857,620.7020109689214 L387.5319926873857,550.9689213893968" stroke="yellow" stroke-width="2" fill="none" />
<path d="M335.23217550274217,1200.3583180987202 L370.0987202925045,1200.3583180987202" stroke="lavender" stroke-width="2" fill="none" />
<path d="M561.8647166361974,1039.1005484460695 L526.9981718464351,1039.1005484460695" stroke="yellow" stroke-width="2" fill="none" />
<path d="M317.798903107861,1265.7330895795246 L335.23217550274217,1265.7330895795246" stroke="lavender" stroke-width="2" fill="none" />
<path d="M335.23217550274217,1265.7330895795246 L335.23217550274217,1248.2998171846434" stroke="lavender" stroke-width="2" fill="none" />
<path d="M335.23217550274217,1248.2998171846434 L317.798903107861,1248.2998171846434" stroke="lavender" stroke-width="2" fill="none" />
<path d="M317.798903107861,1248.2998171846434 L317.798903107861,1265.7330895795246" stroke="lavender" stroke-width="2" fill="none" />
<path d="M348.307129798903,581.4771480804387 L357.0237659963436,581.4771480804387" stroke="yellow" stroke-width="2" fill="none" />
<path d="M357.0237659963436,581.4771480804387 L357.0237659963436,572.7605118829982" stroke="yellow" stroke-width="2" fill="none" />
<path d="M357.0237659963436,572.7605118829982 L348.307129798903,572.7605118829982" stroke="yellow" stroke-width="2" fill="none" />
<path d="M348.307129798903,572.7605118829982 L348.307129798903,581.4771480804387" stroke="yellow" stroke-width="2" fill="none" />
<path d="M422.398537477148,568.4021937842779 L422.398537477148,1178.5667276051188" stroke="lavender" stroke-width="2" fill="none" />
<path d="M409.32358318098716,1178.5667276051188 L409.32358318098716,568.4021937842779" stroke="lavender" stroke-width="2" fill="none" />
<path d="M422.398537477148,568.4021937842779 L439.83180987202917,568.4021937842779" stroke="yellow" stroke-width="2" fill="none" />
<path d="M439.83180987202917,568.4021937842779 L439.83180987202917,1178.5667276051188" stroke="yellow" stroke-width="2" fill="none" />
<path d="M457.2650822669103,568.4021937842779 L457.2650822669103,1178.5667276051188" stroke="yellow" stroke-width="2" fill="none" />
<path d="M457.2650822669103,568.4021937842779 L474.69835466179154,568.4021937842779" stroke="yellow" stroke-width="2" fill="none" />
<path d="M474.69835466179154,568.4021937842779 L474.69835466179154,1178.5667276051188" stroke="yellow" stroke-width="2" fill="none" />
<path d="M298.18647166361967,568.4021937842779 L298.18647166361967,1178.5667276051188" stroke="lavender" stroke-width="2" fill="none" />
<path d="M509.56489945155386,1004.2340036563071 L526.9981718464351,1004.2340036563071" stroke="lavender" stroke-width="2" fill="none" />
<path d="M526.9981718464351,1004.2340036563071 L526.9981718464351,986.8007312614259" stroke="lavender" stroke-width="2" fill="none" />
<path d="M526.9981718464351,986.8007312614259 L509.56489945155386,986.8007312614259" stroke="lavender" stroke-width="2" fill="none" />
<path d="M404.96526508226685,1174.2084095063985 L352.6654478976233,1126.2669104204754" stroke="lavender" stroke-width="2" fill="none" />
<path d="M352.6654478976233,1126.2669104204754 L300.36563071297985,1178.5667276051188" stroke="lavender" stroke-width="2" fill="none" />
<path d="M213.199268738574,568.4021937842779 L230.63254113345516,568.4021937842779" stroke="lavender" stroke-width="2" fill="none" />
<path d="M404.96526508226685,1174.2084095063985 L404.96526508226685,1178.5667276051188" stroke="yellow" stroke-width="2" fill="none" />
<path d="M439.83180987202917,566.2230347349177 L422.398537477148,566.2230347349177" stroke="yellow" stroke-width="2" fill="none" />
<path d="M474.69835466179154,566.2230347349177 L457.2650822669103,566.2230347349177" stroke="yellow" stroke-width="2" fill="none" />
<path d="M352.6654478976233,237.1700182815357 L442.01096892138935,150.00365630712986" stroke="yellow" stroke-width="2" fill="none" />
<path d="M625.0603290676415,326.5155393053017 L561.8647166361974,411.5027422303474" stroke="yellow" stroke-width="2" fill="none" />
<path d="M474.69835466179154,424.57769652650825 L474.69835466179154,341.76965265082276" stroke="yellow" stroke-width="2" fill="none" />
<path d="M474.69835466179154,341.76965265082276 L509.56489945155386,341.76965265082276" stroke="yellow" stroke-width="2" fill="none" />
<path d="M509.56489945155386,341.76965265082276 L564.0438756855575,254.60329067641692" stroke="yellow" stroke-width="2" fill="none" />
<path d="M564.0438756855575,254.60329067641692 L507.38574040219373,202.3034734917734" stroke="yellow" stroke-width="2" fill="none" />
<path d="M507.38574040219373,202.3034734917734 L483.4149908592321,224.09506398537485" stroke="yellow" stroke-width="2" fill="none" />
<path d="M483.4149908592321,224.09506398537485 L520.4606946983546,252.42413162705668" stroke="yellow" stroke-width="2" fill="none" />
<path d="M520.4606946983546,252.42413162705668 L472.51919561243136,293.8281535648995" stroke="yellow" stroke-width="2" fill="none" />
<path d="M472.51919561243136,293.8281535648995 L415.8610603290676,258.96160877513717" stroke="yellow" stroke-width="2" fill="none" />
<path d="M415.8610603290676,258.96160877513717 L383.1736745886654,285.1115173674589" stroke="yellow" stroke-width="2" fill="none" />
<path d="M383.1736745886654,285.1115173674589 L391.89031078610594,326.5155393053017" stroke="yellow" stroke-width="2" fill="none" />
<path d="M391.89031078610594,326.5155393053017 L428.93601462522844,333.05301645338216" stroke="yellow" stroke-width="2" fill="none" />
<path d="M428.93601462522844,333.05301645338216 L422.398537477148,424.57769652650825" stroke="yellow" stroke-width="2" fill="none" />
<path d="M457.2650822669103,424.57769652650825 L450.7276051188299,359.20292504570386" stroke="yellow" stroke-width="2" fill="none" />
<path d="M450.7276051188299,359.20292504570386 L446.3692870201096,359.20292504570386" stroke="yellow" stroke-width="2" fill="none" />
<path d="M446.3692870201096,359.20292504570386 L439.83180987202917,424.57769652650825" stroke="yellow" stroke-width="2" fill="none" />
<path d="M439.83180987202917,424.57769652650825 L422.398537477148,424.57769652650825" stroke="yellow" stroke-width="2" fill="none" />
<path d="M474.69835466179154,424.57769652650825 L457.2650822669103,424.57769652650825" stroke="yellow" stroke-width="2" fill="none" />
<path d="M701.3308957952468,633.7769652650823 L585.835466179159,581.4771480804387" stroke="yellow" stroke-width="2" fill="none" />
<path d="M592.3729433272395,428.9360146252285 L675.1809872029249,341.76965265082276" stroke="yellow" stroke-width="2" fill="none" />
<path d="M389.7111517367458,391.89031078610606 L363.56124314442405,365.74040219378435" stroke="yellow" stroke-width="2" fill="none" />
<path d="M402.7861060329067,93.34552102376597 L309.0822669104204,206.66179159049364" stroke="yellow" stroke-width="2" fill="none" />
<path d="M457.2650822669103,150.00365630712986 L492.1316270566727,150.00365630712986" stroke="yellow" stroke-width="2" fill="none" />
<path d="M568.4021937842778,178.3327239488118 L588.0146252285191,195.7659963436929" stroke="yellow" stroke-width="2" fill="none" />
<path d="M611.9853747714807,241.52833638025595 L616.343692870201,278.5740402193785" stroke="yellow" stroke-width="2" fill="none" />
<path d="M422.398537477148,219.7367458866545 L439.83180987202917,219.7367458866545" stroke="lavender" stroke-width="2" fill="none" />
<path d="M439.83180987202917,219.7367458866545 L439.83180987202917,202.3034734917734" stroke="lavender" stroke-width="2" fill="none" />
<path d="M439.83180987202917,202.3034734917734 L422.398537477148,202.3034734917734" stroke="lavender" stroke-width="2" fill="none" />
<path d="M422.398537477148,202.3034734917734 L422.398537477148,219.7367458866545" stroke="lavender" stroke-width="2" fill="none" />
<path d="M544.4314442413162,359.20292504570386 L561.8647166361974,359.20292504570386" stroke="lavender" stroke-width="2" fill="none" />
<path d="M561.8647166361974,359.20292504570386 L561.8647166361974,341.76965265082276" stroke="lavender" stroke-width="2" fill="none" />
<path d="M561.8647166361974,341.76965265082276 L544.4314442413162,341.76965265082276" stroke="lavender" stroke-width="2" fill="none" />
<path d="M544.4314442413162,341.76965265082276 L544.4314442413162,359.20292504570386" stroke="lavender" stroke-width="2" fill="none" />
<path d="M455.0859232175502,424.57769652650825 L442.01096892138935,424.57769652650825" stroke="yellow" stroke-width="2" fill="none" />
<path d="M747.0932358318098,315.61974405850094 L849.5137111517366,376.6361974405851" stroke="yellow" stroke-width="2" fill="none" />
<path d="M1071.7879341864714,400.60694698354666 L1056.5338208409505,333.05301645338216" stroke="lavender" stroke-width="2" fill="none" />
<path d="M875.6636197440585,461.6234003656307 L825.542961608775,568.4021937842779" stroke="yellow" stroke-width="2" fill="none" />
<path d="M991.1590493601461,402.7861060329068 L1006.4131627056671,394.0694698354662" stroke="lavender" stroke-width="2" fill="none" />
<path d="M1004.234003656307,389.71115173674593 L986.8007312614259,398.42778793418654" stroke="yellow" stroke-width="2" fill="none" />
<path d="M585.835466179159,592.3729433272395 L701.3308957952468,644.672760511883" stroke="lavender" stroke-width="2" fill="none" />
<path d="M561.8647166361974,742.7349177330896 L579.2979890310785,742.7349177330896" stroke="lavender" stroke-width="2" fill="none" />
<path d="M579.2979890310785,742.7349177330896 L579.2979890310785,725.3016453382083" stroke="lavender" stroke-width="2" fill="none" />
<path d="M579.2979890310785,725.3016453382083 L561.8647166361974,725.3016453382083" stroke="lavender" stroke-width="2" fill="none" />
<path d="M561.8647166361974,725.3016453382083 L561.8647166361974,742.7349177330896" stroke="lavender" stroke-width="2" fill="none" />
<path d="M160.89945155393048,289.46983546617923 L160.89945155393048,272.036563071298" stroke="lavender" stroke-width="2" fill="none" />
<path d="M143.46617915904932,289.46983546617923 L160.89945155393048,289.46983546617923" stroke="lavender" stroke-width="2" fill="none" />
<path d="M143.46617915904932,272.036563071298 L143.46617915904932,289.46983546617923" stroke="lavender" stroke-width="2" fill="none" />
<path d="M178.33272394881166,428.9360146252285 L282.93235831809864,411.5027422303474" stroke="yellow" stroke-width="2" fill="none" />
<path d="M178.33272394881166,472.5191956124314 L163.07861060329066,533.5356489945156" stroke="yellow" stroke-width="2" fill="none" />
<path d="M67.1956124314442,402.7861060329068 L19.254113345520977,437.6526508226691" stroke="yellow" stroke-width="2" fill="none" />
<path d="M282.93235831809864,498.66910420475324 L265.49908592321754,481.235831809872" stroke="yellow" stroke-width="2" fill="none" />
<path d="M265.49908592321754,481.235831809872 L248.06581352833632,481.235831809872" stroke="yellow" stroke-width="2" fill="none" />
<path d="M248.06581352833632,498.66910420475324 L265.49908592321754,516.1023765996343" stroke="yellow" stroke-width="2" fill="none" />
<path d="M248.06581352833632,481.235831809872 L248.06581352833632,498.66910420475324" stroke="lavender" stroke-width="2" fill="none" />
<path d="M614.1645338208409,864.7678244972578 L614.1645338208409,829.9012797074954" stroke="yellow" stroke-width="2" fill="none" />
<path d="M736.197440585009,829.9012797074954 L736.197440585009,864.7678244972578" stroke="yellow" stroke-width="2" fill="none" />
<path d="M683.8976234003655,1248.2998171846434 L666.4643510054843,1248.2998171846434" stroke="yellow" stroke-width="2" fill="none" />
<path d="M701.3308957952468,1270.0914076782449 L701.3308957952468,1287.524680073126" stroke="yellow" stroke-width="2" fill="none" />
<path d="M683.8976234003655,1300.599634369287 L666.4643510054843,1300.599634369287" stroke="lavender" stroke-width="2" fill="none" />
<path d="M666.4643510054843,1259.1956124314443 L683.8976234003655,1259.1956124314443" stroke="yellow" stroke-width="2" fill="none" />
<path d="M666.4643510054843,1254.837294332724 L683.8976234003655,1254.837294332724" stroke="yellow" stroke-width="2" fill="none" />
<path d="M683.8976234003655,1252.6581352833637 L666.4643510054843,1252.6581352833637" stroke="lavender" stroke-width="2" fill="none" />
<path d="M753.6307129798902,1287.524680073126 L707.8683729433271,1287.524680073126" stroke="yellow" stroke-width="2" fill="none" />
<path d="M705.689213893967,1270.0914076782449 L705.689213893967,1287.524680073126" stroke="lavender" stroke-width="2" fill="none" />
<path d="M707.8683729433271,1287.524680073126 L707.8683729433271,1270.0914076782449" stroke="yellow" stroke-width="2" fill="none" />
<path d="M160.89945155393048,132.57038391224864 L178.33272394881166,132.57038391224864" stroke="yellow" stroke-width="2" fill="none" />
<path d="M178.33272394881166,132.57038391224864 L187.04936014625224,117.31627056672755" stroke="yellow" stroke-width="2" fill="none" />
<path d="M187.04936014625224,117.31627056672755 L187.04936014625224,99.88299817184657" stroke="yellow" stroke-width="2" fill="none" />
<path d="M187.04936014625224,99.88299817184657 L171.7952468007312,91.16636197440585" stroke="yellow" stroke-width="2" fill="none" />
<path d="M171.7952468007312,91.16636197440585 L154.36197440585005,91.16636197440585" stroke="yellow" stroke-width="2" fill="none" />
<path d="M154.36197440585005,91.16636197440585 L145.64533820840944,106.42047531992694" stroke="yellow" stroke-width="2" fill="none" />
<path d="M145.64533820840944,106.42047531992694 L145.64533820840944,123.85374771480815" stroke="yellow" stroke-width="2" fill="none" />
<path d="M145.64533820840944,123.85374771480815 L160.89945155393048,132.57038391224864" stroke="yellow" stroke-width="2" fill="none" />
<path d="M670.8226691042047,1241.762340036563 L670.8226691042047,1243.9414990859232" stroke="yellow" stroke-width="2" fill="none" />
<path d="M670.8226691042047,1243.9414990859232 L679.5393053016453,1243.9414990859232" stroke="yellow" stroke-width="2" fill="none" />
<path d="M679.5393053016453,1243.9414990859232 L679.5393053016453,1241.762340036563" stroke="yellow" stroke-width="2" fill="none" />
<path d="M679.5393053016453,1241.762340036563 L670.8226691042047,1241.762340036563" stroke="yellow" stroke-width="2" fill="none" />
<path d="M736.197440585009,1270.0914076782449 L753.6307129798902,1287.524680073126" stroke="yellow" stroke-width="2" fill="none" />
<path d="M771.0639853747714,1206.8957952468006 L788.4972577696526,1196.0" stroke="lavender" stroke-width="2" fill="none" />
<path d="M762.3473491773308,1222.1499085923217 L771.0639853747714,1206.8957952468006" stroke="lavender" stroke-width="2" fill="none" />
<path d="M771.0639853747714,1237.4040219378428 L762.3473491773308,1222.1499085923217" stroke="lavender" stroke-width="2" fill="none" />
<path d="M788.4972577696526,1248.2998171846434 L771.0639853747714,1237.4040219378428" stroke="lavender" stroke-width="2" fill="none" />
<path d="M747.0932358318098,315.61974405850094 L825.542961608775,568.4021937842779" stroke="lavender" stroke-width="2" fill="none" />
<path d="M248.06581352833632,272.036563071298 L248.06581352833632,289.46983546617923" stroke="lavender" stroke-width="2" fill="none" />
<path d="M248.06581352833632,289.46983546617923 L265.49908592321754,289.46983546617923" stroke="lavender" stroke-width="2" fill="none" />
<path d="M265.49908592321754,289.46983546617923 L265.49908592321754,272.036563071298" stroke="lavender" stroke-width="2" fill="none" />
<path d="M387.5319926873857,1196.0 L370.0987202925045,1196.0" stroke="red" stroke-width="2" fill="none" />
<path d="M335.23217550274217,1196.0 L317.798903107861,1196.0" stroke="red" stroke-width="2" fill="none" />
<path d="M317.798903107861,1196.0 L300.36563071297985,1178.5667276051188" stroke="red" stroke-width="2" fill="none" />
<path d="M404.96526508226685,1178.5667276051188 L387.5319926873857,1196.0" stroke="red" stroke-width="2" fill="none" />
<path d="M300.36563071297985,568.4021937842779 L317.798903107861,550.9689213893968" stroke="red" stroke-width="2" fill="none" />
<path d="M317.798903107861,550.9689213893968 L319.97806215722113,550.9689213893968" stroke="red" stroke-width="2" fill="none" />
<path d="M385.3528336380255,550.9689213893968 L387.5319926873857,550.9689213893968" stroke="red" stroke-width="2" fill="none" />
<path d="M387.5319926873857,550.9689213893968 L404.96526508226685,568.4021937842779" stroke="red" stroke-width="2" fill="none" />
<path d="M319.97806215722113,550.9689213893968 L385.3528336380255,550.9689213893968" stroke="red" stroke-width="2" fill="none" />
<path d="M370.0987202925045,1196.0 L370.0987202925045,1200.3583180987202" stroke="red" stroke-width="2" fill="none" />
<path d="M370.0987202925045,1200.3583180987202 L387.5319926873857,1213.4332723948812" stroke="red" stroke-width="2" fill="none" />
<path d="M387.5319926873857,1213.4332723948812 L352.6654478976233,1318.032906764168" stroke="red" stroke-width="2" fill="none" />
<path d="M474.69835466179154,1248.2998171846434 L526.9981718464351,1230.8665447897622" stroke="red" stroke-width="2" fill="none" />
<path d="M526.9981718464351,1230.8665447897622 L526.9981718464351,1213.4332723948812" stroke="red" stroke-width="2" fill="none" />
<path d="M526.9981718464351,1213.4332723948812 L509.56489945155386,1213.4332723948812" stroke="red" stroke-width="2" fill="none" />
<path d="M509.56489945155386,1213.4332723948812 L509.56489945155386,1178.5667276051188" stroke="red" stroke-width="2" fill="none" />
<path d="M509.56489945155386,1178.5667276051188 L526.9981718464351,1178.5667276051188" stroke="red" stroke-width="2" fill="none" />
<path d="M526.9981718464351,1178.5667276051188 L526.9981718464351,1161.1334552102376" stroke="red" stroke-width="2" fill="none" />
<path d="M526.9981718464351,1161.1334552102376 L509.56489945155386,1161.1334552102376" stroke="red" stroke-width="2" fill="none" />
<path d="M509.56489945155386,1161.1334552102376 L509.56489945155386,1126.2669104204754" stroke="red" stroke-width="2" fill="none" />
<path d="M509.56489945155386,1126.2669104204754 L526.9981718464351,1126.2669104204754" stroke="red" stroke-width="2" fill="none" />
<path d="M526.9981718464351,1126.2669104204754 L526.9981718464351,1108.8336380255942" stroke="red" stroke-width="2" fill="none" />
<path d="M526.9981718464351,1108.8336380255942 L509.56489945155386,1108.8336380255942" stroke="red" stroke-width="2" fill="none" />
<path d="M509.56489945155386,1108.8336380255942 L509.56489945155386,1073.9670932358317" stroke="red" stroke-width="2" fill="none" />
<path d="M579.2979890310785,1073.9670932358317 L579.2979890310785,1108.8336380255942" stroke="red" stroke-width="2" fill="none" />
<path d="M579.2979890310785,1108.8336380255942 L561.8647166361974,1108.8336380255942" stroke="red" stroke-width="2" fill="none" />
<path d="M561.8647166361974,1108.8336380255942 L561.8647166361974,1126.2669104204754" stroke="red" stroke-width="2" fill="none" />
<path d="M561.8647166361974,1126.2669104204754 L579.2979890310785,1126.2669104204754" stroke="red" stroke-width="2" fill="none" />
<path d="M579.2979890310785,1126.2669104204754 L579.2979890310785,1161.1334552102376" stroke="red" stroke-width="2" fill="none" />
<path d="M579.2979890310785,1161.1334552102376 L561.8647166361974,1161.1334552102376" stroke="red" stroke-width="2" fill="none" />
<path d="M561.8647166361974,1161.1334552102376 L561.8647166361974,1178.5667276051188" stroke="red" stroke-width="2" fill="none" />
<path d="M561.8647166361974,1178.5667276051188 L579.2979890310785,1178.5667276051188" stroke="red" stroke-width="2" fill="none" />
<path d="M579.2979890310785,1178.5667276051188 L579.2979890310785,1213.4332723948812" stroke="red" stroke-width="2" fill="none" />
<path d="M579.2979890310785,1213.4332723948812 L561.8647166361974,1213.4332723948812" stroke="red" stroke-width="2" fill="none" />
<path d="M561.8647166361974,1213.4332723948812 L561.8647166361974,1230.8665447897622" stroke="red" stroke-width="2" fill="none" />
<path d="M561.8647166361974,1230.8665447897622 L614.1645338208409,1248.2998171846434" stroke="red" stroke-width="2" fill="none" />
<path d="M300.36563071297985,1283.1663619744058 L300.36563071297985,1230.8665447897622" stroke="red" stroke-width="2" fill="none" />
<path d="M300.36563071297985,1230.8665447897622 L335.23217550274217,1200.3583180987202" stroke="red" stroke-width="2" fill="none" />
<path d="M335.23217550274217,1200.3583180987202 L335.23217550274217,1196.0" stroke="red" stroke-width="2" fill="none" />
<path d="M509.56489945155386,1073.9670932358317 L526.9981718464351,1073.9670932358317" stroke="red" stroke-width="2" fill="none" />
<path d="M526.9981718464351,1073.9670932358317 L526.9981718464351,1039.1005484460695" stroke="red" stroke-width="2" fill="none" />
<path d="M526.9981718464351,1039.1005484460695 L509.56489945155386,1021.6672760511883" stroke="red" stroke-width="2" fill="none" />
<path d="M509.56489945155386,1021.6672760511883 L509.56489945155386,1004.2340036563071" stroke="red" stroke-width="2" fill="none" />
<path d="M509.56489945155386,986.8007312614259 L544.4314442413162,951.9341864716636" stroke="red" stroke-width="2" fill="none" />
<path d="M544.4314442413162,951.9341864716636 L579.2979890310785,986.8007312614259" stroke="red" stroke-width="2" fill="none" />
<path d="M579.2979890310785,986.8007312614259 L579.2979890310785,1021.6672760511883" stroke="red" stroke-width="2" fill="none" />
<path d="M579.2979890310785,1021.6672760511883 L561.8647166361974,1039.1005484460695" stroke="red" stroke-width="2" fill="none" />
<path d="M561.8647166361974,1039.1005484460695 L561.8647166361974,1073.9670932358317" stroke="red" stroke-width="2" fill="none" />
<path d="M561.8647166361974,1073.9670932358317 L579.2979890310785,1073.9670932358317" stroke="red" stroke-width="2" fill="none" />
<path d="M352.6654478976233,1318.032906764168 L300.36563071297985,1283.1663619744058" stroke="red" stroke-width="2" fill="none" />
<path d="M614.1645338208409,1248.2998171846434 L614.1645338208409,1352.8994515539305" stroke="red" stroke-width="2" fill="none" />
<path d="M614.1645338208409,1352.8994515539305 L561.8647166361974,1387.7659963436927" stroke="red" stroke-width="2" fill="none" />
<path d="M561.8647166361974,1387.7659963436927 L526.9981718464351,1387.7659963436927" stroke="red" stroke-width="2" fill="none" />
<path d="M526.9981718464351,1387.7659963436927 L474.69835466179154,1352.8994515539305" stroke="red" stroke-width="2" fill="none" />
<path d="M474.69835466179154,1352.8994515539305 L474.69835466179154,1248.2998171846434" stroke="red" stroke-width="2" fill="none" />
<path d="M404.96526508226685,568.4021937842779 L409.32358318098716,568.4021937842779" stroke="red" stroke-width="2" fill="none" />
<path d="M409.32358318098716,568.4021937842779 L422.398537477148,568.4021937842779" stroke="red" stroke-width="2" fill="none" />
<path d="M422.398537477148,1178.5667276051188 L409.32358318098716,1178.5667276051188" stroke="red" stroke-width="2" fill="none" />
<path d="M409.32358318098716,1178.5667276051188 L404.96526508226685,1178.5667276051188" stroke="red" stroke-width="2" fill="none" />
<path d="M439.83180987202917,1178.5667276051188 L422.398537477148,1178.5667276051188" stroke="red" stroke-width="2" fill="none" />
<path d="M439.83180987202917,568.4021937842779 L457.2650822669103,568.4021937842779" stroke="red" stroke-width="2" fill="none" />
<path d="M457.2650822669103,1178.5667276051188 L439.83180987202917,1178.5667276051188" stroke="red" stroke-width="2" fill="none" />
<path d="M474.69835466179154,1178.5667276051188 L457.2650822669103,1178.5667276051188" stroke="red" stroke-width="2" fill="none" />
<path d="M474.69835466179154,568.4021937842779 L492.1316270566727,568.4021937842779" stroke="red" stroke-width="2" fill="none" />
<path d="M492.1316270566727,568.4021937842779 L492.1316270566727,638.1352833638026" stroke="red" stroke-width="2" fill="none" />
<path d="M492.1316270566727,638.1352833638026 L492.1316270566727,707.8683729433272" stroke="red" stroke-width="2" fill="none" />
<path d="M492.1316270566727,707.8683729433272 L492.1316270566727,1178.5667276051188" stroke="red" stroke-width="2" fill="none" />
<path d="M492.1316270566727,1178.5667276051188 L474.69835466179154,1178.5667276051188" stroke="red" stroke-width="2" fill="none" />
<path d="M298.18647166361967,1178.5667276051188 L213.199268738574,1178.5667276051188" stroke="red" stroke-width="2" fill="none" />
<path d="M213.199268738574,1178.5667276051188 L213.199268738574,568.4021937842779" stroke="red" stroke-width="2" fill="none" />
<path d="M300.36563071297985,1178.5667276051188 L298.18647166361967,1178.5667276051188" stroke="red" stroke-width="2" fill="none" />
<path d="M230.63254113345516,568.4021937842779 L298.18647166361967,568.4021937842779" stroke="red" stroke-width="2" fill="none" />
<path d="M298.18647166361967,568.4021937842779 L300.36563071297985,568.4021937842779" stroke="red" stroke-width="2" fill="none" />
<path d="M509.56489945155386,1004.2340036563071 L509.56489945155386,986.8007312614259" stroke="red" stroke-width="2" fill="none" />
<path d="M213.199268738574,568.4021937842779 L213.199268738574,559.6855575868373" stroke="red" stroke-width="2" fill="none" />
<path d="M213.199268738574,559.6855575868373 L230.63254113345516,559.6855575868373" stroke="lavender" stroke-width="2" fill="none" />
<path d="M230.63254113345516,559.6855575868373 L230.63254113345516,568.4021937842779" stroke="red" stroke-width="2" fill="none" />
<path d="M422.398537477148,568.4021937842779 L422.398537477148,566.2230347349177" stroke="red" stroke-width="2" fill="none" />
<path d="M422.398537477148,566.2230347349177 L422.398537477148,424.57769652650825" stroke="red" stroke-width="2" fill="none" />
<path d="M439.83180987202917,424.57769652650825 L439.83180987202917,566.2230347349177" stroke="red" stroke-width="2" fill="none" />
<path d="M439.83180987202917,566.2230347349177 L439.83180987202917,568.4021937842779" stroke="red" stroke-width="2" fill="none" />
<path d="M457.2650822669103,568.4021937842779 L457.2650822669103,566.2230347349177" stroke="red" stroke-width="2" fill="none" />
<path d="M457.2650822669103,566.2230347349177 L457.2650822669103,424.57769652650825" stroke="red" stroke-width="2" fill="none" />
<path d="M474.69835466179154,424.57769652650825 L474.69835466179154,566.2230347349177" stroke="red" stroke-width="2" fill="none" />
<path d="M474.69835466179154,566.2230347349177 L474.69835466179154,568.4021937842779" stroke="red" stroke-width="2" fill="none" />
<path d="M422.398537477148,424.57769652650825 L389.7111517367458,391.89031078610606" stroke="red" stroke-width="2" fill="none" />
<path d="M352.6654478976233,354.8446069469836 L352.6654478976233,237.1700182815357" stroke="red" stroke-width="2" fill="none" />
<path d="M442.01096892138935,150.00365630712986 L457.2650822669103,150.00365630712986" stroke="red" stroke-width="2" fill="none" />
<path d="M588.0146252285191,195.7659963436929 L607.6270566727604,215.37842778793424" stroke="red" stroke-width="2" fill="none" />
<path d="M616.343692870201,278.5740402193785 L625.0603290676415,326.5155393053017" stroke="red" stroke-width="2" fill="none" />
<path d="M561.8647166361974,411.5027422303474 L474.69835466179154,424.57769652650825" stroke="red" stroke-width="2" fill="none" />
<path d="M442.01096892138935,424.57769652650825 L439.83180987202917,424.57769652650825" stroke="red" stroke-width="2" fill="none" />
<path d="M625.0603290676415,326.5155393053017 L675.1809872029249,341.76965265082276" stroke="red" stroke-width="2" fill="none" />
<path d="M675.1809872029249,341.76965265082276 L747.0932358318098,315.61974405850094" stroke="red" stroke-width="2" fill="none" />
<path d="M747.0932358318098,315.61974405850094 L784.1389396709322,204.4826325411335" stroke="red" stroke-width="2" fill="none" />
<path d="M784.1389396709322,204.4826325411335 L877.8427787934186,163.0786106032907" stroke="red" stroke-width="2" fill="none" />
<path d="M877.8427787934186,163.0786106032907 L1047.8171846435098,165.25776965265084" stroke="red" stroke-width="2" fill="none" />
<path d="M1047.8171846435098,165.25776965265084 L1196.0,278.5740402193785" stroke="red" stroke-width="2" fill="none" />
<path d="M1196.0,278.5740402193785 L1196.0,494.3107861060329" stroke="red" stroke-width="2" fill="none" />
<path d="M986.8007312614259,282.93235831809875 L906.1718464351004,296.0073126142596" stroke="red" stroke-width="2" fill="none" />
<path d="M906.1718464351004,296.0073126142596 L849.5137111517366,376.6361974405851" stroke="red" stroke-width="2" fill="none" />
<path d="M849.5137111517366,376.6361974405851 L875.6636197440585,461.6234003656307" stroke="red" stroke-width="2" fill="none" />
<path d="M875.6636197440585,461.6234003656307 L1004.234003656307,481.235831809872" stroke="red" stroke-width="2" fill="none" />
<path d="M866.9469835466177,611.9853747714808 L825.542961608775,568.4021937842779" stroke="red" stroke-width="2" fill="none" />
<path d="M825.542961608775,568.4021937842779 L764.526508226691,627.2394881170019" stroke="red" stroke-width="2" fill="none" />
<path d="M764.526508226691,627.2394881170019 L701.3308957952468,633.7769652650823" stroke="red" stroke-width="2" fill="none" />
<path d="M585.835466179159,581.4771480804387 L570.581352833638,533.5356489945156" stroke="red" stroke-width="2" fill="none" />
<path d="M570.581352833638,533.5356489945156 L592.3729433272395,428.9360146252285" stroke="red" stroke-width="2" fill="none" />
<path d="M592.3729433272395,428.9360146252285 L561.8647166361974,411.5027422303474" stroke="red" stroke-width="2" fill="none" />
<path d="M389.7111517367458,391.89031078610606 L352.6654478976233,428.9360146252285" stroke="red" stroke-width="2" fill="none" />
<path d="M352.6654478976233,428.9360146252285 L326.51553930530156,402.7861060329068" stroke="red" stroke-width="2" fill="none" />
<path d="M326.51553930530156,402.7861060329068 L363.56124314442405,365.74040219378435" stroke="red" stroke-width="2" fill="none" />
<path d="M363.56124314442405,365.74040219378435 L352.6654478976233,354.8446069469836" stroke="red" stroke-width="2" fill="none" />
<path d="M402.7861060329067,93.34552102376597 L442.01096892138935,150.00365630712986" stroke="red" stroke-width="2" fill="none" />
<path d="M359.20292504570375,43.224862888482676 L402.7861060329067,93.34552102376597" stroke="red" stroke-width="2" fill="none" />
<path d="M289.4698354661791,8.358318098720474 L359.20292504570375,43.224862888482676" stroke="red" stroke-width="2" fill="none" />
<path d="M197.94515539305297,4.0 L289.4698354661791,8.358318098720474" stroke="red" stroke-width="2" fill="none" />
<path d="M108.599634369287,32.32906764168206 L197.94515539305297,4.0" stroke="red" stroke-width="2" fill="none" />
<path d="M187.04936014625224,200.12431444241327 L128.21206581352828,226.27422303473497" stroke="red" stroke-width="2" fill="none" />
<path d="M248.06581352833632,191.40767824497266 L187.04936014625224,200.12431444241327" stroke="red" stroke-width="2" fill="none" />
<path d="M309.0822669104204,206.66179159049364 L248.06581352833632,191.40767824497266" stroke="red" stroke-width="2" fill="none" />
<path d="M352.6654478976233,237.1700182815357 L309.0822669104204,206.66179159049364" stroke="red" stroke-width="2" fill="none" />
<path d="M128.21206581352828,226.27422303473497 L78.09140767824493,263.3199268738574" stroke="red" stroke-width="2" fill="none" />
<path d="M78.09140767824493,263.3199268738574 L58.478976234003596,339.5904936014625" stroke="red" stroke-width="2" fill="none" />
<path d="M58.478976234003596,339.5904936014625 L67.1956124314442,402.7861060329068" stroke="red" stroke-width="2" fill="none" />
<path d="M67.1956124314442,402.7861060329068 L88.98720292504566,437.6526508226691" stroke="red" stroke-width="2" fill="none" />
<path d="M88.98720292504566,437.6526508226691 L136.9287020109689,465.98171846435105" stroke="red" stroke-width="2" fill="none" />
<path d="M136.9287020109689,465.98171846435105 L178.33272394881166,472.5191956124314" stroke="red" stroke-width="2" fill="none" />
<path d="M163.07861060329066,533.5356489945156 L84.62888482632536,516.1023765996343" stroke="red" stroke-width="2" fill="none" />
<path d="M84.62888482632536,516.1023765996343 L19.254113345520977,437.6526508226691" stroke="red" stroke-width="2" fill="none" />
<path d="M19.254113345520977,437.6526508226691 L6.179159049360123,352.6654478976234" stroke="red" stroke-width="2" fill="none" />
<path d="M6.179159049360123,352.6654478976234 L4.0,258.96160877513717" stroke="red" stroke-width="2" fill="none" />
<path d="M4.0,258.96160877513717 L12.71663619744055,173.97440585009144" stroke="red" stroke-width="2" fill="none" />
<path d="M12.71663619744055,173.97440585009144 L45.40402193784274,93.34552102376597" stroke="red" stroke-width="2" fill="none" />
<path d="M45.40402193784274,93.34552102376597 L108.599634369287,32.32906764168206" stroke="red" stroke-width="2" fill="none" />
<path d="M457.2650822669103,150.00365630712986 L457.2650822669103,115.13711151736743" stroke="red" stroke-width="2" fill="none" />
<path d="M457.2650822669103,115.13711151736743 L492.1316270566727,115.13711151736743" stroke="red" stroke-width="2" fill="none" />
<path d="M492.1316270566727,115.13711151736743 L492.1316270566727,150.00365630712986" stroke="red" stroke-width="2" fill="none" />
<path d="M492.1316270566727,150.00365630712986 L535.7148080438756,150.00365630712986" stroke="red" stroke-width="2" fill="none" />
<path d="M535.7148080438756,150.00365630712986 L568.4021937842778,178.3327239488118" stroke="red" stroke-width="2" fill="none" />
<path d="M616.343692870201,178.3327239488118 L588.0146252285191,195.7659963436929" stroke="red" stroke-width="2" fill="none" />
<path d="M590.1937842778792,150.00365630712986 L616.343692870201,178.3327239488118" stroke="red" stroke-width="2" fill="none" />
<path d="M568.4021937842778,178.3327239488118 L590.1937842778792,150.00365630712986" stroke="red" stroke-width="2" fill="none" />
<path d="M607.6270566727604,215.37842778793424 L611.9853747714807,241.52833638025595" stroke="red" stroke-width="2" fill="none" />
<path d="M611.9853747714807,241.52833638025595 L644.6727605118829,239.34917733089583" stroke="red" stroke-width="2" fill="none" />
<path d="M644.6727605118829,239.34917733089583 L651.2102376599634,267.6782449725778" stroke="red" stroke-width="2" fill="none" />
<path d="M651.2102376599634,267.6782449725778 L616.343692870201,278.5740402193785" stroke="red" stroke-width="2" fill="none" />
<path d="M457.2650822669103,424.57769652650825 L455.0859232175502,424.57769652650825" stroke="red" stroke-width="2" fill="none" />
<path d="M455.0859232175502,424.57769652650825 L455.0859232175502,476.8775137111518" stroke="red" stroke-width="2" fill="none" />
<path d="M455.0859232175502,476.8775137111518 L442.01096892138935,476.8775137111518" stroke="red" stroke-width="2" fill="none" />
<path d="M442.01096892138935,476.8775137111518 L442.01096892138935,424.57769652650825" stroke="red" stroke-width="2" fill="none" />
<path d="M1196.0,494.3107861060329 L1108.8336380255942,640.3144424131627" stroke="red" stroke-width="2" fill="none" />
<path d="M1108.8336380255942,640.3144424131627 L866.9469835466177,611.9853747714808" stroke="red" stroke-width="2" fill="none" />
<path d="M1004.234003656307,481.235831809872 L1071.7879341864714,400.60694698354666" stroke="red" stroke-width="2" fill="none" />
<path d="M1056.5338208409505,333.05301645338216 L986.8007312614259,282.93235831809875" stroke="red" stroke-width="2" fill="none" />
<path d="M1071.7879341864714,400.60694698354666 L1049.9963436928701,400.60694698354666" stroke="red" stroke-width="2" fill="none" />
<path d="M1049.9963436928701,400.60694698354666 L1015.1297989031077,428.9360146252285" stroke="red" stroke-width="2" fill="none" />
<path d="M1006.4131627056671,394.0694698354662 L1034.742230347349,374.45703839122484" stroke="red" stroke-width="2" fill="none" />
<path d="M1002.0548446069469,311.2614259597807 L1041.2797074954296,335.2321755027423" stroke="red" stroke-width="2" fill="none" />
<path d="M1041.2797074954296,335.2321755027423 L1056.5338208409505,333.05301645338216" stroke="red" stroke-width="2" fill="none" />
<path d="M1015.1297989031077,428.9360146252285 L1004.234003656307,435.473491773309" stroke="red" stroke-width="2" fill="none" />
<path d="M1004.234003656307,435.473491773309 L988.979890310786,437.6526508226691" stroke="red" stroke-width="2" fill="none" />
<path d="M988.979890310786,437.6526508226691 L967.1882998171845,433.29433272394886" stroke="red" stroke-width="2" fill="none" />
<path d="M967.1882998171845,433.29433272394886 L951.9341864716635,433.29433272394886" stroke="red" stroke-width="2" fill="none" />
<path d="M951.9341864716635,433.29433272394886 L943.217550274223,439.8318098720292" stroke="red" stroke-width="2" fill="none" />
<path d="M943.217550274223,439.8318098720292 L936.6800731261425,450.72760511882996" stroke="red" stroke-width="2" fill="none" />
<path d="M936.6800731261425,450.72760511882996 L930.142595978062,452.9067641681902" stroke="red" stroke-width="2" fill="none" />
<path d="M930.142595978062,452.9067641681902 L925.7842778793417,450.72760511882996" stroke="red" stroke-width="2" fill="none" />
<path d="M925.7842778793417,450.72760511882996 L919.2468007312614,444.1901279707496" stroke="red" stroke-width="2" fill="none" />
<path d="M919.2468007312614,444.1901279707496 L917.0676416819011,424.57769652650825" stroke="red" stroke-width="2" fill="none" />
<path d="M917.0676416819011,424.57769652650825 L917.0676416819011,413.6819012797075" stroke="red" stroke-width="2" fill="none" />
<path d="M917.0676416819011,413.6819012797075 L919.2468007312614,402.7861060329068" stroke="red" stroke-width="2" fill="none" />
<path d="M919.2468007312614,402.7861060329068 L923.6051188299816,391.89031078610606" stroke="red" stroke-width="2" fill="none" />
<path d="M923.6051188299816,391.89031078610606 L932.3217550274221,380.9945155393053" stroke="red" stroke-width="2" fill="none" />
<path d="M932.3217550274221,380.9945155393053 L943.217550274223,378.8153564899452" stroke="red" stroke-width="2" fill="none" />
<path d="M943.217550274223,378.8153564899452 L956.2925045703838,378.8153564899452" stroke="red" stroke-width="2" fill="none" />
<path d="M956.2925045703838,378.8153564899452 L962.8299817184642,385.3528336380256" stroke="red" stroke-width="2" fill="none" />
<path d="M962.8299817184642,385.3528336380256 L965.0091407678244,394.0694698354662" stroke="red" stroke-width="2" fill="none" />
<path d="M965.0091407678244,394.0694698354662 L967.1882998171845,400.60694698354666" stroke="red" stroke-width="2" fill="none" />
<path d="M967.1882998171845,400.60694698354666 L975.9049360146252,404.9652650822669" stroke="red" stroke-width="2" fill="none" />
<path d="M975.9049360146252,404.9652650822669 L986.8007312614259,404.9652650822669" stroke="red" stroke-width="2" fill="none" />
<path d="M986.8007312614259,404.9652650822669 L991.1590493601461,402.7861060329068" stroke="red" stroke-width="2" fill="none" />
<path d="M1034.742230347349,374.45703839122484 L993.3382084095063,341.76965265082276" stroke="red" stroke-width="2" fill="none" />
<path d="M993.3382084095063,341.76965265082276 L951.9341864716635,339.5904936014625" stroke="red" stroke-width="2" fill="none" />
<path d="M951.9341864716635,339.5904936014625 L947.5758683729432,346.127970749543" stroke="red" stroke-width="2" fill="none" />
<path d="M947.5758683729432,346.127970749543 L941.0383912248627,350.48628884826326" stroke="red" stroke-width="2" fill="none" />
<path d="M941.0383912248627,350.48628884826326 L930.142595978062,352.6654478976234" stroke="red" stroke-width="2" fill="none" />
<path d="M930.142595978062,352.6654478976234 L921.4259597806215,350.48628884826326" stroke="red" stroke-width="2" fill="none" />
<path d="M921.4259597806215,350.48628884826326 L914.888482632541,343.9488117001829" stroke="red" stroke-width="2" fill="none" />
<path d="M914.888482632541,343.9488117001829 L910.5301645338207,330.87385740402203" stroke="red" stroke-width="2" fill="none" />
<path d="M910.5301645338207,330.87385740402203 L912.7093235831809,315.61974405850094" stroke="red" stroke-width="2" fill="none" />
<path d="M912.7093235831809,315.61974405850094 L919.2468007312614,306.90310786106033" stroke="red" stroke-width="2" fill="none" />
<path d="M919.2468007312614,306.90310786106033 L930.142595978062,300.36563071297996" stroke="red" stroke-width="2" fill="none" />
<path d="M930.142595978062,300.36563071297996 L943.217550274223,298.18647166361984" stroke="red" stroke-width="2" fill="none" />
<path d="M943.217550274223,298.18647166361984 L951.9341864716635,300.36563071297996" stroke="red" stroke-width="2" fill="none" />
<path d="M951.9341864716635,300.36563071297996 L956.2925045703838,304.7239488117002" stroke="red" stroke-width="2" fill="none" />
<path d="M956.2925045703838,304.7239488117002 L956.2925045703838,309.08226691042057" stroke="red" stroke-width="2" fill="none" />
<path d="M956.2925045703838,309.08226691042057 L960.6508226691041,311.2614259597807" stroke="red" stroke-width="2" fill="none" />
<path d="M960.6508226691041,311.2614259597807 L1002.0548446069469,311.2614259597807" stroke="red" stroke-width="2" fill="none" />
<path d="M991.1590493601461,402.7861060329068 L986.8007312614259,398.42778793418654" stroke="red" stroke-width="2" fill="none" />
<path d="M997.6965265082266,359.20292504570386 L1004.234003656307,389.71115173674593" stroke="red" stroke-width="2" fill="none" />
<path d="M1004.234003656307,389.71115173674593 L1006.4131627056671,394.0694698354662" stroke="red" stroke-width="2" fill="none" />
<path d="M962.8299817184642,367.91956124314447 L997.6965265082266,359.20292504570386" stroke="red" stroke-width="2" fill="none" />
<path d="M986.8007312614259,398.42778793418654 L962.8299817184642,367.91956124314447" stroke="red" stroke-width="2" fill="none" />
<path d="M701.3308957952468,633.7769652650823 L701.3308957952468,644.672760511883" stroke="red" stroke-width="2" fill="none" />
<path d="M701.3308957952468,644.672760511883 L736.197440585009,673.0018281535649" stroke="red" stroke-width="2" fill="none" />
<path d="M526.9981718464351,812.4680073126142 L509.56489945155386,638.1352833638026" stroke="red" stroke-width="2" fill="none" />
<path d="M509.56489945155386,638.1352833638026 L585.835466179159,592.3729433272395" stroke="red" stroke-width="2" fill="none" />
<path d="M585.835466179159,592.3729433272395 L585.835466179159,581.4771480804387" stroke="red" stroke-width="2" fill="none" />
<path d="M265.49908592321754,516.1023765996343 L163.07861060329066,533.5356489945156" stroke="red" stroke-width="2" fill="none" />
<path d="M282.93235831809864,411.5027422303474 L282.93235831809864,498.66910420475324" stroke="red" stroke-width="2" fill="none" />
<path d="M317.798903107861,341.76965265082276 L282.93235831809864,411.5027422303474" stroke="red" stroke-width="2" fill="none" />
<path d="M265.49908592321754,272.036563071298 L317.798903107861,341.76965265082276" stroke="red" stroke-width="2" fill="none" />
<path d="M160.89945155393048,272.036563071298 L248.06581352833632,272.036563071298" stroke="red" stroke-width="2" fill="none" />
<path d="M108.599634369287,324.33638025594155 L143.46617915904932,272.036563071298" stroke="red" stroke-width="2" fill="none" />
<path d="M106.42047531992682,391.89031078610606 L108.599634369287,324.33638025594155" stroke="red" stroke-width="2" fill="none" />
<path d="M178.33272394881166,428.9360146252285 L106.42047531992682,391.89031078610606" stroke="red" stroke-width="2" fill="none" />
<path d="M178.33272394881166,472.5191956124314 L178.33272394881166,428.9360146252285" stroke="red" stroke-width="2" fill="none" />
<path d="M143.46617915904932,272.036563071298 L160.89945155393048,272.036563071298" stroke="red" stroke-width="2" fill="none" />
<path d="M282.93235831809864,516.1023765996343 L265.49908592321754,516.1023765996343" stroke="red" stroke-width="2" fill="none" />
<path d="M282.93235831809864,498.66910420475324 L282.93235831809864,516.1023765996343" stroke="red" stroke-width="2" fill="none" />
<path d="M614.1645338208409,829.9012797074954 L736.197440585009,829.9012797074954" stroke="red" stroke-width="2" fill="none" />
<path d="M753.6307129798902,829.9012797074954 L753.6307129798902,847.3345521023766" stroke="red" stroke-width="2" fill="none" />
<path d="M753.6307129798902,847.3345521023766 L736.197440585009,864.7678244972578" stroke="red" stroke-width="2" fill="none" />
<path d="M736.197440585009,864.7678244972578 L718.7641681901279,899.63436928702" stroke="red" stroke-width="2" fill="none" />
<path d="M718.7641681901279,899.63436928702 L718.7641681901279,1248.2998171846434" stroke="red" stroke-width="2" fill="none" />
<path d="M718.7641681901279,1248.2998171846434 L683.8976234003655,1248.2998171846434" stroke="red" stroke-width="2" fill="none" />
<path d="M683.8976234003655,1248.2998171846434 L683.8976234003655,1252.6581352833637" stroke="red" stroke-width="2" fill="none" />
<path d="M683.8976234003655,1252.6581352833637 L683.8976234003655,1254.837294332724" stroke="red" stroke-width="2" fill="none" />
<path d="M683.8976234003655,1254.837294332724 L683.8976234003655,1259.1956124314443" stroke="red" stroke-width="2" fill="none" />
<path d="M666.4643510054843,1259.1956124314443 L666.4643510054843,1254.837294332724" stroke="red" stroke-width="2" fill="none" />
<path d="M666.4643510054843,1254.837294332724 L666.4643510054843,1252.6581352833637" stroke="red" stroke-width="2" fill="none" />
<path d="M666.4643510054843,1252.6581352833637 L666.4643510054843,1248.2998171846434" stroke="red" stroke-width="2" fill="none" />
<path d="M666.4643510054843,1248.2998171846434 L631.597806215722,1248.2998171846434" stroke="red" stroke-width="2" fill="none" />
<path d="M631.597806215722,1248.2998171846434 L631.597806215722,899.63436928702" stroke="red" stroke-width="2" fill="none" />
<path d="M631.597806215722,899.63436928702 L614.1645338208409,864.7678244972578" stroke="red" stroke-width="2" fill="none" />
<path d="M614.1645338208409,864.7678244972578 L596.7312614259597,847.3345521023766" stroke="red" stroke-width="2" fill="none" />
<path d="M596.7312614259597,847.3345521023766 L596.7312614259597,829.9012797074954" stroke="red" stroke-width="2" fill="none" />
<path d="M596.7312614259597,829.9012797074954 L614.1645338208409,829.9012797074954" stroke="red" stroke-width="2" fill="none" />
<path d="M736.197440585009,829.9012797074954 L753.6307129798902,829.9012797074954" stroke="red" stroke-width="2" fill="none" />
<path d="M683.8976234003655,1259.1956124314443 L701.3308957952468,1270.0914076782449" stroke="red" stroke-width="2" fill="none" />
<path d="M701.3308957952468,1287.524680073126 L683.8976234003655,1300.599634369287" stroke="red" stroke-width="2" fill="none" />
<path d="M683.8976234003655,1300.599634369287 L683.8976234003655,1318.032906764168" stroke="red" stroke-width="2" fill="none" />
<path d="M683.8976234003655,1318.032906764168 L666.4643510054843,1318.032906764168" stroke="red" stroke-width="2" fill="none" />
<path d="M666.4643510054843,1318.032906764168 L666.4643510054843,1300.599634369287" stroke="red" stroke-width="2" fill="none" />
<path d="M666.4643510054843,1300.599634369287 L649.0310786106032,1287.524680073126" stroke="red" stroke-width="2" fill="none" />
<path d="M649.0310786106032,1287.524680073126 L649.0310786106032,1270.0914076782449" stroke="red" stroke-width="2" fill="none" />
<path d="M649.0310786106032,1270.0914076782449 L666.4643510054843,1259.1956124314443" stroke="red" stroke-width="2" fill="none" />
<path d="M701.3308957952468,1270.0914076782449 L705.689213893967,1270.0914076782449" stroke="red" stroke-width="2" fill="none" />
<path d="M705.689213893967,1270.0914076782449 L707.8683729433271,1270.0914076782449" stroke="red" stroke-width="2" fill="none" />
<path d="M707.8683729433271,1270.0914076782449 L736.197440585009,1270.0914076782449" stroke="red" stroke-width="2" fill="none" />
<path d="M736.197440585009,1270.0914076782449 L736.197440585009,1196.0" stroke="red" stroke-width="2" fill="none" />
<path d="M753.6307129798902,1248.2998171846434 L753.6307129798902,1287.524680073126" stroke="red" stroke-width="2" fill="none" />
<path d="M707.8683729433271,1287.524680073126 L705.689213893967,1287.524680073126" stroke="red" stroke-width="2" fill="none" />
<path d="M705.689213893967,1287.524680073126 L701.3308957952468,1287.524680073126" stroke="red" stroke-width="2" fill="none" />
<path d="M753.6307129798902,1287.524680073126 L753.6307129798902,1300.599634369287" stroke="red" stroke-width="2" fill="none" />
<path d="M753.6307129798902,1300.599634369287 L710.0475319926873,1300.599634369287" stroke="red" stroke-width="2" fill="none" />
<path d="M710.0475319926873,1300.599634369287 L707.8683729433271,1287.524680073126" stroke="red" stroke-width="2" fill="none" />
<path d="M736.197440585009,673.0018281535649 L736.197440585009,812.4680073126142" stroke="red" stroke-width="2" fill="none" />
<path d="M736.197440585009,812.4680073126142 L526.9981718464351,812.4680073126142" stroke="red" stroke-width="2" fill="none" />
<path d="M736.197440585009,1196.0 L788.4972577696526,1196.0" stroke="red" stroke-width="2" fill="none" />
<path d="M788.4972577696526,1248.2998171846434 L753.6307129798902,1248.2998171846434" stroke="red" stroke-width="2" fill="none" />
<path d="M788.4972577696526,1196.0 L788.4972577696526,1248.2998171846434" stroke="red" stroke-width="2" fill="none" />
<path d="M248.06581352833632,272.036563071298 L265.49908592321754,272.036563071298" stroke="red" stroke-width="2" fill="none" />
</svg>