<?xml version="1.0" encoding="UTF-8"?>
<svg xmlns="http://www.w3.org/2000/svg" xmlns:xlink="http://www.w3.org/1999/xlink"
     width="1200" height="2161" viewBox="0 0 1200 2161">
<defs>
</defs>
<path d="M734.5806451612904,1909.758064516129 L773.0322580645161,1909.758064516129" stroke="lavender" stroke-width="1" fill="none" />
<path d="M773.0322580645161,1904.9516129032259 L734.5806451612904,1904.9516129032259" stroke="lavender" stroke-width="1" fill="none" />
<path d="M1080.6451612903227,1119.0967741935483 L1080.6451612903227,1157.5483870967741" stroke="lavender" stroke-width="1" fill="none" />
<path d="M426.9677419354839,1157.5483870967741 L426.9677419354839,1119.0967741935483" stroke="lavender" stroke-width="1" fill="none" />
<path d="M542.3225806451613,1465.1612903225805 L619.2258064516129,1465.1612903225805" stroke="lavender" stroke-width="1" fill="none" />
<path d="M619.2258064516129,1465.1612903225805 L619.2258064516129,1426.7096774193549" stroke="lavender" stroke-width="1" fill="none" />
<path d="M619.2258064516129,1426.7096774193549 L542.3225806451613,1426.7096774193549" stroke="lavender" stroke-width="1" fill="none" />
<path d="M542.3225806451613,1426.7096774193549 L542.3225806451613,1465.1612903225805" stroke="lavender" stroke-width="1" fill="none" />
<path d="M388.51612903225805,1119.0967741935483 L388.51612903225805,1157.5483870967741" stroke="yellow" stroke-width="1" fill="none" />
<path d="M542.3225806451613,849.9354838709676 L619.2258064516129,849.9354838709676" stroke="lavender" stroke-width="1" fill="none" />
<path d="M619.2258064516129,849.9354838709676 L619.2258064516129,811.483870967742" stroke="lavender" stroke-width="1" fill="none" />
<path d="M619.2258064516129,811.483870967742 L542.3225806451613,811.483870967742" stroke="lavender" stroke-width="1" fill="none" />
<path d="M542.3225806451613,811.483870967742 L542.3225806451613,849.9354838709676" stroke="lavender" stroke-width="1" fill="none" />
<path d="M888.3870967741937,849.9354838709676 L965.2903225806451,849.9354838709676" stroke="lavender" stroke-width="1" fill="none" />
<path d="M965.2903225806451,849.9354838709676 L965.2903225806451,811.483870967742" stroke="lavender" stroke-width="1" fill="none" />
<path d="M965.2903225806451,811.483870967742 L888.3870967741937,811.483870967742" stroke="lavender" stroke-width="1" fill="none" />
<path d="M888.3870967741937,811.483870967742 L888.3870967741937,849.9354838709676" stroke="lavender" stroke-width="1" fill="none" />
<path d="M888.3870967741937,1465.1612903225805 L965.2903225806451,1465.1612903225805" stroke="lavender" stroke-width="1" fill="none" />
<path d="M965.2903225806451,1465.1612903225805 L965.2903225806451,1426.7096774193549" stroke="lavender" stroke-width="1" fill="none" />
<path d="M965.2903225806451,1426.7096774193549 L888.3870967741937,1426.7096774193549" stroke="lavender" stroke-width="1" fill="none" />
<path d="M888.3870967741937,1426.7096774193549 L888.3870967741937,1465.1612903225805" stroke="lavender" stroke-width="1" fill="none" />
<path d="M734.5806451612904,487.04838709677415 L773.0322580645161,487.04838709677415" stroke="yellow" stroke-width="1" fill="none" />
<path d="M773.0322580645161,482.24193548387075 L734.5806451612904,482.24193548387075" stroke="yellow" stroke-width="1" fill="none" />
<path d="M734.5806451612904,256.33870967741905 L773.0322580645161,256.33870967741905" stroke="lavender" stroke-width="1" fill="none" />
<path d="M773.0322580645161,251.5322580645161 L734.5806451612904,251.5322580645161" stroke="lavender" stroke-width="1" fill="none" />
<path d="M696.1290322580645,580.7741935483871 L811.483870967742,580.7741935483871" stroke="lavender" stroke-width="1" fill="none" />
<path d="M773.0322580645161,234.70967741935465 L734.5806451612904,234.70967741935465" stroke="yellow" stroke-width="1" fill="none" />
<path d="M734.5806451612904,177.0322580645161 L773.0322580645161,177.0322580645161" stroke="yellow" stroke-width="1" fill="none" />
<path d="M773.0322580645161,177.0322580645161 L773.0322580645161,138.58064516129025" stroke="yellow" stroke-width="1" fill="none" />
<path d="M734.5806451612904,138.58064516129025 L734.5806451612904,177.0322580645161" stroke="yellow" stroke-width="1" fill="none" />
<path d="M696.1290322580645,177.0322580645161 L753.8064516129033,196.2580645161288" stroke="yellow" stroke-width="1" fill="none" />
<path d="M676.9032258064516,119.3548387096771 L696.1290322580645,177.0322580645161" stroke="yellow" stroke-width="1" fill="none" />
<path d="M830.7096774193549,119.3548387096771 L811.483870967742,61.67741935483855" stroke="yellow" stroke-width="1" fill="none" />
<path d="M811.483870967742,177.0322580645161 L830.7096774193549,119.3548387096771" stroke="yellow" stroke-width="1" fill="none" />
<path d="M753.8064516129033,196.2580645161288 L811.483870967742,177.0322580645161" stroke="yellow" stroke-width="1" fill="none" />
<path d="M465.4193548387097,734.5806451612902 L1042.1935483870968,734.5806451612902" stroke="yellow" stroke-width="1" fill="none" />
<path d="M1042.1935483870968,734.5806451612902 L1042.1935483870968,1542.0645161290322" stroke="yellow" stroke-width="1" fill="none" />
<path d="M1042.1935483870968,1542.0645161290322 L465.4193548387097,1542.0645161290322" stroke="yellow" stroke-width="1" fill="none" />
<path d="M465.4193548387097,1542.0645161290322 L465.4193548387097,734.5806451612902" stroke="yellow" stroke-width="1" fill="none" />
<path d="M1119.0967741935483,1157.5483870967741 L1119.0967741935483,1119.0967741935483" stroke="yellow" stroke-width="1" fill="none" />
<path d="M811.483870967742,61.67741935483855 L753.8064516129033,42.45161290322585" stroke="yellow" stroke-width="1" fill="none" />
<path d="M753.8064516129033,42.45161290322585 L696.1290322580645,61.67741935483855" stroke="yellow" stroke-width="1" fill="none" />
<path d="M696.1290322580645,61.67741935483855 L676.9032258064516,119.3548387096771" stroke="yellow" stroke-width="1" fill="none" />
<path d="M696.1290322580645,138.58064516129025 L734.5806451612904,138.58064516129025" stroke="yellow" stroke-width="1" fill="none" />
<path d="M773.0322580645161,138.58064516129025 L811.483870967742,138.58064516129025" stroke="yellow" stroke-width="1" fill="none" />
<path d="M811.483870967742,138.58064516129025 L811.483870967742,100.1290322580644" stroke="yellow" stroke-width="1" fill="none" />
<path d="M811.483870967742,100.1290322580644 L773.0322580645161,100.1290322580644" stroke="yellow" stroke-width="1" fill="none" />
<path d="M773.0322580645161,100.1290322580644 L773.0322580645161,61.67741935483855" stroke="yellow" stroke-width="1" fill="none" />
<path d="M773.0322580645161,61.67741935483855 L734.5806451612904,61.67741935483855" stroke="yellow" stroke-width="1" fill="none" />
<path d="M734.5806451612904,61.67741935483855 L734.5806451612904,100.1290322580644" stroke="yellow" stroke-width="1" fill="none" />
<path d="M734.5806451612904,100.1290322580644 L696.1290322580645,100.1290322580644" stroke="yellow" stroke-width="1" fill="none" />
<path d="M696.1290322580645,100.1290322580644 L696.1290322580645,138.58064516129025" stroke="yellow" stroke-width="1" fill="none" />
<path d="M734.5806451612904,138.58064516129025 L773.0322580645161,138.58064516129025" stroke="yellow" stroke-width="1" fill="none" />
<path d="M773.0322580645161,138.58064516129025 L773.0322580645161,100.1290322580644" stroke="yellow" stroke-width="1" fill="none" />
<path d="M773.0322580645161,100.1290322580644 L734.5806451612904,100.1290322580644" stroke="yellow" stroke-width="1" fill="none" />
<path d="M734.5806451612904,100.1290322580644 L734.5806451612904,138.58064516129025" stroke="yellow" stroke-width="1" fill="none" />
<path d="M770.6290322580645,136.17741935483855 L736.983870967742,136.17741935483855" stroke="yellow" stroke-width="1" fill="none" />
<path d="M770.6290322580645,102.5322580645161 L770.6290322580645,136.17741935483855" stroke="yellow" stroke-width="1" fill="none" />
<path d="M736.983870967742,102.5322580645161 L770.6290322580645,102.5322580645161" stroke="yellow" stroke-width="1" fill="none" />
<path d="M736.983870967742,136.17741935483855 L736.983870967742,102.5322580645161" stroke="yellow" stroke-width="1" fill="none" />
<path d="M773.0322580645161,2157.290322580645 L734.5806451612904,2157.290322580645" stroke="red" stroke-width="1" fill="none" />
<path d="M734.5806451612904,2157.290322580645 L657.6774193548388,2157.290322580645" stroke="red" stroke-width="1" fill="none" />
<path d="M657.6774193548388,2157.290322580645 L657.6774193548388,2080.3870967741937" stroke="red" stroke-width="1" fill="none" />
<path d="M657.6774193548388,2080.3870967741937 L696.1290322580645,2080.3870967741937" stroke="red" stroke-width="1" fill="none" />
<path d="M696.1290322580645,2080.3870967741937 L696.1290322580645,1926.5806451612902" stroke="red" stroke-width="1" fill="none" />
<path d="M811.483870967742,1926.5806451612902 L811.483870967742,2080.3870967741937" stroke="red" stroke-width="1" fill="none" />
<path d="M811.483870967742,2080.3870967741937 L849.9354838709678,2080.3870967741937" stroke="red" stroke-width="1" fill="none" />
<path d="M849.9354838709678,2080.3870967741937 L849.9354838709678,2157.290322580645" stroke="red" stroke-width="1" fill="none" />
<path d="M849.9354838709678,2157.290322580645 L773.0322580645161,2157.290322580645" stroke="red" stroke-width="1" fill="none" />
<path d="M696.1290322580645,1926.5806451612902 L734.5806451612904,1926.5806451612902" stroke="red" stroke-width="1" fill="none" />
<path d="M773.0322580645161,1926.5806451612902 L811.483870967742,1926.5806451612902" stroke="red" stroke-width="1" fill="none" />
<path d="M734.5806451612904,1926.5806451612902 L734.5806451612904,1909.758064516129" stroke="red" stroke-width="1" fill="none" />
<path d="M773.0322580645161,1909.758064516129 L773.0322580645161,1926.5806451612902" stroke="red" stroke-width="1" fill="none" />
<path d="M734.5806451612904,1909.758064516129 L734.5806451612904,1904.9516129032259" stroke="red" stroke-width="1" fill="none" />
<path d="M734.5806451612904,1904.9516129032259 L734.5806451612904,1888.1290322580644" stroke="red" stroke-width="1" fill="none" />
<path d="M773.0322580645161,1888.1290322580644 L773.0322580645161,1904.9516129032259" stroke="red" stroke-width="1" fill="none" />
<path d="M773.0322580645161,1904.9516129032259 L773.0322580645161,1909.758064516129" stroke="red" stroke-width="1" fill="none" />
<path d="M734.5806451612904,1888.1290322580644 L696.1290322580645,1888.1290322580644" stroke="red" stroke-width="1" fill="none" />
<path d="M696.1290322580645,1888.1290322580644 L580.7741935483871,1888.1290322580644" stroke="red" stroke-width="1" fill="none" />
<path d="M580.7741935483871,1888.1290322580644 L580.7741935483871,1734.3225806451612" stroke="red" stroke-width="1" fill="none" />
<path d="M580.7741935483871,1734.3225806451612 L580.7741935483871,1695.8709677419354" stroke="red" stroke-width="1" fill="none" />
<path d="M580.7741935483871,1695.8709677419354 L580.7741935483871,1580.516129032258" stroke="red" stroke-width="1" fill="none" />
<path d="M580.7741935483871,1580.516129032258 L426.9677419354839,1580.516129032258" stroke="red" stroke-width="1" fill="none" />
<path d="M426.9677419354839,1580.516129032258 L426.9677419354839,1465.1612903225805" stroke="red" stroke-width="1" fill="none" />
<path d="M426.9677419354839,1465.1612903225805 L426.9677419354839,1426.7096774193549" stroke="red" stroke-width="1" fill="none" />
<path d="M426.9677419354839,1426.7096774193549 L426.9677419354839,1311.3548387096773" stroke="red" stroke-width="1" fill="none" />
<path d="M426.9677419354839,1311.3548387096773 L426.9677419354839,1272.9032258064515" stroke="red" stroke-width="1" fill="none" />
<path d="M426.9677419354839,1272.9032258064515 L426.9677419354839,1157.5483870967741" stroke="red" stroke-width="1" fill="none" />
<path d="M426.9677419354839,1157.5483870967741 L388.51612903225805,1157.5483870967741" stroke="red" stroke-width="1" fill="none" />
<path d="M388.51612903225805,1119.0967741935483 L426.9677419354839,1119.0967741935483" stroke="red" stroke-width="1" fill="none" />
<path d="M426.9677419354839,1119.0967741935483 L426.9677419354839,1003.741935483871" stroke="red" stroke-width="1" fill="none" />
<path d="M426.9677419354839,1003.741935483871 L426.9677419354839,965.2903225806451" stroke="red" stroke-width="1" fill="none" />
<path d="M426.9677419354839,965.2903225806451 L426.9677419354839,849.9354838709676" stroke="red" stroke-width="1" fill="none" />
<path d="M426.9677419354839,849.9354838709676 L426.9677419354839,811.483870967742" stroke="red" stroke-width="1" fill="none" />
<path d="M426.9677419354839,811.483870967742 L426.9677419354839,696.1290322580644" stroke="red" stroke-width="1" fill="none" />
<path d="M426.9677419354839,696.1290322580644 L542.3225806451613,696.1290322580644" stroke="red" stroke-width="1" fill="none" />
<path d="M542.3225806451613,696.1290322580644 L580.7741935483871,696.1290322580644" stroke="red" stroke-width="1" fill="none" />
<path d="M580.7741935483871,696.1290322580644 L696.1290322580645,696.1290322580644" stroke="red" stroke-width="1" fill="none" />
<path d="M696.1290322580645,696.1290322580644 L696.1290322580645,619.2258064516127" stroke="red" stroke-width="1" fill="none" />
<path d="M811.483870967742,696.1290322580644 L926.8387096774194,696.1290322580644" stroke="red" stroke-width="1" fill="none" />
<path d="M926.8387096774194,696.1290322580644 L965.2903225806451,696.1290322580644" stroke="red" stroke-width="1" fill="none" />
<path d="M965.2903225806451,696.1290322580644 L1080.6451612903227,696.1290322580644" stroke="red" stroke-width="1" fill="none" />
<path d="M1080.6451612903227,696.1290322580644 L1080.6451612903227,811.483870967742" stroke="red" stroke-width="1" fill="none" />
<path d="M1080.6451612903227,811.483870967742 L1080.6451612903227,849.9354838709676" stroke="red" stroke-width="1" fill="none" />
<path d="M1080.6451612903227,849.9354838709676 L1080.6451612903227,965.2903225806451" stroke="red" stroke-width="1" fill="none" />
<path d="M1080.6451612903227,965.2903225806451 L1080.6451612903227,1003.741935483871" stroke="red" stroke-width="1" fill="none" />
<path d="M1080.6451612903227,1003.741935483871 L1080.6451612903227,1119.0967741935483" stroke="red" stroke-width="1" fill="none" />
<path d="M1080.6451612903227,1157.5483870967741 L1080.6451612903227,1272.9032258064515" stroke="red" stroke-width="1" fill="none" />
<path d="M1080.6451612903227,1272.9032258064515 L1080.6451612903227,1311.3548387096773" stroke="red" stroke-width="1" fill="none" />
<path d="M1080.6451612903227,1311.3548387096773 L1080.6451612903227,1426.7096774193549" stroke="red" stroke-width="1" fill="none" />
<path d="M1080.6451612903227,1426.7096774193549 L1080.6451612903227,1465.1612903225805" stroke="red" stroke-width="1" fill="none" />
<path d="M1080.6451612903227,1465.1612903225805 L1080.6451612903227,1580.516129032258" stroke="red" stroke-width="1" fill="none" />
<path d="M1080.6451612903227,1580.516129032258 L926.8387096774194,1580.516129032258" stroke="red" stroke-width="1" fill="none" />
<path d="M926.8387096774194,1580.516129032258 L926.8387096774194,1695.8709677419354" stroke="red" stroke-width="1" fill="none" />
<path d="M926.8387096774194,1695.8709677419354 L926.8387096774194,1734.3225806451612" stroke="red" stroke-width="1" fill="none" />
<path d="M926.8387096774194,1734.3225806451612 L926.8387096774194,1888.1290322580644" stroke="red" stroke-width="1" fill="none" />
<path d="M926.8387096774194,1888.1290322580644 L811.483870967742,1888.1290322580644" stroke="red" stroke-width="1" fill="none" />
<path d="M811.483870967742,1888.1290322580644 L773.0322580645161,1888.1290322580644" stroke="red" stroke-width="1" fill="none" />
<path d="M388.51612903225805,1157.5483870967741 L350.06451612903226,1157.5483870967741" stroke="red" stroke-width="1" fill="none" />
<path d="M350.06451612903226,1157.5483870967741 L350.06451612903226,1119.0967741935483" stroke="red" stroke-width="1" fill="none" />
<path d="M350.06451612903226,1119.0967741935483 L311.61290322580646,1119.0967741935483" stroke="red" stroke-width="1" fill="none" />
<path d="M311.61290322580646,1119.0967741935483 L234.70967741935488,1119.0967741935483" stroke="red" stroke-width="1" fill="none" />
<path d="M234.70967741935488,1119.0967741935483 L234.70967741935488,926.8387096774193" stroke="red" stroke-width="1" fill="none" />
<path d="M234.70967741935488,926.8387096774193 L119.35483870967744,926.8387096774193" stroke="red" stroke-width="1" fill="none" />
<path d="M119.35483870967744,926.8387096774193 L119.35483870967744,1157.5483870967741" stroke="red" stroke-width="1" fill="none" />
<path d="M119.35483870967744,1157.5483870967741 L4.0,1157.5483870967741" stroke="red" stroke-width="1" fill="none" />
<path d="M4.0,1157.5483870967741 L4.0,849.9354838709676" stroke="red" stroke-width="1" fill="none" />
<path d="M4.0,849.9354838709676 L273.16129032258067,849.9354838709676" stroke="red" stroke-width="1" fill="none" />
<path d="M273.16129032258067,849.9354838709676 L273.16129032258067,696.1290322580644" stroke="red" stroke-width="1" fill="none" />
<path d="M273.16129032258067,696.1290322580644 L350.06451612903226,696.1290322580644" stroke="red" stroke-width="1" fill="none" />
<path d="M350.06451612903226,696.1290322580644 L350.06451612903226,1042.1935483870966" stroke="red" stroke-width="1" fill="none" />
<path d="M350.06451612903226,1042.1935483870966 L388.51612903225805,1042.1935483870966" stroke="red" stroke-width="1" fill="none" />
<path d="M388.51612903225805,1042.1935483870966 L388.51612903225805,1119.0967741935483" stroke="red" stroke-width="1" fill="none" />
<path d="M542.3225806451613,1311.3548387096773 L619.2258064516129,1311.3548387096773" stroke="red" stroke-width="1" fill="none" />
<path d="M619.2258064516129,1311.3548387096773 L619.2258064516129,1272.9032258064515" stroke="red" stroke-width="1" fill="none" />
<path d="M619.2258064516129,1272.9032258064515 L542.3225806451613,1272.9032258064515" stroke="red" stroke-width="1" fill="none" />
<path d="M542.3225806451613,1272.9032258064515 L542.3225806451613,1311.3548387096773" stroke="red" stroke-width="1" fill="none" />
<path d="M542.3225806451613,1157.5483870967741 L619.2258064516129,1157.5483870967741" stroke="red" stroke-width="1" fill="none" />
<path d="M619.2258064516129,1157.5483870967741 L619.2258064516129,1119.0967741935483" stroke="red" stroke-width="1" fill="none" />
<path d="M619.2258064516129,1119.0967741935483 L542.3225806451613,1119.0967741935483" stroke="red" stroke-width="1" fill="none" />
<path d="M542.3225806451613,1119.0967741935483 L542.3225806451613,1157.5483870967741" stroke="red" stroke-width="1" fill="none" />
<path d="M542.3225806451613,1003.741935483871 L619.2258064516129,1003.741935483871" stroke="red" stroke-width="1" fill="none" />
<path d="M619.2258064516129,1003.741935483871 L619.2258064516129,965.2903225806451" stroke="red" stroke-width="1" fill="none" />
<path d="M619.2258064516129,965.2903225806451 L542.3225806451613,965.2903225806451" stroke="red" stroke-width="1" fill="none" />
<path d="M542.3225806451613,965.2903225806451 L542.3225806451613,1003.741935483871" stroke="red" stroke-width="1" fill="none" />
<path d="M888.3870967741937,1003.741935483871 L965.2903225806451,1003.741935483871" stroke="red" stroke-width="1" fill="none" />
<path d="M965.2903225806451,1003.741935483871 L965.2903225806451,965.2903225806451" stroke="red" stroke-width="1" fill="none" />
<path d="M965.2903225806451,965.2903225806451 L888.3870967741937,965.2903225806451" stroke="red" stroke-width="1" fill="none" />
<path d="M888.3870967741937,965.2903225806451 L888.3870967741937,1003.741935483871" stroke="red" stroke-width="1" fill="none" />
<path d="M888.3870967741937,1311.3548387096773 L965.2903225806451,1311.3548387096773" stroke="red" stroke-width="1" fill="none" />
<path d="M965.2903225806451,1311.3548387096773 L965.2903225806451,1272.9032258064515" stroke="red" stroke-width="1" fill="none" />
<path d="M965.2903225806451,1272.9032258064515 L888.3870967741937,1272.9032258064515" stroke="red" stroke-width="1" fill="none" />
<path d="M888.3870967741937,1272.9032258064515 L888.3870967741937,1311.3548387096773" stroke="red" stroke-width="1" fill="none" />
<path d="M888.3870967741937,1157.5483870967741 L965.2903225806451,1157.5483870967741" stroke="red" stroke-width="1" fill="none" />
<path d="M965.2903225806451,1157.5483870967741 L965.2903225806451,1119.0967741935483" stroke="red" stroke-width="1" fill="none" />
<path d="M965.2903225806451,1119.0967741935483 L888.3870967741937,1119.0967741935483" stroke="red" stroke-width="1" fill="none" />
<path d="M888.3870967741937,1119.0967741935483 L888.3870967741937,1157.5483870967741" stroke="red" stroke-width="1" fill="none" />
<path d="M696.1290322580645,619.2258064516127 L657.6774193548388,619.2258064516127" stroke="red" stroke-width="1" fill="none" />
<path d="M657.6774193548388,619.2258064516127 L657.6774193548388,580.7741935483871" stroke="red" stroke-width="1" fill="none" />
<path d="M657.6774193548388,580.7741935483871 L696.1290322580645,580.7741935483871" stroke="red" stroke-width="1" fill="none" />
<path d="M696.1290322580645,580.7741935483871 L696.1290322580645,503.8709677419356" stroke="red" stroke-width="1" fill="none" />
<path d="M696.1290322580645,503.8709677419356 L734.5806451612904,503.8709677419356" stroke="red" stroke-width="1" fill="none" />
<path d="M773.0322580645161,503.8709677419356 L811.483870967742,503.8709677419356" stroke="red" stroke-width="1" fill="none" />
<path d="M811.483870967742,503.8709677419356 L811.483870967742,580.7741935483871" stroke="red" stroke-width="1" fill="none" />
<path d="M811.483870967742,580.7741935483871 L849.9354838709678,580.7741935483871" stroke="red" stroke-width="1" fill="none" />
<path d="M849.9354838709678,580.7741935483871 L849.9354838709678,619.2258064516127" stroke="red" stroke-width="1" fill="none" />
<path d="M849.9354838709678,619.2258064516127 L811.483870967742,619.2258064516127" stroke="red" stroke-width="1" fill="none" />
<path d="M811.483870967742,619.2258064516127 L811.483870967742,696.1290322580644" stroke="red" stroke-width="1" fill="none" />
<path d="M734.5806451612904,465.41935483870975 L696.1290322580645,465.41935483870975" stroke="red" stroke-width="1" fill="none" />
<path d="M696.1290322580645,465.41935483870975 L696.1290322580645,426.9677419354839" stroke="red" stroke-width="1" fill="none" />
<path d="M696.1290322580645,426.9677419354839 L696.1290322580645,388.51612903225805" stroke="red" stroke-width="1" fill="none" />
<path d="M696.1290322580645,388.51612903225805 L619.2258064516129,388.51612903225805" stroke="red" stroke-width="1" fill="none" />
<path d="M619.2258064516129,388.51612903225805 L619.2258064516129,350.0645161290322" stroke="red" stroke-width="1" fill="none" />
<path d="M619.2258064516129,350.0645161290322 L696.1290322580645,350.0645161290322" stroke="red" stroke-width="1" fill="none" />
<path d="M696.1290322580645,350.0645161290322 L696.1290322580645,273.1612903225805" stroke="red" stroke-width="1" fill="none" />
<path d="M696.1290322580645,273.1612903225805 L734.5806451612904,273.1612903225805" stroke="red" stroke-width="1" fill="none" />
<path d="M773.0322580645161,273.1612903225805 L811.483870967742,273.1612903225805" stroke="red" stroke-width="1" fill="none" />
<path d="M811.483870967742,273.1612903225805 L811.483870967742,350.0645161290322" stroke="red" stroke-width="1" fill="none" />
<path d="M811.483870967742,350.0645161290322 L888.3870967741937,350.0645161290322" stroke="red" stroke-width="1" fill="none" />
<path d="M888.3870967741937,350.0645161290322 L888.3870967741937,388.51612903225805" stroke="red" stroke-width="1" fill="none" />
<path d="M888.3870967741937,388.51612903225805 L811.483870967742,388.51612903225805" stroke="red" stroke-width="1" fill="none" />
<path d="M811.483870967742,388.51612903225805 L811.483870967742,426.9677419354839" stroke="red" stroke-width="1" fill="none" />
<path d="M811.483870967742,426.9677419354839 L811.483870967742,465.41935483870975" stroke="red" stroke-width="1" fill="none" />
<path d="M811.483870967742,465.41935483870975 L773.0322580645161,465.41935483870975" stroke="red" stroke-width="1" fill="none" />
<path d="M734.5806451612904,234.70967741935465 L696.1290322580645,234.70967741935465" stroke="red" stroke-width="1" fill="none" />
<path d="M696.1290322580645,234.70967741935465 L619.2258064516129,119.3548387096771" stroke="red" stroke-width="1" fill="none" />
<path d="M619.2258064516129,119.3548387096771 L696.1290322580645,4.0" stroke="red" stroke-width="1" fill="none" />
<path d="M696.1290322580645,4.0 L811.483870967742,4.0" stroke="red" stroke-width="1" fill="none" />
<path d="M811.483870967742,4.0 L888.3870967741937,119.3548387096771" stroke="red" stroke-width="1" fill="none" />
<path d="M888.3870967741937,119.3548387096771 L811.483870967742,234.70967741935465" stroke="red" stroke-width="1" fill="none" />
<path d="M811.483870967742,234.70967741935465 L773.0322580645161,234.70967741935465" stroke="red" stroke-width="1" fill="none" />
<path d="M734.5806451612904,503.8709677419356 L734.5806451612904,487.04838709677415" stroke="red" stroke-width="1" fill="none" />
<path d="M773.0322580645161,487.04838709677415 L773.0322580645161,503.8709677419356" stroke="red" stroke-width="1" fill="none" />
<path d="M734.5806451612904,487.04838709677415 L734.5806451612904,482.24193548387075" stroke="red" stroke-width="1" fill="none" />
<path d="M734.5806451612904,482.24193548387075 L734.5806451612904,465.41935483870975" stroke="red" stroke-width="1" fill="none" />
<path d="M773.0322580645161,465.41935483870975 L773.0322580645161,482.24193548387075" stroke="red" stroke-width="1" fill="none" />
<path d="M773.0322580645161,482.24193548387075 L773.0322580645161,487.04838709677415" stroke="red" stroke-width="1" fill="none" />
<path d="M734.5806451612904,273.1612903225805 L734.5806451612904,256.33870967741905" stroke="red" stroke-width="1" fill="none" />
<path d="M773.0322580645161,256.33870967741905 L773.0322580645161,273.1612903225805" stroke="red" stroke-width="1" fill="none" />
<path d="M734.5806451612904,256.33870967741905 L734.5806451612904,251.5322580645161" stroke="red" stroke-width="1" fill="none" />
<path d="M734.5806451612904,251.5322580645161 L734.5806451612904,234.70967741935465" stroke="red" stroke-width="1" fill="none" />
<path d="M773.0322580645161,234.70967741935465 L773.0322580645161,251.5322580645161" stroke="red" stroke-width="1" fill="none" />
<path d="M773.0322580645161,251.5322580645161 L773.0322580645161,256.33870967741905" stroke="red" stroke-width="1" fill="none" />
<path d="M1080.6451612903227,1119.0967741935483 L1119.0967741935483,1119.0967741935483" stroke="red" stroke-width="1" fill="none" />
<path d="M1119.0967741935483,1119.0967741935483 L1119.0967741935483,1080.6451612903224" stroke="red" stroke-width="1" fill="none" />
<path d="M1119.0967741935483,1080.6451612903224 L1196.0,1080.6451612903224" stroke="red" stroke-width="1" fill="none" />
<path d="M1196.0,1080.6451612903224 L1196.0,1119.0967741935483" stroke="red" stroke-width="1" fill="none" />
<path d="M1196.0,1119.0967741935483 L1196.0,1157.5483870967741" stroke="red" stroke-width="1" fill="none" />
<path d="M1196.0,1157.5483870967741 L1196.0,1196.0" stroke="red" stroke-width="1" fill="none" />
<path d="M1196.0,1196.0 L1119.0967741935483,1196.0" stroke="red" stroke-width="1" fill="none" />
<path d="M1119.0967741935483,1196.0 L1119.0967741935483,1157.5483870967741" stroke="red" stroke-width="1" fill="none" />
<path d="M1119.0967741935483,1157.5483870967741 L1080.6451612903227,1157.5483870967741" stroke="red" stroke-width="1" fill="none" />
<path d="M763.4193548387098,109.74193548387075 L744.1935483870968,109.74193548387075" stroke="lavender" stroke-width="1" fill="none" />
<path d="M763.4193548387098,128.9677419354839 L763.4193548387098,109.74193548387075" stroke="red" stroke-width="1" fill="none" />
<path d="M744.1935483870968,128.9677419354839 L763.4193548387098,128.9677419354839" stroke="red" stroke-width="1" fill="none" />
<path d="M744.1935483870968,109.74193548387075 L744.1935483870968,128.9677419354839" stroke="red" stroke-width="1" fill="none" />
</svg>