<?xml version="1.0" encoding="UTF-8"?>
<svg xmlns="http://www.w3.org/2000/svg" xmlns:xlink="http://www.w3.org/1999/xlink"
     width="1200" height="985" viewBox="0 0 1200 985">
<defs>
</defs>
<path d="M701.9688929551693,963.7072278133576 L684.51967063129,963.7072278133576" stroke="yellow" stroke-width="1" fill="none" />
<path d="M649.6212259835315,963.7072278133576 L632.1720036596523,963.7072278133576" stroke="yellow" stroke-width="1" fill="none" />
<path d="M492.5782250686185,963.7072278133576 L475.12900274473924,963.7072278133576" stroke="yellow" stroke-width="1" fill="none" />
<path d="M544.9258920402561,963.7072278133576 L527.4766697163769,963.7072278133576" stroke="yellow" stroke-width="1" fill="none" />
<path d="M597.2735590118939,963.7072278133576 L579.8243366880147,963.7072278133576" stroke="yellow" stroke-width="1" fill="none" />
<path d="M1033.5041171088747,632.1720036596522 L1033.5041171088747,649.6212259835315" stroke="yellow" stroke-width="1" fill="none" />
<path d="M1016.0548947849954,684.51967063129 L998.6056724611161,684.51967063129" stroke="lavender" stroke-width="1" fill="none" />
<path d="M1068.402561756633,440.2305580969807 L1068.402561756633,457.67978042085997" stroke="yellow" stroke-width="1" fill="none" />
<path d="M527.4766697163769,265.7383348581884 L527.4766697163769,248.2891125343092" stroke="lavender" stroke-width="1" fill="none" />
<path d="M510.0274473924977,248.2891125343092 L510.0274473924977,265.7383348581884" stroke="yellow" stroke-width="1" fill="none" />
<path d="M554.7410795974382,876.4611161939615 L554.7410795974382,859.0118938700823" stroke="lavender" stroke-width="1" fill="none" />
<path d="M552.5599268069534,859.0118938700823 L552.5599268069534,876.4611161939615" stroke="lavender" stroke-width="1" fill="none" />
<path d="M624.5379688929552,876.4611161939615 L624.5379688929552,859.0118938700823" stroke="lavender" stroke-width="1" fill="none" />
<path d="M622.3568161024702,859.0118938700823 L622.3568161024702,876.4611161939615" stroke="lavender" stroke-width="1" fill="none" />
<path d="M554.7410795974382,789.2150045745653 L554.7410795974382,771.765782250686" stroke="lavender" stroke-width="1" fill="none" />
<path d="M552.5599268069534,771.765782250686 L552.5599268069534,789.2150045745653" stroke="lavender" stroke-width="1" fill="none" />
<path d="M624.5379688929552,789.2150045745653 L624.5379688929552,771.765782250686" stroke="lavender" stroke-width="1" fill="none" />
<path d="M622.3568161024702,771.765782250686 L622.3568161024702,789.2150045745653" stroke="lavender" stroke-width="1" fill="none" />
<path d="M579.8243366880147,746.6825251601097 L597.2735590118939,746.6825251601097" stroke="lavender" stroke-width="1" fill="none" />
<path d="M597.2735590118939,744.5013723696247 L579.8243366880147,744.5013723696247" stroke="lavender" stroke-width="1" fill="none" />
<path d="M579.8243366880147,537.2918572735589 L597.2735590118939,537.2918572735589" stroke="lavender" stroke-width="1" fill="none" />
<path d="M597.2735590118939,535.1107044830741 L579.8243366880147,535.1107044830741" stroke="lavender" stroke-width="1" fill="none" />
<path d="M579.8243366880147,362.79963403476665 L597.2735590118939,362.79963403476665" stroke="lavender" stroke-width="1" fill="none" />
<path d="M597.2735590118939,360.6184812442817 L579.8243366880147,360.6184812442817" stroke="lavender" stroke-width="1" fill="none" />
<path d="M868.8270814272644,649.6212259835315 L868.8270814272644,632.1720036596522" stroke="lavender" stroke-width="1" fill="none" />
<path d="M866.6459286367794,632.1720036596522 L866.6459286367794,649.6212259835315" stroke="lavender" stroke-width="1" fill="none" />
<path d="M746.6825251601098,457.67978042085997 L746.6825251601098,440.2305580969807" stroke="lavender" stroke-width="1" fill="none" />
<path d="M744.5013723696248,440.2305580969807 L744.5013723696248,457.67978042085997" stroke="lavender" stroke-width="1" fill="none" />
<path d="M921.174748398902,457.67978042085997 L921.174748398902,440.2305580969807" stroke="lavender" stroke-width="1" fill="none" />
<path d="M918.9935956084172,440.2305580969807 L918.9935956084172,457.67978042085997" stroke="lavender" stroke-width="1" fill="none" />
<path d="M614.7227813357731,248.2891125343092 L619.0850869167429,257.0137236962488" stroke="yellow" stroke-width="1" fill="none" />
<path d="M619.0850869167429,257.0137236962488 L614.7227813357731,265.7383348581884" stroke="yellow" stroke-width="1" fill="none" />
<path d="M579.8243366880147,135.9597438243366 L597.2735590118939,135.9597438243366" stroke="lavender" stroke-width="1" fill="none" />
<path d="M597.2735590118939,133.77859103385174 L579.8243366880147,133.77859103385174" stroke="lavender" stroke-width="1" fill="none" />
<path d="M694.334858188472,73.79688929551685 L694.334858188472,56.347666971637636" stroke="lavender" stroke-width="1" fill="none" />
<path d="M692.1537053979872,56.347666971637636 L692.1537053979872,73.79688929551685" stroke="lavender" stroke-width="1" fill="none" />
<path d="M484.9441903019213,73.79688929551685 L484.9441903019213,56.347666971637636" stroke="lavender" stroke-width="1" fill="none" />
<path d="M482.76303751143644,56.347666971637636 L482.76303751143644,73.79688929551685" stroke="lavender" stroke-width="1" fill="none" />
<path d="M258.1043000914913,178.49222323879223 L258.1043000914913,161.04300091491302" stroke="lavender" stroke-width="1" fill="none" />
<path d="M255.9231473010064,161.04300091491302 L255.9231473010064,178.49222323879223" stroke="lavender" stroke-width="1" fill="none" />
<path d="M161.04300091491314,108.69533394327533 L178.49222323879235,108.69533394327533" stroke="lavender" stroke-width="1" fill="none" />
<path d="M178.49222323879235,91.24611161939612 L161.04300091491314,91.24611161939612" stroke="yellow" stroke-width="1" fill="none" />
<path d="M161.04300091491314,240.655077767612 L178.49222323879235,240.655077767612" stroke="lavender" stroke-width="1" fill="none" />
<path d="M178.49222323879235,238.47392497712713 L161.04300091491314,238.47392497712713" stroke="lavender" stroke-width="1" fill="none" />
<path d="M161.04300091491314,362.79963403476665 L178.49222323879235,362.79963403476665" stroke="lavender" stroke-width="1" fill="none" />
<path d="M178.49222323879235,360.6184812442817 L161.04300091491314,360.6184812442817" stroke="lavender" stroke-width="1" fill="none" />
<path d="M161.04300091491314,537.2918572735589 L178.49222323879235,537.2918572735589" stroke="lavender" stroke-width="1" fill="none" />
<path d="M178.49222323879235,535.1107044830741 L161.04300091491314,535.1107044830741" stroke="lavender" stroke-width="1" fill="none" />
<path d="M83.61207685269903,457.67978042085997 L83.61207685269903,440.2305580969807" stroke="lavender" stroke-width="1" fill="none" />
<path d="M81.4309240622141,440.2305580969807 L81.4309240622141,457.67978042085997" stroke="lavender" stroke-width="1" fill="none" />
<path d="M318.08600182982616,719.4181152790484 L300.63677950594695,719.4181152790484" stroke="lavender" stroke-width="1" fill="none" />
<path d="M230.83989021042999,789.2150045745653 L213.39066788655077,789.2150045745653" stroke="lavender" stroke-width="1" fill="none" />
<path d="M213.39066788655077,806.6642268984446 L230.83989021042999,806.6642268984446" stroke="yellow" stroke-width="1" fill="none" />
<path d="M300.63677950594695,736.8673376029276 L318.08600182982616,736.8673376029276" stroke="yellow" stroke-width="1" fill="none" />
<path d="M293.0027447392498,701.9688929551692 L293.0027447392498,684.51967063129" stroke="lavender" stroke-width="1" fill="none" />
<path d="M290.8215919487649,684.51967063129 L290.8215919487649,701.9688929551692" stroke="lavender" stroke-width="1" fill="none" />
<path d="M415.1473010064044,701.9688929551692 L415.1473010064044,684.51967063129" stroke="lavender" stroke-width="1" fill="none" />
<path d="M412.9661482159195,684.51967063129 L412.9661482159195,701.9688929551692" stroke="lavender" stroke-width="1" fill="none" />
<path d="M188.30741079597442,771.765782250686 L188.30741079597442,754.3165599268068" stroke="lavender" stroke-width="1" fill="none" />
<path d="M186.1262580054895,754.3165599268068 L186.1262580054895,771.765782250686" stroke="lavender" stroke-width="1" fill="none" />
<path d="M21.449222323879326,275.5535224153705 L38.89844464775854,275.5535224153705" stroke="lavender" stroke-width="1" fill="none" />
<path d="M38.89844464775854,273.37236962488555 L21.449222323879326,273.37236962488555" stroke="lavender" stroke-width="1" fill="none" />
<path d="M998.6056724611161,685.6102470265324 L1016.0548947849954,685.6102470265324" stroke="yellow" stroke-width="1" fill="none" />
<path d="M1055.3156450137237,712.8746569075937 L1055.3156450137237,735.7767612076851" stroke="yellow" stroke-width="1" fill="none" />
<path d="M1048.772186642269,745.5919487648672 L1035.6852698993596,764.1317474839889" stroke="yellow" stroke-width="1" fill="none" />
<path d="M990.971637694419,773.946935041171 L966.9789569990851,763.0411710887465" stroke="yellow" stroke-width="1" fill="none" />
<path d="M1048.772186642269,745.5919487648672 L1044.409881061299,742.3202195791399" stroke="yellow" stroke-width="1" fill="none" />
<path d="M1044.409881061299,742.3202195791399 L1035.6852698993596,739.0484903934125" stroke="yellow" stroke-width="1" fill="none" />
<path d="M1035.6852698993596,739.0484903934125 L1025.8700823421775,739.0484903934125" stroke="yellow" stroke-width="1" fill="none" />
<path d="M1025.8700823421775,739.0484903934125 L1017.1454711802378,734.6861848124427" stroke="yellow" stroke-width="1" fill="none" />
<path d="M1017.1454711802378,734.6861848124427 L1009.5114364135407,723.7804208600182" stroke="yellow" stroke-width="1" fill="none" />
<path d="M1009.5114364135407,723.7804208600182 L1007.3302836230557,712.8746569075937" stroke="yellow" stroke-width="1" fill="none" />
<path d="M1007.3302836230557,712.8746569075937 L1009.5114364135407,705.2406221408966" stroke="yellow" stroke-width="1" fill="none" />
<path d="M1009.5114364135407,705.2406221408966 L995.3339432753887,700.8783165599267" stroke="yellow" stroke-width="1" fill="none" />
<path d="M995.3339432753887,700.8783165599267 L990.971637694419,710.6935041171088" stroke="yellow" stroke-width="1" fill="none" />
<path d="M990.971637694419,710.6935041171088 L990.971637694419,724.8709972552606" stroke="yellow" stroke-width="1" fill="none" />
<path d="M990.971637694419,724.8709972552606 L996.4245196706313,741.2296431838975" stroke="yellow" stroke-width="1" fill="none" />
<path d="M996.4245196706313,741.2296431838975 L1008.4208600182982,757.5882891125342" stroke="yellow" stroke-width="1" fill="none" />
<path d="M1008.4208600182982,757.5882891125342 L1023.6889295516926,759.7694419030191" stroke="yellow" stroke-width="1" fill="none" />
<path d="M1023.6889295516926,759.7694419030191 L1033.5041171088747,759.7694419030191" stroke="yellow" stroke-width="1" fill="none" />
<path d="M1033.5041171088747,759.7694419030191 L1035.6852698993596,764.1317474839889" stroke="yellow" stroke-width="1" fill="none" />
<path d="M1044.409881061299,742.3202195791399 L1033.5041171088747,759.7694419030191" stroke="yellow" stroke-width="1" fill="none" />
<path d="M1035.6852698993596,739.0484903934125 L1023.6889295516926,759.7694419030191" stroke="yellow" stroke-width="1" fill="none" />
<path d="M1025.8700823421775,739.0484903934125 L1008.4208600182982,757.5882891125342" stroke="yellow" stroke-width="1" fill="none" />
<path d="M1017.1454711802378,734.6861848124427 L996.4245196706313,741.2296431838975" stroke="yellow" stroke-width="1" fill="none" />
<path d="M1009.5114364135407,723.7804208600182 L990.971637694419,724.8709972552606" stroke="yellow" stroke-width="1" fill="none" />
<path d="M1007.3302836230557,712.8746569075937 L990.971637694419,710.6935041171088" stroke="yellow" stroke-width="1" fill="none" />
<path d="M1118.5690759377858,757.5882891125342 L1126.2031107044832,736.8673376029276" stroke="yellow" stroke-width="1" fill="none" />
<path d="M1116.387923147301,768.4940530649587 L1108.7538883806037,789.2150045745653" stroke="yellow" stroke-width="1" fill="none" />
<path d="M1122.9313815187556,764.1317474839889 L1143.6523330283621,771.765782250686" stroke="yellow" stroke-width="1" fill="none" />
<path d="M1112.0256175663312,761.950594693504 L1091.3046660567245,754.3165599268068" stroke="yellow" stroke-width="1" fill="none" />
<path d="M1108.7538883806037,736.8673376029276 L1116.387923147301,757.5882891125342" stroke="yellow" stroke-width="1" fill="none" />
<path d="M1126.2031107044832,789.2150045745653 L1118.5690759377858,768.4940530649587" stroke="yellow" stroke-width="1" fill="none" />
<path d="M1143.6523330283621,754.3165599268068 L1122.9313815187556,761.950594693504" stroke="yellow" stroke-width="1" fill="none" />
<path d="M1091.3046660567245,771.765782250686 L1112.0256175663312,764.1317474839889" stroke="yellow" stroke-width="1" fill="none" />
<path d="M300.63677950594695,754.3165599268068 L300.63677950594695,736.8673376029276" stroke="lavender" stroke-width="1" fill="none" />
<path d="M283.18755718206774,736.8673376029276 L283.18755718206774,754.3165599268068" stroke="yellow" stroke-width="1" fill="none" />
<path d="M544.9258920402561,893.9103385178407 L475.12900274473924,893.9103385178407" stroke="red" stroke-width="1" fill="none" />
<path d="M475.12900274473924,893.9103385178407 L475.12900274473924,841.562671546203" stroke="red" stroke-width="1" fill="none" />
<path d="M475.12900274473924,841.562671546203 L544.9258920402561,841.562671546203" stroke="red" stroke-width="1" fill="none" />
<path d="M544.9258920402561,841.562671546203 L544.9258920402561,859.0118938700823" stroke="red" stroke-width="1" fill="none" />
<path d="M544.9258920402561,859.0118938700823 L552.5599268069534,859.0118938700823" stroke="red" stroke-width="1" fill="none" />
<path d="M554.7410795974382,859.0118938700823 L562.3751143641354,859.0118938700823" stroke="red" stroke-width="1" fill="none" />
<path d="M562.3751143641354,859.0118938700823 L562.3751143641354,789.2150045745653" stroke="red" stroke-width="1" fill="none" />
<path d="M544.9258920402561,789.2150045745653 L544.9258920402561,824.1134492223238" stroke="red" stroke-width="1" fill="none" />
<path d="M544.9258920402561,824.1134492223238 L475.12900274473924,824.1134492223238" stroke="red" stroke-width="1" fill="none" />
<path d="M475.12900274473924,824.1134492223238 L475.12900274473924,754.3165599268068" stroke="red" stroke-width="1" fill="none" />
<path d="M475.12900274473924,754.3165599268068 L544.9258920402561,754.3165599268068" stroke="red" stroke-width="1" fill="none" />
<path d="M544.9258920402561,754.3165599268068 L544.9258920402561,771.765782250686" stroke="red" stroke-width="1" fill="none" />
<path d="M562.3751143641354,771.765782250686 L562.3751143641354,754.3165599268068" stroke="red" stroke-width="1" fill="none" />
<path d="M562.3751143641354,754.3165599268068 L579.8243366880147,754.3165599268068" stroke="red" stroke-width="1" fill="none" />
<path d="M579.8243366880147,736.8673376029276 L562.3751143641354,736.8673376029276" stroke="red" stroke-width="1" fill="none" />
<path d="M614.7227813357731,736.8673376029276 L597.2735590118939,736.8673376029276" stroke="red" stroke-width="1" fill="none" />
<path d="M597.2735590118939,754.3165599268068 L614.7227813357731,754.3165599268068" stroke="red" stroke-width="1" fill="none" />
<path d="M614.7227813357731,754.3165599268068 L614.7227813357731,771.765782250686" stroke="red" stroke-width="1" fill="none" />
<path d="M632.1720036596523,771.765782250686 L632.1720036596523,754.3165599268068" stroke="red" stroke-width="1" fill="none" />
<path d="M632.1720036596523,754.3165599268068 L701.9688929551693,754.3165599268068" stroke="red" stroke-width="1" fill="none" />
<path d="M701.9688929551693,754.3165599268068 L701.9688929551693,824.1134492223238" stroke="red" stroke-width="1" fill="none" />
<path d="M701.9688929551693,824.1134492223238 L632.1720036596523,824.1134492223238" stroke="red" stroke-width="1" fill="none" />
<path d="M632.1720036596523,824.1134492223238 L632.1720036596523,789.2150045745653" stroke="red" stroke-width="1" fill="none" />
<path d="M614.7227813357731,789.2150045745653 L614.7227813357731,859.0118938700823" stroke="red" stroke-width="1" fill="none" />
<path d="M632.1720036596523,859.0118938700823 L632.1720036596523,841.562671546203" stroke="red" stroke-width="1" fill="none" />
<path d="M632.1720036596523,841.562671546203 L701.9688929551693,841.562671546203" stroke="red" stroke-width="1" fill="none" />
<path d="M701.9688929551693,841.562671546203 L701.9688929551693,893.9103385178407" stroke="red" stroke-width="1" fill="none" />
<path d="M701.9688929551693,893.9103385178407 L632.1720036596523,893.9103385178407" stroke="red" stroke-width="1" fill="none" />
<path d="M632.1720036596523,893.9103385178407 L632.1720036596523,876.4611161939615" stroke="red" stroke-width="1" fill="none" />
<path d="M614.7227813357731,876.4611161939615 L614.7227813357731,911.3595608417199" stroke="red" stroke-width="1" fill="none" />
<path d="M614.7227813357731,911.3595608417199 L701.9688929551693,911.3595608417199" stroke="red" stroke-width="1" fill="none" />
<path d="M701.9688929551693,911.3595608417199 L701.9688929551693,963.7072278133576" stroke="red" stroke-width="1" fill="none" />
<path d="M684.51967063129,963.7072278133576 L649.6212259835315,963.7072278133576" stroke="red" stroke-width="1" fill="none" />
<path d="M544.9258920402561,876.4611161939615 L544.9258920402561,893.9103385178407" stroke="red" stroke-width="1" fill="none" />
<path d="M552.5599268069534,876.4611161939615 L544.9258920402561,876.4611161939615" stroke="red" stroke-width="1" fill="none" />
<path d="M562.3751143641354,876.4611161939615 L554.7410795974382,876.4611161939615" stroke="red" stroke-width="1" fill="none" />
<path d="M562.3751143641354,911.3595608417199 L562.3751143641354,876.4611161939615" stroke="red" stroke-width="1" fill="none" />
<path d="M475.12900274473924,911.3595608417199 L562.3751143641354,911.3595608417199" stroke="red" stroke-width="1" fill="none" />
<path d="M475.12900274473924,963.7072278133576 L475.12900274473924,911.3595608417199" stroke="red" stroke-width="1" fill="none" />
<path d="M527.4766697163769,963.7072278133576 L492.5782250686185,963.7072278133576" stroke="red" stroke-width="1" fill="none" />
<path d="M544.9258920402561,963.7072278133576 L544.9258920402561,981.1564501372368" stroke="red" stroke-width="1" fill="none" />
<path d="M544.9258920402561,981.1564501372368 L527.4766697163769,981.1564501372368" stroke="red" stroke-width="1" fill="none" />
<path d="M527.4766697163769,981.1564501372368 L527.4766697163769,963.7072278133576" stroke="red" stroke-width="1" fill="none" />
<path d="M492.5782250686185,963.7072278133576 L492.5782250686185,981.1564501372368" stroke="red" stroke-width="1" fill="none" />
<path d="M492.5782250686185,981.1564501372368 L475.12900274473924,981.1564501372368" stroke="red" stroke-width="1" fill="none" />
<path d="M475.12900274473924,981.1564501372368 L475.12900274473924,963.7072278133576" stroke="red" stroke-width="1" fill="none" />
<path d="M701.9688929551693,963.7072278133576 L701.9688929551693,981.1564501372368" stroke="red" stroke-width="1" fill="none" />
<path d="M701.9688929551693,981.1564501372368 L684.51967063129,981.1564501372368" stroke="red" stroke-width="1" fill="none" />
<path d="M684.51967063129,981.1564501372368 L684.51967063129,963.7072278133576" stroke="red" stroke-width="1" fill="none" />
<path d="M649.6212259835315,963.7072278133576 L649.6212259835315,981.1564501372368" stroke="red" stroke-width="1" fill="none" />
<path d="M649.6212259835315,981.1564501372368 L632.1720036596523,981.1564501372368" stroke="red" stroke-width="1" fill="none" />
<path d="M632.1720036596523,981.1564501372368 L632.1720036596523,963.7072278133576" stroke="red" stroke-width="1" fill="none" />
<path d="M632.1720036596523,963.7072278133576 L597.2735590118939,963.7072278133576" stroke="red" stroke-width="1" fill="none" />
<path d="M579.8243366880147,963.7072278133576 L544.9258920402561,963.7072278133576" stroke="red" stroke-width="1" fill="none" />
<path d="M597.2735590118939,963.7072278133576 L597.2735590118939,981.1564501372368" stroke="red" stroke-width="1" fill="none" />
<path d="M597.2735590118939,981.1564501372368 L579.8243366880147,981.1564501372368" stroke="red" stroke-width="1" fill="none" />
<path d="M579.8243366880147,981.1564501372368 L579.8243366880147,963.7072278133576" stroke="red" stroke-width="1" fill="none" />
<path d="M562.3751143641354,736.8673376029276 L562.3751143641354,544.925892040256" stroke="red" stroke-width="1" fill="none" />
<path d="M562.3751143641354,544.925892040256 L579.8243366880147,544.925892040256" stroke="red" stroke-width="1" fill="none" />
<path d="M597.2735590118939,544.925892040256 L614.7227813357731,544.925892040256" stroke="red" stroke-width="1" fill="none" />
<path d="M614.7227813357731,544.925892040256 L614.7227813357731,736.8673376029276" stroke="red" stroke-width="1" fill="none" />
<path d="M579.8243366880147,527.4766697163768 L544.9258920402561,527.4766697163768" stroke="red" stroke-width="1" fill="none" />
<path d="M544.9258920402561,527.4766697163768 L544.9258920402561,510.0274473924976" stroke="red" stroke-width="1" fill="none" />
<path d="M544.9258920402561,510.0274473924976 L492.5782250686185,510.0274473924976" stroke="red" stroke-width="1" fill="none" />
<path d="M492.5782250686185,510.0274473924976 L475.12900274473924,510.0274473924976" stroke="red" stroke-width="1" fill="none" />
<path d="M475.12900274473924,510.0274473924976 L457.67978042086,510.0274473924976" stroke="red" stroke-width="1" fill="none" />
<path d="M457.67978042086,510.0274473924976 L457.67978042086,491.48764867337593" stroke="red" stroke-width="1" fill="none" />
<path d="M457.67978042086,491.48764867337593 L457.67978042086,475.1290027447392" stroke="red" stroke-width="1" fill="none" />
<path d="M457.67978042086,475.1290027447392 L457.67978042086,422.7813357731015" stroke="red" stroke-width="1" fill="none" />
<path d="M457.67978042086,422.7813357731015 L457.67978042086,405.3321134492222" stroke="red" stroke-width="1" fill="none" />
<path d="M457.67978042086,405.3321134492222 L457.67978042086,387.882891125343" stroke="red" stroke-width="1" fill="none" />
<path d="M457.67978042086,387.882891125343 L510.0274473924977,387.882891125343" stroke="red" stroke-width="1" fill="none" />
<path d="M510.0274473924977,387.882891125343 L527.4766697163769,387.882891125343" stroke="red" stroke-width="1" fill="none" />
<path d="M527.4766697163769,387.882891125343 L544.9258920402561,387.882891125343" stroke="red" stroke-width="1" fill="none" />
<path d="M544.9258920402561,387.882891125343 L544.9258920402561,370.4336688014638" stroke="red" stroke-width="1" fill="none" />
<path d="M544.9258920402561,370.4336688014638 L562.3751143641354,370.4336688014638" stroke="red" stroke-width="1" fill="none" />
<path d="M562.3751143641354,370.4336688014638 L579.8243366880147,370.4336688014638" stroke="red" stroke-width="1" fill="none" />
<path d="M597.2735590118939,370.4336688014638 L614.7227813357731,370.4336688014638" stroke="red" stroke-width="1" fill="none" />
<path d="M614.7227813357731,370.4336688014638 L632.1720036596523,370.4336688014638" stroke="red" stroke-width="1" fill="none" />
<path d="M632.1720036596523,370.4336688014638 L632.1720036596523,387.882891125343" stroke="red" stroke-width="1" fill="none" />
<path d="M632.1720036596523,387.882891125343 L649.6212259835315,387.882891125343" stroke="red" stroke-width="1" fill="none" />
<path d="M649.6212259835315,387.882891125343 L667.0704483074107,387.882891125343" stroke="red" stroke-width="1" fill="none" />
<path d="M667.0704483074107,387.882891125343 L719.4181152790485,387.882891125343" stroke="red" stroke-width="1" fill="none" />
<path d="M719.4181152790485,387.882891125343 L719.4181152790485,405.3321134492222" stroke="red" stroke-width="1" fill="none" />
<path d="M719.4181152790485,405.3321134492222 L719.4181152790485,422.7813357731015" stroke="red" stroke-width="1" fill="none" />
<path d="M719.4181152790485,422.7813357731015 L736.8673376029277,422.7813357731015" stroke="red" stroke-width="1" fill="none" />
<path d="M736.8673376029277,422.7813357731015 L736.8673376029277,440.2305580969807" stroke="red" stroke-width="1" fill="none" />
<path d="M736.8673376029277,457.67978042085997 L736.8673376029277,475.1290027447392" stroke="red" stroke-width="1" fill="none" />
<path d="M736.8673376029277,475.1290027447392 L719.4181152790485,475.1290027447392" stroke="red" stroke-width="1" fill="none" />
<path d="M719.4181152790485,475.1290027447392 L719.4181152790485,492.5782250686184" stroke="red" stroke-width="1" fill="none" />
<path d="M719.4181152790485,492.5782250686184 L719.4181152790485,510.0274473924976" stroke="red" stroke-width="1" fill="none" />
<path d="M719.4181152790485,510.0274473924976 L684.51967063129,510.0274473924976" stroke="red" stroke-width="1" fill="none" />
<path d="M684.51967063129,510.0274473924976 L667.0704483074107,510.0274473924976" stroke="red" stroke-width="1" fill="none" />
<path d="M667.0704483074107,510.0274473924976 L632.1720036596523,510.0274473924976" stroke="red" stroke-width="1" fill="none" />
<path d="M632.1720036596523,510.0274473924976 L632.1720036596523,527.4766697163768" stroke="red" stroke-width="1" fill="none" />
<path d="M632.1720036596523,527.4766697163768 L597.2735590118939,527.4766697163768" stroke="red" stroke-width="1" fill="none" />
<path d="M754.3165599268069,440.2305580969807 L754.3165599268069,422.7813357731015" stroke="red" stroke-width="1" fill="none" />
<path d="M754.3165599268069,422.7813357731015 L911.3595608417199,422.7813357731015" stroke="red" stroke-width="1" fill="none" />
<path d="M911.3595608417199,422.7813357731015 L911.3595608417199,440.2305580969807" stroke="red" stroke-width="1" fill="none" />
<path d="M911.3595608417199,457.67978042085997 L911.3595608417199,475.1290027447392" stroke="red" stroke-width="1" fill="none" />
<path d="M911.3595608417199,475.1290027447392 L859.0118938700823,475.1290027447392" stroke="red" stroke-width="1" fill="none" />
<path d="M859.0118938700823,475.1290027447392 L859.0118938700823,492.5782250686184" stroke="red" stroke-width="1" fill="none" />
<path d="M859.0118938700823,492.5782250686184 L841.5626715462031,492.5782250686184" stroke="red" stroke-width="1" fill="none" />
<path d="M841.5626715462031,492.5782250686184 L841.5626715462031,614.722781335773" stroke="red" stroke-width="1" fill="none" />
<path d="M841.5626715462031,614.722781335773 L859.0118938700823,614.722781335773" stroke="red" stroke-width="1" fill="none" />
<path d="M859.0118938700823,614.722781335773 L859.0118938700823,632.1720036596522" stroke="red" stroke-width="1" fill="none" />
<path d="M859.0118938700823,649.6212259835315 L859.0118938700823,667.0704483074107" stroke="red" stroke-width="1" fill="none" />
<path d="M859.0118938700823,667.0704483074107 L806.6642268984447,667.0704483074107" stroke="red" stroke-width="1" fill="none" />
<path d="M806.6642268984447,667.0704483074107 L806.6642268984447,492.5782250686184" stroke="red" stroke-width="1" fill="none" />
<path d="M806.6642268984447,492.5782250686184 L789.2150045745653,492.5782250686184" stroke="red" stroke-width="1" fill="none" />
<path d="M789.2150045745653,492.5782250686184 L789.2150045745653,475.1290027447392" stroke="red" stroke-width="1" fill="none" />
<path d="M789.2150045745653,475.1290027447392 L754.3165599268069,475.1290027447392" stroke="red" stroke-width="1" fill="none" />
<path d="M754.3165599268069,475.1290027447392 L754.3165599268069,457.67978042085997" stroke="red" stroke-width="1" fill="none" />
<path d="M876.4611161939615,632.1720036596522 L876.4611161939615,614.722781335773" stroke="red" stroke-width="1" fill="none" />
<path d="M876.4611161939615,614.722781335773 L893.9103385178407,614.722781335773" stroke="red" stroke-width="1" fill="none" />
<path d="M893.9103385178407,614.722781335773 L893.9103385178407,597.2735590118938" stroke="red" stroke-width="1" fill="none" />
<path d="M893.9103385178407,597.2735590118938 L911.3595608417199,597.2735590118938" stroke="red" stroke-width="1" fill="none" />
<path d="M911.3595608417199,597.2735590118938 L911.3595608417199,614.722781335773" stroke="red" stroke-width="1" fill="none" />
<path d="M911.3595608417199,614.722781335773 L928.8087831655993,614.722781335773" stroke="red" stroke-width="1" fill="none" />
<path d="M928.8087831655993,614.722781335773 L928.8087831655993,597.2735590118938" stroke="red" stroke-width="1" fill="none" />
<path d="M928.8087831655993,597.2735590118938 L946.2580054894785,597.2735590118938" stroke="red" stroke-width="1" fill="none" />
<path d="M946.2580054894785,597.2735590118938 L946.2580054894785,614.722781335773" stroke="red" stroke-width="1" fill="none" />
<path d="M946.2580054894785,614.722781335773 L963.7072278133577,614.722781335773" stroke="red" stroke-width="1" fill="none" />
<path d="M963.7072278133577,614.722781335773 L963.7072278133577,597.2735590118938" stroke="red" stroke-width="1" fill="none" />
<path d="M963.7072278133577,597.2735590118938 L981.1564501372369,597.2735590118938" stroke="red" stroke-width="1" fill="none" />
<path d="M981.1564501372369,597.2735590118938 L981.1564501372369,614.722781335773" stroke="red" stroke-width="1" fill="none" />
<path d="M981.1564501372369,614.722781335773 L998.6056724611161,614.722781335773" stroke="red" stroke-width="1" fill="none" />
<path d="M998.6056724611161,614.722781335773 L998.6056724611161,597.2735590118938" stroke="red" stroke-width="1" fill="none" />
<path d="M998.6056724611161,597.2735590118938 L1016.0548947849954,597.2735590118938" stroke="red" stroke-width="1" fill="none" />
<path d="M1016.0548947849954,597.2735590118938 L1016.0548947849954,614.722781335773" stroke="red" stroke-width="1" fill="none" />
<path d="M1016.0548947849954,614.722781335773 L1033.5041171088747,614.722781335773" stroke="red" stroke-width="1" fill="none" />
<path d="M1033.5041171088747,614.722781335773 L1033.5041171088747,632.1720036596522" stroke="red" stroke-width="1" fill="none" />
<path d="M1033.5041171088747,649.6212259835315 L1033.5041171088747,667.0704483074107" stroke="red" stroke-width="1" fill="none" />
<path d="M1033.5041171088747,667.0704483074107 L1016.0548947849954,667.0704483074107" stroke="red" stroke-width="1" fill="none" />
<path d="M1016.0548947849954,667.0704483074107 L1016.0548947849954,684.51967063129" stroke="red" stroke-width="1" fill="none" />
<path d="M998.6056724611161,684.51967063129 L998.6056724611161,667.0704483074107" stroke="red" stroke-width="1" fill="none" />
<path d="M998.6056724611161,667.0704483074107 L981.1564501372369,667.0704483074107" stroke="red" stroke-width="1" fill="none" />
<path d="M981.1564501372369,667.0704483074107 L981.1564501372369,684.51967063129" stroke="red" stroke-width="1" fill="none" />
<path d="M981.1564501372369,684.51967063129 L963.7072278133577,684.51967063129" stroke="red" stroke-width="1" fill="none" />
<path d="M963.7072278133577,684.51967063129 L963.7072278133577,667.0704483074107" stroke="red" stroke-width="1" fill="none" />
<path d="M963.7072278133577,667.0704483074107 L946.2580054894785,667.0704483074107" stroke="red" stroke-width="1" fill="none" />
<path d="M946.2580054894785,667.0704483074107 L946.2580054894785,684.51967063129" stroke="red" stroke-width="1" fill="none" />
<path d="M946.2580054894785,684.51967063129 L928.8087831655993,684.51967063129" stroke="red" stroke-width="1" fill="none" />
<path d="M928.8087831655993,684.51967063129 L928.8087831655993,667.0704483074107" stroke="red" stroke-width="1" fill="none" />
<path d="M928.8087831655993,667.0704483074107 L911.3595608417199,667.0704483074107" stroke="red" stroke-width="1" fill="none" />
<path d="M911.3595608417199,667.0704483074107 L911.3595608417199,684.51967063129" stroke="red" stroke-width="1" fill="none" />
<path d="M911.3595608417199,684.51967063129 L893.9103385178407,684.51967063129" stroke="red" stroke-width="1" fill="none" />
<path d="M893.9103385178407,684.51967063129 L893.9103385178407,667.0704483074107" stroke="red" stroke-width="1" fill="none" />
<path d="M893.9103385178407,667.0704483074107 L876.4611161939615,667.0704483074107" stroke="red" stroke-width="1" fill="none" />
<path d="M876.4611161939615,667.0704483074107 L876.4611161939615,649.6212259835315" stroke="red" stroke-width="1" fill="none" />
<path d="M1033.5041171088747,632.1720036596522 L1050.9533394327539,632.1720036596522" stroke="red" stroke-width="1" fill="none" />
<path d="M1050.9533394327539,632.1720036596522 L1050.9533394327539,649.6212259835315" stroke="red" stroke-width="1" fill="none" />
<path d="M1050.9533394327539,649.6212259835315 L1033.5041171088747,649.6212259835315" stroke="red" stroke-width="1" fill="none" />
<path d="M928.8087831655993,440.2305580969807 L928.8087831655993,370.4336688014638" stroke="red" stroke-width="1" fill="none" />
<path d="M928.8087831655993,370.4336688014638 L1068.402561756633,370.4336688014638" stroke="red" stroke-width="1" fill="none" />
<path d="M1068.402561756633,370.4336688014638 L1068.402561756633,440.2305580969807" stroke="red" stroke-width="1" fill="none" />
<path d="M1068.402561756633,457.67978042085997 L1068.402561756633,527.4766697163768" stroke="red" stroke-width="1" fill="none" />
<path d="M1068.402561756633,527.4766697163768 L1033.5041171088747,527.4766697163768" stroke="red" stroke-width="1" fill="none" />
<path d="M1033.5041171088747,527.4766697163768 L1033.5041171088747,544.925892040256" stroke="red" stroke-width="1" fill="none" />
<path d="M1033.5041171088747,544.925892040256 L1016.0548947849954,544.925892040256" stroke="red" stroke-width="1" fill="none" />
<path d="M1016.0548947849954,544.925892040256 L1016.0548947849954,527.4766697163768" stroke="red" stroke-width="1" fill="none" />
<path d="M1016.0548947849954,527.4766697163768 L981.1564501372369,527.4766697163768" stroke="red" stroke-width="1" fill="none" />
<path d="M981.1564501372369,527.4766697163768 L981.1564501372369,544.925892040256" stroke="red" stroke-width="1" fill="none" />
<path d="M981.1564501372369,544.925892040256 L963.7072278133577,544.925892040256" stroke="red" stroke-width="1" fill="none" />
<path d="M963.7072278133577,544.925892040256 L963.7072278133577,527.4766697163768" stroke="red" stroke-width="1" fill="none" />
<path d="M963.7072278133577,527.4766697163768 L928.8087831655993,527.4766697163768" stroke="red" stroke-width="1" fill="none" />
<path d="M928.8087831655993,527.4766697163768 L928.8087831655993,457.67978042085997" stroke="red" stroke-width="1" fill="none" />
<path d="M1068.402561756633,440.2305580969807 L1085.8517840805123,440.2305580969807" stroke="red" stroke-width="1" fill="none" />
<path d="M1085.8517840805123,440.2305580969807 L1085.8517840805123,457.67978042085997" stroke="red" stroke-width="1" fill="none" />
<path d="M1085.8517840805123,457.67978042085997 L1068.402561756633,457.67978042085997" stroke="red" stroke-width="1" fill="none" />
<path d="M579.8243366880147,352.9844464775846 L562.3751143641354,352.9844464775846" stroke="red" stroke-width="1" fill="none" />
<path d="M562.3751143641354,352.9844464775846 L562.3751143641354,335.5352241537053" stroke="red" stroke-width="1" fill="none" />
<path d="M562.3751143641354,335.5352241537053 L562.3751143641354,318.0860018298261" stroke="red" stroke-width="1" fill="none" />
<path d="M562.3751143641354,318.0860018298261 L562.3751143641354,265.7383348581884" stroke="red" stroke-width="1" fill="none" />
<path d="M562.3751143641354,265.7383348581884 L527.4766697163769,265.7383348581884" stroke="red" stroke-width="1" fill="none" />
<path d="M527.4766697163769,248.2891125343092 L562.3751143641354,248.2891125343092" stroke="red" stroke-width="1" fill="none" />
<path d="M562.3751143641354,248.2891125343092 L562.3751143641354,195.9414455626715" stroke="red" stroke-width="1" fill="none" />
<path d="M562.3751143641354,195.9414455626715 L562.3751143641354,178.49222323879223" stroke="red" stroke-width="1" fill="none" />
<path d="M562.3751143641354,178.49222323879223 L562.3751143641354,143.5937785910338" stroke="red" stroke-width="1" fill="none" />
<path d="M562.3751143641354,143.5937785910338 L579.8243366880147,143.5937785910338" stroke="red" stroke-width="1" fill="none" />
<path d="M597.2735590118939,143.5937785910338 L614.7227813357731,143.5937785910338" stroke="red" stroke-width="1" fill="none" />
<path d="M614.7227813357731,143.5937785910338 L614.7227813357731,178.49222323879223" stroke="red" stroke-width="1" fill="none" />
<path d="M614.7227813357731,178.49222323879223 L614.7227813357731,195.9414455626715" stroke="red" stroke-width="1" fill="none" />
<path d="M614.7227813357731,195.9414455626715 L614.7227813357731,248.2891125343092" stroke="red" stroke-width="1" fill="none" />
<path d="M614.7227813357731,248.2891125343092 L649.6212259835315,248.2891125343092" stroke="red" stroke-width="1" fill="none" />
<path d="M649.6212259835315,248.2891125343092 L649.6212259835315,265.7383348581884" stroke="red" stroke-width="1" fill="none" />
<path d="M649.6212259835315,265.7383348581884 L614.7227813357731,265.7383348581884" stroke="red" stroke-width="1" fill="none" />
<path d="M614.7227813357731,265.7383348581884 L614.7227813357731,318.0860018298261" stroke="red" stroke-width="1" fill="none" />
<path d="M614.7227813357731,318.0860018298261 L614.7227813357731,335.5352241537053" stroke="red" stroke-width="1" fill="none" />
<path d="M614.7227813357731,335.5352241537053 L614.7227813357731,352.9844464775846" stroke="red" stroke-width="1" fill="none" />
<path d="M614.7227813357731,352.9844464775846 L597.2735590118939,352.9844464775846" stroke="red" stroke-width="1" fill="none" />
<path d="M527.4766697163769,265.7383348581884 L510.0274473924977,265.7383348581884" stroke="red" stroke-width="1" fill="none" />
<path d="M510.0274473924977,265.7383348581884 L510.0274473924977,318.0860018298261" stroke="red" stroke-width="1" fill="none" />
<path d="M510.0274473924977,318.0860018298261 L475.12900274473924,318.0860018298261" stroke="red" stroke-width="1" fill="none" />
<path d="M475.12900274473924,318.0860018298261 L475.12900274473924,265.7383348581884" stroke="red" stroke-width="1" fill="none" />
<path d="M475.12900274473924,265.7383348581884 L492.5782250686185,265.7383348581884" stroke="red" stroke-width="1" fill="none" />
<path d="M492.5782250686185,265.7383348581884 L492.5782250686185,248.2891125343092" stroke="red" stroke-width="1" fill="none" />
<path d="M492.5782250686185,248.2891125343092 L510.0274473924977,248.2891125343092" stroke="red" stroke-width="1" fill="none" />
<path d="M510.0274473924977,248.2891125343092 L527.4766697163769,248.2891125343092" stroke="red" stroke-width="1" fill="none" />
<path d="M554.7410795974382,876.4611161939615 L552.5599268069534,876.4611161939615" stroke="red" stroke-width="1" fill="none" />
<path d="M552.5599268069534,859.0118938700823 L554.7410795974382,859.0118938700823" stroke="red" stroke-width="1" fill="none" />
<path d="M614.7227813357731,859.0118938700823 L622.3568161024702,859.0118938700823" stroke="red" stroke-width="1" fill="none" />
<path d="M624.5379688929552,859.0118938700823 L632.1720036596523,859.0118938700823" stroke="red" stroke-width="1" fill="none" />
<path d="M622.3568161024702,876.4611161939615 L614.7227813357731,876.4611161939615" stroke="red" stroke-width="1" fill="none" />
<path d="M632.1720036596523,876.4611161939615 L624.5379688929552,876.4611161939615" stroke="red" stroke-width="1" fill="none" />
<path d="M624.5379688929552,876.4611161939615 L622.3568161024702,876.4611161939615" stroke="red" stroke-width="1" fill="none" />
<path d="M622.3568161024702,859.0118938700823 L624.5379688929552,859.0118938700823" stroke="red" stroke-width="1" fill="none" />
<path d="M544.9258920402561,771.765782250686 L552.5599268069534,771.765782250686" stroke="red" stroke-width="1" fill="none" />
<path d="M554.7410795974382,771.765782250686 L562.3751143641354,771.765782250686" stroke="red" stroke-width="1" fill="none" />
<path d="M552.5599268069534,789.2150045745653 L544.9258920402561,789.2150045745653" stroke="red" stroke-width="1" fill="none" />
<path d="M562.3751143641354,789.2150045745653 L554.7410795974382,789.2150045745653" stroke="red" stroke-width="1" fill="none" />
<path d="M554.7410795974382,789.2150045745653 L552.5599268069534,789.2150045745653" stroke="red" stroke-width="1" fill="none" />
<path d="M552.5599268069534,771.765782250686 L554.7410795974382,771.765782250686" stroke="red" stroke-width="1" fill="none" />
<path d="M614.7227813357731,771.765782250686 L622.3568161024702,771.765782250686" stroke="red" stroke-width="1" fill="none" />
<path d="M624.5379688929552,771.765782250686 L632.1720036596523,771.765782250686" stroke="red" stroke-width="1" fill="none" />
<path d="M622.3568161024702,789.2150045745653 L614.7227813357731,789.2150045745653" stroke="red" stroke-width="1" fill="none" />
<path d="M632.1720036596523,789.2150045745653 L624.5379688929552,789.2150045745653" stroke="red" stroke-width="1" fill="none" />
<path d="M624.5379688929552,789.2150045745653 L622.3568161024702,789.2150045745653" stroke="red" stroke-width="1" fill="none" />
<path d="M622.3568161024702,771.765782250686 L624.5379688929552,771.765782250686" stroke="red" stroke-width="1" fill="none" />
<path d="M597.2735590118939,736.8673376029276 L597.2735590118939,744.5013723696247" stroke="red" stroke-width="1" fill="none" />
<path d="M597.2735590118939,746.6825251601097 L597.2735590118939,754.3165599268068" stroke="red" stroke-width="1" fill="none" />
<path d="M579.8243366880147,744.5013723696247 L579.8243366880147,736.8673376029276" stroke="red" stroke-width="1" fill="none" />
<path d="M579.8243366880147,754.3165599268068 L579.8243366880147,746.6825251601097" stroke="red" stroke-width="1" fill="none" />
<path d="M579.8243366880147,746.6825251601097 L579.8243366880147,744.5013723696247" stroke="red" stroke-width="1" fill="none" />
<path d="M597.2735590118939,744.5013723696247 L597.2735590118939,746.6825251601097" stroke="red" stroke-width="1" fill="none" />
<path d="M597.2735590118939,527.4766697163768 L597.2735590118939,535.1107044830741" stroke="red" stroke-width="1" fill="none" />
<path d="M597.2735590118939,537.2918572735589 L597.2735590118939,544.925892040256" stroke="red" stroke-width="1" fill="none" />
<path d="M579.8243366880147,535.1107044830741 L579.8243366880147,527.4766697163768" stroke="red" stroke-width="1" fill="none" />
<path d="M579.8243366880147,544.925892040256 L579.8243366880147,537.2918572735589" stroke="red" stroke-width="1" fill="none" />
<path d="M579.8243366880147,537.2918572735589 L579.8243366880147,535.1107044830741" stroke="red" stroke-width="1" fill="none" />
<path d="M597.2735590118939,535.1107044830741 L597.2735590118939,537.2918572735589" stroke="red" stroke-width="1" fill="none" />
<path d="M597.2735590118939,352.9844464775846 L597.2735590118939,360.6184812442817" stroke="red" stroke-width="1" fill="none" />
<path d="M597.2735590118939,362.79963403476665 L597.2735590118939,370.4336688014638" stroke="red" stroke-width="1" fill="none" />
<path d="M579.8243366880147,360.6184812442817 L579.8243366880147,352.9844464775846" stroke="red" stroke-width="1" fill="none" />
<path d="M579.8243366880147,370.4336688014638 L579.8243366880147,362.79963403476665" stroke="red" stroke-width="1" fill="none" />
<path d="M579.8243366880147,362.79963403476665 L579.8243366880147,360.6184812442817" stroke="red" stroke-width="1" fill="none" />
<path d="M597.2735590118939,360.6184812442817 L597.2735590118939,362.79963403476665" stroke="red" stroke-width="1" fill="none" />
<path d="M859.0118938700823,632.1720036596522 L866.6459286367794,632.1720036596522" stroke="red" stroke-width="1" fill="none" />
<path d="M868.8270814272644,632.1720036596522 L876.4611161939615,632.1720036596522" stroke="red" stroke-width="1" fill="none" />
<path d="M866.6459286367794,649.6212259835315 L859.0118938700823,649.6212259835315" stroke="red" stroke-width="1" fill="none" />
<path d="M876.4611161939615,649.6212259835315 L868.8270814272644,649.6212259835315" stroke="red" stroke-width="1" fill="none" />
<path d="M868.8270814272644,649.6212259835315 L866.6459286367794,649.6212259835315" stroke="red" stroke-width="1" fill="none" />
<path d="M866.6459286367794,632.1720036596522 L868.8270814272644,632.1720036596522" stroke="red" stroke-width="1" fill="none" />
<path d="M736.8673376029277,440.2305580969807 L744.5013723696248,440.2305580969807" stroke="red" stroke-width="1" fill="none" />
<path d="M746.6825251601098,440.2305580969807 L754.3165599268069,440.2305580969807" stroke="red" stroke-width="1" fill="none" />
<path d="M744.5013723696248,457.67978042085997 L736.8673376029277,457.67978042085997" stroke="red" stroke-width="1" fill="none" />
<path d="M754.3165599268069,457.67978042085997 L746.6825251601098,457.67978042085997" stroke="red" stroke-width="1" fill="none" />
<path d="M746.6825251601098,457.67978042085997 L744.5013723696248,457.67978042085997" stroke="red" stroke-width="1" fill="none" />
<path d="M744.5013723696248,440.2305580969807 L746.6825251601098,440.2305580969807" stroke="red" stroke-width="1" fill="none" />
<path d="M911.3595608417199,440.2305580969807 L918.9935956084172,440.2305580969807" stroke="red" stroke-width="1" fill="none" />
<path d="M921.174748398902,440.2305580969807 L928.8087831655993,440.2305580969807" stroke="red" stroke-width="1" fill="none" />
<path d="M918.9935956084172,457.67978042085997 L911.3595608417199,457.67978042085997" stroke="red" stroke-width="1" fill="none" />
<path d="M928.8087831655993,457.67978042085997 L921.174748398902,457.67978042085997" stroke="red" stroke-width="1" fill="none" />
<path d="M921.174748398902,457.67978042085997 L918.9935956084172,457.67978042085997" stroke="red" stroke-width="1" fill="none" />
<path d="M918.9935956084172,440.2305580969807 L921.174748398902,440.2305580969807" stroke="red" stroke-width="1" fill="none" />
<path d="M492.5782250686185,126.1445562671546 L492.5782250686185,107.60475754803286" stroke="red" stroke-width="1" fill="none" />
<path d="M492.5782250686185,107.60475754803286 L492.5782250686185,91.24611161939612" stroke="red" stroke-width="1" fill="none" />
<path d="M492.5782250686185,91.24611161939612 L492.5782250686185,73.79688929551685" stroke="red" stroke-width="1" fill="none" />
<path d="M492.5782250686185,56.347666971637636 L492.5782250686185,38.898444647758424" stroke="red" stroke-width="1" fill="none" />
<path d="M492.5782250686185,38.898444647758424 L492.5782250686185,21.449222323879212" stroke="red" stroke-width="1" fill="none" />
<path d="M492.5782250686185,21.449222323879212 L492.5782250686185,4.0" stroke="red" stroke-width="1" fill="none" />
<path d="M492.5782250686185,4.0 L527.4766697163769,4.0" stroke="red" stroke-width="1" fill="none" />
<path d="M527.4766697163769,4.0 L544.9258920402561,4.0" stroke="red" stroke-width="1" fill="none" />
<path d="M579.8243366880147,126.1445562671546 L544.9258920402561,126.1445562671546" stroke="red" stroke-width="1" fill="none" />
<path d="M544.9258920402561,126.1445562671546 L526.3860933211345,126.1445562671546" stroke="red" stroke-width="1" fill="none" />
<path d="M526.3860933211345,126.1445562671546 L492.5782250686185,126.1445562671546" stroke="red" stroke-width="1" fill="none" />
<path d="M684.51967063129,126.1445562671546 L649.6212259835315,126.1445562671546" stroke="red" stroke-width="1" fill="none" />
<path d="M649.6212259835315,126.1445562671546 L632.1720036596523,126.1445562671546" stroke="red" stroke-width="1" fill="none" />
<path d="M632.1720036596523,126.1445562671546 L597.2735590118939,126.1445562671546" stroke="red" stroke-width="1" fill="none" />
<path d="M544.9258920402561,4.0 L632.1720036596523,4.0" stroke="red" stroke-width="1" fill="none" />
<path d="M632.1720036596523,4.0 L649.6212259835315,4.0" stroke="red" stroke-width="1" fill="none" />
<path d="M649.6212259835315,4.0 L684.51967063129,4.0" stroke="red" stroke-width="1" fill="none" />
<path d="M684.51967063129,4.0 L684.51967063129,21.449222323879212" stroke="red" stroke-width="1" fill="none" />
<path d="M684.51967063129,21.449222323879212 L684.51967063129,38.898444647758424" stroke="red" stroke-width="1" fill="none" />
<path d="M684.51967063129,38.898444647758424 L684.51967063129,56.347666971637636" stroke="red" stroke-width="1" fill="none" />
<path d="M684.51967063129,73.79688929551685 L684.51967063129,91.24611161939612" stroke="red" stroke-width="1" fill="none" />
<path d="M684.51967063129,91.24611161939612 L684.51967063129,108.69533394327533" stroke="red" stroke-width="1" fill="none" />
<path d="M684.51967063129,108.69533394327533 L684.51967063129,126.1445562671546" stroke="red" stroke-width="1" fill="none" />
<path d="M597.2735590118939,126.1445562671546 L597.2735590118939,133.77859103385174" stroke="red" stroke-width="1" fill="none" />
<path d="M597.2735590118939,135.9597438243366 L597.2735590118939,143.5937785910338" stroke="red" stroke-width="1" fill="none" />
<path d="M579.8243366880147,133.77859103385174 L579.8243366880147,126.1445562671546" stroke="red" stroke-width="1" fill="none" />
<path d="M579.8243366880147,143.5937785910338 L579.8243366880147,135.9597438243366" stroke="red" stroke-width="1" fill="none" />
<path d="M579.8243366880147,135.9597438243366 L579.8243366880147,133.77859103385174" stroke="red" stroke-width="1" fill="none" />
<path d="M597.2735590118939,133.77859103385174 L597.2735590118939,135.9597438243366" stroke="red" stroke-width="1" fill="none" />
<path d="M701.9688929551693,56.347666971637636 L701.9688929551693,38.898444647758424" stroke="red" stroke-width="1" fill="none" />
<path d="M701.9688929551693,38.898444647758424 L754.3165599268069,38.898444647758424" stroke="red" stroke-width="1" fill="none" />
<path d="M754.3165599268069,38.898444647758424 L754.3165599268069,56.347666971637636" stroke="red" stroke-width="1" fill="none" />
<path d="M754.3165599268069,56.347666971637636 L754.3165599268069,73.79688929551685" stroke="red" stroke-width="1" fill="none" />
<path d="M754.3165599268069,73.79688929551685 L754.3165599268069,91.24611161939612" stroke="red" stroke-width="1" fill="none" />
<path d="M754.3165599268069,91.24611161939612 L701.9688929551693,91.24611161939612" stroke="red" stroke-width="1" fill="none" />
<path d="M701.9688929551693,91.24611161939612 L701.9688929551693,73.79688929551685" stroke="red" stroke-width="1" fill="none" />
<path d="M684.51967063129,56.347666971637636 L692.1537053979872,56.347666971637636" stroke="red" stroke-width="1" fill="none" />
<path d="M694.334858188472,56.347666971637636 L701.9688929551693,56.347666971637636" stroke="red" stroke-width="1" fill="none" />
<path d="M692.1537053979872,73.79688929551685 L684.51967063129,73.79688929551685" stroke="red" stroke-width="1" fill="none" />
<path d="M701.9688929551693,73.79688929551685 L694.334858188472,73.79688929551685" stroke="red" stroke-width="1" fill="none" />
<path d="M694.334858188472,73.79688929551685 L692.1537053979872,73.79688929551685" stroke="red" stroke-width="1" fill="none" />
<path d="M692.1537053979872,56.347666971637636 L694.334858188472,56.347666971637636" stroke="red" stroke-width="1" fill="none" />
<path d="M475.12900274473924,56.347666971637636 L482.76303751143644,56.347666971637636" stroke="red" stroke-width="1" fill="none" />
<path d="M484.9441903019213,56.347666971637636 L492.5782250686185,56.347666971637636" stroke="red" stroke-width="1" fill="none" />
<path d="M482.76303751143644,73.79688929551685 L475.12900274473924,73.79688929551685" stroke="red" stroke-width="1" fill="none" />
<path d="M492.5782250686185,73.79688929551685 L484.9441903019213,73.79688929551685" stroke="red" stroke-width="1" fill="none" />
<path d="M484.9441903019213,73.79688929551685 L482.76303751143644,73.79688929551685" stroke="red" stroke-width="1" fill="none" />
<path d="M482.76303751143644,56.347666971637636 L484.9441903019213,56.347666971637636" stroke="red" stroke-width="1" fill="none" />
<path d="M475.12900274473924,73.79688929551685 L475.12900274473924,91.24611161939612" stroke="red" stroke-width="1" fill="none" />
<path d="M475.12900274473924,91.24611161939612 L422.78133577310155,91.24611161939612" stroke="red" stroke-width="1" fill="none" />
<path d="M422.78133577310155,91.24611161939612 L405.33211344922233,91.24611161939612" stroke="red" stroke-width="1" fill="none" />
<path d="M405.33211344922233,91.24611161939612 L352.98444647758464,91.24611161939612" stroke="red" stroke-width="1" fill="none" />
<path d="M352.98444647758464,91.24611161939612 L352.98444647758464,143.5937785910338" stroke="red" stroke-width="1" fill="none" />
<path d="M352.98444647758464,143.5937785910338 L387.8828911253431,143.5937785910338" stroke="red" stroke-width="1" fill="none" />
<path d="M387.8828911253431,143.5937785910338 L387.8828911253431,195.9414455626715" stroke="red" stroke-width="1" fill="none" />
<path d="M387.8828911253431,195.9414455626715 L335.5352241537054,195.9414455626715" stroke="red" stroke-width="1" fill="none" />
<path d="M335.5352241537054,195.9414455626715 L316.99542543458375,195.9414455626715" stroke="red" stroke-width="1" fill="none" />
<path d="M316.99542543458375,195.9414455626715 L265.73833485818847,195.9414455626715" stroke="red" stroke-width="1" fill="none" />
<path d="M265.73833485818847,195.9414455626715 L265.73833485818847,178.49222323879223" stroke="red" stroke-width="1" fill="none" />
<path d="M265.73833485818847,161.04300091491302 L265.73833485818847,143.5937785910338" stroke="red" stroke-width="1" fill="none" />
<path d="M265.73833485818847,143.5937785910338 L300.63677950594695,143.5937785910338" stroke="red" stroke-width="1" fill="none" />
<path d="M300.63677950594695,143.5937785910338 L300.63677950594695,38.898444647758424" stroke="red" stroke-width="1" fill="none" />
<path d="M300.63677950594695,38.898444647758424 L405.33211344922233,38.898444647758424" stroke="red" stroke-width="1" fill="none" />
<path d="M405.33211344922233,38.898444647758424 L422.78133577310155,38.898444647758424" stroke="red" stroke-width="1" fill="none" />
<path d="M422.78133577310155,38.898444647758424 L475.12900274473924,38.898444647758424" stroke="red" stroke-width="1" fill="none" />
<path d="M475.12900274473924,38.898444647758424 L475.12900274473924,56.347666971637636" stroke="red" stroke-width="1" fill="none" />
<path d="M248.28911253430925,161.04300091491302 L255.9231473010064,161.04300091491302" stroke="red" stroke-width="1" fill="none" />
<path d="M258.1043000914913,161.04300091491302 L265.73833485818847,161.04300091491302" stroke="red" stroke-width="1" fill="none" />
<path d="M255.9231473010064,178.49222323879223 L248.28911253430925,178.49222323879223" stroke="red" stroke-width="1" fill="none" />
<path d="M265.73833485818847,178.49222323879223 L258.1043000914913,178.49222323879223" stroke="red" stroke-width="1" fill="none" />
<path d="M258.1043000914913,178.49222323879223 L255.9231473010064,178.49222323879223" stroke="red" stroke-width="1" fill="none" />
<path d="M255.9231473010064,161.04300091491302 L258.1043000914913,161.04300091491302" stroke="red" stroke-width="1" fill="none" />
<path d="M248.28911253430925,143.5937785910338 L248.28911253430925,161.04300091491302" stroke="red" stroke-width="1" fill="none" />
<path d="M248.28911253430925,126.1445562671546 L248.28911253430925,143.5937785910338" stroke="red" stroke-width="1" fill="none" />
<path d="M248.28911253430925,108.69533394327533 L248.28911253430925,126.1445562671546" stroke="red" stroke-width="1" fill="none" />
<path d="M230.83989021042999,108.69533394327533 L248.28911253430925,108.69533394327533" stroke="red" stroke-width="1" fill="none" />
<path d="M213.39066788655077,108.69533394327533 L230.83989021042999,108.69533394327533" stroke="red" stroke-width="1" fill="none" />
<path d="M178.49222323879235,108.69533394327533 L213.39066788655077,108.69533394327533" stroke="red" stroke-width="1" fill="none" />
<path d="M126.1445562671546,108.69533394327533 L161.04300091491314,108.69533394327533" stroke="red" stroke-width="1" fill="none" />
<path d="M108.69533394327539,108.69533394327533 L126.1445562671546,108.69533394327533" stroke="red" stroke-width="1" fill="none" />
<path d="M91.24611161939617,108.69533394327533 L108.69533394327539,108.69533394327533" stroke="red" stroke-width="1" fill="none" />
<path d="M91.24611161939617,126.1445562671546 L91.24611161939617,108.69533394327533" stroke="red" stroke-width="1" fill="none" />
<path d="M91.24611161939617,143.5937785910338 L91.24611161939617,126.1445562671546" stroke="red" stroke-width="1" fill="none" />
<path d="M91.24611161939617,195.9414455626715 L91.24611161939617,143.5937785910338" stroke="red" stroke-width="1" fill="none" />
<path d="M91.24611161939617,213.39066788655072 L91.24611161939617,195.9414455626715" stroke="red" stroke-width="1" fill="none" />
<path d="M91.24611161939617,230.83989021042993 L91.24611161939617,213.39066788655072" stroke="red" stroke-width="1" fill="none" />
<path d="M108.69533394327539,230.83989021042993 L91.24611161939617,230.83989021042993" stroke="red" stroke-width="1" fill="none" />
<path d="M126.1445562671546,230.83989021042993 L108.69533394327539,230.83989021042993" stroke="red" stroke-width="1" fill="none" />
<path d="M161.04300091491314,230.83989021042993 L126.1445562671546,230.83989021042993" stroke="red" stroke-width="1" fill="none" />
<path d="M213.39066788655077,230.83989021042993 L178.49222323879235,230.83989021042993" stroke="red" stroke-width="1" fill="none" />
<path d="M230.83989021042999,230.83989021042993 L213.39066788655077,230.83989021042993" stroke="red" stroke-width="1" fill="none" />
<path d="M248.28911253430925,230.83989021042993 L230.83989021042999,230.83989021042993" stroke="red" stroke-width="1" fill="none" />
<path d="M248.28911253430925,213.39066788655072 L248.28911253430925,230.83989021042993" stroke="red" stroke-width="1" fill="none" />
<path d="M248.28911253430925,195.9414455626715 L248.28911253430925,213.39066788655072" stroke="red" stroke-width="1" fill="none" />
<path d="M248.28911253430925,178.49222323879223 L248.28911253430925,195.9414455626715" stroke="red" stroke-width="1" fill="none" />
<path d="M161.04300091491314,108.69533394327533 L161.04300091491314,91.24611161939612" stroke="red" stroke-width="1" fill="none" />
<path d="M161.04300091491314,91.24611161939612 L126.1445562671546,91.24611161939612" stroke="red" stroke-width="1" fill="none" />
<path d="M126.1445562671546,91.24611161939612 L108.69533394327539,91.24611161939612" stroke="red" stroke-width="1" fill="none" />
<path d="M108.69533394327539,91.24611161939612 L91.24611161939617,91.24611161939612" stroke="red" stroke-width="1" fill="none" />
<path d="M91.24611161939617,91.24611161939612 L91.24611161939617,21.449222323879212" stroke="red" stroke-width="1" fill="none" />
<path d="M91.24611161939617,21.449222323879212 L161.04300091491314,21.449222323879212" stroke="red" stroke-width="1" fill="none" />
<path d="M161.04300091491314,21.449222323879212 L161.04300091491314,56.347666971637636" stroke="red" stroke-width="1" fill="none" />
<path d="M161.04300091491314,56.347666971637636 L161.04300091491314,73.79688929551685" stroke="red" stroke-width="1" fill="none" />
<path d="M161.04300091491314,73.79688929551685 L178.49222323879235,73.79688929551685" stroke="red" stroke-width="1" fill="none" />
<path d="M178.49222323879235,73.79688929551685 L178.49222323879235,91.24611161939612" stroke="red" stroke-width="1" fill="none" />
<path d="M178.49222323879235,91.24611161939612 L178.49222323879235,108.69533394327533" stroke="red" stroke-width="1" fill="none" />
<path d="M178.49222323879235,230.83989021042993 L178.49222323879235,238.47392497712713" stroke="red" stroke-width="1" fill="none" />
<path d="M178.49222323879235,240.655077767612 L178.49222323879235,248.2891125343092" stroke="red" stroke-width="1" fill="none" />
<path d="M161.04300091491314,238.47392497712713 L161.04300091491314,230.83989021042993" stroke="red" stroke-width="1" fill="none" />
<path d="M161.04300091491314,248.2891125343092 L161.04300091491314,240.655077767612" stroke="red" stroke-width="1" fill="none" />
<path d="M161.04300091491314,240.655077767612 L161.04300091491314,238.47392497712713" stroke="red" stroke-width="1" fill="none" />
<path d="M178.49222323879235,238.47392497712713 L178.49222323879235,240.655077767612" stroke="red" stroke-width="1" fill="none" />
<path d="M178.49222323879235,248.2891125343092 L195.94144556267156,248.2891125343092" stroke="red" stroke-width="1" fill="none" />
<path d="M195.94144556267156,248.2891125343092 L195.94144556267156,265.7383348581884" stroke="red" stroke-width="1" fill="none" />
<path d="M195.94144556267156,265.7383348581884 L195.94144556267156,283.1875571820676" stroke="red" stroke-width="1" fill="none" />
<path d="M195.94144556267156,283.1875571820676 L195.94144556267156,318.0860018298261" stroke="red" stroke-width="1" fill="none" />
<path d="M195.94144556267156,318.0860018298261 L195.94144556267156,335.5352241537053" stroke="red" stroke-width="1" fill="none" />
<path d="M195.94144556267156,335.5352241537053 L195.94144556267156,352.9844464775846" stroke="red" stroke-width="1" fill="none" />
<path d="M195.94144556267156,352.9844464775846 L178.49222323879235,352.9844464775846" stroke="red" stroke-width="1" fill="none" />
<path d="M161.04300091491314,352.9844464775846 L143.59377859103392,352.9844464775846" stroke="red" stroke-width="1" fill="none" />
<path d="M143.59377859103392,352.9844464775846 L143.59377859103392,335.5352241537053" stroke="red" stroke-width="1" fill="none" />
<path d="M143.59377859103392,335.5352241537053 L143.59377859103392,318.0860018298261" stroke="red" stroke-width="1" fill="none" />
<path d="M143.59377859103392,318.0860018298261 L143.59377859103392,283.1875571820676" stroke="red" stroke-width="1" fill="none" />
<path d="M143.59377859103392,283.1875571820676 L143.59377859103392,265.7383348581884" stroke="red" stroke-width="1" fill="none" />
<path d="M143.59377859103392,265.7383348581884 L143.59377859103392,248.2891125343092" stroke="red" stroke-width="1" fill="none" />
<path d="M143.59377859103392,248.2891125343092 L161.04300091491314,248.2891125343092" stroke="red" stroke-width="1" fill="none" />
<path d="M178.49222323879235,352.9844464775846 L178.49222323879235,360.6184812442817" stroke="red" stroke-width="1" fill="none" />
<path d="M178.49222323879235,362.79963403476665 L178.49222323879235,370.4336688014638" stroke="red" stroke-width="1" fill="none" />
<path d="M161.04300091491314,360.6184812442817 L161.04300091491314,352.9844464775846" stroke="red" stroke-width="1" fill="none" />
<path d="M161.04300091491314,370.4336688014638 L161.04300091491314,362.79963403476665" stroke="red" stroke-width="1" fill="none" />
<path d="M161.04300091491314,362.79963403476665 L161.04300091491314,360.6184812442817" stroke="red" stroke-width="1" fill="none" />
<path d="M178.49222323879235,360.6184812442817 L178.49222323879235,362.79963403476665" stroke="red" stroke-width="1" fill="none" />
<path d="M178.49222323879235,370.4336688014638 L248.28911253430925,370.4336688014638" stroke="red" stroke-width="1" fill="none" />
<path d="M248.28911253430925,370.4336688014638 L248.28911253430925,386.79231473010054" stroke="red" stroke-width="1" fill="none" />
<path d="M248.28911253430925,386.79231473010054 L248.28911253430925,405.3321134492222" stroke="red" stroke-width="1" fill="none" />
<path d="M248.28911253430925,405.3321134492222 L248.28911253430925,440.2305580969807" stroke="red" stroke-width="1" fill="none" />
<path d="M248.28911253430925,440.2305580969807 L248.28911253430925,457.67978042085997" stroke="red" stroke-width="1" fill="none" />
<path d="M248.28911253430925,457.67978042085997 L248.28911253430925,492.5782250686184" stroke="red" stroke-width="1" fill="none" />
<path d="M248.28911253430925,492.5782250686184 L248.28911253430925,510.0274473924976" stroke="red" stroke-width="1" fill="none" />
<path d="M248.28911253430925,510.0274473924976 L248.28911253430925,527.4766697163768" stroke="red" stroke-width="1" fill="none" />
<path d="M248.28911253430925,527.4766697163768 L178.49222323879235,527.4766697163768" stroke="red" stroke-width="1" fill="none" />
<path d="M161.04300091491314,527.4766697163768 L91.24611161939617,527.4766697163768" stroke="red" stroke-width="1" fill="none" />
<path d="M91.24611161939617,527.4766697163768 L91.24611161939617,457.67978042085997" stroke="red" stroke-width="1" fill="none" />
<path d="M91.24611161939617,440.2305580969807 L91.24611161939617,370.4336688014638" stroke="red" stroke-width="1" fill="none" />
<path d="M91.24611161939617,370.4336688014638 L161.04300091491314,370.4336688014638" stroke="red" stroke-width="1" fill="none" />
<path d="M178.49222323879235,527.4766697163768 L178.49222323879235,535.1107044830741" stroke="red" stroke-width="1" fill="none" />
<path d="M178.49222323879235,537.2918572735589 L178.49222323879235,544.925892040256" stroke="red" stroke-width="1" fill="none" />
<path d="M161.04300091491314,535.1107044830741 L161.04300091491314,527.4766697163768" stroke="red" stroke-width="1" fill="none" />
<path d="M161.04300091491314,544.925892040256 L161.04300091491314,537.2918572735589" stroke="red" stroke-width="1" fill="none" />
<path d="M161.04300091491314,537.2918572735589 L161.04300091491314,535.1107044830741" stroke="red" stroke-width="1" fill="none" />
<path d="M178.49222323879235,535.1107044830741 L178.49222323879235,537.2918572735589" stroke="red" stroke-width="1" fill="none" />
<path d="M73.79688929551696,440.2305580969807 L81.4309240622141,440.2305580969807" stroke="red" stroke-width="1" fill="none" />
<path d="M83.61207685269903,440.2305580969807 L91.24611161939617,440.2305580969807" stroke="red" stroke-width="1" fill="none" />
<path d="M81.4309240622141,457.67978042085997 L73.79688929551696,457.67978042085997" stroke="red" stroke-width="1" fill="none" />
<path d="M91.24611161939617,457.67978042085997 L83.61207685269903,457.67978042085997" stroke="red" stroke-width="1" fill="none" />
<path d="M83.61207685269903,457.67978042085997 L81.4309240622141,457.67978042085997" stroke="red" stroke-width="1" fill="none" />
<path d="M81.4309240622141,440.2305580969807 L83.61207685269903,440.2305580969807" stroke="red" stroke-width="1" fill="none" />
<path d="M73.79688929551696,422.7813357731015 L73.79688929551696,440.2305580969807" stroke="red" stroke-width="1" fill="none" />
<path d="M56.34766697163775,422.7813357731015 L73.79688929551696,422.7813357731015" stroke="red" stroke-width="1" fill="none" />
<path d="M56.34766697163775,387.882891125343 L56.34766697163775,422.7813357731015" stroke="red" stroke-width="1" fill="none" />
<path d="M56.34766697163775,369.34309240622133 L56.34766697163775,387.882891125343" stroke="red" stroke-width="1" fill="none" />
<path d="M56.34766697163775,335.5352241537053 L56.34766697163775,369.34309240622133" stroke="red" stroke-width="1" fill="none" />
<path d="M73.79688929551696,335.5352241537053 L56.34766697163775,335.5352241537053" stroke="red" stroke-width="1" fill="none" />
<path d="M73.79688929551696,352.9844464775846 L73.79688929551696,335.5352241537053" stroke="red" stroke-width="1" fill="none" />
<path d="M126.1445562671546,352.9844464775846 L73.79688929551696,352.9844464775846" stroke="red" stroke-width="1" fill="none" />
<path d="M126.1445562671546,334.4446477584629 L126.1445562671546,352.9844464775846" stroke="red" stroke-width="1" fill="none" />
<path d="M126.1445562671546,318.0860018298261 L126.1445562671546,334.4446477584629" stroke="red" stroke-width="1" fill="none" />
<path d="M126.1445562671546,300.6367795059469 L126.1445562671546,318.0860018298261" stroke="red" stroke-width="1" fill="none" />
<path d="M73.79688929551696,300.6367795059469 L126.1445562671546,300.6367795059469" stroke="red" stroke-width="1" fill="none" />
<path d="M73.79688929551696,318.0860018298261 L73.79688929551696,300.6367795059469" stroke="red" stroke-width="1" fill="none" />
<path d="M56.34766697163775,318.0860018298261 L73.79688929551696,318.0860018298261" stroke="red" stroke-width="1" fill="none" />
<path d="M56.34766697163775,283.1875571820676 L56.34766697163775,318.0860018298261" stroke="red" stroke-width="1" fill="none" />
<path d="M38.89844464775854,283.1875571820676 L56.34766697163775,283.1875571820676" stroke="red" stroke-width="1" fill="none" />
<path d="M56.34766697163775,265.7383348581884 L38.89844464775854,265.7383348581884" stroke="red" stroke-width="1" fill="none" />
<path d="M56.34766697163775,213.39066788655072 L56.34766697163775,265.7383348581884" stroke="red" stroke-width="1" fill="none" />
<path d="M4.0,213.39066788655072 L56.34766697163775,213.39066788655072" stroke="red" stroke-width="1" fill="none" />
<path d="M4.0,265.7383348581884 L4.0,213.39066788655072" stroke="red" stroke-width="1" fill="none" />
<path d="M21.449222323879326,265.7383348581884 L4.0,265.7383348581884" stroke="red" stroke-width="1" fill="none" />
<path d="M4.0,283.1875571820676 L21.449222323879326,283.1875571820676" stroke="red" stroke-width="1" fill="none" />
<path d="M4.0,369.34309240622133 L4.0,283.1875571820676" stroke="red" stroke-width="1" fill="none" />
<path d="M4.0,386.79231473010054 L4.0,369.34309240622133" stroke="red" stroke-width="1" fill="none" />
<path d="M73.79688929551696,457.67978042085997 L73.79688929551696,475.1290027447392" stroke="red" stroke-width="1" fill="none" />
<path d="M73.79688929551696,475.1290027447392 L56.34766697163775,475.1290027447392" stroke="red" stroke-width="1" fill="none" />
<path d="M56.34766697163775,475.1290027447392 L56.34766697163775,527.4766697163768" stroke="red" stroke-width="1" fill="none" />
<path d="M56.34766697163775,527.4766697163768 L56.34766697163775,544.925892040256" stroke="red" stroke-width="1" fill="none" />
<path d="M56.34766697163775,544.925892040256 L56.34766697163775,597.2735590118938" stroke="red" stroke-width="1" fill="none" />
<path d="M56.34766697163775,597.2735590118938 L73.79688929551696,597.2735590118938" stroke="red" stroke-width="1" fill="none" />
<path d="M73.79688929551696,597.2735590118938 L73.79688929551696,579.8243366880146" stroke="red" stroke-width="1" fill="none" />
<path d="M73.79688929551696,579.8243366880146 L126.1445562671546,579.8243366880146" stroke="red" stroke-width="1" fill="none" />
<path d="M126.1445562671546,579.8243366880146 L126.1445562671546,598.3641354071362" stroke="red" stroke-width="1" fill="none" />
<path d="M126.1445562671546,598.3641354071362 L126.1445562671546,614.722781335773" stroke="red" stroke-width="1" fill="none" />
<path d="M126.1445562671546,614.722781335773 L126.1445562671546,632.1720036596522" stroke="red" stroke-width="1" fill="none" />
<path d="M126.1445562671546,632.1720036596522 L73.79688929551696,632.1720036596522" stroke="red" stroke-width="1" fill="none" />
<path d="M73.79688929551696,632.1720036596522 L73.79688929551696,614.722781335773" stroke="red" stroke-width="1" fill="none" />
<path d="M73.79688929551696,614.722781335773 L56.34766697163775,614.722781335773" stroke="red" stroke-width="1" fill="none" />
<path d="M56.34766697163775,614.722781335773 L56.34766697163775,667.0704483074107" stroke="red" stroke-width="1" fill="none" />
<path d="M56.34766697163775,667.0704483074107 L143.59377859103392,667.0704483074107" stroke="red" stroke-width="1" fill="none" />
<path d="M143.59377859103392,667.0704483074107 L143.59377859103392,614.722781335773" stroke="red" stroke-width="1" fill="none" />
<path d="M143.59377859103392,614.722781335773 L143.59377859103392,597.2735590118938" stroke="red" stroke-width="1" fill="none" />
<path d="M143.59377859103392,597.2735590118938 L143.59377859103392,544.925892040256" stroke="red" stroke-width="1" fill="none" />
<path d="M143.59377859103392,544.925892040256 L161.04300091491314,544.925892040256" stroke="red" stroke-width="1" fill="none" />
<path d="M4.0,719.4181152790484 L4.0,543.8353156450137" stroke="red" stroke-width="1" fill="none" />
<path d="M4.0,543.8353156450137 L4.0,526.3860933211345" stroke="red" stroke-width="1" fill="none" />
<path d="M4.0,526.3860933211345 L4.0,386.79231473010054" stroke="red" stroke-width="1" fill="none" />
<path d="M178.49222323879235,544.925892040256 L195.94144556267156,544.925892040256" stroke="red" stroke-width="1" fill="none" />
<path d="M195.94144556267156,544.925892040256 L195.94144556267156,597.2735590118938" stroke="red" stroke-width="1" fill="none" />
<path d="M195.94144556267156,597.2735590118938 L195.94144556267156,615.8133577310155" stroke="red" stroke-width="1" fill="none" />
<path d="M195.94144556267156,615.8133577310155 L195.94144556267156,667.0704483074107" stroke="red" stroke-width="1" fill="none" />
<path d="M195.94144556267156,667.0704483074107 L283.18755718206774,667.0704483074107" stroke="red" stroke-width="1" fill="none" />
<path d="M283.18755718206774,667.0704483074107 L283.18755718206774,684.51967063129" stroke="red" stroke-width="1" fill="none" />
<path d="M283.18755718206774,701.9688929551692 L283.18755718206774,719.4181152790484" stroke="red" stroke-width="1" fill="none" />
<path d="M283.18755718206774,719.4181152790484 L178.49222323879235,719.4181152790484" stroke="red" stroke-width="1" fill="none" />
<path d="M178.49222323879235,719.4181152790484 L161.04300091491314,719.4181152790484" stroke="red" stroke-width="1" fill="none" />
<path d="M161.04300091491314,719.4181152790484 L4.0,719.4181152790484" stroke="red" stroke-width="1" fill="none" />
<path d="M300.63677950594695,684.51967063129 L300.63677950594695,667.0704483074107" stroke="red" stroke-width="1" fill="none" />
<path d="M300.63677950594695,667.0704483074107 L352.98444647758464,667.0704483074107" stroke="red" stroke-width="1" fill="none" />
<path d="M352.98444647758464,667.0704483074107 L370.43366880146385,667.0704483074107" stroke="red" stroke-width="1" fill="none" />
<path d="M370.43366880146385,667.0704483074107 L405.33211344922233,667.0704483074107" stroke="red" stroke-width="1" fill="none" />
<path d="M405.33211344922233,667.0704483074107 L405.33211344922233,684.51967063129" stroke="red" stroke-width="1" fill="none" />
<path d="M405.33211344922233,701.9688929551692 L405.33211344922233,719.4181152790484" stroke="red" stroke-width="1" fill="none" />
<path d="M405.33211344922233,719.4181152790484 L370.43366880146385,719.4181152790484" stroke="red" stroke-width="1" fill="none" />
<path d="M370.43366880146385,719.4181152790484 L352.98444647758464,719.4181152790484" stroke="red" stroke-width="1" fill="none" />
<path d="M352.98444647758464,719.4181152790484 L318.08600182982616,719.4181152790484" stroke="red" stroke-width="1" fill="none" />
<path d="M300.63677950594695,719.4181152790484 L300.63677950594695,701.9688929551692" stroke="red" stroke-width="1" fill="none" />
<path d="M318.08600182982616,719.4181152790484 L318.08600182982616,736.8673376029276" stroke="red" stroke-width="1" fill="none" />
<path d="M318.08600182982616,736.8673376029276 L335.5352241537054,736.8673376029276" stroke="red" stroke-width="1" fill="none" />
<path d="M335.5352241537054,736.8673376029276 L335.5352241537054,754.3165599268068" stroke="red" stroke-width="1" fill="none" />
<path d="M335.5352241537054,754.3165599268068 L300.63677950594695,754.3165599268068" stroke="red" stroke-width="1" fill="none" />
<path d="M283.18755718206774,754.3165599268068 L283.18755718206774,789.2150045745653" stroke="red" stroke-width="1" fill="none" />
<path d="M283.18755718206774,789.2150045745653 L230.83989021042999,789.2150045745653" stroke="red" stroke-width="1" fill="none" />
<path d="M213.39066788655077,789.2150045745653 L195.94144556267156,789.2150045745653" stroke="red" stroke-width="1" fill="none" />
<path d="M195.94144556267156,789.2150045745653 L195.94144556267156,771.765782250686" stroke="red" stroke-width="1" fill="none" />
<path d="M195.94144556267156,754.3165599268068 L195.94144556267156,736.8673376029276" stroke="red" stroke-width="1" fill="none" />
<path d="M195.94144556267156,736.8673376029276 L230.83989021042999,736.8673376029276" stroke="red" stroke-width="1" fill="none" />
<path d="M230.83989021042999,736.8673376029276 L230.83989021042999,771.765782250686" stroke="red" stroke-width="1" fill="none" />
<path d="M230.83989021042999,771.765782250686 L248.28911253430925,771.765782250686" stroke="red" stroke-width="1" fill="none" />
<path d="M248.28911253430925,771.765782250686 L248.28911253430925,754.3165599268068" stroke="red" stroke-width="1" fill="none" />
<path d="M248.28911253430925,754.3165599268068 L265.73833485818847,754.3165599268068" stroke="red" stroke-width="1" fill="none" />
<path d="M265.73833485818847,754.3165599268068 L265.73833485818847,736.8673376029276" stroke="red" stroke-width="1" fill="none" />
<path d="M283.18755718206774,736.8673376029276 L300.63677950594695,736.8673376029276" stroke="red" stroke-width="1" fill="none" />
<path d="M300.63677950594695,736.8673376029276 L300.63677950594695,719.4181152790484" stroke="red" stroke-width="1" fill="none" />
<path d="M422.78133577310155,684.51967063129 L440.2305580969808,688.8819762122597" stroke="red" stroke-width="1" fill="none" />
<path d="M440.2305580969808,688.8819762122597 L440.2305580969808,697.6065873741993" stroke="lavender" stroke-width="1" fill="none" />
<path d="M440.2305580969808,697.6065873741993 L422.78133577310155,701.9688929551692" stroke="red" stroke-width="1" fill="none" />
<path d="M178.49222323879235,771.765782250686 L161.04300091491314,767.4034766697163" stroke="red" stroke-width="1" fill="none" />
<path d="M161.04300091491314,767.4034766697163 L161.04300091491314,758.6788655077767" stroke="lavender" stroke-width="1" fill="none" />
<path d="M161.04300091491314,758.6788655077767 L178.49222323879235,754.3165599268068" stroke="red" stroke-width="1" fill="none" />
<path d="M230.83989021042999,789.2150045745653 L230.83989021042999,806.6642268984446" stroke="red" stroke-width="1" fill="none" />
<path d="M230.83989021042999,806.6642268984446 L248.28911253430925,806.6642268984446" stroke="red" stroke-width="1" fill="none" />
<path d="M248.28911253430925,806.6642268984446 L248.28911253430925,841.562671546203" stroke="red" stroke-width="1" fill="none" />
<path d="M248.28911253430925,841.562671546203 L230.83989021042999,841.562671546203" stroke="red" stroke-width="1" fill="none" />
<path d="M230.83989021042999,841.562671546203 L230.83989021042999,824.1134492223238" stroke="red" stroke-width="1" fill="none" />
<path d="M230.83989021042999,824.1134492223238 L213.39066788655077,824.1134492223238" stroke="red" stroke-width="1" fill="none" />
<path d="M213.39066788655077,824.1134492223238 L213.39066788655077,806.6642268984446" stroke="red" stroke-width="1" fill="none" />
<path d="M213.39066788655077,806.6642268984446 L213.39066788655077,789.2150045745653" stroke="red" stroke-width="1" fill="none" />
<path d="M283.18755718206774,684.51967063129 L290.8215919487649,684.51967063129" stroke="red" stroke-width="1" fill="none" />
<path d="M293.0027447392498,684.51967063129 L300.63677950594695,684.51967063129" stroke="red" stroke-width="1" fill="none" />
<path d="M290.8215919487649,701.9688929551692 L283.18755718206774,701.9688929551692" stroke="red" stroke-width="1" fill="none" />
<path d="M300.63677950594695,701.9688929551692 L293.0027447392498,701.9688929551692" stroke="red" stroke-width="1" fill="none" />
<path d="M293.0027447392498,701.9688929551692 L290.8215919487649,701.9688929551692" stroke="red" stroke-width="1" fill="none" />
<path d="M290.8215919487649,684.51967063129 L293.0027447392498,684.51967063129" stroke="red" stroke-width="1" fill="none" />
<path d="M405.33211344922233,684.51967063129 L412.9661482159195,684.51967063129" stroke="red" stroke-width="1" fill="none" />
<path d="M415.1473010064044,684.51967063129 L422.78133577310155,684.51967063129" stroke="red" stroke-width="1" fill="none" />
<path d="M412.9661482159195,701.9688929551692 L405.33211344922233,701.9688929551692" stroke="red" stroke-width="1" fill="none" />
<path d="M422.78133577310155,701.9688929551692 L415.1473010064044,701.9688929551692" stroke="red" stroke-width="1" fill="none" />
<path d="M415.1473010064044,701.9688929551692 L412.9661482159195,701.9688929551692" stroke="red" stroke-width="1" fill="none" />
<path d="M412.9661482159195,684.51967063129 L415.1473010064044,684.51967063129" stroke="red" stroke-width="1" fill="none" />
<path d="M178.49222323879235,754.3165599268068 L186.1262580054895,754.3165599268068" stroke="red" stroke-width="1" fill="none" />
<path d="M188.30741079597442,754.3165599268068 L195.94144556267156,754.3165599268068" stroke="red" stroke-width="1" fill="none" />
<path d="M186.1262580054895,771.765782250686 L178.49222323879235,771.765782250686" stroke="red" stroke-width="1" fill="none" />
<path d="M195.94144556267156,771.765782250686 L188.30741079597442,771.765782250686" stroke="red" stroke-width="1" fill="none" />
<path d="M188.30741079597442,771.765782250686 L186.1262580054895,771.765782250686" stroke="red" stroke-width="1" fill="none" />
<path d="M186.1262580054895,754.3165599268068 L188.30741079597442,754.3165599268068" stroke="red" stroke-width="1" fill="none" />
<path d="M38.89844464775854,265.7383348581884 L38.89844464775854,273.37236962488555" stroke="red" stroke-width="1" fill="none" />
<path d="M38.89844464775854,275.5535224153705 L38.89844464775854,283.1875571820676" stroke="red" stroke-width="1" fill="none" />
<path d="M21.449222323879326,273.37236962488555 L21.449222323879326,265.7383348581884" stroke="red" stroke-width="1" fill="none" />
<path d="M21.449222323879326,283.1875571820676 L21.449222323879326,275.5535224153705" stroke="red" stroke-width="1" fill="none" />
<path d="M21.449222323879326,275.5535224153705 L21.449222323879326,273.37236962488555" stroke="red" stroke-width="1" fill="none" />
<path d="M38.89844464775854,273.37236962488555 L38.89844464775854,275.5535224153705" stroke="red" stroke-width="1" fill="none" />
<path d="M1016.0548947849954,684.51967063129 L1016.0548947849954,685.6102470265324" stroke="red" stroke-width="1" fill="none" />
<path d="M998.6056724611161,685.6102470265324 L998.6056724611161,684.51967063129" stroke="red" stroke-width="1" fill="none" />
<path d="M1016.0548947849954,685.6102470265324 L1021.5077767612077,693.2442817932296" stroke="red" stroke-width="1" fill="none" />
<path d="M1021.5077767612077,693.2442817932296 L1031.3229643183897,698.6971637694418" stroke="red" stroke-width="1" fill="none" />
<path d="M1031.3229643183897,698.6971637694418 L1050.9533394327539,699.7877401646842" stroke="red" stroke-width="1" fill="none" />
<path d="M1050.9533394327539,699.7877401646842 L1055.3156450137237,712.8746569075937" stroke="red" stroke-width="1" fill="none" />
<path d="M1055.3156450137237,735.7767612076851 L1048.772186642269,745.5919487648672" stroke="red" stroke-width="1" fill="none" />
<path d="M1035.6852698993596,764.1317474839889 L1012.783165599268,775.0375114364134" stroke="red" stroke-width="1" fill="none" />
<path d="M1012.783165599268,775.0375114364134 L990.971637694419,773.946935041171" stroke="red" stroke-width="1" fill="none" />
<path d="M966.9789569990851,763.0411710887465 L961.5260750228728,748.8636779505946" stroke="red" stroke-width="1" fill="none" />
<path d="M961.5260750228728,748.8636779505946 L975.7035681610247,706.331198536139" stroke="red" stroke-width="1" fill="none" />
<path d="M975.7035681610247,706.331198536139 L998.6056724611161,685.6102470265324" stroke="red" stroke-width="1" fill="none" />
<path d="M990.971637694419,773.946935041171 L978.975297346752,788.1244281793229" stroke="red" stroke-width="1" fill="none" />
<path d="M978.975297346752,788.1244281793229 L959.344922232388,784.8526989935955" stroke="red" stroke-width="1" fill="none" />
<path d="M959.344922232388,784.8526989935955 L966.9789569990851,763.0411710887465" stroke="red" stroke-width="1" fill="none" />
<path d="M1055.3156450137237,712.8746569075937 L1074.9460201280876,718.3275388838059" stroke="red" stroke-width="1" fill="none" />
<path d="M1074.9460201280876,718.3275388838059 L1074.9460201280876,730.3238792314729" stroke="red" stroke-width="1" fill="none" />
<path d="M1074.9460201280876,730.3238792314729 L1055.3156450137237,735.7767612076851" stroke="red" stroke-width="1" fill="none" />
<path d="M1048.772186642269,745.5919487648672 L1073.8554437328453,745.5919487648672" stroke="red" stroke-width="1" fill="none" />
<path d="M1073.8554437328453,745.5919487648672 L1091.3046660567245,754.3165599268068" stroke="red" stroke-width="1" fill="none" />
<path d="M1091.3046660567245,754.3165599268068 L1108.7538883806037,736.8673376029276" stroke="red" stroke-width="1" fill="none" />
<path d="M1108.7538883806037,736.8673376029276 L1100.0292772186642,719.4181152790484" stroke="red" stroke-width="1" fill="none" />
<path d="M1100.0292772186642,719.4181152790484 L1100.0292772186642,701.9688929551692" stroke="red" stroke-width="1" fill="none" />
<path d="M1100.0292772186642,701.9688929551692 L1117.4784995425434,684.51967063129" stroke="red" stroke-width="1" fill="none" />
<path d="M1117.4784995425434,684.51967063129 L1134.9277218664226,700.8783165599267" stroke="red" stroke-width="1" fill="none" />
<path d="M1134.9277218664226,700.8783165599267 L1134.9277218664226,719.4181152790484" stroke="red" stroke-width="1" fill="none" />
<path d="M1134.9277218664226,719.4181152790484 L1126.2031107044832,736.8673376029276" stroke="red" stroke-width="1" fill="none" />
<path d="M1126.2031107044832,736.8673376029276 L1143.6523330283621,754.3165599268068" stroke="red" stroke-width="1" fill="none" />
<path d="M1143.6523330283621,754.3165599268068 L1161.1015553522416,745.5919487648672" stroke="red" stroke-width="1" fill="none" />
<path d="M1161.1015553522416,745.5919487648672 L1178.5507776761208,745.5919487648672" stroke="red" stroke-width="1" fill="none" />
<path d="M1178.5507776761208,745.5919487648672 L1196.0,763.0411710887465" stroke="red" stroke-width="1" fill="none" />
<path d="M1196.0,763.0411710887465 L1178.5507776761208,780.4903934126257" stroke="red" stroke-width="1" fill="none" />
<path d="M1178.5507776761208,780.4903934126257 L1161.1015553522416,780.4903934126257" stroke="red" stroke-width="1" fill="none" />
<path d="M1161.1015553522416,780.4903934126257 L1143.6523330283621,771.765782250686" stroke="red" stroke-width="1" fill="none" />
<path d="M1143.6523330283621,771.765782250686 L1126.2031107044832,789.2150045745653" stroke="red" stroke-width="1" fill="none" />
<path d="M1126.2031107044832,789.2150045745653 L1134.9277218664226,806.6642268984446" stroke="red" stroke-width="1" fill="none" />
<path d="M1134.9277218664226,806.6642268984446 L1134.9277218664226,824.1134492223238" stroke="red" stroke-width="1" fill="none" />
<path d="M1134.9277218664226,824.1134492223238 L1117.4784995425434,841.562671546203" stroke="red" stroke-width="1" fill="none" />
<path d="M1117.4784995425434,841.562671546203 L1100.0292772186642,824.1134492223238" stroke="red" stroke-width="1" fill="none" />
<path d="M1100.0292772186642,824.1134492223238 L1100.0292772186642,806.6642268984446" stroke="red" stroke-width="1" fill="none" />
<path d="M1100.0292772186642,806.6642268984446 L1108.7538883806037,789.2150045745653" stroke="red" stroke-width="1" fill="none" />
<path d="M1108.7538883806037,789.2150045745653 L1091.3046660567245,771.765782250686" stroke="red" stroke-width="1" fill="none" />
<path d="M1091.3046660567245,771.765782250686 L1073.8554437328453,780.4903934126257" stroke="red" stroke-width="1" fill="none" />
<path d="M1073.8554437328453,780.4903934126257 L1056.406221408966,780.4903934126257" stroke="red" stroke-width="1" fill="none" />
<path d="M1056.406221408966,780.4903934126257 L1035.6852698993596,764.1317474839889" stroke="red" stroke-width="1" fill="none" />
<path d="M1116.387923147301,768.4940530649587 L1118.5690759377858,768.4940530649587" stroke="red" stroke-width="1" fill="none" />
<path d="M1118.5690759377858,768.4940530649587 L1122.9313815187556,764.1317474839889" stroke="red" stroke-width="1" fill="none" />
<path d="M1122.9313815187556,764.1317474839889 L1122.9313815187556,761.950594693504" stroke="red" stroke-width="1" fill="none" />
<path d="M1122.9313815187556,761.950594693504 L1118.5690759377858,757.5882891125342" stroke="red" stroke-width="1" fill="none" />
<path d="M1118.5690759377858,757.5882891125342 L1116.387923147301,757.5882891125342" stroke="red" stroke-width="1" fill="none" />
<path d="M1116.387923147301,757.5882891125342 L1112.0256175663312,761.950594693504" stroke="red" stroke-width="1" fill="none" />
<path d="M1112.0256175663312,761.950594693504 L1112.0256175663312,764.1317474839889" stroke="red" stroke-width="1" fill="none" />
<path d="M1112.0256175663312,764.1317474839889 L1116.387923147301,768.4940530649587" stroke="red" stroke-width="1" fill="none" />
<path d="M265.73833485818847,736.8673376029276 L283.18755718206774,736.8673376029276" stroke="red" stroke-width="1" fill="none" />
<path d="M300.63677950594695,754.3165599268068 L283.18755718206774,754.3165599268068" stroke="red" stroke-width="1" fill="none" />
</svg>