<?xml version="1.0" encoding="UTF-8"?>
<svg xmlns="http://www.w3.org/2000/svg" xmlns:xlink="http://www.w3.org/1999/xlink"
     width="1200" height="1231" viewBox="0 0 1200 1231">
<defs>
</defs>
<path d="M428.45103857566767,134.8724035608309 L545.1750741839763,134.8724035608309" stroke="yellow" stroke-width="1" fill="none" />
<path d="M658.3620178041543,134.8724035608309 L771.5489614243323,134.8724035608309" stroke="yellow" stroke-width="1" fill="none" />
<path d="M545.1750741839763,134.8724035608309 L545.1750741839763,135.75667655786356" stroke="yellow" stroke-width="1" fill="none" />
<path d="M545.1750741839763,135.75667655786356 L658.3620178041543,135.75667655786356" stroke="yellow" stroke-width="1" fill="none" />
<path d="M658.3620178041543,135.75667655786356 L658.3620178041543,134.8724035608309" stroke="yellow" stroke-width="1" fill="none" />
<path d="M545.1750741839763,135.75667655786356 L545.1750741839763,136.6409495548961" stroke="yellow" stroke-width="1" fill="none" />
<path d="M545.1750741839763,136.6409495548961 L658.3620178041543,136.6409495548961" stroke="yellow" stroke-width="1" fill="none" />
<path d="M488.5816023738872,219.76261127596445 L714.9554896142434,219.76261127596445" stroke="yellow" stroke-width="1" fill="none" />
<path d="M714.9554896142434,219.76261127596445 L771.5489614243323,135.75667655786356" stroke="yellow" stroke-width="1" fill="none" />
<path d="M587.620178041543,134.8724035608309 L615.9169139465877,134.8724035608309" stroke="yellow" stroke-width="1" fill="none" />
<path d="M1196.0,729.1038575667656 L997.9228486646886,527.4896142433234" stroke="lavender" stroke-width="1" fill="none" />
<path d="M997.9228486646886,527.4896142433234 L205.6142433234421,527.4896142433234" stroke="lavender" stroke-width="1" fill="none" />
<path d="M205.6142433234421,527.4896142433234 L7.537091988130555,729.1038575667656" stroke="lavender" stroke-width="1" fill="none" />
<path d="M997.9228486646886,898.8842729970327 L997.9228486646886,700.8071216617211" stroke="yellow" stroke-width="1" fill="none" />
<path d="M997.9228486646886,700.8071216617211 L941.3293768545994,615.9169139465876" stroke="yellow" stroke-width="1" fill="none" />
<path d="M941.3293768545994,615.9169139465876 L262.2077151335312,615.9169139465876" stroke="yellow" stroke-width="1" fill="none" />
<path d="M205.6142433234421,700.8071216617211 L205.6142433234421,898.8842729970327" stroke="yellow" stroke-width="1" fill="none" />
<path d="M884.7359050445103,757.4005934718101 L262.2077151335312,757.4005934718101" stroke="yellow" stroke-width="1" fill="none" />
<path d="M644.2136498516321,898.8842729970327 L559.3234421364986,898.8842729970327" stroke="yellow" stroke-width="1" fill="none" />
<path d="M573.4718100890208,417.839762611276 L630.0652818991099,417.839762611276" stroke="lavender" stroke-width="1" fill="none" />
<path d="M630.0652818991099,417.839762611276 L630.0652818991099,361.24629080118694" stroke="lavender" stroke-width="1" fill="none" />
<path d="M630.0652818991099,361.24629080118694 L573.4718100890208,361.24629080118694" stroke="lavender" stroke-width="1" fill="none" />
<path d="M573.4718100890208,361.24629080118694 L573.4718100890208,417.839762611276" stroke="lavender" stroke-width="1" fill="none" />
<path d="M262.2077151335312,615.9169139465876 L233.91097922848667,651.2878338278932" stroke="yellow" stroke-width="1" fill="none" />
<path d="M233.91097922848667,651.2878338278932 L205.6142433234421,700.8071216617211" stroke="lavender" stroke-width="1" fill="none" />
<path d="M941.3293768545994,757.4005934718101 L884.7359050445103,757.4005934718101" stroke="lavender" stroke-width="1" fill="none" />
<path d="M615.9169139465877,106.57566765578633 L587.620178041543,106.57566765578633" stroke="yellow" stroke-width="1" fill="none" />
<path d="M262.2077151335312,757.4005934718101 L233.91097922848667,898.8842729970327" stroke="yellow" stroke-width="1" fill="none" />
<path d="M969.6261127596439,898.8842729970327 L941.3293768545994,757.4005934718101" stroke="yellow" stroke-width="1" fill="none" />
<path d="M428.45103857566767,135.75667655786356 L488.5816023738872,219.76261127596445" stroke="yellow" stroke-width="1" fill="none" />
<path d="M658.3620178041543,135.75667655786356 L771.5489614243323,135.75667655786356" stroke="yellow" stroke-width="1" fill="none" />
<path d="M428.45103857566767,135.75667655786356 L545.1750741839763,135.75667655786356" stroke="yellow" stroke-width="1" fill="none" />
<path d="M658.3620178041543,136.6409495548961 L658.3620178041543,135.75667655786356" stroke="yellow" stroke-width="1" fill="none" />
<path d="M615.9169139465877,1054.5163204747773 L658.3620178041543,1096.9614243323442" stroke="yellow" stroke-width="1" fill="none" />
<path d="M658.3620178041543,1153.5548961424333 L612.379821958457,1199.5370919881307" stroke="yellow" stroke-width="1" fill="none" />
<path d="M562.860534124629,1199.5370919881307 L516.8783382789317,1153.5548961424333" stroke="yellow" stroke-width="1" fill="none" />
<path d="M516.8783382789317,1096.9614243323442 L555.7863501483679,1058.053412462908" stroke="yellow" stroke-width="1" fill="none" />
<path d="M573.4718100890208,1040.367952522255 L601.7685459940652,1040.367952522255" stroke="lavender" stroke-width="1" fill="none" />
<path d="M771.5489614243323,135.75667655786356 L1196.0,361.24629080118694" stroke="red" stroke-width="1" fill="none" />
<path d="M1196.0,361.24629080118694 L1196.0,729.1038575667656" stroke="red" stroke-width="1" fill="none" />
<path d="M7.537091988130555,729.1038575667656 L4.0,361.24629080118694" stroke="red" stroke-width="1" fill="none" />
<path d="M4.0,361.24629080118694 L428.45103857566767,135.75667655786356" stroke="red" stroke-width="1" fill="none" />
<path d="M205.6142433234421,898.8842729970327 L7.537091988130555,729.1038575667656" stroke="red" stroke-width="1" fill="none" />
<path d="M428.45103857566767,134.8724035608309 L428.45103857566767,133.98813056379822" stroke="red" stroke-width="1" fill="none" />
<path d="M428.45103857566767,133.98813056379822 L545.1750741839763,133.98813056379822" stroke="red" stroke-width="1" fill="none" />
<path d="M545.1750741839763,133.98813056379822 L545.1750741839763,134.8724035608309" stroke="red" stroke-width="1" fill="none" />
<path d="M658.3620178041543,134.8724035608309 L658.3620178041543,133.98813056379822" stroke="red" stroke-width="1" fill="none" />
<path d="M658.3620178041543,133.98813056379822 L771.5489614243323,133.98813056379822" stroke="red" stroke-width="1" fill="none" />
<path d="M771.5489614243323,133.98813056379822 L771.5489614243323,134.8724035608309" stroke="red" stroke-width="1" fill="none" />
<path d="M545.1750741839763,134.8724035608309 L587.620178041543,134.8724035608309" stroke="red" stroke-width="1" fill="none" />
<path d="M615.9169139465877,134.8724035608309 L658.3620178041543,134.8724035608309" stroke="red" stroke-width="1" fill="none" />
<path d="M587.620178041543,134.8724035608309 L587.620178041543,106.57566765578633" stroke="red" stroke-width="1" fill="none" />
<path d="M587.620178041543,106.57566765578633 L587.620178041543,4.0" stroke="red" stroke-width="1" fill="none" />
<path d="M615.9169139465877,106.57566765578633 L615.9169139465877,134.8724035608309" stroke="red" stroke-width="1" fill="none" />
<path d="M1196.0,729.1038575667656 L997.9228486646886,898.8842729970327" stroke="red" stroke-width="1" fill="none" />
<path d="M969.6261127596439,898.8842729970327 L644.2136498516321,898.8842729970327" stroke="red" stroke-width="1" fill="none" />
<path d="M644.2136498516321,898.8842729970327 L644.2136498516321,927.1810089020771" stroke="red" stroke-width="1" fill="none" />
<path d="M559.3234421364986,927.1810089020771 L559.3234421364986,898.8842729970327" stroke="red" stroke-width="1" fill="none" />
<path d="M559.3234421364986,898.8842729970327 L233.91097922848667,898.8842729970327" stroke="red" stroke-width="1" fill="none" />
<path d="M615.9169139465877,955.4777448071217 L587.620178041543,955.4777448071217" stroke="lavender" stroke-width="1" fill="none" />
<path d="M997.9228486646886,898.8842729970327 L969.6261127596439,898.8842729970327" stroke="red" stroke-width="1" fill="none" />
<path d="M233.91097922848667,898.8842729970327 L205.6142433234421,898.8842729970327" stroke="red" stroke-width="1" fill="none" />
<path d="M587.620178041543,4.0 L615.9169139465877,4.0" stroke="red" stroke-width="1" fill="none" />
<path d="M615.9169139465877,4.0 L615.9169139465877,106.57566765578633" stroke="red" stroke-width="1" fill="none" />
<path d="M1196.0,785.6973293768547 L1196.0,870.5875370919881" stroke="red" stroke-width="1" fill="none" />
<path d="M428.45103857566767,135.75667655786356 L428.45103857566767,134.8724035608309" stroke="red" stroke-width="1" fill="none" />
<path d="M771.5489614243323,134.8724035608309 L771.5489614243323,135.75667655786356" stroke="red" stroke-width="1" fill="none" />
<path d="M573.4718100890208,1040.367952522255 L573.4718100890208,1012.0712166172107" stroke="red" stroke-width="1" fill="none" />
<path d="M573.4718100890208,1012.0712166172107 L601.7685459940652,1012.0712166172107" stroke="lavender" stroke-width="1" fill="none" />
<path d="M601.7685459940652,1012.0712166172107 L601.7685459940652,1040.367952522255" stroke="red" stroke-width="1" fill="none" />
<path d="M601.7685459940652,1040.367952522255 L615.9169139465877,1054.5163204747773" stroke="red" stroke-width="1" fill="none" />
<path d="M658.3620178041543,1096.9614243323442 L658.3620178041543,1153.5548961424333" stroke="red" stroke-width="1" fill="none" />
<path d="M612.379821958457,1199.5370919881307 L601.7685459940652,1210.1483679525222" stroke="red" stroke-width="1" fill="none" />
<path d="M601.7685459940652,1210.1483679525222 L573.4718100890208,1210.1483679525222" stroke="red" stroke-width="1" fill="none" />
<path d="M573.4718100890208,1210.1483679525222 L562.860534124629,1199.5370919881307" stroke="red" stroke-width="1" fill="none" />
<path d="M516.8783382789317,1153.5548961424333 L516.8783382789317,1096.9614243323442" stroke="red" stroke-width="1" fill="none" />
<path d="M555.7863501483679,1058.053412462908 L573.4718100890208,1040.367952522255" stroke="red" stroke-width="1" fill="none" />
<path d="M615.9169139465877,1054.5163204747773 L626.5281899109792,1043.9050445103858" stroke="red" stroke-width="1" fill="none" />
<path d="M626.5281899109792,1043.9050445103858 L668.9732937685461,1086.3501483679524" stroke="red" stroke-width="1" fill="none" />
<path d="M668.9732937685461,1086.3501483679524 L658.3620178041543,1096.9614243323442" stroke="red" stroke-width="1" fill="none" />
<path d="M658.3620178041543,1153.5548961424333 L686.6587537091988,1181.8516320474778" stroke="red" stroke-width="1" fill="none" />
<path d="M686.6587537091988,1181.8516320474778 L640.6765578635014,1227.833827893175" stroke="red" stroke-width="1" fill="none" />
<path d="M640.6765578635014,1227.833827893175 L612.379821958457,1199.5370919881307" stroke="red" stroke-width="1" fill="none" />
<path d="M562.860534124629,1199.5370919881307 L534.5637982195846,1227.833827893175" stroke="red" stroke-width="1" fill="none" />
<path d="M534.5637982195846,1227.833827893175 L488.5816023738872,1181.8516320474778" stroke="red" stroke-width="1" fill="none" />
<path d="M488.5816023738872,1181.8516320474778 L516.8783382789317,1153.5548961424333" stroke="red" stroke-width="1" fill="none" />
<path d="M516.8783382789317,1096.9614243323442 L506.2670623145401,1086.3501483679524" stroke="red" stroke-width="1" fill="none" />
<path d="M506.2670623145401,1086.3501483679524 L545.1750741839763,1047.4421364985164" stroke="red" stroke-width="1" fill="none" />
<path d="M545.1750741839763,1047.4421364985164 L555.7863501483679,1058.053412462908" stroke="red" stroke-width="1" fill="none" />
<path d="M644.2136498516321,955.4777448071217 L615.9169139465877,955.4777448071217" stroke="red" stroke-width="1" fill="none" />
<path d="M587.620178041543,955.4777448071217 L559.3234421364986,955.4777448071217" stroke="red" stroke-width="1" fill="none" />
<path d="M559.3234421364986,955.4777448071217 L559.3234421364986,927.1810089020771" stroke="red" stroke-width="1" fill="none" />
<path d="M644.2136498516321,927.1810089020771 L644.2136498516321,955.4777448071217" stroke="red" stroke-width="1" fill="none" />
</svg>